<svg width="406" height="1431" viewBox="0 0 406 1431" fill="none" xmlns="http://www.w3.org/2000/svg">
<g clip-path="url(#clip0_3002_285)">
<rect width="405.676" height="1430.87" fill="white"/>
<rect x="-33.002" width="463.629" height="629.173" fill="#D9D9D9"/>
<rect x="-33.002" width="439.214" height="563.17" fill="url(#paint0_linear_3002_285)"/>
<rect x="-37.832" y="442.701" width="463.629" height="1106.75" fill="url(#paint1_linear_3002_285)"/>
<circle cx="207.534" cy="220.679" r="130.798" fill="url(#paint2_linear_3002_285)" stroke="#FFE6B4" stroke-width="2.68304"/>
<g opacity="0.5">
<ellipse cx="22.3791" cy="15.0894" rx="22.3791" ry="15.0894" transform="matrix(-1 0 0 1 367.201 89.8848)" fill="#022838"/>
<ellipse cx="22.3791" cy="15.0894" rx="22.3791" ry="15.0894" transform="matrix(-1 0 0 1 367.201 89.8848)" fill="#022838"/>
<ellipse cx="22.3791" cy="15.0894" rx="22.3791" ry="15.0894" transform="matrix(-1 0 0 1 367.201 89.8848)" fill="#022838"/>
<ellipse cx="22.3791" cy="15.0894" rx="22.3791" ry="15.0894" transform="matrix(-1 0 0 1 367.201 89.8848)" fill="#F0F2E4"/>
<ellipse cx="13.0249" cy="11.1813" rx="13.0249" ry="11.1813" transform="matrix(-1 0 0 1 328.84 100.523)" fill="#022838"/>
<ellipse cx="13.0249" cy="11.1813" rx="13.0249" ry="11.1813" transform="matrix(-1 0 0 1 328.84 100.523)" fill="#022838"/>
<ellipse cx="13.0249" cy="11.1813" rx="13.0249" ry="11.1813" transform="matrix(-1 0 0 1 328.84 100.523)" fill="#022838"/>
<ellipse cx="13.0249" cy="11.1813" rx="13.0249" ry="11.1813" transform="matrix(-1 0 0 1 328.84 100.523)" fill="#F0F2E4"/>
<path d="M362.232 116.089C362.232 122.288 368.063 121.791 375.256 121.791C382.45 121.791 388.281 122.288 388.281 116.089C388.281 109.89 382.45 104.865 375.256 104.865C368.063 104.865 362.232 109.89 362.232 116.089Z" fill="#022838"/>
<path d="M362.232 116.089C362.232 122.288 368.063 121.791 375.256 121.791C382.45 121.791 388.281 122.288 388.281 116.089C388.281 109.89 382.45 104.865 375.256 104.865C368.063 104.865 362.232 109.89 362.232 116.089Z" fill="#022838"/>
<path d="M362.232 116.089C362.232 122.288 368.063 121.791 375.256 121.791C382.45 121.791 388.281 122.288 388.281 116.089C388.281 109.89 382.45 104.865 375.256 104.865C368.063 104.865 362.232 109.89 362.232 116.089Z" fill="#022838"/>
<path d="M362.232 116.089C362.232 122.288 368.063 121.791 375.256 121.791C382.45 121.791 388.281 122.288 388.281 116.089C388.281 109.89 382.45 104.865 375.256 104.865C368.063 104.865 362.232 109.89 362.232 116.089Z" fill="#F0F2E4"/>
<path d="M293.79 120.356C293.79 123.394 315.577 122.757 342.121 122.757C368.665 122.757 392.779 123.671 392.779 120.634C392.779 117.597 369.292 113.984 342.748 113.984C316.204 113.984 293.79 117.319 293.79 120.356Z" fill="#022838"/>
<path d="M293.79 120.356C293.79 123.394 315.577 122.757 342.121 122.757C368.665 122.757 392.779 123.671 392.779 120.634C392.779 117.597 369.292 113.984 342.748 113.984C316.204 113.984 293.79 117.319 293.79 120.356Z" fill="#022838"/>
<path d="M293.79 120.356C293.79 123.394 315.577 122.757 342.121 122.757C368.665 122.757 392.779 123.671 392.779 120.634C392.779 117.597 369.292 113.984 342.748 113.984C316.204 113.984 293.79 117.319 293.79 120.356Z" fill="#022838"/>
<path d="M293.79 120.356C293.79 123.394 315.577 122.757 342.121 122.757C368.665 122.757 392.779 123.671 392.779 120.634C392.779 117.597 369.292 113.984 342.748 113.984C316.204 113.984 293.79 117.319 293.79 120.356Z" fill="#F0F2E4"/>
</g>
<ellipse cx="22.3791" cy="15.0894" rx="22.3791" ry="15.0894" transform="matrix(-1 0 0 1 156.316 251.666)" fill="#022838"/>
<ellipse cx="22.3791" cy="15.0894" rx="22.3791" ry="15.0894" transform="matrix(-1 0 0 1 156.316 251.666)" fill="#022838"/>
<ellipse cx="22.3791" cy="15.0894" rx="22.3791" ry="15.0894" transform="matrix(-1 0 0 1 156.316 251.666)" fill="#022838"/>
<ellipse cx="22.3791" cy="15.0894" rx="22.3791" ry="15.0894" transform="matrix(-1 0 0 1 156.316 251.666)" fill="#F0F2E4"/>
<ellipse cx="13.0249" cy="11.1813" rx="13.0249" ry="11.1813" transform="matrix(-1 0 0 1 117.955 262.305)" fill="#022838"/>
<ellipse cx="13.0249" cy="11.1813" rx="13.0249" ry="11.1813" transform="matrix(-1 0 0 1 117.955 262.305)" fill="#022838"/>
<ellipse cx="13.0249" cy="11.1813" rx="13.0249" ry="11.1813" transform="matrix(-1 0 0 1 117.955 262.305)" fill="#022838"/>
<ellipse cx="13.0249" cy="11.1813" rx="13.0249" ry="11.1813" transform="matrix(-1 0 0 1 117.955 262.305)" fill="#F0F2E4"/>
<path d="M151.347 277.871C151.347 284.07 157.178 283.572 164.372 283.572C171.565 283.572 177.396 284.07 177.396 277.871C177.396 271.672 171.565 266.646 164.372 266.646C157.178 266.646 151.347 271.672 151.347 277.871Z" fill="#022838"/>
<path d="M151.347 277.871C151.347 284.07 157.178 283.572 164.372 283.572C171.565 283.572 177.396 284.07 177.396 277.871C177.396 271.672 171.565 266.646 164.372 266.646C157.178 266.646 151.347 271.672 151.347 277.871Z" fill="#022838"/>
<path d="M151.347 277.871C151.347 284.07 157.178 283.572 164.372 283.572C171.565 283.572 177.396 284.07 177.396 277.871C177.396 271.672 171.565 266.646 164.372 266.646C157.178 266.646 151.347 271.672 151.347 277.871Z" fill="#022838"/>
<path d="M151.347 277.871C151.347 284.07 157.178 283.572 164.372 283.572C171.565 283.572 177.396 284.07 177.396 277.871C177.396 271.672 171.565 266.646 164.372 266.646C157.178 266.646 151.347 271.672 151.347 277.871Z" fill="#F0F2E4"/>
<path d="M82.9056 282.138C82.9056 285.175 104.692 284.538 131.237 284.538C157.781 284.538 181.895 285.453 181.895 282.415C181.895 279.378 158.407 275.766 131.863 275.766C105.319 275.766 82.9056 279.101 82.9056 282.138Z" fill="#022838"/>
<path d="M82.9056 282.138C82.9056 285.175 104.692 284.538 131.237 284.538C157.781 284.538 181.895 285.453 181.895 282.415C181.895 279.378 158.407 275.766 131.863 275.766C105.319 275.766 82.9056 279.101 82.9056 282.138Z" fill="#022838"/>
<path d="M82.9056 282.138C82.9056 285.175 104.692 284.538 131.237 284.538C157.781 284.538 181.895 285.453 181.895 282.415C181.895 279.378 158.407 275.766 131.863 275.766C105.319 275.766 82.9056 279.101 82.9056 282.138Z" fill="#022838"/>
<path d="M82.9056 282.138C82.9056 285.175 104.692 284.538 131.237 284.538C157.781 284.538 181.895 285.453 181.895 282.415C181.895 279.378 158.407 275.766 131.863 275.766C105.319 275.766 82.9056 279.101 82.9056 282.138Z" fill="#F0F2E4"/>
<path opacity="0.45" d="M-34.6523 372.344V440.645H450.81V364.892L421.086 355.363L390.749 361.331L283.77 382.377L247.89 371.595L222.421 363.942L186.025 376.264L184.985 376.616L168.639 382.149L161.6 384.532L158.28 384.03L153.77 383.349L119.925 378.238L87.7593 373.381L75.8208 370.634L56.2491 366.13L25.374 359.026L14.5324 361.431L-7.65464 366.353L-11.0493 367.107L-18.1131 368.675L-28.6101 371.003L-28.8778 371.063L-34.6523 372.344Z" fill="#529FAF"/>
<path opacity="0.65" d="M450.81 514.682H-34.6523V406.557L13.3002 425.35L36.2495 415.396L96.8752 436.001L145.856 421.857L164.352 415.306L232.328 439.799L318.144 413.845L411.995 429.934L450.81 413.821V514.682Z" fill="#AFE0E4"/>
<g opacity="0.5">
<ellipse cx="36.5706" cy="24.6582" rx="36.5706" ry="24.6582" transform="matrix(-1 0 0 1 109.5 215.984)" fill="#022838"/>
<ellipse cx="36.5706" cy="24.6582" rx="36.5706" ry="24.6582" transform="matrix(-1 0 0 1 109.5 215.984)" fill="#022838"/>
<ellipse cx="36.5706" cy="24.6582" rx="36.5706" ry="24.6582" transform="matrix(-1 0 0 1 109.5 215.984)" fill="#022838"/>
<ellipse cx="36.5706" cy="24.6582" rx="36.5706" ry="24.6582" transform="matrix(-1 0 0 1 109.5 215.984)" fill="#F0F2E4"/>
<ellipse cx="21.2845" cy="18.2719" rx="21.2845" ry="18.2719" transform="matrix(-1 0 0 1 46.8125 233.369)" fill="#022838"/>
<ellipse cx="21.2845" cy="18.2719" rx="21.2845" ry="18.2719" transform="matrix(-1 0 0 1 46.8125 233.369)" fill="#022838"/>
<ellipse cx="21.2845" cy="18.2719" rx="21.2845" ry="18.2719" transform="matrix(-1 0 0 1 46.8125 233.369)" fill="#022838"/>
<ellipse cx="21.2845" cy="18.2719" rx="21.2845" ry="18.2719" transform="matrix(-1 0 0 1 46.8125 233.369)" fill="#F0F2E4"/>
<path d="M101.378 258.807C101.378 268.937 110.908 268.123 122.663 268.123C134.418 268.123 143.947 268.937 143.947 258.807C143.947 248.677 134.418 240.465 122.663 240.465C110.908 240.465 101.378 248.677 101.378 258.807Z" fill="#022838"/>
<path d="M101.378 258.807C101.378 268.937 110.908 268.123 122.663 268.123C134.418 268.123 143.947 268.937 143.947 258.807C143.947 248.677 134.418 240.465 122.663 240.465C110.908 240.465 101.378 248.677 101.378 258.807Z" fill="#022838"/>
<path d="M101.378 258.807C101.378 268.937 110.908 268.123 122.663 268.123C134.418 268.123 143.947 268.937 143.947 258.807C143.947 248.677 134.418 240.465 122.663 240.465C110.908 240.465 101.378 248.677 101.378 258.807Z" fill="#022838"/>
<path d="M101.378 258.807C101.378 268.937 110.908 268.123 122.663 268.123C134.418 268.123 143.947 268.937 143.947 258.807C143.947 248.677 134.418 240.465 122.663 240.465C110.908 240.465 101.378 248.677 101.378 258.807Z" fill="#F0F2E4"/>
<path d="M-10.4633 265.78C-10.4633 270.743 25.1395 269.703 68.5164 269.703C111.893 269.703 151.299 271.197 151.299 266.234C151.299 261.271 112.917 255.367 69.5402 255.367C26.1633 255.367 -10.4633 260.817 -10.4633 265.78Z" fill="#022838"/>
<path d="M-10.4633 265.78C-10.4633 270.743 25.1395 269.703 68.5164 269.703C111.893 269.703 151.299 271.197 151.299 266.234C151.299 261.271 112.917 255.367 69.5402 255.367C26.1633 255.367 -10.4633 260.817 -10.4633 265.78Z" fill="#022838"/>
<path d="M-10.4633 265.78C-10.4633 270.743 25.1395 269.703 68.5164 269.703C111.893 269.703 151.299 271.197 151.299 266.234C151.299 261.271 112.917 255.367 69.5402 255.367C26.1633 255.367 -10.4633 260.817 -10.4633 265.78Z" fill="#022838"/>
<path d="M-10.4633 265.78C-10.4633 270.743 25.1395 269.703 68.5164 269.703C111.893 269.703 151.299 271.197 151.299 266.234C151.299 261.271 112.917 255.367 69.5402 255.367C26.1633 255.367 -10.4633 260.817 -10.4633 265.78Z" fill="#F0F2E4"/>
</g>
<rect x="-33.002" y="593.488" width="462.288" height="12.6103" fill="#FFDCAA"/>
<rect x="-32.4648" y="599.928" width="462.288" height="12.6103" fill="#C08A5F"/>
<rect x="-32.4648" y="602.877" width="462.288" height="12.6103" fill="#FFDCAA"/>
<rect x="-32.4648" y="613.611" width="462.288" height="12.6103" fill="#C08A5F"/>
<rect x="-32.4648" y="616.562" width="462.288" height="12.6103" fill="#FFDCAA"/>
<rect x="-33.002" y="623.002" width="462.288" height="12.6103" fill="#FFDCAA"/>
<rect x="-32.4648" y="629.441" width="462.288" height="12.6103" fill="#C08A5F"/>
<rect x="-32.4648" y="632.393" width="462.288" height="12.6103" fill="#FFDCAA"/>
<rect x="-32.4648" y="643.123" width="462.288" height="12.6103" fill="#C08A5F"/>
<rect x="-32.4648" y="646.076" width="462.288" height="12.6103" fill="#FFDCAA"/>
<path d="M211.021 601.807V614.551" stroke="#C08A5F" stroke-width="2.68304"/>
<path d="M297.012 631.32V644.065" stroke="#C08A5F" stroke-width="2.68304"/>
<path d="M171.984 645.002V658.685" stroke="#C08A5F" stroke-width="2.68304"/>
<path d="M72.7109 616.562V629.307" stroke="#C08A5F" stroke-width="2.68304"/>
<path d="M310.965 142.471C313.778 138.734 320.902 133.503 326.889 142.471C333.023 135.71 336.525 135.637 343.161 142.471" stroke="#8CA189" stroke-width="4.02456" stroke-linecap="round" stroke-linejoin="round"/>
<path d="M70.2969 240.402C74.5876 234.699 85.4514 226.715 94.5813 240.402C103.936 230.083 109.276 229.972 119.397 240.402" stroke="#8CA189" stroke-width="5.36608" stroke-linecap="round" stroke-linejoin="round"/>
<path d="M335.916 155.08C337.159 153.507 340.305 151.304 342.949 155.08C345.659 152.233 347.205 152.203 350.136 155.08" stroke="#8CA189" stroke-width="4.02456" stroke-linecap="round" stroke-linejoin="round"/>
<g clip-path="url(#clip1_3002_285)">
<path d="M186.287 352.684V361.721H193.037V339.938C193.037 339.938 186.287 345.741 186.287 352.684Z" fill="#FFDCAA"/>
<path d="M199.797 352.684V361.721H193.047V339.938C193.047 339.938 199.797 345.741 199.797 352.684Z" fill="#FFDCAA"/>
<path d="M365.151 575.889H20.9258V584.766H365.151V575.889Z" fill="#FFDCAA"/>
<path d="M365.151 445.551H20.9258V454.428H365.151V445.551Z" fill="#FFDCAA"/>
<path d="M365.151 424.262H20.9258V433.139H365.151V424.262Z" fill="#FFDCAA"/>
<path d="M365.16 424.261L361.864 432.494L193.038 365.05L24.2214 432.494L20.9258 424.261L193.038 355.492L365.16 424.261Z" fill="#FFDCAA"/>
<path d="M358.604 433.141H27.4727V445.561H358.604V433.141Z" fill="#C08A5F"/>
<path d="M20.927 593.572H365.152V584.756H20.927V593.572Z" fill="#E3B383"/>
<path d="M347.77 454.43H34.707V575.891H347.77V454.43Z" fill="#C08A5F"/>
<path d="M44.1007 468.879H32.5176V561.446H44.1007V468.879Z" fill="#FFDCAA"/>
<path d="M27.4727 454.428V459.489C30.2558 459.489 32.5176 461.742 32.5176 464.524H44.1008C44.1008 461.742 46.3538 459.489 49.1458 459.489V454.428H27.4727Z" fill="#E3B383"/>
<path d="M44.1023 464.523H32.5192C31.3176 464.523 30.3457 465.495 30.3457 466.696C30.3457 467.898 31.3176 468.87 32.5192 468.87H44.1023C45.304 468.87 46.2758 467.898 46.2758 466.696C46.2758 465.495 45.304 464.523 44.1023 464.523Z" fill="#E3B383"/>
<path d="M27.4727 575.888V570.826C30.2558 570.826 32.5176 568.574 32.5176 565.791H44.1008C44.1008 568.574 46.3538 570.826 49.1458 570.826V575.888H27.4727Z" fill="#E3B383"/>
<path d="M44.1023 565.793H32.5192C31.3176 565.793 30.3457 564.822 30.3457 563.62C30.3457 562.419 31.3176 561.447 32.5192 561.447H44.1023C45.304 561.447 46.2758 562.419 46.2758 563.62C46.2758 564.822 45.304 565.793 44.1023 565.793Z" fill="#E3B383"/>
<path d="M88.3097 468.879H76.7266V561.446H88.3097V468.879Z" fill="#FFDCAA"/>
<path d="M71.6816 454.428V459.489C74.4648 459.489 76.7266 461.742 76.7266 464.524H88.3098C88.3098 461.742 90.5628 459.489 93.3548 459.489V454.428H71.6905H71.6816Z" fill="#E3B383"/>
<path d="M88.3016 464.523H76.7184C75.5168 464.523 74.5449 465.495 74.5449 466.696C74.5449 467.898 75.5168 468.87 76.7184 468.87H88.3016C89.5032 468.87 90.4751 467.898 90.4751 466.696C90.4751 465.495 89.5032 464.523 88.3016 464.523Z" fill="#E3B383"/>
<path d="M71.6816 575.888V570.826C74.4648 570.826 76.7266 568.574 76.7266 565.791H88.3098C88.3098 568.574 90.5628 570.826 93.3548 570.826V575.888H71.6905H71.6816Z" fill="#E3B383"/>
<path d="M88.3016 565.793H76.7184C75.5168 565.793 74.5449 564.822 74.5449 563.62C74.5449 562.419 75.5168 561.447 76.7184 561.447H88.3016C89.5032 561.447 90.4751 562.419 90.4751 563.62C90.4751 564.822 89.5032 565.793 88.3016 565.793Z" fill="#E3B383"/>
<path d="M132.515 468.879H120.932V561.446H132.515V468.879Z" fill="#FFDCAA"/>
<path d="M115.896 454.428V459.489C118.68 459.489 120.941 461.742 120.941 464.524H132.525C132.525 461.742 134.778 459.489 137.57 459.489V454.428H115.905H115.896Z" fill="#E3B383"/>
<path d="M132.516 464.523H120.933C119.732 464.523 118.76 465.495 118.76 466.696C118.76 467.898 119.732 468.87 120.933 468.87H132.516C133.718 468.87 134.69 467.898 134.69 466.696C134.69 465.495 133.718 464.523 132.516 464.523Z" fill="#E3B383"/>
<path d="M115.896 575.888V570.826C118.68 570.826 120.941 568.574 120.941 565.791H132.525C132.525 568.574 134.778 570.826 137.57 570.826V575.888H115.905H115.896Z" fill="#E3B383"/>
<path d="M132.516 565.793H120.933C119.732 565.793 118.76 564.822 118.76 563.62C118.76 562.419 119.732 561.447 120.933 561.447H132.516C133.718 561.447 134.69 562.419 134.69 563.62C134.69 564.822 133.718 565.793 132.516 565.793Z" fill="#E3B383"/>
<path d="M176.726 468.879H165.143V561.446H176.726V468.879Z" fill="#FFDCAA"/>
<path d="M160.098 454.428V459.489C162.881 459.489 165.143 461.742 165.143 464.524H176.726C176.726 461.742 178.979 459.489 181.771 459.489V454.428H160.106H160.098Z" fill="#E3B383"/>
<path d="M176.727 464.523H165.144C163.943 464.523 162.971 465.495 162.971 466.696C162.971 467.898 163.943 468.87 165.144 468.87H176.727C177.929 468.87 178.901 467.898 178.901 466.696C178.901 465.495 177.929 464.523 176.727 464.523Z" fill="#E3B383"/>
<path d="M160.098 575.888V570.826C162.881 570.826 165.143 568.574 165.143 565.791H176.726C176.726 568.574 178.979 570.826 181.771 570.826V575.888H160.106H160.098Z" fill="#E3B383"/>
<path d="M176.727 565.793H165.144C163.943 565.793 162.971 564.822 162.971 563.62C162.971 562.419 163.943 561.447 165.144 561.447H176.727C177.929 561.447 178.901 562.419 178.901 563.62C178.901 564.822 177.929 565.793 176.727 565.793Z" fill="#E3B383"/>
<path d="M220.939 468.879H209.355V561.446H220.939V468.879Z" fill="#FFDCAA"/>
<path d="M204.311 454.428V459.489C207.094 459.489 209.356 461.742 209.356 464.524H220.939C220.939 461.742 223.192 459.489 225.984 459.489V454.428H204.319H204.311Z" fill="#E3B383"/>
<path d="M220.93 464.523H209.347C208.146 464.523 207.174 465.495 207.174 466.696C207.174 467.898 208.146 468.87 209.347 468.87H220.93C222.132 468.87 223.104 467.898 223.104 466.696C223.104 465.495 222.132 464.523 220.93 464.523Z" fill="#E3B383"/>
<path d="M204.311 575.888V570.826C207.094 570.826 209.356 568.574 209.356 565.791H220.939C220.939 568.574 223.192 570.826 225.984 570.826V575.888H204.319H204.311Z" fill="#E3B383"/>
<path d="M220.93 565.793H209.347C208.146 565.793 207.174 564.822 207.174 563.62C207.174 562.419 208.146 561.447 209.347 561.447H220.93C222.132 561.447 223.104 562.419 223.104 563.62C223.104 564.822 222.132 565.793 220.93 565.793Z" fill="#E3B383"/>
<path d="M265.14 468.879H253.557V561.446H265.14V468.879Z" fill="#FFDCAA"/>
<path d="M248.521 454.428V459.489C251.305 459.489 253.566 461.742 253.566 464.524H265.15C265.15 461.742 267.403 459.489 270.195 459.489V454.428H248.53H248.521Z" fill="#E3B383"/>
<path d="M265.141 464.523H253.558C252.357 464.523 251.385 465.495 251.385 466.696C251.385 467.898 252.357 468.87 253.558 468.87H265.141C266.343 468.87 267.315 467.898 267.315 466.696C267.315 465.495 266.343 464.523 265.141 464.523Z" fill="#E3B383"/>
<path d="M248.521 575.888V570.826C251.305 570.826 253.566 568.574 253.566 565.791H265.15C265.15 568.574 267.403 570.826 270.195 570.826V575.888H248.53H248.521Z" fill="#E3B383"/>
<path d="M265.141 565.793H253.558C252.357 565.793 251.385 564.822 251.385 563.62C251.385 562.419 252.357 561.447 253.558 561.447H265.141C266.343 561.447 267.315 562.419 267.315 563.62C267.315 564.822 266.343 565.793 265.141 565.793Z" fill="#E3B383"/>
<path d="M309.355 468.879H297.771V561.446H309.355V468.879Z" fill="#FFDCAA"/>
<path d="M292.736 454.428V459.489C295.519 459.489 297.781 461.742 297.781 464.524H309.364C309.364 461.742 311.617 459.489 314.409 459.489V454.428H292.745H292.736Z" fill="#E3B383"/>
<path d="M309.356 464.523H297.773C296.571 464.523 295.6 465.495 295.6 466.696C295.6 467.898 296.571 468.87 297.773 468.87H309.356C310.558 468.87 311.53 467.898 311.53 466.696C311.53 465.495 310.558 464.523 309.356 464.523Z" fill="#E3B383"/>
<path d="M292.736 575.888V570.826C295.519 570.826 297.781 568.574 297.781 565.791H309.364C309.364 568.574 311.617 570.826 314.409 570.826V575.888H292.745H292.736Z" fill="#E3B383"/>
<path d="M309.356 565.793H297.773C296.571 565.793 295.6 564.822 295.6 563.62C295.6 562.419 296.571 561.447 297.773 561.447H309.356C310.558 561.447 311.53 562.419 311.53 563.62C311.53 564.822 310.558 565.793 309.356 565.793Z" fill="#E3B383"/>
<path d="M353.566 468.879H341.982V561.446H353.566V468.879Z" fill="#FFDCAA"/>
<path d="M336.938 454.428V459.489C339.721 459.489 341.982 461.742 341.982 464.524H353.566C353.566 461.742 355.819 459.489 358.611 459.489V454.428H336.946H336.938Z" fill="#E3B383"/>
<path d="M353.567 464.523H341.984C340.782 464.523 339.811 465.495 339.811 466.696C339.811 467.898 340.782 468.87 341.984 468.87H353.567C354.769 468.87 355.741 467.898 355.741 466.696C355.741 465.495 354.769 464.523 353.567 464.523Z" fill="#E3B383"/>
<path d="M336.938 575.888V570.826C339.721 570.826 341.982 568.574 341.982 565.791H353.566C353.566 568.574 355.819 570.826 358.611 570.826V575.888H336.946H336.938Z" fill="#E3B383"/>
<path d="M353.567 565.793H341.984C340.782 565.793 339.811 564.822 339.811 563.62C339.811 562.419 340.782 561.447 341.984 561.447H353.567C354.769 561.447 355.741 562.419 355.741 563.62C355.741 564.822 354.769 565.793 353.567 565.793Z" fill="#E3B383"/>
<path d="M20.9258 408.512V424.262H31.166V418.75C31.166 413.096 26.5804 408.512 20.9258 408.512Z" fill="#FFDCAA"/>
<path d="M365.15 408.512V424.262H354.91V418.75C354.91 413.096 359.496 408.512 365.15 408.512Z" fill="#FFDCAA"/>
<path d="M193.038 365.051L44.834 424.262H341.242L193.038 365.051Z" fill="#E3B383"/>
<path d="M33.8607 445.551H42.7402V433.131H33.8607V445.551Z" fill="#E3B383"/>
<path d="M55.9662 445.551H64.8457V433.131H55.9662V445.551Z" fill="#E3B383"/>
<path d="M78.0736 445.551H86.9531V433.131H78.0736V445.551Z" fill="#E3B383"/>
<path d="M100.187 445.551H109.066V433.131H100.187V445.551Z" fill="#E3B383"/>
<path d="M122.283 445.551H131.162V433.131H122.283V445.551Z" fill="#E3B383"/>
<path d="M144.392 445.551H153.271V433.131H144.392V445.551Z" fill="#E3B383"/>
<path d="M166.495 445.551H175.375V433.131H166.495V445.551Z" fill="#E3B383"/>
<path d="M188.593 445.551H197.473V433.131H188.593V445.551Z" fill="#E3B383"/>
<path d="M210.701 445.551H219.58V433.131H210.701V445.551Z" fill="#E3B383"/>
<path d="M232.806 445.551H241.686V433.131H232.806V445.551Z" fill="#E3B383"/>
<path d="M254.919 445.551H263.799V433.131H254.919V445.551Z" fill="#E3B383"/>
<path d="M277.019 445.551H285.898V433.131H277.019V445.551Z" fill="#E3B383"/>
<path d="M299.122 445.551H308.002V433.131H299.122V445.551Z" fill="#E3B383"/>
<path d="M321.228 445.551H330.107V433.131H321.228V445.551Z" fill="#E3B383"/>
<path d="M343.328 445.551H352.207V433.131H343.328V445.551Z" fill="#E3B383"/>
</g>
<path d="M80.4498 337.168C76.5134 336.314 75.1334 335.125 73.972 331.875C73.1741 335.144 71.8439 336.363 67.4941 337.168C71.8343 338.08 73.0796 339.35 73.972 342.461C75.2857 339.476 76.0561 337.828 80.4498 337.168Z" fill="#FFF2C3"/>
<path d="M1.30875 233.236C-3.47137 232.199 -5.14721 230.755 -6.55754 226.809C-7.5264 230.778 -9.14173 232.258 -14.4238 233.236C-9.15343 234.343 -7.64115 235.886 -6.55754 239.664C-4.96227 236.039 -4.02666 234.037 1.30875 233.236Z" fill="#FFF2C3"/>
<g opacity="0.8" filter="url(#filter0_f_3002_285)">
<ellipse cx="204.182" cy="244.693" rx="121.273" ry="124.761" fill="#FFFEE9"/>
</g>
<rect x="-37.832" y="660.834" width="463.898" height="85.0524" fill="#FFF3DB"/>
<path d="M10.5246 612.998C3.86654 611.554 1.53234 609.542 -0.432055 604.045C-1.78154 609.573 -4.03146 611.636 -11.3887 612.998C-4.04776 614.54 -1.94138 616.689 -0.432055 621.951C1.78993 616.901 3.09311 614.114 10.5246 612.998Z" fill="#FFF2C3"/>
<path opacity="0.5" d="M85.9355 1018.78C12.5381 798.15 0.849339 816.735 77.8381 661.906H321.78C227.586 810.755 259.461 865.211 326.074 1018.78C392.686 1172.35 411.586 1355.35 360.156 1552.68H-50.4395C130.84 1376.36 159.333 1239.41 85.9355 1018.78Z" fill="white" fill-opacity="0.5"/>
<g clip-path="url(#clip2_3002_285)">
<path d="M-52.351 781.551H29.4102L29.4102 754.057H-52.351V781.551Z" fill="#D5BF9B"/>
<path d="M-44.1431 796.145H20.748V781.55H-44.1431V796.145Z" fill="#FBF0E1"/>
<path d="M-44.1431 1112.57H20.748L20.748 781.565H-44.1431L-44.1431 1112.57Z" fill="#FFFAEB"/>
<path d="M-44.1431 788.846H20.748V781.548H-44.1431V788.846Z" fill="#D5BF9B"/>
<path d="M-44.1431 816.033H20.748V808.736H-44.1431V816.033Z" fill="#D5BF9B"/>
<path d="M-52.351 759.23H29.4102V754.074H-52.351V759.23Z" fill="#FBF0E1"/>
<path d="M-52.351 784.152H29.4102V778.996H-52.351V784.152Z" fill="#FBF0E1"/>
<path d="M23.5251 754.073H-48.8035C-48.8035 754.073 -67.6685 761.114 -71.5829 743.658C-75.4974 726.185 -61.7211 719.47 -52.0739 719.47C-42.4267 719.47 27.4522 716.113 36.7206 720.824C46.0015 725.517 49.6634 736.635 46.2541 743.658C42.8321 750.681 42.3649 757.105 23.5251 754.073Z" fill="#D5BF9B"/>
<path d="M-12.6777 725.671L28.5627 724.112L31.0881 724.026C31.7953 724.026 32.4898 724.044 33.1843 724.181C34.5732 724.42 35.937 724.917 37.2123 725.688C39.7504 727.23 41.9097 729.902 43.1092 733.174C44.3214 736.463 44.4982 740.369 43.4754 743.692C42.4526 747.084 40.2555 749.944 37.5785 751.52C36.24 752.308 34.7879 752.805 33.3105 752.976C31.8963 753.114 29.7749 753.199 28.4364 753.165C25.4943 753.011 22.6027 751.195 20.7086 748.197C18.8524 745.268 17.9937 740.814 19.2059 737.439C20.4055 733.945 23.3855 731.649 26.4792 731.632L31.6059 731.444C33.1085 731.427 34.6364 732.095 35.8233 733.38C37.0103 734.647 37.8184 736.531 37.8942 738.587C38.0078 740.54 37.1492 742.544 35.937 743.915C34.7248 745.371 33.1843 746.124 31.5048 746.433C29.8633 746.758 28.1207 746.792 26.6055 745.97C25.0018 745.285 24.3957 742.664 24.7872 740.523C25.3049 738.296 27.3631 737.645 29.0047 737.679C27.3884 737.542 25.2417 737.936 24.522 740.403C23.9664 742.647 24.5599 745.679 26.3656 746.673C28.0324 747.718 29.8633 747.769 31.6059 747.58C33.3358 747.392 35.2046 746.673 36.6441 745.114C38.0836 743.641 39.3337 741.294 39.3084 738.519C39.3084 735.881 38.3614 733.311 36.9219 731.581C35.4824 729.834 33.5883 728.84 31.6564 728.703L26.4666 728.497C22.7289 728.258 18.6251 730.707 16.6426 735.641C14.6223 740.711 15.6451 746.844 18.0064 751.075C20.4182 755.375 24.1937 758.03 28.0955 758.561C30.1916 758.749 31.5048 758.784 33.5252 758.784C35.4698 758.698 37.4144 758.218 39.2706 757.276C42.9703 755.426 46.3292 751.726 48.1475 746.587C50.0037 741.431 49.9784 735.161 48.3243 729.988C46.6827 724.746 43.6017 720.566 39.9903 718.014C38.172 716.746 36.2148 715.855 34.2197 715.359C33.2221 715.102 32.1993 714.965 31.1892 714.913L28.5627 714.793L-12.6777 713.234V725.654V725.671Z" fill="white"/>
<path d="M-58.4008 699.58H33.1211V660.832H-58.4008V699.58Z" fill="#FBF0E1"/>
<path d="M-58.4008 691.428H33.1211V660.833H-58.4008V691.428Z" fill="#D5BF9B"/>
<path d="M-58.4008 715.889H33.1211V703.144H-58.4008V715.889Z" fill="#FBF0E1"/>
<path d="M-58.4008 707.736H33.1211V703.145H-58.4008V707.736Z" fill="#D5BF9B"/>
<path d="M-58.475 684.714H33.1101L42.9719 660.834H-68.3242L-58.475 684.714Z" fill="white"/>
<path d="M-58.4008 703.145H33.1211V696.515H-58.4008V703.145Z" fill="white"/>
<path d="M-49.5866 805.738H27.0605V801.147H-49.5866V805.738Z" fill="#D5BF9B"/>
<path d="M-49.5866 801.146H27.0605V794.517H-49.5866V801.146Z" fill="white"/>
<path d="M-49.5866 812.383H27.0605V805.753H-49.5866V812.383Z" fill="white"/>
<path d="M-44.1431 1112.57H20.748V1105.27H-44.1431V1112.57Z" fill="#D5BF9B"/>
<path d="M-49.5866 1108.92H27.0605V1102.29H-49.5866V1108.92Z" fill="white"/>
<path d="M-66.9491 1175.18H44.4102V1168.55H-66.9491V1175.18Z" fill="#D5BF9B"/>
<path d="M-66.9491 1186.87H44.4102V1175.19H-66.9491V1186.87Z" fill="#FFFAEB"/>
<path d="M-66.9491 1171.86H44.4102V1165.23H-66.9491V1171.86Z" fill="white"/>
<path d="M-82.1021 1196.8H59.5625V1190.18H-82.1021V1196.8Z" fill="#D5BF9B"/>
<path d="M-82.1021 1212.75H59.5625V1196.82H-82.1021V1212.75Z" fill="#FFFAEB"/>
<path d="M-82.1021 1193.5H59.5625V1186.87H-82.1021V1193.5Z" fill="white"/>
<path d="M19.9023 775.811H21.5817C23.2485 775.811 24.5996 773.978 24.5996 771.716V766.646C24.5996 764.385 23.2485 762.552 21.5817 762.552H19.9023C18.2355 762.552 16.8844 764.385 16.8844 766.646V771.716C16.8844 773.978 18.2355 775.811 19.9023 775.811Z" fill="#FBF0E1"/>
<path d="M3.3476 775.811H5.02702C6.69376 775.811 8.04492 773.978 8.04492 771.716V766.646C8.04492 764.385 6.69376 762.552 5.02702 762.552H3.3476C1.68086 762.552 0.329702 764.385 0.329702 766.646L0.329702 771.716C0.329702 773.978 1.68086 775.811 3.3476 775.811Z" fill="#FBF0E1"/>
<path d="M13.4742 1095.17H12.1989C10.9362 1095.17 9.91338 1093.78 9.91338 1092.07L9.91338 822.988C9.91338 821.275 10.9362 819.887 12.1989 819.887H13.4742C14.737 819.887 15.7598 821.275 15.7598 822.988L15.7598 1092.07C15.7598 1093.78 14.737 1095.17 13.4742 1095.17Z" fill="#EBD1AD"/>
<path d="M-63.1719 1165.25H40.2449L20.7485 1112.57H-44.1427L-63.1719 1165.25Z" fill="#FFFAEB"/>
<path d="M53.9297 1039.14C47.5711 1037.45 45.3419 1035.1 43.4658 1028.68C42.177 1035.14 40.0283 1037.55 33.002 1039.14C40.0127 1040.94 42.0244 1043.46 43.4658 1049.61C45.5879 1043.7 46.8324 1040.45 53.9297 1039.14Z" fill="white"/>
<path d="M53.9297 1039.14C47.5711 1037.45 45.3419 1035.1 43.4658 1028.68C42.177 1035.14 40.0283 1037.55 33.002 1039.14C40.0127 1040.94 42.0244 1043.46 43.4658 1049.61C45.5879 1043.7 46.8324 1040.45 53.9297 1039.14Z" fill="white"/>
</g>
<ellipse cx="30.2608" cy="1073.85" rx="13.2041" ry="2.86954" fill="white"/>
<g clip-path="url(#clip3_3002_285)">
<path fill-rule="evenodd" clip-rule="evenodd" d="M333.512 1259.96L476.442 1277.65C478.417 1277.89 479.977 1279.89 479.733 1281.87C479.464 1284.04 477.488 1285.4 475.512 1285.16L332.582 1267.47C330.408 1267.21 329.022 1265.43 329.291 1263.25C329.536 1261.28 331.338 1259.69 333.512 1259.96Z" fill="url(#paint3_linear_3002_285)"/>
<path d="M333.611 1259.17L476.541 1276.86C477.726 1277 478.84 1277.74 479.534 1278.63C480.227 1279.52 480.474 1280.75 480.327 1281.94C480.18 1283.13 479.637 1284.26 478.751 1284.96C477.862 1285.65 476.604 1286.1 475.416 1285.95L332.486 1268.27C331.301 1268.12 330.187 1267.38 329.494 1266.49C328.801 1265.6 328.355 1264.34 328.502 1263.16C328.649 1261.97 329.388 1260.86 330.277 1260.16C331.165 1259.47 332.424 1259.03 333.611 1259.17ZM476.37 1278.24L333.44 1260.56C332.649 1260.46 331.809 1260.76 331.143 1261.28C330.477 1261.8 329.983 1262.54 329.885 1263.33C329.787 1264.12 330.083 1264.96 330.605 1265.63C331.124 1266.29 331.866 1266.79 332.657 1266.89L475.587 1284.57C476.378 1284.67 477.217 1284.37 477.883 1283.85C478.549 1283.33 478.845 1282.56 478.943 1281.77C479.041 1280.98 478.941 1280.17 478.421 1279.5C477.902 1278.84 477.16 1278.34 476.37 1278.24Z" fill="url(#paint4_linear_3002_285)"/>
<path fill-rule="evenodd" clip-rule="evenodd" d="M394.307 1252.03L376.304 1397.53C376.133 1398.91 374.826 1399.76 373.44 1399.59C372.056 1399.41 370.991 1398.28 371.162 1396.9L389.165 1251.39C389.336 1250.01 390.667 1248.97 392.054 1249.14C393.437 1249.32 394.478 1250.65 394.307 1252.03Z" fill="url(#paint5_linear_3002_285)"/>
<path d="M395.097 1252.13L377.095 1397.63C376.997 1398.42 376.505 1399.16 375.836 1399.68C375.17 1400.2 374.33 1400.5 373.341 1400.38C372.55 1400.28 371.808 1399.79 371.289 1399.12C370.77 1398.45 370.471 1397.61 370.569 1396.82L388.571 1251.32C388.694 1250.33 389.189 1249.59 389.854 1249.07C390.52 1248.55 391.336 1248.45 392.127 1248.55C393.116 1248.67 393.882 1248.97 394.401 1249.63C394.921 1250.3 395.22 1251.14 395.097 1252.13ZM375.513 1397.43L393.515 1251.93C393.589 1251.34 393.439 1250.92 393.29 1250.5C392.92 1250.25 392.547 1250.01 391.955 1249.94C391.561 1249.89 390.941 1250.01 390.721 1250.18C390.276 1250.53 390.031 1250.9 389.958 1251.49L371.955 1396.99C371.906 1397.39 372.056 1397.81 372.401 1398.25C372.55 1398.67 373.119 1398.94 373.513 1398.99C374.105 1399.06 374.527 1398.92 374.969 1398.57C375.217 1398.2 375.464 1397.83 375.513 1397.43L375.513 1397.43Z" fill="url(#paint6_linear_3002_285)"/>
<path fill-rule="evenodd" clip-rule="evenodd" d="M379.434 1250.59L361.53 1395.3C361.334 1396.88 360.002 1397.92 358.42 1397.73C356.839 1397.53 355.8 1396.2 355.996 1394.62L373.901 1249.91C374.096 1248.32 375.452 1247.09 377.034 1247.28C378.616 1247.48 379.63 1249.01 379.434 1250.59Z" fill="url(#paint7_linear_3002_285)"/>
<path d="M380.226 1250.69L362.321 1395.4C362.199 1396.39 361.704 1397.13 361.014 1397.84C360.15 1398.34 359.31 1398.64 358.32 1398.52C357.331 1398.39 356.589 1397.9 355.872 1397.21C355.377 1396.34 355.078 1395.5 355.2 1394.52L373.105 1249.81C373.227 1248.82 373.746 1247.88 374.412 1247.36C375.276 1246.87 376.116 1246.57 377.105 1246.69C378.095 1246.81 378.837 1247.3 379.554 1248C380.073 1248.66 380.348 1249.7 380.226 1250.69ZM360.938 1395.23L378.842 1250.52C378.916 1249.93 378.791 1249.31 378.446 1248.86C378.098 1248.42 377.53 1248.15 376.937 1248.07C376.345 1248 375.728 1248.13 375.282 1248.47C374.836 1248.82 374.567 1249.39 374.494 1249.98L356.589 1394.69C356.516 1395.28 356.641 1395.9 356.986 1396.34C357.334 1396.79 357.902 1397.06 358.494 1397.13C359.087 1397.21 359.704 1397.08 360.15 1396.74C360.592 1396.39 360.864 1395.82 360.938 1395.23Z" fill="url(#paint8_linear_3002_285)"/>
<path fill-rule="evenodd" clip-rule="evenodd" d="M424.355 1255.75L406.352 1401.25C406.181 1402.63 405.069 1403.5 403.487 1403.31C402.104 1403.13 401.237 1402.02 401.408 1400.64L419.411 1255.14C419.582 1253.76 420.718 1252.69 422.101 1252.86C423.683 1253.06 424.526 1254.37 424.355 1255.75Z" fill="url(#paint9_linear_3002_285)"/>
<path d="M425.146 1255.85L407.143 1401.35C407.046 1402.14 406.551 1402.88 405.885 1403.4C405.219 1403.92 404.379 1404.22 403.39 1404.1C402.599 1404 401.857 1403.51 401.338 1402.84C400.819 1402.17 400.52 1401.33 400.618 1400.54L418.62 1255.04C418.743 1254.05 419.237 1253.31 419.903 1252.79C420.569 1252.27 421.384 1252.17 422.175 1252.27C423.165 1252.39 423.931 1252.69 424.45 1253.35C424.969 1254.02 425.268 1254.86 425.146 1255.85ZM405.76 1401.17L423.763 1255.68C423.836 1255.08 423.687 1254.66 423.341 1254.22C422.972 1253.97 422.599 1253.73 422.007 1253.65C421.613 1253.61 421.191 1253.76 420.773 1253.9C420.327 1254.25 420.083 1254.62 420.009 1255.21L402.007 1400.71C401.958 1401.11 402.107 1401.53 402.453 1401.97C402.798 1402.42 403.17 1402.66 403.564 1402.71C404.157 1402.78 404.578 1402.63 405.021 1402.29C405.467 1401.94 405.711 1401.57 405.76 1401.18L405.76 1401.17Z" fill="url(#paint10_linear_3002_285)"/>
<path fill-rule="evenodd" clip-rule="evenodd" d="M409.681 1254.33L391.777 1399.04C391.581 1400.63 390.051 1401.64 388.469 1401.44C386.887 1401.25 385.849 1399.92 386.045 1398.34L403.95 1253.63C404.145 1252.04 405.501 1250.81 407.083 1251C408.665 1251.2 409.877 1252.75 409.681 1254.33Z" fill="url(#paint11_linear_3002_285)"/>
<path d="M410.274 1254.41L392.369 1399.12C392.247 1400.11 391.755 1400.85 391.062 1401.56C390.396 1402.08 389.358 1402.36 388.368 1402.23C387.379 1402.11 386.637 1401.62 386.118 1400.95C385.623 1400.09 385.129 1399.22 385.251 1398.24L403.156 1253.53C403.278 1252.54 403.992 1251.62 404.658 1251.1C405.324 1250.59 406.164 1250.29 407.153 1250.41C408.143 1250.53 409.08 1251.05 409.602 1251.72C410.121 1252.38 410.396 1253.42 410.274 1254.41ZM390.986 1398.95L408.89 1254.24C408.964 1253.64 408.838 1253.03 408.494 1252.58C408.145 1252.14 407.578 1251.87 406.985 1251.79C406.393 1251.72 405.971 1251.87 405.528 1252.21C405.083 1252.56 404.814 1253.13 404.74 1253.72L386.836 1398.43C386.762 1399.02 386.887 1399.64 387.232 1400.09C387.577 1400.53 387.95 1400.78 388.542 1400.85C389.135 1400.92 389.752 1400.8 390.197 1400.45C390.64 1400.11 390.912 1399.54 390.986 1398.95Z" fill="url(#paint12_linear_3002_285)"/>
<path fill-rule="evenodd" clip-rule="evenodd" d="M485.73 1236.65C485.73 1236.65 455.375 1224.06 454.625 1256.08C452.994 1316.3 499.742 1394.34 392.987 1381.13C286.232 1367.92 350.591 1303.63 363.884 1244.85C370.961 1213.62 338.452 1218.43 338.452 1218.43L340.586 1225.51C365.172 1226.35 344.598 1272.58 328.937 1295.33C316.185 1314.02 309.568 1336.69 311.867 1357.04C315.167 1387.16 342.818 1410.25 389.049 1412.96C434.546 1421.6 467.19 1405.97 477.73 1377.56C484.921 1358.38 483.829 1334.76 476.216 1313.55C466.573 1287.67 457.886 1237.82 481.934 1243L485.73 1236.65Z" fill="url(#paint13_linear_3002_285)"/>
<path d="M484.668 1237.12C480.07 1235.35 455.897 1227.94 455.215 1256.15C454.788 1270.96 457.452 1286.74 459.77 1302.08C462.657 1319.3 465.222 1335.87 463.535 1349.51C460.575 1373.43 444.486 1388.3 392.887 1381.92C341.288 1375.53 329.308 1357.19 332.268 1333.27C333.955 1319.63 340.682 1304.2 347.479 1288.19C353.662 1273.9 359.894 1259.21 363.286 1244.78C369.507 1217.25 344.259 1218.54 339.366 1219.14L341.078 1224.77C342.859 1224.99 344.612 1225.41 345.946 1225.98C350.124 1227.9 352.254 1231.77 352.605 1237.03C352.959 1242.3 351.779 1248.57 349.539 1255.32C345.207 1269.24 336.828 1285.06 329.479 1295.8C323.116 1305.04 318.214 1315.48 315.286 1326.15C312.408 1336.44 311.509 1346.96 312.46 1357.12C314.208 1372.19 322.182 1385.62 335.806 1395.53C348.692 1404.96 366.809 1411.01 389.123 1412.37L389.321 1412.39C411.292 1416.51 430.141 1415.03 445.133 1409.06C460.567 1402.74 471.77 1391.68 476.94 1377.47C480.535 1367.88 482.03 1357.42 481.745 1346.75C481.508 1335.68 479.494 1324.39 475.379 1313.85C471.066 1301.67 466.595 1284.26 465.788 1269.71C465.459 1262.64 465.845 1256.27 467.47 1251.25C469.096 1246.23 471.906 1242.97 476.624 1242.14C478.056 1241.92 479.662 1241.92 481.638 1242.16L484.671 1237.12L484.668 1237.12ZM453.81 1256.18C454.707 1222.97 485.805 1236.05 485.805 1236.05L486.571 1236.35L482.23 1243.84L481.834 1243.79C479.882 1243.35 478.301 1243.15 476.844 1243.58C472.743 1244.27 470.177 1247.17 468.799 1251.81C467.222 1256.44 466.861 1262.61 467.214 1269.48C468.024 1284.03 472.319 1301.22 476.83 1313.43C480.722 1324.14 482.935 1335.46 483.147 1346.72C483.408 1357.59 481.888 1368.24 478.293 1377.83C472.852 1392.62 461.6 1404.07 445.573 1410.31C430.584 1416.29 411.314 1417.92 388.949 1413.74C366.44 1412.36 348.149 1406.09 335.065 1396.64C321.043 1386.68 312.922 1372.83 311.05 1357.14C309.9 1346.96 311.022 1336.26 313.925 1325.78C316.876 1314.91 321.978 1304.5 328.364 1295.06C335.714 1284.32 343.872 1268.67 348.4 1254.78C350.417 1248.21 351.572 1242.13 351.17 1237.26C350.768 1232.39 348.984 1228.96 345.375 1227.31C344.065 1226.55 342.483 1226.35 340.483 1226.3L339.89 1226.23L337.51 1217.91L338.325 1217.81C338.524 1217.83 371.872 1212.72 364.648 1245.15C361.256 1259.58 354.999 1274.47 348.817 1288.75C342.017 1304.77 335.317 1320 333.654 1333.44C330.792 1356.57 342.65 1374.3 393.061 1380.54C443.472 1386.77 459.293 1372.47 462.155 1349.34C463.818 1335.9 461.228 1319.52 458.537 1302.33C456.023 1286.96 453.384 1270.98 453.81 1256.18Z" fill="url(#paint14_linear_3002_285)"/>
<path fill-rule="evenodd" clip-rule="evenodd" d="M377.716 1241.75C380.88 1242.14 383.154 1244.83 382.763 1247.99C382.372 1251.15 379.483 1253.4 376.322 1253.01C373.161 1252.62 371.103 1249.76 371.495 1246.6C371.886 1243.43 374.552 1241.35 377.716 1241.75Z" fill="url(#paint15_linear_3002_285)"/>
<path d="M377.812 1240.95C379.592 1241.18 381.073 1242.16 382.138 1243.3C383.177 1244.63 383.576 1246.28 383.356 1248.06C383.136 1249.85 382.348 1251.35 381.013 1252.39C379.682 1253.43 378.026 1253.83 376.246 1253.61C374.466 1253.39 372.957 1252.6 371.919 1251.27C371.076 1249.96 370.481 1248.28 370.702 1246.5C370.922 1244.72 371.908 1243.24 373.02 1242.37C374.351 1241.33 376.031 1240.74 377.811 1240.96L377.812 1240.95ZM381.029 1244.16C380.138 1243.25 379.026 1242.51 377.643 1242.34C376.26 1242.17 374.999 1242.62 373.914 1243.28C373.001 1244.18 372.262 1245.29 372.091 1246.67C371.919 1248.05 372.365 1249.31 373.034 1250.4C373.925 1251.31 375.037 1252.05 376.42 1252.22C377.804 1252.39 379.065 1251.95 380.149 1251.28C381.062 1250.39 381.801 1249.28 381.973 1247.89C382.144 1246.51 381.698 1245.25 381.029 1244.16Z" fill="url(#paint16_linear_3002_285)"/>
<path fill-rule="evenodd" clip-rule="evenodd" d="M392.739 1243.61C395.903 1244 398.178 1246.69 397.786 1249.85C397.395 1253.02 394.506 1255.27 391.345 1254.88C388.185 1254.48 386.127 1251.62 386.518 1248.46C386.91 1245.29 389.576 1243.22 392.739 1243.61Z" fill="url(#paint17_linear_3002_285)"/>
<path d="M392.836 1242.81C394.616 1243.03 396.097 1244.02 397.163 1245.16C398.201 1246.49 398.601 1248.14 398.38 1249.92C398.16 1251.7 397.372 1253.21 396.038 1254.25C394.706 1255.29 393.051 1255.69 391.27 1255.47C389.49 1255.25 387.982 1254.46 387.142 1253.15C386.104 1251.82 385.509 1250.14 385.729 1248.36C385.949 1246.58 386.935 1245.1 388.243 1244.25C389.379 1243.19 391.058 1242.6 392.836 1242.82L392.836 1242.81ZM396.054 1246.02C395.162 1245.11 394.051 1244.37 392.667 1244.2C391.284 1244.03 390.023 1244.47 388.939 1245.14C388.025 1246.04 387.286 1247.15 387.115 1248.53C386.944 1249.91 387.39 1251.17 388.058 1252.26C388.95 1253.17 390.061 1253.91 391.445 1254.08C392.828 1254.25 394.089 1253.81 395.174 1253.14C396.087 1252.25 396.826 1251.14 396.997 1249.75C397.168 1248.37 396.723 1247.11 396.054 1246.02Z" fill="url(#paint18_linear_3002_285)"/>
<path fill-rule="evenodd" clip-rule="evenodd" d="M407.767 1245.47C410.93 1245.86 413.205 1248.55 412.814 1251.71C412.422 1254.88 409.533 1257.13 406.373 1256.73C403.407 1256.37 401.154 1253.48 401.545 1250.32C401.937 1247.15 404.802 1245.1 407.767 1245.47Z" fill="url(#paint19_linear_3002_285)"/>
<path d="M407.865 1244.68C409.646 1244.9 411.13 1245.88 412.192 1247.02C413.23 1248.35 413.63 1250 413.41 1251.79C413.19 1253.57 412.402 1255.07 411.067 1256.11C409.735 1257.15 408.08 1257.55 406.3 1257.33C404.718 1257.13 403.011 1256.32 402.171 1255.01C401.133 1253.68 400.538 1252 400.758 1250.22C400.978 1248.44 401.965 1246.96 403.272 1246.12C404.408 1245.05 406.283 1244.48 407.865 1244.68L407.865 1244.68ZM411.08 1247.88C410.387 1247 409.077 1246.23 407.694 1246.06C406.31 1245.89 405.049 1246.34 404.161 1247.03C403.049 1247.9 402.31 1249.01 402.139 1250.39C401.967 1251.77 402.413 1253.03 403.28 1254.14C403.973 1255.03 405.085 1255.77 406.471 1255.94C407.857 1256.11 409.311 1255.69 410.2 1255C411.312 1254.13 411.852 1253 412.024 1251.61C412.195 1250.23 411.948 1248.99 411.08 1247.88Z" fill="url(#paint20_linear_3002_285)"/>
<path fill-rule="evenodd" clip-rule="evenodd" d="M345.35 1418.99L426.207 1428.99C434.113 1429.97 439.831 1437.3 438.853 1445.21L437.043 1459.84L327.127 1446.24L328.937 1431.61C329.915 1423.71 337.444 1418.01 345.353 1418.99L345.35 1418.99Z" fill="url(#paint21_linear_3002_285)"/>
<path d="M345.445 1418.2L426.302 1428.2C430.452 1428.72 433.988 1430.96 436.415 1434.07C438.839 1437.18 440.155 1441.16 439.641 1445.31L437.758 1460.53L326.456 1446.76L328.339 1431.54C328.853 1427.39 331.098 1423.85 334.207 1421.42C337.121 1418.98 341.292 1417.68 345.445 1418.2ZM426.131 1429.59L345.274 1419.58C341.518 1419.12 337.765 1420.26 335.074 1422.53C332.185 1424.79 330.191 1427.95 329.726 1431.71L328.013 1445.55L436.546 1458.97L438.258 1445.13C438.723 1441.38 437.557 1437.82 435.307 1434.93C433.252 1432.07 429.89 1430.05 426.134 1429.59L426.131 1429.59Z" fill="url(#paint22_linear_3002_285)"/>
<path fill-rule="evenodd" clip-rule="evenodd" d="M340.776 1217.51C347.299 1218.31 351.977 1224.31 351.17 1230.83C350.363 1237.36 344.364 1242.03 337.841 1241.23C331.319 1240.42 326.836 1234.45 327.644 1227.92C328.451 1221.4 334.251 1216.7 340.776 1217.51Z" fill="url(#paint23_linear_3002_285)"/>
<path d="M340.846 1216.92C344.403 1217.36 347.396 1219.13 349.301 1221.57C351.182 1224.22 352.372 1227.58 351.957 1230.93C351.541 1234.29 349.568 1237.26 347.1 1239.37C344.657 1241.27 341.322 1242.26 337.764 1241.82C334.405 1241.41 331.412 1239.63 329.507 1237.19C327.428 1234.52 326.436 1231.19 326.852 1227.83C327.267 1224.47 329.042 1221.48 331.708 1219.4C334.149 1217.49 337.484 1216.5 340.846 1216.92ZM348.189 1222.44C346.458 1220.22 343.835 1218.69 340.672 1218.3C337.707 1217.93 334.793 1218.77 332.57 1220.51C330.325 1222.44 328.596 1225.03 328.229 1228C327.838 1231.16 328.879 1234.1 330.613 1236.32C332.344 1238.54 334.967 1240.07 337.932 1240.44C341.096 1240.83 344.009 1239.99 346.233 1238.26C348.453 1236.52 350.179 1233.93 350.57 1230.76C350.937 1227.8 349.896 1224.86 348.189 1222.44Z" fill="url(#paint24_linear_3002_285)"/>
<path d="M418.948 1414.65L355.688 1406.82L354.049 1420.06L417.31 1427.89L418.948 1414.65Z" fill="url(#paint25_linear_3002_285)"/>
<path d="M355.788 1406.03L419.84 1413.96L418.029 1428.59L353.385 1420.59L355.195 1405.96L355.788 1406.03ZM418.282 1415.17L356.405 1407.51L354.937 1419.37L416.815 1427.03L418.282 1415.17Z" fill="url(#paint26_linear_3002_285)"/>
<path d="M325.31 1357.23C320.073 1355.84 318.237 1353.91 316.692 1348.62C315.631 1353.94 313.861 1355.92 308.074 1357.23C313.848 1358.72 315.505 1360.79 316.692 1365.85C318.44 1360.99 319.465 1358.31 325.31 1357.23Z" fill="#FFF2C3"/>
</g>
<path d="M20.1247 1234.42C9.85311 1232.54 6.25205 1229.91 3.22152 1222.72C1.13961 1229.95 -2.33141 1232.64 -13.6816 1234.42C-2.35656 1236.44 0.893034 1239.25 3.22152 1246.13C6.64945 1239.53 8.65991 1235.88 20.1247 1234.42Z" fill="#FFF9E5"/>
<ellipse cx="8.3193" cy="1244.26" rx="22.0009" ry="6.03684" fill="white"/>
<ellipse cx="335.514" cy="805.851" rx="15.6958" ry="4.42702" fill="white"/>
<ellipse cx="341.686" cy="729.654" rx="15.6958" ry="4.42702" fill="white"/>
<ellipse cx="318.879" cy="820.339" rx="15.6958" ry="4.42702" fill="white"/>
<ellipse cx="64.5259" cy="672.505" rx="15.6958" ry="4.42702" fill="white"/>
<ellipse cx="-27.4998" cy="1390.89" rx="28.5744" ry="8.04912" fill="white"/>
<g clip-path="url(#clip4_3002_285)">
<path d="M371.032 781.551H452.793V754.057H371.032V781.551Z" fill="#D5BF9B"/>
<path d="M379.242 796.145H444.133V781.55H379.242V796.145Z" fill="#FBF0E1"/>
<path d="M379.242 1112.57H444.133L444.133 781.565H379.242V1112.57Z" fill="#FFFAEB"/>
<path d="M379.242 788.846H444.133V781.548H379.242V788.846Z" fill="#D5BF9B"/>
<path d="M379.242 816.033H444.133V808.736H379.242V816.033Z" fill="#D5BF9B"/>
<path d="M371.032 759.23H452.793V754.074H371.032V759.23Z" fill="#FBF0E1"/>
<path d="M371.032 784.152H452.793V778.996H371.032V784.152Z" fill="#FBF0E1"/>
<path d="M446.908 754.073H374.579C374.579 754.073 355.714 761.114 351.8 743.658C347.885 726.185 361.662 719.47 371.309 719.47C380.956 719.47 450.835 716.113 460.103 720.824C469.384 725.517 473.046 736.635 469.637 743.658C466.215 750.681 465.748 757.105 446.908 754.073Z" fill="#D5BF9B"/>
<path d="M410.733 713.252L369.493 714.811L366.866 714.931C365.843 714.999 364.833 715.119 363.836 715.376C361.828 715.89 359.883 716.764 358.065 718.031C354.441 720.584 351.36 724.763 349.719 730.005C348.052 735.179 348.026 741.431 349.895 746.605C351.726 751.744 355.085 755.444 358.772 757.294C360.628 758.236 362.573 758.733 364.518 758.801C366.538 758.801 367.851 758.784 369.947 758.579C373.862 758.047 377.625 755.392 380.036 751.093C382.398 746.861 383.421 740.729 381.4 735.658C379.43 730.725 375.314 728.275 371.576 728.515L366.386 728.721C364.467 728.84 362.56 729.851 361.121 731.598C359.669 733.311 358.722 735.881 358.734 738.536C358.709 741.328 359.959 743.658 361.399 745.131C362.838 746.69 364.707 747.427 366.437 747.598C368.18 747.804 370.01 747.735 371.677 746.69C373.496 745.697 374.076 742.647 373.521 740.42C372.788 737.971 370.654 737.56 369.038 737.697C370.667 737.663 372.725 738.313 373.256 740.54C373.647 742.665 373.041 745.303 371.437 745.988C369.922 746.81 368.18 746.759 366.538 746.45C364.871 746.142 363.318 745.388 362.106 743.932C360.894 742.545 360.035 740.558 360.149 738.605C360.224 736.549 361.033 734.665 362.219 733.397C363.394 732.112 364.922 731.444 366.437 731.461L371.564 731.65C374.657 731.684 377.637 733.962 378.837 737.457C380.049 740.832 379.19 745.303 377.334 748.215C375.44 751.213 372.536 753.028 369.606 753.183C368.268 753.217 366.147 753.131 364.732 752.994C363.242 752.823 361.79 752.326 360.464 751.538C357.787 749.962 355.578 747.101 354.567 743.709C353.532 740.386 353.721 736.463 354.934 733.192C356.133 729.92 358.28 727.264 360.83 725.706C362.106 724.952 363.47 724.438 364.859 724.198C365.553 724.078 366.26 724.044 366.955 724.044L369.48 724.13L410.721 725.688V713.269L410.733 713.252Z" fill="white"/>
<path d="M364.982 699.58H456.504V660.832H364.982V699.58Z" fill="#FBF0E1"/>
<path d="M364.982 691.428H456.504V660.833H364.982V691.428Z" fill="#D5BF9B"/>
<path d="M364.982 715.889H456.504V703.144H364.982V715.889Z" fill="#FBF0E1"/>
<path d="M364.982 707.736H456.504V703.145H364.982V707.736Z" fill="#D5BF9B"/>
<path d="M364.908 684.714H456.493L466.355 660.834H355.059L364.908 684.714Z" fill="white"/>
<path d="M364.982 703.145H456.504V696.515H364.982V703.145Z" fill="white"/>
<path d="M373.798 805.738H450.445V801.147H373.798V805.738Z" fill="#D5BF9B"/>
<path d="M373.798 801.146H450.445V794.517H373.798V801.146Z" fill="white"/>
<path d="M373.798 812.383H450.445V805.753H373.798V812.383Z" fill="white"/>
<path d="M379.242 1112.57H444.133V1105.27H379.242V1112.57Z" fill="#D5BF9B"/>
<path d="M373.798 1108.92H450.445V1102.29H373.798V1108.92Z" fill="white"/>
<path d="M356.434 1175.18H467.793V1168.55H356.434V1175.18Z" fill="#D5BF9B"/>
<path d="M356.434 1186.87H467.793V1175.19H356.434V1186.87Z" fill="#FFFAEB"/>
<path d="M356.434 1171.86H467.793V1165.23H356.434V1171.86Z" fill="white"/>
<path d="M341.285 1196.8H482.949V1190.18H341.285V1196.8Z" fill="#D5BF9B"/>
<path d="M341.285 1212.75H482.949V1196.82H341.285V1212.75Z" fill="#FFFAEB"/>
<path d="M341.285 1193.5H482.949V1186.87H341.285V1193.5Z" fill="white"/>
<path d="M394.369 775.811H396.049C397.715 775.811 399.066 773.978 399.066 771.716V766.646C399.066 764.385 397.715 762.552 396.049 762.552H394.369C392.702 762.552 391.351 764.385 391.351 766.646V771.716C391.351 773.978 392.702 775.811 394.369 775.811Z" fill="#FBF0E1"/>
<path d="M378.584 775.811H380.263C381.93 775.811 383.281 773.978 383.281 771.716V766.646C383.281 764.385 381.93 762.552 380.263 762.552H378.584C376.917 762.552 375.566 764.385 375.566 766.646V771.716C375.566 773.978 376.917 775.811 378.584 775.811Z" fill="#FBF0E1"/>
<path d="M387.814 1095.17H386.539C385.276 1095.17 384.253 1093.78 384.253 1092.07V822.988C384.253 821.275 385.276 819.887 386.539 819.887H387.814C389.077 819.887 390.1 821.275 390.1 822.988V1092.07C390.1 1093.78 389.077 1095.17 387.814 1095.17Z" fill="#EBD1AD"/>
<path d="M360.211 1165.25H463.628L444.131 1112.57H379.24L360.211 1165.25Z" fill="#FFFAEB"/>
</g>
<g clip-path="url(#clip5_3002_285)">
<path d="M106.342 102.068L20.7129 154.186L19.4545 152.118L105.084 100L106.342 102.068Z" fill="url(#paint27_linear_3002_285)"/>
<path d="M104.881 101.553L96.6974 97.0274L115.823 94.8924L105.139 110.899L104.881 101.553Z" fill="url(#paint28_linear_3002_285)"/>
<path d="M33.4361 152.876L36.2565 144.125L32.5529 146.379L29.7351 155.13L33.4361 152.876Z" fill="url(#paint29_linear_3002_285)"/>
<path d="M27.4884 156.496L30.3083 147.748L26.6052 149.999L23.7879 158.747L27.4884 156.496Z" fill="url(#paint30_linear_3002_285)"/>
<path d="M21.7669 159.976L24.5842 151.227L20.8832 153.481L18.0632 162.229L21.7669 159.976Z" fill="url(#paint31_linear_3002_285)"/>
<path d="M26.4608 141.416L35.5292 142.934L31.826 145.185L22.7576 143.667L26.4608 141.416Z" fill="url(#paint32_linear_3002_285)"/>
<path d="M20.5167 145.033L29.5824 146.55L25.8814 148.804L16.8157 147.287L20.5167 145.033Z" fill="url(#paint33_linear_3002_285)"/>
<path d="M14.7921 148.515L23.8577 150.033L20.1541 152.286L11.0884 150.769L14.7921 148.515Z" fill="url(#paint34_linear_3002_285)"/>
</g>
<path d="M456 -19H-95V1439H456V-19Z" fill="#6C5D4E" fill-opacity="0.45"/>
</g>
<defs>
<filter id="filter0_f_3002_285" x="-24.4134" y="12.61" width="457.19" height="464.167" filterUnits="userSpaceOnUse" color-interpolation-filters="sRGB">
<feFlood flood-opacity="0" result="BackgroundImageFix"/>
<feBlend mode="normal" in="SourceGraphic" in2="BackgroundImageFix" result="shape"/>
<feGaussianBlur stdDeviation="53.6608" result="effect1_foregroundBlur_3002_285"/>
</filter>
<linearGradient id="paint0_linear_3002_285" x1="186.605" y1="119.145" x2="186.605" y2="386.224" gradientUnits="userSpaceOnUse">
<stop stop-color="#70D6DE"/>
<stop offset="1" stop-color="#FDF1DB"/>
</linearGradient>
<linearGradient id="paint1_linear_3002_285" x1="193.983" y1="1162.53" x2="193.983" y2="1549.46" gradientUnits="userSpaceOnUse">
<stop stop-color="#FFF3DB"/>
<stop offset="1" stop-color="#FFE0A3"/>
</linearGradient>
<linearGradient id="paint2_linear_3002_285" x1="200.022" y1="66.1357" x2="207.668" y2="471.946" gradientUnits="userSpaceOnUse">
<stop stop-color="#FFFFC6"/>
<stop offset="1" stop-color="#FFB84E"/>
</linearGradient>
<linearGradient id="paint3_linear_3002_285" x1="404.977" y1="1268.8" x2="404.047" y2="1276.32" gradientUnits="userSpaceOnUse">
<stop stop-color="#C5673F"/>
<stop offset="1" stop-color="#F8EDA9"/>
</linearGradient>
<linearGradient id="paint4_linear_3002_285" x1="404.977" y1="1268" x2="403.852" y2="1277.1" gradientUnits="userSpaceOnUse">
<stop stop-color="#C5673F"/>
<stop offset="1" stop-color="#F8EDA9"/>
</linearGradient>
<linearGradient id="paint5_linear_3002_285" x1="392.054" y1="1249.14" x2="373.44" y2="1399.59" gradientUnits="userSpaceOnUse">
<stop stop-color="#C5673F"/>
<stop offset="1" stop-color="#F8EDA9"/>
</linearGradient>
<linearGradient id="paint6_linear_3002_285" x1="392.226" y1="1248.56" x2="373.44" y2="1400.39" gradientUnits="userSpaceOnUse">
<stop stop-color="#C5673F"/>
<stop offset="1" stop-color="#F8EDA9"/>
</linearGradient>
<linearGradient id="paint7_linear_3002_285" x1="377.034" y1="1247.28" x2="358.42" y2="1397.73" gradientUnits="userSpaceOnUse">
<stop stop-color="#C5673F"/>
<stop offset="1" stop-color="#F8EDA9"/>
</linearGradient>
<linearGradient id="paint8_linear_3002_285" x1="377.105" y1="1246.69" x2="358.32" y2="1398.52" gradientUnits="userSpaceOnUse">
<stop stop-color="#C5673F"/>
<stop offset="1" stop-color="#F8EDA9"/>
</linearGradient>
<linearGradient id="paint9_linear_3002_285" x1="422.2" y1="1252.88" x2="403.587" y2="1403.32" gradientUnits="userSpaceOnUse">
<stop stop-color="#C5673F"/>
<stop offset="1" stop-color="#F8EDA9"/>
</linearGradient>
<linearGradient id="paint10_linear_3002_285" x1="422.275" y1="1252.28" x2="403.489" y2="1404.11" gradientUnits="userSpaceOnUse">
<stop stop-color="#C5673F"/>
<stop offset="1" stop-color="#F8EDA9"/>
</linearGradient>
<linearGradient id="paint11_linear_3002_285" x1="407.182" y1="1251.01" x2="388.568" y2="1401.46" gradientUnits="userSpaceOnUse">
<stop stop-color="#C5673F"/>
<stop offset="1" stop-color="#F8EDA9"/>
</linearGradient>
<linearGradient id="paint12_linear_3002_285" x1="407.155" y1="1250.41" x2="388.37" y2="1402.23" gradientUnits="userSpaceOnUse">
<stop stop-color="#C5673F"/>
<stop offset="1" stop-color="#F8EDA9"/>
</linearGradient>
<linearGradient id="paint13_linear_3002_285" x1="412.21" y1="1226.44" x2="389.094" y2="1413.27" gradientUnits="userSpaceOnUse">
<stop stop-color="#C5673F"/>
<stop offset="1" stop-color="#F8EDA9"/>
</linearGradient>
<linearGradient id="paint14_linear_3002_285" x1="412.205" y1="1225.77" x2="388.914" y2="1414.02" gradientUnits="userSpaceOnUse">
<stop stop-color="#C5673F"/>
<stop offset="1" stop-color="#F8EDA9"/>
</linearGradient>
<linearGradient id="paint15_linear_3002_285" x1="377.814" y1="1241.76" x2="376.42" y2="1253.03" gradientUnits="userSpaceOnUse">
<stop stop-color="#C5673F"/>
<stop offset="1" stop-color="#F8EDA9"/>
</linearGradient>
<linearGradient id="paint16_linear_3002_285" x1="377.812" y1="1240.95" x2="376.246" y2="1253.61" gradientUnits="userSpaceOnUse">
<stop stop-color="#C5673F"/>
<stop offset="1" stop-color="#F8EDA9"/>
</linearGradient>
<linearGradient id="paint17_linear_3002_285" x1="392.837" y1="1243.62" x2="391.443" y2="1254.89" gradientUnits="userSpaceOnUse">
<stop stop-color="#C5673F"/>
<stop offset="1" stop-color="#F8EDA9"/>
</linearGradient>
<linearGradient id="paint18_linear_3002_285" x1="392.838" y1="1242.81" x2="391.272" y2="1255.47" gradientUnits="userSpaceOnUse">
<stop stop-color="#C5673F"/>
<stop offset="1" stop-color="#F8EDA9"/>
</linearGradient>
<linearGradient id="paint19_linear_3002_285" x1="407.865" y1="1245.48" x2="406.47" y2="1256.75" gradientUnits="userSpaceOnUse">
<stop stop-color="#C5673F"/>
<stop offset="1" stop-color="#F8EDA9"/>
</linearGradient>
<linearGradient id="paint20_linear_3002_285" x1="407.867" y1="1244.68" x2="406.301" y2="1257.33" gradientUnits="userSpaceOnUse">
<stop stop-color="#C5673F"/>
<stop offset="1" stop-color="#F8EDA9"/>
</linearGradient>
<linearGradient id="paint21_linear_3002_285" x1="385.681" y1="1423.98" x2="382.085" y2="1453.04" gradientUnits="userSpaceOnUse">
<stop stop-color="#C5673F"/>
<stop offset="1" stop-color="#F8EDA9"/>
</linearGradient>
<linearGradient id="paint22_linear_3002_285" x1="385.874" y1="1423.2" x2="382.107" y2="1453.65" gradientUnits="userSpaceOnUse">
<stop stop-color="#C5673F"/>
<stop offset="1" stop-color="#F8EDA9"/>
</linearGradient>
<linearGradient id="paint23_linear_3002_285" x1="340.874" y1="1217.52" x2="337.939" y2="1241.24" gradientUnits="userSpaceOnUse">
<stop stop-color="#C5673F"/>
<stop offset="1" stop-color="#F8EDA9"/>
</linearGradient>
<linearGradient id="paint24_linear_3002_285" x1="340.945" y1="1216.93" x2="337.863" y2="1241.83" gradientUnits="userSpaceOnUse">
<stop stop-color="#C5673F"/>
<stop offset="1" stop-color="#F8EDA9"/>
</linearGradient>
<linearGradient id="paint25_linear_3002_285" x1="387.318" y1="1410.73" x2="385.679" y2="1423.98" gradientUnits="userSpaceOnUse">
<stop stop-color="#C5673F"/>
<stop offset="1" stop-color="#F8EDA9"/>
</linearGradient>
<linearGradient id="paint26_linear_3002_285" x1="387.517" y1="1409.96" x2="385.707" y2="1424.59" gradientUnits="userSpaceOnUse">
<stop stop-color="#C5673F"/>
<stop offset="1" stop-color="#F8EDA9"/>
</linearGradient>
<linearGradient id="paint27_linear_3002_285" x1="105.713" y1="101.034" x2="20.0837" y2="153.152" gradientUnits="userSpaceOnUse">
<stop stop-color="#F6EBA3"/>
<stop offset="1" stop-color="#F1AC69"/>
</linearGradient>
<linearGradient id="paint28_linear_3002_285" x1="106.706" y1="93.3415" x2="103.759" y2="110.664" gradientUnits="userSpaceOnUse">
<stop stop-color="#F6EBA3"/>
<stop offset="1" stop-color="#F1AC69"/>
</linearGradient>
<linearGradient id="paint29_linear_3002_285" x1="33.9971" y1="143.741" x2="31.9945" y2="155.514" gradientUnits="userSpaceOnUse">
<stop stop-color="#F6EBA3"/>
<stop offset="1" stop-color="#F1AC69"/>
</linearGradient>
<linearGradient id="paint30_linear_3002_285" x1="28.049" y1="147.363" x2="26.0472" y2="159.131" gradientUnits="userSpaceOnUse">
<stop stop-color="#F6EBA3"/>
<stop offset="1" stop-color="#F1AC69"/>
</linearGradient>
<linearGradient id="paint31_linear_3002_285" x1="22.3248" y1="150.843" x2="20.3226" y2="162.614" gradientUnits="userSpaceOnUse">
<stop stop-color="#F6EBA3"/>
<stop offset="1" stop-color="#F1AC69"/>
</linearGradient>
<linearGradient id="paint32_linear_3002_285" x1="29.3836" y1="141.889" x2="28.9032" y2="144.712" gradientUnits="userSpaceOnUse">
<stop stop-color="#F6EBA3"/>
<stop offset="1" stop-color="#F1AC69"/>
</linearGradient>
<linearGradient id="paint33_linear_3002_285" x1="23.4394" y1="145.505" x2="22.9586" y2="148.332" gradientUnits="userSpaceOnUse">
<stop stop-color="#F6EBA3"/>
<stop offset="1" stop-color="#F1AC69"/>
</linearGradient>
<linearGradient id="paint34_linear_3002_285" x1="17.7135" y1="148.988" x2="17.2327" y2="151.814" gradientUnits="userSpaceOnUse">
<stop stop-color="#F6EBA3"/>
<stop offset="1" stop-color="#F1AC69"/>
</linearGradient>
<clipPath id="clip0_3002_285">
<rect width="405.676" height="1430.87" fill="white"/>
</clipPath>
<clipPath id="clip1_3002_285">
<rect width="344.234" height="253.646" fill="white" transform="translate(20.9258 339.938)"/>
</clipPath>
<clipPath id="clip2_3002_285">
<rect width="141.665" height="551.902" fill="white" transform="translate(-82.0996 660.834)"/>
</clipPath>
<clipPath id="clip3_3002_285">
<rect width="172.573" height="229.874" fill="white" transform="translate(326.58 1215.15) rotate(7.05325)"/>
</clipPath>
<clipPath id="clip4_3002_285">
<rect width="141.665" height="551.902" fill="white" transform="translate(341.283 660.834)"/>
</clipPath>
<clipPath id="clip5_3002_285">
<rect width="82.7772" height="93.8804" fill="white" transform="matrix(0.167688 -0.98584 -0.98584 -0.167688 101.943 176.496)"/>
</clipPath>
</defs>
</svg>
