<svg width="839" height="5407" viewBox="0 0 839 5407" fill="none" xmlns="http://www.w3.org/2000/svg">
<mask id="mask0_4001_214" style="mask-type:alpha" maskUnits="userSpaceOnUse" x="0" y="0" width="839" height="5407">
<rect width="839" height="5407" fill="#D9D9D9"/>
</mask>
<g mask="url(#mask0_4001_214)">
<path d="M1500 2481.66H-34V5410.52H1500V2481.66Z" fill="url(#paint0_linear_4001_214)"/>
<g opacity="0.6">
<path d="M1486.06 3714.97C1457.72 3714.14 1428.4 3713.65 1398 3713.65C972.891 3713.65 756.947 3799.99 548.076 3883.45C445.285 3924.51 338.958 3967.05 208.911 3998.21C115.157 4020.71 14.7723 4035.7 -94.6484 4043.59C-94.6484 4057.66 -94.6484 4071.72 -94.6484 4085.83C208.911 4064.32 388.856 3992.43 563.791 3922.5C666.582 3881.39 772.909 3838.9 902.956 3807.74C1048.87 3772.75 1210.84 3755.74 1398 3755.74C1428.06 3755.74 1457.33 3756.23 1486.11 3757.12C1486.11 3743.05 1486.06 3729.04 1486.06 3714.97Z" fill="#FFDA6C"/>
<path d="M1486.06 3714.97C1457.72 3714.14 1428.4 3713.65 1398 3713.65C972.891 3713.65 756.898 3799.99 548.076 3883.45C445.285 3924.56 338.958 3967.05 208.911 3998.21C115.157 4020.71 14.7723 4035.7 -94.6484 4043.59C-94.6484 4057.66 -94.6484 4071.72 -94.6484 4085.83C208.911 4064.32 388.856 3992.43 563.791 3922.5C666.582 3881.39 772.909 3838.9 902.956 3807.74C1048.87 3772.75 1210.84 3755.74 1398 3755.74C1428.06 3755.74 1457.38 3756.23 1486.11 3757.12C1486.11 3743.05 1486.06 3729.04 1486.06 3714.97Z" fill="#FFDA6C"/>
<path d="M1486.84 3922.36C1458.26 3921.47 1428.7 3921.03 1398 3921.03C972.891 3921.03 756.898 4007.38 548.076 4090.83C458.692 4126.56 366.608 4163.36 258.562 4192.86C272.265 4193.25 285.967 4193.89 299.669 4194.87C323.734 4196.63 347.602 4200.89 371.667 4202.27C439.784 4179.43 502.107 4154.54 563.742 4129.89C666.533 4088.77 772.86 4046.29 902.907 4015.12C1048.82 3980.13 1210.79 3963.13 1397.95 3963.13C1428.35 3963.13 1458.02 3963.62 1487.14 3964.55C1487.04 3950.48 1486.89 3936.47 1486.8 3922.41L1486.84 3922.36Z" fill="#FFDA6C"/>
<path d="M1489.1 4129.74C1459.83 4128.81 1429.48 4128.32 1398 4128.32C1107.36 4128.32 914.498 4168.7 754.787 4220.89C780.767 4224.91 806.453 4232.26 831.647 4241.22C854.631 4234.61 878.352 4228.34 902.908 4222.41C1048.82 4187.42 1210.79 4170.41 1397.95 4170.41C1429.29 4170.41 1459.83 4170.95 1489.79 4171.88C1489.55 4157.82 1489.3 4143.81 1489.06 4129.74H1489.1Z" fill="#FFDA6C"/>
</g>
<g opacity="0.6">
<path d="M1497.99 4467.62C1467.45 4462.04 1437.64 4455.81 1408.46 4448.81C1278.37 4417.59 1172.09 4375.1 1069.3 4334.04C860.427 4250.54 644.483 4164.24 219.373 4164.24C99.6389 4164.24 -3.54467 4171.1 -94.5977 4182.81C-94.5977 4196.97 -94.5977 4211.09 -94.5977 4225.25C2.20138 4212.61 106.122 4206.33 219.373 4206.33C406.587 4206.33 568.508 4223.34 714.418 4258.33C844.515 4289.54 950.793 4332.03 1053.58 4373.09C1183.39 4424.99 1315.94 4477.96 1499.71 4510.65C1499.12 4496.34 1498.53 4481.98 1497.99 4467.62Z" fill="#FFDA6C"/>
<path d="M1408.46 4656.14C1278.37 4624.92 1172.09 4582.44 1069.3 4541.37C860.427 4457.87 644.483 4371.57 219.372 4371.57C99.6383 4371.57 -3.44702 4378.43 -94.5 4390.1C-94.5 4404.26 -94.5 4418.42 -94.5 4432.53C2.24993 4419.89 106.17 4413.62 219.372 4413.62C406.586 4413.62 568.507 4430.62 714.418 4465.61C844.515 4496.83 950.792 4539.31 1053.58 4580.38C1142.18 4615.81 1232.15 4651.73 1338.77 4681.33C1366.28 4675.4 1393.14 4666.09 1420.45 4658.83C1416.47 4657.9 1412.44 4657.02 1408.46 4656.09V4656.14Z" fill="#FFDA6C"/>
<path d="M1069.25 4748.71C860.377 4665.21 644.433 4578.91 219.323 4578.91C99.6871 4578.91 -3.3982 4585.77 -94.4512 4597.43C-94.4512 4599 -94.4512 4600.57 -94.4512 4602.14C-94.4512 4614.73 -94.4021 4627.33 -94.4021 4639.92C2.29875 4627.28 106.17 4621 219.274 4621C406.487 4621 568.409 4638.01 714.319 4673C834.004 4701.71 933.554 4739.99 1028.78 4777.91C1044.99 4768.95 1061.39 4760.37 1078.09 4752.29C1075.14 4751.11 1072.15 4749.93 1069.2 4748.71H1069.25Z" fill="#FFDA6C"/>
<path d="M219.325 4786.24C99.8361 4786.24 -3.151 4793.06 -94.0566 4804.77C-94.0566 4818.93 -94.0566 4833.04 -93.9584 4847.2C2.64418 4834.61 106.368 4828.34 219.374 4828.34C406.587 4828.34 568.509 4845.34 714.419 4880.33C728.367 4883.66 741.971 4887.14 755.378 4890.77C786.024 4890.72 816.031 4883.47 844.761 4873.08C688.537 4823.68 499.31 4786.24 219.374 4786.24H219.325Z" fill="#FFDA6C"/>
</g>
<g opacity="0.6">
<path d="M1505.85 4637.76C1286.81 4668.64 1138.55 4727.88 993.715 4785.8C890.924 4826.92 784.598 4869.4 654.501 4900.57C508.59 4935.56 346.62 4952.56 159.456 4952.56C69.5323 4952.56 -14.4487 4948.59 -93.7148 4940.66C-93.7148 4954.77 -93.6166 4968.88 -93.5675 4983C-17.9356 4990.44 65.6524 4994.66 159.505 4994.66C584.615 4994.66 800.608 4908.31 1009.43 4824.86C1112.22 4783.75 1218.55 4741.26 1348.6 4710.09C1399.67 4697.84 1452.76 4687.85 1508.16 4679.96C1507.32 4665.89 1506.64 4651.83 1505.9 4637.76H1505.85Z" fill="#FFDA6C"/>
<path d="M1505.85 4637.76C1286.81 4668.64 1138.55 4727.88 993.715 4785.8C890.924 4826.87 784.597 4869.4 654.55 4900.57C508.639 4935.56 346.669 4952.56 159.504 4952.56C69.6302 4952.56 -14.3998 4948.59 -93.666 4940.66C-93.666 4954.77 -93.5678 4968.88 -93.5187 4983C-17.8868 4990.44 65.7012 4994.66 159.504 4994.66C584.615 4994.66 800.608 4908.31 1009.43 4824.86C1112.22 4783.75 1218.55 4741.26 1348.6 4710.09C1399.67 4697.84 1452.76 4687.85 1508.16 4679.96C1507.32 4665.89 1506.64 4651.83 1505.9 4637.76H1505.85Z" fill="#FFDA6C"/>
<path d="M1518.13 4880.18C1518.77 4872.74 1519.46 4865.24 1520.14 4857.79C1519.75 4852.99 1519.41 4848.14 1519.06 4843.33C1292.71 4873.67 1141.39 4934.14 993.666 4993.19C890.875 5034.3 784.549 5076.79 654.501 5107.95C508.59 5142.94 346.62 5159.95 159.456 5159.95C69.8271 5159.95 -14.0064 5155.98 -93.0762 5148.09C-93.0271 5162.2 -92.9779 5176.31 -92.8797 5190.43C-17.4443 5197.83 65.9473 5201.99 159.456 5201.99C584.566 5201.99 800.559 5115.65 1009.38 5032.19C1112.17 4991.08 1218.5 4948.59 1348.55 4917.43C1402.57 4904.49 1458.8 4894 1517.64 4885.92C1517.79 4884.01 1517.93 4882.1 1518.13 4880.18Z" fill="#FFDA6C"/>
<path d="M-92.0449 5355.52C-91.9467 5369.63 -91.8976 5383.7 -91.8485 5397.81C-51.4296 5401.78 -8.8007 5404.82 36.4802 5406.78C74.7873 5390.8 114.126 5377.87 154.103 5367.28C66.8312 5367.14 -14.8414 5363.22 -92.0449 5355.52Z" fill="#FFDA6C"/>
<path d="M1504.82 5052.63C1286.32 5083.55 1138.3 5142.7 993.716 5200.52C903.94 5236.39 811.561 5273.34 702.926 5302.89C721.588 5301.67 740.251 5300.49 758.962 5299.46C794.47 5297.5 829.978 5295.98 865.534 5295.15C915.334 5277.16 962.579 5258.3 1009.38 5239.58C1112.17 5198.51 1218.5 5155.98 1348.55 5124.81C1397.71 5113 1448.78 5103.3 1501.97 5095.56C1502.91 5081.25 1503.84 5066.94 1504.82 5052.63Z" fill="#FFDA6C"/>
</g>
<g opacity="0.6">
<path d="M-90.2769 5484.65C12.5137 5443.53 118.84 5401.04 248.888 5369.88C394.799 5334.89 556.769 5317.89 743.933 5317.89C931.098 5317.89 1093.07 5334.89 1238.98 5369.88C1329.84 5391.68 1409.1 5418.98 1483.65 5447.45C1484.29 5432.7 1484.93 5417.9 1485.62 5403.15C1305.43 5335.23 1096.7 5275.74 743.884 5275.74C328.498 5275.74 112.8 5358.17 -91.7012 5439.81C-91.6029 5454.85 -91.5047 5469.94 -91.4065 5484.99C-91.0627 5484.84 -90.7189 5484.69 -90.3752 5484.55L-90.2769 5484.65Z" fill="#FFDA6C"/>
<path d="M1485.72 5403.15C1305.52 5335.23 1096.8 5275.74 743.982 5275.74C328.596 5275.74 112.897 5358.17 -91.6035 5439.81C-91.5053 5454.85 -91.4071 5469.94 -91.3088 5484.99C-90.9651 5484.84 -90.6213 5484.69 -90.2775 5484.6C12.5132 5443.48 118.84 5401 248.887 5369.83C394.798 5334.84 556.768 5317.84 743.933 5317.84C931.097 5317.84 1093.07 5334.84 1238.98 5369.83C1329.83 5391.64 1409.1 5418.93 1483.65 5447.4C1484.29 5432.65 1484.93 5417.85 1485.62 5403.1L1485.72 5403.15Z" fill="#FFDA6C"/>
</g>
<path d="M1482.67 0H-69.5508V2526.39H1482.67V0Z" fill="url(#paint1_linear_4001_214)"/>
<path d="M678.369 1308.45C678.369 1308.45 695.902 1311.24 713.239 1321.29C739.759 1336.63 752.086 1427.63 757.832 1660.54C766.869 2026.6 775.905 2204.97 775.905 2204.97H702.631C702.631 2204.97 705.577 1315.95 678.32 1308.5L678.369 1308.45Z" fill="url(#paint2_linear_4001_214)"/>
<path d="M1482.52 1041.08C1482.52 1041.08 1136.14 1198.39 1109.67 1198.39C1083.2 1198.39 935.224 1114.69 872.312 1182.95C809.4 1251.16 712.699 1316.83 702.533 1316.83C692.367 1316.83 492.777 1382.1 311.359 1219.7C290.929 1201.42 220.699 1054.22 155.528 1054.22C90.3567 1054.22 -69.5508 964.051 -69.5508 964.051L4.2149 2456.41L1482.67 2526.39L1482.52 1041.04V1041.08Z" fill="#99D3B4"/>
<path d="M1482.52 1061.91C1361.66 1090.82 1199.44 1205.3 1109.67 1198.39C1083.25 1196.33 921.768 1130.17 858.856 1198.39C795.944 1266.6 712.699 1316.83 702.533 1316.83C692.367 1316.83 675.817 1300.22 646.055 1307.71C593.456 1320.99 504.908 1286.74 486.737 1286.74C473.82 1286.74 344.215 1215 317.744 1215C291.272 1215 209.354 1052.65 144.183 1052.65C79.0119 1052.65 -69.5508 973.704 -69.5508 973.704V2478.02L1482.67 2526.44L1482.52 1061.91Z" fill="url(#paint3_linear_4001_214)"/>
<path d="M594.29 1308.45C594.29 1308.45 610.743 1306.24 629.16 1321.29C653.175 1340.89 668.007 1427.63 673.753 1660.54C682.79 2026.6 691.826 2204.97 691.826 2204.97L395.683 2180.86C395.683 2180.86 402.362 1686.86 392.343 1469.18C390.231 1422.87 475.587 1263.95 469.645 1263.22C509.867 1265.86 596.304 1314.57 594.241 1308.45H594.29Z" fill="url(#paint4_linear_4001_214)"/>
<path style="mix-blend-mode:screen" d="M1072.1 2179C1063.85 2170.03 92.959 2195.61 92.959 2195.61C92.959 2195.61 317.89 1846.26 478.633 1865.08C639.375 1883.9 687.554 1761.19 782.486 1778C877.419 1794.86 1088.11 2058.16 1088.11 2058.16L1072.1 2178.95V2179Z" fill="url(#paint5_linear_4001_214)"/>
<g style="mix-blend-mode:screen">
<path d="M202.773 2160.23C202.773 2160.23 313.962 2021.99 397.403 1986.07C544.787 1922.61 599.399 2017.04 647.823 2017.04C696.247 2017.04 744.72 2034.64 800.167 2091.72C820.598 2112.8 839.408 2161.7 839.408 2161.7L202.773 2160.18V2160.23Z" fill="#333333"/>
</g>
<path d="M380.753 2216.1C390.625 2218.79 552.104 2255.69 829.388 2307.73C856.94 2312.88 885.67 2318.22 915.53 2323.66C923.781 2325.18 932.13 2326.7 940.528 2328.22C969.356 2333.41 999.118 2338.8 1029.81 2344.24C1047.84 2347.43 1066.16 2350.66 1084.82 2353.89C1101.37 2356.79 1118.21 2359.68 1135.26 2362.62C1241.98 2380.9 1358.22 2399.91 1482.67 2419.12C1482.67 2351.98 1482.67 2152.98 1482.67 2152.98H284.249C284.249 2152.98 274.328 2186.89 380.753 2216.1Z" fill="#A0DDF7"/>
<path d="M1482.67 952.976C1482.67 952.976 748.06 961.062 491.599 877.118C235.187 793.175 -69.5508 749.022 -69.5508 749.022V831.692C430.946 905.393 495.675 943.567 678.812 961.013C995.877 991.199 870.446 1005.95 723.946 1005.95C577.446 1005.95 461.542 940.039 271.186 929.405C105.336 920.144 -69.5508 899.121 -69.5508 899.121V929.405C-69.5508 929.405 678.37 1023.49 975.692 1047.16C1173.91 1062.94 998.824 983.113 1191.69 983.113C1264.47 983.113 1482.62 972.529 1482.62 972.529V952.976H1482.67Z" fill="#BAE6F9"/>
<path d="M-69.5508 1403.32C-28.3952 1428.02 -84.6281 1704.06 23.7613 1745.27C117.466 1885.03 112.752 2310.23 112.752 2310.23L-69.5508 2313.66V1403.27V1403.32Z" fill="url(#paint6_linear_4001_214)"/>
<path d="M166.382 2315.03C166.382 2315.03 121.788 2166.8 48.4154 2127.69C-21.8143 2090.25 -69.5508 2117.79 -69.5508 2117.79V2316.16L166.382 2314.99V2315.03Z" fill="#004D77"/>
<path d="M251.785 2316.55C251.785 2316.55 247.07 2254.66 205.276 2232.17C181.064 2219.18 156.066 2228.49 140.547 2245.3C115.746 2272.2 112.75 2317.19 112.75 2317.19L251.785 2316.5V2316.55Z" fill="#004D77"/>
<path d="M813.967 2273.43C946.961 2292.64 1102.01 2375.75 1102.01 2375.75L1178.62 2385.89C1178.62 2385.89 1048.92 2294.26 847.707 2269.61C836.558 2270.83 825.361 2272.11 814.016 2273.48L813.967 2273.43Z" fill="#C9D7C9"/>
<path d="M1208.77 2381.88C1276.84 2432.4 1098.42 2533.84 1098.42 2533.84H837.098C837.098 2533.84 1139.43 2440.34 1122.39 2393.2C1119.69 2385.75 1110.85 2376.49 1098.76 2370.71L1208.77 2381.88Z" fill="#84A3C1"/>
<path d="M1482.67 2212.32C1482.67 2212.32 859.887 2187.92 796.238 2171.94H1482.67V2212.32Z" fill="#76CEDE"/>
<path d="M1482.67 2132.79C1482.67 2132.79 859.887 2157.19 796.238 2173.17H1482.67V2132.79Z" fill="url(#paint7_linear_4001_214)"/>
<path d="M587.218 2508.21C587.218 2508.21 496.705 2398.93 552.202 2420.64C585.499 2433.67 592.866 2508.21 592.866 2508.21C592.866 2508.21 587.218 2461.16 587.218 2438.92C587.218 2416.67 605.34 2457.88 592.866 2508.21C615.507 2466.46 621.154 2450.33 651.702 2457.15C682.249 2463.96 604.162 2487.38 604.162 2500.86C604.162 2514.33 587.169 2508.21 587.169 2508.21H587.218Z" fill="#1E4280"/>
<path d="M280.319 2430C280.319 2430 335.423 2334.59 305.465 2367.13C300.357 2372.66 259.987 2429.31 259.987 2429.31C259.987 2429.31 280.319 2396.19 280.319 2380.21C280.319 2364.24 243.289 2390.26 252.228 2426.42C235.972 2396.43 228.85 2389.86 206.947 2394.76C184.994 2399.66 238.133 2421.28 238.133 2430.98C238.133 2440.68 280.369 2430 280.369 2430H280.319Z" fill="#1E4280"/>
<path d="M508.738 2546.82C481.138 2556.33 453.537 2565.88 425.936 2575.39C452.898 2617.78 497.05 2620.28 536.388 2621.5C575.727 2622.73 620.467 2629.59 644.09 2676.19C585.549 2669.92 526.173 2680.41 470.284 2706.92C485.803 2718.63 501.322 2730.39 516.793 2742.1C444.648 2773.71 371.226 2798.65 296.969 2816.83C307.282 2841.48 322.949 2861.08 341.12 2872.01C315.975 2902.54 281.302 2911.26 248.938 2906.02C216.622 2900.78 185.878 2883.04 155.626 2865.44C147.424 2860.64 138.682 2855.35 133.624 2844.67C129.449 2835.9 128.418 2824.82 127.485 2814.19C123.408 2768.32 119.332 2722.5 115.256 2676.63C171.341 2661.78 227.378 2646.89 283.463 2632.04C294.661 2605.77 253.996 2587.79 289.75 2560.64C307.037 2547.51 338.91 2550.79 358.997 2542.36C379.526 2533.74 396.567 2526.73 418.373 2526.88C443.665 2527.02 486 2554.61 508.738 2546.77V2546.82Z" fill="#7ECAD0"/>
<path d="M81.9927 2973.8C105.419 2978.16 128.894 2982.52 152.321 2986.88C153.745 3007.76 137.341 3016.04 125.26 3016.68C66.3752 3019.86 7.53943 3028.24 -50.8543 3041.72C-93.2868 3051.52 -143.97 3076.61 -154.676 3148.55C-111.802 3145.61 -68.5345 3160.85 -29.7363 3192.6C-59.2033 3213.97 -88.4738 3236.36 -117.401 3259.83C-124.227 3265.37 -131.447 3271.59 -135.228 3282.87C-146.18 3315.45 -121.379 3348.48 -101.096 3362.01C-106.449 3364.55 -111.802 3367.15 -117.155 3369.7H-197.551V2695.95C-164.793 2683.5 -131.987 2671.59 -99.1311 2660.17C-12.007 2629.94 75.5591 2603.43 163.518 2581.77C213.268 2569.52 272.693 2541.44 322.787 2548.59C334.377 2550.26 342.383 2554.42 347.539 2560.26C347.638 2560.35 347.785 2560.5 347.883 2560.65C368.215 2584.66 341.204 2636.11 315.273 2661.15C302.307 2673.65 289.931 2697.22 293.811 2722.02C300.785 2766.56 346.41 2754.07 357.362 2796.11C340.565 2808.51 323.769 2820.91 306.973 2833.3C369.787 2834.33 432.601 2835.36 495.414 2836.39C506.17 2836.59 521.444 2849.77 515.501 2865.35C382.654 2934.35 237.578 2878.24 102.472 2932.64C90.489 2937.49 75.3626 2955.67 81.9436 2973.7L81.9927 2973.8Z" fill="#57B6B2"/>
<path d="M706.609 2704.91V2793.9C692.17 2810.85 680.481 2824.33 674.392 2831.29C671.445 2834.67 669.824 2836.53 669.824 2836.53L671.543 2830.36L703.76 2715.1L706.609 2704.86V2704.91Z" fill="#46605E"/>
<path d="M706.609 2441.66V2498.95L669.824 2532.71L681.513 2503.75L696.099 2467.68L706.609 2441.66Z" fill="#334A48"/>
<path d="M115.6 2453.86L97.0846 2583.58L-33.5524 2751.32L-77.2126 2591.17L-72.9399 2525.16C-72.9399 2525.16 -188.205 2307.29 -188.205 2297.15C-188.205 2287 -171.556 2163.12 -171.556 2163.12L-247.777 1836.22V1676.08L-175.976 1729.93L-228.133 1515.34L-118.859 1768.3L-121.806 1869.59C-156.97 1839.11 -199.746 1834.21 -199.746 1834.21L-106.631 1991.46L-56.3893 1869.59L-34.7802 2026.7L-56.3893 2226L-46.8617 2380.26L-34.7802 2226C-13.4166 2176.89 30.5383 2326.11 30.5383 2326.11V2398.15L80.3375 2471.75L59.8088 2262.06C74.4441 2253.14 115.501 2453.86 115.501 2453.86H115.6Z" fill="#9B854D"/>
<path d="M156.658 2481.94C156.658 2489.59 97.1344 2583.62 97.1344 2583.62L115.65 2453.91C115.65 2453.91 74.6413 2253.19 59.9569 2262.11L80.4855 2471.8L30.6864 2398.19V2326.16C30.6864 2326.16 -13.2685 2176.94 -34.6321 2226.04L-46.7136 2380.31L-56.2412 2226.04L-34.6321 2026.75L-56.2412 1869.64L-106.482 1991.51L-199.598 1834.26C-199.598 1834.26 -156.822 1839.16 -121.658 1869.64L-118.711 1768.35L-227.985 1515.39L-233.829 1491.33L-237.414 1476.63L-185.159 1556.9L-89.4407 1704.06L-19.1128 1963.04L36.3833 2089.13L49.6435 2119.31L76.1146 2179.39C76.1146 2179.39 156.707 2474.25 156.707 2481.89L156.658 2481.94Z" fill="#E6B969"/>
<path opacity="0.89" d="M1325.87 2755.48C1323.12 2773.82 1316.4 2788.09 1307.72 2799.57C1296.29 2814.74 1281.38 2825.12 1267.55 2833.52C1230.03 2856.43 1192.51 2879.3 1154.95 2902.16C1149.8 2905.33 1144.3 2908.88 1141.16 2916.52C1123.41 2959.99 992.51 3104.31 894.715 3109.31C891.576 3145.57 799.715 3252.1 747.825 3302.53C741.842 3308.34 735.711 3314.83 732.18 3324.86C726.736 3340.43 728.943 3356.04 735.073 3369.82H20C82.336 3341.43 144.672 3313.1 207.008 3284.76C229.029 3274.72 256.887 3247.06 248.745 3210.8C237.416 3160.41 174.295 3190 171.892 3136.16C170.813 3112.09 185.428 3095.43 198.474 3086.01C231.628 3062 267.431 3048.7 303.479 3047.01C283.224 3034.96 469.153 2972.52 574.893 2903.74C588.822 2894.71 604.418 2878.58 604.467 2853.22C604.467 2834.68 595.835 2819.5 586.811 2809.13C558.071 2776.03 523.151 2770.51 487.642 2767.15C487.642 2767.15 410.936 2773.63 385.678 2742.12C383.226 2739.05 380.676 2735.69 378.42 2732.04C377.537 2731.22 376.605 2730.36 375.722 2729.44C375.967 2729.16 376.213 2728.92 376.409 2728.63C373.27 2722.91 370.867 2716.33 370.033 2708.7C367.09 2682.09 384.06 2662.44 398.724 2652.07C448.112 2617.25 501.326 2598.18 554.785 2596.21C576.463 2595.39 606.037 2585.21 605.791 2548.28C603.486 2546.79 601.181 2545.3 598.876 2543.81C575.04 2528.49 551.254 2513.17 527.418 2497.85C526.78 2497.46 526.143 2497.03 525.505 2496.65C523.053 2495.06 520.65 2493.52 518.197 2491.94C509.664 2486.46 499.855 2477.77 495.735 2465.28C494.901 2462.74 494.264 2460 493.969 2457.12C493.724 2455.24 493.675 2453.28 493.724 2451.26C493.724 2450.73 493.724 2450.2 493.773 2449.62C495.097 2429.88 508.781 2421.24 520.11 2416.72C522.415 2415.81 524.671 2414.9 526.976 2413.99C546.398 2406.3 565.82 2398.57 585.242 2390.84C608.832 2381.47 632.423 2372.11 656.062 2362.69C625.164 2354 600.764 2296.62 578.645 2258.82C662.517 2266.71 746.888 2300.2 815.066 2300.21C805.551 2327.2 792.309 2350.35 776.664 2367.11C803.54 2412.31 837.136 2436.56 873.625 2451.93C959.895 2488.19 1114.19 2590.21 1104.38 2600.15C1120.12 2644.1 1154.7 2655.96 1184.91 2653.03C1211.89 2650.34 1239.16 2639.39 1265.74 2644.72C1268.88 2645.34 1272.07 2646.21 1275.2 2647.36C1304.83 2658.02 1333.32 2705.53 1325.77 2755.43L1325.87 2755.48Z" fill="#B1DEDC"/>
<path d="M792.702 2524.43C817.307 2521.78 842.305 2532.86 863.178 2555.59C845.939 2579.61 822.759 2585.24 800.757 2588.87C746.93 2597.69 692.711 2599.55 638.737 2594.36C635.545 2586.03 642.274 2576.86 647.823 2574.17C682.84 2557.11 722.964 2568.33 753.56 2534.28C743.935 2532.61 735.094 2521.14 731.46 2505.61C748.06 2505.66 764.66 2499.53 779.835 2487.77C756.605 2486.65 733.425 2485.57 710.195 2484.44C681.661 2483.07 650.377 2479.88 629.406 2446.27C651.457 2428.38 677.192 2437.05 701.502 2434.11C742.461 2429.16 782.045 2389.86 823.643 2405.45C818.83 2408.58 816.472 2412.45 812.986 2415.79C827.915 2443.96 857.088 2437.98 872.067 2466.02C861.606 2483.46 846.234 2481.01 832.581 2487.38C822.611 2492.04 798.056 2523.84 792.801 2524.38L792.702 2524.43Z" fill="#C5E5E3"/>
<path d="M995.813 2606.81C1053.37 2602.25 1118.05 2602.1 1159.31 2671.89C1155.82 2665.96 1131.36 2671.89 1126.01 2671.89C1116.38 2671.89 1107.74 2673.94 1098.36 2675.61C1075.86 2679.73 1052.93 2677.57 1030.34 2682.13C1024.4 2683.3 1018.16 2684.92 1013.44 2691.24C1011.77 2693.45 1010.3 2696.54 1010.2 2700.11C1010.01 2705.65 1013 2710.01 1015.95 2712.17C1021.55 2716.28 1027.83 2716.33 1033.92 2716.33C1045.51 2716.33 1057.1 2716.23 1068.69 2716.19C1069.53 2716.19 1070.41 2716.19 1071.05 2717.12C1072.18 2718.68 1071.79 2722.07 1070.66 2723.63C1069.53 2725.2 1068.01 2725.5 1066.53 2725.69L1037.16 2729.81C1046 2749.8 1060.44 2750.49 1073.7 2752.3C1090.6 2754.65 1107.49 2756.96 1124.34 2759.31C1158.91 2764.11 1193.49 2768.91 1228.06 2773.67C1243.83 2775.87 1265.39 2793.66 1258.66 2818.51C1203.75 2847.86 1145.6 2841.24 1089.12 2834.48C1060.39 2831.05 1031.66 2827.33 1002.88 2827.82C978.673 2828.26 949.402 2830.56 926.222 2843.06C918.511 2847.22 909.622 2859.03 912.814 2871.87C949.255 2889.12 988.299 2869.91 1025.62 2879.71C1033.33 2881.72 1041.78 2885.98 1045.76 2897.6C1046.79 2900.54 1015.65 2904.31 1013.1 2904.11C1001.76 2903.28 988.888 2899.17 977.74 2904.65C947.438 2919.65 1003.13 2936.16 1003.87 2947.83C1004.26 2954.05 999.84 2957.38 996.255 2958.56C969.342 2967.43 941.839 2967.53 914.533 2967.28C904.858 2967.18 835.66 2959.1 832.811 2974.19C832.222 2977.28 833.499 2980.66 835.169 2982.18C836.838 2983.7 838.754 2983.79 840.62 2983.99C849.313 2984.92 857.907 2988.11 866.06 2993.4C870.529 2996.34 875.637 3002.17 874.949 3010.35C874.261 3018.15 868.908 3021.38 864.439 3022.9C824.708 3036.42 787.579 3041.91 747.161 3041.91C705.317 3041.91 663.425 3041.82 621.582 3041.82C618.488 3041.82 615.198 3041.77 612.496 3039.17C609.746 3036.57 607.831 3030.54 609.157 3025.64C647.513 3000.9 685.722 3008.15 725.109 2999.18C734.097 2997.12 743.87 2994.43 750.058 2982.86C750.893 2981.25 751.728 2979.29 751.581 2977.13C751.433 2974.97 750.402 2973.36 749.42 2972.03C737.436 2955.81 721.377 2952.33 706.201 2951.4C691.026 2950.47 675.359 2951.4 661.117 2942.14C660.135 2941.5 659.054 2940.72 658.465 2939.25C657.581 2937.19 657.728 2934.4 658.17 2931.95C662.59 2907.01 696.87 2914.26 708.313 2914.06C726.976 2913.82 745.638 2915.68 764.3 2916.71C811.595 2919.36 881.334 2919.21 910.26 2840.8C902.304 2837.47 893.955 2840.8 885.754 2840.46C877.552 2840.17 868.27 2834.28 865.716 2820.76C865.225 2818.11 865.028 2815.17 865.667 2812.58C866.649 2808.61 869.252 2806.74 871.609 2805.47C891.45 2794.59 912.716 2796.06 933.539 2794.64C954.363 2793.22 976.168 2788.17 992.915 2766.76C996.206 2762.59 999.447 2756.96 999.545 2749.9C999.643 2736.77 989.772 2731.96 982.209 2731.23C952.005 2728.19 921.409 2727.55 891.991 2713.2C885.361 2709.96 877.257 2700.7 879.958 2689.72C891.009 2689.18 976.119 2683.7 972.583 2659.78C971.552 2652.92 966.837 2650.18 962.761 2649.2C936.633 2642.83 908.934 2647.19 882.61 2647.83C853.684 2648.56 824.806 2649.54 795.928 2650.81C793.718 2641.5 797.009 2630.38 801.871 2624.84C806.733 2619.31 812.774 2618.08 818.569 2617.1C877.798 2607.15 936.781 2611.17 996.107 2606.47L995.813 2606.81Z" fill="#C5E5E3"/>
<path d="M115.6 2809.19L1.31744 2848L-158.59 2927.38L-257.01 2976.29V2857.7L-241.441 2829.38L-133.445 2633.07L-88.5569 2686.24L-33.5027 2751.36L115.6 2809.19Z" fill="#948149"/>
<path d="M915 2476.82C915 2476.82 774.584 2437.82 739.22 2435.94C708.987 2434.32 616.333 2356.87 512.136 2373.04C451.365 2382.52 -40 2432.7 -40 2432.7V2476.82H915Z" fill="#1E4280"/>
<path d="M113.593 2585.62C113.593 2585.62 417.649 2638.81 467.899 2599.09C518.15 2559.38 428.107 2531.58 428.107 2531.58C428.107 2531.58 390.95 2505.25 657.679 2511.34C924.407 2517.43 911.908 2476.82 911.908 2476.82H-25L64.2779 2525.09L113.593 2585.62Z" fill="#1E4280"/>
<path d="M257.925 2734.31L257.09 2736.12L244.763 2763.57L182.686 2791.55L0.727325 2873.53L-133.789 2925.38C-133.789 2925.38 -212.712 2931.7 -288 2941.45V1393.57C-281.223 1389.06 -276.704 1385.97 -275.968 1385.43C-275.869 1385.39 -275.771 1385.34 -275.771 1385.34L-259.024 1424.1L-206.917 1638.69L-278.718 1584.88V1745.02L-151.273 2014.45C-151.273 2014.45 -105.845 1905.12 -105.845 1915.31C-105.845 1925.5 -152.747 2205.07 -152.747 2205.07L-56.0457 2499.93L-26.7261 2288.96L35.8912 2426.13L66.144 2492.33H128.614L185.633 2550.74L208.715 2574.41C208.715 2574.41 208.715 2574.41 208.764 2574.46C219.913 2598.77 230.963 2624.54 239.999 2648.8C245.5 2663.6 250.264 2677.81 253.849 2690.8C257.532 2704.42 257.925 2734.31 257.925 2734.31Z" fill="#A58E53"/>
<path opacity="0.86" d="M1097.57 4527.32C1097.57 4527.32 1391.99 4363.63 1259.56 4209.62C1127.13 4055.62 746.884 3917.23 757.932 3833.41C768.98 3749.59 1012.87 3693.59 1045.87 3650.19C1057.7 3634.66 1090.16 3609.25 990.48 3531.29C890.803 3453.34 721.744 3406.1 734.51 3369.78H18.5993C18.5993 3369.78 -24.6598 3379.26 -35.7569 3424.09C-46.854 3468.92 256.843 3400.91 195.711 3493.99C134.579 3587.06 478.295 3519.86 447.458 3573.24C416.622 3626.62 68.5854 3673.14 46.4894 3787.13C24.3934 3901.13 235.926 3956.97 359.32 4024.43C482.714 4091.89 90.5341 4245.45 90.5341 4245.45C90.5341 4245.45 -169.02 4329.22 22.4784 4410.65C213.928 4492.09 -77.1992 4497.25 -77.1992 4497.25L1097.57 4527.32Z" fill="url(#paint8_linear_4001_214)"/>
<path opacity="0.69" d="M430.571 2139.03L432.078 1944.93C432.078 1944.93 388.66 2020.3 335.339 2084.37C299.099 2127.91 258.121 2166.3 223.163 2172.21C158.821 2183 107.118 2135.6 107.118 2135.6L304.96 1898.16L346.407 1964.1L419.242 1751.65L356.564 1819.82C352.711 1824 346.291 1824.35 342.222 1820.63C338.127 1816.89 337.959 1810.48 341.8 1806.26L404.478 1738.09L198.734 1828.65L268.035 1864.29L48.033 2081.42C48.033 2081.42 -3.65597 2034 1.62661 1969.05C4.54844 1933.74 39.3153 1889.69 79.7002 1849.91C139.069 1791.38 210.555 1741.75 210.555 1741.75L17.0679 1759.76L61.3747 1800.4C61.3747 1800.4 -35.3508 1878.41 -57.0092 1929.19C-104.091 2039.61 -0.698905 2134.43 -0.698905 2134.43L-63.3769 2202.6L-4.29192 2256.78L58.3861 2188.61C58.3861 2188.61 161.752 2283.41 267.88 2227.18C316.699 2201.32 386.264 2098.39 386.264 2098.39L430.571 2139.03ZM314.382 1850.91C310.288 1847.18 310.133 1840.74 313.961 1836.55C317.788 1832.35 324.234 1832.02 328.303 1835.74C332.398 1839.48 332.553 1845.91 328.725 1850.1C324.897 1854.3 318.452 1854.64 314.382 1850.91Z" fill="#FAF3D0"/>
<path d="M432.592 2154.88L434.099 1960.78C434.099 1960.78 390.682 2036.15 337.36 2100.21C301.121 2143.76 260.142 2182.15 225.184 2188.06C160.842 2198.84 109.139 2151.45 109.139 2151.45L306.981 1914L348.429 1979.95L421.264 1767.5L358.586 1835.67C354.733 1839.85 348.313 1840.2 344.243 1836.48C340.174 1832.75 339.98 1826.33 343.821 1822.11L406.499 1753.94L200.756 1844.5L270.056 1880.14L50.0545 2097.27C50.0545 2097.27 -1.63449 2049.85 3.64809 1984.9C6.56993 1949.58 41.3367 1905.54 81.7217 1865.76C141.09 1807.23 212.577 1757.6 212.577 1757.6L19.0894 1775.6L63.3962 1816.25C63.3962 1816.25 -33.3293 1894.25 -54.9877 1945.04C-102.069 2055.46 1.32258 2150.28 1.32258 2150.28L-61.3554 2218.45L-2.27045 2272.63L60.4076 2204.46C60.4076 2204.46 163.774 2299.26 269.901 2243.03C318.721 2217.17 388.285 2114.23 388.285 2114.23L432.592 2154.88ZM316.39 1866.79C312.296 1863.05 312.141 1856.62 315.968 1852.42C319.796 1848.22 326.241 1847.89 330.311 1851.61C334.406 1855.35 334.56 1861.78 330.733 1865.98C326.905 1870.17 320.46 1870.51 316.39 1866.79Z" fill="url(#paint9_linear_4001_214)"/>
<path d="M67.2412 2480.96C78.172 2480.96 87.0332 2472.12 87.0332 2461.22C87.0332 2450.31 78.172 2441.47 67.2412 2441.47C56.3104 2441.47 47.4492 2450.31 47.4492 2461.22C47.4492 2472.12 56.3104 2480.96 67.2412 2480.96Z" fill="white"/>
<path d="M525.73 4957.02C529.636 4957.02 532.802 4953.86 532.802 4949.97C532.802 4946.07 529.636 4942.91 525.73 4942.91C521.824 4942.91 518.658 4946.07 518.658 4949.97C518.658 4953.86 521.824 4957.02 525.73 4957.02Z" fill="white"/>
<path d="M717.909 2311.51C734.427 2311.51 747.818 2298.15 747.818 2281.66C747.818 2265.18 734.427 2251.82 717.909 2251.82C701.391 2251.82 688 2265.18 688 2281.66C688 2298.15 701.391 2311.51 717.909 2311.51Z" fill="white"/>
<path d="M-0.843752 2955.96C10.9279 2955.96 20.4707 2946.43 20.4707 2934.69C20.4707 2922.94 10.9279 2913.42 -0.843752 2913.42C-12.6154 2913.42 -22.1582 2922.94 -22.1582 2934.69C-22.1582 2946.43 -12.6154 2955.96 -0.843752 2955.96Z" fill="white"/>
<path d="M606.372 529.633C606.372 529.633 576.07 444.219 502.501 482.932C432.124 519.979 348.192 530.564 230.913 728.588C230.913 728.588 152.727 887.948 167.166 977.968C181.605 1067.99 246.874 1011.98 243.535 1049.51C240.195 1087.05 97.1331 1066.57 78.5198 1136.64C59.9065 1206.72 -26.6282 1219.51 12.3173 1286.4C51.2628 1353.29 1077.7 1222.69 1077.7 1222.69C1077.7 1222.69 1077.16 1035.11 983.991 1022.46C890.826 1009.87 984.384 903.188 984.384 903.188C984.384 903.188 1008.74 621.907 719.869 511.256C588.642 460.978 606.323 529.682 606.323 529.682L606.372 529.633Z" fill="url(#paint10_linear_4001_214)"/>
<path d="M500.929 587.8L578.476 649.349C578.476 649.349 551.907 643.223 526.221 641.802C526.221 641.802 547.929 649.79 551.956 657.826C551.956 657.826 525.239 648.319 519.002 653.073C519.002 653.073 498.375 647.437 475.931 665.422C453.487 683.406 420.975 697.176 412.773 728.294C404.572 759.411 416.162 876.873 347.357 930.434C347.357 930.434 351.531 997.324 358.898 1010.36C366.265 1023.39 353.496 1066.81 353.496 1066.81L236.168 804.543L500.978 587.8H500.929Z" fill="url(#paint11_linear_4001_214)"/>
<path d="M890.336 931.61L886.014 954.642C887.684 947.095 889.206 939.451 890.336 931.61C895.64 895.004 894.216 859.036 887.046 825.076C883.559 808.513 878.647 792.391 872.509 776.905C835.871 684.582 754.395 614.556 651.801 599.708C496.706 577.264 352.023 689.532 328.646 850.46C324.521 879.029 324.472 907.206 328.057 934.305C329.088 941.999 330.414 949.644 331.986 957.141C337.535 983.358 346.572 1008.35 358.555 1031.58C358.555 1031.58 400.005 1234.55 499.358 1271.84L654.747 1329.52C654.747 1329.52 736.027 1348.93 771.093 1300.41C806.159 1251.9 871.428 1198.63 881.349 1140.37C891.269 1082.1 892.006 986.935 890.385 931.61H890.336Z" fill="url(#paint12_linear_4001_214)"/>
<path opacity="0.33" d="M640.602 923.328C640.602 923.328 670.757 997.863 700.273 1069.16C700.273 1069.16 674.293 1109.2 629.994 1083.03C629.994 1083.03 624.592 980.81 640.602 923.328Z" fill="url(#paint13_linear_4001_214)"/>
<path d="M634.463 1086.22C634.463 1086.22 640.847 1076.12 644.727 1077.49C648.607 1078.87 656.76 1087.39 660.148 1086.66C663.537 1085.92 658.577 1091.71 645.562 1085.78L634.463 1086.22Z" fill="#594A42"/>
<path d="M673.115 1085.73C673.115 1085.73 680.629 1067.69 684.264 1067.84C687.898 1067.99 693.595 1068.38 701.404 1076.42C701.404 1076.42 687.947 1070.78 688.192 1074.51C688.438 1078.23 676.16 1089.79 673.115 1085.73Z" fill="#594A42"/>
<path d="M628.424 1195.1C628.424 1195.1 623.365 1229.85 646.988 1227.4C670.61 1224.95 727.924 1213.58 736.764 1199.61C745.604 1185.65 732.295 1169.33 732.295 1169.33C732.295 1169.33 689.96 1152.37 628.374 1195.05L628.424 1195.1Z" fill="url(#paint14_linear_4001_214)"/>
<path d="M626.459 1193.14C626.459 1193.14 643.697 1136.79 658.038 1135.42C672.378 1134.04 682.495 1133.16 685.098 1132.04C687.701 1130.91 703.122 1124.59 728.955 1164.92C728.955 1164.92 703.761 1146.3 694.577 1151.05C682.888 1157.13 657.989 1157.86 654.06 1161.34C650.131 1164.82 633.629 1178.74 626.459 1193.09V1193.14Z" fill="url(#paint15_linear_4001_214)"/>
<path d="M610.644 1192.46C616.193 1192.26 626.457 1194.81 633.038 1186.92C644.58 1173.1 655.679 1157.13 663.635 1156.54C671.591 1155.95 688.682 1152.32 688.682 1152.32C688.682 1152.32 697.669 1148.7 702.089 1149.92C712.354 1152.76 725.123 1171.53 742.066 1168.74C742.066 1168.74 745.946 1169.03 746.143 1169.08C746.339 1169.13 737.057 1176.14 730.623 1173.15C701.304 1159.48 642.763 1186.14 636.329 1188.88C631.467 1190.94 628.275 1198.19 610.594 1192.51L610.644 1192.46Z" fill="#594A42"/>
<path d="M435.217 1005.41C435.217 1005.41 448.28 924.113 527.841 915.488C527.841 915.488 557.996 916.713 574.203 970.078C574.203 970.078 542.82 1020.99 480.94 1020.85C419.059 1020.75 435.168 1005.41 435.168 1005.41H435.217Z" fill="url(#paint16_linear_4001_214)"/>
<path d="M432.958 1011.83C432.958 1011.83 422.055 1025.21 418.912 1025.65C415.769 1026.09 475.685 1044.42 502.156 1031.97C528.627 1019.52 562.858 997.765 571.993 973.312C571.993 973.312 522.243 1042.8 432.958 1011.83Z" fill="url(#paint17_linear_4001_214)"/>
<path d="M707.493 955.622C707.493 955.622 705.184 893.534 736.714 887.605C768.244 881.676 827.865 932.982 832.04 950.967C836.214 968.951 813.819 979.585 787.79 982.084C761.761 984.583 707.493 955.622 707.493 955.622Z" fill="url(#paint18_linear_4001_214)"/>
<path d="M707.492 955.622C707.492 955.622 763.971 998.157 802.376 990.66C840.781 983.162 851.389 964.982 851.389 964.982L832.039 950.967C832.039 950.967 789.754 995.903 707.492 955.622Z" fill="url(#paint19_linear_4001_214)"/>
<path d="M544.442 838.602C544.442 838.602 525.583 817.285 514.533 817.138C503.483 816.991 434.432 830.222 401.92 893.143C401.92 893.143 443.616 816.109 544.442 838.553V838.602Z" fill="url(#paint20_linear_4001_214)"/>
<path d="M687.652 823.9C687.652 823.9 702.582 797.487 724.977 800.035C747.372 802.584 770.602 808.562 795.207 827.723C795.207 827.723 740.005 804.152 687.652 823.851V823.9Z" fill="url(#paint21_linear_4001_214)"/>
<path d="M650.081 1070.93C650.081 1070.93 643.402 1064.9 641.29 1069.65C639.178 1074.41 661.082 1083.37 661.082 1083.37C661.082 1083.37 671.395 1085.29 674.784 1074.36C678.173 1063.43 654.943 1071.61 652.536 1071.27L650.081 1070.93Z" fill="url(#paint22_linear_4001_214)"/>
<path opacity="0.23" d="M653.666 1002.08L655.189 1063.43C655.189 1063.43 661.328 1067.74 665.208 1064.9C669.087 1062.06 669.087 1060.73 669.087 1060.73L653.617 1002.13L653.666 1002.08Z" fill="white"/>
<path opacity="0.47" d="M444.844 880.009C444.844 880.009 480.401 830.27 549.992 851.342C566.69 856.389 579.606 874.863 590.46 890.496C608.975 917.154 612.707 951.701 599.251 981.251C595.813 988.797 591.835 995.609 587.317 1000.17C587.317 1000.17 600.429 977.379 588.741 953.269C588.741 953.269 537.174 875.598 444.844 880.009Z" fill="url(#paint23_linear_4001_214)"/>
<path opacity="0.65" d="M775.119 832.574C775.119 832.574 746.143 805.23 696 846.785C683.968 856.782 673.36 877.756 669.824 894.417C663.783 922.888 671.444 957.975 692.808 977.723C698.308 982.77 693.986 979.046 699.241 981.202C699.241 981.202 680.481 966.942 681.758 942.979C681.758 942.979 691.973 837.915 775.119 832.525V832.574Z" fill="url(#paint24_linear_4001_214)"/>
<path opacity="0.63" d="M657.201 1229.5C657.201 1229.5 649.442 1237.64 659.461 1238.52C669.479 1239.4 717.756 1227.3 723.158 1219.12C728.561 1210.93 724.534 1209.61 724.534 1209.61L657.201 1229.5Z" fill="url(#paint25_linear_4001_214)"/>
<path d="M628.767 1087.98C628.767 1087.98 618.699 1085.24 628.423 981.447C628.423 981.447 597.287 1049.66 593.8 1073.67C592.621 1081.9 616.587 1087.59 628.816 1087.93L628.767 1087.98Z" fill="url(#paint26_linear_4001_214)"/>
<path d="M381.883 1111.99C381.883 1111.99 446.71 1224.16 468.221 1234.45C489.732 1244.74 559.471 1291.69 580.54 1292.38C601.609 1293.06 631.321 1320.85 631.321 1320.85C631.321 1320.85 507.658 1280.08 470.038 1255.08C432.468 1230.09 395.094 1152.91 381.834 1111.99H381.883Z" fill="url(#paint27_linear_4001_214)"/>
<path d="M890.433 931.66C890.433 931.66 849.572 884.273 839.258 800.82C828.896 717.317 828.65 697.471 809.153 679.486C789.656 661.502 867.105 713.201 883.361 781.169C899.666 849.137 925.105 773.132 890.433 931.66Z" fill="url(#paint28_linear_4001_214)"/>
<path d="M624.542 655.278C624.542 655.278 628.177 662.285 631.664 662.775C635.15 663.266 646.937 654.935 651.996 642.684C652.634 641.165 653.027 639.009 653.273 636.46C654.992 618.623 648.263 580.155 648.263 580.155C648.263 580.155 630.387 555.114 606.715 556.437C583.043 557.76 624.542 655.18 624.542 655.18" fill="url(#paint29_linear_4001_214)"/>
<path d="M581.325 516.941C581.325 516.941 623.414 582.067 629.504 593.386C635.594 604.706 634.71 646.605 618.748 667.48C618.748 667.48 521.753 622.397 499.996 619.162C478.24 615.928 581.325 516.892 581.325 516.892V516.941Z" fill="url(#paint30_linear_4001_214)"/>
<path d="M653.225 620.534L660.542 641.116C660.542 641.116 684.312 638.323 689.813 625.827C689.862 625.68 689.911 625.582 689.96 625.435C697.18 608.332 688.683 588.535 671.838 580.743L637.656 564.915L652.291 609.655" fill="url(#paint31_linear_4001_214)"/>
<path d="M691.777 605.442L699.439 635.04C699.439 635.04 726.99 628.816 721.686 616.37C716.382 603.923 696.885 586.575 682.79 588.535L691.777 605.442Z" fill="url(#paint32_linear_4001_214)"/>
<path d="M721.636 616.419L728.217 632.688C728.217 632.688 743.245 634.844 744.326 627.347C745.406 619.849 718.787 600.884 712.157 599.022C705.527 597.16 721.636 616.419 721.636 616.419Z" fill="url(#paint33_linear_4001_214)"/>
<path d="M523.274 671.793C523.274 671.793 534.619 649.006 517.282 634.109C499.946 619.212 436.788 632.835 416.063 666.598C395.387 700.313 523.225 671.793 523.225 671.793H523.274Z" fill="url(#paint34_linear_4001_214)"/>
<path d="M519.051 653.073C519.051 653.073 548.371 667.431 569.243 668.166C569.243 668.166 583.879 653.171 564.823 620.681C545.719 588.241 499.21 587.898 448.134 650.966C448.134 650.966 504.514 646.8 519.1 653.073" fill="url(#paint35_linear_4001_214)"/>
<path d="M430.748 663.266C430.748 663.266 466.845 662.776 475.341 669.734C483.838 676.693 496.656 689.336 496.656 689.336C496.656 689.336 444.646 683.455 429.618 705.997C414.59 728.539 424.02 872.12 406.831 893.926C389.641 915.684 368.573 995.119 369.407 1022.17C370.242 1049.22 382.569 1103.66 382.569 1103.66L322.408 955.769C322.408 955.769 294.168 855.066 330.315 790.43C347.307 760.048 380.163 681.642 430.748 663.217V663.266Z" fill="url(#paint36_linear_4001_214)"/>
<path opacity="0.65" d="M758.814 528.015C758.814 528.015 920.097 637.098 927.856 702.175C927.856 702.175 976.673 805.229 975.544 883.733C975.544 883.733 916.021 947.585 928.053 988.356C940.085 1029.13 963.168 1016.88 963.168 1016.88C963.168 1016.88 928.593 997.275 947.943 961.502C967.342 925.681 984.433 903.188 984.433 903.188C984.433 903.188 987.134 775.876 940.576 695.314C894.018 614.801 835.674 561.044 758.814 528.015Z" fill="#FCFBE1"/>
<path d="M286.802 1300.66C286.802 1300.66 331.248 1310.31 325.404 1423.61C319.56 1536.9 386.744 1573.8 386.744 1573.8C386.744 1573.8 395.683 1571.84 396.223 1607.37L397.254 1689.16C397.254 1689.16 385.86 1603.35 368.18 1593.31C350.5 1583.26 299.424 1561.8 307.478 1432.38C315.532 1302.96 209.5 1330.5 205.719 1304.33" fill="url(#paint37_linear_4001_214)"/>
<path d="M353.496 1066.81C353.496 1066.81 353.054 1093.32 335.275 1096.8C317.497 1100.28 270.301 1106.6 277.422 1145.02C284.543 1183.39 273.247 1192.65 273.247 1192.65C273.247 1192.65 209.942 1190.74 206.75 1219.26C203.509 1247.78 205.768 1304.33 205.768 1304.33L286.802 1300.71C286.802 1300.71 253.013 1236.85 274.672 1222.79C296.33 1208.73 316.662 1199.81 307.871 1179.08C299.08 1158.35 286.311 1133.85 295.2 1128.8C304.089 1123.75 360.322 1130.42 364.3 1109.49C368.278 1088.57 369.703 1072.15 369.703 1072.15L358.652 1044.96L353.447 1066.86" fill="url(#paint38_linear_4001_214)"/>
<path d="M284 1733.82C284 1733.82 257.293 1658.95 206.108 1548.51C201.361 1538.28 173.209 1473.93 169.494 1463.15C169.494 1420.81 152.818 1370.45 80.54 1227.22C35.5881 1138.98 55.8144 977.497 30.1394 925.82C-8.95099 847.198 -47.9588 667.244 -79 627.82V1164.64L284 1733.82Z" fill="#ABD8AF"/>
<path d="M-84 673.82C-70.4575 697.609 -24.0911 799.141 6.66846 932.169C28.8401 1028.02 17.7749 1158.42 43.7451 1215.16C66.9903 1265.98 164.554 1405.41 164.554 1467.17C164.554 1528.93 284 1743.82 284 1743.82L-84 1716.73V673.82Z" fill="url(#paint39_linear_4001_214)"/>
<path d="M473.182 1036.28C473.182 1036.28 449.903 1047.65 449.903 1058.68C449.903 1069.7 439.59 1179.32 453.194 1238.37C453.194 1238.37 459.676 1252.09 486.737 1264.64C513.797 1277.18 502.011 1290.61 502.011 1290.61L539.974 1293.36C539.974 1293.36 539.434 1255.53 522.981 1251.9C506.529 1248.27 467.239 1245.92 468.173 1234.55C469.106 1223.18 453.095 1062.74 459.48 1055.88C465.864 1049.02 491.01 1036.33 491.01 1036.33H473.133" fill="url(#paint40_linear_4001_214)"/>
<path d="M642.076 1186.38C642.076 1186.38 625.231 1189.32 621.449 1196.77C617.668 1204.22 612.953 1287.23 613.248 1298.21C613.542 1309.18 614.426 1315.11 614.426 1315.11L629.16 1321.29C629.16 1321.29 624.74 1196.67 628.423 1195.1C632.106 1193.54 642.076 1186.43 642.076 1186.43" fill="url(#paint41_linear_4001_214)"/>
<path d="M802.377 990.66C802.377 990.66 830.763 993.698 832.58 1007.62C834.398 1021.53 837.099 1215.39 827.62 1233.62C827.62 1233.62 788.576 1278.02 782.585 1285.56C776.593 1293.11 747.863 1330.5 722.276 1330.26C722.276 1330.26 714.418 1332.85 708.77 1332.46C708.77 1332.46 743.836 1323.49 748.845 1317.47C753.854 1311.44 822.218 1241.07 822.414 1236.66C822.611 1232.25 825.164 1019.08 821.727 1009.09C818.289 999.089 789.215 991.444 787.299 991.297C785.384 991.15 787.889 991.542 787.889 991.542C787.889 991.542 798.35 991.934 802.377 990.66Z" fill="url(#paint42_linear_4001_214)"/>
<path d="M460.167 1288.36C460.167 1288.36 465.471 1250.62 453.242 1238.37C441.013 1226.12 506.626 1274.64 506.626 1274.64L502.059 1290.61L460.167 1288.41" fill="url(#paint43_linear_4001_214)"/>
<path d="M900.502 1243.86C900.502 1243.86 886.259 1320.41 911.699 1357.85C937.139 1395.28 922.504 1454.92 885.621 1480.31C848.738 1505.69 840.487 1699.84 840.487 1699.84C840.487 1699.84 802.966 1672.11 788.969 1692.64C774.972 1713.17 760.877 1776.43 760.877 1776.43L758.471 1685.83C758.471 1685.83 796.581 1638.93 816.914 1661.13C837.246 1683.33 830.272 1590.71 830.272 1590.71C830.272 1590.71 858.904 1473.64 880.513 1442.08C902.122 1410.52 848.345 1315.06 846.282 1293.31C844.22 1271.55 848.296 1249.79 848.296 1249.79L900.452 1243.86" fill="url(#paint44_linear_4001_214)"/>
<rect width="1541" height="6256" transform="matrix(-1 0 0 1 1152 -425)" fill="#3F5967" fill-opacity="0.5"/>
</g>
<defs>
<linearGradient id="paint0_linear_4001_214" x1="733" y1="5410.52" x2="733" y2="2481.66" gradientUnits="userSpaceOnUse">
<stop stop-color="#B6D0DC"/>
<stop offset="1" stop-color="#00A4B6"/>
</linearGradient>
<linearGradient id="paint1_linear_4001_214" x1="796.582" y1="322.249" x2="682.845" y2="1515.73" gradientUnits="userSpaceOnUse">
<stop stop-color="#52CAF5"/>
<stop offset="0.19" stop-color="#4DC8F2"/>
<stop offset="0.69" stop-color="#C9EBFA"/>
</linearGradient>
<linearGradient id="paint2_linear_4001_214" x1="624.838" y1="2350.51" x2="912.872" y2="671.483" gradientUnits="userSpaceOnUse">
<stop offset="0.15" stop-color="#4DC8F2"/>
<stop offset="0.22" stop-color="#5DCDF3"/>
<stop offset="0.36" stop-color="#87DAF6"/>
<stop offset="0.56" stop-color="#CBEFFB"/>
<stop offset="0.69" stop-color="white"/>
</linearGradient>
<linearGradient id="paint3_linear_4001_214" x1="710.735" y1="1937.46" x2="692.105" y2="1200.2" gradientUnits="userSpaceOnUse">
<stop stop-color="#00A4B6"/>
<stop offset="1" stop-color="#0089A6"/>
</linearGradient>
<linearGradient id="paint4_linear_4001_214" x1="458.939" y1="2316.11" x2="743.99" y2="654.579" gradientUnits="userSpaceOnUse">
<stop offset="0.15" stop-color="#4DC8F2"/>
<stop offset="0.22" stop-color="#5DCDF3"/>
<stop offset="0.36" stop-color="#87DAF6"/>
<stop offset="0.56" stop-color="#CBEFFB"/>
<stop offset="0.69" stop-color="white"/>
</linearGradient>
<linearGradient id="paint5_linear_4001_214" x1="612.02" y1="1451.69" x2="592.853" y2="2055.51" gradientUnits="userSpaceOnUse">
<stop stop-color="#7D7C7C"/>
<stop offset="0.15" stop-color="#767575"/>
<stop offset="0.35" stop-color="#656464"/>
<stop offset="0.58" stop-color="#474747"/>
<stop offset="0.83" stop-color="#1F1F1F"/>
<stop offset="1" stop-color="#010101"/>
</linearGradient>
<linearGradient id="paint6_linear_4001_214" x1="618.602" y1="1372.64" x2="-289.256" y2="2112.06" gradientUnits="userSpaceOnUse">
<stop stop-color="#0C82B9"/>
<stop offset="1" stop-color="#005589"/>
</linearGradient>
<linearGradient id="paint7_linear_4001_214" x1="1144.59" y1="2213.65" x2="1133.1" y2="2077.75" gradientUnits="userSpaceOnUse">
<stop stop-color="#00A4B6"/>
<stop offset="1" stop-color="#0089A6"/>
</linearGradient>
<linearGradient id="paint8_linear_4001_214" x1="608.317" y1="4527.32" x2="608.317" y2="3369.78" gradientUnits="userSpaceOnUse">
<stop stop-color="#00A4B6"/>
<stop offset="1" stop-color="#B1DEDC"/>
</linearGradient>
<linearGradient id="paint9_linear_4001_214" x1="46.7051" y1="2298.95" x2="354.353" y2="1725.94" gradientUnits="userSpaceOnUse">
<stop stop-color="#46C0B8"/>
<stop offset="0.86" stop-color="#DCA759"/>
</linearGradient>
<linearGradient id="paint10_linear_4001_214" x1="303.644" y1="561.491" x2="636.908" y2="1398.22" gradientUnits="userSpaceOnUse">
<stop stop-color="#00A4B6"/>
<stop offset="1" stop-color="#0089A6"/>
</linearGradient>
<linearGradient id="paint11_linear_4001_214" x1="429.069" y1="577.386" x2="358.249" y2="1067.5" gradientUnits="userSpaceOnUse">
<stop stop-color="#00A4B6"/>
<stop offset="1" stop-color="#0089A6"/>
</linearGradient>
<linearGradient id="paint12_linear_4001_214" x1="497.8" y1="621.483" x2="772.698" y2="1311.66" gradientUnits="userSpaceOnUse">
<stop stop-color="#008D87"/>
<stop offset="0.03" stop-color="#007A7D"/>
<stop offset="0.92" stop-color="#468883"/>
</linearGradient>
<linearGradient id="paint13_linear_4001_214" x1="679.415" y1="928.921" x2="655.874" y2="1091.84" gradientUnits="userSpaceOnUse">
<stop offset="0.31" stop-color="#318E93"/>
<stop offset="0.6" stop-color="#008D87"/>
<stop offset="1" stop-color="#287A7E"/>
</linearGradient>
<linearGradient id="paint14_linear_4001_214" x1="678.471" y1="1232.56" x2="688.662" y2="1162.04" gradientUnits="userSpaceOnUse">
<stop stop-color="#008D88"/>
<stop offset="1" stop-color="#00657A"/>
</linearGradient>
<linearGradient id="paint15_linear_4001_214" x1="631.656" y1="1158.16" x2="727.982" y2="1172.14" gradientUnits="userSpaceOnUse">
<stop stop-color="#008D88"/>
<stop offset="1" stop-color="#00657A"/>
</linearGradient>
<linearGradient id="paint16_linear_4001_214" x1="498.612" y1="1025.84" x2="514.843" y2="913.509" gradientUnits="userSpaceOnUse">
<stop stop-color="#008D88"/>
<stop offset="1" stop-color="#82CFD0"/>
</linearGradient>
<linearGradient id="paint17_linear_4001_214" x1="489.682" y1="1039.5" x2="500.741" y2="962.967" gradientUnits="userSpaceOnUse">
<stop stop-color="#002E2B"/>
<stop offset="1" stop-color="#3F6D6F"/>
</linearGradient>
<linearGradient id="paint18_linear_4001_214" x1="765.594" y1="979.995" x2="778.314" y2="891.964" gradientUnits="userSpaceOnUse">
<stop stop-color="#008D88"/>
<stop offset="1" stop-color="#82CFD0"/>
</linearGradient>
<linearGradient id="paint19_linear_4001_214" x1="775.257" y1="989.661" x2="781.894" y2="943.729" gradientUnits="userSpaceOnUse">
<stop stop-color="#002E2B"/>
<stop offset="1" stop-color="#3F6D6F"/>
</linearGradient>
<linearGradient id="paint20_linear_4001_214" x1="404.006" y1="852.362" x2="543.343" y2="859.607" gradientUnits="userSpaceOnUse">
<stop stop-color="#005B57"/>
<stop offset="1" stop-color="#3F6D6F"/>
</linearGradient>
<linearGradient id="paint21_linear_4001_214" x1="689.793" y1="809.555" x2="795.644" y2="824.918" gradientUnits="userSpaceOnUse">
<stop stop-color="#006863"/>
<stop offset="1" stop-color="#3F6D6F"/>
</linearGradient>
<linearGradient id="paint22_linear_4001_214" x1="658.827" y1="1067.01" x2="656.557" y2="1082.73" gradientUnits="userSpaceOnUse">
<stop stop-color="#008D87"/>
<stop offset="0.03" stop-color="#00797D"/>
<stop offset="0.92" stop-color="#005A5B"/>
</linearGradient>
<linearGradient id="paint23_linear_4001_214" x1="502.705" y1="844.464" x2="567.813" y2="1008" gradientUnits="userSpaceOnUse">
<stop stop-color="#008D87"/>
<stop offset="0.03" stop-color="#007477"/>
<stop offset="0.92" stop-color="#005E60"/>
</linearGradient>
<linearGradient id="paint24_linear_4001_214" x1="720.624" y1="824.422" x2="723.536" y2="980.952" gradientUnits="userSpaceOnUse">
<stop stop-color="#008D87"/>
<stop offset="0.03" stop-color="#007477"/>
<stop offset="0.92" stop-color="#005E60"/>
</linearGradient>
<linearGradient id="paint25_linear_4001_214" x1="687.771" y1="1217.36" x2="694.01" y2="1233.03" gradientUnits="userSpaceOnUse">
<stop stop-color="#008D87"/>
<stop offset="0.03" stop-color="#007A7D"/>
<stop offset="0.92" stop-color="#005B5B"/>
</linearGradient>
<linearGradient id="paint26_linear_4001_214" x1="597.398" y1="993.818" x2="634.073" y2="1085.89" gradientUnits="userSpaceOnUse">
<stop stop-color="#008D87"/>
<stop offset="0.03" stop-color="#007A7D"/>
<stop offset="0.92" stop-color="#005B5B"/>
</linearGradient>
<linearGradient id="paint27_linear_4001_214" x1="453.204" y1="1083.65" x2="559.174" y2="1349.63" gradientUnits="userSpaceOnUse">
<stop stop-color="#008D87"/>
<stop offset="0.03" stop-color="#007A7D"/>
<stop offset="0.92" stop-color="#005B5B"/>
</linearGradient>
<linearGradient id="paint28_linear_4001_214" x1="867.647" y1="684.729" x2="833.173" y2="923.312" gradientUnits="userSpaceOnUse">
<stop stop-color="#00A4B6"/>
<stop offset="1" stop-color="#0089A6"/>
</linearGradient>
<linearGradient id="paint29_linear_4001_214" x1="632.528" y1="559.598" x2="617.901" y2="660.822" gradientUnits="userSpaceOnUse">
<stop stop-color="#00A4B6"/>
<stop offset="1" stop-color="#0089A6"/>
</linearGradient>
<linearGradient id="paint30_linear_4001_214" x1="579.902" y1="516.689" x2="559.354" y2="658.898" gradientUnits="userSpaceOnUse">
<stop stop-color="#00A4B6"/>
<stop offset="1" stop-color="#0089A6"/>
</linearGradient>
<linearGradient id="paint31_linear_4001_214" x1="668.14" y1="569.299" x2="657.824" y2="640.694" gradientUnits="userSpaceOnUse">
<stop stop-color="#00A4B6"/>
<stop offset="1" stop-color="#0089A6"/>
</linearGradient>
<linearGradient id="paint32_linear_4001_214" x1="691.387" y1="583.502" x2="710.468" y2="631.407" gradientUnits="userSpaceOnUse">
<stop stop-color="#00A4B6"/>
<stop offset="1" stop-color="#0089A6"/>
</linearGradient>
<linearGradient id="paint33_linear_4001_214" x1="720.402" y1="595.221" x2="735.71" y2="633.66" gradientUnits="userSpaceOnUse">
<stop stop-color="#00A4B6"/>
<stop offset="1" stop-color="#0089A6"/>
</linearGradient>
<linearGradient id="paint34_linear_4001_214" x1="459.545" y1="634.772" x2="480.982" y2="688.617" gradientUnits="userSpaceOnUse">
<stop stop-color="#00A4B6"/>
<stop offset="1" stop-color="#0089A6"/>
</linearGradient>
<linearGradient id="paint35_linear_4001_214" x1="481.139" y1="613.53" x2="511.975" y2="690.935" gradientUnits="userSpaceOnUse">
<stop stop-color="#00A4B6"/>
<stop offset="1" stop-color="#0089A6"/>
</linearGradient>
<linearGradient id="paint36_linear_4001_214" x1="284.76" y1="1026.68" x2="531.046" y2="713.449" gradientUnits="userSpaceOnUse">
<stop offset="0.47" stop-color="#0092A2"/>
<stop offset="0.98" stop-color="#00A1B4"/>
<stop offset="1" stop-color="#00738B"/>
</linearGradient>
<linearGradient id="paint37_linear_4001_214" x1="205.768" y1="1494.91" x2="397.303" y2="1494.91" gradientUnits="userSpaceOnUse">
<stop stop-color="#007188"/>
<stop offset="1" stop-color="#0089A6"/>
</linearGradient>
<linearGradient id="paint38_linear_4001_214" x1="214.735" y1="1164.86" x2="353.829" y2="1185.04" gradientUnits="userSpaceOnUse">
<stop stop-color="#007188"/>
<stop offset="1" stop-color="#0089A6"/>
</linearGradient>
<linearGradient id="paint39_linear_4001_214" x1="614.717" y1="962.651" x2="-68.9864" y2="1516.68" gradientUnits="userSpaceOnUse">
<stop stop-color="#00A4B6"/>
<stop offset="0.11" stop-color="#0093AD"/>
<stop offset="0.31" stop-color="#00799F"/>
<stop offset="0.53" stop-color="#006795"/>
<stop offset="0.75" stop-color="#005C8F"/>
<stop offset="1" stop-color="#00598E"/>
</linearGradient>
<linearGradient id="paint40_linear_4001_214" x1="493.121" y1="1434.63" x2="493.121" y2="1090.14" gradientUnits="userSpaceOnUse">
<stop offset="0.15" stop-color="#DBF1FB"/>
<stop offset="0.42" stop-color="#EBF7FC"/>
<stop offset="0.69" stop-color="white"/>
</linearGradient>
<linearGradient id="paint41_linear_4001_214" x1="565.167" y1="1211.57" x2="647.573" y2="1262.99" gradientUnits="userSpaceOnUse">
<stop offset="0.15" stop-color="#4DC8F2"/>
<stop offset="0.22" stop-color="#5DCDF3"/>
<stop offset="0.36" stop-color="#87DAF6"/>
<stop offset="0.56" stop-color="#CBEFFB"/>
<stop offset="0.69" stop-color="white"/>
</linearGradient>
<linearGradient id="paint42_linear_4001_214" x1="757.194" y1="1042.51" x2="771.423" y2="1191.53" gradientUnits="userSpaceOnUse">
<stop stop-color="#52CAF5"/>
<stop offset="0.19" stop-color="#4DC8F2"/>
<stop offset="0.69" stop-color="#C9EBFA"/>
</linearGradient>
<linearGradient id="paint43_linear_4001_214" x1="472.003" y1="1297.13" x2="487.505" y2="1206.85" gradientUnits="userSpaceOnUse">
<stop stop-color="#DCF1FC"/>
<stop offset="0.2" stop-color="#ECF7FD"/>
<stop offset="0.38" stop-color="white"/>
<stop offset="1" stop-color="white"/>
</linearGradient>
<linearGradient id="paint44_linear_4001_214" x1="651.506" y1="1667.3" x2="987.425" y2="1330.64" gradientUnits="userSpaceOnUse">
<stop stop-color="#007188"/>
<stop offset="1" stop-color="#05899C"/>
</linearGradient>
</defs>
</svg>
