<svg width="390" height="2670" viewBox="0 0 390 2670" fill="none" xmlns="http://www.w3.org/2000/svg">
<g clip-path="url(#clip0_5004_1356)">
<rect width="390" height="2670" fill="url(#paint0_linear_5004_1356)"/>
<rect x="-934" y="-134" width="1512" height="4159" fill="url(#paint1_linear_5004_1356)"/>
<path d="M82 1159L-25 1197L-17 1329C-7.33333 1324.67 13.2 1313 18 1301C22.8 1289 20 1283.33 18 1282L51 1252V1220L99 1207L178 1231L218 1197H282L303 1172C317.333 1164.67 346.8 1150.6 350 1153C353.2 1155.4 387.333 1171.33 404 1179L396 1046L364 1107C352.667 1109.67 328.4 1114.8 322 1114C315.6 1113.2 299.333 1129 292 1137L270 1159H229L170 1179L82 1159Z" fill="url(#paint2_linear_5004_1356)" fill-opacity="0.1"/>
<path opacity="0.45" d="M-37 2511.49V2610H421V2500.74L392.957 2487L364.337 2495.61L263.41 2525.96L229.559 2510.41L201.957 2511.49L171.193 2517.14L170.213 2517.65L154.791 2525.63L123.813 2532.14L108.833 2519.99L78.4869 2512.99L67.2237 2509.02L48.7592 2502.53L35.4111 2500.74L9.40234 2495.75L-11.5295 2502.85L-14.7322 2503.94L-21.3964 2506.2L-31.2996 2509.56L-31.5521 2509.64L-37 2511.49Z" fill="#2C3739" fill-opacity="0.5"/>
<path opacity="0.65" d="M421 2630H-37V2520L8.23989 2539.12L71.6166 2532.99L90.6245 2539.12L118.382 2555.96L179.63 2539.12L211.008 2545.69L257.773 2549.01L295.839 2527.41L377.553 2542.97L421 2527.39V2630Z" fill="#607B7D"/>
<path d="M365.241 2534.29C365.176 2533.49 366.038 2532.94 366.736 2533.34L367.075 2533.54C367.344 2533.69 367.671 2533.72 367.958 2533.6L368.318 2533.44C369.061 2533.13 369.848 2533.79 369.682 2534.57L369.602 2534.96C369.537 2535.26 369.619 2535.58 369.821 2535.81L370.076 2536.11C370.6 2536.72 370.224 2537.67 369.424 2537.76L369.035 2537.8C368.726 2537.83 368.45 2538.01 368.288 2538.27L368.085 2538.6C367.666 2539.29 366.647 2539.23 366.318 2538.49L366.159 2538.14C366.031 2537.85 365.779 2537.64 365.477 2537.57L365.097 2537.48C364.313 2537.3 364.06 2536.31 364.657 2535.77L364.947 2535.5C365.177 2535.3 365.298 2534.99 365.273 2534.68L365.241 2534.29Z" fill="#FFFACC" fill-opacity="0.2"/>
<path d="M260.442 2584.43C59.503 2615.73 -2.30038 2565.22 -8.08469 2536.05L-87.5027 2502.62C-84.4206 2519.89 -76.2043 2568.93 -67.9966 2626.97C-59.7888 2685.02 54.4871 2688.81 110.599 2683.45C183.979 2658.13 334.895 2619.22 351.513 2666.23C372.286 2724.99 260.442 2753.73 232.829 2766.4C205.217 2779.06 228.143 2782.48 295.021 2782.48C449.424 2789.32 511.616 2545.3 260.442 2584.43Z" fill="url(#paint3_linear_5004_1356)"/>
<mask id="mask0_5004_1356" style="mask-type:alpha" maskUnits="userSpaceOnUse" x="-88" y="2502" width="518" height="281">
<path d="M260.489 2584.28C59.6477 2615.58 -2.1257 2565.08 -7.9072 2535.92L-87.2867 2502.5C-84.2061 2519.76 -75.9938 2568.79 -67.79 2626.82C-59.5862 2684.86 54.6342 2688.65 110.719 2683.29C184.064 2657.97 334.906 2619.08 351.516 2666.07C372.279 2724.81 260.489 2753.55 232.89 2766.21C205.291 2778.87 228.206 2782.29 295.052 2782.29C449.379 2789.13 511.541 2545.16 260.489 2584.28Z" fill="url(#paint4_linear_5004_1356)"/>
</mask>
<g mask="url(#mask0_5004_1356)">
<path d="M-83.9957 2538.33H23.4894C136.461 2526.26 387.716 2522.37 463.685 2623.41C548.314 2735.96 349.488 2792.97 246.309 2784.19C362.119 2790.87 398.081 2690.8 376.203 2638.34C363.826 2608.67 296.19 2592.13 133.633 2623.41C3.58752 2648.42 -65.6384 2577.11 -83.9957 2538.33Z" fill="url(#paint5_linear_5004_1356)"/>
<path d="M160.096 2617.71C151.402 2610.91 136.624 2596.67 147.056 2594.03" stroke="#BEC6B1" stroke-width="2.5" stroke-linecap="round"/>
</g>
<path d="M5.39147 2616.62C0.509202 2601.47 -1.70465 2571.67 28.498 2573.72" stroke="#BEC6B1" stroke-width="2.5" stroke-linecap="round"/>
<path d="M275.998 2609.62C269.961 2602.3 261.509 2586.64 275.998 2582.62" stroke="#BEC6B1" stroke-width="2.5" stroke-linecap="round"/>
<g opacity="0.5">
<path d="M-5.08739 2626.38L-5.02115 2625.89L-4.52556 2625.96C-2.27899 2626.26 -0.314309 2627.21 1.04087 2628.54C2.39592 2629.86 3.16366 2631.58 2.92344 2633.38C2.68321 2635.18 1.49036 2636.64 -0.165057 2637.56C-1.82063 2638.48 -3.96748 2638.89 -6.21405 2638.59L-6.70964 2638.52L-6.6434 2638.03L-6.56788 2637.46L-6.50164 2636.97L-6.00604 2637.03C-4.16172 2637.28 -2.43294 2636.94 -1.13354 2636.21C0.166026 2635.49 1.00741 2634.4 1.17534 2633.15C1.34328 2631.89 0.817041 2630.62 -0.246727 2629.58C-1.31035 2628.54 -2.88924 2627.76 -4.73356 2627.51L-5.22915 2627.45L-5.16291 2626.95L-5.08739 2626.38Z" fill="#76D3D9" stroke="#76D3D9"/>
<path d="M-6.56786 2637.46L-6.50162 2636.97L-6.00602 2637.03C-3.75946 2637.33 -1.79478 2638.29 -0.4396 2639.62C0.915448 2640.94 1.6832 2642.66 1.44297 2644.46C1.20274 2646.26 0.00988946 2647.72 -1.64553 2648.64C-3.3011 2649.56 -5.44795 2649.97 -7.69452 2649.67L-8.19011 2649.6L-8.12387 2649.1L-8.04835 2648.54L-7.98211 2648.04L-7.48651 2648.11C-5.64219 2648.36 -3.91341 2648.02 -2.61401 2647.29C-1.31444 2646.57 -0.473062 2645.48 -0.305125 2644.22C-0.137189 2642.97 -0.663428 2641.7 -1.7272 2640.66C-2.79082 2639.62 -4.36971 2638.84 -6.21403 2638.59L-6.70962 2638.52L-6.64338 2638.03L-6.56786 2637.46Z" fill="#76D3D9" stroke="#76D3D9"/>
</g>
<g opacity="0.5">
<path d="M314.649 2613.52L314.715 2613.03L315.211 2613.09C317.457 2613.39 319.422 2614.35 320.777 2615.67C322.132 2617 322.9 2618.72 322.66 2620.52C322.42 2622.31 321.227 2623.77 319.571 2624.7C317.916 2625.62 315.769 2626.03 313.522 2625.73L313.027 2625.66L313.093 2625.16L313.168 2624.6L313.235 2624.1L313.73 2624.17C315.575 2624.42 317.303 2624.08 318.603 2623.35C319.902 2622.63 320.744 2621.54 320.912 2620.28C321.08 2619.03 320.553 2617.76 319.49 2616.72C318.426 2615.68 316.847 2614.9 315.003 2614.65L314.507 2614.58L314.573 2614.09L314.649 2613.52Z" fill="#76D3D9" stroke="#76D3D9"/>
<path d="M321.329 2620.05L321.395 2619.56L321.89 2619.62C324.137 2619.92 326.102 2620.88 327.457 2622.2C328.812 2623.53 329.58 2625.25 329.339 2627.05C329.099 2628.84 327.906 2630.3 326.251 2631.23C324.595 2632.15 322.449 2632.55 320.202 2632.25L319.706 2632.19L319.773 2631.69L319.848 2631.13L319.914 2630.63L320.41 2630.7C322.254 2630.94 323.983 2630.6 325.282 2629.88C326.582 2629.16 327.423 2628.07 327.591 2626.81C327.759 2625.56 327.233 2624.29 326.169 2623.25C325.106 2622.21 323.527 2621.42 321.682 2621.18L321.187 2621.11L321.253 2620.62L321.329 2620.05Z" fill="#76D3D9" stroke="#76D3D9"/>
<path d="M313.168 2624.6L313.235 2624.1L313.73 2624.17C315.977 2624.47 317.942 2625.43 319.297 2626.75C320.652 2628.08 321.42 2629.8 321.179 2631.6C320.939 2633.39 319.746 2634.85 318.091 2635.77C316.435 2636.7 314.288 2637.1 312.042 2636.8L311.546 2636.74L311.612 2636.24L311.688 2635.68L311.754 2635.18L312.25 2635.25C314.094 2635.49 315.823 2635.15 317.122 2634.43C318.422 2633.71 319.263 2632.62 319.431 2631.36C319.599 2630.11 319.073 2628.83 318.009 2627.79C316.946 2626.75 315.367 2625.97 313.522 2625.73L313.027 2625.66L313.093 2625.16L313.168 2624.6Z" fill="#76D3D9" stroke="#76D3D9"/>
<path d="M319.848 2631.13L319.914 2630.63L320.41 2630.7C322.657 2631 324.621 2631.96 325.976 2633.28C327.331 2634.61 328.099 2636.33 327.859 2638.12C327.619 2639.92 326.426 2641.38 324.77 2642.3C323.115 2643.23 320.968 2643.63 318.721 2643.33L318.226 2643.27L318.292 2642.77L318.368 2642.21L318.434 2641.71L318.93 2641.78C320.774 2642.02 322.503 2641.68 323.802 2640.96C325.102 2640.23 325.943 2639.15 326.111 2637.89C326.279 2636.63 325.753 2635.36 324.689 2634.32C323.625 2633.28 322.046 2632.5 320.202 2632.26L319.706 2632.19L319.773 2631.69L319.848 2631.13Z" fill="#76D3D9" stroke="#76D3D9"/>
</g>
<g opacity="0.5">
<path d="M164.649 2631.02L164.715 2630.53L165.211 2630.59C167.457 2630.89 169.422 2631.85 170.777 2633.17C172.132 2634.5 172.9 2636.22 172.66 2638.02C172.42 2639.81 171.227 2641.27 169.571 2642.2C167.916 2643.12 165.769 2643.53 163.522 2643.23L163.027 2643.16L163.093 2642.66L163.168 2642.1L163.235 2641.6L163.73 2641.67C165.575 2641.92 167.303 2641.58 168.603 2640.85C169.902 2640.13 170.744 2639.04 170.912 2637.78C171.08 2636.53 170.553 2635.26 169.49 2634.22C168.426 2633.18 166.847 2632.4 165.003 2632.15L164.507 2632.08L164.573 2631.59L164.649 2631.02Z" fill="#76D3D9" stroke="#76D3D9"/>
<path d="M171.329 2637.55L171.395 2637.06L171.89 2637.12C174.137 2637.42 176.102 2638.38 177.457 2639.7C178.812 2641.03 179.58 2642.75 179.339 2644.55C179.099 2646.34 177.906 2647.8 176.251 2648.73C174.595 2649.65 172.449 2650.05 170.202 2649.75L169.706 2649.69L169.773 2649.19L169.848 2648.63L169.914 2648.13L170.41 2648.2C172.254 2648.44 173.983 2648.1 175.282 2647.38C176.582 2646.66 177.423 2645.57 177.591 2644.31C177.759 2643.06 177.233 2641.79 176.169 2640.75C175.106 2639.71 173.527 2638.92 171.682 2638.68L171.187 2638.61L171.253 2638.12L171.329 2637.55Z" fill="#76D3D9" stroke="#76D3D9"/>
<path d="M163.168 2642.1L163.235 2641.6L163.73 2641.67C165.977 2641.97 167.942 2642.93 169.297 2644.25C170.652 2645.58 171.42 2647.3 171.179 2649.1C170.939 2650.89 169.746 2652.35 168.091 2653.27C166.435 2654.2 164.288 2654.6 162.042 2654.3L161.546 2654.24L161.612 2653.74L161.688 2653.18L161.754 2652.68L162.25 2652.75C164.094 2652.99 165.823 2652.65 167.122 2651.93C168.422 2651.21 169.263 2650.12 169.431 2648.86C169.599 2647.61 169.073 2646.33 168.009 2645.29C166.946 2644.25 165.367 2643.47 163.522 2643.23L163.027 2643.16L163.093 2642.66L163.168 2642.1Z" fill="#76D3D9" stroke="#76D3D9"/>
<path d="M169.848 2648.63L169.914 2648.13L170.41 2648.2C172.657 2648.5 174.621 2649.46 175.976 2650.78C177.331 2652.11 178.099 2653.83 177.859 2655.62C177.619 2657.42 176.426 2658.88 174.77 2659.8C173.115 2660.73 170.968 2661.13 168.721 2660.83L168.226 2660.77L168.292 2660.27L168.368 2659.71L168.434 2659.21L168.93 2659.28C170.774 2659.52 172.503 2659.18 173.802 2658.46C175.102 2657.73 175.943 2656.65 176.111 2655.39C176.279 2654.13 175.753 2652.86 174.689 2651.82C173.625 2650.78 172.046 2650 170.202 2649.76L169.706 2649.69L169.773 2649.19L169.848 2648.63Z" fill="#76D3D9" stroke="#76D3D9"/>
</g>
<path d="M375.4 2693.92H110.997L-0.253855 2580.1L-3.43944 2557.67L39.9336 2569.4L66.0309 2587.19L91.2705 2572.24L110.997 2584.35L129.865 2625.99L160.373 2630.76L197.743 2654.22L231.926 2643.13L251.653 2672.14L338.521 2661.57L366.946 2643.13L375.4 2654.22V2693.92Z" fill="#232A2A"/>
<path d="M375.4 2714.09L318.784 2731.77L208.734 2701.86L110.936 2714.09L52.9719 2674.39H-10.9995L-3.52579 2577.83L39.8571 2589.56L65.9604 2607.35L91.2058 2592.39L110.936 2604.51L129.809 2646.15L160.324 2650.92L197.702 2674.39L231.894 2663.3L251.624 2692.3L338.513 2681.73L366.944 2663.3L375.4 2674.39V2714.09Z" fill="#6A7D7D"/>
<path d="M364.909 2637.61L335.652 2626.48L307.211 2641.63L311.919 2674.6L301.391 2702.53L317.841 2716.96L333.793 2710.09L355.183 2711.8L392.626 2708.99L399.75 2683.55L364.909 2637.61Z" fill="#374242"/>
<path d="M304.143 2729.34L326.58 2725.56L339.69 2705.28L325.633 2685.96L323.01 2664.18L307.658 2661.09L299.759 2671.42L285.507 2678.3L269.856 2683.92L262.93 2693.88L266.471 2712.95L304.143 2729.34Z" fill="#273131"/>
<path d="M311.524 2718.74L333.961 2714.95L347.071 2694.67L333.014 2675.35L330.391 2653.57L315.038 2650.48L307.14 2660.81L292.888 2667.69L269.886 2683.43L273.852 2702.35L311.524 2718.74Z" fill="#4E6060"/>
<path d="M105.967 2576.61C109.521 2572.63 108.502 2562.05 107.548 2557.26C108.208 2556.29 110.215 2555.16 112.961 2558.44C115.707 2561.73 113.81 2572.99 112.518 2578.21L110.424 2575.02L105.967 2576.61Z" fill="#FFC1C1"/>
<path d="M-36.0525 2364.66C14.2385 2340.37 63.0845 2390.28 81.2211 2418.27L84.1598 2428.08L56.6933 2508.38C40.4128 2480.43 11.2377 2462.1 -1.31484 2456.42C-36.7128 2457.71 -34.1457 2526.04 -28.4373 2560.05L-67.4812 2481.7C-77.9595 2452.81 -86.3435 2388.95 -36.0525 2364.66Z" fill="url(#paint6_linear_5004_1356)"/>
<g opacity="0.5">
<path d="M23.7456 2406.7L23.8922 2406.22L23.4142 2406.08C21.6452 2405.53 19.8587 2405.57 18.3955 2406.1C16.9325 2406.62 15.7611 2407.64 15.3206 2409.08C14.8801 2410.52 15.276 2412.02 16.194 2413.28C17.1121 2414.53 18.5697 2415.56 20.3386 2416.11L20.8167 2416.25L20.9633 2415.78L21.0983 2415.33L21.2449 2414.86L20.7668 2414.71C19.3472 2414.27 18.2102 2413.45 17.5134 2412.5C16.8165 2411.55 16.5772 2410.5 16.8666 2409.56C17.156 2408.61 17.9434 2407.88 19.0541 2407.48C20.1645 2407.08 21.5663 2407.04 22.986 2407.47L23.464 2407.62L23.6106 2407.14L23.7456 2406.7Z" fill="#76D3D9" stroke="#76D3D9"/>
<path d="M16.6401 2409.24L16.7867 2408.77L16.3087 2408.62C14.5397 2408.08 12.7532 2408.12 11.29 2408.64C9.82699 2409.16 8.65558 2410.19 8.21509 2411.62C7.77461 2413.06 8.17055 2414.57 9.08856 2415.82C10.0067 2417.07 11.4642 2418.11 13.2332 2418.65L13.7112 2418.8L13.8578 2418.32L13.9928 2417.88L14.1394 2417.4L13.6614 2417.25C12.2417 2416.82 11.1047 2416 10.408 2415.05C9.71105 2414.09 9.47175 2413.04 9.76112 2412.1C10.0505 2411.15 10.838 2410.42 11.9486 2410.02C13.0591 2409.62 14.4608 2409.58 15.8805 2410.02L16.3585 2410.16L16.5051 2409.68L16.6401 2409.24Z" fill="#76D3D9" stroke="#76D3D9"/>
<path d="M21.1011 2415.33L21.2477 2414.86L20.7696 2414.71C19.0007 2414.17 17.2141 2414.21 15.7509 2414.73C14.2879 2415.25 13.1165 2416.28 12.676 2417.71C12.2355 2419.15 12.6315 2420.66 13.5495 2421.91C14.4676 2423.16 15.9251 2424.2 17.6941 2424.74L18.1721 2424.89L18.3187 2424.41L18.4538 2423.97L18.6003 2423.49L18.1223 2423.34C16.7027 2422.91 15.5657 2422.09 14.8689 2421.14C14.172 2420.18 13.9327 2419.13 14.2221 2418.19C14.5114 2417.24 15.2989 2416.51 16.4096 2416.11C17.52 2415.71 18.9218 2415.67 20.3414 2416.11L20.8195 2416.25L20.966 2415.77L21.1011 2415.33Z" fill="#76D3D9" stroke="#76D3D9"/>
<path d="M13.9956 2417.88L14.1422 2417.4L13.6642 2417.25C11.8952 2416.71 10.1087 2416.75 8.64548 2417.27C7.18246 2417.8 6.01104 2418.82 5.57056 2420.26C5.13008 2421.69 5.52601 2423.2 6.44402 2424.45C7.36214 2425.71 8.81967 2426.74 10.5886 2427.28L11.0667 2427.43L11.2132 2426.95L11.3483 2426.51L11.4949 2426.03L11.0168 2425.89C9.5972 2425.45 8.46021 2424.63 7.76342 2423.68C7.06652 2422.73 6.82722 2421.67 7.11659 2420.73C7.40596 2419.79 8.19344 2419.05 9.30409 2418.65C10.4145 2418.26 11.8163 2418.21 13.236 2418.65L13.714 2418.8L13.8606 2418.32L13.9956 2417.88Z" fill="#76D3D9" stroke="#76D3D9"/>
</g>
<mask id="mask1_5004_1356" style="mask-type:alpha" maskUnits="userSpaceOnUse" x="-76" y="2358" width="161" height="203">
<path d="M-36.0544 2364.66C14.2366 2340.37 63.0825 2390.28 81.2191 2418.27L84.1579 2428.08L56.6914 2508.38C40.4108 2480.43 11.2357 2462.1 -1.3168 2456.42C-36.7148 2457.71 -34.1476 2526.04 -28.4393 2560.05L-67.4831 2481.7C-77.9615 2452.81 -86.3454 2388.95 -36.0544 2364.66Z" fill="url(#paint7_linear_5004_1356)"/>
</mask>
<g mask="url(#mask1_5004_1356)">
<path d="M-39.0556 2424.08C-17.8241 2399.69 32.7661 2429.22 44.1759 2446.96L68.4722 2467.7L44.3796 2503.23L1.92602 2484.38L-31.8481 2583.67L-67.5587 2511.67C-59.4165 2492.68 -60.287 2448.47 -39.0556 2424.08Z" fill="url(#paint8_linear_5004_1356)"/>
<path d="M30.8928 2433.08C28.1519 2441.09 18.9927 2457.76 4.28373 2460.43M-32.7324 2420.44C-23.874 2427.36 -8.9435 2446.75 -20.0891 2468.89M-59.3372 2474.98C-49.8276 2476.9 -31.0563 2484.9 -32.0472 2501.58" stroke="#BEC6B1" stroke-width="2.5" stroke-linecap="round"/>
</g>
<path d="M85.2312 2401.1L102.151 2441.88C105.285 2421.13 111.084 2414.13 115.39 2412.67C131.221 2421.28 132.86 2466.26 138.858 2480.99C143.657 2492.77 136.241 2512.6 135.401 2520.91C137.944 2529.21 143.071 2540.61 137.25 2554.85C131.429 2569.09 102.432 2556.69 88.6611 2548.71C80.4925 2540.33 67.8649 2528.75 60.7239 2524.43C53.7898 2519.73 51.977 2521.1 43.9889 2496.21C36.0009 2471.33 60.0648 2452 75.7144 2444.2C62.7808 2417.81 79.056 2403.48 85.2312 2401.1Z" fill="#5EBFC5"/>
<mask id="mask2_5004_1356" style="mask-type:alpha" maskUnits="userSpaceOnUse" x="42" y="2401" width="99" height="161">
<path d="M85.198 2401.15L102.118 2441.93C105.252 2421.18 111.051 2414.19 115.357 2412.73C131.188 2421.33 132.827 2466.31 138.825 2481.04C143.623 2492.82 136.208 2512.65 135.367 2520.97C137.91 2529.26 143.038 2540.66 137.217 2554.9C131.396 2569.14 102.399 2556.74 88.6279 2548.76C83.4166 2539.69 67.1282 2530.1 59.9872 2525.79C55.8286 2523.28 51.9438 2521.15 43.9557 2496.26C35.9677 2471.38 60.0316 2452.05 75.6812 2444.25C62.7476 2417.86 79.0228 2403.54 85.198 2401.15Z" fill="#5EBFC5"/>
</mask>
<g mask="url(#mask2_5004_1356)">
<path d="M112.836 2405.32C102.205 2401.09 98.7884 2416.98 100.019 2428L102.064 2442.53C128.064 2453.86 147.161 2497.69 147.161 2497.69C147.161 2497.69 161.501 2499.07 153.185 2488.81C144.868 2478.55 146.876 2446.52 146.876 2446.52C139.96 2434.55 123.468 2409.55 112.836 2405.32Z" fill="#569EA3"/>
</g>
<ellipse cx="17.9329" cy="18.3739" rx="17.9329" ry="18.3739" transform="matrix(0.827601 0.561316 -0.561317 0.827601 85.8984 2480.77)" fill="#FEDD92"/>
<rect x="79.8965" y="2493.72" width="14.1112" height="19.1088" rx="7.05557" transform="rotate(12.855 79.8965 2493.72)" fill="#040404"/>
<path d="M111.043 2487.16L110.349 2492.38" stroke="#569EA3" stroke-width="5" stroke-linecap="round"/>
<path d="M70.3093 2406.08C67.4018 2427.12 78.0494 2440.93 83.7366 2445.2L48.1414 2481.44C47.4034 2475.83 33.6245 2471.6 26.8273 2470.18C38.4462 2461.01 38.2 2444.86 36.6244 2437.93C52.4511 2440.99 65.6755 2417.97 70.3093 2406.08Z" fill="#5EBFC5"/>
<path d="M143.35 2472.53C147.61 2481.4 142.352 2492.59 139.122 2497L136.594 2476.81C138.448 2469.97 142.886 2470.58 143.35 2472.53Z" fill="url(#paint9_linear_5004_1356)"/>
<path d="M65.6068 2458.83L41.7285 2441.93" stroke="#569EA3" stroke-width="5" stroke-linecap="round"/>
<path d="M70.3717 2454.69L64.4023 2426.04" stroke="#569EA3" stroke-width="5" stroke-linecap="round"/>
<path d="M33.7733 2468.58L62.5918 2463.54" stroke="#569EA3" stroke-width="5" stroke-linecap="round"/>
<path d="M43.9395 2476.64C42.088 2485.57 41.6377 2506.59 54.6482 2519.25C54.6482 2519.25 98.4571 2557.31 100.711 2555.82" stroke="#569EA3" stroke-width="5" stroke-linecap="round"/>
<ellipse cx="2.49885" cy="2.49885" rx="2.49885" ry="2.49885" transform="matrix(0.827601 0.561316 -0.561317 0.827601 122.717 2546.94)" fill="#569EA3"/>
<path d="M79.499 2455.11L69.6016 2407.9L74.5485 2462.41C79.6667 2463.75 80.4515 2461.76 79.499 2455.11Z" fill="#569EA3"/>
<path d="M38.2596 394.821C35.8166 390.86 21.1397 395.096 14.1067 397.709V429.068H18.965C56.3975 429.526 130.901 430.168 129.458 429.068C128.014 427.968 125.617 427.418 124.599 427.28H109.886C112.43 425.721 115.299 422.604 106.415 422.604C95.3106 422.604 99.7525 423.291 98.5032 417.927C97.2539 412.563 56.5826 419.578 63.3842 417.927C70.1859 416.277 56.3049 405.411 52.0018 401.698C48.5593 398.727 41.406 402.936 38.2596 405.411C39.2775 403.532 40.7027 398.782 38.2596 394.821Z" fill="#5EBFC5" fill-opacity="0.15"/>
<path d="M-10.0467 394.821C-7.60367 390.86 7.07318 395.096 14.1062 397.709V429.068H9.24786C-28.1846 429.526 -102.689 430.168 -101.245 429.068C-99.8013 427.968 -97.4045 427.418 -96.3866 427.28H-81.6727C-84.2176 425.721 -87.0863 422.604 -78.2025 422.604C-67.0977 422.604 -71.5396 423.291 -70.2903 417.927C-69.041 412.563 -28.3697 419.578 -35.1714 417.927C-41.9731 416.277 -28.092 405.411 -23.7889 401.698C-20.3464 398.727 -13.1931 402.936 -10.0467 405.411C-11.0647 403.532 -12.4898 398.782 -10.0467 394.821Z" fill="#5EBFC5" fill-opacity="0.15"/>
<path d="M3.14418 427.788C1.44019 425.026 -8.79662 427.98 -13.702 429.803V451.675H-10.3134C15.795 451.995 67.7601 452.443 66.7532 451.675C65.7463 450.908 64.0745 450.524 63.3645 450.428H53.1019C54.8769 449.341 56.8778 447.166 50.6815 447.166C42.9361 447.166 46.0342 447.646 45.1629 443.905C44.2915 440.163 15.9241 445.056 20.6681 443.905C25.4122 442.754 15.7304 435.175 12.7291 432.585C10.328 430.513 5.3387 433.448 3.14418 435.175C3.85417 433.864 4.84816 430.551 3.14418 427.788Z" fill="#5EBFC5" fill-opacity="0.25"/>
<path d="M19.7297 261.239C16.1871 255.474 -5.09476 261.64 -15.2929 265.443V311.084H-8.24811C46.0301 311.751 154.063 312.685 151.97 311.084C149.877 309.482 146.401 308.682 144.925 308.482H123.59C127.28 306.213 131.44 301.675 118.558 301.675C102.455 301.675 108.896 302.676 107.085 294.869C105.273 287.062 46.2985 297.271 56.1612 294.869C66.0239 292.467 45.896 276.653 39.6563 271.248C34.6646 266.924 24.292 273.05 19.7297 276.653C21.2057 273.917 23.2722 267.004 19.7297 261.239Z" fill="#5EBFC5" fill-opacity="0.1"/>
<path d="M2.75497 262.906C11.0848 262.906 16.758 273.116 17.5662 275.957C26.5922 274.911 30.225 282.882 30.9131 286.999C42.9733 282.446 51.1575 289.492 53.7421 293.585C69.1823 293.856 71.554 296.377 70.8098 297.604H57.5109C61.0637 301.168 60.9917 309.162 60.5116 312.713C65.7543 313.159 66.6009 315.724 66.3688 316.95C82.3275 312.108 95.1991 320.163 99.6401 324.795C101.673 324.61 107.111 324.728 112.603 326.684C118.095 328.641 116.668 330.114 115.268 330.607C112.963 329.716 102.993 329.638 98.2958 329.711C82.4139 328.994 79.8518 330.752 80.5559 331.72C85.525 331.72 89.5339 334.069 87.6615 334.844C85.7891 335.619 65.1686 335.74 66.3688 334.844C67.5691 333.948 73.6904 332.398 73.0183 331.72C72.3461 331.043 44.7641 329.808 44.7641 330.607C44.7641 331.406 46.2044 332.398 49.3011 332.398C51.7784 332.398 52.5578 333.512 52.6378 334.069C36.0262 335.643 26.3521 335.062 16.942 334.069C7.53197 333.076 -16.4973 333.222 -16.4973 332.156C-14.9609 330.297 -11.6322 329.703 -10.1599 329.638C-11.3121 328.476 -44.0553 328.379 -47.0319 328.282C-50.0086 328.185 -52.7932 328.766 -52.6012 329.638C-52.4091 330.51 -49.8166 330.219 -47.0319 330.8C-44.8043 331.265 -45.5596 331.898 -46.2158 332.156C-46.2158 332.156 -84.8162 330.897 -86.9287 330.849C-89.0411 330.8 -87.8649 328.96 -87.8649 328.96C-83.736 328.96 -80.3512 326.297 -78.2868 326.297C-76.6352 326.297 -72.8456 325.538 -71.1572 325.159C-68.4494 318.03 -60.7789 315.377 -57.2822 314.941C-61.4879 311.899 -57.1621 309.896 -54.4735 309.275C-55.2417 295.057 -47.8721 289.944 -42.735 289.057H-48.6403C-57.2822 289.517 -57.9063 287.386 -54.4735 286.563C-51.0408 285.739 -40.0224 286.006 -40.0224 286.006C-36.5656 273.144 -26.1954 272.317 -21.4423 273.512C-18.8882 267.759 -13.7526 267.709 -11.5041 268.403C-9.25725 263.87 -3.22237 262.906 2.75497 262.906Z" fill="white"/>
<path d="M76.096 303.547C74.0204 303.667 73.6436 302.673 73.7146 302.161C73.8776 301.807 74.5799 301.115 76.0855 301.169C77.591 301.223 78.5259 301.905 78.8052 302.239C78.767 302.625 78.1717 303.428 76.096 303.547Z" fill="white"/>
<path opacity="0.6" fill-rule="evenodd" clip-rule="evenodd" d="M17.6145 275.885C16.8271 274.045 15.286 271.406 14.5658 270.316C14.1257 271.471 12.4149 274.2 9.4767 275.885C6.53846 277.571 2.6032 277.411 1.00285 277.12V277.726C7.60909 277.551 9.62873 280.736 9.81277 282.35C11.3683 277.643 15.6621 276.079 17.6145 275.885ZM-13.6884 277.12C-15.7624 276.539 -18.8095 273.198 -20.0738 271.6C-20.4195 271.176 -21.082 272.715 -21.37 273.537C-20.7747 273.75 -20.2578 274.788 -20.0738 275.28C-25.9311 274.796 -29.0277 276.305 -29.8439 277.12C-36.8918 281.827 -37.7736 287.782 -37.3335 290.171C-42.6147 289.687 -46.1275 292.213 -47.1757 293.876C-52.4569 298.016 -54.3533 304.312 -54.3533 309.251C-60.8059 310.879 -59.0903 313.691 -57.4259 314.893C-65.7029 316.404 -70.0607 322.302 -71.2049 325.063C-74.8682 326.021 -77.0887 326.202 -78.296 326.3C-78.7659 326.339 -79.0824 326.364 -79.2707 326.419C-79.57 326.505 -80.0407 326.716 -80.6466 326.988L-80.6467 326.988C-81.4016 327.326 -82.3664 327.759 -83.4716 328.162C-85.0656 328.743 -87.0804 328.905 -87.8886 328.913C-88.6952 330.482 -87.5525 330.874 -86.8804 330.874L-62.8511 331.6L-46.2875 332.206C-43.887 331.276 -47.9119 330.559 -50.2244 330.317C-51.4486 330.277 -53.5899 329.954 -52.3608 328.985C-51.1318 328.017 -42.2786 328.178 -38.0057 328.38L-21.8262 328.719C-14.1829 328.719 -10.8958 329.348 -10.2076 329.663C-13.9908 329.993 -15.9769 331.495 -16.497 332.206C-14.7716 332.971 -3.03743 333.203 4.33921 333.349H4.33931L5.27576 333.368C9.3723 333.45 14.2379 333.862 19.0192 334.267L19.0193 334.267C22.7273 334.581 26.3846 334.891 29.5931 335.039C35.4696 335.31 47.3569 334.474 52.5661 334.022C52.374 332.738 50.8137 332.545 49.2294 332.545C47.645 332.545 46.2767 332.206 44.6924 331.14C43.108 330.075 50.8137 330.317 51.6299 330.39C51.884 330.412 53.1133 330.454 54.8569 330.512C58.713 330.642 65.0845 330.857 68.9857 331.14C73.5179 331.47 73.4987 331.988 72.9225 332.206C71.8583 332.722 69.1969 333.905 67.0653 334.506C64.9336 335.106 67.4573 335.289 68.9857 335.305C73.5067 335.353 82.9231 335.421 84.4211 335.305C85.919 335.189 87.4937 334.724 88.0939 334.506C87.5561 332.414 82.7967 331.794 80.4842 331.746C80.3883 330.411 82.4065 330.173 84.7519 329.897C85.3426 329.828 85.9539 329.756 86.5575 329.663C88.5019 329.365 94.2061 329.474 99.4702 329.574H99.4703C102.33 329.628 105.059 329.68 106.986 329.663C111.365 329.625 114.332 330.277 115.268 330.608C116.113 330.394 116.516 329.615 116.612 329.252C112.291 328.671 102.958 327.494 100.193 327.436C97.4271 327.378 91.9987 324.764 89.6302 323.465C80.0665 318.293 69.0657 318.969 64.7608 319.954C64.6263 317.319 63.0564 315.886 62.2882 315.498C59.9069 314.511 57.2151 315.087 56.1669 315.498V316.225C61.184 318.888 59.1435 324.845 58.6394 325.305C58.4114 325.513 58.0064 325.295 57.6469 325.101C57.2117 324.867 56.843 324.668 56.935 325.305C57.0695 326.235 56.2069 326.661 55.7588 326.758C53.5499 327.33 51.7858 325.262 51.0875 324.444L51.0874 324.444C50.9586 324.293 50.8661 324.184 50.8137 324.143C50.5448 323.93 50.9257 322.488 51.1498 321.794C51.6491 323.034 52.7181 322.536 53.1902 322.133C54.1696 321.823 53.9184 320.228 53.6703 319.469C49.5606 311.779 42.1158 310.034 38.9071 310.123L38.259 308.961L39.3152 308.138C40.6211 304.05 49.2294 306.249 49.7815 309.954C52.8542 309.566 55.0466 312.875 55.7588 314.578C56.7958 313.261 59.2476 312.706 60.3438 312.593C57.5208 312.593 56.1109 310.833 55.7588 309.954C56.4693 303.213 52.5021 299.639 50.4296 298.694C44.4379 288.292 32.6017 289.001 27.4326 290.656C21.4985 278.762 9.5327 284.086 4.29155 288.234C1.25728 282.481 -4.27033 279.913 -6.65485 279.348C-5.83867 279.154 -4.32634 277.774 -4.06228 277.12C-3.85103 276.597 -4.58239 276.079 -4.97448 275.885C-7.27898 277.266 -11.0958 277.847 -13.6884 277.12ZM-42.7347 289.033L-40.2862 288.089C-46.5516 287.629 -54.9054 287.551 -56.3457 287.629C-56.4497 288.097 -55.8224 289.033 -52.4809 289.033H-42.7347ZM-34.5486 317.435C-33.8444 317.007 -32.2489 316.103 -31.4999 315.91C-30.751 315.716 -28.2912 315.829 -27.155 315.91C-25.6907 313.141 -20.8848 308.055 -13.376 309.856C-12.2077 305.474 -6.50567 297.75 6.95648 301.914C7.66063 300.849 10.2932 299.357 15.1903 301.914C20.0873 304.471 19.8873 307.871 19.1752 309.251C21.7277 311.39 26.1511 316.854 23.4241 321.6C26.3527 321.043 32.402 321.803 33.1702 329.3H31.994C30.8657 327.161 27.4089 323.145 22.6079 324.191C21.1036 324.659 18.311 324.626 19.1752 320.752C19.8073 317.467 18.7431 311.019 9.42901 311.503C8.94891 309.211 6.27473 304.912 -0.581166 306.055C-7.43707 307.198 -9.8552 310.793 -10.2073 312.447C-14.3682 311.664 -23.2997 311.711 -25.7387 318.161L-34.5486 317.435Z" fill="url(#paint10_linear_5004_1356)"/>
<path d="M26.8306 309.557C32.6954 309.557 36.6898 316.745 37.2589 318.746C43.6139 318.009 46.1717 323.621 46.6562 326.52C55.1475 323.315 60.9099 328.276 62.7296 331.157C73.6008 331.348 75.2707 333.123 74.7467 333.987H65.3832C67.8846 336.496 67.8339 342.124 67.4959 344.625C71.1872 344.938 71.7833 346.744 71.6199 347.608C82.8561 344.198 91.9188 349.87 95.0456 353.132C96.4766 353.001 100.305 353.084 104.172 354.461C108.04 355.839 107.035 356.877 106.049 357.223C104.426 356.596 97.4062 356.541 94.0991 356.592C82.917 356.088 81.113 357.326 81.6088 358.007C85.1074 358.007 87.93 359.661 86.6117 360.207C85.2933 360.752 70.7748 360.837 71.6199 360.207C72.465 359.576 76.7749 358.485 76.3017 358.007C75.8284 357.53 56.4084 356.661 56.4084 357.223C56.4084 357.786 57.4225 358.485 59.6028 358.485C61.3471 358.485 61.8958 359.269 61.9521 359.661C50.2562 360.769 43.4448 360.36 36.8194 359.661C30.1939 358.962 13.2754 359.064 13.2754 358.314C14.3571 357.005 16.7008 356.587 17.7374 356.541C16.9262 355.723 -6.1277 355.655 -8.22351 355.587C-10.3193 355.518 -12.2799 355.928 -12.1447 356.541C-12.0095 357.155 -10.1841 356.951 -8.22351 357.36C-6.65503 357.687 -7.18687 358.133 -7.64885 358.314C-7.64885 358.314 -34.8267 357.428 -36.3141 357.394C-37.8014 357.36 -36.9732 356.064 -36.9732 356.064C-34.0661 356.064 -31.683 354.189 -30.2295 354.189C-29.0666 354.189 -26.3984 353.655 -25.2097 353.387C-23.3032 348.368 -17.9025 346.5 -15.4405 346.193C-18.4017 344.052 -15.356 342.641 -13.463 342.204C-14.0038 332.193 -8.81506 328.594 -5.19811 327.969H-9.35589C-15.4405 328.293 -15.8799 326.792 -13.463 326.213C-11.0461 325.633 -3.2882 325.821 -3.2882 325.821C-0.854359 316.765 6.44715 316.183 9.79368 317.024C11.592 312.973 15.2078 312.938 16.791 313.427C18.373 310.235 22.622 309.557 26.8306 309.557Z" fill="white"/>
<path d="M78.4647 338.172C77.0033 338.256 76.7379 337.556 76.788 337.195C76.9027 336.947 77.3972 336.459 78.4572 336.497C79.5173 336.535 80.1755 337.015 80.3721 337.25C80.3452 337.522 79.9261 338.088 78.4647 338.172Z" fill="white"/>
<path opacity="0.6" fill-rule="evenodd" clip-rule="evenodd" d="M37.2906 318.696C36.7362 317.401 35.6511 315.543 35.1441 314.775C34.8342 315.588 33.6297 317.51 31.5609 318.696C29.4922 319.883 26.7214 319.77 25.5946 319.566V319.992C30.246 319.869 31.668 322.112 31.7976 323.248C32.8928 319.934 35.9159 318.833 37.2906 318.696ZM15.2508 319.566C13.7905 319.157 11.6451 316.804 10.755 315.679C10.5116 315.381 10.0451 316.464 9.84231 317.043C10.2615 317.193 10.6254 317.924 10.755 318.27C6.63097 317.929 4.45067 318.992 3.87602 319.566C-1.0863 322.88 -1.70716 327.073 -1.39729 328.755C-5.11565 328.414 -7.58893 330.193 -8.32697 331.363C-12.0453 334.278 -13.3806 338.711 -13.3806 342.189C-17.9237 343.334 -16.7158 345.314 -15.544 346.161C-21.3717 347.225 -24.4399 351.378 -25.2455 353.321C-27.8248 353.996 -29.3881 354.123 -30.2382 354.193C-30.5691 354.22 -30.7919 354.238 -30.9245 354.276C-31.1352 354.337 -31.4666 354.485 -31.8933 354.677L-31.8934 354.677L-31.8935 354.677L-31.8938 354.677C-32.4252 354.915 -33.1044 355.22 -33.8823 355.503C-35.0045 355.913 -36.4232 356.026 -36.9922 356.032C-37.5601 357.137 -36.7556 357.413 -36.2823 357.413L-19.3638 357.924L-7.70161 358.35C-6.01145 357.696 -8.8453 357.191 -10.4735 357.021C-11.3355 356.992 -12.8431 356.765 -11.9777 356.083C-11.1124 355.401 -4.87904 355.515 -1.87055 355.657L9.52117 355.896C14.9027 355.896 17.2171 356.339 17.7016 356.56C15.0379 356.792 13.6395 357.85 13.2733 358.35C14.4881 358.89 22.7498 359.053 27.9435 359.156H27.9436L28.6031 359.169C31.4874 359.226 34.9132 359.517 38.2796 359.802C40.8904 360.023 43.4655 360.241 45.7245 360.345C49.862 360.536 58.2317 359.947 61.8994 359.629C61.7642 358.726 60.6656 358.589 59.5501 358.589C58.4345 358.589 57.4712 358.35 56.3556 357.6C55.2401 356.85 60.6656 357.021 61.2402 357.072C61.4191 357.088 62.2847 357.117 63.5123 357.158H63.5125L63.5136 357.158C66.2287 357.25 70.7137 357.401 73.4601 357.6C76.6511 357.832 76.6376 358.197 76.232 358.35C75.4827 358.714 73.6088 359.547 72.108 359.97C70.6071 360.393 72.384 360.521 73.4601 360.533C76.6433 360.567 83.2732 360.614 84.3279 360.533C85.3825 360.451 86.4913 360.123 86.9138 359.97C86.5352 358.497 83.1842 358.061 81.556 358.027C81.4885 357.087 82.9094 356.92 84.5608 356.725C84.9767 356.676 85.4071 356.626 85.8321 356.56C87.2011 356.351 91.2173 356.427 94.9236 356.498H94.9238H94.9239H94.9241H94.9243C96.9374 356.536 98.8591 356.572 100.215 356.56C103.298 356.533 105.387 356.992 106.047 357.225C106.641 357.075 106.925 356.526 106.993 356.271C103.951 355.861 97.3793 355.033 95.4323 354.992C93.4852 354.951 89.6632 353.111 87.9955 352.196C81.2619 348.555 73.5164 349.031 70.4854 349.724C70.3908 347.869 69.2854 346.86 68.7446 346.587C67.0679 345.892 65.1727 346.297 64.4346 346.587V347.099C67.9671 348.974 66.5304 353.168 66.1755 353.492C66.0149 353.638 65.7298 353.485 65.4767 353.348C65.1703 353.183 64.9107 353.044 64.9755 353.492C65.0701 354.146 64.4628 354.446 64.1473 354.515C62.5921 354.918 61.35 353.462 60.8584 352.885C60.7676 352.779 60.7024 352.703 60.6656 352.673C60.4763 352.523 60.7444 351.508 60.9022 351.02C61.2537 351.893 62.0064 351.543 62.3388 351.258C63.0284 351.04 62.8515 349.917 62.6769 349.383C59.7833 343.969 54.5415 342.74 52.2823 342.803L51.826 341.984L52.5697 341.405C53.4891 338.527 59.5501 340.075 59.9388 342.683C62.1022 342.41 63.6459 344.74 64.1473 345.939C64.8775 345.012 66.6037 344.621 67.3755 344.541C65.3879 344.541 64.3952 343.303 64.1473 342.683C64.6476 337.937 61.8543 335.421 60.3951 334.756C56.1765 327.432 47.8428 327.931 44.2034 329.096C40.0253 320.722 31.6004 324.47 27.9102 327.391C25.7738 323.34 21.8819 321.532 20.203 321.134C20.7777 320.998 21.8425 320.026 22.0284 319.566C22.1771 319.198 21.6622 318.833 21.3861 318.696C19.7636 319.668 17.0762 320.077 15.2508 319.566ZM-5.20017 327.954L-3.47619 327.289C-7.88753 326.965 -13.7693 326.91 -14.7834 326.965C-14.8566 327.294 -14.4149 327.954 -12.0622 327.954H-5.20017ZM0.563993 347.951C1.05977 347.65 2.18317 347.014 2.7105 346.877C3.23783 346.741 4.96969 346.82 5.7697 346.877C6.8007 344.928 10.1844 341.347 15.4713 342.615C16.2938 339.53 20.3085 334.091 29.7869 337.023C30.2827 336.273 32.1363 335.223 35.5842 337.023C39.0322 338.824 38.8913 341.217 38.3899 342.189C40.1871 343.695 43.3015 347.542 41.3815 350.884C43.4435 350.492 47.7027 351.027 48.2436 356.305H47.4154C46.621 354.799 44.1872 351.971 40.8068 352.708C39.7477 353.037 37.7814 353.015 38.3899 350.287C38.835 347.974 38.0857 343.434 31.5278 343.775C31.1898 342.161 29.3069 339.134 24.4798 339.939C19.6527 340.743 17.9502 343.274 17.7023 344.439C14.7726 343.888 8.48411 343.921 6.7669 348.463L0.563993 347.951Z" fill="url(#paint11_linear_5004_1356)"/>
<path d="M300.958 334.84C303.565 330.612 319.23 335.133 326.736 337.923V371.392H321.551C281.599 371.881 202.081 372.566 203.622 371.392C205.162 370.218 207.721 369.63 208.807 369.484H224.511C221.795 367.82 218.733 364.493 228.215 364.493C240.067 364.493 235.326 365.227 236.66 359.501C237.993 353.776 281.402 361.263 274.142 359.501C266.883 357.74 281.698 346.143 286.291 342.18C289.965 339.009 297.6 343.501 300.958 346.143C299.871 344.137 298.35 339.068 300.958 334.84Z" fill="#5EBFC5" fill-opacity="0.15"/>
<path d="M352.515 334.84C349.907 330.612 334.243 335.133 326.736 337.923V371.392H331.922C371.873 371.881 451.392 372.566 449.851 371.392C448.31 370.218 445.752 369.63 444.666 369.484H428.961C431.678 367.82 434.739 364.493 425.258 364.493C413.405 364.493 418.146 365.227 416.813 359.501C415.48 353.776 372.071 361.263 379.33 359.501C386.59 357.74 371.775 346.143 367.182 342.18C363.508 339.009 355.873 343.501 352.515 346.143C353.601 344.137 355.122 339.068 352.515 334.84Z" fill="#5EBFC5" fill-opacity="0.15"/>
<path d="M338.439 370.03C340.257 367.082 351.183 370.235 356.419 372.181V395.525H352.802C324.936 395.866 269.474 396.344 270.549 395.525C271.623 394.706 273.407 394.296 274.165 394.194H285.119C283.224 393.033 281.089 390.713 287.702 390.713C295.969 390.713 292.662 391.225 293.592 387.231C294.522 383.238 324.799 388.46 319.735 387.231C314.672 386.003 325.005 377.914 328.209 375.15C330.771 372.938 336.096 376.071 338.439 377.914C337.681 376.515 336.62 372.979 338.439 370.03Z" fill="#5EBFC5" fill-opacity="0.25"/>
<path d="M374.399 370.03C372.581 367.082 361.655 370.235 356.419 372.181V395.525H360.036C387.902 395.866 443.364 396.344 442.289 395.525C441.215 394.706 439.43 394.296 438.673 394.194H427.719C429.614 393.033 431.749 390.713 425.136 390.713C416.869 390.713 420.176 391.225 419.246 387.231C418.316 383.238 388.039 388.46 393.103 387.231C398.166 386.003 387.833 377.914 384.629 375.15C382.067 372.938 376.742 376.071 374.399 377.914C375.157 376.515 376.218 372.979 374.399 370.03Z" fill="#5EBFC5" fill-opacity="0.25"/>
<path d="M338.851 194.051C329.96 194.051 323.905 204.948 323.043 207.98C313.409 206.864 309.532 215.371 308.797 219.765C295.926 214.906 287.191 222.426 284.432 226.794C267.953 227.083 265.421 229.774 266.216 231.084H280.41C276.618 234.888 276.695 243.419 277.207 247.21C271.611 247.685 270.708 250.423 270.955 251.732C253.923 246.564 240.185 255.161 235.445 260.105C233.276 259.907 227.472 260.033 221.61 262.121C215.748 264.209 217.271 265.782 218.766 266.308C221.225 265.357 231.867 265.274 236.88 265.351C253.831 264.587 256.565 266.463 255.814 267.496C250.51 267.496 246.231 270.003 248.23 270.83C250.228 271.657 272.237 271.786 270.955 270.83C269.674 269.874 263.141 268.22 263.859 267.496C264.576 266.773 294.014 265.455 294.014 266.308C294.014 267.16 292.477 268.22 289.172 268.22C286.528 268.22 285.696 269.409 285.611 270.003C303.34 271.683 313.665 271.063 323.709 270.003C333.752 268.944 359.399 269.099 359.399 267.962C357.759 265.977 354.206 265.343 352.635 265.274C353.865 264.034 388.811 263.93 391.988 263.827C395.165 263.723 398.137 264.344 397.932 265.274C397.727 266.204 394.96 265.894 391.988 266.514C389.611 267.011 390.417 267.686 391.117 267.962C391.117 267.962 432.316 266.618 434.57 266.566C436.825 266.514 435.569 264.55 435.569 264.55C431.163 264.55 427.55 261.708 425.347 261.708C423.584 261.708 419.539 260.898 417.737 260.493C414.847 252.885 406.661 250.052 402.928 249.587C407.417 246.341 402.8 244.203 399.931 243.54C400.751 228.365 392.885 222.909 387.402 221.961H393.705C402.928 222.452 403.595 220.178 399.931 219.299C396.267 218.421 384.507 218.705 384.507 218.705C380.818 204.977 369.749 204.095 364.677 205.37C361.95 199.23 356.469 199.176 354.069 199.917C351.671 195.079 345.23 194.051 338.851 194.051Z" fill="white"/>
<path d="M260.574 237.427C262.789 237.555 263.191 236.494 263.116 235.947C262.942 235.57 262.192 234.831 260.585 234.889C258.978 234.947 257.98 235.674 257.682 236.03C257.723 236.443 258.359 237.299 260.574 237.427Z" fill="white"/>
<path opacity="0.6" fill-rule="evenodd" clip-rule="evenodd" d="M322.991 207.905C323.831 205.941 325.476 203.124 326.245 201.961C326.714 203.193 328.54 206.106 331.676 207.905C334.812 209.703 339.012 209.533 340.721 209.223V209.869C333.67 209.683 331.514 213.082 331.318 214.805C329.657 209.781 325.075 208.112 322.991 207.905ZM356.4 209.223C358.614 208.603 361.866 205.036 363.216 203.331C363.585 202.878 364.292 204.52 364.599 205.398C363.964 205.625 363.412 206.733 363.216 207.259C369.467 206.742 372.772 208.353 373.643 209.223C381.166 214.247 382.107 220.602 381.637 223.152C387.274 222.635 391.023 225.332 392.142 227.106C397.778 231.525 399.802 238.244 399.802 243.516C406.689 245.253 404.858 248.254 403.082 249.538C411.916 251.15 416.567 257.446 417.788 260.392C421.698 261.415 424.068 261.608 425.356 261.713C425.858 261.754 426.196 261.781 426.397 261.839C426.716 261.931 427.218 262.156 427.865 262.446L427.865 262.446L427.865 262.447L427.865 262.447L427.866 262.447C428.671 262.808 429.701 263.27 430.88 263.7C432.582 264.32 434.732 264.492 435.595 264.501C436.455 266.176 435.236 266.594 434.518 266.594L408.872 267.369L391.194 268.016C388.632 267.023 392.927 266.258 395.395 266C396.702 265.957 398.987 265.612 397.676 264.578C396.364 263.545 386.915 263.717 382.354 263.932L365.086 264.294C356.928 264.294 353.42 264.966 352.685 265.302C356.723 265.653 358.843 267.257 359.398 268.016C357.557 268.833 345.034 269.08 337.161 269.236L337.16 269.236H337.16L336.16 269.256C331.788 269.343 326.595 269.783 321.492 270.215H321.492C317.534 270.551 313.631 270.881 310.206 271.039C303.934 271.329 291.247 270.436 285.687 269.954C285.892 268.584 287.557 268.377 289.248 268.377C290.939 268.377 292.4 268.016 294.091 266.878C295.782 265.741 287.557 266 286.686 266.077C286.415 266.101 285.103 266.146 283.242 266.208C279.126 266.347 272.326 266.576 268.162 266.878C263.325 267.23 263.346 267.783 263.96 268.016C265.096 268.567 267.937 269.83 270.212 270.471C272.487 271.112 269.793 271.306 268.162 271.323C263.337 271.375 253.287 271.447 251.688 271.323C250.089 271.199 248.409 270.703 247.768 270.471C248.342 268.238 253.422 267.576 255.89 267.525C255.992 266.1 253.838 265.846 251.335 265.552C250.705 265.478 250.052 265.401 249.408 265.302C247.333 264.984 241.244 265.1 235.626 265.207C232.574 265.265 229.661 265.32 227.604 265.302C222.931 265.261 219.764 265.957 218.765 266.31C217.863 266.082 217.433 265.25 217.331 264.863C221.942 264.242 231.904 262.986 234.855 262.924C237.807 262.862 243.6 260.073 246.128 258.686C256.336 253.166 268.077 253.888 272.672 254.939C272.815 252.127 274.491 250.597 275.311 250.184C277.852 249.13 280.725 249.745 281.844 250.184V250.959C276.489 253.802 278.667 260.159 279.205 260.65C279.448 260.872 279.88 260.64 280.264 260.433C280.729 260.183 281.122 259.971 281.024 260.65C280.88 261.643 281.801 262.097 282.279 262.201C284.637 262.812 286.52 260.605 287.265 259.731L287.265 259.731C287.403 259.57 287.501 259.454 287.557 259.41C287.844 259.182 287.438 257.644 287.199 256.903C286.666 258.226 285.525 257.696 285.021 257.265C283.975 256.934 284.244 255.232 284.508 254.422C288.895 246.214 296.841 244.352 300.265 244.447L300.957 243.206L299.83 242.328C298.436 237.965 289.248 240.312 288.659 244.266C285.38 243.852 283.039 247.384 282.279 249.202C281.173 247.796 278.556 247.203 277.386 247.083C280.399 247.083 281.904 245.205 282.279 244.266C281.521 237.071 285.755 233.257 287.967 232.249C294.362 221.147 306.995 221.903 312.512 223.669C318.845 210.975 331.617 216.657 337.21 221.085C340.449 214.944 346.349 212.203 348.894 211.6C348.022 211.394 346.408 209.921 346.127 209.223C345.901 208.665 346.682 208.112 347.1 207.905C349.56 209.378 353.633 209.998 356.4 209.223ZM387.402 221.938L384.788 220.93C391.475 220.439 400.391 220.356 401.929 220.439C402.04 220.938 401.37 221.938 397.804 221.938H387.402ZM378.664 252.251C377.913 251.794 376.21 250.829 375.41 250.623C374.611 250.416 371.986 250.537 370.773 250.623C369.21 247.668 364.081 242.239 356.067 244.162C354.82 239.484 348.734 231.24 334.366 235.685C333.614 234.548 330.804 232.956 325.578 235.685C320.351 238.414 320.565 242.043 321.325 243.516C318.6 245.799 313.879 251.631 316.79 256.696C313.664 256.101 307.208 256.913 306.388 264.914H307.643C308.847 262.631 312.537 258.345 317.661 259.461C319.266 259.961 322.247 259.926 321.325 255.791C320.65 252.285 321.786 245.402 331.727 245.919C332.239 243.473 335.093 238.885 342.411 240.105C349.728 241.324 352.309 245.161 352.685 246.927C357.126 246.092 366.658 246.142 369.261 253.026L378.664 252.251Z" fill="url(#paint12_linear_5004_1356)"/>
<path d="M313.155 243.838C306.895 243.838 302.632 251.51 302.025 253.645C295.242 252.859 292.512 258.849 291.995 261.942C282.932 258.522 276.782 263.817 274.84 266.892C263.237 267.095 261.455 268.99 262.014 269.912H272.007C269.338 272.59 269.392 278.597 269.753 281.266C265.813 281.601 265.177 283.528 265.351 284.45C253.359 280.811 243.686 286.864 240.349 290.346C238.821 290.206 234.735 290.295 230.608 291.765C226.48 293.235 227.553 294.343 228.605 294.713C230.337 294.043 237.829 293.985 241.359 294.039C253.294 293.501 255.219 294.822 254.69 295.55C250.956 295.55 247.943 297.315 249.35 297.897C250.757 298.479 266.253 298.57 265.351 297.897C264.449 297.224 259.849 296.059 260.354 295.55C260.859 295.04 281.586 294.112 281.586 294.713C281.586 295.313 280.504 296.059 278.177 296.059C276.315 296.059 275.73 296.896 275.669 297.315C288.153 298.497 295.422 298.061 302.494 297.315C309.565 296.569 327.622 296.678 327.622 295.877C326.468 294.48 323.966 294.033 322.86 293.985C323.726 293.111 348.331 293.039 350.568 292.966C352.805 292.893 354.897 293.33 354.753 293.985C354.609 294.64 352.661 294.422 350.568 294.858C348.894 295.208 349.462 295.683 349.955 295.877C349.955 295.877 378.962 294.931 380.549 294.895C382.137 294.858 381.253 293.475 381.253 293.475C378.15 293.475 375.606 291.474 374.055 291.474C372.814 291.474 369.966 290.904 368.697 290.619C366.663 285.262 360.898 283.268 358.271 282.94C361.431 280.655 358.181 279.149 356.16 278.682C356.737 267.998 351.199 264.156 347.339 263.489H351.777C358.271 263.835 358.74 262.234 356.16 261.615C353.581 260.996 345.301 261.196 345.301 261.196C342.703 251.531 334.91 250.91 331.338 251.808C329.419 247.484 325.56 247.447 323.87 247.968C322.182 244.562 317.647 243.838 313.155 243.838Z" fill="white"/>
<path d="M258.04 274.378C259.6 274.468 259.883 273.72 259.829 273.336C259.707 273.07 259.179 272.549 258.048 272.59C256.916 272.631 256.214 273.143 256.004 273.394C256.033 273.685 256.48 274.288 258.04 274.378Z" fill="white"/>
<path d="M365.374 264.615C363.238 264.411 362.656 265.319 362.632 265.798C363.083 266.981 365.608 266.289 365.843 266.18C366.077 266.071 367.088 266.18 367.286 265.343C367.445 264.674 366.077 264.579 365.374 264.615Z" fill="white"/>
<path opacity="0.6" fill-rule="evenodd" clip-rule="evenodd" d="M301.984 253.589C302.576 252.206 303.734 250.223 304.275 249.404C304.606 250.272 305.891 252.323 308.099 253.589C310.307 254.856 313.264 254.736 314.467 254.517V254.972C309.503 254.841 307.985 257.234 307.847 258.447C306.678 254.91 303.451 253.735 301.984 253.589ZM325.507 254.517C327.066 254.081 329.355 251.57 330.305 250.369C330.565 250.05 331.063 251.206 331.28 251.824C330.832 251.984 330.444 252.764 330.305 253.134C334.707 252.77 337.034 253.905 337.647 254.517C342.944 258.054 343.606 262.529 343.276 264.325C347.244 263.961 349.884 265.859 350.672 267.109C354.64 270.22 356.065 274.951 356.065 278.663C360.914 279.885 359.625 281.999 358.374 282.902C364.594 284.038 367.869 288.47 368.729 290.544C371.482 291.265 373.15 291.401 374.058 291.474C374.411 291.503 374.649 291.523 374.79 291.563C375.015 291.628 375.369 291.787 375.824 291.991C376.391 292.245 377.116 292.571 377.947 292.873C379.145 293.31 380.659 293.431 381.266 293.438C381.872 294.617 381.014 294.911 380.508 294.911L362.451 295.457L350.004 295.912C348.2 295.213 351.225 294.675 352.963 294.493C353.883 294.463 355.492 294.22 354.568 293.492C353.645 292.764 346.992 292.886 343.781 293.037L331.622 293.292C325.879 293.292 323.409 293.765 322.891 294.002C325.734 294.249 327.227 295.378 327.618 295.912C326.321 296.488 317.503 296.662 311.96 296.772H311.96L311.256 296.786C308.178 296.847 304.521 297.157 300.928 297.461C298.142 297.697 295.394 297.93 292.982 298.041C288.566 298.245 279.633 297.616 275.719 297.277C275.863 296.312 277.036 296.167 278.226 296.167C279.417 296.167 280.445 295.912 281.636 295.112C282.826 294.311 277.036 294.493 276.422 294.547C276.232 294.564 275.309 294.596 274 294.64L273.998 294.64L273.997 294.64C271.1 294.737 266.312 294.899 263.38 295.112C259.974 295.359 259.989 295.748 260.422 295.912C261.221 296.3 263.221 297.189 264.823 297.641C266.425 298.092 264.529 298.229 263.38 298.241C259.983 298.278 252.907 298.328 251.781 298.241C250.655 298.154 249.472 297.804 249.021 297.641C249.425 296.069 253.002 295.603 254.739 295.566C254.811 294.563 253.295 294.385 251.532 294.177C251.089 294.125 250.629 294.071 250.176 294.002C248.714 293.778 244.428 293.859 240.472 293.934C238.323 293.975 236.272 294.014 234.824 294.002C231.534 293.972 229.304 294.463 228.601 294.711C227.966 294.551 227.663 293.965 227.59 293.692C230.838 293.256 237.851 292.371 239.929 292.328C242.007 292.284 246.087 290.32 247.866 289.344C255.053 285.457 263.32 285.965 266.555 286.705C266.656 284.725 267.836 283.648 268.413 283.357C270.203 282.615 272.225 283.048 273.013 283.357V283.903C269.243 285.905 270.776 290.381 271.155 290.726C271.326 290.883 271.631 290.719 271.901 290.573C272.228 290.397 272.505 290.248 272.436 290.726C272.335 291.425 272.983 291.745 273.32 291.818C274.98 292.248 276.305 290.694 276.83 290.079L276.83 290.079C276.927 289.966 276.997 289.884 277.036 289.853C277.238 289.693 276.952 288.61 276.783 288.088C276.408 289.02 275.605 288.646 275.25 288.343C274.514 288.11 274.703 286.911 274.889 286.341C277.977 280.562 283.572 279.251 285.983 279.318L286.47 278.444L285.677 277.826C284.695 274.754 278.226 276.406 277.812 279.19C275.502 278.899 273.855 281.386 273.32 282.666C272.54 281.676 270.698 281.259 269.874 281.174C271.996 281.174 273.055 279.852 273.32 279.19C272.786 274.125 275.767 271.439 277.324 270.729C281.827 262.913 290.722 263.445 294.606 264.689C299.065 255.751 308.057 259.751 311.996 262.869C314.276 258.546 318.43 256.616 320.222 256.191C319.608 256.046 318.472 255.009 318.273 254.517C318.115 254.124 318.664 253.735 318.959 253.589C320.691 254.626 323.559 255.063 325.507 254.517ZM347.334 263.469L345.494 262.76C350.203 262.414 356.48 262.356 357.563 262.414C357.641 262.766 357.169 263.469 354.658 263.469H347.334ZM341.182 284.812C340.653 284.491 339.454 283.812 338.891 283.666C338.329 283.521 336.48 283.605 335.626 283.666C334.526 281.586 330.914 277.763 325.272 279.117C324.394 275.824 320.109 270.019 309.993 273.149C309.463 272.348 307.485 271.228 303.805 273.149C300.125 275.071 300.276 277.625 300.811 278.662C298.893 280.27 295.569 284.376 297.618 287.942C295.417 287.524 290.871 288.095 290.294 293.728H291.178C292.026 292.121 294.623 289.103 298.231 289.889C299.362 290.241 301.46 290.217 300.811 287.305C300.336 284.837 301.135 279.991 308.135 280.355C308.495 278.632 310.505 275.402 315.657 276.261C320.809 277.119 322.626 279.821 322.891 281.064C326.017 280.476 332.729 280.511 334.562 285.358L341.182 284.812Z" fill="url(#paint13_linear_5004_1356)"/>
<ellipse cx="264.434" cy="279.068" rx="11.5077" ry="8.98405" transform="matrix(0.588775 -0.808297 0.808296 0.588775 -116.828 328.501)" fill="#569EA3"/>
<path d="M322.945 363.214C372.288 325.22 338.218 301.261 315.015 294.031L352.143 244.805C373.01 249.293 386.356 266.377 390.42 274.358L429.683 326.082L393.162 386.833L433.104 437.963L359.279 463.692C278.492 449.299 301.395 390.71 322.945 363.214Z" fill="url(#paint14_linear_5004_1356)"/>
<g opacity="0.5">
<path d="M373.994 344.384L373.644 344.251L373.511 344.601C372.957 346.063 372.893 347.569 373.253 348.827C373.613 350.086 374.408 351.121 375.584 351.566C376.76 352.012 378.041 351.764 379.145 351.061C380.249 350.358 381.2 349.188 381.754 347.727L381.887 347.376L381.536 347.243L381.17 347.104L380.82 346.971L380.687 347.322C380.236 348.511 379.47 349.439 378.615 349.984C377.76 350.529 376.838 350.679 376.036 350.375C375.233 350.071 374.643 349.347 374.364 348.372C374.085 347.397 374.127 346.195 374.578 345.006L374.711 344.655L374.36 344.523L373.994 344.384Z" fill="#76D3D9" stroke="#76D3D9" stroke-width="0.75"/>
<path d="M375.76 350.55L375.409 350.417L375.276 350.767C374.722 352.229 374.658 353.735 375.018 354.993C375.379 356.252 376.174 357.287 377.35 357.732C378.526 358.178 379.807 357.931 380.911 357.227C382.015 356.524 382.966 355.354 383.52 353.893L383.652 353.542L383.302 353.409L382.936 353.27L382.585 353.137L382.452 353.488C382.001 354.677 381.236 355.605 380.381 356.15C379.525 356.695 378.604 356.845 377.802 356.541C376.999 356.237 376.409 355.513 376.13 354.538C375.851 353.563 375.893 352.361 376.344 351.172L376.477 350.821L376.126 350.689L375.76 350.55Z" fill="#76D3D9" stroke="#76D3D9" stroke-width="0.75"/>
<path d="M381.168 347.104L380.817 346.971L380.685 347.322C380.131 348.783 380.066 350.29 380.427 351.548C380.787 352.806 381.582 353.841 382.758 354.287C383.934 354.733 385.215 354.485 386.319 353.782C387.423 353.079 388.374 351.909 388.928 350.447L389.061 350.097L388.71 349.964L388.344 349.825L387.993 349.692L387.86 350.043C387.41 351.232 386.644 352.16 385.789 352.705C384.933 353.25 384.012 353.4 383.21 353.095C382.407 352.791 381.817 352.068 381.538 351.093C381.259 350.118 381.301 348.916 381.752 347.727L381.885 347.376L381.534 347.243L381.168 347.104Z" fill="#76D3D9" stroke="#76D3D9" stroke-width="0.75"/>
<path d="M382.934 353.27L382.583 353.138L382.45 353.488C381.896 354.949 381.832 356.456 382.192 357.714C382.553 358.972 383.348 360.007 384.524 360.453C385.699 360.899 386.981 360.651 388.085 359.948C389.189 359.245 390.139 358.075 390.693 356.613L390.826 356.263L390.476 356.13L390.11 355.991L389.759 355.858L389.626 356.209C389.175 357.398 388.41 358.326 387.555 358.871C386.699 359.416 385.778 359.566 384.975 359.261C384.173 358.957 383.583 358.234 383.304 357.259C383.024 356.284 383.067 355.082 383.517 353.893L383.65 353.542L383.3 353.409L382.934 353.27Z" fill="#76D3D9" stroke="#76D3D9" stroke-width="0.75"/>
</g>
<mask id="mask3_5004_1356" style="mask-type:alpha" maskUnits="userSpaceOnUse" x="302" y="244" width="132" height="259">
<path d="M322.941 363.212C372.285 325.218 338.214 301.259 315.011 294.029L352.139 244.803C373.006 249.291 386.352 266.375 390.416 274.356L429.679 326.08L393.158 386.831L433.1 437.961L423.372 502.639L359.699 465.316C278.912 450.923 301.391 390.708 322.941 363.212Z" fill="url(#paint15_linear_5004_1356)"/>
</mask>
<g mask="url(#mask3_5004_1356)">
<path d="M371.85 352.747C396.029 313.306 353.866 278.883 329.763 266.602L302.907 293.221L324.099 316.069L261.368 399.515L336.784 498.246L419.914 487.266C400.87 469.318 347.672 392.188 371.85 352.747Z" fill="#DAE4CB"/>
</g>
<g opacity="0.5">
<path d="M357.61 274.2L357.431 274.529L357.76 274.708C359.133 275.455 360.617 275.722 361.913 275.535C363.208 275.348 364.341 274.7 364.942 273.595C365.542 272.49 365.47 271.187 364.922 269.998C364.374 268.809 363.343 267.709 361.97 266.963L361.641 266.784L361.462 267.113L361.275 267.457L361.096 267.787L361.425 267.966C362.543 268.573 363.359 269.457 363.783 270.378C364.207 271.299 364.232 272.232 363.822 272.986C363.412 273.74 362.616 274.227 361.612 274.372C360.608 274.517 359.423 274.313 358.305 273.705L357.976 273.526L357.797 273.856L357.61 274.2Z" fill="#76D3D9" stroke="#76D3D9" stroke-width="0.75"/>
<path d="M363.958 273.284L363.779 273.613L364.108 273.792C365.481 274.539 366.965 274.806 368.26 274.619C369.556 274.432 370.689 273.783 371.289 272.679C371.89 271.574 371.817 270.271 371.27 269.082C370.722 267.893 369.691 266.793 368.318 266.047L367.989 265.868L367.809 266.197L367.623 266.541L367.443 266.871L367.773 267.05C368.89 267.657 369.706 268.541 370.131 269.462C370.555 270.383 370.579 271.316 370.17 272.07C369.76 272.824 368.963 273.311 367.96 273.456C366.956 273.601 365.77 273.397 364.653 272.789L364.324 272.61L364.145 272.94L363.958 273.284Z" fill="#76D3D9" stroke="#76D3D9" stroke-width="0.75"/>
<path d="M361.272 267.458L361.093 267.787L361.422 267.966C362.795 268.712 364.279 268.979 365.575 268.792C366.87 268.605 368.003 267.957 368.604 266.852C369.204 265.748 369.132 264.444 368.584 263.256C368.036 262.067 367.005 260.967 365.632 260.221L365.303 260.041L365.124 260.371L364.937 260.715L364.758 261.044L365.087 261.223C366.205 261.831 367.021 262.714 367.445 263.635C367.869 264.557 367.894 265.49 367.484 266.244C367.074 266.998 366.278 267.485 365.274 267.63C364.27 267.775 363.085 267.571 361.968 266.963L361.638 266.784L361.459 267.114L361.272 267.458Z" fill="#76D3D9" stroke="#76D3D9" stroke-width="0.75"/>
<path d="M367.622 266.542L367.443 266.871L367.772 267.05C369.145 267.796 370.629 268.063 371.924 267.876C373.22 267.689 374.353 267.041 374.953 265.936C375.554 264.832 375.481 263.528 374.934 262.34C374.386 261.151 373.355 260.051 371.982 259.305L371.653 259.125L371.474 259.455L371.287 259.799L371.107 260.128L371.437 260.307C372.554 260.915 373.37 261.798 373.795 262.719C374.219 263.641 374.243 264.574 373.834 265.328C373.424 266.082 372.627 266.569 371.624 266.714C370.62 266.859 369.434 266.655 368.317 266.047L367.988 265.868L367.809 266.198L367.622 266.542Z" fill="#76D3D9" stroke="#76D3D9" stroke-width="0.75"/>
</g>
<path d="M258.931 314.191C245.822 289.593 285.825 197.002 289.758 209.023C289.758 209.023 278.241 254.07 287.574 230.041C296.907 206.011 305.513 202.264 324.875 202.295C328.561 212.578 329.164 219.458 327.735 226.036L332.674 213.371C334.319 218.61 343.322 226.776 359.52 219.128C356.219 229.935 354.403 252.616 373.544 256.886C368.404 257.045 358.535 262.137 360.18 281.237C356.696 274.148 346.604 262.871 334.109 274.477C335.559 278.967 334.211 294.196 302.486 304.393C296.655 310.434 280.036 319.91 272.062 319.737C264.089 319.564 258.795 316.869 258.931 314.191Z" fill="#5EBFC5"/>
<ellipse cx="292.277" cy="281.434" rx="16.7568" ry="12.9209" transform="matrix(0.631045 -0.775747 0.775746 0.631045 -110.484 330.57)" fill="#FEDD92"/>
<ellipse cx="292.374" cy="281.538" rx="11.5351" ry="8.89455" transform="matrix(0.631045 -0.775747 0.775746 0.631045 -110.528 330.683)" fill="#040404"/>
<mask id="mask4_5004_1356" style="mask-type:alpha" maskUnits="userSpaceOnUse" x="277" y="266" width="30" height="31">
<ellipse cx="292.273" cy="281.434" rx="16.7568" ry="12.9209" transform="matrix(0.631045 -0.775747 0.775746 0.631045 -110.485 330.567)" fill="#FEDD92"/>
</mask>
<g mask="url(#mask4_5004_1356)">
<rect x="264.633" y="293.666" width="56.7308" height="14.536" transform="rotate(-51.7886 264.633 293.666)" fill="#569EA3"/>
</g>
<ellipse cx="274.369" cy="312.979" rx="1.71606" ry="1.71606" transform="rotate(-14.6223 274.369 312.979)" fill="#569EA3"/>
<path d="M330.426 266.328C336.045 274.668 338.372 293.903 302.73 304.12L277.47 319.265" stroke="#569EA3" stroke-width="3.75" stroke-linecap="round"/>
<path d="M317.152 247.048L333.059 212.853C327.026 230.034 324.581 248.066 324.112 254.934C320.315 256.824 316.363 253.274 317.152 247.048Z" fill="#569EA3"/>
<path d="M330.2 251.468L351.013 227.677" stroke="#569EA3" stroke-width="3.75" stroke-linecap="round"/>
<path d="M332.513 255.142L361.914 254.981" stroke="#569EA3" stroke-width="3.75" stroke-linecap="round"/>
<path d="M334.925 258.791L357.397 272.748" stroke="#569EA3" stroke-width="3.75" stroke-linecap="round"/>
<path d="M285.094 236.529C279.547 240.807 268.053 250.731 263.978 259.33C263.471 260.91 263.003 262.405 262.579 263.789C262.755 262.372 263.247 260.873 263.978 259.33C269.999 240.553 281.426 209.714 288.33 208.143C290.622 208.797 294.335 215.006 285.094 236.529Z" fill="#569EA3"/>
<path d="M355.061 284.261C356.931 292.091 356.891 308.132 341.778 309.653M344.24 338.663C347.457 344.471 358.229 353.932 375.576 345.314M314.896 374.405C314.303 392.24 324.179 421.494 368.432 395.833M327.657 454.082C343.007 462.711 373.215 471.055 384.389 437.819" stroke="#BEC6B1" stroke-width="1.875" stroke-linecap="round"/>
<path d="M289.087 373.315C283.181 361.072 272.025 354.307 270.427 352.374C268.829 350.442 275.806 372.437 275.806 372.437C281.627 380.145 287.085 376.234 289.087 373.315Z" fill="#569EA3"/>
<path d="M330.209 476.625C230.903 507.231 216.405 427.293 221.569 383.498L269.438 392.208C300.202 440.57 337.065 429.923 351.65 418.555L330.209 476.625Z" fill="url(#paint16_linear_5004_1356)"/>
<mask id="mask5_5004_1356" style="mask-type:alpha" maskUnits="userSpaceOnUse" x="220" y="383" width="132" height="101">
<path d="M330.207 476.625C230.901 507.231 216.403 427.293 221.567 383.498L269.436 392.208C300.2 440.57 337.063 429.923 351.648 418.555L330.207 476.625Z" fill="url(#paint17_linear_5004_1356)"/>
</mask>
<g mask="url(#mask5_5004_1356)">
<path d="M236.532 409.511L213.772 400.957L210.917 488.265L336.946 511.196L349.523 442.074C347.331 450.738 333.719 468.029 296.81 467.88C259.9 467.731 237.544 428.95 236.532 409.511Z" fill="#F4F5DC"/>
</g>
<ellipse cx="10.1954" cy="9.38784" rx="10.1954" ry="9.38784" transform="matrix(-0.983847 -0.179013 -0.179012 0.983847 258.908 333.348)" fill="#569EA3"/>
<path d="M291.611 402.296C289.78 386.983 283.461 375.095 277.593 370.504C265.437 328.483 241.789 337.211 225.286 325.281C212.084 315.738 205.603 329.327 204.013 337.314L218.42 363.021C214.971 357.161 200.607 352.085 195.858 355.632C191.108 359.18 198.204 363.036 202.601 365.375C206.118 367.246 222.374 390.348 230.062 401.665L266.681 412.432L273.003 395.73C271.928 401.075 293.356 416.892 291.611 402.296Z" fill="#5EBFC5"/>
<ellipse cx="12.3152" cy="12.3152" rx="12.3152" ry="12.3152" transform="matrix(-0.983847 -0.179013 -0.179012 0.983847 257.533 354.439)" fill="#FEDD92"/>
<mask id="mask6_5004_1356" style="mask-type:alpha" maskUnits="userSpaceOnUse" x="230" y="352" width="26" height="25">
<ellipse cx="12.3152" cy="12.3152" rx="12.3152" ry="12.3152" transform="matrix(-0.983847 -0.179013 -0.179012 0.983847 257.531 354.438)" fill="#FEDD92"/>
</mask>
<g mask="url(#mask6_5004_1356)">
<ellipse cx="7.87366" cy="7.87367" rx="7.87366" ry="7.87367" transform="matrix(-0.983847 -0.179013 -0.179012 0.983847 252.365 358.012)" fill="#040404"/>
<path d="M262.564 342.016L248.462 339.45L239.499 388.709L253.602 391.275L262.564 342.016Z" fill="#569EA3"/>
</g>
<g opacity="0.5">
<path d="M304.721 447.588L304.713 447.213L305.088 447.205C306.65 447.173 308.091 447.618 309.156 448.379C310.22 449.14 310.929 450.237 310.955 451.494C310.98 452.751 310.317 453.875 309.285 454.68C308.252 455.484 306.831 455.987 305.268 456.019L304.894 456.027L304.886 455.652L304.878 455.261L304.87 454.886L305.245 454.878C306.516 454.852 307.647 454.442 308.447 453.819C309.248 453.196 309.698 452.378 309.68 451.52C309.663 450.662 309.179 449.863 308.354 449.274C307.53 448.684 306.383 448.32 305.111 448.346L304.736 448.354L304.729 447.979L304.721 447.588Z" fill="#76D3D9" stroke="#76D3D9" stroke-width="0.75"/>
<path d="M309.94 451.318L309.932 450.943L310.307 450.936C311.869 450.904 313.31 451.348 314.374 452.11C315.439 452.871 316.148 453.967 316.173 455.224C316.199 456.482 315.536 457.606 314.503 458.41C313.471 459.214 312.05 459.718 310.487 459.75L310.112 459.757L310.105 459.382L310.097 458.991L310.089 458.616L310.464 458.608C311.735 458.582 312.866 458.172 313.666 457.549C314.466 456.926 314.917 456.109 314.899 455.25C314.882 454.392 314.398 453.594 313.573 453.004C312.748 452.414 311.602 452.051 310.33 452.077L309.955 452.085L309.948 451.71L309.94 451.318Z" fill="#76D3D9" stroke="#76D3D9" stroke-width="0.75"/>
<path d="M304.875 455.262L304.867 454.887L305.242 454.879C306.805 454.847 308.245 455.292 309.31 456.053C310.375 456.814 311.083 457.91 311.109 459.168C311.135 460.425 310.472 461.549 309.439 462.353C308.406 463.158 306.985 463.661 305.423 463.693L305.048 463.701L305.04 463.326L305.032 462.934L305.024 462.559L305.399 462.552C306.671 462.526 307.802 462.116 308.602 461.493C309.402 460.869 309.852 460.052 309.835 459.194C309.817 458.336 309.334 457.537 308.509 456.947C307.684 456.357 306.537 455.994 305.266 456.02L304.891 456.028L304.883 455.653L304.875 455.262Z" fill="#76D3D9" stroke="#76D3D9" stroke-width="0.75"/>
<path d="M310.094 458.992L310.086 458.617L310.461 458.609C312.023 458.577 313.464 459.022 314.529 459.783C315.593 460.545 316.302 461.641 316.328 462.898C316.353 464.155 315.69 465.28 314.658 466.084C313.625 466.888 312.204 467.391 310.642 467.423L310.267 467.431L310.259 467.056L310.251 466.665L310.243 466.29L310.618 466.282C311.89 466.256 313.02 465.846 313.82 465.223C314.621 464.6 315.071 463.782 315.053 462.924C315.036 462.066 314.552 461.268 313.727 460.678C312.903 460.088 311.756 459.725 310.484 459.751L310.11 459.758L310.102 459.383L310.094 458.992Z" fill="#76D3D9" stroke="#76D3D9" stroke-width="0.75"/>
</g>
<g opacity="0.5">
<path d="M280.23 421.413L280.473 421.128L280.759 421.371C281.948 422.384 282.73 423.673 283.02 424.95C283.311 426.226 283.113 427.516 282.297 428.473C281.481 429.43 280.239 429.831 278.933 429.746C277.627 429.662 276.23 429.094 275.041 428.081L274.755 427.837L274.998 427.552L275.252 427.254L275.496 426.969L275.781 427.212C276.749 428.037 277.867 428.481 278.879 428.547C279.891 428.612 280.77 428.3 281.327 427.647C281.884 426.993 282.053 426.075 281.827 425.086C281.602 424.098 280.986 423.064 280.018 422.24L279.733 421.996L279.976 421.711L280.23 421.413Z" fill="#76D3D9" stroke="#76D3D9" stroke-width="0.75"/>
<path d="M281.654 427.667L281.897 427.382L282.183 427.625C283.372 428.638 284.154 429.927 284.444 431.204C284.735 432.48 284.537 433.77 283.721 434.727C282.905 435.684 281.663 436.084 280.357 436C279.051 435.916 277.654 435.348 276.465 434.335L276.179 434.091L276.422 433.806L276.676 433.508L276.919 433.223L277.205 433.466C278.173 434.291 279.291 434.735 280.303 434.8C281.315 434.866 282.194 434.554 282.751 433.9C283.308 433.247 283.476 432.329 283.251 431.34C283.026 430.351 282.41 429.318 281.442 428.494L281.157 428.25L281.4 427.965L281.654 427.667Z" fill="#76D3D9" stroke="#76D3D9" stroke-width="0.75"/>
<path d="M275.252 427.253L275.495 426.967L275.78 427.211C276.97 428.224 277.752 429.513 278.042 430.79C278.332 432.066 278.134 433.356 277.319 434.313C276.503 435.27 275.261 435.67 273.954 435.586C272.648 435.502 271.252 434.934 270.062 433.92L269.777 433.677L270.02 433.392L270.274 433.094L270.517 432.808L270.803 433.052C271.77 433.877 272.888 434.321 273.9 434.386C274.912 434.452 275.792 434.14 276.349 433.486C276.905 432.833 277.074 431.915 276.849 430.926C276.624 429.937 276.008 428.904 275.04 428.079L274.755 427.836L274.998 427.551L275.252 427.253Z" fill="#76D3D9" stroke="#76D3D9" stroke-width="0.75"/>
<path d="M276.677 433.507L276.921 433.221L277.206 433.465C278.396 434.478 279.177 435.767 279.468 437.044C279.758 438.32 279.56 439.61 278.744 440.567C277.929 441.524 276.686 441.924 275.38 441.84C274.074 441.755 272.677 441.188 271.488 440.174L271.203 439.931L271.446 439.646L271.7 439.348L271.943 439.062L272.228 439.306C273.196 440.13 274.314 440.575 275.326 440.64C276.338 440.706 277.218 440.394 277.774 439.74C278.331 439.087 278.5 438.169 278.275 437.18C278.05 436.191 277.434 435.158 276.466 434.333L276.18 434.09L276.424 433.805L276.677 433.507Z" fill="#76D3D9" stroke="#76D3D9" stroke-width="0.75"/>
</g>
<path d="M301.746 422.711C291.743 417.69 279.391 401.03 274.465 393.328C267.746 405.895 247.654 406.097 238.448 404.627C243.316 407.647 239.835 428.957 237.486 439.234C254.766 424.567 267.276 434.155 271.371 440.783C270.528 423.31 291.27 421.455 301.746 422.711Z" fill="#5EBFC5"/>
<path d="M273.925 390.665C276.971 402.155 293.89 416.33 301.748 422.711C284.861 417.176 271.005 400.701 266.187 393.156C267.485 388.483 269.398 388.406 273.925 390.665Z" fill="#569EA3"/>
<path d="M268.312 433.555L263.712 406.454" stroke="#569EA3" stroke-width="3.75" stroke-linecap="round"/>
<path d="M249.67 433.594L260.253 406.85" stroke="#569EA3" stroke-width="3.75" stroke-linecap="round"/>
<path d="M288.373 420.666L265.139 403.713" stroke="#569EA3" stroke-width="3.75" stroke-linecap="round"/>
<path d="M203.829 366.523L221.522 389.955C222.172 395.784 220.175 405.818 235.767 408.655" stroke="#569EA3" stroke-width="3.75" stroke-linecap="round"/>
<ellipse cx="1.71605" cy="1.71606" rx="1.71605" ry="1.71606" transform="matrix(-0.983847 -0.179013 -0.179012 0.983847 218.211 333.74)" fill="#569EA3"/>
<path d="M385.274 401.868C381.021 394.946 355.467 402.349 343.222 406.916V461.717H351.681C416.853 462.519 546.569 463.64 544.056 461.717C541.542 459.795 537.369 458.833 535.597 458.593H509.979C514.41 455.869 519.405 450.421 503.937 450.421C484.603 450.421 492.337 451.622 490.162 442.248C487.987 432.874 417.176 445.133 429.018 442.248C440.86 439.364 416.692 420.376 409.2 413.886C403.207 408.694 390.752 416.049 385.274 420.376C387.046 417.091 389.528 408.79 385.274 401.868Z" fill="#5EBFC5" fill-opacity="0.1"/>
<path d="M364.897 403.871C374.899 403.871 381.711 416.13 382.681 419.542C393.518 418.286 397.88 427.857 398.707 432.799C413.187 427.333 423.014 435.794 426.117 440.707C444.657 441.033 447.504 444.06 446.611 445.533H430.643C434.909 449.813 434.822 459.411 434.246 463.675C440.541 464.21 441.557 467.29 441.278 468.763C460.44 462.948 475.895 472.62 481.227 478.183C483.668 477.96 490.197 478.101 496.792 480.45C503.387 482.799 501.673 484.569 499.991 485.16C497.224 484.09 485.253 483.997 479.613 484.085C460.544 483.224 457.467 485.335 458.313 486.498C464.279 486.498 469.093 489.318 466.845 490.248C464.596 491.178 439.837 491.324 441.278 490.248C442.72 489.172 450.07 487.312 449.262 486.498C448.455 485.684 415.338 484.201 415.338 485.16C415.338 486.12 417.067 487.312 420.785 487.312C423.76 487.312 424.695 488.649 424.792 489.318C404.846 491.207 393.23 490.51 381.931 489.318C370.633 488.126 341.781 488.3 341.781 487.021C343.625 484.788 347.622 484.075 349.39 483.997C348.007 482.602 308.692 482.485 305.118 482.369C301.544 482.253 298.2 482.951 298.431 483.997C298.661 485.044 301.774 484.695 305.118 485.393C307.792 485.951 306.885 486.711 306.098 487.021C306.098 487.021 259.75 485.509 257.213 485.451C254.677 485.393 256.089 483.183 256.089 483.183C261.047 483.183 265.111 479.985 267.59 479.985C269.573 479.985 274.123 479.074 276.15 478.619C279.402 470.06 288.612 466.873 292.81 466.35C287.76 462.698 292.954 460.293 296.182 459.547C295.26 442.475 304.109 436.336 310.277 435.27H303.187C292.81 435.823 292.061 433.264 296.182 432.276C300.304 431.287 313.534 431.607 313.534 431.607C317.685 416.163 330.136 415.171 335.843 416.605C338.91 409.697 345.076 409.637 347.776 410.471C350.474 405.028 357.72 403.871 364.897 403.871Z" fill="white"/>
<path d="M281.458 437.074C284.871 436.749 285.801 438.198 285.84 438.964C285.119 440.854 281.084 439.749 280.709 439.575C280.334 439.4 278.72 439.575 278.403 438.237C278.149 437.167 280.334 437.016 281.458 437.074Z" fill="white"/>
<path opacity="0.6" fill-rule="evenodd" clip-rule="evenodd" d="M382.747 419.454C381.802 417.245 379.952 414.076 379.087 412.768C378.558 414.153 376.504 417.431 372.976 419.454C369.448 421.478 364.723 421.286 362.802 420.937V421.664C370.734 421.455 373.159 425.279 373.38 427.217C375.248 421.565 380.403 419.687 382.747 419.454ZM345.162 420.937C342.672 420.239 339.013 416.227 337.495 414.308C337.08 413.8 336.284 415.647 335.939 416.634C336.653 416.89 337.274 418.136 337.495 418.728C330.462 418.146 326.744 419.958 325.764 420.937C317.301 426.589 316.243 433.739 316.771 436.608C310.43 436.026 306.212 439.06 304.954 441.056C298.612 446.028 296.335 453.587 296.335 459.518C288.588 461.471 290.648 464.848 292.646 466.292C282.708 468.106 277.475 475.188 276.102 478.502C271.703 479.653 269.037 479.871 267.587 479.989L267.587 479.989C267.023 480.034 266.643 480.065 266.417 480.131C266.058 480.234 265.492 480.488 264.765 480.814L264.765 480.814C263.858 481.22 262.7 481.74 261.373 482.224C259.459 482.922 257.04 483.115 256.069 483.125C255.101 485.009 256.473 485.48 257.28 485.48L286.132 486.352L306.02 487.079C308.902 485.963 304.07 485.102 301.293 484.811C299.823 484.763 297.252 484.375 298.728 483.212C300.204 482.049 310.834 482.243 315.964 482.486L335.391 482.893C344.568 482.893 348.515 483.648 349.341 484.026C344.799 484.422 342.414 486.226 341.79 487.079C343.861 487.999 357.951 488.277 366.808 488.452L367.932 488.475C372.851 488.573 378.693 489.068 384.434 489.554H384.434L384.434 489.554C388.886 489.931 393.278 490.303 397.13 490.481C404.186 490.806 418.459 489.802 424.714 489.26C424.483 487.719 422.61 487.486 420.708 487.486C418.805 487.486 417.162 487.079 415.26 485.8C413.358 484.521 422.61 484.811 423.59 484.899C423.895 484.926 425.371 484.975 427.464 485.046L427.465 485.046C432.095 485.202 439.745 485.46 444.429 485.8C449.871 486.195 449.848 486.817 449.156 487.079C447.878 487.699 444.683 489.12 442.123 489.841C439.564 490.562 442.594 490.781 444.429 490.8C449.857 490.859 461.164 490.94 462.962 490.8C464.761 490.661 466.652 490.103 467.372 489.841C466.727 487.329 461.012 486.585 458.235 486.527C458.12 484.924 460.543 484.639 463.36 484.307L463.36 484.307C464.069 484.224 464.803 484.137 465.528 484.026C467.862 483.668 474.711 483.799 481.032 483.919H481.032C484.466 483.984 487.743 484.047 490.056 484.026C495.314 483.98 498.876 484.763 500 485.16C501.015 484.904 501.499 483.968 501.614 483.532C496.426 482.834 485.22 481.421 481.899 481.352C478.579 481.282 472.061 478.144 469.217 476.584C457.734 470.374 444.525 471.186 439.356 472.368C439.195 469.205 437.31 467.484 436.387 467.018C433.528 465.832 430.296 466.524 429.037 467.018V467.891C435.062 471.089 432.612 478.241 432.006 478.793C431.732 479.043 431.246 478.781 430.815 478.549C430.292 478.267 429.849 478.029 429.96 478.793C430.121 479.91 429.086 480.421 428.548 480.538C425.895 481.225 423.777 478.742 422.939 477.759C422.784 477.578 422.673 477.448 422.61 477.398C422.287 477.142 422.744 475.411 423.013 474.578C423.613 476.066 424.897 475.469 425.463 474.985C426.639 474.612 426.338 472.697 426.04 471.787C421.105 462.553 412.166 460.458 408.314 460.564L407.535 459.169L408.804 458.18C410.372 453.273 420.708 455.912 421.371 460.361C425.06 459.896 427.692 463.869 428.548 465.914C429.793 464.332 432.736 463.665 434.053 463.53C430.663 463.53 428.97 461.417 428.548 460.361C429.401 452.267 424.637 447.975 422.149 446.842C414.954 434.352 400.743 435.203 394.536 437.189C387.411 422.908 373.044 429.301 366.751 434.282C363.107 427.374 356.47 424.29 353.607 423.612C354.587 423.379 356.403 421.722 356.72 420.937C356.974 420.309 356.096 419.687 355.625 419.454C352.858 421.112 348.275 421.809 345.162 420.937ZM310.286 435.241L313.226 434.107C305.703 433.555 295.673 433.462 293.943 433.555C293.818 434.117 294.571 435.241 298.584 435.241H310.286ZM320.116 469.344C320.962 468.83 322.878 467.745 323.777 467.512C324.676 467.28 327.63 467.415 328.994 467.512C330.752 464.188 336.522 458.081 345.538 460.244C346.941 454.982 353.788 445.707 369.952 450.708C370.797 449.429 373.958 447.638 379.838 450.708C385.718 453.778 385.478 457.86 384.623 459.517C387.688 462.085 392.999 468.646 389.724 474.345C393.241 473.676 400.504 474.589 401.427 483.59H400.014C398.66 481.022 394.509 476.199 388.744 477.455C386.938 478.018 383.585 477.979 384.623 473.327C385.382 469.383 384.104 461.64 372.92 462.221C372.344 459.469 369.133 454.307 360.901 455.679C352.669 457.052 349.766 461.368 349.343 463.355C344.347 462.415 333.623 462.471 330.694 470.216L320.116 469.344Z" fill="url(#paint18_linear_5004_1356)"/>
<path d="M393.8 459.881C400.842 459.881 405.638 468.512 406.321 470.914C413.951 470.03 417.023 476.769 417.604 480.249C427.8 476.4 434.719 482.357 436.904 485.816C449.957 486.046 451.962 488.177 451.333 489.214H440.09C443.093 492.228 443.033 498.985 442.627 501.988C447.059 502.364 447.775 504.533 447.578 505.57C461.07 501.476 471.951 508.286 475.706 512.202C477.424 512.045 482.021 512.145 486.664 513.799C491.308 515.453 490.101 516.699 488.917 517.115C486.969 516.362 478.54 516.296 474.569 516.358C461.143 515.752 458.977 517.238 459.572 518.057C463.773 518.057 467.162 520.042 465.579 520.697C463.996 521.352 446.564 521.455 447.578 520.697C448.593 519.94 453.768 518.63 453.2 518.057C452.632 517.484 429.314 516.44 429.314 517.115C429.314 517.791 430.531 518.63 433.149 518.63C435.244 518.63 435.903 519.571 435.97 520.042C421.927 521.373 413.748 520.882 405.793 520.042C397.838 519.203 377.524 519.326 377.524 518.425C378.823 516.853 381.637 516.351 382.881 516.296C381.907 515.314 354.226 515.232 351.71 515.15C349.194 515.068 346.839 515.559 347.002 516.296C347.164 517.033 349.356 516.788 351.71 517.279C353.593 517.672 352.955 518.207 352.4 518.425C352.4 518.425 319.767 517.361 317.982 517.32C316.196 517.279 317.19 515.723 317.19 515.723C320.681 515.723 323.542 513.471 325.287 513.471C326.684 513.471 329.887 512.83 331.315 512.509C333.604 506.483 340.088 504.239 343.045 503.871C339.489 501.3 343.146 499.606 345.419 499.081C344.77 487.061 351 482.739 355.343 481.988H350.35C343.045 482.377 342.517 480.576 345.419 479.88C348.321 479.184 357.636 479.409 357.636 479.409C360.558 468.536 369.325 467.837 373.343 468.847C375.503 463.983 379.844 463.941 381.745 464.528C383.645 460.696 388.746 459.881 393.8 459.881Z" fill="white"/>
<path d="M335.05 483.258C337.453 483.028 338.108 484.049 338.135 484.588C337.628 485.919 334.786 485.141 334.523 485.018C334.259 484.895 333.122 485.018 332.899 484.076C332.72 483.323 334.259 483.217 335.05 483.258Z" fill="white"/>
<path opacity="0.6" fill-rule="evenodd" clip-rule="evenodd" d="M406.358 470.855C405.692 469.299 404.389 467.068 403.78 466.146C403.408 467.122 401.962 469.43 399.478 470.855C396.994 472.279 393.667 472.144 392.314 471.899V472.41C397.899 472.263 399.607 474.955 399.762 476.32C401.077 472.341 404.707 471.018 406.358 470.855ZM379.895 471.899C378.141 471.407 375.565 468.582 374.496 467.231C374.204 466.873 373.644 468.174 373.401 468.869C373.904 469.049 374.341 469.927 374.496 470.343C369.545 469.933 366.927 471.209 366.237 471.899C360.279 475.878 359.533 480.912 359.905 482.932C355.44 482.523 352.471 484.658 351.585 486.064C347.12 489.564 345.517 494.886 345.517 499.062C340.062 500.438 341.512 502.815 342.919 503.832C335.922 505.109 332.238 510.096 331.27 512.429C328.174 513.24 326.296 513.392 325.276 513.476C324.878 513.508 324.611 513.53 324.452 513.576C324.199 513.648 323.801 513.827 323.288 514.057C322.65 514.343 321.835 514.709 320.9 515.049C319.553 515.541 317.849 515.677 317.166 515.684C316.484 517.01 317.45 517.342 318.019 517.342L338.333 517.956L352.335 518.468C354.365 517.682 350.962 517.076 349.007 516.871C347.972 516.837 346.162 516.564 347.201 515.745C348.24 514.927 355.725 515.063 359.337 515.234L373.015 515.52C379.477 515.52 382.255 516.052 382.837 516.319C379.639 516.597 377.96 517.867 377.52 518.468C378.979 519.115 388.899 519.311 395.135 519.435L395.927 519.45C399.39 519.52 403.503 519.868 407.545 520.21L407.545 520.21C410.68 520.476 413.772 520.738 416.484 520.863C421.452 521.092 431.502 520.385 435.906 520.003C435.743 518.918 434.424 518.754 433.085 518.754C431.745 518.754 430.589 518.468 429.249 517.567C427.91 516.667 434.424 516.871 435.114 516.933C435.329 516.952 436.368 516.987 437.842 517.036C441.102 517.146 446.489 517.328 449.787 517.567C453.618 517.846 453.602 518.284 453.115 518.468C452.215 518.905 449.965 519.905 448.163 520.413C446.361 520.92 448.495 521.074 449.787 521.088C453.609 521.129 461.569 521.186 462.836 521.088C464.102 520.99 465.433 520.597 465.941 520.413C465.486 518.644 461.462 518.12 459.508 518.079C459.426 516.951 461.133 516.75 463.115 516.516L463.116 516.516C463.615 516.458 464.132 516.397 464.642 516.319C466.286 516.066 471.108 516.158 475.558 516.243L475.559 516.243C477.976 516.289 480.283 516.333 481.912 516.319C485.614 516.286 488.122 516.837 488.913 517.117C489.628 516.937 489.969 516.278 490.05 515.971C486.397 515.479 478.507 514.484 476.169 514.435C473.831 514.386 469.242 512.177 467.239 511.078C459.154 506.706 449.854 507.278 446.215 508.11C446.101 505.883 444.774 504.671 444.125 504.344C442.112 503.508 439.836 503.996 438.95 504.344V504.958C443.191 507.209 441.466 512.245 441.04 512.634C440.847 512.81 440.505 512.626 440.201 512.462C439.833 512.264 439.521 512.096 439.599 512.634C439.713 513.42 438.984 513.78 438.605 513.862C436.737 514.346 435.246 512.598 434.656 511.906C434.547 511.778 434.469 511.686 434.424 511.651C434.197 511.471 434.519 510.253 434.708 509.666C435.13 510.714 436.034 510.294 436.433 509.952C437.261 509.69 437.049 508.342 436.839 507.701C433.365 501.199 427.071 499.724 424.358 499.799L423.811 498.817L424.703 498.121C425.807 494.665 433.085 496.524 433.552 499.656C436.149 499.328 438.003 502.126 438.605 503.566C439.481 502.452 441.554 501.983 442.481 501.887C440.094 501.887 438.902 500.4 438.605 499.656C439.205 493.957 435.852 490.936 434.1 490.137C429.034 481.343 419.028 481.943 414.658 483.341C409.641 473.286 399.526 477.787 395.095 481.294C392.53 476.431 387.857 474.259 385.841 473.782C386.531 473.618 387.809 472.451 388.032 471.899C388.211 471.456 387.593 471.018 387.261 470.855C385.313 472.021 382.086 472.513 379.895 471.899ZM355.339 481.97L357.409 481.171C352.112 480.783 345.05 480.717 343.832 480.783C343.744 481.178 344.275 481.97 347.1 481.97H355.339ZM362.262 505.982C362.857 505.62 364.206 504.856 364.839 504.692C365.472 504.528 367.552 504.624 368.512 504.692C369.75 502.352 373.813 498.051 380.161 499.574C381.149 495.869 385.969 489.339 397.35 492.86C397.945 491.96 400.171 490.699 404.311 492.86C408.451 495.022 408.282 497.896 407.68 499.063C409.837 500.871 413.577 505.49 411.272 509.502C413.747 509.032 418.861 509.674 419.511 516.012H418.516C417.563 514.204 414.64 510.808 410.582 511.693C409.31 512.088 406.949 512.061 407.68 508.786C408.214 506.009 407.314 500.557 399.44 500.966C399.034 499.029 396.774 495.394 390.978 496.361C385.182 497.327 383.137 500.366 382.84 501.765C379.322 501.103 371.771 501.142 369.71 506.596L362.262 505.982Z" fill="url(#paint19_linear_5004_1356)"/>
<path d="M332.695 2466.48L354.62 2460.27L365.841 2440.31L350.196 2424.59L354.293 2410.29L330.176 2404.34L323.25 2414.66L309.716 2422.64L288.284 2439.73L293.882 2456.33L332.695 2466.48Z" fill="#222B2B"/>
<path d="M342.115 2469.38L364.04 2463.18L375.261 2443.22L359.616 2427.49L355.098 2408.13L339.596 2407.24L332.67 2417.56L319.136 2425.55L297.704 2442.63L303.302 2459.24L342.115 2469.38Z" fill="#374242"/>
<path d="M395.135 2456.7L376.67 2469.8L372.596 2492.62L392.226 2502.62L402.64 2519.74L417.386 2515.55L420.541 2503.38L430.609 2491.31L442.38 2479.67L444.813 2468.25L434.589 2453.81L395.135 2456.7Z" fill="#273131"/>
<path d="M392.543 2468.87L374.078 2481.97L370.004 2504.79L389.634 2514.79L400.048 2531.91L414.794 2527.72L417.949 2515.55L428.017 2503.48L442.537 2480.1L431.997 2465.97L392.543 2468.87Z" fill="#4E6060"/>
<path d="M232.829 2403.55L252.237 2414.11L274.609 2407.26L275.692 2385.02L286.985 2367.78L277.174 2356.46L264.846 2359.22L249.79 2355.73L234.429 2350.52L223.072 2353.59L214.126 2369.43L232.829 2403.55Z" fill="#273131"/>
<path d="M244.929 2400.28L264.337 2410.84L286.708 2403.99L287.792 2381.74L299.084 2364.5L289.274 2353.18L276.946 2355.95L261.889 2352.46L234.749 2350.18L226.225 2366.16L244.929 2400.28Z" fill="#4E6060"/>
<rect x="-20" y="-13" width="416" height="2795" fill="black" fill-opacity="0.5"/>
</g>
<defs>
<linearGradient id="paint0_linear_5004_1356" x1="195" y1="0" x2="195" y2="2670" gradientUnits="userSpaceOnUse">
<stop stop-color="#F1DDD2"/>
<stop offset="1" stop-color="#9AC3BE"/>
</linearGradient>
<linearGradient id="paint1_linear_5004_1356" x1="-178" y1="4025" x2="-178" y2="-134" gradientUnits="userSpaceOnUse">
<stop stop-color="#98C8D3"/>
<stop offset="0.41" stop-color="#5EA6B7"/>
<stop offset="1" stop-color="#0A3147"/>
</linearGradient>
<linearGradient id="paint2_linear_5004_1356" x1="189.5" y1="1046" x2="189.5" y2="1329" gradientUnits="userSpaceOnUse">
<stop stop-color="#B3D689"/>
<stop offset="0.485" stop-color="#EAD1D0"/>
<stop offset="1" stop-color="#B7D6D6"/>
</linearGradient>
<linearGradient id="paint3_linear_5004_1356" x1="-14.4179" y1="2563.15" x2="515.825" y2="2979.65" gradientUnits="userSpaceOnUse">
<stop stop-color="#5EBFC5"/>
<stop offset="1" stop-color="#2D5C5F"/>
</linearGradient>
<linearGradient id="paint4_linear_5004_1356" x1="-14.2373" y1="2563.02" x2="515.845" y2="2979.28" gradientUnits="userSpaceOnUse">
<stop stop-color="#5EBFC5"/>
<stop offset="1" stop-color="#2D5C5F"/>
</linearGradient>
<linearGradient id="paint5_linear_5004_1356" x1="-83.9957" y1="2658.65" x2="649.663" y2="2898.51" gradientUnits="userSpaceOnUse">
<stop stop-color="#F4F5DC"/>
<stop offset="1" stop-color="#DDE6CD"/>
</linearGradient>
<linearGradient id="paint6_linear_5004_1356" x1="44.2811" y1="2378.29" x2="-63.0653" y2="2536.56" gradientUnits="userSpaceOnUse">
<stop stop-color="#5EBFC5"/>
<stop offset="1" stop-color="#2D5C5F"/>
</linearGradient>
<linearGradient id="paint7_linear_5004_1356" x1="44.2792" y1="2378.29" x2="-63.0672" y2="2536.56" gradientUnits="userSpaceOnUse">
<stop stop-color="#5EBFC5"/>
<stop offset="1" stop-color="#2D5C5F"/>
</linearGradient>
<linearGradient id="paint8_linear_5004_1356" x1="25.4232" y1="2429.74" x2="-4.92793" y2="2546.33" gradientUnits="userSpaceOnUse">
<stop stop-color="#DAE4CB"/>
<stop offset="1" stop-color="#FCFAE1"/>
</linearGradient>
<linearGradient id="paint9_linear_5004_1356" x1="141.109" y1="2486.56" x2="137.176" y2="2508.5" gradientUnits="userSpaceOnUse">
<stop stop-color="#5EBFC5"/>
<stop offset="1" stop-color="#2D5C5F"/>
</linearGradient>
<linearGradient id="paint10_linear_5004_1356" x1="38.7604" y1="281.249" x2="-101.716" y2="370.407" gradientUnits="userSpaceOnUse">
<stop offset="0.0484235" stop-color="#F9DFD4"/>
<stop offset="0.552395" stop-color="#AFD0D0"/>
</linearGradient>
<linearGradient id="paint11_linear_5004_1356" x1="52.1791" y1="322.473" x2="-46.7277" y2="385.247" gradientUnits="userSpaceOnUse">
<stop offset="0.0484235" stop-color="#F9DFD4"/>
<stop offset="0.552395" stop-color="#AFD0D0"/>
</linearGradient>
<linearGradient id="paint12_linear_5004_1356" x1="300.422" y1="213.629" x2="450.352" y2="308.787" gradientUnits="userSpaceOnUse">
<stop offset="0.0484235" stop-color="#F9DFD4"/>
<stop offset="0.552395" stop-color="#AFD0D0"/>
</linearGradient>
<linearGradient id="paint13_linear_5004_1356" x1="286.093" y1="257.62" x2="391.657" y2="324.619" gradientUnits="userSpaceOnUse">
<stop offset="0.0484235" stop-color="#F9DFD4"/>
<stop offset="0.552395" stop-color="#AFD0D0"/>
</linearGradient>
<linearGradient id="paint14_linear_5004_1356" x1="333.876" y1="249.571" x2="387.799" y2="456.251" gradientUnits="userSpaceOnUse">
<stop stop-color="#5EBFC5"/>
<stop offset="1" stop-color="#4A6A65"/>
</linearGradient>
<linearGradient id="paint15_linear_5004_1356" x1="333.873" y1="249.569" x2="387.795" y2="456.25" gradientUnits="userSpaceOnUse">
<stop stop-color="#5EBFC5"/>
<stop offset="1" stop-color="#4A6A65"/>
</linearGradient>
<linearGradient id="paint16_linear_5004_1356" x1="284.812" y1="410.908" x2="369.869" y2="499.437" gradientUnits="userSpaceOnUse">
<stop stop-color="#5EBFC5"/>
<stop offset="1" stop-color="#2D5C5F"/>
</linearGradient>
<linearGradient id="paint17_linear_5004_1356" x1="284.81" y1="410.908" x2="369.867" y2="499.437" gradientUnits="userSpaceOnUse">
<stop stop-color="#5EBFC5"/>
<stop offset="1" stop-color="#2D5C5F"/>
</linearGradient>
<linearGradient id="paint18_linear_5004_1356" x1="408.137" y1="425.895" x2="239.466" y2="532.946" gradientUnits="userSpaceOnUse">
<stop offset="0.0484235" stop-color="#F9DFD4"/>
<stop offset="0.552395" stop-color="#AFD0D0"/>
</linearGradient>
<linearGradient id="paint19_linear_5004_1356" x1="424.234" y1="475.389" x2="305.476" y2="550.762" gradientUnits="userSpaceOnUse">
<stop offset="0.0484235" stop-color="#F9DFD4"/>
<stop offset="0.552395" stop-color="#AFD0D0"/>
</linearGradient>
<clipPath id="clip0_5004_1356">
<rect width="390" height="2670" fill="white"/>
</clipPath>
</defs>
</svg>
