<svg width="678" height="676" viewBox="0 0 678 676" fill="none" xmlns="http://www.w3.org/2000/svg">
<g clip-path="url(#clip0_1_2522)">
<path d="M504.202 147.711C504.202 147.711 504.202 147.347 504.202 147.164C504.202 120.528 482.672 99 456.034 99C429.396 99 407.866 120.528 407.866 147.164C407.866 173.8 429.396 195.328 456.034 195.328C464.062 195.328 471.542 193.139 478.293 189.673C483.219 196.058 490.7 200.072 499.275 200.072C513.872 200.072 525.731 188.213 525.731 173.618C525.731 160.665 516.426 149.901 504.202 147.529V147.711Z" fill="#FFE0C4" fill-opacity="0.54"/>
<path d="M295.293 586.113C295.293 586.113 295.293 586.478 295.475 586.66C308.429 609.83 337.804 618.04 361.158 605.087C384.512 592.133 392.54 562.76 379.586 539.408C366.632 516.056 337.257 508.028 313.903 520.982C306.97 524.995 301.496 530.469 297.299 536.854C290.001 533.753 281.427 533.752 273.946 537.949C261.174 545.064 256.612 561.301 263.91 574.072C270.296 585.383 283.616 590.126 295.475 586.113H295.293Z" fill="#FFE0C4" fill-opacity="0.54"/>
<path d="M339.994 572.979C470.889 572.979 577 466.876 577 335.99C577 205.104 470.889 99 339.994 99C209.1 99 102.989 205.104 102.989 335.99C102.989 466.876 209.1 572.979 339.994 572.979Z" fill="#ECC581"/>
<g style="mix-blend-mode:multiply">
<path d="M339.994 99C470.889 99 577 205.104 577 335.99C577 466.876 470.889 572.979 339.994 572.979C338.051 572.979 336.114 572.955 334.182 572.908C441.939 386.832 444.226 274.126 331.432 99.1523C334.273 99.0514 337.128 99 339.994 99Z" fill="#F8E3BF"/>
</g>
<path d="M203.338 122.718C193.668 122.718 185.275 128.191 181.078 136.401C175.24 133.299 168.672 131.475 161.738 131.475C138.749 131.475 120.14 150.084 120.14 173.071C120.14 176.355 120.686 179.639 121.416 182.741C103.536 186.754 90.2173 202.627 90.2173 221.6C90.2173 230.175 92.9536 238.202 97.6974 244.588C87.6625 247.142 80 255.717 80 266.481C80 279.251 90.4 289.468 102.989 289.468C115.578 289.468 125.977 279.069 125.977 266.481C125.977 264.474 125.247 262.649 124.883 260.825C126.525 261.007 128.35 261.372 129.992 261.372C152.069 261.372 169.766 243.493 169.766 221.6C169.766 219.046 169.402 216.492 169.037 213.938C188.559 210.471 203.338 193.505 203.338 173.071C217.205 173.071 228.516 161.76 228.516 147.895C228.516 134.029 217.205 122.718 203.338 122.718Z" fill="#FFE0C4" fill-opacity="0.54"/>
<path d="M441.253 553.278C448.004 554.19 454.207 551.271 457.856 545.981C461.505 548.717 465.884 550.724 470.81 551.271C486.684 553.461 501.462 542.514 503.652 526.642C504.017 524.27 504.017 522.081 503.652 519.892C516.423 518.979 527.188 509.31 529.013 496.174C529.925 490.154 528.648 484.498 526.094 479.572C533.21 478.843 539.413 473.552 540.507 466.072C541.785 457.315 535.581 449.105 526.823 447.828C518.066 446.551 509.855 452.754 508.578 461.511C508.396 462.97 508.578 464.247 508.761 465.524C507.666 465.16 506.389 464.795 505.294 464.612C490.151 462.423 476.101 473.005 473.912 488.147C473.729 489.972 473.547 491.796 473.729 493.438C459.863 493.985 448.004 504.202 445.997 518.25C436.327 516.973 427.569 523.54 426.109 533.21C424.65 542.879 431.401 551.636 441.071 553.096L441.253 553.278Z" fill="#FFE0C4" fill-opacity="0.54"/>
<path d="M293.834 238.753C280.515 241.49 249.133 249.882 249.498 263.2C246.214 263.018 242.748 263.018 239.464 263.565C221.036 267.214 208.629 284.181 209.906 302.425C204.068 302.06 198.229 302.242 192.39 303.337C156.265 310.634 132.729 345.298 138.932 381.604C124.701 392.185 117.038 410.247 120.687 428.856C122.876 440.167 129.262 449.654 137.655 456.404C126.525 464.614 142.764 482.311 145.683 496.906C149.697 516.974 169.219 529.928 189.106 525.914C208.994 521.9 214.103 510.589 210.089 490.52C208.812 484.135 203.703 466.803 199.689 462.06C210.454 456.952 218.846 448.012 223.225 437.065C225.779 436.883 228.334 436.883 231.07 436.336C267.743 429.038 291.645 393.28 284.347 356.609C282.705 348.035 279.238 340.19 274.677 333.075C289.638 325.959 298.396 309.54 295.111 292.573C294.929 291.296 304.599 293.85 304.234 292.573L294.382 288.924C309.161 286.005 329.048 275.241 326.129 260.281C323.209 245.321 308.795 235.834 293.834 238.753Z" fill="#FFE0C4" fill-opacity="0.54"/>
<path d="M499.095 245.137C525.697 245.137 547.263 266.702 547.263 293.302C547.262 319.902 525.697 341.466 499.095 341.466L499.093 341.465C499.092 356.075 487.248 367.918 472.638 367.918C458.027 367.918 446.183 356.074 446.183 341.464C446.183 332.079 451.071 323.836 458.439 319.14C453.684 311.674 450.927 302.81 450.927 293.302C450.927 266.702 472.493 245.137 499.095 245.137Z" fill="#FFE0C4" fill-opacity="0.54"/>
<path d="M431.586 426.848C442.267 426.848 450.926 418.19 450.926 407.509C450.926 396.829 442.267 388.171 431.586 388.171C420.905 388.171 412.246 396.829 412.246 407.509C412.246 418.19 420.905 426.848 431.586 426.848Z" fill="#FFE0C4" fill-opacity="0.54"/>
<path d="M331.4 359.431C331.4 354.764 332.133 350.631 333.6 347.031C335.2 343.431 337.133 340.231 339.4 337.431C341.8 334.631 344.333 332.031 347 329.631C349.667 327.231 352.133 324.964 354.4 322.831C356.8 320.564 358.733 318.231 360.2 315.831C361.8 313.431 362.6 310.764 362.6 307.831C362.6 303.031 360.6 299.164 356.6 296.231C352.733 293.297 347.533 291.831 341 291.831C334.733 291.831 329.133 293.164 324.2 295.831C319.267 298.364 315.2 301.964 312 306.631L287.8 292.431C293.133 284.297 300.533 277.831 310 273.031C319.467 268.097 330.933 265.631 344.4 265.631C354.4 265.631 363.2 267.097 370.8 270.031C378.4 272.831 384.333 276.964 388.6 282.431C393 287.897 395.2 294.631 395.2 302.631C395.2 307.831 394.4 312.431 392.8 316.431C391.2 320.431 389.133 323.897 386.6 326.831C384.067 329.764 381.333 332.497 378.4 335.031C375.6 337.564 372.933 340.031 370.4 342.431C367.867 344.831 365.733 347.364 364 350.031C362.4 352.697 361.6 355.831 361.6 359.431H331.4ZM346.6 409.631C341 409.631 336.4 407.831 332.8 404.231C329.2 400.631 327.4 396.364 327.4 391.431C327.4 386.364 329.2 382.164 332.8 378.831C336.4 375.364 341 373.631 346.6 373.631C352.333 373.631 356.933 375.364 360.4 378.831C364 382.164 365.8 386.364 365.8 391.431C365.8 396.364 364 400.631 360.4 404.231C356.933 407.831 352.333 409.631 346.6 409.631Z" fill="white"/>
</g>
<defs>
<clipPath id="clip0_1_2522">
<rect width="497" height="513" fill="white" transform="translate(80 99)"/>
</clipPath>
</defs>
</svg>
