<svg width="678" height="676" viewBox="0 0 678 676" fill="none" xmlns="http://www.w3.org/2000/svg">
<g clip-path="url(#clip0_1_2517)">
<path d="M572.013 402.617C549.738 493.753 475.673 564.285 382.861 581.919C368.568 560.944 360.215 535.516 360.215 508.045C360.215 434.914 419.43 375.889 492.38 375.889C522.451 375.889 549.923 385.727 572.013 402.617Z" fill="#66A53C"/>
<path d="M471.219 139.972L455.812 134.59L474.003 238.904C482.913 289.576 467.32 341.547 432.237 379.226L390.843 423.402L552.709 397.045L569.044 357.51C580.738 329.111 584.265 298.114 579.253 268.045C569.415 208.834 528.021 159.833 471.405 140.158L471.219 139.972Z" fill="#66A53C"/>
<path d="M523.008 282.154C533.875 282.154 542.684 273.345 542.684 262.479C542.684 251.612 533.875 242.804 523.008 242.804C512.141 242.804 503.332 251.612 503.332 262.479C503.332 273.345 512.141 282.154 523.008 282.154Z" fill="#1A6235"/>
<path d="M457.67 503.588C468.537 503.588 477.346 494.779 477.346 483.913C477.346 473.047 468.537 464.238 457.67 464.238C446.803 464.238 437.994 473.047 437.994 483.913C437.994 494.779 446.803 503.588 457.67 503.588Z" fill="#0F4924"/>
<path d="M579.068 344.89C579.068 364.75 576.655 384.24 572.014 402.615C549.739 493.751 475.675 564.283 382.863 581.916C368.384 584.515 353.349 586 338.128 586C303.601 586 270.931 578.761 241.231 565.768C211.345 552.59 184.43 533.472 162.526 509.899C121.874 466.837 97 408.74 97 344.89C97 211.806 204.849 103.965 338.128 103.965C471.406 103.965 579.068 211.806 579.068 344.89Z" fill="url(#paint0_linear_1_2517)"/>
<path d="M392.887 113.248C405.881 144.245 333.302 138.306 259.795 169.303C186.287 200.3 139.696 256.355 126.702 225.358C113.708 194.361 162.714 144.245 236.035 113.248C309.543 82.2508 379.709 82.2508 392.703 113.248H392.887Z" fill="#66A53C"/>
<path d="M264.622 129.956C295.25 143.692 190.929 209.398 196.498 288.84C203.366 383.503 177.193 407.261 146.565 393.526C115.937 379.79 117.422 309.629 149.906 236.869C182.391 164.109 233.808 116.221 264.436 129.956H264.622Z" fill="#66A53C"/>
<path d="M187.399 201.227C198.266 201.227 207.076 192.418 207.076 181.552C207.076 170.686 198.266 161.877 187.399 161.877C176.533 161.877 167.722 170.686 167.722 181.552C167.722 192.418 176.533 201.227 187.399 201.227Z" fill="#1A6235"/>
<path d="M258.122 528.462C258.122 543.311 251.625 556.675 241.23 565.77C211.344 552.591 184.429 533.473 162.525 509.9C169.95 491.71 187.77 478.903 208.56 478.903C235.847 478.903 258.122 501.177 258.122 528.462Z" fill="#66A53C"/>
<path fill-rule="evenodd" clip-rule="evenodd" d="M338.112 103.962V146.007C339.207 145.762 340.291 145.519 341.364 145.279C377.337 137.22 400.74 131.978 392.887 113.244H392.703C386.286 97.9379 365.929 90.1899 338.112 90.0001V103.962Z" fill="#66A53C"/>
<path d="M572.013 402.614C549.738 493.749 475.673 564.282 382.861 581.915C368.568 560.941 360.215 535.512 360.215 508.041C360.215 434.91 419.43 375.885 492.38 375.885C522.451 375.885 549.923 385.723 572.013 402.614Z" fill="#66A53C"/>
<path d="M471.219 139.969L455.812 134.586L474.003 238.9C482.913 289.572 467.32 341.543 432.237 379.223L390.843 423.398L552.709 397.041L569.044 357.506C580.738 329.107 584.265 298.11 579.253 268.041C569.415 208.831 528.021 159.829 471.405 140.154L471.219 139.969Z" fill="#66A53C"/>
<path d="M523.008 282.15C533.875 282.15 542.684 273.341 542.684 262.475C542.684 251.609 533.875 242.8 523.008 242.8C512.141 242.8 503.332 251.609 503.332 262.475C503.332 273.341 512.141 282.15 523.008 282.15Z" fill="#104C26"/>
<path d="M457.67 503.584C468.537 503.584 477.346 494.775 477.346 483.909C477.346 473.043 468.537 464.234 457.67 464.234C446.803 464.234 437.994 473.043 437.994 483.909C437.994 494.775 446.803 503.584 457.67 503.584Z" fill="#104C26"/>
<g style="mix-blend-mode:multiply">
<path d="M338.113 90.0001C363.726 90.1749 383.016 96.7588 390.919 109.751C414.039 114.907 435.896 123.378 455.968 134.64L471.219 139.969L471.406 140.154C528.021 159.829 569.415 208.831 579.253 268.041C582.49 287.459 582.163 307.264 578.378 326.506C578.835 332.574 579.069 338.705 579.069 344.89C579.069 364.75 576.656 384.24 572.015 402.615C549.74 493.751 475.675 564.283 382.863 581.916C368.384 584.515 353.349 586 338.128 586C332.326 586 326.575 585.796 320.883 585.394C466.948 373.896 489.467 287.22 327.638 90.2706C331.232 90.0699 334.728 89.9809 338.113 90.004V90.0001Z" fill="#7FCB88"/>
</g>
<path d="M226 294.258C226 271.472 244.472 253 267.258 253H352.024C362.382 253 370.778 261.396 370.778 271.754V402.279C370.778 412.636 362.382 421.032 352.024 421.032H342.853C341.883 421.032 340.956 421.43 340.288 422.132L340.111 422.317C338.759 423.737 336.476 423.677 335.199 422.189C334.57 421.455 333.652 421.032 332.686 421.032H276.978C275.92 421.032 274.909 421.466 274.18 422.231C272.731 423.753 270.33 423.837 268.778 422.42L268.482 422.15C267.694 421.431 266.667 421.032 265.601 421.032H244.754C234.396 421.032 226 412.636 226 402.279V294.258Z" fill="#EDE2F6"/>
<path d="M352.024 253C362.381 253 370.778 261.397 370.778 271.754V402.278C370.778 412.636 362.381 421.032 352.024 421.032H342.853C341.884 421.032 340.956 421.43 340.288 422.132L340.111 422.317C338.759 423.737 336.476 423.677 335.2 422.188C334.571 421.455 333.652 421.032 332.685 421.032H276.977C275.986 421.032 275.036 421.413 274.32 422.092L274.042 422.37C272.734 423.612 270.755 423.769 269.275 422.804L277.384 415.969H350.524C356.338 415.969 362.339 409.968 365.527 404.529C368.715 399.091 365.527 286.568 365.527 280.567C365.527 274.623 359.64 268.127 354.243 262.173L354.088 262.002C351.432 259.071 343.283 255.713 335.29 253H352.024Z" fill="url(#paint1_linear_1_2517)"/>
<path d="M266.883 306.26C264.257 301.759 264.445 271.754 266.883 266.127C271.379 255.752 353.471 256.6 359.338 263.689C363.839 269.128 362.526 298.759 359.338 306.26C356.15 313.762 269.508 310.761 266.883 306.26Z" fill="url(#paint2_radial_1_2517)"/>
<path d="M286.762 267.441C286.762 261.537 281.976 256.751 276.073 256.751C270.169 256.751 265.383 261.537 265.383 267.441V290.695C265.383 296.599 270.169 301.385 276.073 301.385C281.976 301.385 286.762 296.599 286.762 290.695V267.441Z" fill="#F2F2F2"/>
<path d="M275.509 265.378C275.509 263.513 273.998 262.002 272.134 262.002C270.269 262.002 268.758 263.513 268.758 265.378V292.758C268.758 294.622 270.269 296.134 272.134 296.134C273.998 296.134 275.509 294.622 275.509 292.758V265.378Z" fill="#E8E8E8"/>
<path d="M283.761 265.378C283.761 263.513 282.25 262.002 280.386 262.002C278.521 262.002 277.01 263.513 277.01 265.378V292.758C277.01 294.622 278.521 296.134 280.386 296.134C282.25 296.134 283.761 294.622 283.761 292.758V265.378Z" fill="#E8E8E8"/>
<path d="M307.766 281.506C310.045 281.506 311.892 279.659 311.892 277.38C311.892 275.101 310.045 273.254 307.766 273.254C305.487 273.254 303.64 275.101 303.64 277.38C303.64 279.659 305.487 281.506 307.766 281.506Z" fill="#2B1847"/>
<path d="M306.266 278.505C305.437 277.884 305.269 276.709 305.89 275.88C306.51 275.051 307.686 274.882 308.515 275.503C309.344 276.124 307.411 275.726 306.79 276.555C306.169 277.384 307.095 279.126 306.266 278.505Z" fill="#AD96CD"/>
<path d="M307.766 290.882C310.045 290.882 311.892 289.035 311.892 286.756C311.892 284.477 310.045 282.63 307.766 282.63C305.487 282.63 303.64 284.477 303.64 286.756C303.64 289.035 305.487 290.882 307.766 290.882Z" fill="#2B1847"/>
<path d="M305.728 288.121C304.989 287.395 304.979 286.208 305.704 285.469C306.43 284.73 307.618 284.719 308.356 285.445C309.095 286.171 307.099 285.387 306.373 286.126C305.647 286.865 306.467 288.847 305.728 288.121Z" fill="#AD96CD"/>
<path d="M317.893 409.78C345.858 409.78 368.528 387.11 368.528 359.145C368.528 331.18 345.858 308.51 317.893 308.51C289.928 308.51 267.258 331.18 267.258 359.145C267.258 387.11 289.928 409.78 317.893 409.78Z" fill="url(#paint3_radial_1_2517)"/>
<path d="M316.392 405.092C343.839 405.092 366.089 382.842 366.089 355.395C366.089 327.948 343.839 305.698 316.392 305.698C288.945 305.698 266.695 327.948 266.695 355.395C266.695 382.842 288.945 405.092 316.392 405.092Z" fill="#EDE2F6" stroke="#C3AAD7" stroke-width="1.87536"/>
<path d="M316.392 371.898C325.506 371.898 332.895 364.509 332.895 355.395C332.895 346.281 325.506 338.892 316.392 338.892C307.278 338.892 299.889 346.281 299.889 355.395C299.889 364.509 307.278 371.898 316.392 371.898Z" fill="#2B1847" stroke="white" stroke-width="0.750145"/>
<path d="M316.392 366.272C322.399 366.272 327.269 361.402 327.269 355.395C327.269 349.388 322.399 344.518 316.392 344.518C310.385 344.518 305.515 349.388 305.515 355.395C305.515 361.402 310.385 366.272 316.392 366.272Z" fill="#442E62" stroke="#6B4F92" stroke-width="0.750145"/>
<path d="M312.493 353.651C310.81 356.978 315.616 362.798 312.289 361.114C308.962 359.431 307.63 355.369 309.314 352.042C310.997 348.715 315.059 347.383 318.386 349.066C321.713 350.75 314.177 350.324 312.493 353.651Z" fill="url(#paint4_linear_1_2517)"/>
<path d="M316.392 388.401C334.828 388.401 349.773 373.456 349.773 355.02C349.773 336.584 334.828 321.639 316.392 321.639C297.956 321.639 283.011 336.584 283.011 355.02C283.011 373.456 297.956 388.401 316.392 388.401Z" stroke="url(#paint5_linear_1_2517)" stroke-width="0.750145"/>
<path d="M316.392 395.449C338.72 395.449 356.821 377.348 356.821 355.02C356.821 332.692 338.72 314.591 316.392 314.591C294.064 314.591 275.963 332.692 275.963 355.02C275.963 377.348 294.064 395.449 316.392 395.449Z" stroke="url(#paint6_linear_1_2517)" stroke-width="0.908508"/>
<path d="M258.444 302.322V275.692L250.755 280.755V294.633L258.444 302.322Z" fill="url(#paint7_linear_1_2517)"/>
<path d="M236.314 275.692L240.253 280.568H251.13L258.444 275.692H236.314Z" fill="url(#paint8_linear_1_2517)"/>
<path d="M236.314 302.134H258.256L251.505 295.196H240.253L236.314 302.134Z" fill="#ECDFF2"/>
<path d="M236.502 275.692V302.134L240.253 295.383V280.568L236.502 275.692Z" fill="url(#paint9_linear_1_2517)"/>
<path d="M251.88 280.005H239.878V295.758H251.88V280.005Z" fill="#2B1847"/>
<path d="M249.254 283.381H242.503V292.383H249.254V283.381Z" fill="#442E62"/>
<path d="M247.38 286.006H244.754V289.757H247.38V286.006Z" fill="#AD96CD"/>
<path d="M244.352 319.949C247.053 313.498 256.48 317.261 260.855 319.949V418.593C257.167 416.28 248.703 410.154 244.352 404.153C238.914 396.652 240.977 328.013 244.352 319.949Z" fill="url(#paint10_linear_1_2517)"/>
<path d="M246.066 327.64C249.898 327.64 253.005 324.533 253.005 320.701C253.005 316.869 249.898 313.762 246.066 313.762C242.234 313.762 239.127 316.869 239.127 320.701C239.127 324.533 242.234 327.64 246.066 327.64Z" stroke="url(#paint11_linear_1_2517)" stroke-width="0.750145"/>
<path d="M246.066 331.014C251.763 331.014 256.38 326.397 256.38 320.7C256.38 315.003 251.763 310.385 246.066 310.385C240.369 310.385 235.751 315.003 235.751 320.7C235.751 326.397 240.369 331.014 246.066 331.014Z" stroke="#B699D1" stroke-width="0.750145"/>
<path d="M288.388 348.643H295.017C296.123 348.643 297.062 349.444 297.204 350.525C297.695 354.26 297.684 357.073 297.19 360.989C297.052 362.082 296.107 362.896 294.992 362.896H288.376C287.356 362.896 286.467 362.215 286.244 361.24C285.345 357.307 285.327 354.44 286.251 350.313C286.471 349.332 287.364 348.643 288.388 348.643Z" fill="url(#paint12_linear_1_2517)" stroke="#DCCAEA" stroke-width="0.750145"/>
<path d="M241.003 414.656C238.065 414.281 232.114 411.543 231.814 403.591C231.514 395.64 231.689 362.396 231.814 346.768" stroke="url(#paint13_linear_1_2517)" stroke-width="1.12522" stroke-linecap="round"/>
<path d="M341.579 274.51H340.852V273.796H341.579V274.51ZM341.561 278.129H340.87V275.086H341.561V278.129ZM344 275.668C343.9 275.668 343.786 275.692 343.658 275.74C343.53 275.788 343.378 275.882 343.202 276.022V278.129H342.511V275.086H343.166V275.494C343.354 275.33 343.532 275.212 343.7 275.14C343.868 275.064 344.038 275.026 344.21 275.026C344.502 275.026 344.724 275.12 344.876 275.308C345.028 275.492 345.104 275.752 345.104 276.088V278.129H344.414V276.172C344.414 275.836 344.276 275.668 344 275.668ZM346.868 277.588C347.016 277.588 347.138 277.564 347.234 277.516C347.33 277.464 347.378 277.388 347.378 277.288C347.378 277.2 347.346 277.132 347.282 277.084C347.222 277.032 347.112 276.986 346.952 276.946L346.61 276.856C346.346 276.788 346.15 276.674 346.022 276.514C345.898 276.354 345.836 276.164 345.836 275.944C345.836 275.684 345.926 275.466 346.106 275.29C346.286 275.114 346.564 275.026 346.94 275.026C347.092 275.026 347.252 275.044 347.42 275.08C347.588 275.116 347.764 275.174 347.948 275.254L347.75 275.842C347.582 275.762 347.43 275.706 347.294 275.674C347.158 275.642 347.038 275.626 346.934 275.626C346.65 275.626 346.508 275.722 346.508 275.914C346.508 275.99 346.532 276.05 346.58 276.094C346.632 276.138 346.726 276.178 346.862 276.214L347.204 276.304C347.496 276.38 347.708 276.496 347.84 276.652C347.976 276.808 348.044 277.004 348.044 277.24C348.044 277.52 347.948 277.749 347.756 277.925C347.568 278.101 347.27 278.189 346.862 278.189C346.514 278.189 346.148 278.109 345.764 277.949L345.95 277.378C346.138 277.454 346.308 277.508 346.46 277.54C346.612 277.572 346.748 277.588 346.868 277.588ZM350.583 278.027C350.479 278.075 350.359 278.113 350.223 278.141C350.087 278.173 349.949 278.189 349.809 278.189C349.577 278.189 349.391 278.141 349.251 278.045C349.111 277.949 349.009 277.815 348.945 277.643C348.885 277.47 348.855 277.274 348.855 277.054V275.686H348.363V275.086H348.855V274.294H349.545V275.086H350.493V275.686H349.545V277.054C349.545 277.238 349.579 277.366 349.647 277.438C349.719 277.506 349.821 277.54 349.953 277.54C350.017 277.54 350.085 277.534 350.157 277.522C350.233 277.506 350.317 277.48 350.409 277.444L350.583 278.027ZM353.443 278.159C353.238 278.159 353.074 278.117 352.95 278.033C352.83 277.949 352.742 277.845 352.686 277.721C352.514 277.881 352.348 277.999 352.188 278.075C352.028 278.151 351.856 278.189 351.672 278.189C351.404 278.189 351.206 278.103 351.078 277.931C350.954 277.759 350.892 277.54 350.892 277.276C350.892 277.1 350.924 276.946 350.988 276.814C351.056 276.678 351.166 276.572 351.318 276.496C351.47 276.42 351.678 276.382 351.942 276.382C352.046 276.382 352.154 276.39 352.266 276.406C352.378 276.418 352.49 276.434 352.602 276.454V276.1C352.602 275.932 352.556 275.818 352.464 275.758C352.372 275.694 352.248 275.662 352.092 275.662C351.972 275.662 351.84 275.678 351.696 275.71C351.556 275.742 351.404 275.792 351.24 275.86L351.042 275.272C351.446 275.108 351.812 275.026 352.14 275.026C352.436 275.026 352.664 275.076 352.824 275.176C352.988 275.276 353.102 275.408 353.166 275.572C353.23 275.736 353.262 275.912 353.262 276.1V277.27C353.262 277.33 353.278 277.388 353.31 277.444C353.347 277.496 353.415 277.522 353.515 277.522H353.581V278.159H353.443ZM351.558 277.264C351.558 277.372 351.582 277.458 351.63 277.522C351.678 277.582 351.748 277.613 351.84 277.613C351.932 277.613 352.036 277.588 352.152 277.54C352.268 277.492 352.418 277.38 352.602 277.204V276.946C352.394 276.91 352.19 276.892 351.99 276.892C351.834 276.892 351.722 276.924 351.654 276.988C351.59 277.052 351.558 277.144 351.558 277.264ZM355.788 278.129L355.158 277.108L354.54 278.129H353.82L354.804 276.568L353.886 275.086H354.63L355.194 275.992L355.74 275.086H356.46L355.542 276.538L356.532 278.129H355.788Z" fill="#CFBAE1"/>
<path d="M342.491 281.242H340.648V280.638H343.31V281.211H342.959C343.102 281.375 343.205 281.527 343.268 281.667C343.331 281.807 343.363 281.951 343.363 282.098C343.363 282.424 343.219 282.646 342.932 282.765C343.086 282.94 343.197 283.103 343.263 283.253C343.33 283.404 343.363 283.556 343.363 283.71C343.363 283.955 343.281 284.142 343.116 284.272C342.955 284.401 342.727 284.466 342.433 284.466H340.648V283.862H342.36C342.654 283.862 342.801 283.75 342.801 283.526C342.801 283.439 342.78 283.343 342.738 283.237C342.696 283.132 342.614 283.005 342.491 282.854H340.648V282.25H342.36C342.654 282.25 342.801 282.138 342.801 281.914C342.801 281.827 342.78 281.73 342.738 281.625C342.696 281.52 342.614 281.393 342.491 281.242ZM343.814 285.883V285.248H344.439V285.883H343.814ZM340.648 285.868V285.264H343.31V285.868H340.648ZM342.801 288.002C342.801 287.914 342.78 287.814 342.738 287.702C342.696 287.59 342.614 287.457 342.491 287.303H340.648V286.699H343.31V287.272H342.953C343.097 287.436 343.2 287.592 343.263 287.739C343.33 287.886 343.363 288.035 343.363 288.186C343.363 288.441 343.281 288.635 343.116 288.768C342.955 288.901 342.727 288.968 342.433 288.968H340.648V288.364H342.36C342.654 288.364 342.801 288.243 342.801 288.002ZM343.814 290.386V289.75H344.439V290.386H343.814ZM340.648 290.37V289.766H343.31V290.37H340.648Z" fill="#CFBAE1"/>
<path d="M345.353 282.092L347.54 280.823H348.607V290.005H347.459V282.065L345.866 282.983L345.353 282.092ZM355.914 290.005H350.675V289.113C350.675 288.438 350.756 287.871 350.918 287.412C351.089 286.953 351.315 286.575 351.594 286.278C351.882 285.972 352.201 285.729 352.552 285.549L353.43 285.103C353.844 284.887 354.173 284.662 354.416 284.428C354.668 284.194 354.794 283.856 354.794 283.415V283.186C354.794 282.682 354.65 282.317 354.362 282.092C354.083 281.867 353.668 281.754 353.119 281.754C352.813 281.754 352.489 281.795 352.147 281.876C351.805 281.948 351.427 282.074 351.013 282.254L350.635 281.268C351.085 281.061 351.517 280.913 351.931 280.823C352.354 280.733 352.759 280.688 353.146 280.688C354.146 280.688 354.861 280.922 355.293 281.39C355.725 281.849 355.941 282.448 355.941 283.186V283.415C355.941 283.901 355.847 284.306 355.658 284.631C355.478 284.955 355.235 285.229 354.929 285.454C354.632 285.67 354.312 285.864 353.97 286.035L353.092 286.494C352.669 286.719 352.354 287.03 352.147 287.426C351.949 287.822 351.841 288.326 351.823 288.938H355.914V290.005Z" fill="#CFBAE1"/>
<path d="M444.987 289.441H384.691C383.41 289.441 382.372 290.479 382.372 291.76V387.504C382.372 388.785 383.41 389.823 384.691 389.823H444.987C446.268 389.823 447.306 388.785 447.306 387.504V291.76C447.306 290.479 446.268 289.441 444.987 289.441Z" fill="#F2F2F2"/>
<path d="M440.349 294.41H389.329C388.048 294.41 387.01 295.448 387.01 296.729V363.651C387.01 364.932 388.048 365.97 389.329 365.97H440.349C441.629 365.97 442.668 364.932 442.668 363.651V296.729C442.668 295.448 441.629 294.41 440.349 294.41Z" fill="#2B2631"/>
<g filter="url(#filter0_d_1_2517)">
<path d="M458.988 300.435L399.629 289.848C398.368 289.623 397.164 290.463 396.939 291.724L380.129 385.981C379.904 387.242 380.744 388.446 382.004 388.671L441.364 399.257C442.624 399.482 443.829 398.642 444.054 397.381L460.864 303.125C461.089 301.864 460.249 300.659 458.988 300.435Z" fill="#F2F2F2"/>
<path d="M453.549 304.512L403.322 295.554C402.061 295.329 400.857 296.169 400.632 297.43L388.882 363.312C388.657 364.573 389.497 365.777 390.758 366.002L440.985 374.96C442.246 375.185 443.45 374.345 443.675 373.084L455.425 307.202C455.65 305.941 454.81 304.737 453.549 304.512Z" fill="#2B2631"/>
</g>
<g filter="url(#filter1_d_1_2517)">
<path d="M473.835 316.862L417.549 295.242C416.353 294.782 415.012 295.379 414.552 296.575L380.221 385.952C379.762 387.148 380.359 388.489 381.555 388.948L437.841 410.569C439.037 411.028 440.378 410.431 440.837 409.235L475.168 319.858C475.628 318.663 475.031 317.321 473.835 316.862Z" fill="#F2F2F2"/>
<path d="M467.724 319.838L420.097 301.544C418.901 301.084 417.56 301.681 417.1 302.877L393.104 365.348C392.645 366.544 393.242 367.886 394.438 368.345L442.064 386.639C443.26 387.098 444.601 386.501 445.061 385.306L469.057 322.834C469.516 321.638 468.919 320.297 467.724 319.838Z" fill="#2B2631"/>
</g>
</g>
<defs>
<filter id="filter0_d_1_2517" x="371.788" y="281.839" width="92.1158" height="120.789" filterUnits="userSpaceOnUse" color-interpolation-filters="sRGB">
<feFlood flood-opacity="0" result="BackgroundImageFix"/>
<feColorMatrix in="SourceAlpha" type="matrix" values="0 0 0 0 0 0 0 0 0 0 0 0 0 0 0 0 0 0 127 0" result="hardAlpha"/>
<feOffset dx="-2.65036" dy="-2.31907"/>
<feGaussianBlur stdDeviation="2.82689"/>
<feComposite in2="hardAlpha" operator="out"/>
<feColorMatrix type="matrix" values="0 0 0 0 0.172292 0 0 0 0 0.0878944 0 0 0 0 0.221154 0 0 0 0.25 0"/>
<feBlend mode="normal" in2="BackgroundImageFix" result="effect1_dropShadow_1_2517"/>
<feBlend mode="normal" in="SourceGraphic" in2="effect1_dropShadow_1_2517" result="shape"/>
</filter>
<filter id="filter1_d_1_2517" x="375.656" y="290.345" width="100.103" height="120.483" filterUnits="userSpaceOnUse" color-interpolation-filters="sRGB">
<feFlood flood-opacity="0" result="BackgroundImageFix"/>
<feColorMatrix in="SourceAlpha" type="matrix" values="0 0 0 0 0 0 0 0 0 0 0 0 0 0 0 0 0 0 127 0" result="hardAlpha"/>
<feOffset dx="-1.98777" dy="-2.31907"/>
<feGaussianBlur stdDeviation="1.21152"/>
<feComposite in2="hardAlpha" operator="out"/>
<feColorMatrix type="matrix" values="0 0 0 0 0.172549 0 0 0 0 0.0862745 0 0 0 0 0.219608 0 0 0 0.25 0"/>
<feBlend mode="normal" in2="BackgroundImageFix" result="effect1_dropShadow_1_2517"/>
<feBlend mode="normal" in="SourceGraphic" in2="effect1_dropShadow_1_2517" result="shape"/>
</filter>
<linearGradient id="paint0_linear_1_2517" x1="290.05" y1="197.885" x2="439.645" y2="656.353" gradientUnits="userSpaceOnUse">
<stop offset="0.552885" stop-color="#1A6235"/>
</linearGradient>
<linearGradient id="paint1_linear_1_2517" x1="388.396" y1="393.186" x2="320.103" y2="349.781" gradientUnits="userSpaceOnUse">
<stop stop-color="#A787C0"/>
<stop offset="1" stop-color="#EDE2F6"/>
</linearGradient>
<radialGradient id="paint2_radial_1_2517" cx="0" cy="0" r="1" gradientUnits="userSpaceOnUse" gradientTransform="translate(313.613 284.587) rotate(-179.938) scale(74.8605 45.2588)">
<stop stop-color="#F7EDFF"/>
<stop offset="1" stop-color="#EDE2F6"/>
</radialGradient>
<radialGradient id="paint3_radial_1_2517" cx="0" cy="0" r="1" gradientUnits="userSpaceOnUse" gradientTransform="translate(317.893 355.207) rotate(64.692) scale(53.5211 432.782)">
<stop offset="0.701239" stop-color="#C3AAD7"/>
<stop offset="1" stop-color="#E9DBF4"/>
</radialGradient>
<linearGradient id="paint4_linear_1_2517" x1="315.483" y1="359.788" x2="312.503" y2="351.554" gradientUnits="userSpaceOnUse">
<stop stop-color="#462B6A"/>
<stop offset="1" stop-color="#B4A7C6"/>
</linearGradient>
<linearGradient id="paint5_linear_1_2517" x1="316.392" y1="321.263" x2="316.392" y2="388.776" gradientUnits="userSpaceOnUse">
<stop stop-color="#C5B1D6"/>
<stop offset="1" stop-color="#E7D5F7"/>
</linearGradient>
<linearGradient id="paint6_linear_1_2517" x1="316.392" y1="314.137" x2="316.392" y2="395.902" gradientUnits="userSpaceOnUse">
<stop stop-color="#C5B1D6"/>
<stop offset="1" stop-color="#EEDFFB"/>
</linearGradient>
<linearGradient id="paint7_linear_1_2517" x1="258.444" y1="289.007" x2="250.755" y2="289.007" gradientUnits="userSpaceOnUse">
<stop stop-color="#EBDEF7"/>
<stop offset="1" stop-color="#BAA9C9"/>
</linearGradient>
<linearGradient id="paint8_linear_1_2517" x1="236.314" y1="278.13" x2="258.444" y2="278.13" gradientUnits="userSpaceOnUse">
<stop stop-color="#EDE2F6"/>
<stop offset="1" stop-color="#BAA9C9"/>
</linearGradient>
<linearGradient id="paint9_linear_1_2517" x1="236.502" y1="288.913" x2="240.253" y2="288.913" gradientUnits="userSpaceOnUse">
<stop stop-color="#FDF0FF"/>
<stop offset="1" stop-color="#BFAFCD"/>
</linearGradient>
<linearGradient id="paint10_linear_1_2517" x1="260.855" y1="367.49" x2="241.003" y2="367.49" gradientUnits="userSpaceOnUse">
<stop stop-color="#F7EDFF"/>
<stop offset="1" stop-color="#EDE2F6"/>
</linearGradient>
<linearGradient id="paint11_linear_1_2517" x1="246.066" y1="313.387" x2="246.066" y2="328.014" gradientUnits="userSpaceOnUse">
<stop stop-color="#C5B1D6"/>
<stop offset="1" stop-color="#EEDFFB"/>
</linearGradient>
<linearGradient id="paint12_linear_1_2517" x1="285.261" y1="348.268" x2="294.826" y2="363.271" gradientUnits="userSpaceOnUse">
<stop offset="0.418269" stop-color="#F2F2F2"/>
<stop offset="1" stop-color="#D8D8D8"/>
</linearGradient>
<linearGradient id="paint13_linear_1_2517" x1="236.325" y1="346.768" x2="236.325" y2="414.656" gradientUnits="userSpaceOnUse">
<stop stop-color="#C3AAD7"/>
<stop offset="1" stop-color="#EDE2F6"/>
</linearGradient>
<clipPath id="clip0_1_2517">
<rect width="485" height="496" fill="white" transform="translate(97 90)"/>
</clipPath>
</defs>
</svg>
