<svg width="678" height="676" viewBox="0 0 678 676" fill="none" xmlns="http://www.w3.org/2000/svg">
<g filter="url(#filter0_d_1_2523)">
<path d="M339.5 585C476.19 585 587 474.19 587 337.5C587 200.81 476.19 90 339.5 90C202.81 90 92 200.81 92 337.5C92 474.19 202.81 585 339.5 585Z" fill="#F8735B"/>
</g>
<path fill-rule="evenodd" clip-rule="evenodd" d="M338 90.0005C477.641 289.305 483.109 397.92 338 585C338.167 585 338.333 585 338.5 585C475.19 585 586 474.19 586 337.5C586 200.81 475.19 90 338.5 90C338.333 90 338.167 90.0002 338 90.0005Z" fill="#E55039"/>
<path d="M91.9763 399C42.5479 492.751 639.131 494.578 583.381 399" stroke="#93131E" stroke-width="6" stroke-linecap="round"/>
<path d="M99.8926 258.314C51.6427 164.149 634 162.313 579.58 258.314" stroke="#93131E" stroke-width="6" stroke-linecap="round"/>
<path d="M414.5 203C422.508 203 429 196.508 429 188.5C429 180.492 422.508 174 414.5 174C406.492 174 400 180.492 400 188.5C400 196.508 406.492 203 414.5 203Z" fill="#FFD374"/>
<path d="M414.5 200C420.851 200 426 194.851 426 188.5C426 182.149 420.851 177 414.5 177C408.149 177 403 182.149 403 188.5C403 194.851 408.149 200 414.5 200Z" fill="#FFF1D3"/>
<path d="M235.063 475C241.138 475 246.063 470.299 246.063 464.5C246.063 458.701 241.138 454 235.063 454C228.988 454 224.063 458.701 224.063 464.5C224.063 470.299 228.988 475 235.063 475Z" fill="#FFD374"/>
<path d="M367.364 370.021C367.602 370.252 367.867 370.226 367.747 370.781C367.619 370.781 367.492 370.781 367.364 370.781V370.013V370.021Z" fill="white"/>
<path d="M376.356 331.807L389.7 332.191C387.78 344.75 385.502 357.889 383.275 370.508C383.275 370.55 383.173 370.585 383.054 370.602C382.414 370.815 381.433 370.755 380.759 370.602C377.892 370.764 375.017 370.764 372.15 370.602C371.28 370.67 370.392 370.738 369.471 370.789C369.215 370.764 369.01 370.917 369.104 370.525L376.356 331.807Z" fill="white"/>
<path d="M376.356 331.807L390.127 332.004L383.438 370.713C383.335 370.798 383.173 370.772 383.045 370.798C382.874 370.747 382.883 370.678 383.045 370.61L389.546 332.388L376.348 331.816L376.356 331.807Z" fill="white"/>
<path d="M380.759 370.602C380.929 370.653 380.921 370.721 380.759 370.789C377.9 370.823 375.008 370.823 372.15 370.789C371.979 370.738 371.988 370.67 372.15 370.602C375.017 370.602 377.892 370.602 380.759 370.602Z" fill="white"/>
<path d="M372.15 370.601V370.789C371.288 370.781 370.307 370.866 369.471 370.789C370.188 370.439 371.305 370.601 372.15 370.601Z" fill="white"/>
<path d="M383.054 370.602V370.789C382.422 370.892 381.458 370.781 380.759 370.789V370.602H383.054Z" fill="white"/>
<path d="M308.639 369.834V370.602C309.083 370.61 309.535 370.585 309.978 370.602V370.789C309.467 370.781 308.955 370.798 308.451 370.789C308.281 370.405 308.613 370.03 308.648 369.834H308.639Z" fill="white"/>
<path d="M276.5 342.507C275.8 342.507 275.092 342.481 274.392 342.507C274.879 342.182 276.047 342.191 276.5 342.507Z" fill="white"/>
<path d="M345.181 342.507C345.351 342.558 345.343 342.626 345.181 342.694C344.626 342.728 344.106 342.865 343.654 342.882C343.483 342.831 343.492 342.763 343.654 342.694C344.106 342.652 344.567 342.524 345.181 342.507Z" fill="white"/>
<path d="M343.645 342.694V342.882C343.261 342.899 342.877 342.865 342.493 342.882C342.306 342.984 342.075 343.053 341.922 342.882C342.314 342.498 343.09 342.737 343.645 342.694Z" fill="white"/>
<path d="M278.795 342.694C278.436 342.652 278.018 342.711 277.643 342.694V342.507C278.001 342.507 278.581 342.379 278.795 342.694Z" fill="white"/>
<path d="M306.156 342.89L301.37 370.601C296.822 370.789 292.292 370.789 287.787 370.601L287.617 370.542L292.514 342.941L306.156 342.89Z" fill="white"/>
<path d="M305.576 333.147C305.764 333.215 305.96 333.266 306.148 333.335C306.446 333.471 306.711 333.642 306.916 333.906C309.868 336.824 306.847 339.162 303.853 340.117C301.233 340.954 294.476 341.039 293.521 337.729C293.043 336.833 293.273 335.954 293.836 335.169C295.961 332.157 302.547 331.304 305.576 333.147Z" fill="white"/>
<path d="M306.156 342.89L292.659 343.069L287.796 370.602C287.966 370.653 287.958 370.721 287.796 370.789C287.651 370.781 287.378 370.858 287.42 370.695L292.403 342.703L306.165 342.882L306.156 342.89Z" fill="white"/>
<path d="M293.529 337.729C292.446 336.389 293.725 334.777 294.809 333.94C297.411 331.918 301.703 331.569 304.774 332.524C305.098 332.627 305.695 332.644 305.585 333.147C303.75 332.49 302.496 332.243 300.508 332.371C297.914 332.541 292.556 334.333 293.538 337.729H293.529Z" fill="white"/>
<path d="M301.37 370.602L300.909 370.806C296.635 370.542 292.019 371.122 287.787 370.798V370.61H301.37V370.602Z" fill="white"/>
<path d="M306.916 333.906L306.148 333.335C307.112 333.685 306.557 333.557 306.916 333.906Z" fill="white"/>
<path d="M328.919 334.29C328.697 335.237 327.443 342.114 327.58 342.507C329.866 342.575 332.161 342.643 334.465 342.694L333.108 348.411L326.24 348.428L322.222 370.593C320.925 370.755 319.346 370.738 318.015 370.593C317.256 370.738 316.488 370.738 315.72 370.593C313.826 370.755 311.873 370.798 309.978 370.593C308.699 370.952 308.255 370.696 308.639 369.825C308.818 368.674 309.014 367.539 309.211 366.387C309.347 366.089 309.415 365.773 309.398 365.432C309.467 365.048 309.518 364.664 309.586 364.288C309.723 363.99 309.791 363.674 309.774 363.333C309.842 362.957 309.893 362.565 309.961 362.189C310.098 361.891 310.166 361.575 310.149 361.234C310.661 358.427 311.181 355.628 311.676 352.822C311.813 352.523 311.881 352.207 311.864 351.866C311.932 351.491 311.992 351.098 312.052 350.723C312.188 350.424 312.256 350.108 312.239 349.767C312.316 349.341 312.35 348.863 312.427 348.428H307.265C307.479 346.679 308.127 344.836 308.221 343.078C308.229 342.797 308.315 342.634 308.477 342.592L313.007 342.609C313.417 342.635 313.673 342.532 313.767 342.31C313.767 342.251 313.767 342.182 313.767 342.123L313.954 341.167C314.082 339.964 314.253 338.309 314.526 337.157L314.552 336.995C319.261 335.997 323.971 335.024 328.697 334.069L328.876 334.29H328.919Z" fill="white"/>
<path d="M314.569 337.157C314.594 337.055 314.517 336.909 314.586 336.79L329.107 333.719C329.235 334.026 328.936 334.196 328.919 334.29L314.569 337.157Z" fill="white"/>
<path d="M334.465 342.694C332.451 342.506 330.003 342.95 328.049 342.703C327.836 342.677 327.673 342.788 327.58 342.506C329.627 342.668 331.982 342.293 333.996 342.506C334.192 342.523 334.465 342.412 334.473 342.703L334.465 342.694Z" fill="white"/>
<path d="M313.801 342.319C313.801 342.447 313.809 342.575 313.801 342.703C312.214 342.814 310.465 342.558 308.903 342.694C308.52 342.728 308.434 342.72 308.255 343.087C308.264 342.899 308.247 342.703 308.255 342.515C308.511 342.293 313.067 342.814 313.801 342.327V342.319Z" fill="white"/>
<path d="M315.72 370.602C315.891 370.653 315.882 370.721 315.72 370.79C313.818 370.79 311.89 370.841 309.978 370.79C309.808 370.738 309.816 370.67 309.978 370.602C311.881 370.653 313.809 370.602 315.72 370.602Z" fill="white"/>
<path d="M322.222 370.602L322.418 370.79C320.95 370.798 319.483 370.79 318.015 370.79C317.845 370.738 317.853 370.67 318.015 370.602H322.222Z" fill="white"/>
<path d="M318.015 370.602V370.79C317.256 370.79 316.48 370.79 315.72 370.79V370.602C316.48 370.602 317.256 370.602 318.015 370.602Z" fill="white"/>
<path d="M309.595 364.288C309.654 363.964 309.731 363.64 309.782 363.333C309.774 363.64 309.902 364.126 309.595 364.288Z" fill="white"/>
<path d="M309.211 366.395C309.27 366.063 309.347 365.747 309.398 365.44C309.39 365.747 309.518 366.233 309.211 366.395Z" fill="white"/>
<path d="M309.978 362.19C310.038 361.865 310.115 361.541 310.166 361.234C310.158 361.541 310.286 362.027 309.978 362.19Z" fill="white"/>
<path d="M312.086 350.722C312.146 350.39 312.222 350.083 312.274 349.767C312.265 350.074 312.393 350.56 312.086 350.722Z" fill="white"/>
<path d="M311.702 352.83C311.762 352.506 311.838 352.182 311.89 351.874C311.881 352.182 312.009 352.668 311.702 352.83Z" fill="white"/>
<path d="M313.801 342.123C313.826 341.79 313.707 341.449 313.988 341.167C313.954 341.466 314.125 341.961 313.801 342.123Z" fill="white"/>
<path d="M359.719 342.319C364.232 342.489 369.701 343.82 369.403 349.417C368.874 353.785 368.055 358.12 366.954 362.42C366.169 364.928 366.058 367.274 366.613 369.458C366.792 369.655 367.184 369.834 367.381 370.03C367.568 370.277 367.747 370.67 367.381 370.798C363.669 370.951 357.219 371.225 353.696 370.806C353.499 370.781 353.039 370.721 353.039 370.508V367.547C352.006 367.744 350.931 368.383 349.976 368.887L349.02 369.271C348.406 369.561 347.766 369.834 347.109 370.039C346.81 370.013 346.495 370.081 346.153 370.226C345.155 370.61 343.415 370.909 342.331 370.994C341.768 370.849 341.171 370.824 340.608 370.994C340.036 371.02 339.456 370.994 338.884 370.994C337.997 370.824 337.093 370.858 336.205 370.994C334.422 370.866 332.34 370.38 330.864 369.356C328.202 367.496 326.965 364.979 328.219 361.771C330.199 356.712 337.05 355.731 341.76 355.133C342.161 355.142 342.544 355.082 342.911 354.946C343.039 354.937 343.167 354.946 343.295 354.946L344.635 354.758C344.822 354.758 345.019 354.758 345.206 354.758L346.358 354.57C346.614 354.57 346.87 354.57 347.126 354.57L348.466 354.383C348.721 354.383 348.977 354.4 349.233 354.383C349.66 354.255 350.112 354.186 350.573 354.195C351.776 354.007 355.086 353.402 355.632 352.275C356.178 351.149 355.854 349.989 354.668 349.443C352.074 348.24 345.258 349.042 342.28 349.443C339.541 349.818 336.845 350.501 334.124 350.944L336.7 343.871C336.973 343.53 337.442 343.743 337.75 343.684C337.886 343.377 338.202 343.308 338.705 343.496C338.833 343.496 338.961 343.496 339.089 343.496C339.507 343.24 340.087 343.112 340.812 343.112C341.034 342.941 341.341 342.967 341.58 343.112C341.879 343.044 342.195 342.984 342.536 342.924C342.843 342.737 343.346 342.788 343.688 342.924C344.106 342.728 344.763 342.6 345.215 342.737C345.496 342.668 345.812 342.609 346.17 342.549C346.597 342.37 347.075 342.395 347.51 342.549C347.877 342.498 348.261 342.43 348.662 342.361C349.208 342.174 349.831 342.216 350.385 342.361C351.051 342.225 351.75 342.157 352.493 342.174C354.89 341.977 357.381 341.986 359.762 342.361L359.719 342.319ZM342.306 362.002C342.075 362.769 341.998 362.71 342.306 363.529C342.715 364.621 343.978 364.783 345.07 364.877C349.643 365.244 354.455 363.478 354.352 358.179C351.307 359.05 347.604 359.024 344.635 360.039C343.457 360.44 342.672 360.773 342.297 362.002H342.306Z" fill="white"/>
<path d="M366.604 369.45C366.016 368.801 365.981 368.298 366.033 367.445C366.331 362.266 368.456 355.935 369.07 350.603C369.821 344.119 365.222 342.873 359.719 342.31C359.548 342.259 359.557 342.191 359.719 342.122C363.678 342.464 369.744 343.504 369.676 348.709C369.599 354.408 366.783 361.652 366.442 367.47C366.399 368.213 366.545 368.742 366.613 369.45H366.604Z" fill="white"/>
<path d="M359.719 342.123V342.31C357.305 342.063 354.873 342.088 352.45 342.123H350.923C351.119 341.807 351.648 341.935 351.972 341.926C354.574 341.901 357.151 341.901 359.719 342.123Z" fill="white"/>
<path d="M338.867 370.977C337.997 370.977 337.041 371.037 336.188 370.977C336.871 370.653 338.227 370.661 338.867 370.977Z" fill="white"/>
<path d="M350.343 342.122C350.513 342.174 350.505 342.242 350.343 342.31C349.771 342.327 349.191 342.31 348.619 342.31C348.363 342.43 348.099 342.472 347.851 342.31C348.491 341.96 349.549 342.122 350.334 342.122H350.343Z" fill="white"/>
<path d="M350.914 342.122C351.426 342.122 351.938 342.122 352.441 342.122C351.955 342.122 351.034 342.293 350.334 342.31V342.122C350.522 342.122 350.718 342.122 350.906 342.122H350.914Z" fill="white"/>
<path d="M347.476 342.319C347.646 342.37 347.638 342.438 347.476 342.506C347.032 342.506 346.58 342.506 346.136 342.506C345.949 342.617 345.718 342.677 345.565 342.506C346.008 342.157 346.879 342.319 347.476 342.319Z" fill="white"/>
<path d="M340.394 343.078C340.539 342.993 340.667 342.941 340.778 343.078C340.429 343.223 339.388 343.453 339.055 343.462C338.876 342.848 339.831 343.095 340.394 343.078Z" fill="white"/>
<path d="M342.306 370.977C341.742 371.02 341.154 370.952 340.582 370.977C340.94 370.653 341.947 370.653 342.306 370.977Z" fill="white"/>
<path d="M348.431 354.357C348.167 354.69 347.51 354.545 347.092 354.545C347.356 354.212 348.013 354.357 348.431 354.357Z" fill="white"/>
<path d="M344.601 354.741C344.336 355.073 343.679 354.92 343.261 354.928C343.526 354.596 344.183 354.741 344.601 354.741Z" fill="white"/>
<path d="M350.53 354.161C350.061 354.237 349.779 354.314 349.191 354.348C349.464 353.99 350.112 354.203 350.53 354.161Z" fill="white"/>
<path d="M346.324 354.545C346.119 354.869 345.539 354.732 345.172 354.732C345.377 354.408 345.957 354.545 346.324 354.545Z" fill="white"/>
<path d="M342.877 354.929C342.664 355.27 342.092 355.091 341.725 355.116C342.067 355.074 342.391 354.963 342.877 354.929Z" fill="white"/>
<path d="M349.959 368.878C349.686 369.023 349.489 369.373 349.003 369.262C349.25 369.143 349.481 368.75 349.959 368.878Z" fill="white"/>
<path d="M338.671 343.462C338.304 343.36 337.997 343.598 337.715 343.65C337.587 342.814 338.424 343.453 338.671 343.462Z" fill="white"/>
<path d="M347.851 342.319C348.107 342.319 348.363 342.319 348.619 342.319C348.414 342.643 347.834 342.506 347.467 342.506V342.319C347.595 342.319 347.723 342.319 347.851 342.319Z" fill="white"/>
<path d="M341.546 342.89C341.717 342.942 341.708 343.01 341.546 343.078C341.29 343.078 341.034 343.078 340.778 343.078C340.65 343.078 340.522 343.078 340.394 343.078C340.599 342.754 341.179 342.89 341.546 342.89Z" fill="white"/>
<path d="M347.092 370.021C346.776 370.115 346.512 370.294 346.136 370.209C346.375 370.115 346.896 369.586 347.092 370.021Z" fill="white"/>
<path d="M345.556 342.506C345.744 342.506 345.94 342.506 346.128 342.506C345.966 342.822 345.479 342.677 345.172 342.694V342.506C345.3 342.506 345.428 342.506 345.556 342.506Z" fill="white"/>
<path d="M341.922 342.89C342.109 342.89 342.306 342.89 342.493 342.89C342.331 343.197 341.845 343.078 341.538 343.078V342.89C341.666 342.89 341.794 342.89 341.922 342.89Z" fill="white"/>
<path d="M342.306 363.529C341.998 362.71 342.075 362.769 342.306 362.002V363.529Z" fill="white"/>
<path d="M185.064 371.361C184.356 371.327 183.793 371.233 183.153 371.173V370.986C183.759 371.071 184.535 371.054 185.064 371.37V371.361Z" fill="white"/>
<path d="M187.547 371.361C186.787 371.352 186.011 371.387 185.252 371.361C185.798 371.037 187.035 371.045 187.547 371.361Z" fill="white"/>
<path d="M200.942 331.611L201.897 331.799C202.153 331.799 202.409 331.773 202.665 331.799L203.621 331.987C205.685 332.439 207.742 333.002 209.729 333.727L208.023 343.453C207.955 343.496 207.426 343.308 207.264 343.257L205.54 342.302C199.687 340.041 193.203 339.819 187.623 343.035C182.018 346.26 177.547 354.477 183.733 359.408C186.924 361.959 191.881 361.993 195.788 361.797L197.128 361.609C197.469 361.481 197.785 361.481 198.083 361.609C198.391 361.567 198.63 361.421 198.655 361.421C199.124 361.439 199.568 361.379 199.995 361.234C200.114 361.217 200.259 361.251 200.379 361.234C200.908 360.986 201.488 360.858 202.102 360.85C202.469 360.765 203.117 360.568 203.441 360.756L201.684 370.465C201.471 371.02 200.489 370.73 199.995 370.789L199.039 370.977C198.408 371.011 197.759 370.977 197.128 370.977L195.601 371.165C194.509 371.199 193.442 371.327 192.35 371.353C190.891 371.207 189.407 371.199 187.948 371.353C187.82 371.353 187.692 371.353 187.564 371.353C186.804 371.182 186.028 371.207 185.269 371.353C185.209 371.353 185.141 371.353 185.081 371.353C184.407 371.25 183.767 371.122 183.17 370.969C175.261 370.235 164.767 366.498 163.845 357.403V352.813C165.884 335.425 186.062 330.263 200.959 331.603L200.942 331.611Z" fill="white"/>
<path d="M201.513 331.611C201.368 331.79 201.129 331.714 200.942 331.611C189.108 331.415 175.099 333.173 167.693 343.59C165.637 346.482 164.639 349.383 163.828 352.821V348.231C169.434 334.623 185.653 330.596 199.133 331.219C199.824 331.253 200.856 331.406 201.513 331.611Z" fill="white"/>
<path d="M183.153 370.977C183.323 371.029 183.315 371.097 183.153 371.165C175.798 370.457 167.548 367.693 163.828 360.85V357.412C164.34 358.487 164.485 359.622 165.006 360.731C168.034 367.249 176.532 370.047 183.153 370.986V370.977Z" fill="white"/>
<path d="M192.333 371.361C190.874 371.395 189.39 371.37 187.931 371.361C189.236 371.045 191.028 371.045 192.333 371.361Z" fill="white"/>
<path d="M207.255 343.274C206.658 343.104 205.882 342.839 205.532 342.319C206.129 342.549 206.897 342.703 207.255 343.274Z" fill="white"/>
<path d="M202.085 360.85C201.488 360.987 200.984 361.132 200.362 361.234C200.754 360.696 201.496 360.867 202.085 360.85Z" fill="white"/>
<path d="M197.111 370.977C196.787 371.327 196.061 371.156 195.584 371.165C195.899 370.824 196.633 370.977 197.111 370.977Z" fill="white"/>
<path d="M199.986 361.234C199.713 361.592 199.065 361.379 198.647 361.421C199.013 361.379 199.56 361.293 199.986 361.234Z" fill="white"/>
<path d="M197.111 361.618C196.565 361.737 196.394 361.78 195.771 361.805C196.036 361.473 196.693 361.618 197.111 361.618Z" fill="white"/>
<path d="M199.986 370.79C199.798 370.815 199.491 370.952 199.031 370.977C199.193 370.67 199.679 370.798 199.986 370.79Z" fill="white"/>
<path d="M198.066 361.618C197.785 361.66 197.418 361.618 197.111 361.618C197.29 361.575 197.785 361.114 198.066 361.618Z" fill="white"/>
<path d="M203.621 331.995C203.313 331.987 202.827 332.115 202.665 331.807C203.151 331.85 203.254 331.918 203.621 331.995Z" fill="white"/>
<path d="M201.513 331.611C201.675 331.62 201.846 331.611 201.897 331.799C201.59 331.799 201.104 331.91 200.942 331.611C201.129 331.611 201.326 331.594 201.513 331.611Z" fill="white"/>
<path d="M274.017 342.695C275.177 342.49 276.491 342.507 277.651 342.695C277.958 342.515 278.453 342.541 278.803 342.695C287.454 343.676 290.057 352.293 287.497 359.699C285.091 366.669 278.743 370.679 271.534 371.174C270.519 371.037 269.486 371.029 268.471 371.174C268.283 371.174 268.087 371.182 267.899 371.174L266.944 370.986C266.816 370.969 266.679 371.003 266.56 370.986C266.082 370.858 265.638 370.73 265.22 370.602C264.785 370.636 264.214 370.329 263.881 370.031C263.284 370.329 260.502 367.855 260.673 367.753C260.775 367.684 261.031 368.145 260.63 368.119C260.11 372.198 259.163 376.259 258.48 380.311C258.378 380.414 258.216 380.329 258.148 380.354C253.737 380.516 249.3 380.533 244.863 380.397L251.322 343.266L251.646 343.087C255.4 342.806 259.47 342.891 263.318 343.087C263.429 343.13 263.719 342.976 263.71 343.198C263.292 344.256 263.326 345.467 263.13 346.525C263.574 346.611 262.925 347.14 262.959 347.114C266.116 344.384 269.819 342.712 274.034 342.703L274.017 342.695ZM270.766 361.806C271.116 361.652 271.201 361.618 271.534 361.422C271.773 361.285 271.892 361.217 272.106 361.038C272.396 360.808 272.455 360.705 272.677 360.466C275.049 357.898 276.499 352.395 272.865 350.339C269.529 348.454 264.7 349.972 263.07 353.453C260.076 359.844 264.103 364.681 270.758 361.806H270.766Z" fill="white"/>
<path d="M251.629 342.891C251.8 342.942 251.791 343.01 251.629 343.078L245.128 380.345H258.139C257.892 380.439 257.866 380.524 257.491 380.55C253.327 380.857 248.763 380.294 244.556 380.533L251.075 342.899C251.262 342.848 251.45 342.899 251.638 342.891H251.629Z" fill="white"/>
<path d="M274.017 342.507C274.187 342.558 274.179 342.626 274.017 342.695C270.143 342.942 265.809 344.572 263.011 347.276C262.405 347.387 263.087 346.645 263.113 346.517C266.219 344.008 270.041 342.703 274.017 342.507Z" fill="white"/>
<path d="M263.301 343.078H251.629V342.891C253.353 342.754 262.158 342.66 263.301 343.078Z" fill="white"/>
<path d="M263.872 370.022C263.992 370.081 263.992 370.141 263.872 370.209C263.403 370.022 263.122 370.056 262.55 369.715C261.774 369.254 261.321 368.631 260.622 368.111C260.647 367.931 260.519 367.59 260.716 367.539C261.688 368.588 262.55 369.424 263.872 370.022Z" fill="white"/>
<path d="M274.401 342.507C275.092 342.327 275.817 342.336 276.508 342.507C276.892 342.507 277.276 342.507 277.66 342.507C277.831 342.558 277.822 342.626 277.66 342.694C276.551 342.635 275.134 342.626 274.025 342.694V342.507C274.153 342.507 274.281 342.507 274.409 342.507H274.401Z" fill="white"/>
<path d="M271.525 371.174C270.578 371.242 269.427 371.208 268.462 371.174C269.282 370.849 270.749 370.858 271.525 371.174Z" fill="white"/>
<path d="M265.212 370.602C265.383 370.653 265.374 370.722 265.212 370.79C264.657 370.645 264.299 370.389 263.872 370.218V370.031C264.222 370.193 264.888 370.508 265.212 370.602Z" fill="white"/>
<path d="M266.551 370.977C266.108 370.909 265.647 370.901 265.212 370.79V370.602C265.587 370.713 266.227 370.542 266.551 370.986V370.977Z" fill="white"/>
<path d="M267.891 371.174C267.439 371.148 267.115 371.003 266.935 370.986C267.242 370.994 267.729 370.866 267.891 371.174Z" fill="white"/>
<path d="M272.677 360.474H272.49C274.239 358.495 275.484 353.802 273.914 351.507C273.624 351.089 273.112 350.816 272.873 350.347C276.5 352.403 275.058 357.906 272.686 360.474H272.677Z" fill="white"/>
<path d="M272.106 360.85C272.191 360.91 272.191 360.97 272.106 361.038C271.884 361.217 271.764 361.285 271.534 361.422H271.346C271.491 361.311 272.071 360.884 272.114 360.85H272.106Z" fill="white"/>
<path d="M271.338 361.43H271.525C271.193 361.618 271.107 361.66 270.758 361.814C270.8 361.439 271.235 361.507 271.329 361.43H271.338Z" fill="white"/>
<path d="M272.677 360.475C272.455 360.722 272.396 360.816 272.106 361.046V360.859C272.2 360.773 272.413 360.56 272.49 360.475H272.677Z" fill="white"/>
<path d="M231.545 342.123C232.296 341.961 233.09 341.969 233.84 342.123C234.651 341.952 235.521 341.944 236.323 342.123L237.475 342.31C242.065 342.72 246.962 343.914 246.664 349.486C246.365 355.057 243.976 361.473 243.601 367.061C243.524 368.153 243.481 368.682 244.172 369.544C244.403 369.834 245.802 370.576 244.36 370.79C243.507 370.739 242.679 370.67 241.877 370.602C238.883 370.773 235.879 370.764 232.885 370.602C232.219 370.764 231.272 370.781 230.59 370.602L230.197 370.414L230.24 367.829L229.822 367.744C226.785 369.467 222.015 370.756 218.534 370.994C217.391 370.867 216.231 370.832 215.087 370.994C214.831 370.994 214.575 370.994 214.32 370.994L212.596 370.807C212.468 370.807 212.34 370.807 212.212 370.807C200.421 368.614 203.953 356.9 214.32 355.902C214.712 355.714 215.156 355.586 215.659 355.518C216.017 355.449 216.401 355.39 216.811 355.33C217.016 355.134 217.34 355.211 217.579 355.33C217.707 355.322 217.835 355.339 217.963 355.33C218.125 354.963 218.739 355.031 219.114 355.142C219.242 355.134 219.37 355.151 219.498 355.142C219.746 354.75 220.403 354.861 220.838 354.955C220.966 354.938 221.094 354.972 221.222 354.955C221.444 354.613 222.049 354.622 222.374 354.767C222.681 354.699 222.996 354.639 223.329 354.579C223.585 354.357 223.986 354.477 224.285 354.579C224.541 354.562 224.797 354.596 225.053 354.579C225.326 354.204 225.957 354.289 226.392 354.392C226.64 354.366 226.913 354.426 227.16 354.392C227.288 354.059 227.791 354.093 228.116 354.204C230.428 353.76 235.171 352.31 231.938 349.426C228.465 348.121 221.683 349.085 217.937 349.673C215.83 349.998 213.5 350.8 211.47 350.766C211.333 350.714 211.137 350.595 211.163 350.51C211.436 349.673 213.492 344.068 213.748 343.812C214.405 343.155 221.725 342.558 223.414 342.43C226.119 342.217 228.849 342.029 231.554 342.174L231.545 342.123ZM231.161 358.18C228.243 359.076 224.95 359.067 222.169 359.997C221.034 360.381 219.806 361.089 219.567 362.386C219.021 365.312 224.276 364.997 225.991 364.681C226.58 364.579 226.708 364.442 227.143 364.297C230.257 363.256 231.716 361.763 231.929 358.274C231.963 357.676 231.426 358.103 231.161 358.18Z" fill="white"/>
<path d="M214.328 355.697C214.499 355.748 214.49 355.816 214.328 355.885C211.214 356.584 207.281 358.214 205.873 361.294C204.397 364.536 205.301 366.737 207.912 368.879C209.294 370.013 210.6 370.184 212.221 370.781C206.829 370.423 202.076 365.901 205.446 360.475C207.247 357.591 211.137 356.175 214.328 355.68V355.697Z" fill="white"/>
<path d="M231.545 341.935C231.716 341.986 231.707 342.055 231.545 342.123C228.841 342.174 226.111 342.276 223.414 342.507C220.335 342.771 217.237 343.249 214.175 343.693L211.453 350.723C211.077 350.723 210.583 351.124 210.685 350.629L213.21 343.787L213.603 343.411C219.55 342.473 225.522 341.961 231.545 341.935Z" fill="white"/>
<path d="M228.107 354.161C227.936 354.11 227.945 354.042 228.107 353.974C230.53 353.496 234.241 352.463 231.929 349.383C233.149 349.844 233.456 350.066 233.252 351.568C232.996 353.445 229.685 353.905 228.107 354.161Z" fill="white"/>
<path d="M230.59 370.602C230.76 370.653 230.752 370.721 230.59 370.79C230.334 370.772 230.078 370.807 229.822 370.79V367.735C229.916 367.684 230.359 366.745 230.564 367.471C230.786 368.281 230.462 369.697 230.59 370.602Z" fill="white"/>
<path d="M241.877 370.602C242.048 370.653 242.04 370.721 241.877 370.789C238.891 370.841 235.871 370.815 232.885 370.789C232.714 370.738 232.723 370.67 232.885 370.602C235.88 370.602 238.883 370.593 241.877 370.602Z" fill="white"/>
<path d="M218.543 370.977C217.451 371.054 216.214 370.977 215.096 370.977C216.052 370.653 217.57 370.653 218.543 370.977Z" fill="white"/>
<path d="M236.716 342.123C236.63 342.276 236.494 342.208 236.332 342.123C235.504 342.106 234.668 342.123 233.849 342.123C233.678 342.071 233.687 342.003 233.849 341.935C234.753 341.935 235.931 341.773 236.716 342.123Z" fill="white"/>
<path d="M244.36 370.79C243.652 370.892 242.637 370.772 241.877 370.79V370.602C242.662 370.602 243.729 370.44 244.36 370.79Z" fill="white"/>
<path d="M233.84 341.935V342.123C233.081 342.123 232.305 342.106 231.545 342.123V341.935C232.305 341.935 233.081 341.935 233.84 341.935Z" fill="white"/>
<path d="M232.885 370.602V370.79C232.126 370.79 231.341 370.832 230.59 370.79V370.602H232.885Z" fill="white"/>
<path d="M215.284 355.501C215.42 355.415 215.54 355.381 215.668 355.501C215.326 355.765 214.763 355.782 214.328 355.884V355.697C214.618 355.654 214.832 355.543 215.284 355.509V355.501Z" fill="white"/>
<path d="M214.328 370.977C213.791 370.977 212.98 371.131 212.605 370.79C213.151 370.807 213.944 370.628 214.328 370.977Z" fill="white"/>
<path d="M216.623 355.313H216.811C216.598 355.637 216.026 355.492 215.659 355.501C215.531 355.501 215.403 355.492 215.275 355.501C215.54 355.168 216.197 355.313 216.615 355.313H216.623Z" fill="white"/>
<path d="M226.384 354.357C225.94 354.4 225.385 354.528 225.044 354.545C224.822 353.956 226.034 354.042 226.384 354.357Z" fill="white"/>
<path d="M220.838 354.929C220.369 354.98 219.882 355.082 219.498 355.117C219.277 354.528 220.488 354.613 220.838 354.929Z" fill="white"/>
<path d="M222.365 354.545C222.536 354.596 222.527 354.664 222.365 354.733C221.904 354.767 221.555 354.886 221.213 354.92C221.051 354.315 221.819 354.554 222.365 354.536V354.545Z" fill="white"/>
<path d="M224.276 354.545C223.961 354.562 223.636 354.528 223.321 354.545C223.193 354.647 223.073 354.656 222.937 354.545C223.176 354.229 224.037 354.229 224.276 354.545Z" fill="white"/>
<path d="M219.114 355.117C218.688 355.159 218.27 355.279 217.963 355.304C217.758 354.733 218.773 354.793 219.114 355.117Z" fill="white"/>
<path d="M236.716 342.123C236.997 342.14 237.262 342.071 237.483 342.31C237.125 342.276 236.554 342.464 236.332 342.123C236.46 342.123 236.588 342.123 236.716 342.123Z" fill="white"/>
<path d="M228.107 353.973V354.161C227.783 354.212 227.399 354.323 227.151 354.349C227.006 353.692 227.629 354.059 228.107 353.965V353.973Z" fill="white"/>
<path d="M222.937 354.545C223.065 354.545 223.193 354.545 223.321 354.545C223.159 354.861 222.672 354.716 222.365 354.733V354.545C222.553 354.545 222.749 354.545 222.937 354.545Z" fill="white"/>
<path d="M217.579 355.313C217.323 355.33 217.067 355.313 216.811 355.313C216.751 355.313 216.683 355.313 216.623 355.313C216.751 355.014 217.451 355.014 217.579 355.313Z" fill="white"/>
<path d="M231.161 358.18C231.426 358.103 231.963 357.676 231.929 358.273C231.716 361.763 230.257 363.248 227.143 364.297H226.955C229.728 363.137 231.033 361.208 231.161 358.18Z" fill="white"/>
<path d="M226.955 364.288H227.143C226.708 364.433 226.58 364.561 225.991 364.672C226.196 364.348 226.588 364.28 226.947 364.288H226.955Z" fill="white"/>
<path d="M452.11 282.314C460.898 282.852 482.492 286.273 486.118 295.641C489.514 304.412 478.175 315.998 472.297 321.492C462.86 330.323 452.085 337.643 441.488 344.989C441.369 344.059 440.72 345.595 440.439 344.708C438.801 339.546 436.463 335.502 431.839 332.456C437.7 324.589 442.87 314.257 434.321 306.092C423.657 295.905 397.131 294.395 382.951 293.969C345.053 292.825 305.414 297.433 268.019 303.354C263.309 304.096 258.566 305.094 253.873 305.632C253.421 305.035 252.662 304.412 253.685 303.942C302.854 293.551 352.791 285.881 402.95 282.314C419.075 283.057 436.087 281.325 452.11 282.314Z" fill="white"/>
<path d="M390.51 368.682C390.903 370.67 391.978 372.411 392.806 374.228L342.502 401.274C341.683 401.888 339.149 402.238 340.011 400.694L390.51 368.682Z" fill="white"/>
<path d="M502.423 337.541L503.378 337.728C504.214 336.926 507.687 339.315 507.362 339.972C507.32 340.058 507.26 340.134 507.2 340.211C507.738 341.252 507.533 342.532 507.584 343.65C507.721 345.296 506.287 346.738 504.718 346.9C504.53 347.062 504.274 347.19 503.95 347.284C500.008 347.668 497.056 345.322 497.909 341.158C498.361 338.966 500.409 337.908 502.414 337.541H502.423ZM502.039 338.684C501.731 338.727 501.441 338.641 501.083 338.769C499.752 339.247 499.223 340.493 498.984 341.738C498.959 341.883 498.771 342.02 498.762 342.404C498.754 342.788 498.959 342.95 498.984 343.069C499.343 345.211 500.861 346.798 503.19 346.508C504.103 346.397 504.88 345.808 505.485 345.168C505.844 344.793 505.793 344.963 506.057 344.4C506.705 343.044 506.705 342.54 506.245 341.15C505.904 340.1 506.014 340.169 505.093 339.426C504.274 338.778 503.626 338.42 502.499 338.454C502.243 338.454 502.09 338.65 502.03 338.658L502.039 338.684Z" fill="white"/>
<path d="M503.19 337.541C503.19 337.541 503.25 337.353 503.66 337.336C504.803 337.302 506.569 337.779 507.388 338.599C508.088 339.29 507.695 340.075 507.78 340.979L507.209 340.22C506.577 339 504.726 337.907 503.387 337.737C503.241 337.72 503.182 337.66 503.199 337.549L503.19 337.541Z" fill="white"/>
<path d="M504.718 347.096C504.547 347.045 504.555 346.977 504.718 346.909C506.27 346.124 506.927 345.253 507.584 343.658C507.584 343.692 507.772 343.974 507.789 344.306C507.9 346.38 506.415 346.755 504.718 347.096Z" fill="white"/>
<path d="M504.717 347.097C504.487 347.148 504.368 347.25 503.95 347.284C504.146 347.045 504.461 347.028 504.717 346.9V347.088V347.097Z" fill="white"/>
<path d="M503.19 337.541L503.378 337.728C503.079 337.694 502.584 337.865 502.422 337.541C502.644 337.498 502.943 337.566 503.19 337.541Z" fill="white"/>
<path d="M464.55 376.139C464.439 376.156 464.405 376.403 463.978 376.258C462.988 375.917 463.15 374.441 463.236 373.579C463.679 368.929 466.614 361.635 467.792 356.729C468.594 353.367 470.513 347.566 465.13 347.472C465.147 347.472 465.104 347.301 465.411 347.284C471.426 346.926 469.942 352.181 469.054 356.072C467.834 361.413 465.804 366.796 464.652 372.12C464.37 373.409 463.884 374.936 464.558 376.139H464.55Z" fill="white"/>
<path d="M461.29 351.874C455.702 355.022 451.692 360.363 447.051 364.689L443.86 379.748C442.026 379.722 440.114 379.952 438.34 379.585C439.099 379.466 442.742 379.824 443.032 379.406L446.172 364.578C449.235 361.779 451.999 358.461 455.071 355.696C456.393 354.51 459.541 351.738 461.29 351.883V351.874Z" fill="white"/>
<path d="M450.011 347.472C450.301 347.412 451.078 347.08 450.958 347.557C450.626 348.863 450.216 350.16 449.918 351.482C449.346 354.042 448.877 357.744 448.1 360.082C447.955 360.517 447.213 361.259 446.855 361.609L446.778 361.157L450.011 347.472Z" fill="white"/>
<path d="M460.915 380.729C461.7 380.465 462.314 380.507 463.15 380.192C465.838 379.159 468.176 375.9 469.532 373.468C470.01 373.05 470.036 374.637 470.104 374.808C468.082 377.231 465.795 380.618 462.331 380.9C461.632 380.959 461.453 380.806 460.924 380.729H460.915Z" fill="white"/>
<path d="M479.276 365.824C478.977 366.148 478.038 366.139 477.748 365.824C478.26 365.824 478.772 365.841 479.276 365.824Z" fill="white"/>
<path d="M440.823 352.25C440.771 352.25 440.2 352.403 439.867 352.437C440.029 352.13 440.516 352.258 440.823 352.25Z" fill="white"/>
<path d="M481.383 365.628C481.212 365.577 481.221 365.508 481.383 365.44C488.226 364.322 497.866 361.259 496.877 352.54C496.459 348.863 492.398 347.523 489.224 347.481C489.71 347.165 490.674 347.242 491.237 347.284C494.198 347.498 497.764 349.059 498.199 352.369C499.394 361.515 488.499 364.868 481.383 365.636V365.628Z" fill="white"/>
<path d="M493.814 370.405C493.899 369.68 495.23 370.465 495.333 370.61C495.58 370.96 493.012 374.484 492.568 374.987C489.787 378.186 485.555 380.575 481.281 380.908C480.709 380.951 479.77 381.045 479.276 380.72C479.711 380.686 480.154 380.627 480.615 380.533C485.41 380.226 489.736 377.154 492.44 373.332C492.764 372.871 493.805 371.404 493.925 370.977C494.019 370.67 493.805 370.465 493.814 370.405Z" fill="white"/>
<path d="M476.025 366.012C476.161 365.935 476.281 365.901 476.409 366.012C475.812 368.119 475.863 370.644 476.699 372.7C477.458 374.569 479.045 375.704 480.811 376.523C475.615 375.772 474.157 370.789 475.163 366.199C475.359 365.926 475.752 366.037 476.033 366.02L476.025 366.012Z" fill="white"/>
<path d="M480.615 380.533C480.359 380.865 479.694 380.72 479.276 380.72C478.858 380.72 478.192 380.857 477.936 380.533C478.747 380.584 479.805 380.584 480.615 380.533Z" fill="white"/>
<path d="M481.383 365.44V365.628C480.786 365.696 480.316 365.781 479.66 365.815C480.12 365.534 480.837 365.525 481.383 365.431V365.44Z" fill="white"/>
<path d="M477.552 365.824C477.339 366.148 476.767 366.003 476.4 366.011C476.272 366.011 476.144 366.003 476.016 366.011C476.332 365.67 477.066 365.824 477.544 365.824H477.552Z" fill="white"/>
<path d="M487.884 349.195C482.304 352.105 478.781 358.47 476.981 364.288C476.597 364.297 476.213 364.288 475.837 364.288C475.718 364.177 476.341 362.437 476.452 362.138C477.962 358.094 483.081 349.4 487.884 349.195Z" fill="white"/>
<path d="M417.676 331.808C429.322 330.349 438.809 338.582 438.971 350.219C439.236 350.134 439.364 350.271 439.483 350.535C442.998 349.75 446.607 348.206 450.003 347.481L450.336 347.737L447.341 360.406C447.469 360.219 447.716 360.116 448.092 360.091C451.257 356.772 454.337 353.188 458.057 350.458C460.523 348.649 462.016 347.796 465.113 347.472C469.455 347.003 469.413 350.535 468.875 353.734C467.741 358.512 466.375 363.273 464.797 368.008C464.234 369.996 463.722 372.018 463.56 374.074C463.475 375.132 463.526 375.729 464.533 376.13C465.957 375.857 468.764 372.854 469.208 371.532C469.515 370.627 469.242 368.904 469.336 367.838C470.129 358.708 479.532 347.327 489.207 347.464C492.5 347.08 496.715 348.581 497.209 352.284C498.43 361.311 488.558 364.706 481.357 365.423C480.82 365.585 480.248 365.705 479.634 365.807C479.506 365.807 479.378 365.807 479.25 365.807C478.755 365.978 478.218 365.969 477.723 365.807C477.663 365.807 477.595 365.807 477.535 365.807L476.008 365.995C475.197 366.524 475.206 367.795 475.223 368.861C475.274 372.65 477.066 375.414 480.786 376.506C484.762 377.086 488.695 374.919 491.305 372.01C491.613 371.668 492.799 369.834 492.935 369.825C493.046 369.825 493.601 370.303 493.797 370.389C495.034 370.372 493.626 372.308 493.182 372.888C490.708 376.148 488.541 378.562 484.514 379.953C483.328 380.362 481.733 380.866 480.589 380.516C479.753 380.712 478.747 380.712 477.91 380.516C474.447 380.285 471.392 377.973 470.07 374.782C469.72 374.791 469.558 374.561 469.583 374.091C467.621 377.248 465.002 380.968 460.889 380.704C457.391 380.2 456.854 378.639 457.281 375.277C457.903 370.346 460.523 364.143 461.794 359.152C462.255 357.352 464.123 352.079 461.273 351.849C459.413 352.472 457.536 353.837 456.103 355.185C452.87 358.239 449.517 361.481 446.454 364.758L443.331 379.543C441.659 379.774 439.986 379.663 438.314 379.552C438.092 379.509 437.785 379.586 437.546 379.552L443.485 353.453C443.45 352.199 441.727 352.182 440.797 352.224C440.456 352.224 440.14 352.284 439.841 352.412C439.713 352.429 439.585 352.412 439.458 352.412C439.381 352.617 439.287 352.822 439.074 352.787C438.707 367.812 427.248 380.994 411.721 380.695C411.055 380.866 410.287 380.857 409.613 380.695C409.28 380.857 408.794 380.874 408.461 380.695C408.095 380.533 407.685 380.55 407.31 380.695C398.692 379.594 392.396 372.223 391.645 363.759C390.357 349.102 399.955 335.041 414.579 332.157L415.918 331.97C416.447 331.816 417.027 331.748 417.642 331.782L417.676 331.808ZM410.407 336.585C409.869 336.952 409.605 337.097 409.067 337.541C408.436 338.07 408.077 338.497 407.54 339.068C399.29 347.805 393.983 368.452 406.013 376.139C406.26 376.301 406.465 376.557 406.781 376.711C409.775 378.246 413.555 378.178 416.729 377.188C427.462 373.852 432.444 357.446 431.045 347.404C429.569 336.773 420.286 329.879 410.415 336.577L410.407 336.585ZM487.884 349.196C483.081 349.4 477.962 358.094 476.452 362.138C476.341 362.437 475.718 364.177 475.837 364.288C476.221 364.288 476.605 364.297 476.981 364.288C482.108 364.169 489.002 361.285 491.041 356.26C492.304 353.154 492.15 349.016 487.884 349.196Z" fill="white"/>
<path d="M439.483 352.446C439.517 364.817 431.77 376.327 419.732 379.825C416.899 380.652 414.681 380.874 411.746 380.917C411.575 380.866 411.584 380.797 411.746 380.729C417.471 380.482 422.667 378.937 427.308 375.533C434.577 370.201 438.459 361.362 438.724 352.446C438.98 352.429 439.236 352.446 439.483 352.446Z" fill="white"/>
<path d="M439.483 350.535C439.227 350.594 438.963 350.56 438.724 350.731C438.425 350.014 438.604 349.281 438.51 348.555C436.941 337.165 428.989 331.389 417.684 331.807H416.916L420.653 331.415C423.179 331.637 425.482 331.935 427.863 332.806C435.303 335.536 439.372 342.822 439.483 350.526V350.535Z" fill="white"/>
<path d="M411.746 380.729V380.917C411.047 380.925 410.338 380.917 409.639 380.917C409.468 380.866 409.477 380.797 409.639 380.729C410.33 380.746 411.047 380.755 411.746 380.729Z" fill="white"/>
<path d="M416.916 331.808C417.172 331.808 417.428 331.808 417.684 331.808C417.343 331.816 416.43 331.944 415.961 331.995C415.816 332.081 415.688 332.132 415.577 331.995C415.833 331.671 416.498 331.799 416.916 331.808Z" fill="white"/>
<path d="M409.647 380.729V380.917C409.229 380.917 408.572 381.062 408.308 380.729H408.496C408.879 380.746 409.263 380.729 409.647 380.729Z" fill="white"/>
<path d="M415.577 331.995C415.705 331.987 415.833 332.012 415.961 331.995C415.688 332.353 415.039 332.14 414.621 332.183C414.963 332.115 415.091 332.029 415.577 331.995Z" fill="white"/>
<path d="M408.496 380.729C408.436 380.729 408.368 380.729 408.308 380.729C407.992 380.712 407.651 380.763 407.352 380.729C407.531 380.422 408.308 380.413 408.504 380.729H408.496Z" fill="white"/>
<path d="M407.728 339.068C399.332 348.521 395.399 367.018 406.2 376.139H406.013C393.991 368.443 399.29 347.796 407.54 339.068H407.728Z" fill="white"/>
<path d="M409.263 337.541C408.879 337.882 408.069 338.693 407.736 339.068H407.548C408.095 338.496 408.444 338.061 409.076 337.541H409.263Z" fill="white"/>
<path d="M410.407 336.585C410.262 337.174 409.477 337.345 409.255 337.541H409.067C409.605 337.097 409.869 336.952 410.407 336.585Z" fill="white"/>
<path d="M406.772 376.71C406.465 376.548 406.26 376.301 406.004 376.139H406.192C406.32 376.25 406.857 376.147 406.764 376.71H406.772Z" fill="white"/>
<path d="M502.039 338.684C502.312 339.128 501.987 339.452 501.083 339.64C501.339 340.092 501.228 340.339 500.699 340.211C500.272 341.627 500.349 342.993 500.699 344.417C501.049 344.434 501.305 344.75 501.467 345.373C501.527 345.296 501.586 345.236 501.663 345.194C501.757 345.143 503.472 345.996 503.54 346.175C503.591 346.32 503.378 346.474 503.19 346.525C500.861 346.815 499.342 345.228 498.984 343.086C498.848 342.643 498.848 342.191 498.984 341.747C499.232 340.493 499.761 339.247 501.083 338.778C501.45 338.65 501.731 338.735 502.039 338.692V338.684Z" fill="white"/>
<path d="M505.101 339.452C506.023 340.186 505.903 340.117 506.253 341.175C506.441 341.977 506.398 342.609 505.545 342.916C505.972 343.402 506.142 343.905 506.065 344.417C505.801 344.98 505.852 344.801 505.494 345.185C504.897 344.955 504.052 343.564 503.967 342.89C503.77 342.446 504.436 341.551 504.922 341.747C505.118 341.226 505.212 340.928 504.922 340.407C504.555 340.518 504.137 340.424 503.651 340.143C502.883 340.16 502.346 339.998 502.047 339.639C502.235 338.547 504.282 339.119 505.11 339.452H505.101Z" fill="white"/>
<path d="M502.039 339.64C503.071 339.64 504.103 339.64 504.905 340.407C505.212 340.877 505.136 341.261 504.905 341.747C504.641 342.182 504.393 342.583 503.95 342.89C503.873 342.941 503.557 342.788 503.566 342.984L505.093 345.373C503.779 345.646 503.66 344.409 502.986 343.658C502.619 343.453 502.303 343.197 502.03 342.89C501.902 342.89 501.774 342.882 501.646 342.89C501.441 343.155 501.936 345.015 501.45 345.373C501.356 345.33 500.998 345.458 500.904 345.356C500.87 345.313 500.801 344.699 500.682 344.417C500.332 343.018 500.247 341.61 500.682 340.211C500.861 339.87 500.827 339.93 501.066 339.64C501.382 339.64 501.706 339.64 502.022 339.64H502.039ZM502.039 340.407C501.416 340.561 501.706 341.636 501.655 342.131C501.783 342.139 501.911 342.131 502.039 342.131C502.602 342.165 503.097 342.233 503.566 341.943C504.445 341.389 503.924 340.57 502.994 340.416C502.815 340.382 502.192 340.373 502.039 340.416V340.407Z" fill="white"/>
<path d="M502.038 342.89C502.781 342.839 502.909 342.856 502.994 343.658C503.045 344.144 502.96 344.69 502.994 345.185H502.038V342.89Z" fill="white"/>
<path d="M502.994 340.408C503.369 340.604 503.48 340.979 503.335 341.551L503.566 341.935C503.096 342.233 502.593 342.157 502.038 342.122C501.697 341.841 501.765 340.834 502.038 340.399C502.192 340.356 502.815 340.365 502.994 340.399V340.408Z" fill="white"/>
<defs>
<filter id="filter0_d_1_2523" x="42" y="40" width="595" height="595" filterUnits="userSpaceOnUse" color-interpolation-filters="sRGB">
<feFlood flood-opacity="0" result="BackgroundImageFix"/>
<feColorMatrix in="SourceAlpha" type="matrix" values="0 0 0 0 0 0 0 0 0 0 0 0 0 0 0 0 0 0 127 0" result="hardAlpha"/>
<feOffset/>
<feGaussianBlur stdDeviation="25"/>
<feComposite in2="hardAlpha" operator="out"/>
<feColorMatrix type="matrix" values="0 0 0 0 1 0 0 0 0 0 0 0 0 0 0 0 0 0 0.5 0"/>
<feBlend mode="normal" in2="BackgroundImageFix" result="effect1_dropShadow_1_2523"/>
<feBlend mode="normal" in="SourceGraphic" in2="effect1_dropShadow_1_2523" result="shape"/>
</filter>
</defs>
</svg>
