<svg width="678" height="676" viewBox="0 0 678 676" fill="none" xmlns="http://www.w3.org/2000/svg">
<g clip-path="url(#clip0_1_2521)">
<path d="M586 337.631C586 474.321 475.19 585.131 338.5 585.131C323.016 585.131 307.865 583.709 293.168 580.988C251.97 573.363 214.352 555.533 183.033 530.22C165.826 516.312 150.521 500.145 137.568 482.17C108.263 441.504 91 391.583 91 337.631C91 315.67 93.8601 294.378 99.2281 274.106C120.707 192.991 182.339 128.209 261.563 102.322C285.78 94.4093 311.64 90.1306 338.5 90.1306C355.398 90.1306 371.901 91.8241 387.847 95.0506C403.766 98.2715 419.131 103.02 433.782 109.137C493.848 134.213 541.918 182.283 566.994 242.348C579.238 271.676 586 303.864 586 337.631Z" fill="#EE83CE"/>
<path fill-rule="evenodd" clip-rule="evenodd" d="M433.782 109.137C493.847 134.213 541.917 182.283 566.994 242.348C549.636 265.472 521.99 280.431 490.85 280.431C438.3 280.431 395.7 237.831 395.7 185.281C395.7 154.141 410.659 126.495 433.782 109.137Z" fill="#D83CA9"/>
<path fill-rule="evenodd" clip-rule="evenodd" d="M183.033 530.22C221.625 505.486 247.2 462.22 247.2 412.981C247.2 336.13 184.9 273.831 108.05 273.831C105.087 273.831 102.145 273.923 99.2281 274.106C93.8601 294.378 91 315.67 91 337.631C91 391.583 108.263 441.504 137.568 482.17C150.521 500.145 165.826 516.312 183.033 530.22Z" fill="#D83CA9"/>
<path fill-rule="evenodd" clip-rule="evenodd" d="M137.568 482.17C150.521 500.145 165.826 516.312 183.034 530.22C214.352 555.533 251.97 573.363 293.169 580.988C296.175 571.728 297.8 561.844 297.8 551.581C297.8 499.031 255.2 456.431 202.65 456.431C177.476 456.431 154.586 466.207 137.568 482.17Z" fill="#D83CA9"/>
<path fill-rule="evenodd" clip-rule="evenodd" d="M324.75 162.731C359.682 162.731 388 134.413 388 99.4806C388 97.9914 387.948 96.5141 387.847 95.0506C371.901 91.8241 355.398 90.1306 338.5 90.1306C311.64 90.1306 285.78 94.4093 261.563 102.322C263.049 135.936 290.77 162.731 324.75 162.731Z" fill="#D83CA9"/>
<path fill-rule="evenodd" clip-rule="evenodd" d="M338.5 161.232C334.073 162.213 329.472 162.731 324.75 162.731C290.77 162.731 263.049 135.936 261.563 102.322C285.78 94.4093 311.64 90.1306 338.5 90.1306V161.232Z" fill="#D83CA9"/>
<path d="M444.337 323.565C432.14 330.984 435.561 358.878 451.978 385.868C468.395 412.858 491.592 428.723 503.789 421.303C515.986 413.884 512.565 385.99 496.148 359C479.731 332.011 456.534 316.145 444.337 323.565Z" fill="#D83CA9"/>
<path d="M317.626 481.588C301.209 454.598 297.788 426.704 309.985 419.285C322.183 411.865 345.379 427.731 361.796 454.72C378.213 481.71 381.634 509.604 369.437 517.024C357.239 524.443 334.043 508.578 317.626 481.588Z" fill="#D83CA9"/>
<path fill-rule="evenodd" clip-rule="evenodd" d="M309.985 419.285C297.788 426.704 301.209 454.598 317.626 481.588C323.921 491.938 331.213 500.651 338.5 507.044V427.225C327.613 418.439 316.987 415.026 309.985 419.285Z" fill="#D83CA9"/>
<g style="mix-blend-mode:multiply">
<path d="M338.506 90C475.256 90 586.114 200.85 586.114 337.591C586.114 474.167 475.523 584.913 339 585.18C442.715 378.822 442.74 322.648 322.198 90.5283C327.589 90.1778 333.027 90 338.506 90Z" fill="#F2C5ED"/>
</g>
<path d="M291.295 356.187C290.412 355.304 290.375 351.22 290.743 349.012H304.54L302.332 354.531C302.332 353.795 301.67 352.323 299.021 352.323C295.71 352.323 297.365 356.187 296.261 356.187C295.158 356.187 292.398 357.29 291.295 356.187Z" fill="#777777"/>
<path d="M297.365 351.22C301.022 351.22 303.987 350.231 303.987 349.012C303.987 347.793 301.022 346.805 297.365 346.805C293.708 346.805 290.743 347.793 290.743 349.012C290.743 350.231 293.708 351.22 297.365 351.22Z" fill="#3E3E3E"/>
<path d="M294.938 286.099H304.871V347.909C301.236 349.575 299.081 349.745 294.938 347.909V286.099Z" fill="url(#paint0_linear_1_2521)"/>
<path d="M303.768 294.93H294.938V287.203H303.768V294.93Z" fill="#434040"/>
<path d="M301.561 276.166H291.627V292.722H301.561V276.166Z" fill="url(#paint1_linear_1_2521)"/>
<path d="M291.627 277.821C289.419 274.731 288.499 248.572 288.315 235.879H303.216C303.657 238.97 301.928 265.128 301.008 277.821C297.918 278.704 293.466 278.189 291.627 277.821Z" fill="url(#paint2_linear_1_2521)"/>
<path d="M295.49 237.535C299.452 237.535 302.664 236.793 302.664 235.879C302.664 234.965 299.452 234.223 295.49 234.223C291.528 234.223 288.316 234.965 288.316 235.879C288.316 236.793 291.528 237.535 295.49 237.535Z" fill="#7F8C92"/>
<path d="M377.718 217.667H299.353V228.704H377.718V217.667Z" fill="#3F3F3F"/>
<path d="M377.718 207.734H299.353V223.186H377.718V207.734Z" fill="#636363"/>
<path d="M379.374 224.29C356.416 229.146 316.461 226.313 299.353 224.29V434H379.374V224.29Z" fill="url(#paint3_linear_1_2521)"/>
<path d="M379.374 245.872C344.696 254.359 313.202 250.158 299.353 246.397V244.319C312.656 248.045 344.408 252.483 379.374 243.814V245.872Z" fill="#3F3F3F"/>
<path d="M362.266 300.448C362.266 287.646 351.889 277.269 339.087 277.269C326.286 277.269 315.909 287.646 315.909 300.448V415.237C315.909 428.038 326.286 438.415 339.087 438.415C351.889 438.415 362.266 428.038 362.266 415.237V300.448Z" fill="url(#paint4_linear_1_2521)"/>
<path d="M362.265 246.365H318.116V251.884H362.265V246.365Z" fill="url(#paint5_linear_1_2521)"/>
<g clip-path="url(#paint6_angular_1_2521_clip_path)" data-figma-skip-parse="true"><g transform="matrix(0.0121411 0.0137967 -0.0137967 0.0121411 339.087 303.759)"><foreignObject x="-1517.74" y="-1517.74" width="3035.49" height="3035.49"><div xmlns="http://www.w3.org/1999/xhtml" style="background:conic-gradient(from 90deg,rgba(217, 217, 217, 1) 0deg,rgba(209, 209, 209, 1) 3.46154deg,rgba(139, 139, 139, 1) 17.3077deg,rgba(164, 164, 164, 1) 50.4807deg,rgba(157, 154, 154, 1) 114.231deg,rgba(217, 217, 217, 1) 166.154deg,rgba(175, 177, 178, 1) 235.385deg,rgba(217, 217, 217, 1) 360deg);height:100%;width:100%;opacity:1"></div></foreignObject></g></g><path d="M339.087 322.522C349.45 322.522 357.85 314.122 357.85 303.759C357.85 293.396 349.45 284.995 339.087 284.995C328.724 284.995 320.323 293.396 320.323 303.759C320.323 314.122 328.724 322.522 339.087 322.522Z" data-figma-gradient-fill="{&#34;type&#34;:&#34;GRADIENT_ANGULAR&#34;,&#34;stops&#34;:[{&#34;color&#34;:{&#34;r&#34;:0.82051277160644531,&#34;g&#34;:0.82051277160644531,&#34;b&#34;:0.82051277160644531,&#34;a&#34;:1.0},&#34;position&#34;:0.0096153849735856056},{&#34;color&#34;:{&#34;r&#34;:0.54772555828094482,&#34;g&#34;:0.54807692766189575,&#34;b&#34;:0.54632019996643066,&#34;a&#34;:1.0},&#34;position&#34;:0.048076923936605453},{&#34;color&#34;:{&#34;r&#34;:0.64445948600769043,&#34;g&#34;:0.64445948600769043,&#34;b&#34;:0.64445948600769043,&#34;a&#34;:1.0},&#34;position&#34;:0.14022420346736908},{&#34;color&#34;:{&#34;r&#34;:0.61858969926834106,&#34;g&#34;:0.60471099615097046,&#34;b&#34;:0.60471099615097046,&#34;a&#34;:1.0},&#34;position&#34;:0.31730768084526062},{&#34;color&#34;:{&#34;r&#34;:0.85098040103912354,&#34;g&#34;:0.85098040103912354,&#34;b&#34;:0.85098040103912354,&#34;a&#34;:1.0},&#34;position&#34;:0.46153846383094788},{&#34;color&#34;:{&#34;r&#34;:0.68627452850341797,&#34;g&#34;:0.69411766529083252,&#34;b&#34;:0.69803923368453979,&#34;a&#34;:1.0},&#34;position&#34;:0.65384614467620850},{&#34;color&#34;:{&#34;r&#34;:0.85098040103912354,&#34;g&#34;:0.85098040103912354,&#34;b&#34;:0.85098040103912354,&#34;a&#34;:1.0},&#34;position&#34;:1.0}],&#34;stopsVar&#34;:[{&#34;color&#34;:{&#34;r&#34;:0.82051277160644531,&#34;g&#34;:0.82051277160644531,&#34;b&#34;:0.82051277160644531,&#34;a&#34;:1.0},&#34;position&#34;:0.0096153849735856056},{&#34;color&#34;:{&#34;r&#34;:0.54772555828094482,&#34;g&#34;:0.54807692766189575,&#34;b&#34;:0.54632019996643066,&#34;a&#34;:1.0},&#34;position&#34;:0.048076923936605453},{&#34;color&#34;:{&#34;r&#34;:0.64445948600769043,&#34;g&#34;:0.64445948600769043,&#34;b&#34;:0.64445948600769043,&#34;a&#34;:1.0},&#34;position&#34;:0.14022420346736908},{&#34;color&#34;:{&#34;r&#34;:0.61858969926834106,&#34;g&#34;:0.60471099615097046,&#34;b&#34;:0.60471099615097046,&#34;a&#34;:1.0},&#34;position&#34;:0.31730768084526062},{&#34;color&#34;:{&#34;r&#34;:0.85098040103912354,&#34;g&#34;:0.85098040103912354,&#34;b&#34;:0.85098040103912354,&#34;a&#34;:1.0},&#34;position&#34;:0.46153846383094788},{&#34;color&#34;:{&#34;r&#34;:0.68627452850341797,&#34;g&#34;:0.69411766529083252,&#34;b&#34;:0.69803923368453979,&#34;a&#34;:1.0},&#34;position&#34;:0.65384614467620850},{&#34;color&#34;:{&#34;r&#34;:0.85098040103912354,&#34;g&#34;:0.85098040103912354,&#34;b&#34;:0.85098040103912354,&#34;a&#34;:1.0},&#34;position&#34;:1.0}],&#34;transform&#34;:{&#34;m00&#34;:24.282236099243164,&#34;m01&#34;:-27.593450546264648,&#34;m02&#34;:340.74298095703125,&#34;m10&#34;:27.593448638916016,&#34;m11&#34;:24.282236099243164,&#34;m12&#34;:277.82116699218750},&#34;opacity&#34;:1.0,&#34;blendMode&#34;:&#34;NORMAL&#34;,&#34;visible&#34;:true}"/>
<path d="M307.631 468.216L314.253 466.009L300.457 421.307C297.808 420.424 293.466 423.515 291.627 425.17V461.594C293.393 464.243 303.032 467.296 307.631 468.216Z" fill="url(#paint7_linear_1_2521)"/>
<path d="M371.096 468.768L362.266 466.009L378.27 420.911C380.919 420.028 385.26 423.118 387.1 424.774V462.697C385.334 465.346 375.695 467.848 371.096 468.768Z" fill="url(#paint8_linear_1_2521)"/>
<path d="M363.369 441.726H314.805V470.423H363.369V441.726Z" fill="#ACA7A3"/>
<path d="M365.577 449.452H312.598V459.386H365.577V449.452Z" fill="#303030"/>
<path d="M358.955 441.726H320.324V466.008H358.955V441.726Z" fill="url(#paint9_linear_1_2521)"/>
<path d="M298.249 459.386V438.415L315.909 442.83V466.008C308.403 466.008 301.008 461.594 298.249 459.386Z" fill="#DFDBD4"/>
<path d="M315.909 443.658V446.341C309.954 445.883 301.421 442.387 298.249 440.03V439.243C301.003 441.56 309.693 443.104 315.909 443.658Z" fill="#7D7D7D"/>
<path d="M379.926 459.386V438.415L362.266 442.83V466.008C369.771 466.008 377.166 461.594 379.926 459.386Z" fill="url(#paint10_linear_1_2521)"/>
<path d="M362.266 443.934V446.616C368.221 446.159 376.754 442.662 379.926 440.306V439.519C377.171 441.835 368.482 443.38 362.266 443.934Z" fill="#7D7D7D"/>
<path d="M297.697 439.519V421.307C334.341 433.227 368.888 426.274 381.581 421.307V439.519C346.703 454.088 311.126 445.589 297.697 439.519Z" fill="url(#paint11_linear_1_2521)"/>
<path d="M315.909 471.527V466.008C313.701 466.008 309.838 466.928 308.183 467.664V474.838C308.624 473.072 313.517 471.895 315.909 471.527Z" fill="#C8C4BE"/>
<path d="M308.183 467.664V474.838C305.424 474.838 292.73 469.872 291.627 468.768C291.075 467.664 291.259 463.617 291.627 461.594C293.834 463.801 303.584 466.744 308.183 467.664Z" fill="#DFDBD4"/>
<path d="M363.37 471.527V466.008C365.577 466.008 369.44 466.928 371.096 467.664V474.838C370.654 473.072 365.761 471.895 363.37 471.527Z" fill="#C8C4BE"/>
<path d="M371.096 467.664V474.838C373.855 474.838 386.548 469.872 387.652 468.768C388.204 467.664 388.02 463.617 387.652 461.594C385.444 463.801 375.694 466.744 371.096 467.664Z" fill="#9D9995"/>
<path d="M339.639 430.689C363.108 430.689 382.133 426.241 382.133 420.755C382.133 415.269 363.108 410.821 339.639 410.821C316.17 410.821 297.145 415.269 297.145 420.755C297.145 426.241 316.17 430.689 339.639 430.689Z" fill="url(#paint12_linear_1_2521)"/>
<path d="M302.838 222.535C295.809 221.518 298.44 217.027 299.905 214.908H376.432C379.178 216.815 381.375 221.009 374.785 222.535C366.547 224.441 311.626 223.806 302.838 222.535Z" fill="#8C8D8B"/>
<path d="M338.536 211.045C360.786 211.045 378.822 209.563 378.822 207.734C378.822 205.905 360.786 204.423 338.536 204.423C316.286 204.423 298.25 205.905 298.25 207.734C298.25 209.563 316.286 211.045 338.536 211.045Z" fill="#DFDBD4"/>
<path d="M307.079 417.444C307.079 416.834 306.585 416.34 305.976 416.34C305.366 416.34 304.872 416.834 304.872 417.444V424.066C304.872 424.676 305.366 425.17 305.976 425.17C306.585 425.17 307.079 424.676 307.079 424.066V417.444Z" fill="#4C575C"/>
<path d="M373.303 417.444C373.303 416.834 372.809 416.34 372.2 416.34C371.59 416.34 371.096 416.834 371.096 417.444V424.066C371.096 424.676 371.59 425.17 372.2 425.17C372.809 425.17 373.303 424.676 373.303 424.066V417.444Z" fill="#4C575C"/>
<path d="M313.701 416.341C313.701 415.731 313.207 415.237 312.598 415.237C311.988 415.237 311.494 415.731 311.494 416.341V425.171C311.494 425.78 311.988 426.274 312.598 426.274C313.207 426.274 313.701 425.78 313.701 425.171V416.341Z" fill="#4C575C"/>
<path d="M366.681 416.341C366.681 415.731 366.186 415.237 365.577 415.237C364.967 415.237 364.473 415.731 364.473 416.341V425.171C364.473 425.78 364.967 426.274 365.577 426.274C366.186 426.274 366.681 425.78 366.681 425.171V416.341Z" fill="#4C575C"/>
<path d="M320.323 415.237C320.323 414.627 319.829 414.133 319.22 414.133C318.61 414.133 318.116 414.627 318.116 415.237V426.274C318.116 426.884 318.61 427.378 319.22 427.378C319.829 427.378 320.323 426.884 320.323 426.274V415.237Z" fill="#4C575C"/>
<path d="M360.059 415.237C360.059 414.627 359.564 414.133 358.955 414.133C358.345 414.133 357.851 414.627 357.851 415.237V426.274C357.851 426.884 358.345 427.378 358.955 427.378C359.564 427.378 360.059 426.884 360.059 426.274V415.237Z" fill="#4C575C"/>
<path d="M326.947 414.133C326.947 413.523 326.452 413.029 325.843 413.029C325.233 413.029 324.739 413.523 324.739 414.133V427.378C324.739 427.987 325.233 428.481 325.843 428.481C326.452 428.481 326.947 427.987 326.947 427.378V414.133Z" fill="#4C575C"/>
<path d="M353.436 414.133C353.436 413.523 352.942 413.029 352.333 413.029C351.723 413.029 351.229 413.523 351.229 414.133V427.378C351.229 427.987 351.723 428.481 352.333 428.481C352.942 428.481 353.436 427.987 353.436 427.378V414.133Z" fill="#4C575C"/>
<path d="M333.568 413.029C333.568 412.419 333.074 411.925 332.465 411.925C331.855 411.925 331.361 412.419 331.361 413.029V428.481C331.361 429.091 331.855 429.585 332.465 429.585C333.074 429.585 333.568 429.091 333.568 428.481V413.029Z" fill="#4C575C"/>
<path d="M340.191 413.029C340.191 412.419 339.697 411.925 339.088 411.925C338.478 411.925 337.984 412.419 337.984 413.029V428.481C337.984 429.091 338.478 429.585 339.088 429.585C339.697 429.585 340.191 429.091 340.191 428.481V413.029Z" fill="#4C575C"/>
<path d="M346.813 413.029C346.813 412.419 346.319 411.925 345.71 411.925C345.1 411.925 344.606 412.419 344.606 413.029V428.481C344.606 429.091 345.1 429.585 345.71 429.585C346.319 429.585 346.813 429.091 346.813 428.481V413.029Z" fill="#4C575C"/>
<path d="M375.51 419.652H301.56V421.86H375.51V419.652Z" fill="#939EA2"/>
<path opacity="0.61" d="M329.3 306.24V300.8H330.18C330.602 301.35 331.002 301.931 331.38 302.544C331.759 303.152 332.103 303.779 332.412 304.424L332.34 302.8V300.8H333.26V306.24H332.38C332.039 305.568 331.684 304.894 331.316 304.216C330.954 303.534 330.567 302.891 330.156 302.288L330.22 304.16V306.24H329.3ZM335.721 306.24H334.761V300.8H335.721V306.24ZM337.222 306.24V300.8H338.102C338.524 301.35 338.924 301.931 339.302 302.544C339.681 303.152 340.025 303.779 340.334 304.424L340.262 302.8V300.8H341.182V306.24H340.302C339.961 305.568 339.606 304.894 339.238 304.216C338.876 303.534 338.489 302.891 338.078 302.288L338.142 304.16V306.24H337.222ZM342.139 306.32V305.4C342.571 305.4 342.883 305.32 343.075 305.16C343.272 304.995 343.371 304.704 343.371 304.288V300.8H344.331V304.288C344.331 304.704 344.267 305.064 344.139 305.368C344.011 305.672 343.787 305.907 343.467 306.072C343.152 306.238 342.71 306.32 342.139 306.32ZM348.47 306.24L348.134 305.176H346.27L345.934 306.24H344.982L346.798 300.8H347.646L349.47 306.24H348.47ZM346.79 303.512L346.542 304.296H347.854L347.606 303.512L347.206 302.136L346.79 303.512Z" fill="#4C575C"/>
</g>
<defs>
<clipPath id="paint6_angular_1_2521_clip_path"><path d="M339.087 322.522C349.45 322.522 357.85 314.122 357.85 303.759C357.85 293.396 349.45 284.995 339.087 284.995C328.724 284.995 320.323 293.396 320.323 303.759C320.323 314.122 328.724 322.522 339.087 322.522Z"/></clipPath><linearGradient id="paint0_linear_1_2521" x1="300.457" y1="318.108" x2="292.179" y2="318.108" gradientUnits="userSpaceOnUse">
<stop stop-color="#524F4F"/>
<stop offset="1" stop-color="#5F5F5F"/>
</linearGradient>
<linearGradient id="paint1_linear_1_2521" x1="301.56" y1="284.444" x2="291.627" y2="284.444" gradientUnits="userSpaceOnUse">
<stop stop-color="#464242"/>
<stop offset="1" stop-color="#6B6B6B"/>
</linearGradient>
<linearGradient id="paint2_linear_1_2521" x1="303.287" y1="257.094" x2="296.369" y2="257.094" gradientUnits="userSpaceOnUse">
<stop stop-color="#999591"/>
<stop offset="1" stop-color="#DFDBD4"/>
</linearGradient>
<linearGradient id="paint3_linear_1_2521" x1="379.374" y1="329.145" x2="342.399" y2="329.145" gradientUnits="userSpaceOnUse">
<stop stop-color="#999591"/>
<stop offset="1" stop-color="#DFDBD4"/>
</linearGradient>
<linearGradient id="paint4_linear_1_2521" x1="339.087" y1="277.269" x2="339.087" y2="333.56" gradientUnits="userSpaceOnUse">
<stop stop-color="#484D51"/>
<stop offset="1" stop-color="#9A9E9F"/>
</linearGradient>
<linearGradient id="paint5_linear_1_2521" x1="318.116" y1="249.124" x2="362.266" y2="249.124" gradientUnits="userSpaceOnUse">
<stop stop-color="#737373"/>
<stop offset="0.567308" stop-color="#D9D9D9"/>
<stop offset="1" stop-color="#737373"/>
</linearGradient>
<linearGradient id="paint7_linear_1_2521" x1="314.253" y1="444.684" x2="291.627" y2="444.684" gradientUnits="userSpaceOnUse">
<stop stop-color="#494F53"/>
<stop offset="1" stop-color="#9A9E9F"/>
</linearGradient>
<linearGradient id="paint8_linear_1_2521" x1="387.1" y1="444.762" x2="356.747" y2="445.037" gradientUnits="userSpaceOnUse">
<stop stop-color="#4A4F53"/>
<stop offset="1" stop-color="#979B9D"/>
</linearGradient>
<linearGradient id="paint9_linear_1_2521" x1="340.191" y1="453.867" x2="339.639" y2="441.726" gradientUnits="userSpaceOnUse">
<stop stop-color="#9A9E9F"/>
<stop offset="1" stop-color="#4A4F53"/>
</linearGradient>
<linearGradient id="paint10_linear_1_2521" x1="379.926" y1="452.212" x2="358.403" y2="452.764" gradientUnits="userSpaceOnUse">
<stop stop-color="#9A9592"/>
<stop offset="1" stop-color="#DFDBD4"/>
</linearGradient>
<linearGradient id="paint11_linear_1_2521" x1="381.581" y1="434.435" x2="342.821" y2="434.435" gradientUnits="userSpaceOnUse">
<stop stop-color="#999591"/>
<stop offset="1" stop-color="#DFDBD4"/>
</linearGradient>
<linearGradient id="paint12_linear_1_2521" x1="340.191" y1="425.722" x2="340.191" y2="410.822" gradientUnits="userSpaceOnUse">
<stop stop-color="#9DA7AA"/>
<stop offset="1" stop-color="#7E8A91"/>
</linearGradient>
<clipPath id="clip0_1_2521">
<rect width="496" height="496" fill="white" transform="translate(91 90)"/>
</clipPath>
</defs>
</svg>
