<svg width="678" height="676" viewBox="0 0 678 676" fill="none" xmlns="http://www.w3.org/2000/svg">
<g filter="url(#filter0_d_1_2536)">
<path d="M339.5 585C476.19 585 587 474.19 587 337.5C587 200.81 476.19 90 339.5 90C202.81 90 92 200.81 92 337.5C92 474.19 202.81 585 339.5 585Z" fill="#51BBFF"/>
</g>
<path fill-rule="evenodd" clip-rule="evenodd" d="M338 90.0005C464.703 286.189 482.31 394.971 338 585C338.167 585 338.333 585 338.5 585C475.19 585 586 474.19 586 337.5C586 200.81 475.19 90 338.5 90C338.333 90 338.167 90.0002 338 90.0005Z" fill="#127BF3"/>
<path d="M99.8926 271.314C51.6427 177.149 634 175.313 579.58 271.314" stroke="#073E99" stroke-width="6" stroke-linecap="round"/>
<path d="M416.5 217C424.508 217 431 210.508 431 202.5C431 194.492 424.508 188 416.5 188C408.492 188 402 194.492 402 202.5C402 210.508 408.492 217 416.5 217Z" fill="#FFD374"/>
<path d="M416.5 214C422.851 214 428 208.851 428 202.5C428 196.149 422.851 191 416.5 191C410.149 191 405 196.149 405 202.5C405 208.851 410.149 214 416.5 214Z" fill="#FFF1D3"/>
<path d="M97.8442 433C49.5944 527.165 631.952 529 577.531 433" stroke="#073E99" stroke-width="6" stroke-linecap="round"/>
<path d="M237.5 509C243.299 509 248 504.299 248 498.5C248 492.701 243.299 488 237.5 488C231.701 488 227 492.701 227 498.5C227 504.299 231.701 509 237.5 509Z" fill="#FFD374"/>
<path d="M235.721 356.837C232.353 356.837 229.589 356.11 227.438 354.656C225.283 353.202 223.981 351.125 223.53 348.421L229.573 346.863C229.815 348.076 230.226 349.028 230.798 349.719C231.37 350.414 232.083 350.904 232.933 351.201C233.783 351.495 234.713 351.643 235.721 351.643C237.247 351.643 238.375 351.374 239.104 350.84C239.834 350.301 240.2 349.639 240.2 348.839C240.2 348.04 239.854 347.429 239.157 346.995C238.46 346.561 237.352 346.208 235.821 345.931L234.363 345.67C232.558 345.324 230.906 344.846 229.416 344.24C227.921 343.633 226.725 342.793 225.822 341.721C224.92 340.648 224.469 339.262 224.469 337.567C224.469 335.004 225.408 333.039 227.281 331.67C229.158 330.304 231.619 329.617 234.677 329.617C237.557 329.617 239.954 330.259 241.864 331.537C243.773 332.818 245.022 334.498 245.615 336.575L239.519 338.443C239.241 337.129 238.677 336.193 237.827 335.638C236.977 335.084 235.926 334.807 234.677 334.807C233.428 334.807 232.469 335.024 231.813 335.458C231.152 335.892 230.822 336.49 230.822 337.249C230.822 338.081 231.168 338.696 231.865 339.093C232.558 339.491 233.497 339.796 234.677 340.001L236.135 340.262C238.081 340.608 239.842 341.066 241.421 341.64C243 342.211 244.249 343.026 245.171 344.083C246.09 345.139 246.553 346.569 246.553 348.369C246.553 351.069 245.57 353.158 243.608 354.628C241.646 356.102 239.016 356.837 235.716 356.837H235.721Z" fill="white"/>
<path d="M257.994 356.733C255.98 356.733 254.219 356.275 252.709 355.355C251.198 354.439 250.026 353.166 249.192 351.539C248.358 349.912 247.943 348.04 247.943 345.931V330.557H254.506V345.413C254.506 347.353 254.981 348.807 255.94 349.775C256.894 350.744 258.256 351.23 260.029 351.23C262.043 351.23 263.606 350.563 264.718 349.229C265.83 347.895 266.385 346.035 266.385 343.645V330.557H272.948V356.319H266.49V352.945H265.552C265.137 353.813 264.355 354.66 263.207 355.492C262.063 356.323 260.323 356.737 257.998 356.737L257.994 356.733Z" fill="white"/>
<path d="M277.633 366.708V330.556H284.09V333.674H285.03C285.618 332.67 286.54 331.778 287.789 330.998C289.038 330.219 290.827 329.829 293.154 329.829C295.237 329.829 297.167 330.34 298.936 331.36C300.708 332.38 302.131 333.879 303.206 335.851C304.281 337.824 304.821 340.214 304.821 343.018V343.849C304.821 346.654 304.281 349.044 303.206 351.016C302.131 352.989 300.705 354.487 298.936 355.508C297.163 356.528 295.237 357.038 293.154 357.038C291.592 357.038 290.283 356.857 289.223 356.492C288.163 356.13 287.314 355.66 286.668 355.09C286.025 354.519 285.513 353.941 285.134 353.35H284.195V366.7H277.633V366.708ZM291.176 351.334C293.228 351.334 294.92 350.683 296.257 349.385C297.595 348.088 298.264 346.192 298.264 343.697V343.179C298.264 340.684 297.587 338.788 296.232 337.49C294.879 336.193 293.196 335.542 291.181 335.542C289.166 335.542 287.483 336.193 286.13 337.49C284.776 338.788 284.098 340.684 284.098 343.179V343.697C284.098 346.192 284.776 348.088 286.13 349.385C287.483 350.683 289.166 351.334 291.181 351.334H291.176Z" fill="white"/>
<path d="M320.034 357.046C317.464 357.046 315.2 356.5 313.237 355.411C311.276 354.318 309.749 352.78 308.652 350.787C307.561 348.795 307.013 346.449 307.013 343.749V343.126C307.013 340.427 307.549 338.081 308.629 336.088C309.704 334.096 311.215 332.557 313.16 331.464C315.106 330.376 317.362 329.829 319.933 329.829C322.503 329.829 324.674 330.392 326.548 331.517C328.421 332.641 329.883 334.2 330.922 336.193C331.965 338.185 332.485 340.495 332.485 343.126V345.36H313.68C313.749 347.128 314.409 348.562 315.658 349.671C316.907 350.779 318.438 351.334 320.243 351.334C322.047 351.334 323.438 350.936 324.304 350.141C325.17 349.345 325.831 348.461 326.282 347.493L331.648 350.297C331.16 351.197 330.459 352.177 329.536 353.234C328.614 354.29 327.394 355.19 325.862 355.933C324.336 356.676 322.39 357.05 320.029 357.05L320.034 357.046ZM313.729 340.475H325.814C325.673 338.985 325.077 337.791 324.018 336.892C322.958 335.992 321.577 335.542 319.876 335.542C318.176 335.542 316.698 335.992 315.658 336.892C314.615 337.791 313.974 338.989 313.733 340.475H313.729Z" fill="white"/>
<path d="M335.712 356.319V330.557H342.17V333.465H343.108C343.491 332.425 344.123 331.665 345.009 331.179C345.895 330.693 346.927 330.452 348.107 330.452H351.234V336.269H348.003C346.335 336.269 344.965 336.711 343.89 337.595C342.814 338.479 342.274 339.837 342.274 341.672V356.319H335.712Z" fill="white"/>
<path d="M353.732 356.319V330.556H360.189V333.361H361.127C361.579 332.497 362.324 331.742 363.368 331.103C364.411 330.464 365.781 330.143 367.481 330.143C369.322 330.143 370.796 330.496 371.908 331.207C373.02 331.918 373.87 332.842 374.462 333.987H375.401C375.988 332.878 376.823 331.963 377.903 331.235C378.978 330.508 380.505 330.147 382.487 330.147C384.082 330.147 385.532 330.484 386.838 331.159C388.139 331.834 389.182 332.854 389.963 334.224C390.746 335.594 391.137 337.313 391.137 339.394V356.327H384.574V339.86C384.574 338.442 384.207 337.378 383.482 336.667C382.753 335.956 381.725 335.602 380.408 335.602C378.914 335.602 377.762 336.08 376.943 337.032C376.126 337.984 375.719 339.342 375.719 341.11V356.331H369.156V339.864C369.156 338.446 368.79 337.382 368.065 336.671C367.336 335.96 366.309 335.606 364.991 335.606C363.497 335.606 362.344 336.084 361.527 337.036C360.709 337.988 360.301 339.346 360.301 341.114V356.335H353.74L353.732 356.319Z" fill="white"/>
<path d="M407.384 357.046C404.812 357.046 402.548 356.5 400.587 355.411C398.626 354.318 397.099 352.78 396.002 350.787C394.911 348.795 394.363 346.449 394.363 343.749V343.126C394.363 340.427 394.899 338.081 395.979 336.088C397.054 334.096 398.565 332.557 400.51 331.464C402.456 330.376 404.712 329.829 407.282 329.829C409.853 329.829 412.024 330.392 413.897 331.517C415.771 332.641 417.232 334.2 418.272 336.193C419.315 338.185 419.835 340.495 419.835 343.126V345.36H401.03C401.099 347.128 401.759 348.562 403.008 349.671C404.257 350.779 405.787 351.334 407.593 351.334C409.397 351.334 410.787 350.936 411.657 350.141C412.524 349.345 413.184 348.461 413.635 347.493L419.001 350.297C418.514 351.197 417.812 352.177 416.891 353.234C415.968 354.29 414.747 355.19 413.216 355.933C411.689 356.676 409.743 357.05 407.384 357.05V357.046ZM401.082 340.475H413.168C413.027 338.985 412.431 337.791 411.371 336.892C410.312 335.992 408.93 335.542 407.23 335.542C405.53 335.542 404.051 335.992 403.012 336.892C401.968 337.791 401.328 338.989 401.087 340.475H401.082Z" fill="white"/>
<path d="M423.061 356.319V330.556H429.52V333.361H430.458C430.909 332.497 431.655 331.742 432.698 331.103C433.742 330.464 435.111 330.143 436.81 330.143C438.652 330.143 440.126 330.496 441.238 331.207C442.35 331.918 443.2 332.842 443.792 333.987H444.731C445.319 332.878 446.153 331.963 447.232 331.235C448.308 330.508 449.835 330.147 451.817 330.147C453.412 330.147 454.863 330.484 456.167 331.159C457.469 331.834 458.513 332.854 459.294 334.224C460.075 335.594 460.466 337.313 460.466 339.394V356.327H453.903V339.86C453.903 338.442 453.537 337.378 452.812 336.667C452.083 335.956 451.056 335.602 449.738 335.602C448.244 335.602 447.091 336.08 446.274 337.032C445.456 337.984 445.05 339.342 445.05 341.11V356.331H438.487V339.864C438.487 338.446 438.121 337.382 437.395 336.671C436.666 335.96 435.638 335.606 434.322 335.606C432.827 335.606 431.675 336.084 430.856 337.036C430.039 337.988 429.632 339.346 429.632 341.114V356.335H423.069L423.061 356.319Z" fill="white"/>
<path d="M477.238 357.046C474.667 357.046 472.359 356.528 470.308 355.487C468.258 354.447 466.642 352.941 465.462 350.968C464.281 348.996 463.69 346.621 463.69 343.853V343.022C463.69 340.25 464.278 337.88 465.462 335.907C466.642 333.935 468.258 332.429 470.308 331.388C472.354 330.348 474.667 329.829 477.238 329.829C479.808 329.829 482.115 330.348 484.167 331.388C486.213 332.429 487.829 333.935 489.012 335.907C490.193 337.88 490.781 340.254 490.781 343.022V343.853C490.781 346.625 490.189 348.996 489.012 350.968C487.832 352.941 486.217 354.447 484.167 355.487C482.115 356.528 479.808 357.046 477.238 357.046ZM477.238 351.229C479.251 351.229 480.915 350.578 482.237 349.281C483.558 347.983 484.214 346.119 484.214 343.697V343.179C484.214 340.756 483.562 338.892 482.261 337.595C480.96 336.297 479.283 335.646 477.233 335.646C475.183 335.646 473.551 336.297 472.234 337.595C470.913 338.892 470.256 340.756 470.256 343.179V343.697C470.256 346.119 470.913 347.983 472.234 349.281C473.555 350.578 475.218 351.229 477.233 351.229H477.238Z" fill="white"/>
<path d="M494.217 356.319V330.557H500.675V333.465H501.614C501.996 332.425 502.629 331.665 503.515 331.179C504.402 330.693 505.433 330.452 506.614 330.452H509.739V336.269H506.508C504.84 336.269 503.471 336.711 502.395 337.595C501.32 338.479 500.78 339.837 500.78 341.672V356.319H494.217Z" fill="white"/>
<path d="M515.053 366.708V360.996H529.116C530.086 360.996 530.574 360.477 530.574 359.437V352.945H529.635C529.357 353.535 528.922 354.122 528.334 354.713C527.742 355.303 526.944 355.785 525.938 356.167C524.93 356.548 523.645 356.737 522.082 356.737C520.067 356.737 518.303 356.279 516.797 355.359C515.285 354.443 514.113 353.17 513.28 351.543C512.446 349.916 512.031 348.044 512.031 345.935V330.557H518.593V345.413C518.593 347.353 519.069 348.807 520.027 349.775C520.982 350.744 522.344 351.23 524.117 351.23C526.13 351.23 527.693 350.563 528.805 349.229C529.917 347.895 530.474 346.035 530.474 343.645V330.557H537.035V360.891C537.035 362.659 536.516 364.069 535.473 365.125C534.43 366.182 533.039 366.708 531.307 366.708H515.056H515.053Z" fill="white"/>
<path d="M200.757 338.475H179.261V320H172.316V340.046C172.316 342.175 173.166 344.22 174.677 345.726L192.229 363.23L197.14 358.333L184.176 345.405H200.761V338.479L200.757 338.475Z" fill="white"/>
<path d="M146.457 328.508L159.421 341.436H142.835V348.362H164.331V366.837H171.277V346.791C171.277 344.662 170.427 342.617 168.916 341.11L151.368 323.611L146.457 328.508Z" fill="white"/>
<defs>
<filter id="filter0_d_1_2536" x="42" y="40" width="595" height="595" filterUnits="userSpaceOnUse" color-interpolation-filters="sRGB">
<feFlood flood-opacity="0" result="BackgroundImageFix"/>
<feColorMatrix in="SourceAlpha" type="matrix" values="0 0 0 0 0 0 0 0 0 0 0 0 0 0 0 0 0 0 127 0" result="hardAlpha"/>
<feOffset/>
<feGaussianBlur stdDeviation="25"/>
<feComposite in2="hardAlpha" operator="out"/>
<feColorMatrix type="matrix" values="0 0 0 0 0 0 0 0 0 0.35 0 0 0 0 1 0 0 0 0.5 0"/>
<feBlend mode="normal" in2="BackgroundImageFix" result="effect1_dropShadow_1_2536"/>
<feBlend mode="normal" in="SourceGraphic" in2="effect1_dropShadow_1_2536" result="shape"/>
</filter>
</defs>
</svg>
