<svg width="678" height="676" viewBox="0 0 678 676" fill="none" xmlns="http://www.w3.org/2000/svg">
<g filter="url(#filter0_d_1_2524)">
<path d="M339.5 585C476.19 585 587 474.19 587 337.5C587 200.81 476.19 90 339.5 90C202.81 90 92 200.81 92 337.5C92 474.19 202.81 585 339.5 585Z" fill="#E58213"/>
</g>
<path fill-rule="evenodd" clip-rule="evenodd" d="M344 92.0005C483.641 291.305 489.109 399.92 344 587C344.167 587 344.333 587 344.5 587C481.19 587 592 476.19 592 339.5C592 202.81 481.19 92 344.5 92C344.333 92 344.167 92.0002 344 92.0005Z" fill="#E26512"/>
<path d="M97.8442 424C49.5944 518.165 631.952 520 577.531 424" stroke="#C01818" stroke-width="6" stroke-linecap="round"/>
<path d="M237.5 500C243.299 500 248 495.299 248 489.5C248 483.701 243.299 479 237.5 479C231.701 479 227 483.701 227 489.5C227 495.299 231.701 500 237.5 500Z" fill="#FFD374"/>
<path d="M99.8926 262.314C51.6427 168.149 634 166.313 579.58 262.314" stroke="#C01818" stroke-width="6" stroke-linecap="round"/>
<path d="M411.5 208C419.508 208 426 201.508 426 193.5C426 185.492 419.508 179 411.5 179C403.492 179 397 185.492 397 193.5C397 201.508 403.492 208 411.5 208Z" fill="#FFD374"/>
<path d="M411.5 205C417.851 205 423 199.851 423 193.5C423 187.149 417.851 182 411.5 182C405.149 182 400 187.149 400 193.5C400 199.851 405.149 205 411.5 205Z" fill="#FFF1D3"/>
<path d="M491.476 354.812V361.4H477.287V364.948H489.956V371.029H477.287V374.576H491.476V381.164H469.685V354.812H491.476Z" fill="white"/>
<path d="M195.528 365.455H186.913C186.68 365.455 186.761 363.038 184.075 361.958C172.217 357.19 171.812 378.098 183.736 374.186C185.667 373.553 186.928 371.029 187.167 371.029H195.021C193.41 385.457 169.09 385.132 167.195 371.237C164.479 351.331 190.937 347.718 195.528 365.455Z" fill="white"/>
<path d="M275.596 354.813V371.789C275.596 373.912 279.589 374.921 281.409 374.566C282.65 374.328 284.718 371.85 284.718 370.775V354.813H292.319V373.309C292.319 373.608 290.946 376.634 290.617 377.181C286.623 383.799 272.282 383.439 268.745 376.102C268.542 375.676 267.488 372.493 267.488 372.291V354.807H275.596V354.813Z" fill="white"/>
<path d="M360.225 354.812V361.4H346.543V365.454H358.705V372.042H346.543V381.164H338.434V354.812H360.225Z" fill="white"/>
<path d="M210.731 354.812V374.576H223.4V381.164H203.129V354.812H210.731Z" fill="white"/>
<path d="M377.455 354.812V374.576H390.124V381.164H369.854V354.812H377.455Z" fill="white"/>
<path fill-rule="evenodd" clip-rule="evenodd" d="M258.518 372.448C262.238 360.701 252.427 352.502 241.005 354.427C235.876 355.289 231.174 360.64 230.55 365.764C228.321 384.169 253.811 387.311 258.518 372.448ZM240.295 372.884C236.946 369.534 238.268 362.237 243.447 361.436C254.089 359.784 253.481 376.836 243.017 374.47C242.414 374.333 240.746 373.335 240.295 372.884Z" fill="white"/>
<path fill-rule="evenodd" clip-rule="evenodd" d="M418.502 381.164H427.117L427.122 381.159L416.242 354.792C415.566 354.097 413.641 354.196 411.868 354.288C410.786 354.344 409.761 354.398 409.112 354.265L397.224 381.159H405.839C405.936 381.159 406.119 380.489 406.342 379.672C406.629 378.624 406.981 377.334 407.303 376.912C407.622 376.497 415.741 376.355 416.663 376.669C417.608 376.996 418.008 379.031 418.247 380.248C418.352 380.786 418.426 381.164 418.502 381.164ZM414.448 370.517H409.888L411.92 364.446L414.205 368.991L414.448 370.517Z" fill="white"/>
<path fill-rule="evenodd" clip-rule="evenodd" d="M302.961 354.812V381.164H317.404C317.703 381.164 320.997 379.998 321.549 379.735C330.164 375.574 330.96 362.014 322.897 356.921C322.314 356.556 318.23 354.812 317.911 354.812H302.961ZM311.069 374.576V361.4C323.662 360.427 323.683 375.539 311.069 374.576Z" fill="white"/>
<path fill-rule="evenodd" clip-rule="evenodd" d="M460.558 381.164H460.563L460.558 381.169C460.558 381.167 460.558 381.166 460.558 381.164ZM460.558 381.164C460.506 380.145 458.808 377.903 457.306 375.919C456.059 374.272 454.946 372.803 455.025 372.362C455.101 371.933 455.849 371.439 456.576 370.959C457.061 370.639 457.537 370.325 457.797 370.041C460.943 366.615 460.508 359.764 456.758 356.845C456.18 356.389 453.165 354.812 452.709 354.812H436.239V381.164H443.84V373.563C444.178 373.613 444.604 373.578 445.039 373.543C445.694 373.489 446.368 373.434 446.78 373.669C447.024 373.809 447.881 375.264 448.817 376.856C450.019 378.898 451.353 381.164 451.695 381.164H460.558ZM443.835 366.98V361.4C454.761 359.809 454.893 368.657 443.835 366.98Z" fill="white"/>
<path d="M337.167 342.65C335.51 342.149 335.819 336.833 335.961 335.363C337.071 324.007 347.135 314.196 358.705 314.267C355.092 298.709 371.921 287.981 385.051 296.535C393.382 270.275 428.633 263.586 447.144 283.861C450.2 287.211 456.302 297.316 455.896 301.745C455.643 304.506 450.742 314.621 448.67 316.821C442.29 323.591 437.663 322.456 429.382 322.871C414.92 323.596 400.305 323.145 385.842 323.926C384.631 323.991 378.722 323.642 378.468 323.905C377.136 325.309 380.146 325.877 381.235 325.953C393.053 326.794 406.239 326.165 418.229 326.454C423.671 326.586 432.367 325.613 437.283 326.657C442.913 327.858 444.013 333.169 443.212 338.221C443.075 339.073 441.839 342.65 441.053 342.65H337.167Z" fill="white"/>
<path d="M446.121 342.65C444.195 342.077 447.296 336.452 447.976 335.383C454.528 325.091 463.665 326.875 473.998 325.927C475.092 325.826 477.459 325.076 476.278 323.9C475.634 323.262 462.677 323.667 459.286 321.883C452.324 318.224 456.484 308.682 457.974 302.905C476.455 300.179 492.388 316.461 491.471 334.785C491.405 336.098 490.518 342.645 489.2 342.645H446.126L446.121 342.65Z" fill="white"/>
<defs>
<filter id="filter0_d_1_2524" x="42" y="40" width="595" height="595" filterUnits="userSpaceOnUse" color-interpolation-filters="sRGB">
<feFlood flood-opacity="0" result="BackgroundImageFix"/>
<feColorMatrix in="SourceAlpha" type="matrix" values="0 0 0 0 0 0 0 0 0 0 0 0 0 0 0 0 0 0 127 0" result="hardAlpha"/>
<feOffset/>
<feGaussianBlur stdDeviation="25"/>
<feComposite in2="hardAlpha" operator="out"/>
<feColorMatrix type="matrix" values="0 0 0 0 1 0 0 0 0 0 0 0 0 0 0 0 0 0 0.5 0"/>
<feBlend mode="normal" in2="BackgroundImageFix" result="effect1_dropShadow_1_2524"/>
<feBlend mode="normal" in="SourceGraphic" in2="effect1_dropShadow_1_2524" result="shape"/>
</filter>
</defs>
</svg>
