<svg width="678" height="676" viewBox="0 0 678 676" fill="none" xmlns="http://www.w3.org/2000/svg">
<g filter="url(#filter0_d_37_227)">
<path d="M339.5 585C476.19 585 587 474.19 587 337.5C587 200.81 476.19 90 339.5 90C202.81 90 92 200.81 92 337.5C92 474.19 202.81 585 339.5 585Z" fill="#04A229"/>
</g>
<path fill-rule="evenodd" clip-rule="evenodd" d="M338 90.0005C459.355 232.686 459.355 442.314 338 585C338.167 585 338.333 585 338.5 585C475.19 585 586 474.19 586 337.5C586 200.81 475.19 90 338.5 90C338.333 90 338.167 90.0002 338 90.0005Z" fill="#01823B"/>
<path d="M99.8926 265.314C51.6427 171.149 634 169.313 579.58 265.314" stroke="#01592A" stroke-width="6" stroke-linecap="round"/>
<path d="M416.5 211C424.508 211 431 204.508 431 196.5C431 188.492 424.508 182 416.5 182C408.492 182 402 188.492 402 196.5C402 204.508 408.492 211 416.5 211Z" fill="#FFD374"/>
<path d="M416.5 208C422.851 208 428 202.851 428 196.5C428 190.149 422.851 185 416.5 185C410.149 185 405 190.149 405 196.5C405 202.851 410.149 208 416.5 208Z" fill="#FFF1D3"/>
<path d="M97.8442 416C49.5944 510.165 631.952 512 577.531 416" stroke="#01592A" stroke-width="6" stroke-linecap="round"/>
<path d="M237.5 492C243.299 492 248 487.299 248 481.5C248 475.701 243.299 471 237.5 471C231.701 471 227 475.701 227 481.5C227 487.299 231.701 492 237.5 492Z" fill="#FFD374"/>
<path d="M259.122 378.917C259.292 379.206 259.156 379.442 258.821 379.442H223.42C223.084 379.442 222.67 379.205 222.5 378.917L210.173 357.978C210.003 357.689 209.725 357.689 209.554 357.978L197.227 378.917C197.057 379.206 196.643 379.442 196.307 379.442H160.906C160.57 379.442 160.435 379.205 160.605 378.917L163.698 373.663C163.868 373.374 164.282 373.138 164.618 373.138H192.695C193.031 373.138 193.445 372.901 193.615 372.613L209.555 345.538C209.725 345.249 210.003 345.249 210.174 345.538L226.115 372.613C226.285 372.902 226.698 373.138 227.035 373.138H255.112C255.448 373.138 255.862 373.375 256.032 373.663L259.122 378.917Z" fill="white"/>
<path d="M210.173 370.418C210.003 370.129 209.725 370.129 209.554 370.418L204.551 378.917C204.381 379.206 204.516 379.442 204.851 379.442H214.875C215.211 379.442 215.345 379.205 215.175 378.917L210.173 370.418Z" fill="white"/>
<path d="M251.699 366.308C251.869 366.597 251.733 366.833 251.399 366.833H230.645C230.309 366.833 229.895 366.596 229.725 366.308L210.173 333.097C210.003 332.808 209.725 332.808 209.554 333.097L190.001 366.308C189.831 366.597 189.417 366.833 189.081 366.833H168.328C167.992 366.833 167.858 366.596 168.028 366.308L171.121 361.054C171.291 360.765 171.704 360.529 172.041 360.529H185.469C185.805 360.529 186.219 360.292 186.389 360.005L209.555 320.656C209.725 320.368 210.003 320.368 210.174 320.656L233.341 360.005C233.511 360.294 233.924 360.529 234.261 360.529H247.689C248.025 360.529 248.439 360.766 248.609 361.054L251.699 366.308ZM175.451 353.7C175.281 353.989 175.416 354.224 175.751 354.224H181.855C182.191 354.224 182.604 353.987 182.774 353.7L209.554 308.215C209.724 307.926 210.002 307.926 210.173 308.215L236.953 353.7C237.123 353.989 237.536 354.224 237.872 354.224H243.976C244.312 354.224 244.446 353.987 244.276 353.7L210.173 295.774C210.003 295.485 209.725 295.485 209.554 295.774L175.451 353.7Z" fill="white"/>
<path d="M292.849 308.196H300.736L315.567 347.041H306.901L303.846 338.551H289.793L286.738 347.041H278.072L292.849 308.196ZM292.293 331.558H301.347L296.793 318.961L292.293 331.558Z" fill="white"/>
<path d="M330.338 345.21C327.375 343.693 325.024 341.436 323.283 338.44C321.543 335.443 320.672 331.836 320.672 327.618C320.672 323.4 321.552 319.793 323.311 316.796C325.069 313.8 327.441 311.544 330.422 310.026C333.402 308.509 336.671 307.75 340.226 307.75C343.447 307.75 346.355 308.324 348.946 309.471C351.538 310.618 353.649 312.245 355.279 314.354C356.908 316.463 357.89 318.904 358.224 321.679H349.446C349.187 319.645 348.197 318.008 346.475 316.767C344.754 315.529 342.65 314.908 340.17 314.908C338.059 314.908 336.17 315.398 334.504 316.378C332.837 317.359 331.523 318.802 330.56 320.706C329.596 322.612 329.115 324.915 329.115 327.615C329.115 330.317 329.596 332.619 330.56 334.525C331.523 336.431 332.837 337.863 334.504 338.825C336.171 339.788 338.059 340.267 340.17 340.267C342.65 340.267 344.771 339.649 346.531 338.408C348.289 337.169 349.336 335.55 349.67 333.553H358.058C357.798 336.292 356.882 338.714 355.307 340.822C353.733 342.931 351.641 344.569 349.03 345.735C346.419 346.899 343.484 347.482 340.226 347.482C336.596 347.485 333.3 346.727 330.338 345.21Z" fill="white"/>
<path d="M376.266 315.354H364.768V308.195H396.154V315.354H384.655V347.041H376.266V315.354Z" fill="white"/>
<path d="M404.775 308.196H413.163V347.041H404.775V308.196Z" fill="white"/>
<path d="M436.477 308.196H444.365L459.197 347.041H450.531L447.476 338.551H433.422L430.367 347.041H421.701L436.477 308.196ZM435.921 331.558H444.976L440.421 318.961L435.921 331.558Z" fill="white"/>
<path d="M467.674 308.196H476.562L492.171 333.89V308.196H500.504V347.041H491.615L476.006 321.348V347.041H467.674V308.196Z" fill="white"/>
<path d="M283.321 371.701C282.73 371.192 282.434 370.511 282.434 369.663C282.434 368.779 282.769 368.074 283.441 367.552C284.112 367.03 285.012 366.769 286.145 366.769H288.25C288.447 366.769 288.594 366.722 288.693 366.631C288.79 366.538 288.84 366.419 288.84 366.272C288.84 365.62 288.618 365.101 288.175 364.713C287.732 364.326 287.122 364.133 286.347 364.133C285.67 364.133 285.091 364.314 284.611 364.676C284.132 365.039 283.873 365.478 283.836 365.996H282.433C282.483 365.405 282.688 364.874 283.052 364.4C283.415 363.927 283.89 363.555 284.474 363.283C285.058 363.014 285.696 362.878 286.385 362.878C287.591 362.878 288.548 363.191 289.256 363.818C289.964 364.446 290.318 365.282 290.318 366.326V372.32H288.841V370.715C288.595 371.245 288.185 371.668 287.613 371.988C287.041 372.308 286.391 372.468 285.664 372.468C284.694 372.467 283.912 372.212 283.321 371.701ZM284.476 370.789C284.826 371.071 285.298 371.212 285.888 371.212C286.823 371.212 287.55 370.938 288.066 370.392C288.584 369.844 288.841 369.092 288.841 368.132V367.893H286.238C285.536 367.893 284.979 368.05 284.567 368.363C284.155 368.676 283.949 369.104 283.949 369.646C283.949 370.125 284.124 370.506 284.476 370.789Z" fill="white"/>
<path d="M298.701 371.84C298.023 371.422 297.51 370.851 297.16 370.124C296.808 369.4 296.633 368.581 296.633 367.671C296.633 366.761 296.808 365.944 297.16 365.217C297.511 364.492 298.025 363.92 298.701 363.501C299.378 363.084 300.184 362.874 301.12 362.874C301.772 362.874 302.379 363.025 302.939 363.326C303.499 363.628 303.921 364.03 304.204 364.534V359.204H305.682V372.32H304.204V370.789C303.921 371.293 303.5 371.699 302.939 372.005C302.379 372.312 301.774 372.467 301.12 372.467C300.185 372.467 299.378 372.257 298.701 371.84ZM299.007 370.189C299.566 370.823 300.315 371.14 301.25 371.14C302.185 371.14 302.933 370.823 303.493 370.189C304.053 369.555 304.332 368.716 304.332 367.672C304.332 366.627 304.052 365.788 303.493 365.155C302.932 364.522 302.185 364.205 301.25 364.205C300.313 364.205 299.566 364.522 299.007 365.155C298.446 365.789 298.167 366.628 298.167 367.672C298.166 368.716 298.446 369.555 299.007 370.189Z" fill="white"/>
<path d="M309.796 359.205V361.271H308.098V359.205H309.796ZM308.208 363.022H309.685V372.319H308.208V363.022Z" fill="white"/>
<path d="M311.16 363.022H312.693L315.333 370.474L317.992 363.022H319.524L316.127 372.32H314.575L311.16 363.022Z" fill="white"/>
<path d="M322.597 359.205V361.271H320.898V359.205H322.597ZM321.009 363.022H322.485V372.319H321.009V363.022Z" fill="white"/>
<path d="M325.499 371.628C324.835 371.067 324.472 370.302 324.41 369.331H325.832C325.881 369.922 326.106 370.377 326.505 370.696C326.905 371.016 327.438 371.175 328.103 371.175C328.681 371.175 329.152 371.04 329.515 370.77C329.877 370.5 330.059 370.166 330.059 369.774C330.059 369.381 329.957 369.079 329.754 368.87C329.551 368.661 329.299 368.51 328.997 368.418C328.695 368.325 328.268 368.236 327.713 368.15C327.061 368.053 326.528 367.935 326.116 367.8C325.704 367.666 325.352 367.414 325.063 367.045C324.774 366.676 324.629 366.153 324.629 365.477C324.629 364.69 324.934 364.06 325.543 363.586C326.152 363.114 326.948 362.877 327.934 362.877C328.955 362.877 329.786 363.135 330.427 363.651C331.067 364.168 331.411 364.856 331.461 365.717H330.041C329.979 365.176 329.734 364.775 329.303 364.518C328.871 364.259 328.405 364.131 327.9 364.131C327.358 364.131 326.922 364.25 326.589 364.49C326.257 364.73 326.091 365.053 326.091 365.458C326.091 365.803 326.186 366.067 326.377 366.252C326.568 366.437 326.809 366.565 327.097 366.639C327.386 366.713 327.783 366.786 328.288 366.861C328.977 366.96 329.537 367.079 329.969 367.22C330.399 367.362 330.768 367.629 331.076 368.022C331.383 368.416 331.538 368.988 331.538 369.738C331.538 370.562 331.225 371.223 330.597 371.721C329.969 372.22 329.138 372.468 328.104 372.468C327.032 372.467 326.164 372.188 325.499 371.628Z" fill="white"/>
<path d="M335.158 359.205V361.271H333.459V359.205H335.158ZM333.569 363.022H335.046V372.319H333.569V363.022Z" fill="white"/>
<path d="M339.262 371.849C338.547 371.438 337.988 370.869 337.581 370.144C337.173 369.419 336.972 368.594 336.972 367.672C336.972 366.75 337.175 365.927 337.581 365.201C337.987 364.476 338.547 363.907 339.262 363.495C339.976 363.083 340.788 362.877 341.699 362.877C342.609 362.877 343.425 363.083 344.145 363.495C344.864 363.907 345.427 364.476 345.833 365.201C346.239 365.927 346.442 366.751 346.442 367.672C346.442 368.595 346.239 369.419 345.833 370.144C345.427 370.869 344.864 371.438 344.145 371.849C343.424 372.261 342.608 372.468 341.699 372.468C340.788 372.467 339.976 372.261 339.262 371.849ZM338.892 369.461C339.163 369.989 339.542 370.401 340.028 370.696C340.514 370.991 341.071 371.138 341.699 371.138C342.327 371.138 342.886 370.99 343.378 370.696C343.871 370.401 344.252 369.989 344.523 369.461C344.793 368.932 344.929 368.335 344.929 367.671C344.929 367.007 344.793 366.411 344.523 365.882C344.252 365.353 343.871 364.941 343.378 364.646C342.886 364.351 342.325 364.204 341.699 364.204C341.071 364.204 340.514 364.352 340.028 364.646C339.542 364.941 339.163 365.353 338.892 365.882C338.621 366.411 338.486 367.007 338.486 367.671C338.486 368.335 338.621 368.932 338.892 369.461Z" fill="white"/>
<path d="M348.372 363.022H349.848V364.812C350.094 364.172 350.485 363.69 351.02 363.363C351.556 363.038 352.193 362.874 352.932 362.874C353.978 362.874 354.819 363.219 355.452 363.907C356.086 364.596 356.403 365.506 356.403 366.638V372.319H354.925V366.878C354.925 366.079 354.713 365.437 354.288 364.95C353.863 364.465 353.3 364.221 352.599 364.221C351.798 364.221 351.14 364.51 350.623 365.088C350.106 365.666 349.848 366.404 349.848 367.301V372.319H348.372V363.022Z" fill="white"/>
<path d="M364.971 371.849C364.256 371.438 363.697 370.869 363.29 370.144C362.884 369.419 362.681 368.594 362.681 367.672C362.681 366.75 362.884 365.927 363.29 365.201C363.696 364.476 364.256 363.907 364.971 363.495C365.685 363.083 366.497 362.877 367.408 362.877C368.318 362.877 369.134 363.083 369.854 363.495C370.573 363.907 371.136 364.476 371.542 365.201C371.948 365.927 372.151 366.751 372.151 367.672C372.151 368.595 371.948 369.419 371.542 370.144C371.136 370.869 370.573 371.438 369.854 371.849C369.133 372.261 368.318 372.468 367.408 372.468C366.497 372.467 365.684 372.261 364.971 371.849ZM364.601 369.461C364.872 369.989 365.251 370.401 365.737 370.696C366.223 370.991 366.78 371.138 367.408 371.138C368.036 371.138 368.595 370.99 369.087 370.696C369.579 370.401 369.961 369.989 370.232 369.461C370.502 368.932 370.638 368.335 370.638 367.671C370.638 367.007 370.502 366.411 370.232 365.882C369.961 365.353 369.579 364.941 369.087 364.646C368.595 364.351 368.034 364.204 367.408 364.204C366.78 364.204 366.223 364.352 365.737 364.646C365.251 364.941 364.872 365.353 364.601 365.882C364.33 366.411 364.195 367.007 364.195 367.671C364.194 368.335 364.33 368.932 364.601 369.461Z" fill="white"/>
<path d="M374.669 364.333H372.731V363.024H374.669V360.773C374.669 360.281 374.807 359.897 375.085 359.619C375.362 359.343 375.746 359.205 376.24 359.205H379.028V360.514H376.147V363.022H379.028V364.331H376.147V372.319H374.67V364.333H374.669Z" fill="white"/>
<path d="M395.386 359.408V372.32H392.949V366.767H387.188V372.32H384.769V359.408H387.188V364.646H392.949V359.408H395.386Z" fill="white"/>
<path d="M400.562 371.71C399.59 371.207 398.814 370.459 398.235 369.469C397.657 368.479 397.368 367.278 397.368 365.864C397.368 364.461 397.659 363.263 398.244 362.266C398.829 361.27 399.608 360.521 400.58 360.016C401.552 359.512 402.624 359.26 403.792 359.26C404.813 359.26 405.746 359.447 406.589 359.822C407.433 360.197 408.122 360.726 408.657 361.409C409.193 362.091 409.516 362.875 409.626 363.761H407.06C406.974 363.048 406.624 362.47 406.007 362.027C405.392 361.584 404.647 361.363 403.773 361.363C403.009 361.363 402.333 361.536 401.742 361.88C401.151 362.225 400.686 362.738 400.348 363.42C400.009 364.102 399.84 364.917 399.84 365.864C399.84 366.81 400.009 367.621 400.348 368.298C400.686 368.975 401.151 369.484 401.742 369.829C402.333 370.173 403.009 370.345 403.773 370.345C404.66 370.345 405.413 370.123 406.035 369.681C406.657 369.239 407.022 368.666 407.134 367.965H409.571C409.484 368.851 409.182 369.634 408.666 370.317C408.15 370.999 407.469 371.529 406.626 371.904C405.783 372.279 404.837 372.466 403.792 372.466C402.612 372.466 401.535 372.215 400.562 371.71Z" fill="white"/>
<path d="M411.99 371.766C411.621 371.397 411.437 370.862 411.437 370.161V359.408H413.856V370.199H419.912V372.32H413.598C412.894 372.32 412.359 372.135 411.99 371.766Z" fill="white"/>
<path d="M423.018 371.914C422.286 371.545 421.708 371.023 421.283 370.346C420.858 369.669 420.627 368.884 420.59 367.985H422.934C422.995 368.71 423.26 369.285 423.728 369.71C424.197 370.133 424.812 370.346 425.574 370.346C426.289 370.346 426.857 370.202 427.282 369.913C427.707 369.624 427.919 369.203 427.919 368.649C427.919 368.28 427.802 367.979 427.567 367.744C427.334 367.511 427.034 367.33 426.672 367.201C426.309 367.071 425.813 366.927 425.185 366.767C424.298 366.545 423.575 366.315 423.015 366.075C422.455 365.836 421.975 365.457 421.576 364.941C421.176 364.424 420.976 363.731 420.976 362.857C420.976 362.157 421.163 361.532 421.539 360.984C421.914 360.437 422.441 360.014 423.117 359.712C423.794 359.41 424.563 359.26 425.425 359.26C426.323 359.26 427.121 359.423 427.816 359.749C428.511 360.074 429.059 360.54 429.459 361.142C429.858 361.745 430.078 362.446 430.115 363.244H427.788C427.726 362.679 427.486 362.224 427.067 361.879C426.649 361.536 426.101 361.362 425.425 361.362C424.784 361.362 424.28 361.498 423.91 361.768C423.541 362.039 423.357 362.401 423.357 362.856C423.357 363.236 423.476 363.544 423.717 363.778C423.957 364.011 424.259 364.193 424.622 364.323C424.984 364.452 425.493 364.59 426.145 364.737C427.043 364.946 427.773 365.165 428.334 365.392C428.893 365.62 429.376 365.992 429.782 366.509C430.188 367.026 430.391 367.727 430.391 368.611C430.391 369.398 430.188 370.081 429.782 370.658C429.376 371.236 428.811 371.682 428.084 371.996C427.357 372.309 426.521 372.466 425.573 372.466C424.603 372.466 423.75 372.283 423.018 371.914Z" fill="white"/>
<path d="M433.949 371.849C433.21 371.437 432.632 370.866 432.213 370.133C431.795 369.402 431.585 368.581 431.585 367.671C431.585 366.761 431.795 365.941 432.213 365.208C432.632 364.477 433.21 363.906 433.949 363.494C434.687 363.082 435.524 362.875 436.459 362.875C437.383 362.875 438.214 363.082 438.952 363.494C439.691 363.906 440.269 364.478 440.688 365.208C441.106 365.941 441.316 366.761 441.316 367.671C441.316 368.581 441.106 369.402 440.688 370.133C440.269 370.866 439.691 371.437 438.952 371.849C438.214 372.261 437.383 372.468 436.459 372.468C435.524 372.466 434.687 372.261 433.949 371.849ZM434.586 369.719C435.059 370.249 435.684 370.512 436.459 370.512C437.222 370.512 437.841 370.249 438.314 369.719C438.789 369.19 439.024 368.509 439.024 367.672C439.024 366.836 438.787 366.154 438.314 365.625C437.841 365.097 437.222 364.832 436.459 364.832C435.683 364.832 435.059 365.093 434.586 365.616C434.111 366.139 433.875 366.824 433.875 367.673C433.875 368.507 434.112 369.19 434.586 369.719Z" fill="white"/>
<path d="M443.666 364.922H441.838V363.022H443.666V360.957C443.666 360.379 443.841 359.915 444.193 359.564C444.543 359.214 445.007 359.038 445.587 359.038H448.652V360.957H445.938V363.022H448.652V364.922H445.938V372.32H443.667V364.922H443.666Z" fill="white"/>
<path d="M451.597 371.821C451.264 371.489 451.098 371.017 451.098 370.401V364.922H449.27V363.022H451.098V360.218H453.369V363.022H455.953V364.922H453.369V370.401H455.953V372.32H453.018C452.402 372.32 451.929 372.154 451.597 371.821Z" fill="white"/>
<path d="M456.717 363.022H458.988L460.705 369.239L462.533 363.022H464.62L466.429 369.239L468.146 363.022H470.417L467.444 372.32H465.432L463.567 366.067L461.703 372.32H459.69L456.717 363.022Z" fill="white"/>
<path d="M471.827 371.673C471.255 371.145 470.969 370.474 470.969 369.663C470.969 368.779 471.286 368.072 471.919 367.543C472.553 367.015 473.399 366.75 474.457 366.75H476.175C476.397 366.75 476.563 366.691 476.674 366.575C476.784 366.458 476.84 366.307 476.84 366.122C476.84 365.655 476.674 365.281 476.341 364.997C476.009 364.714 475.547 364.572 474.957 364.572C474.379 364.572 473.914 364.726 473.563 365.034C473.213 365.34 473.024 365.716 473 366.159H470.969C471.005 365.544 471.197 364.988 471.541 364.49C471.884 363.992 472.363 363.599 472.972 363.31C473.581 363.021 474.28 362.877 475.067 362.877C475.855 362.877 476.554 363.019 477.163 363.301C477.772 363.584 478.247 363.987 478.585 364.509C478.924 365.032 479.093 365.637 479.093 366.325V372.32H476.84V370.936C476.654 371.403 476.309 371.775 475.806 372.052C475.301 372.328 474.722 372.468 474.07 372.468C473.147 372.467 472.399 372.203 471.827 371.673ZM473.563 370.448C473.827 370.663 474.176 370.77 474.606 370.77C475.307 370.77 475.855 370.552 476.249 370.114C476.643 369.678 476.84 369.103 476.84 368.39V368.241H474.772C474.292 368.241 473.904 368.362 473.609 368.601C473.313 368.841 473.166 369.17 473.166 369.589C473.166 369.946 473.298 370.232 473.563 370.448Z" fill="white"/>
<path d="M481.631 363.548C481.983 363.199 482.447 363.022 483.026 363.022H486.479V364.922H483.377V372.32H481.106V364.941C481.105 364.363 481.28 363.899 481.631 363.548Z" fill="white"/>
<path d="M487.536 365.282C487.881 364.563 488.397 363.982 489.087 363.539C489.776 363.096 490.607 362.875 491.58 362.875C492.565 362.875 493.399 363.087 494.082 363.511C494.764 363.935 495.273 364.489 495.605 365.172C495.938 365.853 496.104 366.583 496.104 367.358C496.104 367.628 496.091 367.886 496.067 368.132H489.199C489.285 368.882 489.555 369.478 490.011 369.922C490.466 370.364 491.051 370.586 491.765 370.586C492.344 370.586 492.818 370.469 493.187 370.236C493.557 370.003 493.803 369.664 493.926 369.221H496.141C495.968 370.206 495.482 370.991 494.682 371.582C493.881 372.172 492.91 372.468 491.764 372.468C490.792 372.468 489.946 372.241 489.225 371.786C488.505 371.331 487.958 370.734 487.583 369.996C487.207 369.259 487.019 368.472 487.019 367.635C487.019 366.785 487.191 366.002 487.536 365.282ZM493.832 366.638C493.782 366.023 493.558 365.525 493.158 365.144C492.757 364.764 492.232 364.572 491.58 364.572C490.263 364.572 489.487 365.26 489.253 366.638H493.832Z" fill="white"/>
<path d="M511.436 308.826H509.813V308.145H513.828V308.826H512.206V313.325H511.436V308.826Z" fill="white"/>
<path d="M514.792 308.145H515.74L517.392 312.274L519.043 308.145H519.991V313.326H519.25V309.471L517.703 313.326H517.08L515.524 309.471V313.326H514.791V308.145H514.792Z" fill="white"/>
<defs>
<filter id="filter0_d_37_227" x="42" y="40" width="595" height="595" filterUnits="userSpaceOnUse" color-interpolation-filters="sRGB">
<feFlood flood-opacity="0" result="BackgroundImageFix"/>
<feColorMatrix in="SourceAlpha" type="matrix" values="0 0 0 0 0 0 0 0 0 0 0 0 0 0 0 0 0 0 127 0" result="hardAlpha"/>
<feOffset/>
<feGaussianBlur stdDeviation="25"/>
<feComposite in2="hardAlpha" operator="out"/>
<feColorMatrix type="matrix" values="0 0 0 0 0 0 0 0 0 1 0 0 0 0 0.183333 0 0 0 0.5 0"/>
<feBlend mode="normal" in2="BackgroundImageFix" result="effect1_dropShadow_37_227"/>
<feBlend mode="normal" in="SourceGraphic" in2="effect1_dropShadow_37_227" result="shape"/>
</filter>
</defs>
</svg>
