<svg width="679" height="480" viewBox="0 0 679 480" fill="none" xmlns="http://www.w3.org/2000/svg">
<g clip-path="url(#clip0_11_2)">
<path d="M91.2644 244.899C91.2644 307.802 116.03 364.922 156.523 407.038C168.996 420.234 182.915 431.983 198.28 441.744C235.158 465.785 279.085 479.703 326.085 479.703C349.585 479.703 372.181 476.269 393.693 469.761C490.405 440.659 560.724 351.004 560.724 244.899C560.724 228.631 559.097 212.724 556.024 197.36C545.901 148.736 520.774 105.535 485.885 72.9983C476.847 64.6835 467.085 56.9109 456.781 49.8614C427.677 30.5203 394.054 17.325 357.9 12.4446C347.415 10.9985 336.931 10.2754 326.085 10.2754C219.973 10.2754 130.311 80.5902 101.207 177.115C94.6988 198.625 91.2644 221.4 91.2644 244.899Z" fill="url(#paint0_linear_11_2)"/>
<path d="M402.731 132.469C402.731 182.358 443.223 222.848 493.115 222.848C517.7 222.848 539.935 213.087 556.024 197.361C545.9 148.737 520.773 105.536 485.885 72.9998C476.846 64.6849 467.084 56.9124 456.781 49.8628C437.438 58.3584 421.711 73.1806 412.311 91.9794C406.165 104.09 402.731 117.828 402.731 132.469Z" fill="#4A79E7"/>
<path d="M101.207 177.115C106.269 176.573 111.15 176.392 116.211 176.392C189.604 176.392 250.343 230.8 260.104 301.657C266.251 300.573 272.577 300.03 279.085 300.03C347.416 300.03 402.731 355.523 402.731 423.849C402.731 440.117 399.658 455.663 393.693 469.762C372.181 476.269 349.585 479.703 326.085 479.703C279.085 479.703 235.158 465.785 198.281 441.744C182.915 431.983 168.996 420.234 156.523 407.039C116.031 364.922 91.2649 307.803 91.2649 244.899C91.2649 221.401 94.6993 198.625 101.207 177.115Z" fill="url(#paint1_linear_11_2)"/>
<path d="M357.543 19.6771C357.543 54.2018 380.682 83.123 412.317 91.9801C418.824 93.9685 425.694 94.8722 432.744 94.8722C453.713 94.8722 472.332 86.5574 485.89 73.0005C476.852 64.6857 467.09 56.9131 456.786 49.8636C427.682 30.5225 394.059 17.3273 357.905 12.4468C357.724 14.7966 357.543 17.3273 357.543 19.6771Z" fill="#4A79E7"/>
<g style="mix-blend-mode:multiply">
<path fill-rule="evenodd" clip-rule="evenodd" d="M289 477.163C304.717 479.498 312.664 479.779 326.349 479.703C349.849 479.703 372.445 476.269 393.957 469.761C490.669 440.659 560.988 351.004 560.988 244.899C560.988 228.631 559.362 212.724 556.289 197.36C546.165 148.736 521.038 105.535 486.15 72.9984C477.111 64.6836 467.349 56.9111 457.045 49.8615C427.942 30.5203 394.318 17.3252 358.164 12.4446C347.68 10.9987 337.195 10.2755 326.349 10.2755C326.349 10.2755 247.766 -12.8448 325.843 10.2761C403.919 33.3971 533.958 323.965 289 477.163Z" fill="#6A73C3"/>
</g>
<path d="M99.2209 110.237C66.3207 101.199 -10.6869 91.6185 1.24386 148.377C17.3324 192.843 56.1974 219.233 92.1706 244.72C227.567 330.219 378.511 383.904 537.407 403.425C646.773 421.14 759.393 350.283 598.327 296.236C619.296 311.781 647.134 328.411 656.173 352.271C656.534 355.163 655.811 355.886 654.727 356.971C622.369 377.396 579.707 367.635 543.373 361.309C432.922 337.268 322.472 298.948 217.264 255.927C172.252 235.863 27.2744 179.105 23.4782 129.578C40.4706 111.683 74.4554 112.225 99.2209 109.875V110.237Z" fill="#92B8F2"/>
<path d="M386.958 153V193.537H352.688V227.117H300.756V193.537H266L289.009 153H386.958Z" fill="white"/>
<path d="M386.958 296.099L364.84 336.636H266V296.099H300.756V262.519H352.688V296.099H386.958Z" fill="white"/>
</g>
<defs>
<linearGradient id="paint0_linear_11_2" x1="496.189" y1="140.24" x2="96.5217" y2="386.276" gradientUnits="userSpaceOnUse">
<stop offset="0.4" stop-color="#26308D"/>
</linearGradient>
<linearGradient id="paint1_linear_11_2" x1="372.724" y1="264.421" x2="90.9105" y2="397.293" gradientUnits="userSpaceOnUse">
<stop offset="1" stop-color="#4A79E7"/>
</linearGradient>
<clipPath id="clip0_11_2">
<rect width="679" height="480" fill="white"/>
</clipPath>
</defs>
</svg>
