<svg width="678" height="676" viewBox="0 0 678 676" fill="none" xmlns="http://www.w3.org/2000/svg">
<g clip-path="url(#clip0_1_2520)">
<g filter="url(#filter0_d_1_2520)">
<path d="M348.058 560.314C463.357 560.314 556.825 461.723 556.825 340.105C556.825 218.487 463.357 119.896 348.058 119.896C232.759 119.896 139.291 218.487 139.291 340.105C139.291 461.723 232.759 560.314 348.058 560.314Z" fill="url(#paint0_radial_1_2520)"/>
</g>
<path d="M320.897 422.658C234.915 383.837 224.79 493.687 166.13 509.792C204.862 552.681 259.022 579.635 319.289 581.16C295.343 535.22 300.969 475.209 320.897 422.658Z" fill="#1C172A"/>
<path d="M467.948 366.205C426.162 351.456 356.734 351.457 342.752 424.859C322.824 477.411 317.36 537.252 341.145 583.362C342.913 583.362 344.52 583.701 346.288 583.701C430.663 583.701 509.611 543.612 546.254 469.701C514.915 436.475 505.556 366.205 467.788 366.205H467.948Z" fill="#1C172A"/>
<path d="M364.451 216.69C350.469 187.363 294.862 201.941 294.862 172.614C307.879 117.35 357.862 114.129 398.522 101.754C375.862 93.4476 351.593 88.701 326.361 88.701C266.415 88.701 212.094 114.129 172.398 155.323C178.826 163.121 183.969 171.428 188.308 180.073C228.487 222.623 299.362 226.353 364.29 216.52L364.451 216.69Z" fill="#1C172A"/>
<path d="M259.664 394.691C259.986 388.588 261.111 382.825 262.879 377.061C244.718 358.413 231.378 335.867 223.021 318.237C195.057 278.908 192.003 232.967 172.075 193.808C165.646 186.857 159.861 179.059 155.039 170.075C115.343 211.947 90.7537 269.754 90.7537 333.663C90.7537 397.573 114.057 451.82 151.664 493.353C197.146 480.808 213.539 412.152 258.7 400.116C258.861 398.251 259.182 396.386 259.503 394.691H259.664Z" fill="#1C172A"/>
<path d="M455.092 286.025C458.307 283.312 461.843 280.939 465.7 278.905C472.289 245.17 507.485 223.98 537.378 199.06C512.949 159.731 477.432 128.539 435.164 110.739C422.468 113.96 409.129 116.333 396.111 119.554C366.7 126.844 339.379 138.88 328.772 176.683C382.289 202.111 426.486 236.524 455.253 286.025H455.092Z" fill="#1C172A"/>
<path d="M544.289 210.754C502.986 248.388 450.272 278.732 487.88 344.846V359.594C525.647 359.594 529.343 419.605 560.682 452.831C576.593 420.792 585.754 384.344 585.754 345.693C585.754 295.345 570.325 248.897 544.45 210.924L544.289 210.754Z" fill="#1C172A"/>
<path d="M448.985 312.302C431.628 279.245 407.842 253.478 379.557 232.796C371.039 235 362.36 235.848 353.682 235C294.057 243.815 232.022 239.747 194.254 202.452C215.468 240.933 220.129 286.704 249.379 324.847C264.325 353.665 293.575 396.554 335.843 409.608C347.254 335.696 416.682 333.153 458.949 346.206L458.468 331.628C454.289 324.847 451.396 318.574 448.985 312.472V312.302Z" fill="#1C172A"/>
<g style="mix-blend-mode:multiply">
<path d="M339.321 92.7062C473.863 93.6123 582.653 204.073 582.653 340.201C582.652 471.859 480.891 579.505 352.49 587.253C457.418 379.101 458.661 323.105 339.321 92.7062Z" fill="#C6AAE0"/>
</g>
<path opacity="0.85" fill-rule="evenodd" clip-rule="evenodd" d="M341.175 211.652C346.212 210.163 360.245 209.162 370.579 213.363C370.797 213.452 371.017 213.545 371.238 213.641C378.738 215.692 384.488 219.071 395.721 226.503C408.029 234.647 413.831 252.251 418.037 265.65C422.242 279.049 420.611 315.458 419.911 322.064C419.211 328.67 416.498 341.084 415.181 346.925C414.817 347.96 414.287 349.168 413.606 350.401C413.643 350.489 413.68 350.576 413.716 350.664C416.514 357.522 415.303 368.921 413.784 376.637C413.816 376.891 413.848 377.127 413.874 377.342C413.889 377.464 413.853 377.58 413.783 377.67C413.786 377.677 413.789 377.684 413.791 377.692C418.472 391.011 411.967 409.004 398.171 422.073L398.197 422.102L397.523 422.704L397.51 422.69C397.479 422.718 397.449 422.748 397.418 422.776C385.145 434.028 364.421 442.783 352.018 439.753C343.748 442.14 332.885 443.871 324.333 441.189C320.587 440.014 317.561 438.564 315.082 436.981C310.213 439.035 302.742 443.166 292.206 440.561L290.832 440.619C286.209 439.988 276.535 438.526 272.693 436.728C268.851 434.929 261.855 431.813 256.077 425.606C250.298 419.399 240.107 408.917 237.993 398.454C236.27 390.745 236.718 378.493 237.613 375.27C238.389 372.472 241.29 366.285 243.189 363.213C244.265 356.728 246.616 350.257 250.82 344.509C252.268 342.53 253.814 340.78 255.42 339.237C258.401 324.659 266.644 291.146 272.983 280.118C277.223 269.586 289.859 245.6 305.589 231.368C321.319 217.135 337.27 212.344 341.175 211.652ZM374.56 243.807C368.387 239.846 360.723 241.962 355.172 242.931C349.455 244.218 337.583 248.31 331.909 252.95C326.599 257.292 323.589 259.093 316.982 267.996C314.033 271.97 310.377 277.911 308.026 282.562C300.799 296.854 292.437 317.481 291.258 325.477C292.005 325.473 292.435 325.684 293.035 325.739C304.585 327.442 311.809 330.777 318.31 335.774C328.137 325.802 348.155 312.315 368.126 313.605C375.787 314.1 377.032 313.605 382.424 316.68C384.501 304.102 384.789 300.503 385.015 288.864C385.292 274.604 384.903 253.989 378.165 247.062C377.777 246.663 376.674 245.294 376.206 244.958C376.049 244.844 374.726 243.914 374.56 243.807Z" fill="white"/>
<path d="M242.694 376.045C243.589 372.822 247.3 365.103 249.055 362.826L296.423 431.585L289.994 431.854C285.37 431.223 275.697 429.761 271.855 427.963C268.013 426.164 261.017 423.048 255.239 416.841C249.46 410.634 244.35 400.927 242.627 393.218C240.903 385.509 241.799 379.268 242.694 376.045Z" fill="#313037"/>
<path d="M255.902 345.284C266.267 331.112 281.667 328.748 288.071 329.337C301.777 329.654 315.287 340.45 320.329 345.808L319.469 427.985C316.505 430.895 306.647 435.709 290.931 431.688C271.286 426.662 258.658 409.13 253.192 398.739C247.726 388.349 242.743 363.273 255.902 345.284Z" fill="url(#paint1_radial_1_2520)"/>
<path d="M280.74 373.896C280.642 388.03 291.348 395.846 296.317 398.253C303.787 389.212 317.063 367.751 310.415 354.235C304.928 343.081 296.764 341.573 289.598 344.776C282.432 347.979 280.839 359.762 280.74 373.896Z" fill="#2C2B30"/>
<g style="mix-blend-mode:multiply" opacity="0.07">
<path d="M261.641 387.046C255.067 372.202 262.809 354.357 267.503 347.29C260.899 392.078 295.745 415.757 313.993 421.997C302.382 421.502 291.405 418.362 288.564 415.966C280.822 424.104 282.482 424.197 280.475 425.422C274.435 424.288 266.334 414.716 263.708 410.171C265.311 408.581 268.215 401.89 261.641 387.046Z" fill="url(#paint2_linear_1_2520)"/>
</g>
<path d="M367.148 319.242C390.657 320.761 403.196 338.554 406.527 347.26L308.934 423.085C304.082 418.16 293.965 410.076 294.066 387.727C294.135 372.403 306.463 356.733 313.741 348.183C321.019 339.634 343.639 317.723 367.148 319.242Z" fill="#28272C"/>
<path d="M408.094 349.013C411.58 357.559 408.844 373.16 407.04 379.892L360.794 430.428C353.677 433.638 336.333 439.083 323.886 435.178C308.327 430.298 305.177 420.705 302.175 416.307C299.172 411.909 298.729 401.499 301.821 390.849C304.913 380.199 317.059 364.545 324.025 356.85C331.62 348.335 351.358 330.788 369.553 328.725C392.297 326.145 403.736 338.329 408.094 349.013Z" fill="url(#paint3_linear_1_2520)"/>
<path d="M391.795 421.124C374.349 437.118 350.285 439.261 338.046 425.911C325.807 412.561 330.028 388.772 347.474 372.779C364.92 356.785 391.087 354.584 403.326 367.935C415.565 381.285 409.242 405.13 391.795 421.124Z" fill="#393843"/>
<path d="M391.562 420.75L391.897 421.125L392.646 420.454L392.311 420.08L391.936 420.415L391.562 420.75ZM407.304 375.805C407.337 376.081 407.588 376.278 407.863 376.244C408.139 376.211 408.336 375.961 408.302 375.685L407.803 375.745L407.304 375.805ZM347.916 378.477L347.488 378.213C346.797 379.333 345.189 380.896 342.953 382.001C340.728 383.1 337.914 383.727 334.806 383.035L334.697 383.526L334.588 384.016C337.96 384.767 341.008 384.083 343.398 382.903C345.776 381.728 347.538 380.046 348.344 378.741L347.916 378.477ZM334.697 383.526L334.806 383.035C332.859 382.601 331.576 381.832 330.761 380.893C329.947 379.956 329.56 378.805 329.484 377.537C329.329 374.975 330.448 372.018 331.729 369.729L331.291 369.484L330.852 369.238C329.537 371.587 328.308 374.749 328.48 377.598C328.567 379.036 329.012 380.413 330.002 381.553C330.991 382.691 332.484 383.548 334.588 384.016L334.697 383.526ZM331.291 369.484L331.729 369.729C334.283 365.168 340.976 357.635 348.34 353.065L348.075 352.637L347.81 352.21C340.305 356.867 333.491 364.524 330.852 369.238L331.291 369.484ZM348.075 352.637L348.34 353.065C355.714 348.489 362.63 346.102 370.571 345.342L370.523 344.842L370.475 344.341C362.369 345.117 355.305 347.559 347.81 352.21L348.075 352.637ZM370.523 344.842L370.571 345.342C374.506 344.966 380.587 345.557 386.459 347.399C392.339 349.245 397.912 352.314 400.938 356.819L401.355 356.538L401.773 356.258C398.561 351.476 392.73 348.313 386.76 346.44C380.781 344.564 374.565 343.95 370.475 344.341L370.523 344.842ZM391.936 420.415L392.311 420.08C391.948 419.674 391.53 419.123 391.502 418.241C391.473 417.342 391.846 415.997 393.327 414.016L392.924 413.715L392.522 413.413C390.971 415.488 390.458 417.055 390.497 418.273C390.537 419.508 391.141 420.28 391.562 420.75L391.936 420.415ZM392.924 413.715L393.327 414.016C395.238 411.46 397.764 407.55 399.859 403.712C400.906 401.792 401.85 399.883 402.557 398.164C403.259 396.455 403.742 394.895 403.839 393.687L403.338 393.647L402.837 393.607C402.753 394.654 402.319 396.097 401.627 397.782C400.939 399.456 400.013 401.331 398.976 403.23C396.902 407.031 394.401 410.899 392.522 413.413L392.924 413.715ZM403.338 393.647L403.839 393.687C404.199 389.194 404.707 382.648 402.737 377.043L402.263 377.21L401.788 377.377C403.676 382.748 403.199 389.078 402.837 393.607L403.338 393.647ZM402.263 377.21L402.737 377.043C401.732 374.186 399.585 371.632 397.352 369.625C395.114 367.613 392.745 366.11 391.234 365.364L391.012 365.815L390.789 366.266C392.216 366.97 394.509 368.421 396.679 370.372C398.855 372.328 400.863 374.747 401.788 377.377L402.263 377.21ZM391.012 365.815L391.234 365.364C388.218 363.875 381.791 362.019 374.572 362.9L374.633 363.4L374.694 363.899C381.697 363.044 387.927 364.853 390.789 366.266L391.012 365.815ZM374.633 363.4L374.572 362.9C370.923 363.346 365.154 365.569 359.834 368.45C357.165 369.894 354.59 371.514 352.432 373.176C350.281 374.833 348.512 376.555 347.488 378.213L347.916 378.477L348.344 378.741C349.274 377.235 350.932 375.601 353.046 373.973C355.152 372.351 357.679 370.759 360.312 369.334C365.595 366.474 371.232 364.321 374.694 363.899L374.633 363.4ZM401.355 356.538L400.938 356.819C405.855 364.141 406.894 372.403 407.304 375.805L407.803 375.745L408.302 375.685C407.891 372.272 406.835 363.795 401.773 356.258L401.355 356.538Z" fill="#232328"/>
<g style="mix-blend-mode:multiply" opacity="0.37">
<path d="M384.338 330.601C377.32 331.148 376.943 340.514 377.631 345.129C377.803 350.327 385.522 360.745 393.108 358.821C399.177 357.282 396.343 349.258 394.168 345.438C394.476 343.353 393.11 329.916 384.338 330.601Z" fill="#575757"/>
</g>
<path d="M383.089 343.196L385.365 333.947L387.003 334.188L385.335 345.504C382.599 344.249 382.698 343.442 383.089 343.196Z" fill="#1D1C22"/>
<path d="M385.09 333.754C382.443 346.752 388.058 352.143 391.196 353.215L394.863 328.349L400.9 287.403L397.245 238.942C391.977 233.398 378.857 221.26 368.523 217.059C358.189 212.858 345.531 214.784 340.494 216.273C336.589 216.965 324.846 221.907 309.116 236.14C293.386 250.372 280.973 274.993 276.732 285.524C270.348 296.632 263.382 325.849 260.436 340.323C270.064 332.031 275.058 330.676 286.07 329.498C285.061 321.895 298.203 291.58 305.504 277.14C312.806 262.699 324.192 253.576 331.285 247.776C336.959 243.136 349.812 239.402 355.53 238.115C361.672 237.043 375.303 236.284 380.693 241.826C387.431 248.752 390.057 275.307 389.78 289.566C389.503 303.826 388.398 317.507 385.09 333.754Z" fill="#2C2B30"/>
<path d="M394.367 272.899C393.291 228.47 371.542 217.91 359.782 215.466C373.183 217.442 378.28 220.019 393.665 230.199C405.974 238.342 408.209 250.599 412.414 263.998C416.62 277.398 414.989 313.806 414.289 320.412C413.589 327.018 410.876 339.433 409.558 345.273C407.812 350.239 402.297 359.233 394.208 355.485C384.098 350.799 387.722 344.792 389.666 333.668C391.611 322.545 395.354 313.665 394.367 272.899Z" fill="url(#paint4_linear_1_2520)"/>
<path d="M408.604 377.537C408.604 377.537 407.559 373.275 405.865 371.352L406.331 376.441C407.216 376.977 408.604 377.537 408.604 377.537Z" fill="#393843"/>
<path d="M386.447 372.862C387.015 371.868 386.67 370.601 385.676 370.033C384.682 369.465 383.416 369.811 382.848 370.805L378.691 378.079C378.123 379.073 378.468 380.34 379.462 380.908C380.456 381.476 381.723 381.13 382.291 380.136L386.447 372.862Z" stroke="#28272C" stroke-width="0.670369"/>
<path d="M329.698 224.461C343.027 218.888 356.928 217.162 370.027 225.217C373.859 227.573 376.953 230.592 379.381 233.671C379.656 233.008 379.964 232.393 380.287 231.861C380.809 231 381.415 230.279 382.033 229.987C382.236 229.891 382.472 229.856 382.706 229.851C382.945 229.846 383.215 229.871 383.505 229.918C384.085 230.011 384.791 230.199 385.583 230.455C387.169 230.967 389.151 231.768 391.251 232.693C394.831 234.272 398.786 236.228 401.773 237.775C402.169 238.3 402.548 238.832 402.91 239.374C402.878 239.365 402.846 239.354 402.815 239.338C399.764 237.724 395.064 235.362 390.887 233.52C388.797 232.599 386.848 231.812 385.305 231.314C384.533 231.065 383.876 230.892 383.361 230.809C383.104 230.768 382.893 230.751 382.727 230.754C382.556 230.758 382.462 230.784 382.419 230.804C382.056 230.976 381.567 231.493 381.059 232.329C380.685 232.945 380.326 233.693 380.022 234.505C381.79 236.869 383.17 239.237 384.194 241.337C384.195 241.335 384.197 241.331 384.199 241.328C384.593 240.607 385.036 239.907 385.512 239.324C385.985 238.745 386.515 238.25 387.093 237.977C387.296 237.881 387.532 237.847 387.765 237.842C388.004 237.836 388.274 237.861 388.564 237.908C389.144 238.001 389.85 238.189 390.642 238.444C392.228 238.956 394.21 239.758 396.31 240.684C399.651 242.157 403.318 243.959 406.221 245.45C406.414 245.882 406.602 246.318 406.785 246.757C403.772 245.19 399.653 243.144 395.946 241.51C393.856 240.588 391.907 239.802 390.365 239.304C389.593 239.055 388.936 238.883 388.421 238.8C388.163 238.759 387.951 238.741 387.785 238.745C387.614 238.749 387.521 238.774 387.479 238.794C387.075 238.985 386.646 239.363 386.212 239.895C385.782 240.421 385.369 241.069 384.991 241.761C384.883 241.959 384.778 242.161 384.676 242.363C385.338 243.827 385.813 245.125 386.113 246.149C386.159 246.309 386.068 246.475 385.909 246.522C385.749 246.569 385.582 246.477 385.535 246.318C385.274 245.425 384.876 244.32 384.333 243.075C383.889 244.04 383.538 244.968 383.32 245.637C383.306 245.679 383.284 245.716 383.26 245.751C383.078 245.372 382.892 245.008 382.702 244.661C382.986 243.885 383.378 242.94 383.847 242.003C382.866 239.933 381.522 237.568 379.782 235.194C379.77 235.23 379.759 235.266 379.748 235.302C379.398 236.42 379.172 237.595 379.149 238.672C379.132 239.45 379.225 240.155 379.436 240.747C379.088 240.496 378.72 240.26 378.334 240.041C378.264 239.593 378.235 239.126 378.245 238.652C378.271 237.47 378.517 236.209 378.886 235.032C378.961 234.792 379.042 234.556 379.127 234.323C376.706 231.197 373.592 228.115 369.711 225.729C356.844 217.817 343.167 219.482 329.93 225.017C318.168 229.934 308.179 240.119 299.71 251.179C298.953 252.167 298.199 253.197 297.448 254.263C299.735 258.026 304.869 262.593 314.53 263.107C314.646 263.113 314.748 263.164 314.824 263.24C314.614 263.488 314.403 263.737 314.194 263.989C304.684 263.4 299.392 258.963 296.886 255.068C295.04 257.736 293.218 260.616 291.442 263.627C294.191 266.631 299.635 270.446 308.523 271.801C308.35 272.076 308.179 272.354 308.009 272.634C299.356 271.233 293.879 267.53 290.965 264.44C285.765 273.366 280.988 283.362 277.235 292.367C271.451 306.245 266.698 326.405 263.417 338.668C263.374 338.829 263.209 338.923 263.048 338.881C262.888 338.838 262.792 338.673 262.835 338.512C266.107 326.285 270.875 306.062 276.679 292.136C280.46 283.064 285.284 272.974 290.54 263.973C289.814 263.147 289.278 262.377 288.917 261.725C289.093 261.436 289.272 261.147 289.451 260.857C289.49 260.894 289.525 260.938 289.55 260.989C289.838 261.58 290.325 262.325 291.024 263.15C292.823 260.108 294.671 257.198 296.542 254.506C296.003 253.585 295.622 252.707 295.377 251.934C295.6 251.623 295.824 251.314 296.05 251.005C296.061 251.031 296.071 251.059 296.078 251.088C296.251 251.821 296.587 252.718 297.116 253.689C297.819 252.697 298.524 251.737 299.232 250.812C307.72 239.728 317.788 229.441 329.698 224.461ZM309.802 267.58C310.444 266.762 311.208 266.751 311.574 266.929C311.691 266.986 311.706 267.086 311.652 267.227C311.281 267.727 310.915 268.236 310.551 268.753C310.092 269.37 309.953 269.469 309.552 269.275C309.124 269.068 309.16 268.398 309.802 267.58ZM295.056 261.413C295.592 260.673 296.827 260.651 297.814 261.365C298.801 262.079 299.167 263.258 298.632 263.999C298.096 264.74 296.861 264.762 295.873 264.048C294.886 263.334 294.52 262.154 295.056 261.413Z" fill="#232328"/>
<path d="M303.413 398.834C305.147 387.071 311.766 373.138 319.508 374.28C313.163 417.311 340.951 431.238 335.616 432.184C329.992 433.18 323.02 430.935 314.867 426.386C306.715 421.837 301.42 412.348 303.413 398.834Z" fill="url(#paint5_linear_1_2520)"/>
<g style="mix-blend-mode:multiply" opacity="0.15">
<path d="M293.566 278.87C291.93 286.661 297.593 287.324 300.728 286.011C294.098 295.366 285.21 320.685 285.017 324.467C284.857 327.594 283.374 325.289 277.423 323.347C271.472 321.404 281.673 286.507 287.966 274.545C290.714 269.322 305.262 244.995 316.57 237.383C327.878 229.77 338.393 226.604 349.57 226.122C358.511 225.737 372.351 229.482 377.88 235.317C383.409 241.153 379.791 240.102 374.341 236.621C367.528 232.27 353.839 228.121 334.725 232.909C315.611 237.698 295.61 269.131 293.566 278.87Z" fill="url(#paint6_radial_1_2520)"/>
</g>
<path d="M402.366 342.937C402.292 343.171 402.187 343.4 402.05 343.624C401.919 343.845 401.781 344.022 401.636 344.154L400.76 343.835L400.819 343.65L401.322 343.591C401.465 343.57 401.587 343.541 401.688 343.503C401.789 343.464 401.878 343.399 401.954 343.306C402.007 343.243 402.05 343.181 402.083 343.121C402.113 343.056 402.141 342.983 402.166 342.902C402.248 342.642 402.247 342.416 402.162 342.226C402.074 342.029 401.92 341.896 401.698 341.826C401.498 341.762 401.323 341.766 401.175 341.836C401.027 341.901 400.864 342.033 400.685 342.229L400.487 342.455C400.216 342.763 399.943 342.988 399.668 343.131C399.394 343.269 399.085 343.284 398.74 343.174C398.484 343.094 398.287 342.961 398.149 342.776C398.007 342.586 397.924 342.361 397.899 342.1C397.874 341.838 397.91 341.555 398.007 341.248C398.078 341.022 398.175 340.82 398.297 340.643C398.42 340.462 398.556 340.313 398.705 340.196L399.484 340.492L399.425 340.677L398.871 340.762C398.709 340.786 398.588 340.82 398.508 340.865C398.425 340.904 398.361 340.966 398.315 341.05C398.291 341.099 398.27 341.141 398.254 341.178C398.239 341.211 398.222 341.257 398.203 341.317C398.137 341.526 398.141 341.726 398.216 341.919C398.288 342.106 398.431 342.233 398.644 342.3C398.849 342.365 399.033 342.36 399.197 342.285C399.361 342.211 399.527 342.08 399.694 341.894L399.906 341.645C400.216 341.288 400.501 341.053 400.762 340.939C401.019 340.823 401.305 340.815 401.621 340.915C401.996 341.034 402.255 341.273 402.399 341.633C402.54 341.987 402.529 342.421 402.366 342.937ZM403.707 338.173C403.644 338.438 403.535 338.681 403.381 338.901C403.226 339.122 403.032 339.307 402.799 339.458C402.561 339.603 402.288 339.698 401.978 339.743C401.669 339.788 401.325 339.766 400.947 339.675C400.578 339.586 400.265 339.451 400.01 339.27C399.755 339.089 399.554 338.88 399.409 338.643C399.265 338.402 399.174 338.148 399.137 337.881C399.097 337.61 399.108 337.343 399.171 337.083C399.233 336.822 399.342 336.582 399.496 336.361C399.651 336.136 399.847 335.951 400.084 335.806C400.317 335.66 400.588 335.564 400.898 335.519C401.208 335.474 401.551 335.497 401.929 335.588C402.299 335.677 402.611 335.811 402.866 335.992C403.122 336.173 403.322 336.382 403.467 336.619C403.612 336.857 403.706 337.109 403.747 337.376C403.784 337.643 403.771 337.908 403.707 338.173ZM403.512 338.126C403.571 337.879 403.556 337.664 403.467 337.481C403.373 337.298 403.182 337.135 402.895 336.992C402.607 336.849 402.205 336.716 401.688 336.592C401.171 336.467 400.754 336.404 400.438 336.401C400.117 336.398 399.875 336.457 399.712 336.579C399.546 336.699 399.432 336.884 399.373 337.131C399.314 337.375 399.331 337.59 399.424 337.778C399.514 337.96 399.702 338.123 399.99 338.266C400.273 338.407 400.673 338.54 401.19 338.664C401.707 338.789 402.126 338.853 402.447 338.856C402.768 338.86 403.012 338.801 403.179 338.68C403.342 338.554 403.453 338.37 403.512 338.126ZM404.315 335.085L404.176 335.062L404.155 334.862C404.147 334.774 404.115 334.71 404.059 334.669C404.003 334.623 403.931 334.593 403.843 334.578L400.642 334.045C400.552 334.07 400.484 334.095 400.439 334.12C400.391 334.139 400.349 334.161 400.313 334.187C400.277 334.212 400.234 334.248 400.186 334.295L400.08 334.399L399.941 334.376L400.13 333.246L403.498 331.551L401.045 331.142C400.957 331.127 400.877 331.13 400.806 331.149C400.735 331.165 400.681 331.215 400.645 331.299L400.565 331.49L400.426 331.467L400.591 330.482L400.73 330.505L400.748 330.678C400.761 330.766 400.798 330.827 400.861 330.86C400.92 330.888 400.993 330.909 401.081 330.924L404.93 331.565L404.868 331.936L400.983 333.877L403.872 334.359C403.965 334.375 404.044 334.374 404.11 334.358C404.176 334.342 404.228 334.294 404.264 334.214L404.346 334.044L404.485 334.067L404.315 335.085ZM405.243 329.072L405.103 329.058L405.075 328.86C405.062 328.769 405.03 328.703 404.981 328.662C404.931 328.621 404.862 328.594 404.773 328.58L403.566 328.461L401.264 329.317C401.171 329.352 401.1 329.388 401.052 329.424C401.003 329.459 400.962 329.513 400.928 329.586L400.869 329.702L400.729 329.688L400.904 327.92L401.045 327.934L401.073 328.058C401.094 328.159 401.14 328.218 401.21 328.233C401.276 328.249 401.365 328.238 401.476 328.199L403.233 327.606L401.587 326.614C401.51 326.566 401.434 326.54 401.358 326.537C401.282 326.534 401.229 326.576 401.198 326.663L401.162 326.753L401.022 326.739L401.108 325.866L401.249 325.879L401.275 326.017C401.293 326.108 401.327 326.177 401.376 326.222C401.426 326.263 401.493 326.308 401.578 326.357L403.414 327.475L404.868 327.62C405.051 327.638 405.168 327.569 405.219 327.412L405.286 327.217L405.426 327.231L405.243 329.072Z" fill="#575662"/>
</g>
<defs>
<filter id="filter0_d_1_2520" x="26" y="11.9998" width="633.326" height="656.21" filterUnits="userSpaceOnUse" color-interpolation-filters="sRGB">
<feFlood flood-opacity="0" result="BackgroundImageFix"/>
<feColorMatrix in="SourceAlpha" type="matrix" values="0 0 0 0 0 0 0 0 0 0 0 0 0 0 0 0 0 0 127 0" result="hardAlpha"/>
<feOffset dx="-5.39481"/>
<feGaussianBlur stdDeviation="53.9481"/>
<feColorMatrix type="matrix" values="0 0 0 0 1 0 0 0 0 0.498039 0 0 0 0 0 0 0 0 1 0"/>
<feBlend mode="normal" in2="BackgroundImageFix" result="effect1_dropShadow_1_2520"/>
<feBlend mode="normal" in="SourceGraphic" in2="effect1_dropShadow_1_2520" result="shape"/>
</filter>
<radialGradient id="paint0_radial_1_2520" cx="0" cy="0" r="1" gradientUnits="userSpaceOnUse" gradientTransform="translate(348.058 340.105) scale(208.767 220.209)">
<stop offset="0.8" stop-color="#EA6E17"/>
</radialGradient>
<radialGradient id="paint1_radial_1_2520" cx="0" cy="0" r="1" gradientUnits="userSpaceOnUse" gradientTransform="translate(303.645 375.592) rotate(-93.2738) scale(52.8654 42.5399)">
<stop offset="0.620002" stop-color="#393843"/>
<stop offset="1" stop-color="#262529"/>
</radialGradient>
<linearGradient id="paint2_linear_1_2520" x1="293.276" y1="351.091" x2="282.277" y2="425.688" gradientUnits="userSpaceOnUse">
<stop stop-color="#302F37"/>
<stop offset="1" stop-color="#1F1E22"/>
</linearGradient>
<linearGradient id="paint3_linear_1_2520" x1="387.877" y1="364.584" x2="333.686" y2="392.649" gradientUnits="userSpaceOnUse">
<stop stop-color="#313037"/>
<stop offset="0.413462" stop-color="#43404F"/>
<stop offset="1" stop-color="#313037"/>
</linearGradient>
<linearGradient id="paint4_linear_1_2520" x1="392.488" y1="252.837" x2="374.519" y2="352.999" gradientUnits="userSpaceOnUse">
<stop stop-color="#393845"/>
<stop offset="1" stop-color="#323239"/>
</linearGradient>
<linearGradient id="paint5_linear_1_2520" x1="318.727" y1="377.512" x2="330.124" y2="432.287" gradientUnits="userSpaceOnUse">
<stop stop-color="#313037"/>
<stop offset="0.456731" stop-color="#28272C"/>
<stop offset="1" stop-color="#313037"/>
</linearGradient>
<radialGradient id="paint6_radial_1_2520" cx="0" cy="0" r="1" gradientUnits="userSpaceOnUse" gradientTransform="translate(292.676 292.127) rotate(91.5902) scale(22.8873 19.4677)">
<stop stop-color="#1F1E22"/>
<stop offset="1" stop-color="#33303B"/>
</radialGradient>
<clipPath id="clip0_1_2520">
<rect width="634" height="657" fill="white" transform="translate(26 12)"/>
</clipPath>
</defs>
</svg>
