<svg width="678" height="676" viewBox="0 0 678 676" fill="none" xmlns="http://www.w3.org/2000/svg">
<g filter="url(#filter0_d_37_227)">
<path d="M339.5 585C476.19 585 587 474.19 587 337.5C587 200.81 476.19 90 339.5 90C202.81 90 92 200.81 92 337.5C92 474.19 202.81 585 339.5 585Z" fill="#00AAAA"/>
</g>
<path fill-rule="evenodd" clip-rule="evenodd" d="M338 90.0005C459.355 232.686 459.355 442.314 338 585C338.167 585 338.333 585 338.5 585C475.19 585 586 474.19 586 337.5C586 200.81 475.19 90 338.5 90C338.333 90 338.167 90.0002 338 90.0005Z" fill="#008080"/>
<path d="M99.8926 265.314C51.6427 171.149 634 169.313 579.58 265.314" stroke="#034040" stroke-width="6" stroke-linecap="round"/>
<path d="M416.5 211C424.508 211 431 204.508 431 196.5C431 188.492 424.508 182 416.5 182C408.492 182 402 188.492 402 196.5C402 204.508 408.492 211 416.5 211Z" fill="#FFD374"/>
<path d="M416.5 208C422.851 208 428 202.851 428 196.5C428 190.149 422.851 185 416.5 185C410.149 185 405 190.149 405 196.5C405 202.851 410.149 208 416.5 208Z" fill="#FFF1D3"/>
<path d="M97.8442 416C49.5944 510.165 631.952 512 577.531 416" stroke="#034040" stroke-width="6" stroke-linecap="round"/>
<path d="M237.5 492C243.299 492 248 487.299 248 481.5C248 475.701 243.299 471 237.5 471C231.701 471 227 475.701 227 481.5C227 487.299 231.701 492 237.5 492Z" fill="#FFD374"/>
<g clip-path="url(#clip0_37_227)">
<mask id="mask0_37_227" style="mask-type:luminance" maskUnits="userSpaceOnUse" x="179" y="313" width="321" height="49">
<path d="M500 313H179V361.784H500V313Z" fill="white"/>
</mask>
<g mask="url(#mask0_37_227)">
<path d="M225.025 322.994V313.295H188.232C185.678 313.295 183.229 314.31 181.423 316.115C179.617 317.921 178.602 320.37 178.602 322.924V332.764C178.602 335.318 179.617 337.767 181.423 339.572C183.229 341.378 185.678 342.393 188.232 342.393H217.398V352.085H179.296V361.784H217.469C220.023 361.784 222.472 360.77 224.278 358.964C226.084 357.158 227.099 354.709 227.099 352.156V342.322C227.099 339.768 226.084 337.319 224.278 335.514C222.472 333.708 220.023 332.693 217.469 332.693H188.303V322.994H225.025Z" fill="white"/>
<path d="M235.047 322.924V352.156C235.047 354.709 236.061 357.159 237.867 358.964C239.673 360.77 242.122 361.784 244.677 361.784H273.913C276.467 361.784 278.917 360.77 280.723 358.964C282.529 357.159 283.543 354.709 283.543 352.156V322.924C283.543 320.37 282.529 317.921 280.723 316.115C278.917 314.31 276.467 313.295 273.913 313.295H244.677C242.122 313.295 239.673 314.31 237.867 316.115C236.061 317.921 235.047 320.37 235.047 322.924ZM273.843 352.085H244.728V322.994H273.823L273.843 352.085Z" fill="white"/>
<path d="M338.216 322.924V361.784H347.917V345.852H376.332V361.784H386.025V322.924C386.025 320.37 385.011 317.921 383.205 316.115C381.399 314.31 378.95 313.295 376.395 313.295H347.846C345.293 313.295 342.842 314.31 341.036 316.115C339.231 317.921 338.216 320.37 338.216 322.924ZM376.332 336.153H347.923V322.994H376.338L376.332 336.153Z" fill="white"/>
<path d="M451.799 322.924V361.784H461.48V345.852H489.889V361.784H499.59V322.924C499.59 320.37 498.575 317.921 496.769 316.115C494.963 314.31 492.513 313.295 489.96 313.295H461.429C458.875 313.295 456.425 314.31 454.619 316.115C452.813 317.921 451.799 320.37 451.799 322.924ZM489.902 336.153H461.48V322.994H489.889L489.902 336.153Z" fill="white"/>
<path d="M433.476 313.295V352.085H429.624L415.68 317.333C415.203 316.142 414.383 315.12 413.32 314.401C412.258 313.681 411.005 313.296 409.722 313.295H401.087C399.385 313.295 397.752 313.971 396.547 315.175C395.343 316.379 394.667 318.012 394.667 319.714V361.784H404.342V322.994H408.226L422.132 357.753C422.61 358.944 423.433 359.965 424.495 360.683C425.559 361.402 426.813 361.785 428.096 361.784H436.731C438.434 361.784 440.066 361.108 441.271 359.904C442.475 358.7 443.151 357.068 443.151 355.365V313.295H433.476Z" fill="white"/>
<path d="M301.866 352.085V313.295H292.178V352.156C292.178 354.709 293.193 357.159 294.999 358.964C296.805 360.77 299.254 361.784 301.808 361.784H330.974V352.085H301.866Z" fill="white"/>
</g>
</g>
<defs>
<filter id="filter0_d_37_227" x="42" y="40" width="595" height="595" filterUnits="userSpaceOnUse" color-interpolation-filters="sRGB">
<feFlood flood-opacity="0" result="BackgroundImageFix"/>
<feColorMatrix in="SourceAlpha" type="matrix" values="0 0 0 0 0 0 0 0 0 0 0 0 0 0 0 0 0 0 127 0" result="hardAlpha"/>
<feOffset/>
<feGaussianBlur stdDeviation="25"/>
<feComposite in2="hardAlpha" operator="out"/>
<feColorMatrix type="matrix" values="0 0 0 0 0.007843 0 0 0 0 1 0 0 0 0 .4 0 0 0 0.5 0"/>
<feBlend mode="normal" in2="BackgroundImageFix" result="effect1_dropShadow_37_227"/>
<feBlend mode="normal" in="SourceGraphic" in2="effect1_dropShadow_37_227" result="shape"/>
</filter>
<clipPath id="clip0_37_227">
<rect width="321" height="49" fill="white" transform="translate(179 313)"/>
</clipPath>
</defs>
</svg>
