<svg width="717" height="474" viewBox="0 0 717 474" fill="none" xmlns="http://www.w3.org/2000/svg">
<g clip-path="url(#clip0_11_12)">
<path d="M357.544 471.767C489.91 464.461 595.79 355.739 594.033 228.93C592.276 102.121 483.547 5.2446 351.181 12.5506C218.814 19.8565 112.934 128.578 114.691 255.387C116.449 382.196 225.178 479.073 357.544 471.767Z" fill="url(#paint0_linear_11_12)"/>
<path d="M367.444 473.161C501.289 463.426 600.552 355.712 596.358 227.204C592.237 100.954 471.279 -10.4315 323.334 14.4365C494.219 194.838 479.208 293.064 323.435 473.118C325.507 473.018 365.361 473.313 367.444 473.161Z" fill="#541E67"/>
<path d="M543.808 25.3506C575.722 5.03018 655.699 -25.4614 648.681 38.5115C641.73 80.9344 614.776 113.945 588.553 146.565C536.063 208.655 473.678 260.428 409.033 308.47C326.866 366.584 238.617 423.981 138.907 451.176C23.6559 472.218 21.0948 407.37 108.814 351.579C92.7303 372.431 70.0673 396.448 68.0194 421.085C68.4262 423.865 69.3526 424.34 70.8356 425.134C88.5705 430.292 111.498 425.179 129.804 418.568C218.888 381.446 297.734 322.639 376.997 267.312C425.32 236.281 784.979 -43.2444 543.81 25.5255L543.808 25.3506Z" fill="#A502B3"/>
<path d="M624.03 130.038C661.262 125.762 744.754 134.272 707.669 185.36C680.925 218.698 641.868 235.478 603.361 252.394C528.134 283.321 449.424 301.361 370.47 315.277C271.606 330.408 167.942 342.316 69.1228 323.528C-39.9251 293.036 -10.5994 236.567 91.9838 225.708C68.0154 236.73 36.918 247.797 23.1393 267.879C22.2628 270.407 22.6402 271.214 23.5733 272.488C36.182 284.398 58.3819 289.682 77.2419 291.667C171.663 297.451 267.937 280.307 362.981 266.536C419.747 260.404 864.342 172.812 624.03 130.038Z" fill="#A502B3"/>
<path d="M419.958 150V190.537H385.688V224.117H333.756V190.537H299L322.008 150H419.958Z" fill="url(#paint1_linear_11_12)"/>
<path d="M419.958 293.099L397.84 333.636H299V293.099H333.756V259.519H385.688V293.099H419.958Z" fill="url(#paint2_linear_11_12)"/>
</g>
<defs>
<linearGradient id="paint0_linear_11_12" x1="154.089" y1="167.066" x2="582.061" y2="357.663" gradientUnits="userSpaceOnUse">
<stop offset="0.33" stop-color="#622777"/>
</linearGradient>
<linearGradient id="paint1_linear_11_12" x1="443.5" y1="185.921" x2="287" y2="185.921" gradientUnits="userSpaceOnUse">
<stop stop-color="#A315D6"/>
<stop offset="0.134615" stop-color="#CF5E9D"/>
<stop offset="0.514423" stop-color="#FDAB60"/>
<stop offset="0.951923" stop-color="#C64FA8"/>
<stop offset="1" stop-color="#A315D6"/>
</linearGradient>
<linearGradient id="paint2_linear_11_12" x1="443.5" y1="295.44" x2="287" y2="295.44" gradientUnits="userSpaceOnUse">
<stop stop-color="#A315D6"/>
<stop offset="0.134615" stop-color="#CF5E9D"/>
<stop offset="0.514423" stop-color="#FDAB60"/>
<stop offset="0.951923" stop-color="#C64FA8"/>
<stop offset="1" stop-color="#A315D6"/>
</linearGradient>
<clipPath id="clip0_11_12">
<rect width="717" height="474" fill="white"/>
</clipPath>
</defs>
</svg>
