<svg width="678" height="676" viewBox="0 0 678 676" fill="none" xmlns="http://www.w3.org/2000/svg">
<g filter="url(#filter0_d_1_2525)">
<path d="M339.5 585C476.19 585 587 474.19 587 337.5C587 200.81 476.19 90 339.5 90C202.81 90 92 200.81 92 337.5C92 474.19 202.81 585 339.5 585Z" fill="#A570B7"/>
</g>
<path fill-rule="evenodd" clip-rule="evenodd" d="M338 90.0005C459.355 232.686 459.355 442.314 338 585C338.167 585 338.333 585 338.5 585C475.19 585 586 474.19 586 337.5C586 200.81 475.19 90 338.5 90C338.333 90 338.167 90.0002 338 90.0005Z" fill="#8E539F"/>
<path d="M99.8926 265.314C51.6427 171.149 634 169.313 579.58 265.314" stroke="#561E83" stroke-width="6" stroke-linecap="round"/>
<path d="M416.5 211C424.508 211 431 204.508 431 196.5C431 188.492 424.508 182 416.5 182C408.492 182 402 188.492 402 196.5C402 204.508 408.492 211 416.5 211Z" fill="#FFD374"/>
<path d="M416.5 208C422.851 208 428 202.851 428 196.5C428 190.149 422.851 185 416.5 185C410.149 185 405 190.149 405 196.5C405 202.851 410.149 208 416.5 208Z" fill="#FFF1D3"/>
<path d="M97.8442 416C49.5944 510.165 631.952 512 577.531 416" stroke="#561E83" stroke-width="6" stroke-linecap="round"/>
<path d="M237.5 492C243.299 492 248 487.299 248 481.5C248 475.701 243.299 471 237.5 471C231.701 471 227 475.701 227 481.5C227 487.299 231.701 492 237.5 492Z" fill="#FFD374"/>
<mask id="mask0_1_2525" style="mask-type:luminance" maskUnits="userSpaceOnUse" x="231" y="311" width="225" height="62">
<path d="M456 311H231V373H456V311Z" fill="white"/>
</mask>
<g mask="url(#mask0_1_2525)">
<path d="M249.665 311.31C225.204 314.775 224.623 356.738 248.882 360.958C285.554 367.328 286.077 306.151 249.665 311.31ZM248.649 352.469C236.293 347.736 237.106 321.106 251.601 319.006C274.485 315.695 271.882 361.375 248.649 352.469Z" fill="white"/>
<path d="M423.366 312.722C421.649 312.722 414.892 312.79 412.202 312.723L395.05 360.416C400.081 360.344 401.343 360.416 403.92 360.416C405.332 356.639 406.191 354.744 407.908 349.75C409.153 349.75 427.3 349.923 427.3 349.923C428.519 352.333 431.095 358.361 431.954 360.083C433.672 360.416 438.824 360.083 441.401 360.083L423.366 312.722ZM410.485 342.024L418.214 322.195C419.073 324.778 424.225 340.278 425.036 342.024H410.485Z" fill="white"/>
<path d="M316.653 340.582C315.531 326.44 302.449 319.46 290.547 327.514C291.757 322.413 285.322 325.259 281.829 324.6V373H290.537V357.512C304.374 367.947 317.911 356.428 316.653 340.582ZM301.646 353.621C286.802 356.496 287.48 333.67 297.05 331.57C310.49 328.608 311.09 351.791 301.646 353.621Z" fill="white"/>
<path d="M354.352 340.708C352.765 317.292 320.553 318.947 320.456 342.508C320.369 362.759 345.943 369.341 353.433 350.765C344.521 345.712 346.485 351.733 341.87 353.205C334.893 355.431 330.249 351.772 329.242 344.928H352.949C354.342 344.928 354.429 341.889 354.352 340.708ZM329.242 338.152C330.906 329.392 344.966 328.356 344.724 338.152H329.242Z" fill="white"/>
<path d="M390.202 335.732V360.416H380.526V335.732C380.526 330.157 367.947 332.441 367.947 337.668V360.416H359.238V324.6C362.731 325.259 369.166 322.413 367.957 327.514C374.343 322.703 383.148 322.045 387.754 329.479C388.344 330.437 390.202 335.035 390.202 335.732Z" fill="white"/>
<path d="M456 313.468V360.416H446.324V312.016C448.143 312.084 456 311.348 456 313.468Z" fill="white"/>
</g>
<defs>
<filter id="filter0_d_1_2525" x="42" y="40" width="595" height="595" filterUnits="userSpaceOnUse" color-interpolation-filters="sRGB">
<feFlood flood-opacity="0" result="BackgroundImageFix"/>
<feColorMatrix in="SourceAlpha" type="matrix" values="0 0 0 0 0 0 0 0 0 0 0 0 0 0 0 0 0 0 127 0" result="hardAlpha"/>
<feOffset/>
<feGaussianBlur stdDeviation="25"/>
<feComposite in2="hardAlpha" operator="out"/>
<feColorMatrix type="matrix" values="0 0 0 0 1 0 0 0 0 0 0 0 0 0 0.933333 0 0 0 0.5 0"/>
<feBlend mode="normal" in2="BackgroundImageFix" result="effect1_dropShadow_1_2525"/>
<feBlend mode="normal" in="SourceGraphic" in2="effect1_dropShadow_1_2525" result="shape"/>
</filter>
</defs>
</svg>
