<svg width="149" height="143" viewBox="0 0 149 143" fill="none" xmlns="http://www.w3.org/2000/svg">
<path d="M64.8374 6.9099C67.8309 -2.30321 80.865 -2.30319 83.8586 6.90992L94.5543 39.8279C95.893 43.9481 99.7326 46.7377 104.065 46.7377H138.677C148.364 46.7377 152.392 59.1339 144.555 64.8279L116.553 85.1723C113.048 87.7187 111.582 92.2324 112.92 96.3526L123.616 129.271C126.609 138.484 116.065 146.145 108.228 140.451L80.2258 120.107C76.721 117.56 71.975 117.56 68.4701 120.107L40.4684 140.451C32.6313 146.145 22.0865 138.484 25.08 129.271L35.7757 96.3526C37.1145 92.2324 35.6479 87.7187 32.143 85.1723L4.14131 64.8279C-3.69583 59.1339 0.331945 46.7377 10.0192 46.7377H44.6312C48.9634 46.7377 52.803 43.9481 54.1417 39.8279L64.8374 6.9099Z" fill="#D9D9D9"/>
</svg>
