<svg width="36" height="37" viewBox="0 0 36 37" fill="none" xmlns="http://www.w3.org/2000/svg">
<path d="M35.26 18.6435C35.26 20.0962 35.083 21.5217 34.744 22.8658C33.115 29.5317 27.697 34.6907 20.909 35.9805C19.85 36.1705 18.75 36.2791 17.637 36.2791C15.111 36.2791 12.722 35.7497 10.549 34.7993C8.36301 33.8354 6.395 32.437 4.793 30.7129C1.819 27.5632 0 23.3138 0 18.6435C0 8.90928 7.88802 1.02148 17.637 1.02148C27.385 1.02148 35.26 8.90928 35.26 18.6435Z" fill="url(#paint0_linear_1_48)"/>
<path d="M21.642 1.7004C22.592 3.9677 17.284 3.5332 11.907 5.8005C6.53101 8.0677 3.12303 12.1678 2.17203 9.9005C1.22203 7.6333 4.80601 3.9677 10.169 1.7004C15.546 -0.5668 20.678 -0.5668 21.628 1.7004H21.642Z" fill="#8ABF67"/>
<path d="M12.26 2.92289C14.5 3.92749 6.87 8.73349 7.277 14.5442C7.78 21.4681 5.865 23.2058 3.625 22.2012C1.385 21.1966 1.49301 16.0647 3.86901 10.7428C6.24501 5.42089 10.006 1.91819 12.247 2.92289H12.26Z" fill="#8ABF67"/>
<path d="M34.744 22.8661C33.114 29.5321 27.697 34.6911 20.909 35.9808C19.863 34.4467 19.252 32.5868 19.252 30.5775C19.252 25.2284 23.583 20.9111 28.919 20.9111C31.119 20.9111 33.128 21.6307 34.744 22.8661Z" fill="#8ABF67"/>
<path d="M27.371 3.65539L26.244 3.26169L27.575 10.8916C28.227 14.5979 27.086 18.3993 24.52 21.1553L21.492 24.3864L33.332 22.4586L34.527 19.5669C35.382 17.4897 35.64 15.2224 35.273 13.0231C34.554 8.69219 31.526 5.10809 27.385 3.66899L27.371 3.65539Z" fill="#8ABF67"/>
<path d="M31.159 14.0549C31.954 14.0549 32.599 13.4106 32.599 12.6159C32.599 11.8211 31.954 11.1768 31.159 11.1768C30.365 11.1768 29.72 11.8211 29.72 12.6159C29.72 13.4106 30.365 14.0549 31.159 14.0549Z" fill="#1A6235"/>
<path d="M26.38 30.2512C27.175 30.2512 27.82 29.6069 27.82 28.8121C27.82 28.0174 27.175 27.3731 26.38 27.3731C25.585 27.3731 24.941 28.0174 24.941 28.8121C24.941 29.6069 25.585 30.2512 26.38 30.2512Z" fill="#0F4924"/>
<path d="M6.612 8.13549C7.407 8.13549 8.05103 7.49119 8.05103 6.69639C8.05103 5.90159 7.407 5.25729 6.612 5.25729C5.817 5.25729 5.173 5.90159 5.173 6.69639C5.173 7.49119 5.817 8.13549 6.612 8.13549Z" fill="#1A6235"/>
<path d="M11.785 32.0707C11.785 33.1568 11.31 34.1343 10.549 34.7995C8.36301 33.8356 6.39502 32.4372 4.79202 30.713C5.33602 29.3826 6.639 28.4458 8.16 28.4458C10.155 28.4458 11.785 30.075 11.785 32.0707Z" fill="#9FDD76"/>
<defs>
<linearGradient id="paint0_linear_1_48" x1="14.12" y1="7.89108" x2="25.062" y2="41.425" gradientUnits="userSpaceOnUse">
<stop offset="0.552885" stop-color="#1A6235"/>
</linearGradient>
</defs>
</svg>
