<svg width="37" height="39" viewBox="0 0 37 39" fill="none" xmlns="http://www.w3.org/2000/svg">
<path d="M31.567 3.6249C31.567 3.6249 31.567 3.5977 31.567 3.5842C31.567 1.602 29.964 0 27.982 0C26 0 24.398 1.602 24.398 3.5842C24.398 5.5663 26 7.1683 27.982 7.1683C28.579 7.1683 29.136 7.0054 29.638 6.7474C30.005 7.2226 30.562 7.5213 31.2 7.5213C32.286 7.5213 33.169 6.6388 33.169 5.5527C33.169 4.5888 32.476 3.7878 31.567 3.6113V3.6249Z" fill="#FCFBE2"/>
<path d="M16.021 36.2487C16.021 36.2487 16.021 36.2759 16.034 36.2894C16.998 38.0136 19.184 38.6246 20.922 37.6606C22.66 36.6967 23.2571 34.5109 22.2931 32.7732C21.3291 31.0354 19.1431 30.438 17.4051 31.402C16.8891 31.7006 16.482 32.1079 16.17 32.5831C15.627 32.3523 14.989 32.3523 14.432 32.6646C13.482 33.194 13.142 34.4023 13.685 35.3527C14.16 36.1944 15.152 36.5474 16.034 36.2487H16.021Z" fill="#FCFBE2"/>
<path d="M19.347 35.2712C29.088 35.2712 36.984 27.3755 36.984 17.6356C36.984 7.8957 29.088 0 19.347 0C9.60598 0 1.71002 7.8957 1.71002 17.6356C1.71002 27.3755 9.60598 35.2712 19.347 35.2712Z" fill="url(#paint0_linear_1_50)"/>
<path d="M9.17804 1.7652C8.45804 1.7652 7.834 2.1724 7.521 2.7834C7.087 2.5526 6.59803 2.4168 6.08203 2.4168C4.37103 2.4168 2.987 3.8016 2.987 5.5122C2.987 5.7566 3.02702 6.001 3.08102 6.2318C1.75102 6.5304 0.76001 7.7116 0.76001 9.1235C0.76001 9.7616 0.96301 10.359 1.31601 10.8341C0.57001 11.0242 0 11.6623 0 12.4633C0 13.4136 0.773022 14.1739 1.71002 14.1739C2.64702 14.1739 3.42102 13.4001 3.42102 12.4633C3.42102 12.3139 3.36702 12.1782 3.33902 12.0424C3.46202 12.056 3.597 12.0832 3.72 12.0832C5.362 12.0832 6.67902 10.7527 6.67902 9.1235C6.67902 8.9335 6.652 8.7434 6.625 8.5533C8.078 8.2954 9.17804 7.0328 9.17804 5.5122C10.21 5.5122 11.051 4.6705 11.051 3.6387C11.051 2.6069 10.21 1.7652 9.17804 1.7652Z" fill="#FCFBE2"/>
<path d="M26.882 33.8053C27.385 33.8732 27.846 33.656 28.118 33.2623C28.389 33.4659 28.715 33.6153 29.082 33.656C30.263 33.8189 31.363 33.0043 31.526 31.8232C31.553 31.6467 31.553 31.4838 31.526 31.3209C32.476 31.253 33.277 30.5334 33.413 29.556C33.481 29.1079 33.386 28.6871 33.196 28.3205C33.725 28.2662 34.187 27.8725 34.268 27.3159C34.363 26.6642 33.902 26.0533 33.25 25.9582C32.598 25.8632 31.987 26.3248 31.892 26.9765C31.879 27.0851 31.892 27.1801 31.906 27.2751C31.824 27.248 31.729 27.2208 31.648 27.2073C30.521 27.0443 29.475 27.8318 29.312 28.9586C29.299 29.0944 29.285 29.2301 29.299 29.3523C28.267 29.393 27.385 30.1533 27.235 31.1987C26.516 31.1036 25.864 31.5924 25.755 32.3119C25.647 33.0315 26.149 33.6831 26.869 33.7918L26.882 33.8053Z" fill="#FCFBE2"/>
<path d="M15.912 10.4001C14.921 10.6037 12.586 11.2282 12.613 12.2193C12.368 12.2057 12.11 12.2057 11.866 12.2465C10.495 12.518 9.57101 13.7806 9.66601 15.1382C9.23201 15.1111 8.79804 15.1246 8.36304 15.2061C5.67504 15.7491 3.92301 18.3286 4.38501 21.0303C3.32601 21.8177 2.75601 23.1618 3.02701 24.5466C3.19001 25.3883 3.66501 26.0943 4.29001 26.5966C3.46201 27.2075 4.67002 28.5244 4.88702 29.6105C5.18602 31.1039 6.63902 32.0679 8.11902 31.7692C9.59902 31.4705 9.97899 30.6288 9.67999 29.1354C9.58499 28.6602 9.205 27.3705 8.906 27.0175C9.707 26.6373 10.332 25.9721 10.658 25.1575C10.848 25.1439 11.038 25.1439 11.241 25.1032C13.97 24.5602 15.749 21.8992 15.206 19.1704C15.084 18.5323 14.826 17.9485 14.486 17.419C15.6 16.8896 16.251 15.6677 16.007 14.4051C15.993 14.3101 16.713 14.5001 16.686 14.4051L15.953 14.1336C17.053 13.9163 18.532 13.1153 18.315 12.0021C18.098 10.8888 17.025 10.1829 15.912 10.4001Z" fill="#FCFBE2"/>
<path d="M31.186 18.0433C33.166 18.0433 34.771 16.4386 34.771 14.4592C34.771 12.4797 33.166 10.875 31.186 10.875C29.207 10.875 27.602 12.4797 27.602 14.4592C27.602 16.4386 29.207 18.0433 31.186 18.0433Z" fill="#FCFBE2"/>
<path d="M29.218 20.0119C30.305 20.0119 31.186 19.1305 31.186 18.0433C31.186 16.9561 30.305 16.0747 29.218 16.0747C28.13 16.0747 27.249 16.9561 27.249 18.0433C27.249 19.1305 28.13 20.0119 29.218 20.0119Z" fill="#FCFBE2"/>
<path d="M26.163 24.3968C26.958 24.3968 27.602 23.7524 27.602 22.9577C27.602 22.1629 26.958 21.5186 26.163 21.5186C25.368 21.5186 24.724 22.1629 24.724 22.9577C24.724 23.7524 25.368 24.3968 26.163 24.3968Z" fill="#FCFBE2"/>
<defs>
<linearGradient id="paint0_linear_1_50" x1="6.01402" y1="7.114" x2="33.697" y2="28.9601" gradientUnits="userSpaceOnUse">
<stop offset="0.5" stop-color="#EDC887"/>
</linearGradient>
</defs>
</svg>
