<svg width="51" height="36" viewBox="0 0 51 36" fill="none" xmlns="http://www.w3.org/2000/svg">
<path d="M44.1281 17.622C44.1281 22.3466 42.2681 26.6367 39.2261 29.8C38.2891 30.791 37.2441 31.6735 36.0901 32.4066C33.3201 34.2123 30.0211 35.2576 26.4911 35.2576C24.7261 35.2576 23.0291 34.9997 21.4131 34.5109C14.1491 32.3252 8.86809 25.5913 8.86809 17.622C8.86809 16.4002 8.99008 15.2055 9.22108 14.0515C9.98108 10.3994 11.8681 7.1547 14.4891 4.711C15.1671 4.0865 15.9011 3.5027 16.6751 2.9732C18.8601 1.5205 21.3861 0.5295 24.1011 0.1629C24.8891 0.0543 25.6761 0 26.4911 0C34.4611 0 41.1951 5.2812 43.3811 12.5309C43.8701 14.1465 44.1281 15.8571 44.1281 17.622Z" fill="url(#paint0_linear_1_47)"/>
<path d="M20.7341 9.178C20.7341 12.9251 17.6931 15.9661 13.9461 15.9661C12.0991 15.9661 10.4291 15.233 9.22108 14.0519C9.98108 10.3999 11.8681 7.1551 14.4891 4.7114C15.1671 4.0869 15.9011 3.5031 16.6751 2.9736C18.1271 3.6117 19.3091 4.725 20.0151 6.1369C20.4761 7.0465 20.7341 8.0783 20.7341 9.178Z" fill="#4A79E7"/>
<path d="M24.1281 0.706117C24.1281 3.29922 22.3901 5.47142 20.0141 6.13672C19.5251 6.28602 19.0091 6.35392 18.4801 6.35392C16.9051 6.35392 15.5071 5.72942 14.4881 4.71112C15.1671 4.08662 15.9001 3.50282 16.6741 2.97342C18.8601 1.52072 21.3851 0.529616 24.1011 0.163116C24.1151 0.339616 24.1281 0.529617 24.1281 0.706117Z" fill="#4A79E7"/>
<path d="M43.3811 12.5309C43.0011 12.4901 42.6341 12.4766 42.2541 12.4766C36.7421 12.4766 32.1801 16.563 31.4461 21.8849C30.9851 21.8035 30.5101 21.7627 30.0211 21.7627C24.8891 21.7627 20.7341 25.9307 20.7341 31.0625C20.7341 32.2844 20.9651 33.4519 21.4131 34.5109C23.0291 34.9996 24.7261 35.2576 26.4911 35.2576C30.0211 35.2576 33.3201 34.2122 36.0901 32.4066C37.2441 31.6734 38.2891 30.791 39.2261 29.7999C42.2681 26.6366 44.1281 22.3465 44.1281 17.622C44.1281 15.8571 43.8701 14.1464 43.3811 12.5309Z" fill="url(#paint1_linear_1_47)"/>
<path d="M43.5301 7.50812C46.0011 6.82932 51.7851 6.10982 50.8891 10.3727C49.6811 13.7125 46.7611 15.6946 44.0601 17.6089C33.8901 24.0305 22.5531 28.0626 10.6191 29.5289C2.40508 30.8594 -6.05392 25.5375 6.04308 21.4781C4.46808 22.6457 2.37809 23.8947 1.69909 25.6868C1.67209 25.904 1.72609 25.9583 1.80709 26.0398C4.23809 27.5739 7.44209 26.8408 10.1711 26.3656C18.4671 24.56 26.7621 21.6818 34.6641 18.4506C38.0451 16.9437 48.9341 12.6807 49.2191 8.96082C47.9431 7.61672 45.3901 7.65752 43.5301 7.48102V7.50812Z" fill="#92B8F2"/>
<defs>
<linearGradient id="paint0_linear_1_47" x1="13.7151" y1="9.7613" x2="43.7331" y2="28.2405" gradientUnits="userSpaceOnUse">
<stop offset="0.4" stop-color="#26308D"/>
</linearGradient>
<linearGradient id="paint1_linear_1_47" x1="22.9881" y1="19.0882" x2="44.1541" y2="29.0679" gradientUnits="userSpaceOnUse">
<stop offset="1" stop-color="#4A79E7"/>
</linearGradient>
</defs>
</svg>
