<svg width="36" height="36" viewBox="0 0 36 36" fill="none" xmlns="http://www.w3.org/2000/svg">
<path d="M35.26 17.622C35.26 17.622 35.26 17.7306 35.246 17.7985C35.26 18.1651 35.246 18.5045 35.205 18.8575C35.138 20.0793 34.92 21.2876 34.594 22.428C34.567 22.5231 34.54 22.6181 34.513 22.7131C32.327 29.9765 25.606 35.2576 17.637 35.2576C11.024 35.2576 5.26797 31.6056 2.25397 26.2294C2.00897 25.8085 1.79201 25.3741 1.58801 24.9397C0.584013 22.7539 0.013 20.3101 0 17.7578V17.622C0 16.6038 0.0810186 15.6263 0.244019 14.6624C0.692019 12.0014 1.738 9.5577 3.245 7.4398C3.571 6.9918 3.90998 6.5574 4.27698 6.1365C7.49398 2.3759 12.287 0 17.637 0C25.959 0 32.952 5.7699 34.771 13.5491C34.907 14.1193 35.015 14.7167 35.097 15.3141C35.205 16.0743 35.26 16.8482 35.26 17.622Z" fill="url(#paint0_linear_1_49)"/>
<path d="M35.26 17.6223C35.26 17.6223 35.26 17.7309 35.246 17.7987C24.466 11.8388 11.988 15.0292 0.244019 14.6626C0.692019 12.0017 1.738 9.55792 3.245 7.44002C3.571 6.99202 3.90998 6.55762 4.27698 6.13672L9.85699 6.40822C15.07 6.67982 20.203 7.79302 25.036 9.70732L34.771 13.5494C34.907 14.1196 35.015 14.7169 35.097 15.3143C35.205 16.0746 35.26 16.8484 35.26 17.6223Z" fill="#EAD960"/>
<path d="M35.205 18.8578C35.138 20.0796 34.92 21.2879 34.594 22.4283L24.887 21.9667C17.08 21.5866 9.31397 23.0664 2.25397 26.2297C2.00897 25.8088 1.79201 25.3744 1.58801 24.9399C0.584013 22.7542 0.013 20.3104 0 17.7581C11.771 17.3644 24.059 13.6716 35.205 18.8578Z" fill="#EAD960"/>
<defs>
<linearGradient id="paint0_linear_1_49" x1="0" y1="17.622" x2="35.273" y2="17.622" gradientUnits="userSpaceOnUse">
<stop offset="1" stop-color="#F17624"/>
</linearGradient>
</defs>
</svg>
