<svg width="54" height="37" viewBox="0 0 54 37" fill="none" xmlns="http://www.w3.org/2000/svg">
<path d="M25.7574 35.2712C35.498 35.2712 43.3942 27.3755 43.3942 17.6356C43.3942 7.89571 35.498 0 25.7574 0C16.0169 0 8.12061 7.89571 8.12061 17.6356C8.12061 27.3755 16.0169 35.2712 25.7574 35.2712Z" fill="url(#paint0_linear_1_46)"/>
<path d="M40.5567 4.98231C42.9327 3.54321 48.866 1.52041 48.2821 6.44861C47.7255 9.70691 45.7025 12.1506 43.7338 14.5672C39.7964 19.156 35.1394 22.903 30.3195 26.3514C24.1961 30.5058 17.6247 34.5786 10.2387 36.2621C1.71225 37.4025 1.59006 32.3657 8.12071 28.415C6.91233 29.9627 5.2152 31.7276 5.03869 33.6283C5.06585 33.8455 5.13372 33.8863 5.24234 33.9541C6.54576 34.4293 8.2429 34.1306 9.60062 33.6962C16.2127 31.1981 22.0917 26.9759 27.9978 23.0252C31.5957 20.8259 58.4243 0.692233 40.5567 4.99591V4.98231Z" fill="#A502B3"/>
<path d="M46.5035 12.938C49.2732 12.7479 55.4644 13.8069 52.6539 17.839C50.6309 20.4592 47.7118 21.6675 44.8334 22.8894C39.2125 25.1023 33.3471 26.2427 27.4682 27.0437C20.1093 27.8583 12.3975 28.3878 5.07935 26.4192C-2.98552 23.446 -0.745293 18.9387 6.8851 18.4907C5.09291 19.2917 2.77122 20.0655 1.72578 21.654C1.65789 21.8576 1.68503 21.9255 1.75292 22.0341C2.67617 23.0659 4.31903 23.5954 5.71748 23.8397C12.7233 24.7222 19.8921 23.7311 26.9658 23.0116C31.1883 22.7536 64.3032 17.486 46.5035 12.938Z" fill="#A502B3"/>
<defs>
<linearGradient id="paint0_linear_1_46" x1="11.1076" y1="11.0239" x2="43.2577" y2="25.5251" gradientUnits="userSpaceOnUse">
<stop offset="0.33" stop-color="#622777"/>
</linearGradient>
</defs>
</svg>
