<svg width="56" height="56" viewBox="0 0 56 56" fill="none" xmlns="http://www.w3.org/2000/svg">
<g filter="url(#filter0_d_1_52)">
<path d="M27.636 45.2712C37.377 45.2712 45.273 37.3755 45.273 27.6356C45.273 17.8957 37.377 10 27.636 10C17.896 10 10 17.8957 10 27.6356C10 37.3755 17.896 45.2712 27.636 45.2712Z" fill="url(#paint0_radial_1_52)"/>
</g>
<path d="M25.342 34.2469C18.078 31.1379 17.223 39.9353 12.267 41.2251C15.539 44.6599 20.114 46.8185 25.206 46.9407C23.183 43.2615 23.658 38.4555 25.342 34.2469Z" fill="#1C172A"/>
<path d="M37.764 29.7254C34.234 28.5443 28.369 28.5443 27.188 34.4228C25.504 38.6315 25.043 43.4239 27.052 47.1167C27.201 47.1167 27.337 47.1438 27.487 47.1438C34.615 47.1438 40.806 43.1116 43.901 37.1924C41.254 34.5314 40.942 29.7254 37.751 29.7254H37.764Z" fill="#1C172A"/>
<path d="M29.021 17.7516C27.84 15.4029 23.142 16.5704 23.142 14.2217C24.242 9.79585 28.464 9.5379 31.899 8.54683C29.985 7.8816 27.935 7.50146 25.803 7.50146C20.739 7.50146 16.15 9.53791 12.796 12.8369C13.339 13.4615 13.774 14.1267 14.14 14.8191C17.535 18.2267 23.522 18.5254 29.007 17.738L29.021 17.7516Z" fill="#1C172A"/>
<path d="M20.169 32.0071C20.196 31.5184 20.291 31.0568 20.44 30.5952C18.906 29.1018 17.779 27.2962 17.073 25.8842C14.711 22.7345 14.453 19.0554 12.769 15.9192C12.226 15.3626 11.737 14.7381 11.33 14.0186C7.97602 17.3719 5.89905 22.0014 5.89905 27.1197C5.89905 32.2379 7.86804 36.5824 11.045 39.9085C14.887 38.9039 16.272 33.4055 20.087 32.4416C20.101 32.2922 20.128 32.1429 20.155 32.0071H20.169Z" fill="#1C172A"/>
<path d="M36.679 23.3045C36.95 23.0873 37.249 22.8972 37.575 22.7343C38.131 20.0326 41.105 18.3356 43.63 16.3399C41.566 13.1902 38.566 10.6921 34.995 9.2666C33.922 9.52455 32.795 9.71463 31.696 9.97257C29.211 10.5564 26.903 11.5203 26.007 14.5478C30.528 16.5842 34.262 19.3402 36.692 23.3045H36.679Z" fill="#1C172A"/>
<path d="M44.214 17.2764C40.725 20.2903 36.271 22.7205 39.448 28.0152V29.1964C42.639 29.1964 42.951 34.0024 45.599 36.6633C46.943 34.0974 47.717 31.1785 47.717 28.0831C47.717 24.0509 46.413 20.331 44.228 17.2899L44.214 17.2764Z" fill="#1C172A"/>
<path d="M36.163 25.4088C34.696 22.7614 32.687 20.6978 30.297 19.0415C29.578 19.218 28.845 19.2859 28.111 19.218C23.074 19.9239 17.834 19.5981 14.643 16.6113C16.435 19.6931 16.829 23.3587 19.3 26.4134C20.563 28.7214 23.034 32.1562 26.604 33.2016C27.568 27.2823 33.434 27.0787 37.005 28.124L36.964 26.9565C36.611 26.4134 36.366 25.9111 36.163 25.4223V25.4088Z" fill="#1C172A"/>
<defs>
<filter id="filter0_d_1_52" x="0" y="0" width="55.273" height="55.2712" filterUnits="userSpaceOnUse" color-interpolation-filters="sRGB">
<feFlood flood-opacity="0" result="BackgroundImageFix"/>
<feColorMatrix in="SourceAlpha" type="matrix" values="0 0 0 0 0 0 0 0 0 0 0 0 0 0 0 0 0 0 127 0" result="hardAlpha"/>
<feOffset/>
<feGaussianBlur stdDeviation="5"/>
<feColorMatrix type="matrix" values="0 0 0 0 1 0 0 0 0 0.498039 0 0 0 0 0 0 0 0 0.75 0"/>
<feBlend mode="normal" in2="BackgroundImageFix" result="effect1_dropShadow_1_52"/>
<feBlend mode="normal" in="SourceGraphic" in2="effect1_dropShadow_1_52" result="shape"/>
</filter>
<radialGradient id="paint0_radial_1_52" cx="0" cy="0" r="1" gradientUnits="userSpaceOnUse" gradientTransform="translate(27.636 27.6356) scale(17.6368 17.6356)">
<stop offset="0.8" stop-color="#EA6E17"/>
</radialGradient>
</defs>
</svg>
