<svg width="37" height="40" viewBox="0 0 37 40" fill="none" xmlns="http://www.w3.org/2000/svg">
<path d="M13.5961 37.9999C13.5961 36.3999 13.5961 34.4999 12.0961 33.9999C6.09607 32.4999 -0.903916 33.9999 0.0960696 17.9999C1.1218 1.5881 11.7647 -0.000116356 18.5961 6.39284e-09C25.0961 -6.2289e-05 35.5387 1.32092 36.5055 18.0374C37.4481 34.3343 30.8499 32.8066 25.1943 34.3344C23.7804 34.8436 23.7804 36.7789 23.7804 38.4086C23.7804 39.4856 22.3896 39.7788 20.8689 39.872C20.0887 39.9198 19.2743 39.915 18.5961 39.9365C17.9848 39.9558 17.28 39.9319 16.5961 39.8436C15.0424 39.6432 13.5961 39.1108 13.5961 37.9999Z" fill="#FFF9E8"/>
<path d="M4.67105 25.5977C3.87105 17.5977 9.67105 17.8173 12.6711 18.0977C14.939 18.3097 16.6711 22.0976 15.1711 24.0976C12.0044 27.931 5.47105 33.5977 4.67105 25.5977Z" fill="#022838"/>
<path d="M32.522 25.8259C33.3122 17.5856 27.5835 17.8118 24.6204 18.1006C22.3803 18.319 20.6695 22.2206 22.1511 24.2807C25.2789 28.2292 31.7319 34.0661 32.522 25.8259Z" fill="#022838"/>
</svg>
