<svg width="52" height="52" viewBox="0 0 52 52" fill="none" xmlns="http://www.w3.org/2000/svg">
<path d="M38.4998 26C38.4998 19.3726 32.9034 14 25.9998 14C19.0963 14 13.4998 19.3726 13.4998 26C13.4998 32.6274 19.0963 38 25.9998 38C32.9034 38 38.4998 32.6274 38.4998 26Z" fill="#FFDCAA"/>
<path d="M25.9998 52L30.763 40.75H21.2367L25.9998 52Z" fill="#FFDCAA"/>
<path d="M25.9998 0L30.763 11.25H21.2367L25.9998 0Z" fill="#FFDCAA"/>
<path d="M51.9996 26.1006L40.7681 21.294L40.7313 30.8202L51.9996 26.1006Z" fill="#FFDCAA"/>
<path d="M0 25.8995L11.2683 21.1799L11.2315 30.7061L0 25.8995Z" fill="#FFDCAA"/>
<path d="M44.1389 7.37284L32.8778 12.1096L39.7027 18.7557L44.1389 7.37284Z" fill="#FFDCAA"/>
<path d="M7.86068 44.6272L12.2969 33.2443L19.1218 39.8904L7.86068 44.6272Z" fill="#FFDCAA"/>
<path d="M44.3893 44.3802L39.7995 33.0584L33.0651 39.7962L44.3893 44.3802Z" fill="#FFDCAA"/>
<path d="M7.61035 7.61993L18.9345 12.2039L12.2001 18.9418L7.61035 7.61993Z" fill="#FFDCAA"/>
</svg>
