<svg width="737" height="764" viewBox="0 0 737 764" fill="none" xmlns="http://www.w3.org/2000/svg">
<path d="M39.9306 14.4524C43.4141 14.4524 46.2381 11.3563 46.2381 7.53721C46.2381 3.71809 43.4141 0.62207 39.9306 0.62207C36.447 0.62207 33.623 3.71809 33.623 7.53721C33.623 11.3563 36.447 14.4524 39.9306 14.4524Z" fill="#FBC587"/>
<path d="M94.9159 14.4524C98.3995 14.4524 101.223 11.3563 101.223 7.53721C101.223 3.71809 98.3995 0.62207 94.9159 0.62207C91.4324 0.62207 88.6084 3.71809 88.6084 7.53721C88.6084 11.3563 91.4324 14.4524 94.9159 14.4524Z" fill="#FBC587"/>
<path d="M39.9306 55.2824C43.4141 55.2824 46.2381 52.1864 46.2381 48.3673C46.2381 44.5482 43.4141 41.4521 39.9306 41.4521C36.447 41.4521 33.623 44.5482 33.623 48.3673C33.623 52.1864 36.447 55.2824 39.9306 55.2824Z" fill="#FBC587"/>
<path d="M94.9159 55.2824C98.3995 55.2824 101.223 52.1864 101.223 48.3673C101.223 44.5482 98.3995 41.4521 94.9159 41.4521C91.4324 41.4521 88.6084 44.5482 88.6084 48.3673C88.6084 52.1864 91.4324 55.2824 94.9159 55.2824Z" fill="#FBC587"/>
<path d="M39.9306 96.1125C43.4141 96.1125 46.2381 93.0165 46.2381 89.1974C46.2381 85.3782 43.4141 82.2822 39.9306 82.2822C36.447 82.2822 33.623 85.3782 33.623 89.1974C33.623 93.0165 36.447 96.1125 39.9306 96.1125Z" fill="#FBC587"/>
<path d="M94.9159 96.1125C98.3995 96.1125 101.223 93.0165 101.223 89.1974C101.223 85.3782 98.3995 82.2822 94.9159 82.2822C91.4324 82.2822 88.6084 85.3782 88.6084 89.1974C88.6084 93.0165 91.4324 96.1125 94.9159 96.1125Z" fill="#FBC587"/>
<path d="M39.9306 136.943C43.4141 136.943 46.2381 133.847 46.2381 130.027C46.2381 126.208 43.4141 123.112 39.9306 123.112C36.447 123.112 33.623 126.208 33.623 130.027C33.623 133.847 36.447 136.943 39.9306 136.943Z" fill="#FBC587"/>
<path d="M94.9159 136.943C98.3995 136.943 101.223 133.847 101.223 130.027C101.223 126.208 98.3995 123.112 94.9159 123.112C91.4324 123.112 88.6084 126.208 88.6084 130.027C88.6084 133.847 91.4324 136.943 94.9159 136.943Z" fill="#FBC587"/>
<path d="M39.9306 177.773C43.4141 177.773 46.2381 174.677 46.2381 170.858C46.2381 167.038 43.4141 163.942 39.9306 163.942C36.447 163.942 33.623 167.038 33.623 170.858C33.623 174.677 36.447 177.773 39.9306 177.773Z" fill="#FBC587"/>
<path d="M94.9159 177.773C98.3995 177.773 101.223 174.677 101.223 170.858C101.223 167.038 98.3995 163.942 94.9159 163.942C91.4324 163.942 88.6084 167.038 88.6084 170.858C88.6084 174.677 91.4324 177.773 94.9159 177.773Z" fill="#FBC587"/>
<path d="M39.9306 218.603C43.4141 218.603 46.2381 215.507 46.2381 211.688C46.2381 207.868 43.4141 204.772 39.9306 204.772C36.447 204.772 33.623 207.868 33.623 211.688C33.623 215.507 36.447 218.603 39.9306 218.603Z" fill="#FBC587"/>
<path d="M94.9159 218.603C98.3995 218.603 101.223 215.507 101.223 211.688C101.223 207.868 98.3995 204.772 94.9159 204.772C91.4324 204.772 88.6084 207.868 88.6084 211.688C88.6084 215.507 91.4324 218.603 94.9159 218.603Z" fill="#FBC587"/>
<path d="M39.9306 259.433C43.4141 259.433 46.2381 256.337 46.2381 252.518C46.2381 248.699 43.4141 245.603 39.9306 245.603C36.447 245.603 33.623 248.699 33.623 252.518C33.623 256.337 36.447 259.433 39.9306 259.433Z" fill="#FBC587"/>
<path d="M94.9159 259.433C98.3995 259.433 101.223 256.337 101.223 252.518C101.223 248.699 98.3995 245.603 94.9159 245.603C91.4324 245.603 88.6084 248.699 88.6084 252.518C88.6084 256.337 91.4324 259.433 94.9159 259.433Z" fill="#FBC587"/>
<path d="M39.9306 300.263C43.4141 300.263 46.2381 297.167 46.2381 293.348C46.2381 289.529 43.4141 286.433 39.9306 286.433C36.447 286.433 33.623 289.529 33.623 293.348C33.623 297.167 36.447 300.263 39.9306 300.263Z" fill="#FBC587"/>
<path d="M94.9159 300.263C98.3995 300.263 101.223 297.167 101.223 293.348C101.223 289.529 98.3995 286.433 94.9159 286.433C91.4324 286.433 88.6084 289.529 88.6084 293.348C88.6084 297.167 91.4324 300.263 94.9159 300.263Z" fill="#FBC587"/>
<path d="M39.9306 341.093C43.4141 341.093 46.2381 337.997 46.2381 334.178C46.2381 330.359 43.4141 327.263 39.9306 327.263C36.447 327.263 33.623 330.359 33.623 334.178C33.623 337.997 36.447 341.093 39.9306 341.093Z" fill="#FBC587"/>
<path d="M94.9159 341.093C98.3995 341.093 101.223 337.997 101.223 334.178C101.223 330.359 98.3995 327.263 94.9159 327.263C91.4324 327.263 88.6084 330.359 88.6084 334.178C88.6084 337.997 91.4324 341.093 94.9159 341.093Z" fill="#FBC587"/>
<path d="M-143 644H222.22H-143Z" stroke="#95D8D2" stroke-width="7.17359" stroke-miterlimit="10"/>
<path d="M736.441 729.994H706V763.367H736.441V729.994Z" fill="#FBA036"/>
<path d="M704.882 696.683H674.441V730.056H704.882V696.683Z" fill="#68C8BF"/>
</svg>
