<svg width="264" height="423" viewBox="0 0 264 423" fill="none" xmlns="http://www.w3.org/2000/svg">
<path d="M6.30755 14.7443C9.79111 14.7443 12.6151 11.6483 12.6151 7.8292C12.6151 4.01008 9.79111 0.914062 6.30755 0.914062C2.82399 0.914062 0 4.01008 0 7.8292C0 11.6483 2.82399 14.7443 6.30755 14.7443Z" fill="#FBC587"/>
<path d="M61.2245 14.7443C64.7081 14.7443 67.5321 11.6483 67.5321 7.8292C67.5321 4.01008 64.7081 0.914062 61.2245 0.914062C57.741 0.914062 54.917 4.01008 54.917 7.8292C54.917 11.6483 57.741 14.7443 61.2245 14.7443Z" fill="#FBC587"/>
<path d="M116.21 14.7443C119.693 14.7443 122.517 11.6483 122.517 7.8292C122.517 4.01008 119.693 0.914062 116.21 0.914062C112.726 0.914062 109.902 4.01008 109.902 7.8292C109.902 11.6483 112.726 14.7443 116.21 14.7443Z" fill="#FBC587"/>
<path d="M171.126 14.7443C174.61 14.7443 177.434 11.6483 177.434 7.8292C177.434 4.01008 174.61 0.914062 171.126 0.914062C167.643 0.914062 164.819 4.01008 164.819 7.8292C164.819 11.6483 167.643 14.7443 171.126 14.7443Z" fill="#FBC587"/>
<path d="M226.112 14.7443C229.595 14.7443 232.419 11.6483 232.419 7.8292C232.419 4.01008 229.595 0.914062 226.112 0.914062C222.628 0.914062 219.804 4.01008 219.804 7.8292C219.804 11.6483 222.628 14.7443 226.112 14.7443Z" fill="#FBC587"/>
<path d="M6.30755 75.026C9.79111 75.026 12.6151 71.9301 12.6151 68.1109C12.6151 64.2918 9.79111 61.1958 6.30755 61.1958C2.82399 61.1958 0 64.2918 0 68.1109C0 71.9301 2.82399 75.026 6.30755 75.026Z" fill="#FBC587"/>
<path d="M61.2245 75.026C64.7081 75.026 67.5321 71.9301 67.5321 68.1109C67.5321 64.2918 64.7081 61.1958 61.2245 61.1958C57.741 61.1958 54.917 64.2918 54.917 68.1109C54.917 71.9301 57.741 75.026 61.2245 75.026Z" fill="#FBC587"/>
<path d="M116.21 75.026C119.693 75.026 122.517 71.9301 122.517 68.1109C122.517 64.2918 119.693 61.1958 116.21 61.1958C112.726 61.1958 109.902 64.2918 109.902 68.1109C109.902 71.9301 112.726 75.026 116.21 75.026Z" fill="#FBC587"/>
<path d="M171.126 75.026C174.61 75.026 177.434 71.9301 177.434 68.1109C177.434 64.2918 174.61 61.1958 171.126 61.1958C167.643 61.1958 164.819 64.2918 164.819 68.1109C164.819 71.9301 167.643 75.026 171.126 75.026Z" fill="#FBC587"/>
<path d="M226.112 75.026C229.595 75.026 232.419 71.9301 232.419 68.1109C232.419 64.2918 229.595 61.1958 226.112 61.1958C222.628 61.1958 219.804 64.2918 219.804 68.1109C219.804 71.9301 222.628 75.026 226.112 75.026Z" fill="#FBC587"/>
<path d="M6.30755 135.233C9.79111 135.233 12.6151 132.137 12.6151 128.318C12.6151 124.499 9.79111 121.403 6.30755 121.403C2.82399 121.403 0 124.499 0 128.318C0 132.137 2.82399 135.233 6.30755 135.233Z" fill="#FBC587"/>
<path d="M61.2245 135.233C64.7081 135.233 67.5321 132.137 67.5321 128.318C67.5321 124.499 64.7081 121.403 61.2245 121.403C57.741 121.403 54.917 124.499 54.917 128.318C54.917 132.137 57.741 135.233 61.2245 135.233Z" fill="#FBC587"/>
<path d="M116.21 135.233C119.693 135.233 122.517 132.137 122.517 128.318C122.517 124.499 119.693 121.403 116.21 121.403C112.726 121.403 109.902 124.499 109.902 128.318C109.902 132.137 112.726 135.233 116.21 135.233Z" fill="#FBC587"/>
<path d="M171.126 135.233C174.61 135.233 177.434 132.137 177.434 128.318C177.434 124.499 174.61 121.403 171.126 121.403C167.643 121.403 164.819 124.499 164.819 128.318C164.819 132.137 167.643 135.233 171.126 135.233Z" fill="#FBC587"/>
<path d="M226.112 135.233C229.595 135.233 232.419 132.137 232.419 128.318C232.419 124.499 229.595 121.403 226.112 121.403C222.628 121.403 219.804 124.499 219.804 128.318C219.804 132.137 222.628 135.233 226.112 135.233Z" fill="#FBC587"/>
<path d="M6.30755 195.515C9.79111 195.515 12.6151 192.419 12.6151 188.6C12.6151 184.781 9.79111 181.685 6.30755 181.685C2.82399 181.685 0 184.781 0 188.6C0 192.419 2.82399 195.515 6.30755 195.515Z" fill="#FBC587"/>
<path d="M61.2245 195.515C64.7081 195.515 67.5321 192.419 67.5321 188.6C67.5321 184.781 64.7081 181.685 61.2245 181.685C57.741 181.685 54.917 184.781 54.917 188.6C54.917 192.419 57.741 195.515 61.2245 195.515Z" fill="#FBC587"/>
<path d="M116.21 195.515C119.693 195.515 122.517 192.419 122.517 188.6C122.517 184.781 119.693 181.685 116.21 181.685C112.726 181.685 109.902 184.781 109.902 188.6C109.902 192.419 112.726 195.515 116.21 195.515Z" fill="#FBC587"/>
<path d="M171.126 195.515C174.61 195.515 177.434 192.419 177.434 188.6C177.434 184.781 174.61 181.685 171.126 181.685C167.643 181.685 164.819 184.781 164.819 188.6C164.819 192.419 167.643 195.515 171.126 195.515Z" fill="#FBC587"/>
<path d="M226.112 195.515C229.595 195.515 232.419 192.419 232.419 188.6C232.419 184.781 229.595 181.685 226.112 181.685C222.628 181.685 219.804 184.781 219.804 188.6C219.804 192.419 222.628 195.515 226.112 195.515Z" fill="#FBC587"/>
<path d="M6.30755 255.721C9.79111 255.721 12.6151 252.625 12.6151 248.806C12.6151 244.987 9.79111 241.891 6.30755 241.891C2.82399 241.891 0 244.987 0 248.806C0 252.625 2.82399 255.721 6.30755 255.721Z" fill="#FBC587"/>
<path d="M61.2245 255.721C64.7081 255.721 67.5321 252.625 67.5321 248.806C67.5321 244.987 64.7081 241.891 61.2245 241.891C57.741 241.891 54.917 244.987 54.917 248.806C54.917 252.625 57.741 255.721 61.2245 255.721Z" fill="#FBC587"/>
<path d="M116.21 255.721C119.693 255.721 122.517 252.625 122.517 248.806C122.517 244.987 119.693 241.891 116.21 241.891C112.726 241.891 109.902 244.987 109.902 248.806C109.902 252.625 112.726 255.721 116.21 255.721Z" fill="#FBC587"/>
<path d="M171.126 255.721C174.61 255.721 177.434 252.625 177.434 248.806C177.434 244.987 174.61 241.891 171.126 241.891C167.643 241.891 164.819 244.987 164.819 248.806C164.819 252.625 167.643 255.721 171.126 255.721Z" fill="#FBC587"/>
<path d="M226.112 255.721C229.595 255.721 232.419 252.625 232.419 248.806C232.419 244.987 229.595 241.891 226.112 241.891C222.628 241.891 219.804 244.987 219.804 248.806C219.804 252.625 222.628 255.721 226.112 255.721Z" fill="#FBC587"/>
<path d="M6.30755 316.004C9.79111 316.004 12.6151 312.908 12.6151 309.088C12.6151 305.269 9.79111 302.173 6.30755 302.173C2.82399 302.173 0 305.269 0 309.088C0 312.908 2.82399 316.004 6.30755 316.004Z" fill="#FBC587"/>
<path d="M61.2245 316.004C64.7081 316.004 67.5321 312.908 67.5321 309.088C67.5321 305.269 64.7081 302.173 61.2245 302.173C57.741 302.173 54.917 305.269 54.917 309.088C54.917 312.908 57.741 316.004 61.2245 316.004Z" fill="#FBC587"/>
<path d="M116.21 316.004C119.693 316.004 122.517 312.908 122.517 309.088C122.517 305.269 119.693 302.173 116.21 302.173C112.726 302.173 109.902 305.269 109.902 309.088C109.902 312.908 112.726 316.004 116.21 316.004Z" fill="#FBC587"/>
<path d="M171.126 316.004C174.61 316.004 177.434 312.908 177.434 309.088C177.434 305.269 174.61 302.173 171.126 302.173C167.643 302.173 164.819 305.269 164.819 309.088C164.819 312.908 167.643 316.004 171.126 316.004Z" fill="#FBC587"/>
<path d="M226.112 316.004C229.595 316.004 232.419 312.908 232.419 309.088C232.419 305.269 229.595 302.173 226.112 302.173C222.628 302.173 219.804 305.269 219.804 309.088C219.804 312.908 222.628 316.004 226.112 316.004Z" fill="#FBC587"/>
<path d="M6.30755 376.21C9.79111 376.21 12.6151 373.114 12.6151 369.295C12.6151 365.476 9.79111 362.38 6.30755 362.38C2.82399 362.38 0 365.476 0 369.295C0 373.114 2.82399 376.21 6.30755 376.21Z" fill="#FBC587"/>
<path d="M61.2245 376.21C64.7081 376.21 67.5321 373.114 67.5321 369.295C67.5321 365.476 64.7081 362.38 61.2245 362.38C57.741 362.38 54.917 365.476 54.917 369.295C54.917 373.114 57.741 376.21 61.2245 376.21Z" fill="#FBC587"/>
<path d="M116.21 376.21C119.693 376.21 122.517 373.114 122.517 369.295C122.517 365.476 119.693 362.38 116.21 362.38C112.726 362.38 109.902 365.476 109.902 369.295C109.902 373.114 112.726 376.21 116.21 376.21Z" fill="#FBC587"/>
<path d="M171.126 376.21C174.61 376.21 177.434 373.114 177.434 369.295C177.434 365.476 174.61 362.38 171.126 362.38C167.643 362.38 164.819 365.476 164.819 369.295C164.819 373.114 167.643 376.21 171.126 376.21Z" fill="#FBC587"/>
<path d="M226.112 376.21C229.595 376.21 232.419 373.114 232.419 369.295C232.419 365.476 229.595 362.38 226.112 362.38C222.628 362.38 219.804 365.476 219.804 369.295C219.804 373.114 222.628 376.21 226.112 376.21Z" fill="#FBC587"/>
<path d="M6.30755 436.492C9.79111 436.492 12.6151 433.396 12.6151 429.577C12.6151 425.758 9.79111 422.662 6.30755 422.662C2.82399 422.662 0 425.758 0 429.577C0 433.396 2.82399 436.492 6.30755 436.492Z" fill="#FBC587"/>
<path d="M61.2245 436.492C64.7081 436.492 67.5321 433.396 67.5321 429.577C67.5321 425.758 64.7081 422.662 61.2245 422.662C57.741 422.662 54.917 425.758 54.917 429.577C54.917 433.396 57.741 436.492 61.2245 436.492Z" fill="#FBC587"/>
<path d="M116.21 436.492C119.693 436.492 122.517 433.396 122.517 429.577C122.517 425.758 119.693 422.662 116.21 422.662C112.726 422.662 109.902 425.758 109.902 429.577C109.902 433.396 112.726 436.492 116.21 436.492Z" fill="#FBC587"/>
<path d="M171.126 436.492C174.61 436.492 177.434 433.396 177.434 429.577C177.434 425.758 174.61 422.662 171.126 422.662C167.643 422.662 164.819 425.758 164.819 429.577C164.819 433.396 167.643 436.492 171.126 436.492Z" fill="#FBC587"/>
<path d="M226.112 436.492C229.595 436.492 232.419 433.396 232.419 429.577C232.419 425.758 229.595 422.662 226.112 422.662C222.628 422.662 219.804 425.758 219.804 429.577C219.804 433.396 222.628 436.492 226.112 436.492Z" fill="#FBC587"/>
</svg>
