<svg width="1280" height="611" viewBox="0 0 1280 611" fill="none" xmlns="http://www.w3.org/2000/svg">
<path d="M391.138 3.71437C478.452 -0.697847 524.811 49.6749 537.077 75.4129C546.556 25.224 601.315 36.8059 606.305 58.1776C680.147 -37.7882 751.827 6.24216 778.437 40.2531C874.393 -21.5421 972.152 29.3421 977.141 92.3081C1004.07 77.8181 1016.11 108.868 1008.57 115.399C1152.76 74.0341 1187.56 150.559 1186.94 193.991C1300.2 186.821 1333.57 313.8 1298.58 357.27C1318.79 347.886 1369 391.163 1369 460.103C1348.17 587.623 1155.9 659.678 1059.98 573.166C1066.22 583.278 998.624 609.963 948.73 609.963C891.298 609.963 821.89 609.963 778.437 573.166C763.076 609.963 689.38 609.963 670.248 573.166C603.377 615.978 369.406 583.566 330.892 529.044C323.616 542.143 291.642 553.921 254.363 553.921C207.96 553.921 179.923 530.423 171.607 516.635C64.8348 551.381 14.4422 493.425 2.59248 460.103C-76.5557 460.103 -85.76 397.716 -67.8813 357.96C-95.6878 338.64 -81.5171 290.339 -54.5906 290.339C-67.8813 166.415 30.2416 151.248 81.7982 166.415C83.794 127.257 117.971 110.113 134.81 106.436C134.81 92.6482 141.671 51.2836 190.317 31.9802C229.234 16.5374 260.583 46.228 271.394 63.0036C274.928 45.0789 303.825 8.12659 391.138 3.71437Z" fill="white"/>
<path opacity="0.4" fill-rule="evenodd" clip-rule="evenodd" d="M-23.6411 286.511C-2.99506 278.215 16.8409 270.244 61.6016 273.303C108.847 276.532 125.721 292.869 135.203 302.049C137.789 304.553 139.825 306.525 141.778 307.552C143.238 308.321 146.041 309.371 149.685 310.737C168.777 317.891 210.971 333.701 204.34 363.036C196.444 397.97 216.488 450.714 259.006 437.014C293.02 426.054 336.348 426.511 353.76 428.109C357.405 426.283 361.397 424.219 365.673 422.008C391.333 408.742 427.255 390.17 460.055 385.64C472.523 383.919 491.813 385.683 511.228 387.459C538.156 389.922 565.323 392.407 574.853 385.64C577.025 384.098 579.538 382.135 582.406 379.895C601.193 365.222 635.214 338.649 688.436 340.431C729.857 341.819 759.094 365.377 780.261 382.432C790.444 390.637 798.759 397.338 805.664 399.34C810.805 400.831 816.408 403.804 823.289 407.455C844.861 418.902 878.993 437.014 950.832 437.014C1026.64 437.014 1058.95 387.695 1065.63 363.036C1070.89 323.992 1090.78 249.192 1128.19 262.343C1160.61 273.737 1179.02 262.757 1192.12 254.943C1197.92 251.483 1202.68 248.644 1207.15 248.644C1208.53 248.644 1210.26 248.57 1212.29 248.484C1231.74 247.659 1278.72 245.666 1306.77 295.907C1312.5 306.182 1313.45 340.294 1298.87 356.186C1315.07 353.446 1350.14 362.762 1365.68 432.904C1368.11 439.297 1371.52 460.44 1365.68 477.428C1358.4 498.663 1328.03 563.736 1246.03 595.93C1164.03 628.124 1086.28 601.41 1061.99 574.696C1032.83 596.615 1006.71 612.437 914.996 610.315C820.241 608.123 785.215 584.742 778.938 573.326C776.306 582.687 760.352 601.41 722.451 601.41C695.724 601.41 671.834 582.687 670.214 573.326C654.017 583.829 597.084 601.684 498.928 589.08C376.234 573.326 340.395 543.871 330.679 528.802C326.425 539.077 300.552 556.338 240.784 554.146C224.992 552.776 183.686 541.817 171.541 516.472C131.655 532.227 39.734 544.556 1.46918 460.303C-14.4066 461.136 -37.9786 458.202 -54.6151 443.864C-74.4715 426.751 -84.9636 395.139 -67.7742 358.241C-63.3195 352.304 -52.2238 340.431 -38.6191 340.431C-21.6132 340.431 -28.2945 324.677 -33.1537 313.717C-40.1388 297.962 -41.0499 293.427 -28.2945 288.373C-26.7317 287.753 -25.1842 287.131 -23.6411 286.511ZM6.93422 363.721C5.96239 376.872 13.4131 375.137 17.26 372.626C20.904 369.657 31.7149 362.762 45.8065 358.926C63.4211 354.131 84.0726 356.871 109.583 368.516C130.974 378.28 127.169 387.562 125.382 391.921C125.038 392.761 124.768 393.418 124.768 393.86C124.768 394.755 124.185 395.138 123.4 395.655C121.78 396.719 119.302 398.348 119.302 406.19C119.302 415.505 124.161 416.008 126.59 415.094C134.851 413.451 141.37 416.693 143.598 418.519C144.9 419.463 146.195 420.415 147.477 421.358L147.489 421.367L147.492 421.369L147.494 421.371C162.955 432.737 176.584 442.758 178.827 421.259C181.256 397.97 156.96 397.97 149.064 401.395C141.168 404.82 138.738 396.6 141.168 396.6C143.598 396.6 148.457 382.215 136.916 363.721C125.376 345.226 96.2206 328.787 63.4211 328.787C30.6216 328.787 8.14902 347.281 6.93422 363.721ZM589.428 451.399C585.54 448.659 593.477 439.297 597.931 434.959C594.286 426.054 599.755 421.259 610.08 418.519C618.313 416.335 627.703 418.069 637.636 419.903L637.637 419.903L637.637 419.904L637.638 419.904C640.163 420.37 642.724 420.843 645.309 421.259C658.065 423.314 664.139 417.149 652.598 404.135C641.058 391.12 654.42 375.365 691.472 368.516C728.523 361.666 744.315 399.34 746.745 407.56C748.689 414.135 751.199 414.866 752.211 414.409C773.47 404.82 783.796 415.094 786.833 423.999C789.263 431.123 793.11 432.904 794.729 432.904C805.375 430.903 813.142 441.892 815.786 445.632C815.857 445.733 815.924 445.829 815.988 445.919C818.418 449.344 819.025 454.823 817.203 456.193C815.745 457.289 814.166 455.737 813.559 454.823C808.868 445.566 800.215 444.607 794.157 443.935C793.939 443.911 793.725 443.887 793.514 443.864C789.687 443.432 788.754 440.281 787.979 437.666C787.524 436.131 787.124 434.781 786.226 434.274C784.282 433.178 775.293 429.251 771.041 427.424C760.595 425.741 750.15 431.868 743.707 435.646L743.706 435.647L743.704 435.648L743.702 435.649C742.28 436.484 741.052 437.203 740.063 437.699C734.597 440.439 713.945 438.384 698.153 434.959C692.247 433.678 686.765 430.385 681.931 427.481C673.839 422.62 667.561 418.848 664.139 427.424C659.765 438.384 648.144 439.297 642.88 438.384C633.711 437.399 629.563 440.308 622.767 445.075C620.109 446.939 617.045 449.088 613.117 451.399C600.059 459.082 594.96 455.394 590.382 452.083L590.381 452.082C590.061 451.851 589.744 451.622 589.428 451.399ZM1112.4 455.508C1097.82 464.185 1065.14 476.332 1051.05 455.508C1049.03 449.8 1050.08 436.74 1070.49 430.164C1084.24 425.732 1093.76 428.071 1101.99 430.094C1109.02 431.823 1115.12 433.32 1122.12 430.164C1124.55 429.479 1128.43 426.054 1124.55 417.834C1119.69 407.56 1133.66 398.655 1139.12 400.025C1139.6 400.145 1140.11 400.285 1140.63 400.431C1146.11 401.956 1153.7 404.067 1153.7 389.065C1153.7 372.626 1174.35 359.611 1189.54 357.556C1189.97 357.498 1190.39 357.439 1190.82 357.381C1205.65 355.36 1221.6 353.186 1238.13 367.831C1241.98 372.626 1250.52 383.585 1253.92 389.065C1255.47 391.558 1257.9 393.778 1260.25 395.925C1264.36 399.677 1268.22 403.202 1266.68 407.56C1264.25 414.41 1251.49 410.3 1246.02 403.45C1244.86 401.985 1243.82 399.61 1242.61 396.817C1238.16 386.55 1231.24 370.618 1205.94 373.31C1174.67 376.637 1171.48 395.474 1170.76 399.69L1170.74 399.809C1170.73 399.887 1170.72 399.959 1170.71 400.025C1170.65 400.374 1170.6 400.772 1170.54 401.208C1170.07 405.06 1169.22 411.879 1156.13 413.725C1141.55 415.779 1137.91 417.149 1136.69 430.164C1135.72 440.576 1120.09 451.399 1112.4 455.508Z" fill="#AFF5FA"/>
</svg>
