<svg width="1280" height="2888" viewBox="0 0 1280 2888" fill="none" xmlns="http://www.w3.org/2000/svg">
<path d="M-69.418 581.72H1281.69V2952.09H-69.418V581.72Z" fill="url(#paint0_linear_194_380)"/>
<path d="M428.605 620.619C-30.1308 652.83 1221.24 50.1429 1481.37 0.978516L1682.96 652.83H707.251C709.342 611.86 589.515 609.321 428.605 620.619Z" fill="#343F3F"/>
<path d="M-490.861 217.45C-369.286 181.329 -468.851 239.461 41.6253 274.169C241.074 287.73 608.316 526.301 686.705 589.936C729.835 604.714 766.009 610.542 789.056 612.535C822.099 615.392 828.16 610.367 789.056 612.535C755.697 614.384 689.469 621.469 579.082 643.149C249.045 707.967 99.3736 657.738 65.7922 624.521L-490.861 217.45Z" fill="#273232"/>
<path opacity="0.5" d="M275.855 1081.81L225.322 1101.76L188.939 1125.5L199.979 1167.17L189.667 1204.64L213.99 1220.71L259.529 1253.95L296.119 1214.74L300.545 1168.07L390.236 1126.22L330.727 1087.01L275.855 1081.81Z" fill="#4E6060"/>
<path opacity="0.5" d="M889.91 872.606L839.376 892.557L802.994 916.303L814.034 957.97L803.721 995.44L828.044 1011.51L873.584 1044.75L910.174 1005.54L914.6 958.865L1004.29 917.017L944.782 877.81L889.91 872.606Z" fill="#4E6060"/>
<path opacity="0.5" d="M1327.24 1089.5L1306.29 1039.37L1281.83 1003.46L1240.39 1015.33L1202.72 1005.76L1187.13 1030.4L1154.8 1076.58L1194.73 1112.39L1241.48 1115.89L1285.1 1204.74L1323.12 1144.46L1327.24 1089.5Z" fill="#4E6060"/>
<path opacity="0.5" d="M1212.29 1739.46L1239.45 1728.86L1259.03 1716.19L1253.19 1693.81L1258.8 1673.72L1245.78 1665.04L1221.41 1647.11L1201.69 1668.07L1199.22 1693.11L1150.99 1715.39L1182.85 1736.55L1212.29 1739.46Z" fill="#273232"/>
<path opacity="0.5" d="M121.111 1164.69L79.2847 1188.93L78.7738 1222.64L110.368 1233.62L129.997 1256.51L150.888 1247.84L152.62 1229.69L164.647 1210.46L180.539 1174.08L152.526 1125.74L121.111 1164.69Z" fill="#4E6060"/>
<path opacity="0.5" d="M96.7174 1391.89L81.4911 1429.67L44.2287 1433.23L29.0643 1465.37L54.6195 1489.66L63.5001 1520.19L87.3339 1520.95L96.8965 1504.29L116.816 1491.06L147.912 1463.05L142.057 1404.44L96.7174 1391.89Z" fill="#4E6060"/>
<path opacity="0.5" d="M362.965 980.896L344.039 989.468L329.042 977.655L312.128 984.169L312.996 1002.13L305.52 1016.52L314.041 1025.19L323.439 1022.42L335.446 1024.55L356.782 1025.17L375.264 1001.5L362.965 980.896Z" fill="#273232"/>
<path opacity="0.5" d="M559.484 1779.68L532.17 1783.5L517.501 1762.83L493.52 1764.79L487.892 1787.98L472.978 1803.5L480.576 1817.75L493.586 1817.73L508.075 1824.95L535.011 1833.74L567.423 1810.52L559.484 1779.68Z" fill="#273232"/>
<path opacity="0.5" d="M1182.67 1637.21L1198.83 1614.93L1223.83 1618.68L1239.02 1600.09L1226.24 1580L1225.41 1558.54L1209.91 1554.14L1200.92 1563.5L1185.7 1568.92L1160.74 1582.2L1155.01 1621.57L1182.67 1637.21Z" fill="#273232"/>
<path d="M1125.24 961.387L1149.7 959.873L1125.18 958.24C1115.98 949.292 1097.24 931.169 1095.92 930.259C1094.28 929.121 1068.27 923.511 1063.84 922.033C1060.3 920.851 1046.19 908.478 1039.57 902.439L1044.49 909.505L1061.27 923.827L1094.42 933.589L1125.24 961.387Z" fill="#232A2A"/>
<path d="M136.459 1519.78C176.945 1480.51 219.099 1471.73 243.153 1471.73C243.153 1482.36 243.153 1480.51 223.624 1493.91C208.001 1504.63 190.124 1527.79 183.138 1538.03C164.8 1576.6 202.19 1550.73 219.099 1531.56C231.023 1518.04 263.013 1504.51 280.306 1510.31C284.196 1502.07 294.643 1484.58 305.313 1480.51C328.349 1471.73 366.519 1467.11 358.422 1471.73C350.324 1476.35 300.311 1500.84 300.311 1510.31C300.311 1519.78 308.885 1519.78 305.313 1524.63C301.74 1529.48 280.782 1534.56 239.819 1566.67C207.049 1592.36 209.97 1603.24 215.527 1605.48C245.059 1596.05 233.23 1616.33 223.624 1627.65C201.238 1642.44 213.384 1660.45 236.961 1637.59C255.823 1619.29 316.903 1580.99 345.085 1564.13C380.332 1549.27 463.402 1517.47 513.701 1509.15C563.999 1500.84 585.783 1505.69 590.387 1509.15C580.289 1508.6 540.454 1517.55 521.798 1522.09C484.264 1535.95 484.725 1542.03 489.647 1543.34C534.658 1536.41 515.606 1541.49 489.647 1558.35C468.879 1571.85 483.375 1571.52 493.219 1569.67C553.949 1556.74 639.21 1544.96 733.282 1552.81C827.354 1560.66 894.276 1577.07 931.191 1603.86C960.723 1625.3 1008.75 1638.82 1029.07 1642.9C1035.55 1633.29 993.668 1598.7 971.916 1582.61C935.478 1561.74 857.076 1520.01 834.975 1520.01C812.874 1520.01 807.667 1516.47 807.825 1514.7C818.495 1505.27 894.515 1514.31 931.191 1520.01C906.423 1508.92 896.896 1497.83 900.23 1494.14C903.565 1490.44 920.236 1486.75 991.683 1520.01C1063.13 1553.27 1090.52 1579.84 1089.09 1582.61C1087.66 1585.38 1080.04 1585.61 1053.37 1571.98C1032.03 1561.08 1037.17 1574.52 1042.41 1582.61C1104.09 1639.9 1110.52 1670.85 1103.38 1675.24C1096.23 1679.63 1084.09 1675.24 1069.08 1670.85C1057.08 1667.34 1059.48 1672.31 1062.18 1675.24C1103.46 1699.95 1193.07 1756.13 1221.27 1783.11C1256.51 1816.84 1317.48 1925.17 1312.01 1917.32C1306.53 1909.46 1282.77 1873.02 1276.28 1886.13C1265.8 1907.3 1311.05 1886.13 1312.01 2073.93C1312.3 2131.35 1327.01 2121.98 1332.01 2110.2C1333.34 2092.09 1319.15 2020.46 1332.01 2020.46C1367.97 2042.63 1365.46 2125.59 1372.42 2103.08C1379.7 2079.56 1380.5 2054.59 1395.77 2081.98C1404.82 2098.22 1402.96 2162.35 1395.77 2198.27C1392.29 2215.66 1382.03 2248.62 1380.5 2252.61C1377.79 2259.67 1368.36 2266.7 1364.79 2252.61C1361.22 2238.51 1370.06 2207.21 1358.95 2216.23C1354.49 2219.86 1350.35 2240.71 1348.92 2249.72C1345.11 2273.71 1324.39 2314.86 1322.48 2309.54C1320.58 2304.23 1317.72 2299.15 1319.15 2288.06C1320.58 2276.97 1316.77 2275.13 1311.05 2277.9C1306.48 2280.12 1285.33 2359.21 1265.8 2393.86C1250.08 2421.27 1221.03 2477.01 1230.56 2480.71C1242.46 2485.33 1273.9 2448.83 1278.66 2457.15C1282.47 2463.8 1277.08 2477.17 1273.9 2483.02C1261.33 2491.89 1263.26 2498.11 1265.8 2500.11C1275.33 2494.2 1282 2491.8 1285.33 2497.8C1288.67 2503.81 1237.67 2587.52 1235.39 2598.98C1232.53 2613.3 1218.65 2616.07 1233.89 2586.97C1249.13 2557.86 1248.72 2539.59 1238.18 2536.61C1226.74 2533.38 1213.88 2560.17 1203.41 2554.63C1192.93 2549.08 1207.69 2524.6 1201.02 2523.68C1178.37 2520.54 1195.31 2571.27 1089.09 2643.34C1053.32 2667.61 1010.43 2688.53 888.014 2698.23C765.601 2707.93 768.624 2752.36 861.268 2752.36C953.911 2752.36 830.784 2793.02 743.142 2773.62C646.481 2752.22 593.721 2760.68 593.721 2739.43C593.721 2725.57 788.773 2701.37 673.753 2701.37C558.734 2701.37 436.673 2640.11 363.034 2622.15C281.762 2622.15 473.746 2680.3 480.931 2686.76C489.189 2694.2 410.908 2676.95 402.815 2686.76C395.194 2696 425.897 2728.12 480.931 2739.43C457.115 2745.9 388.573 2728.27 358.088 2722.72C339.908 2719.42 231.571 2691.24 236.118 2676.6C240.738 2661.72 323.881 2679.28 327.596 2670.13C332.502 2658.05 296.478 2670.13 236.118 2632.25C209.126 2615.31 175.136 2571.52 175.136 2584.2C175.136 2595.29 175.136 2605.99 187.918 2625.32C165.817 2621.62 117.343 2574.04 99.8784 2557.41C69.3942 2524.76 6.90161 2460.21 0.804817 2463.16C-6.81617 2466.86 8.4258 2502.89 0.804817 2504.74C-5.29197 2506.22 -11.2619 2496.73 -13.4847 2491.8C-17.2953 2501.41 -5.54609 2530.3 0.804817 2543.55C-97.5067 2398.67 -95.4109 2326.11 -82.0741 2307.93C-62.2593 2379.63 -24.9162 2421.58 -8.72149 2433.59C-16.3425 2406.8 -2.05308 2387.4 31.289 2424.35C57.9627 2453.92 74.7925 2455.15 79.8732 2452.07C79.1111 2438.03 47.1662 2388.32 31.289 2365.22L23.668 2371.69C9.06094 2352.9 -22.6299 2297.4 -32.5373 2225.7C-42.4446 2154 -28.4092 2150.24 -20.1531 2157.33C0.423714 2195.02 5.56795 2195.21 5.56797 2190.59C-12.532 2115.75 5.9484 2065.85 4.04314 2036.28C2.51894 2012.63 -7.38843 2026.42 -12.1516 2036.28C-28.3463 2039.98 -12.1516 1971.6 -19.7727 1970.68C-27.3937 1969.75 -35.9674 1993.78 -37.8726 2019.65C-39.3968 2040.35 -48.6691 2052.91 -53.1147 2056.61C-86.4568 2045.52 -43.5884 1927.25 -19.7727 1893.99C-0.720039 1867.38 0.23259 1882.9 -1.67268 1893.99C-29.8705 1939.82 -13.4218 1935.26 -1.67268 1927.25C26.9063 1858.88 111.69 1788.66 120.264 1781.26C127.123 1775.35 137.094 1765.86 141.222 1761.86C185.424 1742.64 179.962 1733.52 171.706 1731.37C128.838 1740.61 100.259 1774.8 91.6852 1768.33C84.8262 1763.15 118.676 1735.37 136.459 1722.13C143.318 1710.3 162.815 1696.26 171.706 1690.71C196.475 1650.06 171.706 1653.76 163.132 1654.68C154.559 1655.6 120.264 1685.17 111.69 1679.63C104.831 1675.19 119.629 1648.21 127.885 1635.28C119.311 1635.28 45.9589 1707.35 38.3378 1705.5C32.241 1704.02 35.7975 1698.72 38.3378 1696.26C38.9729 1692.56 33.003 1694.41 4.04305 1731.37C-24.9169 1768.33 -24.5358 1768.33 -30.2516 1761.86C-30.2516 1696.26 113.596 1541.95 136.459 1519.78Z" fill="url(#paint1_radial_194_380)"/>
<path d="M1221.27 1520.01C1238.6 1532.76 1239.45 1543.65 1237.7 1547.5C1206.83 1534.93 1195.63 1520.4 1193.88 1514.7C1195.78 1511.16 1203.93 1507.26 1221.27 1520.01Z" fill="url(#paint2_radial_194_380)"/>
<path d="M788.773 1400.36C824.734 1400.36 834.117 1406.26 868.555 1411.21C913.567 1417.68 954.054 1442.86 943.813 1451.87C931.191 1451.87 888.799 1433.16 861.887 1433.16C855.219 1433.16 910.233 1451.87 900.23 1463.65C873.636 1457.8 767.005 1435.84 724.708 1442.86C708.14 1435.55 727.56 1417.73 807.49 1417.68C793.807 1417.54 753.107 1400.36 788.773 1400.36Z" fill="url(#paint3_radial_194_380)"/>
<path d="M-73.0241 2553.71C-66.1652 2555.19 -51.1136 2577.12 -44.4452 2587.9C-38.2531 2579.58 -30.6321 2582.82 -13.4847 2615.62C0.233185 2641.86 -7.76891 2639.49 -13.4847 2635.02C-21.1057 2625.78 -42.0636 2602.68 -40.6347 2610.54C-39.4915 2616.82 -42.6987 2618.39 -44.4452 2618.39C-64.9268 2598.52 -81.5978 2551.86 -73.0241 2553.71Z" fill="url(#paint4_radial_194_380)"/>
<path d="M54.1521 2625.32C40.7235 2612.71 32.3451 2615.62 29.86 2618.39C26.5465 2622.08 29.86 2635.02 50.3416 2643.34C69.5588 2651.14 68.9178 2639.18 54.1521 2625.32Z" fill="url(#paint5_radial_194_380)"/>
<path d="M1326.86 1668.77C1321.29 1668.77 1306.45 1659.52 1306.45 1668.77L1326.86 1699.3L1358.87 1737.69C1364.44 1753.6 1347.27 1740.93 1337.99 1731.68C1306.45 1692.82 1262.37 1662.3 1258.66 1653.04C1255.34 1644.78 1270.72 1646.57 1280.93 1646.57C1262.37 1629.45 1258.66 1620.06 1262.37 1617.89C1275.36 1610.31 1332.43 1668.77 1326.86 1668.77Z" fill="#45171E"/>
<path d="M323.258 1341.68C349.011 1335.52 389.185 1318.71 405.996 1321.89C412.494 1329.17 393.08 1338.59 371.122 1343.85C342.55 1355.48 338.204 1366.54 366.297 1356.98C395.238 1347.13 421.053 1334.28 423.227 1343.37C425.401 1352.45 311.449 1399.68 292.576 1394.58C273.702 1389.49 330.65 1374.27 323.508 1369.57C309.224 1360.18 260.803 1392.45 253.196 1384.03C246.649 1376.79 292.895 1348.95 323.258 1341.68Z" fill="#45171E"/>
<path fill-rule="evenodd" clip-rule="evenodd" d="M400.648 1796.69C401.998 1791.12 395.256 1781.08 390.37 1784.07C272.689 1856.12 195.646 1975.86 195.646 2110.42L195.772 2111.35C200.877 2025.31 244.939 1999.05 235.722 2021.11C226.072 2044.21 228.441 2123.39 250.14 2211.87C266.025 2276.65 308.866 2317.64 331.255 2339.06C339.448 2346.91 344.903 2352.12 345.294 2354.93C346.463 2363.3 302.451 2343.61 292.159 2337.27L300.658 2355.6C282.019 2356.39 258.217 2325.06 248.646 2309.3C240.046 2298.11 233.041 2284.72 227.06 2271.13C270.908 2416.36 352.927 2453.06 569.139 2500.3C572.105 2500.94 575.145 2501.63 578.252 2502.32C599.258 2507.04 623.327 2512.45 648.371 2512.45C753.558 2512.45 849.536 2480.68 925.78 2427.88C898.38 2442.41 866.857 2457.64 851.478 2459.89C830.013 2463.01 885.377 2414.25 938.424 2382.45C960.6 2369.15 985.178 2340 1003.2 2318.63C1017.77 2301.34 1028.06 2289.15 1029.32 2294.53C1030.95 2301.5 1027.99 2318.88 1024.89 2333.1C1073.14 2268.92 1101.1 2192.08 1101.1 2110.42C1101.1 2102.1 1100.58 2093.58 1099.59 2084.9C1098.76 2077.64 1093.57 2077.37 1092.56 2084.61C1085.23 2137.21 1078.83 2112.97 1073.9 2094.31C1072.94 2090.65 1072.03 2087.22 1071.18 2084.61C1054.35 2032.85 1054.35 2138.58 1054.35 2147.5C1054.35 2190.31 1037.99 2147.5 1030.51 2106.2C1028.11 2092.96 1024.52 2077.75 1021.07 2063.18C1013.77 2032.3 1007.15 2004.35 1014.15 2004.35C1016.54 2004.35 1018.36 2011.57 1020.8 2021.25C1023.13 2030.48 1026.02 2041.96 1030.51 2051.55C1036.85 2065.07 1035.75 2008.62 1035.66 2004.58C1035.66 2004.47 1035.65 2004.38 1035.65 2004.28C1035.65 2004.22 1035.64 2004.17 1035.64 2004.11C1035.36 1999.41 1031.49 1927.89 1060.9 2004.35C1068.65 2024.52 1080.53 2024.44 1083.8 2021.63C1084.38 2021.13 1084.82 2020.43 1084.58 2019.71C1051.37 1920.21 973.506 1814.88 901.374 1759.82C821.955 1699.2 768.873 1688.07 649.234 1712.71C648.67 1712.83 648.08 1712.89 647.504 1712.89C617.04 1712.94 587.282 1715.65 558.512 1720.77C557.705 1720.91 556.92 1721.18 556.189 1721.55C537.847 1730.86 527.157 1737.19 542.027 1734.95C579.423 1729.31 586.902 1761.23 542.027 1781.88C538.015 1783.73 533.918 1785.63 529.783 1787.55L529.767 1787.56L529.749 1787.57L529.741 1787.57C506.806 1798.22 482.686 1809.43 465.13 1814.65C458.136 1816.73 455.108 1809.72 460.111 1804.4C469.973 1793.93 478.131 1782.91 470.975 1781.88C461.592 1780.53 427.491 1792.15 406.602 1799.98C403.376 1801.19 399.836 1800.04 400.648 1796.69Z" fill="url(#paint6_radial_194_380)"/>
<path d="M142.703 2402.14C111.094 2369.07 94.8108 2290.1 90.6203 2254.75C86.3101 2292.86 64.4295 2297.29 54.0279 2294.75C20.4438 2269.4 34.946 2204.05 46.3952 2174.55C46.3952 2131.05 79.4704 2080.04 96.0081 2059.97C101.396 2019.75 128.56 1991.44 128.56 1999.98C128.56 2008.52 121.151 2039.07 100.947 2091.65C84.7835 2133.7 87.3277 2175.97 90.6203 2191.85C113.743 2142.2 138.257 2155.45 162.502 2224.2C181.898 2279.2 179.819 2308.82 174.132 2316.76C189.936 2371.4 253.153 2447.37 282.786 2478.52C291.167 2470.74 319.603 2464.15 366.297 2500.09C424.666 2545.03 590.79 2577.38 643.77 2569.29C686.155 2562.82 688.968 2566.59 685.077 2569.29C664.244 2578.64 617.131 2583.37 596.178 2584.57C566.006 2596.79 454.897 2579.48 403.114 2569.29C434.723 2618.18 340.256 2577.08 289.072 2550.42C249.677 2565.91 193.288 2511.42 168.48 2480.46C175.274 2489.24 185.774 2505.58 183.111 2513.57C180.238 2522.2 168.145 2523.16 162.458 2522.56L121.151 2494.7C131.209 2481.76 143.301 2489.31 148.09 2494.7L121.151 2447.07C92.4162 2405.37 123.546 2399.74 142.703 2402.14Z" fill="#D36720"/>
<path d="M825.609 2610.85C825.609 2611.75 776.67 2630.25 752.2 2639.39C760.731 2639.39 779.813 2647.92 775.099 2654.66C770.384 2661.4 749.282 2666.12 722.567 2669.94C695.853 2673.76 671.158 2660.28 663.526 2661.4C657.419 2662.3 634.94 2667.47 624.464 2669.94C597.884 2666.89 587.946 2658.48 586.3 2654.66C592.406 2644.78 614.287 2646.05 624.464 2647.92C655.893 2634.08 683.506 2645.45 692.485 2652.19C701.914 2647.92 728.404 2651.74 728.404 2647.92C728.404 2644.1 701.914 2646.13 701.914 2635.12C701.914 2620.71 739.03 2611.45 756.915 2608.83C806.528 2591.53 825.609 2609.73 825.609 2610.85Z" fill="#D36720"/>
<path d="M552.626 2667.7C565.198 2672.73 574.028 2665.6 576.872 2661.4C572.382 2649.72 560.708 2657.81 557.565 2657.81C554.422 2657.81 540.504 2652.19 540.055 2657.81C539.606 2663.43 536.912 2661.4 552.626 2667.7Z" fill="#D36720"/>
<path d="M1188.48 2134.43C1218.86 2149.57 1197.63 2242.89 1188.48 2287.83C1249.24 2254.61 1207.1 2364.77 1120.86 2432.19C1051.87 2486.13 1032.67 2525.27 1020.91 2506.71C1028.75 2488.14 1108.45 2402.81 1132.62 2368.93C1123.21 2375.19 1120.86 2366.33 1120.86 2361.12C1120.86 2361.12 1160.32 2308.25 1168.86 2242.29C1177.39 2176.33 1182.19 2131.29 1188.48 2134.43Z" fill="#D36720"/>
<path d="M1153.59 1861.91C1099.51 1793.22 1033.15 1753.46 1006.02 1743.35C1032.42 1819.5 957.791 1738.64 937.826 1723C886.629 1682.9 865.813 1692.28 833.602 1662.93C806.024 1637.79 703.742 1599.53 708.901 1595.98C750.2 1595.98 912.309 1670.46 980.843 1723C953.037 1680.22 971.874 1672.6 980.843 1668.47C1004.13 1650.79 1178.83 1829.48 1178.83 1858.48C1208.3 1899.36 1231.27 1970.07 1221.14 1978.27C1210.68 1982.07 1173.91 1892.92 1153.59 1861.91Z" fill="#D36720"/>
<path d="M398.687 1618.45C312.778 1647.77 335.984 1653.47 358.326 1652.66C321.878 1672.94 323.346 1677.83 299.862 1700.31C281.076 1718.29 285.675 1737.45 299.862 1723.28C342.425 1675.87 371.779 1670.01 398.687 1658.77C420.213 1649.78 407.656 1643.62 398.687 1641.66C398.687 1635.8 434.89 1628.96 450.546 1624.07C466.201 1619.18 562.09 1603.55 557.442 1611.37C552.795 1619.18 554.752 1623.34 556.22 1624.07C563.862 1625.83 572.846 1623.48 581.659 1622.73C595.414 1621.55 608.749 1623.06 615.905 1620.77C615.905 1616.74 581.007 1616.58 568.45 1618.45C581.904 1598.9 541.543 1598.9 531.758 1598.9C521.973 1598.9 469.381 1603.79 460.819 1606.23C453.97 1608.19 416.544 1615.19 398.687 1618.45Z" fill="#D36720"/>
<path d="M217.98 1831.92C238.331 1813.14 273.608 1791.78 294.254 1790.17C304.567 1797.78 240.88 1820.69 240.078 1837.34C239.796 1843.2 264.395 1822.84 263.069 1832.58C262.474 1836.95 243.249 1852.66 225.906 1870.23C208.563 1887.81 173.547 1931.01 186.398 1901.38C199.249 1871.75 225.289 1847.93 227.377 1845.96C240.189 1833.84 180.652 1866.36 217.98 1831.92Z" fill="#D36720"/>
<path d="M315.536 1789.48C326.018 1784.16 332.822 1783.8 336.714 1787.64C338.473 1796.45 320.075 1797.65 311.898 1800.64C303.72 1803.64 310.432 1792.08 315.536 1789.48Z" fill="#D36720"/>
<g filter="url(#filter0_f_194_380)">
<path d="M1121.69 2498.47L1121.23 2499.18L1121.69 2498.47ZM1044.42 2733.78L1044.97 2734.42L1044.42 2733.78ZM974.658 2628.71L973.954 2629.18L975.09 2630.87L975.488 2628.87L974.658 2628.71ZM974.629 2628.66L975.331 2628.19L973.808 2628.87L974.629 2628.66ZM971.899 2650.59L971.082 2650.37L972.697 2650.87L971.899 2650.59ZM973.744 2627.49L974.576 2627.33L974.535 2627.12L974.393 2626.95L973.744 2627.49ZM953.911 2665.62L954.731 2665.83L954.764 2665.7L954.755 2665.57L953.911 2665.62ZM853.248 2760.25L853.102 2759.42L853.058 2759.43L853.014 2759.44L853.248 2760.25ZM826.1 2755.97L826.287 2755.15L826.1 2755.97ZM766.763 2747.3L766.793 2748.15L766.763 2747.3ZM720.476 2818.56L719.749 2818.99L719.872 2819.2L720.085 2819.31L720.476 2818.56ZM720.591 2818.62L720.982 2817.87L720.982 2817.87L720.591 2818.62ZM774.47 2785.33L774.869 2784.58L774.47 2785.33ZM927.95 2806.79L928.218 2807.6L927.95 2806.79ZM1029.92 2746.41L1030.48 2747.05L1030.48 2747.04L1029.92 2746.41ZM1029.92 2746.41L1029.36 2745.77L1029.36 2745.77L1029.92 2746.41ZM1029.92 2746.41L1030.48 2747.05L1030.48 2747.04L1029.92 2746.41ZM1097.2 2568.97L1097.97 2569.33L1097.99 2569.28L1098.01 2569.22L1097.2 2568.97ZM1098.76 2604.18L1099.2 2603.46L1098.76 2604.18ZM1031.43 2563.47L1032.22 2563.77L1031.43 2563.47ZM1061.11 2543.48L1061.69 2542.87L1061.65 2542.82L1061.6 2542.79L1061.11 2543.48ZM1037.23 2606.4L1037.41 2605.58L1037.23 2606.4ZM1063.98 2569.13L1063.14 2569.03L1063.98 2569.13ZM1074.3 2606.21L1074.3 2607.06L1074.3 2607.06L1074.3 2606.21ZM1054.29 2626.84L1053.5 2626.53L1054.29 2626.84ZM1079.1 2622.77L1078.28 2622.57L1079.1 2622.77ZM1053.45 2657.79L1053.08 2658.55L1053.08 2658.55L1053.45 2657.79ZM1121.23 2499.18C1142.86 2513.08 1152.69 2531.23 1154.39 2551.47C1156.09 2571.77 1149.61 2594.26 1138.42 2616.75C1116.04 2661.75 1074.97 2706.45 1043.87 2733.13L1044.97 2734.42C1076.17 2707.65 1117.42 2662.77 1139.93 2617.51C1151.19 2594.88 1157.81 2572.07 1156.08 2551.33C1154.34 2530.55 1144.2 2511.93 1122.15 2497.76L1121.23 2499.18ZM975.488 2628.87C986.742 2572.2 1014.51 2534.13 1043.82 2513.07C1058.48 2502.54 1073.51 2496.27 1087.05 2494.04C1100.6 2491.8 1112.58 2493.63 1121.23 2499.18L1122.15 2497.76C1113.04 2491.91 1100.6 2490.09 1086.78 2492.36C1072.94 2494.64 1057.67 2501.03 1042.83 2511.69C1013.15 2533.02 985.158 2571.48 973.827 2628.54L975.488 2628.87ZM973.927 2629.14C973.936 2629.15 973.945 2629.16 973.954 2629.18L975.361 2628.24C975.351 2628.22 975.341 2628.21 975.331 2628.19L973.927 2629.14ZM973.808 2628.87C974.892 2633.19 974.843 2639.74 971.101 2650.3L972.697 2650.87C976.507 2640.12 976.642 2633.21 975.45 2628.46L973.808 2628.87ZM972.717 2650.81C974.889 2642.74 975.747 2633.51 974.576 2627.33L972.912 2627.65C974.018 2633.49 973.218 2642.43 971.082 2650.37L972.717 2650.81ZM954.755 2665.57C953.969 2653.41 954.404 2644.51 955.583 2638.12C956.764 2631.72 958.676 2627.94 960.761 2625.91C962.8 2623.92 965.061 2623.54 967.211 2624.08C969.409 2624.63 971.527 2626.16 973.095 2628.03L974.393 2626.95C972.662 2624.88 970.256 2623.1 967.624 2622.44C964.943 2621.76 962.067 2622.26 959.578 2624.69C957.134 2627.08 955.128 2631.26 953.918 2637.82C952.705 2644.39 952.274 2653.44 953.066 2665.68L954.755 2665.57ZM853.393 2761.09C923.053 2748.94 947.729 2693.29 954.731 2665.83L953.09 2665.41C946.16 2692.59 921.8 2747.44 853.102 2759.42L853.393 2761.09ZM825.914 2756.8C832.481 2758.29 838.384 2759.62 843.098 2760.45C845.456 2760.87 847.536 2761.17 849.266 2761.29C850.974 2761.41 852.426 2761.37 853.482 2761.07L853.014 2759.44C852.258 2759.66 851.054 2759.72 849.386 2759.6C847.74 2759.48 845.725 2759.2 843.393 2758.79C838.727 2757.96 832.869 2756.64 826.287 2755.15L825.914 2756.8ZM766.793 2748.15C784.856 2747.51 807.903 2752.72 825.914 2756.8L826.287 2755.15C808.344 2751.09 785.062 2745.81 766.733 2746.46L766.793 2748.15ZM721.204 2818.12C713.29 2804.81 714.77 2787.69 723.236 2773.67C731.692 2759.66 747.068 2748.84 766.793 2748.15L766.733 2746.46C746.384 2747.17 730.509 2758.34 721.786 2772.79C713.074 2787.22 711.447 2805.02 719.749 2818.99L721.204 2818.12ZM720.982 2817.87L720.868 2817.81L720.085 2819.31L720.2 2819.37L720.982 2817.87ZM730.671 2811.25C730.163 2814.17 729.534 2816.15 728.838 2817.46C728.148 2818.76 727.43 2819.32 726.753 2819.55C726.057 2819.78 725.239 2819.71 724.238 2819.37C723.233 2819.04 722.161 2818.48 720.982 2817.87L720.2 2819.37C721.347 2819.96 722.545 2820.59 723.701 2820.98C724.861 2821.37 726.094 2821.55 727.288 2821.16C728.501 2820.75 729.51 2819.8 730.333 2818.25C731.149 2816.72 731.818 2814.54 732.339 2811.54L730.671 2811.25ZM774.869 2784.58C768.059 2780.95 762.018 2779.8 756.734 2780.44C751.448 2781.07 746.999 2783.47 743.358 2786.78C736.104 2793.38 731.99 2803.67 730.671 2811.25L732.339 2811.54C733.617 2804.2 737.607 2794.31 744.497 2788.03C747.928 2784.91 752.061 2782.7 756.935 2782.12C761.809 2781.53 767.503 2782.57 774.072 2786.07L774.869 2784.58ZM927.682 2805.99C895.34 2816.78 870.226 2818.39 846.691 2813.85C823.126 2809.3 801.083 2798.58 774.869 2784.58L774.072 2786.07C800.284 2800.07 822.528 2810.91 846.37 2815.51C870.242 2820.11 895.654 2818.46 928.218 2807.6L927.682 2805.99ZM1029.36 2745.77C1014.74 2758.62 1002.7 2769.2 987.63 2778.81C972.563 2788.41 954.441 2797.06 927.682 2805.99L928.218 2807.6C955.076 2798.63 973.33 2789.93 988.54 2780.23C1003.74 2770.54 1015.88 2759.88 1030.48 2747.05L1029.36 2745.77ZM1029.36 2745.77L1029.36 2745.78L1030.48 2747.04L1030.48 2747.04L1029.36 2745.77ZM1029.37 2745.77L1029.36 2745.77L1030.47 2747.05L1030.48 2747.05L1029.37 2745.77ZM1043.87 2733.13C1038.68 2737.58 1033.9 2741.79 1029.36 2745.77L1030.48 2747.04C1035.01 2743.06 1039.79 2738.86 1044.97 2734.42L1043.87 2733.13ZM1098.01 2569.22C1101.2 2558.89 1104.34 2550.82 1107.62 2545.52C1110.94 2540.16 1114.17 2537.96 1117.52 2538.54L1117.81 2536.87C1113.35 2536.1 1109.55 2539.18 1106.18 2544.63C1102.78 2550.12 1099.59 2558.37 1096.39 2568.72L1098.01 2569.22ZM1099.2 2603.46C1094.67 2600.71 1092.21 2597 1091.91 2591.64C1091.59 2586.2 1093.5 2579 1097.97 2569.33L1096.43 2568.62C1091.93 2578.35 1089.88 2585.87 1090.22 2591.74C1090.56 2597.7 1093.36 2601.89 1098.32 2604.9L1099.2 2603.46ZM1125.38 2562.7C1124.07 2570.23 1121.64 2583.16 1117.36 2592.85C1115.22 2597.71 1112.66 2601.62 1109.66 2603.68C1108.18 2604.7 1106.6 2605.26 1104.9 2605.27C1103.2 2605.28 1101.3 2604.74 1099.2 2603.46L1098.32 2604.9C1100.63 2606.31 1102.83 2606.97 1104.91 2606.96C1107 2606.95 1108.9 2606.26 1110.62 2605.08C1114.02 2602.75 1116.73 2598.47 1118.91 2593.53C1123.28 2583.63 1125.74 2570.5 1127.05 2562.99L1125.38 2562.7ZM1117.52 2538.54C1121.01 2539.15 1123.55 2541.74 1124.94 2545.96C1126.34 2550.2 1126.54 2556 1125.38 2562.7L1127.05 2562.99C1128.24 2556.12 1128.07 2550.03 1126.55 2545.43C1125.03 2540.82 1122.11 2537.62 1117.81 2536.87L1117.52 2538.54ZM1032.22 2563.77C1037.09 2550.9 1042.94 2545.11 1048.1 2542.96C1053.25 2540.82 1057.91 2542.23 1060.61 2544.17L1061.6 2542.79C1058.5 2540.57 1053.23 2539 1047.45 2541.4C1041.68 2543.8 1035.59 2550.08 1030.63 2563.17L1032.22 2563.77ZM1037.41 2605.58C1033.43 2604.72 1029.2 2602.27 1027.38 2596.18C1025.52 2590 1026.1 2579.94 1032.22 2563.77L1030.63 2563.17C1024.47 2579.45 1023.74 2589.95 1025.75 2596.67C1027.8 2603.48 1032.61 2606.27 1037.05 2607.23L1037.41 2605.58ZM1063.14 2569.03C1061.9 2579.12 1057.38 2588.75 1052.14 2595.63C1049.52 2599.07 1046.74 2601.79 1044.14 2603.53C1041.5 2605.28 1039.18 2605.96 1037.41 2605.58L1037.05 2607.23C1039.49 2607.76 1042.3 2606.79 1045.08 2604.94C1047.88 2603.06 1050.79 2600.2 1053.49 2596.66C1058.89 2589.58 1063.54 2579.67 1064.82 2569.24L1063.14 2569.03ZM1060.52 2544.09C1060.86 2544.41 1061.33 2545.08 1061.82 2546.23C1062.3 2547.37 1062.78 2548.92 1063.14 2550.94C1063.87 2554.99 1064.14 2560.88 1063.14 2569.03L1064.82 2569.24C1065.84 2560.96 1065.57 2554.89 1064.81 2550.64C1064.43 2548.52 1063.92 2546.84 1063.38 2545.57C1062.84 2544.31 1062.26 2543.4 1061.69 2542.87L1060.52 2544.09ZM1074.3 2605.37C1069.86 2605.38 1060.08 2609.86 1053.5 2626.53L1055.08 2627.15C1061.5 2610.86 1070.81 2607.07 1074.3 2607.06L1074.3 2605.37ZM1079.93 2622.97C1081.77 2615.42 1081.63 2611 1080.31 2608.45C1078.92 2605.74 1076.35 2605.36 1074.3 2605.37L1074.3 2607.06C1076.2 2607.06 1077.88 2607.41 1078.81 2609.22C1079.82 2611.18 1080.11 2615.05 1078.28 2622.57L1079.93 2622.97ZM1053.08 2658.55C1055.93 2659.93 1058.87 2659.12 1061.59 2657.14C1064.29 2655.17 1066.91 2651.95 1069.3 2648.18C1074.08 2640.63 1078.07 2630.59 1079.93 2622.97L1078.28 2622.57C1076.46 2630.03 1072.54 2639.9 1067.87 2647.28C1065.53 2650.97 1063.04 2653.98 1060.59 2655.77C1058.14 2657.55 1055.88 2658.03 1053.82 2657.03L1053.08 2658.55ZM1053.5 2626.53C1051.47 2631.68 1049.85 2635.95 1048.71 2639.52C1047.57 2643.08 1046.89 2645.99 1046.75 2648.42C1046.61 2650.86 1047.01 2652.86 1048.09 2654.54C1049.17 2656.21 1050.85 2657.47 1053.08 2658.55L1053.82 2657.03C1051.74 2656.02 1050.36 2654.93 1049.52 2653.63C1048.68 2652.33 1048.31 2650.72 1048.44 2648.52C1048.57 2646.3 1049.2 2643.55 1050.33 2640.03C1051.45 2636.52 1053.05 2632.3 1055.08 2627.15L1053.5 2626.53Z" fill="#FFFACC"/>
</g>
<path fill-rule="evenodd" clip-rule="evenodd" d="M1044.42 2733.78C1106.72 2680.33 1209.05 2554.6 1121.69 2498.47C1086.18 2475.65 997.242 2514.97 974.658 2628.71C974.648 2628.69 974.639 2628.68 974.629 2628.66C975.767 2633.2 975.675 2639.93 971.899 2650.59C974.054 2642.58 974.883 2633.5 973.744 2627.49C967.145 2619.6 950.755 2616.83 953.911 2665.62C946.945 2692.94 922.427 2748.19 853.248 2760.25C849.623 2761.3 839.249 2758.95 826.1 2755.97C808.123 2751.9 784.959 2746.66 766.763 2747.3C726.69 2748.72 704.26 2791.28 720.476 2818.56L720.591 2818.62C725.244 2821.04 729.445 2823.23 731.505 2811.39C734.101 2796.47 747.714 2771.04 774.47 2785.33C826.897 2813.32 863.044 2828.45 927.95 2806.79C981.567 2788.9 1000.7 2772.08 1029.92 2746.41L1029.92 2746.41L1029.92 2746.41C1034.46 2742.42 1039.23 2738.22 1044.42 2733.78ZM1117.66 2537.71C1109.86 2536.35 1103.59 2548.29 1097.2 2568.97C1088.23 2588.38 1089.28 2598.41 1098.76 2604.18C1116.45 2614.95 1123.59 2577.89 1126.21 2562.84C1128.57 2549.28 1125.46 2539.06 1117.66 2537.71ZM1061.11 2543.48C1055.31 2539.33 1041.25 2537.51 1031.43 2563.47C1019.14 2595.92 1028.81 2604.59 1037.23 2606.4C1045.65 2608.22 1061.46 2589.66 1063.98 2569.13C1066 2552.71 1062.9 2545.19 1061.11 2543.48ZM1054.29 2626.84C1060.79 2610.36 1070.34 2606.22 1074.3 2606.21C1078.26 2606.2 1082.78 2607.69 1079.1 2622.77C1075.43 2637.85 1063.28 2662.57 1053.45 2657.79C1044.84 2653.61 1046.16 2647.44 1054.29 2626.84Z" fill="#E0B47B" fill-opacity="0.5"/>
<g filter="url(#filter1_f_194_380)">
<path d="M228.065 2753.25L228.266 2754.08L228.302 2754.07L228.337 2754.05L228.065 2753.25ZM132.849 2725.56L133.559 2725.1L132.849 2725.56ZM318.699 2781.07L318.066 2781.64L318.104 2781.68L318.147 2781.72L318.699 2781.07ZM336.849 2812.94L337.208 2813.71L336.849 2812.94ZM302.207 2791.7L302.782 2791.08L302.207 2791.7ZM286.225 2779.09L286.059 2779.92L286.225 2779.09ZM283.527 2785.14L284.356 2784.97L283.527 2785.14ZM251.573 2778.9L251.033 2779.55L251.573 2778.9ZM251.175 2778.57L251.715 2777.92L251.714 2777.92L251.175 2778.57ZM194.413 2780.8L194.72 2781.59L194.74 2781.58L194.76 2781.57L194.413 2780.8ZM192.712 2781.46L193.021 2782.25L193.021 2782.25L192.712 2781.46ZM87.1546 2778.27L86.7671 2779.03L87.1546 2778.27ZM19.2816 2642.22L20.1267 2642.17L20.1218 2642.09L20.1009 2642.01L19.2816 2642.22ZM15.7694 2570.67L16.5845 2570.9L15.7694 2570.67ZM35.3114 2564.03L36.1236 2564.27L36.212 2563.97L36.0833 2563.69L35.3114 2564.03ZM28.7481 2594.01L29.5934 2593.96L29.5934 2593.96L28.7481 2594.01ZM30.3882 2593.07L31.2348 2593.07L31.2348 2593.07L30.3882 2593.07ZM36.115 2566.01L36.9109 2565.72L35.96 2563.1L35.293 2565.81L36.115 2566.01ZM36.1779 2566.19L35.3801 2566.47L36.4123 2569.38L37.0085 2566.35L36.1779 2566.19ZM100.079 2528.55L100.246 2527.72L100.079 2528.55ZM125.971 2624.5L125.84 2625.33L126.547 2625.44L126.774 2624.76L125.971 2624.5ZM110.027 2638.64L110.769 2639.04L110.79 2639L110.807 2638.96L110.027 2638.64ZM106.387 2658.4L105.584 2658.66L106.387 2658.4ZM107.04 2658.29L106.194 2658.25L107.04 2658.29ZM111.667 2637.7L110.888 2637.37L111.667 2637.7ZM126.956 2625.28L127.437 2624.58L127.353 2624.52L127.257 2624.49L126.956 2625.28ZM136.158 2655.09L135.342 2654.87L136.158 2655.09ZM131.556 2662.66L130.876 2662.16L131.556 2662.66ZM112.413 2557.83L112.112 2557.04L112.089 2557.05L112.066 2557.06L112.413 2557.83ZM111.253 2574.32L110.489 2574.69L111.253 2574.32ZM124.958 2579.86L125.804 2579.82L124.958 2579.86ZM115.415 2598.13L115.38 2597.28L115.38 2597.28L115.415 2598.13ZM115.2 2598.14L115.246 2598.98L115.246 2598.98L115.2 2598.14ZM109.461 2588.06L108.649 2587.82L108.649 2587.82L109.461 2588.06ZM109.499 2587.94L110.311 2588.17L109.499 2587.94ZM64.4661 2548.84L65.0212 2549.47L64.4661 2548.84ZM88.9495 2548.23L89.7959 2548.25L89.801 2548.03L89.6931 2547.83L88.9495 2548.23ZM50.6884 2570.96L49.872 2570.73L50.6884 2570.96ZM63.8567 2577.73L63.1529 2577.26L63.8567 2577.73ZM67.531 2571.33L66.7858 2570.93L66.7801 2570.94L67.531 2571.33ZM67.5311 2571.33L68.2763 2571.73L68.282 2571.72L67.5311 2571.33ZM72.34 2562.66L71.6128 2562.23L72.34 2562.66ZM80.6718 2557.62L80.4566 2556.8L80.6718 2557.62ZM85.827 2579.8L86.2422 2579.07L86.1013 2578.99L85.941 2578.97L85.827 2579.8ZM91.5891 2597L92.4238 2597.15L91.5891 2597ZM77.3949 2582.43L77.9171 2583.1L77.3949 2582.43ZM75.7238 2591.18L74.8775 2591.2L75.7238 2591.18ZM75.7721 2594.84L76.4692 2595.32L76.6168 2595.11L76.6186 2594.85L75.7721 2594.84ZM76.8511 2612.54L76.7692 2613.38L76.8511 2612.54ZM227.864 2752.43C216.833 2755.12 198.843 2756.99 180.801 2753.81C162.764 2750.63 144.776 2742.43 133.559 2725.1L132.138 2726.02C143.697 2743.88 162.192 2752.25 180.507 2755.47C198.817 2758.7 217.047 2756.81 228.266 2754.08L227.864 2752.43ZM319.332 2780.51C310.746 2770.85 297.076 2760.73 280.964 2754.57C264.845 2748.41 246.227 2746.19 227.793 2752.45L228.337 2754.05C246.309 2747.95 264.512 2750.09 280.36 2756.15C296.215 2762.21 309.659 2772.18 318.066 2781.64L319.332 2780.51ZM337.208 2813.71C338.586 2813.06 339.544 2812.13 340.071 2810.96C340.592 2809.79 340.651 2808.47 340.406 2807.1C339.921 2804.39 338.203 2801.24 335.938 2798.06C331.386 2791.68 324.341 2784.81 319.251 2780.43L318.147 2781.72C323.19 2786.05 330.12 2792.82 334.56 2799.04C336.79 2802.17 338.323 2805.07 338.739 2807.4C338.945 2808.55 338.867 2809.5 338.526 2810.26C338.191 2811.01 337.563 2811.67 336.49 2812.17L337.208 2813.71ZM301.633 2792.32C307.615 2797.85 314.385 2804.1 320.636 2808.52C323.76 2810.73 326.797 2812.51 329.576 2813.5C332.343 2814.49 334.983 2814.75 337.208 2813.71L336.49 2812.17C334.85 2812.94 332.726 2812.83 330.146 2811.91C327.577 2810.99 324.684 2809.31 321.613 2807.14C315.471 2802.8 308.786 2796.63 302.782 2791.08L301.633 2792.32ZM286.059 2779.92C286.641 2780.03 287.463 2780.42 288.532 2781.11C289.583 2781.79 290.802 2782.72 292.165 2783.84C294.891 2786.09 298.124 2789.08 301.633 2792.32L302.782 2791.08C299.284 2787.85 296.013 2784.83 293.243 2782.54C291.857 2781.39 290.581 2780.42 289.451 2779.69C288.339 2778.97 287.297 2778.44 286.392 2778.26L286.059 2779.92ZM284.356 2784.97C284.165 2784.03 283.991 2783.16 283.894 2782.39C283.796 2781.61 283.789 2781.01 283.886 2780.58C283.974 2780.19 284.126 2780.02 284.332 2779.93C284.595 2779.8 285.108 2779.73 286.059 2779.92L286.392 2778.26C285.301 2778.04 284.36 2778.04 283.615 2778.39C282.814 2778.77 282.405 2779.46 282.234 2780.21C282.072 2780.93 282.109 2781.77 282.214 2782.6C282.32 2783.45 282.509 2784.38 282.697 2785.31L284.356 2784.97ZM282.308 2795.64C284.263 2794.52 284.936 2792.67 285.042 2790.75C285.147 2788.87 284.72 2786.77 284.356 2784.97L282.697 2785.31C283.071 2787.16 283.442 2789.03 283.352 2790.65C283.264 2792.24 282.75 2793.44 281.47 2794.17L282.308 2795.64ZM251.033 2779.55C259.951 2786.94 265.971 2791.93 270.577 2794.58C272.892 2795.92 274.921 2796.71 276.84 2796.89C278.785 2797.08 280.549 2796.64 282.308 2795.64L281.47 2794.17C279.973 2795.02 278.555 2795.36 277.002 2795.21C275.423 2795.06 273.635 2794.39 271.423 2793.12C266.973 2790.55 261.091 2785.68 252.113 2778.25L251.033 2779.55ZM250.635 2779.22L251.033 2779.55L252.113 2778.25L251.715 2777.92L250.635 2779.22ZM194.76 2781.57C201.126 2778.71 211.593 2775.17 222.256 2773.84C232.96 2772.5 243.632 2773.42 250.635 2779.22L251.714 2777.92C244.152 2771.66 232.869 2770.81 222.046 2772.16C211.183 2773.52 200.552 2777.12 194.067 2780.03L194.76 2781.57ZM193.021 2782.25C193.619 2782.02 194.185 2781.8 194.72 2781.59L194.107 2780.01C193.569 2780.22 193 2780.44 192.403 2780.68L193.021 2782.25ZM86.7671 2779.03C136.273 2804.52 176.401 2788.77 193.021 2782.25L192.403 2780.68C175.875 2787.16 136.362 2802.66 87.5421 2777.52L86.7671 2779.03ZM18.4365 2642.27C19.5856 2661.62 25.1302 2689.84 36.1289 2716.18C47.119 2742.5 63.6172 2767.11 86.7671 2779.03L87.5421 2777.52C64.9164 2765.87 48.6219 2741.71 37.6913 2715.53C26.7691 2689.37 21.265 2661.34 20.1267 2642.17L18.4365 2642.27ZM14.9543 2570.45C11.3908 2583.15 11.3627 2597.64 12.6688 2610.68C13.976 2623.73 16.6263 2635.38 18.4624 2642.43L20.1009 2642.01C18.2775 2635.01 15.6489 2623.44 14.3535 2610.51C13.057 2597.57 13.1025 2583.32 16.5845 2570.9L14.9543 2570.45ZM36.0833 2563.69C35.0537 2561.4 33.6913 2559.16 32.0988 2557.46C30.5191 2555.78 28.6168 2554.52 26.5115 2554.45C24.3583 2554.37 22.2599 2555.52 20.3347 2558.06C18.4183 2560.59 16.5972 2564.59 14.9543 2570.45L16.5845 2570.9C18.2025 2565.14 19.9527 2561.37 21.6846 2559.09C23.4076 2556.81 25.0342 2556.09 26.4493 2556.14C27.9124 2556.19 29.4219 2557.08 30.8636 2558.62C32.2926 2560.14 33.5616 2562.21 34.5395 2564.38L36.0833 2563.69ZM29.5934 2593.96C29.5463 2593.09 29.7048 2591.53 30.0486 2589.42C30.3884 2587.34 30.8973 2584.81 31.5192 2582.02C32.7629 2576.46 34.4517 2569.96 36.1236 2564.27L34.4992 2563.79C32.8173 2569.52 31.1191 2576.06 29.8669 2581.66C29.2409 2584.45 28.7246 2587.03 28.3776 2589.15C28.0346 2591.25 27.8446 2592.98 27.9027 2594.05L29.5934 2593.96ZM29.5417 2593.07C29.5405 2593.89 29.4567 2594.58 29.3378 2595.08C29.2782 2595.34 29.2135 2595.53 29.1547 2595.66C29.0882 2595.81 29.0573 2595.82 29.1019 2595.78C29.1309 2595.75 29.2103 2595.7 29.341 2595.67C29.4854 2595.64 29.6292 2595.66 29.7442 2595.72C29.8458 2595.77 29.8937 2595.83 29.9017 2595.84C29.9109 2595.86 29.9001 2595.84 29.8777 2595.79C29.8319 2595.69 29.7725 2595.49 29.7182 2595.17C29.6648 2594.86 29.6207 2594.46 29.5934 2593.96L27.9027 2594.05C27.9608 2595.12 28.0963 2595.94 28.3222 2596.46C28.4262 2596.7 28.6185 2597.05 28.9879 2597.24C29.1965 2597.34 29.4356 2597.38 29.6757 2597.33C29.9021 2597.28 30.0777 2597.17 30.2019 2597.07C30.437 2596.87 30.593 2596.59 30.7 2596.35C30.8145 2596.1 30.9096 2595.8 30.9861 2595.47C31.1396 2594.82 31.2335 2593.99 31.2348 2593.07L29.5417 2593.07ZM35.293 2565.81C34.1405 2570.49 32.708 2576.5 31.5626 2581.72C30.9901 2584.33 30.4879 2586.74 30.1283 2588.71C29.7737 2590.64 29.5429 2592.21 29.5417 2593.07L31.2348 2593.07C31.2357 2592.39 31.4339 2590.98 31.7937 2589.01C32.1483 2587.08 32.6457 2584.68 33.2164 2582.08C34.3576 2576.88 35.7863 2570.89 36.937 2566.22L35.293 2565.81ZM36.9757 2565.9C36.9543 2565.84 36.9327 2565.78 36.9109 2565.72L35.3191 2566.3C35.3397 2566.36 35.36 2566.41 35.3801 2566.47L36.9757 2565.9ZM100.246 2527.72C78.2792 2523.29 62.8354 2528.71 52.481 2537.36C42.1626 2545.99 36.9719 2557.77 35.3473 2566.02L37.0085 2566.35C38.5727 2558.41 43.5988 2546.99 53.5669 2538.66C63.4989 2530.36 78.4113 2525.05 99.912 2529.38L100.246 2527.72ZM126.774 2624.76C131.535 2610.49 135.949 2588.56 133.699 2569.05C132.573 2559.29 129.772 2550.08 124.457 2542.74C119.127 2535.38 111.303 2529.95 100.246 2527.72L99.912 2529.38C110.56 2531.52 118.01 2536.72 123.085 2543.73C128.175 2550.76 130.911 2559.66 132.017 2569.24C134.229 2588.42 129.884 2610.09 125.168 2624.23L126.774 2624.76ZM110.807 2638.96C112.179 2635.7 114.988 2632.09 118.007 2629.38C119.512 2628.03 121.041 2626.93 122.434 2626.21C123.853 2625.48 125.018 2625.2 125.84 2625.33L126.101 2623.66C124.748 2623.45 123.189 2623.92 121.659 2624.71C120.102 2625.51 118.455 2626.7 116.876 2628.12C113.727 2630.95 110.74 2634.75 109.246 2638.31L110.807 2638.96ZM107.191 2658.13C107.125 2657.93 107.07 2657.54 107.06 2656.93C107.051 2656.34 107.084 2655.62 107.156 2654.79C107.299 2653.13 107.591 2651.11 107.973 2649.05C108.355 2646.98 108.824 2644.89 109.318 2643.1C109.817 2641.29 110.325 2639.85 110.769 2639.04L109.284 2638.23C108.739 2639.22 108.189 2640.83 107.686 2642.65C107.176 2644.5 106.697 2646.64 106.308 2648.74C105.919 2650.84 105.618 2652.92 105.469 2654.64C105.394 2655.51 105.357 2656.29 105.367 2656.96C105.377 2657.61 105.433 2658.21 105.584 2658.66L107.191 2658.13ZM106.194 2658.25C106.177 2658.68 106.164 2658.98 106.147 2659.18C106.143 2659.22 106.139 2659.26 106.135 2659.29C106.132 2659.32 106.129 2659.33 106.13 2659.32C106.13 2659.32 106.133 2659.31 106.137 2659.3C106.142 2659.28 106.151 2659.25 106.168 2659.22C106.185 2659.18 106.287 2658.97 106.554 2658.85C106.706 2658.78 106.873 2658.76 107.033 2658.78C107.182 2658.81 107.29 2658.87 107.355 2658.92C107.471 2659 107.528 2659.09 107.533 2659.09C107.553 2659.12 107.544 2659.12 107.505 2659.02C107.436 2658.86 107.336 2658.57 107.191 2658.13L105.584 2658.66C105.726 2659.09 105.844 2659.44 105.94 2659.67C105.985 2659.78 106.046 2659.92 106.125 2660.03C106.161 2660.09 106.244 2660.21 106.386 2660.31C106.551 2660.42 106.883 2660.56 107.254 2660.39C107.542 2660.26 107.663 2660.02 107.697 2659.95C107.744 2659.85 107.768 2659.75 107.781 2659.7C107.809 2659.58 107.823 2659.44 107.834 2659.32C107.855 2659.07 107.869 2658.73 107.886 2658.32L106.194 2658.25ZM110.888 2637.37C106.644 2647.35 106.319 2655.23 106.194 2658.25L107.886 2658.32C108.007 2655.37 108.32 2647.74 112.446 2638.03L110.888 2637.37ZM127.257 2624.49C125.94 2623.99 124.382 2624.3 122.89 2624.96C121.369 2625.62 119.753 2626.72 118.213 2628.02C115.145 2630.63 112.229 2634.21 110.888 2637.37L112.446 2638.03C113.655 2635.19 116.375 2631.8 119.309 2629.31C120.771 2628.07 122.248 2627.09 123.571 2626.51C124.924 2625.91 125.963 2625.81 126.655 2626.07L127.257 2624.49ZM136.974 2655.32C139.667 2645.5 137.93 2631.84 127.437 2624.58L126.474 2625.97C136.164 2632.67 137.922 2645.46 135.342 2654.87L136.974 2655.32ZM132.236 2663.16C133.331 2661.69 134.353 2660.31 135.174 2659.02C135.992 2657.75 136.647 2656.51 136.974 2655.32L135.342 2654.87C135.081 2655.82 134.534 2656.88 133.748 2658.11C132.965 2659.33 131.98 2660.67 130.876 2662.16L132.236 2663.16ZM133.559 2725.1C122.477 2707.98 120.243 2695.15 121.675 2685.34C123.11 2675.51 128.241 2668.56 132.236 2663.16L130.876 2662.16C126.886 2667.55 121.502 2674.8 119.999 2685.1C118.493 2695.42 120.899 2708.65 132.138 2726.02L133.559 2725.1ZM112.066 2557.06C110.356 2557.83 108.146 2558.86 107.399 2561.59C106.681 2564.22 107.386 2568.2 110.489 2574.69L112.017 2573.95C108.932 2567.51 108.489 2564.03 109.033 2562.04C109.549 2560.15 111.012 2559.39 112.761 2558.6L112.066 2557.06ZM125.804 2579.82C125.624 2575.38 124.776 2568.89 122.781 2563.92C121.787 2561.44 120.468 2559.24 118.713 2557.89C116.9 2556.5 114.681 2556.06 112.112 2557.04L112.714 2558.62C114.737 2557.85 116.337 2558.2 117.681 2559.23C119.084 2560.31 120.261 2562.19 121.21 2564.55C123.103 2569.27 123.936 2575.54 124.112 2579.89L125.804 2579.82ZM115.449 2598.98C116.582 2598.93 119.448 2598.82 121.893 2596.24C124.323 2593.67 126.169 2588.85 125.804 2579.82L124.112 2579.89C124.469 2588.72 122.639 2592.99 120.664 2595.07C118.704 2597.14 116.438 2597.24 115.38 2597.28L115.449 2598.98ZM115.246 2598.98C115.302 2598.98 115.368 2598.98 115.449 2598.98L115.38 2597.28C115.302 2597.29 115.224 2597.29 115.154 2597.29L115.246 2598.98ZM108.649 2587.82C107.412 2592.04 108.437 2594.91 110.175 2596.69C111.02 2597.56 112.005 2598.15 112.9 2598.5C113.778 2598.86 114.634 2599.02 115.246 2598.98L115.154 2597.29C114.862 2597.31 114.259 2597.22 113.529 2596.93C112.816 2596.65 112.042 2596.19 111.389 2595.51C110.127 2594.22 109.187 2592 110.273 2588.3L108.649 2587.82ZM108.687 2587.7L108.649 2587.82L110.273 2588.3L110.311 2588.17L108.687 2587.7ZM110.489 2574.69C111.09 2575.94 111.231 2577.21 110.923 2579.16C110.608 2581.15 109.842 2583.77 108.687 2587.7L110.311 2588.17C111.452 2584.29 112.259 2581.55 112.595 2579.42C112.939 2577.25 112.808 2575.61 112.017 2573.95L110.489 2574.69ZM65.0212 2549.47C71.0977 2544.2 76.4149 2543.13 80.4066 2543.77C84.449 2544.42 87.2217 2546.83 88.206 2548.64L89.6931 2547.83C88.4422 2545.53 85.2017 2542.83 80.6754 2542.1C76.0985 2541.37 70.2915 2542.65 63.911 2548.2L65.0212 2549.47ZM51.5049 2571.18C53.0578 2565.52 54.5544 2561.75 56.582 2558.58C58.6095 2555.41 61.1995 2552.79 65.0212 2549.47L63.911 2548.2C60.0509 2551.55 57.3152 2554.29 55.1559 2557.67C52.9967 2561.04 51.4453 2565 49.872 2570.73L51.5049 2571.18ZM63.1529 2577.26C62.3098 2578.52 60.9266 2579.56 59.3474 2580.2C57.7674 2580.84 56.0682 2581.05 54.6287 2580.74C53.2148 2580.43 52.0544 2579.62 51.4167 2578.19C50.7637 2576.72 50.6052 2574.46 51.5049 2571.18L49.872 2570.73C48.916 2574.22 48.9982 2576.91 49.8693 2578.87C50.7556 2580.87 52.4027 2581.98 54.2672 2582.39C56.1061 2582.79 58.1559 2582.51 59.9831 2581.77C61.8111 2581.03 63.493 2579.8 64.5605 2578.2L63.1529 2577.26ZM66.7801 2570.94C65.5908 2573.23 64.6706 2574.99 63.1529 2577.26L64.5605 2578.2C66.1348 2575.85 67.0923 2574.01 68.2819 2571.72L66.7801 2570.94ZM66.7859 2570.93L66.7859 2570.93L68.2762 2571.73L68.2763 2571.73L66.7859 2570.93ZM71.6128 2562.23C69.2796 2566.14 67.9135 2568.76 66.7802 2570.94L68.282 2571.72C69.4104 2569.56 70.7589 2566.97 73.0672 2563.09L71.6128 2562.23ZM80.4566 2556.8C77.4081 2557.6 73.8273 2558.51 71.6128 2562.23L73.0672 2563.09C74.8843 2560.04 77.7721 2559.26 80.8869 2558.44L80.4566 2556.8ZM88.1032 2548.21C88.0243 2551.68 87.0606 2553.49 85.7731 2554.59C84.4232 2555.74 82.5992 2556.24 80.4566 2556.8L80.8869 2558.44C82.9422 2557.9 85.1745 2557.33 86.8727 2555.88C88.6334 2554.37 89.7096 2552.04 89.7959 2548.25L88.1032 2548.21ZM85.4118 2580.54C86.7224 2581.28 88.5103 2582.46 89.7541 2584.84C90.9997 2587.23 91.7584 2590.94 90.7545 2596.86L92.4238 2597.15C93.4703 2590.97 92.7182 2586.86 91.2552 2584.06C89.7905 2581.25 87.6722 2579.87 86.2422 2579.07L85.4118 2580.54ZM77.9171 2583.1C79.0948 2582.18 80.0942 2581.45 81.2659 2581.01C82.4162 2580.57 83.7886 2580.38 85.713 2580.64L85.941 2578.97C83.7821 2578.67 82.1185 2578.87 80.6636 2579.43C79.2301 2579.97 78.0551 2580.84 76.8727 2581.77L77.9171 2583.1ZM76.5701 2591.16C76.5195 2589.07 76.4795 2587.32 76.6681 2585.91C76.8564 2584.5 77.2518 2583.62 77.9171 2583.1L76.8727 2581.77C75.6905 2582.69 75.2003 2584.12 74.99 2585.68C74.7798 2587.25 74.828 2589.15 74.8775 2591.2L76.5701 2591.16ZM76.6186 2594.85C76.6279 2593.55 76.5979 2592.31 76.5701 2591.16L74.8775 2591.2C74.9053 2592.35 74.9346 2593.56 74.9255 2594.83L76.6186 2594.85ZM76.933 2611.69C75.8187 2611.58 74.9623 2611.02 74.3388 2610.08C73.6997 2609.12 73.3036 2607.75 73.2152 2606.12C73.0383 2602.85 74.1068 2598.75 76.4692 2595.32L75.075 2594.36C72.5107 2598.08 71.3264 2602.55 71.5245 2606.21C71.6235 2608.04 72.0719 2609.73 72.9285 2611.02C73.8006 2612.33 75.091 2613.21 76.7692 2613.38L76.933 2611.69ZM90.7545 2596.86C89.4881 2604.33 87.2567 2608.1 84.8354 2609.97C82.4302 2611.83 79.6606 2611.96 76.933 2611.69L76.7692 2613.38C79.6263 2613.66 82.9442 2613.57 85.8711 2611.31C88.7819 2609.06 91.1271 2604.79 92.4238 2597.15L90.7545 2596.86Z" fill="#FFFACC"/>
</g>
<path fill-rule="evenodd" clip-rule="evenodd" d="M132.849 2725.56C155.623 2760.75 205.816 2758.69 228.065 2753.25C264.472 2740.9 301.706 2761.95 318.699 2781.07C328.832 2789.78 346.649 2808.35 336.849 2812.94C329.119 2816.56 314.193 2802.77 302.207 2791.7C295.201 2785.23 289.198 2779.68 286.225 2779.09C282.14 2778.27 282.769 2781.38 283.527 2785.14C284.264 2788.8 285.124 2793.06 281.889 2794.9C275.376 2798.61 269.469 2793.72 251.573 2778.9L251.175 2778.57C236.609 2766.51 207.265 2775.03 194.413 2780.8C193.877 2781.01 193.309 2781.23 192.712 2781.46C176.138 2787.97 136.318 2803.59 87.1546 2778.27C41.3791 2754.71 21.569 2680.74 19.2816 2642.22C15.6222 2628.17 8.72396 2595.79 15.7694 2570.67C22.2914 2547.43 31.2962 2555.12 35.3114 2564.03C31.9576 2575.44 28.5375 2590.12 28.7481 2594.01C28.9763 2598.22 30.3834 2596.55 30.3882 2593.07C30.3925 2590 33.8118 2575.37 36.115 2566.01C36.1362 2566.07 36.1572 2566.13 36.1779 2566.19C39.3667 2549.99 56.6114 2519.79 100.079 2528.55C143.489 2537.3 135.448 2596.08 125.971 2624.5C121.619 2623.82 112.892 2631.81 110.027 2638.64C108.048 2642.25 105.521 2655.79 106.387 2658.4C106.964 2660.14 106.972 2659.95 107.04 2658.29C107.163 2655.3 107.482 2647.55 111.667 2637.7C114.217 2631.7 122.938 2623.75 126.956 2625.28C137.047 2632.26 138.794 2645.48 136.158 2655.09C135.57 2657.24 133.755 2659.69 131.556 2662.66C123.57 2673.45 110.527 2691.07 132.849 2725.56ZM111.253 2574.32C105.066 2561.4 108.955 2559.39 112.413 2557.83C121.595 2554.34 124.602 2571.06 124.958 2579.86C125.68 2597.71 117.605 2598.04 115.415 2598.13C115.335 2598.13 115.263 2598.14 115.2 2598.14C113.394 2598.24 107.137 2595.97 109.461 2588.06L109.499 2587.94C111.795 2580.13 112.646 2577.23 111.253 2574.32ZM88.9495 2548.23C86.7144 2544.13 76.9232 2538.02 64.4661 2548.84C56.7843 2555.51 53.8147 2559.56 50.6884 2570.96C46.9772 2584.49 60.0356 2583.45 63.8567 2577.73C65.4027 2575.42 66.3416 2573.62 67.531 2571.33L67.5311 2571.33C68.6619 2569.16 70.0193 2566.55 72.34 2562.66C74.3558 2559.28 77.5901 2558.43 80.6718 2557.62C84.8697 2556.52 88.7843 2555.49 88.9495 2548.23ZM91.5891 2597C93.6395 2584.91 88.5676 2581.35 85.827 2579.8C81.7437 2579.25 79.755 2580.58 77.3949 2582.43C75.5474 2583.88 75.6237 2587.04 75.7238 2591.18C75.7516 2592.33 75.7812 2593.56 75.7721 2594.84C70.8455 2601.99 71.2663 2611.99 76.8511 2612.54C82.4358 2613.08 89.0261 2612.12 91.5891 2597Z" fill="#905C3F" fill-opacity="0.5"/>
<g filter="url(#filter2_f_194_380)">
<path d="M1207.38 2339.42L1207.8 2338.68L1207.75 2338.66L1207.7 2338.64L1207.38 2339.42ZM1149.73 2295.13L1150.48 2294.74L1149.73 2295.13ZM1253.84 2369.73L1253.29 2370.38L1253.32 2370.4L1253.34 2370.42L1253.84 2369.73ZM1242.99 2460.1L1243.34 2460.87L1242.99 2460.1ZM1226.75 2513.19L1226.2 2513.83L1226.75 2513.19ZM1232.52 2522.67L1233.15 2523.23L1233.25 2523.12L1233.3 2522.98L1232.52 2522.67ZM1206.57 2510.1L1207.29 2509.65L1207.24 2509.58L1207.18 2509.51L1206.57 2510.1ZM1212.85 2461.63L1212.26 2461.02L1212.25 2461.03L1212.24 2461.04L1212.85 2461.63ZM1215.21 2380.49L1215.85 2379.93L1215.21 2380.49ZM1172.98 2359.49L1172.15 2359.31L1171.95 2360.21L1172.87 2360.33L1172.98 2359.49ZM1170.95 2379.66L1170.47 2380.35L1170.95 2379.66ZM1158.37 2371.14L1158.84 2370.43L1158.83 2370.43L1158.37 2371.14ZM1158.37 2371.14L1157.9 2371.84L1157.91 2371.84L1157.91 2371.85L1158.37 2371.14ZM1158.37 2371.14L1158.84 2370.43L1158.84 2370.43L1158.37 2371.14ZM1158.37 2371.14L1157.87 2371.82L1157.89 2371.83L1157.9 2371.84L1158.37 2371.14ZM1158.37 2371.14L1158.87 2370.45L1158.86 2370.44L1158.84 2370.43L1158.37 2371.14ZM1111.44 2330.31L1112.21 2329.95L1111.44 2330.31ZM1091.61 2302.82L1092.26 2302.28L1091.61 2302.82ZM1061.71 2258.73L1060.94 2259.07L1061.71 2258.73ZM1085.05 2148.8L1085.24 2149.62L1085.05 2148.8ZM1135.08 2230.81L1134.55 2231.47L1136.01 2232.64L1135.93 2230.77L1135.08 2230.81ZM1126.34 2245.37L1125.5 2245.48L1125.5 2245.49L1125.5 2245.5L1126.34 2245.37ZM1127.03 2242.97L1127.87 2242.93L1127.03 2242.97ZM1130.96 2231.05L1130.52 2230.33L1130.96 2231.05ZM1134.54 2231.1L1134.36 2231.93L1134.37 2231.93L1134.54 2231.1ZM1135.29 2231.25L1135.64 2230.48L1135.52 2230.42L1135.4 2230.41L1135.29 2231.25ZM1144.18 2264.58L1145.03 2264.61L1145.03 2264.56L1145.03 2264.5L1144.18 2264.58ZM1144.18 2264.58L1143.34 2264.54L1143.34 2264.6L1143.34 2264.65L1144.18 2264.58ZM1067.94 2183.43L1067.15 2183.12L1067.94 2183.43ZM1067.53 2184.49L1068.31 2184.8L1068.31 2184.8L1067.53 2184.49ZM1080.92 2166.1L1080.76 2166.94L1080.76 2166.94L1080.92 2166.1ZM1081.03 2189.67L1080.24 2189.34L1081.03 2189.67ZM1066.77 2204.89L1067.27 2204.2L1067.27 2204.2L1066.77 2204.89ZM1066.71 2204.84L1066.21 2205.53L1066.22 2205.53L1066.71 2204.84ZM1066.65 2204.8L1067.15 2204.12L1067.15 2204.12L1066.65 2204.8ZM1112.54 2192.57L1113.35 2192.32L1112.54 2192.57ZM1100.92 2173.02L1101.11 2173.85L1101.11 2173.85L1100.92 2173.02ZM1109.97 2213.13L1109.47 2213.81L1109.63 2213.93L1109.82 2213.96L1109.97 2213.13ZM1101.22 2196.69L1102.04 2196.47L1102.03 2196.46L1101.22 2196.69ZM1101.22 2196.69L1100.4 2196.92L1100.4 2196.92L1101.22 2196.69ZM1100.31 2193.42L1099.49 2193.65L1099.49 2193.65L1100.31 2193.42ZM1086.95 2205.6L1086.67 2204.8L1086.67 2204.8L1086.95 2205.6ZM1082.59 2213.77L1081.75 2213.63L1082.59 2213.77ZM1093.38 2213.45L1094.21 2213.31L1093.38 2213.45ZM1088.95 2223.15L1088.86 2222.31L1088.95 2223.15ZM1207.7 2338.64C1176.65 2326.09 1158.15 2309.19 1150.48 2294.74L1148.98 2295.53C1156.9 2310.45 1175.79 2327.57 1207.07 2340.21L1207.7 2338.64ZM1254.39 2369.09C1240.45 2357.16 1228.85 2350.51 1207.8 2338.68L1206.97 2340.16C1228.03 2351.99 1239.49 2358.56 1253.29 2370.38L1254.39 2369.09ZM1243.34 2460.87C1260.21 2453.4 1271.04 2436.33 1273.64 2418.25C1276.23 2400.15 1270.59 2380.89 1254.34 2369.05L1253.34 2370.42C1268.99 2381.81 1274.49 2400.4 1271.96 2418.01C1269.43 2435.63 1258.89 2452.13 1242.65 2459.32L1243.34 2460.87ZM1227.31 2512.55C1225.7 2511.14 1223.82 2508.12 1222.45 2504.06C1221.08 2500.04 1220.25 2495.08 1220.64 2489.88C1221.42 2479.52 1227.07 2468.08 1243.34 2460.87L1242.65 2459.32C1225.8 2466.79 1219.78 2478.78 1218.95 2489.75C1218.54 2495.21 1219.41 2500.39 1220.84 2504.61C1222.26 2508.8 1224.27 2512.13 1226.2 2513.83L1227.31 2512.55ZM1233.3 2522.98C1233.66 2522.11 1233.52 2520.71 1232.69 2519.01C1231.84 2517.27 1230.2 2515.09 1227.31 2512.55L1226.2 2513.83C1228.97 2516.26 1230.44 2518.27 1231.17 2519.76C1231.91 2521.28 1231.82 2522.13 1231.73 2522.35L1233.3 2522.98ZM1205.85 2510.55C1208.44 2514.7 1212.87 2520.36 1217.79 2523.77C1220.25 2525.48 1222.91 2526.68 1225.57 2526.77C1228.27 2526.86 1230.88 2525.81 1233.15 2523.23L1231.88 2522.11C1229.91 2524.34 1227.78 2525.15 1225.63 2525.08C1223.42 2525 1221.08 2523.99 1218.76 2522.38C1214.1 2519.15 1209.81 2513.71 1207.29 2509.65L1205.85 2510.55ZM1212.24 2461.04C1207.72 2465.65 1201.97 2473.64 1199.43 2482.68C1196.87 2491.75 1197.53 2501.93 1205.96 2510.69L1207.18 2509.51C1199.27 2501.3 1198.62 2491.79 1201.06 2483.14C1203.51 2474.45 1209.07 2466.69 1213.45 2462.22L1212.24 2461.04ZM1214.58 2381.05C1229.42 2397.91 1232.09 2414.72 1229.45 2428.89C1226.81 2443.1 1218.81 2454.7 1212.26 2461.02L1213.44 2462.24C1220.19 2455.73 1228.39 2443.82 1231.11 2429.2C1233.84 2414.53 1231.04 2397.19 1215.85 2379.93L1214.58 2381.05ZM1173.8 2359.67C1174.16 2358.02 1175.01 2356.53 1176.45 2355.65C1177.88 2354.77 1180.04 2354.4 1183.18 2355.3C1189.54 2357.11 1199.57 2364 1214.58 2381.05L1215.85 2379.93C1200.82 2362.85 1190.51 2355.63 1183.65 2353.67C1180.19 2352.68 1177.51 2353.01 1175.57 2354.2C1173.63 2355.39 1172.57 2357.34 1172.15 2359.31L1173.8 2359.67ZM1170.47 2380.35C1173.34 2382.34 1175.74 2383.57 1177.73 2384.16C1179.72 2384.75 1181.38 2384.73 1182.68 2384.07C1184 2383.41 1184.77 2382.18 1185.15 2380.75C1185.52 2379.32 1185.52 2377.62 1185.26 2375.85C1184.74 2372.3 1183.16 2368.24 1181.02 2364.97C1179.95 2363.33 1178.73 2361.86 1177.4 2360.75C1176.09 2359.64 1174.62 2358.85 1173.09 2358.65L1172.87 2360.33C1173.98 2360.47 1175.15 2361.06 1176.32 2362.04C1177.48 2363.02 1178.6 2364.35 1179.6 2365.89C1181.62 2368.98 1183.11 2372.81 1183.58 2376.1C1183.82 2377.74 1183.8 2379.19 1183.51 2380.32C1183.22 2381.44 1182.68 2382.18 1181.92 2382.56C1181.15 2382.95 1179.97 2383.06 1178.21 2382.54C1176.46 2382.02 1174.22 2380.89 1171.44 2378.96L1170.47 2380.35ZM1157.9 2371.84C1162.19 2374.71 1166.43 2377.55 1170.47 2380.35L1171.44 2378.96C1167.38 2376.15 1163.13 2373.3 1158.84 2370.43L1157.9 2371.84ZM1157.91 2371.85L1157.91 2371.85L1158.83 2370.43L1158.83 2370.43L1157.91 2371.85ZM1157.9 2371.84L1157.9 2371.84L1158.84 2370.43L1158.84 2370.43L1157.9 2371.84ZM1157.9 2371.84L1157.9 2371.84L1158.84 2370.43L1158.84 2370.43L1157.9 2371.84ZM1157.87 2371.82L1157.87 2371.82L1158.87 2370.45L1158.87 2370.45L1157.87 2371.82ZM1110.68 2330.68C1114.06 2337.77 1120.99 2344.78 1129.46 2351.62C1137.94 2358.48 1148.06 2365.25 1157.9 2371.84L1158.84 2370.43C1148.99 2363.84 1138.93 2357.11 1130.52 2350.31C1122.09 2343.49 1115.41 2336.68 1112.21 2329.95L1110.68 2330.68ZM1090.97 2303.37C1099.07 2312.97 1106.37 2321.63 1110.68 2330.68L1112.21 2329.95C1107.78 2320.67 1100.32 2311.83 1092.26 2302.28L1090.97 2303.37ZM1060.94 2259.07C1068.8 2277.09 1080.52 2290.98 1090.97 2303.37L1092.26 2302.28C1081.8 2289.87 1070.24 2276.16 1062.49 2258.39L1060.94 2259.07ZM1084.86 2147.97C1072.72 2150.81 1064.24 2157.22 1058.62 2165.76C1053.01 2174.27 1050.26 2184.84 1049.45 2195.99C1047.84 2218.28 1053.98 2243.12 1060.94 2259.07L1062.49 2258.39C1055.61 2242.63 1049.55 2218.07 1051.14 2196.12C1051.93 2185.14 1054.63 2174.88 1060.03 2166.69C1065.42 2158.52 1073.52 2152.36 1085.24 2149.62L1084.86 2147.97ZM1135.93 2230.77C1135.27 2216.2 1131.78 2193.47 1123.89 2175.41C1119.95 2166.38 1114.88 2158.45 1108.45 2153.3C1101.98 2148.13 1094.16 2145.79 1084.86 2147.97L1085.24 2149.62C1094 2147.57 1101.29 2149.75 1107.39 2154.63C1113.52 2159.53 1118.45 2167.18 1122.34 2176.09C1130.11 2193.9 1133.58 2216.4 1134.24 2230.85L1135.93 2230.77ZM1127.18 2245.26C1126.24 2238.18 1127.47 2234.06 1129.17 2232.09C1130.01 2231.12 1130.96 2230.67 1131.87 2230.59C1132.78 2230.51 1133.73 2230.81 1134.55 2231.47L1135.61 2230.15C1134.48 2229.24 1133.12 2228.79 1131.73 2228.9C1130.33 2229.02 1128.98 2229.72 1127.89 2230.98C1125.72 2233.49 1124.53 2238.21 1125.5 2245.48L1127.18 2245.26ZM1126.18 2243.01C1126.24 2244.28 1126.24 2245.12 1126.21 2245.66C1126.19 2245.93 1126.17 2246.1 1126.15 2246.19C1126.14 2246.24 1126.13 2246.24 1126.14 2246.22C1126.14 2246.21 1126.19 2246.11 1126.31 2246C1126.47 2245.86 1126.73 2245.77 1127 2245.85C1127.22 2245.9 1127.33 2246.03 1127.36 2246.06C1127.41 2246.12 1127.41 2246.14 1127.37 2246.04C1127.3 2245.87 1127.23 2245.58 1127.17 2245.24L1125.5 2245.5C1125.56 2245.91 1125.66 2246.33 1125.79 2246.65C1125.84 2246.79 1125.93 2247 1126.08 2247.17C1126.15 2247.25 1126.32 2247.42 1126.58 2247.48C1126.9 2247.57 1127.2 2247.47 1127.41 2247.29C1127.57 2247.15 1127.66 2246.98 1127.7 2246.88C1127.75 2246.77 1127.78 2246.66 1127.8 2246.55C1127.85 2246.34 1127.88 2246.08 1127.9 2245.77C1127.93 2245.14 1127.93 2244.22 1127.87 2242.93L1126.18 2243.01ZM1130.52 2230.33C1128.47 2231.57 1127.35 2233.78 1126.77 2236.08C1126.18 2238.39 1126.09 2240.92 1126.18 2243.01L1127.87 2242.93C1127.78 2240.93 1127.88 2238.58 1128.41 2236.49C1128.94 2234.4 1129.89 2232.69 1131.4 2231.78L1130.52 2230.33ZM1134.72 2230.27C1134.19 2230.16 1133.46 2230 1132.74 2229.95C1132.06 2229.89 1131.2 2229.92 1130.52 2230.33L1131.4 2231.78C1131.6 2231.65 1132 2231.59 1132.61 2231.63C1133.2 2231.68 1133.82 2231.81 1134.36 2231.93L1134.72 2230.27ZM1135.4 2230.41C1135.26 2230.39 1135.04 2230.34 1134.72 2230.27L1134.37 2231.93C1134.65 2231.99 1134.95 2232.06 1135.18 2232.09L1135.4 2230.41ZM1145.03 2264.5C1144.34 2256.83 1143.66 2249.13 1142.37 2243.01C1141.72 2239.94 1140.91 2237.23 1139.85 2235.08C1138.79 2232.95 1137.44 2231.28 1135.64 2230.48L1134.94 2232.02C1136.23 2232.6 1137.36 2233.86 1138.33 2235.83C1139.3 2237.8 1140.08 2240.36 1140.71 2243.36C1141.98 2249.36 1142.66 2256.95 1143.34 2264.65L1145.03 2264.5ZM1145.03 2264.61L1145.03 2264.61L1143.34 2264.54L1143.34 2264.54L1145.03 2264.61ZM1150.48 2294.74C1148.85 2291.67 1147.75 2287.15 1146.92 2281.83C1146.1 2276.53 1145.56 2270.52 1145.03 2264.5L1143.34 2264.65C1143.87 2270.65 1144.41 2276.72 1145.25 2282.09C1146.08 2287.44 1147.21 2292.19 1148.98 2295.53L1150.48 2294.74ZM1067.15 2183.12C1067 2183.5 1066.87 2183.85 1066.74 2184.18L1068.31 2184.8C1068.44 2184.47 1068.58 2184.11 1068.73 2183.74L1067.15 2183.12ZM1081.07 2165.27C1079.27 2164.94 1077.63 2165.67 1076.22 2166.86C1074.81 2168.04 1073.54 2169.76 1072.41 2171.64C1070.15 2175.42 1068.33 2180.08 1067.15 2183.12L1068.73 2183.74C1069.92 2180.67 1071.69 2176.14 1073.86 2172.51C1074.95 2170.7 1076.11 2169.16 1077.31 2168.15C1078.51 2167.15 1079.65 2166.73 1080.76 2166.94L1081.07 2165.27ZM1081.81 2189.99C1084.49 2183.58 1086.05 2177.85 1086.13 2173.54C1086.18 2171.38 1085.85 2169.5 1085.03 2168.05C1084.19 2166.56 1082.86 2165.6 1081.07 2165.27L1080.76 2166.94C1082.06 2167.17 1082.96 2167.84 1083.55 2168.88C1084.17 2169.96 1084.48 2171.51 1084.44 2173.51C1084.37 2177.5 1082.9 2182.99 1080.24 2189.34L1081.81 2189.99ZM1066.35 2205.63C1067.54 2206.49 1068.85 2206.76 1070.21 2206.39C1071.53 2206.03 1072.8 2205.1 1074.05 2203.75C1076.53 2201.05 1079.13 2196.4 1081.81 2189.99L1080.24 2189.34C1077.59 2195.71 1075.08 2200.13 1072.8 2202.6C1071.66 2203.84 1070.65 2204.51 1069.77 2204.75C1068.93 2204.98 1068.15 2204.84 1067.35 2204.26L1066.35 2205.63ZM1066.27 2205.57C1066.3 2205.59 1066.33 2205.61 1066.35 2205.63L1067.35 2204.26C1067.32 2204.24 1067.29 2204.22 1067.27 2204.2L1066.27 2205.57ZM1066.22 2205.53C1066.23 2205.54 1066.25 2205.56 1066.27 2205.57L1067.27 2204.2C1067.25 2204.19 1067.23 2204.17 1067.21 2204.16L1066.22 2205.53ZM1066.16 2205.49L1066.21 2205.53L1067.21 2204.16L1067.15 2204.12L1066.16 2205.49ZM1066.74 2184.18C1063.52 2192.35 1062.62 2197.15 1062.93 2200.18C1063.08 2201.73 1063.55 2202.84 1064.18 2203.69C1064.8 2204.52 1065.56 2205.05 1066.16 2205.49L1067.15 2204.12C1066.53 2203.67 1065.98 2203.27 1065.54 2202.67C1065.1 2202.09 1064.74 2201.29 1064.61 2200.02C1064.35 2197.41 1065.11 2192.93 1068.31 2184.8L1066.74 2184.18ZM1113.35 2192.32C1110.84 2184.06 1108.93 2178.84 1107.11 2175.8C1106.2 2174.27 1105.25 2173.2 1104.18 2172.61C1103.07 2171.99 1101.92 2171.92 1100.73 2172.2L1101.11 2173.85C1101.98 2173.64 1102.69 2173.71 1103.36 2174.09C1104.06 2174.48 1104.82 2175.26 1105.66 2176.67C1107.36 2179.5 1109.21 2184.53 1111.73 2192.82L1113.35 2192.32ZM1109.82 2213.96C1111.85 2214.32 1114.06 2212.86 1115.04 2209.49C1116.02 2206.12 1115.89 2200.66 1113.35 2192.32L1111.73 2192.82C1114.24 2201.03 1114.26 2206.11 1113.42 2209.01C1112.57 2211.91 1110.98 2212.45 1110.12 2212.3L1109.82 2213.96ZM1100.4 2196.92C1101.64 2201.4 1102.54 2204.64 1103.79 2207.23C1105.08 2209.87 1106.74 2211.82 1109.47 2213.81L1110.47 2212.45C1107.94 2210.6 1106.47 2208.85 1105.32 2206.49C1104.14 2204.07 1103.29 2201.01 1102.04 2196.47L1100.4 2196.92ZM1100.4 2196.92L1100.4 2196.92L1102.03 2196.46L1102.03 2196.46L1100.4 2196.92ZM1099.49 2193.65C1099.82 2194.82 1100.12 2195.9 1100.4 2196.92L1102.03 2196.47C1101.75 2195.45 1101.45 2194.36 1101.12 2193.19L1099.49 2193.65ZM1100.73 2172.2C1099.6 2172.46 1098.57 2172.92 1097.81 2173.82C1097.05 2174.72 1096.65 2175.95 1096.54 2177.55C1096.33 2180.7 1097.25 2185.7 1099.49 2193.65L1101.12 2193.19C1098.88 2185.21 1098.04 2180.48 1098.23 2177.66C1098.32 2176.27 1098.66 2175.44 1099.1 2174.92C1099.54 2174.39 1100.18 2174.06 1101.11 2173.85L1100.73 2172.2ZM1086.67 2204.8C1084.05 2205.74 1082.65 2208.25 1081.75 2213.63L1083.42 2213.91C1084.31 2208.57 1085.58 2206.99 1087.24 2206.4L1086.67 2204.8ZM1094.21 2213.31C1093.78 2210.55 1092.64 2208.24 1091.29 2206.71C1090.62 2205.94 1089.87 2205.35 1089.09 2204.99C1088.32 2204.64 1087.47 2204.52 1086.67 2204.8L1087.24 2206.4C1087.51 2206.3 1087.89 2206.31 1088.39 2206.54C1088.9 2206.76 1089.46 2207.19 1090.02 2207.83C1091.14 2209.1 1092.15 2211.1 1092.54 2213.58L1094.21 2213.31ZM1089.04 2223.99C1090.51 2223.84 1091.7 2223.55 1092.61 2223.05C1093.55 2222.52 1094.16 2221.77 1094.49 2220.81C1094.81 2219.88 1094.85 2218.8 1094.77 2217.59C1094.69 2216.37 1094.47 2214.95 1094.21 2213.31L1092.54 2213.58C1092.8 2215.22 1093 2216.57 1093.08 2217.7C1093.15 2218.83 1093.1 2219.65 1092.89 2220.26C1092.7 2220.83 1092.36 2221.24 1091.78 2221.57C1091.16 2221.91 1090.24 2222.16 1088.86 2222.31L1089.04 2223.99ZM1081.75 2213.63C1081.38 2215.86 1081.53 2218.55 1082.61 2220.65C1083.15 2221.72 1083.94 2222.65 1085.03 2223.27C1086.12 2223.89 1087.46 2224.16 1089.04 2223.99L1088.86 2222.31C1087.58 2222.44 1086.61 2222.21 1085.86 2221.79C1085.12 2221.37 1084.54 2220.71 1084.12 2219.88C1083.26 2218.2 1083.09 2215.91 1083.42 2213.91L1081.75 2213.63Z" fill="#FFFACC"/>
</g>
<path fill-rule="evenodd" clip-rule="evenodd" d="M1149.73 2295.13C1157.53 2309.82 1176.22 2326.83 1207.38 2339.42C1228.44 2351.25 1239.97 2357.86 1253.84 2369.73C1285.74 2392.97 1276.11 2445.43 1242.99 2460.1C1209.87 2474.77 1219.67 2506.97 1226.75 2513.19C1232.42 2518.16 1232.96 2521.58 1232.52 2522.67C1224.02 2532.31 1211.68 2518.31 1206.57 2510.1C1190.22 2493.13 1203.94 2470.71 1212.85 2461.63C1226.15 2448.8 1245.25 2414.61 1215.21 2380.49C1185.17 2346.36 1174.54 2352.27 1172.98 2359.49C1183.58 2360.88 1193.57 2395.34 1170.95 2379.66C1166.91 2376.85 1162.66 2374.01 1158.37 2371.14L1158.37 2371.14L1158.37 2371.14L1158.37 2371.14L1158.37 2371.14C1138.67 2357.95 1118.03 2344.14 1111.44 2330.31C1107.07 2321.15 1099.7 2312.4 1091.61 2302.82C1081.16 2290.42 1069.52 2276.63 1061.71 2258.73C1047.87 2227.01 1037.33 2159.96 1085.05 2148.8C1121.16 2140.35 1133.77 2201.79 1135.08 2230.81C1131.17 2227.68 1124.43 2231.03 1126.34 2245.37C1126.57 2246.86 1127.26 2248.09 1127.03 2242.97C1126.84 2238.88 1127.4 2233.21 1130.96 2231.05C1131.84 2230.52 1133.47 2230.87 1134.54 2231.1C1134.85 2231.17 1135.1 2231.22 1135.29 2231.25C1141.46 2234.01 1142.82 2249.2 1144.18 2264.58L1144.18 2264.58C1145.25 2276.59 1146.33 2288.73 1149.73 2295.13ZM1067.53 2184.49C1067.65 2184.16 1067.79 2183.81 1067.94 2183.43C1070.32 2177.32 1075.1 2165.04 1080.92 2166.1C1087.1 2167.23 1086.36 2176.9 1081.03 2189.67C1075.69 2202.43 1070.81 2207.83 1066.85 2204.94C1066.82 2204.92 1066.8 2204.9 1066.77 2204.89C1066.75 2204.87 1066.73 2204.86 1066.71 2204.84L1066.65 2204.8C1064.21 2203.04 1061.11 2200.8 1067.53 2184.49ZM1100.92 2173.02C1105.05 2172.07 1107.5 2176.02 1112.54 2192.57C1117.59 2209.12 1112.85 2213.64 1109.97 2213.13C1104.7 2209.29 1103.72 2205.72 1101.22 2196.69L1101.22 2196.69C1100.94 2195.67 1100.64 2194.59 1100.31 2193.42C1095.82 2177.49 1096.8 2173.98 1100.92 2173.02ZM1082.59 2213.77C1083.48 2208.41 1084.81 2206.36 1086.95 2205.6C1089.09 2204.84 1092.55 2208.2 1093.38 2213.45C1094.41 2220 1094.66 2222.56 1088.95 2223.15C1083.24 2223.74 1081.88 2218 1082.59 2213.77Z" fill="#B07350" fill-opacity="0.5"/>
<path d="M1488.25 212.619H422.378L-26.1001 648.256L-38.9419 734.101L135.905 689.205L241.11 621.121L342.857 678.351L422.378 631.975L498.441 472.62L621.427 454.366L772.072 364.574L909.875 407.003L989.396 295.997L1339.58 336.452L1454.17 407.003L1488.25 364.574V212.619Z" fill="#232A2A"/>
<path d="M1488.25 178.757H422.378L-26.1001 615.808L-38.9419 701.931L135.905 656.89L241.11 588.585L342.857 646.001L422.378 599.474L498.441 439.602L621.427 421.288L772.072 331.205L909.875 373.772L989.396 262.405L1339.58 302.992L1454.17 373.772L1488.25 331.205V178.757Z" fill="#343F3F"/>
<path d="M1488.25 117.747L1260.02 50.0801L816.38 164.552L422.135 117.747L188.466 269.719H-69.4181L-39.2899 639.286L135.597 594.386L240.826 526.294L342.596 583.531L422.135 537.15L498.216 377.777L621.23 359.52L771.909 269.719L909.744 312.153L989.283 201.134L1339.55 241.594L1454.17 312.153L1488.25 269.719V117.747Z" fill="#6A7D7D"/>
<g filter="url(#filter3_f_194_380)">
<path d="M396.065 1321.79L396.017 1322.63L396.065 1321.79ZM369.607 1311.9L369.195 1312.64L369.195 1312.64L369.607 1311.9ZM452.798 1311.07L452.525 1310.27L452.798 1311.07ZM513.534 1311.86L514.085 1311.22L514.085 1311.22L513.534 1311.86ZM519.2 1374.11L519.058 1374.94L519.594 1375.03L519.9 1374.59L519.2 1374.11ZM518.832 1374.06L518.924 1373.22L518.924 1373.22L518.832 1374.06ZM514.441 1374.6L514.171 1373.79L514.453 1375.44L514.441 1374.6ZM522.247 1375.48L522.079 1376.31L525.073 1376.92L522.818 1374.86L522.247 1375.48ZM522.238 1375.48L522.42 1374.65L519.299 1373.96L521.67 1376.1L522.238 1375.48ZM538.793 1387.16L539.608 1386.93L538.793 1387.16ZM504.316 1392.41L503.978 1393.18L504.316 1392.41ZM495.717 1388.64L495.376 1389.41L495.717 1388.64ZM461.517 1376.94L461.578 1376.1L461.517 1376.94ZM454.718 1376.88L454.737 1377.73L454.718 1376.88ZM422.276 1367.64L422.723 1366.92L422.276 1367.64ZM416.518 1362.41L417.14 1361.83L416.518 1362.41ZM414.476 1360.25L415.077 1359.65L414.476 1360.25ZM384.35 1339.55L384.757 1338.81L384.35 1339.55ZM365.986 1322.01L366.736 1321.62L365.986 1322.01ZM357.337 1310.68L357.286 1309.84L354.59 1310L356.896 1311.41L357.337 1310.68ZM366.415 1310.14L366.818 1309.4L366.606 1309.28L366.365 1309.3L366.415 1310.14ZM396.113 1320.94C386.692 1320.41 377.58 1315.36 370.018 1311.16L369.195 1312.64C376.686 1316.8 386.141 1322.07 396.017 1322.63L396.113 1320.94ZM452.525 1310.27C427.375 1318.83 409.786 1321.72 396.113 1320.94L396.017 1322.63C410 1323.43 427.825 1320.47 453.071 1311.87L452.525 1310.27ZM514.085 1311.22C506.456 1304.68 497.348 1302.3 487.016 1302.63C476.71 1302.95 465.144 1305.97 452.525 1310.27L453.071 1311.87C465.65 1307.59 477.022 1304.64 487.069 1304.32C497.091 1304 505.752 1306.31 512.983 1312.5L514.085 1311.22ZM519.9 1374.59C530.504 1359.03 532.875 1346.39 530.608 1335.97C528.348 1325.58 521.512 1317.58 514.085 1311.22L512.983 1312.5C520.294 1318.76 526.808 1326.46 528.954 1336.33C531.094 1346.17 528.929 1358.34 518.501 1373.63L519.9 1374.59ZM519.342 1373.27C519.206 1373.25 519.066 1373.23 518.924 1373.22L518.74 1374.9C518.848 1374.91 518.954 1374.93 519.058 1374.94L519.342 1373.27ZM518.924 1373.22C517.067 1373.01 514.989 1373.52 514.171 1373.79L514.711 1375.4C515.417 1375.16 517.228 1374.73 518.74 1374.9L518.924 1373.22ZM514.453 1375.44C516.913 1375.41 520.553 1376 522.079 1376.31L522.415 1374.65C520.866 1374.34 517.079 1373.71 514.429 1373.75L514.453 1375.44ZM522.818 1374.86C522.814 1374.85 522.809 1374.85 522.806 1374.85L521.67 1376.1C521.673 1376.11 521.674 1376.11 521.676 1376.11L522.818 1374.86ZM539.608 1386.93C538.56 1383.21 535.759 1380.48 532.53 1378.52C529.297 1376.57 525.547 1375.34 522.42 1374.65L522.056 1376.3C525.068 1376.97 528.628 1378.14 531.654 1379.97C534.685 1381.81 537.092 1384.24 537.979 1387.39L539.608 1386.93ZM503.978 1393.18C515.491 1398.2 525.034 1399.56 531.404 1398.26C534.593 1397.61 537.071 1396.27 538.543 1394.29C540.035 1392.28 540.402 1389.74 539.608 1386.93L537.979 1387.39C538.657 1389.79 538.308 1391.77 537.184 1393.28C536.042 1394.82 534.004 1396 531.065 1396.6C525.177 1397.81 516.011 1396.58 504.654 1391.63L503.978 1393.18ZM495.376 1389.41C498.019 1390.58 500.875 1391.83 503.978 1393.18L504.654 1391.63C501.554 1390.28 498.701 1389.03 496.057 1387.86L495.376 1389.41ZM461.456 1377.79C470.366 1378.43 478.48 1381.98 495.376 1389.41L496.057 1387.86C479.266 1380.48 470.846 1376.77 461.578 1376.1L461.456 1377.79ZM454.737 1377.73C457.019 1377.67 459.202 1377.62 461.456 1377.79L461.578 1376.1C459.23 1375.93 456.968 1375.98 454.698 1376.03L454.737 1377.73ZM421.829 1368.36C429.647 1373.21 435.815 1375.61 441.082 1376.77C446.348 1377.92 450.673 1377.82 454.737 1377.73L454.698 1376.03C450.636 1376.13 446.492 1376.22 441.445 1375.11C436.4 1374.01 430.41 1371.7 422.723 1366.92L421.829 1368.36ZM415.896 1362.98C417.683 1364.91 419.547 1366.94 421.829 1368.36L422.723 1366.92C420.669 1365.64 418.958 1363.8 417.14 1361.83L415.896 1362.98ZM413.875 1360.84C414.559 1361.53 415.222 1362.25 415.896 1362.98L417.14 1361.83C416.47 1361.11 415.786 1360.36 415.077 1359.65L413.875 1360.84ZM383.942 1340.29C393.362 1345.47 404.942 1351.83 413.875 1360.84L415.077 1359.65C405.944 1350.44 394.144 1343.96 384.757 1338.81L383.942 1340.29ZM375.562 1335.54C378.001 1337.03 380.86 1338.6 383.942 1340.29L384.757 1338.81C381.666 1337.11 378.844 1335.56 376.444 1334.09L375.562 1335.54ZM365.235 1322.41C367.727 1327.19 370.419 1332.4 375.562 1335.54L376.444 1334.09C371.768 1331.24 369.266 1326.48 366.736 1321.62L365.235 1322.41ZM356.896 1311.41C360.682 1313.72 362.858 1317.84 365.235 1322.41L366.736 1321.62C364.413 1317.16 362.04 1312.56 357.778 1309.96L356.896 1311.41ZM366.365 1309.3L357.286 1309.84L357.387 1311.53L366.465 1310.99L366.365 1309.3ZM370.018 1311.16C368.916 1310.55 367.846 1309.95 366.818 1309.4L366.012 1310.89C367.031 1311.44 368.091 1312.03 369.195 1312.64L370.018 1311.16Z" fill="#232A2A"/>
</g>
<path fill-rule="evenodd" clip-rule="evenodd" d="M372.215 1312.9C379.155 1316.86 386.879 1321.27 396.065 1321.79C409.893 1322.57 427.6 1319.65 452.798 1311.07C477.996 1302.49 498.674 1299.13 513.534 1311.86C528.272 1324.48 540.233 1343.26 519.2 1374.11C519.08 1374.09 518.957 1374.07 518.832 1374.06C517.148 1373.87 515.203 1374.34 514.441 1374.6C516.996 1374.56 520.71 1375.17 522.247 1375.48C522.244 1375.48 522.241 1375.48 522.238 1375.48C528.377 1376.83 536.858 1380.29 538.793 1387.16C541.736 1397.6 527.185 1402.37 504.316 1392.41C501.214 1391.06 498.36 1389.8 495.717 1388.64C478.873 1381.23 470.606 1377.6 461.517 1376.94C459.216 1376.77 456.994 1376.83 454.718 1376.88C446.591 1377.07 437.781 1377.27 422.276 1367.64C420.108 1366.29 418.32 1364.36 416.518 1362.41C415.846 1361.68 415.172 1360.95 414.476 1360.25C405.443 1351.14 393.753 1344.71 384.35 1339.55C381.263 1337.85 378.422 1336.29 376.003 1334.81C371.094 1331.82 368.497 1326.83 365.986 1322.01C363.636 1317.5 361.361 1313.14 357.337 1310.68L368.054 1310.57C369.412 1311.3 370.797 1312.09 372.215 1312.9Z" fill="#B16643" fill-opacity="0.5"/>
<path d="M486.647 1324.39C497.017 1320.68 501.113 1324.4 501.865 1326.72C503.04 1329.72 498.743 1332.68 496.448 1333.78C486.228 1338.8 480.82 1337.12 479.373 1334.93C477.927 1332.75 476.276 1328.1 486.647 1324.39Z" fill="#423337"/>
<path d="M505.749 1343.71C508.826 1335.94 513.712 1333.93 516.581 1334.68C521.631 1336.76 520.371 1342.41 519.524 1345.12C517.079 1352.95 511.574 1356.81 508.289 1355.9C505.004 1355 503.308 1349.87 505.749 1343.71Z" fill="#423337"/>
<path d="M483.144 1344.22C486.793 1340.86 491.998 1343.52 494.144 1345.28C502.039 1351.42 498.164 1355.05 496.845 1355.57C495.526 1356.1 489.425 1359.01 484.525 1355.04C481.184 1352.34 478.582 1348.42 483.144 1344.22Z" fill="#423337"/>
<path opacity="0.5" d="M468.842 1286.62C466.147 1286.4 463.482 1289.26 462.485 1290.72C459.55 1297.07 465.824 1294.61 469.044 1291.75C470.341 1290.59 471.961 1291.8 474.607 1291.16C477.253 1290.52 476.341 1287.28 474.459 1288.02C472.577 1288.76 472.209 1286.9 468.842 1286.62Z" fill="#B16643"/>
<path opacity="0.5" d="M393.232 1354.31C391.877 1353.63 390.69 1353.46 388.151 1354.31C384.765 1355.43 388.999 1358.54 390.692 1359.38C392.385 1360.23 396.618 1361.08 396.618 1359.38C396.618 1357.69 394.925 1355.15 393.232 1354.31Z" fill="#B16643"/>
<path opacity="0.5" d="M478.359 1292.69C477.792 1293.1 477.566 1293.53 477.854 1294.64C478.238 1296.13 480.638 1295.01 481.347 1294.5C482.055 1293.99 483.016 1292.5 481.936 1292.22C480.856 1291.94 479.067 1292.18 478.359 1292.69Z" fill="#B16643"/>
<path d="M430.053 1244.58L458.836 1193.78L424.127 1240.34C395.626 1246.27 337.778 1258.46 334.392 1259.81C330.159 1261.51 286.138 1305.53 277.672 1312.3C270.9 1317.72 229.7 1328.67 209.947 1333.47H229.418L277.672 1319.92L338.625 1267.43L430.053 1244.58Z" fill="#232A2A"/>
<path d="M1252.03 498.881L1134.22 456.223L1019.75 514.148L1038.77 640.338L974.362 694.781L1062.7 802.425L1126.91 776.166L1213.03 782.771L1363.77 772.096L1392.39 674.778L1252.03 498.881Z" fill="#222B2B"/>
<path d="M1231.43 448.772L1113.49 406.168L998.837 464.167L1017.82 590.374L975.375 697.263L1041.69 752.484L1106 726.185L1192.22 732.745L1343.17 721.988L1371.89 624.633L1231.43 448.772Z" fill="#374242"/>
<path d="M809.977 780.79L824.852 656.474L742.635 557.903L624.18 604.658L556.663 554.081L471.912 664.22L511.965 720.902L525.002 806.282L569.449 950.755L670.588 956.882L809.977 780.79Z" fill="#222B2B"/>
<path d="M846.167 738.973L861.041 614.656L778.825 516.086L660.369 562.841L546.87 545.495L508.101 622.403L548.155 679.085L561.191 764.465L605.639 908.938L706.777 915.065L846.167 738.973Z" fill="#374242"/>
<path d="M1044.12 712.499L1091.9 596.772L1039.24 479.712L912.571 492.865L807.926 445.617L749.892 509.254L773.214 574.624L762.793 660.362L742.774 749.255L767.219 809.027L862.481 844.585L1044.12 712.499Z" fill="#273131"/>
<path d="M1018.07 648.816L1065.85 533.088L1013.19 416.029L886.526 429.182L781.881 381.933L723.847 445.571L747.169 510.94L736.748 596.678L740.677 747.783L836.436 780.901L1018.07 648.816Z" fill="#4E6060"/>
<path d="M1184.95 983.178L1275.4 968.694L1328.25 891.069L1271.59 817.111L1261.01 733.776L1199.12 721.935L1167.28 761.49L1109.83 787.797L1046.73 809.325L1018.81 847.438L1033.09 920.448L1184.95 983.178Z" fill="#273131"/>
<path d="M1214.7 942.572L1305.15 928.089L1358 850.463L1301.33 776.505L1290.76 693.171L1228.87 681.33L1197.03 720.885L1139.58 747.191L1046.85 807.457L1062.84 879.843L1214.7 942.572Z" fill="#4E6060"/>
<path d="M489.106 1046.12L589.922 971.873L605.514 844.466L490.351 790.104L425.313 695.483L342.708 719.857L328.797 787.854L275.472 855.796L212.302 921.464L202.251 985.254L265.318 1065.02L489.106 1046.12Z" fill="#273131"/>
<path d="M499.817 978.153L600.633 903.91L616.225 776.503L501.062 722.141L436.024 627.521L353.419 651.895L339.508 719.891L286.183 787.833L211.273 919.122L276.029 997.052L499.817 978.153Z" fill="#4E6060"/>
<defs>
<filter id="filter0_f_194_380" x="707.54" y="2484.64" width="455.584" height="343.508" filterUnits="userSpaceOnUse" color-interpolation-filters="sRGB">
<feFlood flood-opacity="0" result="BackgroundImageFix"/>
<feBlend mode="normal" in="SourceGraphic" in2="BackgroundImageFix" result="shape"/>
<feGaussianBlur stdDeviation="3.38624" result="effect1_foregroundBlur_194_380"/>
</filter>
<filter id="filter1_f_194_380" x="5.10642" y="2519.37" width="342.211" height="301.778" filterUnits="userSpaceOnUse" color-interpolation-filters="sRGB">
<feFlood flood-opacity="0" result="BackgroundImageFix"/>
<feBlend mode="normal" in="SourceGraphic" in2="BackgroundImageFix" result="shape"/>
<feGaussianBlur stdDeviation="3.38624" result="effect1_foregroundBlur_194_380"/>
</filter>
<filter id="filter2_f_194_380" x="1042.42" y="2140.39" width="238.592" height="393.163" filterUnits="userSpaceOnUse" color-interpolation-filters="sRGB">
<feFlood flood-opacity="0" result="BackgroundImageFix"/>
<feBlend mode="normal" in="SourceGraphic" in2="BackgroundImageFix" result="shape"/>
<feGaussianBlur stdDeviation="3.38624" result="effect1_foregroundBlur_194_380"/>
</filter>
<filter id="filter3_f_194_380" x="347.817" y="1295.83" width="198.973" height="109.672" filterUnits="userSpaceOnUse" color-interpolation-filters="sRGB">
<feFlood flood-opacity="0" result="BackgroundImageFix"/>
<feBlend mode="normal" in="SourceGraphic" in2="BackgroundImageFix" result="shape"/>
<feGaussianBlur stdDeviation="3.38624" result="effect1_foregroundBlur_194_380"/>
</filter>
<linearGradient id="paint0_linear_194_380" x1="606.138" y1="581.72" x2="606.138" y2="2952.09" gradientUnits="userSpaceOnUse">
<stop offset="0.06022" stop-color="#343F3F"/>
<stop offset="0.506591" stop-color="#51242B"/>
</linearGradient>
<radialGradient id="paint1_radial_194_380" cx="0" cy="0" r="1" gradientUnits="userSpaceOnUse" gradientTransform="translate(656.602 2089.61) rotate(90) scale(689.254 745.278)">
<stop offset="0.24522" stop-color="#A25252"/>
<stop offset="0.45522" stop-color="#D08042"/>
<stop offset="0.81022" stop-color="#9E402B"/>
<stop offset="0.875" stop-color="#51242B"/>
</radialGradient>
<radialGradient id="paint2_radial_194_380" cx="0" cy="0" r="1" gradientUnits="userSpaceOnUse" gradientTransform="translate(656.602 2089.61) rotate(90) scale(689.254 745.278)">
<stop offset="0.24522" stop-color="#A25252"/>
<stop offset="0.45522" stop-color="#D08042"/>
<stop offset="0.81022" stop-color="#9E402B"/>
<stop offset="0.875" stop-color="#51242B"/>
</radialGradient>
<radialGradient id="paint3_radial_194_380" cx="0" cy="0" r="1" gradientUnits="userSpaceOnUse" gradientTransform="translate(656.602 2089.61) rotate(90) scale(689.254 745.278)">
<stop offset="0.24522" stop-color="#A25252"/>
<stop offset="0.45522" stop-color="#D08042"/>
<stop offset="0.81022" stop-color="#9E402B"/>
<stop offset="0.875" stop-color="#51242B"/>
</radialGradient>
<radialGradient id="paint4_radial_194_380" cx="0" cy="0" r="1" gradientUnits="userSpaceOnUse" gradientTransform="translate(656.602 2089.61) rotate(90) scale(689.254 745.278)">
<stop offset="0.24522" stop-color="#A25252"/>
<stop offset="0.45522" stop-color="#D08042"/>
<stop offset="0.81022" stop-color="#9E402B"/>
<stop offset="0.875" stop-color="#51242B"/>
</radialGradient>
<radialGradient id="paint5_radial_194_380" cx="0" cy="0" r="1" gradientUnits="userSpaceOnUse" gradientTransform="translate(656.602 2089.61) rotate(90) scale(689.254 745.278)">
<stop offset="0.24522" stop-color="#A25252"/>
<stop offset="0.45522" stop-color="#D08042"/>
<stop offset="0.81022" stop-color="#9E402B"/>
<stop offset="0.875" stop-color="#51242B"/>
</radialGradient>
<radialGradient id="paint6_radial_194_380" cx="0" cy="0" r="1" gradientUnits="userSpaceOnUse" gradientTransform="translate(648.371 2106.47) rotate(90) scale(405.98 452.725)">
<stop offset="0.24" stop-color="#F8EDA9" stop-opacity="0.8"/>
<stop offset="0.721667" stop-color="#D08042"/>
</radialGradient>
</defs>
</svg>
