<svg width="756" height="1705" viewBox="0 0 756 1705" fill="none" xmlns="http://www.w3.org/2000/svg">
<path d="M-41 343H757V1743H-41V343Z" fill="url(#paint0_linear_194_380)"/>
<path d="M253.145 365.975C-17.7955 385 721.295 29.0377 874.934 0L994 385H417.721C418.956 360.802 348.183 359.302 253.145 365.975Z" fill="#343F3F"/>
<path opacity="0.5" d="M162.927 638.364L133.08 650.147L111.592 664.172L118.113 688.782L112.022 710.912L126.388 720.403L153.284 740.034L174.895 716.875L177.509 689.31L230.483 664.594L195.336 641.437L162.927 638.364Z" fill="#273232"/>
<path opacity="0.5" d="M716.007 1026.79L732.051 1020.53L743.614 1013.05L740.166 999.826L743.481 987.961L735.791 982.837L721.396 972.244L709.749 984.628L708.287 999.417L679.804 1012.57L698.619 1025.07L716.007 1026.79Z" fill="#273232"/>
<path opacity="0.5" d="M71.5325 687.317L46.8288 701.635L46.527 721.544L65.1872 728.027L76.7806 741.548L89.1193 736.425L90.1424 725.707L97.2456 714.348L106.632 692.861L90.0868 664.314L71.5325 687.317Z" fill="#273232"/>
<path opacity="0.5" d="M57.1241 821.505L48.1311 843.822L26.123 845.923L17.1665 864.906L32.26 879.255L37.5052 897.283L51.582 897.736L57.2299 887.891L68.995 880.077L87.361 863.533L83.9028 828.922L57.1241 821.505Z" fill="#273232"/>
<path opacity="0.5" d="M214.376 578.763L203.198 583.827L194.341 576.85L184.351 580.697L184.864 591.305L180.448 599.802L185.48 604.928L191.031 603.286L198.123 604.548L210.724 604.915L221.64 590.932L214.376 578.763Z" fill="#273232"/>
<path opacity="0.5" d="M330.446 1050.54L314.313 1052.8L305.65 1040.59L291.486 1041.75L288.162 1055.45L279.353 1064.61L283.841 1073.03L291.525 1073.02L300.083 1077.28L315.992 1082.48L335.135 1068.76L330.446 1050.54Z" fill="#273232"/>
<path opacity="0.5" d="M698.516 966.396L708.057 953.239L722.826 955.457L731.798 944.478L724.249 932.607L723.757 919.934L714.604 917.337L709.294 922.867L700.306 926.066L685.565 933.909L682.176 957.16L698.516 966.396Z" fill="#273232"/>
<path d="M664.599 567.241L679.041 566.347L664.56 565.382C659.124 560.098 648.057 549.394 647.281 548.856C646.311 548.184 630.949 544.871 628.333 543.998C626.24 543.3 617.905 535.992 614 532.425L616.905 536.599L626.811 545.058L646.391 550.823L664.599 567.241Z" fill="#232A2A"/>
<path d="M80.5951 897.042C104.508 873.849 129.405 868.664 143.612 868.664C143.612 874.94 143.612 873.849 132.077 881.762C122.85 888.092 112.291 901.771 108.165 907.82C97.3339 930.604 119.418 915.324 129.405 904C136.447 896.015 155.341 888.026 165.555 891.448C167.852 886.582 174.023 876.25 180.324 873.849C193.93 868.664 216.474 865.936 211.692 868.664C206.909 871.393 177.37 885.855 177.37 891.448C177.37 897.042 182.434 897.042 180.324 899.907C178.214 902.772 165.836 905.773 141.642 924.737C122.287 939.908 124.013 946.339 127.295 947.658C144.737 942.091 137.751 954.07 132.077 960.755C118.855 969.486 126.029 980.128 139.954 966.621C151.095 955.816 187.17 933.196 203.815 923.237C224.633 914.46 273.696 895.678 303.404 890.766C333.111 885.855 345.977 888.72 348.697 890.766C342.733 890.439 319.205 895.723 308.186 898.406C286.018 906.592 286.29 910.185 289.197 910.958C315.782 906.865 304.529 909.866 289.197 919.826C276.931 927.793 285.493 927.602 291.307 926.511C327.175 918.871 377.532 911.913 433.094 916.551C488.655 921.19 528.181 930.877 549.984 946.703C567.426 959.363 595.793 967.349 607.796 969.759C611.622 964.084 586.884 943.656 574.037 934.151C552.516 921.827 506.21 897.178 493.156 897.178C480.103 897.178 477.027 895.086 477.121 894.04C483.423 888.474 528.322 893.813 549.984 897.178C535.355 890.63 529.729 884.081 531.698 881.898C533.667 879.715 543.513 877.532 585.712 897.178C627.91 916.824 644.087 932.514 643.243 934.151C642.399 935.788 637.898 935.925 622.143 927.875C609.54 921.436 612.578 929.376 615.673 934.151C652.104 967.986 655.902 986.267 651.682 988.86C647.463 991.452 640.289 988.86 631.427 986.267C624.338 984.194 625.754 987.131 627.348 988.86C651.729 1003.46 704.656 1036.64 721.31 1052.57C742.128 1072.49 778.137 1136.48 774.902 1131.84C771.667 1127.2 757.637 1105.68 753.803 1113.42C747.614 1125.92 774.34 1113.42 774.902 1224.34C775.074 1258.25 783.764 1252.72 786.718 1245.76C787.505 1235.06 779.122 1192.76 786.718 1192.76C807.958 1205.85 806.475 1254.85 810.586 1241.55C814.882 1227.66 815.36 1212.91 824.377 1229.09C829.723 1238.68 828.62 1276.56 824.377 1297.78C822.323 1308.05 816.263 1327.52 815.36 1329.87C813.757 1334.04 808.188 1338.19 806.078 1329.87C803.968 1321.54 809.19 1303.06 802.63 1308.39C799.992 1310.53 797.549 1322.84 796.705 1328.16C794.457 1342.33 782.217 1366.64 781.091 1363.5C779.966 1360.36 778.278 1357.36 779.122 1350.81C779.966 1344.26 777.715 1343.17 774.339 1344.81C771.639 1346.12 759.148 1392.83 747.614 1413.29C738.33 1429.48 721.169 1462.41 726.796 1464.59C733.829 1467.32 752.396 1445.76 755.209 1450.68C757.46 1454.61 754.272 1462.5 752.396 1465.96C744.969 1471.2 746.113 1474.87 747.614 1476.05C753.24 1472.56 757.179 1471.14 759.148 1474.69C761.117 1478.24 731 1527.68 729.65 1534.44C727.962 1542.9 719.763 1544.54 728.765 1527.35C737.767 1510.16 737.524 1499.37 731.297 1497.61C724.545 1495.7 716.949 1511.52 710.76 1508.25C704.571 1504.98 713.292 1490.51 709.354 1489.97C695.976 1488.11 705.978 1518.08 643.243 1560.64C622.114 1574.98 596.783 1587.33 524.483 1593.06C452.182 1598.79 453.968 1625.04 508.685 1625.04C563.403 1625.04 490.681 1649.05 438.917 1637.59C381.827 1624.95 350.666 1629.95 350.666 1617.4C350.666 1609.21 465.868 1594.92 397.935 1594.92C330.002 1594.92 257.909 1558.74 214.416 1548.13C166.415 1548.13 279.806 1582.47 284.049 1586.29C288.926 1590.68 242.692 1580.5 237.912 1586.29C233.411 1591.75 251.544 1610.72 284.049 1617.4C269.983 1621.22 229.5 1610.8 211.495 1607.53C200.758 1605.58 136.771 1588.94 139.456 1580.29C142.185 1571.5 191.291 1581.87 193.485 1576.47C196.383 1569.33 175.107 1576.47 139.456 1554.09C123.514 1544.09 103.439 1518.23 103.439 1525.72C103.439 1532.27 103.439 1538.58 110.988 1550C97.9348 1547.82 69.305 1519.71 58.9898 1509.89C40.9851 1490.61 4.0754 1452.48 0.47448 1454.23C-4.02666 1456.41 4.97563 1477.69 0.47448 1478.78C-3.12644 1479.66 -6.6524 1474.06 -7.96527 1471.14C-10.2159 1476.82 -3.27653 1493.88 0.47448 1501.71C-57.5907 1416.14 -56.3529 1373.28 -48.4759 1362.55C-36.7728 1404.89 -14.717 1429.67 -5.152 1436.76C-9.65318 1420.94 -1.21347 1409.48 18.4792 1431.31C34.2333 1448.77 44.1734 1449.5 47.1742 1447.68C46.7241 1439.38 27.8567 1410.02 18.4792 1396.38L13.978 1400.2C5.35076 1389.1 -13.3667 1356.32 -19.2182 1313.98C-25.0697 1271.63 -16.7801 1269.41 -11.9038 1273.59C0.24939 1295.86 3.2877 1295.97 3.28772 1293.24C-7.40259 1249.04 3.51241 1219.56 2.38712 1202.1C1.48688 1188.13 -4.36465 1196.28 -7.17789 1202.1C-16.7429 1204.28 -7.17789 1163.9 -11.6791 1163.35C-16.1803 1162.81 -21.2441 1177 -22.3694 1192.28C-23.2696 1204.5 -28.7461 1211.92 -31.3718 1214.11C-51.0644 1207.56 -25.7453 1137.71 -11.6791 1118.06C-0.426136 1102.34 0.136509 1111.51 -0.988789 1118.06C-17.6432 1145.13 -7.92811 1142.43 -0.988789 1137.7C15.8907 1097.32 65.9663 1055.85 71.0301 1051.48C75.0812 1047.99 80.9702 1042.39 83.4083 1040.02C109.515 1028.67 106.289 1023.29 101.413 1022.01C76.0939 1027.47 59.2145 1047.66 54.1507 1043.84C50.0996 1040.78 70.0923 1024.38 80.5951 1016.55C84.6461 1009.57 96.1617 1001.27 101.413 998C116.042 973.989 101.413 976.171 96.3492 976.717C91.2854 977.263 71.0301 994.726 65.9663 991.452C61.9152 988.832 70.655 972.897 75.5313 965.257C70.4675 965.257 27.1436 1007.82 22.6424 1006.73C19.0415 1005.86 21.142 1002.73 22.6424 1001.27C23.0175 999.092 19.4915 1000.18 2.38706 1022.01C-14.7174 1043.84 -14.4923 1043.84 -17.8682 1040.02C-17.8682 1001.27 67.0915 910.139 80.5951 897.042Z" fill="url(#paint1_radial_194_380)"/>
<path d="M721.31 897.178C731.55 904.709 732.047 911.14 731.016 913.414C712.786 905.992 706.165 897.406 705.134 894.04C706.259 891.949 711.07 889.647 721.31 897.178Z" fill="url(#paint2_radial_194_380)"/>
<path d="M465.868 826.507C487.108 826.507 492.65 829.997 512.99 832.92C539.575 836.74 563.487 851.611 557.439 856.931C549.984 856.931 524.946 845.88 509.051 845.88C505.113 845.88 537.606 856.931 531.698 863.889C515.991 860.433 453.012 847.463 428.03 851.611C418.244 847.296 429.714 836.769 476.923 836.74C468.841 836.658 444.803 826.507 465.868 826.507Z" fill="url(#paint3_radial_194_380)"/>
<path d="M-43.1307 1507.71C-39.0797 1508.58 -30.1898 1521.53 -26.2513 1527.9C-22.5941 1522.99 -18.0929 1524.9 -7.96527 1544.27C0.13686 1559.77 -4.58938 1558.37 -7.96527 1555.73C-12.4664 1550.27 -24.8447 1536.63 -24.0007 1541.27C-23.3255 1544.98 -25.2198 1545.91 -26.2513 1545.91C-38.3482 1534.18 -48.1946 1506.62 -43.1307 1507.71Z" fill="url(#paint4_radial_194_380)"/>
<path d="M31.9827 1550C24.0514 1542.56 19.103 1544.27 17.6352 1545.91C15.6782 1548.09 17.6352 1555.73 29.7321 1560.64C41.0823 1565.25 40.7037 1558.19 31.9827 1550Z" fill="url(#paint5_radial_194_380)"/>
<path d="M783.675 985.04C780.387 985.04 771.618 979.576 771.618 985.04L783.675 1003.07L802.582 1025.75C805.87 1035.14 795.732 1027.66 790.252 1022.19C771.618 999.246 745.586 981.215 743.394 975.752C741.437 970.873 750.519 971.927 756.547 971.927C745.586 961.818 743.394 956.268 745.586 954.989C753.259 950.51 786.963 985.04 783.675 985.04Z" fill="#45171E"/>
<path d="M190.924 791.854C206.135 788.216 229.862 778.285 239.791 780.166C243.629 784.465 232.163 790.029 219.194 793.131C202.319 800.004 199.752 806.536 216.344 800.89C233.438 795.072 248.685 787.48 249.968 792.847C251.252 798.214 183.949 826.106 172.802 823.098C161.655 820.089 195.29 811.099 191.072 808.325C182.635 802.777 154.037 821.837 149.544 816.867C145.677 812.59 172.991 796.143 190.924 791.854Z" fill="#45171E"/>
<path fill-rule="evenodd" clip-rule="evenodd" d="M236.632 1060.59C237.429 1057.3 233.447 1051.37 230.562 1053.14C161.056 1095.69 115.553 1166.42 115.553 1245.89L115.626 1246.43C118.642 1195.62 144.665 1180.11 139.222 1193.14C133.522 1206.78 134.922 1253.55 147.737 1305.81C157.119 1344.07 182.422 1368.28 195.646 1380.93C200.485 1385.56 203.707 1388.65 203.938 1390.3C204.628 1395.25 178.633 1383.62 172.555 1379.87L177.575 1390.7C166.566 1391.16 152.508 1372.66 146.855 1363.35C141.776 1356.74 137.639 1348.83 134.107 1340.81C160.005 1426.58 208.448 1448.26 336.146 1476.16C337.884 1476.54 339.665 1476.94 341.485 1477.35L341.524 1477.36L341.529 1477.36L341.53 1477.36C353.936 1480.14 368.152 1483.34 382.943 1483.34C445.069 1483.34 501.756 1464.58 546.787 1433.39C530.604 1441.97 511.987 1450.97 502.903 1452.29C490.226 1454.14 522.925 1425.34 554.256 1406.55C567.354 1398.7 581.87 1381.48 592.514 1368.86C601.122 1358.65 607.198 1351.45 607.94 1354.63C608.901 1358.75 607.155 1369.01 605.323 1377.41C633.82 1339.5 650.334 1294.12 650.334 1245.89C650.334 1240.97 650.029 1235.94 649.444 1230.81C648.955 1226.53 645.888 1226.37 645.293 1230.64C640.966 1261.71 637.184 1247.39 634.272 1236.37L634.271 1236.37L634.271 1236.37C633.701 1234.21 633.165 1232.18 632.665 1230.64C622.726 1200.07 622.726 1262.52 622.726 1267.79C622.726 1293.07 613.062 1267.79 608.645 1243.39C607.229 1235.58 605.104 1226.59 603.069 1217.99L603.069 1217.99L603.069 1217.99C598.755 1199.75 594.849 1183.24 598.982 1183.24C600.395 1183.24 601.469 1187.5 602.91 1193.22C604.284 1198.68 605.992 1205.45 608.645 1211.12C612.389 1219.1 611.736 1185.76 611.685 1183.38L611.684 1183.32C611.681 1183.25 611.678 1183.18 611.673 1183.1C611.508 1180.32 609.225 1138.08 626.591 1183.24C631.171 1195.15 638.186 1195.11 640.119 1193.45C640.459 1193.15 640.72 1192.74 640.578 1192.31C620.962 1133.55 574.976 1071.34 532.373 1038.82C485.466 1003.01 454.115 996.436 383.453 1010.99C383.12 1011.06 382.772 1011.1 382.431 1011.1C364.439 1011.13 346.863 1012.73 329.87 1015.75C329.394 1015.84 328.93 1015.99 328.499 1016.21C317.665 1021.71 311.351 1025.45 320.134 1024.12C342.221 1020.8 346.638 1039.65 320.134 1051.85C317.756 1052.94 315.328 1054.07 312.878 1055.21L312.877 1055.21C299.331 1061.5 285.085 1068.11 274.716 1071.2C270.586 1072.43 268.797 1068.29 271.752 1065.15C277.577 1058.96 282.395 1052.45 278.168 1051.85C272.627 1051.05 252.486 1057.91 240.148 1062.54C238.243 1063.25 236.152 1062.57 236.632 1060.59Z" fill="url(#paint6_radial_194_380)"/>
<path d="M84.2831 1418.18C65.6143 1398.65 55.997 1352.01 53.522 1331.14C50.9763 1353.64 38.0531 1356.26 31.9097 1354.76C12.074 1339.79 20.6394 1301.19 27.4016 1283.76C27.4016 1258.07 46.9366 1227.94 56.7042 1216.09C59.8863 1192.34 75.9299 1175.62 75.9299 1180.66C75.9299 1185.7 71.5544 1203.75 59.6212 1234.8C50.0746 1259.64 51.5773 1284.61 53.522 1293.98C67.1789 1264.66 81.6572 1272.49 95.977 1313.09C107.433 1345.57 106.205 1363.07 102.846 1367.76C112.18 1400.03 149.518 1444.9 167.02 1463.3C171.97 1458.7 188.765 1454.81 216.344 1476.04C250.817 1502.58 348.935 1521.69 380.226 1516.91C405.26 1513.09 406.921 1515.32 404.623 1516.91C392.319 1522.43 364.492 1525.22 352.117 1525.93C334.297 1533.15 268.673 1522.92 238.089 1516.91C256.758 1545.78 200.963 1521.51 170.732 1505.76C147.465 1514.91 114.16 1482.73 99.508 1464.44C103.521 1469.63 109.722 1479.28 108.15 1484C106.452 1489.1 99.3101 1489.66 95.9511 1489.31L71.5544 1472.85C77.4945 1465.21 84.6367 1469.67 87.4653 1472.85L71.5544 1444.72C54.5827 1420.1 72.9687 1416.77 84.2831 1418.18Z" fill="#A2BC77"/>
<path d="M487.625 1541.46C487.625 1541.99 458.72 1552.91 444.268 1558.31C449.306 1558.31 460.576 1563.35 457.792 1567.33C455.008 1571.31 442.544 1574.1 426.766 1576.36C410.987 1578.61 396.402 1570.65 391.894 1571.31C388.288 1571.84 375.011 1574.9 368.823 1576.36C353.125 1574.55 347.255 1569.59 346.283 1567.33C349.889 1561.49 362.813 1562.25 368.823 1563.35C387.386 1555.18 403.695 1561.89 408.999 1565.87C414.567 1563.35 430.213 1565.61 430.213 1563.35C430.213 1561.1 414.567 1562.29 414.567 1555.79C414.567 1547.28 436.489 1541.81 447.052 1540.26C476.355 1530.05 487.625 1540.79 487.625 1541.46Z" fill="#A2BC77"/>
<path d="M326.394 1575.03C333.819 1578 339.035 1573.79 340.714 1571.31C338.062 1564.41 331.168 1569.19 329.311 1569.19C327.455 1569.19 319.234 1565.87 318.969 1569.19C318.704 1572.51 317.113 1571.31 326.394 1575.03Z" fill="#A2BC77"/>
<path d="M701.945 1260.07C719.887 1269.01 707.347 1324.13 701.945 1350.67C737.83 1331.05 712.942 1396.12 662.009 1435.94C621.262 1467.79 609.918 1490.91 602.973 1479.95C607.603 1468.98 654.678 1418.58 668.954 1398.57C663.398 1402.27 662.009 1397.03 662.009 1393.96C662.009 1393.96 685.314 1362.73 690.356 1323.77C695.397 1284.82 698.233 1258.22 701.945 1260.07Z" fill="#A2BC77"/>
<path d="M681.341 1099.11C649.398 1058.54 610.203 1035.06 594.177 1029.09C609.773 1074.06 565.694 1026.31 553.903 1017.07C523.664 993.386 511.37 998.925 492.346 981.588C476.057 966.745 415.647 944.142 418.693 942.048C443.086 942.048 538.832 986.04 579.309 1017.07C562.887 991.802 574.012 987.299 579.309 984.861C593.064 974.421 696.245 1079.96 696.245 1097.09C713.652 1121.23 727.216 1163 721.232 1167.84C715.056 1170.08 693.338 1117.43 681.341 1099.11Z" fill="#A2BC77"/>
<path d="M235.474 955.32C184.734 972.638 198.44 976.005 211.636 975.524C190.109 987.503 190.976 990.389 177.106 1003.67C166.01 1014.29 168.726 1025.6 177.106 1017.23C202.245 989.235 219.582 985.771 235.474 979.132C248.188 973.821 240.772 970.185 235.474 969.03C235.474 965.566 256.857 961.526 266.103 958.639C275.35 955.753 331.984 946.516 329.239 951.135C326.494 955.753 327.65 958.206 328.517 958.639C333.031 959.676 338.337 958.291 343.542 957.845C351.666 957.15 359.542 958.04 363.769 956.691C363.769 954.31 343.157 954.213 335.741 955.32C343.687 943.774 319.848 943.774 314.069 943.774C308.29 943.774 277.228 946.661 272.171 948.104C268.126 949.259 246.021 953.396 235.474 955.32Z" fill="#A2BC77"/>
<path d="M128.744 1081.4C140.764 1070.31 161.599 1057.69 173.793 1056.74C179.884 1061.23 142.269 1074.77 141.796 1084.6C141.629 1088.06 156.158 1076.04 155.374 1081.79C155.023 1084.37 143.668 1093.65 133.425 1104.03C123.182 1114.41 102.5 1139.93 110.091 1122.43C117.681 1104.93 133.06 1090.86 134.294 1089.69C141.861 1082.53 106.697 1101.74 128.744 1081.4Z" fill="#A2BC77"/>
<path d="M186.363 1056.34C192.554 1053.19 196.572 1052.98 198.871 1055.25C199.91 1060.45 189.044 1061.16 184.214 1062.93C179.384 1064.7 183.349 1057.87 186.363 1056.34Z" fill="#A2BC77"/>
<g filter="url(#filter0_f_194_380)">
<path d="M658.498 1465.08L658.768 1464.66L658.498 1465.08ZM612.858 1604.06L612.533 1603.68L612.858 1604.06ZM571.657 1542L571.241 1542.28L571.912 1543.28L572.147 1542.1L571.657 1542ZM571.638 1541.97L572.053 1541.69L571.154 1542.1L571.638 1541.97ZM570.027 1554.92L569.544 1554.79L570.498 1555.09L570.027 1554.92ZM571.116 1541.28L571.607 1541.19L571.583 1541.06L571.499 1540.96L571.116 1541.28ZM559.403 1563.81L559.887 1563.93L559.907 1563.85L559.902 1563.77L559.403 1563.81ZM499.949 1619.7L499.863 1619.2L499.837 1619.21L499.811 1619.22L499.949 1619.7ZM483.915 1617.17L484.026 1616.68L484.013 1616.68L484.001 1616.68L483.915 1617.17ZM483.915 1617.17L483.805 1617.66L483.817 1617.66L483.829 1617.66L483.915 1617.17ZM448.869 1612.05L448.886 1612.55L448.886 1612.55L448.869 1612.05ZM421.531 1654.13L421.101 1654.39L421.174 1654.51L421.3 1654.57L421.531 1654.13ZM421.598 1654.17L421.829 1653.72L421.829 1653.72L421.598 1654.17ZM453.421 1634.51L453.656 1634.06L453.421 1634.51ZM544.07 1647.18L543.912 1646.71L544.07 1647.18ZM604.294 1611.52L604.624 1611.9L604.294 1611.52ZM644.031 1506.72L644.485 1506.93L644.499 1506.9L644.509 1506.87L644.031 1506.72ZM644.953 1527.52L645.212 1527.09L644.953 1527.52ZM605.185 1503.47L605.653 1503.65L605.653 1503.65L605.185 1503.47ZM622.715 1491.66L623.06 1491.3L623.034 1491.28L623.006 1491.26L622.715 1491.66ZM608.614 1528.83L608.509 1529.32L608.614 1528.83ZM624.412 1506.82L623.916 1506.75L624.412 1506.82ZM630.506 1528.72L630.507 1529.22L630.507 1529.22L630.506 1528.72ZM618.688 1540.9L618.223 1540.72L618.688 1540.9ZM633.344 1538.5L632.858 1538.38L633.344 1538.5ZM618.191 1559.18L618.409 1558.73L618.191 1559.18ZM658.228 1465.5C671 1473.71 676.809 1484.43 677.81 1496.39C678.814 1508.37 674.988 1521.65 668.378 1534.94C655.159 1561.52 630.902 1587.92 612.533 1603.68L613.184 1604.44C631.612 1588.63 655.973 1562.12 669.273 1535.39C675.923 1522.02 679.832 1508.55 678.807 1496.3C677.779 1484.03 671.794 1473.03 658.768 1464.66L658.228 1465.5ZM572.147 1542.1C578.794 1508.63 595.196 1486.14 612.506 1473.7C621.164 1467.48 630.043 1463.78 638.038 1462.46C646.04 1461.14 653.119 1462.22 658.228 1465.5L658.768 1464.66C653.391 1461.2 646.04 1460.13 637.876 1461.47C629.707 1462.82 620.687 1466.59 611.923 1472.89C594.391 1485.49 577.858 1508.2 571.166 1541.9L572.147 1542.1ZM571.224 1542.25C571.23 1542.26 571.235 1542.27 571.241 1542.28L572.072 1541.72C572.066 1541.71 572.059 1541.7 572.053 1541.69L571.224 1542.25ZM571.154 1542.1C571.794 1544.65 571.766 1548.52 569.555 1554.76L570.498 1555.09C572.748 1548.74 572.828 1544.66 572.123 1541.85L571.154 1542.1ZM570.509 1555.05C571.793 1550.29 572.299 1544.84 571.607 1541.19L570.625 1541.37C571.278 1544.82 570.806 1550.11 569.544 1554.79L570.509 1555.05ZM559.902 1563.77C559.437 1556.59 559.694 1551.34 560.39 1547.56C561.088 1543.78 562.217 1541.55 563.448 1540.35C564.652 1539.17 565.987 1538.95 567.257 1539.27C568.556 1539.59 569.806 1540.5 570.733 1541.6L571.499 1540.96C570.477 1539.74 569.056 1538.69 567.501 1538.3C565.918 1537.9 564.219 1538.2 562.749 1539.63C561.306 1541.04 560.122 1543.51 559.407 1547.38C558.69 1551.26 558.436 1556.61 558.904 1563.84L559.902 1563.77ZM500.035 1620.19C541.177 1613.01 555.752 1580.15 559.887 1563.93L558.918 1563.68C554.825 1579.73 540.438 1612.13 499.863 1619.2L500.035 1620.19ZM483.805 1617.66C487.684 1618.53 491.17 1619.32 493.954 1619.81C495.347 1620.06 496.575 1620.23 497.597 1620.31C498.606 1620.38 499.463 1620.36 500.087 1620.18L499.811 1619.22C499.364 1619.34 498.653 1619.38 497.668 1619.31C496.696 1619.24 495.506 1619.07 494.128 1618.83C491.373 1618.34 487.913 1617.56 484.026 1616.68L483.805 1617.66ZM483.829 1617.66L483.829 1617.66L484.001 1616.68L484.001 1616.68L483.829 1617.66ZM483.829 1617.66L483.829 1617.66L484.001 1616.68L484.001 1616.68L483.829 1617.66ZM448.886 1612.55C459.555 1612.17 473.167 1615.25 483.805 1617.66L484.025 1616.68C473.427 1614.28 459.677 1611.17 448.851 1611.55L448.886 1612.55ZM421.96 1653.88C417.286 1646.01 418.16 1635.9 423.16 1627.62C428.155 1619.35 437.237 1612.96 448.886 1612.55L448.851 1611.55C436.832 1611.97 427.456 1618.57 422.304 1627.1C417.158 1635.63 416.197 1646.14 421.101 1654.39L421.96 1653.88ZM421.829 1653.72L421.762 1653.69L421.3 1654.57L421.367 1654.61L421.829 1653.72ZM427.552 1649.81C427.252 1651.54 426.88 1652.71 426.469 1653.48C426.062 1654.25 425.637 1654.58 425.238 1654.72C424.827 1654.85 424.343 1654.81 423.752 1654.61C423.159 1654.41 422.526 1654.09 421.829 1653.72L421.367 1654.61C422.045 1654.96 422.752 1655.33 423.435 1655.56C424.12 1655.79 424.849 1655.9 425.554 1655.67C426.27 1655.43 426.866 1654.87 427.352 1653.95C427.834 1653.05 428.229 1651.76 428.537 1649.99L427.552 1649.81ZM453.656 1634.06C449.634 1631.92 446.066 1631.24 442.945 1631.62C439.824 1631.99 437.196 1633.41 435.045 1635.36C430.761 1639.26 428.331 1645.34 427.552 1649.81L428.537 1649.99C429.292 1645.65 431.648 1639.81 435.718 1636.1C437.744 1634.26 440.185 1632.95 443.064 1632.61C445.943 1632.26 449.306 1632.88 453.185 1634.95L453.656 1634.06ZM543.912 1646.71C524.81 1653.08 509.977 1654.03 496.076 1651.35C482.158 1648.66 469.139 1642.33 453.656 1634.06L453.185 1634.95C468.667 1643.21 481.805 1649.61 495.887 1652.33C509.986 1655.05 524.995 1654.07 544.228 1647.66L543.912 1646.71ZM603.964 1611.14C595.333 1618.73 588.222 1624.98 579.318 1630.65C570.42 1636.33 559.716 1641.44 543.912 1646.71L544.228 1647.66C560.091 1642.36 570.873 1637.22 579.856 1631.5C588.834 1625.77 596.001 1619.47 604.624 1611.9L603.964 1611.14ZM612.533 1603.68C609.466 1606.31 606.642 1608.79 603.964 1611.14L604.624 1611.9C607.303 1609.54 610.122 1607.06 613.184 1604.44L612.533 1603.68ZM644.509 1506.87C646.395 1500.77 648.25 1496 650.188 1492.87C652.146 1489.71 654.058 1488.4 656.032 1488.75L656.203 1487.76C653.571 1487.3 651.328 1489.13 649.338 1492.34C647.329 1495.59 645.444 1500.46 643.553 1506.57L644.509 1506.87ZM645.212 1527.09C642.541 1525.46 641.088 1523.27 640.906 1520.11C640.721 1516.9 641.847 1512.64 644.485 1506.93L643.577 1506.51C640.92 1512.26 639.708 1516.7 639.908 1520.17C640.111 1523.69 641.766 1526.16 644.693 1527.94L645.212 1527.09ZM660.676 1503.01C659.902 1507.46 658.468 1515.1 655.942 1520.82C654.675 1523.69 653.166 1526.01 651.394 1527.22C650.519 1527.82 649.587 1528.15 648.583 1528.16C647.576 1528.16 646.458 1527.85 645.212 1527.09L644.693 1527.94C646.06 1528.78 647.359 1529.17 648.589 1529.16C649.822 1529.15 650.946 1528.74 651.96 1528.05C653.967 1526.67 655.569 1524.14 656.856 1521.23C659.439 1515.38 660.889 1507.63 661.661 1503.19L660.676 1503.01ZM656.032 1488.75C658.099 1489.11 659.595 1490.64 660.418 1493.13C661.245 1495.64 661.365 1499.06 660.676 1503.01L661.661 1503.19C662.367 1499.13 662.264 1495.53 661.368 1492.82C660.469 1490.09 658.743 1488.2 656.203 1487.76L656.032 1488.75ZM605.653 1503.65C608.53 1496.05 611.983 1492.63 615.034 1491.36C618.078 1490.09 620.828 1490.93 622.424 1492.07L623.006 1491.26C621.177 1489.95 618.065 1489.02 614.65 1490.44C611.243 1491.85 607.644 1495.56 604.717 1503.29L605.653 1503.65ZM608.719 1528.34C606.369 1527.83 603.872 1526.39 602.793 1522.79C601.698 1519.14 602.038 1513.2 605.653 1503.65L604.717 1503.29C601.077 1512.91 600.645 1519.11 601.835 1523.08C603.042 1527.1 605.887 1528.75 608.509 1529.32L608.719 1528.34ZM623.916 1506.75C623.183 1512.72 620.517 1518.4 617.421 1522.47C615.874 1524.5 614.233 1526.1 612.693 1527.13C611.138 1528.17 609.766 1528.57 608.719 1528.34L608.509 1529.32C609.949 1529.63 611.608 1529.06 613.248 1527.96C614.904 1526.86 616.622 1525.16 618.217 1523.07C621.404 1518.89 624.151 1513.04 624.908 1506.88L623.916 1506.75ZM622.371 1492.03C622.567 1492.21 622.847 1492.61 623.136 1493.29C623.421 1493.96 623.702 1494.88 623.917 1496.07C624.346 1498.46 624.507 1501.94 623.916 1506.75L624.908 1506.88C625.509 1501.99 625.352 1498.4 624.901 1495.89C624.675 1494.64 624.375 1493.65 624.056 1492.9C623.741 1492.16 623.394 1491.62 623.06 1491.3L622.371 1492.03ZM630.505 1528.22C627.887 1528.22 622.106 1530.87 618.223 1540.72L619.153 1541.08C622.949 1531.46 628.446 1529.22 630.507 1529.22L630.505 1528.22ZM633.83 1538.61C634.917 1534.15 634.839 1531.54 634.06 1530.03C633.236 1528.44 631.72 1528.21 630.505 1528.22L630.507 1529.22C631.631 1529.21 632.619 1529.42 633.171 1530.49C633.769 1531.65 633.941 1533.93 632.858 1538.38L633.83 1538.61ZM617.972 1559.63C619.656 1560.44 621.395 1559.96 622.999 1558.79C624.596 1557.63 626.146 1555.73 627.555 1553.5C630.378 1549.04 632.734 1543.12 633.83 1538.61L632.858 1538.38C631.785 1542.79 629.469 1548.61 626.71 1552.97C625.328 1555.15 623.859 1556.93 622.41 1557.99C620.966 1559.04 619.63 1559.32 618.409 1558.73L617.972 1559.63ZM618.223 1540.72C617.023 1543.76 616.069 1546.28 615.395 1548.39C614.723 1550.49 614.319 1552.21 614.236 1553.64C614.152 1555.09 614.39 1556.27 615.03 1557.26C615.665 1558.25 616.659 1558.99 617.972 1559.63L618.409 1558.73C617.182 1558.13 616.368 1557.49 615.871 1556.72C615.378 1555.95 615.158 1555 615.234 1553.7C615.31 1552.4 615.684 1550.77 616.348 1548.69C617.011 1546.62 617.954 1544.12 619.153 1541.08L618.223 1540.72Z" fill="#FFFACC"/>
</g>
<path d="M593.968 1507.83C602.473 1476.76 627.682 1473.65 639.224 1475.99C656.322 1475.14 667.225 1487.64 669.574 1510.33C671.923 1533.01 634.004 1581.15 613.85 1580.06C593.697 1578.98 583.337 1546.66 593.968 1507.83Z" fill="#C6C895"/>
<path fill-rule="evenodd" clip-rule="evenodd" d="M612.858 1604.06C649.656 1572.49 710.093 1498.23 658.498 1465.08C637.526 1451.6 584.995 1474.83 571.657 1542C571.651 1541.99 571.645 1541.98 571.638 1541.97C572.311 1544.65 572.257 1548.63 570.027 1554.92C571.299 1550.2 571.789 1544.83 571.116 1541.28C567.218 1536.62 557.539 1534.99 559.403 1563.81C555.288 1579.94 540.808 1612.57 499.949 1619.7C497.808 1620.31 491.681 1618.93 483.915 1617.17L483.915 1617.17L483.915 1617.17C473.297 1614.77 459.616 1611.67 448.869 1612.05C425.2 1612.88 411.953 1638.02 421.531 1654.13L421.598 1654.17C424.346 1655.6 426.828 1656.89 428.045 1649.9C429.578 1641.09 437.618 1626.07 453.421 1634.51C484.385 1651.04 505.735 1659.97 544.07 1647.18C575.737 1636.62 587.04 1626.68 604.294 1611.52C606.972 1609.17 609.794 1606.69 612.858 1604.06ZM656.118 1488.25C651.511 1487.45 647.808 1494.5 644.031 1506.72C638.736 1518.18 639.355 1524.11 644.953 1527.52C655.402 1533.87 659.622 1511.99 661.169 1503.1C662.563 1495.09 660.724 1489.06 656.118 1488.25ZM622.715 1491.66C619.29 1489.21 610.989 1488.14 605.185 1503.47C597.93 1522.64 603.642 1527.76 608.614 1528.83C613.586 1529.9 622.922 1518.94 624.412 1506.82C625.604 1497.12 623.777 1492.67 622.715 1491.66ZM618.688 1540.9C622.528 1531.17 628.166 1528.72 630.506 1528.72C632.845 1528.71 635.513 1529.59 633.344 1538.5C631.175 1547.4 624 1562 618.191 1559.18C613.111 1556.71 613.889 1553.06 618.688 1540.9Z" fill="url(#paint7_linear_194_380)"/>
<g filter="url(#filter1_f_194_380)">
<path d="M134.702 1625.56L134.82 1626.05L134.842 1626.04L134.862 1626.04L134.702 1625.56ZM78.4646 1609.21L78.8844 1608.93L78.4646 1609.21ZM188.232 1641.99L187.859 1642.32L187.881 1642.35L187.906 1642.37L188.232 1641.99ZM198.952 1660.81L199.164 1661.27L198.952 1660.81ZM178.492 1648.27L178.153 1648.64L178.492 1648.27ZM169.053 1640.82L169.151 1640.33L169.053 1640.82ZM167.459 1644.4L166.969 1644.49L167.459 1644.4ZM148.586 1640.71L148.905 1640.32L148.586 1640.71ZM148.351 1640.51L148.67 1640.13L148.67 1640.13L148.351 1640.51ZM114.826 1641.83L115.007 1642.3L115.019 1642.29L115.031 1642.29L114.826 1641.83ZM113.821 1642.22L113.639 1641.76L113.639 1641.76L113.821 1642.22ZM51.4765 1640.34L51.2476 1640.78L51.4765 1640.34ZM11.389 1559.98L11.8881 1559.95L11.8852 1559.9L11.8729 1559.86L11.389 1559.98ZM9.31457 1517.73L8.83315 1517.59L9.31457 1517.73ZM20.857 1513.8L21.3367 1513.95L21.3889 1513.77L21.3129 1513.6L20.857 1513.8ZM16.9807 1531.51L17.4799 1531.48L16.9807 1531.51ZM17.9494 1530.95L17.4494 1530.95L17.9494 1530.95ZM21.3316 1514.97L21.8016 1514.8L21.24 1513.25L20.8461 1514.85L21.3316 1514.97ZM21.3683 1515.08L20.8971 1515.24L21.5068 1516.96L21.8589 1515.17L21.3683 1515.08ZM59.11 1492.85L59.0113 1493.34L59.11 1492.85ZM74.4022 1549.52L74.3251 1550.01L74.7427 1550.07L74.8765 1549.67L74.4022 1549.52ZM64.9859 1557.87L65.4244 1558.11L65.4369 1558.08L65.447 1558.06L64.9859 1557.87ZM62.8362 1569.54L62.3616 1569.7L62.8362 1569.54ZM63.2219 1569.47L62.7223 1569.45L63.2219 1569.47ZM65.9547 1557.31L66.4148 1557.51L65.9547 1557.31ZM74.9839 1549.98L75.2683 1549.56L75.2183 1549.53L75.1615 1549.51L74.9839 1549.98ZM80.4191 1567.59L79.9369 1567.45L80.4191 1567.59ZM77.701 1572.06L77.2992 1571.76L77.701 1572.06ZM66.395 1510.14L66.2172 1509.67L66.2033 1509.68L66.1898 1509.69L66.395 1510.14ZM65.7097 1519.88L66.1607 1519.66L65.7097 1519.88ZM73.8044 1523.15L74.304 1523.13L73.8044 1523.15ZM68.1677 1533.94L68.1625 1534.44L68.1752 1534.44L68.188 1534.44L68.1677 1533.94ZM68.1675 1533.94L68.1727 1533.44L68.16 1533.44L68.1474 1533.44L68.1675 1533.94ZM68.1648 1533.94L68.1447 1533.44L68.1444 1533.44L68.1648 1533.94ZM64.6515 1528L64.1718 1527.86L64.1718 1527.86L64.6515 1528ZM64.6736 1527.92L65.1533 1528.06L65.1534 1528.06L64.6736 1527.92ZM38.0765 1504.83L37.7487 1504.45L37.7487 1504.45L38.0765 1504.83ZM52.537 1504.47L53.0369 1504.48L53.0399 1504.35L52.9762 1504.23L52.537 1504.47ZM29.9391 1517.89L29.4569 1517.76L29.9391 1517.89ZM37.7166 1521.89L37.3009 1521.62L37.7166 1521.89ZM39.8867 1518.11L40.3303 1518.35L40.3336 1518.34L39.8867 1518.11ZM39.8868 1518.11L39.451 1517.87L39.4452 1517.88L39.4399 1517.89L39.8868 1518.11ZM39.8868 1518.11L40.3225 1518.36L40.3265 1518.35L40.3303 1518.35L39.8868 1518.11ZM42.727 1512.99L43.1565 1513.25L42.727 1512.99ZM47.648 1510.01L47.5209 1509.53L47.648 1510.01ZM50.6916 1523.12L50.9369 1522.68L50.8536 1522.64L50.759 1522.62L50.6916 1523.12ZM54.0949 1533.28L54.5878 1533.36L54.0949 1533.28ZM45.7114 1524.67L46.0199 1525.07L45.7114 1524.67ZM44.7244 1529.84L44.2246 1529.85L44.7244 1529.84ZM44.7529 1532L45.1647 1532.28L45.2518 1532.16L45.2529 1532L44.7529 1532ZM45.3902 1542.45L45.3419 1542.95L45.3902 1542.45ZM134.583 1625.08C128.068 1626.67 117.442 1627.77 106.786 1625.89C96.1332 1624.01 85.5088 1619.17 78.8844 1608.93L78.0448 1609.48C84.8716 1620.03 95.7952 1624.97 106.613 1626.87C117.427 1628.78 128.194 1627.67 134.82 1626.05L134.583 1625.08ZM188.606 1641.66C183.535 1635.96 175.461 1629.98 165.945 1626.34C156.425 1622.7 145.429 1621.39 134.541 1625.09L134.862 1626.04C145.477 1622.43 156.228 1623.69 165.588 1627.27C174.953 1630.85 182.893 1636.74 187.859 1642.32L188.606 1641.66ZM199.164 1661.27C199.978 1660.89 200.544 1660.34 200.855 1659.64C201.163 1658.95 201.198 1658.17 201.053 1657.37C200.767 1655.76 199.752 1653.9 198.414 1652.03C195.725 1648.26 191.565 1644.2 188.558 1641.61L187.906 1642.37C190.885 1644.93 194.978 1648.93 197.6 1652.61C198.918 1654.45 199.823 1656.16 200.069 1657.54C200.19 1658.22 200.144 1658.78 199.942 1659.23C199.745 1659.68 199.374 1660.06 198.74 1660.36L199.164 1661.27ZM178.153 1648.64C181.686 1651.9 185.685 1655.6 189.376 1658.2C191.222 1659.51 193.015 1660.56 194.656 1661.15C196.291 1661.73 197.85 1661.88 199.164 1661.27L198.74 1660.36C197.772 1660.81 196.517 1660.75 194.993 1660.2C193.476 1659.66 191.767 1658.67 189.953 1657.39C186.326 1654.82 182.378 1651.18 178.831 1647.9L178.153 1648.64ZM168.954 1641.31C169.298 1641.38 169.784 1641.61 170.415 1642.02C171.036 1642.42 171.756 1642.96 172.56 1643.63C174.171 1644.96 176.08 1646.72 178.153 1648.64L178.831 1647.9C176.766 1645.99 174.833 1644.21 173.197 1642.86C172.379 1642.18 171.625 1641.61 170.958 1641.18C170.301 1640.75 169.685 1640.44 169.151 1640.33L168.954 1641.31ZM167.949 1644.3C167.836 1643.74 167.733 1643.23 167.676 1642.77C167.618 1642.31 167.614 1641.96 167.671 1641.7C167.723 1641.47 167.813 1641.37 167.935 1641.32C168.09 1641.24 168.393 1641.2 168.954 1641.31L169.151 1640.33C168.506 1640.2 167.951 1640.2 167.511 1640.41C167.038 1640.63 166.796 1641.04 166.695 1641.48C166.599 1641.91 166.622 1642.4 166.684 1642.89C166.746 1643.39 166.858 1643.94 166.969 1644.49L167.949 1644.3ZM166.739 1650.59C167.893 1649.94 168.291 1648.84 168.354 1647.71C168.416 1646.6 168.163 1645.36 167.949 1644.3L166.969 1644.49C167.19 1645.59 167.409 1646.69 167.356 1647.65C167.304 1648.59 167 1649.3 166.244 1649.73L166.739 1650.59ZM148.267 1641.09C153.534 1645.46 157.09 1648.4 159.81 1649.97C161.178 1650.76 162.376 1651.23 163.509 1651.34C164.658 1651.45 165.7 1651.19 166.739 1650.59L166.244 1649.73C165.36 1650.23 164.523 1650.43 163.605 1650.34C162.672 1650.25 161.617 1649.86 160.31 1649.11C157.682 1647.59 154.208 1644.72 148.905 1640.32L148.267 1641.09ZM148.032 1640.9L148.267 1641.09L148.905 1640.32L148.67 1640.13L148.032 1640.9ZM115.031 1642.29C118.791 1640.6 124.973 1638.51 131.271 1637.72C137.593 1636.93 143.896 1637.48 148.032 1640.9L148.67 1640.13C144.203 1636.43 137.539 1635.93 131.147 1636.73C124.731 1637.53 118.452 1639.66 114.621 1641.37L115.031 1642.29ZM114.004 1642.69C114.357 1642.55 114.691 1642.42 115.007 1642.3L114.645 1641.36C114.327 1641.49 113.991 1641.62 113.639 1641.76L114.004 1642.69ZM51.2476 1640.78C80.4873 1655.84 104.188 1646.54 114.004 1642.69L113.639 1641.76C103.877 1645.59 80.5395 1654.74 51.7054 1639.9L51.2476 1640.78ZM10.8899 1560.01C11.5685 1571.44 14.8433 1588.11 21.3394 1603.67C27.8304 1619.21 37.5747 1633.74 51.2476 1640.78L51.7054 1639.9C38.3421 1633.01 28.7181 1618.74 22.2622 1603.28C15.8113 1587.83 12.5604 1571.28 11.8881 1559.95L10.8899 1560.01ZM8.83315 1517.59C6.72849 1525.09 6.71187 1533.65 7.48331 1541.35C8.25536 1549.06 9.82067 1555.94 10.9051 1560.11L11.8729 1559.86C10.7959 1555.72 9.24344 1548.89 8.47833 1541.26C7.71259 1533.61 7.73944 1525.19 9.79598 1517.86L8.83315 1517.59ZM21.3129 1513.6C20.7048 1512.25 19.9002 1510.93 18.9596 1509.92C18.0266 1508.93 16.903 1508.19 15.6596 1508.14C14.3877 1508.09 13.1483 1508.78 12.0112 1510.28C10.8792 1511.77 9.80356 1514.13 8.83315 1517.59L9.79598 1517.86C10.7517 1514.45 11.7855 1512.23 12.8084 1510.88C13.8261 1509.54 14.7869 1509.11 15.6227 1509.14C16.4869 1509.17 17.3784 1509.7 18.23 1510.61C19.074 1511.51 19.8235 1512.73 20.4011 1514.01L21.3129 1513.6ZM17.4799 1531.48C17.4521 1530.97 17.5457 1530.04 17.7488 1528.8C17.9495 1527.57 18.25 1526.07 18.6173 1524.43C19.3518 1521.15 20.3492 1517.31 21.3367 1513.95L20.3773 1513.66C19.3839 1517.04 18.381 1520.9 17.6414 1524.21C17.2717 1525.87 16.9668 1527.38 16.7619 1528.64C16.5593 1529.88 16.447 1530.9 16.4814 1531.53L17.4799 1531.48ZM17.4494 1530.95C17.4487 1531.44 17.3992 1531.84 17.329 1532.14C17.2938 1532.29 17.2555 1532.41 17.2208 1532.48C17.1815 1532.57 17.1633 1532.58 17.1896 1532.55C17.2067 1532.54 17.2537 1532.5 17.3309 1532.49C17.4162 1532.47 17.5011 1532.49 17.569 1532.52C17.629 1532.55 17.6573 1532.59 17.662 1532.59C17.6674 1532.6 17.6611 1532.59 17.6478 1532.56C17.6208 1532.5 17.5857 1532.38 17.5536 1532.2C17.5221 1532.01 17.496 1531.78 17.4799 1531.48L16.4814 1531.53C16.5157 1532.17 16.5957 1532.65 16.7291 1532.96C16.7906 1533.1 16.9041 1533.31 17.1223 1533.41C17.2455 1533.48 17.3867 1533.5 17.5286 1533.47C17.6623 1533.44 17.766 1533.38 17.8393 1533.31C17.9782 1533.2 18.0703 1533.03 18.1335 1532.89C18.2012 1532.74 18.2573 1532.56 18.3025 1532.37C18.3932 1531.99 18.4486 1531.5 18.4494 1530.95L17.4494 1530.95ZM20.8461 1514.85C20.1654 1517.62 19.3194 1521.16 18.6429 1524.25C18.3048 1525.79 18.0082 1527.22 17.7958 1528.38C17.5864 1529.52 17.4501 1530.45 17.4494 1530.95L18.4494 1530.95C18.4499 1530.55 18.567 1529.72 18.7794 1528.56C18.9889 1527.41 19.2826 1526 19.6197 1524.46C20.2936 1521.39 21.1374 1517.85 21.8171 1515.09L20.8461 1514.85ZM21.8395 1514.91C21.8271 1514.87 21.8144 1514.84 21.8016 1514.8L20.8615 1515.14C20.8735 1515.18 20.8854 1515.21 20.8971 1515.24L21.8395 1514.91ZM59.2088 1492.36C46.2345 1489.74 37.1129 1492.94 30.9973 1498.05C24.9031 1503.15 21.8373 1510.11 20.8778 1514.98L21.8589 1515.17C22.7828 1510.48 25.7513 1503.74 31.6387 1498.82C37.5048 1493.91 46.3125 1490.78 59.0113 1493.34L59.2088 1492.36ZM74.8765 1549.67C77.6886 1541.24 80.2957 1528.29 78.9665 1516.77C78.3015 1511 76.6474 1505.56 73.508 1501.23C70.3602 1496.88 65.7394 1493.67 59.2088 1492.36L59.0113 1493.34C65.3002 1494.6 69.7004 1497.67 72.6981 1501.81C75.7043 1505.96 77.3203 1511.22 77.9731 1516.88C79.2796 1528.21 76.7133 1541.01 73.9279 1549.36L74.8765 1549.67ZM65.447 1558.06C66.2569 1556.13 67.9159 1554 69.6987 1552.4C70.5875 1551.6 71.4906 1550.95 72.3136 1550.53C73.1516 1550.1 73.8393 1549.93 74.3251 1550.01L74.4793 1549.02C73.6799 1548.9 72.7595 1549.17 71.8554 1549.64C70.9362 1550.11 69.9633 1550.82 69.0309 1551.66C67.1712 1553.32 65.4072 1555.57 64.5249 1557.67L65.447 1558.06ZM63.3107 1569.38C63.2719 1569.26 63.2394 1569.03 63.2337 1568.67C63.2282 1568.33 63.2479 1567.9 63.2901 1567.41C63.3746 1566.43 63.5471 1565.23 63.7727 1564.01C63.9983 1562.8 64.2754 1561.56 64.5671 1560.51C64.8622 1559.44 65.1622 1558.58 65.4244 1558.11L64.5475 1557.63C64.2254 1558.21 63.9006 1559.16 63.6032 1560.24C63.3024 1561.33 63.0192 1562.59 62.7894 1563.83C62.5598 1565.07 62.3819 1566.3 62.2938 1567.32C62.2499 1567.83 62.2276 1568.3 62.2338 1568.69C62.2399 1569.07 62.2726 1569.43 62.3616 1569.7L63.3107 1569.38ZM62.7223 1569.45C62.712 1569.7 62.7046 1569.88 62.6944 1570C62.692 1570.03 62.6897 1570.05 62.6875 1570.06C62.6853 1570.08 62.684 1570.09 62.6843 1570.08C62.6846 1570.08 62.6859 1570.08 62.6887 1570.07C62.6914 1570.06 62.697 1570.04 62.7068 1570.02C62.7171 1570 62.7771 1569.87 62.935 1569.8C63.0246 1569.76 63.1234 1569.75 63.2179 1569.77C63.3056 1569.78 63.3696 1569.82 63.4077 1569.84C63.4766 1569.89 63.5099 1569.94 63.5131 1569.95C63.5247 1569.97 63.5194 1569.96 63.4967 1569.91C63.4557 1569.81 63.3969 1569.64 63.3107 1569.38L62.3616 1569.7C62.4459 1569.95 62.5155 1570.15 62.5724 1570.29C62.5987 1570.35 62.6348 1570.43 62.6817 1570.5C62.7025 1570.54 62.7519 1570.61 62.8354 1570.66C62.9332 1570.73 63.1292 1570.81 63.3485 1570.71C63.5186 1570.64 63.5896 1570.5 63.6099 1570.45C63.6377 1570.39 63.652 1570.34 63.6597 1570.3C63.6758 1570.23 63.6846 1570.15 63.6907 1570.08C63.7034 1569.94 63.7116 1569.73 63.7215 1569.49L62.7223 1569.45ZM65.4945 1557.12C62.9877 1563.02 62.7958 1567.66 62.7223 1569.45L63.7215 1569.49C63.7931 1567.75 63.9776 1563.24 66.4148 1557.51L65.4945 1557.12ZM75.1615 1549.51C74.3835 1549.21 73.4639 1549.4 72.5827 1549.79C71.6842 1550.18 70.7298 1550.83 69.8206 1551.6C68.0085 1553.14 66.2867 1555.26 65.4945 1557.12L66.4148 1557.51C67.1287 1555.83 68.735 1553.83 70.4677 1552.36C71.331 1551.63 72.2032 1551.05 72.9848 1550.7C73.7838 1550.35 74.3978 1550.29 74.8064 1550.44L75.1615 1549.51ZM80.9013 1567.72C82.4915 1561.92 81.4655 1553.85 75.2683 1549.56L74.6996 1550.39C80.4228 1554.34 81.4609 1561.9 79.9369 1567.45L80.9013 1567.72ZM78.1029 1572.35C78.7494 1571.48 79.3532 1570.66 79.8379 1569.91C80.3212 1569.15 80.7078 1568.42 80.9013 1567.72L79.9369 1567.45C79.7832 1568.01 79.4601 1568.64 78.9958 1569.37C78.533 1570.09 77.9513 1570.88 77.2992 1571.76L78.1029 1572.35ZM78.8844 1608.93C72.3387 1598.82 71.0195 1591.25 71.865 1585.45C72.7125 1579.65 75.7431 1575.54 78.1029 1572.35L77.2992 1571.76C74.9425 1574.94 71.763 1579.23 70.8755 1585.31C69.9858 1591.4 71.4067 1599.22 78.0448 1609.48L78.8844 1608.93ZM66.1898 1509.69C65.1797 1510.14 63.8744 1510.75 63.4337 1512.36C63.0094 1513.91 63.426 1516.27 65.2587 1520.1L66.1607 1519.66C64.3391 1515.86 64.0771 1513.8 64.3984 1512.62C64.7032 1511.51 65.5677 1511.06 66.6001 1510.6L66.1898 1509.69ZM74.304 1523.13C74.1978 1520.51 73.6969 1516.67 72.5186 1513.74C71.9312 1512.27 71.1522 1510.97 70.1159 1510.18C69.045 1509.35 67.7344 1509.1 66.2172 1509.67L66.5727 1510.61C67.7672 1510.15 68.7123 1510.36 69.5063 1510.97C70.3348 1511.61 71.0299 1512.71 71.5906 1514.11C72.7087 1516.9 73.2008 1520.6 73.3048 1523.17L74.304 1523.13ZM68.188 1534.44C68.8569 1534.41 70.5498 1534.35 71.994 1532.82C73.4291 1531.31 74.5196 1528.46 74.304 1523.13L73.3048 1523.17C73.5156 1528.38 72.4345 1530.91 71.268 1532.14C70.1106 1533.36 68.7719 1533.42 68.1474 1533.44L68.188 1534.44ZM68.1623 1534.44L68.1625 1534.44L68.1728 1533.44L68.1727 1533.44L68.1623 1534.44ZM68.1849 1534.44L68.1876 1534.44L68.1474 1533.44L68.1447 1533.44L68.1849 1534.44ZM68.0679 1534.45C68.1006 1534.44 68.1384 1534.44 68.1852 1534.44L68.1444 1533.44C68.0995 1533.44 68.0545 1533.45 68.0138 1533.45L68.0679 1534.45ZM64.1718 1527.86C63.4409 1530.34 64.0466 1532.04 65.0728 1533.09C65.5724 1533.61 66.1538 1533.95 66.6822 1534.16C67.2014 1534.37 67.7069 1534.47 68.0679 1534.45L68.0138 1533.45C67.8414 1533.46 67.485 1533.41 67.0541 1533.23C66.6326 1533.07 66.1759 1532.79 65.7899 1532.4C65.0449 1531.63 64.4894 1530.32 65.1312 1528.14L64.1718 1527.86ZM64.1939 1527.78L64.1718 1527.86L65.1312 1528.14L65.1533 1528.06L64.1939 1527.78ZM65.2587 1520.1C65.6136 1520.84 65.6966 1521.58 65.5148 1522.74C65.3287 1523.92 64.8762 1525.46 64.1939 1527.78L65.1534 1528.06C65.827 1525.77 66.3039 1524.15 66.5025 1522.89C66.7054 1521.61 66.6284 1520.64 66.1607 1519.66L65.2587 1520.1ZM38.4044 1505.21C41.9933 1502.09 45.1338 1501.46 47.4914 1501.84C49.8789 1502.22 51.5165 1503.64 52.0979 1504.71L52.9762 1504.23C52.2374 1502.88 50.3235 1501.28 47.6501 1500.85C44.9469 1500.42 41.5172 1501.18 37.7487 1504.45L38.4044 1505.21ZM30.4213 1518.03C31.3385 1514.68 32.2224 1512.45 33.42 1510.58C34.6175 1508.71 36.1472 1507.17 38.4044 1505.21L37.7487 1504.45C35.4688 1506.43 33.853 1508.05 32.5777 1510.04C31.3024 1512.04 30.3861 1514.37 29.4569 1517.76L30.4213 1518.03ZM37.3009 1521.62C36.803 1522.36 35.986 1522.98 35.0533 1523.35C34.1201 1523.73 33.1165 1523.85 32.2663 1523.67C31.4312 1523.49 30.7459 1523.01 30.3692 1522.16C29.9835 1521.29 29.89 1519.96 30.4213 1518.03L29.4569 1517.76C28.8922 1519.82 28.9408 1521.41 29.4553 1522.57C29.9788 1523.75 30.9516 1524.41 32.0528 1524.65C33.1389 1524.88 34.3496 1524.72 35.4287 1524.28C36.5084 1523.84 37.5018 1523.12 38.1323 1522.17L37.3009 1521.62ZM39.4432 1517.88C38.7408 1519.23 38.1973 1520.28 37.3009 1521.62L38.1323 1522.17C39.0621 1520.78 39.6276 1519.69 40.3302 1518.35L39.4432 1517.88ZM39.4399 1517.89L39.4398 1517.89L40.3336 1518.34L40.3337 1518.34L39.4399 1517.89ZM39.4511 1517.87L39.451 1517.87L40.3225 1518.36L40.3225 1518.36L39.4511 1517.87ZM42.2976 1512.74C40.9195 1515.05 40.1126 1516.6 39.4433 1517.88L40.3303 1518.35C40.9968 1517.07 41.7932 1515.54 43.1565 1513.25L42.2976 1512.74ZM47.5209 1509.53C45.7204 1510 43.6055 1510.54 42.2976 1512.74L43.1565 1513.25C44.2298 1511.45 45.9354 1510.98 47.7751 1510.5L47.5209 1509.53ZM52.0372 1504.46C51.9905 1506.51 51.4214 1507.58 50.661 1508.23C49.8637 1508.91 48.7864 1509.2 47.5209 1509.53L47.7751 1510.5C48.989 1510.18 50.3074 1509.84 51.3104 1508.99C52.3503 1508.1 52.986 1506.72 53.0369 1504.48L52.0372 1504.46ZM50.4464 1523.55C51.2205 1523.99 52.2765 1524.68 53.0111 1526.09C53.7468 1527.5 54.1949 1529.7 53.6019 1533.19L54.5878 1533.36C55.2059 1529.72 54.7617 1527.29 53.8977 1525.63C53.0326 1523.97 51.7815 1523.16 50.9369 1522.68L50.4464 1523.55ZM46.0199 1525.07C46.7154 1524.52 47.3057 1524.09 47.9977 1523.83C48.6771 1523.57 49.4877 1523.46 50.6243 1523.61L50.759 1522.62C49.4839 1522.45 48.5013 1522.57 47.642 1522.9C46.7953 1523.22 46.1013 1523.73 45.403 1524.28L46.0199 1525.07ZM45.2243 1529.83C45.1944 1528.59 45.1708 1527.56 45.2821 1526.72C45.3934 1525.89 45.6269 1525.37 46.0199 1525.07L45.403 1524.28C44.7048 1524.83 44.4152 1525.66 44.291 1526.59C44.1669 1527.52 44.1953 1528.64 44.2246 1529.85L45.2243 1529.83ZM45.2529 1532C45.2584 1531.23 45.2407 1530.5 45.2243 1529.83L44.2246 1529.85C44.241 1530.53 44.2583 1531.25 44.253 1532L45.2529 1532ZM45.4386 1541.95C44.7805 1541.89 44.2747 1541.55 43.9064 1541C43.5289 1540.43 43.295 1539.63 43.2428 1538.66C43.1383 1536.73 43.7694 1534.31 45.1647 1532.28L44.3412 1531.72C42.8267 1533.91 42.1272 1536.56 42.2442 1538.72C42.3027 1539.8 42.5675 1540.79 43.0734 1541.55C43.5885 1542.33 44.3507 1542.85 45.3419 1542.95L45.4386 1541.95ZM53.6019 1533.19C52.8539 1537.6 51.536 1539.83 50.106 1540.94C48.6854 1542.03 47.0496 1542.11 45.4386 1541.95L45.3419 1542.95C47.0293 1543.11 48.989 1543.06 50.7177 1541.73C52.4369 1540.4 53.822 1537.88 54.5878 1533.36L53.6019 1533.19Z" fill="#FFFACC"/>
</g>
<path d="M60.9158 1499.6C35.0096 1488.14 25.0397 1518.61 23.2931 1535.28C26.9892 1557.11 53.7903 1555.75 66.7288 1552.34C75.5854 1539.53 86.822 1511.06 60.9158 1499.6Z" fill="#C6C895"/>
<path fill-rule="evenodd" clip-rule="evenodd" d="M78.4646 1609.21C91.9158 1629.99 121.561 1628.77 134.702 1625.56C156.205 1618.26 178.196 1630.7 188.232 1641.99C194.217 1647.14 204.74 1658.1 198.952 1660.81C194.387 1662.95 185.571 1654.81 178.492 1648.27C174.354 1644.45 170.809 1641.17 169.053 1640.82C166.64 1640.34 167.011 1642.18 167.459 1644.4C167.894 1646.55 168.402 1649.07 166.491 1650.16C162.645 1652.35 159.156 1649.46 148.586 1640.71L148.351 1640.51C139.748 1633.39 122.416 1638.42 114.826 1641.83C114.509 1641.95 114.174 1642.09 113.821 1642.22C104.032 1646.06 80.5134 1655.29 51.4765 1640.34C24.4403 1626.42 12.74 1582.74 11.389 1559.98C9.22763 1551.68 5.15337 1532.56 9.31457 1517.73C13.1668 1503.99 18.4856 1508.54 20.857 1513.8C18.8761 1520.54 16.8563 1529.21 16.9807 1531.51C17.1154 1534 17.9465 1533.01 17.9494 1530.95C17.9519 1529.14 19.9712 1520.5 21.3316 1514.97C21.344 1515.01 21.3562 1515.04 21.3683 1515.08C23.2518 1505.51 33.4369 1487.67 59.11 1492.85C84.7491 1498.01 79.9997 1532.73 74.4022 1549.52C71.8318 1549.11 66.6782 1553.83 64.9859 1557.87C63.8175 1560 62.3247 1568 62.8362 1569.54C63.177 1570.56 63.1816 1570.45 63.2219 1569.47C63.2945 1567.71 63.4827 1563.13 65.9547 1557.31C67.4607 1553.77 72.6109 1549.07 74.9839 1549.98C80.9441 1554.1 81.9762 1561.91 80.4191 1567.59C80.0719 1568.85 78.9997 1570.3 77.701 1572.06C72.9846 1578.43 65.2808 1588.83 78.4646 1609.21ZM65.7097 1519.88C62.0555 1512.25 64.3524 1511.06 66.395 1510.14C71.8183 1508.08 73.5943 1517.95 73.8044 1523.15C74.2308 1533.7 69.4611 1533.89 68.1677 1533.94L68.1675 1533.94L68.1648 1533.94C68.1189 1533.94 68.0775 1533.95 68.0409 1533.95C66.9741 1534.01 63.2788 1532.67 64.6515 1528L64.6736 1527.92C66.0296 1523.31 66.5324 1521.6 65.7097 1519.88ZM52.537 1504.47C51.2169 1502.05 45.434 1498.44 38.0765 1504.83C33.5394 1508.77 31.7855 1511.16 29.9391 1517.89C27.7471 1525.89 35.4598 1525.27 37.7166 1521.89C38.6297 1520.53 39.1842 1519.46 39.8867 1518.11L39.8868 1518.11L39.8868 1518.11C40.5547 1516.83 41.3564 1515.29 42.727 1512.99C43.9176 1511 45.8279 1510.49 47.648 1510.01C50.1274 1509.36 52.4395 1508.76 52.537 1504.47ZM54.0949 1533.28C55.3059 1526.14 52.3103 1524.03 50.6916 1523.12C48.2799 1522.79 47.1053 1523.58 45.7114 1524.67C44.6203 1525.53 44.6653 1527.39 44.7244 1529.84C44.7408 1530.52 44.7583 1531.24 44.7529 1532C41.8432 1536.22 42.0917 1542.13 45.3902 1542.45C48.6887 1542.77 52.5811 1542.2 54.0949 1533.28Z" fill="url(#paint8_linear_194_380)"/>
<g filter="url(#filter2_f_194_380)">
<path d="M713.111 1381.14L713.356 1380.71L713.328 1380.69L713.299 1380.68L713.111 1381.14ZM679.062 1354.98L679.503 1354.75L679.062 1354.98ZM740.551 1399.05L740.226 1399.43L740.241 1399.44L740.257 1399.45L740.551 1399.05ZM724.552 1483.77L724.882 1483.4L724.552 1483.77ZM727.957 1489.37L728.332 1489.7L728.389 1489.64L728.421 1489.56L727.957 1489.37ZM712.632 1481.95L713.057 1481.69L713.029 1481.64L712.992 1481.6L712.632 1481.95ZM716.339 1453.32L715.992 1452.96L715.982 1452.97L716.339 1453.32ZM717.735 1405.4L717.36 1405.73L717.735 1405.4ZM692.79 1392.99L692.301 1392.89L692.186 1393.42L692.725 1393.49L692.79 1392.99ZM691.596 1404.91L691.881 1404.5L691.596 1404.91ZM684.164 1399.87L683.869 1400.28L683.877 1400.28L683.886 1400.29L684.164 1399.87ZM684.164 1399.87L684.458 1399.47L684.45 1399.46L684.442 1399.46L684.164 1399.87ZM656.446 1375.76L655.995 1375.98L656.446 1375.76ZM644.736 1359.53L645.118 1359.2L644.736 1359.53ZM627.075 1333.49L626.617 1333.69L627.075 1333.49ZM640.858 1268.55L640.972 1269.04L640.858 1268.55ZM670.409 1316.99L670.097 1317.38L670.959 1318.07L670.909 1316.97L670.409 1316.99ZM665.244 1325.59L664.748 1325.66L664.75 1325.67L665.244 1325.59ZM665.652 1324.18L665.153 1324.2L665.652 1324.18ZM667.973 1317.14L668.232 1317.57L667.973 1317.14ZM670.091 1317.17L670.196 1316.68L670.196 1316.68L670.091 1317.17ZM670.532 1317.25L670.736 1316.8L670.669 1316.77L670.597 1316.76L670.532 1317.25ZM675.785 1336.94L675.286 1336.98L675.785 1336.94ZM630.752 1289.01L630.286 1288.83L630.286 1288.83L630.752 1289.01ZM630.752 1289.01L631.218 1289.19L631.218 1289.19L630.752 1289.01ZM638.416 1278.78L638.327 1279.27L638.327 1279.27L638.416 1278.78ZM638.481 1292.69L638.019 1292.5L638.019 1292.5L638.481 1292.69ZM630.108 1301.72L630.402 1301.31L630.401 1301.31L630.108 1301.72ZM630.043 1301.67L630.337 1301.26L630.336 1301.26L630.043 1301.67ZM629.993 1301.63L630.286 1301.23L630.286 1301.23L629.993 1301.63ZM630.508 1289.64L630.043 1289.45L630.508 1289.64ZM630.751 1289.01L631.217 1289.19L631.217 1289.19L630.751 1289.01ZM630.752 1289.01L630.286 1288.83L630.286 1288.83L630.752 1289.01ZM657.096 1294.41L657.574 1294.26L657.096 1294.41ZM650.231 1282.86L650.344 1283.35L650.344 1283.35L650.231 1282.86ZM655.577 1306.55L655.283 1306.96L655.376 1307.02L655.49 1307.04L655.577 1306.55ZM650.408 1296.84L649.926 1296.98L650.408 1296.84ZM649.87 1294.91L649.389 1295.05L649.87 1294.91ZM641.982 1302.1L641.814 1301.63L641.814 1301.63L641.982 1302.1ZM639.404 1306.93L639.897 1307.01L639.404 1306.93ZM645.777 1306.74L646.271 1306.66L646.271 1306.66L645.777 1306.74ZM643.161 1312.47L643.212 1312.97L643.161 1312.47ZM713.299 1380.68C694.961 1373.27 684.034 1363.29 679.503 1354.75L678.62 1355.22C683.296 1364.03 694.449 1374.14 712.924 1381.61L713.299 1380.68ZM740.876 1398.67C732.642 1391.62 725.79 1387.69 713.356 1380.71L712.867 1381.58C725.305 1388.57 732.076 1392.45 740.226 1399.43L740.876 1398.67ZM734.346 1452.87C744.313 1448.46 750.711 1438.38 752.242 1427.7C753.775 1417.01 750.445 1405.63 740.846 1398.64L740.257 1399.45C749.497 1406.18 752.744 1417.16 751.252 1427.56C749.76 1437.97 743.533 1447.71 733.941 1451.96L734.346 1452.87ZM724.882 1483.4C723.929 1482.56 722.82 1480.78 722.009 1478.38C721.202 1476.01 720.71 1473.08 720.942 1470.01C721.404 1463.89 724.737 1457.13 734.346 1452.87L733.941 1451.96C723.99 1456.37 720.434 1463.45 719.945 1469.93C719.702 1473.15 720.217 1476.21 721.061 1478.71C721.9 1481.18 723.083 1483.15 724.223 1484.15L724.882 1483.4ZM728.421 1489.56C728.629 1489.04 728.547 1488.22 728.057 1487.21C727.554 1486.19 726.59 1484.9 724.882 1483.4L724.223 1484.15C725.862 1485.59 726.73 1486.78 727.158 1487.65C727.598 1488.55 727.545 1489.06 727.494 1489.18L728.421 1489.56ZM712.208 1482.21C713.734 1484.67 716.352 1488.01 719.258 1490.02C720.711 1491.03 722.281 1491.74 723.851 1491.8C725.45 1491.85 726.987 1491.23 728.332 1489.7L727.582 1489.04C726.417 1490.36 725.16 1490.84 723.886 1490.8C722.584 1490.75 721.201 1490.16 719.828 1489.2C717.08 1487.3 714.547 1484.08 713.057 1481.69L712.208 1482.21ZM715.982 1452.97C713.312 1455.7 709.917 1460.42 708.412 1465.75C706.9 1471.11 707.291 1477.13 712.272 1482.3L712.992 1481.6C708.318 1476.75 707.933 1471.13 709.374 1466.02C710.822 1460.89 714.108 1456.31 716.696 1453.67L715.982 1452.97ZM717.36 1405.73C726.126 1415.69 727.701 1425.62 726.145 1433.98C724.583 1442.38 719.861 1449.23 715.992 1452.96L716.686 1453.68C720.675 1449.84 725.521 1442.8 727.128 1434.17C728.74 1425.5 727.084 1415.26 718.11 1405.07L717.36 1405.73ZM693.278 1393.1C693.489 1392.13 693.993 1391.25 694.844 1390.73C695.688 1390.21 696.96 1389.99 698.818 1390.52C702.573 1391.59 708.497 1395.66 717.36 1405.73L718.11 1405.07C709.232 1394.98 703.145 1390.72 699.093 1389.56C697.048 1388.98 695.468 1389.17 694.32 1389.87C693.179 1390.58 692.552 1391.73 692.301 1392.89L693.278 1393.1ZM691.311 1405.32C693.004 1406.49 694.422 1407.22 695.597 1407.57C696.77 1407.92 697.754 1407.9 698.524 1407.51C699.303 1407.12 699.759 1406.4 699.979 1405.55C700.198 1404.71 700.198 1403.71 700.045 1402.66C699.739 1400.56 698.803 1398.16 697.542 1396.23C696.91 1395.26 696.187 1394.4 695.405 1393.74C694.626 1393.08 693.763 1392.62 692.855 1392.5L692.725 1393.49C693.382 1393.58 694.073 1393.93 694.762 1394.5C695.45 1395.08 696.111 1395.87 696.704 1396.78C697.894 1398.6 698.773 1400.87 699.056 1402.8C699.197 1403.77 699.185 1404.63 699.011 1405.3C698.839 1405.96 698.522 1406.4 698.074 1406.62C697.616 1406.85 696.918 1406.92 695.882 1406.61C694.847 1406.3 693.527 1405.64 691.881 1404.5L691.311 1405.32ZM683.886 1400.29C686.421 1401.99 688.925 1403.66 691.311 1405.32L691.881 1404.5C689.487 1402.84 686.975 1401.15 684.442 1399.46L683.886 1400.29ZM683.869 1400.28L683.869 1400.28L684.458 1399.47L684.458 1399.47L683.869 1400.28ZM655.995 1375.98C657.991 1380.17 662.088 1384.31 667.087 1388.35C672.097 1392.4 678.073 1396.4 683.886 1400.29L684.442 1399.46C678.62 1395.56 672.684 1391.59 667.716 1387.57C662.738 1383.55 658.792 1379.52 656.897 1375.55L655.995 1375.98ZM644.354 1359.85C649.138 1365.52 653.448 1370.64 655.995 1375.98L656.897 1375.55C654.284 1370.07 649.879 1364.85 645.118 1359.2L644.354 1359.85ZM626.617 1333.69C631.262 1344.33 638.181 1352.53 644.354 1359.85L645.118 1359.2C638.937 1351.88 632.113 1343.78 627.534 1333.29L626.617 1333.69ZM640.744 1268.07C633.574 1269.74 628.57 1273.53 625.248 1278.57C621.934 1283.6 620.31 1289.84 619.834 1296.43C618.882 1309.6 622.505 1324.26 626.617 1333.69L627.534 1333.29C623.47 1323.97 619.894 1309.47 620.831 1296.5C621.3 1290.02 622.893 1283.96 626.083 1279.12C629.264 1274.3 634.051 1270.66 640.972 1269.04L640.744 1268.07ZM670.909 1316.97C670.518 1308.36 668.456 1294.94 663.799 1284.28C661.471 1278.94 658.476 1274.26 654.677 1271.22C650.858 1268.16 646.238 1266.78 640.744 1268.07L640.972 1269.04C646.143 1267.83 650.453 1269.12 654.053 1272C657.673 1274.89 660.586 1279.42 662.883 1284.68C667.474 1295.19 669.522 1308.48 669.91 1317.02L670.909 1316.97ZM665.739 1325.53C665.185 1321.35 665.912 1318.91 666.916 1317.75C667.412 1317.18 667.974 1316.91 668.511 1316.87C669.051 1316.82 669.608 1316.99 670.097 1317.38L670.721 1316.6C670.054 1316.07 669.247 1315.8 668.426 1315.87C667.602 1315.94 666.807 1316.35 666.16 1317.1C664.879 1318.58 664.179 1321.37 664.748 1325.66L665.739 1325.53ZM665.153 1324.2C665.187 1324.95 665.186 1325.45 665.166 1325.77C665.157 1325.93 665.143 1326.02 665.131 1326.08C665.125 1326.11 665.123 1326.11 665.128 1326.1C665.129 1326.09 665.155 1326.03 665.228 1325.97C665.323 1325.89 665.474 1325.83 665.638 1325.87C665.765 1325.91 665.832 1325.98 665.847 1326C665.879 1326.04 665.875 1326.05 665.852 1325.99C665.813 1325.89 665.769 1325.72 665.738 1325.52L664.75 1325.67C664.787 1325.91 664.846 1326.16 664.918 1326.35C664.95 1326.43 665.004 1326.56 665.093 1326.66C665.136 1326.71 665.231 1326.8 665.385 1326.84C665.576 1326.89 665.754 1326.83 665.874 1326.73C665.973 1326.65 666.023 1326.55 666.048 1326.49C666.075 1326.42 666.094 1326.35 666.108 1326.29C666.135 1326.17 666.153 1326.01 666.165 1325.83C666.187 1325.46 666.186 1324.92 666.152 1324.15L665.153 1324.2ZM667.714 1316.71C666.502 1317.44 665.844 1318.75 665.498 1320.1C665.151 1321.47 665.097 1322.96 665.153 1324.2L666.152 1324.15C666.098 1322.97 666.153 1321.58 666.467 1320.35C666.783 1319.11 667.341 1318.11 668.232 1317.57L667.714 1316.71ZM670.196 1316.68C669.884 1316.61 669.452 1316.52 669.028 1316.48C668.622 1316.45 668.116 1316.47 667.714 1316.71L668.232 1317.57C668.352 1317.49 668.587 1317.45 668.951 1317.48C669.296 1317.51 669.662 1317.59 669.985 1317.66L670.196 1316.68ZM670.597 1316.76C670.512 1316.75 670.384 1316.72 670.196 1316.68L669.985 1317.66C670.154 1317.69 670.331 1317.73 670.467 1317.75L670.597 1316.76ZM676.283 1336.89C675.879 1332.36 675.476 1327.82 674.712 1324.2C674.33 1322.39 673.852 1320.79 673.225 1319.52C672.601 1318.26 671.799 1317.27 670.736 1316.8L670.328 1317.71C671.088 1318.05 671.753 1318.8 672.329 1319.96C672.903 1321.12 673.359 1322.63 673.733 1324.41C674.482 1327.95 674.882 1332.43 675.286 1336.98L676.283 1336.89ZM679.503 1354.75C678.541 1352.94 677.889 1350.27 677.401 1347.13C676.915 1344 676.599 1340.45 676.283 1336.89L675.286 1336.98C675.602 1340.53 675.92 1344.11 676.413 1347.28C676.903 1350.44 677.574 1353.25 678.62 1355.22L679.503 1354.75ZM630.286 1288.83L630.286 1288.83L631.218 1289.19L631.219 1289.19L630.286 1288.83ZM638.506 1278.29C637.446 1278.09 636.478 1278.52 635.644 1279.22C634.812 1279.92 634.06 1280.94 633.393 1282.05C632.056 1284.28 630.985 1287.03 630.286 1288.83L631.218 1289.19C631.923 1287.38 632.965 1284.71 634.25 1282.56C634.894 1281.49 635.579 1280.58 636.288 1279.99C636.994 1279.39 637.668 1279.15 638.327 1279.27L638.506 1278.29ZM638.942 1292.89C640.525 1289.1 641.45 1285.71 641.498 1283.17C641.522 1281.89 641.329 1280.78 640.844 1279.93C640.348 1279.05 639.563 1278.48 638.506 1278.29L638.327 1279.27C639.095 1279.41 639.625 1279.8 639.974 1280.42C640.336 1281.06 640.521 1281.97 640.498 1283.15C640.454 1285.51 639.585 1288.75 638.019 1292.5L638.942 1292.89ZM629.813 1302.12C630.513 1302.63 631.288 1302.79 632.093 1302.57C632.87 1302.36 633.625 1301.81 634.36 1301.01C635.828 1299.42 637.363 1296.67 638.942 1292.89L638.019 1292.5C636.45 1296.26 634.97 1298.87 633.624 1300.33C632.952 1301.06 632.351 1301.46 631.83 1301.6C631.338 1301.74 630.874 1301.66 630.402 1301.31L629.813 1302.12ZM629.749 1302.07L629.814 1302.12L630.401 1301.31L630.337 1301.26L629.749 1302.07ZM629.7 1302.04L629.75 1302.07L630.336 1301.26L630.286 1301.23L629.7 1302.04ZM630.043 1289.45C628.142 1294.28 627.613 1297.11 627.79 1298.91C627.881 1299.82 628.156 1300.47 628.532 1300.97C628.899 1301.46 629.345 1301.78 629.7 1302.04L630.286 1301.23C629.92 1300.96 629.596 1300.73 629.332 1300.37C629.077 1300.03 628.86 1299.56 628.785 1298.81C628.633 1297.27 629.081 1294.62 630.973 1289.82L630.043 1289.45ZM630.285 1288.83C630.199 1289.05 630.118 1289.26 630.043 1289.45L630.973 1289.82C631.049 1289.63 631.131 1289.42 631.217 1289.19L630.285 1288.83ZM630.286 1288.83L630.285 1288.83L631.217 1289.19L631.218 1289.19L630.286 1288.83ZM630.286 1288.83L630.286 1288.83L631.218 1289.19L631.218 1289.19L630.286 1288.83ZM657.574 1294.26C656.087 1289.38 654.965 1286.3 653.889 1284.5C653.349 1283.6 652.791 1282.97 652.156 1282.62C651.501 1282.25 650.822 1282.21 650.119 1282.38L650.344 1283.35C650.859 1283.23 651.275 1283.27 651.67 1283.49C652.085 1283.72 652.532 1284.18 653.031 1285.02C654.034 1286.69 655.125 1289.66 656.618 1294.55L657.574 1294.26ZM655.49 1307.04C656.686 1307.26 657.992 1306.39 658.572 1304.4C659.151 1302.41 659.076 1299.19 657.574 1294.26L656.618 1294.55C658.096 1299.41 658.112 1302.41 657.612 1304.12C657.113 1305.83 656.17 1306.15 655.665 1306.06L655.49 1307.04ZM649.926 1296.98C650.658 1299.63 651.185 1301.54 651.929 1303.07C652.688 1304.62 653.668 1305.78 655.283 1306.96L655.872 1306.15C654.375 1305.06 653.508 1304.02 652.828 1302.63C652.134 1301.2 651.632 1299.39 650.89 1296.71L649.926 1296.98ZM649.389 1295.05C649.582 1295.73 649.76 1296.38 649.926 1296.98L650.89 1296.71C650.723 1296.11 650.546 1295.47 650.352 1294.78L649.389 1295.05ZM650.119 1282.38C649.45 1282.53 648.842 1282.8 648.392 1283.34C647.944 1283.87 647.707 1284.59 647.644 1285.54C647.52 1287.4 648.065 1290.35 649.389 1295.05L650.352 1294.78C649.024 1290.06 648.531 1287.27 648.642 1285.6C648.696 1284.78 648.894 1284.29 649.156 1283.98C649.416 1283.67 649.794 1283.48 650.344 1283.35L650.119 1282.38ZM641.814 1301.63C640.265 1302.19 639.442 1303.67 638.911 1306.85L639.897 1307.01C640.424 1303.86 641.172 1302.92 642.15 1302.58L641.814 1301.63ZM646.271 1306.66C646.014 1305.03 645.344 1303.67 644.546 1302.76C644.147 1302.31 643.704 1301.95 643.247 1301.75C642.79 1301.54 642.287 1301.46 641.814 1301.63L642.15 1302.58C642.309 1302.52 642.536 1302.52 642.833 1302.66C643.13 1302.79 643.465 1303.05 643.796 1303.42C644.457 1304.17 645.053 1305.35 645.283 1306.82L646.271 1306.66ZM643.212 1312.97C644.083 1312.88 644.784 1312.71 645.321 1312.41C645.879 1312.1 646.24 1311.66 646.435 1311.09C646.621 1310.54 646.646 1309.9 646.598 1309.18C646.549 1308.47 646.422 1307.62 646.271 1306.66L645.283 1306.82C645.436 1307.79 645.555 1308.59 645.6 1309.25C645.645 1309.92 645.61 1310.41 645.488 1310.76C645.374 1311.1 645.178 1311.34 644.834 1311.53C644.47 1311.74 643.924 1311.89 643.109 1311.97L643.212 1312.97ZM638.911 1306.85C638.69 1308.17 638.782 1309.76 639.416 1311C639.736 1311.62 640.202 1312.17 640.846 1312.54C641.492 1312.9 642.281 1313.06 643.212 1312.97L643.109 1311.97C642.354 1312.05 641.779 1311.92 641.339 1311.67C640.897 1311.42 640.556 1311.03 640.306 1310.54C639.8 1309.55 639.699 1308.19 639.897 1307.01L638.911 1306.85Z" fill="#FFFACC"/>
</g>
<path d="M627.221 1285.87C630.633 1274.41 640.42 1273.76 644.887 1274.87C648.918 1275.84 658.142 1280.82 662.786 1293C668.593 1308.23 662.259 1317.29 642.623 1320.69C622.986 1324.08 622.956 1300.19 627.221 1285.87Z" fill="#C6C895"/>
<path fill-rule="evenodd" clip-rule="evenodd" d="M679.062 1354.98C683.665 1363.66 694.705 1373.71 713.111 1381.14C725.548 1388.13 732.359 1392.03 740.551 1399.05C759.391 1412.77 753.703 1443.75 734.143 1452.42C714.583 1461.08 720.368 1480.1 724.552 1483.77C727.9 1486.71 728.217 1488.73 727.957 1489.37C722.936 1495.07 715.649 1486.8 712.632 1481.95C702.977 1471.93 711.08 1458.69 716.339 1453.32C724.196 1445.74 735.476 1425.55 717.735 1405.4C699.994 1385.24 693.713 1388.73 692.79 1392.99C699.051 1393.81 704.955 1414.17 691.596 1404.91C689.206 1403.25 686.698 1401.57 684.164 1399.87L684.164 1399.87C672.53 1392.09 660.338 1383.93 656.446 1375.76C653.866 1370.35 649.508 1365.19 644.736 1359.53C638.559 1352.2 631.687 1344.06 627.075 1333.49C618.9 1314.75 612.676 1275.15 640.858 1268.55C662.189 1263.56 669.631 1299.85 670.409 1316.99C668.097 1315.15 664.12 1317.12 665.244 1325.59C665.382 1326.47 665.789 1327.2 665.652 1324.18C665.543 1321.76 665.87 1318.41 667.973 1317.14C668.495 1316.82 669.455 1317.03 670.091 1317.17C670.269 1317.21 670.422 1317.24 670.532 1317.25C674.178 1318.89 674.977 1327.86 675.785 1336.94C676.416 1344.04 677.054 1351.2 679.062 1354.98ZM630.752 1289.01L630.752 1289.01C632.156 1285.4 634.978 1278.15 638.416 1278.78C642.067 1279.44 641.629 1285.15 638.481 1292.69C635.332 1300.24 632.45 1303.42 630.108 1301.72L630.043 1301.67L629.993 1301.63C628.552 1300.59 626.716 1299.27 630.508 1289.64C630.583 1289.44 630.665 1289.23 630.751 1289.01L630.752 1289.01L630.752 1289.01ZM650.231 1282.86C652.668 1282.3 654.117 1284.63 657.096 1294.41C660.075 1304.19 657.279 1306.86 655.577 1306.55C652.465 1304.28 651.882 1302.18 650.408 1296.84C650.241 1296.24 650.064 1295.6 649.87 1294.91C647.219 1285.5 647.795 1283.43 650.231 1282.86ZM639.404 1306.93C639.933 1303.77 640.719 1302.56 641.982 1302.1C643.246 1301.65 645.29 1303.64 645.777 1306.74C646.385 1310.61 646.533 1312.12 643.161 1312.47C639.789 1312.82 638.986 1309.43 639.404 1306.93Z" fill="url(#paint9_linear_194_380)"/>
<path d="M879 125H249.467L-15.4153 382.298L-23 433L80.2691 406.483L142.406 366.272L202.5 400.073L249.467 372.682L294.392 278.563L367.03 267.781L456.005 214.748L537.395 239.808L584.362 174.245L791.192 198.139L858.871 239.808L879 214.748V125Z" fill="#232A2A"/>
<path d="M879 78.9659L744.199 39L482.174 106.61L249.324 78.9659L111.313 168.724H-41.0001L-23.2056 387L80.087 360.48L142.238 320.264L202.346 354.069L249.324 326.675L294.259 232.546L366.914 221.763L455.909 168.724L537.317 193.787L584.295 128.216L791.172 152.113L858.867 193.787L879 168.724V78.9659Z" fill="#6A7D7D"/>
<g filter="url(#filter3_f_194_380)">
<path d="M215.924 755.103L215.896 755.602L215.924 755.103ZM200.297 749.263L200.54 748.826L200.54 748.826L200.297 749.263ZM285.304 749.239L284.979 749.618L285.304 749.239ZM288.651 786.005L288.567 786.498L288.883 786.552L289.064 786.287L288.651 786.005ZM288.434 785.975L288.488 785.478L288.434 785.975ZM285.84 786.293L285.681 785.819L285.847 786.793L285.84 786.293ZM290.451 786.817L290.351 787.307L292.12 787.665L290.788 786.448L290.451 786.817ZM290.445 786.812L290.553 786.324L288.707 785.917L290.11 787.183L290.445 786.812ZM300.223 793.712L299.742 793.847L300.223 793.712ZM279.86 796.812L279.66 797.271L279.86 796.812ZM274.781 794.587L274.58 795.044L274.781 794.587ZM254.582 787.678L254.618 787.179L254.582 787.678ZM250.566 787.641L250.578 788.141L250.578 788.141L250.566 787.641ZM231.405 782.184L231.669 781.759L231.405 782.184ZM228.004 779.092L227.637 779.432L227.637 779.432L228.004 779.092ZM226.798 777.818L227.153 777.465L226.798 777.818ZM209.005 765.592L208.764 766.03L209.005 765.592ZM198.158 755.237L198.602 755.006L198.158 755.237ZM193.05 748.544L193.02 748.045L191.428 748.14L192.79 748.971L193.05 748.544ZM198.412 748.225L198.65 747.785L198.525 747.717L198.382 747.725L198.412 748.225ZM215.952 754.604C210.388 754.288 205.007 751.308 200.54 748.826L200.054 749.7C204.478 752.158 210.063 755.271 215.896 755.602L215.952 754.604ZM249.271 748.298C234.416 753.357 224.028 755.062 215.952 754.604L215.896 755.602C224.154 756.07 234.682 754.323 249.593 749.245L249.271 748.298ZM285.63 748.859C281.124 745 275.744 743.594 269.642 743.786C263.555 743.978 256.724 745.76 249.271 748.298L249.593 749.245C257.023 746.715 263.739 744.973 269.674 744.786C275.593 744.599 280.708 745.961 284.979 749.618L285.63 748.859ZM289.064 786.287C295.327 777.101 296.728 769.633 295.389 763.479C294.054 757.341 290.016 752.615 285.63 748.859L284.979 749.618C289.297 753.316 293.144 757.864 294.412 763.691C295.675 769.501 294.397 776.69 288.238 785.724L289.064 786.287ZM288.734 785.512C288.654 785.499 288.572 785.487 288.488 785.478L288.379 786.472C288.443 786.479 288.505 786.488 288.567 786.498L288.734 785.512ZM288.488 785.478C287.391 785.358 286.164 785.656 285.681 785.819L286 786.767C286.416 786.626 287.486 786.374 288.379 786.472L288.488 785.478ZM285.847 786.793C287.3 786.772 289.45 787.125 290.351 787.307L290.55 786.327C289.635 786.142 287.399 785.771 285.833 785.793L285.847 786.793ZM290.788 786.448C290.785 786.445 290.782 786.443 290.78 786.441L290.11 787.183C290.111 787.185 290.113 787.186 290.113 787.186L290.788 786.448ZM300.704 793.576C300.085 791.379 298.431 789.766 296.524 788.613C294.614 787.458 292.399 786.731 290.553 786.324L290.338 787.301C292.117 787.693 294.219 788.387 296.006 789.468C297.797 790.551 299.218 791.988 299.742 793.847L300.704 793.576ZM279.66 797.271C286.46 800.232 292.097 801.04 295.859 800.271C297.742 799.887 299.206 799.095 300.075 797.925C300.956 796.739 301.173 795.239 300.704 793.576L299.742 793.847C300.142 795.269 299.936 796.435 299.273 797.328C298.598 798.236 297.394 798.937 295.658 799.292C292.181 800.002 286.767 799.275 280.06 796.354L279.66 797.271ZM274.58 795.044C276.141 795.731 277.827 796.472 279.66 797.271L280.06 796.354C278.228 795.556 276.543 794.815 274.982 794.129L274.58 795.044ZM254.545 788.176C259.808 788.557 264.601 790.657 274.58 795.044L274.982 794.129C265.064 789.768 260.092 787.575 254.618 787.179L254.545 788.176ZM250.578 788.141C251.925 788.11 253.214 788.08 254.545 788.176L254.618 787.179C253.231 787.079 251.895 787.11 250.554 787.141L250.578 788.141ZM231.141 782.609C235.758 785.477 239.401 786.894 242.513 787.576C245.623 788.257 248.177 788.196 250.578 788.141L250.554 787.141C248.155 787.197 245.708 787.252 242.727 786.599C239.747 785.946 236.209 784.579 231.669 781.759L231.141 782.609ZM227.637 779.432C228.692 780.574 229.793 781.771 231.141 782.609L231.669 781.759C230.456 781.006 229.445 779.916 228.371 778.753L227.637 779.432ZM226.443 778.17C226.847 778.577 227.239 779.001 227.637 779.432L228.371 778.753C227.976 778.325 227.572 777.887 227.153 777.465L226.443 778.17ZM208.764 766.03C214.328 769.087 221.167 772.849 226.443 778.17L227.153 777.465C221.759 772.026 214.79 768.2 209.246 765.154L208.764 766.03ZM203.815 763.224C205.255 764.102 206.944 765.03 208.764 766.03L209.246 765.154C207.42 764.151 205.753 763.235 204.336 762.37L203.815 763.224ZM197.715 755.468C199.187 758.293 200.777 761.37 203.815 763.224L204.336 762.37C201.574 760.685 200.096 757.874 198.602 755.006L197.715 755.468ZM192.79 748.971C195.026 750.335 196.312 752.774 197.715 755.468L198.602 755.006C197.23 752.372 195.828 749.653 193.311 748.117L192.79 748.971ZM198.382 747.725L193.02 748.045L193.08 749.043L198.442 748.724L198.382 747.725ZM200.54 748.826C199.889 748.464 199.257 748.113 198.65 747.785L198.174 748.664C198.776 748.99 199.402 749.338 200.054 749.7L200.54 748.826Z" fill="#232A2A"/>
</g>
<path fill-rule="evenodd" clip-rule="evenodd" d="M201.838 749.854C205.937 752.192 210.499 754.795 215.924 755.103C224.091 755.566 234.549 753.84 249.432 748.772C264.315 743.703 276.528 741.722 285.304 749.239C294.009 756.693 301.073 767.786 288.651 786.005C288.58 785.993 288.507 785.983 288.434 785.975C287.439 785.866 286.29 786.141 285.84 786.293C287.349 786.272 289.543 786.634 290.451 786.817C290.449 786.816 290.447 786.814 290.445 786.812C294.071 787.612 299.08 789.655 300.223 793.712C301.961 799.881 293.367 802.695 279.86 796.812C278.028 796.014 276.342 795.273 274.781 794.587C264.833 790.212 259.95 788.066 254.582 787.678C253.223 787.58 251.91 787.61 250.566 787.641C245.766 787.752 240.562 787.872 231.405 782.184C230.125 781.388 229.069 780.245 228.004 779.092C227.607 778.663 227.209 778.232 226.798 777.818C221.463 772.438 214.559 768.644 209.005 765.592C207.182 764.59 205.504 763.668 204.075 762.797C201.175 761.028 199.642 758.083 198.158 755.237C196.771 752.573 195.427 749.994 193.05 748.544L199.38 748.476C200.182 748.91 201 749.376 201.838 749.854Z" fill="url(#paint10_linear_194_380)"/>
<path d="M269.425 756.643C275.551 754.451 277.97 756.645 278.414 758.016C279.108 759.786 276.57 761.534 275.214 762.187C269.178 765.154 265.984 764.159 265.13 762.867C264.276 761.576 263.3 758.834 269.425 756.643Z" fill="#E7CE98"/>
<path d="M280.706 768.049C282.524 763.459 285.409 762.272 287.104 762.716C290.086 763.947 289.342 767.285 288.842 768.886C287.398 773.507 284.146 775.788 282.206 775.252C280.266 774.716 279.264 771.689 280.706 768.049Z" fill="#E7CE98"/>
<path d="M267.354 768.352C269.509 766.366 272.584 767.94 273.851 768.976C278.514 772.607 276.225 774.747 275.446 775.058C274.667 775.369 271.064 777.088 268.17 774.745C266.197 773.148 264.66 770.835 267.354 768.352Z" fill="#E7CE98"/>
<path d="M258.908 734.333C257.317 734.202 255.743 735.891 255.154 736.753C253.421 740.507 257.126 739.052 259.028 737.36C259.794 736.677 260.751 737.392 262.314 737.015C263.876 736.638 263.338 734.722 262.226 735.158C261.114 735.595 260.898 734.498 258.908 734.333Z" fill="#3A5B4E"/>
<path d="M214.251 774.309C213.451 773.909 212.751 773.809 211.251 774.309C209.251 774.976 211.751 776.809 212.751 777.309C213.751 777.809 216.251 778.309 216.251 777.309C216.251 776.309 215.251 774.809 214.251 774.309Z" fill="#9AB474"/>
<path d="M264.53 737.916C264.195 738.158 264.061 738.411 264.231 739.071C264.458 739.95 265.876 739.29 266.294 738.987C266.713 738.685 267.28 737.805 266.642 737.64C266.004 737.475 264.948 737.613 264.53 737.916Z" fill="#3A5B4E"/>
<path d="M254 734.5L271 704.5L250.5 732C233.667 735.5 199.5 742.7 197.5 743.5C195 744.5 169 770.5 164 774.5C160 777.7 135.667 784.167 124 787H135.5L164 779L200 748L254 734.5Z" fill="#232A2A"/>
<path d="M727.312 264.478L657.654 239.315L589.938 273.571L601.148 348.112L576.08 411.243L615.247 443.858L653.228 428.325L704.156 432.2L793.307 425.846L810.269 368.346L727.312 264.478Z" fill="#374242"/>
<path d="M601.298 382.629L629.518 314.277L598.417 245.139L523.604 252.907L461.798 225.001L427.521 262.587L441.296 301.196L435.141 351.835L437.462 441.081L494.02 460.642L601.298 382.629Z" fill="#4E6060"/>
<path d="M717.434 556.129L770.855 547.575L802.07 501.727L768.601 458.046L762.356 408.826L725.802 401.832L706.996 425.195L673.063 440.732L618.297 476.326L627.739 519.079L717.434 556.129Z" fill="#4E6060"/>
<path d="M295.204 577.143L354.748 533.294L363.958 458.044L295.939 425.937L257.527 370.051L208.738 384.447L200.521 424.608L169.026 464.736L124.783 542.278L163.03 588.306L295.204 577.143Z" fill="#4E6060"/>
<defs>
<filter id="filter0_f_194_380" x="413.891" y="1456.91" width="269.078" height="202.884" filterUnits="userSpaceOnUse" color-interpolation-filters="sRGB">
<feFlood flood-opacity="0" result="BackgroundImageFix"/>
<feBlend mode="normal" in="SourceGraphic" in2="BackgroundImageFix" result="shape"/>
<feGaussianBlur stdDeviation="2" result="effect1_foregroundBlur_194_380"/>
</filter>
<filter id="filter1_f_194_380" x="3.0166" y="1487.42" width="202.118" height="178.238" filterUnits="userSpaceOnUse" color-interpolation-filters="sRGB">
<feFlood flood-opacity="0" result="BackgroundImageFix"/>
<feBlend mode="normal" in="SourceGraphic" in2="BackgroundImageFix" result="shape"/>
<feGaussianBlur stdDeviation="2" result="effect1_foregroundBlur_194_380"/>
</filter>
<filter id="filter2_f_194_380" x="615.681" y="1263.59" width="140.918" height="232.212" filterUnits="userSpaceOnUse" color-interpolation-filters="sRGB">
<feFlood flood-opacity="0" result="BackgroundImageFix"/>
<feBlend mode="normal" in="SourceGraphic" in2="BackgroundImageFix" result="shape"/>
<feGaussianBlur stdDeviation="2" result="effect1_foregroundBlur_194_380"/>
</filter>
<filter id="filter3_f_194_380" x="187.428" y="739.769" width="117.518" height="64.7754" filterUnits="userSpaceOnUse" color-interpolation-filters="sRGB">
<feFlood flood-opacity="0" result="BackgroundImageFix"/>
<feBlend mode="normal" in="SourceGraphic" in2="BackgroundImageFix" result="shape"/>
<feGaussianBlur stdDeviation="2" result="effect1_foregroundBlur_194_380"/>
</filter>
<linearGradient id="paint0_linear_194_380" x1="358" y1="343" x2="358" y2="1743" gradientUnits="userSpaceOnUse">
<stop offset="0.06022" stop-color="#343F3F"/>
<stop offset="0.506591" stop-color="#51242B"/>
</linearGradient>
<radialGradient id="paint1_radial_194_380" cx="0" cy="0" r="1" gradientUnits="userSpaceOnUse" gradientTransform="translate(387.805 1233.6) rotate(90) scale(407.09 440.18)">
<stop offset="0.24522" stop-color="#A25252"/>
<stop offset="0.45522" stop-color="#D08042"/>
<stop offset="0.81022" stop-color="#9E402B"/>
<stop offset="0.875" stop-color="#51242B"/>
</radialGradient>
<radialGradient id="paint2_radial_194_380" cx="0" cy="0" r="1" gradientUnits="userSpaceOnUse" gradientTransform="translate(387.805 1233.6) rotate(90) scale(407.09 440.18)">
<stop offset="0.24522" stop-color="#A25252"/>
<stop offset="0.45522" stop-color="#D08042"/>
<stop offset="0.81022" stop-color="#9E402B"/>
<stop offset="0.875" stop-color="#51242B"/>
</radialGradient>
<radialGradient id="paint3_radial_194_380" cx="0" cy="0" r="1" gradientUnits="userSpaceOnUse" gradientTransform="translate(387.805 1233.6) rotate(90) scale(407.09 440.18)">
<stop offset="0.24522" stop-color="#A25252"/>
<stop offset="0.45522" stop-color="#D08042"/>
<stop offset="0.81022" stop-color="#9E402B"/>
<stop offset="0.875" stop-color="#51242B"/>
</radialGradient>
<radialGradient id="paint4_radial_194_380" cx="0" cy="0" r="1" gradientUnits="userSpaceOnUse" gradientTransform="translate(387.805 1233.6) rotate(90) scale(407.09 440.18)">
<stop offset="0.24522" stop-color="#A25252"/>
<stop offset="0.45522" stop-color="#D08042"/>
<stop offset="0.81022" stop-color="#9E402B"/>
<stop offset="0.875" stop-color="#51242B"/>
</radialGradient>
<radialGradient id="paint5_radial_194_380" cx="0" cy="0" r="1" gradientUnits="userSpaceOnUse" gradientTransform="translate(387.805 1233.6) rotate(90) scale(407.09 440.18)">
<stop offset="0.24522" stop-color="#A25252"/>
<stop offset="0.45522" stop-color="#D08042"/>
<stop offset="0.81022" stop-color="#9E402B"/>
<stop offset="0.875" stop-color="#51242B"/>
</radialGradient>
<radialGradient id="paint6_radial_194_380" cx="0" cy="0" r="1" gradientUnits="userSpaceOnUse" gradientTransform="translate(382.943 1243.56) rotate(90) scale(239.782 267.391)">
<stop offset="0.24" stop-color="#F8EDA9" stop-opacity="0.8"/>
<stop offset="0.721667" stop-color="#D08042"/>
</radialGradient>
<linearGradient id="paint7_linear_194_380" x1="570.094" y1="1447.97" x2="530.803" y2="1673.8" gradientUnits="userSpaceOnUse">
<stop offset="0.275046" stop-color="#022838"/>
<stop offset="0.600046" stop-color="#3A5C4E"/>
<stop offset="0.905046" stop-color="#A2BC77"/>
</linearGradient>
<linearGradient id="paint8_linear_194_380" x1="34.45" y1="1496.15" x2="145.565" y2="1691.24" gradientUnits="userSpaceOnUse">
<stop offset="0.275046" stop-color="#022838"/>
<stop offset="0.600046" stop-color="#3A5C4E"/>
<stop offset="0.905046" stop-color="#A2BC77"/>
</linearGradient>
<linearGradient id="paint9_linear_194_380" x1="647.219" y1="1278.21" x2="695.267" y2="1455.91" gradientUnits="userSpaceOnUse">
<stop offset="0.26568" stop-color="#022838"/>
<stop offset="0.655086" stop-color="#3A5C4E"/>
<stop offset="0.940061" stop-color="#A2BC77"/>
</linearGradient>
<linearGradient id="paint10_linear_194_380" x1="296.55" y1="755.903" x2="199.203" y2="751.848" gradientUnits="userSpaceOnUse">
<stop offset="0.29022" stop-color="#4E1212"/>
<stop offset="0.73022" stop-color="#A25252"/>
<stop offset="0.82522" stop-color="#D08042"/>
</linearGradient>
</defs>
</svg>
