<svg width="380" height="355" viewBox="0 0 380 355" fill="none" xmlns="http://www.w3.org/2000/svg">
<path d="M288.377 306.654L300.928 271.019L378.5 210L376.429 230.58C375.88 236.039 373.113 241.032 368.776 244.391L288.377 306.654Z" fill="#5055B1"/>
<path d="M150.46 140.073V320.495H98.565L65 303.5L9.7888 225.533C3.44013 216.568 0.220788 205.761 0.628244 194.783L2.91978 133.043C3.28685 123.153 9.45333 114.411 18.6466 110.747L84.5 84.5L150.46 140.073Z" fill="#7378C7"/>
<path d="M19.5 236.5L11.3473 226.135C4.02142 216.822 0.241253 205.21 0.680748 193.368L2.91978 133.043C3.28685 123.153 9.45333 114.411 18.6466 110.747L84.5 84.5C31.1123 130.325 13.6997 162.068 19.5 236.5Z" fill="#9597D0"/>
<path d="M288.378 306.654L195.42 346.468C182.711 351.911 168.316 351.849 155.654 346.297L71.5181 309.401C62.4502 305.425 59.6549 293.908 65.8907 286.217L139.339 195.626L300.928 271.018L288.378 306.654Z" fill="#7378C7"/>
<path d="M377.982 208.006C379.208 217.839 374.512 227.468 366.008 232.555L333.5 252L301.5 52L345.815 83.0598C357.385 91.1692 364.984 103.795 366.733 117.816L377.982 208.006Z" fill="#5055B1"/>
<path d="M364.996 184.823C373.665 207.567 364.698 233.249 343.755 245.652L300.928 271.018L139.339 195.626L86 82.5L131.705 30.4465C147.638 12.3011 172.896 5.47515 195.8 13.1249L281.007 41.584C302.323 48.7036 319.324 65.0071 327.329 86.0071L364.996 184.823Z" fill="#7378C7"/>
<path d="M191.571 11.2007C172.452 4.42484 151.134 9.8715 137.608 24.9879L84.3311 84.5293L159.966 131L287.022 68.449C297.342 63.3685 296.464 48.3749 285.623 44.5326L191.571 11.2007Z" fill="#C1BFEC"/>
</svg>
