<svg width="465" height="486" viewBox="0 0 465 486" fill="none" xmlns="http://www.w3.org/2000/svg">
<path d="M253 439.5L321.499 382L407.499 337L389.047 357.586C362.871 386.789 330.191 409.424 293.65 423.662L253 439.5Z" fill="#5055B1"/>
<path d="M43.5 380L38.9254 333.491C34.0033 283.45 36.6578 232.953 46.7992 183.703L59.1581 123.686L122 159.5L151.5 171L95.4999 159.5L43.5 380Z" fill="#9597D0"/>
<path d="M47.0448 385.619C43.9342 383.696 42.1217 380.192 42.3253 376.541C47.989 274.931 56.4435 223.182 83.9995 149.5L270.691 244.77L328.499 377.5L261.358 434.65C250.622 443.789 236.526 447.97 222.544 446.164L135.204 434.883C128.149 433.971 121.37 431.565 115.319 427.824L47.0448 385.619Z" fill="#7378C7"/>
<path d="M281 130L197.5 150L147.5 175.5L58.9593 124.633L120.675 85.2783C160.831 59.6718 207.466 46.0681 255.091 46.0681L285 46.0681L281 130Z" fill="#C1BFEC"/>
<path d="M324.499 380L267.499 241.5L306.105 186.551L424.818 251.927L411.546 330.848C410.442 337.414 406.143 343 400.079 345.748L324.499 380Z" fill="#7378C7"/>
<path d="M322.7 73.4565C358.991 102.757 386.361 141.626 401.717 185.668L424.818 251.927L366.048 229.201C341.683 219.779 319.534 205.41 301 187L275.5 135.5L281.795 50.5139C282.093 46.4922 286.785 44.4597 289.922 46.993L322.7 73.4565Z" fill="#ADA7D7"/>
<path d="M265.037 129.957C274.743 127.563 284.726 132.704 288.415 141.995L302.724 178.032C304.871 183.441 304.556 189.517 301.86 194.675L280.102 236.309C275.955 244.244 267.039 248.456 258.275 246.62L176.468 229.477C170.743 228.277 165.83 224.631 163.023 219.499L148.13 192.269C142.483 181.945 146.926 169 157.724 164.32L198.464 146.666C199.486 146.223 200.544 145.865 201.626 145.599L265.037 129.957Z" fill="#7378C7"/>
<path d="M265.037 129.957C274.743 127.563 284.726 132.704 288.415 141.995L302.724 178.032C304.871 183.441 304.556 189.517 301.86 194.675L280.102 236.309C275.955 244.244 267.039 248.456 258.275 246.62L176.468 229.477C170.743 228.277 165.83 224.631 163.023 219.499L148.13 192.269C142.483 181.945 146.926 169 157.724 164.32L198.464 146.666C199.486 146.223 200.544 145.865 201.626 145.599L265.037 129.957Z" stroke="white"/>
</svg>
