<svg width="2760" height="690" viewBox="0 0 2760 690" fill="none" xmlns="http://www.w3.org/2000/svg">
<g clip-path="url(#clip0_3413_661)">
<rect width="2760" height="690" fill="white"/>
<g clip-path="url(#clip1_3413_661)">
<rect width="2790" height="690" transform="translate(-30)" fill="white"/>
<rect x="-30" width="2790" height="690" fill="url(#paint0_linear_3413_661)"/>
<path opacity="0.65" d="M2771.07 781.613H-30V563.593L246.682 601.488L634.286 589.348L750.536 601.488L920.298 634.869L1294.88 601.488L1486.79 614.504L1772.8 621.093L2005.6 578.289L2505.36 609.113L2771.07 578.24V781.613Z" fill="#607B7D"/>
<path d="M2068.49 232.065C2071.53 227.14 2089.78 232.407 2098.52 235.656V274.645H2092.48C2045.94 275.215 1953.31 276.013 1955.1 274.645C1956.9 273.277 1959.88 272.593 1961.15 272.422H1979.44C1976.28 270.484 1972.71 266.608 1983.75 266.608C1997.56 266.608 1992.04 267.463 1993.59 260.794C1995.14 254.125 2045.71 262.846 2037.26 260.794C2028.8 258.742 2046.06 245.232 2051.41 240.615C2055.69 236.921 2064.58 242.154 2068.49 245.232C2067.23 242.895 2065.46 236.99 2068.49 232.065Z" fill="#5EBFC5" fill-opacity="0.15"/>
<path d="M2128.55 232.065C2125.52 227.14 2107.27 232.407 2098.52 235.656V274.645H2104.56C2151.11 275.215 2243.74 276.013 2241.94 274.645C2240.15 273.277 2237.17 272.593 2235.9 272.422H2217.61C2220.77 270.484 2224.34 266.608 2213.29 266.608C2199.49 266.608 2205.01 267.463 2203.46 260.794C2201.9 254.125 2151.34 262.846 2159.79 260.794C2168.25 258.742 2150.99 245.232 2145.64 240.615C2141.36 236.921 2132.47 242.154 2128.55 245.232C2129.82 242.895 2131.59 236.99 2128.55 232.065Z" fill="#5EBFC5" fill-opacity="0.15"/>
<path d="M2112.16 273.056C2114.27 269.621 2127 273.294 2133.1 275.561V302.755H2128.89C2096.43 303.152 2031.82 303.709 2033.07 302.755C2034.32 301.801 2036.4 301.324 2037.28 301.204H2050.04C2047.83 299.853 2045.35 297.149 2053.05 297.149C2062.68 297.149 2058.83 297.745 2059.91 293.094C2061 288.442 2096.27 294.525 2090.37 293.094C2084.47 291.662 2096.51 282.24 2100.24 279.019C2103.22 276.443 2109.43 280.093 2112.16 282.24C2111.27 280.61 2110.04 276.491 2112.16 273.056Z" fill="#5EBFC5" fill-opacity="0.25"/>
<path d="M2154.05 273.056C2151.93 269.621 2139.2 273.294 2133.1 275.561V302.755H2137.31C2169.78 303.152 2234.38 303.709 2233.13 302.755C2231.88 301.801 2229.8 301.324 2228.92 301.204H2216.16C2218.37 299.853 2220.85 297.149 2213.15 297.149C2203.52 297.149 2207.37 297.745 2206.29 293.094C2205.21 288.442 2169.94 294.525 2175.83 293.094C2181.73 291.662 2169.69 282.24 2165.96 279.019C2162.98 276.443 2156.77 280.093 2154.05 282.24C2154.93 280.61 2156.16 276.491 2154.05 273.056Z" fill="#5EBFC5" fill-opacity="0.25"/>
<path d="M2817.46 248.193C2829.39 228.669 2901.07 249.549 2935.41 262.429V416.992H2911.69C2728.88 419.251 2365.02 422.415 2372.07 416.992C2379.12 411.568 2390.83 408.857 2395.8 408.179H2467.66C2455.23 400.496 2441.22 385.13 2484.6 385.13C2538.84 385.13 2517.14 388.52 2523.25 362.081C2529.35 335.643 2727.97 370.216 2694.76 362.081C2661.54 353.946 2729.33 300.392 2750.34 282.088C2767.16 267.445 2802.09 288.189 2817.46 300.392C2812.49 291.127 2805.53 267.717 2817.46 248.193Z" fill="#5EBFC5" fill-opacity="0.25"/>
<path d="M-10.0892 394.715C-12.6791 390.516 -28.2381 395.006 -35.6938 397.777V431.02H-30.5434C9.13882 431.506 88.1208 432.187 86.5904 431.02C85.06 429.854 82.5191 429.271 81.44 429.125H65.8418C68.5396 427.473 71.5808 424.168 62.163 424.168C50.3907 424.168 55.0996 424.897 53.7752 419.21C52.4509 413.524 9.33503 420.96 16.5455 419.21C23.756 417.461 9.04073 405.942 4.47898 402.005C0.829582 398.856 -6.75372 403.317 -10.0892 405.942C-9.01007 403.949 -7.4993 398.914 -10.0892 394.715Z" fill="#5EBFC5" fill-opacity="0.25"/>
<path d="M51.6048 192.187C41.4261 172.228 -19.7233 193.573 -49.0256 206.741V364.752H-28.7838C127.174 367.062 437.586 370.296 431.572 364.752C425.557 359.208 415.571 356.436 411.33 355.743H350.026C360.629 347.888 372.581 332.18 335.568 332.18C289.301 332.18 307.808 335.645 302.603 308.617C297.398 281.588 127.945 316.933 156.284 308.617C184.622 300.3 126.789 245.551 108.86 226.839C94.5174 211.869 64.7138 233.076 51.6048 245.551C55.8459 236.079 61.7835 212.146 51.6048 192.187Z" fill="#5EBFC5" fill-opacity="0.2"/>
<path d="M41.273 85.4719C36.8474 78.1953 10.2598 85.9773 -2.48083 90.7778V148.384H6.32025C74.1304 149.226 209.097 150.406 206.482 148.384C203.867 146.363 199.525 145.352 197.681 145.1H171.026C175.636 142.236 180.833 136.509 164.739 136.509C144.623 136.509 152.669 137.773 150.406 127.919C148.143 118.065 74.4657 130.951 86.7872 127.919C99.1087 124.887 73.9628 104.927 66.1675 98.1049C59.9313 92.6475 46.9728 100.379 41.273 104.927C43.1171 101.474 45.6987 92.7485 41.273 85.4719Z" fill="#5EBFC5" fill-opacity="0.15"/>
<path d="M2587.07 23.6059C2598.25 5.41347 2665.4 24.8693 2697.58 36.8712V180.895H2675.35C2504.08 183 2163.17 185.948 2169.77 180.895C2176.38 175.841 2187.35 173.314 2192 172.683H2259.33C2247.69 165.524 2234.56 151.206 2275.21 151.206C2326.02 151.206 2305.7 154.364 2311.41 129.728C2317.13 105.093 2503.23 137.309 2472.11 129.728C2440.98 122.148 2504.5 72.2453 2524.19 55.1899C2539.94 41.5456 2572.67 60.8751 2587.07 72.2453C2582.41 63.6124 2575.89 41.7983 2587.07 23.6059Z" fill="#5EBFC5" fill-opacity="0.1"/>
<path d="M2620.88 372.807C2624.88 364.268 2632.09 364.917 2640.38 362.744C2655.35 341.633 2686.06 357.139 2685.22 374.912C2695.33 375.395 2700.9 384.834 2702.24 389.766C2703.1 388.62 2707.66 388.032 2709.83 387.882C2719.05 379.719 2731.64 389.67 2736.78 395.666C2747.74 397.376 2748.15 408.07 2746.98 413.204C2754.45 416.159 2756.68 423.79 2756.86 427.235C2766.87 427.938 2775.04 431.7 2777.87 433.493C2785.53 428.242 2792.88 435.319 2795.59 439.514C2810 440.907 2811.16 452.72 2809.94 458.452C2813.04 458.087 2816.06 460.242 2817.18 461.366C2819.82 462.519 2818.67 471.707 2817.76 476.157C2828.67 478.86 2829.78 486.627 2828.97 490.172C2836.33 494.632 2839.24 502.431 2839.78 505.773C2855.7 505.634 2855.5 514.814 2853.41 519.422C2861.02 518.63 2860.8 520.256 2859.74 521.168C2856.7 521.023 2840 521.19 2839.09 520.183C2838.36 519.378 2839.9 518.938 2840.76 518.819C2839.48 518.758 2837.18 517.685 2836.18 517.156C2827.04 517.715 2813.52 515.661 2807.9 514.564L2789.73 513.697L2756.07 512.092C2725.3 509.116 2690.48 510.69 2676.92 511.848C2685.37 512.252 2687.29 514.322 2687.19 515.307C2668.09 516.389 2628.37 518.352 2622.25 517.546C2616.12 516.74 2613.46 513.356 2612.89 511.764C2607.08 509.882 2583.11 511.012 2571.85 511.813C2563.49 511.414 2554.47 509.647 2551.01 508.813L2501.69 506.461C2498.23 506.296 2491.51 507.313 2488.59 507.842C2486.92 507.656 2483.07 507.322 2480.94 507.478C2478.81 507.633 2476.33 506.027 2475.35 505.205C2475.56 500.914 2479.32 501.623 2481.18 502.514L2496.32 500.548C2501.21 493.56 2507.42 489.162 2509.92 487.837C2524.45 479.992 2537.32 485.586 2541.94 489.364C2550.47 472.077 2568.88 472.313 2567.02 470.941C2565.53 469.842 2564.16 468.023 2563.66 467.25C2549.6 466.044 2521.36 463.243 2520.92 461.681C2520.48 460.12 2525.91 460.207 2528.68 460.446C2528.33 457.092 2549.53 458.552 2560.17 459.701C2559.85 450.186 2566.72 445.784 2570.19 444.773C2575.78 424.498 2590 419.613 2596.42 419.705C2596.24 410.067 2602.86 405.889 2607.55 401.62C2611.31 398.204 2619.98 396.863 2623.84 396.619C2615.45 384.023 2615.88 383.482 2620.88 372.807Z" fill="white"/>
<path d="M2685.26 375.637C2685.42 372.306 2683.67 367.43 2682.69 365.564C2679.68 374.921 2669.79 376.932 2665.31 376.611C2667.55 378.258 2668.71 379.555 2669 379.997C2676.93 380.375 2681.99 376.872 2685.26 375.637Z" fill="#F9DFD4"/>
<path d="M2651.55 363.999C2648.17 362.297 2642.83 362.299 2640.59 362.513L2639.93 362.923C2645.68 363.55 2651.6 365.552 2653.52 366.46C2653.48 365.335 2652.19 364.35 2651.55 363.999Z" fill="#F9DFD4"/>
<path opacity="0.6" fill-rule="evenodd" clip-rule="evenodd" d="M2702.24 389.766C2702.03 389.088 2701.52 387.598 2701.16 387.067L2699.25 388.58C2695.74 385.658 2686.06 381.34 2675.43 387.445C2674.96 388.061 2673.81 389.5 2672.96 390.331C2672.91 390.388 2672.83 390.46 2672.74 390.548C2671.12 392.074 2664.42 398.382 2664.11 412.06C2661.71 412.16 2656.13 412.602 2653 413.577C2652.61 413.036 2651.2 411.83 2648.65 411.323C2646.3 408.015 2638.28 402.965 2625.04 409.234C2611.81 415.504 2606 422.97 2604.75 425.92C2602.16 426.344 2596.57 428.899 2594.89 435.72C2588.18 438.423 2575.84 446.318 2580.11 456.279C2579.21 459.419 2579.67 467.644 2588.67 475.423C2588.29 476.248 2587.54 478.331 2587.52 480.063C2585.3 478.232 2579.25 475.295 2572.89 478.201C2570.19 479.865 2565.11 484.073 2566.42 487.602C2561.07 487.975 2550.05 490.617 2548.82 498.197C2548.42 498.031 2547.25 497.769 2545.82 498.054C2543.08 495.302 2534.8 490.082 2523.64 491.219C2521.26 490.089 2513.79 490.083 2502.92 499.098C2501.9 499.905 2501.44 501.338 2507.83 500.615L2512.31 500.829C2512.98 500.861 2488.13 503.849 2475.63 505.339C2475.94 506.022 2477.48 507.433 2481.13 507.607L2488.7 507.968C2491.51 507.433 2497.85 506.398 2500.76 506.537L2531.79 508.017L2550.92 508.929C2555.83 509.966 2566.86 512 2571.68 511.845C2574.12 511.767 2577.28 511.572 2580.58 511.368L2580.58 511.368L2580.58 511.368C2585.44 511.068 2590.61 510.748 2594.24 510.754L2594.74 510.755C2600.87 510.764 2610.31 510.779 2612.54 511.627C2613.57 513.896 2617.77 518.304 2626.37 517.783L2651.44 517.052L2687.38 515.356C2687.27 514.321 2685.08 512.157 2677.2 511.782L2706.11 510.552C2711.82 510.437 2724.6 510.287 2729.98 510.607L2731.41 510.692L2731.41 510.692C2738.92 511.139 2754.56 512.071 2756.58 512.317C2758.3 512.527 2791.56 514.039 2807.97 514.768C2812.33 515.698 2824.06 517.485 2836.14 517.194C2836.99 517.729 2839.09 518.819 2840.76 518.899C2839.27 519.216 2837.17 520.012 2840.67 520.66C2844.17 521.308 2854.91 521.54 2859.85 521.574C2861.02 520.494 2861.39 518.487 2853.46 519.104C2855.56 514.657 2855.76 505.741 2839.78 505.653C2838.97 501.923 2835.65 493.613 2828.88 490.208C2829.8 486.681 2828.87 478.958 2817.83 476.281C2818.8 472.074 2820.03 463.178 2817.27 461.249C2816.07 460.163 2812.94 458.066 2809.94 458.372C2811.55 454.263 2809.95 445.598 2790.62 443.81C2788.27 442.855 2782.17 441.385 2776.56 443.14C2774.41 439.266 2766.45 431.857 2751.84 433.215C2733.59 434.912 2716.46 412.149 2731.38 404.596C2733.5 403.962 2739.26 404.659 2745.37 412.525C2745.79 412.13 2746.18 410.718 2744.41 408.226C2742.19 405.112 2734.21 396.507 2726.53 401.075C2723.17 398.401 2714.44 394.793 2706.4 401.76C2704.93 403.656 2702.26 408.592 2703.33 413.168L2703.15 417.051C2699.43 418.759 2691.93 423.738 2691.7 429.986C2685.15 430.128 2670.96 432.944 2666.56 443.07C2662.32 442.4 2652.83 444.782 2648.72 459.671C2652.57 459.039 2661.37 458.317 2665.73 460.482C2671.18 463.189 2676.62 466.739 2678.88 476.636C2678.75 477.606 2676.68 476.531 2673.97 472.831C2672.87 471.334 2665.82 470.613 2662.39 473.242C2662.22 473.375 2662.04 473.511 2661.86 473.649C2657.61 476.924 2651.71 481.475 2640.94 478.959C2639.57 481.194 2635.4 485.989 2629.63 487.286C2622.63 488.857 2622.56 488.951 2621.59 490.259L2621.59 490.26C2621.57 490.285 2621.55 490.311 2621.53 490.338L2621.49 490.389C2621.39 490.384 2621.25 490.36 2621.07 490.33C2618.94 489.973 2611.53 488.731 2603.23 508.254C2601.96 506.027 2601.09 499.863 2607.77 493.024C2614.45 486.185 2619.86 485.082 2621.73 485.385C2622.17 480.939 2625.69 472.366 2636.25 473.64C2636.37 470.61 2637.63 464.197 2641.71 462.787C2640.27 459.777 2639.82 451.68 2649.49 443.379C2648.46 441.204 2647.84 435.541 2653.61 430.296C2659.38 425.05 2665.15 426.112 2667.31 427.298C2671.58 420.467 2683.68 408.805 2697.9 416.801C2698.97 417.186 2700.26 416.938 2696.93 412.863C2695.57 408.559 2694.73 397.913 2702.24 389.766ZM2618.19 387.157C2620.01 391.016 2623.87 396.741 2623.87 396.741C2626.59 395.908 2633.68 394.171 2641 396.831C2641 396.831 2645.06 400.881 2649.14 401.071C2653.23 401.26 2660.39 396.664 2658.67 389.65C2658.59 389.835 2658.51 390.023 2658.44 390.21L2658.43 390.212L2658.43 390.213C2657.08 393.407 2655.65 396.772 2649.36 396.472C2647.46 395.954 2643.96 393.955 2645.32 387.087C2644.63 385.877 2641.93 384.101 2636.67 386.674C2635.01 387.879 2618.19 387.157 2618.19 387.157ZM2682.3 500.029C2685.1 498.45 2691.55 496.522 2694.91 501.432C2697.04 499.341 2702.64 495.478 2707.97 496.759C2706.89 492.535 2707.43 482.547 2718.25 476.387C2717.99 470.651 2721.33 458.977 2736.77 458.173C2736.83 458.126 2736.92 458.053 2737.03 457.959C2738.73 456.53 2746.19 450.263 2758.77 457.938C2761.36 456.403 2769.08 455.06 2779.28 461.965C2779.96 462.212 2781.35 462.225 2781.44 460.303C2778.91 457.401 2771.68 451.685 2763.06 452.045C2762.54 448.435 2759.63 442.477 2752.2 447.515C2748.96 443.829 2739.64 437.704 2728.36 442.687C2716.75 447.819 2715.68 455.525 2715.16 459.311C2715.05 460.12 2714.96 460.75 2714.8 461.137C2714.15 461.53 2713.48 461.876 2712.79 462.225C2709.86 463.728 2706.8 465.297 2704.71 470.927C2704.51 471.827 2704.32 474.311 2705.22 477.049C2699.07 478.2 2692.61 485.114 2695.22 494.868L2694.04 496.095C2692.34 494.784 2688.08 492.601 2684.65 494.364C2683.24 494.938 2680.78 496.875 2682.3 500.029Z" fill="url(#paint1_linear_3413_661)"/>
<mask id="mask0_3413_661" style="mask-type:alpha" maskUnits="userSpaceOnUse" x="2532" y="519" width="76" height="9">
<path d="M2535.06 521.059C2539.7 520.767 2564.19 520.523 2575.85 520.437C2584.3 518.272 2589.97 522.223 2598.27 521.506C2606.65 520.782 2608.96 524.583 2606.47 524.465C2601.35 524.22 2582.65 525.897 2577.53 525.652C2573.43 525.457 2571.66 527.619 2562.05 527.161C2556.74 527.549 2541.95 524.598 2538.46 523.789C2534.97 522.981 2529.27 521.425 2535.06 521.059Z" fill="white"/>
</mask>
<g mask="url(#mask0_3413_661)">
<path d="M2535.06 521.059C2539.7 520.767 2564.19 520.523 2575.85 520.437C2584.3 518.272 2589.97 522.223 2598.27 521.506C2606.65 520.782 2608.96 524.583 2606.47 524.465C2601.35 524.22 2582.65 525.897 2577.53 525.652C2573.43 525.457 2571.66 527.619 2562.05 527.161C2556.74 527.549 2541.95 524.598 2538.46 523.789C2534.97 522.981 2529.27 521.425 2535.06 521.059Z" fill="white"/>
<path d="M2532.78 522.427C2531.28 521.714 2533.47 521.444 2534.76 521.398C2543.51 520.917 2557.05 522.836 2562.73 523.855C2570.57 524.229 2576.03 520.799 2581.64 521.066C2587.24 521.333 2592.49 522.225 2601.01 521.99C2607.82 521.801 2608.14 523.828 2607.45 524.865C2604.38 524.718 2585.06 525.509 2575.79 525.922C2572.79 526.935 2566.25 527.34 2563.36 527.416C2551.51 526.851 2534.67 523.32 2532.78 522.427Z" fill="#D8E4CA"/>
</g>
<path d="M2568.51 466.518C2565.31 466.365 2535.09 463.962 2534.13 463.916C2534.98 464.855 2554.06 466.632 2563.49 467.402C2564.69 469.129 2566.46 470.272 2567.19 470.628C2571.65 468.658 2577.37 470.204 2579.68 471.223C2578.93 466.694 2571.71 466.671 2568.51 466.518Z" fill="#F5ECA1"/>
<path d="M2754.77 518.289C2767.12 516.952 2775.34 518.467 2777.9 519.392C2776.49 520.159 2768.74 520.56 2765.05 520.665C2766.51 521.135 2771.63 522.455 2780.41 523.965C2789.2 525.475 2791.39 526.628 2791.38 527.016C2789.95 527.295 2783.09 527.936 2767.09 528.265C2751.09 528.593 2744.7 526.742 2743.5 525.775C2738.91 525.329 2728.71 524.316 2724.65 523.834C2719.59 523.231 2720.72 520.597 2726.2 520.016C2730.59 519.551 2747.07 518.671 2754.77 518.289Z" fill="white"/>
<path d="M2756.6 520.262C2759.62 518.865 2771.8 519.061 2777.51 519.333C2775.66 520.272 2768.46 520.613 2765.09 520.666L2769.99 522.184L2759.9 521.703C2758.36 521.63 2757.06 520.712 2756.6 520.262Z" fill="#AFD0D0"/>
<path d="M2742.61 520.878C2737.61 520.64 2726.58 521.612 2721.69 522.127C2718.53 523.774 2735.12 525.443 2743.8 526.071C2755.44 529.781 2780.28 528.376 2791.25 527.21C2791.44 526.631 2790.82 525.424 2786.85 525.235C2781.89 524.998 2773.32 526.355 2772.2 526.302C2766.12 524.471 2758.14 524.989 2754.91 525.477C2740.4 525.427 2740.66 522.391 2742.61 520.878Z" fill="#AFD0D0"/>
<path d="M63.0588 244.006C84.5527 244.006 99.1917 275.601 101.277 284.393C124.568 281.156 133.941 305.824 135.717 318.562C166.837 304.475 187.955 326.28 194.624 338.943C234.465 339.782 240.585 347.585 238.665 351.382H204.349C213.516 362.411 213.331 387.149 212.092 398.138C225.62 399.517 227.804 407.455 227.206 411.251C268.385 396.265 301.598 421.192 313.058 435.529C318.302 434.954 332.334 435.319 346.507 441.374C360.679 447.428 356.995 451.989 353.382 453.512C347.436 450.755 321.709 450.515 309.589 450.74C268.608 448.522 261.997 453.962 263.814 456.959C276.636 456.959 286.98 464.228 282.148 466.625C277.317 469.023 224.109 469.398 227.206 466.625C230.303 463.853 246.098 459.057 244.364 456.959C242.629 454.861 171.458 451.04 171.458 453.512C171.458 455.985 175.174 459.057 183.165 459.057C189.557 459.057 191.568 462.504 191.775 464.228C148.911 469.098 123.948 467.3 99.6666 464.228C75.3852 461.155 13.381 461.605 13.381 458.308C17.3453 452.553 25.9346 450.715 29.7338 450.515C26.7605 446.918 -57.7287 446.619 -65.4096 446.319C-73.0904 446.019 -80.2757 447.818 -79.7802 450.515C-79.2846 453.213 -72.5949 452.313 -65.4096 454.112C-59.6613 455.551 -61.6105 457.509 -63.3035 458.308C-63.3035 458.308 -162.907 454.412 -168.358 454.262C-173.809 454.112 -170.773 448.417 -170.773 448.417C-160.119 448.417 -151.385 440.175 -146.058 440.175C-141.797 440.175 -132.018 437.827 -127.662 436.653C-120.674 414.593 -100.882 406.381 -91.8589 405.032C-102.711 395.621 -91.5491 389.421 -84.6116 387.498C-86.5937 343.499 -67.5775 327.678 -54.3219 324.931H-69.5596C-91.8589 326.355 -93.4692 319.761 -84.6116 317.213C-75.7539 314.665 -47.3223 315.49 -47.3223 315.49C-38.4026 275.686 -11.6436 273.129 0.620987 276.825C7.21164 259.022 20.4632 258.867 26.2651 261.015C32.0629 246.988 47.6351 244.006 63.0588 244.006Z" fill="white"/>
<path d="M252.302 369.771C246.946 370.141 245.974 367.064 246.157 365.479C246.578 364.386 248.39 362.242 252.275 362.41C256.16 362.578 258.572 364.687 259.293 365.721C259.194 366.916 257.658 369.4 252.302 369.771Z" fill="white"/>
<path opacity="0.6" fill-rule="evenodd" clip-rule="evenodd" d="M101.401 284.169C99.3698 278.474 95.3931 270.306 93.5348 266.935C92.3992 270.506 87.9848 278.953 80.4031 284.169C72.8213 289.384 62.6669 288.889 58.5374 287.99V289.863C75.584 289.324 80.7953 299.18 81.2702 304.175C85.2841 289.609 96.3635 284.768 101.401 284.169ZM20.6287 287.99C15.2769 286.192 7.41437 275.851 4.15207 270.906C3.26007 269.594 1.55051 274.356 0.807236 276.9C2.3434 277.56 3.6772 280.772 4.15207 282.295C-10.9619 280.797 -18.9524 285.467 -21.0584 287.99C-39.2446 302.557 -41.52 320.985 -40.3844 328.378C-54.0117 326.879 -63.0759 334.697 -65.7807 339.842C-79.4081 352.656 -84.3015 372.138 -84.3015 387.423C-100.952 392.459 -96.5247 401.161 -92.2301 404.882C-113.588 409.558 -124.832 427.811 -127.785 436.353C-137.237 439.32 -142.967 439.879 -146.082 440.183C-147.295 440.302 -148.112 440.382 -148.598 440.549C-149.37 440.816 -150.584 441.47 -152.148 442.311C-154.096 443.358 -156.586 444.698 -159.437 445.945C-163.55 447.743 -168.749 448.242 -170.835 448.267C-172.916 453.123 -169.968 454.337 -168.233 454.337L-106.229 456.585L-63.4889 458.458C-57.2946 455.581 -67.6803 453.363 -73.6474 452.613C-76.8065 452.488 -82.3317 451.489 -79.1603 448.492C-75.9889 445.495 -53.1445 445.994 -42.1188 446.619L-0.36972 447.668C19.3527 447.668 27.8347 449.616 29.6104 450.59C19.8482 451.609 14.7236 456.26 13.3815 458.458C17.8335 460.828 48.1124 461.546 67.1468 461.997H67.147C67.9746 462.017 68.781 462.036 69.5631 462.055C80.1337 462.308 92.6887 463.583 105.026 464.836C114.594 465.808 124.031 466.767 132.311 467.225C147.474 468.064 178.148 465.477 191.589 464.078C191.094 460.106 187.068 459.507 182.979 459.507C178.891 459.507 175.361 458.458 171.272 455.161C167.184 451.864 187.068 452.613 189.174 452.838C189.829 452.908 193.001 453.036 197.499 453.218L197.501 453.218C207.451 453.62 223.891 454.284 233.958 455.161C245.653 456.18 245.603 457.784 244.116 458.458C241.37 460.056 234.503 463.718 229.003 465.576C223.502 467.435 230.014 467.999 233.958 468.049C245.624 468.199 269.922 468.409 273.787 468.049C277.652 467.689 281.715 466.251 283.264 465.576C281.876 459.102 269.595 457.184 263.628 457.034C263.381 452.904 268.588 452.169 274.641 451.314C276.165 451.099 277.742 450.877 279.3 450.59C284.317 449.668 299.036 450.004 312.619 450.314C319.998 450.482 327.041 450.643 332.013 450.59C343.311 450.47 350.967 452.488 353.383 453.513C355.563 452.853 356.604 450.44 356.851 449.316C345.702 447.518 321.619 443.876 314.483 443.697C307.347 443.517 293.34 435.429 287.228 431.408C262.55 415.403 234.164 417.496 223.056 420.543C222.709 412.39 218.658 407.955 216.676 406.756C210.531 403.698 203.586 405.482 200.881 406.756V409.004C213.827 417.246 208.562 435.679 207.261 437.103C206.672 437.747 205.627 437.072 204.7 436.473C203.577 435.748 202.625 435.133 202.863 437.103C203.21 439.98 200.984 441.299 199.828 441.599C194.128 443.37 189.576 436.971 187.774 434.438C187.442 433.97 187.203 433.634 187.068 433.506C186.374 432.847 187.357 428.386 187.935 426.238C189.223 430.074 191.982 428.536 193.2 427.287C195.727 426.328 195.079 421.392 194.439 419.044C183.834 395.246 164.624 389.846 156.344 390.121L154.672 386.524L157.397 383.977C160.767 371.328 182.979 378.132 184.404 389.596C192.333 388.398 197.99 398.638 199.828 403.908C202.504 399.832 208.83 398.114 211.659 397.764C204.374 397.764 200.736 392.319 199.828 389.596C201.661 368.736 191.424 357.676 186.077 354.754C170.616 322.563 140.074 324.756 126.736 329.877C111.424 293.07 80.5475 309.545 67.0235 322.383C59.194 304.58 44.9307 296.632 38.7778 294.884C40.8838 294.284 44.7862 290.013 45.4676 287.99C46.0127 286.372 44.1255 284.768 43.1138 284.169C37.1673 288.44 27.3185 290.238 20.6287 287.99ZM-54.3214 324.856L-48.0033 321.934C-64.1702 320.51 -85.7261 320.27 -89.4427 320.51C-89.7111 321.959 -88.0923 324.856 -79.47 324.856H-54.3214ZM-33.1997 412.75C-31.3828 411.426 -27.2657 408.629 -25.3331 408.029C-23.4005 407.43 -17.0535 407.78 -14.1215 408.029C-10.343 399.462 2.0578 383.722 21.4333 389.297C24.4479 375.734 39.1612 351.831 73.8985 364.719C75.7154 361.422 82.5084 356.807 95.1447 364.719C107.781 372.632 107.265 383.152 105.427 387.423C112.014 394.042 123.428 410.952 116.391 425.638C123.948 423.915 139.557 426.268 141.539 449.466H138.504C135.593 442.847 126.673 430.419 114.285 433.656C110.403 435.104 103.197 435.005 105.427 423.016C107.058 412.85 104.312 392.893 80.2785 394.392C79.0397 387.299 72.1393 373.996 54.4486 377.533C36.7579 381.069 30.5182 392.194 29.6097 397.314C18.8731 394.892 -4.17358 395.036 -10.4669 414.998L-33.1997 412.75Z" fill="url(#paint2_linear_3413_661)"/>
<path d="M1011.21 -91.4332C1041.92 -91.4332 1062.84 -53.7953 1065.82 -43.3221C1099.1 -47.1781 1112.49 -17.7937 1115.03 -2.61954C1159.49 -19.4004 1189.66 6.57423 1199.19 21.6592C1256.12 22.6589 1264.86 31.9538 1262.12 36.4763H1213.09C1226.18 49.6154 1225.92 79.0831 1224.15 92.1746C1243.48 93.8169 1246.6 103.273 1245.74 107.795C1304.58 89.9431 1352.03 119.637 1368.41 136.715C1375.9 136.031 1395.95 136.465 1416.2 143.678C1436.45 150.89 1431.18 156.323 1426.02 158.138C1417.53 154.853 1380.77 154.567 1363.45 154.835C1304.9 152.193 1295.45 158.673 1298.05 162.244C1316.37 162.244 1331.15 170.902 1324.24 173.758C1317.34 176.615 1241.32 177.061 1245.74 173.758C1250.17 170.456 1272.74 164.743 1270.26 162.244C1267.78 159.744 1166.09 155.192 1166.09 158.138C1166.09 161.083 1171.4 164.743 1182.82 164.743C1191.95 164.743 1194.83 168.849 1195.12 170.902C1133.88 176.704 1098.21 174.562 1063.52 170.902C1028.82 167.242 940.234 167.778 940.234 163.85C945.898 156.995 958.171 154.805 963.599 154.567C959.351 150.283 838.634 149.926 827.66 149.569C816.685 149.212 806.419 151.354 807.127 154.567C807.835 157.781 817.393 156.71 827.66 158.852C835.873 160.566 833.088 162.898 830.669 163.85C830.669 163.85 688.357 159.209 680.569 159.03C672.781 158.852 677.117 152.068 677.117 152.068C692.34 152.068 704.819 142.249 712.43 142.249C718.519 142.249 732.49 139.453 738.715 138.054C748.698 111.776 776.977 101.993 789.869 100.386C774.364 89.1754 790.312 81.7906 800.224 79.4996C797.392 27.0862 824.562 8.24042 843.501 4.96755H821.73C789.869 6.66349 787.568 -1.19138 800.224 -4.22623C812.88 -7.26106 853.502 -6.27921 853.502 -6.27921C866.247 -53.6941 904.479 -56.7408 922.003 -52.3374C931.42 -73.5455 950.353 -73.73 958.643 -71.1712C966.927 -87.8807 989.176 -91.4332 1011.21 -91.4332Z" fill="white"/>
<path d="M1281.6 58.3821C1273.95 58.8237 1272.56 55.1578 1272.82 53.2697C1273.42 51.9676 1276.01 49.4135 1281.56 49.6138C1287.11 49.814 1290.56 52.3264 1291.59 53.5575C1291.45 54.9817 1289.25 57.9405 1281.6 58.3821Z" fill="white"/>
<path d="M754.999 10.5021C765.478 9.50236 768.334 13.9535 768.452 16.304C766.239 22.1059 753.849 18.714 752.698 18.1784C751.548 17.6429 746.592 18.1784 745.618 14.0725C744.839 10.7877 751.548 10.3236 754.999 10.5021Z" fill="white"/>
<path opacity="0.6" fill-rule="evenodd" clip-rule="evenodd" d="M1066 -43.5896C1063.1 -50.3734 1057.41 -60.1027 1054.76 -64.1194C1053.14 -59.8647 1046.83 -49.8021 1036 -43.5896C1025.16 -37.3771 1010.65 -37.9662 1004.75 -39.0373V-36.8058C1029.11 -37.4485 1036.56 -25.7078 1037.24 -19.7572C1042.97 -37.1093 1058.8 -42.8755 1066 -43.5896ZM950.592 -39.0373C942.945 -41.1796 931.711 -53.4974 927.05 -59.3886C925.775 -60.9508 923.333 -55.279 922.271 -52.2478C924.466 -51.4623 926.371 -47.636 927.05 -45.8211C905.455 -47.6063 894.039 -42.0424 891.03 -39.0373C865.045 -21.6852 861.794 0.26683 863.417 9.07381C843.947 7.28861 830.996 16.6014 827.131 22.7306C807.661 37.994 800.669 61.2017 800.669 79.4107C776.88 85.409 783.205 95.775 789.341 100.208C758.825 105.778 742.759 127.522 738.541 137.697C725.035 141.231 716.849 141.898 712.397 142.26C710.665 142.401 709.498 142.496 708.804 142.696C707.7 143.014 705.965 143.792 703.731 144.794L703.731 144.794C700.948 146.042 697.391 147.637 693.316 149.123C687.439 151.265 680.011 151.86 677.032 151.89C674.058 157.674 678.271 159.12 680.749 159.12L769.339 161.798L830.406 164.029C839.256 160.602 824.417 157.959 815.891 157.067C811.378 156.918 803.483 155.728 808.015 152.158C812.546 148.587 845.186 149.182 860.939 149.926L920.589 151.176C948.768 151.176 960.887 153.496 963.424 154.657C949.476 155.871 942.154 161.411 940.237 164.029C946.598 166.852 989.859 167.707 1017.06 168.245H1017.06C1018.24 168.269 1019.39 168.291 1020.51 168.314C1035.61 168.615 1053.55 170.134 1071.18 171.627C1084.85 172.785 1098.33 173.927 1110.16 174.473C1131.83 175.472 1175.65 172.39 1194.86 170.724C1194.15 165.993 1188.4 165.279 1182.56 165.279C1176.71 165.279 1171.67 164.029 1165.83 160.102C1159.99 156.174 1188.4 157.067 1191.41 157.335C1192.34 157.418 1196.87 157.571 1203.3 157.787C1217.52 158.266 1241.01 159.057 1255.39 160.102C1272.1 161.316 1272.03 163.226 1269.91 164.029C1265.98 165.933 1256.17 170.295 1248.31 172.509C1240.45 174.723 1249.76 175.395 1255.39 175.454C1272.06 175.633 1306.78 175.883 1312.3 175.454C1317.82 175.026 1323.63 173.312 1325.84 172.509C1323.86 164.797 1306.31 162.512 1297.79 162.333C1297.43 157.413 1304.87 156.537 1313.52 155.52C1315.7 155.263 1317.95 154.998 1320.18 154.657C1327.34 153.558 1348.38 153.958 1367.78 154.328C1378.33 154.528 1388.39 154.72 1395.49 154.657C1411.63 154.514 1422.57 156.918 1426.02 158.138C1429.14 157.353 1430.63 154.478 1430.98 153.139C1415.05 150.997 1380.64 146.659 1370.45 146.445C1360.25 146.231 1340.24 136.597 1331.5 131.806C1296.25 112.74 1255.69 115.234 1239.82 118.864C1239.32 109.152 1233.53 103.868 1230.7 102.44C1221.92 98.798 1212 100.922 1208.13 102.44V105.118C1226.63 114.936 1219.11 136.894 1217.25 138.59C1216.41 139.357 1214.91 138.553 1213.59 137.84C1211.98 136.976 1210.63 136.244 1210.96 138.59C1211.46 142.018 1208.28 143.589 1206.63 143.946C1198.48 146.056 1191.98 138.433 1189.41 135.416C1188.93 134.859 1188.59 134.459 1188.4 134.306C1187.41 133.52 1188.81 128.206 1189.64 125.647C1191.48 130.217 1195.42 128.385 1197.16 126.897C1200.77 125.754 1199.84 119.875 1198.93 117.078C1183.78 88.7294 1156.33 82.2968 1144.5 82.6241L1142.11 78.3396L1146 75.3047C1150.82 60.2376 1182.56 68.3425 1184.59 81.9992C1195.92 80.5711 1204 92.7699 1206.63 99.0479C1210.45 94.1921 1219.49 92.1451 1223.53 91.7286C1213.12 91.7286 1207.93 85.2423 1206.63 81.9992C1209.25 57.1492 1194.62 43.9745 1186.98 40.4933C1164.89 2.14724 1121.25 4.75958 1102.2 10.859C1080.32 -32.9855 1036.2 -13.3602 1016.88 1.93301C1005.69 -19.2752 985.314 -28.7427 976.523 -30.8254C979.532 -31.5395 985.107 -36.6273 986.081 -39.0373C986.86 -40.9653 984.163 -42.8755 982.718 -43.5896C974.222 -38.5018 960.15 -36.3595 950.592 -39.0373ZM843.504 4.87859L852.531 1.39745C829.432 -0.298489 798.633 -0.584118 793.323 -0.298489C792.94 1.42721 795.253 4.87859 807.572 4.87859H843.504ZM873.683 109.58C876.279 108.003 882.161 104.671 884.922 103.957C887.684 103.243 896.752 103.659 900.941 103.957C906.34 93.7515 924.058 75.0009 951.741 81.6419C956.049 65.4858 977.071 37.0119 1026.7 52.3646C1029.3 48.4372 1039 42.9388 1057.06 52.3646C1075.11 61.7905 1074.38 74.3226 1071.75 79.4104C1081.16 87.2951 1097.47 107.438 1087.42 124.933C1098.21 122.88 1120.51 125.683 1123.35 153.318H1119.01C1114.85 145.433 1102.11 130.628 1084.41 134.484C1078.86 136.21 1068.56 136.091 1071.75 121.809C1074.08 109.699 1070.16 85.9264 1035.82 87.7116C1034.05 79.2617 1024.19 63.415 998.913 67.6281C973.637 71.8412 964.722 85.0933 963.424 91.1927C948.083 88.3067 915.155 88.4792 906.163 112.258L873.683 109.58Z" fill="url(#paint3_linear_3413_661)"/>
<path d="M283.558 321.385C293.927 321.385 300.989 336.628 301.995 340.869C313.23 339.308 317.753 351.208 318.609 357.353C333.622 350.557 343.81 361.076 347.027 367.185C366.247 367.59 369.199 371.354 368.273 373.185H351.718C356.141 378.506 356.051 390.44 355.454 395.742C361.98 396.407 363.034 400.236 362.745 402.068C382.61 394.838 398.633 406.863 404.161 413.779C406.691 413.502 413.46 413.678 420.297 416.599C427.134 419.52 425.357 421.72 423.614 422.455C420.746 421.125 408.335 421.009 402.488 421.118C382.718 420.048 379.528 422.672 380.405 424.118C386.591 424.118 391.581 427.624 389.25 428.781C386.919 429.938 361.251 430.118 362.745 428.781C364.239 427.443 371.859 425.13 371.022 424.118C370.185 423.106 335.851 421.262 335.851 422.455C335.851 423.648 337.644 425.13 341.499 425.13C344.582 425.13 345.553 426.793 345.652 427.624C324.974 429.974 312.932 429.106 301.218 427.624C289.504 426.142 259.592 426.359 259.592 424.768C261.505 421.992 265.648 421.105 267.481 421.009C266.047 419.274 225.288 419.129 221.582 418.985C217.877 418.84 214.411 419.708 214.65 421.009C214.889 422.31 218.116 421.877 221.582 422.744C224.355 423.438 223.415 424.383 222.598 424.768C222.598 424.768 174.548 422.889 171.919 422.816C169.289 422.744 170.753 419.997 170.753 419.997C175.893 419.997 180.106 416.021 182.676 416.021C184.732 416.021 189.449 414.888 191.551 414.322C194.922 403.68 204.47 399.718 208.823 399.067C203.587 394.527 208.972 391.536 212.319 390.609C211.363 369.383 220.537 361.751 226.931 360.425H219.58C208.823 361.112 208.046 357.931 212.319 356.702C216.592 355.473 230.308 355.871 230.308 355.871C234.611 336.669 247.52 335.435 253.437 337.218C256.616 328.63 263.009 328.555 265.808 329.591C268.605 322.824 276.117 321.385 283.558 321.385Z" fill="white"/>
<path d="M374.851 382.056C372.267 382.235 371.798 380.751 371.886 379.986C372.089 379.459 372.964 378.424 374.838 378.505C376.712 378.587 377.876 379.604 378.223 380.103C378.176 380.679 377.435 381.878 374.851 382.056Z" fill="white"/>
<path d="M197.048 362.666C200.586 362.262 201.551 364.064 201.59 365.016C200.843 367.366 196.66 365.992 196.271 365.775C195.883 365.558 194.21 365.775 193.881 364.112C193.618 362.782 195.883 362.594 197.048 362.666Z" fill="white"/>
<path opacity="0.6" fill-rule="evenodd" clip-rule="evenodd" d="M302.054 340.761C301.074 338.014 299.155 334.073 298.259 332.447C297.711 334.17 295.581 338.245 291.924 340.761C288.266 343.277 283.368 343.038 281.375 342.604V343.508C289.599 343.248 292.113 348.002 292.342 350.412C294.278 343.385 299.623 341.05 302.054 340.761ZM263.088 342.604C260.506 341.737 256.713 336.748 255.139 334.363C254.709 333.73 253.884 336.027 253.525 337.254C254.267 337.573 254.91 339.122 255.139 339.857C247.848 339.134 243.993 341.387 242.977 342.604C234.204 349.631 233.106 358.521 233.654 362.088C227.08 361.365 222.707 365.137 221.402 367.619C214.828 373.8 212.468 383.198 212.468 390.573C204.435 393.002 206.571 397.2 208.643 398.995C198.339 401.251 192.915 410.056 191.49 414.177C186.93 415.608 184.166 415.878 182.663 416.025C182.079 416.082 181.685 416.12 181.45 416.201C181.078 416.33 180.492 416.645 179.737 417.051L179.737 417.051C178.798 417.557 177.597 418.203 176.221 418.804C174.237 419.672 171.729 419.913 170.723 419.925C169.718 422.267 171.141 422.853 171.978 422.853L201.889 423.937L222.508 424.841C225.496 423.453 220.486 422.383 217.607 422.021C216.083 421.961 213.418 421.479 214.948 420.033C216.478 418.587 227.498 418.828 232.817 419.129L252.958 419.635C262.472 419.635 266.564 420.575 267.421 421.045C262.711 421.537 260.239 423.78 259.591 424.841C261.739 425.984 276.346 426.33 285.528 426.548H285.529L286.694 426.576C291.794 426.698 297.85 427.313 303.802 427.918L303.802 427.918C308.418 428.387 312.971 428.849 316.965 429.07C324.28 429.475 339.077 428.227 345.562 427.552C345.323 425.636 343.38 425.347 341.408 425.347C339.436 425.347 337.733 424.841 335.761 423.25C333.788 421.66 343.38 422.021 344.396 422.13C344.713 422.163 346.243 422.225 348.414 422.313C353.214 422.507 361.145 422.827 366.001 423.25C371.643 423.742 371.619 424.515 370.902 424.841C369.577 425.612 366.264 427.378 363.611 428.275C360.957 429.171 364.099 429.444 366.001 429.468C371.629 429.54 383.351 429.641 385.215 429.468C387.08 429.294 389.04 428.6 389.787 428.275C389.118 425.152 383.193 424.226 380.315 424.154C380.195 422.161 382.707 421.807 385.627 421.395L385.628 421.395L385.629 421.394C386.364 421.291 387.124 421.183 387.875 421.045C390.295 420.6 397.396 420.762 403.949 420.912L403.949 420.912C407.509 420.993 410.906 421.071 413.304 421.045C418.755 420.987 422.448 421.961 423.614 422.455C424.665 422.137 425.167 420.973 425.287 420.431C419.908 419.563 408.29 417.806 404.848 417.72C401.405 417.633 394.648 413.731 391.7 411.791C379.795 404.07 366.101 405.08 360.742 406.55C360.575 402.617 358.62 400.477 357.664 399.899C354.7 398.424 351.349 399.284 350.044 399.899V400.983C356.289 404.959 353.75 413.852 353.122 414.539C352.838 414.849 352.334 414.524 351.886 414.235C351.345 413.885 350.886 413.589 351 414.539C351.168 415.927 350.094 416.563 349.536 416.708C346.787 417.562 344.591 414.475 343.721 413.253C343.561 413.027 343.446 412.865 343.38 412.804C343.046 412.485 343.52 410.333 343.799 409.297C344.42 411.148 345.751 410.406 346.339 409.803C347.558 409.341 347.245 406.96 346.936 405.827C341.821 394.346 332.553 391.741 328.559 391.874L327.752 390.139L329.067 388.91C330.693 382.808 341.408 386.09 342.096 391.621C345.92 391.043 348.65 395.983 349.536 398.525C350.827 396.559 353.879 395.73 355.244 395.561C351.73 395.561 349.974 392.934 349.536 391.621C350.421 381.557 345.482 376.222 342.902 374.812C335.444 359.283 320.71 360.341 314.275 362.811C306.889 345.055 291.993 353.003 285.469 359.196C281.692 350.607 274.811 346.773 271.843 345.93C272.859 345.641 274.742 343.58 275.07 342.604C275.333 341.824 274.423 341.05 273.935 340.761C271.066 342.821 266.315 343.689 263.088 342.604ZM226.931 360.389L229.978 358.979C222.179 358.293 211.78 358.177 209.987 358.293C209.858 358.991 210.639 360.389 214.798 360.389H226.931ZM237.121 402.791C237.997 402.152 239.983 400.803 240.916 400.513C241.848 400.224 244.91 400.393 246.324 400.513C248.147 396.38 254.13 388.787 263.477 391.476C264.931 384.934 272.029 373.402 288.787 379.62C289.663 378.029 292.94 375.803 299.036 379.62C305.132 383.437 304.883 388.512 303.997 390.573C307.174 393.766 312.68 401.923 309.286 409.008C312.931 408.177 320.461 409.312 321.418 420.503H319.953C318.549 417.31 314.246 411.314 308.27 412.876C306.397 413.575 302.921 413.527 303.997 407.743C304.783 402.839 303.459 393.211 291.864 393.934C291.267 390.512 287.938 384.095 279.404 385.801C270.869 387.507 267.859 392.874 267.421 395.344C262.241 394.175 251.123 394.245 248.087 403.875L237.121 402.791Z" fill="url(#paint4_linear_3413_661)"/>
<path d="M2564.66 176.071C2546.15 176.071 2533.55 198.755 2531.75 205.067C2511.7 202.743 2503.63 220.453 2502.1 229.599C2475.3 219.485 2457.12 235.14 2451.38 244.231C2417.07 244.834 2411.8 250.436 2413.46 253.161H2443C2435.11 261.08 2435.27 278.84 2436.34 286.731C2424.69 287.72 2422.81 293.419 2423.32 296.145C2387.87 285.386 2359.27 303.282 2349.4 313.575C2344.89 313.163 2332.8 313.425 2320.6 317.771C2308.4 322.118 2311.57 325.393 2314.68 326.486C2319.8 324.507 2341.95 324.335 2352.39 324.496C2387.68 322.904 2393.37 326.809 2391.8 328.961C2380.76 328.961 2371.86 334.179 2376.02 335.901C2380.18 337.622 2425.99 337.891 2423.32 335.901C2420.66 333.91 2407.06 330.467 2408.55 328.961C2410.04 327.455 2471.33 324.711 2471.33 326.486C2471.33 328.262 2468.12 330.467 2461.24 330.467C2455.74 330.467 2454.01 332.942 2453.83 334.179C2490.74 337.676 2512.23 336.385 2533.14 334.179C2554.05 331.974 2607.43 332.296 2607.43 329.929C2604.02 325.798 2596.63 324.478 2593.35 324.335C2595.91 321.752 2668.66 321.537 2675.28 321.322C2681.89 321.107 2688.08 322.398 2687.65 324.335C2687.22 326.271 2681.46 325.626 2675.28 326.917C2670.33 327.95 2672 329.356 2673.46 329.929C2673.46 329.929 2759.22 327.132 2763.92 327.024C2768.61 326.917 2766 322.828 2766 322.828C2756.82 322.828 2749.3 316.911 2744.72 316.911C2741.05 316.911 2732.63 315.225 2728.88 314.382C2722.86 298.544 2705.82 292.648 2698.05 291.68C2707.39 284.923 2697.78 280.472 2691.81 279.091C2693.52 247.502 2677.14 236.144 2665.73 234.171H2678.85C2698.05 235.193 2699.44 230.459 2691.81 228.63C2684.18 226.801 2659.7 227.393 2659.7 227.393C2652.02 198.816 2628.98 196.98 2618.42 199.634C2612.75 186.852 2601.34 186.74 2596.34 188.283C2591.35 178.212 2577.94 176.071 2564.66 176.071Z" fill="white"/>
<path d="M2401.72 266.364C2406.33 266.63 2407.16 264.42 2407.01 263.282C2406.64 262.498 2405.08 260.958 2401.74 261.079C2398.39 261.2 2396.32 262.714 2395.7 263.456C2395.78 264.314 2397.1 266.098 2401.72 266.364Z" fill="white"/>
<path d="M2719.06 237.507C2712.75 236.904 2711.03 239.587 2710.96 241.003C2712.29 244.5 2719.76 242.456 2720.45 242.133C2721.14 241.81 2724.13 242.133 2724.72 239.658C2725.19 237.679 2721.14 237.399 2719.06 237.507Z" fill="white"/>
<path opacity="0.6" fill-rule="evenodd" clip-rule="evenodd" d="M2531.65 204.906C2533.4 200.817 2536.82 194.954 2538.42 192.533C2539.4 195.097 2543.2 201.162 2549.73 204.906C2556.25 208.65 2565 208.295 2568.55 207.65V208.994C2553.88 208.607 2549.39 215.683 2548.98 219.27C2545.52 208.812 2535.98 205.336 2531.65 204.906ZM2601.19 207.65C2605.8 206.358 2612.57 198.934 2615.38 195.384C2616.15 194.442 2617.62 197.861 2618.26 199.688C2616.94 200.161 2615.79 202.467 2615.38 203.561C2628.4 202.485 2635.28 205.838 2637.09 207.65C2652.75 218.108 2654.71 231.338 2653.73 236.646C2665.46 235.57 2673.27 241.183 2675.6 244.877C2687.33 254.076 2691.54 268.063 2691.54 279.038C2705.88 282.653 2702.07 288.9 2698.37 291.572C2716.76 294.929 2726.44 308.034 2728.98 314.167C2737.12 316.297 2742.06 316.698 2744.74 316.917C2745.78 317.002 2746.49 317.059 2746.9 317.18C2747.57 317.371 2748.61 317.84 2749.96 318.444C2751.64 319.196 2753.78 320.158 2756.24 321.053C2759.78 322.344 2764.26 322.703 2766.05 322.721C2767.84 326.207 2765.3 327.078 2763.81 327.078L2710.42 328.692L2673.62 330.037C2668.29 327.971 2677.23 326.379 2682.37 325.841C2685.09 325.751 2689.85 325.034 2687.12 322.882C2684.39 320.73 2664.72 321.089 2655.22 321.537L2619.27 322.29C2602.29 322.29 2594.99 323.689 2593.46 324.388C2601.87 325.12 2606.28 328.459 2607.43 330.037C2603.6 331.738 2577.53 332.254 2561.14 332.578H2561.14L2559.06 332.619C2549.96 332.801 2539.15 333.717 2528.53 334.616C2520.29 335.314 2512.16 336.002 2505.03 336.331C2491.98 336.934 2465.57 335.076 2453.99 334.072C2454.42 331.221 2457.88 330.79 2461.4 330.79C2464.93 330.79 2467.97 330.037 2471.49 327.67C2475.01 325.303 2457.88 325.841 2456.07 326.002C2455.51 326.053 2452.78 326.144 2448.9 326.275L2448.9 326.275C2440.33 326.563 2426.18 327.04 2417.51 327.67C2407.44 328.402 2407.48 329.553 2408.76 330.037C2411.13 331.185 2417.04 333.814 2421.78 335.148C2426.51 336.482 2420.91 336.887 2417.51 336.923C2407.47 337.031 2386.54 337.181 2383.22 336.923C2379.89 336.665 2376.39 335.632 2375.06 335.148C2376.25 330.5 2386.83 329.123 2391.96 329.015C2392.18 326.05 2387.69 325.522 2382.48 324.908C2381.17 324.754 2379.81 324.594 2378.47 324.388C2374.15 323.726 2361.48 323.967 2349.78 324.19C2343.43 324.311 2337.36 324.426 2333.08 324.388C2323.35 324.302 2316.76 325.751 2314.68 326.486C2312.8 326.013 2311.91 324.281 2311.7 323.474C2321.3 322.183 2342.03 319.568 2348.18 319.439C2354.32 319.31 2366.38 313.504 2371.64 310.616C2392.89 299.125 2417.33 300.628 2426.9 302.816C2427.2 296.963 2430.68 293.778 2432.39 292.917C2437.68 290.722 2443.66 292.003 2445.99 292.917V294.531C2434.84 300.449 2439.38 313.683 2440.5 314.705C2441 315.167 2441.9 314.683 2442.7 314.253C2443.67 313.732 2444.49 313.291 2444.28 314.705C2443.99 316.771 2445.9 317.718 2446.9 317.933C2451.81 319.204 2455.73 314.61 2457.28 312.792C2457.56 312.456 2457.77 312.215 2457.88 312.123C2458.48 311.649 2457.64 308.447 2457.14 306.904C2456.03 309.659 2453.65 308.554 2452.6 307.658C2450.43 306.969 2450.99 303.426 2451.54 301.74C2460.67 284.654 2477.21 280.777 2484.34 280.974L2485.78 278.392L2483.43 276.563C2480.53 267.482 2461.4 272.367 2460.18 280.598C2453.35 279.737 2448.48 287.089 2446.9 290.873C2444.59 287.947 2439.15 286.713 2436.71 286.462C2442.98 286.462 2446.12 282.552 2446.9 280.598C2445.32 265.621 2454.13 257.68 2458.74 255.582C2472.05 232.471 2498.35 234.046 2509.83 237.722C2523.02 211.297 2549.6 223.125 2561.25 232.342C2567.99 219.56 2580.27 213.854 2585.57 212.599C2583.75 212.168 2580.39 209.102 2579.81 207.65C2579.34 206.488 2580.96 205.336 2581.83 204.906C2586.95 207.972 2595.43 209.263 2601.19 207.65ZM2665.73 234.118L2660.29 232.019C2674.21 230.997 2692.77 230.825 2695.97 230.997C2696.2 232.037 2694.81 234.118 2687.38 234.118H2665.73ZM2647.54 297.221C2645.98 296.271 2642.43 294.262 2640.77 293.832C2639.1 293.402 2633.64 293.653 2631.11 293.832C2627.86 287.681 2617.18 276.38 2600.5 280.383C2597.9 270.646 2585.24 253.485 2555.33 262.738C2553.76 260.37 2547.91 257.057 2537.03 262.738C2526.15 268.418 2526.6 275.972 2528.18 279.038C2522.51 283.79 2512.68 295.93 2518.74 306.474C2512.23 305.237 2498.79 306.926 2497.08 323.582H2499.7C2502.2 318.83 2509.88 309.907 2520.55 312.231C2523.89 313.271 2530.1 313.199 2528.18 304.591C2526.77 297.293 2529.14 282.965 2549.83 284.041C2550.9 278.948 2556.84 269.398 2572.07 271.937C2587.31 274.476 2592.68 282.463 2593.46 286.139C2602.7 284.4 2622.55 284.504 2627.97 298.835L2647.54 297.221Z" fill="url(#paint5_linear_3413_661)"/>
<path d="M708.757 216.243C718.139 216.243 724.529 227.742 725.439 230.942C735.605 229.764 739.697 238.742 740.472 243.378C754.056 238.251 763.274 246.187 766.185 250.796C783.575 251.102 786.247 253.942 785.409 255.323H770.43C774.431 259.338 774.35 268.341 773.809 272.341C779.714 272.843 780.668 275.732 780.407 277.114C798.381 271.659 812.879 280.732 817.881 285.95C820.17 285.741 826.295 285.873 832.481 288.077C838.667 290.281 837.059 291.941 835.482 292.495C832.886 291.491 821.657 291.404 816.367 291.486C798.478 290.679 795.593 292.659 796.386 293.75C801.983 293.75 806.498 296.395 804.389 297.268C802.28 298.14 779.055 298.277 780.407 297.268C781.758 296.259 788.653 294.513 787.896 293.75C787.139 292.986 756.073 291.595 756.073 292.495C756.073 293.395 757.695 294.513 761.183 294.513C763.973 294.513 764.851 295.768 764.941 296.395C746.231 298.168 735.335 297.513 724.736 296.395C714.138 295.277 687.073 295.44 687.073 294.24C688.803 292.146 692.553 291.477 694.211 291.404C692.913 290.095 656.034 289.986 652.681 289.877C649.329 289.768 646.192 290.422 646.408 291.404C646.625 292.386 649.545 292.059 652.681 292.713C655.19 293.237 654.339 293.95 653.6 294.24C653.6 294.24 610.124 292.822 607.745 292.768C605.365 292.713 606.69 290.641 606.69 290.641C611.341 290.641 615.153 287.641 617.478 287.641C619.338 287.641 623.607 286.786 625.508 286.359C628.558 278.33 637.198 275.341 641.136 274.85C636.399 271.425 641.271 269.168 644.3 268.469C643.434 252.454 651.735 246.696 657.521 245.696H650.87C641.136 246.215 640.433 243.815 644.3 242.887C648.166 241.96 660.576 242.26 660.576 242.26C664.47 227.773 676.15 226.842 681.503 228.188C684.38 221.708 690.164 221.652 692.697 222.434C695.228 217.328 702.025 216.243 708.757 216.243Z" fill="white"/>
<path d="M791.361 262.016C789.023 262.151 788.599 261.031 788.679 260.454C788.862 260.056 789.653 259.276 791.349 259.337C793.045 259.398 794.098 260.166 794.412 260.542C794.369 260.977 793.699 261.881 791.361 262.016Z" fill="white"/>
<path d="M630.483 247.387C633.684 247.082 634.557 248.442 634.593 249.16C633.917 250.933 630.131 249.896 629.78 249.733C629.428 249.569 627.914 249.733 627.617 248.478C627.379 247.475 629.428 247.333 630.483 247.387Z" fill="white"/>
<path opacity="0.6" fill-rule="evenodd" clip-rule="evenodd" d="M725.494 230.861C724.607 228.788 722.871 225.815 722.06 224.588C721.564 225.888 719.637 228.962 716.328 230.861C713.018 232.759 708.586 232.579 706.784 232.251V232.933C714.224 232.737 716.499 236.324 716.706 238.142C718.458 232.84 723.295 231.079 725.494 230.861ZM690.237 232.251C687.901 231.597 684.469 227.833 683.045 226.033C682.655 225.556 681.909 227.289 681.585 228.215C682.255 228.455 682.837 229.624 683.045 230.179C676.447 229.633 672.96 231.333 672.04 232.251C664.102 237.553 663.109 244.26 663.605 246.951C657.656 246.406 653.7 249.251 652.519 251.124C646.571 255.787 644.435 262.878 644.435 268.441C637.167 270.274 639.1 273.441 640.974 274.796C631.652 276.497 626.743 283.141 625.455 286.25C621.329 287.33 618.828 287.533 617.468 287.644H617.468C616.939 287.687 616.582 287.716 616.37 287.777C616.033 287.874 615.503 288.112 614.82 288.418L614.82 288.418L614.82 288.418L614.82 288.418C613.97 288.8 612.883 289.287 611.638 289.741C609.843 290.395 607.574 290.577 606.664 290.586C605.755 292.353 607.042 292.795 607.799 292.795L634.864 293.613L653.52 294.295C656.223 293.248 651.69 292.441 649.085 292.168C647.707 292.122 645.295 291.759 646.679 290.668C648.063 289.577 658.035 289.759 662.848 289.986L681.071 290.368C689.68 290.368 693.382 291.077 694.157 291.431C689.896 291.802 687.659 293.495 687.073 294.295C689.016 295.157 702.232 295.419 710.54 295.583L710.541 295.583H710.542L711.596 295.604C716.21 295.696 721.69 296.16 727.075 296.616H727.076H727.076H727.076L727.077 296.617L727.077 296.617C731.253 296.97 735.372 297.319 738.985 297.486C745.604 297.791 758.993 296.849 764.86 296.34C764.644 294.895 762.887 294.677 761.102 294.677C759.318 294.677 757.776 294.295 755.992 293.095C754.207 291.895 762.887 292.168 763.806 292.25C764.092 292.275 765.477 292.322 767.441 292.388C771.784 292.534 778.96 292.776 783.354 293.095C788.459 293.466 788.437 294.05 787.788 294.295C786.589 294.877 783.592 296.21 781.191 296.886C778.79 297.562 781.633 297.768 783.354 297.786C788.446 297.84 799.052 297.917 800.739 297.786C802.426 297.655 804.2 297.131 804.876 296.886C804.27 294.53 798.91 293.831 796.305 293.777C796.197 292.274 798.47 292.006 801.112 291.695L801.112 291.695C801.777 291.617 802.466 291.536 803.145 291.431C805.335 291.096 811.76 291.218 817.689 291.331C820.91 291.392 823.984 291.451 826.154 291.431C831.086 291.388 834.428 292.122 835.482 292.495C836.434 292.255 836.888 291.377 836.996 290.968C832.13 290.313 821.617 288.988 818.503 288.922C815.388 288.857 809.274 285.913 806.606 284.45C795.834 278.625 783.444 279.386 778.595 280.495C778.444 277.528 776.676 275.914 775.81 275.477C773.128 274.365 770.097 275.014 768.916 275.477V276.296C774.567 279.295 772.269 286.004 771.701 286.523C771.444 286.757 770.988 286.511 770.583 286.293C770.093 286.029 769.677 285.806 769.781 286.523C769.932 287.57 768.961 288.05 768.456 288.159C765.968 288.803 763.981 286.475 763.195 285.553C763.05 285.382 762.945 285.26 762.887 285.213C762.584 284.973 763.013 283.35 763.265 282.568C763.827 283.964 765.031 283.404 765.563 282.95C766.666 282.601 766.383 280.805 766.104 279.95C761.475 271.288 753.09 269.323 749.476 269.423L748.746 268.114L749.936 267.187C751.406 262.583 761.102 265.06 761.724 269.232C765.185 268.796 767.654 272.523 768.456 274.441C769.624 272.957 772.386 272.332 773.62 272.205C770.441 272.205 768.853 270.223 768.456 269.232C769.257 261.64 764.788 257.614 762.454 256.551C755.705 244.835 742.374 245.633 736.552 247.496C729.868 234.1 716.391 240.097 710.488 244.769C707.07 238.289 700.844 235.397 698.159 234.76C699.078 234.542 700.781 232.988 701.079 232.251C701.317 231.662 700.493 231.079 700.051 230.861C697.456 232.415 693.157 233.07 690.237 232.251ZM657.521 245.669L660.279 244.606C653.222 244.087 643.813 244 642.191 244.087C642.074 244.615 642.78 245.669 646.544 245.669H657.521ZM666.741 277.659C667.534 277.177 669.331 276.159 670.175 275.941C671.018 275.723 673.789 275.85 675.068 275.941C676.718 272.823 682.131 267.094 690.588 269.123C691.904 264.187 698.326 255.487 713.489 260.178C714.282 258.978 717.247 257.298 722.763 260.178C728.278 263.058 728.053 266.887 727.251 268.441C730.126 270.85 735.108 277.005 732.037 282.35C735.335 281.723 742.149 282.579 743.014 291.022H741.689C740.418 288.613 736.525 284.09 731.117 285.268C729.423 285.795 726.278 285.759 727.251 281.395C727.963 277.696 726.764 270.432 716.274 270.978C715.733 268.396 712.721 263.554 704.999 264.841C697.277 266.129 694.553 270.178 694.157 272.041C689.47 271.159 679.411 271.212 676.664 278.477L666.741 277.659Z" fill="url(#paint6_linear_3413_661)"/>
<path d="M2355.59 264.261L2307.24 269.12L2234.42 276.439L2170.35 282.879L2111.15 288.83L2056.63 294.309L2004.95 299.503L1941.8 305.783V263.957V243.043L2355.59 201.25V264.261Z" fill="#FBEDCD"/>
<path d="M2307.24 300.257V269.12C2314.03 277.64 2338.91 297.179 2384.1 307.174L2345.67 303.716L2307.24 300.257Z" fill="#FBEDCD"/>
<path d="M2234.42 307.752V276.439C2242.47 298.635 2259.69 304.02 2281.49 302.907L2255.74 305.557L2234.42 307.752Z" fill="#FBEDCD"/>
<path d="M2253.48 551.615L2255.74 305.557L2281.49 302.907L2280.36 551.615H2253.48Z" fill="#FBEDCD"/>
<path d="M2199.72 551.615H2185.29V312.808L2205.47 310.732V551.615H2199.72Z" fill="#FBEDCD"/>
<path d="M2125.54 551.615V318.957L2144.28 317.029V551.615H2125.54Z" fill="#FBEDCD"/>
<path d="M2068.78 551.615V324.8L2086.43 322.983L2084.94 551.615H2068.78Z" fill="#FBEDCD"/>
<path d="M2014.18 551.615V330.418L2029.8 328.811V551.615H2014.18Z" fill="#FBEDCD"/>
<path d="M1954.16 551.615L1954.43 336.539L1971.81 334.76L1971.68 551.615H1954.16Z" fill="#FBEDCD"/>
<path d="M1941.8 222.13L1976.7 216.188L1990.01 214.862L2355.59 178.435V195.003L1941.8 237.644V222.13Z" fill="#FFF7E5"/>
<path d="M2366.18 159.152L2355.59 178.435L2163.02 134.264L2155.48 132.535C2139.53 154.715 2096.97 191.092 2054.38 159.152L1976.7 216.188L1941.8 222.13L2054.38 146.93C2103.05 164.964 2128.08 139.415 2134.5 124.387V105.103L2366.18 159.152Z" fill="#FFF7E5"/>
<path d="M2760 307.174L2737.73 304.811L2722.79 303.226L2694.82 300.257L2661.41 296.712L2645.11 294.983L2628 293.168L2597.04 289.882L2558.74 285.818L2545.44 284.406L2525.61 282.302L2492.2 278.758L2456.89 275.011L2440.6 273.282L2420.5 271.149L2384.1 267.287L2355.59 264.261V201.25L2760 244.706V307.174Z" fill="#D4B4AB"/>
<path d="M2355.59 264.261L2384.1 267.287V307.174C2338.91 297.179 2314.03 277.64 2307.24 269.12L2355.59 264.261Z" fill="#D4B4AB"/>
<path d="M2307.24 269.12V300.257L2281.49 302.907C2259.69 304.02 2242.47 298.635 2234.42 276.439L2307.24 269.12Z" fill="#D4B4AB"/>
<path d="M2355.59 201.25L1941.8 243.043V237.644L2355.59 195.003V201.25Z" fill="#D4B4AB"/>
<path d="M2307.24 300.257V551.615H2280.36L2281.49 302.907C2286.12 302.671 2303.7 300.83 2307.24 300.257Z" fill="#D4B4AB"/>
<path d="M2225.64 308.804V551.615H2205.47V310.732L2225.64 308.804Z" fill="#D4B4AB"/>
<path d="M2163.02 315.1V551.615H2144.28V317.029L2163.02 315.1Z" fill="#D4B4AB"/>
<path d="M2104.08 321.166L2101.1 551.615H2084.94L2086.43 322.983L2104.08 321.166Z" fill="#D4B4AB"/>
<path d="M2045.42 327.203V551.615H2029.8V328.811L2045.42 327.203Z" fill="#D4B4AB"/>
<path d="M1989.2 332.981V551.615H1971.68L1971.81 334.76L1989.2 332.981Z" fill="#D4B4AB"/>
<path d="M2234.42 276.439V307.752L2225.64 308.804L2205.47 310.732C2194.58 306.929 2172.31 296.034 2170.35 282.879L2234.42 276.439Z" fill="#D4B4AB"/>
<path d="M2170.35 314.345V282.879C2172.31 296.034 2194.58 306.929 2205.47 310.732L2185.29 312.808L2170.35 314.345Z" fill="#FBEDCD"/>
<path d="M2111.15 320.439V288.83C2116.79 313.047 2135.59 317.72 2144.28 317.029L2125.54 318.957L2111.15 320.439Z" fill="#FBEDCD"/>
<path d="M2170.35 282.879V314.345L2163.02 315.1L2144.28 317.029C2135.59 317.72 2116.79 313.047 2111.15 288.83L2170.35 282.879Z" fill="#D4B4AB"/>
<path d="M2056.63 326.05V294.309C2059.3 317.913 2077.61 323.26 2086.43 322.983L2068.78 324.8L2056.63 326.05Z" fill="#FBEDCD"/>
<path d="M2111.15 288.83V320.439L2104.08 321.166L2086.43 322.983C2077.61 323.26 2059.3 317.913 2056.63 294.309L2111.15 288.83Z" fill="#D4B4AB"/>
<path d="M2004.95 331.368V299.503C2006.69 319.44 2022.24 327.349 2029.8 328.811L2014.18 330.418L2004.95 331.368Z" fill="#FBEDCD"/>
<path d="M2056.63 294.309V326.05L2055.67 326.149L2045.42 327.203L2029.8 328.811C2022.24 327.349 2006.69 319.44 2004.95 299.503L2056.63 294.309Z" fill="#D4B4AB"/>
<path d="M1941.8 305.783L2004.95 299.503V331.368L1989.2 332.981L1971.81 334.76C1964.03 334.053 1947.13 327.268 1941.8 305.783Z" fill="#D4B4AB"/>
<path d="M1941.8 337.832V305.783C1947.13 327.268 1964.03 334.053 1971.81 334.76L1954.43 336.539L1941.8 337.832Z" fill="#FBEDCD"/>
<path d="M2384.1 307.174V267.287L2420.5 271.149V551.615H2384.1V307.174Z" fill="#DEC6B8"/>
<path d="M2492.2 551.615V278.758L2525.61 282.302V551.615H2492.2Z" fill="#DEC6B8"/>
<path d="M2597.04 551.615V289.882L2628 293.168V551.615H2597.04Z" fill="#DEC6B8"/>
<path d="M2694.82 551.615V300.257L2722.79 303.226V551.615H2694.82Z" fill="#DEC6B8"/>
<path d="M2440.6 273.282V551.615H2420.5V271.149L2440.6 273.282Z" fill="#C2908C"/>
<path d="M2545.44 284.406V551.615H2525.61V282.302L2545.44 284.406Z" fill="#C1908C"/>
<path d="M2645.11 294.983V551.615H2628V293.168L2645.11 294.983Z" fill="#C1908C"/>
<path d="M2737.73 304.811V551.615H2722.79V303.226L2737.73 304.811Z" fill="#C1908C"/>
<path d="M2645.11 551.615V294.983L2661.41 296.712V551.615H2645.11Z" fill="#907272"/>
<path d="M2545.44 551.615V284.406L2558.74 285.818V551.615H2545.44Z" fill="#907272"/>
<path d="M2440.6 551.615V273.282L2456.89 275.011V551.615H2440.6Z" fill="#907272"/>
<path d="M2355.59 178.435L2467.21 190.88L2760 223.521V239.817L2355.59 195.003V178.435Z" fill="#D4B4AB"/>
<path d="M2760 244.706L2355.59 201.25V195.003L2760 239.817V244.706Z" fill="#C1908C"/>
<path d="M2384.1 307.174V551.615H2345.67V303.716L2384.1 307.174Z" fill="#907272"/>
<path d="M2467.21 190.88L2355.59 178.435L2366.18 159.152L2467.21 178.435V190.88Z" fill="#C1908C"/>
<path d="M2760 551.615V621.948C2591.91 639.419 2251.48 668.464 2234.42 644.879C2217.36 621.293 2127.88 638.327 2084.94 644.879C2088.11 636.721 2106.12 609.269 2155.48 604.028L2157.1 603.856C2219.33 597.25 2341.42 584.288 2255.74 574.545C2186.61 566.684 2189.58 555.983 2199.72 551.615H2205.47H2225.64H2253.48H2280.36H2307.24H2345.67H2384.1H2420.5H2440.6H2456.89H2492.2H2525.61H2545.44H2558.74H2597.04H2628H2645.11H2661.41H2694.82H2722.79H2737.73H2760Z" fill="#C1908C"/>
<path d="M1894.14 574.545H2255.74C2341.42 584.288 2219.33 597.25 2157.1 603.856L2155.48 604.028L1866.16 603.856L1894.14 574.545Z" fill="#D4B4AB"/>
<path d="M2199.72 551.615C2189.58 555.983 2186.61 566.684 2255.74 574.545H1894.14V551.615H1954.16H1971.68H1989.2H2014.18H2029.8H2045.42H2068.78H2084.94H2101.1H2125.54H2144.28H2163.02H2185.29H2199.72Z" fill="#FBEDCD"/>
<path d="M2155.48 604.028C2106.12 609.269 2088.11 636.721 2084.94 644.879L1866.16 680.897V603.856L2155.48 604.028Z" fill="#FBEDCD"/>
<path fill-rule="evenodd" clip-rule="evenodd" d="M1990.01 214.862L2054.38 165.67C2101.75 206.084 2146.54 161.572 2163.02 134.264L2355.59 178.435L1990.01 214.862Z" fill="#FBEDCD"/>
<path d="M2054.38 159.152C2096.97 191.092 2139.53 154.715 2155.48 132.535L2163.02 134.264C2146.54 161.572 2101.75 206.084 2054.38 165.67L1990.01 214.862L1976.7 216.188L2054.38 159.152Z" fill="#C1908C"/>
<path d="M2640.64 28.8665C2614.35 28.8665 2596.45 61.0848 2593.9 70.0498C2565.42 66.7491 2553.95 91.9022 2551.78 104.891C2513.73 90.5269 2487.9 112.761 2479.74 125.674C2431.02 126.53 2423.54 134.486 2425.88 138.358H2467.85C2456.64 149.605 2456.87 174.829 2458.38 186.036C2441.84 187.441 2439.17 195.535 2439.9 199.407C2389.54 184.125 2348.92 209.543 2334.91 224.163C2328.5 223.577 2311.34 223.949 2294 230.122C2276.67 236.296 2281.18 240.947 2285.6 242.5C2292.87 239.688 2324.33 239.444 2339.15 239.673C2389.27 237.412 2397.35 242.959 2395.13 246.015C2379.45 246.015 2366.8 253.426 2372.71 255.871C2378.62 258.316 2443.69 258.699 2439.9 255.871C2436.11 253.044 2416.79 248.154 2418.92 246.015C2421.04 243.876 2508.07 239.979 2508.07 242.5C2508.07 245.022 2503.53 248.154 2493.76 248.154C2485.94 248.154 2483.48 251.669 2483.23 253.426C2535.65 258.393 2566.17 256.559 2595.87 253.426C2625.56 250.294 2701.39 250.752 2701.39 247.39C2696.54 241.522 2686.04 239.648 2681.39 239.444C2685.03 235.776 2788.35 235.471 2797.74 235.165C2807.14 234.86 2815.92 236.693 2815.32 239.444C2814.71 242.195 2806.53 241.278 2797.74 243.112C2790.71 244.579 2793.1 246.575 2795.17 247.39C2795.17 247.39 2916.97 243.417 2923.64 243.264C2930.31 243.112 2926.59 237.305 2926.59 237.305C2913.57 237.305 2902.88 228.9 2896.37 228.9C2891.16 228.9 2879.2 226.506 2873.87 225.309C2865.33 202.815 2841.12 194.44 2830.09 193.065C2843.36 183.468 2829.71 177.147 2821.23 175.186C2823.65 130.32 2800.39 114.188 2784.18 111.386H2802.82C2830.09 112.838 2832.06 106.114 2821.23 103.516C2810.39 100.918 2775.62 101.759 2775.62 101.759C2764.72 61.1714 2731.99 58.5633 2716.99 62.3327C2708.93 44.1785 2692.73 44.0206 2685.63 46.2109C2678.54 31.9075 2659.5 28.8665 2640.64 28.8665Z" fill="white"/>
<path d="M2409.21 157.109C2415.76 157.487 2416.95 154.349 2416.72 152.733C2416.21 151.618 2413.99 149.432 2409.24 149.603C2404.49 149.775 2401.54 151.925 2400.66 152.979C2400.78 154.198 2402.66 156.731 2409.21 157.109Z" fill="white"/>
<path opacity="0.6" fill-rule="evenodd" clip-rule="evenodd" d="M2593.75 69.8207C2596.23 64.0138 2601.09 55.6854 2603.37 52.2471C2604.76 55.8892 2610.15 64.5028 2619.43 69.8207C2628.7 75.1386 2641.12 74.6344 2646.17 73.7175V75.6276C2625.32 75.0775 2618.95 85.1276 2618.37 90.2214C2613.46 75.3679 2599.91 70.432 2593.75 69.8207ZM2692.52 73.7175C2699.07 71.8837 2708.68 61.3396 2712.67 56.2967C2713.77 54.9594 2715.86 59.8145 2716.76 62.4092C2714.89 63.0816 2713.26 66.3569 2712.67 67.9105C2731.16 66.3824 2740.93 71.1451 2743.5 73.7175C2765.74 88.571 2768.53 107.362 2767.14 114.901C2783.8 113.373 2794.89 121.344 2798.2 126.591C2814.86 139.657 2820.85 159.522 2820.85 175.109C2841.21 180.244 2835.79 189.117 2830.54 192.912C2856.66 197.68 2870.41 216.293 2874.02 225.003C2885.58 228.028 2892.59 228.599 2896.4 228.909C2897.88 229.029 2898.88 229.111 2899.47 229.282C2900.42 229.554 2901.9 230.22 2903.82 231.078L2903.82 231.078C2906.2 232.146 2909.24 233.512 2912.73 234.783C2917.76 236.617 2924.12 237.126 2926.67 237.152C2929.21 242.103 2925.61 243.341 2923.49 243.341L2847.66 245.633L2795.39 247.543C2787.82 244.609 2800.52 242.348 2807.82 241.583C2811.68 241.456 2818.44 240.437 2814.56 237.381C2810.68 234.325 2782.74 234.834 2769.26 235.471L2718.2 236.541C2694.09 236.541 2683.71 238.527 2681.54 239.52C2693.48 240.56 2699.75 245.302 2701.39 247.543C2695.94 249.96 2658.91 250.692 2635.64 251.152L2635.57 251.154L2634.56 251.173L2632.68 251.211C2619.76 251.469 2604.4 252.769 2589.31 254.047C2577.61 255.038 2566.07 256.016 2555.95 256.483C2537.4 257.339 2499.89 254.7 2483.45 253.274C2484.06 249.224 2488.98 248.613 2493.98 248.613C2498.98 248.613 2503.3 247.543 2508.3 244.181C2513.3 240.819 2488.98 241.583 2486.41 241.813C2485.61 241.884 2481.73 242.015 2476.23 242.2L2476.22 242.2C2464.06 242.61 2443.95 243.287 2431.64 244.181C2417.34 245.22 2417.4 246.856 2419.22 247.543C2422.58 249.173 2430.97 252.907 2437.7 254.802C2444.43 256.697 2436.46 257.272 2431.64 257.323C2417.37 257.476 2387.66 257.69 2382.93 257.323C2378.21 256.957 2373.24 255.49 2371.34 254.802C2373.04 248.2 2388.06 246.244 2395.36 246.091C2395.66 241.88 2389.29 241.13 2381.89 240.259C2380.03 240.04 2378.1 239.813 2376.19 239.52C2370.06 238.58 2352.06 238.922 2335.44 239.239H2335.44H2335.44H2335.44C2326.42 239.41 2317.81 239.574 2311.73 239.52C2297.91 239.398 2288.55 241.456 2285.59 242.5C2282.93 241.828 2281.65 239.368 2281.35 238.222C2294.99 236.388 2324.44 232.674 2333.17 232.491C2341.89 232.308 2359.02 224.061 2366.5 219.96C2396.67 203.64 2431.39 205.774 2444.97 208.881C2445.4 200.568 2450.35 196.045 2452.77 194.822C2460.29 191.705 2468.78 193.524 2472.09 194.822V197.115C2456.26 205.519 2462.7 224.316 2464.29 225.767C2465.01 226.424 2466.29 225.736 2467.42 225.125C2468.79 224.385 2469.96 223.759 2469.67 225.767C2469.24 228.701 2471.97 230.046 2473.38 230.352C2480.35 232.158 2485.92 225.633 2488.12 223.05C2488.53 222.573 2488.82 222.231 2488.98 222.1C2489.83 221.427 2488.63 216.879 2487.92 214.688C2486.35 218.6 2482.97 217.031 2481.48 215.758C2478.39 214.78 2479.19 209.747 2479.97 207.353C2492.94 183.086 2516.43 177.58 2526.56 177.86L2528.6 174.193L2525.27 171.595C2521.15 158.697 2493.98 165.635 2492.24 177.325C2482.54 176.103 2475.63 186.545 2473.38 191.919C2470.11 187.762 2462.37 186.01 2458.91 185.654C2467.82 185.654 2472.27 180.101 2473.38 177.325C2471.14 156.054 2483.66 144.776 2490.2 141.796C2509.1 108.972 2546.45 111.208 2562.76 116.429C2581.49 78.8979 2619.25 95.6972 2635.79 108.788C2645.36 90.634 2662.81 82.5297 2670.33 80.7469C2667.75 80.1357 2662.98 75.7805 2662.15 73.7175C2661.48 72.0671 2663.79 70.432 2665.03 69.8207C2672.3 74.1759 2684.34 76.0097 2692.52 73.7175ZM2784.18 111.31L2776.46 108.33C2796.23 106.878 2822.59 106.634 2827.13 106.878C2827.46 108.355 2825.48 111.31 2814.94 111.31H2784.18ZM2758.35 200.935C2756.13 199.585 2751.1 196.733 2748.73 196.121C2746.37 195.51 2738.61 195.867 2735.02 196.121C2730.4 187.386 2715.24 171.335 2691.54 177.02C2687.85 163.19 2669.86 138.816 2627.38 151.958C2625.16 148.596 2616.85 143.89 2601.4 151.958C2585.94 160.027 2586.58 170.754 2588.82 175.11C2580.77 181.859 2566.81 199.101 2575.42 214.077C2566.17 212.32 2547.08 214.719 2544.66 238.375H2548.37C2551.93 231.625 2562.84 218.952 2577.99 222.253C2582.74 223.73 2591.55 223.628 2588.82 211.403C2586.83 201.037 2590.19 180.687 2619.58 182.215C2621.09 174.982 2629.53 161.417 2651.17 165.024C2672.8 168.63 2680.43 179.974 2681.54 185.195C2694.67 182.725 2722.86 182.873 2730.55 203.227L2758.35 200.935Z" fill="url(#paint7_linear_3413_661)"/>
</g>
<path d="M334.594 708.51L-7.01551 606.84L-43.3956 724.318H2759.91L2777.28 632.221L2606.99 588.778L2332.43 632.221L2233.78 606.84L1611.56 708.51L1119.48 655.642L920.211 606.84L676.204 655.642L334.594 708.51Z" fill="#486774"/>
<path d="M278.485 87.1785H294.796V112.61H319.999V87.1403H336.311V149.545H319.999V125.584H294.796V149.545H278.485V87.1785Z" fill="#1E5865"/>
<path d="M394.31 149.545L390.025 138.52H363.025L358.666 149.545H341.914L368.722 87.1403H385.473L411.671 149.545H394.329H394.31ZM367.938 126.062H385.206L376.678 103.802L367.938 126.062Z" fill="#1E5865"/>
<path d="M453.55 102.254C450.776 100.745 447.985 99.9995 445.249 99.9995C442.113 99.9995 439.245 100.802 436.626 102.35C434.044 103.936 432.018 106.076 430.508 108.865C429.034 111.636 428.289 114.693 428.289 118.075C428.289 121.457 429.034 124.533 430.508 127.285C431.98 130.055 434.044 132.195 436.626 133.8C439.207 135.386 442.058 136.189 445.249 136.189C447.794 136.189 450.489 135.558 453.263 134.24C456.035 132.921 458.541 131.144 460.719 128.89L470.243 139.131C466.859 142.704 462.823 145.513 458.177 147.615C453.531 149.717 448.885 150.786 444.313 150.786C438.119 150.786 432.554 149.354 427.563 146.507C422.552 143.66 418.671 139.762 415.803 134.851C412.954 129.94 411.519 124.419 411.519 118.304C411.519 112.19 412.99 106.802 415.878 101.91C418.784 97.0378 422.782 93.2164 427.869 90.4458C432.954 87.6753 438.635 86.2805 444.946 86.2805C449.592 86.2805 454.16 87.2358 458.674 89.1848C463.206 91.1337 467.011 93.7514 470.149 97.0761L460.703 108.464C458.712 105.846 456.303 103.821 453.512 102.311L453.55 102.254Z" fill="#1E5865"/>
<path d="M537.288 149.545H517.801L501.393 125.336L493.572 134.068V149.545H477.26V87.1785H493.572V114.234L516.998 87.1785H535.891L512.752 112.878L537.288 149.545Z" fill="#1E5865"/>
<path d="M278.255 197.064H294.567V259.469H278.255V197.064Z" fill="#1E5865"/>
<path d="M306.69 197.064H323.002V245.577H349.448V259.469H306.69V197.064Z" fill="#1E5865"/>
<path d="M361.84 197.064H378.15V245.577H404.598V259.469H361.84V197.064Z" fill="#1E5865"/>
<path d="M413.68 197.064H429.992V259.469H413.68V197.064Z" fill="#1E5865"/>
<path d="M486.459 197.064H501.586V259.469H487.339L459.038 222.171V259.469H443.797V197.064H458.138L486.574 234.629L486.497 197.064H486.459Z" fill="#1E5865"/>
<path d="M562.489 200.274C567.615 203.045 571.667 206.904 574.594 211.738C577.539 216.611 578.991 222.056 578.991 228.133C578.991 234.209 577.52 239.75 574.594 244.679C571.648 249.59 567.615 253.488 562.489 256.335C557.365 259.182 551.609 260.615 545.26 260.615C538.911 260.615 533.155 259.22 528.032 256.373C522.906 253.564 518.853 249.666 515.927 244.718C512.981 239.75 511.529 234.247 511.529 228.133C511.529 222.018 513.001 216.63 515.927 211.738C518.853 206.847 522.906 203.045 528.032 200.274C533.155 197.504 538.911 196.071 545.26 196.071C551.609 196.071 557.326 197.465 562.489 200.274ZM536.808 212.293C534.149 213.879 532.084 216.095 530.536 218.923C528.987 221.732 528.242 224.827 528.242 228.209C528.242 231.591 529.045 234.801 530.632 237.61C532.219 240.419 534.284 242.654 536.904 244.278C539.524 245.902 542.392 246.743 545.431 246.743C548.473 246.743 551.342 245.902 553.923 244.278C556.504 242.654 558.53 240.438 560.043 237.61C561.514 234.801 562.26 231.667 562.26 228.209C562.26 224.751 561.514 221.751 560.043 218.923C558.569 216.114 556.504 213.879 553.923 212.293C551.342 210.707 548.493 209.866 545.431 209.866C542.373 209.866 539.485 210.669 536.808 212.293Z" fill="#1E5865"/>
<path d="M586.317 197.064H602.627V259.469H586.317V197.064Z" fill="#1E5865"/>
<path d="M646.303 211.032C642.536 209.809 639.361 209.159 636.818 209.159C634.792 209.159 633.205 209.522 632.057 210.267C630.911 211.013 630.317 212.102 630.317 213.516C630.317 214.872 630.834 216.019 631.827 216.936C632.821 217.853 634.083 218.598 635.557 219.152C637.028 219.706 639.248 220.471 642.154 221.33C646.475 222.553 650.052 223.833 652.882 225.056C655.692 226.279 658.121 228.228 660.148 230.808C662.174 233.387 663.17 236.75 663.17 240.915C663.17 245.081 662.061 248.615 659.88 251.539C657.699 254.481 654.679 256.698 650.836 258.169C646.991 259.641 642.726 260.386 638.061 260.386C632.898 260.386 627.736 259.469 622.61 257.691C617.486 255.857 613.031 253.412 609.302 250.278L615.612 237.533C618.748 240.304 622.477 242.616 626.817 244.393C631.101 246.17 634.963 247.049 638.254 247.049C640.68 247.049 642.632 246.609 644.009 245.692C645.404 244.813 646.113 243.514 646.113 241.756C646.113 240.323 645.597 239.138 644.562 238.183C643.529 237.228 642.21 236.482 640.642 235.928C639.055 235.374 636.876 234.706 634.008 233.941C629.724 232.757 626.187 231.553 623.413 230.33C620.642 229.107 618.213 227.273 616.225 224.808C614.235 222.343 613.241 219.057 613.241 214.968C613.241 211.127 614.273 207.745 616.3 204.803C618.364 201.898 621.252 199.644 625.039 198.096C628.807 196.51 633.186 195.708 638.177 195.708C642.709 195.708 647.145 196.338 651.562 197.618C655.979 198.879 659.822 200.599 663.151 202.739L656.992 215.751C653.666 213.802 650.127 212.216 646.342 210.955L646.303 211.032Z" fill="#1E5865"/>
<path d="M233.337 83.6054V122.451H199.739V154.627H148.835V122.451H114.778L137.324 83.6054H233.337Z" fill="#1E5865"/>
<path d="M233.337 220.719L211.652 259.564H114.778V220.719H148.835V188.542H199.739V220.719H233.337Z" fill="#1E5865"/>
<g opacity="0.94">
<path d="M233.337 83.6054V122.451H199.739V154.627H148.835V122.451H114.778L137.324 83.6054H233.337Z" fill="#1E5865"/>
<path d="M233.337 220.719L211.652 259.564H114.778V220.719H148.835V188.542H199.739V220.719H233.337Z" fill="#1E5865"/>
</g>
<path d="M233.337 83.6054V122.451H199.739V154.627H148.835V122.451H114.778L137.324 83.6054H233.337Z" fill="#1E5865"/>
<path d="M233.337 220.719L211.652 259.564H114.778V220.719H148.835V188.542H199.739V220.719H233.337Z" fill="#1E5865"/>
</g>
<defs>
<linearGradient id="paint0_linear_3413_661" x1="1365" y1="0" x2="1365" y2="690" gradientUnits="userSpaceOnUse">
<stop stop-color="#F9DFD4"/>
<stop offset="0.9997" stop-color="#84BCB9"/>
</linearGradient>
<linearGradient id="paint1_linear_3413_661" x1="2670.96" y1="394.798" x2="2763.93" y2="488.788" gradientUnits="userSpaceOnUse">
<stop stop-color="#F9DFD4"/>
<stop offset="1" stop-color="#7AB1B1"/>
</linearGradient>
<linearGradient id="paint2_linear_3413_661" x1="155.966" y1="300.767" x2="-241.275" y2="510.991" gradientUnits="userSpaceOnUse">
<stop offset="0.0484235" stop-color="#F9DFD4"/>
<stop offset="0.552395" stop-color="#AFD0D0"/>
</linearGradient>
<linearGradient id="paint3_linear_3413_661" x1="1143.96" y1="-23.8169" x2="626.084" y2="304.902" gradientUnits="userSpaceOnUse">
<stop offset="0.0484235" stop-color="#F9DFD4"/>
<stop offset="0.552395" stop-color="#AFD0D0"/>
</linearGradient>
<linearGradient id="paint4_linear_3413_661" x1="328.376" y1="348.768" x2="136.741" y2="450.184" gradientUnits="userSpaceOnUse">
<stop offset="0.0484235" stop-color="#F9DFD4"/>
<stop offset="0.552395" stop-color="#AFD0D0"/>
</linearGradient>
<linearGradient id="paint5_linear_3413_661" x1="2484.66" y1="216.823" x2="2796.77" y2="414.911" gradientUnits="userSpaceOnUse">
<stop offset="0.0484235" stop-color="#F9DFD4"/>
<stop offset="0.552395" stop-color="#AFD0D0"/>
</linearGradient>
<linearGradient id="paint6_linear_3413_661" x1="749.311" y1="236.902" x2="591.09" y2="337.321" gradientUnits="userSpaceOnUse">
<stop offset="0.0484235" stop-color="#F9DFD4"/>
<stop offset="0.552395" stop-color="#AFD0D0"/>
</linearGradient>
<linearGradient id="paint7_linear_3413_661" x1="2527.02" y1="86.7462" x2="2970.3" y2="368.089" gradientUnits="userSpaceOnUse">
<stop offset="0.0484235" stop-color="#F9DFD4"/>
<stop offset="0.552395" stop-color="#AFD0D0"/>
</linearGradient>
<clipPath id="clip0_3413_661">
<rect width="2760" height="690" fill="white"/>
</clipPath>
<clipPath id="clip1_3413_661">
<rect width="2790" height="690" fill="white" transform="translate(-30)"/>
</clipPath>
</defs>
</svg>
