<svg width="50" height="87" viewBox="0 0 50 87" fill="none" xmlns="http://www.w3.org/2000/svg">
<path d="M2.74491 33.5754C2.74491 33.2481 3.44213 33.1064 3.90736 33.1064H45.5715C46.0367 33.1064 46.132 33.2494 46.132 33.5754V78.0046C46.132 78.3319 45.9364 78.7219 45.5238 78.8724L25.5877 86.1644C25.1739 86.3149 24.5331 86.3161 24.1181 86.1682L3.63775 78.8686C3.22268 78.7194 2.74365 78.3307 2.74365 78.0046V33.5754H2.74491Z" fill="black"/>
<path d="M44.6425 48.9904V43.8916H4.30762L44.6425 48.9904Z" fill="#101111"/>
<path d="M47.2984 41.6952C47.2984 41.6952 27.2633 48.3189 1.98389 41.6952V28.8066C25.3033 34.8772 47.2984 28.8066 47.2984 28.8066V41.6952Z" fill="white"/>
<path d="M47.2985 28.8072V41.6958C47.2985 41.6958 38.3926 44.6389 24.9673 44.6389C18.2534 44.6389 10.4109 43.9028 1.984 41.6958V28.8072C9.75629 30.8311 17.3831 31.5058 24.0958 31.5058C37.5223 31.5058 47.2973 28.8072 47.2973 28.8072M49.2522 26.2402L46.7794 26.9224C46.674 26.9513 37.0646 29.5508 24.097 29.5508C16.4677 29.5508 9.19325 28.6642 2.47683 26.9161L0.0302734 26.2791V43.2031L1.48867 43.5855C9.10547 45.5807 17.0044 46.5926 24.9673 46.5926C38.5506 46.5926 47.5355 43.6746 47.9117 43.5504L49.2522 43.1078V26.2415V26.2402Z" fill="black"/>
<path d="M9.47419 33.8459C9.60962 33.8709 9.73376 33.9223 9.84537 33.9976C9.95698 34.0728 10.0498 34.1619 10.1212 34.2647C10.194 34.3675 10.2466 34.4841 10.2793 34.6133C10.3119 34.7437 10.3169 34.8754 10.293 35.0096C10.0623 36.3137 9.83157 37.6179 9.60084 38.922C9.57701 39.0562 9.5256 39.1791 9.44785 39.2895C9.36885 39.3998 9.2748 39.4914 9.1657 39.5641C9.05535 39.6368 8.9312 39.6857 8.79201 39.7121C8.65282 39.7384 8.50986 39.7384 8.3644 39.7108C7.29348 39.5077 6.22507 39.2857 5.15917 39.0437C5.01496 39.0111 4.8833 38.9546 4.76542 38.8744C4.64754 38.7941 4.55099 38.6988 4.477 38.5872C4.40176 38.4756 4.3516 38.3552 4.32652 38.2223C4.30144 38.0906 4.3052 37.959 4.33655 37.826C4.64629 36.5382 4.95477 35.2503 5.26451 33.9625C5.29586 33.8295 5.35229 33.7104 5.43129 33.6038C5.51029 33.4972 5.6056 33.412 5.71595 33.3468C5.8263 33.2828 5.94794 33.2377 6.08086 33.2138C6.21379 33.1888 6.34797 33.1925 6.48214 33.2226C7.47657 33.4483 8.47349 33.6565 9.47419 33.8459ZM8.68667 35.1701C8.01202 35.0384 7.33863 34.898 6.66648 34.7487C6.44578 35.7482 6.22507 36.7476 6.00437 37.7458C6.70034 37.9 7.39882 38.0455 8.09729 38.1822C8.29417 37.1777 8.4898 36.1733 8.68667 35.1701Z" fill="black"/>
<path d="M16.3121 34.8973C16.3396 34.9312 16.3522 34.9713 16.3472 35.0164C16.3083 35.3901 16.2694 35.7626 16.2305 36.1363C16.2255 36.1814 16.2055 36.2178 16.1704 36.2454C16.1352 36.2729 16.0939 36.2842 16.0475 36.2792C15.0756 36.1764 14.1063 36.056 13.1382 35.9193C13.1093 35.9156 13.093 35.9243 13.0905 35.9469C13.0466 36.2541 13.004 36.5601 12.9601 36.8673C12.9564 36.8962 12.9689 36.9112 12.9977 36.9162C13.7401 37.0216 14.485 37.1156 15.2286 37.2022C15.275 37.2072 15.3114 37.2272 15.3377 37.2623C15.364 37.2962 15.3741 37.3363 15.369 37.3815C15.3289 37.7351 15.2888 38.0875 15.2499 38.4411C15.2449 38.4862 15.2261 38.5226 15.1922 38.5502C15.1584 38.5778 15.1182 38.5891 15.0706 38.5841C14.3144 38.4975 13.5583 38.401 12.8034 38.2944C12.7733 38.2906 12.757 38.3019 12.7532 38.3308C12.6629 38.964 12.5739 39.5973 12.4836 40.2306C12.4685 40.3372 12.4033 40.3823 12.288 40.366C11.8679 40.3058 11.449 40.2418 11.029 40.1754C10.9136 40.1566 10.8647 40.0951 10.881 39.9873C11.1782 38.1289 11.4766 36.2717 11.7738 34.4133C11.7914 34.3067 11.8528 34.2615 11.9607 34.2791C13.3702 34.5023 14.7834 34.6891 16.2004 34.8396C16.2456 34.8446 16.2832 34.8647 16.3108 34.8986L16.3121 34.8973Z" fill="black"/>
<path d="M21.756 35.2895C21.7861 35.3221 21.7998 35.361 21.7986 35.4061C21.7835 35.7811 21.7698 36.156 21.7547 36.531C21.7534 36.5761 21.7359 36.6137 21.702 36.6438C21.6682 36.6739 21.6293 36.6877 21.5829 36.6865C20.6085 36.6463 19.6342 36.5899 18.6598 36.5172C18.631 36.5147 18.6159 36.5247 18.6134 36.5473C18.5896 36.8557 18.567 37.1655 18.5432 37.474C18.5407 37.5028 18.5545 37.5179 18.5846 37.5204C19.3307 37.5768 20.0781 37.6232 20.8267 37.6596C20.8744 37.6621 20.9108 37.6796 20.9396 37.7122C20.9672 37.7448 20.981 37.7837 20.9785 37.8289C20.9622 38.1837 20.9446 38.5386 20.9283 38.8935C20.9258 38.9386 20.9095 38.9763 20.8782 39.0064C20.8468 39.0365 20.8067 39.0502 20.759 39.0477C19.9991 39.0101 19.2404 38.9637 18.4818 38.906C18.4517 38.9035 18.4354 38.9173 18.4341 38.9449C18.3852 39.5832 18.3376 40.2202 18.2887 40.8585C18.2799 40.9664 18.2184 41.0153 18.1018 41.0065C17.6792 40.9739 17.2579 40.9375 16.8353 40.8986C16.7186 40.8874 16.666 40.8284 16.676 40.7206C16.8516 38.8471 17.0284 36.9736 17.2039 35.1001C17.214 34.9923 17.2729 34.9434 17.382 34.9534C18.8003 35.0838 20.2211 35.1779 21.6418 35.2356C21.687 35.2368 21.7259 35.2544 21.756 35.287V35.2895Z" fill="black"/>
<path d="M24.1136 41.1088C24.1136 41.2166 24.0534 41.2706 23.9367 41.2693C23.5141 41.2643 23.0903 41.2555 22.6677 41.2442C22.5511 41.2417 22.4946 41.1853 22.4972 41.0774C22.5511 39.1965 22.605 37.3155 22.6577 35.4345C22.6602 35.3266 22.7166 35.2739 22.8257 35.2765C23.2207 35.2865 23.6157 35.294 24.0107 35.299C24.1198 35.3003 24.1737 35.3555 24.1725 35.4633C24.1524 37.3443 24.1336 39.2265 24.1136 41.1075V41.1088Z" fill="black"/>
<path d="M27.0902 36.7755C27.0589 36.8043 27.0438 36.8419 27.0451 36.8871C27.0664 37.8075 27.0877 38.7279 27.109 39.6496C27.109 39.6948 27.1278 39.7311 27.1617 39.7587C27.1956 39.7863 27.2369 39.8001 27.2846 39.7989C28.2527 39.7738 29.2208 39.7336 30.1876 39.6772C30.2352 39.6747 30.2779 39.6873 30.313 39.7173C30.3481 39.7462 30.3669 39.7838 30.3694 39.829C30.392 40.2039 30.4146 40.5776 30.4371 40.9525C30.4396 40.9977 30.4246 41.0378 30.3932 41.0704C30.3619 41.1043 30.3205 41.1218 30.2716 41.1243C29.6321 41.162 28.9913 41.192 28.3505 41.2159C27.8238 41.2347 27.2959 41.2497 26.7692 41.2598C26.714 41.2598 26.6588 41.2623 26.6037 41.2623C26.4569 41.2648 26.3165 41.241 26.1848 41.192C26.0519 41.1431 25.9365 41.0729 25.8387 40.9826C25.7397 40.8923 25.6632 40.787 25.608 40.6641C25.5528 40.5425 25.524 40.4133 25.524 40.2766C25.524 40.2252 25.524 40.1738 25.524 40.1236C25.524 39.9167 25.5215 39.7086 25.5202 39.5017C25.5164 38.8395 25.5127 38.1774 25.5102 37.5153C25.5102 37.331 25.5077 37.1454 25.5077 36.9611C25.5077 36.7416 25.5052 36.5234 25.5039 36.304C25.5039 36.1673 25.529 36.0381 25.5791 35.9152C25.6306 35.7923 25.7008 35.687 25.7923 35.598C25.8839 35.5089 25.9905 35.4374 26.1133 35.381C26.2362 35.3258 26.3654 35.297 26.5033 35.2945C26.5548 35.2945 26.6062 35.2932 26.6576 35.292C27.7486 35.2707 28.8383 35.2293 29.9268 35.1653C29.9732 35.1628 30.012 35.1766 30.0459 35.2055C30.0797 35.2343 30.0973 35.2719 30.0998 35.3171C30.1224 35.692 30.145 36.0657 30.1675 36.4406C30.17 36.4858 30.1562 36.5259 30.1261 36.5585C30.0961 36.5911 30.0572 36.6099 30.0108 36.6124C29.0778 36.6664 28.1436 36.7065 27.2081 36.7291C27.1617 36.7291 27.1228 36.7454 27.0915 36.7742L27.0902 36.7755Z" fill="black"/>
<path d="M33.5071 40.7142C33.5172 40.822 33.4645 40.8809 33.3479 40.8922C32.9265 40.9311 32.5039 40.9675 32.0826 41.0013C31.966 41.0101 31.9045 40.9612 31.8957 40.8534C31.7515 38.9774 31.6086 37.1014 31.4644 35.2254C31.4556 35.1176 31.5057 35.0599 31.6148 35.0511C32.0086 35.0197 32.4024 34.9859 32.7961 34.9495C32.904 34.9395 32.9641 34.9884 32.9742 35.095C33.1522 36.9685 33.3291 38.8419 33.5071 40.7142Z" fill="black"/>
<path d="M38.3086 34.2511C38.4441 34.2297 38.5782 34.2348 38.7086 34.2686C38.8391 34.3025 38.9557 34.3539 39.0585 34.4266C39.1613 34.4981 39.2504 34.5896 39.3256 34.7012C39.4009 34.8129 39.4498 34.9345 39.4736 35.0699C39.747 36.65 40.0191 38.23 40.2924 39.8088C40.3 39.8539 40.2899 39.8941 40.2624 39.9304C40.2348 39.9668 40.1959 39.9894 40.147 39.9981C39.7256 40.0696 39.303 40.1386 38.8817 40.205C38.8328 40.2126 38.7889 40.2038 38.7513 40.1775C38.7137 40.1524 38.6898 40.116 38.6836 40.0709C38.6058 39.568 38.5281 39.0652 38.4516 38.5623C38.4453 38.5172 38.424 38.4821 38.3889 38.4557C38.355 38.4294 38.3136 38.4194 38.266 38.4269C37.6766 38.5172 37.086 38.5999 36.4953 38.6777C36.4477 38.6839 36.4088 38.7053 36.38 38.7404C36.3511 38.7755 36.3398 38.8156 36.3449 38.8608C36.4101 39.3649 36.4753 39.8702 36.5405 40.3743C36.5543 40.4809 36.5029 40.5424 36.3875 40.5574C35.9674 40.6113 35.5461 40.6615 35.1247 40.7092C35.0081 40.7217 34.9441 40.6753 34.9329 40.5675C34.756 38.9736 34.5792 37.381 34.4024 35.7872C34.3874 35.6518 34.3987 35.5201 34.4375 35.3935C34.4751 35.2668 34.5353 35.1539 34.6168 35.0561C34.6984 34.9583 34.7974 34.8756 34.9128 34.8066C35.0294 34.7389 35.1548 34.6962 35.2915 34.6787C36.2985 34.5545 37.3042 34.4116 38.3086 34.2511ZM38.2309 37.1378C38.1544 36.6437 38.0791 36.1484 38.0026 35.6543C37.3255 35.7584 36.6471 35.8549 35.9674 35.9427C36.0314 36.4393 36.0953 36.9346 36.1605 37.4312C36.8515 37.3422 37.5424 37.2444 38.2309 37.1378Z" fill="black"/>
<path d="M45.499 37.4249C45.5466 37.4136 45.588 37.4198 45.6256 37.4424C45.662 37.4662 45.6858 37.5001 45.6971 37.544C45.7849 37.9089 45.8727 38.2738 45.9605 38.6387C45.9705 38.6826 45.9655 38.724 45.9429 38.7616C45.9203 38.7992 45.8852 38.8243 45.8363 38.8356C44.5384 39.1441 43.2368 39.4237 41.9301 39.6745C41.8147 39.6971 41.747 39.6545 41.727 39.5479C41.3771 37.6995 41.026 35.8498 40.6761 34.0014C40.656 33.8948 40.6999 33.8321 40.8065 33.8121C41.1965 33.7368 41.5853 33.6603 41.974 33.5801C42.0806 33.5575 42.1458 33.6002 42.1671 33.7055C42.453 35.0774 42.7389 36.4492 43.0249 37.8211C43.0336 37.8663 43.0575 37.8989 43.0963 37.9189C43.1352 37.9402 43.1778 37.9453 43.2255 37.9352C43.9854 37.776 44.7428 37.6054 45.5002 37.4249H45.499Z" fill="black"/>
<path d="M49.2834 26.2387L46.7867 25.001L46.7591 0H2.2434L2.29106 25.2004L0 26.3365L2.29106 27.9278V27.9629H2.34247L2.48292 28.0607L2.49295 27.9629H3.26541C3.26541 27.9629 24.6361 34.3796 46.4632 28.0607H46.7892V27.9679C46.7892 27.9679 46.7992 27.9654 46.803 27.9642L49.2847 26.2399L49.2834 26.2387Z" fill="black"/>
<path d="M11.0416 70.4036C11.1633 70.455 11.2674 70.5252 11.3551 70.6155C11.4429 70.7058 11.5132 70.8099 11.5671 70.929C11.621 71.0469 11.6473 71.1748 11.6473 71.3102V72.9016C11.6473 73.037 11.621 73.1649 11.5671 73.2865C11.5132 73.4082 11.4429 73.5135 11.3551 73.6038C11.2674 73.6941 11.1633 73.7643 11.0416 73.8157C10.92 73.8671 10.7921 73.8922 10.6567 73.8922H7.27965C7.17181 73.8922 7.11914 73.8383 7.11914 73.7317V72.7072C7.11914 72.662 7.13419 72.6244 7.16554 72.5931C7.19689 72.5617 7.23451 72.5467 7.27965 72.5467H10.1576C10.2027 72.5467 10.2403 72.5329 10.2717 72.504C10.303 72.4765 10.3181 72.4388 10.3181 72.3937V71.6915C10.3181 71.6463 10.303 71.6087 10.2717 71.5773C10.2403 71.546 10.2027 71.5309 10.1576 71.5309H8.1098C7.97437 71.5309 7.84646 71.5059 7.72482 71.4544C7.60318 71.403 7.49785 71.3328 7.40756 71.2425C7.31727 71.1522 7.24705 71.0482 7.19563 70.929C7.14422 70.8099 7.11914 70.6832 7.11914 70.5478V68.9565C7.11914 68.8211 7.14422 68.6931 7.19563 68.5715C7.24579 68.4499 7.31727 68.3458 7.40756 68.258C7.49785 68.1702 7.60318 68.1 7.72482 68.0461C7.84646 67.9922 7.97437 67.9658 8.1098 67.9658H11.3C11.4066 67.9658 11.4605 68.0197 11.4605 68.1263V69.1672C11.4605 69.2123 11.4454 69.2487 11.4141 69.2775C11.3827 69.3063 11.3451 69.3201 11.3 69.3201H8.60011C8.55497 69.3201 8.5186 69.3352 8.48976 69.3665C8.46092 69.3979 8.44713 69.4355 8.44713 69.4807V70.1666C8.44713 70.2117 8.46092 70.2494 8.48976 70.2807C8.51735 70.3121 8.55497 70.3271 8.60011 70.3271H10.6567C10.7921 70.3271 10.92 70.3522 11.0416 70.4036Z" fill="white"/>
<path d="M17.4146 68.0129C17.446 68.0443 17.461 68.0819 17.461 68.127V69.1929C17.461 69.2381 17.446 69.2744 17.4146 69.3033C17.3833 69.3321 17.3457 69.3459 17.3005 69.3459H14.4652C14.4364 69.3459 14.4226 69.3597 14.4226 69.3886V70.3115C14.4226 70.3341 14.4364 70.3454 14.4652 70.3454H16.8854C16.9306 70.3454 16.9669 70.3604 16.9958 70.3918C17.0234 70.4231 17.0384 70.4607 17.0384 70.5059V71.3523C17.0384 71.3975 17.0246 71.4363 16.9958 71.4664C16.9669 71.4978 16.9306 71.5128 16.8854 71.5128H14.4652C14.4364 71.5128 14.4226 71.5266 14.4226 71.5555V72.4696C14.4226 72.4985 14.4364 72.5123 14.4652 72.5123H17.3005C17.3457 72.5123 17.3833 72.5273 17.4146 72.5587C17.446 72.59 17.461 72.6276 17.461 72.6728V73.7311C17.461 73.7763 17.446 73.8139 17.4146 73.8453C17.3833 73.8766 17.3457 73.8917 17.3005 73.8917H13.0946C12.9867 73.8917 12.9341 73.8377 12.9341 73.7311V68.1283C12.9341 68.0831 12.9491 68.0455 12.9805 68.0142C13.0118 67.9828 13.0494 67.9678 13.0946 67.9678H17.3005C17.3457 67.9678 17.3833 67.9828 17.4146 68.0142V68.0129Z" fill="white"/>
<path d="M22.7842 67.9658C22.9197 67.9658 23.0476 67.9922 23.1692 68.0461C23.2909 68.1 23.3949 68.1702 23.4827 68.258C23.5705 68.3458 23.6407 68.4499 23.6947 68.5715C23.7486 68.6931 23.7749 68.8211 23.7749 68.9565V73.7292C23.7749 73.7743 23.7599 73.812 23.7285 73.8433C23.6972 73.8747 23.6595 73.8897 23.6144 73.8897H22.4381C22.393 73.8897 22.3554 73.8747 22.324 73.8433C22.2927 73.812 22.2776 73.7743 22.2776 73.7292V72.2144C22.2776 72.1692 22.2638 72.1316 22.235 72.1003C22.2062 72.0689 22.1698 72.0539 22.1246 72.0539H20.4493C20.4042 72.0539 20.3665 72.0689 20.3352 72.1003C20.3038 72.1316 20.2888 72.1692 20.2888 72.2144V73.7292C20.2888 73.837 20.2349 73.8897 20.1283 73.8897H18.9608C18.8542 73.8897 18.8003 73.8358 18.8003 73.7292V68.9565C18.8003 68.8211 18.8254 68.6931 18.8768 68.5715C18.9282 68.4499 18.9984 68.3458 19.0887 68.258C19.179 68.1702 19.2843 68.1 19.406 68.0461C19.5276 67.9922 19.6555 67.9658 19.791 67.9658H22.7868H22.7842ZM22.2764 70.7836V69.2938H20.2875V70.7836H22.2764Z" fill="white"/>
<path d="M29.0089 70.4036C29.1306 70.455 29.2347 70.5252 29.3224 70.6155C29.4102 70.7058 29.4804 70.8099 29.5344 70.929C29.5883 71.0469 29.6146 71.1748 29.6146 71.3102V72.9016C29.6146 73.037 29.5883 73.1649 29.5344 73.2865C29.4804 73.4082 29.4102 73.5135 29.3224 73.6038C29.2347 73.6941 29.1306 73.7643 29.0089 73.8157C28.8873 73.8671 28.7594 73.8922 28.624 73.8922H25.2469C25.1391 73.8922 25.0864 73.8383 25.0864 73.7317V72.7072C25.0864 72.662 25.1015 72.6244 25.1328 72.5931C25.1642 72.5617 25.2018 72.5467 25.2469 72.5467H28.1249C28.17 72.5467 28.2076 72.5329 28.239 72.504C28.2703 72.4765 28.2854 72.4388 28.2854 72.3937V71.6915C28.2854 71.6463 28.2703 71.6087 28.239 71.5773C28.2076 71.546 28.17 71.5309 28.1249 71.5309H26.0771C25.9417 71.5309 25.8137 71.5059 25.6921 71.4544C25.5705 71.403 25.4651 71.3328 25.3748 71.2425C25.2846 71.1522 25.2143 71.0482 25.1629 70.929C25.1115 70.8099 25.0864 70.6832 25.0864 70.5478V68.9565C25.0864 68.8211 25.1115 68.6931 25.1629 68.5715C25.2131 68.4499 25.2846 68.3458 25.3748 68.258C25.4651 68.1702 25.5705 68.1 25.6921 68.0461C25.8137 67.9922 25.9417 67.9658 26.0771 67.9658H29.2673C29.3751 67.9658 29.4278 68.0197 29.4278 68.1263V69.1672C29.4278 69.2123 29.4127 69.2487 29.3814 69.2775C29.35 69.3063 29.3124 69.3201 29.2673 69.3201H26.5674C26.5223 69.3201 26.4859 69.3352 26.457 69.3665C26.4295 69.3979 26.4144 69.4355 26.4144 69.4807V70.1666C26.4144 70.2117 26.4282 70.2494 26.457 70.2807C26.4846 70.3121 26.5223 70.3271 26.5674 70.3271H28.624C28.7594 70.3271 28.8873 70.3522 29.0089 70.4036Z" fill="white"/>
<path d="M34.8688 67.9658C35.0042 67.9658 35.1321 67.9922 35.2538 68.0461C35.3754 68.1 35.4795 68.1702 35.5673 68.258C35.655 68.3458 35.7253 68.4499 35.7792 68.5715C35.8331 68.6931 35.8594 68.8211 35.8594 68.9565V72.9003C35.8594 73.0357 35.8331 73.1636 35.7792 73.2853C35.7253 73.4069 35.655 73.5123 35.5673 73.6025C35.4795 73.6928 35.3754 73.7631 35.2538 73.8145C35.1321 73.8659 35.0042 73.891 34.8688 73.891H31.873C31.7376 73.891 31.6096 73.8659 31.488 73.8145C31.3664 73.7631 31.261 73.6928 31.1707 73.6025C31.0805 73.5123 31.0102 73.4069 30.9588 73.2853C30.9087 73.1636 30.8823 73.0357 30.8823 72.9003V68.9565C30.8823 68.8211 30.9074 68.6931 30.9588 68.5715C31.0102 68.4499 31.0805 68.3458 31.1707 68.258C31.261 68.1702 31.3664 68.1 31.488 68.0461C31.6096 67.9922 31.7376 67.9658 31.873 67.9658H34.8688ZM34.3609 69.4042H32.3721V72.4514H34.3609V69.4042Z" fill="white"/>
<path d="M42.1184 68.0135C42.1498 68.0448 42.1648 68.0824 42.1648 68.1276V73.7305C42.1648 73.7756 42.1498 73.8132 42.1184 73.8446C42.0871 73.8759 42.0495 73.891 42.0043 73.891H40.7854C40.7403 73.891 40.6951 73.8784 40.65 73.8533C40.6049 73.8283 40.571 73.7957 40.5484 73.7555L38.6775 70.302V73.7292C38.6775 73.837 38.6235 73.8897 38.5169 73.8897H37.3495C37.2416 73.8897 37.189 73.8358 37.189 73.7292V68.1263C37.189 68.0197 37.2429 67.9658 37.3495 67.9658H38.5508C38.5959 67.9658 38.6411 67.9784 38.6862 68.0034C38.7314 68.0285 38.7652 68.0611 38.7878 68.1013L40.6663 71.5623V68.1263C40.6663 68.0812 40.6813 68.0436 40.7127 68.0122C40.744 67.9809 40.7817 67.9658 40.8268 67.9658H42.0031C42.0482 67.9658 42.0858 67.9809 42.1172 68.0122L42.1184 68.0135Z" fill="white"/>
<path d="M10.1262 19.7494C10.1613 19.7645 10.1914 19.7858 10.2164 19.8109C10.2415 19.8359 10.2616 19.866 10.2779 19.9011C10.2942 19.9363 10.3005 19.9726 10.3005 20.0115V21.3846C10.3005 21.3972 10.2954 21.4085 10.2867 21.4172C10.2779 21.426 10.2666 21.431 10.2541 21.431H9.91549C9.90295 21.431 9.89166 21.426 9.88414 21.4172C9.87661 21.4085 9.8716 21.3972 9.8716 21.3846V20.1407H9.59948V21.3846C9.59948 21.3972 9.59572 21.4085 9.58694 21.4172C9.57816 21.426 9.56813 21.431 9.55559 21.431H9.24836C9.23582 21.431 9.22453 21.426 9.21576 21.4172C9.20698 21.4085 9.20196 21.3972 9.20196 21.3846V20.1407H8.92984V21.3846C8.92984 21.416 8.9148 21.431 8.88345 21.431H8.54737C8.51602 21.431 8.50098 21.416 8.50098 21.3846V19.772C8.50098 19.7406 8.51602 19.7256 8.54737 19.7256H10.0158C10.0547 19.7256 10.0923 19.7331 10.1262 19.7482V19.7494Z" fill="white"/>
<path d="M11.8305 19.7275C11.8694 19.7275 11.907 19.7351 11.9421 19.7501C11.9772 19.7652 12.0073 19.7865 12.0324 19.8116C12.0575 19.8366 12.0776 19.8667 12.0939 19.9018C12.1102 19.937 12.1164 19.9733 12.1164 20.0122V21.3853C12.1164 21.3979 12.1114 21.4092 12.1026 21.4179C12.0939 21.4267 12.0826 21.4317 12.07 21.4317H11.7314C11.7189 21.4317 11.7076 21.4267 11.6988 21.4179C11.6901 21.4092 11.6851 21.3979 11.6851 21.3853V20.9489C11.6851 20.9364 11.6813 20.9251 11.6725 20.9163C11.6637 20.9076 11.6537 20.9025 11.6412 20.9025H11.1584C11.1458 20.9025 11.1345 20.9076 11.1258 20.9163C11.117 20.9251 11.112 20.9364 11.112 20.9489V21.3853C11.112 21.4167 11.0969 21.4317 11.0656 21.4317H10.7295C10.6994 21.4317 10.6831 21.4167 10.6831 21.3853V20.0122C10.6831 19.9733 10.6906 19.9357 10.7044 19.9018C10.7195 19.8667 10.7395 19.8366 10.7659 19.8116C10.7922 19.7865 10.8223 19.7664 10.8574 19.7501C10.8925 19.7351 10.9289 19.7275 10.9678 19.7275H11.8305ZM11.6838 20.5389V20.11H11.112V20.5389H11.6838Z" fill="white"/>
<path d="M13.6483 19.7406C13.6571 19.7494 13.6621 19.7607 13.6621 19.7732V21.1464C13.6621 21.1852 13.6545 21.2229 13.6395 21.2567C13.6244 21.2918 13.6031 21.3219 13.5781 21.3483C13.553 21.3746 13.5229 21.3947 13.4878 21.4097C13.4527 21.4248 13.4163 21.431 13.3774 21.431H12.6438C12.6049 21.431 12.5673 21.4235 12.5335 21.4097C12.4984 21.3947 12.4683 21.3746 12.4419 21.3483C12.4156 21.3219 12.3955 21.2918 12.3805 21.2567C12.3654 21.2216 12.3579 21.1852 12.3579 21.1464V20.6247C12.3579 20.5934 12.373 20.5783 12.4043 20.5783H12.7404C12.7705 20.5783 12.7868 20.5934 12.7868 20.6247V20.9733C12.7868 20.9859 12.7905 20.9971 12.8006 21.0047C12.8093 21.0122 12.8206 21.0172 12.8332 21.0172H13.1868C13.1993 21.0172 13.2106 21.0134 13.2194 21.0047C13.2282 20.9959 13.2332 20.9859 13.2332 20.9733V19.772C13.2332 19.7594 13.237 19.7482 13.2457 19.7394C13.2545 19.7306 13.2646 19.7256 13.2771 19.7256H13.6157C13.6282 19.7256 13.6395 19.7306 13.6483 19.7394V19.7406Z" fill="white"/>
<path d="M15.1887 19.7275C15.2276 19.7275 15.2652 19.7351 15.2991 19.7501C15.3342 19.7652 15.3643 19.7865 15.3893 19.8116C15.4144 19.8366 15.4345 19.8667 15.4508 19.9018C15.4671 19.937 15.4734 19.9733 15.4734 20.0122V21.1471C15.4734 21.1859 15.4658 21.2236 15.4508 21.2574C15.4357 21.2913 15.4157 21.3226 15.3893 21.349C15.3643 21.3753 15.3342 21.3954 15.2991 21.4104C15.2639 21.4255 15.2276 21.4317 15.1887 21.4317H14.326C14.2871 21.4317 14.2495 21.4242 14.2156 21.4104C14.1805 21.3954 14.1504 21.3753 14.1241 21.349C14.0977 21.3226 14.0777 21.2925 14.0626 21.2574C14.0476 21.2223 14.04 21.1859 14.04 21.1471V20.0122C14.04 19.9733 14.0476 19.9357 14.0626 19.9018C14.0777 19.868 14.0977 19.8366 14.1241 19.8116C14.1504 19.7865 14.1805 19.7664 14.2156 19.7501C14.2507 19.7351 14.2871 19.7275 14.326 19.7275H15.1887ZM15.0432 20.1414H14.4714V21.0179H15.0432V20.1414Z" fill="white"/>
<path d="M17.3415 21.3922C17.3477 21.4034 17.349 21.4135 17.344 21.4197C17.3389 21.4273 17.3302 21.431 17.3176 21.431H16.9301C16.9176 21.431 16.9038 21.4273 16.8913 21.4197C16.8787 21.4122 16.8687 21.4034 16.8624 21.3922L16.6041 20.9294C16.6003 20.9232 16.5953 20.9194 16.5866 20.9194H16.2969C16.2894 20.9194 16.2843 20.9232 16.2843 20.9319V21.3846C16.2843 21.416 16.2693 21.431 16.2379 21.431H15.9019C15.8705 21.431 15.8555 21.416 15.8555 21.3846V19.772C15.8555 19.7406 15.8705 19.7256 15.9019 19.7256H17.0029C17.0418 19.7256 17.0794 19.7331 17.1132 19.7482C17.1483 19.7632 17.1784 19.7845 17.2035 19.8096C17.2286 19.8347 17.2487 19.8648 17.265 19.8999C17.28 19.935 17.2875 19.9714 17.2875 20.0102V20.651C17.2875 20.7125 17.2687 20.7689 17.2324 20.8178C17.196 20.868 17.1496 20.9006 17.0919 20.9194L17.0844 20.9219C17.0731 20.9257 17.0706 20.9294 17.0769 20.9369L17.0794 20.942L17.3402 21.3922H17.3415ZM16.8574 20.1231H16.2705V20.5369H16.8574V20.1231Z" fill="white"/>
<path d="M19.639 21.0172C19.6516 21.0172 19.6629 21.0222 19.6704 21.031C19.6779 21.0398 19.6829 21.0511 19.6829 21.0636V21.3846C19.6829 21.3972 19.6792 21.4085 19.6704 21.4172C19.6616 21.426 19.6516 21.431 19.639 21.431H18.5869C18.5556 21.431 18.5405 21.416 18.5405 21.3846V19.772C18.5405 19.7406 18.5556 19.7256 18.5869 19.7256H18.923C18.9543 19.7256 18.9694 19.7406 18.9694 19.772V20.9733C18.9694 20.9859 18.9732 20.9971 18.9832 21.0047C18.9932 21.0122 19.0033 21.0172 19.0158 21.0172H19.639Z" fill="white"/>
<path d="M21.2115 19.7408C21.2203 19.7496 21.2253 19.7608 21.2253 19.7734V20.0806C21.2253 20.0932 21.2203 20.1044 21.2115 20.112C21.2027 20.1195 21.1914 20.1245 21.1789 20.1245H20.3625C20.355 20.1245 20.35 20.1283 20.35 20.137V20.4029C20.35 20.4092 20.3537 20.4129 20.3625 20.4129H21.0597C21.0723 20.4129 21.0836 20.4179 21.0911 20.4267C21.0986 20.4355 21.1036 20.4468 21.1036 20.4593V20.7026C21.1036 20.7151 21.0999 20.7264 21.0911 20.7352C21.0823 20.744 21.0723 20.749 21.0597 20.749H20.3625C20.355 20.749 20.35 20.7528 20.35 20.7615V21.0249C20.35 21.0324 20.3537 21.0374 20.3625 21.0374H21.1789C21.1914 21.0374 21.2027 21.0424 21.2115 21.0512C21.2203 21.06 21.2253 21.0713 21.2253 21.0838V21.3885C21.2253 21.4011 21.2203 21.4124 21.2115 21.4211C21.2027 21.4299 21.1914 21.4349 21.1789 21.4349H19.9688C19.9374 21.4349 19.9224 21.4199 19.9224 21.3885V19.7759C19.9224 19.7634 19.9274 19.7521 19.9362 19.7433C19.9449 19.7345 19.9562 19.7295 19.9688 19.7295H21.1789C21.1914 19.7295 21.2027 19.7345 21.2115 19.7433V19.7408Z" fill="white"/>
<path d="M22.7563 19.7275C22.7952 19.7275 22.8328 19.7351 22.8679 19.7501C22.903 19.7652 22.9331 19.7865 22.9582 19.8116C22.9833 19.8366 23.0033 19.8667 23.0196 19.9018C23.0359 19.937 23.0422 19.9733 23.0422 20.0122V21.3853C23.0422 21.3979 23.0372 21.4092 23.0284 21.4179C23.0196 21.4267 23.0083 21.4317 22.9958 21.4317H22.6572C22.6447 21.4317 22.6334 21.4267 22.6246 21.4179C22.6158 21.4092 22.6108 21.3979 22.6108 21.3853V20.9489C22.6108 20.9364 22.6071 20.9251 22.5983 20.9163C22.5895 20.9076 22.5795 20.9025 22.5669 20.9025H22.0842C22.0716 20.9025 22.0603 20.9076 22.0515 20.9163C22.0428 20.9251 22.0378 20.9364 22.0378 20.9489V21.3853C22.0378 21.4167 22.0227 21.4317 21.9914 21.4317H21.6553C21.6252 21.4317 21.6089 21.4167 21.6089 21.3853V20.0122C21.6089 19.9733 21.6164 19.9357 21.6302 19.9018C21.6453 19.8667 21.6653 19.8366 21.6916 19.8116C21.718 19.7865 21.7481 19.7664 21.7832 19.7501C21.8183 19.7351 21.8547 19.7275 21.8935 19.7275H22.7563ZM22.6096 20.5389V20.11H22.0378V20.5389H22.6096Z" fill="white"/>
<path d="M24.8404 20.5151C24.8492 20.5238 24.8542 20.5351 24.8542 20.5477V21.1471C24.8542 21.1859 24.8467 21.2236 24.8316 21.2574C24.8166 21.2913 24.7965 21.3226 24.7702 21.349C24.7451 21.3753 24.715 21.3954 24.6799 21.4104C24.6448 21.4255 24.6084 21.4317 24.5696 21.4317H23.7068C23.6679 21.4317 23.6303 21.4242 23.5965 21.4104C23.5613 21.3954 23.5313 21.3753 23.5049 21.349C23.4786 21.3226 23.4585 21.2925 23.4435 21.2574C23.4284 21.2223 23.4209 21.1859 23.4209 21.1471V20.0122C23.4209 19.9733 23.4284 19.9357 23.4435 19.9018C23.4585 19.868 23.4786 19.8366 23.5049 19.8116C23.5313 19.7865 23.5613 19.7664 23.5965 19.7501C23.6316 19.7351 23.6679 19.7275 23.7068 19.7275H24.7125C24.7251 19.7275 24.7363 19.7326 24.7451 19.7413C24.7539 19.7501 24.7589 19.7614 24.7589 19.7739V20.095C24.7589 20.1075 24.7539 20.1188 24.7451 20.1276C24.7363 20.1363 24.7251 20.1414 24.7125 20.1414H23.8962C23.8836 20.1414 23.8723 20.1451 23.8636 20.1539C23.8548 20.1627 23.8498 20.1727 23.8498 20.1852V20.974C23.8498 20.9866 23.8548 20.9978 23.8636 21.0054C23.8723 21.0129 23.8836 21.0179 23.8962 21.0179H24.379C24.3915 21.0179 24.4028 21.0141 24.4103 21.0054C24.4178 20.9966 24.4228 20.9866 24.4228 20.974V20.5477C24.4228 20.5351 24.4266 20.5238 24.4366 20.5151C24.4467 20.5063 24.4567 20.5013 24.4692 20.5013H24.8078C24.8204 20.5013 24.8316 20.5063 24.8404 20.5151Z" fill="white"/>
<path d="M26.6373 19.7413C26.6461 19.7501 26.6511 19.7614 26.6511 19.7739V21.1471C26.6511 21.1859 26.6436 21.2236 26.6285 21.2574C26.6135 21.2913 26.5934 21.3226 26.5671 21.349C26.542 21.3753 26.5119 21.3954 26.4768 21.4104C26.4417 21.4255 26.4053 21.4317 26.3652 21.4317H25.5024C25.4636 21.4317 25.4259 21.4242 25.3921 21.4104C25.357 21.3954 25.3269 21.3753 25.3005 21.349C25.2742 21.3226 25.2541 21.2925 25.2391 21.2574C25.224 21.2223 25.2178 21.1859 25.2178 21.1471V19.7739C25.2178 19.7426 25.2328 19.7275 25.2642 19.7275H25.6002C25.6303 19.7275 25.6466 19.7426 25.6466 19.7739V20.9753C25.6466 20.9878 25.6517 20.9991 25.6604 21.0066C25.6692 21.0141 25.6805 21.0192 25.693 21.0192H26.1758C26.1884 21.0192 26.1997 21.0154 26.2072 21.0066C26.2147 20.9978 26.2197 20.9878 26.2197 20.9753V19.7739C26.2197 19.7614 26.2247 19.7501 26.2335 19.7413C26.2423 19.7326 26.2536 19.7275 26.2661 19.7275H26.6047C26.6172 19.7275 26.6285 19.7326 26.6373 19.7413Z" fill="white"/>
<path d="M28.3252 19.7408C28.334 19.7496 28.339 19.7608 28.339 19.7734V20.0806C28.339 20.0932 28.334 20.1044 28.3252 20.112C28.3165 20.1195 28.3052 20.1245 28.2926 20.1245H27.4763C27.4688 20.1245 27.4637 20.1283 27.4637 20.137V20.4029C27.4637 20.4092 27.4675 20.4129 27.4763 20.4129H28.1735C28.186 20.4129 28.1973 20.4179 28.2049 20.4267C28.2124 20.4355 28.2174 20.4468 28.2174 20.4593V20.7026C28.2174 20.7151 28.2136 20.7264 28.2049 20.7352C28.1961 20.744 28.186 20.749 28.1735 20.749H27.4763C27.4688 20.749 27.4637 20.7528 27.4637 20.7615V21.0249C27.4637 21.0324 27.4675 21.0374 27.4763 21.0374H28.2926C28.3052 21.0374 28.3165 21.0424 28.3252 21.0512C28.334 21.06 28.339 21.0713 28.339 21.0838V21.3885C28.339 21.4011 28.334 21.4124 28.3252 21.4211C28.3165 21.4299 28.3052 21.4349 28.2926 21.4349H27.0825C27.0512 21.4349 27.0361 21.4199 27.0361 21.3885V19.7759C27.0361 19.7634 27.0411 19.7521 27.0499 19.7433C27.0587 19.7345 27.07 19.7295 27.0825 19.7295H28.2926C28.3052 19.7295 28.3165 19.7345 28.3252 19.7433V19.7408Z" fill="white"/>
<path d="M30.9397 19.7275C30.9522 19.7275 30.9635 19.7326 30.9723 19.7413C30.981 19.7501 30.9861 19.7614 30.9861 19.7739V21.3866C30.9861 21.3991 30.9823 21.4104 30.9723 21.4192C30.9622 21.428 30.9522 21.433 30.9397 21.433H30.6011C30.5885 21.433 30.5773 21.428 30.5685 21.4192C30.5597 21.4104 30.5547 21.3991 30.5547 21.3866V20.8235C30.5547 20.811 30.5509 20.7997 30.5421 20.7922C30.5334 20.7847 30.5233 20.7796 30.5108 20.7796H30.028C30.0155 20.7796 30.0042 20.7834 29.9954 20.7922C29.9866 20.801 29.9816 20.811 29.9816 20.8235V21.3866C29.9816 21.4179 29.9666 21.433 29.9352 21.433H29.5991C29.5678 21.433 29.5527 21.4179 29.5527 21.3866V19.7739C29.5527 19.7426 29.5678 19.7275 29.5991 19.7275H29.9352C29.9666 19.7275 29.9816 19.7426 29.9816 19.7739V20.3194C29.9816 20.3508 29.9967 20.3658 30.028 20.3658H30.5108C30.5233 20.3658 30.5346 20.3608 30.5421 20.352C30.5497 20.3433 30.5547 20.332 30.5547 20.3194V19.7739C30.5547 19.7614 30.5597 19.7501 30.5685 19.7413C30.5773 19.7326 30.5885 19.7275 30.6011 19.7275H30.9397Z" fill="white"/>
<path d="M32.5175 19.7275C32.5564 19.7275 32.594 19.7351 32.6291 19.7501C32.6642 19.7652 32.6943 19.7865 32.7194 19.8116C32.7445 19.8366 32.7646 19.8667 32.7809 19.9018C32.7972 19.937 32.8034 19.9733 32.8034 20.0122V21.3853C32.8034 21.3979 32.7984 21.4092 32.7896 21.4179C32.7809 21.4267 32.7696 21.4317 32.757 21.4317H32.4185C32.4059 21.4317 32.3946 21.4267 32.3859 21.4179C32.3771 21.4092 32.3721 21.3979 32.3721 21.3853V20.9489C32.3721 20.9364 32.3683 20.9251 32.3595 20.9163C32.3507 20.9076 32.3407 20.9025 32.3282 20.9025H31.8454C31.8328 20.9025 31.8216 20.9076 31.8128 20.9163C31.804 20.9251 31.799 20.9364 31.799 20.9489V21.3853C31.799 21.4167 31.7839 21.4317 31.7526 21.4317H31.4165C31.3864 21.4317 31.3701 21.4167 31.3701 21.3853V20.0122C31.3701 19.9733 31.3776 19.9357 31.3914 19.9018C31.4065 19.8667 31.4265 19.8366 31.4529 19.8116C31.4792 19.7865 31.5093 19.7664 31.5444 19.7501C31.5795 19.7351 31.6159 19.7275 31.6548 19.7275H32.5175ZM32.3721 20.5389V20.11H31.8002V20.5389H32.3721Z" fill="white"/>
<path d="M33.6223 20.1539C33.6136 20.1614 33.6086 20.1727 33.6086 20.1852V20.974C33.6086 20.9866 33.6123 20.9978 33.6223 21.0054C33.6324 21.0129 33.6424 21.0179 33.655 21.0179H34.4374C34.45 21.0179 34.4613 21.0229 34.47 21.0317C34.4788 21.0405 34.4838 21.0518 34.4838 21.0643V21.3853C34.4838 21.3979 34.4801 21.4092 34.47 21.4179C34.46 21.4267 34.45 21.4317 34.4374 21.4317H33.4656C33.4267 21.4317 33.3891 21.4242 33.3552 21.4104C33.3201 21.3954 33.29 21.3753 33.2637 21.349C33.2374 21.3226 33.2173 21.2925 33.2023 21.2574C33.1872 21.2223 33.1797 21.1859 33.1797 21.1471V20.0122C33.1797 19.9733 33.1872 19.9357 33.2023 19.9018C33.2173 19.8667 33.2374 19.8366 33.2637 19.8116C33.29 19.7865 33.3201 19.7664 33.3552 19.7501C33.3904 19.7351 33.4267 19.7275 33.4656 19.7275H34.4374C34.45 19.7275 34.4613 19.7326 34.47 19.7413C34.4788 19.7501 34.4838 19.7614 34.4838 19.7739V20.095C34.4838 20.1075 34.4801 20.1188 34.47 20.1276C34.46 20.1363 34.45 20.1414 34.4374 20.1414H33.655C33.6424 20.1414 33.6311 20.1451 33.6223 20.1539Z" fill="white"/>
<path d="M35.8404 20.4461C35.8404 20.4461 35.8341 20.4561 35.8379 20.4636L36.4084 21.3941C36.4147 21.4054 36.416 21.4154 36.4109 21.4217C36.4059 21.4292 36.3971 21.433 36.3846 21.433H35.9808C35.9683 21.433 35.9545 21.4292 35.9419 21.4217C35.9294 21.4142 35.9194 21.4054 35.9131 21.3941L35.5457 20.7295C35.5407 20.722 35.5369 20.7207 35.5331 20.727L35.3312 20.9489C35.3237 20.9577 35.3162 20.969 35.3112 20.984C35.3049 20.9991 35.3024 21.0141 35.3024 21.0267V21.3866C35.3024 21.4179 35.2874 21.433 35.256 21.433H34.9199C34.8886 21.433 34.8735 21.4179 34.8735 21.3866V19.7739C34.8735 19.7426 34.8886 19.7275 34.9199 19.7275H35.256C35.2874 19.7275 35.3024 19.7426 35.3024 19.7739V20.4975L35.9307 19.7614C35.9382 19.7514 35.9495 19.7438 35.9645 19.7376C35.9796 19.7313 35.9934 19.7275 36.0059 19.7275H36.4097C36.4222 19.7275 36.4298 19.7313 36.4323 19.7376C36.4348 19.7438 36.4323 19.7526 36.4235 19.7614L35.8416 20.4461H35.8404Z" fill="white"/>
<path d="M37.1535 21.3866C37.1535 21.4179 37.1384 21.433 37.1071 21.433H36.771C36.7397 21.433 36.7246 21.4179 36.7246 21.3866V19.7739C36.7246 19.7426 36.7397 19.7275 36.771 19.7275H37.1071C37.1384 19.7275 37.1535 19.7426 37.1535 19.7739V21.3866Z" fill="white"/>
<path d="M38.7937 19.7494C38.8288 19.7645 38.8589 19.7858 38.884 19.8109C38.9091 19.8359 38.9291 19.866 38.9454 19.9011C38.9605 19.9363 38.968 19.9726 38.968 20.0115V21.3846C38.968 21.3972 38.9642 21.4085 38.9542 21.4172C38.9442 21.426 38.9341 21.431 38.9216 21.431H38.583C38.5705 21.431 38.5592 21.426 38.5517 21.4172C38.5441 21.4085 38.5391 21.3972 38.5391 21.3846V20.1833C38.5391 20.1708 38.5341 20.1595 38.5253 20.1519C38.5165 20.1444 38.5053 20.1394 38.4927 20.1394H38.0099C37.9974 20.1394 37.9861 20.1432 37.9773 20.1519C37.9686 20.1607 37.9635 20.1708 37.9635 20.1833V21.3846C37.9635 21.416 37.9485 21.431 37.9171 21.431H37.5811C37.5497 21.431 37.5347 21.416 37.5347 21.3846V19.772C37.5347 19.7406 37.5497 19.7256 37.5811 19.7256H38.6821C38.721 19.7256 38.7586 19.7331 38.7924 19.7482L38.7937 19.7494Z" fill="white"/>
<path d="M40.7662 20.5151C40.775 20.5238 40.78 20.5351 40.78 20.5477V21.1471C40.78 21.1859 40.7725 21.2236 40.7574 21.2574C40.7424 21.2913 40.7223 21.3226 40.696 21.349C40.6709 21.3753 40.6408 21.3954 40.6057 21.4104C40.5706 21.4255 40.5342 21.4317 40.4953 21.4317H39.6326C39.5937 21.4317 39.5561 21.4242 39.5222 21.4104C39.4871 21.3954 39.457 21.3753 39.4307 21.349C39.4044 21.3226 39.3843 21.2925 39.3693 21.2574C39.3542 21.2223 39.3467 21.1859 39.3467 21.1471V20.0122C39.3467 19.9733 39.3542 19.9357 39.3693 19.9018C39.3843 19.868 39.4044 19.8366 39.4307 19.8116C39.457 19.7865 39.4871 19.7664 39.5222 19.7501C39.5574 19.7351 39.5937 19.7275 39.6326 19.7275H40.6383C40.6508 19.7275 40.6621 19.7326 40.6709 19.7413C40.6797 19.7501 40.6847 19.7614 40.6847 19.7739V20.095C40.6847 20.1075 40.6797 20.1188 40.6709 20.1276C40.6621 20.1363 40.6508 20.1414 40.6383 20.1414H39.8219C39.8094 20.1414 39.7981 20.1451 39.7893 20.1539C39.7806 20.1627 39.7755 20.1727 39.7755 20.1852V20.974C39.7755 20.9866 39.7806 20.9978 39.7893 21.0054C39.7981 21.0129 39.8094 21.0179 39.8219 21.0179H40.3047C40.3173 21.0179 40.3286 21.0141 40.3361 21.0054C40.3436 20.9966 40.3486 20.9866 40.3486 20.974V20.5477C40.3486 20.5351 40.3524 20.5238 40.3624 20.5151C40.3725 20.5063 40.3825 20.5013 40.395 20.5013H40.7336C40.7461 20.5013 40.7574 20.5063 40.7662 20.5151Z" fill="white"/>
<path d="M18.7751 7.98949C18.9958 8.0873 19.1851 8.21521 19.3444 8.37321C19.5036 8.53247 19.6315 8.72183 19.7294 8.94128C19.8272 9.16198 19.8761 9.39397 19.8761 9.63975V18.5845C19.8761 18.666 19.8472 18.7363 19.7908 18.7914C19.7344 18.8466 19.6654 18.8755 19.5826 18.8755H17.4433C17.3605 18.8755 17.2941 18.8479 17.2427 18.7914C17.1913 18.735 17.1662 18.666 17.1662 18.5845V10.4536H15.4419V18.5845C15.4419 18.666 15.4156 18.7363 15.3654 18.7914C15.314 18.8479 15.2476 18.8755 15.1648 18.8755H13.2249C13.1421 18.8755 13.0731 18.8479 13.0167 18.7914C12.9603 18.735 12.9314 18.666 12.9314 18.5845V10.4536H11.2072V18.5845C11.2072 18.7789 11.1094 18.8767 10.915 18.8767H8.79072C8.59509 18.8767 8.49854 18.7789 8.49854 18.5845V8.13495C8.49854 7.94059 8.59635 7.84277 8.79072 7.84277H18.0728C18.3186 7.84277 18.5518 7.89168 18.7725 7.98824L18.7751 7.98949Z" fill="white"/>
<path d="M18.7752 7.98949C18.9959 8.0873 19.1853 8.21521 19.3445 8.37322C19.5038 8.53247 19.6317 8.72183 19.7295 8.94128C19.8273 9.16198 19.8762 9.39397 19.8762 9.63975V10.4373L17.1676 10.4536H11.2111L8.50244 10.4373V8.13495C8.50244 7.94059 8.60025 7.84277 8.79462 7.84277H18.0767C18.3225 7.84277 18.5558 7.89168 18.7765 7.98824L18.7752 7.98949Z" fill="white"/>
<path d="M29.2045 16.1991C29.291 16.1991 29.3625 16.228 29.4164 16.2857C29.4704 16.3434 29.498 16.4148 29.498 16.4989V18.5792C29.498 18.6633 29.4704 18.7347 29.4164 18.7924C29.3625 18.8501 29.291 18.8789 29.2045 18.8789H21.8761C21.6692 18.8789 21.5664 18.7786 21.5664 18.5792V8.14346C21.5664 7.94407 21.6692 7.84375 21.8761 7.84375H24.1258C24.3327 7.84375 24.4356 7.94407 24.4356 8.14346V15.9157C24.4356 15.9998 24.4657 16.0687 24.5258 16.1201C24.586 16.1728 24.6588 16.1991 24.7465 16.1991H29.2045Z" fill="white"/>
<path d="M24.4132 18.8789H21.8764C21.6707 18.8789 21.5679 18.7786 21.5679 18.5792V8.14346C21.5679 7.94407 21.6707 7.84375 21.8764 7.84375H24.121C24.3267 7.84375 24.4295 7.94407 24.4295 8.14346V15.9157C24.4295 15.9998 24.4132 18.8789 24.4132 18.8789Z" fill="white"/>
<path d="M40.4681 7.84403C40.5559 7.84403 40.6299 7.87287 40.6901 7.93055C40.7503 7.98824 40.7804 8.05971 40.7804 8.14373V18.6096C40.7804 18.6936 40.7503 18.7651 40.6901 18.8228C40.6299 18.8805 40.5559 18.9093 40.4681 18.9093H38.1884C38.1006 18.9093 38.0266 18.8805 37.9664 18.8228C37.9062 18.7651 37.8761 18.6936 37.8761 18.6096V14.958C37.8761 14.8739 37.8485 14.805 37.7946 14.7523C37.7394 14.6996 37.6692 14.6733 37.5814 14.6733H34.3837C34.296 14.6733 34.222 14.6996 34.1618 14.7523C34.1016 14.805 34.0715 14.8739 34.0715 14.958V18.6096C34.0715 18.8102 33.9674 18.9106 33.7605 18.9106H31.497C31.2889 18.9106 31.186 18.8102 31.186 18.6096V8.14373C31.186 7.94309 31.2901 7.84277 31.497 7.84277H33.7605C33.9674 7.84277 34.0715 7.94309 34.0715 8.14373V11.685C34.0715 11.8857 34.1756 11.986 34.3825 11.986H37.5802C37.668 11.986 37.7382 11.9571 37.7934 11.8995C37.8485 11.8418 37.8749 11.7703 37.8749 11.6863V8.14499C37.8749 8.06097 37.905 7.98949 37.9652 7.93181C38.0253 7.87412 38.0993 7.84528 38.1871 7.84528H40.4669L40.4681 7.84403Z" fill="white"/>
<path d="M34.0739 14.958V18.6096C34.0739 18.8102 33.9698 18.9106 33.7629 18.9106H31.4995C31.2913 18.9106 31.1885 18.8102 31.1885 18.6096V8.14373C31.1885 7.94309 31.2926 7.84277 31.4995 7.84277H33.7629C33.9698 7.84277 34.0739 7.94309 34.0739 8.14373V14.958Z" fill="white"/>
<path d="M40.468 7.84375C40.5558 7.84375 40.6298 7.87259 40.69 7.93028C40.7501 7.98796 40.7802 8.05944 40.7802 8.14346V18.6093C40.7802 18.6934 40.7501 18.7648 40.69 18.8225C40.6298 18.8802 40.5558 18.909 40.468 18.909H38.1882C38.1004 18.909 38.0265 18.8802 37.9663 18.8225C37.9061 18.7648 37.876 18.6934 37.876 18.6093V8.14346C37.876 8.05944 37.9061 7.98796 37.9663 7.93028C38.0265 7.87259 38.1004 7.84375 38.1882 7.84375H40.468Z" fill="white"/>
<path d="M9.85871 61.1732V62.446C9.88755 62.589 9.97282 62.6604 10.1158 62.6604H14.9186C14.9951 62.6604 15.0565 62.6868 15.1042 62.7394C15.1518 62.7921 15.1757 62.8561 15.1757 62.9326V64.6618C15.1757 64.7383 15.1518 64.8023 15.1042 64.8549C15.0565 64.9076 14.9951 64.9339 14.9186 64.9339H7.88491C7.70434 64.9339 7.61279 64.8437 7.61279 64.6618V60.5738C7.61279 60.3456 7.65543 60.1311 7.74196 59.9305C7.82848 59.7299 7.94636 59.5543 8.09935 59.4013C8.25233 59.2483 8.4304 59.1292 8.63606 59.0439C8.84046 58.9586 9.0574 58.9148 9.28688 58.9148H12.6752C12.7517 58.9148 12.8156 58.8884 12.8683 58.8357C12.921 58.7831 12.9473 58.7191 12.9473 58.6426V57.4852C12.9473 57.4087 12.921 57.3447 12.8683 57.2921C12.8156 57.2394 12.7517 57.2131 12.6752 57.2131H8.18587C8.10938 57.2131 8.04793 57.1892 8.00028 57.1416C7.95263 57.0939 7.9288 57.0325 7.9288 56.956V55.1979C7.9288 55.1214 7.95263 55.0575 8.00028 55.0048C8.04793 54.9521 8.10938 54.9258 8.18587 54.9258H13.5179C13.7461 54.9258 13.9605 54.9709 14.1612 55.0612C14.3618 55.1515 14.5374 55.2706 14.6904 55.4186C14.8421 55.5666 14.9625 55.7421 15.0478 55.9478C15.133 56.1534 15.1769 56.3691 15.1769 56.5986V56.9986C15.1857 57.0087 15.1907 57.0225 15.1907 57.0413V60.6867C15.1907 60.7631 15.1644 60.8246 15.1117 60.8722C15.059 60.9199 14.9951 60.9437 14.9186 60.9437H10.1158C9.9816 60.9437 9.89633 61.0202 9.85871 61.1719V61.1732Z" fill="white"/>
<path d="M22.4528 54.9258C22.6811 54.9258 22.898 54.9709 23.1037 55.0612C23.3081 55.1515 23.4849 55.2706 23.6329 55.4186C23.7808 55.5666 23.9 55.7421 23.9902 55.9478C24.0805 56.1534 24.1257 56.3691 24.1257 56.5986V63.2599C24.1257 63.4881 24.0805 63.705 23.9902 63.9107C23.9 64.1163 23.7808 64.2944 23.6329 64.4461C23.4849 64.5991 23.3093 64.7183 23.1037 64.8035C22.898 64.8888 22.6823 64.9327 22.4528 64.9327H18.1504C17.9221 64.9327 17.7052 64.8901 17.4995 64.8035C17.2939 64.7183 17.1158 64.5991 16.9641 64.4461C16.8111 64.2944 16.692 64.1151 16.6067 63.9107C16.5214 63.7063 16.4775 63.4893 16.4775 63.2599V56.5986C16.4775 56.3704 16.5202 56.1534 16.6067 55.9478C16.692 55.7434 16.8111 55.5666 16.9641 55.4186C17.1158 55.2706 17.2951 55.1515 17.4995 55.0612C17.704 54.9709 17.9209 54.9258 18.1504 54.9258H22.4528ZM21.6954 57.356H18.9078V62.5024H21.6954V57.356Z" fill="white"/>
<path d="M27.6566 61.1732V62.446C27.6854 62.589 27.7707 62.6604 27.9136 62.6604H32.7164C32.7929 62.6604 32.8544 62.6868 32.902 62.7394C32.9497 62.7921 32.9735 62.8561 32.9735 62.9326V64.6618C32.9735 64.7383 32.9497 64.8023 32.902 64.8549C32.8544 64.9076 32.7929 64.9339 32.7164 64.9339H25.6828C25.5022 64.9339 25.4106 64.8437 25.4106 64.6618V60.5738C25.4106 60.3456 25.4533 60.1311 25.5398 59.9305C25.6251 59.7299 25.7442 59.5543 25.8972 59.4013C26.0502 59.2483 26.2283 59.1292 26.4327 59.0439C26.6371 58.9586 26.854 58.9148 27.0835 58.9148H30.4718C30.5483 58.9148 30.6122 58.8884 30.6649 58.8357C30.7176 58.7831 30.7439 58.7191 30.7439 58.6426V57.4852C30.7439 57.4087 30.7176 57.3447 30.6649 57.2921C30.6122 57.2394 30.5483 57.2131 30.4718 57.2131H25.9825C25.906 57.2131 25.8445 57.1892 25.7969 57.1416C25.7492 57.0939 25.7254 57.0325 25.7254 56.956V55.1979C25.7254 55.1214 25.7492 55.0575 25.7969 55.0048C25.8445 54.9521 25.906 54.9258 25.9825 54.9258H31.3145C31.5427 54.9258 31.7571 54.9709 31.9578 55.0612C32.1584 55.1515 32.334 55.2706 32.487 55.4186C32.6399 55.5666 32.7591 55.7421 32.8444 55.9478C32.9296 56.1534 32.9735 56.3691 32.9735 56.5986V56.9986C32.9823 57.0087 32.9873 57.0225 32.9873 57.0413V60.6867C32.9873 60.7631 32.961 60.8246 32.9083 60.8722C32.8556 60.9199 32.7917 60.9437 32.7152 60.9437H27.9124C27.7782 60.9437 27.6929 61.0202 27.6553 61.1719L27.6566 61.1732Z" fill="white"/>
<path d="M34.2693 63.266V55.1865C34.2693 55.0046 34.3609 54.9131 34.5427 54.9131H36.5152C36.6971 54.9131 36.7886 55.0046 36.7886 55.1877V57.5502C36.7886 57.6255 36.8149 57.6869 36.8689 57.7371C36.9228 57.786 36.9867 57.8111 37.0607 57.8111H40.2572C40.4854 57.8111 40.7023 57.8562 40.908 57.9478C41.1136 58.038 41.2905 58.1572 41.4397 58.3039C41.5889 58.4506 41.708 58.6274 41.7958 58.8343C41.8849 59.0412 41.9287 59.2594 41.9287 59.4864V63.271C41.9287 63.4992 41.8849 63.7162 41.7958 63.9243C41.7068 64.1312 41.5877 64.3106 41.4397 64.4623C41.2905 64.614 41.1136 64.7319 40.908 64.8184C40.7023 64.905 40.4854 64.9476 40.2572 64.9476H35.9409C35.7127 64.9476 35.4957 64.905 35.2901 64.8184C35.0844 64.7319 34.9064 64.6128 34.7546 64.461C34.6029 64.3093 34.4838 64.1312 34.3972 63.9256C34.3107 63.7199 34.2681 63.5017 34.2681 63.2685L34.2693 63.266ZM36.7046 62.6641H39.496V60.146H36.7046V62.6641Z" fill="white"/>
</svg>
