<svg width="250" height="243" viewBox="0 0 250 243" fill="none" xmlns="http://www.w3.org/2000/svg">
<path d="M42.2699 129.821C42.2699 129.821 33.2119 61.2294 58.5724 29.3901C83.9329 -2.44919 116.683 -0.366972 132.662 14.2245C138.581 19.6293 141.847 23.374 144.652 30.8821C151.246 48.5258 148.335 57.9051 130.62 64.3053C123.642 66.8266 107.751 60.9526 101.633 65.1504C92.1333 71.6681 93.0282 121.16 102.244 128.073C109.586 133.579 117.099 130.493 125.734 127.388C140.064 122.234 140.66 107.444 150.364 97.1571C160.011 86.9305 173.408 90.6137 186.349 96.108C186.349 96.108 235.488 89.1449 243.718 107.941C247.242 115.99 244.566 121.647 244.374 130.432C244.018 146.61 254.088 164.439 239.571 171.589C232.389 175.126 226.088 176.057 219.08 172.186C212.355 168.473 209.049 163.155 208.694 155.482C204.455 168.111 187.38 169.925 169.838 164.618C159.056 161.357 158.876 148.931 154.305 146.563C149.734 144.195 97.6108 140.713 77.8379 148.793C58.065 156.872 56.8279 165.912 55.4888 171.454C54.1497 176.995 54.4281 238.013 54.4281 238.013L30.9861 223.19C30.9861 223.19 3.47462 209.235 5.63683 194.416C6.7007 187.125 15.1663 178.131 15.1663 178.131L21.3284 166.447C21.3284 166.447 16.9339 139.81 28.4653 136.726C31.4834 135.919 36.4619 136.493 36.4619 136.493L42.2699 129.821Z" fill="#5E9644"/>
<path d="M186.349 96.108C173.408 90.6137 160.011 86.9305 150.364 97.1571C140.66 107.444 140.064 122.234 125.734 127.388C117.099 130.493 109.586 133.579 102.244 128.073C93.0282 121.16 92.1333 71.6681 101.633 65.1504C107.751 60.9526 123.642 66.8266 130.62 64.3053C148.335 57.9051 151.246 48.5258 144.652 30.8821C141.847 23.374 138.581 19.6293 132.662 14.2245C116.683 -0.366972 83.9329 -2.44919 58.5724 29.3901C33.2119 61.2294 42.2699 129.821 42.2699 129.821L36.4619 136.493C36.4619 136.493 31.4834 135.919 28.4653 136.726C16.9339 139.81 21.3284 166.447 21.3284 166.447L15.1663 178.131C15.1663 178.131 6.7007 187.125 5.63683 194.416C3.47462 209.235 30.9861 223.19 30.9861 223.19L54.4281 238.013C54.4281 238.013 54.1497 176.995 55.4888 171.454C56.8279 165.912 58.065 156.872 77.8379 148.793C97.6108 140.713 149.734 144.195 154.305 146.563C158.876 148.931 159.056 161.357 169.838 164.618C187.38 169.925 204.455 168.111 208.694 155.482M186.349 96.108C202.104 102.797 210.266 114.38 212.387 131.364C213.568 140.819 208.694 155.482 208.694 155.482M186.349 96.108C186.349 96.108 235.488 89.1449 243.718 107.941C247.242 115.99 244.566 121.647 244.374 130.432C244.018 146.61 254.088 164.439 239.571 171.589C232.389 175.126 226.088 176.057 219.08 172.186C212.355 168.473 209.049 163.155 208.694 155.482" stroke="#216A38" stroke-width="5" stroke-linecap="round"/>
<path d="M123.611 28.8406C115.845 25.7771 106.473 24.3381 101.577 27.9825C90.3464 36.3421 112.537 59.7862 126.529 60.269C136.391 60.6092 145.132 58.999 146.214 49.1906C146.99 42.1579 145.894 38.1952 140.309 35.3568C135.226 32.774 130.696 31.6353 123.611 28.8406Z" fill="white" stroke="#216A38" stroke-width="5" stroke-linecap="round"/>
<path d="M118.88 36.4817C113.417 36.641 107.114 46.3288 107.114 46.3288C107.114 46.3288 110.371 51.7557 117.124 55.1082C124.738 58.8879 130.75 59.2128 130.75 59.2128C130.75 59.2128 128.185 36.2103 118.88 36.4817Z" fill="#2D2020" stroke="#216A38" stroke-width="2" stroke-linecap="round"/>
</svg>
