<svg width="1440" height="1024" viewBox="0 0 1440 1024" fill="none" xmlns="http://www.w3.org/2000/svg">
<g clip-path="url(#clip0_5012_382)">
<rect width="1440" height="1024" fill="url(#paint0_linear_5012_382)"/>
<g opacity="0.7">
<g style="mix-blend-mode:screen">
<path d="M71.9885 243.927L105.355 218L92.6105 259.955L125.983 285.882H84.7331L71.9885 327.837L59.244 285.882H18L51.3665 259.955L38.622 218L71.9885 243.927Z" fill="#FFEFCF"/>
<path d="M1339.52 713.178L1367.89 668.446L1371.44 720.422L1423.09 732.14L1373.64 752.543L1377.2 804.519L1343.08 765.148L1293.63 785.55L1322 740.818L1287.88 701.455L1339.52 713.178Z" fill="#FFEFCF"/>
<path d="M342.627 729.385L369.593 734.62L343.958 746.306L346.106 773.691L328.114 753.537L302.473 765.224L316.992 741.071L299 720.911L325.959 726.146L340.478 702L342.627 729.385Z" fill="#FFEFCF"/>
<path d="M59.7804 852.614L72.6327 843L67.7212 858.553L80.5735 868.16H64.6919L59.7804 883.706L54.8816 868.16H39L51.846 858.553L46.9408 843L59.7804 852.614Z" fill="#FFEFCF"/>
<path d="M784.798 587.993L797.023 579L792.352 593.557L804.59 602.55H789.462L784.798 617.108L780.121 602.55H765L777.231 593.557L772.561 579L784.798 587.993Z" fill="#FFEFCF"/>
<path d="M987.268 256.23L993.834 236L1000.41 256.23H1021.67L1004.47 268.727L1011.04 288.951L993.834 276.453L976.628 288.951L983.206 268.727L966 256.23H987.268Z" fill="#FFEFCF"/>
<path d="M720.299 940.207L742.113 944.947L721.681 953.941L723.918 976.154L709.05 959.492L688.619 968.492L699.868 949.206L685 932.545L706.813 937.285L718.062 918L720.299 940.207Z" fill="#FFEFCF"/>
<path d="M688.216 148.119L706.277 135L699.376 156.231L717.437 169.35H695.117L688.216 190.581L681.314 169.35H659L677.055 156.231L670.154 135L688.216 148.119Z" fill="#FFEFCF"/>
</g>
<g style="mix-blend-mode:screen" filter="url(#filter0_f_5012_382)">
<path d="M71.9885 243.927L105.355 218L92.6105 259.955L125.983 285.882H84.7331L71.9885 327.837L59.244 285.882H18L51.3665 259.955L38.622 218L71.9885 243.927Z" fill="#FFEFCF"/>
<path d="M1339.52 713.178L1367.89 668.446L1371.44 720.422L1423.09 732.14L1373.64 752.543L1377.2 804.519L1343.08 765.148L1293.63 785.55L1322 740.818L1287.88 701.455L1339.52 713.178Z" fill="#FFEFCF"/>
<path d="M342.627 729.385L369.593 734.62L343.958 746.306L346.106 773.691L328.114 753.537L302.473 765.224L316.992 741.071L299 720.911L325.959 726.146L340.478 702L342.627 729.385Z" fill="#FFEFCF"/>
<path d="M59.7804 852.614L72.6327 843L67.7212 858.553L80.5735 868.16H64.6919L59.7804 883.706L54.8816 868.16H39L51.846 858.553L46.9408 843L59.7804 852.614Z" fill="#FFEFCF"/>
<path d="M784.798 587.993L797.023 579L792.352 593.557L804.59 602.55H789.462L784.798 617.108L780.121 602.55H765L777.231 593.557L772.561 579L784.798 587.993Z" fill="#FFEFCF"/>
<path d="M987.268 256.23L993.834 236L1000.41 256.23H1021.67L1004.47 268.727L1011.04 288.951L993.834 276.453L976.628 288.951L983.206 268.727L966 256.23H987.268Z" fill="#FFEFCF"/>
<path d="M720.299 940.207L742.113 944.947L721.681 953.941L723.918 976.154L709.05 959.492L688.619 968.492L699.868 949.206L685 932.545L706.813 937.285L718.062 918L720.299 940.207Z" fill="#FFEFCF"/>
<path d="M688.216 148.119L706.277 135L699.376 156.231L717.437 169.35H695.117L688.216 190.581L681.314 169.35H659L677.055 156.231L670.154 135L688.216 148.119Z" fill="#FFEFCF"/>
</g>
</g>
<g opacity="0.49" style="mix-blend-mode:screen">
<path d="M1024.76 947.5C1001.26 914 957.761 947.5 967.261 964.5C931.261 953.299 906.261 966 928.261 978.5C950.261 991 1610.66 1021.97 1612.26 964.5C1612.66 950.099 1585.09 950.5 1571.26 952.5C1556.46 930.1 1533.76 934.167 1524.26 939C1509.06 897.4 1477.93 911 1464.26 923C1474.09 889.833 1464.26 795 1341.76 795C1218.04 795 1193.76 858.167 1209.26 907C1171.76 859 1119.26 870.833 1095.26 913.5C1045.76 904 1024.76 923.5 1024.76 947.5Z" fill="url(#paint1_linear_5012_382)"/>
</g>
<g opacity="0.49" style="mix-blend-mode:screen">
<path d="M-37.2811 851.36C-71.2557 817.891 -134.145 851.36 -120.41 868.344C-172.457 857.154 -200.324 1046.36 -168.518 1058.85C-136.713 1071.34 835.688 1167.25 837.996 1109.83C838.575 1095.44 772.809 854.357 752.81 856.356C731.413 833.976 698.595 838.039 684.861 842.868C662.885 801.306 617.875 814.894 598.117 826.883C612.333 793.746 598.117 699 421.015 699C242.151 699 207.047 762.109 229.456 810.897C175.241 762.941 99.3401 774.764 64.6427 817.391C-6.92094 807.9 -37.2811 827.382 -37.2811 851.36Z" fill="url(#paint2_linear_5012_382)"/>
</g>
</g>
<defs>
<filter id="filter0_f_5012_382" x="3" y="120" width="1435.09" height="871.154" filterUnits="userSpaceOnUse" color-interpolation-filters="sRGB">
<feFlood flood-opacity="0" result="BackgroundImageFix"/>
<feBlend mode="normal" in="SourceGraphic" in2="BackgroundImageFix" result="shape"/>
<feGaussianBlur stdDeviation="7.5" result="effect1_foregroundBlur_5012_382"/>
</filter>
<linearGradient id="paint0_linear_5012_382" x1="720" y1="0" x2="720" y2="1024" gradientUnits="userSpaceOnUse">
<stop stop-color="#16143F"/>
<stop offset="1" stop-color="#7C5DA7"/>
</linearGradient>
<linearGradient id="paint1_linear_5012_382" x1="1304.5" y1="795" x2="1304.5" y2="1031" gradientUnits="userSpaceOnUse">
<stop stop-color="#DAAFED"/>
<stop offset="1" stop-color="#7C6487" stop-opacity="0"/>
</linearGradient>
<linearGradient id="paint2_linear_5012_382" x1="367.146" y1="699" x2="367.146" y2="934.784" gradientUnits="userSpaceOnUse">
<stop stop-color="#DAAFED"/>
<stop offset="1" stop-color="#7C6487" stop-opacity="0"/>
</linearGradient>
<clipPath id="clip0_5012_382">
<rect width="1440" height="1024" fill="white"/>
</clipPath>
</defs>
</svg>
