<svg width="183" height="106" viewBox="0 0 183 106" fill="none" xmlns="http://www.w3.org/2000/svg">
<path d="M168.524 8.24989C174.047 8.24963 178.455 12.726 178.37 18.2482L177.312 86.7684C177.227 92.2905 172.681 96.7674 167.158 96.7677L14.2236 96.7748C8.70081 96.775 4.29278 92.2985 4.37784 86.7764L5.43508 18.2563C5.52028 12.7341 10.0665 8.25727 15.5894 8.25701L168.524 8.24989ZM51.7374 18.4689C49.2301 18.4691 47.166 20.5016 47.1273 23.0087C47.0888 25.5156 49.0901 27.5481 51.5973 27.5479L131.922 27.5442C134.429 27.5439 136.493 25.5113 136.532 23.0045C136.57 20.4976 134.569 18.4653 132.062 18.4652L51.7374 18.4689Z" fill="url(#paint0_linear_5020_124)"/>
<rect opacity="0.5" width="46.0091" height="43.8814" rx="5" transform="matrix(1 -4.25315e-05 -0.0154331 0.999881 122.539 31.9727)" fill="url(#paint1_linear_5020_124)"/>
<path opacity="0.5" d="M32.1826 53.0118L31.7337 82.0993L25.5831 82.0996L26.0321 53.0121L32.1826 53.0118ZM47.1065 82.0986L36.794 82.0991L37.243 53.0116L47.6407 53.0112C50.5669 53.0111 53.0768 53.5933 55.1706 54.7578C57.2645 55.9129 58.8629 57.5746 59.9658 59.7428C61.0782 61.9111 61.611 64.5054 61.5644 67.5259C61.5177 70.5558 60.9045 73.1597 59.7251 75.3375C58.5551 77.5154 56.8958 79.1866 54.7471 80.3514C52.608 81.5161 50.0611 82.0985 47.1065 82.0986ZM43.0259 76.8296L46.9322 76.8294C48.7504 76.8293 50.2847 76.5073 51.5352 75.8634C52.7953 75.21 53.7483 74.2016 54.3944 72.8381C55.05 71.4651 55.3946 69.6945 55.4281 67.5262C55.4612 65.3768 55.1711 63.6204 54.5577 62.2569C53.9537 60.8935 53.0365 59.8899 51.8059 59.2461C50.5753 58.6023 49.0509 58.2804 47.2327 58.2805L43.3122 58.2806L43.0259 76.8296Z" fill="url(#paint2_linear_5020_124)"/>
<path opacity="0.2" d="M145.761 39.4178C147.051 39.355 148.567 39.6867 150.053 40.2008C151.555 40.7209 153.106 41.4557 154.49 42.2674C155.435 42.8214 155.822 43.4749 156.091 43.936C156.812 45.177 156.93 46.7919 156.815 48.1904C156.698 49.6083 156.325 51.0069 155.872 51.9272C155.198 53.2931 154.063 54.3649 153.145 55.1218C152.686 55.5009 152.24 55.8319 151.937 56.0664C151.919 56.0804 151.901 56.0948 151.884 56.108C152.065 56.383 152.335 56.7539 152.702 57.2313C153.571 58.3623 154.862 59.9463 156.527 62.054L156.534 62.0634C158.196 64.2197 159.827 66.4418 160.824 67.8982C161.838 69.3816 162.165 70.0351 162.569 70.955C162.647 71.1324 162.667 71.3203 162.641 71.4991C162.751 71.658 162.815 71.8503 162.817 72.0577C162.821 72.6099 162.377 73.061 161.825 73.0653C155.082 73.1165 148.361 73.0736 143.115 73.0974C137.841 73.1213 134.121 73.2097 132.163 73.2295C131.202 73.2392 130.637 73.2349 130.311 73.2145C130.174 73.2059 129.972 73.1902 129.789 73.129C129.7 73.0991 129.475 73.0144 129.292 72.792C129.06 72.5112 129.036 72.1944 129.066 71.9835L129.103 71.6278C129.137 71.2107 129.157 70.6618 129.148 70.4545C129.143 70.3558 129.154 70.2598 129.176 70.1686C129.159 70.0042 129.184 69.8334 129.254 69.6711C129.699 68.645 130.132 67.7826 131.566 65.5442C132.991 63.3217 135.357 59.8108 136.635 57.9719L136.649 57.9517C137.103 57.332 137.495 56.8503 137.837 56.4752C137.631 56.3106 137.486 56.1174 137.397 55.9889C137.214 55.7239 137.04 55.3926 136.874 55.046C136.547 54.3638 136.144 53.3877 135.69 52.3701C134.08 48.7615 134.676 45.588 135.364 43.4448C135.94 41.6507 137.697 40.7551 139.123 40.1627C139.836 39.8668 140.877 39.7265 141.963 39.6338C143.083 39.5381 144.411 39.4836 145.761 39.4178ZM145.859 41.4154C144.479 41.4826 143.206 41.5344 142.133 41.6259C141.026 41.7205 140.28 41.8484 139.89 42.01C138.427 42.6174 137.536 43.2232 137.268 44.0566C136.657 45.96 136.188 48.576 137.517 51.5552C138.01 52.6617 138.362 53.5233 138.678 54.1815C138.832 54.5043 138.952 54.7204 139.042 54.8513C139.043 54.8524 139.044 54.854 139.045 54.8551C139.16 54.8833 139.251 54.9034 139.315 54.9135C139.36 54.9207 139.392 54.9234 139.406 54.9248L139.409 54.9247C139.655 54.9323 139.88 55.0299 140.051 55.1863C140.392 55.2639 140.682 55.5172 140.788 55.8755C140.946 56.4046 140.644 56.9614 140.115 57.1191C140.114 57.1193 140.112 57.1201 140.109 57.1213C140.102 57.1243 140.086 57.1326 140.059 57.1481C140.004 57.1805 139.904 57.2486 139.754 57.3827C139.449 57.6547 138.97 58.1667 138.27 59.1226C137.001 60.9484 134.656 64.43 133.251 66.6231C131.917 68.704 131.517 69.4966 131.144 70.3452C131.144 70.3504 131.145 70.3556 131.146 70.3608C131.155 70.5555 131.147 70.8865 131.131 71.2326C131.39 71.2337 131.721 71.2334 132.142 71.2292C134.056 71.2098 137.835 71.1214 143.106 71.0975C148.04 71.0752 154.142 71.1081 160.418 71.0716C160.16 70.5519 159.833 69.9934 159.172 69.0273C158.207 67.6149 156.603 65.4293 154.957 63.2935C153.324 61.2261 151.992 59.5912 151.116 58.4502C150.678 57.8804 150.324 57.3946 150.09 57.0151C149.976 56.8298 149.864 56.6272 149.79 56.4282C149.753 56.3283 149.711 56.1921 149.696 56.0358C149.681 55.8831 149.686 55.6357 149.821 55.3796L149.926 55.2113C150.04 55.0554 150.171 54.9345 150.252 54.8623C150.386 54.7416 150.55 54.6117 150.713 54.4854C151.056 54.2198 151.444 53.9318 151.873 53.5783C152.733 52.8691 153.598 52.0181 154.078 51.0432C154.399 50.3921 154.722 49.2473 154.823 48.0257C154.925 46.7848 154.78 45.6608 154.362 44.9416C154.147 44.5708 153.972 44.2818 153.479 43.9925C152.195 43.2393 150.763 42.5629 149.399 42.0907C148.018 41.6127 146.781 41.3706 145.859 41.4154Z" fill="#D9D9D9"/>
<defs>
<linearGradient id="paint0_linear_5020_124" x1="4.90646" y1="52.5164" x2="177.8" y2="55.1841" gradientUnits="userSpaceOnUse">
<stop stop-color="#A315D6"/>
<stop offset="0.514423" stop-color="#FDAB60"/>
<stop offset="1" stop-color="#A315D6"/>
</linearGradient>
<linearGradient id="paint1_linear_5020_124" x1="25.5545" y1="2.53408e-06" x2="25.5545" y2="50.989" gradientUnits="userSpaceOnUse">
<stop stop-color="#DAAFED"/>
<stop offset="1" stop-color="#7C6487" stop-opacity="0"/>
</linearGradient>
<linearGradient id="paint2_linear_5020_124" x1="46.9278" y1="43.1033" x2="46.9307" y2="110.371" gradientUnits="userSpaceOnUse">
<stop stop-color="#DAAFED"/>
<stop offset="1" stop-color="#7C6487" stop-opacity="0"/>
</linearGradient>
</defs>
</svg>
