<svg width="505" height="141" viewBox="0 0 505 141" fill="none" xmlns="http://www.w3.org/2000/svg">
<path d="M65 63V71H81V63H73H65ZM42.5 141C46.9183 141 50.5 137.418 50.5 133C50.5 128.582 46.9183 125 42.5 125V133V141ZM42.5 8V16C48.5478 16 53.7674 19.0009 57.9024 26.4418C62.2265 34.2231 65 46.4449 65 63H73H81C81 45.0373 78.0504 29.7591 71.888 18.6699C65.5364 7.24021 55.506 0 42.5 0V8ZM8 70.5H16C16 54.3308 19.6349 40.0881 25.1086 30.1719C30.7379 19.9739 37.224 16 42.5 16V8V0C28.7222 0 17.9583 10.0172 11.101 22.4397C4.08819 35.1441 0 52.1514 0 70.5H8ZM42.5 133V125C37.224 125 30.7379 121.026 25.1086 110.828C19.6349 100.912 16 86.6692 16 70.5H8H0C0 88.8486 4.08819 105.856 11.101 118.56C17.9583 130.983 28.7222 141 42.5 141V133Z" fill="url(#paint0_linear_5110_177)"/>
<path d="M171 63V71H187V63H179H171ZM148.5 141C152.918 141 156.5 137.418 156.5 133C156.5 128.582 152.918 125 148.5 125V133V141ZM148.5 8V16C154.548 16 159.767 19.0009 163.902 26.4418C168.227 34.2231 171 46.4449 171 63H179H187C187 45.0373 184.05 29.7591 177.888 18.6699C171.536 7.24021 161.506 0 148.5 0V8ZM114 70.5H122C122 54.3308 125.635 40.0881 131.109 30.1719C136.738 19.9739 143.224 16 148.5 16V8V0C134.722 0 123.958 10.0172 117.101 22.4397C110.088 35.1441 106 52.1514 106 70.5H114ZM148.5 133V125C143.224 125 136.738 121.026 131.109 110.828C125.635 100.912 122 86.6692 122 70.5H114H106C106 88.8486 110.088 105.856 117.101 118.56C123.958 130.983 134.722 141 148.5 141V133Z" fill="url(#paint1_linear_5110_177)"/>
<path d="M277 63V71H293V63H285H277ZM254.5 141C258.918 141 262.5 137.418 262.5 133C262.5 128.582 258.918 125 254.5 125V133V141ZM254.5 8V16C260.548 16 265.767 19.0009 269.902 26.4418C274.227 34.2231 277 46.4449 277 63H285H293C293 45.0373 290.05 29.7591 283.888 18.6699C277.536 7.24021 267.506 0 254.5 0V8ZM220 70.5H228C228 54.3308 231.635 40.0881 237.109 30.1719C242.738 19.9739 249.224 16 254.5 16V8V0C240.722 0 229.958 10.0172 223.101 22.4397C216.088 35.1441 212 52.1514 212 70.5H220ZM254.5 133V125C249.224 125 242.738 121.026 237.109 110.828C231.635 100.912 228 86.6692 228 70.5H220H212C212 88.8486 216.088 105.856 223.101 118.56C229.958 130.983 240.722 141 254.5 141V133Z" fill="url(#paint2_linear_5110_177)"/>
<path d="M383 63V71H399V63H391H383ZM360.5 141C364.918 141 368.5 137.418 368.5 133C368.5 128.582 364.918 125 360.5 125V133V141ZM360.5 8V16C366.548 16 371.767 19.0009 375.902 26.4418C380.227 34.2231 383 46.4449 383 63H391H399C399 45.0373 396.05 29.7591 389.888 18.6699C383.536 7.24021 373.506 0 360.5 0V8ZM326 70.5H334C334 54.3308 337.635 40.0881 343.109 30.1719C348.738 19.9739 355.224 16 360.5 16V8V0C346.722 0 335.958 10.0172 329.101 22.4397C322.088 35.1441 318 52.1514 318 70.5H326ZM360.5 133V125C355.224 125 348.738 121.026 343.109 110.828C337.635 100.912 334 86.6692 334 70.5H326H318C318 88.8486 322.088 105.856 329.101 118.56C335.958 130.983 346.722 141 360.5 141V133Z" fill="url(#paint3_linear_5110_177)"/>
<path d="M489 63V71H505V63H497H489ZM466.5 141C470.918 141 474.5 137.418 474.5 133C474.5 128.582 470.918 125 466.5 125V133V141ZM466.5 8V16C472.548 16 477.767 19.0009 481.902 26.4418C486.227 34.2231 489 46.4449 489 63H497H505C505 45.0373 502.05 29.7591 495.888 18.6699C489.536 7.24021 479.506 0 466.5 0V8ZM432 70.5H440C440 54.3308 443.635 40.0881 449.109 30.1719C454.738 19.9739 461.224 16 466.5 16V8V0C452.722 0 441.958 10.0172 435.101 22.4397C428.088 35.1441 424 52.1514 424 70.5H432ZM466.5 133V125C461.224 125 454.738 121.026 449.109 110.828C443.635 100.912 440 86.6692 440 70.5H432H424C424 88.8486 428.088 105.856 435.101 118.56C441.958 130.983 452.722 141 466.5 141V133Z" fill="url(#paint4_linear_5110_177)"/>
<defs>
<linearGradient id="paint0_linear_5110_177" x1="40.4352" y1="8.30979" x2="40.4352" y2="133.046" gradientUnits="userSpaceOnUse">
<stop stop-color="#14123D"/>
<stop offset="0.600962" stop-color="#7059A6"/>
<stop offset="0.855769" stop-color="#533085"/>
<stop offset="1" stop-color="#512D83"/>
</linearGradient>
<linearGradient id="paint1_linear_5110_177" x1="146.435" y1="8.30979" x2="146.435" y2="133.046" gradientUnits="userSpaceOnUse">
<stop stop-color="#14123D"/>
<stop offset="0.600962" stop-color="#7059A6"/>
<stop offset="0.855769" stop-color="#533085"/>
<stop offset="1" stop-color="#512D83"/>
</linearGradient>
<linearGradient id="paint2_linear_5110_177" x1="252.435" y1="8.30979" x2="252.435" y2="133.046" gradientUnits="userSpaceOnUse">
<stop stop-color="#14123D"/>
<stop offset="0.600962" stop-color="#7059A6"/>
<stop offset="0.855769" stop-color="#533085"/>
<stop offset="1" stop-color="#512D83"/>
</linearGradient>
<linearGradient id="paint3_linear_5110_177" x1="358.435" y1="8.30979" x2="358.435" y2="133.046" gradientUnits="userSpaceOnUse">
<stop stop-color="#14123D"/>
<stop offset="0.600962" stop-color="#7059A6"/>
<stop offset="0.855769" stop-color="#533085"/>
<stop offset="1" stop-color="#512D83"/>
</linearGradient>
<linearGradient id="paint4_linear_5110_177" x1="464.435" y1="8.30979" x2="464.435" y2="133.046" gradientUnits="userSpaceOnUse">
<stop stop-color="#14123D"/>
<stop offset="0.600962" stop-color="#7059A6"/>
<stop offset="0.855769" stop-color="#533085"/>
<stop offset="1" stop-color="#512D83"/>
</linearGradient>
</defs>
</svg>
