<svg xmlns="http://www.w3.org/2000/svg" fill="none" viewBox="30.23443143418467 0 200.55009823182712 199.272" style="max-height: 500px" width="200.55009823182712" height="199.272">
<circle fill="#F1A15C" r="99.0129" cy="99.0129" cx="130.416"/>
<path fill="#F7D77E" d="M201.748 30.3428C207.072 35.3999 216.654 47.9096 220.362 57.5142C203.371 59.5708 186.199 60.0878 169.101 60.2756C154.948 60.4332 134.94 60.8762 121.49 56.4522C104.988 51.0219 110.588 40.2612 123.449 35.0373C146.066 25.8526 201.748 30.3428 201.748 30.3428Z"/>
<path fill="#F7D77E" d="M225.743 72.2081C228.43 81.3296 229.376 88.7424 229.429 98.4807C218.896 100.507 209.202 101.766 198.554 99.1576C184.132 95.6217 181.491 81.478 196.407 75.5655C204.979 72.1687 216.67 71.2388 225.743 72.2104V72.2081Z"/>
<path fill="#F7D77E" d="M168.632 111.305C184.514 119.349 163.053 131.797 155.165 134.736C124.276 146.118 87.8797 146.732 55.6341 153.219C54.2521 153.324 48.704 154.907 48.704 154.907C48.704 154.907 41.7838 145.325 39.1221 137.873C37.32 132.827 34.8635 126.162 34.8635 124.831C58.261 119.614 83.2938 114.526 107.03 110.956C125.83 108.142 150.935 102.342 168.632 111.305Z" clip-rule="evenodd" fill-rule="evenodd"/>
<path fill="#F7D77E" d="M66.0499 72.6175C76.5859 72.1492 91.0451 73.7558 89.6933 87.6792C87.5067 110.144 47.3764 108.598 31.9357 110.192C31.3723 101.88 31.0318 93.2276 32.2607 84.964C32.7707 81.5349 32.5597 79.3556 35.9168 77.9574C42.5365 75.2006 57.3504 73.0509 64.6588 72.6149C65.1202 72.5871 65.5886 72.6358 66.0499 72.6149V72.6175Z" clip-rule="evenodd" fill-rule="evenodd"/>
<path fill="#F7D77E" d="M196.381 147.48C203.01 144.543 211.167 142.505 218.299 144.566C216.761 147.613 216.003 148.88 214.404 151.321L213.662 152.447C210.189 157.713 206.785 162.769 202.305 167.288C200.833 168.775 198.554 170.877 198.554 170.877C198.554 170.877 195.605 169.678 193.232 168.466C188.169 165.881 184.359 159.735 187.387 154.23C189.352 150.659 192.902 149.028 196.381 147.48Z" clip-rule="evenodd" fill-rule="evenodd"/>
<path fill="#F7D77E" d="M105.397 194.832C103.534 194.832 93.2541 190.9 91.4966 190.154C88.2945 188.795 82.579 186.131 79.8453 184.186C79.3769 183.852 78.2483 183.121 78.2483 183.121C78.2483 183.121 81.7118 179.17 84.0328 177.863C96.8596 170.642 112.142 180.197 105.397 194.832Z"/>
<path style="mix-blend-mode:multiply" fill-opacity="0.5" fill="#D5C8BA" d="M57.4872 31.9397C70.621 127.681 168.287 146.866 212.739 149.5C164.03 227.486 80.7384 195.5 57.4875 166.5C30.6287 133 14.6351 76.1229 57.4872 31.9397Z"/>
</svg>