<svg xmlns="http://www.w3.org/2000/svg" fill="none" viewBox="47.84099240506329 42.6359772 278.8860759493671 291.384" style="max-height: 500px" width="278.8860759493671" height="291.384">
<ellipse fill="#EE82CD" transform="rotate(90 186.914 188.023)" ry="137.028" rx="143.601" cy="188.023" cx="186.914"/>
<path fill="#ED47B9" d="M235.932 287H159.323C157.339 274.235 164.594 253.978 178.681 250.596C190.543 247.747 197.361 255.458 197.583 266.498L195.87 277.095C206.404 272.853 225.108 268.328 233.516 278.382C235.779 281.091 236.191 283.527 235.932 287Z"/>
<path fill="#ED47B9" d="M286.019 287.128C286.019 287.128 260.139 284.039 252.637 275.533C238.912 259.973 258.097 241.777 270.565 233.097C275.815 229.441 281.543 226.215 287.642 224.191C290.32 223.303 293.61 222.933 296.075 222.052C298.231 221.281 295.568 221.134 294.916 220.92C274.787 214.309 252.333 200.905 245.59 179.513C237.817 154.855 250.842 129.948 279.18 140.187C302.792 148.717 313.629 176.167 323.689 196.871C324.457 225.067 306.385 266.762 286.019 287.128Z"/>
<path fill="#ED47B9" d="M224.471 50.6549C227.352 58.1167 224.17 66.162 221.154 73.1039C214.142 89.2519 201.027 101.088 184.826 107.682C163.373 116.414 140.88 113.954 118.79 109.239C118.59 110.157 119.266 110.239 119.79 110.655C130.401 119.092 138.737 124.935 147.84 135.456C156.013 144.9 163.798 156.069 168.108 167.821C176.755 186.784 178.151 213.032 160.504 227.509C148.022 237.75 131.608 233.975 119.706 225.266C94.969 207.157 75.3239 174.855 56.1015 151.02C55.6346 150.441 55.4868 149.697 54.4957 149.763C72.7315 73.5026 147.846 26.64 224.471 50.6549Z"/>
<path style="mix-blend-mode:multiply" fill-opacity="0.5" fill="#D5BAD1" d="M296.942 103.369C156.72 112.681 121.785 245.153 113.442 309.368C10.942 231.868 49.2377 111.323 108.442 68.8685C157.431 33.7395 236.942 28.8685 296.942 103.369Z"/>
</svg>