<svg width="889" height="1957" viewBox="0 0 889 1957" fill="none" xmlns="http://www.w3.org/2000/svg">
<path d="M465.349 724.955C506.081 734.539 491.305 757.9 478.826 768.383L448.502 785.604L465.349 724.955Z" fill="#B1382A"/>
<path d="M176.973 917.065C51.5238 862.517 5.71612 732.462 0 678.532L108.943 687.517L190.182 783.731L178.577 917.752C231.772 940.516 303.999 971.425 178.577 917.757C178.041 917.528 177.506 917.297 176.973 917.065Z" fill="#ED9C6F"/>
<path d="M623.705 543.382C642.574 460.72 590.635 418.341 562.308 407.484L423.791 543.382C398.584 534.272 417.802 561.202 483.692 583.065C549.582 604.929 525.622 745.794 518.134 794.587L623.705 745.919C627.898 689.613 638.555 572.209 623.705 543.382Z" fill="#ED9C6F"/>
<mask id="mask0_920_403" style="mask-type:alpha" maskUnits="userSpaceOnUse" x="413" y="407" width="219" height="388">
<path d="M623.705 543.382C642.573 460.72 590.635 418.341 562.307 407.484L423.791 543.382C398.583 534.273 417.801 561.203 483.691 583.066C549.581 604.93 525.621 745.794 518.134 794.588L623.705 745.919C627.898 689.613 638.555 572.209 623.705 543.382Z" fill="#ED9C6F"/>
</mask>
<g mask="url(#mask0_920_403)">
<path d="M506.529 818.549V597.668L524.499 561.354C534.482 569.468 554.224 586.894 553.326 591.682L635.314 581.196L665.264 682.277L506.529 818.549Z" fill="#E28559"/>
</g>
<path d="M177.454 278.699C234.06 311.045 233.735 221.545 238.103 180.613L420.049 240.887C418.851 305.879 452.495 321.128 469.467 320.629C456.682 331.243 435.753 321.198 421.703 311.149C437.079 329.552 458.866 379.126 469.467 405.987L181.198 358.441C178.077 326.968 214.45 301.783 235.189 288.427C194.055 313.18 187.788 289.973 177.454 278.699Z" fill="#D9B587"/>
<path d="M288.27 323.998C296.506 323.998 288.27 212.809 288.27 212.809L401.705 256.611C401.705 256.611 393.843 322.126 403.952 328.865C414.06 335.604 435.399 342.717 435.399 342.717L572.795 412.351L522.254 535.52C536.63 560.079 495.798 613.64 473.585 637.35C475.981 764.338 458.735 799.454 451.497 783.731L224.626 542.259L134.776 367.426C134.776 367.426 280.033 323.998 288.27 323.998Z" fill="url(#paint0_linear_920_403)"/>
<path fill-rule="evenodd" clip-rule="evenodd" d="M359.998 607.092C352.999 592.739 348.487 576.322 346.46 565.558L351.374 564.633C353.341 575.084 357.739 591.05 364.492 604.9C367.868 611.824 371.787 618.122 376.21 622.928C380.637 627.74 385.434 630.912 390.571 631.9C413.983 636.402 430.381 640.537 435.71 642.059L434.337 646.867C429.184 645.395 412.936 641.293 389.626 636.81C383.082 635.552 377.391 631.596 372.531 626.314C367.666 621.028 363.498 614.269 359.998 607.092Z" fill="#D96E51"/>
<path d="M377.739 9.57718C396.195 3.82889 436.609 1.17968 450.615 36.5692C470.971 74.8078 514.696 152.785 526.747 158.783C517.136 156.478 500.082 150.801 490.75 143.044C503.815 165.791 509.442 208.073 455.5 248.381C441.929 256.629 430.543 294.026 440.64 310.521C453.26 331.14 293.464 105.549 343.133 71.0589L377.739 9.57718Z" fill="#F7E3A6"/>
<path d="M235.517 160.919C220.509 -5.28908 324.082 -10.8235 377.744 7.18533V56.8195C372.857 85.985 317.326 144.521 282.278 160.919L248.605 190.349C236.389 198.782 218.793 196.498 211.521 194.302C231.067 190.436 235.662 170.436 235.517 160.919Z" fill="#F7E3A6"/>
<mask id="mask1_920_403" style="mask-type:alpha" maskUnits="userSpaceOnUse" x="134" y="212" width="441" height="576">
<path d="M288.269 323.999C296.505 323.999 288.269 212.81 288.269 212.81L401.705 256.612C401.705 256.612 393.843 322.127 403.951 328.866C414.059 335.605 435.398 342.718 435.398 342.718L574.666 414.224L522.254 535.521C536.629 560.08 495.798 613.641 473.585 637.351C475.981 764.339 458.735 799.456 451.497 783.732L224.625 542.26L134.775 367.427C134.775 367.427 280.033 323.999 288.269 323.999Z" fill="url(#paint1_linear_920_403)"/>
</mask>
<g mask="url(#mask1_920_403)">
<path opacity="0.5" d="M256.072 203.825L427.162 236.021L470.589 304.157C470.589 304.157 667.51 360.314 382.611 434.066C97.7122 507.817 237.728 316.886 237.728 316.886L256.072 203.825Z" fill="#DD7C4F"/>
</g>
<path d="M443.323 216.584L452.683 150.32C452.683 150.32 452.683 67.2088 409.629 53.7313C366.576 40.2538 259.131 102.774 259.131 102.774L266.993 150.32C263.621 144.937 255.761 140.555 249.023 150.32C242.284 160.085 250.895 202.701 266.993 206.851C280.345 210.292 281.077 208.025 280.938 207.151L286.46 224.821C315.24 273.483 365.079 295.172 371.818 295.172C378.556 295.172 434.089 248.755 443.323 216.584Z" fill="#EC9B6E"/>
<g opacity="0.5" filter="url(#filter0_f_920_403)">
<path d="M417.427 205.322C417.427 220.622 399.66 233.025 377.743 233.025C355.827 233.025 338.06 220.622 338.06 205.322C338.06 190.021 355.827 177.618 377.743 177.618C399.66 177.618 417.427 190.021 417.427 205.322Z" fill="#E37952"/>
</g>
<path fill-rule="evenodd" clip-rule="evenodd" d="M347.024 250.442C347.743 249.604 349.005 249.506 349.844 250.225C351.089 251.292 353.066 252.195 355.65 252.895C358.201 253.586 361.176 254.034 364.269 254.3C370.455 254.831 376.905 254.611 380.932 254.245C382.032 254.145 383.005 254.955 383.105 256.055C383.205 257.155 382.394 258.128 381.294 258.228C377.085 258.611 370.395 258.84 363.927 258.285C360.692 258.008 357.463 257.53 354.604 256.756C351.778 255.991 349.141 254.891 347.241 253.262C346.402 252.543 346.305 251.281 347.024 250.442Z" fill="#D96E51"/>
<path fill-rule="evenodd" clip-rule="evenodd" d="M384.443 212.351C385.524 212.122 386.585 212.812 386.815 213.892C387.194 215.679 388.027 217.543 388.965 219.314C389.43 220.191 389.904 221.015 390.346 221.785L390.364 221.815C390.789 222.554 391.205 223.278 391.514 223.895C392.008 224.883 391.607 226.085 390.619 226.579C389.631 227.073 388.43 226.672 387.936 225.684C387.687 225.186 387.331 224.564 386.88 223.78L386.866 223.757C386.431 223 385.928 222.125 385.431 221.187C384.435 219.308 383.396 217.054 382.902 214.722C382.672 213.642 383.363 212.58 384.443 212.351ZM389.979 228.581C390.78 229.342 390.813 230.608 390.052 231.408L382.939 238.896C382.178 239.697 380.912 239.729 380.111 238.968C379.31 238.208 379.278 236.942 380.039 236.141L387.152 228.653C387.913 227.853 389.179 227.82 389.979 228.581Z" fill="#D96E51"/>
<path fill-rule="evenodd" clip-rule="evenodd" d="M187.448 371.465C187.904 370.162 189.33 369.475 190.634 369.932L265.203 396.031C296.737 398.597 316.471 417.069 322.554 426.326C323.312 427.48 322.991 429.03 321.838 429.788C320.684 430.546 319.134 430.226 318.375 429.072C312.999 420.89 294.462 403.318 264.489 400.99L264.164 400.965L188.982 374.651C187.679 374.195 186.992 372.769 187.448 371.465Z" fill="#D96E51"/>
<path fill-rule="evenodd" clip-rule="evenodd" d="M523.878 558.235L526.145 559.575C530.4 562.089 536.707 566.541 541.874 571.795C544.459 574.424 546.826 577.321 548.498 580.343C550.165 583.355 551.23 586.655 550.95 590.013L545.967 589.597C546.137 587.564 545.508 585.267 544.123 582.764C542.744 580.271 540.703 577.735 538.309 575.301C534.351 571.276 529.613 567.713 525.841 565.269L510.241 595.082L505.811 592.764L523.878 558.235Z" fill="#D96E51"/>
<path fill-rule="evenodd" clip-rule="evenodd" d="M504.891 391.919C504.633 390.563 503.324 389.672 501.968 389.93L424.356 404.702C392.79 402.57 370.539 417.917 363.152 426.172C362.231 427.2 362.319 428.781 363.348 429.702C364.377 430.622 365.957 430.535 366.878 429.506C373.407 422.21 394.341 407.576 424.328 409.712L424.653 409.735L502.903 394.842C504.259 394.584 505.15 393.275 504.891 391.919Z" fill="#D96E51"/>
<path fill-rule="evenodd" clip-rule="evenodd" d="M395.835 682.276H400.835V753.782H395.835V682.276Z" fill="#D96E51"/>
<path d="M226.398 357.318C276.315 489.722 407.694 760.145 467.594 760.145C475.182 764.163 480.485 766.456 485.082 762.501C490.12 753.363 492.979 748.575 490.333 754.53C488.628 758.366 486.911 760.928 485.082 762.501C478.716 774.046 468.872 792.532 462.255 805.07H260.092C215.791 702.616 134.302 480.862 162.755 413.474L226.398 357.318Z" fill="#C13E2D"/>
<path fill-rule="evenodd" clip-rule="evenodd" d="M244.678 508.087C247.424 507.79 249.89 509.775 250.186 512.521C257.644 581.552 293.992 649.6 336.064 703.039C357.068 729.718 379.401 752.631 400.075 770.082C420.844 787.612 439.616 799.356 453.483 804.081C456.097 804.972 457.494 807.813 456.603 810.427C455.713 813.04 452.872 814.437 450.258 813.547C434.654 808.23 414.757 795.56 393.625 777.723C372.399 759.807 349.6 736.399 328.207 709.225C285.484 654.958 247.976 585.169 240.244 513.595C239.948 510.849 241.933 508.383 244.678 508.087Z" fill="#B1382A"/>
<path fill-rule="evenodd" clip-rule="evenodd" d="M202.743 529.801C205.488 529.502 207.957 531.484 208.257 534.229C215.229 598.086 249.225 661.069 288.607 710.558C308.264 735.26 329.165 756.473 348.51 772.628C367.948 788.86 385.496 799.715 398.433 804.076C401.05 804.958 402.456 807.794 401.574 810.411C400.692 813.028 397.856 814.434 395.239 813.552C380.575 808.609 361.906 796.842 342.1 780.304C322.202 763.687 300.833 741.981 280.782 716.784C240.746 666.474 205.569 601.74 198.316 535.315C198.016 532.57 199.998 530.101 202.743 529.801Z" fill="#B1382A"/>
<path d="M372.504 1459.85C385.243 1426.96 302.941 1315.69 281.157 1245.34L453.149 1122.44C531.025 1186.39 514.419 1401.39 496.382 1500.89C481.418 1518.32 485.011 1683.82 488.678 1764.4C467.517 1747.64 443.019 1807.95 432.777 1828.61L385.828 1656.34C347.938 1605.46 349.63 1493.62 372.504 1459.85Z" fill="#E18356"/>
<mask id="mask2_920_403" style="mask-type:alpha" maskUnits="userSpaceOnUse" x="280" y="1132" width="232" height="708">
<path d="M372.167 1470.33C384.906 1437.44 302.604 1326.17 280.819 1255.82L452.811 1132.92C530.688 1196.87 514.082 1411.87 496.045 1511.38C481.08 1528.81 484.673 1694.31 488.34 1774.88C467.18 1758.13 442.682 1818.44 432.44 1839.09L385.49 1666.82C347.6 1615.94 349.292 1504.1 372.167 1470.33Z" fill="#E18356"/>
</mask>
<g mask="url(#mask2_920_403)">
<path d="M578.822 1313.47C550.07 1363.79 390.137 1344.92 313.765 1329.2L328.74 1165.97L518.173 1174.95L578.822 1313.47Z" fill="#DB774B"/>
</g>
<path d="M208.902 1942.05C193.628 1939.65 172.961 1903.11 186.439 1892.26L212.646 1840.97L302.869 1863.43C319.342 1879.6 312.603 1942.05 292.718 1956.65C278.617 1957.65 224.177 1944.44 208.902 1942.05Z" fill="#9D6F5A"/>
<path d="M282.634 1762.38C271.468 1711.95 338.001 1373.83 372.664 1211.07C362.199 1070.22 193.279 1109.62 142.628 1153.62L227.247 1452.23C137.642 1514.18 192.559 1702.72 227.247 1784.06C219.133 1822.29 195.009 1891.67 195.198 1904.83C195.387 1917.98 252.199 1935.28 282.643 1939.43C302.741 1935.84 300.418 1913.2 308.102 1896.75L282.634 1762.38Z" fill="#EC9B6E"/>
<mask id="mask3_920_403" style="mask-type:alpha" maskUnits="userSpaceOnUse" x="143" y="1112" width="231" height="828">
<path d="M283.188 1762.22C272.022 1711.79 338.556 1373.67 373.218 1210.92C362.754 1070.06 193.833 1109.46 143.182 1153.46L227.801 1452.07C138.196 1514.02 201.339 1687.21 236.027 1768.55C227.913 1806.78 195.563 1891.51 195.752 1904.67C195.942 1917.82 252.744 1935.5 283.188 1939.64C303.286 1936.05 300.972 1913.04 308.656 1896.59L283.188 1762.22Z" fill="#EC9B6E"/>
</mask>
<g mask="url(#mask3_920_403)">
<path d="M367.527 1317.24C286.65 1339.03 241.702 1344.9 164.171 1312.58L181.365 1128.06L375.013 1123.92L367.527 1317.24Z" fill="#E18356"/>
</g>
<path d="M435.024 1896.37C430.532 1896.37 430.157 1883.64 430.532 1877.28C506.655 1883.64 672.579 1888.79 669.008 1896.37C666.013 1902.74 661.646 1903.36 652.536 1906.86C638.684 1910.6 440.64 1896.37 435.024 1896.37Z" fill="#9D6F5A"/>
<path d="M477.328 803.574H302.495L200.665 1189.18C216.239 1237.1 425.29 1209.15 527.868 1189.18L477.328 803.574Z" fill="#F2DDC1"/>
<path d="M367.246 1214.84L434.649 803.573L461.977 803.573L543.491 1213.29C518.587 1237.38 415.618 1224.36 367.246 1214.84Z" fill="#FFEED8"/>
<path fill-rule="evenodd" clip-rule="evenodd" d="M327.844 1213.4L368.276 803.084L378.228 804.065L337.796 1214.38L327.844 1213.4Z" fill="#E8CDA8"/>
<path d="M561.937 1145.75L477.329 811.061C525.623 912.017 620.564 1113.93 613.975 1113.93C607.386 1113.93 576.538 1135.14 561.937 1145.75Z" fill="#FFEED8"/>
<path d="M118.946 722.332C118.946 698.672 37.9368 681.419 0.374512 679.422C1.53229 622.112 71.0831 475.336 109.206 402.242C109.573 401.538 110.39 401.405 111.405 401.531L171.733 382.025L187.083 662.058L118.946 722.332Z" fill="#ED9C6F"/>
<path d="M18.3448 604.78C69.2598 588.008 113.062 609.522 128.411 623.499L121.672 645.587C92.3213 618.332 36.3148 619.505 11.9805 623.499L18.3448 604.78Z" fill="url(#paint2_linear_920_403)"/>
<path d="M534.607 1178.32L442.511 803.573H475.456L569.049 1157.73L534.607 1178.32Z" fill="#F2DDC1"/>
<mask id="mask4_920_403" style="mask-type:alpha" maskUnits="userSpaceOnUse" x="0" y="382" width="188" height="341">
<path d="M118.945 722.333C118.945 698.672 37.9358 681.419 0.373535 679.422C1.53131 622.113 71.0821 475.337 109.205 402.242C109.572 401.538 110.389 401.405 111.404 401.531L171.732 382.026L187.082 662.058L118.945 722.333Z" fill="#ED9C6F"/>
</mask>
<g mask="url(#mask4_920_403)">
<path d="M169.965 465.138C105.915 473.215 63.1862 496.826 7.11182 451.286L97.1288 411.854L153.492 400.371L169.965 465.138Z" fill="#DF8154"/>
</g>
<path d="M472.103 790.096C467.021 801.999 358.385 799.855 304.702 797.295C279.293 807.375 237.143 827.533 271.819 827.533H481.071L472.103 790.096Z" fill="#AD6A42"/>
<path fill-rule="evenodd" clip-rule="evenodd" d="M472.772 782.16L484.24 830.033H271.819C267.409 830.033 264.017 829.718 261.583 829.061C259.338 828.456 256.965 827.295 256.334 824.85C255.726 822.492 257.141 820.379 258.428 818.951C259.854 817.366 261.927 815.736 264.335 814.119C273.956 807.656 291.067 800.015 303.78 794.972L304.282 794.773L304.821 794.798C331.631 796.077 372.151 797.25 406.582 796.62C423.808 796.304 439.44 795.538 451.049 794.121C456.866 793.411 461.571 792.549 464.93 791.535C466.613 791.026 467.86 790.508 468.711 790.01C469.132 789.763 469.411 789.547 469.589 789.375C469.765 789.205 469.804 789.113 469.803 789.114L472.772 782.16ZM305.123 799.818C292.492 804.851 276.14 812.213 267.123 818.269C264.841 819.802 263.163 821.164 262.143 822.296C261.545 822.961 261.328 823.37 261.247 823.568C261.438 823.708 261.891 823.966 262.885 824.234C264.685 824.719 267.56 825.033 271.819 825.033H477.901L470.626 794.662C469.415 795.292 467.974 795.838 466.375 796.321C462.61 797.458 457.575 798.361 451.654 799.084C439.787 800.533 423.952 801.302 406.673 801.619C372.326 802.248 331.998 801.09 305.123 799.818Z" fill="#F3DE9D"/>
<path d="M116.431 405.985H150.873C156.614 730.319 169.367 1383.33 174.459 1400.7C179.55 1418.07 160.856 1433.64 150.873 1439.26C124.368 1439.26 117.038 1483.3 116.431 1511.11V1518.63C116.376 1516.31 116.372 1513.79 116.431 1511.11V405.985Z" fill="#B1382A"/>
<path d="M160.057 1376.37L137.395 374.436L219.448 342.343C239.375 476.847 286.731 765.346 316.739 843.308C354.249 940.762 314.004 1067.57 316.739 1100.05C318.927 1126.04 281.183 1158.89 262.037 1172.07C255.395 1211.2 237.578 1288.93 219.448 1286.74C201.318 1284.55 172.3 1345.58 160.057 1376.37Z" fill="url(#paint3_linear_920_403)"/>
<path d="M95.4663 410.312L108.225 390.778C114.229 374.489 190.464 349.295 230.241 338.973L256.448 331.486C246.841 412.075 144.625 418.739 95.4663 410.312Z" fill="url(#paint4_linear_920_403)"/>
<path d="M108.194 391.012C119.55 374.789 160.906 341.744 235.482 339.348C226.871 364.681 189.359 410.479 108.194 391.012Z" fill="#F09562"/>
<path d="M382.236 64.5895C358.265 94.4787 302.469 150.255 266.554 147.293C226.123 107.984 293.135 -6.57461 382.236 64.5895Z" fill="#F7E3A6"/>
<path d="M374.375 18.8831L381.957 42.4686C428.659 9.89806 443.014 54.3239 451.955 79.5318C470.823 130.147 455.708 159.274 447.846 167.884C456.831 155.006 444.102 128.824 436.615 117.344C421.041 113.151 406.914 73.1674 401.798 53.6999C376.939 57.8929 381.957 103.492 389.444 129.698C371.474 117.344 367.98 81.0292 371.474 65.6799L368.381 39.8481C343.523 56.9196 341.14 106.612 346.007 124.457C320.09 72.0443 348.917 30.4887 374.375 18.8831Z" fill="#FAEBC0"/>
<path d="M266.344 50.329C253.759 65.1131 235.211 104.679 261.702 144.672C270.161 130.89 282.932 92.7268 266.344 50.329Z" fill="url(#paint5_linear_920_403)"/>
<path d="M290.946 87.6057C279.128 93.0971 256.728 112.034 261.681 143.85C270.702 137.814 289.185 118.114 290.946 87.6057Z" fill="url(#paint6_linear_920_403)"/>
<path d="M305.082 20.7663C289.784 28.3579 261.079 53.919 268.638 95.4308C280.253 87.2198 303.802 60.7914 305.082 20.7663Z" fill="url(#paint7_linear_920_403)"/>
<path d="M312.057 59.4291C300.599 59.7734 275.928 67.3216 268.907 94.7601C278.292 93.006 300.061 83.484 312.057 59.4291Z" fill="url(#paint8_linear_920_403)"/>
<path d="M336.946 13.4171C324.263 15.0795 297.717 26.2159 292.988 57.4627C303.211 54.4667 326.316 41.4633 336.946 13.4171Z" fill="url(#paint9_linear_920_403)"/>
<path d="M332.495 42.5031C324.294 39.9636 304.981 39.3181 293.342 57.0524C300.417 58.0895 318.153 56.6316 332.495 42.5031Z" fill="url(#paint10_linear_920_403)"/>
<path d="M493.762 74.9564C498.356 92.3291 498.018 132.772 459.916 155.563C458.365 140.677 462.963 103.715 493.762 74.9564Z" fill="url(#paint11_linear_920_403)"/>
<path d="M458.32 96.2362C465.99 105.546 477.116 130.309 460.26 154.886C455.144 146.241 447.592 122.407 458.32 96.2362Z" fill="url(#paint12_linear_920_403)"/>
<path d="M473.247 34.7913C482.981 47.2447 496.722 80.0586 473.814 111.687C467.402 100.189 458.312 68.7134 473.247 34.7913Z" fill="url(#paint13_linear_920_403)"/>
<path d="M451.966 64.276C461.393 69.1447 478.968 85.3096 473.858 111.02C466.725 105.804 452.361 89.1516 451.966 64.276Z" fill="url(#paint14_linear_920_403)"/>
<path d="M449.587 15.9165C459.508 22.3749 477.215 42.285 468.669 70.2583C461.333 63.6699 447.246 43.5778 449.587 15.9165Z" fill="url(#paint15_linear_920_403)"/>
<path d="M441.673 41.9747C449.535 43.1341 465.914 50.3171 468.539 69.7743C462.218 67.8111 447.996 59.5027 441.673 41.9747Z" fill="url(#paint16_linear_920_403)"/>
<path fill-rule="evenodd" clip-rule="evenodd" d="M398.73 159.641C399.561 160.37 399.643 161.633 398.915 162.464C398.811 162.582 398.707 162.701 398.6 162.822C395.481 166.375 391.203 171.249 388.011 177.188C384.723 183.306 382.67 190.409 384.2 198.197C384.413 199.281 383.707 200.332 382.623 200.545C381.539 200.758 380.488 200.052 380.275 198.968C378.51 189.984 380.924 181.925 384.487 175.295C387.9 168.944 392.443 163.772 395.542 160.243C395.666 160.101 395.788 159.962 395.908 159.826C396.636 158.996 397.9 158.913 398.73 159.641Z" fill="#D96E51"/>
<path d="M263.186 1170.09C268.577 1142.83 234.234 799.081 216.389 630.612C228.069 688.415 288.144 967.425 316.721 1099.7C313.127 1138.04 279.533 1162.6 263.186 1170.09Z" fill="url(#paint17_linear_920_403)"/>
<path d="M311.106 151.388L367.262 161.145C367.262 161.145 366.513 154.733 363.144 151.388C359.775 148.042 324.85 148.135 311.106 151.388Z" fill="#402020"/>
<path d="M474.023 587.695C475.095 589.631 471.439 593.704 465.857 596.794C460.275 599.884 454.881 600.819 453.81 598.884C452.739 596.948 456.395 592.874 461.977 589.785C467.559 586.695 472.952 585.759 474.023 587.695Z" fill="#402020"/>
<path fill-rule="evenodd" clip-rule="evenodd" d="M317.603 845.992L322.576 846.512L303.12 1032.47C302.775 1052.74 295.177 1080.14 286.852 1101.41C282.675 1112.08 278.257 1121.36 274.379 1127.52C272.466 1130.56 270.559 1133.04 268.747 1134.52C267.852 1135.25 266.743 1135.93 265.478 1136.1C264.605 1136.22 263.773 1136.08 263.036 1135.72C262.839 1136.02 262.6 1136.42 262.323 1136.95C261.023 1139.43 259.444 1143.5 257.616 1148.82C255.378 1155.34 252.856 1163.44 250.101 1172.3C248.365 1177.88 246.537 1183.76 244.629 1189.73C239.718 1205.08 234.301 1220.92 228.697 1233.21C225.898 1239.35 223.006 1244.71 220.046 1248.71C217.316 1252.4 214.207 1255.37 210.69 1256.27C202.92 1261.84 191.285 1271.83 181.264 1284.01C171.054 1296.41 162.784 1310.76 161.61 1324.79C161.856 1340.08 161.29 1363.09 158.78 1382.56C157.524 1392.31 155.765 1401.31 153.315 1408.05C152.093 1411.41 150.649 1414.35 148.909 1416.56C147.212 1418.71 145.063 1420.36 142.399 1420.75C138.688 1421.82 133.028 1424.34 128.135 1428.4C123.186 1432.51 119.211 1438.04 118.544 1445.11L113.566 1444.64C114.397 1435.84 119.344 1429.2 124.94 1424.55C130.52 1419.92 136.93 1417.09 141.21 1415.89L141.397 1415.84L141.589 1415.81C142.57 1415.7 143.713 1415.07 144.985 1413.46C146.26 1411.84 147.483 1409.46 148.616 1406.34C150.878 1400.12 152.581 1391.55 153.821 1381.92C156.296 1362.72 156.857 1339.9 156.609 1324.74L156.607 1324.62L156.617 1324.5C157.876 1308.92 166.934 1293.55 177.404 1280.83C187.917 1268.06 200.122 1257.63 208.204 1251.91L208.649 1251.59L209.184 1251.49C210.971 1251.15 213.289 1249.43 216.028 1245.74C218.685 1242.15 221.409 1237.15 224.147 1231.14C229.618 1219.14 234.959 1203.54 239.867 1188.2C241.742 1182.34 243.557 1176.51 245.289 1170.94C248.066 1162.01 250.63 1153.77 252.887 1147.2C254.715 1141.88 256.4 1137.48 257.896 1134.63C258.61 1133.27 259.439 1131.94 260.422 1131.12C260.931 1130.7 261.738 1130.19 262.79 1130.17C263.74 1130.15 264.509 1130.53 265.072 1131.01C265.199 1130.94 265.371 1130.82 265.589 1130.64C266.746 1129.7 268.301 1127.79 270.148 1124.85C273.788 1119.07 278.074 1110.12 282.196 1099.59C290.453 1078.5 297.817 1051.68 298.123 1032.28L298.124 1032.17L317.603 845.992Z" fill="url(#paint18_linear_920_403)"/>
<path d="M358.433 186.371C353.066 179.633 336.419 168.177 312.759 176.263C316.877 185.498 331.777 200.448 358.433 186.371Z" fill="#FFE8E8"/>
<mask id="mask5_920_403" style="mask-type:alpha" maskUnits="userSpaceOnUse" x="312" y="174" width="47" height="19">
<path d="M358.807 186.585C353.441 179.847 336.419 168.926 312.759 177.012C316.877 186.247 332.151 200.662 358.807 186.585Z" fill="white"/>
</mask>
<g mask="url(#mask5_920_403)">
<path d="M351.695 186.602C351.695 192.805 346.163 197.833 339.34 197.833C332.517 197.833 326.986 192.805 326.986 186.602C326.986 180.399 332.517 175.371 339.34 175.371C346.163 175.371 351.695 180.399 351.695 186.602Z" fill="#88B5CC"/>
</g>
<path d="M314.631 171.252C342.335 166.385 361.053 179.489 358.432 186.211C350.571 178.365 324.998 176.47 312.278 177.819C309.08 176.739 313.298 172.751 314.631 171.252Z" fill="#402020"/>
<path fill-rule="evenodd" clip-rule="evenodd" d="M353.96 172.657C354.811 173.249 355.41 173.666 355.957 173.94C356.945 174.434 357.346 175.635 356.852 176.623C356.358 177.611 355.157 178.012 354.169 177.518C353.341 177.104 352.384 176.437 351.425 175.768C351.115 175.553 350.806 175.337 350.5 175.129C349.146 174.21 347.55 173.209 345.551 172.327C341.59 170.579 335.867 169.219 327.217 170.228C326.12 170.356 325.127 169.57 324.999 168.473C324.871 167.376 325.656 166.383 326.753 166.255C336.073 165.168 342.518 166.616 347.166 168.667C349.474 169.686 351.293 170.833 352.747 171.82C353.205 172.131 353.605 172.41 353.96 172.657Z" fill="#D96E51"/>
<path d="M402.776 190.118C407.408 183.38 421.78 171.924 442.207 180.01C438.652 189.245 425.788 204.195 402.776 190.118Z" fill="#FFE8E8"/>
<mask id="mask6_920_403" style="mask-type:alpha" maskUnits="userSpaceOnUse" x="402" y="177" width="41" height="20">
<path d="M402.452 190.331C407.085 183.593 421.78 172.672 442.207 180.759C438.651 189.993 425.464 204.408 402.452 190.331Z" fill="white"/>
</mask>
<g mask="url(#mask6_920_403)">
<path d="M408.593 190.348C408.593 196.551 413.368 201.579 419.259 201.579C425.15 201.579 429.925 196.551 429.925 190.348C429.925 184.145 425.15 179.117 419.259 179.117C413.368 179.117 408.593 184.145 408.593 190.348Z" fill="#88B5CC"/>
</g>
<path d="M440.593 174.998C416.675 170.131 400.515 183.234 402.778 189.957C409.565 182.111 431.642 180.215 442.624 181.564C445.385 180.485 441.743 176.497 440.593 174.998Z" fill="#402020"/>
<path d="M447.644 149.107C441.085 149.831 417.718 157.253 405.916 161.194C402.864 157.709 405.807 153.204 407.66 151.388C415.608 146.832 440.798 148.673 447.644 149.107C448.241 149.041 448.699 149.031 448.996 149.084C449.835 149.233 449.235 149.208 447.644 149.107Z" fill="#402020"/>
<path d="M664.173 1877.65C636.02 1877.65 545.372 1810.27 503.567 1776.57L456.396 1732.77C454.149 1751.49 445.913 1794.92 430.938 1818.88C415.963 1842.84 424.698 1871.29 430.938 1882.52C451.529 1877.65 559.349 1895.62 564.964 1895.62C570.58 1895.62 642.834 1896.75 656.686 1895.62C667.767 1894.73 666.295 1883.27 664.173 1877.65Z" fill="#E18356"/>
<path fill-rule="evenodd" clip-rule="evenodd" d="M259.264 161.454C259.044 161.956 258.885 162.61 258.808 163.256C258.676 164.353 257.68 165.135 256.584 165.004C255.487 164.872 254.705 163.876 254.836 162.78C254.946 161.866 255.18 160.804 255.603 159.844C256.004 158.933 256.714 157.796 257.962 157.223C259.367 156.578 260.846 156.903 262.137 157.746C263.372 158.552 264.631 159.934 265.963 161.893C266.584 162.807 266.347 164.051 265.434 164.672C264.521 165.293 263.277 165.056 262.656 164.143C261.442 162.359 260.539 161.479 259.951 161.096C259.78 160.984 259.663 160.93 259.591 160.904C259.526 160.976 259.405 161.134 259.264 161.454ZM259.498 160.885C259.497 160.883 259.508 160.882 259.532 160.887C259.51 160.889 259.498 160.887 259.498 160.885ZM256.78 174.87C257.885 174.847 258.799 175.724 258.822 176.828C258.938 182.43 262.278 194.256 274.236 197.789C275.295 198.102 275.9 199.214 275.587 200.273C275.274 201.333 274.161 201.938 273.102 201.625C258.704 197.371 254.955 183.289 254.822 176.912C254.799 175.807 255.676 174.893 256.78 174.87Z" fill="#D96E51"/>
<path d="M487.811 1742.13C458.161 1764.29 427.412 1768.09 415.931 1767.21L419.675 1780.32C436.447 1785.11 472.836 1767.71 488.56 1758.6L487.811 1742.13Z" fill="#9D6F5A"/>
<path d="M303.618 812.703L310.5 805.821L317.383 812.703L310.5 819.586L303.618 812.703Z" fill="#F3DE9D"/>
<path d="M326.081 812.703L332.963 805.821L339.846 812.703L332.963 819.586L326.081 812.703Z" fill="#F3DE9D"/>
<path d="M348.542 812.703L355.425 805.821L362.308 812.703L355.425 819.586L348.542 812.703Z" fill="#F3DE9D"/>
<path d="M371.006 812.703L377.889 805.821L384.771 812.703L377.889 819.586L371.006 812.703Z" fill="#F3DE9D"/>
<path d="M393.469 812.703L400.352 805.821L407.234 812.703L400.352 819.586L393.469 812.703Z" fill="#F3DE9D"/>
<path d="M415.931 812.703L422.814 805.821L429.697 812.703L422.814 819.586L415.931 812.703Z" fill="#F3DE9D"/>
<path d="M439.142 811.205L446.024 804.322L452.907 811.205L446.024 818.088L439.142 811.205Z" fill="#F3DE9D"/>
<path d="M461.604 808.959L468.487 802.076L475.37 808.959L468.487 815.842L461.604 808.959Z" fill="#F3DE9D"/>
<path d="M647.458 849.359C700.095 842.64 835.181 718.39 885.734 667.837H797.715L747.785 711.701C720.409 730.211 661.455 721.407 594.259 711.701C527.063 701.995 514.591 773.358 519.257 800.579C542.589 811.623 594.821 856.079 647.458 849.359Z" fill="#ED9C6F"/>
<path d="M366.513 1469.59C327.278 1535.78 382.86 1695.83 415.556 1767.59C426.937 1769.39 447.253 1763.1 455.988 1759.73L432.402 1532.48L366.513 1469.59Z" fill="#F3DF9E"/>
<path d="M430.902 1532.48L479.196 1478.95C482.909 1469.56 500.529 1464.85 504.077 1449.77C504.227 1440.23 504.345 1437.22 504.654 1442.63C504.804 1445.25 504.584 1447.62 504.077 1449.77C503.5 1486.47 502.443 1619.79 488.181 1742.51C479.196 1748 456.509 1761.67 449.621 1761.97L430.902 1532.48Z" fill="#E3B67E"/>
<path d="M255.32 1527.99L250.454 1767.96H220.506C153.418 1617.31 178.325 1508.15 202.535 1472.58L255.32 1527.99Z" fill="#E3B67E"/>
<path d="M551.454 1813.26C555.048 1831.23 486.562 1869.67 451.87 1886.64L473.958 1893C491.629 1887.91 543.966 1845.71 567.926 1825.24L551.454 1813.26Z" fill="#9D6F5A"/>
<g clip-path="url(#clip0_920_403)">
<path d="M737.872 653.075C730.085 673.141 729.885 710.604 730.759 726.827L773.436 693.133C763.952 687.143 747.829 670.745 759.21 653.075C770.591 635.405 763.952 626.744 759.21 624.622C755.342 625.745 745.659 633.008 737.872 653.075Z" fill="#E18356"/>
<path fill-rule="evenodd" clip-rule="evenodd" d="M635.764 462.564L828.638 545.619C831.304 546.767 832.672 550.204 831.524 552.87C830.26 555.804 826.939 556.904 824.273 555.756L631.399 472.701C628.465 471.438 627.25 468.384 628.513 465.45C629.661 462.784 632.83 461.301 635.764 462.564Z" fill="url(#paint19_linear_920_403)"/>
<path d="M636.224 461.497L829.097 544.551C830.696 545.24 831.955 546.73 832.562 548.257C833.17 549.783 833.013 551.611 832.323 553.214C831.633 554.817 830.409 556.185 828.886 556.795C827.359 557.402 825.416 557.513 823.813 556.823L630.939 473.768C629.34 473.08 628.082 471.59 627.474 470.063C626.866 468.536 626.755 466.593 627.446 464.99C628.136 463.388 629.624 462.133 631.151 461.525C632.678 460.917 634.621 460.807 636.224 461.497ZM828.292 546.422L635.418 463.367C634.351 462.908 633.053 462.984 631.909 463.439C630.766 463.894 629.77 464.731 629.311 465.798C628.851 466.865 628.923 468.162 629.382 469.307C629.838 470.451 630.674 471.446 631.742 471.906L824.615 554.96C825.682 555.42 826.978 555.348 828.124 554.889C829.268 554.433 829.995 553.481 830.455 552.414C830.914 551.347 831.106 550.164 830.651 549.021C830.196 547.877 829.359 546.882 828.292 546.422Z" fill="url(#paint20_linear_920_403)"/>
<path fill-rule="evenodd" clip-rule="evenodd" d="M724.106 476.259L639.557 672.602C638.753 674.468 636.58 675.115 634.709 674.309C632.842 673.505 631.814 671.48 632.618 669.613L717.167 473.27C717.971 471.404 720.258 470.493 722.129 471.299C723.996 472.103 724.91 474.392 724.106 476.259Z" fill="url(#paint21_linear_920_403)"/>
<path d="M725.174 476.718L640.625 673.061C640.165 674.129 639.174 674.967 638.026 675.421C636.883 675.876 635.585 675.952 634.25 675.377C633.182 674.917 632.344 673.926 631.891 672.778C631.435 671.635 631.359 670.337 631.819 669.269L716.368 472.926C716.943 471.591 717.938 470.755 719.082 470.299C720.225 469.844 721.408 470.036 722.475 470.496C723.81 471.071 724.762 471.798 725.217 472.942C725.673 474.085 725.749 475.383 725.174 476.718ZM638.492 672.138L723.039 475.799C723.383 475 723.346 474.349 723.307 473.702C722.891 473.205 722.469 472.711 721.67 472.366C721.138 472.137 720.219 472.059 719.842 472.209C719.077 472.51 718.583 472.932 718.238 473.732L633.69 670.075C633.461 670.607 633.498 671.257 633.801 672.018C633.838 672.669 634.524 673.277 635.055 673.506C635.855 673.85 636.506 673.813 637.266 673.511C637.763 673.094 638.261 672.674 638.49 672.142L638.492 672.138Z" fill="url(#paint22_linear_920_403)"/>
<path fill-rule="evenodd" clip-rule="evenodd" d="M703.871 468.175L619.782 663.451C618.863 665.586 616.575 666.496 614.441 665.577C612.306 664.658 611.396 662.37 612.315 660.236L696.404 464.96C697.323 462.825 699.726 461.647 701.86 462.566C703.995 463.486 704.79 466.041 703.871 468.175Z" fill="url(#paint23_linear_920_403)"/>
<path d="M704.938 468.635L620.849 663.91C620.274 665.245 619.279 666.082 618.021 666.801C616.61 667.141 615.312 667.217 613.977 666.642C612.642 666.067 611.804 665.076 611.082 663.813C610.742 662.402 610.666 661.104 611.24 659.772L695.329 464.497C695.904 463.162 697.012 462.061 698.156 461.606C699.568 461.266 700.866 461.19 702.201 461.765C703.536 462.34 704.374 463.331 705.095 464.594C705.551 465.738 705.511 467.303 704.938 468.635ZM618.982 663.107L703.071 467.831C703.416 467.031 703.492 466.117 703.191 465.352C702.884 464.59 702.2 463.978 701.401 463.633C700.601 463.289 699.686 463.213 698.922 463.514C698.157 463.815 697.547 464.504 697.203 465.304L613.114 660.58C612.77 661.379 612.693 662.294 612.994 663.058C613.299 663.825 613.985 664.433 614.785 664.777C615.584 665.121 616.499 665.198 617.263 664.897C618.024 664.594 618.638 663.906 618.982 663.107Z" fill="url(#paint24_linear_920_403)"/>
<path fill-rule="evenodd" clip-rule="evenodd" d="M764.655 493.719L680.106 690.062C679.302 691.929 677.392 692.689 675.258 691.77C673.391 690.966 672.631 689.056 673.434 687.19L757.983 490.847C758.787 488.98 760.811 487.956 762.677 488.76C764.812 489.679 765.458 491.853 764.655 493.719Z" fill="url(#paint25_linear_920_403)"/>
<path d="M765.722 494.179L681.173 690.522C680.713 691.589 679.718 692.426 678.574 692.881C677.431 693.336 676.133 693.412 674.798 692.837C673.73 692.378 672.892 691.387 672.438 690.239C671.983 689.095 671.907 687.797 672.367 686.73L756.916 490.387C757.49 489.052 758.486 488.215 759.629 487.76C760.773 487.305 761.956 487.497 763.023 487.956C764.358 488.531 765.31 489.259 765.765 490.402C766.22 491.546 766.296 492.844 765.722 494.179ZM679.308 689.714L763.855 493.375C764.199 492.576 764.162 491.925 763.859 491.164C763.443 490.667 763.021 490.173 762.221 489.829C761.69 489.6 761.039 489.637 760.393 489.672C759.629 489.973 759.134 490.395 758.79 491.194L674.241 687.537C674.012 688.069 674.05 688.72 674.352 689.48C674.653 690.245 675.075 690.74 675.607 690.968C676.406 691.313 677.057 691.276 677.818 690.973C678.583 690.672 679.077 690.25 679.306 689.718L679.308 689.714Z" fill="url(#paint26_linear_920_403)"/>
<path fill-rule="evenodd" clip-rule="evenodd" d="M744.688 485.751L660.598 681.027C659.679 683.162 657.124 683.957 654.989 683.037C652.855 682.118 651.944 679.831 652.864 677.696L736.953 482.421C737.872 480.286 740.275 479.108 742.409 480.027C744.544 480.946 745.607 483.617 744.688 485.751Z" fill="url(#paint27_linear_920_403)"/>
<path d="M745.486 486.096L661.397 681.372C660.822 682.707 659.831 683.545 658.57 684.262C657.426 684.718 655.86 684.678 654.525 684.103C653.19 683.528 652.352 682.537 651.898 681.39C651.558 679.978 651.219 678.566 651.792 677.235L735.881 481.96C736.456 480.625 737.829 479.638 738.972 479.182C740.116 478.727 741.414 478.651 742.749 479.226C744.084 479.801 745.186 480.906 745.644 482.055C746.099 483.199 746.06 484.765 745.486 486.096ZM659.53 680.568L743.62 485.292C743.964 484.493 744.04 483.578 743.739 482.813C743.433 482.051 742.749 481.439 741.949 481.095C741.15 480.75 740.499 480.787 739.738 481.09C738.973 481.391 738.364 482.081 738.019 482.88L653.93 678.156C653.586 678.956 653.509 679.87 653.811 680.635C654.112 681.399 654.534 681.894 655.333 682.238C656.133 682.583 657.047 682.659 657.812 682.358C658.572 682.055 659.186 681.367 659.53 680.568Z" fill="url(#paint28_linear_920_403)"/>
<path fill-rule="evenodd" clip-rule="evenodd" d="M785.236 503.212L701.147 698.488C700.228 700.623 697.94 701.533 695.806 700.614C693.671 699.695 692.493 697.292 693.412 695.157L777.501 499.882C778.42 497.747 781.091 496.684 783.225 497.603C785.36 498.523 786.155 501.078 785.236 503.212Z" fill="url(#paint29_linear_920_403)"/>
<path d="M786.035 503.557L701.946 698.832C701.371 700.168 700.376 701.004 699.119 701.723C697.975 702.178 696.677 702.254 695.342 701.68C694.007 701.105 692.905 700 692.447 698.85C692.108 697.439 692.032 696.141 692.605 694.81L776.694 499.534C777.269 498.199 778.374 497.097 779.521 496.643C780.665 496.188 782.231 496.227 783.566 496.802C784.901 497.377 785.739 498.368 786.193 499.516C786.648 500.66 786.609 502.226 786.035 503.557ZM700.08 698.029L784.169 502.753C784.513 501.953 784.589 501.039 784.288 500.274C783.986 499.513 783.565 499.015 782.766 498.671C781.966 498.326 781.052 498.25 780.287 498.551C779.526 498.854 778.913 499.542 778.568 500.341L694.479 695.617C694.135 696.417 694.059 697.331 694.36 698.096C694.665 698.862 695.35 699.47 696.15 699.814C696.949 700.159 697.6 700.122 698.361 699.819C699.125 699.518 699.735 698.828 700.08 698.029Z" fill="url(#paint30_linear_920_403)"/>
<path fill-rule="evenodd" clip-rule="evenodd" d="M858.364 492.013C858.364 492.013 821.003 462.013 806.892 506.534C780.049 590.162 813.66 718.479 669.601 656.445C525.543 594.411 641.864 530.653 684.444 453.801C707.093 412.957 659.623 406.432 659.623 406.432L659.718 417.225C693.795 428.421 646.138 484.744 614.936 510.206C589.46 531.173 570.951 560.201 565.867 589.637C558.203 633.139 587.494 676.742 651.107 699.392C711.275 730.044 763.348 721.478 789.687 686.017C807.579 662.097 815.682 628.588 813.677 595.787C810.735 555.622 818.907 482.296 850.457 499.36L858.364 492.013Z" fill="url(#paint31_linear_920_403)"/>
<path d="M856.684 492.239C850.969 487.882 820.152 467.651 807.688 506.873C801.054 527.42 798.345 550.6 795.333 573.024C792.351 598.304 789.181 622.555 781.256 640.959C767.357 673.237 738.768 687.49 669.139 657.507C599.51 627.523 590.221 596.959 604.12 564.681C612.047 546.273 627.756 527.422 643.803 507.773C658.287 490.293 673.001 472.278 683.637 453.454C703.575 417.451 667.703 408.96 660.609 407.805L660.709 416.387C663.111 417.421 665.395 418.722 667.032 420.058C672.097 424.451 673.499 430.746 671.844 438.255C670.192 445.765 665.98 454.072 660.092 462.606C648.352 480.319 630.168 499.053 615.502 511.08C602.823 521.433 591.705 534.036 583.251 547.791C575.029 561.01 569.476 575.379 566.666 589.981C562.965 611.791 568.651 633.843 583.679 653.283C597.874 671.73 620.766 687.597 651.45 698.597L651.717 698.712C680.793 713.445 707.783 719.059 731.207 716.812C755.391 714.261 775.585 703.349 788.62 685.558C797.565 673.598 803.921 659.575 807.875 644.517C812.059 628.924 813.844 612.302 812.385 595.861C811.313 577.057 812.157 550.856 816.962 530.157C819.384 520.131 822.523 511.366 826.846 505.002C831.168 498.641 836.433 495.217 843.373 495.993C845.47 496.261 847.718 496.916 850.385 498.065L856.688 492.24L856.684 492.239ZM805.71 506.339C820.511 460.215 858.71 491.211 858.71 491.211L859.662 491.938L850.529 500.657L849.993 500.426C847.442 499.01 845.308 498.091 843.097 498.087C837.072 497.388 832.3 500.394 828.475 506.338C824.382 512.166 821.356 520.667 819.05 530.426C814.248 551.127 813.248 576.943 814.588 595.862C815.664 612.456 814.147 629.193 809.849 645.05C805.78 660.376 799.309 674.667 790.365 686.623C776.718 705.098 756.296 716.541 731.312 718.748C707.892 720.997 680.251 715.42 650.645 700.454C619.698 689.34 596.651 673.095 582.189 654.533C566.624 634.865 560.904 612.164 564.682 589.44C567.224 574.722 573.16 560.2 581.496 546.717C590.063 532.698 601.451 520.207 614.244 509.591C628.909 497.563 646.714 478.984 658.718 461.384C664.223 453.003 668.32 444.963 669.742 437.985C671.165 431.006 670.067 425.478 665.689 421.692C664.167 420.089 662.032 419.17 659.251 418.289L658.451 417.945L658.514 405.32L659.696 405.512C659.964 405.627 708.731 412.08 685.392 454.528C674.758 473.347 659.928 491.63 645.445 509.11C629.392 528.761 613.802 547.347 605.991 565.486C592.551 596.697 601.921 626.349 669.947 655.642C737.973 684.935 765.953 671.368 779.393 640.157C787.205 622.017 790.259 598.033 793.505 572.867C796.252 550.333 799.077 526.881 805.71 506.339Z" fill="url(#paint32_linear_920_403)"/>
<path fill-rule="evenodd" clip-rule="evenodd" d="M854.138 488.611C845.336 484.821 835.147 488.655 831.357 497.457C827.566 506.259 831.668 516.564 840.47 520.354C849.272 524.144 859.309 519.928 863.099 511.126C866.889 502.324 862.941 492.402 854.138 488.611Z" fill="url(#paint33_linear_920_403)"/>
<path d="M853.793 489.41C849.524 487.572 845.102 487.563 841.167 489.351C837.353 490.87 834.14 493.917 832.417 497.918C830.579 502.187 830.57 506.609 832.091 510.429C833.609 514.243 836.656 517.456 840.925 519.294C844.926 521.017 849.348 521.026 853.168 519.505C857.25 518.103 860.463 515.056 862.301 510.786C864.024 506.785 864.033 502.363 862.245 498.428C860.842 494.346 857.795 491.133 853.793 489.41ZM840.407 487.441C844.987 485.618 849.792 485.475 854.593 487.542C859.126 489.494 862.591 493.199 864.147 497.664C866.085 501.977 866.114 507.05 864.162 511.583C862.094 516.384 858.504 519.581 853.924 521.404C849.726 523.075 844.653 523.103 840.12 521.151C835.32 519.084 832.122 515.494 830.184 511.181C828.629 506.716 828.485 501.911 830.552 497.11C832.504 492.577 836.209 489.112 840.407 487.441Z" fill="url(#paint34_linear_920_403)"/>
<path fill-rule="evenodd" clip-rule="evenodd" d="M705.074 455.094C709.343 456.932 711.43 461.626 709.592 465.895C707.753 470.164 702.791 472.136 698.526 470.299C694.261 468.463 692.548 463.617 694.386 459.347C696.224 455.078 700.805 453.255 705.074 455.094Z" fill="url(#paint35_linear_920_403)"/>
<path d="M705.533 454.026C707.935 455.061 709.606 457.046 710.634 459.071C711.545 461.358 711.429 463.839 710.394 466.241C709.36 468.644 707.643 470.43 705.35 471.343C703.062 472.253 700.582 472.137 698.179 471.103C695.777 470.068 693.987 468.35 693.078 466.058C692.432 463.884 692.283 461.29 693.318 458.888C694.352 456.486 696.337 454.814 698.247 454.054C700.535 453.144 703.129 452.996 705.531 454.03L705.533 454.026ZM708.728 459.833C707.853 458.191 706.598 456.703 704.731 455.899C702.864 455.095 700.917 455.204 699.127 455.698C697.484 456.574 695.996 457.828 695.192 459.695C694.389 461.562 694.5 463.505 694.992 465.3C695.867 466.942 697.122 468.43 698.989 469.234C700.856 470.038 702.803 469.928 704.593 469.434C706.236 468.559 707.724 467.304 708.528 465.437C709.331 463.571 709.222 461.624 708.728 459.833Z" fill="url(#paint36_linear_920_403)"/>
<path fill-rule="evenodd" clip-rule="evenodd" d="M725.347 463.824C729.616 465.662 731.703 470.356 729.865 474.626C728.027 478.895 723.065 480.866 718.8 479.03C714.534 477.193 712.821 472.347 714.659 468.078C716.498 463.809 721.078 461.986 725.347 463.824Z" fill="url(#paint37_linear_920_403)"/>
<path d="M725.808 462.757C728.21 463.791 729.881 465.776 730.909 467.801C731.82 470.089 731.704 472.569 730.669 474.972C729.635 477.374 727.918 479.16 725.625 480.073C723.337 480.983 720.857 480.868 718.454 479.833C716.052 478.799 714.262 477.08 713.621 474.904C712.71 472.616 712.562 470.022 713.597 467.62C714.631 465.218 716.616 463.546 718.79 462.9C720.813 461.876 723.408 461.728 725.806 462.761L725.808 462.757ZM729.003 468.563C728.128 466.921 726.873 465.433 725.006 464.629C723.139 463.825 721.192 463.934 719.401 464.428C717.759 465.304 716.271 466.559 715.467 468.425C714.664 470.292 714.774 472.235 715.267 474.03C716.142 475.672 717.397 477.16 719.264 477.964C721.131 478.768 723.078 478.659 724.868 478.165C726.511 477.289 727.999 476.034 728.802 474.168C729.606 472.301 729.497 470.354 729.003 468.563Z" fill="url(#paint38_linear_920_403)"/>
<path fill-rule="evenodd" clip-rule="evenodd" d="M745.626 472.557C749.895 474.395 751.982 479.089 750.144 483.358C748.306 487.627 743.344 489.599 739.078 487.762C735.077 486.039 733.1 481.08 734.938 476.81C736.777 472.541 741.625 470.834 745.626 472.557Z" fill="url(#paint39_linear_920_403)"/>
<path d="M746.086 471.489C748.488 472.524 750.163 474.51 751.187 476.534C752.097 478.821 751.982 481.302 750.947 483.704C749.913 486.107 748.196 487.893 745.903 488.806C743.615 489.716 741.135 489.6 738.732 488.566C736.598 487.647 734.54 485.813 733.899 483.637C732.988 481.349 732.84 478.755 733.875 476.353C734.909 473.95 736.894 472.279 739.068 471.633C741.091 470.609 743.949 470.574 746.084 471.493L746.086 471.489ZM749.277 477.294C748.669 475.767 747.147 474.164 745.28 473.36C743.413 472.556 741.466 472.665 739.939 473.273C738.029 474.033 736.541 475.288 735.737 477.155C734.934 479.021 735.045 480.965 735.805 482.875C736.412 484.402 737.667 485.89 739.538 486.695C741.408 487.501 743.615 487.503 745.142 486.896C747.052 486.135 748.273 484.765 749.076 482.899C749.88 481.032 750.039 479.2 749.277 477.294Z" fill="url(#paint40_linear_920_403)"/>
<path fill-rule="evenodd" clip-rule="evenodd" d="M765.9 481.287C770.169 483.125 772.256 487.819 770.417 492.089C768.579 496.358 763.617 498.329 759.352 496.493C755.35 494.77 753.373 489.81 755.212 485.541C757.05 481.272 761.898 479.564 765.9 481.287Z" fill="url(#paint41_linear_920_403)"/>
<path d="M766.36 480.22C768.762 481.254 770.437 483.24 771.461 485.264C772.372 487.552 772.52 490.146 771.485 492.548C770.451 494.95 768.466 496.621 766.177 497.536C763.889 498.446 761.409 498.33 759.007 497.296C756.872 496.377 755.082 494.658 754.173 492.367C753.263 490.079 753.115 487.485 754.149 485.083C755.183 482.68 757.168 481.009 759.342 480.363C761.63 479.452 764.224 479.304 766.358 480.223L766.36 480.22ZM769.551 486.024C768.944 484.497 767.421 482.894 765.554 482.09C763.955 481.402 761.741 481.396 760.218 482.005C758.308 482.765 756.82 484.02 756.016 485.887C755.212 487.753 755.323 489.697 756.083 491.607C756.691 493.133 758.213 494.737 759.812 495.425C761.679 496.229 763.89 496.234 765.417 495.626C767.327 494.866 768.815 493.611 769.619 491.744C770.422 489.877 770.313 487.93 769.551 486.024Z" fill="url(#paint42_linear_920_403)"/>
<path fill-rule="evenodd" clip-rule="evenodd" d="M786.438 490.131C790.439 491.854 792.53 496.55 790.692 500.819C788.853 505.088 783.891 507.06 779.89 505.337C775.621 503.498 773.648 498.54 775.486 494.271C777.324 490.002 782.173 488.294 786.438 490.131Z" fill="url(#paint43_linear_920_403)"/>
<path d="M786.898 489.064C789.033 489.983 790.975 492.085 791.732 493.993C792.642 496.281 792.79 498.875 791.756 501.277C790.721 503.679 788.736 505.35 786.447 506.265C784.424 507.289 781.679 507.059 779.545 506.14C777.142 505.106 775.352 503.387 774.443 501.096C773.533 498.808 773.649 496.328 774.683 493.925C775.718 491.523 777.435 489.737 779.612 489.092C781.9 488.181 784.494 488.033 786.896 489.068L786.898 489.064ZM789.826 494.755C789.218 493.228 787.963 491.74 786.093 490.935C784.222 490.129 782.015 490.126 780.488 490.734C778.578 491.494 777.358 492.864 776.554 494.731C775.75 496.598 775.593 498.426 776.353 500.336C776.961 501.862 778.483 503.466 780.35 504.27C782.217 505.073 784.164 504.964 785.691 504.357C787.601 503.596 789.089 502.342 789.893 500.475C790.697 498.608 790.587 496.661 789.826 494.755Z" fill="url(#paint44_linear_920_403)"/>
<path fill-rule="evenodd" clip-rule="evenodd" d="M587.47 690.013L696.58 736.998C707.249 741.592 712.264 754.186 707.668 764.859L699.169 784.598L550.845 720.727L559.345 700.988C563.939 690.319 576.801 685.419 587.474 690.015L587.47 690.013Z" fill="url(#paint45_linear_920_403)"/>
<path d="M587.93 688.946L697.04 735.931C702.64 738.343 706.674 742.928 708.804 748.27C710.93 753.612 711.149 759.715 708.736 765.319L699.89 785.861L549.696 721.185L558.542 700.643C560.953 695.042 565.538 691.008 570.881 688.879C575.959 686.639 582.326 686.533 587.93 688.946ZM696.236 737.798L587.126 690.813C582.057 688.63 576.337 688.698 571.643 690.785C566.679 692.76 562.597 696.376 560.414 701.444L552.372 720.12L698.829 783.186L706.871 764.511C709.054 759.443 708.871 753.99 706.899 749.028C705.192 744.18 701.308 739.982 696.24 737.799L696.236 737.798Z" fill="url(#paint46_linear_920_403)"/>
<path fill-rule="evenodd" clip-rule="evenodd" d="M663.246 406.093C672.048 409.883 676.15 420.188 672.359 428.99C668.569 437.792 658.264 441.893 649.462 438.103C640.66 434.313 636.821 424.125 640.613 415.319C644.405 406.513 654.44 402.301 663.246 406.093Z" fill="url(#paint47_linear_920_403)"/>
<path d="M663.591 405.293C668.392 407.36 671.857 411.065 673.527 415.263C675.083 419.728 675.379 424.916 673.427 429.449C671.475 433.982 667.502 437.332 663.189 439.27C658.992 440.941 653.919 440.969 649.118 438.902C644.585 436.95 641.12 433.245 639.449 429.047C637.626 424.467 637.598 419.394 639.55 414.861C641.502 410.328 645.207 406.863 649.787 405.04C653.981 403.367 659.054 403.339 663.591 405.293ZM671.617 416.023C670.099 412.208 667.052 408.996 662.783 407.158C658.782 405.435 654.36 405.426 650.54 406.946C646.61 408.732 643.132 411.66 641.409 415.661C639.57 419.931 639.829 424.468 641.35 428.288C642.868 432.102 645.915 435.314 649.916 437.037C654.185 438.876 658.607 438.885 662.427 437.364C666.242 435.846 669.718 432.913 671.556 428.644C673.279 424.642 673.02 420.105 671.617 416.023Z" fill="url(#paint48_linear_920_403)"/>
<path d="M692.272 713.957L606.906 677.197L599.21 695.069L684.576 731.829L692.272 713.957Z" fill="url(#paint49_linear_920_403)"/>
<path d="M607.366 676.13L693.799 713.35L685.298 733.092L598.065 695.528L606.566 675.786L607.366 676.13ZM691.125 714.411L607.625 678.455L600.733 694.46L684.233 730.416L691.125 714.411Z" fill="url(#paint50_linear_920_403)"/>
<path d="M584.609 595.387C577.845 591.305 576.064 587.846 576.06 579.808C572.403 586.825 569.116 588.882 560.481 588.357C567.958 592.79 569.434 596.361 569.03 603.936C573.459 597.845 575.988 594.507 584.609 595.387Z" fill="#FFF2C3"/>
<path d="M771.631 521.346C764.867 517.264 763.086 513.805 763.082 505.767C759.425 512.784 756.138 514.84 747.503 514.316C754.98 518.748 756.456 522.32 756.052 529.895C760.481 523.804 763.01 520.465 771.631 521.346Z" fill="#FFF2C3"/>
</g>
<path d="M813.8 597.284C833.408 603.569 871.575 639.472 888.207 656.637C893.809 674.094 868.364 679.04 854.942 679.331C845.837 691.202 832.474 690.096 826.931 688.06C819.928 706.913 807.089 711.044 801.545 710.753C786.955 695.333 768.629 674.588 763.027 668.303C756.024 660.448 762.709 647.305 779.34 647.305C781.572 647.305 783.804 647.789 786.035 648.664C776.475 639.861 767.701 631.872 763.028 627.834C749.897 616.487 763.028 607.758 776.158 607.758C789.289 607.758 860.194 670.603 854.942 664.493C850.74 659.605 817.593 631.034 801.545 617.36C791.741 597.808 805.63 595.83 813.8 597.284Z" fill="#ED9C6F"/>
<path d="M282.652 1763.84C269.774 1768.64 234.233 1767.34 219.383 1765.34L224.998 1779.57C231.288 1784.66 268.551 1781.69 286.022 1779.57L282.652 1763.84Z" fill="#9D6F5A"/>
<path d="M302.121 1865.3C300.923 1851.82 250.706 1808.52 226.122 1788.18L223.127 1802.03C233.31 1804.43 281.53 1853.2 304.367 1877.28L302.121 1865.3Z" fill="#9D6F5A"/>
<path fill-rule="evenodd" clip-rule="evenodd" d="M254.281 175.93C255.933 176.146 257.374 176.858 258.255 177.475C259.386 178.267 259.661 179.826 258.869 180.957C258.078 182.088 256.519 182.363 255.388 181.571C255.021 181.315 254.328 180.979 253.634 180.888C253.013 180.807 252.585 180.93 252.225 181.291C251.248 182.267 249.666 182.267 248.689 181.291C247.713 180.315 247.713 178.732 248.689 177.755C250.425 176.02 252.556 175.706 254.281 175.93Z" fill="#F8F2AC"/>
<path fill-rule="evenodd" clip-rule="evenodd" d="M255.047 184.051C256.623 183.51 258.231 183.509 259.295 183.67C260.66 183.878 261.598 185.152 261.391 186.517C261.184 187.882 259.909 188.821 258.544 188.614C258.102 188.546 257.332 188.553 256.67 188.78C256.077 188.984 255.748 189.284 255.585 189.767C255.144 191.075 253.726 191.778 252.417 191.336C251.109 190.895 250.406 189.477 250.848 188.168C251.632 185.842 253.403 184.615 255.047 184.051Z" fill="#F8F2AC"/>
<path d="M254.575 1527.61L250.457 1767.21H266.93L283.402 1763.85L315.973 1497.66L254.575 1527.61Z" fill="#F3DF9E"/>
<path fill-rule="evenodd" clip-rule="evenodd" d="M413.348 172.095C414.729 172.106 415.84 173.234 415.829 174.614L415.789 179.908C415.779 181.289 414.651 182.4 413.271 182.39C411.89 182.379 410.779 181.251 410.79 179.871L410.83 174.576C410.84 173.196 411.968 172.085 413.348 172.095Z" fill="#402020"/>
<path fill-rule="evenodd" clip-rule="evenodd" d="M349.732 169.127C351.112 169.138 352.223 170.265 352.213 171.646L352.173 176.94C352.162 178.321 351.035 179.432 349.654 179.421C348.273 179.411 347.163 178.283 347.173 176.903L347.213 171.608C347.223 170.228 348.351 169.117 349.732 169.127Z" fill="#402020"/>
<path d="M129.049 590.126C118.092 587.749 114.25 584.439 111.017 575.391C108.796 584.49 105.093 587.884 92.9849 590.126C105.066 592.663 108.533 596.2 111.017 604.86C114.674 596.55 116.819 591.962 129.049 590.126Z" fill="#F7B18A"/>
<path d="M305.452 1252.86C288.539 1249.19 282.609 1244.08 277.619 1230.12C274.191 1244.16 268.476 1249.4 249.787 1252.86C268.435 1256.78 273.785 1262.24 277.619 1275.6C283.264 1262.78 286.574 1255.7 305.452 1252.86Z" fill="#FFF2C3"/>
<path d="M496.632 1250.77C479.378 1248.39 472.898 1243.75 466.356 1230.22C464.525 1244.46 459.424 1250.1 441.204 1254.96C460.213 1257.45 466.157 1262.49 471.48 1275.51C475.656 1262.31 478.154 1255.01 496.632 1250.77Z" fill="#FFF2C3"/>
<path opacity="0.7" d="M201.178 943.757C190.221 941.38 186.379 938.07 183.146 929.022C180.925 938.121 177.222 941.515 165.114 943.757C177.195 946.294 180.662 949.831 183.146 958.492C186.803 950.181 188.948 945.593 201.178 943.757Z" fill="#C64977"/>
<defs>
<filter id="filter0_f_920_403" x="318.06" y="157.618" width="119.368" height="95.4075" filterUnits="userSpaceOnUse" color-interpolation-filters="sRGB">
<feFlood flood-opacity="0" result="BackgroundImageFix"/>
<feBlend mode="normal" in="SourceGraphic" in2="BackgroundImageFix" result="shape"/>
<feGaussianBlur stdDeviation="10" result="effect1_foregroundBlur_920_403"/>
</filter>
<linearGradient id="paint0_linear_920_403" x1="412.188" y1="453.532" x2="202.163" y2="12.1438" gradientUnits="userSpaceOnUse">
<stop stop-color="#EC9B6E"/>
<stop offset="1" stop-color="#BE4113"/>
</linearGradient>
<linearGradient id="paint1_linear_920_403" x1="412.187" y1="453.533" x2="202.163" y2="12.1449" gradientUnits="userSpaceOnUse">
<stop stop-color="#EC9B6E"/>
<stop offset="1" stop-color="#BE4113"/>
</linearGradient>
<linearGradient id="paint2_linear_920_403" x1="70.0086" y1="622.375" x2="215.64" y2="639.222" gradientUnits="userSpaceOnUse">
<stop stop-color="#F4C78A"/>
<stop offset="0.573674" stop-color="#F09562"/>
</linearGradient>
<linearGradient id="paint3_linear_920_403" x1="235.107" y1="342.343" x2="235.107" y2="1376.37" gradientUnits="userSpaceOnUse">
<stop stop-color="#C13E2D"/>
<stop offset="1" stop-color="#5B1615"/>
</linearGradient>
<linearGradient id="paint4_linear_920_403" x1="175.208" y1="334.855" x2="148.501" y2="433.405" gradientUnits="userSpaceOnUse">
<stop stop-color="#F7F1AB"/>
<stop offset="1" stop-color="#F09562"/>
</linearGradient>
<linearGradient id="paint5_linear_920_403" x1="261.314" y1="50.329" x2="207.16" y2="165.597" gradientUnits="userSpaceOnUse">
<stop stop-color="#F1DA9A"/>
<stop offset="1" stop-color="#CA7349"/>
</linearGradient>
<linearGradient id="paint6_linear_920_403" x1="287.878" y1="86.1962" x2="222.549" y2="141.331" gradientUnits="userSpaceOnUse">
<stop stop-color="#F1DA9A"/>
<stop offset="1" stop-color="#CA7349"/>
</linearGradient>
<linearGradient id="paint7_linear_920_403" x1="301.015" y1="19.0232" x2="217.292" y2="93.4493" gradientUnits="userSpaceOnUse">
<stop stop-color="#F1DA9A"/>
<stop offset="1" stop-color="#CA7349"/>
</linearGradient>
<linearGradient id="paint8_linear_920_403" x1="310.064" y1="57.2264" x2="238.143" y2="79.1646" gradientUnits="userSpaceOnUse">
<stop stop-color="#F1DA9A"/>
<stop offset="1" stop-color="#CA7349"/>
</linearGradient>
<linearGradient id="paint9_linear_920_403" x1="334.488" y1="11.1942" x2="257.092" y2="43.5855" gradientUnits="userSpaceOnUse">
<stop stop-color="#F1DA9A"/>
<stop offset="1" stop-color="#CA7349"/>
</linearGradient>
<linearGradient id="paint10_linear_920_403" x1="331.619" y1="40.4585" x2="275.334" y2="38.53" gradientUnits="userSpaceOnUse">
<stop stop-color="#F1DA9A"/>
<stop offset="1" stop-color="#CA7349"/>
</linearGradient>
<linearGradient id="paint11_linear_920_403" x1="497.961" y1="76.9677" x2="497.077" y2="194.838" gradientUnits="userSpaceOnUse">
<stop stop-color="#F1DA9A"/>
<stop offset="1" stop-color="#CA7349"/>
</linearGradient>
<linearGradient id="paint12_linear_920_403" x1="461.445" y1="96.2865" x2="493.932" y2="168.43" gradientUnits="userSpaceOnUse">
<stop stop-color="#F1DA9A"/>
<stop offset="1" stop-color="#CA7349"/>
</linearGradient>
<linearGradient id="paint13_linear_920_403" x1="477.339" y1="34.9624" x2="517.467" y2="130.563" gradientUnits="userSpaceOnUse">
<stop stop-color="#F1DA9A"/>
<stop offset="1" stop-color="#CA7349"/>
</linearGradient>
<linearGradient id="paint14_linear_920_403" x1="454.51" y1="63.2339" x2="505.773" y2="110.303" gradientUnits="userSpaceOnUse">
<stop stop-color="#F1DA9A"/>
<stop offset="1" stop-color="#CA7349"/>
</linearGradient>
<linearGradient id="paint15_linear_920_403" x1="452.527" y1="15.0438" x2="504.181" y2="73.0272" gradientUnits="userSpaceOnUse">
<stop stop-color="#F1DA9A"/>
<stop offset="1" stop-color="#CA7349"/>
</linearGradient>
<linearGradient id="paint16_linear_920_403" x1="443.222" y1="40.6184" x2="490.976" y2="61.5128" gradientUnits="userSpaceOnUse">
<stop stop-color="#F1DA9A"/>
<stop offset="1" stop-color="#CA7349"/>
</linearGradient>
<linearGradient id="paint17_linear_920_403" x1="266.929" y1="818.923" x2="317.096" y2="1432.9" gradientUnits="userSpaceOnUse">
<stop stop-color="#76211C"/>
<stop offset="1" stop-color="#510D09"/>
</linearGradient>
<linearGradient id="paint18_linear_920_403" x1="217.698" y1="850.744" x2="217.698" y2="1444.88" gradientUnits="userSpaceOnUse">
<stop stop-color="#F4E09F"/>
<stop offset="1" stop-color="#CA744A"/>
</linearGradient>
<linearGradient id="paint19_linear_920_403" x1="732.201" y1="504.091" x2="727.836" y2="514.228" gradientUnits="userSpaceOnUse">
<stop stop-color="#C5673F"/>
<stop offset="1" stop-color="#F8EDA9"/>
</linearGradient>
<linearGradient id="paint20_linear_920_403" x1="732.527" y1="502.966" x2="727.242" y2="515.238" gradientUnits="userSpaceOnUse">
<stop stop-color="#C5673F"/>
<stop offset="1" stop-color="#F8EDA9"/>
</linearGradient>
<linearGradient id="paint21_linear_920_403" x1="722.129" y1="471.299" x2="634.709" y2="674.309" gradientUnits="userSpaceOnUse">
<stop stop-color="#C5673F"/>
<stop offset="1" stop-color="#F8EDA9"/>
</linearGradient>
<linearGradient id="paint22_linear_920_403" x1="722.609" y1="470.553" x2="634.384" y2="675.434" gradientUnits="userSpaceOnUse">
<stop stop-color="#C5673F"/>
<stop offset="1" stop-color="#F8EDA9"/>
</linearGradient>
<linearGradient id="paint23_linear_920_403" x1="701.86" y1="462.566" x2="614.441" y2="665.577" gradientUnits="userSpaceOnUse">
<stop stop-color="#C5673F"/>
<stop offset="1" stop-color="#F8EDA9"/>
</linearGradient>
<linearGradient id="paint24_linear_920_403" x1="702.201" y1="461.765" x2="613.977" y2="666.642" gradientUnits="userSpaceOnUse">
<stop stop-color="#C5673F"/>
<stop offset="1" stop-color="#F8EDA9"/>
</linearGradient>
<linearGradient id="paint25_linear_920_403" x1="762.811" y1="488.817" x2="675.391" y2="691.828" gradientUnits="userSpaceOnUse">
<stop stop-color="#C5673F"/>
<stop offset="1" stop-color="#F8EDA9"/>
</linearGradient>
<linearGradient id="paint26_linear_920_403" x1="763.157" y1="488.014" x2="674.931" y2="692.895" gradientUnits="userSpaceOnUse">
<stop stop-color="#C5673F"/>
<stop offset="1" stop-color="#F8EDA9"/>
</linearGradient>
<linearGradient id="paint27_linear_920_403" x1="742.543" y1="480.085" x2="655.123" y2="683.095" gradientUnits="userSpaceOnUse">
<stop stop-color="#C5673F"/>
<stop offset="1" stop-color="#F8EDA9"/>
</linearGradient>
<linearGradient id="paint28_linear_920_403" x1="742.751" y1="479.227" x2="654.527" y2="684.104" gradientUnits="userSpaceOnUse">
<stop stop-color="#C5673F"/>
<stop offset="1" stop-color="#F8EDA9"/>
</linearGradient>
<linearGradient id="paint29_linear_920_403" x1="783.092" y1="497.546" x2="695.672" y2="700.556" gradientUnits="userSpaceOnUse">
<stop stop-color="#C5673F"/>
<stop offset="1" stop-color="#F8EDA9"/>
</linearGradient>
<linearGradient id="paint30_linear_920_403" x1="783.432" y1="496.745" x2="695.208" y2="701.622" gradientUnits="userSpaceOnUse">
<stop stop-color="#C5673F"/>
<stop offset="1" stop-color="#F8EDA9"/>
</linearGradient>
<linearGradient id="paint31_linear_920_403" x1="759.606" y1="447.734" x2="651.044" y2="699.843" gradientUnits="userSpaceOnUse">
<stop stop-color="#C5673F"/>
<stop offset="1" stop-color="#F8EDA9"/>
</linearGradient>
<linearGradient id="paint32_linear_920_403" x1="759.871" y1="446.799" x2="650.484" y2="700.822" gradientUnits="userSpaceOnUse">
<stop stop-color="#C5673F"/>
<stop offset="1" stop-color="#F8EDA9"/>
</linearGradient>
<linearGradient id="paint33_linear_920_403" x1="854.005" y1="488.554" x2="840.336" y2="520.296" gradientUnits="userSpaceOnUse">
<stop stop-color="#C5673F"/>
<stop offset="1" stop-color="#F8EDA9"/>
</linearGradient>
<linearGradient id="paint34_linear_920_403" x1="854.593" y1="487.542" x2="840.12" y2="521.151" gradientUnits="userSpaceOnUse">
<stop stop-color="#C5673F"/>
<stop offset="1" stop-color="#F8EDA9"/>
</linearGradient>
<linearGradient id="paint35_linear_920_403" x1="705.206" y1="455.151" x2="698.658" y2="470.356" gradientUnits="userSpaceOnUse">
<stop stop-color="#C5673F"/>
<stop offset="1" stop-color="#F8EDA9"/>
</linearGradient>
<linearGradient id="paint36_linear_920_403" x1="705.533" y1="454.026" x2="698.179" y2="471.103" gradientUnits="userSpaceOnUse">
<stop stop-color="#C5673F"/>
<stop offset="1" stop-color="#F8EDA9"/>
</linearGradient>
<linearGradient id="paint37_linear_920_403" x1="725.479" y1="463.881" x2="718.931" y2="479.086" gradientUnits="userSpaceOnUse">
<stop stop-color="#C5673F"/>
<stop offset="1" stop-color="#F8EDA9"/>
</linearGradient>
<linearGradient id="paint38_linear_920_403" x1="725.81" y1="462.758" x2="718.456" y2="479.834" gradientUnits="userSpaceOnUse">
<stop stop-color="#C5673F"/>
<stop offset="1" stop-color="#F8EDA9"/>
</linearGradient>
<linearGradient id="paint39_linear_920_403" x1="745.758" y1="472.614" x2="739.21" y2="487.819" gradientUnits="userSpaceOnUse">
<stop stop-color="#C5673F"/>
<stop offset="1" stop-color="#F8EDA9"/>
</linearGradient>
<linearGradient id="paint40_linear_920_403" x1="746.087" y1="471.49" x2="738.734" y2="488.567" gradientUnits="userSpaceOnUse">
<stop stop-color="#C5673F"/>
<stop offset="1" stop-color="#F8EDA9"/>
</linearGradient>
<linearGradient id="paint41_linear_920_403" x1="766.032" y1="481.344" x2="759.484" y2="496.549" gradientUnits="userSpaceOnUse">
<stop stop-color="#C5673F"/>
<stop offset="1" stop-color="#F8EDA9"/>
</linearGradient>
<linearGradient id="paint42_linear_920_403" x1="766.494" y1="480.277" x2="759.14" y2="497.354" gradientUnits="userSpaceOnUse">
<stop stop-color="#C5673F"/>
<stop offset="1" stop-color="#F8EDA9"/>
</linearGradient>
<linearGradient id="paint43_linear_920_403" x1="786.306" y1="490.074" x2="779.758" y2="505.28" gradientUnits="userSpaceOnUse">
<stop stop-color="#C5673F"/>
<stop offset="1" stop-color="#F8EDA9"/>
</linearGradient>
<linearGradient id="paint44_linear_920_403" x1="786.896" y1="489.063" x2="779.543" y2="506.139" gradientUnits="userSpaceOnUse">
<stop stop-color="#C5673F"/>
<stop offset="1" stop-color="#F8EDA9"/>
</linearGradient>
<linearGradient id="paint45_linear_920_403" x1="641.893" y1="713.449" x2="625.007" y2="752.662" gradientUnits="userSpaceOnUse">
<stop stop-color="#C5673F"/>
<stop offset="1" stop-color="#F8EDA9"/>
</linearGradient>
<linearGradient id="paint46_linear_920_403" x1="642.485" y1="712.439" x2="624.793" y2="753.523" gradientUnits="userSpaceOnUse">
<stop stop-color="#C5673F"/>
<stop offset="1" stop-color="#F8EDA9"/>
</linearGradient>
<linearGradient id="paint47_linear_920_403" x1="663.378" y1="406.149" x2="649.594" y2="438.16" gradientUnits="userSpaceOnUse">
<stop stop-color="#C5673F"/>
<stop offset="1" stop-color="#F8EDA9"/>
</linearGradient>
<linearGradient id="paint48_linear_920_403" x1="663.725" y1="405.35" x2="649.252" y2="438.96" gradientUnits="userSpaceOnUse">
<stop stop-color="#C5673F"/>
<stop offset="1" stop-color="#F8EDA9"/>
</linearGradient>
<linearGradient id="paint49_linear_920_403" x1="649.589" y1="695.577" x2="641.893" y2="713.449" gradientUnits="userSpaceOnUse">
<stop stop-color="#C5673F"/>
<stop offset="1" stop-color="#F8EDA9"/>
</linearGradient>
<linearGradient id="paint50_linear_920_403" x1="650.183" y1="694.568" x2="641.681" y2="714.31" gradientUnits="userSpaceOnUse">
<stop stop-color="#C5673F"/>
<stop offset="1" stop-color="#F8EDA9"/>
</linearGradient>
<clipPath id="clip0_920_403">
<rect width="251.63" height="335.181" fill="white" transform="translate(644.337 397.002) rotate(23.2976)"/>
</clipPath>
</defs>
</svg>
