<svg width="853" height="1914" viewBox="0 0 853 1914" fill="none" xmlns="http://www.w3.org/2000/svg">
<path d="M349.136 1863.15L324.479 1847.69L493.793 1792.62C520.506 1804.64 574.834 1830.26 578.45 1836.6C582.067 1842.94 568.724 1848.22 561.601 1850.07C548.122 1850.07 414.342 1858.79 349.136 1863.15Z" fill="#EAC79B"/>
<path d="M678.313 584.173C718.313 638.983 773.902 768.888 758.45 850.032C739.135 951.463 676.669 989.895 731.738 998.612C785.51 1007.12 809.502 988.435 809.071 972.795C809.048 972.417 809.024 972.042 808.997 971.67C809.036 972.043 809.061 972.418 809.071 972.795C811.289 1009.71 795.767 1074.07 715.71 1044.57C634.834 1014.78 511.875 828.241 460.506 738.696L561.601 498.591L678.313 584.173Z" fill="#381D1A"/>
<path fill-rule="evenodd" clip-rule="evenodd" d="M841.163 354.883C742.505 434.033 747.981 514.635 758.533 540.143L759.592 542.703L759.883 545.441C777.739 713.656 705.492 838.991 664.965 882.37L663.169 884.293L660.914 885.697C626.111 907.364 596.87 941.325 574.319 976.098C551.848 1010.75 536.932 1044.79 530.213 1064.96L529.624 1066.73L528.702 1068.36C487.714 1140.69 425.064 1190.93 364.224 1224.31C303.807 1257.46 244.045 1274.62 206.319 1280.3C103.904 1301.65 53.0777 1381.56 40.8947 1417.61C37.4154 1427.9 25.9295 1433.48 15.2402 1430.07C4.55088 1426.66 -1.29402 1415.55 2.18527 1405.25C17.3813 1360.28 77.1473 1266.71 198.167 1241.77L198.742 1241.66L199.323 1241.57C232.15 1236.7 287.524 1221.11 343.959 1190.14C399.834 1159.48 455.625 1114.38 492.067 1050.94C500.027 1027.65 516.126 991.606 539.778 955.135C563.518 918.529 595.749 880.119 636.339 854.158C670.354 816.377 734.965 703.993 719.649 551.773C703.102 507.56 706.579 411.639 815.039 324.626C823.66 317.71 836.497 318.876 843.711 327.232C850.925 335.587 849.785 347.967 841.163 354.883Z" fill="#F09562"/>
<path fill-rule="evenodd" clip-rule="evenodd" d="M804.413 359.557C598.949 624.527 193.893 1165.68 17.043 1403.15L13.835 1400.76C190.682 1163.3 595.76 622.111 801.252 357.106L804.413 359.557Z" fill="#FFF2C3"/>
<path d="M613.793 872.221C632.533 869.051 639.958 889.654 641.327 900.352C592.999 922.857 543.246 1025.95 522.561 1075.87C478.835 1162.09 374.89 1219.83 330.233 1236.74C330.233 1225.01 317.082 1213.62 310.507 1209.4C388.424 1184.04 461.191 1094.89 490.095 1052.89C485.492 1008.84 572.15 913.691 613.793 872.221Z" fill="url(#paint0_linear_3002_2)"/>
<path d="M698.45 1722.49L598.999 1378.97L601.875 1354.41H676.669C763.464 1400.05 764.477 1618.82 755.162 1722.49H698.45Z" fill="#FFEDDC"/>
<path d="M307.631 258.877C307.631 108.716 341.466 68.0349 372.562 69.0915C372.562 69.0915 521.739 139.617 555.027 139.617C588.314 139.617 573.109 278.295 583.794 297.71C594.479 317.124 635.985 360.707 643.794 399.536C651.602 438.365 670.506 523.944 670.506 523.944L470.781 414.193L258.187 480.57C249.599 489.912 242.541 491.311 239.823 486.303L258.187 480.57C278.59 458.374 307.631 391.342 307.631 258.877Z" fill="#381D1A"/>
<path d="M581.326 204.204C597.627 267.07 677.992 423.822 701.737 445.498C740.365 480.761 700.915 651.529 729.271 676.49C757.627 701.452 829.544 785.449 813.928 863.503C798.952 938.354 694.03 995.715 710.451 1009.03C711.413 1009.54 712.345 1010.03 713.242 1010.5C712.078 1010.09 711.154 1009.6 710.451 1009.03C687.329 996.72 646.798 971.036 649.955 955.82C654.064 936.01 870.229 896.784 779.819 819.523C689.408 742.261 651.189 726.017 672.97 676.49C694.751 626.964 710.367 526.326 660.23 530.288C610.094 534.25 550.504 237.486 581.326 204.204Z" fill="#5A2F30"/>
<path d="M419.41 1326.28C377.657 1299.02 335.164 1128.44 319.137 1046.55L473.246 1004.16L495.437 1124.21C473.739 1149.88 533.245 1232.77 549.684 1278.73C584.533 1291.73 572.423 1345.03 578.04 1362.33L440.78 1370.26C443.081 1350.29 427.492 1332.62 419.41 1326.28Z" fill="#FFD8C8"/>
<path d="M552.149 59.9821C566.084 72.9779 563.613 121.923 560.635 144.772L552.149 229.561L566.441 224.41C667.557 137.878 599.045 78.7362 552.149 59.9821Z" fill="#5A2F30"/>
<path d="M185.576 899.559C102.398 759.775 202.425 543.099 262.836 452.234L369.685 555.25L273.932 991.48C237.768 982.922 199.96 926.633 185.576 899.559Z" fill="#381D1A"/>
<path d="M172.832 938.388C101.161 855.975 108.867 797.336 121.464 738.696C162.467 528.805 292.299 305.357 314.205 161.414C372.086 482.032 256.669 523.949 185.574 643.209C128.697 738.617 224.201 946.312 267.763 1004.95L172.832 938.388Z" fill="#5A2F30"/>
<path d="M256.26 529.891C243.439 416.098 300.643 399.801 327.766 392.801L301.876 529.891L332.672 725.224L265.275 867.464L256.26 529.891Z" fill="#FFEDDC"/>
<path d="M655.3 505.749C652.738 499.897 603.109 378.934 556.26 405.877L467.083 550.099L574.344 590.908C574.344 590.908 573.003 545.302 587.936 544.456C602.87 543.61 732.307 666.14 727.92 651.668C723.532 637.197 799.572 621.169 799.572 621.169C799.572 621.169 657.861 511.601 655.3 505.749Z" fill="#FFEDDC"/>
<path d="M484.341 348.03C469.957 332.578 484.341 276.316 484.341 276.316H481.464L400.916 296.919C400.916 296.919 409.546 353.577 390.231 363.482C370.916 373.388 322.834 395.972 322.834 395.972L390.231 476.799L591.6 395.972C591.6 395.972 498.724 363.482 484.341 348.03Z" fill="#FFD8C8"/>
<path d="M382.424 367.443L418.27 488.055L439.547 509.175L313.187 621.812C259.691 562.18 291.132 446.011 320.37 394.385L382.424 367.443Z" fill="url(#paint1_linear_3002_2)"/>
<path d="M541.053 557.627C544.341 583.935 574.066 585.494 584.614 581.003L553.793 641.624L534.478 659.85L541.053 557.627Z" fill="#FCFCFC"/>
<path d="M349.548 229.957L338.452 164.219C338.452 164.219 338.452 76.26 385.712 61.9963C432.972 47.7327 550.917 113.9 550.917 113.9L542.287 164.219C545.988 158.522 554.616 153.885 562.013 164.219C569.41 174.554 559.958 219.656 542.287 224.047C527.63 227.69 526.826 225.29 526.978 224.365L520.917 243.066C489.325 294.567 450.643 312.37 427.63 312.37C404.616 312.37 353.247 264.428 349.548 229.957Z" fill="#FFEFE2"/>
<path d="M299.822 607.549C425.033 378.321 557.492 376.953 557.492 376.953L576.807 392.802C520.588 427.351 549.41 621.548 557.492 712.149L324.069 722.054L299.822 607.549Z" fill="#FCFCFC"/>
<path d="M599.41 1379.77C520.835 1330.32 470.232 1124.61 454.753 1027.93L656.944 973.65L642.56 1189.59C642.56 1207.81 654.204 1301.45 677.903 1355.6L599.41 1379.77Z" fill="#FFEDDC"/>
<path d="M455.574 79.7944L412.012 65.9269L406.67 31.0602L450.642 38.9844L455.574 79.7944Z" fill="#5A2F30"/>
<path d="M265.38 1137.81C239.102 1106.93 196.362 1125.87 198.828 1102.81C201.293 1079.75 297.85 753.754 297.85 753.754L313.38 681.727L546.178 641.625L757.627 1121.36C757.627 1121.36 721.907 1131.88 699.735 1121.36C677.564 1110.83 623.778 1079.75 571.224 1079.75C518.669 1079.75 546.178 1137.81 403.707 1155.44C378.977 1158.5 298.226 1176.41 265.38 1137.81Z" fill="white"/>
<path d="M490.505 1732L442.012 1364.71L571.464 1357.58C594.806 1404.18 575.436 1573.78 562.834 1652.76C552.313 1667.66 558.45 1711.8 562.834 1732H490.505Z" fill="#FFD8C8"/>
<path d="M269.411 1203.45L327.356 758.503L496.67 641.625L582.56 1171.28C472.424 1169.8 327.904 1192.11 269.411 1203.45Z" fill="url(#paint2_linear_3002_2)"/>
<path fill-rule="evenodd" clip-rule="evenodd" d="M499.595 419.793C500.443 420.5 500.558 421.761 499.851 422.61C473.035 454.796 432.125 507.239 396.575 559.934C378.8 586.282 362.384 612.664 349.742 636.59C337.077 660.56 328.289 681.901 325.631 698.208C325.454 699.298 324.426 700.038 323.336 699.86C322.246 699.682 321.506 698.655 321.684 697.564C324.45 680.59 333.495 658.776 346.205 634.722C358.938 610.623 375.439 584.111 393.26 557.697C428.901 504.867 469.896 452.314 496.778 420.049C497.485 419.201 498.746 419.086 499.595 419.793ZM517.506 446.608C518.425 447.221 518.673 448.463 518.06 449.382C497.748 479.845 463.007 535.846 433.062 589.135C418.088 615.78 404.33 641.718 394.177 663.431C389.1 674.288 384.938 684.063 381.976 692.325C379 700.629 377.294 707.255 377.024 711.87C376.959 712.973 376.013 713.815 374.91 713.75C373.808 713.686 372.966 712.739 373.031 711.637C373.336 706.426 375.207 699.356 378.211 690.975C381.23 682.553 385.448 672.656 390.554 661.736C400.767 639.895 414.579 613.86 429.574 587.175C459.567 533.803 494.36 477.715 514.732 447.162C515.345 446.243 516.587 445.995 517.506 446.608Z" fill="#E1E7F2"/>
<path d="M589.957 756.129H296.123L306.808 638.85C323.904 650.578 479.136 643.737 554.615 638.85C554.615 651.529 578.177 722.319 589.957 756.129Z" fill="#F6E6A3"/>
<path fill-rule="evenodd" clip-rule="evenodd" d="M305.126 635.271L307.939 637.201C308.742 637.751 310.105 638.341 312.124 638.912C314.112 639.475 316.605 639.985 319.572 640.441C325.505 641.352 333.19 642.024 342.228 642.488C360.298 643.416 383.61 643.508 408.784 643.081C459.122 642.227 516.766 639.296 554.486 636.854L556.615 636.717V638.85C556.615 640.212 556.943 642.529 557.609 645.737C558.265 648.9 559.221 652.797 560.413 657.253C562.795 666.161 566.099 677.224 569.777 688.968C577.132 712.45 585.96 738.579 591.846 755.471L592.772 758.129H293.933L305.126 635.271ZM308.535 641.94L298.314 754.129H587.145C581.276 737.208 572.955 712.498 565.96 690.163C562.275 678.398 558.952 667.273 556.549 658.286C555.347 653.794 554.37 649.816 553.692 646.549C553.25 644.419 552.922 642.532 552.75 640.974C514.974 643.392 458.394 646.239 408.852 647.08C383.645 647.508 360.227 647.417 342.023 646.482C332.925 646.015 325.089 645.335 318.965 644.395C315.904 643.925 313.235 643.384 311.034 642.761C310.143 642.509 309.305 642.237 308.535 641.94Z" fill="#FFF2C3"/>
<path d="M618.724 430.664L608.532 409.99C603.736 392.751 538.989 366.594 507.215 355.67L491.327 350.805C499.001 436.096 579.456 439.582 618.724 430.664Z" fill="url(#paint3_linear_3002_2)"/>
<path d="M610.506 410.042C601.487 392.934 568.641 358.085 509.411 355.558C516.25 382.274 546.043 430.572 610.506 410.042Z" fill="url(#paint4_linear_3002_2)"/>
<path fill-rule="evenodd" clip-rule="evenodd" d="M506.806 353.445L507.473 356.054C510.973 369.726 520.326 388.907 537.114 402.09C554.016 415.363 578.274 422.406 611.113 411.948L613.39 411.223L612.276 409.11C602.96 391.439 569.509 356.12 509.496 353.56L506.806 353.445ZM607.549 408.859C577.138 417.863 555.01 411.058 539.585 398.944C524.698 387.254 515.895 370.489 512.08 357.699C566.43 360.99 597.502 391.954 607.549 408.859Z" fill="#FFF2C3"/>
<g filter="url(#filter0_f_3002_2)">
<path d="M455.985 226.393C455.985 237.771 437.954 246.996 415.711 246.996C393.469 246.996 375.438 237.771 375.438 226.393C375.438 215.014 393.469 205.789 415.711 205.789C437.954 205.789 455.985 215.014 455.985 226.393Z" fill="#FFDCCB"/>
</g>
<path fill-rule="evenodd" clip-rule="evenodd" d="M416.771 226.818C415.692 226.581 414.625 227.263 414.388 228.342C413.979 230.2 412.83 232.547 411.513 234.866C410.893 235.959 410.263 236.998 409.696 237.934C409.674 237.971 409.652 238.007 409.63 238.043C409.063 238.98 408.529 239.863 408.183 240.529C407.675 241.51 408.057 242.717 409.038 243.226C410.018 243.734 411.225 243.351 411.734 242.371C412.005 241.849 412.457 241.097 413.052 240.115C413.076 240.075 413.1 240.035 413.125 239.995C413.687 239.066 414.343 237.984 414.992 236.841C416.319 234.504 417.745 231.701 418.295 229.201C418.532 228.122 417.85 227.055 416.771 226.818ZM410.479 246.111C409.77 246.959 409.883 248.22 410.731 248.928L416.895 254.079C417.743 254.787 419.004 254.674 419.712 253.826C420.421 252.979 420.308 251.718 419.46 251.009L413.296 245.859C412.448 245.15 411.187 245.263 410.479 246.111Z" fill="#E1B6A5"/>
<path fill-rule="evenodd" clip-rule="evenodd" d="M407.79 176.18C406.973 176.923 406.914 178.188 407.657 179.005C411.043 182.726 414.259 186.683 416.237 191.784C418.2 196.846 418.999 203.188 417.258 211.73C417.038 212.813 417.736 213.869 418.819 214.089C419.901 214.31 420.957 213.611 421.178 212.529C423.054 203.321 422.236 196.192 419.967 190.338C417.712 184.524 414.079 180.12 410.616 176.313C409.872 175.496 408.607 175.436 407.79 176.18Z" fill="#E1B6A5"/>
<path d="M321.603 1830.26C352.507 1830.26 452.013 1758.94 497.904 1723.28L549.684 1676.93C552.15 1696.74 561.191 1742.7 577.629 1768.06C594.067 1793.41 584.478 1823.53 577.629 1835.41C555.026 1830.26 436.671 1849.28 430.506 1849.28C424.342 1849.28 345.028 1850.47 329.822 1849.28C317.658 1848.33 319.274 1836.2 321.603 1830.26Z" fill="#FFD8C8"/>
<path d="M659.82 1911.88C651.929 1909.35 648.039 1893.92 647.08 1886.52L699.272 1843.73L761.326 1861.56C763.381 1888.9 732.97 1911.88 724.751 1911.88C716.532 1911.88 669.683 1915.05 659.82 1911.88Z" fill="#F6E6A3"/>
<path d="M647.492 1884.94C640.506 1856.41 686.122 1775.98 696.394 1721.3C706.666 1666.63 754.339 1721.3 754.339 1721.3L760.914 1850.87C767.818 1877.17 736.393 1894.84 719.818 1900.39C702.147 1894.98 654.478 1913.47 647.492 1884.94Z" fill="#FFEDDC"/>
<path d="M343.795 197.469C348.793 166.997 389.475 84.3186 413.657 64.7372L415.577 16.9849L382.1 28.8777C306.398 59.1851 318.909 158.084 323.248 168.545C332.288 190.337 341.322 195.701 343.795 197.469Z" fill="#5A2F30"/>
<path d="M506.122 150.512C463.711 146.075 450.095 95.0424 448.588 70.081L430.506 12.4372C447.602 -7.8489 522.012 29.0781 541.053 44.9266C589.382 85.4988 567.081 137.377 553.382 158.244C546.059 156.983 539.723 166.087 537.646 172.39C537.557 173.673 537.329 175.032 536.944 176.47C536.86 175.444 537.112 174.009 537.646 172.39C538.771 156.126 517.422 151.859 506.122 150.512Z" fill="#5A2F30"/>
<path d="M644.803 1162.25L552.971 760.487H593.328L753.518 1162.25H644.803Z" fill="url(#paint5_linear_3002_2)"/>
<path d="M408.726 2.13611C367.301 22.1052 344.617 65.1339 338.452 84.1522C377.246 45.7988 404.479 41.2291 413.246 43.7385C465.849 45.6403 511.054 103.435 527.081 132.094C502.424 48.7307 437.904 10.7207 408.726 2.13611Z" fill="url(#paint6_linear_3002_2)"/>
<path fill-rule="evenodd" clip-rule="evenodd" d="M408.551 0L409.29 0.217438C438.993 8.95651 504.115 47.3957 528.999 131.527L525.336 133.07C517.41 118.897 502.228 97.4595 482.526 79.3547C462.794 61.2221 438.782 46.663 413.174 45.7372L412.93 45.7283L412.696 45.6613C408.964 44.5932 400.485 44.91 387.916 50.4518C375.432 55.9559 359.122 66.5291 339.858 85.5744L336.549 83.5355C342.806 64.2331 365.755 20.6303 407.857 0.334523L408.551 0ZM408.899 4.27594C373.731 21.5409 352.347 55.775 343.456 76.5959C360.246 61.0637 374.728 51.895 386.302 46.7918C399.034 41.1783 408.458 40.3983 413.553 41.7486C440.457 42.8044 465.262 58.058 485.233 76.4095C499.29 89.3272 511.076 103.893 519.658 116.439C492.457 45.7423 435.909 12.5199 408.899 4.27594Z" fill="#FFF2C3"/>
<path d="M560.262 673.671L620.262 731.518C637.522 766.384 625.604 781.045 620.262 791.742C615.988 800.301 582.591 774.177 566.426 760.045L523.687 743.404C514.508 736.933 494.755 722.643 489.166 717.254C483.577 711.866 483.549 699.161 484.234 693.482C496.727 689.044 540.125 697.444 560.262 702.198L543.824 685.161C532.728 678.425 494.92 666.935 501.906 660.992C507.495 656.237 543.139 667.463 560.262 673.671Z" fill="#FFEDDC"/>
<path d="M692.697 1728.04C720.971 1705.85 748.45 1745.34 757.217 1758.15V1784.7C736.834 1766.95 695.437 1767.13 680.368 1770.83L692.697 1728.04Z" fill="#F6E6A3"/>
<path opacity="0.9" d="M444.479 271.562C436.996 266.778 419.288 260.081 408.314 271.562C417.875 273.356 438.493 275.868 444.479 271.562Z" fill="#FCD9CC"/>
<path d="M446.122 174.092C463.424 171.453 500.303 166.411 509.409 167.362C494.991 165.514 451.13 164.59 446.122 174.092Z" fill="#402020"/>
<path d="M403.51 173.632C388.732 168.094 357.113 156.864 348.86 156.245C361.997 156.888 401.008 163.454 403.51 173.632Z" fill="#402020"/>
<path fill-rule="evenodd" clip-rule="evenodd" d="M404.885 270.659C405.382 269.673 406.585 269.277 407.571 269.775C411.443 271.731 416.999 272.433 423.776 272.433C429.524 272.433 435.903 271.935 442.535 271.417C443.673 271.328 444.819 271.238 445.97 271.151C447.071 271.067 448.032 271.892 448.116 272.993C448.2 274.095 447.375 275.055 446.274 275.139C445.141 275.225 444.007 275.314 442.875 275.403C436.254 275.92 429.694 276.433 423.776 276.433C416.888 276.433 410.526 275.749 405.768 273.346C404.782 272.848 404.387 271.645 404.885 270.659Z" fill="#E1B6A5"/>
<path d="M402.561 1851.66C399.603 1831.05 377.767 1816.66 368.041 1812.43L402.561 1790.24C419.986 1790.56 429.822 1831.32 432.561 1851.66H402.561Z" fill="#EAC79B"/>
<path d="M439.136 1766.08C469.054 1765.12 480.643 1816.66 482.698 1842.54L528.725 1837C534.643 1812.91 498.588 1759.87 479.821 1736.36L439.136 1766.08Z" fill="#EAC79B"/>
<path d="M413.229 127.685C368.845 125.466 378.845 82.9128 389.393 61.9136C399.685 57.9513 388.612 89.2523 416.534 90.8371C444.456 92.422 443.675 73.4035 454.753 63.1021C470.387 71.4224 468.708 130.458 413.229 127.685Z" fill="url(#paint7_linear_3002_2)"/>
<path d="M640.916 40.9639C586.282 48.721 565.451 66.95 561.865 75.0949C555.317 78.327 543.716 80.68 549.704 64.2351C555.691 47.7901 613.006 41.8689 640.916 40.9639Z" fill="#5A2F30"/>
<path d="M640.346 123.183C601.925 84.94 574.414 79.2725 565.461 81.219C558.917 77.979 550.164 70.271 567.509 65.3596C584.854 60.4483 623.294 101.862 640.346 123.183Z" fill="#381D1A"/>
<path fill-rule="evenodd" clip-rule="evenodd" d="M392.699 178.387C396.86 180.179 400.494 182.644 402.607 184.401C403.457 185.107 403.573 186.368 402.867 187.217C402.161 188.067 400.9 188.183 400.051 187.477C398.192 185.932 394.881 183.682 391.117 182.061C387.308 180.42 383.341 179.554 380.017 180.355C378.943 180.614 377.863 179.954 377.604 178.88C377.345 177.806 378.006 176.726 379.08 176.467C383.646 175.366 388.583 176.614 392.699 178.387Z" fill="#EAC6B8"/>
<path d="M411.491 200.251C401.926 190.866 377.365 175.061 355.644 186.916C364.505 201.571 388.08 224.755 411.491 200.251Z" fill="white"/>
<mask id="mask0_3002_2" style="mask-type:alpha" maskUnits="userSpaceOnUse" x="355" y="182" width="57" height="29">
<path d="M411.49 200.25C401.925 190.866 377.365 175.061 355.643 186.916C364.504 201.571 388.079 224.755 411.49 200.25Z" fill="white"/>
</mask>
<g mask="url(#mask0_3002_2)">
<path d="M414.21 192.897C415.421 201.897 408.698 210.123 399.194 211.27C389.69 212.417 381.004 206.05 379.793 197.05C378.582 188.05 385.305 179.824 394.809 178.678C404.313 177.531 412.999 183.897 414.21 192.897Z" fill="#565E63"/>
</g>
<path d="M351.191 184.802C378.009 166.711 402.703 188.06 411.601 200.368C373.586 173.841 360.669 188.82 357.54 189.197C355.037 189.499 352.259 186.178 351.191 184.802Z" fill="#402020"/>
<path d="M347.492 180.132L352.013 185.969L363.201 182.257L347.492 180.132Z" fill="#402020"/>
<path d="M454.685 198.097C464.163 189.607 488.562 175.45 510.34 186.742C501.605 200.101 478.246 221.076 454.685 198.097Z" fill="white"/>
<mask id="mask1_3002_2" style="mask-type:alpha" maskUnits="userSpaceOnUse" x="454" y="182" width="57" height="27">
<path d="M454.685 198.097C464.163 189.607 488.562 175.45 510.34 186.742C501.605 200.101 478.246 221.076 454.685 198.097Z" fill="white"/>
</mask>
<g mask="url(#mask1_3002_2)">
<path d="M467.915 193.828C466.775 202.104 473.55 209.798 483.047 211.014C492.545 212.231 501.168 206.508 502.308 198.233C503.448 189.957 496.673 182.263 487.176 181.046C477.679 179.83 469.056 185.553 467.915 193.828Z" fill="#565E63"/>
</g>
<path d="M514.768 184.869C487.855 167.745 463.364 187.009 454.574 198.205C492.324 174.391 505.336 188.414 508.462 188.815C510.964 189.135 513.711 186.12 514.768 184.869Z" fill="#402020"/>
<path d="M518.43 180.583L514.752 184.789L502.71 182.666L518.43 180.583Z" fill="#402020"/>
<path fill-rule="evenodd" clip-rule="evenodd" d="M470.632 177.707C471.699 177.99 472.335 179.086 472.051 180.153C471.927 180.623 471.913 181.266 472.094 181.704C472.17 181.887 472.269 182.014 472.407 182.112C472.548 182.212 472.836 182.356 473.403 182.401C474.504 182.488 475.326 183.451 475.239 184.552C475.152 185.653 474.189 186.475 473.088 186.388C471.935 186.297 470.924 185.963 470.095 185.376C469.263 184.786 468.722 184.018 468.397 183.23C467.776 181.726 467.919 180.128 468.185 179.126C468.469 178.059 469.564 177.423 470.632 177.707Z" fill="#402020"/>
<path fill-rule="evenodd" clip-rule="evenodd" d="M392.846 176.915C391.779 177.199 391.143 178.294 391.427 179.362C391.551 179.831 391.565 180.475 391.384 180.912C391.308 181.095 391.209 181.223 391.071 181.32C390.93 181.42 390.642 181.564 390.075 181.609C388.974 181.696 388.152 182.659 388.239 183.76C388.326 184.861 389.289 185.684 390.39 185.597C391.543 185.506 392.554 185.171 393.383 184.584C394.215 183.995 394.756 183.226 395.081 182.439C395.702 180.935 395.559 179.337 395.293 178.335C395.009 177.267 393.914 176.632 392.846 176.915Z" fill="#402020"/>
<path fill-rule="evenodd" clip-rule="evenodd" d="M546.896 174.09C545.798 175.764 544.836 177.621 544.119 179.255C543.675 180.267 542.495 180.727 541.483 180.283C540.472 179.839 540.012 178.659 540.456 177.648C541.245 175.848 542.31 173.789 543.55 171.897C544.773 170.032 546.25 168.199 547.898 166.979C549.548 165.757 551.737 164.907 554.034 165.883C556.171 166.791 557.743 169.033 558.95 172.191C559.344 173.222 558.827 174.379 557.795 174.773C556.764 175.167 555.608 174.65 555.213 173.618C554.119 170.754 553.068 169.819 552.47 169.565C552.033 169.379 551.376 169.381 550.279 170.193C549.181 171.006 548.01 172.39 546.896 174.09Z" fill="#EAC6B8"/>
<path fill-rule="evenodd" clip-rule="evenodd" d="M557.343 187.959C558.438 188.104 559.209 189.109 559.064 190.204C558.635 193.438 557.552 198.461 555.668 203.122C553.833 207.661 551.021 212.414 546.82 214.343C544.355 215.475 542.258 215.739 540.42 215.57C538.928 215.432 537.632 214.997 536.693 214.682C536.527 214.626 536.372 214.575 536.229 214.529C535.156 214.184 534.807 214.191 534.548 214.288C534.256 214.397 533.578 214.825 532.517 216.686C531.97 217.646 530.748 217.98 529.789 217.432C528.829 216.885 528.495 215.664 529.042 214.704C530.241 212.603 531.515 211.15 533.15 210.54C534.817 209.919 536.369 210.372 537.453 210.72C537.66 210.787 537.859 210.853 538.052 210.917C538.987 211.227 539.795 211.495 540.788 211.586C541.904 211.689 543.3 211.558 545.151 210.708C547.853 209.467 550.178 206.032 551.96 201.623C553.692 197.337 554.704 192.653 555.098 189.679C555.243 188.584 556.248 187.814 557.343 187.959Z" fill="#EAC6B8"/>
<path d="M548.039 224.808C548.039 229.622 545.095 233.524 541.464 233.524C537.833 233.524 534.889 229.622 534.889 224.808C534.889 219.994 537.833 216.091 541.464 216.091C545.095 216.091 548.039 219.994 548.039 224.808Z" fill="#EAC78B"/>
<path d="M615.438 741.864C643.711 752.324 708.588 648.914 734.204 621.971C719.41 600.417 775.711 607.707 805.711 614.047C810.642 623.556 814.341 654.461 811.053 670.705C808.423 683.701 663.93 768.938 615.438 794.956V741.864Z" fill="#FFEDDC"/>
<path d="M535.063 286.221C523.885 282.417 527.392 236.826 530.542 214.506C497.995 268.391 521.912 285.56 537.94 287.409C541.638 288.598 546.241 290.024 535.063 286.221Z" fill="#5A2F30"/>
<path d="M348.489 267.202C337.311 263.399 340.818 217.808 343.968 195.488C311.42 249.373 335.338 266.542 351.366 268.391C355.064 269.58 359.667 271.006 348.489 267.202Z" fill="#5A2F30"/>
<path d="M641.328 472.442C625.876 470.857 606.122 526.59 600.643 552.873L654.889 595.267L678.314 522.76C669.437 521.492 650.917 488.158 641.328 472.442Z" fill="url(#paint8_linear_3002_2)"/>
<path d="M435.849 1360.35L480.643 1739.93L526.67 1829.87C538.04 1732.93 555.191 1536.99 532.834 1528.74C510.478 1520.5 476.67 1422.56 462.561 1374.62L435.849 1360.35Z" fill="#EAC79B"/>
<path d="M630.232 1501.01L692.286 1726.46L749.82 1757.76C760.25 1659.49 762.953 1586.98 752.697 1488.73H735.026C711.026 1490 677.629 1421.11 663.93 1386.5L639.273 1364.32L630.232 1386.5C647.328 1437.22 637.355 1483.97 630.232 1501.01Z" fill="#F6E6A3"/>
<path fill-rule="evenodd" clip-rule="evenodd" d="M483.621 701.019C483.859 699.94 484.927 699.26 486.006 699.499L546.827 712.97C547.906 713.209 548.586 714.277 548.347 715.355C548.109 716.433 547.041 717.114 545.962 716.875L485.141 703.404C484.062 703.165 483.382 702.097 483.621 701.019Z" fill="#E1B6A5"/>
<path fill-rule="evenodd" clip-rule="evenodd" d="M486.91 717.265C487.148 716.186 488.216 715.506 489.295 715.745L550.116 729.216C551.195 729.455 551.875 730.523 551.637 731.601C551.398 732.679 550.33 733.36 549.251 733.121L488.43 719.65C487.351 719.411 486.671 718.343 486.91 717.265Z" fill="#E1B6A5"/>
<path d="M650.78 1863.15C676.424 1829.55 733.519 1854.83 760.094 1871.47V1831.45C716.039 1808.95 675.711 1817.45 661.053 1824.72C648.56 1837.08 648.588 1856.81 650.78 1863.15Z" fill="#F6E6A3"/>
<path d="M575.162 1762.11C559.71 1757.04 533.382 1774.26 522.149 1783.51L519.683 1769.64C520.012 1758.55 552.697 1748.11 568.998 1744.28L575.162 1762.11Z" fill="#EAC79B"/>
<defs>
<filter id="filter0_f_3002_2" x="345.438" y="175.789" width="140.547" height="101.206" filterUnits="userSpaceOnUse" color-interpolation-filters="sRGB">
<feFlood flood-opacity="0" result="BackgroundImageFix"/>
<feBlend mode="normal" in="SourceGraphic" in2="BackgroundImageFix" result="shape"/>
<feGaussianBlur stdDeviation="15" result="effect1_foregroundBlur_3002_2"/>
</filter>
<linearGradient id="paint0_linear_3002_2" x1="475.917" y1="871.893" x2="475.917" y2="1236.74" gradientUnits="userSpaceOnUse">
<stop stop-color="#F4E3A1"/>
<stop offset="1" stop-color="#D48E5E"/>
</linearGradient>
<linearGradient id="paint1_linear_3002_2" x1="361.864" y1="367.443" x2="389.055" y2="528.247" gradientUnits="userSpaceOnUse">
<stop stop-color="#FCFCFC"/>
<stop offset="1" stop-color="#ECF4FF"/>
</linearGradient>
<linearGradient id="paint2_linear_3002_2" x1="425.986" y1="1203.45" x2="425.986" y2="641.625" gradientUnits="userSpaceOnUse">
<stop stop-color="#EBF3FF"/>
<stop offset="1" stop-color="white"/>
</linearGradient>
<linearGradient id="paint3_linear_3002_2" x1="555.026" y1="350.805" x2="590.634" y2="449.979" gradientUnits="userSpaceOnUse">
<stop stop-color="#F7F1AB"/>
<stop offset="1" stop-color="#DEA772"/>
</linearGradient>
<linearGradient id="paint4_linear_3002_2" x1="559.959" y1="355.558" x2="559.959" y2="414.99" gradientUnits="userSpaceOnUse">
<stop stop-color="#F2F7FE"/>
<stop offset="1" stop-color="#CBDCF3"/>
</linearGradient>
<linearGradient id="paint5_linear_3002_2" x1="653.245" y1="1162.25" x2="653.245" y2="760.487" gradientUnits="userSpaceOnUse">
<stop offset="0.549561" stop-color="#F2F7FF"/>
<stop offset="1" stop-color="white"/>
</linearGradient>
<linearGradient id="paint6_linear_3002_2" x1="432.767" y1="2.13611" x2="432.958" y2="117.434" gradientUnits="userSpaceOnUse">
<stop stop-color="#F2DD9D"/>
<stop offset="1" stop-color="#DB9E6B"/>
</linearGradient>
<linearGradient id="paint7_linear_3002_2" x1="421.466" y1="61.5671" x2="434.875" y2="128.327" gradientUnits="userSpaceOnUse">
<stop stop-color="#DBEBFF"/>
<stop offset="1" stop-color="#FBFCFD"/>
</linearGradient>
<linearGradient id="paint8_linear_3002_2" x1="639.273" y1="472.046" x2="693.139" y2="638.06" gradientUnits="userSpaceOnUse">
<stop stop-color="#F6E8A5"/>
<stop offset="1" stop-color="#DA9D6A"/>
</linearGradient>
</defs>
</svg>
