<svg width="965" height="629" viewBox="0 0 965 629" fill="none" xmlns="http://www.w3.org/2000/svg">
<path fill-rule="evenodd" clip-rule="evenodd" d="M291.939 1142.49C275.824 1162.66 244.748 1185.91 231.225 1195.01C256.286 1194.02 307.146 1190.2 310.097 1182.84C311.982 1178.14 310.976 1173.05 310.035 1168.29C309.135 1163.73 308.293 1159.47 310.097 1156.14C310.664 1155.09 311.386 1153.6 312.268 1151.79C317.116 1141.81 326.793 1121.9 342.156 1109.84C355.649 1099.26 388.41 1018.54 406.1 971.56C361.701 986.041 344.166 956.03 340.949 939.214C327.246 1016.79 305.459 1125.56 291.939 1142.49Z" fill="#F1C3A8"/>
<path d="M417.623 939.214C421.028 927.107 372.513 907.264 347.83 898.857C345.911 910.58 343.579 924.323 340.949 939.214C344.166 956.03 361.701 986.041 406.1 971.56C412.216 955.315 416.53 943.102 417.623 939.214Z" fill="#CB7E73"/>
<path fill-rule="evenodd" clip-rule="evenodd" d="M720.344 1165.04C723.596 1179.28 720.776 1182.84 723.181 1182.84C725.555 1182.84 729.717 1184.19 735.563 1186.09C743.689 1188.73 755.07 1192.42 769.426 1195.01C776.299 1196.25 780.621 1197.16 783.205 1197.83C783.497 1198.14 783.785 1198.45 784.067 1198.74C784.297 1198.99 784.524 1199.23 784.747 1199.46C786.781 1199.46 788.044 1199.08 783.205 1197.83C769.031 1182.82 742.764 1153.89 739.92 1146.34C737.435 1139.75 705.666 1018.47 682.707 930.312C671.663 971.381 636.825 966.416 620.786 958.799C647.727 1018.46 691.881 1098.84 704.456 1121.12C715.01 1139.81 717.092 1150.79 720.344 1165.04Z" fill="#F1C3A8"/>
<path d="M670.978 885.206L611.966 939.214C614.612 945.107 617.579 951.697 620.786 958.799C636.825 966.416 671.663 971.381 682.707 930.312C678.405 913.789 674.411 898.43 670.978 885.206Z" fill="#CB7E73"/>
<path d="M549.549 190.523C528.895 182.926 486.282 187.357 467.557 190.523C459.377 193.657 446.934 198.645 434.079 204.2C453.875 247.04 510.622 307.015 579.243 204.2C569.142 198.903 558.538 193.829 549.549 190.523Z" fill="#CB7E73"/>
<path fill-rule="evenodd" clip-rule="evenodd" d="M434.079 204.2C453.875 247.04 510.622 307.015 579.243 204.2C592.353 211.075 604.615 218.325 611.399 222.571C586.527 336.621 529.803 568.044 501.886 581.338C466.989 597.956 409.963 566.204 408.545 542.464C408.324 538.768 407.691 534.637 406.772 530.286C405.99 526.586 405.001 522.725 403.882 518.838C403.1 516.124 402.256 513.397 401.374 510.701C397.374 498.471 392.61 486.889 389.536 480.147C387.172 478.664 380.968 474.034 375.067 467.387C371.183 463.013 368.636 452.717 366.681 444.812C364.923 437.703 365.062 431.044 363.718 433.855L348.398 369.461C344.029 411.446 333.931 496.92 327.31 515.128C327.055 515.737 326.803 516.343 326.553 516.944C323.295 524.765 320.435 531.843 318.324 537.419C307.543 565.907 276.335 552.257 272.079 537.419C268.853 526.171 270.029 498.211 271.158 471.378C271.518 462.816 271.873 454.368 272.079 446.615C272.676 424.145 271.739 422.243 266.725 412.068C264.588 407.73 261.709 401.889 257.894 392.31C246.879 364.661 248.957 343.196 251.192 320.103C251.548 316.429 251.908 312.713 252.219 308.925C254.489 281.327 314.636 262.929 336.765 257.587C352.742 253.731 362.36 246.472 374.267 237.485C378.853 234.024 383.778 230.307 389.536 226.429C399.01 220.049 416.912 211.619 434.079 204.2Z" fill="#F1C3A8"/>
<path d="M363.718 433.855L348.398 369.461C344.029 411.446 333.931 496.92 327.31 515.128C340.681 483.15 361.479 438.539 363.718 433.855Z" fill="#CB7E73"/>
<path fill-rule="evenodd" clip-rule="evenodd" d="M649.983 252.543C663.318 258.181 691.973 272.187 699.917 283.108C700.529 283.95 701.274 284.936 702.125 286.063C715.07 303.203 752.709 353.039 727.153 428.217C722.341 430.927 716.943 432.762 711.265 433.92C706.034 434.987 700.564 435.478 695.094 435.548C692.628 435.58 690.162 435.526 687.717 435.401C685.905 435.308 684.106 435.176 682.327 435.01C669.258 433.793 657.306 430.77 649.983 428.217V252.543ZM649.983 457.595V470.651C649.983 476.602 653.659 490.243 657.385 504.068C660.905 517.129 664.469 530.356 665.02 537.419C666.155 551.96 711.833 556.708 720.344 537.419C728.855 518.131 723.465 480.147 720.344 459.078C713.997 463.504 705.53 465.392 696.512 465.728C691.858 465.902 687.058 465.661 682.327 465.143C680.032 464.891 677.754 464.574 675.518 464.207C674.177 463.987 672.851 463.75 671.546 463.497C663.01 461.846 655.329 459.57 649.983 457.595Z" fill="#F1C3A8"/>
<path d="M696.512 465.728L711.265 433.92C706.034 434.987 700.564 435.478 695.094 435.548L682.327 465.143C687.058 465.661 691.858 465.902 696.512 465.728Z" fill="#F4DE85"/>
<path fill-rule="evenodd" clip-rule="evenodd" d="M720.344 459.078C718.285 445.176 721.939 438.259 725.193 432.099C725.884 430.79 726.557 429.516 727.153 428.217C722.341 430.927 716.943 432.762 711.265 433.92L696.512 465.728C705.53 465.392 713.997 463.504 720.344 459.078ZM687.717 435.401C690.162 435.526 692.628 435.58 695.094 435.548L682.327 465.143C680.032 464.891 677.754 464.574 675.518 464.207L687.717 435.401ZM682.327 435.01C669.258 433.793 657.306 430.77 649.983 428.217V457.595C655.329 459.57 663.01 461.846 671.546 463.497L682.327 435.01Z" fill="#E19059"/>
<path d="M675.518 464.207L687.717 435.401C685.905 435.308 684.106 435.176 682.327 435.01L671.546 463.497C672.851 463.75 674.177 463.987 675.518 464.207Z" fill="#F4DE85"/>
<path d="M406.772 530.286C405.99 526.586 405.001 522.725 403.882 518.838L401.374 510.701C397.144 513.075 387.153 517.585 381.025 516.636C374.896 515.686 387.172 525.34 394.075 530.286H406.772Z" fill="#686349"/>
<path d="M499.332 330.588C489.414 331.082 484.579 333.852 463.585 327.323C476.919 334.445 493.067 397.413 498.765 433.559C496.516 408.501 517.49 334.742 530.824 327.323C511.532 334.742 511.248 329.994 499.332 330.588Z" fill="#E9A196"/>
<path d="M349.769 366.299C349.497 365.228 348.409 364.58 347.338 364.852C346.267 365.124 345.62 366.212 345.892 367.283L349.769 366.299ZM367.123 447.803L365.137 448.04L367.123 447.803ZM441.858 488.376C442.961 488.31 443.801 487.363 443.735 486.26C443.669 485.158 442.722 484.317 441.62 484.383L441.858 488.376ZM438.618 260.259L439.644 261.975L438.618 260.259ZM297.525 395.269C296.7 394.534 295.436 394.607 294.701 395.432C293.967 396.256 294.039 397.521 294.864 398.255L297.525 395.269ZM284.182 492.493C283.461 493.33 283.555 494.593 284.392 495.314C285.229 496.035 286.492 495.94 287.213 495.103L284.182 492.493ZM329.483 415.446C329.969 414.454 329.558 413.256 328.565 412.77C327.573 412.285 326.375 412.696 325.89 413.688L329.483 415.446ZM309.521 486.531C309.605 487.633 310.566 488.458 311.667 488.374C312.768 488.29 313.593 487.329 313.509 486.228L309.521 486.531ZM463.585 327.323L464.179 325.414C463.194 325.107 462.137 325.6 461.739 326.552C461.342 327.504 461.733 328.602 462.642 329.088L463.585 327.323ZM499.332 330.588L499.233 328.59L499.332 330.588ZM530.824 327.323L531.797 329.071C532.714 328.561 533.081 327.427 532.636 326.476C532.191 325.525 531.087 325.08 530.107 325.457L530.824 327.323ZM499.332 438.307L497.384 438.758L501.31 438.008L499.332 438.307ZM345.892 367.283C348.917 379.198 353.511 397.544 357.462 413.858C361.435 430.263 364.701 444.394 365.137 448.04L369.108 447.565C368.636 443.615 365.283 429.159 361.349 412.917C357.394 396.584 352.796 378.222 349.769 366.299L345.892 367.283ZM365.137 448.04C365.755 453.211 368.906 460.703 373.176 467.289C375.329 470.611 377.816 473.779 380.495 476.366C383.159 478.938 386.106 481.028 389.192 482.047L390.447 478.249C388.142 477.488 385.699 475.831 383.274 473.488C380.864 471.161 378.563 468.245 376.532 465.113C372.432 458.79 369.625 451.89 369.108 447.565L365.137 448.04ZM389.192 482.047C394.802 483.9 405.489 485.623 415.871 486.809C426.266 487.996 436.703 488.684 441.858 488.376L441.62 484.383C436.844 484.669 426.713 484.021 416.325 482.835C405.926 481.647 395.618 479.957 390.447 478.249L389.192 482.047ZM312.617 266.675C315.885 264.517 326.265 259.885 340.17 259.885V255.885C325.477 255.885 314.332 260.749 310.413 263.338L312.617 266.675ZM340.17 259.885C348.93 259.885 356.58 261.119 364.162 262.273C371.709 263.422 379.202 264.494 387.378 264.036L387.154 260.042C379.442 260.474 372.325 259.47 364.764 258.319C357.238 257.173 349.284 255.885 340.17 255.885V259.885ZM387.378 264.036C395.252 263.595 406.997 263.743 417.418 263.705C422.597 263.687 427.448 263.622 431.264 263.41C433.169 263.304 434.856 263.16 436.216 262.959C437.473 262.773 438.768 262.499 439.644 261.975L437.592 258.542C437.596 258.539 437.559 258.562 437.458 258.6C437.361 258.637 437.227 258.68 437.05 258.727C436.693 258.821 436.222 258.914 435.63 259.002C434.445 259.177 432.896 259.313 431.042 259.416C427.339 259.622 422.579 259.687 417.403 259.705C407.113 259.742 395.168 259.593 387.154 260.042L387.378 264.036ZM439.644 261.975C439.835 261.862 440.512 261.689 441.97 261.853C443.315 262.004 444.963 262.396 446.74 262.942C450.286 264.032 454.076 265.651 456.474 266.808L458.212 263.206C455.692 261.989 451.708 260.284 447.915 259.119C446.024 258.537 444.111 258.068 442.416 257.878C440.833 257.7 438.99 257.706 437.592 258.542L439.644 261.975ZM294.864 398.255C298.507 401.501 300.68 404.488 301.996 408.382C303.34 412.362 303.841 417.431 303.841 424.953H307.841C307.841 417.341 307.348 411.728 305.785 407.101C304.193 402.39 301.543 398.848 297.525 395.269L294.864 398.255ZM303.841 424.953C303.841 446.262 301.397 460.231 297.754 470.294C294.126 480.317 289.267 486.588 284.182 492.493L287.213 495.103C292.435 489.039 297.648 482.338 301.515 471.656C305.367 461.013 307.841 446.544 307.841 424.953H303.841ZM325.89 413.688C322.713 420.182 318.115 431.548 314.564 444.676C311.016 457.789 308.475 472.8 309.521 486.531L313.509 486.228C312.512 473.134 314.936 458.618 318.425 445.721C321.91 432.839 326.418 421.712 329.483 415.446L325.89 413.688ZM560.819 269.819C564.791 268.157 571.316 265.657 577.932 263.576C584.626 261.471 591.144 259.885 595.227 259.885V255.885C590.459 255.885 583.405 257.662 576.732 259.76C569.981 261.884 563.341 264.428 559.275 266.129L560.819 269.819ZM595.227 259.885C603.715 259.885 610.71 262.556 612.999 263.797L614.906 260.281C612.087 258.753 604.442 255.885 595.227 255.885V259.885ZM462.991 329.233C473.606 332.534 480.263 333.524 485.588 333.589C488.24 333.621 490.521 333.423 492.722 333.193C494.94 332.962 497.023 332.705 499.432 332.585L499.233 328.59C496.683 328.717 494.442 328.992 492.307 329.215C490.156 329.439 488.056 329.619 485.636 329.589C480.816 329.53 474.558 328.641 464.179 325.414L462.991 329.233ZM499.432 332.585C502.264 332.444 504.396 332.619 506.324 332.856C508.206 333.086 510.133 333.415 512.219 333.513C516.576 333.716 521.763 332.951 531.542 329.19L530.107 325.457C520.594 329.115 515.993 329.685 512.405 329.517C510.519 329.429 508.936 329.146 506.811 328.885C504.731 328.63 502.359 328.434 499.233 328.59L499.432 332.585ZM462.642 329.088C463.896 329.757 465.387 331.215 467.052 333.596C468.69 335.941 470.381 339.013 472.093 342.689C475.514 350.037 478.93 359.605 482.125 370.138C488.513 391.195 493.954 415.883 496.789 433.87L500.741 433.247C497.878 415.088 492.397 390.22 485.953 368.977C482.732 358.359 479.253 348.591 475.719 341C473.952 337.206 472.15 333.908 470.33 331.305C468.537 328.738 466.607 326.67 464.527 325.559L462.642 329.088ZM500.757 433.38C500.219 427.39 501.068 418.296 502.92 407.778C504.764 397.307 507.573 385.579 510.869 374.392C514.167 363.198 517.938 352.595 521.693 344.358C523.572 340.237 525.426 336.753 527.192 334.098C528.995 331.385 530.563 329.757 531.797 329.071L529.852 325.576C527.752 326.744 525.748 329.044 523.861 331.883C521.935 334.779 519.981 338.471 518.054 342.699C514.196 351.162 510.363 361.956 507.032 373.261C503.7 384.573 500.854 396.447 498.981 407.085C497.116 417.676 496.186 427.199 496.773 433.738L500.757 433.38ZM501.31 438.008C501.232 437.492 501.143 436.662 501.044 435.745C500.95 434.87 500.845 433.912 500.741 433.247L496.789 433.87C496.876 434.417 496.969 435.264 497.067 436.175C497.161 437.044 497.261 437.983 497.355 438.605L501.31 438.008ZM496.773 433.738C496.878 434.907 497.093 437.501 497.384 438.758L501.281 437.856C501.07 436.946 500.879 434.739 500.757 433.38L496.773 433.738Z" fill="#E9A196"/>
<path fill-rule="evenodd" clip-rule="evenodd" d="M361.45 248.982C366.273 243.937 403.155 221.681 414.22 214.559C423.072 208.861 448.171 199.722 459.614 195.864L468.693 182.51L463.586 148.384L454.224 76.2751C455.358 87.3536 455.415 112.241 446.563 123.161C441.917 128.894 435.919 130.596 430.335 132.181C422.623 134.371 415.701 136.336 414.22 148.384C413.023 158.122 410.455 161.73 408.18 164.924C405.603 168.544 403.404 171.633 404.007 182.51C404.263 187.143 404.767 191.319 405.212 195.01C406.734 207.63 407.569 214.559 395.495 214.559C383.012 214.559 386.322 202.096 389.537 195.864C384.809 200.113 376.77 210.75 382.444 219.307C388.119 227.863 374.784 231.774 367.408 232.66C363.247 233.191 354.357 236.309 352.087 244.53C349.873 252.552 337.482 258.059 331.125 259.959C343.138 256.467 357.215 253.411 361.45 248.982ZM430.959 136.811C427.082 136.811 419.611 138.354 420.746 144.527C421.88 150.699 428.027 141.955 430.959 136.811Z" fill="#A47250"/>
<path fill-rule="evenodd" clip-rule="evenodd" d="M479.758 6.83638C486.113 9.92255 494.7 8.12228 498.199 6.83638C500.185 6.83638 504.894 6.24289 507.845 3.86893C511.533 0.901486 561.467 -6.51719 579.057 17.816C587.302 29.2224 585.449 41.8024 583.665 53.9056C581.644 67.6222 579.713 80.7264 592.675 90.8157C612.194 106.009 628.044 97.1462 633.529 90.8157C633.303 108.858 620.195 113.962 613.67 114.259C628.517 117.226 659.688 125.891 665.589 136.811C672.902 150.344 661.253 160.086 658.288 162.565L658.212 162.628C655.375 165.002 647.431 178.356 665.589 178.356C680.115 178.356 687.151 166.288 688.853 160.254C688.38 162.035 686.811 168.148 684.314 178.356C681.817 188.564 665.873 191.512 658.212 191.709C665.684 195.468 680.796 204.826 681.477 212.185C682.21 220.105 673.69 229.564 668.047 235.829C667.136 236.841 666.299 237.77 665.589 238.595C660.482 244.53 668.142 253.433 684.314 261.445C697.251 267.855 697.459 278.557 695.946 283.107L661.617 265.506C660.507 259.998 656.116 247.735 647.431 242.75C638.781 237.784 641.034 229.427 643.312 220.981C643.892 218.828 644.475 216.669 644.878 214.559C646.864 204.173 629.558 195.01 620.762 200.018C611.967 205.027 596.931 182.51 609.13 170.584C618.89 161.044 620.952 151.809 620.762 148.384C618.398 153.111 610.322 162.103 596.931 160.254C584.468 158.534 585.059 155.756 587.228 145.558C587.972 142.058 588.902 137.685 589.554 132.181C591.246 117.907 585.216 115.852 576.58 112.91C572.182 111.411 567.108 109.682 562.034 105.991C550.005 97.2412 545.673 80.7541 545.011 73.6044L531.677 190.588L463.586 148.384L454.224 76.2751C455.358 87.3536 455.415 112.241 446.563 123.161C441.917 128.894 435.919 130.596 430.335 132.181C422.623 134.371 415.701 136.336 414.22 148.384C413.023 158.122 410.455 161.73 408.18 164.924C405.603 168.544 403.404 171.633 404.007 182.51C404.263 187.143 404.767 191.319 405.212 195.01C406.734 207.63 407.569 214.559 395.495 214.559C383.012 214.559 386.322 202.096 389.537 195.864C384.809 200.113 376.77 210.75 382.444 219.307C388.119 227.863 374.784 231.774 367.408 232.66C363.247 233.191 354.357 236.309 352.087 244.53C349.873 252.552 337.482 258.059 331.125 259.959C330.967 260.007 330.811 260.052 330.66 260.095C329.154 260.536 327.682 260.985 326.269 261.445C313.502 265.599 307.828 264.116 303.856 257.29C300.679 251.83 287.023 242.552 280.592 238.595C298.144 245.567 321.263 239.618 337.551 235.427C342.063 234.266 346.05 233.24 349.25 232.66C364.003 229.99 373.366 212.185 369.677 202.986C368.155 199.189 361.317 202.974 353.671 207.207C342.79 213.23 330.273 220.159 329.107 207.437C327.489 189.792 333.401 182.385 337.029 177.839C337.855 176.804 338.563 175.917 339.036 175.092C339.853 173.667 344.04 172.152 348.371 170.584C357.575 167.253 367.431 163.685 346.98 160.254C322.922 156.219 318.42 140.174 319.177 132.657C319.36 139.388 324.311 141.009 331.171 143.255C334.895 144.474 339.183 145.878 343.576 148.384C351.429 152.865 358.721 147.128 366.228 141.222C370.654 137.739 375.156 134.198 379.891 132.657C392.658 128.502 389.253 124.645 379.891 114.259C376.11 110.064 372.467 107.999 368.926 105.991C363.7 103.029 358.694 100.191 353.789 90.8157C345.562 75.0881 364.571 61.7345 379.891 55.7996C389.864 51.9363 403.443 54.4856 414.994 56.6542C421.188 57.8172 426.8 58.8706 430.959 58.767C441.814 58.4967 437.13 51.5779 432.35 44.5156L432.349 44.5143C431.882 43.8242 431.414 43.1327 430.959 42.446C426.964 36.4099 430.956 31.1003 438.997 20.4072C441.234 17.4323 443.784 14.0406 446.563 10.1006C457.606 -5.55649 468.437 0.543601 476.301 4.97306C477.529 5.66461 478.685 6.31543 479.758 6.83638ZM430.959 136.811C427.082 136.811 419.611 138.354 420.746 144.527C421.88 150.699 428.027 141.955 430.959 136.811Z" fill="#EBAA7F"/>
<path d="M531.677 190.588L609.13 238.595L661.617 265.506C660.507 259.998 656.116 247.735 647.431 242.75C638.781 237.784 641.034 229.427 643.312 220.981C643.892 218.828 644.475 216.669 644.878 214.559C646.864 204.173 629.558 195.01 620.762 200.018C611.967 205.027 596.931 182.51 609.13 170.584C618.89 161.044 620.952 151.809 620.762 148.384C618.398 153.111 610.322 162.103 596.931 160.254C584.468 158.534 585.059 155.756 587.228 145.558C587.972 142.058 588.902 137.685 589.554 132.181C591.246 117.907 585.216 115.852 576.58 112.91C572.182 111.411 567.108 109.682 562.034 105.991C550.005 97.2412 545.673 80.7541 545.011 73.6044L531.677 190.588Z" fill="#A47250"/>
<path d="M583.596 55.2058C587.379 53.1286 595.398 46.7189 597.214 37.6978C599.484 26.4214 629.274 32.6531 611.4 45.1164C597.101 55.0871 586.906 55.9971 583.596 55.2058C578.489 46.2045 570.488 27.7271 579.34 25.8279C588.192 23.9287 585.866 44.6219 583.596 55.2058Z" fill="#597C62"/>
<path d="M593.31 32.1821C595.981 29.1809 601.096 20.8961 600.185 11.7664C599.047 0.354169 626.257 -1.63295 614.359 15.0856C604.841 28.4604 596.36 32.0561 593.31 32.1821C586.477 24.9208 574.576 9.35187 581.637 5.16706C588.697 0.982245 592.361 21.4334 593.31 32.1821Z" fill="#597C62"/>
<path d="M426.168 55.2815C423.051 53.1938 416.443 46.7516 414.946 37.6848C413.076 26.3513 388.528 32.6145 403.257 45.141C415.04 55.1622 423.441 56.0768 426.168 55.2815C430.376 46.2346 436.969 27.6636 429.675 25.7548C422.381 23.846 424.298 44.6439 426.168 55.2815Z" fill="#597C62"/>
<path d="M418.164 32.1412C415.962 29.1248 411.747 20.798 412.498 11.622C413.436 0.152043 391.014 -1.84514 400.818 14.9581C408.662 28.4006 415.65 32.0145 418.164 32.1412C423.794 24.843 433.601 9.19531 427.783 4.98931C421.965 0.783301 418.946 21.338 418.164 32.1412Z" fill="#597C62"/>
<path d="M583.596 563.533L389.537 580.448C408.167 601.22 456.663 640.272 501.603 630.301C546.543 620.33 574.99 581.635 583.596 563.533Z" fill="#B0AB93"/>
<path d="M422.731 646.622C455.358 668.68 530.428 699.562 569.694 646.622C618.776 580.448 544.727 740.394 523.165 755.528C501.603 770.662 441.74 727.634 440.321 713.093C439.614 705.841 452.529 708.85 466.815 712.179C481.171 715.524 496.911 719.191 501.603 713.093C506.223 707.09 487.631 698.413 466.52 688.559C444.848 678.445 420.521 667.091 415.922 656.118C408.659 638.788 417.435 642.567 422.731 646.622Z" fill="#B0AB93"/>
<path fill-rule="evenodd" clip-rule="evenodd" d="M372.23 611.013C398.994 701.916 460.919 886.987 494.51 900.044C536.5 916.365 626.153 684.903 627.288 678.968C628.195 674.22 598.538 600.033 583.596 563.533C574.99 581.635 546.543 620.33 501.603 630.301C456.663 640.272 408.167 601.22 389.537 580.448L372.23 611.013ZM422.731 646.622C455.358 668.68 530.428 699.562 569.694 646.622C618.776 580.448 544.727 740.394 523.165 755.528C501.603 770.662 441.74 727.634 440.321 713.093C439.614 705.841 452.529 708.85 466.815 712.179C481.171 715.524 496.911 719.191 501.603 713.093C506.223 707.09 487.631 698.413 466.52 688.559C444.848 678.445 420.521 667.091 415.922 656.118C408.659 638.788 417.435 642.567 422.731 646.622ZM501.603 825.264C536.556 825.976 563.641 741.878 572.815 699.74C574.895 692.816 579.056 680.886 579.056 688.559C579.056 698.151 569.694 766.211 560.048 797.073C550.837 826.542 532.528 846.629 501.603 838.32C476.863 831.673 491.295 826.846 501.603 825.264Z" fill="#EFE8DF"/>
<path d="M572.815 699.74C563.641 741.878 536.556 825.976 501.603 825.264C491.295 826.846 476.863 831.673 501.603 838.32C532.528 846.629 550.837 826.542 560.048 797.073C569.694 766.211 579.056 698.151 579.056 688.559C579.056 680.886 574.895 692.816 572.815 699.74Z" fill="#B0AB93"/>
<path d="M453.373 75.6828C454.886 94.18 457.685 132.717 456.778 138.89C455.643 146.605 478.623 168.564 482.595 179.247C485.773 187.794 494.108 188.704 499.593 187.913C505.136 188.455 516.935 187.374 519.779 178.708C523.334 167.875 545.529 144.942 544.074 137.298C542.91 131.183 544.15 92.6238 544.916 74.1085L496.781 42.1504L453.373 75.6828Z" fill="#F1C3A8"/>
<path d="M491.105 131.768C496.552 127.732 499.332 128.949 500.184 130.136V132.658C499.616 133.449 498.538 135.507 497.63 138.593C496.495 142.451 492.807 144.528 489.402 149.573C485.998 154.617 485.431 152.837 483.728 158.475C482.026 164.113 493.374 170.048 496.495 164.113C498.992 159.365 499.9 161.541 500.751 163.223V187.594V230.584C501.205 236.044 487.511 239.586 483.161 241.267C486.565 238.893 483.445 234.442 475.217 227.914C466.989 221.385 452.236 213.967 448.548 202.393C444.86 190.82 451.953 196.162 459.896 189.93C467.84 183.698 459.896 176.576 456.208 170.048C452.52 163.52 457.627 161.739 459.896 153.43C462.166 145.121 466.989 146.605 478.054 143.934C489.119 141.264 484.296 136.812 491.105 131.768Z" fill="#EBAA7F"/>
<path d="M509.243 131.633C503.623 127.847 500.987 128.912 500.184 130.136V132.658C500.784 133.423 501.952 135.701 502.987 138.743C504.282 142.545 508.06 144.455 511.676 149.341C515.291 154.227 515.787 152.423 517.722 157.978C519.657 163.534 508.535 169.97 505.167 164.182C502.472 159.552 501.535 161.505 500.751 163.223V187.594V230.584C500.519 236.058 517.248 239.163 521.673 240.648C518.167 238.429 521.11 233.843 529.083 226.954C537.056 220.064 551.527 211.993 554.748 200.268C557.969 188.544 551.084 194.197 542.874 188.328C534.664 182.46 542.328 174.991 545.755 168.304C549.182 161.618 543.995 160.069 541.382 151.872C538.77 143.674 534 145.372 522.81 143.201C511.62 141.029 516.269 136.367 509.243 131.633Z" fill="#EBAA7F"/>
<path d="M493.659 97.6393C494.037 97.7382 494.567 98.5295 493.659 100.904C492.524 103.871 489.687 108.916 490.822 113.96C491.729 117.996 492.335 120.192 492.524 120.786C491.956 121.676 490.822 123.694 490.822 124.643C490.822 125.83 492.24 127.017 493.659 127.017C495.077 127.017 495.077 125.237 495.928 125.533C496.609 125.771 499.238 127.017 500.468 127.611C501.639 126.962 503.663 126.142 504.316 125.874C505.132 125.539 505.205 127.325 506.584 127.263C507.964 127.201 509.295 125.949 509.246 124.759C509.207 123.806 508.021 121.832 507.432 120.964C507.592 120.361 508.09 118.132 508.808 114.045C509.705 108.936 506.738 104.001 505.513 101.074C504.532 98.7326 505.015 97.9159 505.379 97.8003C503.035 94.5659 501.035 94.3751 499.986 94.3751C498.737 94.3751 495.928 94.3157 493.659 97.6393Z" fill="url(#paint0_linear_323_1931)"/>
<path fill-rule="evenodd" clip-rule="evenodd" d="M457.628 86.3636C460.181 85.5723 466.139 84.2864 469.544 85.4734C471.37 86.1102 473.301 87.7311 475.315 89.4209C477.992 91.668 480.814 94.037 483.729 94.3758C488.836 94.9693 493.943 94.6725 493.375 90.5181C493.23 89.456 492.727 88.339 492.017 87.2539C492.292 88.6783 491.713 90.0235 491.389 90.5181C491.843 89.331 490.633 86.166 489.971 84.7318C487.982 82.6762 485.621 81.0716 484.297 80.7254C482.027 80.132 472.097 78.3515 464.437 80.7254C458.309 82.6246 457.344 85.2756 457.628 86.3636Z" fill="#EBAA7F"/>
<path fill-rule="evenodd" clip-rule="evenodd" d="M540.758 84.622C538.18 83.9271 532.188 82.8785 528.845 84.2436C527.051 84.976 525.194 86.719 523.258 88.536C520.684 90.9523 517.97 93.4997 515.079 93.976C510.014 94.8104 504.912 94.7349 505.303 90.4631C505.404 89.371 505.858 88.2068 506.521 87.066C506.306 88.5342 506.939 89.8834 507.283 90.3745C506.781 89.1814 507.855 85.8922 508.455 84.3968C510.35 82.2069 512.637 80.4614 513.942 80.0485C516.18 79.3407 526.002 77.0778 533.736 79.1627C539.923 80.8306 540.995 83.4972 540.758 84.622Z" fill="#EBAA7F"/>
<path fill-rule="evenodd" clip-rule="evenodd" d="M477.488 97.3433C474.537 97.1059 466.99 101.003 463.586 102.981C465.364 104.516 467.179 105.673 468.976 106.527C472.381 102.149 480.041 96.3092 483.446 107.979C484.706 107.656 485.767 107.247 486.566 106.839C484.864 102.981 481.176 97.6401 477.488 97.3433Z" fill="#D9D9D9"/>
<path d="M483.446 107.979C479.792 108.916 474.463 109.134 468.976 106.527C472.381 102.149 480.041 96.3092 483.446 107.979Z" fill="#4D88A8"/>
<path fill-rule="evenodd" clip-rule="evenodd" d="M521.514 96.313C524.488 95.9301 532.289 99.6818 535.817 101.605C534.084 103.298 532.299 104.595 530.517 105.574C526.886 101.129 518.887 95.3425 515.945 107.753C514.657 107.471 513.566 107.09 512.74 106.697C514.296 102.569 517.796 96.7917 521.514 96.313Z" fill="#D9D9D9"/>
<path d="M515.945 107.753C519.681 108.572 525.08 108.56 530.517 105.574C526.886 101.129 518.887 95.3425 515.945 107.753Z" fill="#4D88A8"/>
<path d="M462.451 103.279C465.856 101.795 472.211 97.5816 477.204 97.3442C482.198 97.1068 484.864 103.873 486.567 107.137M536.958 101.735C533.454 100.363 526.853 96.3152 521.796 96.2969C516.738 96.2786 514.327 103.359 512.744 106.794" stroke="#E89F94" stroke-width="3" stroke-linecap="round"/>
<path d="M496.211 149.867H501.318L504.856 150.022C505.721 150.401 507.514 150.761 509.156 151.028C507.776 149.665 504.551 146.522 502.737 146.603L501.318 146.603H498.197C496.382 146.603 493.28 149.627 491.956 151.14C493.585 150.779 495.362 150.312 496.211 149.867Z" fill="#E9A196"/>
<path d="M488.551 151.65C490.915 151.353 495.076 150.463 496.211 149.869C497.44 150.067 498.481 150.147 499.749 150.147C501.034 150.166 503.914 150.159 505.135 149.906C506.293 150.448 510.486 151.152 512.86 151.342" stroke="#AE5143" stroke-linecap="round"/>
<ellipse cx="7.68201" cy="14.7986" rx="7.68201" ry="14.7986" transform="matrix(0.966477 -0.256752 0.235974 0.971759 455.641 116.422)" fill="#E9A196"/>
<ellipse cx="7.6996" cy="14.7771" rx="7.6996" ry="14.7771" transform="matrix(-0.947511 -0.319723 -0.29474 0.955577 544.766 117.402)" fill="#E9A196"/>
<ellipse cx="11.9468" cy="4.14459" rx="11.9468" ry="4.14459" transform="matrix(0.969494 -0.245117 0.225172 0.974319 400.568 471.025)" fill="#E9A196"/>
<path d="M395.211 527.033C513.008 525.134 575.936 314.167 592.675 208.921C623.769 200.137 630.408 221.483 629.841 233.254C635.137 235.529 647.034 241.979 652.254 249.575C658.779 259.071 683.462 338.006 674.1 414.863C664.737 491.721 587 567.688 563.169 586.976C539.337 606.265 404.29 606.265 382.16 576.293C377.816 570.409 375.683 564.834 375.112 559.675C373.355 543.811 386.362 531.885 395.211 527.033Z" fill="#EFE8DF"/>
<path d="M657.077 406.851C652.444 429.701 629.387 486.498 574.234 530.892C546.648 553.095 512.945 563.703 482.027 567.944C513.803 561.078 538.202 534.749 603.172 438.01C655.148 360.618 660.766 384.991 657.077 406.851Z" fill="#B0AB93"/>
<path d="M523.165 477.477C521.804 474.628 514.654 478.664 511.25 481.038C502.94 491.957 487.756 509.571 470.679 524.766C488.742 510.19 524.527 480.326 523.165 477.477Z" fill="#B0AB93"/>
<path d="M622.181 212.779C624.829 214.56 630.125 221.266 630.125 233.848M630.125 233.848C630.125 237.404 628.356 245.418 625.372 256.104M630.125 233.848C638.542 247.598 656.397 284.77 660.482 323.466C665.589 371.835 667.575 380.441 667.575 392.014M574.234 388.156C590.702 360.597 615.157 292.69 625.372 256.104M625.372 256.104C625.159 301.21 614.634 402.4 574.234 446.319M406.56 566.798C423.01 570.061 451.128 572.182 482.027 567.944M482.027 567.944C512.945 563.703 546.648 553.095 574.234 530.892C629.387 486.498 652.444 429.701 657.077 406.851C660.766 384.991 655.148 360.618 603.172 438.01C538.202 534.749 513.803 561.078 482.027 567.944ZM376.486 552.257C380.742 556.115 396.914 561.516 427.554 552.257C441.368 548.083 456.661 537.24 470.679 524.766M470.679 524.766C487.756 509.571 502.94 491.957 511.25 481.038C514.654 478.664 521.804 474.628 523.165 477.477C524.527 480.326 488.742 510.19 470.679 524.766Z" stroke="#B0AB93" stroke-width="6" stroke-linecap="round"/>
<path fill-rule="evenodd" clip-rule="evenodd" d="M362.867 514.571C370.338 513.285 387.323 513.978 395.494 527.035C377.582 534.121 356.625 553.445 375.634 594.99C381.221 607.201 351.883 604.881 334.212 597.067C331.659 596.177 326.609 592.972 326.836 587.274C326.859 586.696 326.855 585.768 326.851 584.549C326.805 570.736 326.631 519.479 362.867 514.571Z" fill="#EFE8DF"/>
<path d="M392.94 585.197C361.619 556.947 381.592 534.651 395.494 527.035C377.582 534.121 356.625 553.445 375.634 594.99C381.221 607.201 351.883 604.881 334.212 597.067C335.063 602.705 347.546 616.059 373.081 613.388C379.762 612.689 384.4 610.341 387.55 607.201C394.03 600.739 394.213 590.921 392.94 585.197Z" fill="#B0AB93"/>
<path d="M386.699 519.912C372.419 521 342.554 539.201 343.008 579.558M337.901 600.33C325.417 567.985 349.703 546.606 353.789 541.858M377.621 610.42C373.176 610.815 356.626 598.55 356.626 559.083" stroke="#B0AB93" stroke-width="6" stroke-linecap="round"/>
<path d="M614.238 533.859C565.155 625.851 450.536 602.408 393.51 584.306C383.485 578.668 366.897 562.11 380.743 540.981" stroke="#686349" stroke-width="8" stroke-linecap="round"/>
<path fill-rule="evenodd" clip-rule="evenodd" d="M276.052 581.339C300.167 571.843 311.516 561.457 315.204 543.652C318.892 525.847 312.098 509.197 281.726 503.591C272.08 501.81 258.745 507.634 247.964 513.977C240.428 518.411 236.888 523.366 233.451 528.178C230.677 532.061 227.969 535.852 223.281 539.2C221.114 540.749 218.786 542.228 216.328 543.652C239.735 543.243 278.832 551.984 247.964 590.221C260.738 586.394 271.23 583.237 276.052 581.339Z" fill="#F1C3A8"/>
<path d="M154.623 570.952L170.795 616.651C187.086 608.457 221.179 598.244 246.75 590.584L247.964 590.221C278.832 551.984 239.735 543.243 216.328 543.652C198.604 553.919 174.14 561.31 154.623 570.952Z" fill="#CB7E73"/>
<path d="M174.767 448.098L0 300.021L115.187 430.887L17.3064 448.098L297.33 693.804L245.978 709.532L442.591 885.799L290.521 730.304L361.733 701.816L87.9507 465.309L174.767 448.098Z" fill="#FDC986"/>
<path d="M115.351 560.551C122.395 546.373 139.151 517.74 149.828 516.624C151.347 516.466 152.834 516.536 154.277 516.787C159.343 513.944 170.959 509.094 176.891 512.441C184.305 516.624 186.9 528.478 195.427 528.129C203.954 527.78 203.212 540.331 187.456 540.331C188.541 542.204 189.287 544.399 189.496 546.954C194.562 546.838 205.214 548.837 207.29 557.762C212.11 557.994 221.6 560.551 221.007 568.918C220.414 577.284 195.056 605.871 182.452 619.119C180.228 621.443 174.889 626.44 168.364 623.651C161.84 620.862 166.881 617.027 161.691 613.192C156.501 609.357 153.906 613.541 150.57 612.495C147.233 611.449 145.009 608.612 146.121 604.428C147.233 600.245 141.302 596.11 136.111 596.11C133.95 596.11 128.326 595.761 130.551 587.046C132.775 578.33 126.163 579.028 121.653 579.028C108.678 579.028 112.06 567.174 115.351 560.551Z" fill="#F1C3A8"/>
<path d="M154.277 516.787C152.834 516.536 151.347 516.466 149.828 516.624C139.151 517.74 122.395 546.373 115.351 560.551C112.06 567.174 108.678 579.028 121.653 579.028C126.163 579.028 132.775 578.33 130.551 587.046C128.326 595.761 133.95 596.11 136.111 596.11C141.302 596.11 147.233 600.245 146.121 604.428C145.009 608.612 147.233 611.449 150.57 612.495C153.906 613.541 156.501 609.358 161.691 613.192C166.881 617.027 161.84 620.862 168.364 623.651C174.889 626.44 180.228 621.443 182.452 619.119C195.056 605.871 220.414 577.284 221.007 568.918C221.6 560.551 212.11 557.994 207.29 557.762C205.214 548.837 194.562 546.838 189.496 546.954C189.287 544.399 188.541 542.204 187.456 540.331M154.277 516.787C162.974 518.305 170.057 526.433 172.813 530.918C176.784 531.54 183.923 534.23 187.456 540.331M154.277 516.787C159.343 513.944 170.959 509.094 176.891 512.441C184.305 516.624 186.9 528.478 195.427 528.129C203.954 527.78 203.212 540.331 187.456 540.331" stroke="#E9A397" stroke-width="2"/>
<path d="M188.753 547.304C182.08 556.484 170.217 575.542 161.691 581.818M171.329 531.268C164.656 540.448 148.938 560.203 139.447 565.781M206.919 558.46C200.246 567.64 188.383 586.698 179.856 592.973" stroke="#CB7E73" stroke-width="4" stroke-linecap="round"/>
<path fill-rule="evenodd" clip-rule="evenodd" d="M702.726 581.93C679.847 572.434 669.081 562.048 665.582 544.244C662.083 526.439 668.529 509.789 697.343 504.183C706.494 502.402 719.145 508.226 729.373 514.569C736.523 519.003 739.881 523.958 743.142 528.77C745.774 532.653 748.343 536.444 752.79 539.792C754.847 541.34 757.056 542.82 759.387 544.244C737.181 543.834 700.088 552.575 729.373 590.812C717.255 586.986 707.3 583.829 702.726 581.93Z" fill="#F1C3A8"/>
<path d="M817.928 571.544L802.585 617.243C787.13 609.049 754.785 598.836 730.526 591.176L729.373 590.812C700.088 552.575 737.181 543.834 759.387 544.244C776.202 554.511 799.411 561.902 817.928 571.544Z" fill="#CB7E73"/>
<path d="M798.817 448.69L964.621 300.613L855.341 431.479L948.202 448.69L682.539 694.396L731.257 710.123L544.727 886.391L688.999 730.896L621.439 702.408L881.181 465.901L798.817 448.69Z" fill="#FDC986"/>
<path d="M855.188 561.142C848.505 546.965 832.608 518.332 822.478 517.216C821.037 517.058 819.627 517.127 818.258 517.379C813.451 514.536 802.431 509.686 796.804 513.033C789.769 517.216 787.307 529.069 779.218 528.721C771.129 528.372 771.833 540.922 786.78 540.922C785.751 542.796 785.044 544.991 784.845 547.546C780.039 547.43 769.933 549.429 767.963 558.353C763.391 558.586 754.387 561.142 754.95 569.509C755.513 577.876 779.57 606.463 791.528 619.711C793.638 622.035 798.703 627.032 804.893 624.243C811.083 621.454 806.3 617.619 811.224 613.784C816.148 609.949 818.61 614.133 821.775 613.087C824.94 612.041 827.051 609.203 825.995 605.02C824.94 600.836 830.568 596.702 835.492 596.702C837.543 596.702 842.878 596.353 840.767 587.638C838.657 578.922 844.93 579.619 849.209 579.619C861.518 579.619 858.31 567.766 855.188 561.142Z" fill="#F1C3A8"/>
<path d="M818.258 517.379C819.627 517.127 821.037 517.058 822.478 517.216C832.608 518.332 848.505 546.965 855.188 561.142C858.31 567.766 861.518 579.619 849.209 579.619C844.93 579.619 838.657 578.922 840.767 587.638C842.878 596.353 837.543 596.702 835.492 596.702C830.568 596.702 824.94 600.836 825.995 605.02C827.051 609.203 824.94 612.041 821.775 613.087C818.61 614.133 816.148 609.949 811.224 613.784C806.3 617.619 811.083 621.454 804.893 624.243C798.703 627.032 793.638 622.035 791.528 619.711C779.57 606.463 755.513 577.876 754.95 569.509C754.387 561.142 763.391 558.586 767.963 558.353C769.933 549.429 780.039 547.43 784.845 547.546C785.044 544.991 785.751 542.796 786.78 540.922M818.258 517.379C810.007 518.897 803.287 527.024 800.672 531.51C796.905 532.132 790.132 534.822 786.78 540.922M818.258 517.379C813.451 514.536 802.431 509.686 796.804 513.033C789.769 517.216 787.307 529.069 779.218 528.721C771.129 528.372 771.833 540.922 786.78 540.922" stroke="#E9A397" stroke-width="2"/>
<path d="M785.549 547.896C791.879 557.076 803.134 576.134 811.223 582.409M802.079 531.859C808.41 541.04 823.322 560.795 832.326 566.373M768.315 559.052C774.645 568.232 785.9 587.29 793.99 593.565" stroke="#CB7E73" stroke-width="4" stroke-linecap="round"/>
<defs>
<linearGradient id="paint0_linear_323_1931" x1="499.903" y1="94.375" x2="499.903" y2="127.611" gradientUnits="userSpaceOnUse">
<stop stop-color="#F1C3A8"/>
<stop offset="1" stop-color="#E89F94"/>
</linearGradient>
</defs>
</svg>
