<svg width="1512" height="406" viewBox="0 0 1512 406" fill="none" xmlns="http://www.w3.org/2000/svg">
<path d="M1591.11 1.24212C1693.46 -12.2202 1729.65 116.904 1812.16 160.862C1862.27 187.56 1866.79 306.453 1866.79 306.453L1591.11 474.263L674.831 447.721L882.923 210.12H927.695L1136.35 135.922L1300.23 64.529C1300.23 64.529 1477.35 16.2065 1591.11 1.24212Z" fill="#261456" stroke="#33197F" stroke-width="0.526597"/>
<path d="M1300.8 224.149C1319.38 121.269 1592.8 1.86564 1592.8 1.86564C1592.8 1.86564 1368.04 40.1297 1238 80.4287C1107.97 120.728 1049.9 167.721 893.342 207.626C805.334 230.058 960.174 225.818 1114.39 252.207C1285.79 281.538 1465.99 327.095 1377.95 273.719C1342.47 252.207 1293.97 261.969 1300.8 224.149Z" fill="url(#paint0_linear_1962_1598)" stroke="#6F06AB" stroke-width="0.526597"/>
<ellipse cx="47.3065" cy="17.1467" rx="47.3065" ry="17.1467" transform="matrix(-1 0 0 1 1248.42 178.944)" fill="#2B0A59" fill-opacity="0.5"/>
<ellipse cx="47.3065" cy="17.1467" rx="47.3065" ry="17.1467" transform="matrix(-1 0 0 1 1384.71 72.9465)" fill="#2B0A59" fill-opacity="0.5"/>
<path d="M178.727 49.5292C32.187 32.1184 -19.6444 199.114 -137.78 255.965C-209.53 290.492 -216 444.256 -216 444.256L125.506 547.474L1437.5 513.146L1192.76 319.669H1128.65L829.886 223.709L595.227 131.378C595.227 131.378 341.618 68.8825 178.727 49.5292Z" fill="#2E1572" stroke="#33197F" stroke-width="0.806389"/>
<path d="M594.421 337.813C567.81 204.759 176.308 50.3356 176.308 50.3356C176.308 50.3356 498.14 99.8222 684.333 151.941C870.526 204.059 953.667 264.835 1177.84 316.444C1303.86 345.454 1082.15 339.971 861.335 374.101C615.915 412.033 357.888 470.952 483.945 401.921C534.748 374.101 604.203 386.726 594.421 337.813Z" fill="url(#paint1_linear_1962_1598)" stroke="#6F06AB" stroke-width="0.806389"/>
<ellipse cx="737.151" cy="301.526" rx="67.7366" ry="22.1757" fill="#2B0A59" fill-opacity="0.5"/>
<ellipse cx="542.005" cy="164.44" rx="67.7366" ry="22.1757" fill="#2B0A59" fill-opacity="0.5"/>
<ellipse cx="167.841" cy="176.132" rx="37.9003" ry="33.8683" fill="#141174"/>
<ellipse cx="280.332" cy="208.388" rx="27.8204" ry="21.7725" fill="#141174"/>
<defs>
<linearGradient id="paint0_linear_1962_1598" x1="1230.27" y1="1.86565" x2="1000.75" y2="276.146" gradientUnits="userSpaceOnUse">
<stop stop-color="#9F0380"/>
<stop offset="1" stop-color="#47046D"/>
</linearGradient>
<linearGradient id="paint1_linear_1962_1598" x1="695.412" y1="50.3356" x2="985.519" y2="434.177" gradientUnits="userSpaceOnUse">
<stop stop-color="#BE0499"/>
<stop offset="1" stop-color="#6F06AB"/>
</linearGradient>
</defs>
</svg>
