<svg width="345" height="137" viewBox="0 0 345 137" fill="none" xmlns="http://www.w3.org/2000/svg">
<rect width="345" height="137" rx="30" fill="#F3E2FD"/>
<path d="M75.02 53L70.44 39H73.8L77.78 51.4H76.1L80.26 39H83.26L87.26 51.4H85.64L89.72 39H92.82L88.24 53H84.76L81.22 42.12H82.14L78.5 53H75.02ZM100.208 53V50.9L100.008 50.44V46.68C100.008 46.0133 99.8013 45.4933 99.388 45.12C98.988 44.7467 98.368 44.56 97.528 44.56C96.9546 44.56 96.388 44.6533 95.828 44.84C95.2813 45.0133 94.8146 45.2533 94.428 45.56L93.308 43.38C93.8946 42.9667 94.6013 42.6467 95.428 42.42C96.2546 42.1933 97.0946 42.08 97.948 42.08C99.588 42.08 100.861 42.4667 101.768 43.24C102.675 44.0133 103.128 45.22 103.128 46.86V53H100.208ZM96.928 53.16C96.088 53.16 95.368 53.02 94.768 52.74C94.168 52.4467 93.708 52.0533 93.388 51.56C93.068 51.0667 92.908 50.5133 92.908 49.9C92.908 49.26 93.0613 48.7 93.368 48.22C93.688 47.74 94.188 47.3667 94.868 47.1C95.548 46.82 96.4346 46.68 97.528 46.68H100.388V48.5H97.868C97.1346 48.5 96.628 48.62 96.348 48.86C96.0813 49.1 95.948 49.4 95.948 49.76C95.948 50.16 96.1013 50.48 96.408 50.72C96.728 50.9467 97.1613 51.06 97.708 51.06C98.228 51.06 98.6946 50.94 99.108 50.7C99.5213 50.4467 99.8213 50.08 100.008 49.6L100.488 51.04C100.261 51.7333 99.848 52.26 99.248 52.62C98.648 52.98 97.8746 53.16 96.928 53.16ZM110.352 53.16C109.085 53.16 108.098 52.84 107.392 52.2C106.685 51.5467 106.332 50.58 106.332 49.3V39.86H109.452V49.26C109.452 49.7133 109.572 50.0667 109.812 50.32C110.052 50.56 110.378 50.68 110.792 50.68C111.285 50.68 111.705 50.5467 112.052 50.28L112.892 52.48C112.572 52.7067 112.185 52.88 111.732 53C111.292 53.1067 110.832 53.16 110.352 53.16ZM104.672 44.88V42.48H112.132V44.88H104.672ZM119.651 53.16C118.424 53.16 117.344 52.92 116.411 52.44C115.491 51.96 114.778 51.3067 114.271 50.48C113.764 49.64 113.511 48.6867 113.511 47.62C113.511 46.54 113.758 45.5867 114.251 44.76C114.758 43.92 115.444 43.2667 116.311 42.8C117.178 42.32 118.158 42.08 119.251 42.08C120.304 42.08 121.251 42.3067 122.091 42.76C122.944 43.2 123.618 43.84 124.111 44.68C124.604 45.5067 124.851 46.5 124.851 47.66C124.851 47.78 124.844 47.92 124.831 48.08C124.818 48.2267 124.804 48.3667 124.791 48.5H116.051V46.68H123.151L121.951 47.22C121.951 46.66 121.838 46.1733 121.611 45.76C121.384 45.3467 121.071 45.0267 120.671 44.8C120.271 44.56 119.804 44.44 119.271 44.44C118.738 44.44 118.264 44.56 117.851 44.8C117.451 45.0267 117.138 45.3533 116.911 45.78C116.684 46.1933 116.571 46.6867 116.571 47.26V47.74C116.571 48.3267 116.698 48.8467 116.951 49.3C117.218 49.74 117.584 50.08 118.051 50.32C118.531 50.5467 119.091 50.66 119.731 50.66C120.304 50.66 120.804 50.5733 121.231 50.4C121.671 50.2267 122.071 49.9667 122.431 49.62L124.091 51.42C123.598 51.98 122.978 52.4133 122.231 52.72C121.484 53.0133 120.624 53.16 119.651 53.16ZM126.928 53V42.24H129.908V45.28L129.488 44.4C129.808 43.64 130.322 43.0667 131.028 42.68C131.735 42.28 132.595 42.08 133.608 42.08V44.96C133.475 44.9467 133.355 44.94 133.248 44.94C133.142 44.9267 133.028 44.92 132.908 44.92C132.055 44.92 131.362 45.1667 130.828 45.66C130.308 46.14 130.048 46.8933 130.048 47.92V53H126.928ZM135.483 53V38.16H138.603V53H135.483ZM146.619 53.16C145.472 53.16 144.452 52.92 143.559 52.44C142.679 51.96 141.979 51.3067 141.459 50.48C140.952 49.64 140.699 48.6867 140.699 47.62C140.699 46.54 140.952 45.5867 141.459 44.76C141.979 43.92 142.679 43.2667 143.559 42.8C144.452 42.32 145.472 42.08 146.619 42.08C147.752 42.08 148.765 42.32 149.659 42.8C150.552 43.2667 151.252 43.9133 151.759 44.74C152.265 45.5667 152.519 46.5267 152.519 47.62C152.519 48.6867 152.265 49.64 151.759 50.48C151.252 51.3067 150.552 51.96 149.659 52.44C148.765 52.92 147.752 53.16 146.619 53.16ZM146.619 50.6C147.139 50.6 147.605 50.48 148.019 50.24C148.432 50 148.759 49.66 148.999 49.22C149.239 48.7667 149.359 48.2333 149.359 47.62C149.359 46.9933 149.239 46.46 148.999 46.02C148.759 45.58 148.432 45.24 148.019 45C147.605 44.76 147.139 44.64 146.619 44.64C146.099 44.64 145.632 44.76 145.219 45C144.805 45.24 144.472 45.58 144.219 46.02C143.979 46.46 143.859 46.9933 143.859 47.62C143.859 48.2333 143.979 48.7667 144.219 49.22C144.472 49.66 144.805 50 145.219 50.24C145.632 50.48 146.099 50.6 146.619 50.6ZM159.724 53.16C158.577 53.16 157.557 52.92 156.664 52.44C155.784 51.96 155.084 51.3067 154.564 50.48C154.057 49.64 153.804 48.6867 153.804 47.62C153.804 46.54 154.057 45.5867 154.564 44.76C155.084 43.92 155.784 43.2667 156.664 42.8C157.557 42.32 158.577 42.08 159.724 42.08C160.857 42.08 161.871 42.32 162.764 42.8C163.657 43.2667 164.357 43.9133 164.864 44.74C165.371 45.5667 165.624 46.5267 165.624 47.62C165.624 48.6867 165.371 49.64 164.864 50.48C164.357 51.3067 163.657 51.96 162.764 52.44C161.871 52.92 160.857 53.16 159.724 53.16ZM159.724 50.6C160.244 50.6 160.711 50.48 161.124 50.24C161.537 50 161.864 49.66 162.104 49.22C162.344 48.7667 162.464 48.2333 162.464 47.62C162.464 46.9933 162.344 46.46 162.104 46.02C161.864 45.58 161.537 45.24 161.124 45C160.711 44.76 160.244 44.64 159.724 44.64C159.204 44.64 158.737 44.76 158.324 45C157.911 45.24 157.577 45.58 157.324 46.02C157.084 46.46 156.964 46.9933 156.964 47.62C156.964 48.2333 157.084 48.7667 157.324 49.22C157.577 49.66 157.911 50 158.324 50.24C158.737 50.48 159.204 50.6 159.724 50.6ZM175.894 56.88C175.094 55.6667 174.474 54.2667 174.034 52.68C173.607 51.08 173.394 49.36 173.394 47.52C173.394 45.68 173.607 43.96 174.034 42.36C174.474 40.7467 175.094 39.3467 175.894 38.16H178.874C178.034 39.6667 177.42 41.1867 177.034 42.72C176.647 44.24 176.454 45.84 176.454 47.52C176.454 49.2 176.647 50.8067 177.034 52.34C177.42 53.86 178.034 55.3733 178.874 56.88H175.894ZM187.442 53.24C186.362 53.24 185.355 53.0667 184.422 52.72C183.502 52.36 182.702 51.8533 182.022 51.2C181.342 50.5467 180.809 49.78 180.422 48.9C180.049 48.02 179.862 47.0533 179.862 46C179.862 44.9467 180.049 43.98 180.422 43.1C180.809 42.22 181.342 41.4533 182.022 40.8C182.715 40.1467 183.522 39.6467 184.442 39.3C185.362 38.94 186.369 38.76 187.462 38.76C188.675 38.76 189.769 38.9733 190.742 39.4C191.729 39.8133 192.555 40.4267 193.222 41.24L191.142 43.16C190.662 42.6133 190.129 42.2067 189.542 41.94C188.955 41.66 188.315 41.52 187.622 41.52C186.969 41.52 186.369 41.6267 185.822 41.84C185.275 42.0533 184.802 42.36 184.402 42.76C184.002 43.16 183.689 43.6333 183.462 44.18C183.249 44.7267 183.142 45.3333 183.142 46C183.142 46.6667 183.249 47.2733 183.462 47.82C183.689 48.3667 184.002 48.84 184.402 49.24C184.802 49.64 185.275 49.9467 185.822 50.16C186.369 50.3733 186.969 50.48 187.622 50.48C188.315 50.48 188.955 50.3467 189.542 50.08C190.129 49.8 190.662 49.38 191.142 48.82L193.222 50.74C192.555 51.5533 191.729 52.1733 190.742 52.6C189.769 53.0267 188.669 53.24 187.442 53.24ZM201.731 53V50.9L201.531 50.44V46.68C201.531 46.0133 201.325 45.4933 200.911 45.12C200.511 44.7467 199.891 44.56 199.051 44.56C198.478 44.56 197.911 44.6533 197.351 44.84C196.805 45.0133 196.338 45.2533 195.951 45.56L194.831 43.38C195.418 42.9667 196.125 42.6467 196.951 42.42C197.778 42.1933 198.618 42.08 199.471 42.08C201.111 42.08 202.385 42.4667 203.291 43.24C204.198 44.0133 204.651 45.22 204.651 46.86V53H201.731ZM198.451 53.16C197.611 53.16 196.891 53.02 196.291 52.74C195.691 52.4467 195.231 52.0533 194.911 51.56C194.591 51.0667 194.431 50.5133 194.431 49.9C194.431 49.26 194.585 48.7 194.891 48.22C195.211 47.74 195.711 47.3667 196.391 47.1C197.071 46.82 197.958 46.68 199.051 46.68H201.911V48.5H199.391C198.658 48.5 198.151 48.62 197.871 48.86C197.605 49.1 197.471 49.4 197.471 49.76C197.471 50.16 197.625 50.48 197.931 50.72C198.251 50.9467 198.685 51.06 199.231 51.06C199.751 51.06 200.218 50.94 200.631 50.7C201.045 50.4467 201.345 50.08 201.531 49.6L202.011 51.04C201.785 51.7333 201.371 52.26 200.771 52.62C200.171 52.98 199.398 53.16 198.451 53.16ZM214.015 42.08C214.868 42.08 215.628 42.2533 216.295 42.6C216.975 42.9333 217.508 43.4533 217.895 44.16C218.282 44.8533 218.475 45.7467 218.475 46.84V53H215.355V47.32C215.355 46.4533 215.162 45.8133 214.775 45.4C214.402 44.9867 213.868 44.78 213.175 44.78C212.682 44.78 212.235 44.8867 211.835 45.1C211.448 45.3 211.142 45.6133 210.915 46.04C210.702 46.4667 210.595 47.0133 210.595 47.68V53H207.475V42.24H210.455V45.22L209.895 44.32C210.282 43.6 210.835 43.0467 211.555 42.66C212.275 42.2733 213.095 42.08 214.015 42.08ZM227.903 53V50.9L227.703 50.44V46.68C227.703 46.0133 227.497 45.4933 227.083 45.12C226.683 44.7467 226.063 44.56 225.223 44.56C224.65 44.56 224.083 44.6533 223.523 44.84C222.977 45.0133 222.51 45.2533 222.123 45.56L221.003 43.38C221.59 42.9667 222.297 42.6467 223.123 42.42C223.95 42.1933 224.79 42.08 225.643 42.08C227.283 42.08 228.557 42.4667 229.463 43.24C230.37 44.0133 230.823 45.22 230.823 46.86V53H227.903ZM224.623 53.16C223.783 53.16 223.063 53.02 222.463 52.74C221.863 52.4467 221.403 52.0533 221.083 51.56C220.763 51.0667 220.603 50.5133 220.603 49.9C220.603 49.26 220.757 48.7 221.063 48.22C221.383 47.74 221.883 47.3667 222.563 47.1C223.243 46.82 224.13 46.68 225.223 46.68H228.083V48.5H225.563C224.83 48.5 224.323 48.62 224.043 48.86C223.777 49.1 223.643 49.4 223.643 49.76C223.643 50.16 223.797 50.48 224.103 50.72C224.423 50.9467 224.857 51.06 225.403 51.06C225.923 51.06 226.39 50.94 226.803 50.7C227.217 50.4467 227.517 50.08 227.703 49.6L228.183 51.04C227.957 51.7333 227.543 52.26 226.943 52.62C226.343 52.98 225.57 53.16 224.623 53.16ZM238.345 53.16C237.332 53.16 236.418 52.9333 235.605 52.48C234.792 52.0133 234.145 51.3667 233.665 50.54C233.198 49.7133 232.965 48.74 232.965 47.62C232.965 46.4867 233.198 45.5067 233.665 44.68C234.145 43.8533 234.792 43.2133 235.605 42.76C236.418 42.3067 237.332 42.08 238.345 42.08C239.252 42.08 240.045 42.28 240.725 42.68C241.405 43.08 241.932 43.6867 242.305 44.5C242.678 45.3133 242.865 46.3533 242.865 47.62C242.865 48.8733 242.685 49.9133 242.325 50.74C241.965 51.5533 241.445 52.16 240.765 52.56C240.098 52.96 239.292 53.16 238.345 53.16ZM238.885 50.6C239.392 50.6 239.852 50.48 240.265 50.24C240.678 50 241.005 49.66 241.245 49.22C241.498 48.7667 241.625 48.2333 241.625 47.62C241.625 46.9933 241.498 46.46 241.245 46.02C241.005 45.58 240.678 45.24 240.265 45C239.852 44.76 239.392 44.64 238.885 44.64C238.365 44.64 237.898 44.76 237.485 45C237.072 45.24 236.738 45.58 236.485 46.02C236.245 46.46 236.125 46.9933 236.125 47.62C236.125 48.2333 236.245 48.7667 236.485 49.22C236.738 49.66 237.072 50 237.485 50.24C237.898 50.48 238.365 50.6 238.885 50.6ZM241.705 53V50.8L241.765 47.6L241.565 44.42V38.16H244.685V53H241.705ZM254.173 53V50.9L253.973 50.44V46.68C253.973 46.0133 253.766 45.4933 253.353 45.12C252.953 44.7467 252.333 44.56 251.493 44.56C250.919 44.56 250.353 44.6533 249.793 44.84C249.246 45.0133 248.779 45.2533 248.393 45.56L247.273 43.38C247.859 42.9667 248.566 42.6467 249.393 42.42C250.219 42.1933 251.059 42.08 251.913 42.08C253.553 42.08 254.826 42.4667 255.733 43.24C256.639 44.0133 257.093 45.22 257.093 46.86V53H254.173ZM250.893 53.16C250.053 53.16 249.333 53.02 248.733 52.74C248.133 52.4467 247.673 52.0533 247.353 51.56C247.033 51.0667 246.873 50.5133 246.873 49.9C246.873 49.26 247.026 48.7 247.333 48.22C247.653 47.74 248.153 47.3667 248.833 47.1C249.513 46.82 250.399 46.68 251.493 46.68H254.353V48.5H251.833C251.099 48.5 250.593 48.62 250.313 48.86C250.046 49.1 249.913 49.4 249.913 49.76C249.913 50.16 250.066 50.48 250.373 50.72C250.693 50.9467 251.126 51.06 251.673 51.06C252.193 51.06 252.659 50.94 253.073 50.7C253.486 50.4467 253.786 50.08 253.973 49.6L254.453 51.04C254.226 51.7333 253.813 52.26 253.213 52.62C252.613 52.98 251.839 53.16 250.893 53.16ZM261.657 56.88H258.677C259.543 55.3733 260.163 53.86 260.537 52.34C260.923 50.8067 261.117 49.2 261.117 47.52C261.117 45.84 260.923 44.24 260.537 42.72C260.163 41.1867 259.543 39.6667 258.677 38.16H261.657C262.483 39.3467 263.11 40.7467 263.537 42.36C263.963 43.96 264.177 45.68 264.177 47.52C264.177 49.36 263.963 51.08 263.537 52.68C263.11 54.2667 262.483 55.6667 261.657 56.88ZM268.265 45.98C267.731 45.98 267.271 45.8 266.885 45.44C266.511 45.0667 266.325 44.5933 266.325 44.02C266.325 43.4467 266.511 42.9867 266.885 42.64C267.271 42.28 267.731 42.1 268.265 42.1C268.811 42.1 269.271 42.28 269.645 42.64C270.018 42.9867 270.205 43.4467 270.205 44.02C270.205 44.5933 270.018 45.0667 269.645 45.44C269.271 45.8 268.811 45.98 268.265 45.98ZM268.265 53.16C267.731 53.16 267.271 52.98 266.885 52.62C266.511 52.2467 266.325 51.7733 266.325 51.2C266.325 50.6267 266.511 50.1667 266.885 49.82C267.271 49.46 267.731 49.28 268.265 49.28C268.811 49.28 269.271 49.46 269.645 49.82C270.018 50.1667 270.205 50.6267 270.205 51.2C270.205 51.7733 270.018 52.2467 269.645 52.62C269.271 52.98 268.811 53.16 268.265 53.16ZM282.006 55.4V36.6H283.646V55.4H282.006ZM282.626 53.2C281.533 53.2 280.486 53.0467 279.486 52.74C278.486 52.42 277.693 52.0133 277.106 51.52L278.006 49.5C278.566 49.94 279.26 50.3067 280.086 50.6C280.913 50.8933 281.76 51.04 282.626 51.04C283.36 51.04 283.953 50.96 284.406 50.8C284.86 50.64 285.193 50.4267 285.406 50.16C285.62 49.88 285.726 49.5667 285.726 49.22C285.726 48.7933 285.573 48.4533 285.266 48.2C284.96 47.9333 284.56 47.7267 284.066 47.58C283.586 47.42 283.046 47.2733 282.446 47.14C281.86 47.0067 281.266 46.8533 280.666 46.68C280.08 46.4933 279.54 46.26 279.046 45.98C278.566 45.6867 278.173 45.3 277.866 44.82C277.56 44.34 277.406 43.7267 277.406 42.98C277.406 42.22 277.606 41.5267 278.006 40.9C278.42 40.26 279.04 39.7533 279.866 39.38C280.706 38.9933 281.766 38.8 283.046 38.8C283.886 38.8 284.72 38.9067 285.546 39.12C286.373 39.3333 287.093 39.64 287.706 40.04L286.886 42.06C286.26 41.6867 285.613 41.4133 284.946 41.24C284.28 41.0533 283.64 40.96 283.026 40.96C282.306 40.96 281.72 41.0467 281.266 41.22C280.826 41.3933 280.5 41.62 280.286 41.9C280.086 42.18 279.986 42.5 279.986 42.86C279.986 43.2867 280.133 43.6333 280.426 43.9C280.733 44.1533 281.126 44.3533 281.606 44.5C282.1 44.6467 282.646 44.7933 283.246 44.94C283.846 45.0733 284.44 45.2267 285.026 45.4C285.626 45.5733 286.166 45.8 286.646 46.08C287.14 46.36 287.533 46.74 287.826 47.22C288.133 47.7 288.286 48.3067 288.286 49.04C288.286 49.7867 288.08 50.48 287.666 51.12C287.266 51.7467 286.646 52.2533 285.806 52.64C284.966 53.0133 283.906 53.2 282.626 53.2ZM294.167 53.2C293.18 53.2 292.213 53.06 291.267 52.78C290.333 52.4867 289.547 52.0867 288.907 51.58L290.027 49.56C290.533 49.9733 291.147 50.3067 291.867 50.56C292.587 50.8133 293.34 50.94 294.127 50.94C295.06 50.94 295.787 50.7533 296.307 50.38C296.827 49.9933 297.087 49.4733 297.087 48.82C297.087 48.18 296.847 47.6733 296.367 47.3C295.887 46.9267 295.113 46.74 294.047 46.74H292.767V44.96L296.767 40.2L297.107 41.18H289.587V39H299.127V40.74L295.127 45.5L293.767 44.7H294.547C296.267 44.7 297.553 45.0867 298.407 45.86C299.273 46.62 299.707 47.6 299.707 48.8C299.707 49.5867 299.507 50.3133 299.107 50.98C298.707 51.6467 298.093 52.1867 297.267 52.6C296.453 53 295.42 53.2 294.167 53.2ZM305.852 53.2C304.865 53.2 303.899 53.06 302.952 52.78C302.019 52.4867 301.232 52.0867 300.592 51.58L301.692 49.56C302.199 49.9733 302.812 50.3067 303.532 50.56C304.265 50.8133 305.025 50.94 305.812 50.94C306.732 50.94 307.452 50.7467 307.972 50.36C308.505 49.9733 308.772 49.4533 308.772 48.8C308.772 48.36 308.659 47.9733 308.432 47.64C308.219 47.3067 307.832 47.0533 307.272 46.88C306.725 46.7067 305.972 46.62 305.012 46.62H301.632L302.352 39H310.572V41.18H303.312L304.672 39.94L304.132 45.64L302.772 44.42H305.592C306.979 44.42 308.092 44.6067 308.932 44.98C309.785 45.34 310.405 45.8467 310.792 46.5C311.192 47.14 311.392 47.8733 311.392 48.7C311.392 49.5133 311.192 50.26 310.792 50.94C310.392 51.62 309.779 52.1667 308.952 52.58C308.139 52.9933 307.105 53.2 305.852 53.2ZM318.732 53.2C317.625 53.2 316.625 52.92 315.732 52.36C314.852 51.8 314.158 50.9867 313.652 49.92C313.145 48.84 312.892 47.5333 312.892 46C312.892 44.4667 313.145 43.1667 313.652 42.1C314.158 41.02 314.852 40.2 315.732 39.64C316.625 39.08 317.625 38.8 318.732 38.8C319.852 38.8 320.852 39.08 321.732 39.64C322.612 40.2 323.305 41.02 323.812 42.1C324.332 43.1667 324.592 44.4667 324.592 46C324.592 47.5333 324.332 48.84 323.812 49.92C323.305 50.9867 322.612 51.8 321.732 52.36C320.852 52.92 319.852 53.2 318.732 53.2ZM318.732 50.94C319.385 50.94 319.952 50.7667 320.432 50.42C320.912 50.06 321.285 49.5133 321.552 48.78C321.832 48.0467 321.972 47.12 321.972 46C321.972 44.8667 321.832 43.94 321.552 43.22C321.285 42.4867 320.912 41.9467 320.432 41.6C319.952 41.24 319.385 41.06 318.732 41.06C318.105 41.06 317.545 41.24 317.052 41.6C316.572 41.9467 316.192 42.4867 315.912 43.22C315.645 43.94 315.512 44.8667 315.512 46C315.512 47.12 315.645 48.0467 315.912 48.78C316.192 49.5133 316.572 50.06 317.052 50.42C317.545 50.7667 318.105 50.94 318.732 50.94Z" fill="#422F89"/>
<circle cx="42.5" cy="46.5" r="14.5" fill="#23ADDB"/>
<path d="M77.26 97.24C76.14 97.24 75.0667 97.0933 74.04 96.8C73.0133 96.4933 72.1867 96.1 71.56 95.62L72.66 93.18C73.26 93.6067 73.9667 93.96 74.78 94.24C75.6067 94.5067 76.44 94.64 77.28 94.64C77.92 94.64 78.4333 94.58 78.82 94.46C79.22 94.3267 79.5133 94.1467 79.7 93.92C79.8867 93.6933 79.98 93.4333 79.98 93.14C79.98 92.7667 79.8333 92.4733 79.54 92.26C79.2467 92.0333 78.86 91.8533 78.38 91.72C77.9 91.5733 77.3667 91.44 76.78 91.32C76.2067 91.1867 75.6267 91.0267 75.04 90.84C74.4667 90.6533 73.94 90.4133 73.46 90.12C72.98 89.8267 72.5867 89.44 72.28 88.96C71.9867 88.48 71.84 87.8667 71.84 87.12C71.84 86.32 72.0533 85.5933 72.48 84.94C72.92 84.2733 73.5733 83.7467 74.44 83.36C75.32 82.96 76.42 82.76 77.74 82.76C78.62 82.76 79.4867 82.8667 80.34 83.08C81.1933 83.28 81.9467 83.5867 82.6 84L81.6 86.46C80.9467 86.0867 80.2933 85.8133 79.64 85.64C78.9867 85.4533 78.3467 85.36 77.72 85.36C77.0933 85.36 76.58 85.4333 76.18 85.58C75.78 85.7267 75.4933 85.92 75.32 86.16C75.1467 86.3867 75.06 86.6533 75.06 86.96C75.06 87.32 75.2067 87.6133 75.5 87.84C75.7933 88.0533 76.18 88.2267 76.66 88.36C77.14 88.4933 77.6667 88.6267 78.24 88.76C78.8267 88.8933 79.4067 89.0467 79.98 89.22C80.5667 89.3933 81.1 89.6267 81.58 89.92C82.06 90.2133 82.4467 90.6 82.74 91.08C83.0467 91.56 83.2 92.1667 83.2 92.9C83.2 93.6867 82.98 94.4067 82.54 95.06C82.1 95.7133 81.44 96.24 80.56 96.64C79.6933 97.04 78.5933 97.24 77.26 97.24ZM85.1939 97V86.24H88.3139V97H85.1939ZM86.7539 84.74C86.1806 84.74 85.7139 84.5733 85.3539 84.24C84.9939 83.9067 84.8139 83.4933 84.8139 83C84.8139 82.5067 84.9939 82.0933 85.3539 81.76C85.7139 81.4267 86.1806 81.26 86.7539 81.26C87.3272 81.26 87.7939 81.42 88.1539 81.74C88.5139 82.0467 88.6939 82.4467 88.6939 82.94C88.6939 83.46 88.5139 83.8933 88.1539 84.24C87.8072 84.5733 87.3406 84.74 86.7539 84.74ZM97.7495 86.08C98.6029 86.08 99.3629 86.2533 100.03 86.6C100.71 86.9333 101.243 87.4533 101.63 88.16C102.016 88.8533 102.21 89.7467 102.21 90.84V97H99.0895V91.32C99.0895 90.4533 98.8962 89.8133 98.5095 89.4C98.1362 88.9867 97.6029 88.78 96.9095 88.78C96.4162 88.78 95.9695 88.8867 95.5695 89.1C95.1829 89.3 94.8762 89.6133 94.6495 90.04C94.4362 90.4667 94.3295 91.0133 94.3295 91.68V97H91.2095V86.24H94.1895V89.22L93.6295 88.32C94.0162 87.6 94.5695 87.0467 95.2895 86.66C96.0095 86.2733 96.8295 86.08 97.7495 86.08ZM110.176 101.04C109.162 101.04 108.182 100.913 107.236 100.66C106.302 100.42 105.522 100.053 104.896 99.56L106.136 97.32C106.589 97.6933 107.162 97.9867 107.856 98.2C108.562 98.4267 109.256 98.54 109.936 98.54C111.042 98.54 111.842 98.2933 112.336 97.8C112.842 97.3067 113.096 96.5733 113.096 95.6V93.98L113.296 91.28L113.256 88.56V86.24H116.216V95.2C116.216 97.2 115.696 98.6733 114.656 99.62C113.616 100.567 112.122 101.04 110.176 101.04ZM109.696 96.48C108.696 96.48 107.789 96.2667 106.976 95.84C106.176 95.4 105.529 94.7933 105.036 94.02C104.556 93.2333 104.316 92.32 104.316 91.28C104.316 90.2267 104.556 89.3133 105.036 88.54C105.529 87.7533 106.176 87.1467 106.976 86.72C107.789 86.2933 108.696 86.08 109.696 86.08C110.602 86.08 111.402 86.2667 112.096 86.64C112.789 87 113.329 87.5667 113.716 88.34C114.102 89.1 114.296 90.08 114.296 91.28C114.296 92.4667 114.102 93.4467 113.716 94.22C113.329 94.98 112.789 95.5467 112.096 95.92C111.402 96.2933 110.602 96.48 109.696 96.48ZM110.316 93.92C110.862 93.92 111.349 93.8133 111.776 93.6C112.202 93.3733 112.536 93.06 112.776 92.66C113.016 92.26 113.136 91.8 113.136 91.28C113.136 90.7467 113.016 90.2867 112.776 89.9C112.536 89.5 112.202 89.1933 111.776 88.98C111.349 88.7533 110.862 88.64 110.316 88.64C109.769 88.64 109.282 88.7533 108.856 88.98C108.429 89.1933 108.089 89.5 107.836 89.9C107.596 90.2867 107.476 90.7467 107.476 91.28C107.476 91.8 107.596 92.26 107.836 92.66C108.089 93.06 108.429 93.3733 108.856 93.6C109.282 93.8133 109.769 93.92 110.316 93.92ZM125.72 97V94.9L125.52 94.44V90.68C125.52 90.0133 125.313 89.4933 124.9 89.12C124.5 88.7467 123.88 88.56 123.04 88.56C122.466 88.56 121.9 88.6533 121.34 88.84C120.793 89.0133 120.326 89.2533 119.94 89.56L118.82 87.38C119.406 86.9667 120.113 86.6467 120.94 86.42C121.766 86.1933 122.606 86.08 123.46 86.08C125.1 86.08 126.373 86.4667 127.28 87.24C128.186 88.0133 128.64 89.22 128.64 90.86V97H125.72ZM122.44 97.16C121.6 97.16 120.88 97.02 120.28 96.74C119.68 96.4467 119.22 96.0533 118.9 95.56C118.58 95.0667 118.42 94.5133 118.42 93.9C118.42 93.26 118.573 92.7 118.88 92.22C119.2 91.74 119.7 91.3667 120.38 91.1C121.06 90.82 121.946 90.68 123.04 90.68H125.9V92.5H123.38C122.646 92.5 122.14 92.62 121.86 92.86C121.593 93.1 121.46 93.4 121.46 93.76C121.46 94.16 121.613 94.48 121.92 94.72C122.24 94.9467 122.673 95.06 123.22 95.06C123.74 95.06 124.206 94.94 124.62 94.7C125.033 94.4467 125.333 94.08 125.52 93.6L126 95.04C125.773 95.7333 125.36 96.26 124.76 96.62C124.16 96.98 123.386 97.16 122.44 97.16ZM137.823 97.16C136.917 97.16 136.123 96.96 135.443 96.56C134.763 96.16 134.23 95.5533 133.843 94.74C133.47 93.9133 133.283 92.8733 133.283 91.62C133.283 90.3533 133.463 89.3133 133.823 88.5C134.183 87.6867 134.703 87.08 135.383 86.68C136.063 86.28 136.877 86.08 137.823 86.08C138.837 86.08 139.743 86.3133 140.543 86.78C141.357 87.2333 141.997 87.8733 142.463 88.7C142.943 89.5267 143.183 90.5 143.183 91.62C143.183 92.7533 142.943 93.7333 142.463 94.56C141.997 95.3867 141.357 96.0267 140.543 96.48C139.743 96.9333 138.837 97.16 137.823 97.16ZM131.463 100.88V86.24H134.443V88.44L134.383 91.64L134.583 94.82V100.88H131.463ZM137.283 94.6C137.803 94.6 138.263 94.48 138.663 94.24C139.077 94 139.403 93.66 139.643 93.22C139.897 92.7667 140.023 92.2333 140.023 91.62C140.023 90.9933 139.897 90.46 139.643 90.02C139.403 89.58 139.077 89.24 138.663 89C138.263 88.76 137.803 88.64 137.283 88.64C136.763 88.64 136.297 88.76 135.883 89C135.47 89.24 135.143 89.58 134.903 90.02C134.663 90.46 134.543 90.9933 134.543 91.62C134.543 92.2333 134.663 92.7667 134.903 93.22C135.143 93.66 135.47 94 135.883 94.24C136.297 94.48 136.763 94.6 137.283 94.6ZM150.392 97.16C149.245 97.16 148.225 96.92 147.332 96.44C146.452 95.96 145.752 95.3067 145.232 94.48C144.725 93.64 144.472 92.6867 144.472 91.62C144.472 90.54 144.725 89.5867 145.232 88.76C145.752 87.92 146.452 87.2667 147.332 86.8C148.225 86.32 149.245 86.08 150.392 86.08C151.525 86.08 152.539 86.32 153.432 86.8C154.325 87.2667 155.025 87.9133 155.532 88.74C156.039 89.5667 156.292 90.5267 156.292 91.62C156.292 92.6867 156.039 93.64 155.532 94.48C155.025 95.3067 154.325 95.96 153.432 96.44C152.539 96.92 151.525 97.16 150.392 97.16ZM150.392 94.6C150.912 94.6 151.379 94.48 151.792 94.24C152.205 94 152.532 93.66 152.772 93.22C153.012 92.7667 153.132 92.2333 153.132 91.62C153.132 90.9933 153.012 90.46 152.772 90.02C152.532 89.58 152.205 89.24 151.792 89C151.379 88.76 150.912 88.64 150.392 88.64C149.872 88.64 149.405 88.76 148.992 89C148.579 89.24 148.245 89.58 147.992 90.02C147.752 90.46 147.632 90.9933 147.632 91.62C147.632 92.2333 147.752 92.7667 147.992 93.22C148.245 93.66 148.579 94 148.992 94.24C149.405 94.48 149.872 94.6 150.392 94.6ZM158.378 97V86.24H161.358V89.28L160.938 88.4C161.258 87.64 161.771 87.0667 162.478 86.68C163.184 86.28 164.044 86.08 165.058 86.08V88.96C164.924 88.9467 164.804 88.94 164.698 88.94C164.591 88.9267 164.478 88.92 164.358 88.92C163.504 88.92 162.811 89.1667 162.278 89.66C161.758 90.14 161.498 90.8933 161.498 91.92V97H158.378ZM172.175 97.16C170.948 97.16 169.868 96.92 168.935 96.44C168.015 95.96 167.301 95.3067 166.795 94.48C166.288 93.64 166.035 92.6867 166.035 91.62C166.035 90.54 166.281 89.5867 166.775 88.76C167.281 87.92 167.968 87.2667 168.835 86.8C169.701 86.32 170.681 86.08 171.775 86.08C172.828 86.08 173.775 86.3067 174.615 86.76C175.468 87.2 176.141 87.84 176.635 88.68C177.128 89.5067 177.375 90.5 177.375 91.66C177.375 91.78 177.368 91.92 177.355 92.08C177.341 92.2267 177.328 92.3667 177.315 92.5H168.575V90.68H175.675L174.475 91.22C174.475 90.66 174.361 90.1733 174.135 89.76C173.908 89.3467 173.595 89.0267 173.195 88.8C172.795 88.56 172.328 88.44 171.795 88.44C171.261 88.44 170.788 88.56 170.375 88.8C169.975 89.0267 169.661 89.3533 169.435 89.78C169.208 90.1933 169.095 90.6867 169.095 91.26V91.74C169.095 92.3267 169.221 92.8467 169.475 93.3C169.741 93.74 170.108 94.08 170.575 94.32C171.055 94.5467 171.615 94.66 172.255 94.66C172.828 94.66 173.328 94.5733 173.755 94.4C174.195 94.2267 174.595 93.9667 174.955 93.62L176.615 95.42C176.121 95.98 175.501 96.4133 174.755 96.72C174.008 97.0133 173.148 97.16 172.175 97.16ZM180.632 89.98C180.098 89.98 179.638 89.8 179.252 89.44C178.878 89.0667 178.692 88.5933 178.692 88.02C178.692 87.4467 178.878 86.9867 179.252 86.64C179.638 86.28 180.098 86.1 180.632 86.1C181.178 86.1 181.638 86.28 182.012 86.64C182.385 86.9867 182.572 87.4467 182.572 88.02C182.572 88.5933 182.385 89.0667 182.012 89.44C181.638 89.8 181.178 89.98 180.632 89.98ZM180.632 97.16C180.098 97.16 179.638 96.98 179.252 96.62C178.878 96.2467 178.692 95.7733 178.692 95.2C178.692 94.6267 178.878 94.1667 179.252 93.82C179.638 93.46 180.098 93.28 180.632 93.28C181.178 93.28 181.638 93.46 182.012 93.82C182.385 94.1667 182.572 94.6267 182.572 95.2C182.572 95.7733 182.385 96.2467 182.012 96.62C181.638 96.98 181.178 97.16 180.632 97.16ZM194.373 99.4V80.6H196.013V99.4H194.373ZM194.993 97.2C193.9 97.2 192.853 97.0467 191.853 96.74C190.853 96.42 190.06 96.0133 189.473 95.52L190.373 93.5C190.933 93.94 191.627 94.3067 192.453 94.6C193.28 94.8933 194.127 95.04 194.993 95.04C195.727 95.04 196.32 94.96 196.773 94.8C197.227 94.64 197.56 94.4267 197.773 94.16C197.987 93.88 198.093 93.5667 198.093 93.22C198.093 92.7933 197.94 92.4533 197.633 92.2C197.327 91.9333 196.927 91.7267 196.433 91.58C195.953 91.42 195.413 91.2733 194.813 91.14C194.227 91.0067 193.633 90.8533 193.033 90.68C192.447 90.4933 191.907 90.26 191.413 89.98C190.933 89.6867 190.54 89.3 190.233 88.82C189.927 88.34 189.773 87.7267 189.773 86.98C189.773 86.22 189.973 85.5267 190.373 84.9C190.787 84.26 191.407 83.7533 192.233 83.38C193.073 82.9933 194.133 82.8 195.413 82.8C196.253 82.8 197.087 82.9067 197.913 83.12C198.74 83.3333 199.46 83.64 200.073 84.04L199.253 86.06C198.627 85.6867 197.98 85.4133 197.313 85.24C196.647 85.0533 196.007 84.96 195.393 84.96C194.673 84.96 194.087 85.0467 193.633 85.22C193.193 85.3933 192.867 85.62 192.653 85.9C192.453 86.18 192.353 86.5 192.353 86.86C192.353 87.2867 192.5 87.6333 192.793 87.9C193.1 88.1533 193.493 88.3533 193.973 88.5C194.467 88.6467 195.013 88.7933 195.613 88.94C196.213 89.0733 196.807 89.2267 197.393 89.4C197.993 89.5733 198.533 89.8 199.013 90.08C199.507 90.36 199.9 90.74 200.193 91.22C200.5 91.7 200.653 92.3067 200.653 93.04C200.653 93.7867 200.447 94.48 200.033 95.12C199.633 95.7467 199.013 96.2533 198.173 96.64C197.333 97.0133 196.273 97.2 194.993 97.2ZM202.227 93.82V92.02L209.127 83H211.907L205.107 92.02L203.807 91.62H214.907V93.82H202.227ZM209.907 97V93.82L209.987 91.62V88.8H212.427V97H209.907ZM221.841 97.2C220.734 97.2 219.734 96.92 218.841 96.36C217.961 95.8 217.268 94.9867 216.761 93.92C216.254 92.84 216.001 91.5333 216.001 90C216.001 88.4667 216.254 87.1667 216.761 86.1C217.268 85.02 217.961 84.2 218.841 83.64C219.734 83.08 220.734 82.8 221.841 82.8C222.961 82.8 223.961 83.08 224.841 83.64C225.721 84.2 226.414 85.02 226.921 86.1C227.441 87.1667 227.701 88.4667 227.701 90C227.701 91.5333 227.441 92.84 226.921 93.92C226.414 94.9867 225.721 95.8 224.841 96.36C223.961 96.92 222.961 97.2 221.841 97.2ZM221.841 94.94C222.494 94.94 223.061 94.7667 223.541 94.42C224.021 94.06 224.394 93.5133 224.661 92.78C224.941 92.0467 225.081 91.12 225.081 90C225.081 88.8667 224.941 87.94 224.661 87.22C224.394 86.4867 224.021 85.9467 223.541 85.6C223.061 85.24 222.494 85.06 221.841 85.06C221.214 85.06 220.654 85.24 220.161 85.6C219.681 85.9467 219.301 86.4867 219.021 87.22C218.754 87.94 218.621 88.8667 218.621 90C218.621 91.12 218.754 92.0467 219.021 92.78C219.301 93.5133 219.681 94.06 220.161 94.42C220.654 94.7667 221.214 94.94 221.841 94.94ZM235.298 97.2C234.191 97.2 233.191 96.92 232.298 96.36C231.418 95.8 230.725 94.9867 230.218 93.92C229.711 92.84 229.458 91.5333 229.458 90C229.458 88.4667 229.711 87.1667 230.218 86.1C230.725 85.02 231.418 84.2 232.298 83.64C233.191 83.08 234.191 82.8 235.298 82.8C236.418 82.8 237.418 83.08 238.298 83.64C239.178 84.2 239.871 85.02 240.378 86.1C240.898 87.1667 241.158 88.4667 241.158 90C241.158 91.5333 240.898 92.84 240.378 93.92C239.871 94.9867 239.178 95.8 238.298 96.36C237.418 96.92 236.418 97.2 235.298 97.2ZM235.298 94.94C235.951 94.94 236.518 94.7667 236.998 94.42C237.478 94.06 237.851 93.5133 238.118 92.78C238.398 92.0467 238.538 91.12 238.538 90C238.538 88.8667 238.398 87.94 238.118 87.22C237.851 86.4867 237.478 85.9467 236.998 85.6C236.518 85.24 235.951 85.06 235.298 85.06C234.671 85.06 234.111 85.24 233.618 85.6C233.138 85.9467 232.758 86.4867 232.478 87.22C232.211 87.94 232.078 88.8667 232.078 90C232.078 91.12 232.211 92.0467 232.478 92.78C232.758 93.5133 233.138 94.06 233.618 94.42C234.111 94.7667 234.671 94.94 235.298 94.94Z" fill="#422F89"/>
<circle cx="42.5" cy="90.5" r="14.5" fill="#254DCE"/>
</svg>
