<svg width="218" height="218" viewBox="0 0 218 218" fill="none" xmlns="http://www.w3.org/2000/svg">
<circle cx="108.954" cy="108.945" r="73" fill="#8F7DCE"/>
<path d="M170.255 69.2918C166.564 63.5961 162.097 58.4394 156.979 53.9654C151.836 49.4693 146.103 45.7232 139.942 42.8302C135.192 40.6 130.189 38.8843 125.073 37.7309C119.816 36.5458 114.393 35.9451 108.954 35.9451C105.973 35.9451 102.97 36.1267 100.031 36.4853C94.3184 37.1818 88.697 38.5567 83.3232 40.5722C78.075 42.5404 73.0455 45.1253 68.3746 48.2547C63.4191 51.5742 58.8714 55.502 54.8582 59.9286L54.3967 60.4378V60.4425C49.7339 65.6828 45.8621 71.5416 42.8816 77.8674C39.7251 84.5666 37.6188 91.6886 36.6217 99.0356C36.1787 102.297 35.9544 105.632 35.9544 108.945C35.9544 111.39 36.0769 113.858 36.3183 116.28C37.0701 123.814 38.9798 131.143 41.9945 138.065C44.9277 144.801 48.8587 151.046 53.6784 156.628C57.3213 160.847 61.4492 164.652 65.9478 167.937L66.4171 168.28H66.421C72.4074 172.579 78.9734 175.93 85.9455 178.244C93.3448 180.7 101.086 181.945 108.954 181.945C113.871 181.945 118.786 181.452 123.563 180.482C128.219 179.537 132.801 178.125 137.182 176.286C141.483 174.481 145.634 172.247 149.52 169.645C153.369 167.068 156.992 164.108 160.289 160.846C163.585 157.585 166.585 153.995 169.203 150.176C171.846 146.321 174.125 142.198 175.977 137.921C177.862 133.566 179.324 129.006 180.322 124.367C181.345 119.611 181.892 114.712 181.949 109.808C181.952 109.513 181.954 109.222 181.954 108.945C181.954 94.8112 177.909 81.0993 170.255 69.2915L170.255 69.2918ZM162.926 86.4692C163.582 88.0482 164.682 90.6936 163.822 91.4685C163.11 92.1098 161.025 91.4952 160.289 90.2136C159.731 89.2411 160.426 88.7144 160.164 87.1519C159.753 84.7059 157.761 84.2678 157.912 82.4137C158 81.3461 158.732 80.6047 159.243 80.0876C159.521 79.8067 161.146 78.1618 162.907 78.6486C163.491 78.8103 164.357 79.2807 164.346 79.8259C164.327 80.7585 161.773 80.6816 161.224 82.1099C160.84 83.1077 161.826 83.8249 162.926 86.4696V86.4692ZM143.937 78.6479C145.045 78.6276 145.226 80.907 146.685 81.1335C148.348 81.3917 149.79 78.6889 150.52 79.0863C151.04 79.369 150.226 80.6923 150.871 82.0494C151.711 83.8167 154.157 83.8117 154.141 84.666C154.13 85.2813 152.849 85.8642 151.755 86.0263C149.71 86.3297 149.173 85.0345 146.749 84.9416C144.746 84.8647 144 85.7058 143.021 85.0584C142.045 84.4131 141.95 83.024 141.921 82.596C141.795 80.7585 142.883 78.6675 143.937 78.6479ZM150.695 54.4287C149.871 54.9532 149.631 55.5518 148.726 55.7637C148.052 55.9218 147.025 55.8602 146.554 55.231C145.918 54.382 146.551 52.844 147.427 52.0713C147.639 51.8844 147.877 51.732 148.133 51.6141C149.271 52.395 150.382 53.2083 151.466 54.0519C151.158 54.163 150.904 54.2955 150.695 54.4287ZM39.8658 115.967C40.2415 116.024 40.5762 116.16 40.8123 116.421C41.2428 116.898 41.0156 117.428 41.2421 118.418C41.5045 119.565 42.3585 121.123 43.597 121.558C45.0338 122.062 45.6791 120.588 47.4834 121.052C48.5973 121.339 49.8967 122.298 49.8764 123.258C49.875 123.322 49.8632 123.379 49.8447 123.492C49.6175 124.871 48.776 125.69 48.1824 126.414C48.0642 126.558 47.1384 127.701 46.5786 129.096C45.7222 131.23 46.0291 133.188 46.1263 133.76C46.2816 134.678 46.5437 135.338 46.7367 135.817C47.4375 137.554 48.1091 138.021 49.1994 139.815C50.6128 142.14 49.9896 142.188 50.919 143.217C52.3997 144.855 53.7821 144.512 54.8696 146.15C55.4133 146.968 55.5248 147.741 55.6612 148.768C55.8991 150.56 55.7434 152.154 55.5355 153.312C46.6612 142.646 41.251 129.762 39.8661 115.967H39.8658ZM108.954 178.384C94.2899 178.384 80.2928 173.877 68.4412 165.346C69.3072 164.513 70.3456 163.321 71.8547 161.589C73.7748 159.385 74.3029 158.41 74.4663 157.252C74.6095 156.24 74.3823 155.739 74.7776 154.775C75.3776 153.312 76.6944 152.535 77.23 152.264C79.3043 151.213 80.2547 152.379 81.5352 151.516C83.4247 150.243 83.341 146.37 83.3061 144.76C83.2691 143.051 82.9543 142.172 83.5977 141.111C83.8922 140.625 84.0973 140.579 85.5591 138.924C86.5622 137.788 86.6865 137.559 86.7681 137.387C86.85 137.215 87.5903 135.597 86.8852 134.381C86.5206 133.753 86.1285 133.851 84.6471 132.923C82.9617 131.866 83.0194 131.457 82.0726 131.096C80.7276 130.583 80.1482 131.232 78.5611 131.155C76.573 131.059 74.4745 129.895 73.3468 128.329C71.7518 126.115 72.8112 124.087 71.2415 123.18C70.2697 122.618 69.5372 123.207 67.8814 122.333C67.3049 122.029 66.7073 121.713 66.2277 121.043C65.6419 120.224 65.7612 119.615 65.0518 118.81C64.9265 118.668 64.5052 118.19 63.9258 117.951C62.416 117.328 61.4325 118.985 59.5572 118.941C57.5275 118.893 57.5328 116.924 55.157 116.774C53.3925 116.663 51.5027 117.63 51.3047 117.741C51.064 117.876 50.8824 118.001 50.8824 118.001C50.6655 118.149 50.5946 118.224 50.4027 118.36C50.4027 118.36 49.9159 118.655 49.8764 118.679C49.5481 118.877 48.6649 119.258 47.9916 119.222C46.9147 119.166 45.9159 118.021 45.5683 116.919C45.0623 115.318 46.1726 114.566 45.5683 113.392C44.9751 112.238 43.6764 112.519 43.2501 111.376C42.8723 110.362 43.7583 109.782 43.3509 108.856C42.9175 107.87 41.4597 107.494 40.4427 107.543C40.109 107.56 39.8031 107.623 39.5264 107.714C39.5745 104.967 39.7839 102.215 40.1503 99.5145C40.1585 99.4547 40.167 99.3952 40.1756 99.3358C41.1146 99.1901 42.0736 98.996 42.8125 99.71C43.9926 100.85 43.1045 102.683 44.5132 104.158C45.4668 105.156 47.0878 105.586 47.6529 105.074C48.3299 104.46 47.5603 102.428 47.1373 101.311C46.5978 99.8873 46.1114 99.3963 46.1295 98.2831C46.1445 97.384 46.4789 96.6786 46.6637 96.3502C48.0275 93.9281 51.3204 94.1844 51.5775 92.7764C51.6519 92.3694 51.4863 91.7491 50.3749 90.8357C50.9044 90.2353 51.7363 89.3679 52.8858 88.4591C53.6243 87.8755 53.9487 87.706 54.4554 87.2819C55.1929 86.6647 56.1433 85.6541 56.9471 83.9648C57.8398 83.9068 59.1232 83.7387 60.5803 83.2316C60.7562 83.1704 64.0483 82.0052 63.912 81.0989C63.8375 80.6036 62.8244 80.7485 61.7814 79.6941C61.0881 78.993 61.2608 78.6504 60.7156 78.1348C59.3874 76.8785 57.0361 77.6576 56.9752 77.3368C56.9278 77.0889 58.3088 76.4967 59.8343 76.2831C60.8616 76.1389 62.1418 75.9597 63.4704 76.6524C64.4062 77.1399 64.9624 77.8499 65.2459 78.2794C67.4533 80.1272 69.7228 80.4206 70.5724 79.5496C71.2568 78.8481 70.9139 77.5013 70.8911 77.4165C70.5681 76.2104 69.435 75.2928 68.0074 75.1279C68.2663 74.7095 68.7659 73.7683 68.7143 72.5345C68.6445 70.8747 67.6225 69.7921 67.1026 69.2413C65.9033 67.9704 64.4906 67.5242 63.8098 67.3604C63.4512 66.4901 63.0025 65.4118 62.4787 64.1751C61.5087 61.8839 61.0788 60.9356 60.6879 60.9876C60.4133 61.0243 60.44 61.5175 59.9091 62.4676C59.5419 63.1246 58.9035 64.2673 58.0784 64.2726C57.4783 64.2769 57.0275 63.6765 56.7925 63.3635C56.7573 63.3169 56.7245 63.2695 56.6932 63.2225C56.9581 62.9198 57.2259 62.6193 57.4965 62.3205L57.6037 62.2019C61.2512 58.1973 65.3591 54.6252 69.8232 51.5742C70.0618 52.3922 70.3798 53.3198 70.8081 54.3147C71.6781 56.3349 72.5519 58.365 74.5678 59.9902C75.113 60.4296 77.9415 62.7101 79.6119 61.8013C80.2031 61.4798 80.2704 60.9645 81.876 56.2238C82.4436 54.5476 82.627 54.0462 83.1918 53.5822C84.4741 52.53 85.4769 53.5164 86.8891 52.5243C88.2811 51.5464 88.3634 49.8461 89.9131 49.4622C89.9313 49.4579 90.1225 49.4244 90.5046 49.3575C91.8453 49.1232 92.7683 48.9758 92.9171 48.9512C94.0086 48.7692 96.5016 48.3426 97.7398 46.5326C98.2426 45.798 98.3825 45.063 98.4117 44.8956C98.5784 43.9448 98.3672 43.1671 98.2319 42.7797C98.5891 42.5357 99.4939 41.8481 99.9818 40.5783C100.05 40.4009 100.104 40.2275 100.147 40.0594C100.252 40.0463 100.357 40.0327 100.462 40.0199C103.259 39.6788 106.117 39.5061 108.955 39.5061C118.294 39.5061 127.315 41.3158 135.812 44.8892C135.02 45.1288 134.148 45.4429 133.227 45.8588C131.379 46.6928 127.903 48.5823 128.204 49.809C128.377 50.5155 129.636 50.3236 129.88 51.0764C130.413 52.718 125.195 55.9955 124.586 56.378C122.053 57.969 120.967 58.1282 120.782 59.1555C120.528 60.5674 122.173 62.5235 123.922 62.8183C125.607 63.1025 126.387 61.6763 127.847 62.1645C129.323 62.6577 129.417 64.4144 130.463 64.3884C131.3 64.3677 132.054 63.2243 132.295 62.2952C132.575 61.2109 132.06 60.7936 132.206 59.6968C132.356 58.5801 132.981 58.3429 134.076 56.7839C135.903 54.1816 135.562 52.8497 136.873 52.3526C137.854 51.9812 139.153 52.3056 139.359 52.8761C139.505 53.2792 139.088 53.7603 138.784 54.1256C137.177 56.0532 135.172 58.4572 135.586 59.8649C135.851 60.7679 137.079 61.15 137.397 61.2487C139.329 61.8498 140.823 60.3499 141.684 61.097C142.095 61.4548 142.225 62.2073 141.976 62.6876C141.493 63.6185 139.896 62.9383 137.92 63.8653C137.034 64.2805 137.218 64.4817 135.314 66.0634C133.475 67.5911 132.556 68.3549 131.379 68.7053C129.929 69.1376 127.607 69.2359 126.654 68.0145C125.896 67.0434 126.839 65.6995 126.088 65.0286C125.539 64.5376 124.468 64.6932 123.768 65.0179C121.046 66.2814 122.757 70.6578 119.47 73.8926C118.261 75.0816 117.197 76.1282 115.598 76.3604C114.847 76.4693 113.818 76.422 112.99 77.1658C112.834 77.3061 112.383 77.7228 112.331 78.3495C112.291 78.8424 112.499 79.4434 112.805 79.5001C112.991 79.5343 113.075 79.3405 113.346 79.2294C113.885 79.0083 114.568 79.3573 114.903 79.6354C115.619 80.2311 115.83 81.412 115.418 82.1801C114.849 83.2416 113.12 83.4617 112.015 83.2092C111.351 83.0575 111.015 82.7587 110.368 82.8837C110.276 82.9015 109.395 83.0845 109.07 83.7661C108.641 84.666 109.753 85.3458 109.477 86.5508C109.221 87.6693 108.232 87.811 108.223 88.5905C108.211 89.5737 109.767 90.7449 111.305 90.9208C112.898 91.1031 113.99 90.1616 117.898 87.049C122.632 83.2786 123.492 82.6996 124.716 82.8342C126.78 83.0614 128.791 85.2015 128.631 86.7588C128.538 87.6675 127.753 87.9203 127.715 88.9829C127.673 90.2108 128.661 91.5903 129.526 91.5867C130.616 91.5821 131.803 89.3668 131.815 87.3353C131.831 84.7361 129.92 82.94 130.535 82.3424C130.885 82.0031 131.722 82.3674 131.821 82.4101C132.295 82.6163 132.929 83.0863 133.838 85.5505C134.143 86.3788 135.231 89.4929 136.089 89.8988C136.223 89.9626 136.951 90.3065 137.561 90.0085C138.452 89.5737 138.117 87.6056 138.836 87.4129C139.232 87.3064 139.723 87.8299 139.942 88.1621C140.476 88.9708 140.014 89.5644 140.302 90.3461C140.864 91.872 143.806 92.8067 145.14 91.9343C145.54 91.6725 145.796 91.2474 146.439 91.1398C146.822 91.0757 147.351 91.1234 147.656 91.3695C148.637 92.159 148.181 95.6907 146.122 96.9695C144.683 97.8633 142.832 97.3868 141.527 97.0535C139.507 96.5368 139.083 95.7139 137.012 95.5583C135.511 95.445 134.563 95.7894 134.341 95.8741C133.226 96.3 133.217 96.7484 132.393 97.04C130.703 97.6375 128.201 96.6551 127.498 95.0444C127.105 94.1428 127.569 93.7183 127.177 92.7896C126.502 91.1918 124.376 90.6708 123.943 90.5651C120.976 89.8383 120.146 91.9165 115.046 92.7572C112.348 93.2016 111.007 92.8801 109.924 94.0851C109.294 94.7863 109.445 95.2335 108.438 97.2209C107.948 98.1895 107.45 98.9469 106.474 100.422C104.21 103.843 103.934 103.766 103.458 104.857C102.973 105.969 102.541 107.698 103 110.246C101.92 112.92 102.195 114.668 102.6 115.731C103.269 117.484 104.282 117.347 106.654 120.511C108.197 122.57 108.354 123.41 109.479 123.739C110.52 124.044 111.042 123.519 113.191 123.67C114.683 123.774 114.543 124.035 115.499 124.042C118.263 124.062 119.487 121.881 120.891 122.514C121.752 122.903 121.46 123.801 122.524 124.374C123.829 125.078 124.978 124.109 125.611 124.711C126.292 125.358 125.148 126.652 125.229 128.708C125.316 130.907 126.705 131.521 127.941 134.423C128.411 135.527 128.969 137.221 129.118 139.532C127.678 141.493 127.416 143.072 127.423 144.117C127.436 145.991 128.316 146.606 129.159 149.877C129.807 152.39 129.309 152.108 129.914 154.156C130.91 157.528 132.066 157.634 132.526 160.473C132.753 161.874 132.622 162.779 133.307 163.259C134.072 163.795 135.285 163.402 136.216 162.966C136.842 163.226 138.159 163.66 139.49 163.159C140.614 162.736 141.217 161.845 141.925 160.676C142.846 159.155 144.034 157.014 145.238 154.26C146.011 153.957 146.981 153.419 147.419 152.433C148.1 150.901 146.806 149.838 147.47 148.114C147.766 147.347 148.495 146.697 149.954 145.398C151.304 144.195 151.426 144.37 151.763 143.868C152.542 142.707 152.041 141.545 151.489 138.07C151.043 135.261 150.827 133.83 151.155 132.474C151.508 131.017 152.202 130.106 153.357 128.622C156.182 124.994 157.674 125.187 159.486 122.345C161.071 119.859 161.678 116.965 161.01 116.529C160.705 116.329 160.299 116.75 158.683 117.305C157.992 117.542 156.789 117.956 156.039 117.955C154.006 117.954 152.526 115.089 151.637 113.411C149.796 109.937 150.796 109.057 149.078 107.246C148.421 106.553 147.401 105.761 147.318 104.471C147.312 104.376 147.255 103.33 147.732 103.112C148.627 102.7 150.766 105.509 151.395 106.382C153.646 109.507 155.45 113.446 155.45 113.446C155.701 113.995 155.985 114.644 156.628 114.886C157.6 115.251 158.45 114.325 160.421 113.316C162.967 112.012 163.185 112.72 165.011 111.542C165.265 111.378 167.071 110.183 168.224 107.943C168.667 107.083 168.937 106.576 168.735 106.079C168.477 105.443 167.762 105.571 167.325 104.825C166.892 104.086 167.37 103.58 166.922 102.809C166.876 102.73 166.378 101.896 165.676 101.86C164.388 101.793 163.879 104.496 162.078 104.676C161.89 104.695 161.562 104.724 161.259 104.539C160.581 104.126 160.799 103.112 160.535 102.073C160.004 99.9831 157.926 99.4276 158.197 98.7948C158.501 98.0851 160.814 98.4188 162.515 98.6642C163.727 98.839 165.213 99.0623 167.132 99.7748C168.635 100.332 168.691 100.555 172.849 102.589C174.724 103.506 174.691 103.45 174.872 103.608C176.951 105.417 176.116 108.22 177.951 109.392C178.093 109.482 178.241 109.556 178.39 109.617C178.39 109.667 178.389 109.717 178.389 109.767C177.951 147.603 146.803 178.384 108.955 178.384L108.954 178.384ZM103.459 55.8997C101.951 56.5147 100.573 57.077 99.1962 56.42C98.8472 56.2533 98.1628 55.8481 97.6119 54.8767C96.7053 54.7331 96.0811 54.0829 96.0661 53.4213C96.048 52.6201 96.9314 52.144 97.0753 52.0703C97.8509 51.6725 98.8544 51.827 99.6887 52.431C100.027 52.4068 100.504 52.3779 101.075 52.3605C104.409 52.2576 104.928 52.7223 105.106 52.9131C105.436 53.2664 105.657 53.8169 105.554 54.3165C105.393 55.0967 104.503 55.4742 103.459 55.8997ZM108.877 68.5746C110.035 67.6189 111.363 68.2659 111.876 67.4095C112.446 66.4576 110.997 65.3381 111.522 64.0558C111.928 63.0633 113.348 62.386 114.503 62.6876C115.851 63.0398 116.364 64.6027 116.465 64.9115C117.047 66.6863 115.954 67.5544 116.64 69.2384C117.081 70.3206 117.678 70.3199 117.725 71.046C117.838 72.7997 114.497 75.0211 113.124 74.2498C111.85 73.5347 112.416 70.3288 111.85 70.2754C111.503 70.2426 111.41 71.4526 110.316 72.2375C109.696 72.6826 108.647 73.0682 108.114 72.674C107.315 72.0826 107.57 69.6533 108.877 68.5746ZM161.338 139.35C162.163 140.887 159.007 147.1 158.465 148.156C158.421 148.242 158.254 148.575 157.984 148.989C157.093 150.353 156.218 151.695 155.354 151.531C154.507 151.371 153.768 149.785 154.064 148.575C154.339 147.447 155.379 147.193 155.471 145.919C155.51 145.372 155.322 145.37 155.335 144.554C155.344 143.976 155.36 142.992 155.952 142.419C156.442 141.944 156.838 142.227 157.547 141.889C158.901 141.245 158.447 139.37 159.683 138.85C159.729 138.831 160.405 138.58 160.927 138.898C160.927 138.898 161.177 139.05 161.338 139.351V139.35Z" fill="#422F89"/>
<path d="M168.954 95.945C168.954 136.262 136.271 168.945 95.9542 168.945C55.6374 168.945 22.9542 136.262 22.9542 95.945C22.9542 55.6282 55.6374 22.945 95.9542 22.945C136.271 22.945 168.954 55.6282 168.954 95.945Z" fill="#401A79"/>
</svg>
