<svg width="128" height="321" viewBox="0 0 128 321" fill="none" xmlns="http://www.w3.org/2000/svg">
<rect opacity="0.8" width="128" height="321" rx="30" fill="#F5EAFF"/>
<path d="M63.643 49.4V30.6H65.283V49.4H63.643ZM64.263 47.2C63.1696 47.2 62.123 47.0467 61.123 46.74C60.123 46.42 59.3296 46.0133 58.743 45.52L59.643 43.5C60.203 43.94 60.8963 44.3067 61.723 44.6C62.5496 44.8933 63.3963 45.04 64.263 45.04C64.9963 45.04 65.5896 44.96 66.043 44.8C66.4963 44.64 66.8296 44.4267 67.043 44.16C67.2563 43.88 67.363 43.5667 67.363 43.22C67.363 42.7933 67.2096 42.4533 66.903 42.2C66.5963 41.9333 66.1963 41.7267 65.703 41.58C65.223 41.42 64.683 41.2733 64.083 41.14C63.4963 41.0067 62.903 40.8533 62.303 40.68C61.7163 40.4933 61.1763 40.26 60.683 39.98C60.203 39.6867 59.8096 39.3 59.503 38.82C59.1963 38.34 59.043 37.7267 59.043 36.98C59.043 36.22 59.243 35.5267 59.643 34.9C60.0563 34.26 60.6763 33.7533 61.503 33.38C62.343 32.9933 63.403 32.8 64.683 32.8C65.523 32.8 66.3563 32.9067 67.183 33.12C68.0096 33.3333 68.7296 33.64 69.343 34.04L68.523 36.06C67.8963 35.6867 67.2496 35.4133 66.583 35.24C65.9163 35.0533 65.2763 34.96 64.663 34.96C63.943 34.96 63.3563 35.0467 62.903 35.22C62.463 35.3933 62.1363 35.62 61.923 35.9C61.723 36.18 61.623 36.5 61.623 36.86C61.623 37.2867 61.7696 37.6333 62.063 37.9C62.3696 38.1533 62.763 38.3533 63.243 38.5C63.7363 38.6467 64.283 38.7933 64.883 38.94C65.483 39.0733 66.0763 39.2267 66.663 39.4C67.263 39.5733 67.803 39.8 68.283 40.08C68.7763 40.36 69.1696 40.74 69.463 41.22C69.7696 41.7 69.923 42.3067 69.923 43.04C69.923 43.7867 69.7163 44.48 69.303 45.12C68.903 45.7467 68.283 46.2533 67.443 46.64C66.603 47.0133 65.543 47.2 64.263 47.2ZM73.5458 47V34L74.6858 35.18H70.5858V33H76.1458V47H73.5458ZM84.763 47.2C83.6563 47.2 82.6563 46.92 81.763 46.36C80.883 45.8 80.1896 44.9867 79.683 43.92C79.1763 42.84 78.923 41.5333 78.923 40C78.923 38.4667 79.1763 37.1667 79.683 36.1C80.1896 35.02 80.883 34.2 81.763 33.64C82.6563 33.08 83.6563 32.8 84.763 32.8C85.883 32.8 86.883 33.08 87.763 33.64C88.643 34.2 89.3363 35.02 89.843 36.1C90.363 37.1667 90.623 38.4667 90.623 40C90.623 41.5333 90.363 42.84 89.843 43.92C89.3363 44.9867 88.643 45.8 87.763 46.36C86.883 46.92 85.883 47.2 84.763 47.2ZM84.763 44.94C85.4163 44.94 85.983 44.7667 86.463 44.42C86.943 44.06 87.3163 43.5133 87.583 42.78C87.863 42.0467 88.003 41.12 88.003 40C88.003 38.8667 87.863 37.94 87.583 37.22C87.3163 36.4867 86.943 35.9467 86.463 35.6C85.983 35.24 85.4163 35.06 84.763 35.06C84.1363 35.06 83.5763 35.24 83.083 35.6C82.603 35.9467 82.223 36.4867 81.943 37.22C81.6763 37.94 81.543 38.8667 81.543 40C81.543 41.12 81.6763 42.0467 81.943 42.78C82.223 43.5133 82.603 44.06 83.083 44.42C83.5763 44.7667 84.1363 44.94 84.763 44.94ZM98.22 47.2C97.1133 47.2 96.1133 46.92 95.22 46.36C94.34 45.8 93.6467 44.9867 93.14 43.92C92.6333 42.84 92.38 41.5333 92.38 40C92.38 38.4667 92.6333 37.1667 93.14 36.1C93.6467 35.02 94.34 34.2 95.22 33.64C96.1133 33.08 97.1133 32.8 98.22 32.8C99.34 32.8 100.34 33.08 101.22 33.64C102.1 34.2 102.793 35.02 103.3 36.1C103.82 37.1667 104.08 38.4667 104.08 40C104.08 41.5333 103.82 42.84 103.3 43.92C102.793 44.9867 102.1 45.8 101.22 46.36C100.34 46.92 99.34 47.2 98.22 47.2ZM98.22 44.94C98.8733 44.94 99.44 44.7667 99.92 44.42C100.4 44.06 100.773 43.5133 101.04 42.78C101.32 42.0467 101.46 41.12 101.46 40C101.46 38.8667 101.32 37.94 101.04 37.22C100.773 36.4867 100.4 35.9467 99.92 35.6C99.44 35.24 98.8733 35.06 98.22 35.06C97.5933 35.06 97.0333 35.24 96.54 35.6C96.06 35.9467 95.68 36.4867 95.4 37.22C95.1333 37.94 95 38.8667 95 40C95 41.12 95.1333 42.0467 95.4 42.78C95.68 43.5133 96.06 44.06 96.54 44.42C97.0333 44.7667 97.5933 44.94 98.22 44.94Z" fill="#422F89"/>
<circle cx="35.5" cy="40.5" r="14.5" fill="#AC00EA"/>
<path d="M61.0336 96.4V77.6H62.6736V96.4H61.0336ZM61.6536 94.2C60.5603 94.2 59.5136 94.0467 58.5136 93.74C57.5136 93.42 56.7203 93.0133 56.1336 92.52L57.0336 90.5C57.5936 90.94 58.2869 91.3067 59.1136 91.6C59.9403 91.8933 60.7869 92.04 61.6536 92.04C62.3869 92.04 62.9803 91.96 63.4336 91.8C63.8869 91.64 64.2203 91.4267 64.4336 91.16C64.6469 90.88 64.7536 90.5667 64.7536 90.22C64.7536 89.7933 64.6003 89.4533 64.2936 89.2C63.9869 88.9333 63.5869 88.7267 63.0936 88.58C62.6136 88.42 62.0736 88.2733 61.4736 88.14C60.8869 88.0067 60.2936 87.8533 59.6936 87.68C59.1069 87.4933 58.5669 87.26 58.0736 86.98C57.5936 86.6867 57.2003 86.3 56.8936 85.82C56.5869 85.34 56.4336 84.7267 56.4336 83.98C56.4336 83.22 56.6336 82.5267 57.0336 81.9C57.4469 81.26 58.0669 80.7533 58.8936 80.38C59.7336 79.9933 60.7936 79.8 62.0736 79.8C62.9136 79.8 63.7469 79.9067 64.5736 80.12C65.4003 80.3333 66.1203 80.64 66.7336 81.04L65.9136 83.06C65.2869 82.6867 64.6403 82.4133 63.9736 82.24C63.3069 82.0533 62.6669 81.96 62.0536 81.96C61.3336 81.96 60.7469 82.0467 60.2936 82.22C59.8536 82.3933 59.5269 82.62 59.3136 82.9C59.1136 83.18 59.0136 83.5 59.0136 83.86C59.0136 84.2867 59.1603 84.6333 59.4536 84.9C59.7603 85.1533 60.1536 85.3533 60.6336 85.5C61.1269 85.6467 61.6736 85.7933 62.2736 85.94C62.8736 86.0733 63.4669 86.2267 64.0536 86.4C64.6536 86.5733 65.1936 86.8 65.6736 87.08C66.1669 87.36 66.5603 87.74 66.8536 88.22C67.1603 88.7 67.3136 89.3067 67.3136 90.04C67.3136 90.7867 67.1069 91.48 66.6936 92.12C66.2936 92.7467 65.6736 93.2533 64.8336 93.64C63.9936 94.0133 62.9336 94.2 61.6536 94.2ZM68.7117 94V92.26L74.2717 86.98C74.7384 86.54 75.0851 86.1533 75.3117 85.82C75.5384 85.4867 75.6851 85.18 75.7517 84.9C75.8317 84.6067 75.8717 84.3333 75.8717 84.08C75.8717 83.44 75.6517 82.9467 75.2117 82.6C74.7717 82.24 74.1251 82.06 73.2717 82.06C72.5917 82.06 71.9717 82.18 71.4117 82.42C70.8651 82.66 70.3917 83.0267 69.9917 83.52L68.1717 82.12C68.7184 81.3867 69.4517 80.82 70.3717 80.42C71.3051 80.0067 72.3451 79.8 73.4917 79.8C74.5051 79.8 75.3851 79.9667 76.1317 80.3C76.8917 80.62 77.4717 81.08 77.8717 81.68C78.2851 82.28 78.4917 82.9933 78.4917 83.82C78.4917 84.2733 78.4317 84.7267 78.3117 85.18C78.1917 85.62 77.9651 86.0867 77.6317 86.58C77.2984 87.0733 76.8117 87.6267 76.1717 88.24L71.3917 92.78L70.8517 91.8H79.0317V94H68.7117ZM86.3723 94.2C85.2657 94.2 84.2657 93.92 83.3723 93.36C82.4923 92.8 81.799 91.9867 81.2923 90.92C80.7857 89.84 80.5323 88.5333 80.5323 87C80.5323 85.4667 80.7857 84.1667 81.2923 83.1C81.799 82.02 82.4923 81.2 83.3723 80.64C84.2657 80.08 85.2657 79.8 86.3723 79.8C87.4923 79.8 88.4923 80.08 89.3723 80.64C90.2523 81.2 90.9457 82.02 91.4523 83.1C91.9723 84.1667 92.2323 85.4667 92.2323 87C92.2323 88.5333 91.9723 89.84 91.4523 90.92C90.9457 91.9867 90.2523 92.8 89.3723 93.36C88.4923 93.92 87.4923 94.2 86.3723 94.2ZM86.3723 91.94C87.0257 91.94 87.5923 91.7667 88.0723 91.42C88.5523 91.06 88.9257 90.5133 89.1923 89.78C89.4723 89.0467 89.6123 88.12 89.6123 87C89.6123 85.8667 89.4723 84.94 89.1923 84.22C88.9257 83.4867 88.5523 82.9467 88.0723 82.6C87.5923 82.24 87.0257 82.06 86.3723 82.06C85.7457 82.06 85.1857 82.24 84.6923 82.6C84.2123 82.9467 83.8323 83.4867 83.5523 84.22C83.2857 84.94 83.1523 85.8667 83.1523 87C83.1523 88.12 83.2857 89.0467 83.5523 89.78C83.8323 90.5133 84.2123 91.06 84.6923 91.42C85.1857 91.7667 85.7457 91.94 86.3723 91.94ZM99.8294 94.2C98.7227 94.2 97.7227 93.92 96.8294 93.36C95.9494 92.8 95.256 91.9867 94.7494 90.92C94.2427 89.84 93.9894 88.5333 93.9894 87C93.9894 85.4667 94.2427 84.1667 94.7494 83.1C95.256 82.02 95.9494 81.2 96.8294 80.64C97.7227 80.08 98.7227 79.8 99.8294 79.8C100.949 79.8 101.949 80.08 102.829 80.64C103.709 81.2 104.403 82.02 104.909 83.1C105.429 84.1667 105.689 85.4667 105.689 87C105.689 88.5333 105.429 89.84 104.909 90.92C104.403 91.9867 103.709 92.8 102.829 93.36C101.949 93.92 100.949 94.2 99.8294 94.2ZM99.8294 91.94C100.483 91.94 101.049 91.7667 101.529 91.42C102.009 91.06 102.383 90.5133 102.649 89.78C102.929 89.0467 103.069 88.12 103.069 87C103.069 85.8667 102.929 84.94 102.649 84.22C102.383 83.4867 102.009 82.9467 101.529 82.6C101.049 82.24 100.483 82.06 99.8294 82.06C99.2027 82.06 98.6427 82.24 98.1494 82.6C97.6694 82.9467 97.2894 83.4867 97.0094 84.22C96.7427 84.94 96.6094 85.8667 96.6094 87C96.6094 88.12 96.7427 89.0467 97.0094 89.78C97.2894 90.5133 97.6694 91.06 98.1494 91.42C98.6427 91.7667 99.2027 91.94 99.8294 91.94Z" fill="#422F89"/>
<circle cx="35.5" cy="87.5" r="14.5" fill="#EB2FD4"/>
<path d="M61.9223 143.4V124.6H63.5623V143.4H61.9223ZM62.5423 141.2C61.4489 141.2 60.4023 141.047 59.4023 140.74C58.4023 140.42 57.6089 140.013 57.0223 139.52L57.9223 137.5C58.4823 137.94 59.1756 138.307 60.0023 138.6C60.8289 138.893 61.6756 139.04 62.5423 139.04C63.2756 139.04 63.8689 138.96 64.3223 138.8C64.7756 138.64 65.1089 138.427 65.3223 138.16C65.5356 137.88 65.6423 137.567 65.6423 137.22C65.6423 136.793 65.4889 136.453 65.1823 136.2C64.8756 135.933 64.4756 135.727 63.9823 135.58C63.5023 135.42 62.9623 135.273 62.3623 135.14C61.7756 135.007 61.1823 134.853 60.5823 134.68C59.9956 134.493 59.4556 134.26 58.9623 133.98C58.4823 133.687 58.0889 133.3 57.7823 132.82C57.4756 132.34 57.3223 131.727 57.3223 130.98C57.3223 130.22 57.5223 129.527 57.9223 128.9C58.3356 128.26 58.9556 127.753 59.7823 127.38C60.6223 126.993 61.6823 126.8 62.9623 126.8C63.8023 126.8 64.6356 126.907 65.4623 127.12C66.2889 127.333 67.0089 127.64 67.6223 128.04L66.8023 130.06C66.1756 129.687 65.5289 129.413 64.8623 129.24C64.1956 129.053 63.5556 128.96 62.9423 128.96C62.2223 128.96 61.6356 129.047 61.1823 129.22C60.7423 129.393 60.4156 129.62 60.2023 129.9C60.0023 130.18 59.9023 130.5 59.9023 130.86C59.9023 131.287 60.0489 131.633 60.3423 131.9C60.6489 132.153 61.0423 132.353 61.5223 132.5C62.0156 132.647 62.5623 132.793 63.1623 132.94C63.7623 133.073 64.3556 133.227 64.9423 133.4C65.5423 133.573 66.0823 133.8 66.5623 134.08C67.0556 134.36 67.4489 134.74 67.7423 135.22C68.0489 135.7 68.2023 136.307 68.2023 137.04C68.2023 137.787 67.9956 138.48 67.5823 139.12C67.1823 139.747 66.5623 140.253 65.7223 140.64C64.8823 141.013 63.8223 141.2 62.5423 141.2ZM69.6004 141V139.26L75.1604 133.98C75.6271 133.54 75.9737 133.153 76.2004 132.82C76.4271 132.487 76.5737 132.18 76.6404 131.9C76.7204 131.607 76.7604 131.333 76.7604 131.08C76.7604 130.44 76.5404 129.947 76.1004 129.6C75.6604 129.24 75.0137 129.06 74.1604 129.06C73.4804 129.06 72.8604 129.18 72.3004 129.42C71.7537 129.66 71.2804 130.027 70.8804 130.52L69.0604 129.12C69.6071 128.387 70.3404 127.82 71.2604 127.42C72.1937 127.007 73.2337 126.8 74.3804 126.8C75.3937 126.8 76.2737 126.967 77.0204 127.3C77.7804 127.62 78.3604 128.08 78.7604 128.68C79.1737 129.28 79.3804 129.993 79.3804 130.82C79.3804 131.273 79.3204 131.727 79.2004 132.18C79.0804 132.62 78.8537 133.087 78.5204 133.58C78.1871 134.073 77.7004 134.627 77.0604 135.24L72.2804 139.78L71.7404 138.8H79.9204V141H69.6004ZM86.061 141.2C85.0743 141.2 84.1077 141.06 83.161 140.78C82.2277 140.487 81.441 140.087 80.801 139.58L81.901 137.56C82.4077 137.973 83.021 138.307 83.741 138.56C84.4743 138.813 85.2343 138.94 86.021 138.94C86.941 138.94 87.661 138.747 88.181 138.36C88.7143 137.973 88.981 137.453 88.981 136.8C88.981 136.36 88.8677 135.973 88.641 135.64C88.4277 135.307 88.041 135.053 87.481 134.88C86.9343 134.707 86.181 134.62 85.221 134.62H81.841L82.561 127H90.781V129.18H83.521L84.881 127.94L84.341 133.64L82.981 132.42H85.801C87.1877 132.42 88.301 132.607 89.141 132.98C89.9943 133.34 90.6143 133.847 91.001 134.5C91.401 135.14 91.601 135.873 91.601 136.7C91.601 137.513 91.401 138.26 91.001 138.94C90.601 139.62 89.9877 140.167 89.161 140.58C88.3477 140.993 87.3143 141.2 86.061 141.2ZM98.9407 141.2C97.834 141.2 96.834 140.92 95.9407 140.36C95.0607 139.8 94.3674 138.987 93.8607 137.92C93.354 136.84 93.1007 135.533 93.1007 134C93.1007 132.467 93.354 131.167 93.8607 130.1C94.3674 129.02 95.0607 128.2 95.9407 127.64C96.834 127.08 97.834 126.8 98.9407 126.8C100.061 126.8 101.061 127.08 101.941 127.64C102.821 128.2 103.514 129.02 104.021 130.1C104.541 131.167 104.801 132.467 104.801 134C104.801 135.533 104.541 136.84 104.021 137.92C103.514 138.987 102.821 139.8 101.941 140.36C101.061 140.92 100.061 141.2 98.9407 141.2ZM98.9407 138.94C99.594 138.94 100.161 138.767 100.641 138.42C101.121 138.06 101.494 137.513 101.761 136.78C102.041 136.047 102.181 135.12 102.181 134C102.181 132.867 102.041 131.94 101.761 131.22C101.494 130.487 101.121 129.947 100.641 129.6C100.161 129.24 99.594 129.06 98.9407 129.06C98.314 129.06 97.754 129.24 97.2607 129.6C96.7807 129.947 96.4007 130.487 96.1207 131.22C95.854 131.94 95.7207 132.867 95.7207 134C95.7207 135.12 95.854 136.047 96.1207 136.78C96.4007 137.513 96.7807 138.06 97.2607 138.42C97.754 138.767 98.314 138.94 98.9407 138.94Z" fill="#422F89"/>
<circle cx="35.5" cy="134.5" r="14.5" fill="#FF7274"/>
<path d="M62.7426 190.4V171.6H64.3826V190.4H62.7426ZM63.3626 188.2C62.2692 188.2 61.2226 188.047 60.2226 187.74C59.2226 187.42 58.4292 187.013 57.8426 186.52L58.7426 184.5C59.3026 184.94 59.9959 185.307 60.8226 185.6C61.6492 185.893 62.4959 186.04 63.3626 186.04C64.0959 186.04 64.6892 185.96 65.1426 185.8C65.5959 185.64 65.9292 185.427 66.1426 185.16C66.3559 184.88 66.4626 184.567 66.4626 184.22C66.4626 183.793 66.3092 183.453 66.0026 183.2C65.6959 182.933 65.2959 182.727 64.8026 182.58C64.3226 182.42 63.7826 182.273 63.1826 182.14C62.5959 182.007 62.0026 181.853 61.4026 181.68C60.8159 181.493 60.2759 181.26 59.7826 180.98C59.3026 180.687 58.9092 180.3 58.6026 179.82C58.2959 179.34 58.1426 178.727 58.1426 177.98C58.1426 177.22 58.3426 176.527 58.7426 175.9C59.1559 175.26 59.7759 174.753 60.6026 174.38C61.4426 173.993 62.5026 173.8 63.7826 173.8C64.6226 173.8 65.4559 173.907 66.2826 174.12C67.1092 174.333 67.8292 174.64 68.4426 175.04L67.6226 177.06C66.9959 176.687 66.3492 176.413 65.6826 176.24C65.0159 176.053 64.3759 175.96 63.7626 175.96C63.0426 175.96 62.4559 176.047 62.0026 176.22C61.5626 176.393 61.2359 176.62 61.0226 176.9C60.8226 177.18 60.7226 177.5 60.7226 177.86C60.7226 178.287 60.8692 178.633 61.1626 178.9C61.4692 179.153 61.8626 179.353 62.3426 179.5C62.8359 179.647 63.3826 179.793 63.9826 179.94C64.5826 180.073 65.1759 180.227 65.7626 180.4C66.3626 180.573 66.9026 180.8 67.3826 181.08C67.8759 181.36 68.2692 181.74 68.5626 182.22C68.8692 182.7 69.0226 183.307 69.0226 184.04C69.0226 184.787 68.8159 185.48 68.4026 186.12C68.0026 186.747 67.3826 187.253 66.5426 187.64C65.7026 188.013 64.6426 188.2 63.3626 188.2ZM70.4207 188V186.26L75.9807 180.98C76.4474 180.54 76.794 180.153 77.0207 179.82C77.2474 179.487 77.394 179.18 77.4607 178.9C77.5407 178.607 77.5807 178.333 77.5807 178.08C77.5807 177.44 77.3607 176.947 76.9207 176.6C76.4807 176.24 75.834 176.06 74.9807 176.06C74.3007 176.06 73.6807 176.18 73.1207 176.42C72.574 176.66 72.1007 177.027 71.7007 177.52L69.8807 176.12C70.4274 175.387 71.1607 174.82 72.0807 174.42C73.014 174.007 74.054 173.8 75.2007 173.8C76.214 173.8 77.094 173.967 77.8407 174.3C78.6007 174.62 79.1807 175.08 79.5807 175.68C79.994 176.28 80.2007 176.993 80.2007 177.82C80.2007 178.273 80.1407 178.727 80.0207 179.18C79.9007 179.62 79.674 180.087 79.3407 180.58C79.0074 181.073 78.5207 181.627 77.8807 182.24L73.1007 186.78L72.5607 185.8H80.7407V188H70.4207ZM84.5813 188L90.3613 175.04L91.0413 176.2H83.1013L84.3413 174.94V178.58H81.9213V174H92.8013V175.74L87.3613 188H84.5813ZM98.6977 188.2C97.7111 188.2 96.7444 188.06 95.7977 187.78C94.8644 187.487 94.0777 187.087 93.4377 186.58L94.5377 184.56C95.0444 184.973 95.6577 185.307 96.3777 185.56C97.1111 185.813 97.8711 185.94 98.6577 185.94C99.5777 185.94 100.298 185.747 100.818 185.36C101.351 184.973 101.618 184.453 101.618 183.8C101.618 183.36 101.504 182.973 101.278 182.64C101.064 182.307 100.678 182.053 100.118 181.88C99.5711 181.707 98.8177 181.62 97.8577 181.62H94.4777L95.1977 174H103.418V176.18H96.1577L97.5177 174.94L96.9777 180.64L95.6177 179.42H98.4377C99.8244 179.42 100.938 179.607 101.778 179.98C102.631 180.34 103.251 180.847 103.638 181.5C104.038 182.14 104.238 182.873 104.238 183.7C104.238 184.513 104.038 185.26 103.638 185.94C103.238 186.62 102.624 187.167 101.798 187.58C100.984 187.993 99.9511 188.2 98.6977 188.2Z" fill="#422F89"/>
<circle cx="35.5" cy="181.5" r="14.5" fill="#FFBA59"/>
<path d="M61.0824 237.4V218.6H62.7224V237.4H61.0824ZM61.7024 235.2C60.6091 235.2 59.5624 235.047 58.5624 234.74C57.5624 234.42 56.7691 234.013 56.1824 233.52L57.0824 231.5C57.6424 231.94 58.3358 232.307 59.1624 232.6C59.9891 232.893 60.8358 233.04 61.7024 233.04C62.4358 233.04 63.0291 232.96 63.4824 232.8C63.9358 232.64 64.2691 232.427 64.4824 232.16C64.6958 231.88 64.8024 231.567 64.8024 231.22C64.8024 230.793 64.6491 230.453 64.3424 230.2C64.0358 229.933 63.6358 229.727 63.1424 229.58C62.6624 229.42 62.1224 229.273 61.5224 229.14C60.9358 229.007 60.3424 228.853 59.7424 228.68C59.1558 228.493 58.6158 228.26 58.1224 227.98C57.6424 227.687 57.2491 227.3 56.9424 226.82C56.6358 226.34 56.4824 225.727 56.4824 224.98C56.4824 224.22 56.6824 223.527 57.0824 222.9C57.4958 222.26 58.1158 221.753 58.9424 221.38C59.7824 220.993 60.8424 220.8 62.1224 220.8C62.9624 220.8 63.7958 220.907 64.6224 221.12C65.4491 221.333 66.1691 221.64 66.7824 222.04L65.9624 224.06C65.3358 223.687 64.6891 223.413 64.0224 223.24C63.3558 223.053 62.7158 222.96 62.1024 222.96C61.3824 222.96 60.7958 223.047 60.3424 223.22C59.9024 223.393 59.5758 223.62 59.3624 223.9C59.1624 224.18 59.0624 224.5 59.0624 224.86C59.0624 225.287 59.2091 225.633 59.5024 225.9C59.8091 226.153 60.2024 226.353 60.6824 226.5C61.1758 226.647 61.7224 226.793 62.3224 226.94C62.9224 227.073 63.5158 227.227 64.1024 227.4C64.7024 227.573 65.2424 227.8 65.7224 228.08C66.2158 228.36 66.6091 228.74 66.9024 229.22C67.2091 229.7 67.3624 230.307 67.3624 231.04C67.3624 231.787 67.1558 232.48 66.7424 233.12C66.3424 233.747 65.7224 234.253 64.8824 234.64C64.0424 235.013 62.9824 235.2 61.7024 235.2ZM73.2429 235.2C72.2562 235.2 71.2896 235.06 70.3429 234.78C69.4096 234.487 68.6229 234.087 67.9829 233.58L69.1029 231.56C69.6096 231.973 70.2229 232.307 70.9429 232.56C71.6629 232.813 72.4162 232.94 73.2029 232.94C74.1362 232.94 74.8629 232.753 75.3829 232.38C75.9029 231.993 76.1629 231.473 76.1629 230.82C76.1629 230.18 75.9229 229.673 75.4429 229.3C74.9629 228.927 74.1896 228.74 73.1229 228.74H71.8429V226.96L75.8429 222.2L76.1829 223.18H68.6629V221H78.2029V222.74L74.2029 227.5L72.8429 226.7H73.6229C75.3429 226.7 76.6296 227.087 77.4829 227.86C78.3496 228.62 78.7829 229.6 78.7829 230.8C78.7829 231.587 78.5829 232.313 78.1829 232.98C77.7829 233.647 77.1696 234.187 76.3429 234.6C75.5296 235 74.4962 235.2 73.2429 235.2ZM86.3235 235.2C85.2168 235.2 84.2168 234.92 83.3235 234.36C82.4435 233.8 81.7502 232.987 81.2435 231.92C80.7368 230.84 80.4835 229.533 80.4835 228C80.4835 226.467 80.7368 225.167 81.2435 224.1C81.7502 223.02 82.4435 222.2 83.3235 221.64C84.2168 221.08 85.2168 220.8 86.3235 220.8C87.4435 220.8 88.4435 221.08 89.3235 221.64C90.2035 222.2 90.8968 223.02 91.4035 224.1C91.9235 225.167 92.1835 226.467 92.1835 228C92.1835 229.533 91.9235 230.84 91.4035 231.92C90.8968 232.987 90.2035 233.8 89.3235 234.36C88.4435 234.92 87.4435 235.2 86.3235 235.2ZM86.3235 232.94C86.9768 232.94 87.5435 232.767 88.0235 232.42C88.5035 232.06 88.8768 231.513 89.1435 230.78C89.4235 230.047 89.5635 229.12 89.5635 228C89.5635 226.867 89.4235 225.94 89.1435 225.22C88.8768 224.487 88.5035 223.947 88.0235 223.6C87.5435 223.24 86.9768 223.06 86.3235 223.06C85.6968 223.06 85.1368 223.24 84.6435 223.6C84.1635 223.947 83.7835 224.487 83.5035 225.22C83.2368 225.94 83.1035 226.867 83.1035 228C83.1035 229.12 83.2368 230.047 83.5035 230.78C83.7835 231.513 84.1635 232.06 84.6435 232.42C85.1368 232.767 85.6968 232.94 86.3235 232.94ZM99.7805 235.2C98.6739 235.2 97.6739 234.92 96.7805 234.36C95.9005 233.8 95.2072 232.987 94.7005 231.92C94.1939 230.84 93.9405 229.533 93.9405 228C93.9405 226.467 94.1939 225.167 94.7005 224.1C95.2072 223.02 95.9005 222.2 96.7805 221.64C97.6739 221.08 98.6739 220.8 99.7805 220.8C100.901 220.8 101.901 221.08 102.781 221.64C103.661 222.2 104.354 223.02 104.861 224.1C105.381 225.167 105.641 226.467 105.641 228C105.641 229.533 105.381 230.84 104.861 231.92C104.354 232.987 103.661 233.8 102.781 234.36C101.901 234.92 100.901 235.2 99.7805 235.2ZM99.7805 232.94C100.434 232.94 101.001 232.767 101.481 232.42C101.961 232.06 102.334 231.513 102.601 230.78C102.881 230.047 103.021 229.12 103.021 228C103.021 226.867 102.881 225.94 102.601 225.22C102.334 224.487 101.961 223.947 101.481 223.6C101.001 223.24 100.434 223.06 99.7805 223.06C99.1539 223.06 98.5939 223.24 98.1005 223.6C97.6205 223.947 97.2405 224.487 96.9605 225.22C96.6939 225.94 96.5605 226.867 96.5605 228C96.5605 229.12 96.6939 230.047 96.9605 230.78C97.2405 231.513 97.6205 232.06 98.1005 232.42C98.5939 232.767 99.1539 232.94 99.7805 232.94Z" fill="#422F89"/>
<circle cx="35.5" cy="228.5" r="14.5" fill="#76B373"/>
<path d="M62.0688 284.4V265.6H63.7088V284.4H62.0688ZM62.6888 282.2C61.5954 282.2 60.5488 282.047 59.5488 281.74C58.5488 281.42 57.7554 281.013 57.1688 280.52L58.0688 278.5C58.6288 278.94 59.3221 279.307 60.1488 279.6C60.9754 279.893 61.8221 280.04 62.6888 280.04C63.4221 280.04 64.0154 279.96 64.4688 279.8C64.9221 279.64 65.2554 279.427 65.4688 279.16C65.6821 278.88 65.7888 278.567 65.7888 278.22C65.7888 277.793 65.6354 277.453 65.3288 277.2C65.0221 276.933 64.6221 276.727 64.1288 276.58C63.6488 276.42 63.1088 276.273 62.5088 276.14C61.9221 276.007 61.3288 275.853 60.7288 275.68C60.1421 275.493 59.6021 275.26 59.1087 274.98C58.6288 274.687 58.2354 274.3 57.9288 273.82C57.6221 273.34 57.4688 272.727 57.4688 271.98C57.4688 271.22 57.6688 270.527 58.0688 269.9C58.4821 269.26 59.1021 268.753 59.9288 268.38C60.7688 267.993 61.8288 267.8 63.1088 267.8C63.9488 267.8 64.7821 267.907 65.6088 268.12C66.4354 268.333 67.1554 268.64 67.7687 269.04L66.9488 271.06C66.3221 270.687 65.6754 270.413 65.0088 270.24C64.3421 270.053 63.7021 269.96 63.0888 269.96C62.3688 269.96 61.7821 270.047 61.3288 270.22C60.8888 270.393 60.5621 270.62 60.3488 270.9C60.1488 271.18 60.0488 271.5 60.0488 271.86C60.0488 272.287 60.1954 272.633 60.4888 272.9C60.7954 273.153 61.1888 273.353 61.6688 273.5C62.1621 273.647 62.7088 273.793 63.3088 273.94C63.9088 274.073 64.5021 274.227 65.0888 274.4C65.6888 274.573 66.2288 274.8 66.7088 275.08C67.2021 275.36 67.5954 275.74 67.8888 276.22C68.1954 276.7 68.3488 277.307 68.3488 278.04C68.3488 278.787 68.1421 279.48 67.7288 280.12C67.3288 280.747 66.7088 281.253 65.8688 281.64C65.0288 282.013 63.9688 282.2 62.6888 282.2ZM74.2292 282.2C73.2426 282.2 72.2759 282.06 71.3292 281.78C70.3959 281.487 69.6092 281.087 68.9692 280.58L70.0892 278.56C70.5959 278.973 71.2092 279.307 71.9292 279.56C72.6492 279.813 73.4026 279.94 74.1892 279.94C75.1226 279.94 75.8492 279.753 76.3692 279.38C76.8892 278.993 77.1492 278.473 77.1492 277.82C77.1492 277.18 76.9092 276.673 76.4292 276.3C75.9492 275.927 75.1759 275.74 74.1092 275.74H72.8292V273.96L76.8292 269.2L77.1692 270.18H69.6492V268H79.1892V269.74L75.1892 274.5L73.8292 273.7H74.6092C76.3292 273.7 77.6159 274.087 78.4692 274.86C79.3359 275.62 79.7692 276.6 79.7692 277.8C79.7692 278.587 79.5692 279.313 79.1692 279.98C78.7692 280.647 78.1559 281.187 77.3292 281.6C76.5159 282 75.4826 282.2 74.2292 282.2ZM85.9145 282.2C84.9279 282.2 83.9612 282.06 83.0145 281.78C82.0812 281.487 81.2945 281.087 80.6545 280.58L81.7545 278.56C82.2612 278.973 82.8745 279.307 83.5945 279.56C84.3279 279.813 85.0879 279.94 85.8745 279.94C86.7945 279.94 87.5145 279.747 88.0345 279.36C88.5679 278.973 88.8345 278.453 88.8345 277.8C88.8345 277.36 88.7212 276.973 88.4945 276.64C88.2812 276.307 87.8945 276.053 87.3345 275.88C86.7879 275.707 86.0345 275.62 85.0745 275.62H81.6945L82.4145 268H90.6345V270.18H83.3745L84.7345 268.94L84.1945 274.64L82.8345 273.42H85.6545C87.0412 273.42 88.1545 273.607 88.9945 273.98C89.8479 274.34 90.4679 274.847 90.8545 275.5C91.2545 276.14 91.4545 276.873 91.4545 277.7C91.4545 278.513 91.2545 279.26 90.8545 279.94C90.4545 280.62 89.8412 281.167 89.0145 281.58C88.2012 281.993 87.1679 282.2 85.9145 282.2ZM98.7942 282.2C97.6876 282.2 96.6876 281.92 95.7942 281.36C94.9142 280.8 94.2209 279.987 93.7142 278.92C93.2076 277.84 92.9542 276.533 92.9542 275C92.9542 273.467 93.2076 272.167 93.7142 271.1C94.2209 270.02 94.9142 269.2 95.7942 268.64C96.6876 268.08 97.6876 267.8 98.7942 267.8C99.9142 267.8 100.914 268.08 101.794 268.64C102.674 269.2 103.368 270.02 103.874 271.1C104.394 272.167 104.654 273.467 104.654 275C104.654 276.533 104.394 277.84 103.874 278.92C103.368 279.987 102.674 280.8 101.794 281.36C100.914 281.92 99.9142 282.2 98.7942 282.2ZM98.7942 279.94C99.4476 279.94 100.014 279.767 100.494 279.42C100.974 279.06 101.348 278.513 101.614 277.78C101.894 277.047 102.034 276.12 102.034 275C102.034 273.867 101.894 272.94 101.614 272.22C101.348 271.487 100.974 270.947 100.494 270.6C100.014 270.24 99.4476 270.06 98.7942 270.06C98.1676 270.06 97.6076 270.24 97.1142 270.6C96.6342 270.947 96.2542 271.487 95.9742 272.22C95.7076 272.94 95.5742 273.867 95.5742 275C95.5742 276.12 95.7076 277.047 95.9742 277.78C96.2542 278.513 96.6342 279.06 97.1142 279.42C97.6076 279.767 98.1676 279.94 98.7942 279.94Z" fill="#422F89"/>
<circle cx="35.5" cy="275.5" r="14.5" fill="#23ADDB"/>
</svg>
