<svg width="132" height="157" viewBox="0 0 132 157" fill="none" xmlns="http://www.w3.org/2000/svg">
<path opacity="0.75" d="M13.4943 142.468L49.5962 68.9708H87.791L113.952 142.468C79.6289 168.214 32.6789 153.196 13.4943 142.468Z" fill="url(#paint0_linear_1948_1386)"/>
<path d="M50.9785 111.328C56.6011 113.952 60.2852 118.196 61.474 120.324C64.446 112.343 73.0941 96.3343 79.0916 92.9607" stroke="#6FBD6A" stroke-width="6.74715" stroke-linecap="round" stroke-linejoin="round"/>
<path d="M125.568 50.2809L119.395 52.9475C102.49 59.0519 83.7614 60.8686 65.8196 60.395C49.5368 59.9658 31.4432 57.4592 15.9838 52.2277C11.7399 50.7913 7.80659 48.646 3.59188 47.1445C5.22838 43.3727 12.6051 41.2361 16.3712 40.2537C24.1178 38.2323 31.9252 37.5621 39.8514 36.7288C40.4666 36.6641 41.5937 36.5519 41.5937 36.5519C41.5937 36.5519 91.6064 36.3778 96.4651 38.3658C98.2679 39.1056 99.9615 39.1365 101.902 39.5313C107.658 40.7015 121.351 43.591 124.803 48.4623C125.215 49.0442 125.47 49.5729 125.569 50.281L125.568 50.2809Z" fill="#F2F2F6"/>
<path d="M125.568 50.2809C125.676 51.0584 125.631 51.4354 125.345 52.2046C122.024 61.1422 108.947 66.8839 100.409 69.4728C76.9047 76.6021 45.3671 75.1264 22.7875 65.3461C16.3581 62.5614 9.1342 58.2158 4.77653 52.6643C3.26111 50.7337 2.56034 49.523 3.59184 47.1445C7.80655 48.646 11.7406 50.7914 15.9838 52.2277C31.4432 57.4592 49.5367 59.9658 65.8196 60.395C83.7616 60.8679 102.49 59.0519 119.395 52.9474L125.568 50.2809Z" fill="#C4C4D2"/>
<path d="M95.5457 38.2673C95.4429 38.7582 94.7424 39.5663 94.3821 39.9669C87.3563 47.7845 75.4715 50.2503 65.3536 49.9506C58.0127 49.7332 49.7283 49.074 44.5608 43.1606C43.2597 41.6718 40.111 38.1665 41.2865 36.5521C42.3076 34.1988 43.4344 31.8569 44.8454 29.7117C50.5615 21.021 57.406 14.8844 68.3803 15.037C82.1588 15.2283 90.6945 23.0687 94.8518 35.5956C95.0304 36.134 95.6313 37.8629 95.5464 38.2675L95.5457 38.2673Z" fill="#81CBF1"/>
<path d="M73.4475 17.9818C75.8492 18.6136 77.7272 20.1736 76.7288 22.8625C76.3907 23.7728 74.0369 26.1184 73.206 26.804C68.9688 30.2996 58.8528 33.6459 53.4984 31.8582C47.4721 29.8471 53.1505 23.4488 56.1609 21.3917C61.2873 17.888 67.3456 16.3763 73.4475 17.9818Z" fill="#98DAFE"/>
<path d="M89.025 32.2964C90.3987 32.5329 92.2374 33.6713 92.2743 35.227C92.3472 38.2677 88.1228 41.3916 85.27 41.4604C82.2233 41.5339 79.3977 38.9214 81.794 36.0467C83.3567 34.1723 86.4295 31.8495 89.025 32.2964Z" fill="#98DAFE"/>
<defs>
<linearGradient id="paint0_linear_1948_1386" x1="63.7231" y1="68.9708" x2="63.7231" y2="156.684" gradientUnits="userSpaceOnUse">
<stop stop-color="#BEFFBA"/>
<stop offset="1" stop-color="#BEFFBA" stop-opacity="0"/>
</linearGradient>
</defs>
</svg>
