<svg width="156" height="135" viewBox="0 0 156 135" fill="none" xmlns="http://www.w3.org/2000/svg">
<path d="M110.702 62.333C68.8711 64.6062 57.3555 104.989 60.6512 131.649H147.073C150.205 109.882 156.684 84.8441 143.63 71.6638C129.634 66.9982 124.115 61.6041 110.702 62.333Z" fill="#E0E4EA"/>
<g style="mix-blend-mode:multiply">
<path d="M79.3131 86.3267C80.6461 88.4595 78.7577 96.7684 77.6469 100.656V117.652C78.8688 111.987 79.6463 102.523 80.9793 99.3233C82.3123 96.1242 81.0904 88.4372 79.3131 86.3267Z" fill="#D6D6D6"/>
</g>
<path d="M95.6423 83.3275C93.4207 92.4363 89.6438 112.054 92.3098 117.652" stroke="#999B9E" stroke-width="3.99898" stroke-linecap="round" stroke-linejoin="round"/>
<g style="mix-blend-mode:multiply">
<path d="M130.3 69.6643C122.036 80.8615 95.5312 80.9948 83.3121 79.6618C86.2003 83.5497 94.5759 89.6592 103.64 89.6592C112.705 89.6592 125.079 76.8847 130.3 69.6643Z" fill="#D6D6D6"/>
</g>
<path d="M149.017 35.3586C151.316 55.8434 136.813 74.6792 112.305 77.4294C105.219 78.2245 86.5318 79.231 80.3129 77.4293C65.0211 72.9992 63.4983 53.6225 65.6499 38.3389C68.5627 17.6484 81.7974 7.09774 106.306 4.3475C130.815 1.59726 146.718 14.8738 149.017 35.3586Z" fill="#E0E4EA"/>
<path d="M133.711 47.4638C134.549 54.9281 131.103 64.9183 123.302 70.664C115.833 76.1644 110.305 77.329 92.3029 78.8972C66.735 81.1246 57.6252 71.2776 55.9857 56.6677C54.3462 42.0577 61.8573 28.74 86.3659 25.9898C98.7902 24.5956 111.03 23.0076 119.636 27.0085C128.006 30.8998 132.903 40.2602 133.711 47.4638Z" fill="#84D1EF"/>
<path d="M86.3655 25.9905C97.113 24.7845 107.723 23.433 115.961 25.6799C120.91 27.7454 125.307 30.7217 128.633 34.6995C131.53 38.741 133.26 43.439 133.711 47.4641C134.549 54.9284 131.104 64.9186 123.302 70.6643C115.833 76.1646 110.305 77.3295 92.303 78.8977C92.0627 78.9186 91.8232 78.9363 91.5853 78.9553C82.027 78.1087 73.9235 74.8562 70.9818 70.5002C67.7096 65.6547 67.0855 56.8224 68.22 49.7551C69.1428 44.0077 65.0214 35.9027 69.1546 30.7131C73.8397 28.4088 79.5633 26.7538 86.3655 25.9905Z" fill="#4BA1D7"/>
<path d="M85.1736 61.6124L85.0409 61.2349L83.2498 62.0348C83.4379 62.385 83.626 62.7352 83.8141 63.0853C83.8803 63.1988 83.9636 63.292 84.0735 63.3592C84.174 63.4484 84.2905 63.5049 84.4221 63.5326C84.5519 63.5679 84.6852 63.5716 84.8115 63.537C84.9399 63.5273 85.0594 63.487 85.1671 63.4114L85.3642 63.2516C85.4887 63.1231 85.5699 62.9719 85.6115 62.7991L85.6381 62.5372C85.6308 62.3648 85.5843 62.2032 85.4939 62.0554C85.3058 61.7052 85.1177 61.355 84.9296 61.0049C84.8634 60.8914 84.7801 60.7982 84.6702 60.731C84.5697 60.6418 84.4532 60.5853 84.3216 60.5576L84.0596 60.5311C83.9253 60.5312 83.8038 60.5629 83.6912 60.6252C83.608 60.6498 83.5364 60.6936 83.4766 60.7564C83.3698 60.8282 83.2862 60.9218 83.2249 61.0412L83.1292 61.2864C83.0876 61.4592 83.0948 61.6317 83.1433 61.8019L83.276 62.1793C83.3106 62.3056 83.3691 62.4172 83.4572 62.5075C83.5291 62.6143 83.6228 62.6978 83.7422 62.7591C83.8598 62.8281 83.9848 62.8663 84.1229 62.8671C84.2516 62.89 84.3791 62.8841 84.5082 62.838L84.7403 62.7354C84.8882 62.6451 85.0031 62.5224 85.0881 62.3722L85.1838 62.127C85.2255 61.9541 85.2182 61.7817 85.1698 61.6115L85.1736 61.6124Z" fill="black"/>
<path d="M106.709 42.0822C108.943 42.3807 111.115 42.9735 113.207 43.8071C114.254 44.2219 115.302 44.7179 116.256 45.2486C117.21 45.7792 118.275 46.3206 118.225 47.5763C118.178 48.7315 117.843 49.9352 117.551 51.0474C117.243 52.225 116.849 53.3701 116.406 54.4989C115.476 56.8498 113.48 58.8989 111.089 59.8347C107.856 61.0998 104.23 60.368 101.107 59.152C100.606 58.954 100.488 58.2265 100.72 57.8067C101.006 57.2947 101.567 57.227 102.065 57.4203C104.619 58.4176 107.589 58.9667 110.244 58.0419C113.042 57.0676 115.26 51.8671 115.26 51.8671C115.26 51.8671 115.568 50.8286 115.7 50.3047C115.844 49.742 115.968 49.1785 116.076 48.6113C116.132 48.3281 116.189 48.0409 116.225 47.7569C116.235 47.6843 116.259 47.5999 116.254 47.5253C115.996 47.2739 115.525 47.1005 115.216 46.9328C114.788 46.6997 114.354 46.477 113.917 46.2659C113.063 45.8571 112.19 45.4962 111.296 45.1913C109.489 44.5729 107.604 44.143 105.701 43.9365C103.974 43.7478 102.074 43.648 100.362 44.0361C98.9328 44.3625 97.3938 45.1622 96.9014 46.6489C96.7341 47.1571 96.2662 47.512 95.7089 47.3777C95.2209 47.2599 94.8129 46.6941 94.98 46.1859C95.7379 43.9014 97.8248 42.5141 100.122 42.076C102.279 41.6651 104.475 41.7836 106.709 42.0822Z" fill="black"/>
<path d="M109.501 50.1935C110.435 51.768 111.334 53.9275 110.733 55.7659C109.974 58.0929 105.831 59.8204 103.626 58.6056C100.695 56.9949 98.0242 52.7118 99.9191 49.2822C100.498 48.235 100.946 47.3074 101.992 47.026C105.339 46.1288 107.659 47.0899 109.501 50.1935Z" fill="black"/>
<path d="M73.7324 42.1751C75.4777 42.3072 77.1242 42.9684 78.5946 43.9039C79.903 44.7354 81.4959 45.7697 81.6553 47.4541L81.6609 47.4475C81.7103 47.9836 81.2114 48.4523 80.7035 48.4681C80.1466 48.4843 79.7323 48.0433 79.6815 47.5111C79.6277 46.9414 78.8088 46.4428 78.3937 46.1395C77.723 45.6487 76.9801 45.2017 76.2493 44.859C75.5186 44.5163 74.7311 44.2572 73.9287 44.1613C73.542 44.1128 73.1431 44.1143 72.7561 44.151C72.5692 44.1669 72.391 44.1976 72.2101 44.2394C72.1987 44.2425 72.1543 44.2574 72.1044 44.2742C72.0938 44.3257 72.0804 44.3933 72.0777 44.4671C72.0723 44.7258 72.067 44.9849 72.0615 45.2436C72.0507 45.7611 72.0481 46.277 72.0497 46.7934C72.0528 47.8102 72.0724 48.8271 72.1214 49.8386C72.1957 51.3247 72.9852 53.5711 73.9992 54.8202C73.9608 54.6358 73.9118 54.4066 73.8293 54.1042C73.42 52.6042 73.5035 51.2918 73.8719 49.7054C74.1659 48.4388 74.4781 47.1758 75.3996 46.7468C76.4413 46.2575 78.3381 47.4947 79.1765 48.169C80.3313 49.0976 81.0839 50.5837 81.5232 52.0348C81.7498 52.7831 81.8798 53.6234 81.8371 54.4434C81.8386 54.6533 81.8309 54.8645 81.8112 55.0758C81.7347 55.8823 81.5146 56.7435 81.0045 57.3926C80.521 58.0043 79.3697 58.0621 78.2626 58.2247C77.2483 58.3738 76.2086 58.3595 75.6375 58.2502C74.9576 58.1188 74.3532 57.7574 73.8108 57.3423C72.6737 56.4749 71.7407 55.3152 71.1283 54.0256L71.1227 54.0322C71.0603 53.9006 71.0203 53.7661 71.0035 53.6339C70.4531 52.6445 70.2536 51.446 70.1731 50.3283C70.0427 48.4397 70.0523 46.5276 70.102 44.6336C70.1274 43.6845 70.3067 42.8049 71.3038 42.4477C72.0561 42.1779 72.9417 42.1146 73.7324 42.1751Z" fill="black"/>
<path d="M98.6452 32.2058C99.0898 32.2845 99.5893 32.3885 99.9797 32.6248C100.54 32.967 100.888 33.5469 100.738 34.218C100.617 34.7576 100.074 35.0497 99.546 34.9468C99.199 34.8791 99.0604 34.3929 98.8429 34.2798C98.5416 34.1231 98.1827 34.0972 97.8435 34.0814C97.7475 34.0745 97.6514 34.0678 97.5584 34.0657C97.3935 34.0585 97.2256 34.0627 97.0617 34.0679C96.8978 34.0731 96.7318 34.0857 96.568 34.1072C95.9498 34.1598 95.2485 34.3247 94.9633 33.5092C94.7972 33.0343 95.1198 32.3888 95.6261 32.2792C96.6262 32.0609 97.6301 32.0303 98.6452 32.2058Z" fill="black"/>
<path d="M77.3262 31.2097C76.4758 31.5656 75.6302 31.9187 74.7798 32.2747C74.5353 32.3783 74.3349 32.5007 74.1999 32.7405C74.0828 32.9562 74.0357 33.2699 74.1173 33.505C74.1989 33.7401 74.3553 33.9688 74.5836 34.0848C74.8118 34.2008 75.1049 34.2673 75.3486 34.1675C76.1989 33.8116 77.0445 33.4585 77.8949 33.1026C78.1395 32.9989 78.3398 32.8765 78.4749 32.6367C78.5919 32.4211 78.6391 32.1073 78.5574 31.8722C78.4758 31.6371 78.3195 31.4084 78.0912 31.2924C77.8629 31.1764 77.5698 31.1099 77.3262 31.2097Z" fill="black"/>
<path fill-rule="evenodd" clip-rule="evenodd" d="M94.653 66.3433C95.8993 66.3186 97.2418 66.4353 98.3123 67.1403C99.3025 67.7895 100.042 68.8047 100.043 70.0323C100.044 71.26 99.4364 72.3982 98.5162 73.2129C97.596 74.0275 96.4519 74.6053 95.3147 75.0547C94.082 75.546 92.7108 75.6338 91.4639 75.374C90.217 75.1142 90.6835 73.195 91.9266 73.4539C92.9726 73.6694 93.977 73.5007 94.9494 73.0767C95.8312 72.6918 96.7835 72.2179 97.4409 71.4984C97.8826 71.0156 98.2593 70.2448 97.9678 69.5812C97.6764 68.9176 96.9458 68.5749 96.2781 68.4261C95.2742 68.2045 94.1982 68.3312 93.1792 68.3742C92.0941 68.4216 91.0058 68.4643 89.9207 68.5117C87.7181 68.6068 85.5125 68.6969 83.306 68.791C82.5823 68.8239 81.6154 68.7336 80.9892 69.172C80.8274 69.2874 80.7601 69.5838 80.7601 69.5838C80.7108 69.7578 80.8423 70.0385 80.8423 70.0385C80.8423 70.0385 81.4993 70.6851 81.2605 71.1194C80.9857 71.6179 80.4036 71.7211 79.9147 71.5058C78.7682 70.9979 78.5608 69.5133 79.0658 68.4807C79.6444 67.2952 81.0203 66.9521 82.224 66.8683C84.9963 66.6707 87.7842 66.6271 90.5573 66.5109C91.9213 66.4535 93.2887 66.3681 94.653 66.3433Z" fill="black"/>
<path d="M81.4511 68.6662C81.8609 70.155 82.317 72.3293 82.963 73.7327C83.0617 73.9475 83.5015 74.39 83.8963 74.2543C84.4038 74.0799 84.6147 74.0883 84.7692 73.4472C84.9236 72.8061 83.6799 69.3054 83.3457 68.0945C83.21 67.5944 82.6117 67.2591 82.1145 67.432C81.6174 67.6048 81.3083 68.1278 81.452 68.6623L81.4511 68.6662Z" fill="black"/>
<path d="M88.9769 67.6418C89.5559 67.5746 89.9503 68.1104 90.0009 68.6818C90.1088 69.9492 90.1486 71.2318 90.3054 72.4179C90.388 73.0535 90.2103 73.6461 89.636 73.7632C89.0615 73.8802 88.6013 73.4581 88.4436 72.8591C88.3651 72.5665 88.3524 72.2437 88.3143 71.9381C88.1841 70.8988 88.0723 69.8505 87.9814 68.8025L87.9727 68.8048C87.9221 68.1906 88.4671 67.6968 88.9769 67.6418Z" fill="black"/>
<path d="M93.0598 68.0662C93.3343 69.2054 94.1573 72.2393 94.4319 73.3785C94.5542 73.8835 95.1794 74.2089 95.6631 74.041C96.1918 73.8554 96.4559 73.3501 96.3256 72.8106C96.0511 71.6715 95.2281 68.6375 94.9536 67.4984C94.8313 66.9934 94.2061 66.668 93.7223 66.8359C93.1937 67.0214 92.9295 67.5268 93.0598 68.0662Z" fill="black"/>
<path d="M91.6435 6.0138C87.3895 9.92818 75.9807 18.3441 78.6468 27.675C87.6445 25.6754 98.3085 24.6151 101.308 24.9483C101.308 17.6776 112.643 7.29286 116.97 4.0144C119.359 2.20422 96.7463 1.31845 91.6435 6.0138Z" fill="#E78C3C"/>
<path d="M135.965 57.0008C138.965 49.0028 135.743 39.3386 133.966 36.6726C137.521 32.7848 145.792 30.9157 151.295 33.6734C155.081 35.5709 154.58 50.6692 151.295 55.3346C148.876 58.7692 137.521 59.144 135.965 57.0008Z" fill="#E78C3C"/>
<ellipse cx="149.295" cy="44.6707" rx="3.33248" ry="9.6642" fill="#A25831"/>
<rect x="67.3162" y="128.316" width="49.9873" height="5.33197" rx="2.66599" fill="#5E6A74"/>
<g style="mix-blend-mode:multiply">
<path d="M127.301 112.32C114.637 109.654 106.751 113.764 102.974 115.986L133.299 117.652L144.963 72.3303L136.965 69.3311C126.301 72.6635 123.635 102.989 127.301 112.32Z" fill="#D6D6D6"/>
</g>
<path d="M154.961 88.9926C153.651 80.6354 148.566 72.4183 140.964 70.6641C132.3 68.6646 130.578 86.9475 129.634 94.6581C129.348 96.9908 128.301 113.32 130.633 115.32C127.967 114.653 125.302 114.653 121.303 114.653C117.304 114.653 96.3089 116.085 96.3089 116.085C96.3089 116.085 77.6542 127.36 97.6418 128.649C101.227 128.744 106.071 130.51 111.305 131.315C124.392 133.329 139.917 135.314 144.297 133.981C150.428 132.115 150.804 125.997 152.961 118.652C155.957 108.451 156.96 101.756 154.961 88.9926Z" fill="#E0E4EA"/>
<path d="M155.969 102.417C155.784 107.908 154.716 112.679 152.962 118.652C150.805 125.997 150.428 132.115 144.297 133.981C139.916 135.314 124.392 133.329 111.305 131.315C108.607 130.9 106.012 130.23 103.64 129.665V126.316C117.97 130.982 137.631 130.649 141.964 127.983C144.446 126.456 153.798 118.227 155.969 102.417Z" fill="#38509E"/>
<path d="M87.0325 117.639C89.3166 116.878 97.6916 112.309 102.641 115.355L100.356 128.679C93.5041 130.963 91.9814 127.918 90.4587 128.679C88.9359 129.44 87.0325 130.202 83.2257 131.344C79.4188 132.486 75.9927 129.44 76.754 127.918C77.5154 126.395 84.7484 118.4 87.0325 117.639Z" fill="#E78C3C"/>
<path d="M89.9774 126.997C91.2263 127.247 95.2819 128.62 97.2361 129.433C92.9742 130.016 91.7166 128.05 90.4588 128.679C88.9361 129.44 87.0322 130.202 83.2254 131.344C82.5473 131.547 81.8813 131.615 81.2488 131.585C83.9733 129.733 88.7414 126.75 89.9774 126.997Z" fill="#A25831"/>
<path d="M98.3083 129.316L100.308 128.649L101.307 114.986C101.307 114.986 99.1836 116.802 98.3082 118.319C96.095 122.152 98.3083 129.316 98.3083 129.316Z" fill="#A25831"/>
<path d="M109.061 114.687C110.176 116.08 107.203 125.719 105.577 130.364C104.184 131.758 101.745 130.364 100.003 130.364C98.2614 130.364 100.352 114.687 101.745 114.687C103.139 114.687 107.668 112.945 109.061 114.687Z" fill="#E78C3C"/>
<path d="M1.11624 88.0474C0.530212 84.3447 3.39168 80.9948 7.14042 80.9948H71.0298C74.0302 80.9948 76.585 83.177 77.054 86.1404L83.5097 126.929C84.0957 130.631 81.2342 133.981 77.4855 133.981H13.5961C10.5957 133.981 8.04097 131.799 7.57193 128.836L1.11624 88.0474Z" fill="#959EA8"/>
<path d="M46.9888 98.9901V102.921H43.589V106.177H38.4381V102.921H34.9919L37.2732 98.9901H46.9888Z" fill="#415260"/>
<path d="M46.9888 112.865L44.7945 116.795H34.9919V112.865H38.4381V109.609H43.589V112.865H46.9888Z" fill="#415260"/>
<path d="M111.69 90.9923C112.937 90.9921 117.973 90.9923 120.046 90.9923C122.433 90.9925 122.781 95.4766 120.046 95.7137C119.089 95.7967 118.608 95.8311 117.877 95.8768C117.758 97.5951 117.588 99.396 117.244 101.067C117.827 101.206 118.24 101.286 118.903 101.322C120.999 101.436 121.551 104.126 120.046 105.145C119.5 105.516 118.474 105.655 117.877 105.655C114.782 105.655 113.552 105.4 111.091 104.89C110.354 104.679 109.04 104.126 108.703 103.811C107.4 102.596 107.886 99.5528 109.8 99.7657C110.523 99.8463 111.207 100.016 111.854 100.282C112.034 98.854 112.213 97.4363 112.398 95.9804C112.214 95.9682 111.137 95.8768 111.69 95.8768C109.245 95.7138 108.63 90.9926 111.69 90.9923Z" fill="#3A547F"/>
</svg>
