<svg width="178" height="178" viewBox="0 0 178 178" fill="none" xmlns="http://www.w3.org/2000/svg">
<path d="M6.30759 12.6151C9.79115 12.6151 12.6151 9.79111 12.6151 6.30755C12.6151 2.82399 9.79115 0 6.30759 0C2.82403 0 0 2.82399 0 6.30755C0 9.79111 2.82403 12.6151 6.30759 12.6151Z" fill="#B4E4DF"/>
<path d="M61.2929 12.6151C64.7764 12.6151 67.6004 9.79111 67.6004 6.30755C67.6004 2.82399 64.7764 0 61.2929 0C57.8093 0 54.9854 2.82399 54.9854 6.30755C54.9854 9.79111 57.8093 12.6151 61.2929 12.6151Z" fill="#B4E4DF"/>
<path d="M116.209 12.6151C119.693 12.6151 122.517 9.79111 122.517 6.30755C122.517 2.82399 119.693 0 116.209 0C112.726 0 109.902 2.82399 109.902 6.30755C109.902 9.79111 112.726 12.6151 116.209 12.6151Z" fill="#B4E4DF"/>
<path d="M171.195 12.6151C174.678 12.6151 177.502 9.79111 177.502 6.30755C177.502 2.82399 174.678 0 171.195 0C167.711 0 164.887 2.82399 164.887 6.30755C164.887 9.79111 167.711 12.6151 171.195 12.6151Z" fill="#B4E4DF"/>
<path d="M6.30759 67.6004C9.79115 67.6004 12.6151 64.7764 12.6151 61.2929C12.6151 57.8093 9.79115 54.9854 6.30759 54.9854C2.82403 54.9854 0 57.8093 0 61.2929C0 64.7764 2.82403 67.6004 6.30759 67.6004Z" fill="#B4E4DF"/>
<path d="M61.2929 67.6004C64.7764 67.6004 67.6004 64.7764 67.6004 61.2929C67.6004 57.8093 64.7764 54.9854 61.2929 54.9854C57.8093 54.9854 54.9854 57.8093 54.9854 61.2929C54.9854 64.7764 57.8093 67.6004 61.2929 67.6004Z" fill="#B4E4DF"/>
<path d="M116.209 67.6004C119.693 67.6004 122.517 64.7764 122.517 61.2929C122.517 57.8093 119.693 54.9854 116.209 54.9854C112.726 54.9854 109.902 57.8093 109.902 61.2929C109.902 64.7764 112.726 67.6004 116.209 67.6004Z" fill="#B4E4DF"/>
<path d="M171.195 67.6004C174.678 67.6004 177.502 64.7764 177.502 61.2929C177.502 57.8093 174.678 54.9854 171.195 54.9854C167.711 54.9854 164.887 57.8093 164.887 61.2929C164.887 64.7764 167.711 67.6004 171.195 67.6004Z" fill="#B4E4DF"/>
<path d="M6.30759 122.517C9.79115 122.517 12.6151 119.693 12.6151 116.21C12.6151 112.726 9.79115 109.902 6.30759 109.902C2.82403 109.902 0 112.726 0 116.21C0 119.693 2.82403 122.517 6.30759 122.517Z" fill="#B4E4DF"/>
<path d="M61.2929 122.517C64.7764 122.517 67.6004 119.693 67.6004 116.21C67.6004 112.726 64.7764 109.902 61.2929 109.902C57.8093 109.902 54.9854 112.726 54.9854 116.21C54.9854 119.693 57.8093 122.517 61.2929 122.517Z" fill="#B4E4DF"/>
<path d="M116.209 122.517C119.693 122.517 122.517 119.693 122.517 116.21C122.517 112.726 119.693 109.902 116.209 109.902C112.726 109.902 109.902 112.726 109.902 116.21C109.902 119.693 112.726 122.517 116.209 122.517Z" fill="#B4E4DF"/>
<path d="M171.195 122.517C174.678 122.517 177.502 119.693 177.502 116.21C177.502 112.726 174.678 109.902 171.195 109.902C167.711 109.902 164.887 112.726 164.887 116.21C164.887 119.693 167.711 122.517 171.195 122.517Z" fill="#B4E4DF"/>
<path d="M6.30759 177.503C9.79115 177.503 12.6151 174.679 12.6151 171.195C12.6151 167.712 9.79115 164.888 6.30759 164.888C2.82403 164.888 0 167.712 0 171.195C0 174.679 2.82403 177.503 6.30759 177.503Z" fill="#B4E4DF"/>
<path d="M61.2929 177.503C64.7764 177.503 67.6004 174.679 67.6004 171.195C67.6004 167.712 64.7764 164.888 61.2929 164.888C57.8093 164.888 54.9854 167.712 54.9854 171.195C54.9854 174.679 57.8093 177.503 61.2929 177.503Z" fill="#B4E4DF"/>
<path d="M116.209 177.503C119.693 177.503 122.517 174.679 122.517 171.195C122.517 167.712 119.693 164.888 116.209 164.888C112.726 164.888 109.902 167.712 109.902 171.195C109.902 174.679 112.726 177.503 116.209 177.503Z" fill="#B4E4DF"/>
<path d="M171.195 177.503C174.678 177.503 177.502 174.679 177.502 171.195C177.502 167.712 174.678 164.888 171.195 164.888C167.711 164.888 164.887 167.712 164.887 171.195C164.887 174.679 167.711 177.503 171.195 177.503Z" fill="#B4E4DF"/>
</svg>
