<svg width="145" height="23" viewBox="0 0 145 23" fill="none" xmlns="http://www.w3.org/2000/svg">
<path d="M133.373 19.2203C137.576 19.2203 140.984 15.8132 140.984 11.6102C140.984 7.40718 137.576 4 133.373 4C129.17 4 125.763 7.40718 125.763 11.6102C125.763 15.8132 129.17 19.2203 133.373 19.2203Z" stroke="#FBC587" stroke-width="7.17359" stroke-miterlimit="10"/>
<path d="M72.4918 19.2203C76.6948 19.2203 80.102 15.8132 80.102 11.6102C80.102 7.40718 76.6948 4 72.4918 4C68.2888 4 64.8816 7.40718 64.8816 11.6102C64.8816 15.8132 68.2888 19.2203 72.4918 19.2203Z" stroke="#FBC587" stroke-width="7.17359" stroke-miterlimit="10"/>
<path d="M11.6102 19.2203C15.8132 19.2203 19.2204 15.8132 19.2204 11.6102C19.2204 7.40718 15.8132 4 11.6102 4C7.4072 4 4 7.40718 4 11.6102C4 15.8132 7.4072 19.2203 11.6102 19.2203Z" stroke="#FBC587" stroke-width="7.17359" stroke-miterlimit="10"/>
</svg>
