<svg width="47" height="49" viewBox="0 0 47 49" fill="none" xmlns="http://www.w3.org/2000/svg">
<g clip-path="url(#clip0_1433_1269)">
<path d="M0.0581197 13.1509C0.353132 11.9114 0.587218 10.6551 0.952777 9.4424C2.45991 4.43726 5.80124 1.54503 10.6433 0.597745C12.5416 0.224879 14.5041 0.107308 16.4409 0.080435C21.2958 0.00989272 26.1571 -0.0673679 31.0056 0.107308C33.5645 0.201365 36.2196 0.449942 38.631 1.27629C43.1075 2.81479 45.5927 6.44939 46.42 11.2362C46.7663 13.2248 46.8465 15.2873 46.8625 17.3163C46.917 23.3963 47.1736 29.4966 46.7984 35.5531C46.3943 42.1337 43.1107 48.4456 34.5746 48.8083C27.1223 49.1275 19.6476 48.9864 12.1889 48.8319C6.28224 48.7076 1.76727 44.3104 0.577598 38.311C0.112633 35.9663 0.0805663 33.6451 0.0420864 31.3105C-0.0380801 26.3927 0.0100198 21.4715 0.0260531 16.5537C0.0292598 15.4788 0.128666 14.4005 0.183179 13.3256C0.141493 13.2685 0.0998063 13.208 0.054913 13.1509H0.0581197ZM23.4122 44.4851C26.7183 44.4851 30.0243 44.5523 33.3272 44.4683C38.5957 44.3373 42.1102 41.3342 42.3539 35.889C42.6939 28.3141 42.665 20.6989 42.3507 13.1207C42.1423 8.14577 39.2339 5.47524 34.4848 4.77989C34.116 4.72615 33.7441 4.65896 33.3721 4.65896C26.8145 4.65225 20.2537 4.5246 13.7025 4.69256C8.03308 4.837 4.65326 8.3238 4.54424 14.0848C4.40956 21.1188 4.40314 28.1596 4.55065 35.1903C4.66609 40.8001 8.1389 44.2936 13.5004 44.4582C16.8033 44.559 20.1094 44.4784 23.4154 44.4817L23.4122 44.4851Z" fill="#313332"/>
<path d="M23.4539 37.1556C16.736 37.1556 11.4129 31.5324 11.4386 24.4681C11.4642 17.5381 16.8226 11.9519 23.4603 11.9317C30.1815 11.9082 35.5591 17.5213 35.5526 24.5487C35.5462 31.5962 30.2071 37.159 23.4507 37.159L23.4539 37.1556ZM23.4828 16.5035C19.1442 16.5405 15.713 20.1281 15.7451 24.5823C15.7804 29.05 19.2596 32.6846 23.5052 32.6879C27.7508 32.6879 31.2782 28.9828 31.2301 24.5689C31.182 20.0441 27.7412 16.4666 23.4796 16.5035H23.4828Z" fill="#313332"/>
<path d="M38.8105 11.4616C38.8105 13.1378 37.5632 14.4613 35.9951 14.4546C34.4751 14.4546 33.1155 13.0437 33.1123 11.4616C33.1091 9.85925 34.4302 8.48871 35.9887 8.48535C37.592 8.48535 38.8137 9.76855 38.8105 11.4582V11.4616Z" fill="#313332"/>
</g>
<defs>
<clipPath id="clip0_1433_1269">
<rect width="47" height="49" fill="white"/>
</clipPath>
</defs>
</svg>
