<svg width="46" height="47" viewBox="0 0 46 47" fill="none" xmlns="http://www.w3.org/2000/svg">
<path d="M45.9897 23.4811C45.9897 30.0991 45.9863 36.7172 45.9966 43.3387C45.9966 44.2733 45.7719 45.107 45.1594 45.8123C44.5298 46.5383 43.7335 46.9274 42.7874 46.9969C42.7091 47.0039 42.6343 46.9969 42.556 46.9969C29.5187 46.9969 16.4813 46.9969 3.44396 46.9969C1.71857 46.9969 0.336909 45.8088 0.0476437 44.0718C0.0102094 43.8425 0.0136125 43.6028 0.0136125 43.3665C0.0102094 30.1061 0.0204187 16.8491 0 3.59216C0 1.71618 1.23533 0.281398 2.92668 0.0382145C3.11726 0.0104221 3.31123 0.00694809 3.50181 0.00694809C16.5017 0.00694809 29.5016 0.0138962 42.4981 0C44.3699 0 46.0102 1.45215 46 3.56437C45.9693 10.2033 45.9897 16.8422 45.9897 23.4776V23.4811ZM17.9753 28.7999C17.9753 32.3885 17.9753 35.9807 17.9753 39.5694C17.9753 39.955 17.9889 39.9689 18.3632 39.9689C20.3166 39.9689 22.27 39.9689 24.2234 39.9689C24.5206 39.9689 24.6692 39.8172 24.6692 39.5138C24.6692 35.9738 24.6692 32.4337 24.6692 28.8937C24.6692 28.2753 24.7066 27.6569 24.7883 27.042C24.9142 26.097 25.1729 25.2007 25.7582 24.426C26.8404 22.9982 29.2158 22.8905 30.4307 23.4707C31.3393 23.9014 31.8124 24.6831 32.0812 25.628C32.3364 26.5348 32.4011 27.4693 32.4045 28.4003C32.4181 32.1176 32.4113 35.8348 32.4113 39.552C32.4113 39.962 32.4181 39.9689 32.8129 39.9689C34.7867 39.9689 36.7571 39.9689 38.7309 39.9689C39.0213 39.9689 39.1665 39.823 39.1665 39.5312C39.1665 35.9008 39.1665 32.2739 39.1665 28.6435C39.1665 27.4554 39.1665 26.2673 39.0576 25.0791C38.9249 23.693 38.6901 22.3312 38.1251 21.0527C37.4717 19.5658 36.4338 18.4611 34.95 17.8288C33.2621 17.1097 31.4925 16.9568 29.7058 17.2278C27.5687 17.5509 25.8399 18.6105 24.6862 20.5351C24.642 20.608 24.608 20.7157 24.5025 20.6914C24.3765 20.6636 24.397 20.5386 24.397 20.4482C24.3936 19.6805 24.397 18.9127 24.397 18.1484C24.397 17.8288 24.2461 17.669 23.9443 17.669C22.1067 17.669 20.269 17.669 18.4313 17.669C18.1341 17.669 17.9855 17.8207 17.9855 18.1241C17.9855 21.685 17.9855 25.2459 17.9855 28.8033L17.9753 28.7999ZM13.5921 28.8311C13.5921 25.2424 13.5921 21.6537 13.5921 18.065C13.5921 17.676 13.5818 17.6655 13.2075 17.6655C11.2371 17.6655 9.26329 17.6655 7.29288 17.6655C6.89472 17.6655 6.89131 17.6655 6.89131 18.0789C6.89131 25.2355 6.89131 32.3955 6.89131 39.552C6.89131 39.9689 6.89131 39.9689 7.32011 39.9689C9.26329 39.9689 11.2065 39.9689 13.1496 39.9689C13.4446 39.9689 13.5921 39.8149 13.5921 39.5069C13.5921 35.9494 13.5921 32.3885 13.5921 28.8311ZM14.1706 10.5646C14.2489 8.49405 12.5847 6.52773 10.257 6.52426C8.12324 6.52079 6.34682 8.2057 6.34341 10.5437C6.34341 12.9304 8.24576 14.5389 10.223 14.5389C12.4282 14.5389 14.1638 12.8019 14.174 10.5646H14.1706Z" fill="#313332"/>
</svg>
