<svg width="399" height="399" viewBox="0 0 399 399" fill="none" xmlns="http://www.w3.org/2000/svg">
<g filter="url(#filter0_f_3371_3831)">
<circle cx="199.5" cy="199.5" r="119.5" fill="url(#paint0_linear_3371_3831)" fill-opacity="0.9" style="mix-blend-mode:darken"/>
</g>
<path d="M263.093 168.531C261.824 156.651 257.017 146.767 246.407 140.509C240.421 136.972 233.801 135.159 226.909 135.159C207.411 135.068 187.823 134.705 168.325 135.521C149.462 136.247 136.04 150.031 134.952 168.804C133.683 189.208 133.683 209.704 134.952 230.108C136.131 249.062 149.553 262.211 168.506 263.662C173.494 264.025 178.482 264.206 183.379 264.479C193.808 264.479 204.147 264.479 214.576 264.479C217.84 264.297 221.105 264.116 224.46 264.025C230.718 263.844 236.794 262.937 242.507 260.488C254.297 255.319 260.554 245.978 262.64 233.554C263.365 229.111 263.365 224.576 263.637 220.133C263.728 218.772 263.819 217.321 264 215.961C264 204.988 264 194.015 264 183.041C263.637 178.144 263.547 173.338 263.093 168.531ZM251.576 226.934C251.485 235.096 248.855 242.623 241.6 247.52C236.975 250.694 231.715 251.964 226.274 252.054C217.115 252.236 208.046 252.145 198.887 252.145C189.818 252.145 180.749 252.417 171.681 252.054C163.428 251.782 155.901 249.425 150.822 242.079C147.648 237.454 146.288 232.194 146.288 226.753C146.107 208.525 146.016 190.206 146.288 171.978C146.379 163.816 148.918 156.289 156.173 151.301C160.707 148.127 165.877 146.767 171.318 146.676C189.727 146.495 208.137 146.404 226.546 146.676C234.617 146.767 242.054 149.397 247.042 156.47C250.216 161.095 251.576 166.355 251.667 171.796C251.757 190.296 251.848 208.615 251.576 226.934Z" fill="#FCFCFC"/>
<path d="M198.978 166.174C180.568 166.264 165.695 181.228 165.695 199.456C165.695 217.865 180.749 232.829 199.159 232.738C217.387 232.647 232.26 217.593 232.26 199.275C232.169 181.137 217.115 166.083 198.978 166.174ZM198.887 221.039C187.007 221.039 177.394 211.336 177.394 199.365C177.394 187.394 187.007 177.872 199.068 177.872C210.948 177.872 220.561 187.485 220.561 199.365C220.561 211.427 210.948 221.039 198.887 221.039Z" fill="#FCFCFC"/>
<path d="M233.801 157.105C229.448 157.014 226.002 160.37 225.911 164.632C225.82 168.985 229.085 172.431 233.438 172.522C237.791 172.613 241.237 169.348 241.419 164.995C241.419 160.733 238.063 157.196 233.801 157.105Z" fill="#FCFCFC"/>
<circle cx="157.5" cy="121.5" r="12.5" fill="#9BE3E8" style="mix-blend-mode:soft-light"/>
<path d="M145 199C127.985 194.483 122.02 188.193 117 171C113.551 188.29 107.802 194.739 89 199C107.76 203.822 113.143 210.543 117 227C122.678 211.208 126.009 202.49 145 199Z" fill="#9BE3E8" style="mix-blend-mode:soft-light"/>
<defs>
<filter id="filter0_f_3371_3831" x="0" y="0" width="399" height="399" filterUnits="userSpaceOnUse" color-interpolation-filters="sRGB">
<feFlood flood-opacity="0" result="BackgroundImageFix"/>
<feBlend mode="normal" in="SourceGraphic" in2="BackgroundImageFix" result="shape"/>
<feGaussianBlur stdDeviation="40" result="effect1_foregroundBlur_3371_3831"/>
</filter>
<linearGradient id="paint0_linear_3371_3831" x1="199.5" y1="80" x2="199.5" y2="319" gradientUnits="userSpaceOnUse">
<stop stop-color="#5EB5BA"/>
<stop offset="1" stop-color="#5A5C82"/>
</linearGradient>
</defs>
</svg>
