<svg width="399" height="399" viewBox="0 0 399 399" fill="none" xmlns="http://www.w3.org/2000/svg">
<g opacity="0.8" filter="url(#filter0_f_3371_3830)">
<circle cx="199.5" cy="199.5" r="119.5" fill="url(#paint0_linear_3371_3830)" style="mix-blend-mode:darken"/>
</g>
<path d="M260.168 143.726C259.587 144.453 259.151 144.889 258.715 145.47C254.938 149.538 251.16 153.461 247.383 157.529C243.605 161.452 239.973 165.52 236.195 169.443C232.127 173.801 228.059 178.16 224.136 182.373C220.213 186.587 216.436 190.655 212.513 194.868C212.223 195.159 211.932 195.595 211.641 195.885C211.206 196.321 211.351 196.757 211.641 197.047C213.094 198.936 214.547 200.97 216 202.859C217.162 204.457 218.47 206.055 219.632 207.654C221.376 209.978 223.119 212.303 224.717 214.627C226.897 217.678 229.221 220.73 231.401 223.635C233.871 226.977 236.341 230.318 238.956 233.515C241.28 236.566 243.605 239.763 245.93 242.814C248.4 246.155 250.869 249.497 253.339 252.838C255.373 255.599 257.407 258.214 259.442 260.975C260.894 262.863 262.202 264.752 263.655 266.496C263.8 266.641 263.8 266.786 263.946 266.931C264.091 267.367 263.945 267.658 263.51 267.803C263.219 267.803 262.783 267.803 262.493 267.803C251.015 267.803 239.537 267.803 228.059 267.803C226.897 267.803 226.17 267.368 225.589 266.496C223.265 263.299 220.795 260.103 218.325 256.907C214.402 251.676 210.624 246.446 206.702 241.215C204.377 238.164 202.198 235.113 199.873 232.062C198.129 229.737 196.386 227.268 194.643 224.943C193.335 223.199 192.173 221.601 190.865 220.003C190.72 219.858 190.575 219.713 190.575 219.567C189.993 218.986 189.848 218.986 189.267 219.567C185.489 223.635 181.567 227.703 177.789 231.917C174.883 235.113 171.832 238.164 168.926 241.361C165.73 244.848 162.534 248.189 159.192 251.676C154.979 256.18 150.911 260.684 146.697 265.043C146.116 265.769 145.39 266.35 144.808 267.077C144.518 267.513 144.082 267.658 143.501 267.658C140.595 267.658 137.689 267.658 134.929 267.658C134.783 267.658 134.638 267.658 134.348 267.658C134.057 267.513 133.912 267.367 134.057 267.077C134.202 266.786 134.348 266.641 134.638 266.35C138.706 261.992 142.92 257.488 146.988 253.129C149.458 250.514 151.928 247.753 154.543 245.138C157.884 241.651 161.226 238.019 164.422 234.532C167.619 231.191 170.67 227.849 173.866 224.362C175.9 222.037 178.08 219.858 180.114 217.533C181.131 216.516 182.148 215.499 183.019 214.482C183.455 214.046 183.891 213.465 184.327 213.029C184.908 212.448 184.908 212.158 184.472 211.576C183.165 209.688 181.712 207.944 180.404 206.055C177.353 201.987 174.447 197.919 171.396 193.996C169.362 191.236 167.183 188.33 165.149 185.569C161.226 180.339 157.303 174.963 153.38 169.733C150.911 166.391 148.295 163.05 145.825 159.708C143.065 156.076 140.45 152.444 137.689 148.812C136.527 147.359 135.365 145.76 134.348 144.307C134.202 144.017 133.912 143.726 134.057 143.436C134.202 143.29 134.638 143.145 134.929 143.145C136.236 143.145 137.544 143.145 138.706 143.145C149.167 143.145 159.628 143.145 170.089 143.145C171.251 143.145 171.977 143.436 172.704 144.453C174.883 147.504 177.208 150.41 179.387 153.461C182.293 157.238 185.053 161.161 187.959 164.938C190.865 168.716 193.626 172.494 196.531 176.271C199.437 180.194 202.343 184.117 205.249 188.04C206.266 189.493 206.411 189.492 207.573 188.185C210.188 185.279 212.949 182.519 215.564 179.613C217.162 177.869 218.615 176.126 220.213 174.528C222.102 172.494 223.991 170.46 225.88 168.426C227.769 166.537 229.512 164.503 231.255 162.614C233.871 159.854 236.341 157.238 238.956 154.478C241.135 152.153 243.169 149.829 245.348 147.649C246.656 146.342 247.818 145.034 249.126 143.581C249.562 143.145 249.998 143 250.579 143C253.485 143 256.245 143 259.151 143C259.296 143.436 259.587 143.581 260.168 143.726ZM158.756 151.717C156.141 151.717 153.526 151.717 150.91 151.717C150.62 151.717 150.184 151.863 150.039 152.008C149.894 152.153 150.039 152.589 150.184 152.879C151.201 154.332 152.218 155.64 153.235 157.093C155.415 159.853 157.449 162.614 159.628 165.52C161.517 167.99 163.26 170.459 165.149 172.929C167.328 175.835 169.508 178.741 171.687 181.647C173.285 183.826 174.883 186.005 176.627 188.185C178.225 190.219 179.678 192.253 181.276 194.287C183.455 197.338 185.78 200.244 187.959 203.295C189.412 205.184 190.865 207.218 192.318 209.107C194.788 212.448 197.258 215.644 199.728 218.986C201.326 221.165 203.069 223.345 204.667 225.524C206.702 228.284 208.736 230.9 210.624 233.66C212.804 236.566 214.838 239.327 217.017 242.087C221.085 247.608 225.299 253.129 229.367 258.65C230.093 259.522 230.82 259.958 231.982 259.958C236.922 259.958 241.862 259.958 246.947 259.958C247.092 259.958 247.382 259.958 247.528 259.958C248.109 259.812 248.254 259.522 247.964 258.94C247.964 258.795 247.818 258.795 247.818 258.65C245.784 255.889 243.605 252.984 241.571 250.223C239.827 247.753 237.939 245.429 236.195 242.959C233.871 239.908 231.691 237.002 229.367 233.951C227.768 231.917 226.17 229.737 224.717 227.703C222.683 224.943 220.649 222.328 218.615 219.567C217.017 217.533 215.564 215.499 214.111 213.465C211.06 209.397 208.154 205.474 205.103 201.406C203.069 198.646 201.035 195.885 199.001 193.27C195.805 188.911 192.463 184.698 189.122 180.339C186.942 177.579 184.908 174.673 182.729 171.767C179.823 167.844 176.917 164.067 174.012 160.289C172.123 157.819 170.379 155.495 168.636 152.879C168.055 152.008 167.328 151.717 166.311 151.717C163.696 151.717 161.226 151.717 158.756 151.717Z" fill="white"/>
<circle cx="115.5" cy="216.5" r="12.5" fill="#9BE3E8" style="mix-blend-mode:soft-light"/>
<path d="M171 262C153.985 257.483 148.02 251.193 143 234C139.551 251.29 133.802 257.739 115 262C133.76 266.822 139.143 273.543 143 290C148.678 274.208 152.009 265.49 171 262Z" fill="#9BE3E8" style="mix-blend-mode:soft-light"/>
<defs>
<filter id="filter0_f_3371_3830" x="0" y="0" width="399" height="399" filterUnits="userSpaceOnUse" color-interpolation-filters="sRGB">
<feFlood flood-opacity="0" result="BackgroundImageFix"/>
<feBlend mode="normal" in="SourceGraphic" in2="BackgroundImageFix" result="shape"/>
<feGaussianBlur stdDeviation="40" result="effect1_foregroundBlur_3371_3830"/>
</filter>
<linearGradient id="paint0_linear_3371_3830" x1="199.5" y1="80" x2="199.5" y2="319" gradientUnits="userSpaceOnUse">
<stop stop-color="#5EB5BA"/>
<stop offset="1" stop-color="#5A5C82"/>
</linearGradient>
</defs>
</svg>
