<svg width="398" height="205" viewBox="0 0 398 205" fill="none" xmlns="http://www.w3.org/2000/svg">
<g clip-path="url(#clip0_3074_274)">
<mask id="mask0_3074_274" style="mask-type:luminance" maskUnits="userSpaceOnUse" x="0" y="0" width="398" height="205">
<path d="M398 0H0V205H398V0Z" fill="white"/>
</mask>
<g mask="url(#mask0_3074_274)">
<path d="M322.207 150.733C323.022 141.625 324.544 131.301 332.461 126.098C334.589 124.7 337.056 123.784 339.043 122.213C342.859 119.197 344.29 114.321 345.523 109.757C347.142 103.756 348.765 97.7564 350.384 91.756C350.696 90.5985 351.044 89.38 351.943 88.5436C352.81 87.737 354.043 87.4206 355.218 87.1355C358.869 86.2475 362.518 85.3594 366.169 84.4698C367.131 84.2364 368.19 84.0077 369.085 84.4165C370.021 84.8426 370.493 85.8293 370.89 86.7393C372.331 90.0316 373.771 93.3254 375.21 96.6177C375.736 97.8206 376.311 99.0845 377.413 99.8583C379.524 101.338 382.468 100.428 385.091 100.528C388.849 100.671 392.186 103.066 394.286 106.027C396.383 108.989 397.45 112.482 398.484 115.912C400.919 123.975 403.352 132.038 405.784 140.1C398.108 147.674 386.971 150.946 376.287 153.709C366.844 156.151 357.146 158.436 347.383 157.752C337.621 157.067 327.639 152.926 322.478 145.032C321.101 148.038 324.067 151.314 327.233 152.627C330.398 153.938 334.074 154.326 336.72 156.434C332.055 154.367 327.599 151.874 323.437 149.001C327.974 153.137 333.769 156.021 339.935 157.205" fill="url(#paint0_linear_3074_274)"/>
<path d="M9.67216 149.644L133.777 158.555H226.769L429.017 140.734L410.063 198.32C410.063 198.32 288.763 213.39 280.703 212.706C272.645 212.021 142.983 196.326 142.983 196.326L-44.8447 208.25L9.67216 149.645V149.644Z" fill="url(#paint1_linear_3074_274)"/>
<path d="M9.67216 179.644L133.777 188.555H226.769L429.017 170.734L410.063 228.32C410.063 228.32 288.763 243.39 280.703 242.706C272.645 242.021 142.983 226.326 142.983 226.326L-44.8447 238.25L9.67216 179.645V179.644Z" fill="url(#paint2_linear_3074_274)"/>
<path d="M-0.929077 132.248L128.99 139.964H226.338L438.061 122.286L418.219 186.663C418.219 186.663 291.237 203.511 282.799 202.744C274.363 201.978 138.627 184.434 138.627 184.434L-58 197.765L-0.929077 132.248Z" fill="url(#paint3_linear_3074_274)"/>
<path d="M52.0687 134.863C50.7406 126.779 48.4658 118.837 45.3007 111.229C44.8742 110.204 44.3604 109.106 43.3394 108.581C42.1082 107.948 40.6057 108.361 39.234 108.624C33.2044 109.779 26.577 107.41 22.853 102.764C20.6185 99.9773 19.4326 96.5705 17.5262 93.5715C15.6197 90.5725 12.5564 87.8158 8.86628 87.7912C6.99859 87.779 5.21815 88.4704 3.49426 89.1512C-1.05702 90.9466 -5.6083 92.745 -10.1596 94.5404C-12.0143 95.2733 -14.0032 96.1136 -14.9871 97.7771C-15.6366 98.8749 -15.7481 100.179 -15.7836 101.437C-16.2134 117.096 -6.15277 132.475 8.63847 139.43C23.4297 146.385 42.1615 144.773 55.6538 135.747C53.5179 135.106 51.3837 134.464 49.2478 133.823" fill="url(#paint4_linear_3074_274)"/>
<path d="M25.0211 148.226C25.8645 145.313 26.7078 142.399 27.5512 139.486C28.5351 136.089 29.6661 132.467 32.5387 130.238C34.429 128.771 36.8476 128.096 39.1952 127.455C43.202 126.362 47.6014 125.287 51.4256 126.863C52.9217 127.48 54.2142 128.464 55.4453 129.481C57.4293 131.118 59.3358 132.89 60.6736 135.038C62.3134 137.671 63.0243 140.817 62.6657 143.858C62.5671 144.702 62.3781 145.563 61.8853 146.274C61.4426 146.915 60.7834 147.389 60.1226 147.827C49.8552 154.627 35.2982 155 24.6592 148.733C24.8838 148.724 25.1067 148.713 25.3297 148.706" fill="url(#paint5_linear_3074_274)"/>
<path d="M-0.312586 144.62C1.66174 140.372 3.92526 136.128 7.43768 132.896C10.9501 129.664 15.944 127.566 20.7522 128.429C23.8074 128.978 26.5023 130.64 29.0033 132.391C41.5245 141.152 51.5189 153.136 57.6196 166.717C58.1496 167.895 58.6585 169.187 58.316 170.423C57.988 171.61 56.9507 172.482 55.9361 173.241C51.7968 176.335 46.7221 178.894 41.4939 178.272C38.2254 177.882 35.1928 176.275 31.905 176.091C27.9547 175.871 24.2533 177.709 20.5066 178.916C11.7692 181.731 1.85562 181.084 -6.39387 177.16C-12.4671 174.272 -18.0589 168.551 -17.0443 162.176C-16.663 159.786 -15.3947 157.618 -14.1474 155.509C-11.8419 151.61 -9.3602 147.537 -5.31785 145.237C-3.54387 144.228 -1.52432 143.608 0.537245 143.444" fill="url(#paint6_linear_3074_274)"/>
<path d="M57.655 141.985C59.1753 141.29 60.728 141.387 62.2548 142.009C63.6781 142.589 65.1533 143.533 66.2164 144.611C66.5278 144.927 66.7724 145.286 66.9284 145.664C67.4063 146.331 67.7868 147.065 68.0517 147.848C68.2598 148.465 68.2343 150.527 67.6252 150.888C64.9182 152.486 61.2431 151.87 58.9531 149.861C57.9601 149.233 57.1478 148.363 56.5816 147.367C55.7933 146.464 55.1915 145.412 54.8503 144.265C54.4743 142.992 56.7378 142.404 57.655 141.985Z" fill="url(#paint7_linear_3074_274)"/>
<path d="M72.4339 144.356C72.554 144.458 73.2479 144.812 73.3682 144.914C74.1532 145.167 74.3281 145.266 75.0301 145.73C75.9465 146.337 75.3559 147.947 75.0883 148.804C74.8993 149.413 74.2725 149.709 73.6424 149.583C71.5501 149.164 69.8601 147.579 69.3689 145.607C69.209 144.966 69.8372 144.483 70.5015 144.197C71.1911 143.899 71.8469 143.864 72.4339 144.356Z" fill="url(#paint8_linear_3074_274)"/>
<path fill-rule="evenodd" clip-rule="evenodd" d="M6.79013 172.789C10.3053 171.669 14.2979 172.518 17.4364 174.559C20.4383 176.512 25.2335 180.552 22.9313 184.422C21.7196 186.456 19.3574 186.369 17.2862 185.774C16.3233 185.498 15.3878 185.274 14.399 185.259C13.4103 185.244 12.423 185.343 11.4439 185.465C7.71344 185.926 2.96998 186.576 0.843801 182.777C-0.850035 179.749 0.596149 176.329 3.53066 174.952C3.54679 174.696 3.6519 174.452 3.86982 174.289C4.48916 173.826 5.14268 173.45 5.81972 173.154C6.0371 172.95 6.32038 172.809 6.61646 172.795C6.67438 172.793 6.73229 172.791 6.79013 172.789Z" fill="url(#paint9_linear_3074_274)"/>
<path fill-rule="evenodd" clip-rule="evenodd" d="M347.111 110.673C347.887 111.689 347.961 113.017 348.008 114.377C348.054 115.735 347.963 116.388 347.348 117.615C346.118 120.071 341.183 121.257 340.189 119.136C339.482 117.625 339.492 116.083 340.27 114.377C341.492 111.698 344.459 107.192 347.111 110.673Z" fill="url(#paint10_linear_3074_274)"/>
<path d="M350.798 133.155C352.956 133.531 355.64 136.679 356.53 138.56C359.49 144.844 361.171 151.855 362.688 158.653C362.764 158.992 363.027 159.518 363.052 159.857C363.077 160.196 362.889 161.337 362.801 161.4C359.963 163.427 353.018 156.007 348.503 152.307C345.556 154.564 336.439 155.336 336.199 157.135C335.522 160.421 335.146 165.238 333.139 167.922C331.401 168.122 329.388 166.685 328.624 165.426C324.795 158.78 322.865 159.655 316.721 166.529C316.521 166.755 313.849 168.11 313.573 168.235C313.535 168.21 312.407 167.922 312.319 167.796C311.216 166.22 313.049 161.627 313.385 159.982C313.937 157.261 316.897 141.959 316.897 141.959C316.897 141.959 340.727 133.619 344.991 132.992C346.656 132.83 349.122 132.832 350.798 133.155Z" fill="#7AB026"/>
<path d="M303.665 130.483C303.214 127.999 302.649 125.328 302.035 122.958C301.42 120.6 299.852 118.643 299.338 116.247C298.385 111.845 299.313 101.372 302.812 98.061C302.95 97.9356 303.352 97.6973 303.502 97.7726C303.653 97.8478 303.703 97.9732 303.803 98.061C304.832 99.0142 305.145 101.26 305.597 102.589C306.562 105.361 307.929 108.183 309.033 110.842C309.271 111.406 310.325 114.09 310.877 114.115C311.479 114.14 310.877 106.402 311.918 103.415C311.96 103.195 312.718 99.3794 313.636 100.068C314.037 100.369 314.414 101.41 314.451 101.51C315.605 104.056 316.283 107.117 317.65 109.65L319.406 113.212C320.058 113.526 320.183 113.413 320.033 112.61C319.949 112.164 319.647 111.837 320.258 111.532C320.76 111.331 322.34 111.08 322.905 111.042C323.958 110.98 325.639 111.042 326.705 111.13C327.959 111.231 327.909 111.532 327.871 112.548C328.185 112.736 328.31 112.372 328.637 111.946C331.195 108.559 331.496 104.872 333.49 101.285C333.804 100.72 334.745 99.0895 335.108 100.444C335.472 101.799 335.246 103.015 335.322 104.32C335.434 106.189 335.472 108.484 335.547 110.353C335.585 111.08 336.112 112.585 335.961 113.212C335.811 113.839 335.071 113.927 335.547 114.316C336.024 114.705 336.099 114.592 336.212 114.316C336.388 113.839 336.5 113.413 336.751 112.911C338.532 109.374 340.451 106.026 342.32 102.652C343.06 101.31 343.863 99.4658 344.653 98.2617C345.443 97.0577 345.706 96.8068 346.12 97.0577C346.534 97.3085 346.735 99.1397 346.785 99.4281C347.513 103.969 347.989 108.823 347.814 113.413C347.647 117.768 344.49 121.697 343.461 127.046C342.962 129.743 342.01 134.454 340.602 136.566C337.516 141.194 328.499 144.016 323.193 144.367C316.935 144.781 310.639 142.624 306.725 137.782C305.47 136.229 304.017 132.399 303.665 130.483Z" fill="#7AB026"/>
<path d="M307.001 103.229C307.691 105.073 308.118 105.876 308.657 107.117C309.196 108.359 309.836 109.801 310.413 111.143C310.563 111.093 310.601 110.642 310.601 110.516C310.877 106.891 311.002 103.731 312.056 100.206C312.212 99.6845 312.226 99.3617 312.783 98.9899C313.16 98.739 314.025 98.9271 314.364 99.2282C315.279 100.043 316.182 102.953 316.659 104.17C317.135 105.386 317.65 106.929 318.202 108.259C318.515 108.999 318.979 110.24 319.355 110.892C319.601 111.317 320.3 111.219 320.71 110.692C320.798 110.579 321.249 109.362 321.337 109.099C321.776 107.744 322.039 106.227 322.24 104.847C322.441 103.467 322.629 102.615 322.554 101.561C322.478 100.507 321.751 99.7675 321.588 98.739C321.312 97.0207 321.851 95.0516 323.858 95.0014C324.573 94.9764 325.313 95.2774 325.664 95.9296C326.78 97.999 324.56 99.8302 324.397 101.674C324.234 103.518 324.222 106.553 324.397 107.707C324.694 109.656 325.801 110.293 327.458 110.591C328.987 110.867 329.191 108.844 329.765 107.544C330.706 105.424 331.735 102.238 332.976 100.344C333.705 99.2333 334.034 98.9536 335.071 99.6797C335.409 99.8929 335.698 100.896 335.786 101.298C336.45 104.396 336.087 107.732 336.275 110.917C336.275 113.935 339.388 105.747 340.953 103.166C341.983 101.45 343.361 98.877 344.49 97.1587C345.28 96.5692 346.559 96.4313 346.923 97.5475C347.174 98.2875 347.237 99.3536 347.362 100.131C348.182 105.204 348.993 111.013 348.14 116.135C347.826 117.778 347.111 119.647 346.421 121.177C345.456 123.322 343.775 125.529 343.461 127.95C343.424 128.238 343.386 128.577 343.361 128.878C343.662 128.89 344.076 128.853 344.39 128.878C344.929 128.928 345.819 129.216 346.283 129.405C346.948 129.668 347.638 130.032 347.362 130.872C347.086 131.712 344.841 131.424 344.089 131.499C343.336 131.574 343.035 131.687 342.985 131.712C342.859 131.788 342.621 132.829 342.483 133.054C346.639 131.985 351.891 131.171 354.988 134.936C357.91 138.485 359.29 142.875 360.619 147.252C361.585 150.413 362.275 153.649 363.215 156.897C363.491 157.863 364.194 159.255 364.344 160.133C364.495 161.011 364.344 161.099 364.056 161.487C363.767 161.876 363.554 161.839 363.065 161.952C360.117 162.654 357.647 161.726 355.314 159.932C353.37 158.44 350.799 155.618 349.281 153.686C349.018 153.36 349.131 152.959 348.554 153.084C347.977 153.21 347.061 153.774 346.522 153.975C344.415 154.752 342.094 155.768 339.975 156.282C337.855 156.797 338.169 156.546 337.316 156.784C337.316 157.537 337.241 158.314 337.115 159.054C336.827 160.798 336.25 163.469 335.736 165.062C335.221 166.655 335.108 166.743 334.757 167.244C334.406 167.746 333.453 168.599 333.365 168.637C332.613 168.938 331.672 168.9 330.919 168.586C330.167 168.273 329.941 167.947 329.602 167.671C327.953 166.327 326.988 164.245 325.852 162.478C325.376 162.177 324.184 162.391 323.582 162.328C322.98 162.265 322.641 162.002 322.215 162.027L322.09 162.052C321.789 162.616 321.337 163.068 320.936 163.532C319.481 165.213 317.825 167.019 315.919 168.185C315.53 168.423 314.64 168.975 314.238 169.025C313.837 169.075 312.395 168.737 312.131 168.637C311.868 168.536 311.517 167.984 311.441 167.759C310.952 166.454 311.391 164.059 311.592 162.679C311.943 160.221 312.595 158.314 313.26 155.981C314.213 152.645 315.028 149.259 315.568 145.847C315.618 145.496 315.894 145.132 315.756 144.694C315.718 144.556 313.636 143.903 313.298 143.74C312.043 143.163 310.563 142.336 309.409 141.671C308.256 141.006 305.633 138.901 304.794 136.19C304.359 134.783 303.213 132.615 304.167 132.615C304.721 132.615 306.695 137.251 306.976 137.595C310.889 142.423 316.935 144.844 323.193 144.43C328.499 144.079 337.203 141.27 340.288 136.629C340.564 136.215 340.853 135.676 340.941 135.187C341.129 135.249 341.543 135.124 341.756 135.187C341.969 135.249 341.806 135.375 341.818 135.387C341.216 137.055 340.025 138.397 338.733 139.564C338.269 139.99 337.19 140.918 336.664 141.219C336.212 141.483 335.51 141.834 335.033 142.085C332.5 143.439 330.292 144.192 327.47 144.706C324.648 145.22 321.764 145.672 318.829 145.195C318.189 145.095 317.574 144.869 316.935 144.907C317.06 145.296 316.797 145.559 316.747 145.835C316.433 147.327 316.295 148.657 316.044 150.087C315.906 150.839 315.63 151.241 315.58 152.106C315.53 152.118 315.405 152.081 315.392 152.106C315.38 152.131 315.405 152.319 315.392 152.394C314.765 155.104 314.263 157.775 313.711 160.497C313.16 163.218 312.633 165.112 312.758 166.743C312.816 167.498 312.86 167.871 313.862 167.671C313.987 167.646 314.803 166.931 314.941 166.83C316.571 165.677 318.026 164.435 319.443 162.917C319.794 162.528 320.71 161.663 320.748 161.212C320.801 160.565 316.207 160.773 321.575 159.995C322.278 159.982 323.62 160.484 324.41 160.572C325.2 160.66 326.003 160.61 326.705 160.459C327.408 160.309 328.16 159.769 328.599 160.334C329.038 160.898 328.674 160.622 328.687 160.647C328.561 161.387 327.771 161.713 327.132 161.952C326.492 162.19 326.956 161.876 326.994 162.09C327.307 162.403 327.545 162.767 327.809 163.118C328.348 163.795 328.787 164.686 329.352 165.413C329.916 166.141 331.07 167.207 331.195 167.269C331.321 167.332 331.86 167.483 331.898 167.483C332.587 167.608 333.202 167.131 333.44 166.504C333.503 166.341 333.465 166.203 333.49 166.128C334.569 162.917 335.146 159.443 335.823 156.157C335.948 155.536 335.857 154.829 336.338 154.288C337.027 153.523 337.968 154.602 337.667 155.43H338.006C340.251 154.702 342.458 153.874 344.678 153.097C345.581 152.783 346.233 152.557 347.124 152.118C347.702 151.834 348.88 151.052 349.57 151.178C350.259 151.303 356.237 159.25 357.835 160.095C358.613 160.511 363.17 162.41 362.99 160.246C362.965 159.907 362.701 159.38 362.626 159.042C361.108 152.244 359.428 145.233 356.468 138.949C355.577 137.068 352.868 133.694 350.698 133.318C348.064 132.861 343.074 133.416 341.756 133.619C341.839 133.162 341.99 132.761 342.069 132.402C342.155 132.01 342.068 131.6 342.671 131.298C343.875 130.809 345.33 131.349 346.434 131.11C347.538 130.872 347.149 130.471 346.584 130.082C345.769 129.505 343.424 129.166 342.483 129.405C342.621 128.727 342.734 127.799 342.859 127.122C343.795 122.256 347.033 118.57 347.212 113.489C347.4 108.886 347.249 104.044 346.522 99.5041C346.219 97.612 346.094 96.2144 344.703 98.3377C343.9 99.5543 343.11 101.385 342.37 102.727C340.502 106.114 338.583 109.45 336.802 112.987C336.551 113.489 336.438 113.915 336.262 114.392C336.087 114.868 335.585 114.943 335.297 114.718C334.82 114.341 335.497 113.539 335.598 113.15C335.761 112.523 335.397 111.093 335.359 110.366C335.271 108.497 335.271 106.615 335.159 104.734C335.083 103.43 335.297 102.15 334.945 100.859C334.594 99.5668 333.854 100.796 333.541 101.36C331.546 104.935 331.245 108.635 328.687 112.021C328.373 112.448 328.436 113.05 327.671 112.861C327.709 111.846 328.01 111.306 326.755 111.206C325.689 111.118 324.021 111.043 322.955 111.118C321.889 111.193 321.011 111.344 320.509 111.545C320.008 111.745 320.095 112.034 320.095 112.059C319.986 112.607 320.688 113.926 319.305 113.288L317.549 109.726C316.195 107.192 315.593 104.12 314.439 101.574C313.869 100.316 313.482 99.5647 312.859 101.122C312.507 101.962 312.52 102.916 312.307 103.768C311.617 106.59 311.266 109.663 311.328 112.736C311.418 117.104 309.717 112.838 308.933 110.98C307.829 108.321 306.6 105.437 305.647 102.665C305.183 101.335 304.882 99.0902 303.853 98.137C303.385 97.7029 303.491 97.5085 302.862 98.137C299.363 101.448 299.313 111.419 300.266 115.821C301.219 120.224 301.959 120.399 302.574 122.757C303.189 125.128 303.515 127.837 303.966 130.308C304.543 132.553 304.217 131.549 304.43 132.139C304.117 132.089 303.176 132.214 302.775 132.239C302.737 131.813 303.464 132.252 303.439 131.825C303.414 131.399 303.276 130.985 303.239 130.759C302.587 127.711 302.11 124.463 300.73 121.628C300.367 120.876 299.664 120.023 299.388 119.333C297.122 113.667 297.907 106.27 299.765 100.633C300.066 99.7048 300.467 98.6261 301.031 97.8861C301.596 97.1462 301.784 96.8702 302.725 96.6194C303.465 96.5441 303.841 96.6194 304.104 96.8702C305.423 98.126 306.349 101.486 307.001 103.229Z" fill="#2E7037"/>
<path d="M305.647 135.664C305.81 135.639 306.311 135.626 306.449 135.664C306.647 135.718 307.433 135.851 307.39 136.291C307.347 136.73 306.221 137.318 305.358 137.821C304.505 138.319 303.174 139.475 302.473 138.762C302.001 138.281 302.235 137.633 302.85 137.131C302.956 137.044 303.525 136.597 304.003 136.328C304.613 135.987 305.12 135.726 305.659 135.651L305.647 135.664Z" fill="#388F44"/>
<path d="M336.664 141.207L336.175 142.298C335.033 144.255 333.829 145.484 332.098 146.901C330.995 147.804 330.669 147.917 329.251 148.231C327.834 148.544 327.734 148.494 326.994 148.595C325.639 148.783 323.545 148.331 322.265 148.632C321.638 148.783 320.522 149.284 319.857 149.535C318.578 150.024 317.411 150.99 316.333 151.68C314.865 153.072 315.452 152.149 315.768 150.426C316.019 148.996 316.421 147.315 316.722 145.823C317.023 144.33 317.035 145.283 316.91 144.895C317.562 144.857 318.164 145.083 318.804 145.183C321.738 145.647 324.51 145.221 327.445 144.694C330.38 144.167 332.475 143.427 335.008 142.073C335.485 141.822 336.2 141.471 336.639 141.207H336.664Z" fill="#388F44"/>
<path d="M324.799 110.279C324.673 110.667 322.052 110.655 321.876 110.479C321.701 110.304 322.052 110.053 322.064 110.015C322.967 107.432 323.268 103.97 323.043 101.186C322.905 99.5179 321.751 98.4644 322.528 96.6834C322.759 96.2219 323.24 95.8682 323.77 95.8682C324.422 95.8055 325.012 96.3573 325.087 96.997C325.25 98.339 324.635 98.7403 324.234 99.844C323.469 101.913 323.13 106.792 323.983 108.811C324.059 108.987 324.852 110.112 324.799 110.279Z" fill="#7AB026"/>
<path d="M342.496 129.141C343.437 128.903 346.008 129.342 346.823 129.919C347.638 130.496 347.162 131.035 346.61 131.161C345.506 131.412 344.064 130.985 342.86 131.474C341.955 131.842 340.983 132.895 339.837 132.741C339.448 132.691 339.222 132.089 339.298 131.738C339.403 131.248 340.205 130.479 340.715 130.12C341.392 129.643 342.145 129.229 342.496 129.141Z" fill="#388F44"/>
<path d="M302.713 131.963C301.754 132.108 299.832 133.3 299.304 134.148C298.777 134.997 299.847 134.846 300.405 134.748C301.519 134.551 302.261 134.06 303.561 134.044C304.537 134.031 306.118 134.332 307.115 133.744C307.453 133.547 307.151 133.199 306.946 132.904C306.659 132.494 305.621 132.096 305.012 131.963C304.202 131.787 303.071 131.908 302.713 131.963Z" fill="#388F44"/>
<path d="M320.835 161.187C320.785 161.626 319.882 162.504 319.531 162.892C318.408 164.094 315.645 167.441 313.887 167.734C313.762 167.759 313.072 167.859 312.946 167.546C313.26 167.546 313.979 166.811 314.05 166.73C315.618 164.962 316.308 162.366 318.176 160.886C319.049 160.19 320.961 159.682 320.835 161.187Z" fill="#388F44"/>
<path d="M328.812 160.622C328.862 160.823 328.762 161.136 328.812 161.362C328.833 161.457 329.216 161.93 329.289 162.027C329.953 163.155 330.555 164.422 331.22 165.563C331.885 166.705 332.198 167.207 332.725 167.056C333.252 166.905 333.327 165.977 333.578 165.852C333.553 165.927 333.515 166.454 333.465 166.604C333.227 167.232 332.6 167.696 331.923 167.583C330.728 167.384 329.883 166.354 329.163 165.438C328.599 164.711 328.323 163.757 327.784 163.08C327.508 162.741 327.244 162.34 326.931 162.027C326.883 161.737 328.437 161.19 328.611 160.622C328.749 160.459 328.749 160.522 328.812 160.622Z" fill="#388F44"/>
<path d="M342.672 133.306C343.582 133.324 344.562 133.549 344.829 134.083C345.193 134.71 344.54 135.225 343.976 135.35C343.129 135.538 339.668 135.681 340.502 133.92C340.869 133.375 341.813 133.289 342.672 133.306Z" fill="#388F44"/>
<path d="M349.519 150.949C350.485 150.808 350.962 151.598 351.538 152.244C352.027 152.796 352.479 153.511 353.006 154.151C354.787 156.345 357.471 158.603 359.854 160.158C360.242 160.409 360.794 160.836 361.547 161.275C361.196 161.275 360.142 161.024 359.778 160.936C359.341 160.83 358.373 160.385 357.784 160.071C354.749 158.465 352.115 155.768 349.945 153.097C349.509 152.587 349.925 151.372 349.194 151.365L349.192 151.366C348.302 151.818 345.33 152.871 344.427 153.185C344.677 152.934 344.771 152.908 344.953 152.847C345.706 152.596 346.839 151.932 348.064 151.429C348.553 151.229 349.318 150.99 349.318 150.99L349.519 150.949Z" fill="#388F44"/>
<path d="M326.918 125.905C329.661 123.93 333.367 121.55 336.801 121.077C338.106 120.914 339.849 121.704 340.464 122.908C341.103 124.162 341.053 125.617 340.602 126.909C339.222 130.872 335.472 133.105 331.345 132.929C330.091 132.866 327.106 132.402 326.053 131.738C325.027 131.091 324.244 130.039 324.736 128.79C325.117 127.838 326.07 126.488 326.918 125.905ZM336.513 127.335C337.052 126.921 338.03 126.006 338.131 125.303C338.281 124.225 338.068 123.021 336.801 122.82C335.535 122.619 333.653 123.309 332.336 124.074C331.019 124.839 330.104 125.793 329.966 126.658C329.828 127.523 329.966 128.163 330.681 128.552C332.311 129.442 335.158 128.364 336.513 127.323V127.335Z" fill="#251D51"/>
<path d="M340.753 119.07C339.734 118.691 338.58 116.715 338.608 116.261C338.633 115.859 339.11 115.107 339.31 114.73C341.204 111.168 342.672 107.983 344.152 104.17C344.29 103.819 344.39 102.903 344.703 102.703C345.167 102.402 345.632 102.74 345.707 103.229C346.326 107.041 345.669 111.794 344.866 115.496C344.433 117.493 343.312 120.024 340.753 119.07Z" fill="#388F44"/>
<path d="M303.302 103.091C303.675 103.34 303.875 104.559 303.992 104.973C304.97 108.171 306.4 110.98 307.616 114.078C307.754 114.442 308.156 115.345 308.168 115.671C308.204 116.611 305.248 119.034 304.569 119.271C303.195 119.748 302.919 119.247 302.562 117.891C302.11 116.16 301.747 113.213 301.659 111.407C301.571 109.563 301.809 105.098 302.599 103.48C302.712 103.254 303.051 102.878 303.302 103.104V103.091Z" fill="#388F44"/>
<path d="M326.944 134.823C327.501 139.039 323.984 138.372 322.215 137.407C321.79 137.659 321.349 138.27 320.836 138.372C319.723 138.611 318.364 138.362 317.75 137.306C317.437 136.767 317.387 135.726 317.926 135.212C318.716 134.434 318.791 135.613 319.055 135.977C319.318 136.34 320.322 136.529 320.685 135.977C321.049 135.425 321.237 134.309 322.303 134.396C323.256 134.484 323.056 135.789 323.57 135.851C324.084 135.914 324.649 135.876 324.862 135.814C325.213 135.701 325.025 135.011 325.088 134.748C325.162 134.433 325.589 133.694 326.103 133.694C326.559 133.694 326.916 134.468 326.944 134.823Z" fill="#388F44"/>
<path d="M320.422 119.809C322.416 118.881 324.648 118.68 326.617 120.073C328.537 121.432 325.314 123.22 324.034 123.471C322.59 123.756 320.215 123.675 319.343 122.28C318.942 121.598 319.406 120.449 320.422 119.809ZM324.372 120.336C323.82 119.935 322.591 120.047 321.964 120.323C320.998 120.737 321.262 121.728 322.228 121.854C323.193 121.979 323.482 121.803 323.858 121.653C324.234 121.502 324.598 120.963 324.611 120.913C324.686 120.624 324.586 120.499 324.372 120.348V120.336Z" fill="#251D51"/>
<path d="M314.151 107.293C314.941 109.049 315.881 110.742 316.734 112.473C316.809 113.326 314.84 114.191 314.151 114.454C313.063 115.044 313.058 111.881 313.034 111.582C312.946 110.391 312.783 109.086 312.721 107.895C312.721 105.336 313.36 105.537 314.151 107.293Z" fill="#388F44"/>
<path d="M332.588 113.564C332.13 113.167 331.133 112.409 331.133 111.808C331.133 110.641 332.086 108.158 332.588 107.117C332.826 106.615 332.989 106.126 333.528 105.838C334.317 108.116 334.578 111.341 334.256 113.677C334.072 115.003 333.565 114.41 332.588 113.564Z" fill="#388F44"/>
<path d="M336.2 136.315C335.594 136.549 334.007 136.494 333.664 135.835C333.322 135.177 333.398 134.37 334.017 133.807C334.636 133.245 334.92 133.039 335.289 132.737C338.286 130.396 338.318 135.5 336.2 136.315Z" fill="#388F44"/>
<path d="M312.721 134.032C313.022 134.346 312.721 135.349 312.52 135.688C312.066 136.455 310.558 136.683 309.786 136.528C308.573 136.286 308.62 134.775 309.648 134.158C310.676 133.541 312.106 133.393 312.708 134.02L312.721 134.032Z" fill="#388F44"/>
<path d="M336.242 127.536C334.805 128.604 331.798 129.71 330.055 128.797C329.296 128.398 329.163 127.418 329.296 126.633C329.429 125.848 331.039 124.42 331.811 123.983C333.208 123.185 334.912 122.439 336.548 122.696C338.185 122.953 338.302 124.137 338.156 125.244C338.003 126.403 337.09 126.909 336.242 127.536Z" fill="#BBBBBC"/>
<path d="M324.715 120.914C324.65 121.248 324.485 121.525 323.936 121.77C323.546 121.944 322.662 122.06 322.246 122.002C321.259 121.857 320.973 120.711 321.973 120.232C322.579 119.942 324.977 119.573 324.715 120.914Z" fill="#BBBBBC"/>
<path d="M320.218 131.04C318.676 132.38 314.795 132.818 312.808 132.64C310.82 132.462 308.183 131.218 306.777 129.481C305.37 127.744 305.194 127.074 305.005 126.117C304.816 125.159 304.627 123.874 305.046 122.67C307.449 115.851 323.106 126.971 320.218 131.04ZM307.534 124.212C307.561 126.236 309.061 126.862 310.751 127.724C312.131 128.421 313.767 128.804 315.119 127.819C317.203 126.302 315.74 126.342 314.62 125.068C313.293 123.597 307.485 120.39 307.534 124.212Z" fill="#251D51"/>
<path d="M312.082 122.728C316.405 124.02 319.463 129.962 312.717 128.938C310.091 128.539 308.088 127.121 307.635 124.907C307.042 122.002 309.452 121.942 312.082 122.728Z" fill="#BBBBBC"/>
<path d="M387.462 129.261C380.899 134.408 373.402 138.478 365.396 141.232C361.176 142.682 356.375 144.113 354.315 147.896C353.281 149.797 353.135 152.006 353.007 154.142C352.581 161.282 352.155 168.423 351.73 175.563C374.005 175.198 396.136 168.87 414.917 157.498C416.788 156.365 418.682 155.129 419.85 153.335C421.13 151.37 421.382 148.972 421.567 146.667C422.395 136.383 422.519 126.048 421.939 115.749C421.875 114.631 421.751 113.396 420.894 112.625C419.951 111.775 418.48 111.805 417.19 111.952C401.236 113.744 388.228 124.469 376.317 134.702" fill="url(#paint11_linear_3074_274)"/>
<path d="M358.31 182.9C359.726 177 356.225 170.877 351.399 166.919C349.12 165.048 346.458 163.49 343.498 162.962C339.556 162.259 335.422 163.474 332.119 165.631C328.815 167.788 326.249 170.818 324.043 173.998C322.254 176.578 320.644 179.348 320.077 182.388C319.51 185.429 320.129 188.796 322.341 191.06C324.192 192.954 326.897 193.862 329.547 194.448C335.713 195.815 342.216 195.802 348.377 194.411C352.7 193.435 357.319 191.336 358.714 187.332C359.731 184.407 358.751 181.232 357.773 178.297" fill="url(#paint12_linear_3074_274)"/>
<path d="M369.718 120.249C367.674 120.991 366.341 120.553 364.55 122.304C360.505 126.255 360.246 132.357 360.227 137.863C360.221 139.29 360.257 140.829 361.158 141.969C361.798 142.776 362.787 143.257 363.765 143.656C368.186 145.452 373.138 146.059 377.893 145.388C380.183 145.065 382.518 144.402 384.213 142.904C386.282 141.075 387.072 138.29 387.387 135.624C387.817 131.977 387.504 128.176 385.88 124.845C384.254 121.515 381.196 118.713 377.444 117.83C373.692 116.948 372.686 119.173 369.718 120.249Z" fill="url(#paint13_linear_3074_274)"/>
<path d="M307.765 171.759C308.674 171.431 309.682 171.579 310.322 172.304C310.962 173.031 310.952 174.004 310.785 174.887C310.43 176.764 310.736 177.543 309.184 179.164C307.508 180.915 304.702 180.271 302.858 179.97C301.544 179.754 301.98 177.595 302.216 176.712C302.667 175.024 304.126 173.707 305.836 173.197C306.379 172.602 306.983 172.041 307.765 171.759Z" fill="url(#paint14_linear_3074_274)"/>
<path fill-rule="evenodd" clip-rule="evenodd" d="M307.82 188.629C308.717 188.49 309.905 188.486 310.425 189.323C311.272 190.688 310.061 192.731 308.329 192.553H308.334C307.77 192.496 307.501 192.088 306.984 191.862C306.491 191.646 306.127 191.785 305.75 191.427C305.26 190.962 305.185 190.045 305.75 189.594C306.354 189.111 307.03 188.752 307.82 188.629Z" fill="url(#paint15_linear_3074_274)"/>
<path fill-rule="evenodd" clip-rule="evenodd" d="M280.539 182.05C281.01 181.271 282.007 180.91 282.868 181.255C283.73 181.601 284.128 182.538 283.884 183.377C283.662 184.136 282.934 184.777 282.065 184.733H282.067C281.884 184.723 281.713 184.686 281.557 184.625C281.397 184.6 281.245 184.55 281.13 184.471C280.67 184.152 280.374 183.785 280.297 183.24C280.238 182.827 280.319 182.415 280.539 182.05Z" fill="url(#paint16_linear_3074_274)"/>
<path fill-rule="evenodd" clip-rule="evenodd" d="M269.771 174.428C271.997 174.07 273.979 175.17 275.791 176.255C276.727 176.816 277.668 177.431 278.702 177.821C279.888 178.266 281.155 178.295 282.413 178.257C284.865 178.183 287.35 177.891 289.681 178.81C291.707 179.61 293.177 181.232 293.197 183.377C293.212 185.18 292.124 187.013 290.171 187.41C290.168 187.411 290.165 187.411 290.162 187.412C289.558 188.084 288.865 188.683 288.102 189.188C287.462 189.988 286.543 190.644 285.48 191.151C283.125 192.275 280.459 192.626 277.908 193.152C274.933 193.763 271.948 194.516 268.93 194.901C266.584 195.199 264.166 195.081 262.145 193.955C261.444 193.883 260.747 193.763 260.058 193.593C258.031 193.095 255.418 192.154 254.834 190.008C254.316 188.1 255.493 186.112 257.177 185.103C257.336 185.008 257.468 184.933 257.597 184.804C259.66 182.739 261.815 180.75 263.923 178.726C265.562 177.153 267.319 174.823 269.771 174.428Z" fill="url(#paint17_linear_3074_274)"/>
<path d="M376.005 102.05C381.267 102.707 387.692 98.6158 387.097 94.6005C386.502 90.5853 384.583 84.233 381.267 83.9211C377.951 83.6093 368.333 101.092 376.005 102.05Z" fill="url(#paint18_linear_3074_274)"/>
</g>
</g>
<defs>
<linearGradient id="paint0_linear_3074_274" x1="363.643" y1="85.7725" x2="363.643" y2="159.302" gradientUnits="userSpaceOnUse">
<stop offset="0.29" stop-color="#F89D4E"/>
<stop offset="0.97" stop-color="#F06324"/>
</linearGradient>
<linearGradient id="paint1_linear_3074_274" x1="-44.6643" y1="177.631" x2="428.195" y2="177.631" gradientUnits="userSpaceOnUse">
<stop offset="0.29" stop-color="#503111"/>
<stop offset="0.97" stop-color="#503111"/>
</linearGradient>
<linearGradient id="paint2_linear_3074_274" x1="-44.6643" y1="207.631" x2="428.195" y2="207.631" gradientUnits="userSpaceOnUse">
<stop offset="0.29" stop-color="#503111"/>
<stop offset="0.97" stop-color="#503111"/>
</linearGradient>
<linearGradient id="paint3_linear_3074_274" x1="189.674" y1="123.3" x2="189.674" y2="203.613" gradientUnits="userSpaceOnUse">
<stop offset="0.29" stop-color="#F89D4E"/>
<stop offset="0.97" stop-color="#F06324"/>
</linearGradient>
<linearGradient id="paint4_linear_3074_274" x1="19.9179" y1="89.3048" x2="19.9179" y2="145.141" gradientUnits="userSpaceOnUse">
<stop offset="0.29" stop-color="#F89D4E"/>
<stop offset="0.97" stop-color="#F06324"/>
</linearGradient>
<linearGradient id="paint5_linear_3074_274" x1="43.6499" y1="127.501" x2="43.6499" y2="154.567" gradientUnits="userSpaceOnUse">
<stop offset="0.29" stop-color="#F89D4E"/>
<stop offset="0.97" stop-color="#F06324"/>
</linearGradient>
<linearGradient id="paint6_linear_3074_274" x1="20.6235" y1="129.665" x2="20.6235" y2="181.966" gradientUnits="userSpaceOnUse">
<stop offset="0.29" stop-color="#F89D4E"/>
<stop offset="0.97" stop-color="#F06324"/>
</linearGradient>
<linearGradient id="paint7_linear_3074_274" x1="55.7918" y1="148.04" x2="67.0239" y2="148.04" gradientUnits="userSpaceOnUse">
<stop offset="0.29" stop-color="#F89D4E"/>
<stop offset="0.97" stop-color="#F06324"/>
</linearGradient>
<linearGradient id="paint8_linear_3074_274" x1="70.2859" y1="148.237" x2="74.5037" y2="148.237" gradientUnits="userSpaceOnUse">
<stop offset="0.29" stop-color="#F89D4E"/>
<stop offset="0.97" stop-color="#F06324"/>
</linearGradient>
<linearGradient id="paint9_linear_3074_274" x1="1.22086" y1="180.54" x2="22.402" y2="180.54" gradientUnits="userSpaceOnUse">
<stop offset="0.29" stop-color="#F89D4E"/>
<stop offset="0.97" stop-color="#F06324"/>
</linearGradient>
<linearGradient id="paint10_linear_3074_274" x1="343.321" y1="110.206" x2="343.321" y2="120.952" gradientUnits="userSpaceOnUse">
<stop offset="0.29" stop-color="#F89D4E"/>
<stop offset="0.97" stop-color="#F06324"/>
</linearGradient>
<linearGradient id="paint11_linear_3074_274" x1="386.52" y1="113.62" x2="386.52" y2="177.177" gradientUnits="userSpaceOnUse">
<stop offset="0.29" stop-color="#F89D4E"/>
<stop offset="0.97" stop-color="#F06324"/>
</linearGradient>
<linearGradient id="paint12_linear_3074_274" x1="339.081" y1="164.406" x2="339.081" y2="197.037" gradientUnits="userSpaceOnUse">
<stop offset="0.29" stop-color="#F89D4E"/>
<stop offset="0.97" stop-color="#F06324"/>
</linearGradient>
<linearGradient id="paint13_linear_3074_274" x1="373.407" y1="119.3" x2="373.407" y2="147.334" gradientUnits="userSpaceOnUse">
<stop offset="0.29" stop-color="#F89D4E"/>
<stop offset="0.97" stop-color="#F06324"/>
</linearGradient>
<linearGradient id="paint14_linear_3074_274" x1="302.708" y1="177.442" x2="309.445" y2="177.442" gradientUnits="userSpaceOnUse">
<stop offset="0.29" stop-color="#F89D4E"/>
<stop offset="0.97" stop-color="#F06324"/>
</linearGradient>
<linearGradient id="paint15_linear_3074_274" x1="306.291" y1="192.146" x2="309.078" y2="192.146" gradientUnits="userSpaceOnUse">
<stop offset="0.29" stop-color="#F89D4E"/>
<stop offset="0.97" stop-color="#F06324"/>
</linearGradient>
<linearGradient id="paint16_linear_3074_274" x1="281.235" y1="184.53" x2="282.371" y2="184.53" gradientUnits="userSpaceOnUse">
<stop offset="0.29" stop-color="#F89D4E"/>
<stop offset="0.97" stop-color="#F06324"/>
</linearGradient>
<linearGradient id="paint17_linear_3074_274" x1="255.072" y1="186.552" x2="290.935" y2="186.552" gradientUnits="userSpaceOnUse">
<stop offset="0.29" stop-color="#F89D4E"/>
<stop offset="0.97" stop-color="#F06324"/>
</linearGradient>
<linearGradient id="paint18_linear_3074_274" x1="380.493" y1="85.7501" x2="380.493" y2="105.958" gradientUnits="userSpaceOnUse">
<stop offset="0.29" stop-color="#F89D4E"/>
<stop offset="0.97" stop-color="#F06324"/>
</linearGradient>
<clipPath id="clip0_3074_274">
<rect width="398" height="205" fill="white"/>
</clipPath>
</defs>
</svg>
