<?xml version="1.0" encoding="utf-8"?>
<!-- Generator: Adobe Illustrator 27.7.0, SVG Export Plug-In . SVG Version: 6.00 Build 0)  -->
<svg version="1.1" id="Layer_1" xmlns="http://www.w3.org/2000/svg" xmlns:xlink="http://www.w3.org/1999/xlink" x="0px" y="0px"
	 viewBox="0 0 3153 828.51" style="enable-background:new 0 0 3153 828.51;" xml:space="preserve">
<style type="text/css">
	.st0{fill:#000178;}
	.st1{fill:url(#SVGID_1_);}
</style>
<g>
	<g>
		<g>
			<path class="st0" d="M938.98,741.06c1.34,2.28,0.27,4.14-2.37,4.14H657.56c-2.65,0-5.91-1.87-7.25-4.14l-97.17-165.22
				c-1.34-2.28-3.53-2.28-4.88,0l-97.17,165.22c-1.34,2.28-4.6,4.14-7.25,4.14H164.79c-2.65,0-3.71-1.87-2.37-4.14l24.38-41.46
				c1.34-2.28,4.6-4.14,7.25-4.14h221.32c2.65,0,5.91-1.87,7.25-4.14l125.65-213.64c1.34-2.28,3.53-2.28,4.88,0l125.65,213.64
				c1.34,2.28,4.6,4.14,7.25,4.14h221.32c2.65,0,5.91,1.87,7.25,4.14L938.98,741.06z"/>
		</g>
		<g>
			<path class="st0" d="M553.14,674c-1.34-2.28-3.53-2.28-4.88,0l-39.44,67.06c-1.34,2.28-0.27,4.14,2.37,4.14h79.01
				c2.65,0,3.71-1.87,2.37-4.14L553.14,674z"/>
		</g>
	</g>
	<linearGradient id="SVGID_1_" gradientUnits="userSpaceOnUse" x1="405.566" y1="703.294" x2="966.3524" y2="88.7289">
		<stop  offset="0" style="stop-color:#000178"/>
		<stop  offset="0.0304" style="stop-color:#020E86"/>
		<stop  offset="0.1206" style="stop-color:#0831AB"/>
		<stop  offset="0.2046" style="stop-color:#0C4AC6"/>
		<stop  offset="0.2791" style="stop-color:#0E5AD6"/>
		<stop  offset="0.3364" style="stop-color:#0F5FDC"/>
		<stop  offset="0.3877" style="stop-color:#1267DC"/>
		<stop  offset="0.4687" style="stop-color:#197EDB"/>
		<stop  offset="0.5692" style="stop-color:#25A3DA"/>
		<stop  offset="0.6848" style="stop-color:#36D6D9"/>
	</linearGradient>
	<path class="st1" d="M880.47,641.57c1.34,2.28,0.27,4.14-2.37,4.14H714.51c-2.65,0-5.91-1.87-7.25-4.14L553.14,379.51
		c-1.34-2.28-3.53-2.28-4.88,0L394.13,641.57c-1.34,2.28-4.6,4.14-7.25,4.14H223.3c-2.65,0-3.71-1.87-2.37-4.14l24.38-41.46
		c1.34-2.28,4.6-4.14,7.25-4.14h105.85c2.65,0,5.91-1.87,7.25-4.14l182.61-310.48c1.34-2.28,3.53-2.28,4.88,0l182.61,310.48
		c1.34,2.28,4.6,4.14,7.25,4.14h105.85c2.65,0,5.91,1.87,7.25,4.14L880.47,641.57z M279.44,542.08c-1.34,2.28-0.27,4.14,2.37,4.14
		h48.11c2.65,0,5.91-1.87,7.25-4.14l211.09-358.9c1.34-2.28,3.53-2.28,4.88,0l211.09,358.9c1.34,2.28,4.6,4.14,7.25,4.14h48.11
		c2.65,0,3.71-1.87,2.37-4.14L553.14,85.01c-1.34-2.28-3.53-2.28-4.88,0L279.44,542.08z"/>
</g>
<g>
	<g>
		<path d="M1204.83,183.03H1267l116.91,306.51h-68.31l-24.08-66.99h-110.78l-24.08,66.99h-68.31L1204.83,183.03z M1200.45,367.37
			h71.37l-35.9-99.4L1200.45,367.37z"/>
		<path d="M1500.34,475.09c-23.36-11.97-41.89-29.78-55.61-53.42c-13.72-23.65-20.58-52.11-20.58-85.39s6.93-61.74,20.8-85.39
			c13.86-23.64,32.55-41.44,56.05-53.42c23.49-11.97,49.26-17.96,77.28-17.96c25.39,0,48.31,4.53,68.74,13.58
			c20.43,9.05,37.07,21.89,49.92,38.53c12.84,16.64,20.58,35.9,23.21,57.8h-69.19c-2.04-16.05-9.85-28.97-23.42-38.76
			c-13.57-9.77-30.15-14.67-49.7-14.67c-16.64,0-31.53,3.87-44.66,11.6c-13.14,7.74-23.5,19.13-31.09,34.15
			c-7.6,15.04-11.39,33.21-11.39,54.52c0,21.32,3.79,39.48,11.39,54.52c7.59,15.04,17.95,26.34,31.09,33.93
			c13.14,7.6,28.02,11.38,44.66,11.38c19.55,0,36.27-4.88,50.14-14.67c13.86-9.78,22.11-22.55,24.74-38.31h66.12
			c-2.05,21.61-9.27,40.72-21.68,57.36c-12.41,16.64-28.9,29.56-49.48,38.76c-20.58,9.19-43.72,13.79-69.4,13.79
			C1549.67,493.04,1523.69,487.06,1500.34,475.09z"/>
		<path d="M1862.37,239.51h-90.64v-56.49h247.4v56.49h-90.64v250.03h-66.12V239.51z"/>
		<path d="M2087.09,183.03h66.12v306.51h-66.12V183.03z"/>
		<path d="M2336.98,183.03h62.18l116.91,306.51h-68.31l-24.08-66.99H2312.9l-24.08,66.99h-68.31L2336.98,183.03z M2332.6,367.37
			h71.37l-35.9-99.4L2332.6,367.37z"/>
		<path d="M2582.89,183.03h70.06l123.04,202.74V183.03h65.68v306.51h-70.06l-123.04-202.73v202.73h-65.68V183.03z"/>
	</g>
</g>
<g>
	<path d="M1129.73,684.12c-4.66-4.02-6.99-9.39-6.99-16.08c0-6.98,2.64-12.54,7.93-16.66c5.29-4.12,12.39-6.18,21.32-6.18h16.59
		c1.55,0,2.71-0.37,3.49-1.09c0.77-0.73,1.16-1.67,1.16-2.83c0-5.14-1.75-9.24-5.24-12.3c-3.49-3.05-8.3-4.58-14.41-4.58
		c-5.34,0-9.9,1.43-13.68,4.29c-3.78,2.86-5.82,6.33-6.11,10.41h-11.06c0.39-4.66,2.01-8.85,4.88-12.59
		c2.86-3.73,6.6-6.67,11.21-8.81c4.6-2.13,9.63-3.2,15.06-3.2c9.51,0,17.05,2.47,22.63,7.42c5.58,4.95,8.37,11.55,8.37,19.79V689
		h-11.64v-12.66c-1.94,4.18-5.17,7.52-9.68,10.04c-4.51,2.53-9.63,3.79-15.36,3.79C1140.55,690.16,1134.39,688.15,1129.73,684.12z
		 M1138.83,676.92c2.76,2.23,6.48,3.34,11.13,3.34c7.37,0,13.1-2.16,17.17-6.47c4.08-4.32,6.11-10.26,6.11-17.83v-1.89h-20.52
		c-5.53,0-9.92,1.24-13.17,3.71c-3.25,2.47-4.87,5.85-4.87,10.12C1134.68,671.68,1136.06,674.69,1138.83,676.92z"/>
	<path d="M1250.96,685.22c-5.34-3.3-9.39-7.81-12.15-13.54c-2.77-5.72-4.15-12.18-4.15-19.36c0-7.18,1.38-13.63,4.15-19.36
		c2.77-5.72,6.82-10.24,12.15-13.54c5.34-3.29,11.69-4.95,19.07-4.95c5.14,0,9.92,1.19,14.34,3.57c4.41,2.38,7.74,5.55,9.97,9.53
		v-42.06h11.65V689h-11.65v-12.08c-2.23,3.98-5.55,7.18-9.97,9.6c-4.42,2.42-9.19,3.64-14.34,3.64
		C1262.66,690.16,1256.3,688.51,1250.96,685.22z M1253.37,672.19c4.41,5,10.31,7.5,17.68,7.5c7.37,0,13.27-2.5,17.68-7.5
		c4.42-5,6.62-11.62,6.62-19.86c0-8.25-2.21-14.87-6.62-19.86c-4.42-5-10.31-7.5-17.68-7.5c-7.38,0-13.27,2.5-17.68,7.5
		c-4.42,5-6.62,11.62-6.62,19.86C1246.74,660.57,1248.95,667.19,1253.37,672.19z"/>
	<path d="M1338.42,585.52v16.3h-13.39v-16.3H1338.42z M1325.9,615.64h11.64V689h-11.64V615.64z"/>
	<path d="M1349.17,615.64h12.08l20.81,58.8l20.96-58.8h12.08L1388.32,689h-12.23L1349.17,615.64z"/>
	<path d="M1439.32,585.52v16.3h-13.39v-16.3H1439.32z M1426.8,615.64h11.64V689h-11.64V615.64z"/>
	<path d="M1462.2,683.54c-5.24-4.42-8.1-10.46-8.59-18.12h11.21c0.39,4.66,2.16,8.25,5.31,10.77c3.15,2.52,7.35,3.78,12.59,3.78
		c4.56,0,8.27-1.07,11.13-3.2s4.29-4.76,4.29-7.86c0-3.1-0.8-5.48-2.4-7.13c-1.6-1.65-3.59-2.84-5.97-3.57s-5.75-1.43-10.12-2.11
		c-5.14-0.77-9.34-1.7-12.59-2.76s-6.02-3.05-8.3-5.96c-2.28-2.91-3.42-7.04-3.42-12.37c0-6.21,2.4-11.18,7.2-14.92
		c4.8-3.73,11.08-5.6,18.85-5.6c8.05,0,14.6,2.04,19.65,6.11c5.05,4.08,7.76,9.51,8.15,16.3H1498c-0.49-4.27-2.42-7.43-5.82-9.46
		c-3.4-2.04-7.08-3.05-11.06-3.05c-4.27,0-7.71,0.94-10.33,2.83c-2.62,1.89-3.93,4.44-3.93,7.64c0,2.72,0.75,4.8,2.26,6.26
		c1.5,1.46,3.4,2.47,5.67,3.06c2.28,0.58,5.41,1.16,9.39,1.75c5.43,0.78,9.85,1.72,13.25,2.83c3.39,1.12,6.3,3.23,8.73,6.33
		c2.42,3.11,3.64,7.62,3.64,13.54c0,6.5-2.47,11.72-7.42,15.65c-4.95,3.93-11.5,5.89-19.65,5.89
		C1474.28,690.16,1467.44,687.96,1462.2,683.54z"/>
	<path d="M1538.33,585.52v16.3h-13.39v-16.3H1538.33z M1525.81,615.64h11.64V689h-11.64V615.64z"/>
	<path d="M1570.68,685.29c-5.63-3.25-10.04-7.74-13.25-13.46s-4.8-12.23-4.8-19.5c0-7.28,1.6-13.77,4.8-19.5
		c3.2-5.72,7.62-10.21,13.25-13.46c5.63-3.25,12.03-4.88,19.21-4.88c7.18,0,13.61,1.63,19.28,4.88c5.67,3.25,10.11,7.74,13.31,13.46
		c3.2,5.73,4.8,12.23,4.8,19.5c0,7.28-1.6,13.78-4.8,19.5c-3.2,5.72-7.64,10.21-13.31,13.46c-5.68,3.25-12.11,4.88-19.28,4.88
		C1582.71,690.16,1576.31,688.54,1570.68,685.29z M1567.77,666.44c2.13,4.17,5.12,7.42,8.95,9.75c3.83,2.33,8.22,3.49,13.17,3.49
		c4.95,0,9.36-1.17,13.24-3.49c3.88-2.33,6.89-5.58,9.02-9.75c2.13-4.17,3.2-8.88,3.2-14.12c0-5.24-1.07-9.94-3.2-14.12
		c-2.13-4.17-5.14-7.42-9.02-9.75c-3.88-2.33-8.3-3.49-13.24-3.49c-4.95,0-9.34,1.17-13.17,3.49c-3.83,2.33-6.82,5.58-8.95,9.75
		c-2.14,4.18-3.2,8.88-3.2,14.12C1564.57,657.56,1565.63,662.27,1567.77,666.44z"/>
	<path d="M1642.49,615.64h11.64v14.12c1.94-5.05,5.02-8.85,9.24-11.43c4.22-2.57,9.24-3.86,15.07-3.86c8.24,0,14.87,2.72,19.86,8.15
		c5,5.44,7.5,12.62,7.5,21.55V689h-11.65v-42.94c0-6.3-1.67-11.37-5.02-15.21c-3.35-3.83-7.79-5.75-13.32-5.75
		c-6.31,0-11.5,2.28-15.57,6.84c-4.08,4.56-6.11,10.38-6.11,17.46V689h-11.64V615.64z"/>
	<path d="M1773.33,685.29c-5.63-3.25-10.04-7.74-13.25-13.46c-3.2-5.72-4.8-12.23-4.8-19.5c0-7.28,1.6-13.77,4.8-19.5
		c3.2-5.72,7.62-10.21,13.25-13.46c5.63-3.25,12.03-4.88,19.21-4.88c7.18,0,13.61,1.63,19.28,4.88c5.67,3.25,10.11,7.74,13.31,13.46
		c3.2,5.73,4.8,12.23,4.8,19.5c0,7.28-1.6,13.78-4.8,19.5c-3.2,5.72-7.64,10.21-13.31,13.46c-5.68,3.25-12.1,4.88-19.28,4.88
		C1785.36,690.16,1778.95,688.54,1773.33,685.29z M1770.42,666.44c2.13,4.17,5.12,7.42,8.95,9.75c3.83,2.33,8.22,3.49,13.17,3.49
		c4.95,0,9.36-1.17,13.24-3.49c3.88-2.33,6.89-5.58,9.02-9.75c2.13-4.17,3.2-8.88,3.2-14.12c0-5.24-1.07-9.94-3.2-14.12
		c-2.13-4.17-5.14-7.42-9.02-9.75c-3.88-2.33-8.3-3.49-13.24-3.49c-4.95,0-9.34,1.17-13.17,3.49c-3.83,2.33-6.82,5.58-8.95,9.75
		c-2.14,4.18-3.2,8.88-3.2,14.12C1767.21,657.56,1768.28,662.27,1770.42,666.44z"/>
	<path d="M1849.78,625.98h-15.28v-10.33h15.28v-17.76c0-3.88,1.09-6.91,3.28-9.1c2.18-2.18,5.21-3.27,9.1-3.27h21.98v10.33h-22.71
		v19.79h22.71v10.33h-22.71V689h-11.64V625.98z"/>
	<path d="M2013.08,587.12V689h-19.21v-43.81h-45.41V689h-19.07V587.12h19.07v41.33h45.41v-41.33H2013.08z"/>
	<path d="M2053.88,684.19c-7.66-3.97-13.78-9.87-18.34-17.68c-4.56-7.81-6.84-17.29-6.84-28.45c0-11.07,2.3-20.52,6.91-28.39
		c4.61-7.86,10.75-13.77,18.41-17.75c7.66-3.98,16.11-5.97,25.32-5.97c8.05,0,15.4,1.48,22.05,4.44c6.65,2.96,12.08,7.13,16.3,12.52
		c4.22,5.38,6.77,11.57,7.64,18.56h-20.23c-0.68-5.63-3.44-10.19-8.3-13.68c-4.85-3.5-10.72-5.24-17.61-5.24
		c-6.02,0-11.35,1.36-16.01,4.08c-4.66,2.72-8.32,6.77-10.99,12.15c-2.67,5.38-4,11.81-4,19.28c0,7.47,1.33,13.87,4,19.21
		c2.67,5.34,6.33,9.36,10.99,12.08c4.66,2.71,9.99,4.07,16.01,4.07c6.99,0,12.93-1.75,17.83-5.24c4.9-3.49,7.78-8.01,8.66-13.54
		h19.21c-0.68,6.99-3.06,13.17-7.13,18.56c-4.07,5.38-9.44,9.56-16.08,12.52c-6.65,2.96-14.1,4.44-22.34,4.44
		C2070.04,690.16,2061.55,688.18,2053.88,684.19z"/>
	<path d="M2143.96,684.63c-2.91-2.91-4.36-7.13-4.36-12.66v-84.85h19.07v85.15h47.74V689h-49.77
		C2151.09,689,2146.87,687.54,2143.96,684.63z"/>
	<path d="M2230.89,685.8c-5.77-2.91-10.33-7.03-13.68-12.37c-3.35-5.34-5.17-11.54-5.46-18.63h18.48
		c0.48,5.72,2.57,10.26,6.26,13.61c3.69,3.34,8.54,5.02,14.55,5.02c5.63,0,10.11-1.14,13.46-3.42c3.35-2.28,5.02-5.6,5.02-9.97
		c0-2.91-0.92-5.29-2.77-7.14c-1.84-1.84-4.2-3.27-7.06-4.29c-2.86-1.02-6.77-2.16-11.72-3.42c-6.99-1.75-12.69-3.57-17.1-5.46
		c-4.42-1.89-8.2-4.88-11.35-8.95c-3.15-4.08-4.73-9.55-4.73-16.44c0-5.53,1.48-10.46,4.44-14.78c2.96-4.32,7.11-7.66,12.44-10.04
		c5.34-2.38,11.4-3.57,18.19-3.57c7.08,0,13.37,1.29,18.85,3.86c5.48,2.57,9.8,6.24,12.95,10.99c3.15,4.76,4.88,10.29,5.17,16.59
		h-18.34c-0.49-4.46-2.38-8.05-5.68-10.77c-3.3-2.71-7.62-4.08-12.95-4.08c-5.05,0-9.02,1.07-11.94,3.2c-2.91,2.14-4.36,5-4.36,8.59
		c0,3,0.94,5.43,2.84,7.27c1.89,1.84,4.27,3.28,7.13,4.3c2.86,1.02,6.87,2.11,12.01,3.27c7.08,1.65,12.83,3.38,17.25,5.17
		c4.41,1.8,8.22,4.73,11.42,8.81c3.2,4.08,4.8,9.61,4.8,16.59c0,6.21-1.6,11.6-4.8,16.15c-3.2,4.56-7.66,8.08-13.39,10.56
		c-5.73,2.47-12.32,3.71-19.79,3.71C2243.38,690.16,2236.66,688.71,2230.89,685.8z"/>
	<path d="M2317.05,685.29c-5.82-3.25-10.38-7.76-13.68-13.54c-3.3-5.77-4.95-12.25-4.95-19.43c0-7.18,1.65-13.65,4.95-19.43
		c3.3-5.77,7.86-10.28,13.68-13.53c5.82-3.25,12.42-4.88,19.79-4.88c7.28,0,13.83,1.63,19.65,4.88c5.82,3.25,10.38,7.77,13.68,13.53
		c3.3,5.78,4.95,12.25,4.95,19.43c0,7.18-1.65,13.66-4.95,19.43c-3.3,5.78-7.86,10.29-13.68,13.54c-5.82,3.25-12.37,4.88-19.65,4.88
		C2329.47,690.16,2322.87,688.54,2317.05,685.29z M2322.07,668.48c3.73,4.18,8.66,6.26,14.77,6.26c6.01,0,10.89-2.08,14.62-6.26
		c3.74-4.17,5.6-9.55,5.6-16.15c0-6.6-1.87-11.98-5.6-16.15c-3.73-4.17-8.61-6.26-14.62-6.26c-6.12,0-11.04,2.06-14.77,6.19
		c-3.74,4.12-5.6,9.53-5.6,16.23C2316.47,658.92,2318.34,664.31,2322.07,668.48z"/>
	<path d="M2393.65,630.63h-14.41v-14.99h14.41v-16.3c0-4.56,1.38-8.22,4.15-10.99c2.76-2.76,6.42-4.15,10.99-4.15h24.16v15.14
		h-21.39v16.3h21.39v14.99h-21.39V689h-17.9V630.63z"/>
	<path d="M2456.16,685.07c-2.62-2.62-3.93-6.35-3.93-11.21v-43.23h-14.41v-14.99h14.41v-22.13h17.9v22.13h20.37v14.99h-20.37v43.23
		h20.37V689h-23.14C2462.51,689,2458.78,687.69,2456.16,685.07z"/>
	<path d="M2496.52,615.64h17.9l13.54,49.05l14.41-49.05h16.45l14.26,49.05l13.53-49.05h17.9L2581.08,689h-15.86l-14.7-49.34
		l-14.7,49.34h-15.86L2496.52,615.64z"/>
	<path d="M2615.63,683.9c-4.51-4.17-6.77-9.46-6.77-15.86c0-6.98,2.5-12.56,7.49-16.73c5-4.17,11.67-6.26,20.01-6.26h13.54
		c1.75,0,3.06-0.46,3.93-1.38c0.87-0.92,1.31-2.11,1.31-3.57c0-3.69-1.31-6.64-3.93-8.88c-2.62-2.23-6.26-3.35-10.91-3.35
		c-4.56,0-8.22,1.21-10.99,3.64c-2.76,2.42-4.25,5.38-4.44,8.88h-16.01c0.29-4.85,1.8-9.24,4.51-13.17
		c2.71-3.93,6.48-7.03,11.28-9.31c4.8-2.28,10.31-3.42,16.52-3.42c6.21,0,11.72,1.12,16.52,3.35c4.8,2.23,8.54,5.41,11.21,9.53
		c2.67,4.13,4,8.9,4,14.33V689h-17.76v-10.92c-1.46,3.69-4.18,6.62-8.15,8.81c-3.98,2.18-8.54,3.28-13.68,3.28
		C2626.03,690.16,2620.14,688.08,2615.63,683.9z M2629.31,674.23c2.08,1.7,4.83,2.54,8.22,2.54c5.53,0,9.85-1.72,12.95-5.17
		c3.11-3.44,4.66-7.98,4.66-13.61v-1.17h-16.3c-3.78,0-6.84,0.95-9.17,2.84c-2.33,1.89-3.49,4.49-3.49,7.79
		C2626.18,670.27,2627.22,672.53,2629.31,674.23z"/>
	<path d="M2692.91,619.79c2.77-2.76,6.43-4.15,10.99-4.15h27.22v14.99h-24.45V689h-17.9v-58.22
		C2688.76,626.22,2690.14,622.56,2692.91,619.79z"/>
	<path d="M2739.45,633.47c2.72-5.67,6.79-10.26,12.23-13.75c5.43-3.5,11.98-5.24,19.65-5.24c7.76,0,14.34,1.67,19.72,5.02
		c5.38,3.34,9.39,7.71,12.01,13.1c2.62,5.38,3.93,11.14,3.93,17.25c0,2.13-0.1,4.17-0.29,6.11h-54.14
		c0.68,5.92,2.81,10.62,6.4,14.12c3.59,3.49,8.2,5.24,13.83,5.24c4.56,0,8.3-0.92,11.21-2.76c2.91-1.84,4.85-4.51,5.82-8.01h17.46
		c-1.36,7.77-5.19,13.97-11.5,18.63c-6.31,4.66-13.97,6.99-23,6.99c-7.66,0-14.33-1.79-20.01-5.38c-5.68-3.59-9.99-8.3-12.95-14.12
		c-2.96-5.82-4.44-12.03-4.44-18.63C2735.38,645.33,2736.73,639.15,2739.45,633.47z M2789.08,644.17
		c-0.39-4.85-2.16-8.78-5.31-11.79c-3.16-3-7.3-4.51-12.44-4.51c-10.38,0-16.5,5.43-18.34,16.3H2789.08z"/>
</g>
<g>
	<path d="M2927.84,188h-12.79v-5.37h31.65V188h-12.79v35.5h-6.07V188z"/>
	<path d="M2954.3,182.63h7.47l13.02,32.58l13.02-32.58h7.47v40.88h-5.84v-30.42l-12.2,30.42h-4.91l-12.26-30.42v30.42h-5.78V182.63z
		"/>
</g>
</svg>
