<svg width="16" height="19" viewBox="0 0 16 19" fill="none" xmlns="http://www.w3.org/2000/svg">
<path d="M7.58105 16.3379C9.28941 16.3379 10.0106 17.8125 10.0107 18.4492H8.85449C8.47112 17.1502 6.73053 17.1633 6.39258 18.4492H5.22949C5.22965 17.9034 5.86596 16.338 7.58105 16.3379ZM7.53906 11.46C12.7196 11.6157 14.9418 15.6823 15.1367 18.4434H13.9932C13.5449 15.0912 11.0046 12.5967 7.53906 12.5967C4.07361 12.5968 1.4096 15.4096 1.15625 18.4434H0C0.10394 15.8707 2.37111 11.5444 7.53906 11.46ZM7.59473 13.9346C11.234 13.9348 12.7067 17.161 12.707 18.4424H11.5635C11.3683 16.9873 9.92646 15.052 7.59473 15.0518C5.39917 15.0518 3.90469 16.8574 3.68359 18.4424H2.52051C2.5209 17.3438 3.94064 13.9346 7.59473 13.9346ZM2.95605 10.2568C6.08697 8.45133 9.61415 8.84743 12.1865 10.2568C12.5272 11.0207 13.1015 12.2989 13.1094 12.3164C12.2063 11.5044 10.2505 10.1924 7.53516 10.1924C4.81986 10.1925 2.76693 11.6213 2.02637 12.3164L2.95605 10.2568ZM4.31348 7.23633C5.63868 6.87907 7.72384 6.33348 10.8027 7.19727C11.1457 7.96643 11.4463 8.62695 11.4463 8.62695C10.7512 8.34114 9.40611 7.88184 7.53516 7.88184C5.66477 7.88191 4.06077 8.48372 3.66406 8.67871L4.31348 7.23633ZM5.52246 4.56055C6.69176 4.35275 8.28981 4.34 9.6084 4.54785C9.95134 5.31687 10.1738 5.80176 10.1738 5.80176C9.84251 5.7238 9.03649 5.54829 7.54883 5.54492C6.06118 5.54156 5.07363 5.79467 4.9502 5.82715L5.52246 4.56055ZM6.54199 2.28027C7.38634 2.24133 7.71781 2.24131 8.59473 2.28027C8.93322 3.03933 9.11642 3.45233 9.12109 3.46289C8.73135 3.42949 8.14643 3.38868 7.54883 3.38867C6.95117 3.38867 6.25566 3.44269 6.00879 3.47461L6.54199 2.28027ZM8.08789 1.16895C8.08789 1.16895 7.25652 1.16462 7.04199 1.16895L7.56836 0L8.08789 1.16895Z" fill="#098BD5"/>
</svg>
