<svg width="284" height="278" viewBox="0 0 284 278" fill="none" xmlns="http://www.w3.org/2000/svg">
<path d="M263.37 145.089C263.37 172.1 253.473 196.853 237.029 216.073C233.741 219.918 230.19 223.541 226.403 226.916C220.831 231.883 214.752 236.316 208.247 240.126C197.229 246.584 184.997 251.262 171.963 253.758C164.87 255.117 157.542 255.829 150.042 255.829C87.4521 255.829 36.7126 206.249 36.7126 145.089C36.7126 83.929 87.4521 34.3506 150.042 34.3506C203.706 34.3506 248.66 70.7989 260.387 119.744C261.732 125.355 262.639 131.129 263.074 137.032C263.269 139.692 263.37 142.379 263.37 145.089Z" fill="#69C5BD"/>
<path d="M127.354 113.32C132.085 113.32 135.92 109.572 135.92 104.949C135.92 100.327 132.085 96.5791 127.354 96.5791C122.623 96.5791 118.788 100.327 118.788 104.949C118.788 109.572 122.623 113.32 127.354 113.32Z" fill="#DBE2E2"/>
<path d="M72.2807 114.647C77.0117 114.647 80.8468 110.899 80.8468 106.277C80.8468 101.654 77.0117 97.9062 72.2807 97.9062C67.5498 97.9062 63.7146 101.654 63.7146 106.277C63.7146 110.899 67.5498 114.647 72.2807 114.647Z" fill="#DBE2E2"/>
<path d="M170.021 134.922C176.161 134.922 181.139 130.058 181.139 124.057C181.139 118.057 176.161 113.193 170.021 113.193C163.88 113.193 158.902 118.057 158.902 124.057C158.902 130.058 163.88 134.922 170.021 134.922Z" fill="#97D5CF"/>
<path d="M47.8841 124.814C49.6107 119.055 49.4564 113.943 47.5395 113.394C45.6226 112.845 42.6691 117.068 40.9426 122.826C39.216 128.585 39.3703 133.697 41.2872 134.246C43.204 134.795 46.1576 130.572 47.8841 124.814Z" fill="#97D5CF"/>
<path d="M77.9824 181.136L72.2808 168.3L79.4393 161.676L122.686 163.539L130.949 183.573C130.949 183.573 130.526 197.076 139.636 198.112L132.061 212.443L86.8808 208.258L85.3983 205.152C85.3983 205.152 102.136 179.894 77.9824 181.138V181.136Z" fill="#F9A039"/>
<path d="M152.534 161.676L163.525 148.428L168.67 152.954L158.902 167.697L152.534 161.676Z" fill="#FADF55"/>
<path d="M225.342 197.25L255.568 185.542C255.568 185.542 261.869 204.226 282.105 203.631L262.711 227.153C262.711 227.153 223.864 218.472 225.344 197.25H225.342Z" fill="#FADF55"/>
<path d="M222.982 99.8256L248.542 80.5337C248.542 80.5337 261.528 102.571 281.194 102.887L266.017 119.601C266.017 119.601 238.451 123.108 222.982 99.8256Z" fill="#FAC687"/>
<path d="M27.5203 49.6801C41.0315 49.6801 51.9845 38.9774 51.9845 25.7749C51.9845 12.5724 41.0315 1.86963 27.5203 1.86963C14.0091 1.86963 3.05615 12.5724 3.05615 25.7749C3.05615 38.9774 14.0091 49.6801 27.5203 49.6801Z" fill="#FADF55"/>
<path d="M75.4239 114.043C78.797 112.748 80.8304 109.955 79.9658 107.804C79.1012 105.652 75.6658 104.957 72.2928 106.252C68.9197 107.546 66.8862 110.339 67.7509 112.491C68.6155 114.642 72.0509 115.337 75.4239 114.043Z" fill="#313332"/>
<path d="M132.844 110.564C133.428 108.324 131.056 105.799 127.545 104.924C124.033 104.049 120.713 105.155 120.128 107.394C119.543 109.634 121.916 112.159 125.427 113.034C128.939 113.91 132.259 112.804 132.844 110.564Z" fill="#313332"/>
<path d="M60.6349 130.188C64.5637 131.27 68.4232 132.646 72.447 133.367C76.8561 134.157 81.4258 134.175 85.6668 132.596C87.0671 132.075 88.4309 131.456 89.7162 130.701C91.1603 129.854 92.4547 128.826 93.7802 127.813L93.2252 128.232C93.3457 128.152 93.468 128.086 93.6013 128.029L92.9477 128.298C93.1576 128.222 93.3657 128.173 93.5885 128.143L92.86 128.239C93.2014 128.207 93.5392 128.22 93.8806 128.264L93.1521 128.168C93.4296 128.209 93.6925 128.268 93.9554 128.366L93.3018 128.097C93.9536 128.366 94.5232 128.789 95.1348 129.133C95.5511 129.367 95.9765 129.585 96.4073 129.79C97.6251 130.37 98.8848 130.874 100.157 131.328C102.75 132.25 105.434 132.93 108.143 133.433C114.776 134.664 121.673 134.972 128.315 133.625C131.849 132.908 135.366 131.625 138.358 129.627C138.953 129.23 139.42 128.723 139.616 128.029C139.797 127.389 139.714 126.536 139.34 125.967C138.582 124.818 136.859 124.163 135.594 125.007C134.329 125.851 133.003 126.539 131.608 127.117L132.262 126.848C129.737 127.883 127.062 128.52 124.353 128.882L125.082 128.785C120.74 129.354 116.32 129.235 111.986 128.669L112.714 128.766C109.18 128.298 105.669 127.538 102.295 126.402C101.492 126.131 100.696 125.838 99.9127 125.515L100.566 125.785C99.4891 125.339 98.4265 124.843 97.4315 124.24C97.0208 123.99 96.6209 123.724 96.181 123.524C95.2882 123.119 94.4739 122.93 93.4844 122.875C92.5588 122.823 91.6697 123.029 90.8372 123.408C90.1197 123.737 89.5245 124.347 88.8983 124.821L89.4533 124.402C87.8211 125.63 86.0612 126.684 84.1625 127.469L84.8161 127.199C83.2441 127.838 81.6029 128.275 79.9159 128.498L80.6444 128.402C78.6672 128.652 76.6717 128.6 74.6963 128.347L75.4247 128.443C70.855 127.838 66.5081 126.245 62.0899 125.027C60.7115 124.647 59.0483 125.492 58.7215 126.896C58.3947 128.3 59.1579 129.781 60.6349 130.188Z" fill="#313332"/>
<path d="M57.5147 130.848C58.2852 130.915 59.1159 130.787 59.8352 130.51C60.308 130.33 60.79 130.139 61.2209 129.868C61.6517 129.597 62.0333 129.304 62.4039 128.981C63.0064 128.455 63.5048 127.799 63.9612 127.151C64.3172 126.646 64.6276 126.113 64.9362 125.579C65.2903 124.971 65.4035 124.197 65.2118 123.517C65.0366 122.896 64.5455 122.224 63.9539 121.919C63.3186 121.59 62.5482 121.426 61.8434 121.649C61.1387 121.872 60.5636 122.263 60.2076 122.878C59.8133 123.558 59.4135 124.238 58.9278 124.859L59.3569 124.316C59.0355 124.718 58.6832 125.091 58.2724 125.408L58.8274 124.989C58.5079 125.23 58.1665 125.431 57.7977 125.588L58.4513 125.319C58.1519 125.44 57.847 125.528 57.5275 125.574L58.256 125.478C58.0095 125.508 57.7649 125.513 57.5184 125.492C56.8575 125.433 56.0359 125.833 55.5813 126.275C55.1267 126.718 54.7488 127.501 54.7799 128.168C54.8109 128.835 55.0446 129.577 55.5813 130.061L56.1364 130.48C56.5636 130.723 57.0236 130.844 57.5184 130.846L57.5147 130.848Z" fill="#313332"/>
<path d="M131.67 125.593C132.64 126.971 133.911 128.162 135.462 128.901C136.231 129.267 137.042 129.59 137.881 129.757C138.721 129.925 139.605 130.03 140.468 129.978C141.197 129.934 141.878 129.711 142.406 129.195C142.88 128.731 143.238 127.97 143.207 127.302C143.176 126.635 142.942 125.893 142.406 125.41C141.869 124.926 141.193 124.582 140.468 124.627C140.007 124.655 139.546 124.639 139.088 124.58L139.817 124.676C139.174 124.589 138.551 124.421 137.953 124.179L138.606 124.448C138.009 124.2 137.451 123.883 136.934 123.497L137.489 123.917C137.014 123.556 136.589 123.144 136.216 122.68L136.645 123.223C136.561 123.115 136.479 123.005 136.401 122.894C135.992 122.313 135.479 121.856 134.765 121.665C134.11 121.489 133.237 121.569 132.655 121.935C132.072 122.3 131.555 122.851 131.397 123.533C131.238 124.214 131.258 125.005 131.672 125.595L131.67 125.593Z" fill="#313332"/>
<path d="M76.7427 209.178C77.5898 209.221 78.4388 209.26 79.2877 209.253C80.3485 209.244 81.4055 209.142 82.4498 208.962C83.4941 208.782 84.3741 208.454 85.2924 208.045C85.8985 207.776 86.4645 207.435 86.9939 207.041C87.6968 206.518 88.3632 205.985 88.9547 205.344C89.5463 204.704 90.0903 204.008 90.5887 203.291C91.361 202.18 91.9945 200.981 92.5623 199.759C93.298 198.175 93.9936 196.556 94.5669 194.91C94.8444 194.111 95.0854 193.299 95.2533 192.471C95.4615 191.447 95.6075 190.391 95.6039 189.344C95.6021 188.734 95.5199 188.14 95.4341 187.535C95.3793 187.146 95.3008 186.762 95.1821 186.388C94.9996 185.812 94.7549 185.237 94.4555 184.709C94.1561 184.181 93.7818 183.731 93.4039 183.284C92.7704 182.534 91.989 181.937 91.204 181.348C90.6179 180.907 89.9972 180.511 89.3473 180.169C87.8776 179.395 86.271 178.799 84.6279 178.494C82.9847 178.189 81.2503 178.057 79.5579 178.267C78.9774 178.339 78.3986 178.413 77.8254 178.529C77.1772 178.661 76.5145 179.214 76.1895 179.759C75.8463 180.333 75.7003 181.177 75.9139 181.821C76.1275 182.465 76.5382 183.093 77.1718 183.419L77.8254 183.689C78.311 183.815 78.7966 183.815 79.2823 183.689C79.5908 183.626 79.9012 183.574 80.2133 183.532L79.4849 183.628C80.7118 183.469 81.9551 183.475 83.1819 183.635L82.4535 183.539C83.6803 183.706 84.8798 184.026 86.0227 184.491L85.3691 184.222C86.4645 184.675 87.4978 185.259 88.4399 185.967L87.8849 185.548C88.533 186.04 89.1446 186.584 89.654 187.214L89.2249 186.671C89.5317 187.062 89.7891 187.48 89.9862 187.933L89.7106 187.294C89.9333 187.827 90.0739 188.384 90.1524 188.955L90.0538 188.243C90.167 189.126 90.136 190.02 90.0191 190.901L90.1177 190.189C89.8055 192.421 88.9365 194.535 88.0474 196.597L88.323 195.959C87.5051 197.85 86.5795 199.721 85.2906 201.355L85.7196 200.813C85.1281 201.555 84.4617 202.237 83.7022 202.816L84.2572 202.397C83.6676 202.84 83.0304 203.211 82.3476 203.498L83.0012 203.228C82.2034 203.557 81.3635 203.757 80.5055 203.871L81.2339 203.774C79.7442 203.962 78.2398 203.896 76.7445 203.821C76.0654 203.787 75.2803 204.144 74.8075 204.604C74.3346 205.064 73.975 205.83 74.006 206.497C74.0371 207.164 74.2707 207.906 74.8075 208.39C75.3442 208.873 75.9905 209.135 76.7445 209.173L76.7427 209.178Z" fill="#313332"/>
<path d="M69.0328 183.653C67.7421 184.682 66.6448 185.954 65.7411 187.319C65.3468 187.913 65.0017 188.537 64.7096 189.185C64.4759 189.702 64.2459 190.227 64.0524 190.76C63.9301 191.097 63.8333 191.444 63.6964 191.774L63.972 191.135C63.8972 191.308 63.8096 191.47 63.6964 191.624L64.1254 191.081C64.0378 191.19 63.9428 191.285 63.8333 191.37L64.3883 190.951C64.2605 191.042 64.129 191.114 63.983 191.174L64.6366 190.905C64.423 190.985 64.2039 191.035 63.9757 191.069L64.7041 190.973C64.1272 191.048 63.5394 191.039 62.9588 191.053L60.9524 191.105L56.9833 191.208L48.9996 191.415L44.5285 191.531C43.8146 191.549 43.1026 191.816 42.5914 192.314C42.1168 192.778 41.7589 193.54 41.79 194.207C41.821 194.874 42.0547 195.616 42.5914 196.1C43.1282 196.583 43.7927 196.903 44.5285 196.883C47.9188 196.795 51.3109 196.706 54.7012 196.619L59.8113 196.487L62.3198 196.421C63.0884 196.401 63.8716 196.421 64.6348 196.333C65.4928 196.234 66.1172 196.118 66.8968 195.727C66.9771 195.688 67.0501 195.641 67.1232 195.591C67.3642 195.425 67.6179 195.247 67.8315 195.047C67.9758 194.913 68.0908 194.747 68.2113 194.594C68.3318 194.441 68.4614 194.291 68.5618 194.12C69.0438 193.286 69.2501 192.321 69.6262 191.444L69.3505 192.082C69.8142 191.021 70.4112 190.022 71.1287 189.107L70.6997 189.649C71.3478 188.832 72.0854 188.09 72.9051 187.435C73.1717 187.192 73.3615 186.905 73.4711 186.573C73.6427 186.254 73.7212 185.911 73.7066 185.542C73.7066 184.886 73.409 184.103 72.9051 183.649C72.4012 183.196 71.6983 182.834 70.9681 182.866L70.2396 182.963C69.7759 183.089 69.3724 183.319 69.031 183.651L69.0328 183.653Z" fill="#313332"/>
<path d="M69.2647 202.226L56.8902 202.221L44.5613 202.215C42.3614 202.215 40.1359 202.296 37.9487 202.012L38.6771 202.108C37.5982 201.964 36.532 201.723 35.526 201.309L36.1796 201.578C35.4731 201.282 34.8067 200.908 34.1987 200.449L34.7537 200.868C34.2626 200.492 33.8172 200.066 33.4356 199.582L33.8646 200.124C33.5579 199.728 33.3005 199.304 33.0997 198.849L33.3753 199.488C33.1818 199.033 33.054 198.558 32.9828 198.069L33.0814 198.781C32.9883 198.069 33.0157 197.356 33.1125 196.647L33.0139 197.359C33.1599 196.35 33.4374 195.367 33.7241 194.387C34.0107 193.408 34.3101 192.437 34.6259 191.469C35.2558 189.531 35.9441 187.612 36.689 185.715C37.1071 184.65 37.5452 183.591 37.998 182.538L37.7223 183.177C38.7648 180.765 39.9004 178.394 41.1236 176.066C41.4595 175.427 41.5982 174.71 41.3992 174.003C41.224 173.383 40.7329 172.71 40.1413 172.405C39.506 172.077 38.7356 171.913 38.0308 172.136C37.3736 172.344 36.72 172.746 36.395 173.365C34.2426 177.457 32.3584 181.691 30.75 186.013C29.9814 188.081 29.2785 190.172 28.645 192.282C28.3292 193.338 28.0042 194.398 27.807 195.483C27.5313 197.002 27.4437 198.458 27.7906 199.976C28.3219 202.308 30.0289 204.222 32.0408 205.489C34.0527 206.755 36.6032 207.289 39.0405 207.474C41.3408 207.649 43.6667 207.565 45.9726 207.565L53.1603 207.569L67.4919 207.574H69.2665C69.9694 207.574 70.707 207.276 71.2036 206.791C71.7001 206.306 72.0361 205.566 72.005 204.898C71.974 204.231 71.7403 203.489 71.2036 203.006C70.6668 202.522 70.0096 202.222 69.2665 202.222L69.2647 202.226Z" fill="#313332"/>
<path d="M161.371 169.199C159.536 166.955 157.679 164.699 155.463 162.799C153.082 160.758 150.333 159.045 147.212 158.348C145.761 158.023 144.227 157.852 142.738 157.96C141.905 158.021 141.064 158.132 140.251 158.328C139.439 158.524 138.665 158.831 137.911 159.175C137.248 159.477 136.656 159.868 136.079 160.303C135.502 160.738 134.929 161.227 134.451 161.8C133.889 162.472 133.366 163.168 132.952 163.939C132.538 164.709 132.193 165.528 131.902 166.352C131.451 167.631 131.17 168.96 130.936 170.291C130.659 171.874 130.422 173.461 130.168 175.047C129.627 178.43 129.083 181.812 128.545 185.196C128.382 186.213 128.22 187.237 128.15 188.265C128.081 189.292 128.165 190.277 128.346 191.28C128.654 193.005 129.573 194.535 130.692 195.873C131.106 196.368 131.577 196.817 132.088 197.217C132.777 197.756 133.478 198.266 134.261 198.665C135.826 199.466 137.522 199.996 139.269 200.239C141.016 200.481 142.623 200.583 144.315 200.476C145.803 200.382 147.304 200.173 148.744 199.793C150.185 199.413 151.527 198.888 152.783 198.184C153.498 197.782 154.156 197.299 154.795 196.79C155.264 196.418 155.7 196.002 156.087 195.547C156.602 194.944 157.091 194.312 157.478 193.622C157.825 193.003 157.949 192.248 157.754 191.56C157.579 190.939 157.088 190.266 156.496 189.961C155.861 189.633 155.09 189.469 154.386 189.692C153.681 189.915 153.095 190.304 152.75 190.921C152.525 191.323 152.27 191.704 151.985 192.066L152.414 191.524C151.925 192.138 151.355 192.682 150.727 193.16L151.282 192.741C150.471 193.349 149.58 193.838 148.642 194.23L149.296 193.961C147.923 194.527 146.469 194.883 144.994 195.081L145.723 194.985C143.857 195.229 141.944 195.237 140.078 194.992L140.806 195.088C139.576 194.923 138.365 194.63 137.217 194.163L137.87 194.432C137.031 194.082 136.24 193.642 135.515 193.096L136.07 193.515C135.453 193.044 134.896 192.507 134.414 191.904L134.843 192.446C134.427 191.917 134.077 191.344 133.806 190.73L134.082 191.369C133.834 190.789 133.67 190.188 133.58 189.567L133.679 190.279C133.529 189.159 133.62 188.031 133.772 186.916L133.673 187.628C134.08 184.709 134.597 181.801 135.063 178.89L135.773 174.448C135.974 173.187 136.162 171.924 136.414 170.671C136.665 169.419 137.012 168.09 137.538 166.871L137.262 167.51C137.62 166.691 138.064 165.912 138.621 165.205L138.192 165.747C138.624 165.207 139.117 164.72 139.674 164.299L139.119 164.718C139.696 164.288 140.326 163.937 140.994 163.662L140.341 163.931C141.135 163.61 141.965 163.402 142.816 163.287L142.088 163.384C143.156 163.246 144.235 163.261 145.303 163.398L144.574 163.302C145.741 163.459 146.88 163.764 147.966 164.206L147.313 163.937C148.66 164.493 149.907 165.262 151.063 166.133L150.508 165.714C152.611 167.312 154.391 169.264 156.076 171.269C156.554 171.838 157.024 172.411 157.495 172.985C157.743 173.246 158.037 173.431 158.377 173.538C158.703 173.706 159.054 173.782 159.432 173.768C160.104 173.768 160.905 173.477 161.369 172.985C161.833 172.493 162.203 171.806 162.17 171.092L162.072 170.38C161.942 169.927 161.707 169.533 161.367 169.199H161.371Z" fill="#313332"/>
<path d="M155.264 195.581C155.308 195.599 155.351 195.616 155.395 195.634L154.742 195.365C156.785 196.21 158.619 197.449 160.37 198.767L159.815 198.348C161.486 199.609 163.103 200.938 164.779 202.196C166.223 203.28 167.73 204.311 169.38 205.077C171.405 206.015 173.53 206.622 175.788 206.647C178.401 206.675 180.946 205.881 183.221 204.668C185.364 203.523 187.294 201.974 189.077 200.355C190.861 198.735 192.387 197.188 193.945 195.516C197.227 191.993 200.245 188.216 202.953 184.256C205.66 180.296 207.842 176.492 209.821 172.368C210.062 171.865 210.297 171.361 210.529 170.855C210.73 170.548 210.838 170.216 210.854 169.859C210.936 169.504 210.92 169.148 210.805 168.793C210.63 168.172 210.138 167.499 209.547 167.194C208.912 166.866 208.141 166.702 207.436 166.925C206.801 167.126 206.085 167.531 205.801 168.154C203.447 173.299 200.603 178.228 197.315 182.859C196.395 184.154 195.44 185.426 194.454 186.675L194.883 186.133C192.055 189.702 188.962 193.087 185.612 196.196C184.69 197.051 183.737 197.875 182.731 198.635L183.286 198.216C181.975 199.2 180.577 200.076 179.052 200.713L179.706 200.444C178.704 200.856 177.66 201.154 176.582 201.3L177.311 201.204C176.356 201.325 175.392 201.323 174.439 201.198L175.167 201.295C174.114 201.15 173.093 200.858 172.113 200.458L172.767 200.727C170.828 199.926 169.09 198.74 167.43 197.49L167.985 197.909C165.269 195.854 162.702 193.559 159.733 191.849C158.767 191.292 157.76 190.841 156.723 190.423C156.113 190.177 155.154 190.384 154.612 190.693C154.07 191.001 153.502 191.654 153.354 192.291C153.195 192.976 153.228 193.745 153.63 194.353L154.059 194.896C154.4 195.227 154.804 195.456 155.267 195.584L155.264 195.581Z" fill="#313332"/>
<path d="M190.897 163.926C189.473 166.084 187.956 168.184 186.35 170.216L186.779 169.674C184.141 173.006 181.265 176.157 178.172 179.095C177.322 179.903 176.462 180.704 175.523 181.418L176.078 180.998C175.228 181.639 174.322 182.213 173.333 182.625L173.986 182.356C173.413 182.59 172.818 182.763 172.201 182.848L172.929 182.752C172.467 182.809 172.007 182.815 171.545 182.759L172.274 182.856C171.828 182.797 171.397 182.683 170.983 182.515L171.636 182.784C171.162 182.586 170.722 182.324 170.311 182.017L170.866 182.436C169.975 181.76 169.247 180.913 168.516 180.078C168.151 179.661 167.784 179.243 167.395 178.845C166.844 178.283 166.243 177.807 165.608 177.336C165.294 177.14 164.954 177.035 164.589 177.018C164.226 176.938 163.861 176.954 163.498 177.067C162.862 177.238 162.174 177.718 161.862 178.296C161.526 178.917 161.358 179.669 161.586 180.358L161.862 180.997C162.105 181.398 162.433 181.719 162.844 181.956L162.895 181.994L162.34 181.575C163.236 182.253 163.974 183.096 164.706 183.933C165.077 184.356 165.446 184.781 165.838 185.184C166.364 185.724 166.937 186.184 167.545 186.638C168.823 187.588 170.419 188.093 172.018 188.149C172.447 188.163 172.865 188.111 173.291 188.056C173.716 188.001 174.138 187.938 174.554 187.822C175.399 187.587 176.224 187.23 176.995 186.818C178.386 186.072 179.649 185.068 180.814 184.022C181.866 183.079 182.879 182.09 183.874 181.091C185.877 179.077 187.783 176.97 189.583 174.781C191.513 172.435 193.346 170.013 195.044 167.501C195.239 167.21 195.434 166.919 195.626 166.627C196 166.058 196.082 165.205 195.902 164.565C195.721 163.924 195.235 163.271 194.644 162.966C194.008 162.638 193.238 162.474 192.533 162.697C191.829 162.92 191.297 163.319 190.897 163.926Z" fill="#313332"/>
<path d="M161.663 168.341C162.245 167.569 162.835 166.804 163.435 166.045L163.006 166.588C164.136 165.161 165.299 163.757 166.493 162.381C167.687 161.006 168.898 159.723 170.099 158.392C170.862 157.547 171.616 156.653 172.153 155.65C172.493 155.017 172.626 154.289 172.429 153.588C172.254 152.967 171.762 152.295 171.171 151.99C170.536 151.661 169.765 151.497 169.06 151.72C168.399 151.929 167.757 152.33 167.425 152.949C167.165 153.431 166.855 153.882 166.514 154.312L166.943 153.77C166.367 154.487 165.723 155.149 165.099 155.825C164.432 156.548 163.773 157.277 163.125 158.016C161.827 159.491 160.567 160.999 159.344 162.535C158.528 163.56 157.719 164.593 156.931 165.64C156.73 165.947 156.622 166.279 156.606 166.636C156.523 166.991 156.54 167.348 156.655 167.703C156.83 168.324 157.321 168.996 157.913 169.301C158.548 169.629 159.319 169.794 160.023 169.571L160.677 169.301C161.088 169.064 161.416 168.743 161.659 168.341H161.663Z" fill="#313332"/>
<path d="M171.308 151.802L167.516 149.033L166.578 148.348C166.287 148.136 166.002 147.891 165.688 147.711C164.666 147.122 163.346 147.073 162.313 147.67C161.823 147.954 161.478 148.307 161.133 148.728C159.089 151.21 157.11 153.741 155.204 156.326C154.199 157.687 153.217 159.064 152.257 160.454C151.873 161.007 151.804 161.89 151.981 162.516C152.158 163.143 152.648 163.81 153.239 164.115C153.874 164.443 154.645 164.607 155.35 164.384L156.003 164.115C156.414 163.878 156.743 163.556 156.985 163.155C159.005 160.233 161.121 157.375 163.326 154.583L162.897 155.125C163.333 154.574 163.771 154.025 164.215 153.479C164.432 153.211 164.65 152.945 164.869 152.678C165.073 152.428 165.267 152.153 165.517 151.946L164.962 152.366C165.018 152.325 165.071 152.292 165.135 152.262L164.482 152.531C164.524 152.514 164.566 152.503 164.609 152.496L163.881 152.592C163.927 152.585 163.972 152.585 164.018 152.59L163.289 152.494C163.361 152.506 163.417 152.524 163.485 152.551L162.831 152.282C163.067 152.401 163.275 152.574 163.487 152.729L164.21 153.258L165.654 154.312L168.542 156.422C168.856 156.619 169.196 156.724 169.561 156.74C169.924 156.82 170.289 156.804 170.652 156.692C171.288 156.52 171.976 156.041 172.288 155.463C172.624 154.842 172.792 154.089 172.564 153.4L172.288 152.762C172.045 152.36 171.717 152.039 171.306 151.802H171.308Z" fill="#313332"/>
<path d="M90.4117 212.935C95.6514 212.721 100.898 212.659 106.142 212.748C111.356 212.837 116.566 213.076 121.766 213.465C124.711 213.686 127.652 213.954 130.588 214.271C131.082 214.271 131.543 214.148 131.97 213.906C132.381 213.668 132.709 213.347 132.952 212.946C133.397 212.312 133.859 211.692 134.339 211.085L133.91 211.627C134.873 210.413 135.904 209.253 137 208.152C137.494 207.656 137.801 206.957 137.801 206.259C137.801 205.603 137.503 204.82 137 204.367C136.496 203.914 135.793 203.551 135.062 203.584C134.332 203.616 133.64 203.851 133.125 204.367C131.322 206.181 129.686 208.161 128.222 210.245L130.586 208.919C125.374 208.357 120.143 207.947 114.905 207.687C109.698 207.43 104.482 207.321 99.2681 207.366C96.3141 207.391 93.362 207.464 90.4098 207.583C89.6887 207.612 88.9913 207.861 88.4728 208.366C87.9981 208.83 87.6403 209.592 87.6713 210.259C87.7023 210.926 87.936 211.668 88.4728 212.152C89.0095 212.635 89.6796 212.965 90.4098 212.935H90.4117Z" fill="#313332"/>
<path d="M76.9674 160.742C75.5397 161.851 74.196 163.059 72.9491 164.361C72.5675 164.759 72.1987 165.16 71.8591 165.592C71.5433 165.992 71.2968 166.391 71.1581 166.893C70.9773 167.537 71.0138 168.177 71.1635 168.821C71.2694 169.28 71.4702 169.727 71.6273 170.172L72.1019 171.51L73.201 174.603C73.4365 175.267 73.8254 175.839 74.4589 176.201C75.0468 176.537 75.9103 176.68 76.5694 176.471C77.2285 176.262 77.8711 175.861 78.2052 175.242C78.5393 174.623 78.7219 173.857 78.4809 173.179L77.4256 170.211L76.9053 168.748C76.7355 168.27 76.5091 167.779 76.4179 167.28L76.5164 167.992C76.5073 167.911 76.5037 167.836 76.5073 167.754L76.4087 168.466C76.4233 168.363 76.4489 168.273 76.4891 168.177L76.2134 168.816C76.259 168.727 76.312 168.645 76.3722 168.562L75.9432 169.105C76.6296 168.245 77.464 167.465 78.2691 166.712C79.0742 165.96 79.9487 165.216 80.8378 164.525C81.1044 164.283 81.2943 163.995 81.4038 163.664C81.5754 163.344 81.6539 163.002 81.6393 162.633C81.6393 161.976 81.3417 161.193 80.8378 160.74C80.3339 160.287 79.6311 159.924 78.9008 159.957L78.1723 160.053C77.7086 160.18 77.3051 160.41 76.9637 160.742H76.9674Z" fill="#313332"/>
<path d="M69.5989 223.73L57.9693 228.309L46.3397 232.889L43.1265 234.154C42.5824 234.368 42.0384 234.582 41.4943 234.796C40.9503 235.01 40.4446 235.203 39.8804 235.279L40.6089 235.183C40.4062 235.205 40.2091 235.208 40.0064 235.19L40.7349 235.287C40.4847 235.254 40.2529 235.188 40.021 235.094L40.6746 235.363C39.8914 235.019 39.2086 234.45 38.5166 233.959L36.2163 232.331L31.6156 229.075C31.0952 228.706 30.1021 228.616 29.5051 228.805C28.8496 229.012 28.1887 229.416 27.8692 230.035C27.5498 230.654 27.2759 231.28 27.0787 231.933C26.8816 232.586 26.7811 233.314 26.699 234.015C26.5584 235.208 26.6935 236.414 26.9053 237.593C27.2978 239.772 28.3257 241.85 29.5215 243.712C30.0875 244.594 30.7027 245.441 31.3289 246.279C31.7452 246.836 32.1651 247.389 32.5978 247.933C32.8844 248.292 33.1856 248.629 33.549 248.914C33.8812 249.177 34.219 249.453 34.6079 249.635C35.1921 249.908 35.6339 250.054 36.2564 250.136C36.6179 250.185 36.963 250.231 37.3263 250.208C37.8247 250.177 38.3268 250.101 38.8179 250.015C39.9827 249.812 41.142 249.573 42.3049 249.351C46.9513 248.463 51.5977 247.575 56.2441 246.688C60.8904 245.801 65.5733 244.906 70.2379 244.014L84.2318 241.34L85.9607 241.01C86.6052 240.886 87.2752 240.317 87.5966 239.78C87.9398 239.206 88.0858 238.362 87.8722 237.718C87.6586 237.074 87.2479 236.446 86.6143 236.12C85.9352 235.768 85.2597 235.706 84.5038 235.85C78.3093 237.035 72.1129 238.218 65.9184 239.402C59.7402 240.583 53.5639 241.764 47.3858 242.943L42.1991 243.935L39.6048 244.431C38.7412 244.597 37.8758 244.79 37.005 244.915L37.7334 244.818C37.361 244.867 36.994 244.884 36.6198 244.836L37.3482 244.933C37.1565 244.9 36.9758 244.852 36.795 244.783L37.4486 245.052C37.2405 244.961 37.0488 244.85 36.8662 244.717L37.4212 245.136C37.0561 244.854 36.753 244.513 36.4701 244.155L36.8991 244.697C35.3162 242.672 33.7425 240.553 32.7219 238.194L32.9976 238.833C32.5722 237.834 32.2655 236.796 32.1121 235.722L32.2107 236.434C32.0975 235.586 32.0829 234.735 32.1906 233.886L32.0921 234.598C32.187 233.909 32.3641 233.24 32.6361 232.598L32.3604 233.237C32.4335 233.069 32.512 232.905 32.5959 232.743L28.8496 233.702L36.0155 238.774C36.5486 239.152 37.0744 239.572 37.6586 239.873C38.1022 240.102 38.5878 240.326 39.0844 240.424C39.9206 240.589 40.5066 240.571 41.3337 240.448C42.0238 240.344 42.6591 240.077 43.3036 239.823L45.3429 239.02L61.7668 232.554L71.0485 228.898C71.4046 228.816 71.7149 228.656 71.9796 228.42C72.2772 228.231 72.5127 227.981 72.6844 227.669C73.0276 227.095 73.1736 226.251 72.96 225.607C72.7464 224.963 72.3356 224.335 71.7021 224.008C71.0686 223.682 70.2598 223.475 69.5916 223.739L69.5989 223.73Z" fill="#313332"/>
<path d="M133.339 247.177C133.051 249.803 133.01 252.452 133.226 255.083C133.452 257.854 133.874 260.667 134.661 263.345C135.044 264.649 135.555 265.973 136.317 267.114C137.127 268.331 138.121 269.305 139.351 270.115C140.322 270.754 141.454 271.216 142.581 271.51C143.707 271.804 144.98 271.96 146.185 271.949C148.804 271.924 151.298 271.171 153.602 269.983C155.906 268.795 157.962 267.143 159.905 265.457C161.847 263.771 163.835 261.946 165.783 260.173C167.779 258.357 169.763 256.528 171.737 254.691C175.73 250.973 179.68 247.212 183.589 243.409C184.068 242.943 184.544 242.478 185.021 242.012C185.497 241.547 185.822 240.806 185.822 240.119C185.822 239.433 185.524 238.68 185.021 238.227C184.517 237.773 183.814 237.411 183.084 237.443C182.353 237.476 181.67 237.715 181.146 238.227C177.595 241.702 174.008 245.141 170.388 248.545C166.766 251.949 163.109 255.317 159.417 258.648C157.526 260.353 155.658 262.101 153.621 263.643L154.176 263.224C152.742 264.303 151.216 265.266 149.547 265.96L150.201 265.691C149.151 266.123 148.067 266.435 146.939 266.586L147.667 266.49C146.641 266.622 145.604 266.631 144.578 266.499L145.306 266.595C144.456 266.481 143.623 266.269 142.829 265.944L143.483 266.214C142.845 265.946 142.245 265.609 141.695 265.195L142.25 265.614C141.777 265.252 141.356 264.838 140.985 264.376L141.414 264.918C140.93 264.301 140.551 263.621 140.24 262.906L140.516 263.545C140.076 262.506 139.784 261.418 139.53 260.325C139.249 259.108 139.024 257.881 138.853 256.646L138.951 257.358C138.491 253.983 138.444 250.563 138.816 247.177C138.885 246.538 138.46 245.721 138.015 245.284C137.54 244.82 136.76 244.47 136.078 244.501C135.395 244.531 134.635 244.759 134.141 245.284L133.711 245.826C133.463 246.244 133.339 246.693 133.337 247.177H133.339Z" fill="#313332"/>
<path d="M135.357 248.666L145.401 254.236C146.643 254.924 148.452 254.571 149.148 253.276C151.171 249.51 153.451 245.878 155.978 242.415C156.691 241.436 157.424 240.472 158.176 239.52L157.747 240.062C158.676 238.886 159.633 237.734 160.619 236.603C160.885 236.36 161.075 236.073 161.185 235.741C161.356 235.422 161.435 235.079 161.42 234.71C161.42 234.054 161.122 233.271 160.619 232.817C160.115 232.364 159.412 232.002 158.681 232.034C157.99 232.065 157.212 232.282 156.744 232.817C154.813 235.037 152.978 237.34 151.247 239.712C149.635 241.923 148.124 244.201 146.714 246.538C145.914 247.863 145.15 249.21 144.417 250.573L148.164 249.613L138.119 244.044C137.496 243.698 136.702 243.587 136.008 243.775C135.373 243.946 134.685 244.426 134.372 245.004C134.037 245.625 133.869 246.377 134.097 247.066C134.325 247.755 134.725 248.317 135.355 248.664L135.357 248.666Z" fill="#313332"/>
<path d="M223.402 197.334C223.26 198.016 223.161 198.724 223.181 199.423C223.201 200.123 223.303 200.824 223.457 201.502C223.718 202.66 224.216 203.775 224.749 204.834C225.618 206.565 226.685 208.22 227.785 209.819C230.044 213.096 232.671 216.162 235.87 218.601C237.504 219.846 239.198 220.986 241.005 221.98C242.634 222.876 244.321 223.668 246.039 224.385C249.694 225.912 253.447 227.157 257.234 228.333C257.696 228.475 258.154 228.629 258.619 228.757C258.955 228.85 259.289 228.9 259.636 228.946C260.274 229.03 260.732 229.014 261.385 228.904C262.762 228.668 263.85 227.664 264.872 226.811C266.432 225.51 267.91 224.115 269.298 222.64C269.639 222.276 269.975 221.907 270.307 221.534C270.788 220.992 271.109 220.38 271.109 219.641C271.109 218.985 270.811 218.202 270.307 217.748C269.804 217.295 269.101 216.933 268.37 216.965C267.64 216.997 266.906 217.215 266.433 217.748C264.504 219.927 262.382 222.009 260.058 223.789L260.613 223.37C260.354 223.564 260.084 223.741 259.782 223.871L260.436 223.602C260.27 223.668 260.104 223.714 259.928 223.743L260.657 223.646C260.436 223.673 260.221 223.668 260 223.643L260.728 223.739C259.874 223.616 259.036 223.282 258.214 223.025C257.393 222.769 256.628 222.528 255.835 222.273C254.238 221.757 252.646 221.222 251.072 220.64C250.185 220.314 249.305 219.971 248.43 219.611L249.084 219.88C246.396 218.771 243.777 217.486 241.341 215.911C240.646 215.461 239.966 214.987 239.306 214.489L239.861 214.908C237.577 213.18 235.572 211.146 233.807 208.914L234.236 209.457C233.246 208.201 232.331 206.893 231.473 205.548C230.615 204.203 229.724 202.772 229.076 201.279L229.352 201.917C229.014 201.125 228.748 200.308 228.622 199.457L228.72 200.169C228.642 199.595 228.633 199.017 228.709 198.44L228.611 199.152C228.631 199.02 228.654 198.89 228.68 198.758C228.828 198.048 228.788 197.336 228.404 196.696C228.072 196.141 227.42 195.611 226.769 195.467C226.067 195.311 225.281 195.344 224.658 195.736C224.081 196.1 223.541 196.655 223.4 197.334H223.402Z" fill="#313332"/>
<path d="M221.888 101.958C224.212 105.008 226.549 108.082 229.262 110.819C231.955 113.536 235.083 115.958 238.644 117.489C242.698 119.232 247.05 120.238 251.375 121.096C253.506 121.519 255.651 121.879 257.803 122.175C259.098 122.354 260.394 122.52 261.694 122.661C262.731 122.773 263.79 122.93 264.834 122.932C265.657 122.932 266.433 122.784 267.184 122.473C267.934 122.163 268.52 121.737 269.117 121.216C269.887 120.545 270.612 119.817 271.339 119.102C272.834 117.628 274.278 116.108 275.671 114.544C276.016 114.155 276.359 113.764 276.699 113.372C277.177 112.819 277.501 112.226 277.501 111.479C277.501 110.822 277.203 110.039 276.699 109.586C276.195 109.133 275.492 108.771 274.762 108.803C274.072 108.833 273.289 109.051 272.825 109.586C271.58 111.029 270.293 112.437 268.964 113.805C268.305 114.483 267.635 115.154 266.955 115.812C266.276 116.47 265.643 117.134 264.912 117.699L265.467 117.28C265.241 117.45 265.004 117.598 264.744 117.714L265.398 117.444C265.152 117.544 264.9 117.607 264.637 117.644L265.365 117.548C264.381 117.657 263.351 117.478 262.373 117.378C261.332 117.271 260.293 117.15 259.256 117.014L259.985 117.111C254.941 116.447 249.905 115.478 245.018 114.08C243.702 113.703 242.402 113.275 241.137 112.758L241.79 113.027C239.8 112.205 237.949 111.129 236.238 109.841L236.793 110.26C234.316 108.385 232.165 106.138 230.181 103.777C229.606 103.094 229.045 102.4 228.492 101.699L228.921 102.241C228.141 101.253 227.376 100.254 226.615 99.2532C226.443 98.941 226.208 98.6912 225.91 98.5021C225.646 98.2649 225.335 98.1061 224.979 98.024C224.324 97.8474 223.451 97.9277 222.869 98.2934C222.286 98.6591 221.77 99.2104 221.611 99.8918C221.452 100.573 221.456 101.389 221.887 101.954L221.888 101.958Z" fill="#313332"/>
<path d="M4.87651 39.433C6.13076 40.9565 7.50368 42.3873 9.00804 43.6771C10.6475 45.0829 12.4221 46.3709 14.3317 47.4074C16.2414 48.4439 18.3464 49.302 20.4916 49.8122C22.6368 50.3224 25.0175 50.5811 27.2832 50.4223C28.6232 50.3278 29.9742 50.1369 31.2723 49.7961C32.5703 49.4554 33.8739 48.9452 35.0843 48.3368L31.338 47.3771C32.5302 49.1236 33.8319 50.8023 35.2158 52.4079C36.4444 53.8315 37.7425 55.2355 39.1647 56.4789C39.9808 57.1907 40.8717 57.8918 41.8795 58.3253C42.4674 58.5786 43.0461 58.823 43.6796 58.9336C44.3131 59.0442 44.9704 59.1334 45.6185 59.1102C46.6938 59.071 47.7838 58.8712 48.7806 58.4734C49.3867 58.2307 49.9874 57.9846 50.5497 57.6545C51.112 57.3245 51.6268 56.9284 52.138 56.5306C53.9053 55.1552 55.2289 53.2945 56.5343 51.5159C56.7351 51.209 56.8428 50.8772 56.8593 50.5204C56.9414 50.1654 56.925 49.8086 56.81 49.4536C56.6347 48.8328 56.1436 48.1602 55.5521 47.8552C54.9167 47.5269 54.1463 47.3628 53.4416 47.5858L52.788 47.8552C52.3772 48.0924 52.0486 48.4135 51.8058 48.8149C51.3786 49.3965 50.9513 49.9763 50.5041 50.5418L50.9331 49.9995C50.1061 51.0396 49.2078 52.0297 48.1398 52.8431L48.6948 52.4239C48.0923 52.8753 47.4442 53.257 46.745 53.5514L47.3986 53.282C46.7778 53.5371 46.1315 53.7173 45.4633 53.8065L46.1918 53.7102C45.6861 53.7708 45.1785 53.7762 44.6728 53.7173L45.4013 53.8136C44.9412 53.753 44.4957 53.637 44.0649 53.464L44.7185 53.7334C44.158 53.4997 43.6431 53.1857 43.1593 52.8253L43.7143 53.2445C42.5787 52.3829 41.5783 51.3321 40.6052 50.301C39.5883 49.2253 38.6225 48.1049 37.706 46.9471L38.135 47.4895C37.4139 46.5743 36.7256 45.6377 36.0684 44.6761C35.6886 44.1213 35.1245 43.6004 34.4325 43.447C33.6913 43.2828 33.003 43.3756 32.322 43.7163C31.966 43.8947 31.6046 44.0607 31.2358 44.2141L31.8894 43.9447C30.5384 44.4977 29.1198 44.8634 27.6702 45.0561L28.3986 44.9598C26.7263 45.1756 25.0321 45.1632 23.3598 44.9491L24.0882 45.0454C22.2351 44.801 20.4295 44.3086 18.7061 43.5986L19.3597 43.868C17.3587 43.0349 15.4929 41.9324 13.7713 40.6372L14.3263 41.0564C12.2505 39.4848 10.3974 37.6491 8.75427 35.6528C8.34166 35.1533 7.44525 34.8696 6.81722 34.8696C6.14537 34.8696 5.34389 35.1604 4.88016 35.6528C4.41644 36.1452 4.04583 36.832 4.07869 37.5456L4.17728 38.2574C4.3069 38.7105 4.54241 39.1048 4.88199 39.4384L4.87651 39.433Z" fill="#313332"/>
<path d="M43.2908 52.9379C46.2557 50.7775 49.0198 48.3887 51.4899 45.6967C51.9756 45.1687 52.2914 44.53 52.2914 43.8039C52.2914 43.1474 51.9938 42.3643 51.4899 41.9111C50.9861 41.458 50.2832 41.0958 49.5529 41.128C48.8226 41.1601 48.1015 41.3831 47.6158 41.9111C45.5108 44.2053 43.194 46.3104 40.6983 48.1961L41.2533 47.7768C41.0123 47.9588 40.7695 48.1372 40.5267 48.3156C40.2072 48.4833 39.9516 48.7134 39.7581 49.0042C39.5153 49.2629 39.3528 49.5662 39.2688 49.914C39.0881 50.5545 39.1702 51.4072 39.5445 51.9763C39.9187 52.5454 40.4829 53.0502 41.1803 53.2055C41.8777 53.3607 42.712 53.3571 43.2908 52.9361V52.9379Z" fill="#313332"/>
<path d="M40.3148 44.5031C41.5289 43.8234 42.6645 43.0046 43.7234 42.1126C44.6271 41.3509 45.4505 40.5017 46.1844 39.5829C46.451 39.3403 46.6408 39.0531 46.7504 38.7213C46.922 38.402 47.0005 38.0594 46.9859 37.6901C46.9859 37.0336 46.6883 36.2505 46.1844 35.7974C45.6805 35.3442 44.9776 34.9821 44.2474 35.0142L43.5189 35.1105C43.0552 35.2372 42.6517 35.4673 42.3103 35.7991C41.3774 36.9659 40.3002 38.0148 39.1044 38.9247L39.6594 38.5054C38.9894 39.0103 38.2847 39.4706 37.5489 39.8826C36.9556 40.2163 36.4718 40.8389 36.291 41.4811C36.1103 42.1233 36.1924 42.9743 36.5667 43.5434C36.941 44.1124 37.5051 44.6173 38.2025 44.7725C38.8999 44.9277 39.6594 44.8689 40.313 44.5031H40.3148Z" fill="#313332"/>
<path d="M39.4969 40.3804C36.9483 37.9364 34.3978 35.4905 31.8345 33.0608C30.5474 31.8405 29.2567 30.6239 27.9604 29.4125C27.3178 28.8113 26.6733 28.2119 26.0288 27.6143C25.4702 27.0969 24.9115 26.5796 24.3054 26.1158C22.9763 25.1025 21.3934 24.2943 19.6517 24.437C18.8338 24.5048 17.9976 24.7082 17.3203 25.1827C16.5481 25.7251 15.9839 26.4494 15.7137 27.3485C15.2281 28.9719 15.7867 30.7452 16.9479 31.9583C18.109 33.1714 19.7321 33.7601 21.3551 33.9742C24.4989 34.3863 27.588 33.298 30.164 31.5836C31.4822 30.7059 32.7072 29.6873 33.83 28.5812C34.9437 27.4841 36.0245 26.2924 36.7858 24.9294C37.6055 23.463 38.0948 21.6969 37.5526 20.0538C37.045 18.5125 35.8309 17.3886 34.4051 16.6286C33.7223 16.2647 32.9957 15.9632 32.2672 15.6956C31.4566 15.3959 30.6113 15.2639 29.7514 15.4084C29.2585 15.4904 28.7929 15.758 28.4278 16.0863C28.0134 16.4609 27.7815 16.9658 27.5825 17.4688C27.274 18.2484 27.1754 19.1422 27.2502 19.9718C27.4036 21.6933 28.1192 23.2703 29.1727 24.644C30.2261 26.0194 31.4639 27.245 32.6616 28.4991C35.1135 31.0627 37.5653 33.6263 40.0172 36.1916L41.8174 38.0737C42.3067 38.5857 43.2651 38.5946 43.7544 38.0737C44.2711 37.5243 44.2766 36.7286 43.7544 36.1809C41.8502 34.19 39.9479 32.1991 38.0437 30.2082C36.1395 28.2173 34.3193 26.3709 32.5082 24.4085C32.2745 24.1552 32.0445 23.8983 31.8217 23.636C31.7706 23.5754 31.7195 23.5147 31.6684 23.4541C31.641 23.4202 31.4256 23.1526 31.5771 23.3435C31.7286 23.5343 31.5607 23.3203 31.5388 23.2917C31.4749 23.2079 31.411 23.124 31.3489 23.0384C30.9491 22.4889 30.5967 21.9074 30.3229 21.2883L30.4616 21.6077C30.2297 21.0635 30.0636 20.4998 29.976 19.9165L30.0253 20.2715C29.9614 19.7951 29.9522 19.317 30.0125 18.8407L29.9632 19.1957C30.0198 18.7961 30.1257 18.4108 30.2845 18.0379L30.1458 18.3573C30.1878 18.2645 30.2297 18.1735 30.2809 18.0861C30.3064 18.0415 30.332 17.9987 30.3612 17.9577C30.2206 18.1253 30.1969 18.1575 30.2882 18.0504C30.321 18.0165 30.3539 17.9844 30.3886 17.9541C30.1914 18.095 30.1494 18.1271 30.2626 18.0522C30.3356 18.013 30.405 17.9737 30.4799 17.9416L30.1531 18.0772C30.29 18.0254 30.4269 17.9933 30.5711 17.9737L30.2078 18.0219C30.4032 18.0022 30.5949 18.0076 30.7902 18.0308L30.4269 17.9826C31.0349 18.0647 31.6045 18.2913 32.1686 18.5232L31.8418 18.3876C32.5666 18.6891 33.2805 19.0298 33.9176 19.4865C34.1458 19.6506 33.6876 19.3028 33.9049 19.4776C33.9815 19.54 34.0582 19.6043 34.1312 19.6703C34.2682 19.7934 34.3996 19.9254 34.5201 20.0645C34.5493 20.0966 34.5749 20.1305 34.6041 20.1626C34.7081 20.2822 34.4215 19.9147 34.5092 20.0449C34.5639 20.1252 34.6223 20.2037 34.6753 20.2857C34.7812 20.4552 34.8725 20.6318 34.951 20.8138L34.8122 20.4945C34.9291 20.7799 35.0094 21.0725 35.0569 21.3757L35.0076 21.0207C35.0569 21.3882 35.0514 21.7539 35.0039 22.1197L35.0532 21.7646C34.9802 22.2606 34.8305 22.7369 34.6333 23.199L34.7721 22.8796C34.4398 23.6325 33.9888 24.3157 33.4904 24.9722C33.3864 25.1078 33.6693 24.7492 33.5616 24.8812C33.5288 24.9205 33.4977 24.9597 33.4649 24.999C33.401 25.0775 33.3352 25.1542 33.2695 25.2309C33.1326 25.3915 32.9902 25.5502 32.846 25.7072C32.5794 25.9962 32.3055 26.2799 32.028 26.5582C31.453 27.1326 30.8523 27.6821 30.2243 28.2012C30.0691 28.3297 29.9121 28.4545 29.7532 28.5794C29.6839 28.6329 29.6127 28.6865 29.5451 28.74C29.8883 28.4688 29.5469 28.7364 29.4593 28.8006C29.1362 29.0361 28.8057 29.2627 28.468 29.4768C27.7012 29.9656 26.896 30.3937 26.0544 30.7416L26.3812 30.606C25.4939 30.9664 24.5683 31.2322 23.6153 31.3624L23.9786 31.3143C23.1662 31.4195 22.3483 31.4249 21.5377 31.3214L21.901 31.3696C21.2565 31.2821 20.6285 31.1269 20.026 30.8807L20.3528 31.0163C20.0899 30.9057 19.8361 30.7808 19.5915 30.6346C19.4801 30.5686 19.3724 30.4972 19.2665 30.424C19.0273 30.2564 19.4272 30.5561 19.3194 30.4651C19.2665 30.4205 19.2117 30.3777 19.1588 30.3313C19.062 30.2474 18.9707 30.1582 18.8813 30.0673C18.8338 30.0173 18.7863 29.9656 18.7407 29.912C18.6695 29.83 18.5709 29.6445 18.779 29.9656C18.6348 29.7426 18.4942 29.5321 18.3847 29.2894L18.5234 29.6088C18.3938 29.3073 18.3062 28.9969 18.2587 28.674L18.308 29.029C18.2697 28.7311 18.2679 28.4331 18.308 28.1352L18.2587 28.4902C18.2971 28.2387 18.3628 27.9978 18.4595 27.7624L18.3208 28.0817C18.3902 27.9265 18.476 27.7856 18.5654 27.6393C18.6896 27.4341 18.3427 27.8855 18.507 27.7071C18.5654 27.6446 18.622 27.5804 18.6841 27.5215C18.7316 27.4769 18.8119 27.3752 18.8758 27.3556L18.6987 27.4894C18.7334 27.4644 18.7681 27.4412 18.8028 27.4198C18.9452 27.3289 19.0931 27.2539 19.2482 27.1861L18.9214 27.3217C19.2209 27.2004 19.5294 27.1219 19.8489 27.0791L19.4856 27.1273C19.8361 27.0862 20.1848 27.0898 20.5335 27.1308L20.1702 27.0827C20.5737 27.1362 20.9607 27.2414 21.3387 27.3931L21.0119 27.2575C21.304 27.3788 21.5869 27.5215 21.8571 27.6821C21.9977 27.7659 22.1365 27.8551 22.2716 27.9479C22.3337 27.9907 22.3957 28.0353 22.4578 28.0781C22.4888 28.0995 22.518 28.1227 22.5491 28.1459C22.6878 28.244 22.3209 27.9675 22.4541 28.0746C22.9617 28.4813 23.4473 28.9095 23.9238 29.3519C25.0393 30.3848 26.1512 31.4231 27.2594 32.4631C29.4648 34.5361 31.6556 36.6216 33.8428 38.7124C35.0806 39.8969 36.3184 41.0833 37.5562 42.2696C38.0674 42.7602 38.9894 42.8048 39.4933 42.2696C39.9972 41.7344 40.0392 40.9013 39.4933 40.3768L39.4969 40.3804Z" fill="#313332"/>
<path d="M82.0117 168.828L114.244 170.815L120.806 165.831" stroke="#313332" stroke-width="3" stroke-linecap="round" stroke-linejoin="round"/>
<path d="M117.098 177.773L127.354 203.972" stroke="#313332" stroke-width="3" stroke-linecap="round" stroke-linejoin="round"/>
<path d="M244.129 105.834C245.089 106.899 246.112 107.886 247.282 108.732C248.452 109.577 249.743 110.196 251.136 110.41C251.881 110.524 252.615 110.571 253.365 110.476C254.221 110.369 254.995 110.166 255.79 109.832C257.17 109.254 258.324 108.252 259.149 107.031C260.06 105.684 260.533 103.997 260.436 102.384C260.394 101.687 259.837 101.012 259.067 101.046C258.36 101.076 257.652 101.637 257.697 102.384C257.721 102.784 257.708 103.182 257.657 103.578L257.707 103.223C257.626 103.806 257.469 104.371 257.239 104.916L257.378 104.596C257.217 104.964 257.029 105.317 256.805 105.652C256.752 105.731 256.697 105.808 256.642 105.884C256.615 105.922 256.584 105.959 256.556 105.998C256.777 105.683 256.677 105.849 256.615 105.922C256.485 106.077 256.35 106.225 256.206 106.366C256.071 106.5 255.93 106.626 255.782 106.748C255.737 106.785 255.689 106.821 255.644 106.858C255.516 106.962 255.886 106.685 255.749 106.778C255.671 106.832 255.594 106.887 255.514 106.94C255.165 107.169 254.793 107.361 254.406 107.524L254.733 107.388C254.176 107.615 253.597 107.768 253 107.848L253.363 107.8C252.79 107.872 252.215 107.873 251.64 107.8L252.003 107.848C251.401 107.766 250.816 107.602 250.256 107.376L250.583 107.511C250.114 107.317 249.664 107.08 249.235 106.81C249.029 106.68 248.828 106.543 248.631 106.4C248.589 106.37 248.407 106.232 248.593 106.373C248.779 106.514 248.598 106.377 248.556 106.343C248.45 106.259 248.344 106.175 248.242 106.088C247.457 105.433 246.745 104.698 246.062 103.942C245.588 103.415 244.605 103.431 244.125 103.942C243.598 104.503 243.618 105.272 244.125 105.834H244.129Z" fill="#313332"/>
<path d="M247.855 99.2678C247.707 99.2767 247.561 99.2713 247.413 99.2517L247.777 99.2999C247.587 99.2731 247.404 99.225 247.227 99.1536L247.554 99.2892C247.421 99.2321 247.296 99.1625 247.181 99.0769L247.459 99.2856C247.371 99.2178 247.295 99.1429 247.223 99.0591L247.437 99.3302C247.369 99.2428 247.313 99.15 247.271 99.0501L247.41 99.3695C247.38 99.2981 247.36 99.2267 247.349 99.15L247.399 99.505C247.391 99.4319 247.391 99.3588 247.399 99.2856L247.349 99.6406C247.362 99.5479 247.388 99.4604 247.424 99.373L247.285 99.6924C247.327 99.5978 247.38 99.5104 247.444 99.4283L247.231 99.6995C247.289 99.6281 247.355 99.5639 247.43 99.5068L247.152 99.7156C247.218 99.6674 247.287 99.6281 247.362 99.5978L247.035 99.7334C247.092 99.712 247.15 99.6959 247.211 99.687L246.847 99.7352C246.908 99.728 246.968 99.728 247.028 99.7352L246.665 99.687C246.718 99.6959 246.769 99.7102 246.82 99.728L246.493 99.5925C246.552 99.6174 246.606 99.6495 246.659 99.687L246.382 99.4783C246.453 99.5336 246.515 99.596 246.572 99.6656L246.358 99.3944C246.566 99.6638 246.694 99.9921 246.829 100.301L246.69 99.9814C246.82 100.281 246.939 100.586 247.046 100.895C247.161 101.227 247.36 101.514 247.676 101.694C247.97 101.862 248.403 101.933 248.731 101.83C249.06 101.726 249.383 101.524 249.549 101.214C249.715 100.904 249.807 100.524 249.688 100.183C249.586 99.8886 249.473 99.596 249.349 99.3088C249.197 98.952 249.051 98.5792 248.856 98.242C248.636 97.8638 248.306 97.4909 247.901 97.2929C247.428 97.0628 246.873 96.9682 246.358 97.1341C245.966 97.2608 245.586 97.4731 245.314 97.7853C245.042 98.0975 244.797 98.4632 244.719 98.8753C244.68 99.0715 244.642 99.2767 244.656 99.4783C244.686 99.8672 244.753 100.076 244.918 100.427C245.051 100.709 245.264 100.971 245.509 101.169C245.88 101.469 246.267 101.687 246.736 101.819C246.966 101.883 247.207 101.908 247.442 101.935C247.579 101.951 247.715 101.954 247.853 101.946C248.217 101.924 248.558 101.81 248.821 101.553C249.058 101.321 249.237 100.939 249.223 100.608C249.208 100.276 249.091 99.9029 248.821 99.662C248.551 99.4212 248.215 99.2499 247.853 99.2696L247.855 99.2678Z" fill="#313332"/>
<path d="M256.244 98.5807C256.038 98.4808 255.837 98.3702 255.653 98.2329L255.93 98.4416C255.811 98.3506 255.702 98.2507 255.609 98.1347L255.822 98.4059C255.751 98.3149 255.693 98.2186 255.645 98.1133L255.784 98.4327C255.755 98.3631 255.735 98.2917 255.722 98.2186L255.771 98.5736C255.762 98.4951 255.762 98.4184 255.771 98.3399L255.722 98.6949C255.735 98.6075 255.758 98.5236 255.793 98.4416L255.654 98.7609C255.687 98.6895 255.726 98.6235 255.773 98.5611L255.56 98.8323C255.601 98.7787 255.649 98.7324 255.702 98.6896L255.424 98.8983C255.47 98.8644 255.519 98.8358 255.572 98.8126L255.245 98.9482C255.291 98.9304 255.339 98.9179 255.386 98.9108L255.023 98.9589C255.074 98.9536 255.123 98.9536 255.176 98.9589L254.813 98.9108C254.871 98.9197 254.926 98.934 254.979 98.9571L254.652 98.8216C254.696 98.8412 254.734 98.8644 254.774 98.8929L254.497 98.6842C254.546 98.7234 254.59 98.7663 254.63 98.8162L254.417 98.545C254.46 98.6039 254.497 98.6681 254.528 98.7342L254.389 98.4148C254.442 98.5361 254.473 98.6628 254.491 98.793L254.442 98.438C254.464 98.6075 254.464 98.777 254.442 98.9447L254.491 98.5896C254.49 98.6075 254.486 98.6235 254.484 98.6396C254.428 98.818 254.418 98.9946 254.46 99.173C254.47 99.3514 254.523 99.5173 254.623 99.6707C254.789 99.949 255.114 100.213 255.441 100.286C255.791 100.365 256.184 100.347 256.496 100.151L256.774 99.9419C256.943 99.7742 257.06 99.578 257.126 99.3514C257.17 99.0767 257.217 98.7966 257.192 98.5183C257.166 98.24 257.139 97.9688 257.036 97.7155C256.9 97.3765 256.744 97.0519 256.454 96.8075C256.191 96.5845 256.029 96.5024 255.709 96.3793C255.527 96.3079 255.32 96.2901 255.127 96.2812C255.034 96.2776 254.935 96.2972 254.844 96.3097C254.753 96.3222 254.656 96.3276 254.566 96.3543C254.387 96.4114 254.199 96.481 254.046 96.5916C253.743 96.8092 253.471 97.0501 253.305 97.3908C253.139 97.7316 253.011 98.1044 253.029 98.4987C253.047 98.8929 253.155 99.2854 253.371 99.6315C253.719 100.192 254.269 100.607 254.864 100.893C255.021 100.991 255.191 101.043 255.373 101.052C255.556 101.091 255.737 101.084 255.919 101.028C256.237 100.943 256.582 100.704 256.737 100.413C256.905 100.102 256.989 99.726 256.876 99.3817C256.77 99.0642 256.564 98.7341 256.246 98.5825L256.244 98.5807Z" fill="#313332"/>
<path d="M251.041 194.498C247.901 195.038 244.866 195.969 241.944 197.209C241.557 197.373 241.211 197.953 241.266 198.365C241.385 199.268 241.558 200.148 241.871 201.007C242.04 201.473 242.236 201.931 242.455 202.376C242.674 202.82 242.971 203.278 243.437 203.544C243.746 203.721 244.091 203.798 244.447 203.792C244.863 203.785 245.213 203.617 245.586 203.455C245.998 203.273 246.411 203.091 246.824 202.907L249.301 201.814L247.428 201.334C249.038 204.306 250.937 207.109 253.069 209.747C253.659 210.477 254.267 211.189 254.893 211.888L254.68 210.266L251.846 213.929C251.572 214.284 251.603 214.921 251.846 215.279C252.56 216.335 253.506 217.309 254.634 217.95C255.012 218.164 255.472 218.337 255.914 218.33C256.52 218.319 256.998 218.091 257.451 217.718C257.904 217.345 258.278 216.901 258.676 216.489C260.387 214.714 262.03 212.873 263.596 210.974C264.529 209.845 265.438 208.695 266.322 207.528C266.512 207.276 266.556 206.786 266.461 206.497C266.355 206.179 266.149 205.851 265.831 205.697C265.155 205.373 264.567 204.909 263.919 204.538C263.173 204.112 262.322 203.812 261.447 203.817C260.527 203.821 259.68 204.179 259.045 204.829C258.855 205.023 258.687 205.235 258.503 205.435C258.42 205.524 258.333 205.605 258.245 205.689C258.05 205.872 258.523 205.515 258.333 205.623C258.273 205.656 258.216 205.69 258.154 205.719L258.481 205.583C258.4 205.615 258.324 205.637 258.238 205.651L258.601 205.603C258.506 205.614 258.417 205.612 258.322 205.599L258.685 205.648C258.619 205.635 258.561 205.617 258.497 205.596L258.824 205.731C258.753 205.701 258.691 205.664 258.623 205.628C258.535 205.571 258.583 205.608 258.767 205.74C258.733 205.712 258.7 205.683 258.667 205.653C258.566 205.56 258.479 205.457 258.391 205.353C258.229 205.16 258.594 205.615 258.426 205.396C258.362 205.314 258.298 205.232 258.234 205.15L257.88 204.693L256.487 202.9L253.674 199.277L252.856 201.243C254.424 200.72 255.839 199.916 257.079 198.842C257.299 198.649 257.416 198.349 257.455 198.073C257.498 197.755 257.427 197.513 257.292 197.22L256.284 195.026C256.153 194.739 255.762 194.491 255.466 194.41C255.138 194.323 254.701 194.362 254.411 194.546C254.121 194.73 253.862 195.004 253.781 195.345C253.696 195.716 253.761 196.03 253.92 196.376L254.928 198.57L255.141 196.949C255.034 197.042 254.926 197.133 254.815 197.222C254.765 197.261 254.707 197.297 254.663 197.341C254.915 197.092 254.784 197.25 254.692 197.318C254.473 197.477 254.247 197.629 254.015 197.769C253.54 198.06 253.044 198.312 252.529 198.526L252.856 198.39C252.615 198.488 252.372 198.579 252.125 198.661C251.711 198.799 251.41 199.04 251.238 199.436C251.085 199.791 251.052 200.297 251.308 200.626L254.857 205.198L255.731 206.324C256.038 206.718 256.323 207.146 256.68 207.497C257.495 208.3 258.791 208.577 259.777 207.89C260.147 207.633 260.43 207.337 260.723 207.003C260.838 206.873 260.953 206.741 261.08 206.622C261.108 206.595 261.137 206.572 261.164 206.545C261.336 206.386 261.046 206.62 261.04 206.634C261.06 206.575 261.285 206.491 261.338 206.468L261.011 206.604C261.181 206.534 261.352 206.49 261.533 206.465L261.17 206.513C261.378 206.49 261.584 206.493 261.794 206.518L261.431 206.47C261.738 206.513 262.033 206.597 262.318 206.713L261.991 206.577C262.87 206.953 263.589 207.597 264.447 208.011L263.956 206.181C263.693 206.529 263.428 206.873 263.16 207.217C263.03 207.383 262.891 207.544 262.769 207.715C262.999 207.392 262.775 207.706 262.722 207.774C262.652 207.861 262.581 207.951 262.512 208.038C261.957 208.728 261.393 209.413 260.819 210.088C259.689 211.419 258.524 212.719 257.323 213.988C256.984 214.346 256.642 214.701 256.297 215.054C256.12 215.236 255.943 215.417 255.764 215.597C255.7 215.661 255.633 215.722 255.567 215.784C255.408 215.939 255.686 215.686 255.684 215.698C255.676 215.732 255.532 215.78 255.507 215.791L255.833 215.656C255.791 215.672 255.749 215.684 255.706 215.693L256.069 215.645C255.989 215.656 255.919 215.657 255.839 215.652L256.202 215.7C256.098 215.682 256.001 215.656 255.903 215.616L256.23 215.752C255.968 215.634 255.735 215.47 255.503 215.304C255.313 215.169 255.695 215.458 255.567 215.352C255.518 215.311 255.468 215.274 255.419 215.233C255.311 215.144 255.207 215.053 255.105 214.956C254.91 214.776 254.725 214.583 254.55 214.384C254.508 214.335 254.47 214.287 254.428 214.239C254.32 214.114 254.616 214.489 254.477 214.302C254.386 214.18 254.298 214.057 254.212 213.932V215.283L257.046 211.62C257.223 211.39 257.245 211.035 257.208 210.767C257.166 210.462 257.04 210.232 256.832 209.999C256.288 209.392 255.755 208.773 255.238 208.143C255.118 207.997 254.997 207.849 254.879 207.701C254.824 207.633 254.586 207.33 254.838 207.653C254.771 207.567 254.703 207.481 254.638 207.396C254.387 207.075 254.141 206.75 253.898 206.424C252.927 205.118 252.016 203.767 251.169 202.379C250.689 201.593 250.23 200.795 249.792 199.985C249.642 199.709 249.286 199.439 248.974 199.37C248.595 199.286 248.271 199.348 247.919 199.505C246.63 200.074 245.343 200.652 244.05 201.214L244.377 201.079C244.28 201.118 244.187 201.148 244.083 201.166L244.447 201.118C244.395 201.125 244.346 201.123 244.295 201.114L244.658 201.163C244.618 201.155 244.58 201.145 244.543 201.127L244.87 201.263C244.713 201.182 244.994 201.355 245 201.375C245 201.373 244.793 201.138 244.985 201.375C245.142 201.569 244.961 201.309 244.93 201.246C244.817 201.031 244.713 200.808 244.616 200.585L244.755 200.904C244.368 200.003 244.105 199.061 243.968 198.092L244.018 198.447L244.007 198.367L243.329 199.523C243.461 199.468 243.592 199.413 243.724 199.357L243.397 199.493C246.086 198.385 248.898 197.575 251.773 197.081C252.093 197.026 252.434 196.729 252.591 196.465C252.763 196.178 252.836 195.755 252.73 195.434C252.624 195.113 252.418 194.797 252.1 194.635C251.757 194.458 251.426 194.435 251.045 194.499L251.041 194.498Z" fill="#313332"/>
</svg>
