<svg width="3024" height="1964" viewBox="0 0 3024 1964" fill="none" xmlns="http://www.w3.org/2000/svg">
<g clip-path="url(#clip0_1105_741)">
<rect width="3024" height="1964" fill="white"/>
<rect width="3024" height="1463" fill="url(#paint0_linear_1105_741)"/>
<path d="M219.917 488.938C235.252 456.217 262.868 458.703 294.626 450.378C351.983 369.482 469.677 428.901 466.429 497.004C505.205 498.853 526.519 535.023 531.665 553.922C534.949 549.528 552.429 547.276 560.758 546.7C596.07 515.423 644.318 553.554 664.028 576.529C706.023 583.082 707.574 624.06 703.1 643.729C731.708 655.055 740.265 684.294 740.968 697.497C779.334 700.187 810.613 714.603 821.457 721.474C850.826 701.352 878.978 728.471 889.383 744.545C944.596 749.884 949.027 795.149 944.341 817.115C956.215 815.713 967.792 823.972 972.096 828.277C982.216 832.695 977.79 867.904 974.313 884.957C1016.13 895.314 1020.36 925.074 1017.26 938.659C1045.47 955.747 1056.63 985.632 1058.68 998.438C1119.71 997.905 1118.93 1033.08 1110.92 1050.74C1140.09 1047.7 1139.26 1053.93 1135.19 1057.43C1123.54 1056.87 1059.55 1057.51 1056.05 1053.66C1053.24 1050.57 1059.15 1048.88 1062.45 1048.43C1057.54 1048.19 1048.72 1044.08 1044.92 1042.06C1009.89 1044.2 958.075 1036.33 936.548 1032.12L866.911 1028.8L737.915 1022.65C620.022 1011.25 486.612 1017.28 434.643 1021.72C467.038 1023.26 474.367 1031.2 473.982 1034.97C400.812 1039.12 248.605 1046.64 225.139 1043.55C201.673 1040.46 191.469 1027.49 189.3 1021.39C167.014 1014.18 75.1618 1018.51 32.0214 1021.58C-0.00530003 1020.05 -34.5594 1013.28 -47.8331 1010.09L-236.803 1001.08C-250.056 1000.44 -275.802 1004.34 -287.019 1006.37C-293.39 1005.65 -308.17 1004.38 -316.315 1004.97C-324.461 1005.57 -333.986 999.413 -337.73 996.263C-336.946 979.82 -322.522 982.537 -315.408 985.951L-257.399 978.417C-238.658 951.639 -214.835 934.788 -205.267 929.71C-149.596 899.65 -100.265 921.086 -82.5589 935.561C-49.8834 869.323 20.637 870.226 13.5089 864.967C7.80634 860.759 2.56333 853.786 0.654672 850.825C-53.2393 846.205 -161.448 835.47 -163.13 829.486C-164.813 823.503 -144.003 823.839 -133.388 824.755C-134.743 811.9 -53.5102 817.495 -12.7247 821.9C-13.9376 785.438 12.3659 768.572 25.6693 764.697C47.0842 687.007 101.599 668.289 126.18 668.641C125.481 631.712 150.842 615.703 168.84 599.343C183.239 586.255 216.444 581.115 231.247 580.181C199.497 532.492 200.715 529.896 219.236 490.391L219.917 488.938Z" fill="#1C4052"/>
<path d="M466.603 499.78C467.212 487.019 460.519 468.334 456.76 461.185C445.211 497.038 407.333 504.743 390.173 503.515C398.728 509.826 403.164 514.793 404.313 516.488C434.683 517.936 454.079 504.513 466.603 499.78Z" fill="#28717F"/>
<path d="M337.441 455.188C324.47 448.666 304.033 448.676 295.436 449.496L292.901 451.066C314.924 453.469 337.619 461.141 344.986 464.618C344.822 460.306 339.888 456.535 337.441 455.188Z" fill="#28717F"/>
<path opacity="0.6" fill-rule="evenodd" clip-rule="evenodd" d="M531.664 553.92C530.865 551.32 528.924 545.611 527.545 543.577L520.197 549.376C506.741 538.178 469.65 521.631 428.933 545.024C427.129 547.385 422.715 552.901 419.489 556.084C419.269 556.301 418.975 556.578 418.616 556.915C412.408 562.761 386.732 586.936 385.54 639.346C376.349 639.727 354.971 641.424 342.987 645.157C341.497 643.087 336.08 638.463 326.334 636.522C317.305 623.844 286.568 604.494 235.859 628.518C185.15 652.542 162.888 681.151 158.096 692.453C148.179 694.081 126.743 703.871 120.331 730.008C94.6251 740.363 47.3084 770.616 63.6903 808.786C60.2469 820.818 61.9827 852.334 96.4734 882.142C95.0416 885.303 92.1604 893.282 92.0898 899.92C83.5591 892.903 60.4002 881.652 36.0097 892.788C25.6619 899.161 6.21932 915.288 11.2319 928.81C-9.28281 930.24 -51.4887 940.362 -56.1945 969.408C-57.7526 968.77 -62.2348 967.768 -67.6983 968.86C-78.213 958.315 -109.933 938.313 -152.694 942.669C-161.814 938.34 -190.458 938.316 -232.076 972.859C-236.016 975.951 -237.774 981.442 -213.291 978.674L-196.112 979.493C-193.535 979.616 -288.75 991.064 -336.679 996.772C-335.472 999.392 -329.56 1004.8 -315.571 1005.47L-286.582 1006.85C-275.825 1004.8 -251.52 1000.83 -240.354 1001.37L-121.481 1007.03L-48.1628 1010.53C-29.3405 1014.5 12.9232 1022.3 31.3995 1021.7C40.739 1021.4 52.8399 1020.66 65.4867 1019.88C84.1143 1018.73 103.926 1017.5 117.843 1017.52L119.756 1017.53L119.758 1017.53L119.758 1017.53C143.229 1017.56 179.418 1017.62 187.94 1020.87C191.881 1029.56 207.997 1046.45 240.93 1044.46L336.993 1041.66L474.74 1035.16C474.315 1031.19 465.916 1022.9 435.73 1021.46L546.489 1016.75C568.392 1016.31 617.348 1015.73 637.951 1016.96L643.434 1017.29L643.444 1017.29L643.463 1017.29L643.476 1017.29C672.277 1019 732.154 1022.57 739.871 1023.51C746.474 1024.32 873.92 1030.11 936.817 1032.9C953.507 1036.47 998.46 1043.31 1044.76 1042.2C1047.99 1044.25 1056.05 1048.43 1062.43 1048.73C1056.74 1049.95 1048.7 1053 1062.11 1055.48C1075.52 1057.97 1116.68 1058.85 1135.58 1058.99C1140.08 1054.84 1141.49 1047.15 1111.13 1049.52C1119.17 1032.48 1119.93 998.314 1058.7 997.977C1055.59 983.685 1042.88 951.84 1016.94 938.796C1020.46 925.282 1016.91 895.688 974.596 885.43C978.286 869.31 983.017 835.222 972.424 827.83C967.856 823.666 955.849 815.633 944.355 816.806C950.538 801.062 944.383 767.859 870.303 761.006C861.304 757.348 837.939 751.714 816.465 758.438C808.205 743.593 777.695 715.204 721.734 720.407C651.782 726.91 586.147 639.688 643.332 610.746C651.442 608.314 673.514 610.986 696.92 641.127C698.529 639.615 700.048 634.204 693.247 624.656C684.746 612.721 654.188 579.748 624.759 597.254C611.873 587.006 578.403 573.183 547.613 599.878C541.988 607.143 531.76 626.056 535.843 643.592L535.134 658.471C520.883 665.017 492.158 684.093 491.262 708.033C466.178 708.579 411.795 719.371 394.94 758.169C378.716 755.602 342.327 764.73 326.57 821.783C341.341 819.361 375.059 816.593 391.758 824.891C412.633 835.264 433.507 848.866 442.152 886.789C441.668 890.507 433.716 886.387 423.323 872.209C419.12 866.474 392.121 863.711 378.973 873.784C378.311 874.291 377.638 874.81 376.954 875.337L376.945 875.344C360.662 887.894 338.043 905.33 296.757 895.69C291.532 904.255 275.549 922.628 253.42 927.599C226.622 933.619 226.355 933.978 222.632 938.989C222.512 939.15 222.388 939.317 222.26 939.488C221.87 939.469 221.328 939.378 220.645 939.264C212.473 937.894 184.075 933.134 152.275 1007.94C147.404 999.41 144.062 975.791 169.663 949.586C195.264 923.381 216.004 919.153 223.174 920.315C224.858 903.279 238.344 870.429 278.82 875.311C279.271 863.7 284.081 839.127 299.712 833.723C294.215 822.187 292.487 791.163 329.547 759.355C325.589 751.018 323.2 729.32 345.312 709.221C367.425 689.122 389.532 693.189 397.822 697.735C414.187 671.561 460.542 626.873 515.04 657.512C519.121 658.988 524.086 658.036 511.302 642.422C506.092 625.929 502.872 585.139 531.664 553.92ZM209.608 543.923C216.589 558.707 231.378 580.647 231.378 580.647C241.779 577.454 268.959 570.797 297.005 580.99C297.005 580.99 312.561 596.51 328.207 597.236C343.854 597.963 371.32 580.352 364.731 553.473C364.422 554.188 364.116 554.909 363.809 555.632C358.618 567.869 353.147 580.766 329.048 579.617C321.763 577.63 308.354 569.97 313.544 543.653C310.896 539.017 300.561 532.211 280.413 542.073C274.044 546.689 209.608 543.923 209.608 543.923ZM455.249 976.426C465.992 970.379 490.696 962.989 503.573 981.806C511.744 973.791 533.194 958.99 553.621 963.899C549.474 947.713 551.545 909.44 593.01 885.836C592.008 863.856 604.8 819.125 663.981 816.043C664.218 815.864 664.552 815.583 664.982 815.222C671.496 809.746 700.064 785.733 748.27 815.143C758.184 809.262 787.783 804.114 826.861 830.575C829.48 831.52 834.807 831.569 835.158 824.206C825.44 813.084 797.746 791.184 764.72 792.56C762.715 778.731 751.587 755.899 723.117 775.203C710.672 761.081 674.977 737.61 631.76 756.703C587.245 776.369 583.178 805.897 581.179 820.405C580.753 823.503 580.42 825.917 579.808 827.403C577.302 828.906 574.716 830.231 572.105 831.57C560.865 837.33 549.138 843.34 541.123 864.914C540.344 868.361 539.644 877.88 543.079 888.375C519.502 892.785 494.748 919.276 504.772 956.65L500.243 961.354C493.719 956.328 477.391 947.966 464.279 954.719C458.844 956.92 449.43 964.342 455.249 976.426Z" fill="url(#paint1_linear_1105_741)"/>
<mask id="mask0_1105_741" style="mask-type:alpha" maskUnits="userSpaceOnUse" x="-119" y="1052" width="288" height="29">
<path d="M-108.929 1057.01C-91.1656 1055.89 2.67698 1054.96 47.3778 1054.63C79.75 1046.33 101.451 1061.47 133.273 1058.72C165.382 1055.95 174.219 1070.52 164.709 1070.06C145.076 1069.13 73.4372 1075.55 53.804 1074.61C38.0974 1073.86 31.307 1082.15 -5.50536 1080.39C-25.8692 1081.88 -82.5186 1070.57 -95.8994 1067.47C-109.28 1064.38 -131.134 1058.41 -108.929 1057.01Z" fill="white"/>
</mask>
<g mask="url(#mask0_1105_741)">
<path d="M-108.929 1057.01C-91.1656 1055.89 2.67698 1054.96 47.3778 1054.63C79.75 1046.33 101.451 1061.47 133.273 1058.72C165.382 1055.95 174.219 1070.52 164.709 1070.06C145.076 1069.13 73.4372 1075.55 53.804 1074.61C38.0974 1073.86 31.307 1082.15 -5.50536 1080.39C-25.8692 1081.88 -82.5186 1070.57 -95.8994 1067.47C-109.28 1064.38 -131.134 1058.41 -108.929 1057.01Z" fill="#1C4052"/>
<path d="M-117.658 1062.26C-123.431 1059.52 -115.018 1058.49 -110.091 1058.31C-76.5502 1056.47 -24.6724 1063.82 -2.92613 1067.73C27.1373 1069.16 48.057 1056.01 69.5309 1057.04C91.0047 1058.06 111.134 1061.48 143.769 1060.58C169.877 1059.86 171.105 1067.62 168.456 1071.59C156.676 1071.03 82.6575 1074.06 47.1207 1075.65C35.621 1079.53 10.5806 1081.08 -0.502101 1081.37C-45.904 1079.21 -110.442 1065.67 -117.658 1062.26Z" fill="#556543"/>
</g>
<path d="M19.2357 848.021C6.96492 847.436 -108.818 838.225 -112.5 838.05C-109.228 841.649 -36.1291 848.456 0.0111911 851.409C4.61523 858.024 11.3756 862.405 14.1802 863.768C31.2664 856.22 53.2035 862.145 62.0363 866.05C59.1743 848.696 31.5065 848.606 19.2357 848.021Z" fill="#488AA1"/>
<path d="M732.938 1046.4C780.286 1041.28 811.77 1047.08 821.594 1050.63C816.165 1053.57 786.483 1055.1 772.321 1055.5C777.923 1057.31 797.544 1062.36 831.212 1068.15C864.881 1073.94 873.259 1078.35 873.239 1079.84C867.756 1080.91 841.463 1083.37 780.156 1084.62C718.849 1085.88 694.343 1078.79 689.754 1075.09C672.156 1073.38 633.078 1069.49 617.547 1067.65C598.133 1065.34 602.457 1055.24 623.471 1053.02C640.283 1051.24 703.454 1047.86 732.938 1046.4Z" fill="#1C4052"/>
<path d="M739.958 1053.96C751.528 1048.61 798.186 1049.36 820.069 1050.4C813.01 1054 785.399 1055.31 772.475 1055.51L791.261 1061.32L752.608 1059.48C746.718 1059.2 741.72 1055.68 739.958 1053.96Z" fill="#417E7E"/>
<path d="M686.346 1056.32C667.203 1055.41 624.923 1059.13 606.176 1061.11C594.069 1067.42 657.635 1073.81 690.931 1076.22C735.513 1090.43 830.715 1085.05 872.744 1080.58C873.465 1078.36 871.102 1073.74 855.887 1073.01C836.867 1072.11 804.027 1077.31 799.733 1077.1C776.454 1070.09 745.858 1072.07 733.47 1073.94C677.89 1073.75 678.895 1062.12 686.346 1056.32Z" fill="#417E7E"/>
<path d="M2367.92 39.9384C2383.25 7.21727 2410.87 9.70256 2442.63 1.37807C2499.98 -79.5179 2617.68 -20.0988 2614.43 48.0041C2653.2 49.8532 2674.52 86.0233 2679.67 104.922C2682.95 100.528 2700.43 98.2764 2708.76 97.6999C2744.07 66.4234 2792.32 104.554 2812.03 127.529C2854.02 134.082 2855.57 175.06 2851.1 194.729C2879.71 206.055 2888.27 235.294 2888.97 248.497C2927.33 251.187 2958.61 265.603 2969.46 272.474C2998.83 252.352 3026.98 279.471 3037.38 295.545C3092.6 300.884 3097.03 346.149 3092.34 368.115C3104.21 366.713 3115.79 374.972 3120.1 379.277C3130.22 383.695 3125.79 418.904 3122.31 435.957C3164.13 446.314 3168.36 476.074 3165.26 489.659C3193.47 506.747 3204.63 536.632 3206.68 549.438C3267.71 548.905 3266.93 584.083 3258.92 601.739C3288.09 598.702 3287.26 604.935 3283.19 608.431C3271.54 607.875 3207.55 608.513 3204.05 604.657C3201.24 601.571 3207.15 599.885 3210.45 599.427C3205.54 599.193 3196.72 595.083 3192.92 593.057C3157.89 595.199 3106.08 587.327 3084.55 583.124L3014.91 579.803L2885.91 573.652C2768.02 562.249 2634.61 568.278 2582.64 572.718C2615.04 574.263 2622.37 582.197 2621.98 585.97C2548.81 590.117 2396.61 597.637 2373.14 594.551C2349.67 591.464 2339.47 578.494 2337.3 572.395C2315.01 565.183 2223.16 569.514 2180.02 572.581C2147.99 571.054 2113.44 564.282 2100.17 561.087L1911.2 552.075C1897.94 551.444 1872.2 555.34 1860.98 557.368C1854.61 556.654 1839.83 555.375 1831.68 555.971C1823.54 556.566 1814.01 550.413 1810.27 547.263C1811.05 530.82 1825.48 533.537 1832.59 536.951L1890.6 529.417C1909.34 502.639 1933.16 485.788 1942.73 480.71C1998.4 450.65 2047.73 472.086 2065.44 486.561C2098.12 420.323 2168.64 421.226 2161.51 415.967C2155.81 411.759 2150.56 404.786 2148.65 401.825C2094.76 397.205 1986.55 386.47 1984.87 380.486C1983.19 374.503 2004 374.839 2014.61 375.755C2013.26 362.9 2094.49 368.495 2135.28 372.9C2134.06 336.438 2160.37 319.572 2173.67 315.697C2195.08 238.007 2249.6 219.289 2274.18 219.641C2273.48 182.712 2298.84 166.703 2316.84 150.343C2331.24 137.255 2364.44 132.115 2379.25 131.181C2347.5 83.4921 2348.71 80.8962 2367.24 41.3913L2367.92 39.9384Z" fill="#1C4052"/>
<path d="M2614.6 50.7804C2615.21 38.0188 2608.52 19.3336 2604.76 12.1851C2593.21 48.0385 2555.33 55.7432 2538.17 54.5149C2546.73 60.8262 2551.16 65.7933 2552.31 67.4879C2582.68 68.9361 2602.08 55.5126 2614.6 50.7804Z" fill="#28717F"/>
<path d="M2485.44 6.18843C2472.47 -0.333503 2452.03 -0.324164 2443.44 0.495747L2440.9 2.06594C2462.92 4.46899 2485.62 12.1412 2492.99 15.6185C2492.82 11.3061 2487.89 7.53497 2485.44 6.18843Z" fill="#28717F"/>
<path opacity="0.6" fill-rule="evenodd" clip-rule="evenodd" d="M2679.66 104.92C2678.87 102.32 2676.92 96.6108 2675.54 94.5773L2668.2 100.376C2654.74 89.1782 2617.65 72.6305 2576.93 96.0241C2575.13 98.3847 2570.72 103.901 2567.49 107.084C2567.27 107.301 2566.97 107.578 2566.62 107.915C2560.41 113.761 2534.73 137.936 2533.54 190.346C2524.35 190.727 2502.97 192.424 2490.99 196.157C2489.5 194.087 2484.08 189.463 2474.33 187.522C2465.3 174.844 2434.57 155.494 2383.86 179.518C2333.15 203.542 2310.89 232.151 2306.1 243.453C2296.18 245.081 2274.74 254.871 2268.33 281.008C2242.63 291.363 2195.31 321.616 2211.69 359.786C2208.25 371.818 2209.98 403.334 2244.47 433.142C2243.04 436.303 2240.16 444.282 2240.09 450.92C2231.56 443.903 2208.4 432.652 2184.01 443.788C2173.66 450.161 2154.22 466.288 2159.23 479.81C2138.72 481.24 2096.51 491.362 2091.81 520.408C2090.25 519.77 2085.77 518.768 2080.3 519.86C2069.79 509.315 2038.07 489.313 1995.31 493.669C1986.19 489.34 1957.54 489.316 1915.92 523.859C1911.98 526.951 1910.23 532.442 1934.71 529.674L1951.89 530.493C1954.47 530.616 1859.25 542.064 1811.32 547.772C1812.53 550.392 1818.44 555.799 1832.43 556.466L1861.42 557.848C1872.17 555.799 1896.48 551.833 1907.65 552.366L2026.52 558.035L2099.84 561.531C2118.66 565.503 2160.92 573.299 2179.4 572.704C2188.74 572.403 2200.84 571.656 2213.49 570.875C2232.11 569.725 2251.93 568.502 2265.84 568.525L2267.76 568.528L2267.76 568.528L2267.76 568.528C2291.23 568.563 2327.42 568.618 2335.94 571.867C2339.88 580.562 2356 597.452 2388.93 595.456L2484.99 592.657L2622.74 586.159C2622.31 582.193 2613.92 573.9 2583.73 572.461L2694.49 567.75C2716.39 567.308 2765.35 566.732 2785.95 567.961L2791.43 568.287L2791.44 568.288L2791.46 568.289L2791.48 568.29C2820.28 570.004 2880.15 573.569 2887.87 574.512C2894.47 575.319 3021.92 581.109 3084.82 583.904C3101.51 587.467 3146.46 594.315 3192.76 593.202C3195.99 595.252 3204.05 599.428 3210.43 599.733C3204.74 600.947 3196.7 603.997 3210.11 606.482C3223.52 608.966 3264.68 609.852 3283.58 609.985C3288.08 605.844 3289.49 598.153 3259.13 600.517C3267.17 583.478 3267.93 549.314 3206.7 548.977C3203.59 534.685 3190.88 502.84 3164.94 489.796C3168.46 476.282 3164.91 446.688 3122.6 436.43C3126.29 420.31 3131.02 386.222 3120.42 378.83C3115.86 374.666 3103.85 366.633 3092.35 367.806C3098.54 352.062 3092.38 318.859 3018.3 312.006C3009.3 308.348 2985.94 302.714 2964.46 309.438C2956.2 294.593 2925.69 266.204 2869.73 271.407C2799.78 277.91 2734.15 190.688 2791.33 161.746C2799.44 159.314 2821.51 161.986 2844.92 192.127C2846.53 190.615 2848.05 185.204 2841.25 175.656C2832.75 163.721 2802.19 130.748 2772.76 148.254C2759.87 138.006 2726.4 124.183 2695.61 150.878C2689.99 158.143 2679.76 177.056 2683.84 194.592L2683.13 209.471C2668.88 216.017 2640.16 235.093 2639.26 259.033C2614.18 259.579 2559.79 270.371 2542.94 309.169C2526.72 306.602 2490.33 315.73 2474.57 372.783C2489.34 370.361 2523.06 367.593 2539.76 375.891C2560.63 386.264 2581.51 399.866 2590.15 437.789C2589.67 441.507 2581.72 437.387 2571.32 423.209C2567.12 417.474 2540.12 414.711 2526.97 424.784C2526.31 425.291 2525.64 425.81 2524.95 426.337L2524.94 426.344C2508.66 438.894 2486.04 456.33 2444.76 446.69C2439.53 455.255 2423.55 473.628 2401.42 478.599C2374.62 484.619 2374.36 484.978 2370.63 489.989C2370.51 490.15 2370.39 490.317 2370.26 490.488C2369.87 490.469 2369.33 490.378 2368.64 490.264C2360.47 488.894 2332.08 484.134 2300.28 558.944C2295.4 550.41 2292.06 526.791 2317.66 500.586C2343.26 474.381 2364 470.153 2371.17 471.315C2372.86 454.279 2386.34 421.429 2426.82 426.311C2427.27 414.7 2432.08 390.127 2447.71 384.723C2442.22 373.187 2440.49 342.163 2477.55 310.355C2473.59 302.018 2471.2 280.32 2493.31 260.221C2515.42 240.122 2537.53 244.189 2545.82 248.735C2562.19 222.561 2608.54 177.873 2663.04 208.512C2667.12 209.988 2672.09 209.036 2659.3 193.422C2654.09 176.929 2650.87 136.139 2679.66 104.92ZM2357.61 94.9233C2364.59 109.707 2379.38 131.647 2379.38 131.647C2389.78 128.454 2416.96 121.797 2445.01 131.99C2445.01 131.99 2460.56 147.51 2476.21 148.236C2491.85 148.963 2519.32 131.352 2512.73 104.473C2512.42 105.188 2512.12 105.909 2511.81 106.632C2506.62 118.869 2501.15 131.766 2477.05 130.617C2469.76 128.63 2456.35 120.97 2461.54 94.6527C2458.9 90.0169 2448.56 83.2108 2428.41 93.0728C2422.04 97.6885 2357.61 94.9233 2357.61 94.9233ZM2603.25 527.426C2613.99 521.379 2638.7 513.989 2651.57 532.806C2659.74 524.791 2681.19 509.99 2701.62 514.899C2697.47 498.713 2699.54 460.44 2741.01 436.836C2740.01 414.856 2752.8 370.125 2811.98 367.043C2812.22 366.864 2812.55 366.583 2812.98 366.222C2819.5 360.746 2848.06 336.733 2896.27 366.143C2906.18 360.262 2935.78 355.114 2974.86 381.575C2977.48 382.52 2982.81 382.569 2983.16 375.206C2973.44 364.084 2945.75 342.184 2912.72 343.56C2910.71 329.731 2899.59 306.899 2871.12 326.203C2858.67 312.081 2822.98 288.61 2779.76 307.703C2735.24 327.369 2731.18 356.897 2729.18 371.405C2728.75 374.503 2728.42 376.917 2727.81 378.403C2725.3 379.906 2722.72 381.231 2720.1 382.57C2708.86 388.33 2697.14 394.34 2689.12 415.914C2688.34 419.361 2687.64 428.88 2691.08 439.375C2667.5 443.785 2642.75 470.276 2652.77 507.65L2648.24 512.354C2641.72 507.328 2625.39 498.966 2612.28 505.719C2606.84 507.92 2597.43 515.342 2603.25 527.426Z" fill="url(#paint2_linear_1105_741)"/>
<mask id="mask1_1105_741" style="mask-type:alpha" maskUnits="userSpaceOnUse" x="2029" y="603" width="288" height="29">
<path d="M2039.07 608.013C2056.83 606.892 2150.68 605.956 2195.38 605.628C2227.75 597.333 2249.45 612.472 2281.27 609.724C2313.38 606.951 2322.22 621.515 2312.71 621.062C2293.08 620.126 2221.44 626.548 2201.8 625.612C2186.1 624.863 2179.31 633.148 2142.49 631.393C2122.13 632.882 2065.48 621.571 2052.1 618.473C2038.72 615.376 2016.87 609.414 2039.07 608.013Z" fill="white"/>
</mask>
<g mask="url(#mask1_1105_741)">
<path d="M2039.07 608.013C2056.83 606.892 2150.68 605.956 2195.38 605.628C2227.75 597.333 2249.45 612.472 2281.27 609.724C2313.38 606.951 2322.22 621.515 2312.71 621.062C2293.08 620.126 2221.44 626.548 2201.8 625.612C2186.1 624.863 2179.31 633.148 2142.49 631.393C2122.13 632.882 2065.48 621.571 2052.1 618.473C2038.72 615.376 2016.87 609.414 2039.07 608.013Z" fill="#1C4052"/>
<path d="M2030.34 613.256C2024.57 610.521 2032.98 609.487 2037.91 609.312C2071.45 607.468 2123.33 614.82 2145.07 618.727C2175.14 620.16 2196.06 607.014 2217.53 608.038C2239 609.062 2259.13 612.482 2291.77 611.579C2317.88 610.856 2319.11 618.622 2316.46 622.595C2304.68 622.033 2230.66 625.063 2195.12 626.648C2183.62 630.527 2158.58 632.079 2147.5 632.371C2102.1 630.206 2037.56 616.674 2030.34 613.256Z" fill="#556543"/>
</g>
<path d="M2167.24 399.021C2154.96 398.436 2039.18 389.225 2035.5 389.05C2038.77 392.649 2111.87 399.456 2148.01 402.409C2152.62 409.024 2159.38 413.405 2162.18 414.768C2179.27 407.22 2201.2 413.145 2210.04 417.05C2207.17 399.696 2179.51 399.606 2167.24 399.021Z" fill="#488AA1"/>
<path d="M2880.94 597.4C2928.29 592.278 2959.77 598.084 2969.59 601.627C2964.17 604.566 2934.48 606.102 2920.32 606.503C2925.92 608.308 2945.54 613.363 2979.21 619.15C3012.88 624.937 3021.26 629.354 3021.24 630.84C3015.76 631.911 2989.46 634.367 2928.16 635.625C2866.85 636.883 2842.34 629.79 2837.75 626.087C2820.16 624.377 2781.08 620.494 2765.55 618.647C2746.13 616.337 2750.46 606.243 2771.47 604.017C2788.28 602.236 2851.45 598.863 2880.94 597.4Z" fill="#1C4052"/>
<path d="M2887.96 604.958C2899.53 599.607 2946.19 600.356 2968.07 601.399C2961.01 604.998 2933.4 606.305 2920.48 606.509L2939.26 612.324L2900.61 610.481C2894.72 610.2 2889.72 606.682 2887.96 604.958Z" fill="#417E7E"/>
<path d="M2834.35 607.321C2815.2 606.408 2772.92 610.131 2754.18 612.107C2742.07 618.417 2805.63 624.81 2838.93 627.218C2883.51 641.435 2978.72 636.052 3020.74 631.583C3021.46 629.363 3019.1 624.741 3003.89 624.015C2984.87 623.108 2952.03 628.306 2947.73 628.101C2924.45 621.088 2893.86 623.073 2881.47 624.942C2825.89 624.751 2826.9 613.115 2834.35 607.321Z" fill="#417E7E"/>
<path d="M2656.33 1539.18L3251.92 103.741L2921.85 -146.176L2650.05 -87.1595L1847.91 1061.51C1744.53 1698.9 2343.78 1645.54 2656.33 1539.18Z" fill="url(#paint3_linear_1105_741)"/>
<g clip-path="url(#clip1_1105_741)">
<path fill-rule="evenodd" clip-rule="evenodd" d="M-39 1017.13V1051H1785.34V1017.13C1763.45 1016.97 1732.16 1012.73 1732.16 962.557C1732.16 912.382 1804.17 922.475 1795.47 953.57C1790.17 972.532 1774.07 964.308 1769.37 970.716C1763.04 979.348 1768.36 986.797 1777.83 986.402C1793.01 985.77 1816 974.48 1816 950.648C1816 926.817 1795.98 913.013 1767.2 913.013C1738.42 913.013 1714.65 936.226 1684.62 970.098C1654.59 1003.97 1643.33 1017.14 1582.65 1017.14C1560.75 1016.98 1529.46 1012.75 1529.46 962.571C1529.46 912.395 1601.48 922.488 1592.78 953.583C1587.48 972.545 1571.37 964.321 1566.67 970.729C1560.35 979.362 1565.66 986.81 1575.14 986.415C1590.31 985.783 1613.3 974.493 1613.3 950.661C1613.3 926.83 1593.29 913.026 1564.51 913.026C1535.72 913.026 1511.96 936.239 1481.93 970.111C1451.9 1003.98 1440.64 1017.15 1379.95 1017.15C1358.06 1017 1326.77 1012.76 1326.77 962.584C1326.77 912.408 1398.78 922.501 1390.08 953.596C1384.78 972.558 1368.68 964.334 1363.98 970.742C1357.65 979.375 1362.97 986.823 1372.44 986.428C1387.61 985.796 1410.61 974.506 1410.61 950.675C1410.61 926.843 1390.59 913.039 1361.81 913.039C1333.03 913.039 1309.26 936.252 1279.23 970.124C1249.2 1004 1237.94 1017.17 1177.25 1017.17C1155.36 1017.01 1124.07 1012.77 1124.07 962.597C1124.07 912.421 1196.09 922.514 1187.39 953.609C1182.08 972.571 1165.98 964.347 1161.28 970.756C1154.95 979.388 1160.27 986.836 1169.75 986.441C1184.92 985.81 1207.91 974.519 1207.91 950.688C1207.91 926.857 1187.9 913.053 1159.12 913.053C1130.33 913.053 1106.56 936.265 1076.54 970.137C1046.51 1004.01 1035.25 1017.18 974.558 1017.18C952.666 1017.02 921.377 1012.79 921.377 962.61C921.377 912.434 993.391 922.527 984.69 953.622C979.388 972.585 963.284 964.36 958.585 970.769C952.259 979.401 957.575 986.849 967.05 986.454C982.222 985.823 1005.22 974.532 1005.22 950.701C1005.22 926.87 985.202 913.066 956.42 913.066C927.637 913.066 903.869 936.279 873.84 970.15C843.811 1004.02 832.55 1017.19 771.862 1017.19C749.97 1017.04 718.681 1012.8 718.681 962.623C718.681 912.447 790.696 922.54 781.994 953.635C776.692 972.598 760.588 964.373 755.889 970.782C749.563 979.414 754.879 986.862 764.355 986.468C779.527 985.836 802.521 974.545 802.521 950.714C802.521 926.883 782.506 913.079 753.724 913.079C724.942 913.079 701.173 936.292 671.144 970.163C641.115 1004.03 629.854 1017.21 569.166 1017.21C547.274 1017.05 515.985 1012.81 515.985 962.636C515.985 912.46 588 922.554 579.298 953.649C573.996 972.611 557.892 964.386 553.194 970.795C546.867 979.427 552.183 986.875 561.659 986.481C576.831 985.849 599.825 974.558 599.825 950.727C599.825 926.896 579.745 913 550.975 913C522.206 913 498.425 936.213 468.396 970.084C438.367 1003.96 427.106 1017.13 366.418 1017.13C344.526 1016.97 313.237 1012.73 313.237 962.557C313.237 912.382 385.252 922.475 376.55 953.57C371.248 972.532 355.144 964.308 350.445 970.716C344.119 979.348 349.435 986.797 358.911 986.402C374.083 985.77 397.077 974.48 397.077 950.648C397.077 926.817 377.049 913 348.267 913C319.484 913 295.716 936.213 265.687 970.084C235.658 1003.96 224.397 1017.13 163.709 1017.13C141.817 1016.97 110.528 1012.73 110.528 962.557C110.528 912.382 182.543 922.475 173.841 953.57C168.539 972.532 152.435 964.308 147.736 970.716C141.41 979.348 146.726 986.797 156.202 986.402C171.374 985.77 194.368 974.48 194.368 950.648C194.368 926.817 174.34 913 145.558 913C116.775 913 93.0069 936.213 62.9779 970.084C32.9489 1003.96 21.688 1017.13 -39 1017.13Z" fill="#74B8C3"/>
</g>
<g opacity="0.5">
<ellipse cx="169.531" cy="114.308" rx="169.531" ry="114.308" transform="matrix(-1 0 0 1 802.119 335)" fill="#022838"/>
<ellipse cx="169.531" cy="114.308" rx="169.531" ry="114.308" transform="matrix(-1 0 0 1 802.119 335)" fill="#022838"/>
<ellipse cx="169.531" cy="114.308" rx="169.531" ry="114.308" transform="matrix(-1 0 0 1 802.119 335)" fill="#022838"/>
<ellipse cx="169.531" cy="114.308" rx="169.531" ry="114.308" transform="matrix(-1 0 0 1 802.119 335)" fill="#0C293B"/>
<ellipse cx="98.6688" cy="84.7033" rx="98.6688" ry="84.7033" transform="matrix(-1 0 0 1 511.509 415.59)" fill="#022838"/>
<ellipse cx="98.6688" cy="84.7033" rx="98.6688" ry="84.7033" transform="matrix(-1 0 0 1 511.509 415.59)" fill="#022838"/>
<ellipse cx="98.6688" cy="84.7033" rx="98.6688" ry="84.7033" transform="matrix(-1 0 0 1 511.509 415.59)" fill="#022838"/>
<ellipse cx="98.6688" cy="84.7033" rx="98.6688" ry="84.7033" transform="matrix(-1 0 0 1 511.509 415.59)" fill="#0C293B"/>
<path d="M764.473 533.513C764.473 580.473 808.648 576.702 863.142 576.702C917.635 576.702 961.81 580.473 961.81 533.513C961.81 486.554 917.635 448.485 863.142 448.485C808.648 448.485 764.473 486.554 764.473 533.513Z" fill="#022838"/>
<path d="M764.473 533.513C764.473 580.473 808.648 576.702 863.142 576.702C917.635 576.702 961.81 580.473 961.81 533.513C961.81 486.554 917.635 448.485 863.142 448.485C808.648 448.485 764.473 486.554 764.473 533.513Z" fill="#022838"/>
<path d="M764.473 533.513C764.473 580.473 808.648 576.702 863.142 576.702C917.635 576.702 961.81 580.473 961.81 533.513C961.81 486.554 917.635 448.485 863.142 448.485C808.648 448.485 764.473 486.554 764.473 533.513Z" fill="#022838"/>
<path d="M764.473 533.513C764.473 580.473 808.648 576.702 863.142 576.702C917.635 576.702 961.81 580.473 961.81 533.513C961.81 486.554 917.635 448.485 863.142 448.485C808.648 448.485 764.473 486.554 764.473 533.513Z" fill="#0C293B"/>
<path d="M246 565.837C246 588.845 411.044 584.021 612.127 584.021C813.21 584.021 995.883 590.949 995.883 567.942C995.883 544.934 817.956 517.566 616.873 517.566C415.79 517.566 246 542.83 246 565.837Z" fill="#022838"/>
<path d="M246 565.837C246 588.845 411.044 584.021 612.127 584.021C813.21 584.021 995.883 590.949 995.883 567.942C995.883 544.934 817.956 517.566 616.873 517.566C415.79 517.566 246 542.83 246 565.837Z" fill="#022838"/>
<path d="M246 565.837C246 588.845 411.044 584.021 612.127 584.021C813.21 584.021 995.883 590.949 995.883 567.942C995.883 544.934 817.956 517.566 616.873 517.566C415.79 517.566 246 542.83 246 565.837Z" fill="#022838"/>
<path d="M246 565.837C246 588.845 411.044 584.021 612.127 584.021C813.21 584.021 995.883 590.949 995.883 567.942C995.883 544.934 817.956 517.566 616.873 517.566C415.79 517.566 246 542.83 246 565.837Z" fill="#0C293B"/>
</g>
<g clip-path="url(#clip2_1105_741)">
<path fill-rule="evenodd" clip-rule="evenodd" d="M1784 1017.13V1051H3608.34V1017.13C3586.45 1016.97 3555.16 1012.73 3555.16 962.557C3555.16 912.382 3627.17 922.475 3618.47 953.57C3613.17 972.532 3597.07 964.308 3592.37 970.716C3586.04 979.348 3591.36 986.797 3600.83 986.402C3616.01 985.77 3639 974.48 3639 950.648C3639 926.817 3618.98 913.013 3590.2 913.013C3561.42 913.013 3537.65 936.226 3507.62 970.098C3477.59 1003.97 3466.33 1017.14 3405.65 1017.14C3383.75 1016.98 3352.46 1012.75 3352.46 962.571C3352.46 912.395 3424.48 922.488 3415.78 953.583C3410.48 972.545 3394.37 964.321 3389.67 970.729C3383.35 979.362 3388.66 986.81 3398.14 986.415C3413.31 985.783 3436.3 974.493 3436.3 950.661C3436.3 926.83 3416.29 913.026 3387.51 913.026C3358.72 913.026 3334.96 936.239 3304.93 970.111C3274.9 1003.98 3263.64 1017.15 3202.95 1017.15C3181.06 1017 3149.77 1012.76 3149.77 962.584C3149.77 912.408 3221.78 922.501 3213.08 953.596C3207.78 972.558 3191.68 964.334 3186.98 970.742C3180.65 979.375 3185.97 986.823 3195.44 986.428C3210.61 985.796 3233.61 974.506 3233.61 950.675C3233.61 926.843 3213.59 913.039 3184.81 913.039C3156.03 913.039 3132.26 936.252 3102.23 970.124C3072.2 1004 3060.94 1017.17 3000.25 1017.17C2978.36 1017.01 2947.07 1012.77 2947.07 962.597C2947.07 912.421 3019.09 922.514 3010.39 953.609C3005.08 972.571 2988.98 964.347 2984.28 970.756C2977.95 979.388 2983.27 986.836 2992.75 986.441C3007.92 985.81 3030.91 974.519 3030.91 950.688C3030.91 926.857 3010.9 913.053 2982.12 913.053C2953.33 913.053 2929.56 936.265 2899.54 970.137C2869.51 1004.01 2858.25 1017.18 2797.56 1017.18C2775.67 1017.02 2744.38 1012.79 2744.38 962.61C2744.38 912.434 2816.39 922.527 2807.69 953.622C2802.39 972.585 2786.28 964.36 2781.59 970.769C2775.26 979.401 2780.57 986.849 2790.05 986.454C2805.22 985.823 2828.22 974.532 2828.22 950.701C2828.22 926.87 2808.2 913.066 2779.42 913.066C2750.64 913.066 2726.87 936.279 2696.84 970.15C2666.81 1004.02 2655.55 1017.19 2594.86 1017.19C2572.97 1017.04 2541.68 1012.8 2541.68 962.623C2541.68 912.447 2613.7 922.54 2604.99 953.635C2599.69 972.598 2583.59 964.373 2578.89 970.782C2572.56 979.414 2577.88 986.862 2587.35 986.468C2602.53 985.836 2625.52 974.545 2625.52 950.714C2625.52 926.883 2605.51 913.079 2576.72 913.079C2547.94 913.079 2524.17 936.292 2494.14 970.163C2464.12 1004.03 2452.85 1017.21 2392.17 1017.21C2370.27 1017.05 2338.99 1012.81 2338.99 962.636C2338.99 912.46 2411 922.554 2402.3 953.649C2397 972.611 2380.89 964.386 2376.19 970.795C2369.87 979.427 2375.18 986.875 2384.66 986.481C2399.83 985.849 2422.83 974.558 2422.83 950.727C2422.83 926.896 2402.74 913 2373.98 913C2345.21 913 2321.42 936.213 2291.4 970.084C2261.37 1003.96 2250.11 1017.13 2189.42 1017.13C2167.53 1016.97 2136.24 1012.73 2136.24 962.557C2136.24 912.382 2208.25 922.475 2199.55 953.57C2194.25 972.532 2178.14 964.308 2173.45 970.716C2167.12 979.348 2172.43 986.797 2181.91 986.402C2197.08 985.77 2220.08 974.48 2220.08 950.648C2220.08 926.817 2200.05 913 2171.27 913C2142.48 913 2118.72 936.213 2088.69 970.084C2058.66 1003.96 2047.4 1017.13 1986.71 1017.13C1964.82 1016.97 1933.53 1012.73 1933.53 962.557C1933.53 912.382 2005.54 922.475 1996.84 953.57C1991.54 972.532 1975.43 964.308 1970.74 970.716C1964.41 979.348 1969.73 986.797 1979.2 986.402C1994.37 985.77 2017.37 974.48 2017.37 950.648C2017.37 926.817 1997.34 913 1968.56 913C1939.78 913 1916.01 936.213 1885.98 970.084C1855.95 1003.96 1844.69 1017.13 1784 1017.13Z" fill="#74B8C3"/>
</g>
<rect y="1037" width="3053" height="949" fill="url(#paint4_linear_1105_741)"/>
<g clip-path="url(#clip3_1105_741)">
<path fill-rule="evenodd" clip-rule="evenodd" d="M-200 1220.13V1254H1624.34V1220.13C1602.45 1219.97 1571.16 1215.73 1571.16 1165.56C1571.16 1115.38 1643.17 1125.47 1634.47 1156.57C1629.17 1175.53 1613.07 1167.31 1608.37 1173.72C1602.04 1182.35 1607.36 1189.8 1616.83 1189.4C1632.01 1188.77 1655 1177.48 1655 1153.65C1655 1129.82 1634.98 1116.01 1606.2 1116.01C1577.42 1116.01 1553.65 1139.23 1523.62 1173.1C1493.59 1206.97 1482.33 1220.14 1421.65 1220.14C1399.75 1219.98 1368.46 1215.75 1368.46 1165.57C1368.46 1115.39 1440.48 1125.49 1431.78 1156.58C1426.48 1175.55 1410.37 1167.32 1405.67 1173.73C1399.35 1182.36 1404.66 1189.81 1414.14 1189.41C1429.31 1188.78 1452.3 1177.49 1452.3 1153.66C1452.3 1129.83 1432.29 1116.03 1403.51 1116.03C1374.72 1116.03 1350.96 1139.24 1320.93 1173.11C1290.9 1206.98 1279.64 1220.15 1218.95 1220.15C1197.06 1220 1165.77 1215.76 1165.77 1165.58C1165.77 1115.41 1237.78 1125.5 1229.08 1156.6C1223.78 1175.56 1207.68 1167.33 1202.98 1173.74C1196.65 1182.37 1201.97 1189.82 1211.44 1189.43C1226.61 1188.8 1249.61 1177.51 1249.61 1153.67C1249.61 1129.84 1229.59 1116.04 1200.81 1116.04C1172.03 1116.04 1148.26 1139.25 1118.23 1173.12C1088.2 1207 1076.94 1220.17 1016.25 1220.17C994.362 1220.01 963.073 1215.77 963.073 1165.6C963.073 1115.42 1035.09 1125.51 1026.39 1156.61C1021.08 1175.57 1004.98 1167.35 1000.28 1173.76C993.955 1182.39 999.27 1189.84 1008.75 1189.44C1023.92 1188.81 1046.91 1177.52 1046.91 1153.69C1046.91 1129.86 1026.9 1116.05 998.115 1116.05C969.333 1116.05 945.565 1139.27 915.536 1173.14C885.507 1207.01 874.246 1220.18 813.558 1220.18C791.666 1220.02 760.377 1215.79 760.377 1165.61C760.377 1115.43 832.391 1125.53 823.69 1156.62C818.388 1175.58 802.284 1167.36 797.585 1173.77C791.259 1182.4 796.575 1189.85 806.05 1189.45C821.222 1188.82 844.217 1177.53 844.217 1153.7C844.217 1129.87 824.202 1116.07 795.42 1116.07C766.637 1116.07 742.869 1139.28 712.84 1173.15C682.811 1207.02 671.55 1220.19 610.862 1220.19C588.97 1220.04 557.681 1215.8 557.681 1165.62C557.681 1115.45 629.696 1125.54 620.994 1156.64C615.692 1175.6 599.588 1167.37 594.889 1173.78C588.563 1182.41 593.879 1189.86 603.355 1189.47C618.527 1188.84 641.521 1177.55 641.521 1153.71C641.521 1129.88 621.506 1116.08 592.724 1116.08C563.942 1116.08 540.173 1139.29 510.144 1173.16C480.115 1207.03 468.854 1220.21 408.166 1220.21C386.274 1220.05 354.985 1215.81 354.985 1165.64C354.985 1115.46 427 1125.55 418.298 1156.65C412.996 1175.61 396.892 1167.39 392.194 1173.79C385.867 1182.43 391.183 1189.88 400.659 1189.48C415.831 1188.85 438.825 1177.56 438.825 1153.73C438.825 1129.9 418.745 1116 389.975 1116C361.206 1116 337.425 1139.21 307.396 1173.08C277.367 1206.96 266.106 1220.13 205.418 1220.13C183.526 1219.97 152.237 1215.73 152.237 1165.56C152.237 1115.38 224.252 1125.47 215.55 1156.57C210.248 1175.53 194.144 1167.31 189.445 1173.72C183.119 1182.35 188.435 1189.8 197.911 1189.4C213.083 1188.77 236.077 1177.48 236.077 1153.65C236.077 1129.82 216.049 1116 187.267 1116C158.484 1116 134.716 1139.21 104.687 1173.08C74.6578 1206.96 63.3969 1220.13 2.70892 1220.13C-19.1829 1219.97 -50.4718 1215.73 -50.4718 1165.56C-50.4718 1115.38 21.5427 1125.47 12.8411 1156.57C7.53876 1175.53 -8.56508 1167.31 -13.2637 1173.72C-19.5897 1182.35 -14.2743 1189.8 -4.79833 1189.4C10.3737 1188.77 33.3679 1177.48 33.3679 1153.65C33.3679 1129.82 13.3398 1116 -15.4424 1116C-44.2245 1116 -67.9931 1139.21 -98.0221 1173.08C-128.051 1206.96 -139.312 1220.13 -200 1220.13Z" fill="#74B8C3"/>
</g>
<g clip-path="url(#clip4_1105_741)">
<path fill-rule="evenodd" clip-rule="evenodd" d="M1623 1220.13V1254H3447.34V1220.13C3425.45 1219.97 3394.16 1215.73 3394.16 1165.56C3394.16 1115.38 3466.17 1125.47 3457.47 1156.57C3452.17 1175.53 3436.07 1167.31 3431.37 1173.72C3425.04 1182.35 3430.36 1189.8 3439.83 1189.4C3455.01 1188.77 3478 1177.48 3478 1153.65C3478 1129.82 3457.98 1116.01 3429.2 1116.01C3400.42 1116.01 3376.65 1139.23 3346.62 1173.1C3316.59 1206.97 3305.33 1220.14 3244.65 1220.14C3222.75 1219.98 3191.46 1215.75 3191.46 1165.57C3191.46 1115.39 3263.48 1125.49 3254.78 1156.58C3249.48 1175.55 3233.37 1167.32 3228.67 1173.73C3222.35 1182.36 3227.66 1189.81 3237.14 1189.41C3252.31 1188.78 3275.3 1177.49 3275.3 1153.66C3275.3 1129.83 3255.29 1116.03 3226.51 1116.03C3197.72 1116.03 3173.96 1139.24 3143.93 1173.11C3113.9 1206.98 3102.64 1220.15 3041.95 1220.15C3020.06 1220 2988.77 1215.76 2988.77 1165.58C2988.77 1115.41 3060.78 1125.5 3052.08 1156.6C3046.78 1175.56 3030.68 1167.33 3025.98 1173.74C3019.65 1182.37 3024.97 1189.82 3034.44 1189.43C3049.61 1188.8 3072.61 1177.51 3072.61 1153.67C3072.61 1129.84 3052.59 1116.04 3023.81 1116.04C2995.03 1116.04 2971.26 1139.25 2941.23 1173.12C2911.2 1207 2899.94 1220.17 2839.25 1220.17C2817.36 1220.01 2786.07 1215.77 2786.07 1165.6C2786.07 1115.42 2858.09 1125.51 2849.39 1156.61C2844.08 1175.57 2827.98 1167.35 2823.28 1173.76C2816.95 1182.39 2822.27 1189.84 2831.75 1189.44C2846.92 1188.81 2869.91 1177.52 2869.91 1153.69C2869.91 1129.86 2849.9 1116.05 2821.12 1116.05C2792.33 1116.05 2768.56 1139.27 2738.54 1173.14C2708.51 1207.01 2697.25 1220.18 2636.56 1220.18C2614.67 1220.02 2583.38 1215.79 2583.38 1165.61C2583.38 1115.43 2655.39 1125.53 2646.69 1156.62C2641.39 1175.58 2625.28 1167.36 2620.59 1173.77C2614.26 1182.4 2619.57 1189.85 2629.05 1189.45C2644.22 1188.82 2667.22 1177.53 2667.22 1153.7C2667.22 1129.87 2647.2 1116.07 2618.42 1116.07C2589.64 1116.07 2565.87 1139.28 2535.84 1173.15C2505.81 1207.02 2494.55 1220.19 2433.86 1220.19C2411.97 1220.04 2380.68 1215.8 2380.68 1165.62C2380.68 1115.45 2452.7 1125.54 2443.99 1156.64C2438.69 1175.6 2422.59 1167.37 2417.89 1173.78C2411.56 1182.41 2416.88 1189.86 2426.35 1189.47C2441.53 1188.84 2464.52 1177.55 2464.52 1153.71C2464.52 1129.88 2444.51 1116.08 2415.72 1116.08C2386.94 1116.08 2363.17 1139.29 2333.14 1173.16C2303.12 1207.03 2291.85 1220.21 2231.17 1220.21C2209.27 1220.05 2177.99 1215.81 2177.99 1165.64C2177.99 1115.46 2250 1125.55 2241.3 1156.65C2236 1175.61 2219.89 1167.39 2215.19 1173.79C2208.87 1182.43 2214.18 1189.88 2223.66 1189.48C2238.83 1188.85 2261.83 1177.56 2261.83 1153.73C2261.83 1129.9 2241.74 1116 2212.98 1116C2184.21 1116 2160.42 1139.21 2130.4 1173.08C2100.37 1206.96 2089.11 1220.13 2028.42 1220.13C2006.53 1219.97 1975.24 1215.73 1975.24 1165.56C1975.24 1115.38 2047.25 1125.47 2038.55 1156.57C2033.25 1175.53 2017.14 1167.31 2012.45 1173.72C2006.12 1182.35 2011.43 1189.8 2020.91 1189.4C2036.08 1188.77 2059.08 1177.48 2059.08 1153.65C2059.08 1129.82 2039.05 1116 2010.27 1116C1981.48 1116 1957.72 1139.21 1927.69 1173.08C1897.66 1206.96 1886.4 1220.13 1825.71 1220.13C1803.82 1219.97 1772.53 1215.73 1772.53 1165.56C1772.53 1115.38 1844.54 1125.47 1835.84 1156.57C1830.54 1175.53 1814.43 1167.31 1809.74 1173.72C1803.41 1182.35 1808.73 1189.8 1818.2 1189.4C1833.37 1188.77 1856.37 1177.48 1856.37 1153.65C1856.37 1129.82 1836.34 1116 1807.56 1116C1778.78 1116 1755.01 1139.21 1724.98 1173.08C1694.95 1206.96 1683.69 1220.13 1623 1220.13Z" fill="#74B8C3"/>
</g>
<g opacity="0.8" clip-path="url(#clip5_1105_741)">
<path fill-rule="evenodd" clip-rule="evenodd" d="M-274 1429.13V1463H1550.34V1429.13C1528.45 1428.97 1497.16 1424.73 1497.16 1374.56C1497.16 1324.38 1569.17 1334.47 1560.47 1365.57C1555.17 1384.53 1539.07 1376.31 1534.37 1382.72C1528.04 1391.35 1533.36 1398.8 1542.83 1398.4C1558.01 1397.77 1581 1386.48 1581 1362.65C1581 1338.82 1560.98 1325.01 1532.2 1325.01C1503.42 1325.01 1479.65 1348.23 1449.62 1382.1C1419.59 1415.97 1408.33 1429.14 1347.65 1429.14C1325.75 1428.98 1294.46 1424.75 1294.46 1374.57C1294.46 1324.39 1366.48 1334.49 1357.78 1365.58C1352.48 1384.55 1336.37 1376.32 1331.67 1382.73C1325.35 1391.36 1330.66 1398.81 1340.14 1398.41C1355.31 1397.78 1378.3 1386.49 1378.3 1362.66C1378.3 1338.83 1358.29 1325.03 1329.51 1325.03C1300.72 1325.03 1276.96 1348.24 1246.93 1382.11C1216.9 1415.98 1205.64 1429.15 1144.95 1429.15C1123.06 1429 1091.77 1424.76 1091.77 1374.58C1091.77 1324.41 1163.78 1334.5 1155.08 1365.6C1149.78 1384.56 1133.68 1376.33 1128.98 1382.74C1122.65 1391.37 1127.97 1398.82 1137.44 1398.43C1152.61 1397.8 1175.61 1386.51 1175.61 1362.67C1175.61 1338.84 1155.59 1325.04 1126.81 1325.04C1098.03 1325.04 1074.26 1348.25 1044.23 1382.12C1014.2 1416 1002.94 1429.17 942.254 1429.17C920.362 1429.01 889.073 1424.77 889.073 1374.6C889.073 1324.42 961.087 1334.51 952.386 1365.61C947.083 1384.57 930.98 1376.35 926.281 1382.76C919.955 1391.39 925.27 1398.84 934.746 1398.44C949.918 1397.81 972.913 1386.52 972.913 1362.69C972.913 1338.86 952.898 1325.05 924.115 1325.05C895.333 1325.05 871.565 1348.27 841.536 1382.14C811.507 1416.01 800.246 1429.18 739.558 1429.18C717.666 1429.02 686.377 1424.79 686.377 1374.61C686.377 1324.43 758.391 1334.53 749.69 1365.62C744.388 1384.58 728.284 1376.36 723.585 1382.77C717.259 1391.4 722.575 1398.85 732.05 1398.45C747.222 1397.82 770.217 1386.53 770.217 1362.7C770.217 1338.87 750.202 1325.07 721.42 1325.07C692.637 1325.07 668.869 1348.28 638.84 1382.15C608.811 1416.02 597.55 1429.19 536.862 1429.19C514.97 1429.04 483.681 1424.8 483.681 1374.62C483.681 1324.45 555.696 1334.54 546.994 1365.64C541.692 1384.6 525.588 1376.37 520.889 1382.78C514.563 1391.41 519.879 1398.86 529.355 1398.47C544.527 1397.84 567.521 1386.55 567.521 1362.71C567.521 1338.88 547.506 1325.08 518.724 1325.08C489.942 1325.08 466.173 1348.29 436.144 1382.16C406.115 1416.03 394.854 1429.21 334.166 1429.21C312.274 1429.05 280.985 1424.81 280.985 1374.64C280.985 1324.46 353 1334.55 344.298 1365.65C338.996 1384.61 322.892 1376.39 318.194 1382.79C311.867 1391.43 317.183 1398.88 326.659 1398.48C341.831 1397.85 364.825 1386.56 364.825 1362.73C364.825 1338.9 344.745 1325 315.975 1325C287.206 1325 263.425 1348.21 233.396 1382.08C203.367 1415.96 192.106 1429.13 131.418 1429.13C109.526 1428.97 78.2371 1424.73 78.2371 1374.56C78.2371 1324.38 150.252 1334.47 141.55 1365.57C136.248 1384.53 120.144 1376.31 115.445 1382.72C109.119 1391.35 114.435 1398.8 123.911 1398.4C139.083 1397.77 162.077 1386.48 162.077 1362.65C162.077 1338.82 142.049 1325 113.267 1325C84.4844 1325 60.7158 1348.21 30.6868 1382.08C0.657787 1415.96 -10.6031 1429.13 -71.2911 1429.13C-93.1829 1428.97 -124.472 1424.73 -124.472 1374.56C-124.472 1324.38 -52.4573 1334.47 -61.1589 1365.57C-66.4612 1384.53 -82.5651 1376.31 -87.2637 1382.72C-93.5897 1391.35 -88.2743 1398.8 -78.7983 1398.4C-63.6263 1397.77 -40.6321 1386.48 -40.6321 1362.65C-40.6321 1338.82 -60.6602 1325 -89.4424 1325C-118.225 1325 -141.993 1348.21 -172.022 1382.08C-202.051 1415.96 -213.312 1429.13 -274 1429.13Z" fill="#74B8C3"/>
</g>
<g opacity="0.8" clip-path="url(#clip6_1105_741)">
<path fill-rule="evenodd" clip-rule="evenodd" d="M1549 1429.13V1463H3373.34V1429.13C3351.45 1428.97 3320.16 1424.73 3320.16 1374.56C3320.16 1324.38 3392.17 1334.47 3383.47 1365.57C3378.17 1384.53 3362.07 1376.31 3357.37 1382.72C3351.04 1391.35 3356.36 1398.8 3365.83 1398.4C3381.01 1397.77 3404 1386.48 3404 1362.65C3404 1338.82 3383.98 1325.01 3355.2 1325.01C3326.42 1325.01 3302.65 1348.23 3272.62 1382.1C3242.59 1415.97 3231.33 1429.14 3170.65 1429.14C3148.75 1428.98 3117.46 1424.75 3117.46 1374.57C3117.46 1324.39 3189.48 1334.49 3180.78 1365.58C3175.48 1384.55 3159.37 1376.32 3154.67 1382.73C3148.35 1391.36 3153.66 1398.81 3163.14 1398.41C3178.31 1397.78 3201.3 1386.49 3201.3 1362.66C3201.3 1338.83 3181.29 1325.03 3152.51 1325.03C3123.72 1325.03 3099.96 1348.24 3069.93 1382.11C3039.9 1415.98 3028.64 1429.15 2967.95 1429.15C2946.06 1429 2914.77 1424.76 2914.77 1374.58C2914.77 1324.41 2986.78 1334.5 2978.08 1365.6C2972.78 1384.56 2956.68 1376.33 2951.98 1382.74C2945.65 1391.37 2950.97 1398.82 2960.44 1398.43C2975.61 1397.8 2998.61 1386.51 2998.61 1362.67C2998.61 1338.84 2978.59 1325.04 2949.81 1325.04C2921.03 1325.04 2897.26 1348.25 2867.23 1382.12C2837.2 1416 2825.94 1429.17 2765.25 1429.17C2743.36 1429.01 2712.07 1424.77 2712.07 1374.6C2712.07 1324.42 2784.09 1334.51 2775.39 1365.61C2770.08 1384.57 2753.98 1376.35 2749.28 1382.76C2742.95 1391.39 2748.27 1398.84 2757.75 1398.44C2772.92 1397.81 2795.91 1386.52 2795.91 1362.69C2795.91 1338.86 2775.9 1325.05 2747.12 1325.05C2718.33 1325.05 2694.56 1348.27 2664.54 1382.14C2634.51 1416.01 2623.25 1429.18 2562.56 1429.18C2540.67 1429.02 2509.38 1424.79 2509.38 1374.61C2509.38 1324.43 2581.39 1334.53 2572.69 1365.62C2567.39 1384.58 2551.28 1376.36 2546.59 1382.77C2540.26 1391.4 2545.57 1398.85 2555.05 1398.45C2570.22 1397.82 2593.22 1386.53 2593.22 1362.7C2593.22 1338.87 2573.2 1325.07 2544.42 1325.07C2515.64 1325.07 2491.87 1348.28 2461.84 1382.15C2431.81 1416.02 2420.55 1429.19 2359.86 1429.19C2337.97 1429.04 2306.68 1424.8 2306.68 1374.62C2306.68 1324.45 2378.7 1334.54 2369.99 1365.64C2364.69 1384.6 2348.59 1376.37 2343.89 1382.78C2337.56 1391.41 2342.88 1398.86 2352.35 1398.47C2367.53 1397.84 2390.52 1386.55 2390.52 1362.71C2390.52 1338.88 2370.51 1325.08 2341.72 1325.08C2312.94 1325.08 2289.17 1348.29 2259.14 1382.16C2229.12 1416.03 2217.85 1429.21 2157.17 1429.21C2135.27 1429.05 2103.99 1424.81 2103.99 1374.64C2103.99 1324.46 2176 1334.55 2167.3 1365.65C2162 1384.61 2145.89 1376.39 2141.19 1382.79C2134.87 1391.43 2140.18 1398.88 2149.66 1398.48C2164.83 1397.85 2187.83 1386.56 2187.83 1362.73C2187.83 1338.9 2167.74 1325 2138.98 1325C2110.21 1325 2086.42 1348.21 2056.4 1382.08C2026.37 1415.96 2015.11 1429.13 1954.42 1429.13C1932.53 1428.97 1901.24 1424.73 1901.24 1374.56C1901.24 1324.38 1973.25 1334.47 1964.55 1365.57C1959.25 1384.53 1943.14 1376.31 1938.45 1382.72C1932.12 1391.35 1937.43 1398.8 1946.91 1398.4C1962.08 1397.77 1985.08 1386.48 1985.08 1362.65C1985.08 1338.82 1965.05 1325 1936.27 1325C1907.48 1325 1883.72 1348.21 1853.69 1382.08C1823.66 1415.96 1812.4 1429.13 1751.71 1429.13C1729.82 1428.97 1698.53 1424.73 1698.53 1374.56C1698.53 1324.38 1770.54 1334.47 1761.84 1365.57C1756.54 1384.53 1740.43 1376.31 1735.74 1382.72C1729.41 1391.35 1734.73 1398.8 1744.2 1398.4C1759.37 1397.77 1782.37 1386.48 1782.37 1362.65C1782.37 1338.82 1762.34 1325 1733.56 1325C1704.78 1325 1681.01 1348.21 1650.98 1382.08C1620.95 1415.96 1609.69 1429.13 1549 1429.13Z" fill="#74B8C3"/>
</g>
<path d="M3062.28 221L3014.91 355.937L3064.06 344.135L2979.62 477.684L3034.25 460.381L2914 655L2971.05 514.967L2914.99 532.626L2997.21 395.43L2946.72 412.045L3062.28 221Z" fill="#FDF6B9" fill-opacity="0.8"/>
<path d="M2.9864 -27.4677C14.359 -51.7343 34.839 -49.8912 58.3917 -56.0647C100.929 -116.059 188.212 -71.9924 185.804 -21.4861C214.561 -20.1148 230.368 6.70966 234.184 20.725C236.62 17.4664 249.583 15.7968 255.76 15.3692C281.948 -7.82597 317.729 20.4526 332.347 37.4913C363.491 42.3512 364.641 72.7407 361.323 87.328C382.539 95.7276 388.885 117.411 389.407 127.203C417.86 129.198 441.057 139.889 449.099 144.985C470.88 130.062 491.758 150.174 499.474 162.095C540.421 166.054 543.707 199.624 540.232 215.914C549.038 214.874 557.623 220.999 560.815 224.192C568.321 227.468 565.039 253.58 562.459 266.227C593.469 273.907 596.612 295.978 594.308 306.053C615.229 318.726 623.506 340.889 625.029 350.386C670.287 349.991 669.712 376.08 663.767 389.173C685.4 386.922 684.784 391.544 681.772 394.136C673.127 393.724 625.676 394.198 623.076 391.337C620.996 389.049 625.373 387.799 627.821 387.459C624.181 387.286 617.638 384.237 614.821 382.735C588.842 384.324 550.417 378.486 534.452 375.368L482.809 372.905L387.142 368.343C299.711 359.887 200.772 364.359 162.231 367.651C186.255 368.797 191.691 374.681 191.405 377.479C137.141 380.554 24.262 386.132 6.85901 383.843C-10.544 381.553 -18.1117 371.935 -19.7202 367.411C-36.2477 362.063 -104.367 365.275 -136.361 367.55C-160.112 366.417 -185.738 361.395 -195.582 359.025L-335.726 352.342C-345.554 351.874 -364.648 354.763 -372.967 356.267C-377.692 355.738 -388.652 354.789 -394.693 355.231C-400.734 355.673 -407.798 351.11 -410.575 348.773C-409.994 336.579 -399.297 338.594 -394.021 341.126L-351 335.538C-337.101 315.679 -319.434 303.182 -312.338 299.416C-271.051 277.123 -234.467 293.02 -221.335 303.756C-197.103 254.632 -144.803 255.302 -150.09 251.402C-154.319 248.281 -158.207 243.11 -159.623 240.914C-199.591 237.488 -279.841 229.526 -281.089 225.089C-282.336 220.651 -266.904 220.901 -259.031 221.58C-260.036 212.046 -199.792 216.196 -169.545 219.463C-170.445 192.422 -150.937 179.914 -141.071 177.04C-125.19 119.423 -84.7606 105.542 -66.5313 105.803C-67.0495 78.4156 -48.2414 66.5432 -34.8936 54.4104C-24.2153 44.7042 0.410583 40.8924 11.3887 40.1998C-12.1575 4.83247 -11.2549 2.90728 2.48132 -26.3903L2.9864 -27.4677Z" fill="#1C4052"/>
<path opacity="0.6" fill-rule="evenodd" clip-rule="evenodd" d="M234.183 20.7238C233.591 18.7954 232.151 14.5615 231.128 13.0534L225.679 17.354C215.7 9.04933 188.193 -3.2227 157.996 14.1264C156.658 15.8771 153.385 19.9684 150.992 22.3287C150.829 22.4898 150.611 22.6948 150.345 22.9453C145.74 27.2805 126.699 45.2088 125.815 84.0771C118.999 84.3601 103.145 85.6183 94.2566 88.3867C93.1517 86.8519 89.1349 83.4224 81.9067 81.9832C75.2104 72.581 52.4159 58.2307 14.809 76.0473C-22.7979 93.8639 -39.3077 115.081 -42.8617 123.462C-50.216 124.67 -66.1135 131.93 -70.8685 151.314C-89.9326 158.993 -125.024 181.43 -112.874 209.737C-115.428 218.66 -114.141 242.033 -88.5619 264.139C-89.6238 266.483 -91.7606 272.401 -91.8129 277.324C-98.1394 272.12 -115.314 263.776 -133.403 272.034C-141.077 276.761 -155.496 288.721 -151.779 298.749C-166.993 299.809 -198.293 307.316 -201.783 328.857C-202.939 328.384 -206.263 327.64 -210.315 328.451C-218.112 320.63 -241.636 305.796 -273.349 309.027C-280.112 305.816 -301.356 305.799 -332.22 331.416C-335.142 333.709 -336.446 337.782 -318.289 335.729L-305.548 336.336C-303.637 336.428 -374.25 344.917 -409.796 349.151C-408.9 351.094 -404.516 355.103 -394.142 355.598L-372.642 356.623C-364.665 355.104 -346.64 352.163 -338.359 352.558L-250.201 356.762L-195.827 359.354C-181.868 362.3 -150.524 368.082 -136.822 367.641C-129.896 367.418 -120.923 366.864 -111.545 366.285L-111.544 366.285L-111.543 366.285C-97.728 365.432 -83.0348 364.524 -72.7136 364.541L-71.2945 364.543L-71.2938 364.543C-53.8873 364.57 -27.0486 364.611 -20.7285 367.02C-17.8057 373.468 -5.85415 385.994 18.5693 384.514L89.8115 382.439L191.968 377.619C191.652 374.678 185.424 368.528 163.037 367.461L245.178 363.967C261.421 363.639 297.728 363.212 313.007 364.123L317.075 364.365C338.423 365.636 382.867 368.282 388.593 368.982C393.49 369.58 488.006 373.874 534.652 375.947C547.029 378.589 580.367 383.668 614.701 382.842C617.099 384.363 623.078 387.46 627.81 387.686C623.586 388.586 617.626 390.848 627.571 392.691C637.516 394.533 668.04 395.191 682.059 395.289C685.397 392.218 686.445 386.514 663.924 388.268C669.885 375.631 670.454 350.294 625.044 350.044C622.737 339.445 613.314 315.828 594.074 306.155C596.68 296.132 594.048 274.185 562.67 266.577C565.406 254.623 568.914 229.343 561.058 223.86C557.671 220.772 548.766 214.814 540.242 215.685C544.827 204.008 540.263 179.385 485.324 174.302C478.65 171.59 461.322 167.411 445.396 172.398C439.271 161.389 416.644 140.335 375.142 144.193C323.265 149.016 274.588 84.3308 316.998 62.8668C323.013 61.0634 339.381 63.0449 356.74 85.3981C357.933 84.2769 359.06 80.2642 354.016 73.1829C347.711 64.3314 325.049 39.8784 303.224 52.861C293.667 45.2606 268.846 35.0092 246.011 54.8073C241.84 60.1949 234.254 74.2214 237.283 87.2263L236.756 98.2604C226.188 103.115 204.885 117.263 204.221 135.017C185.617 135.422 145.286 143.425 132.786 172.198C120.754 170.294 93.7676 177.064 82.0818 219.375C93.0365 217.58 118.042 215.527 130.427 221.681C145.907 229.374 161.388 239.461 167.8 267.586C167.44 270.343 161.543 267.287 153.836 256.773C150.718 252.52 130.696 250.47 120.945 257.94C120.453 258.317 119.954 258.702 119.447 259.093L119.441 259.097C107.365 268.405 90.5902 281.335 59.972 274.187C56.0968 280.539 44.2435 294.164 27.8325 297.851C7.95856 302.315 7.76059 302.582 4.99918 306.298C4.91028 306.417 4.8187 306.541 4.72374 306.668C4.43409 306.654 4.03227 306.587 3.52558 306.502C-2.53436 305.486 -23.5949 301.955 -47.1782 357.436C-50.7908 351.107 -53.2694 333.591 -34.2833 314.157C-15.2971 294.722 0.0843559 291.587 5.4018 292.449C6.65031 279.815 16.6518 255.452 46.6694 259.073C47.004 250.462 50.5713 232.238 62.1635 228.231C58.087 219.675 56.8052 196.668 84.2895 173.078C81.354 166.895 79.5827 150.804 95.9815 135.898C112.38 120.992 128.776 124.008 134.924 127.38C147.06 107.968 181.438 74.8267 221.855 97.5497C224.881 98.6442 228.563 97.938 219.082 86.3584C215.219 74.127 212.83 43.876 234.183 20.7238ZM-4.65956 13.31C0.518172 24.274 11.4854 40.5452 11.4854 40.5452C19.1991 38.1768 39.3561 33.2404 60.1562 40.7993C60.1562 40.7993 71.6926 52.3092 83.2961 52.8479C94.8996 53.3866 115.269 40.3263 110.382 20.3921C110.154 20.9227 109.927 21.4572 109.699 21.9935C105.849 31.0688 101.792 40.6332 83.9192 39.7809C78.5169 38.3072 68.5724 32.627 72.4218 13.1094C70.4575 9.67135 62.7934 4.6238 47.8512 11.9377C43.1274 15.3608 -4.65956 13.31 -4.65956 13.31ZM177.513 334.062C185.48 329.577 203.8 324.097 213.35 338.051C219.41 332.108 235.318 321.131 250.467 324.772C247.391 312.768 248.927 284.384 279.679 266.879C278.936 250.578 288.423 217.404 332.312 215.119C332.488 214.986 332.735 214.778 333.054 214.51C337.885 210.449 359.072 192.641 394.822 214.452C402.175 210.09 424.125 206.272 453.106 225.896C455.049 226.597 459 226.633 459.26 221.173C452.053 212.924 431.515 196.683 407.022 197.704C405.535 187.448 397.282 170.515 376.169 184.831C366.939 174.358 340.467 156.952 308.416 171.111C275.403 185.696 272.387 207.594 270.905 218.354C270.588 220.652 270.342 222.441 269.888 223.543C268.029 224.659 266.112 225.641 264.175 226.634C255.839 230.906 247.142 235.363 241.199 251.362C240.621 253.919 240.102 260.978 242.649 268.761C225.163 272.032 206.806 291.679 214.24 319.396L210.881 322.884C206.042 319.157 193.934 312.955 184.209 317.964C180.179 319.596 173.197 325.1 177.513 334.062Z" fill="url(#paint5_linear_1105_741)"/>
<path d="M383.451 385.955C418.566 382.157 441.915 386.463 449.201 389.091C445.175 391.27 423.162 392.409 412.659 392.707C416.813 394.045 431.365 397.794 456.334 402.086C481.303 406.378 487.516 409.654 487.502 410.755C483.435 411.549 463.936 413.371 418.469 414.304C373.003 415.237 354.829 409.977 351.426 407.23C338.375 405.962 309.394 403.083 297.876 401.712C283.478 400 286.685 392.514 302.269 390.863C314.737 389.542 361.586 387.041 383.451 385.955Z" fill="#1C4052"/>
<path d="M388.658 391.561C397.238 387.592 431.841 388.148 448.07 388.922C442.835 391.591 422.358 392.56 412.773 392.711L426.705 397.024L398.039 395.657C393.671 395.449 389.965 392.84 388.658 391.561Z" fill="#417E7E"/>
<path d="M348.898 393.314C334.702 392.637 303.346 395.398 289.443 396.863C280.464 401.543 327.606 406.284 352.299 408.069C385.361 418.613 455.965 414.621 487.134 411.307C487.669 409.66 485.917 406.232 474.633 405.694C460.527 405.021 436.173 408.877 432.988 408.725C415.724 403.523 393.034 404.995 383.847 406.381C342.627 406.24 343.373 397.611 348.898 393.314Z" fill="#417E7E"/>
<g opacity="0.5">
<ellipse cx="169.531" cy="114.308" rx="169.531" ry="114.308" transform="matrix(-1 0 0 1 3049.12 72)" fill="#022838"/>
<ellipse cx="169.531" cy="114.308" rx="169.531" ry="114.308" transform="matrix(-1 0 0 1 3049.12 72)" fill="#022838"/>
<ellipse cx="169.531" cy="114.308" rx="169.531" ry="114.308" transform="matrix(-1 0 0 1 3049.12 72)" fill="#022838"/>
<ellipse cx="169.531" cy="114.308" rx="169.531" ry="114.308" transform="matrix(-1 0 0 1 3049.12 72)" fill="#0C293B"/>
<ellipse cx="98.6688" cy="84.7033" rx="98.6688" ry="84.7033" transform="matrix(-1 0 0 1 2758.51 152.59)" fill="#022838"/>
<ellipse cx="98.6688" cy="84.7033" rx="98.6688" ry="84.7033" transform="matrix(-1 0 0 1 2758.51 152.59)" fill="#022838"/>
<ellipse cx="98.6688" cy="84.7033" rx="98.6688" ry="84.7033" transform="matrix(-1 0 0 1 2758.51 152.59)" fill="#022838"/>
<ellipse cx="98.6688" cy="84.7033" rx="98.6688" ry="84.7033" transform="matrix(-1 0 0 1 2758.51 152.59)" fill="#0C293B"/>
<path d="M3011.47 270.513C3011.47 317.473 3055.65 313.702 3110.14 313.702C3164.63 313.702 3208.81 317.473 3208.81 270.513C3208.81 223.554 3164.63 185.485 3110.14 185.485C3055.65 185.485 3011.47 223.554 3011.47 270.513Z" fill="#022838"/>
<path d="M3011.47 270.513C3011.47 317.473 3055.65 313.702 3110.14 313.702C3164.63 313.702 3208.81 317.473 3208.81 270.513C3208.81 223.554 3164.63 185.485 3110.14 185.485C3055.65 185.485 3011.47 223.554 3011.47 270.513Z" fill="#022838"/>
<path d="M3011.47 270.513C3011.47 317.473 3055.65 313.702 3110.14 313.702C3164.63 313.702 3208.81 317.473 3208.81 270.513C3208.81 223.554 3164.63 185.485 3110.14 185.485C3055.65 185.485 3011.47 223.554 3011.47 270.513Z" fill="#022838"/>
<path d="M3011.47 270.513C3011.47 317.473 3055.65 313.702 3110.14 313.702C3164.63 313.702 3208.81 317.473 3208.81 270.513C3208.81 223.554 3164.63 185.485 3110.14 185.485C3055.65 185.485 3011.47 223.554 3011.47 270.513Z" fill="#0C293B"/>
<path d="M2493 302.837C2493 325.845 2658.04 321.021 2859.13 321.021C3060.21 321.021 3242.88 327.949 3242.88 304.942C3242.88 281.934 3064.96 254.566 2863.87 254.566C2662.79 254.566 2493 279.83 2493 302.837Z" fill="#022838"/>
<path d="M2493 302.837C2493 325.845 2658.04 321.021 2859.13 321.021C3060.21 321.021 3242.88 327.949 3242.88 304.942C3242.88 281.934 3064.96 254.566 2863.87 254.566C2662.79 254.566 2493 279.83 2493 302.837Z" fill="#022838"/>
<path d="M2493 302.837C2493 325.845 2658.04 321.021 2859.13 321.021C3060.21 321.021 3242.88 327.949 3242.88 304.942C3242.88 281.934 3064.96 254.566 2863.87 254.566C2662.79 254.566 2493 279.83 2493 302.837Z" fill="#022838"/>
<path d="M2493 302.837C2493 325.845 2658.04 321.021 2859.13 321.021C3060.21 321.021 3242.88 327.949 3242.88 304.942C3242.88 281.934 3064.96 254.566 2863.87 254.566C2662.79 254.566 2493 279.83 2493 302.837Z" fill="#0C293B"/>
</g>
<path style="mix-blend-mode:color-dodge" d="M-0.709064 -5L-8.73462 17.0147L-4.16622 18.6704L4.47668 -5H-0.709064Z" fill="url(#paint6_linear_1105_741)"/>
<path style="mix-blend-mode:color-dodge" d="M403.842 462.648L288.83 777.897L294.402 779.903L409.414 464.654L403.842 462.648Z" fill="url(#paint7_linear_1105_741)"/>
<path style="mix-blend-mode:color-dodge" d="M3130 1645.18L3009.74 1974.79L3017.21 1977.49L3130 1668.43V1645.18Z" fill="url(#paint8_linear_1105_741)"/>
<path style="mix-blend-mode:color-dodge" d="M1493.96 329.943L1519.46 259.974L1520.69 260.403L1495.19 330.372L1493.96 329.943Z" fill="url(#paint9_linear_1105_741)"/>
<path style="mix-blend-mode:color-dodge" d="M1373.21 1990L1435.19 1820.08L1425.8 1816.7L1362.52 1990H1373.21Z" fill="url(#paint10_linear_1105_741)"/>
<path style="mix-blend-mode:color-dodge" d="M2506.55 1185.15L2402.96 1469.1L2407.95 1470.89L2511.54 1186.95L2506.55 1185.15Z" fill="url(#paint11_linear_1105_741)"/>
<path style="mix-blend-mode:color-dodge" d="M2145.76 1990L2301.7 1562.71L2294.17 1560.01L2138.23 1987.36L2145.7 1990H2145.76Z" fill="url(#paint12_linear_1105_741)"/>
<path style="mix-blend-mode:color-dodge" d="M2896.78 1678.84L2802.22 1938.05L2806.8 1939.7L2901.37 1680.49L2896.78 1678.84Z" fill="url(#paint13_linear_1105_741)"/>
<path style="mix-blend-mode:color-dodge" d="M1975.18 1990L2058.59 1761.33L2049.82 1758.14L1965.18 1990H1975.18Z" fill="url(#paint14_linear_1105_741)"/>
<path style="mix-blend-mode:color-dodge" d="M2006.59 606.686L1946.69 770.883L1949.59 771.927L2009.49 607.73L2006.59 606.686Z" fill="url(#paint15_linear_1105_741)"/>
<path style="mix-blend-mode:color-dodge" d="M2616.06 1524.07L2639.21 1460.79L2640.32 1461.22L2617.17 1524.5L2616.06 1524.07Z" fill="url(#paint16_linear_1105_741)"/>
<path style="mix-blend-mode:color-dodge" d="M2359.55 938.199L2385.35 867.556L2386.59 867.985L2360.78 938.628L2359.55 938.199Z" fill="url(#paint17_linear_1105_741)"/>
<path style="mix-blend-mode:color-dodge" d="M1276.71 1438.83L1301.59 1370.64L1302.77 1371.07L1277.89 1439.26L1276.71 1438.83Z" fill="url(#paint18_linear_1105_741)"/>
<path style="mix-blend-mode:color-dodge" d="M1738.22 72.867L1675.18 245.654L1678.2 246.741L1741.24 73.9534L1738.22 72.867Z" fill="url(#paint19_linear_1105_741)"/>
<path style="mix-blend-mode:color-dodge" d="M1554.09 976.813L1441.24 1286.12L1446.7 1288.09L1559.54 978.777L1554.09 976.813Z" fill="url(#paint20_linear_1105_741)"/>
<path style="mix-blend-mode:color-dodge" d="M870.435 -5L858.767 26.8876L860.001 27.3169L871.793 -5H870.435Z" fill="url(#paint21_linear_1105_741)"/>
<path style="mix-blend-mode:color-dodge" d="M550.585 866.575L577.255 793.479L578.551 793.969L551.882 867.004L550.585 866.575Z" fill="url(#paint22_linear_1105_741)"/>
<path style="mix-blend-mode:color-dodge" d="M903.816 1442.2L804.454 1714.55L809.271 1716.29L908.634 1443.93L903.816 1442.2Z" fill="url(#paint23_linear_1105_741)"/>
<path style="mix-blend-mode:color-dodge" d="M2996.96 1990L3060.8 1815.17L3053.39 1812.53L2988.63 1990H2996.96Z" fill="url(#paint24_linear_1105_741)"/>
<path style="mix-blend-mode:color-dodge" d="M281.438 185.951L187.439 443.604L191.966 445.234L285.965 187.581L281.438 185.951Z" fill="url(#paint25_linear_1105_741)"/>
<path style="mix-blend-mode:color-dodge" d="M3005.1 769.119L2924.83 989.124L2928.72 990.524L3008.98 770.518L3005.1 769.119Z" fill="url(#paint26_linear_1105_741)"/>
<path style="mix-blend-mode:color-dodge" d="M1912.77 939.242L1939.07 867.188L1940.36 867.617L1914.07 939.732L1912.77 939.242Z" fill="url(#paint27_linear_1105_741)"/>
<path style="mix-blend-mode:color-dodge" d="M2594.76 36.9338L2562.52 125.253L2564.09 125.818L2596.33 37.4982L2594.76 36.9338Z" fill="url(#paint28_linear_1105_741)"/>
<path style="mix-blend-mode:color-dodge" d="M2990.91 111.083L3028.45 8.18433L3030.3 8.79755L2992.7 111.758L2990.91 111.083Z" fill="url(#paint29_linear_1105_741)"/>
</g>
<defs>
<linearGradient id="paint0_linear_1105_741" x1="1488" y1="-65.5" x2="1470.5" y2="1149" gradientUnits="userSpaceOnUse">
<stop stop-color="#113045"/>
<stop offset="0.3525" stop-color="#1E5378"/>
<stop offset="0.7291" stop-color="#2A77AB"/>
</linearGradient>
<linearGradient id="paint1_linear_1105_741" x1="411.794" y1="573.2" x2="768.065" y2="933.355" gradientUnits="userSpaceOnUse">
<stop stop-color="#0F5563"/>
<stop offset="1" stop-color="#3489A9"/>
</linearGradient>
<linearGradient id="paint2_linear_1105_741" x1="2559.79" y1="124.2" x2="2916.06" y2="484.355" gradientUnits="userSpaceOnUse">
<stop stop-color="#0F5563"/>
<stop offset="1" stop-color="#3489A9"/>
</linearGradient>
<linearGradient id="paint3_linear_1105_741" x1="3058.96" y1="-65.1614" x2="2083.21" y2="1586.21" gradientUnits="userSpaceOnUse">
<stop stop-color="#767E7F" stop-opacity="0.5"/>
<stop offset="0.9999" stop-color="#6CCBD8" stop-opacity="0"/>
</linearGradient>
<linearGradient id="paint4_linear_1105_741" x1="1526.5" y1="1037" x2="1526.5" y2="1986" gradientUnits="userSpaceOnUse">
<stop stop-color="#74B8C3"/>
<stop offset="0.425" stop-color="#3A8EA5"/>
<stop offset="1" stop-color="#006387"/>
</linearGradient>
<linearGradient id="paint5_linear_1105_741" x1="145.285" y1="35.022" x2="409.502" y2="302.119" gradientUnits="userSpaceOnUse">
<stop stop-color="#0F5563"/>
<stop offset="1" stop-color="#3489A9"/>
</linearGradient>
<linearGradient id="paint6_linear_1105_741" x1="-25.3268" y1="-16.9039" x2="143.672" y2="-72.8747" gradientUnits="userSpaceOnUse">
<stop stop-color="#454545"/>
<stop offset="0.08" stop-color="#3D3D3D"/>
<stop offset="0.47" stop-color="#1B1B1B"/>
<stop offset="0.79" stop-color="#070707"/>
<stop offset="1"/>
</linearGradient>
<linearGradient id="paint7_linear_1105_741" x1="234.349" y1="625.502" x2="437.198" y2="558.281" gradientUnits="userSpaceOnUse">
<stop stop-color="#454545"/>
<stop offset="0.08" stop-color="#3D3D3D"/>
<stop offset="0.47" stop-color="#1B1B1B"/>
<stop offset="0.79" stop-color="#070707"/>
<stop offset="1"/>
</linearGradient>
<linearGradient id="paint8_linear_1105_741" x1="2958.26" y1="1809.2" x2="3232.06" y2="1718.51" gradientUnits="userSpaceOnUse">
<stop stop-color="#454545"/>
<stop offset="0.08" stop-color="#3D3D3D"/>
<stop offset="0.47" stop-color="#1B1B1B"/>
<stop offset="0.79" stop-color="#070707"/>
<stop offset="1"/>
</linearGradient>
<linearGradient id="paint9_linear_1105_741" x1="1474.56" y1="272.281" x2="1519.59" y2="257.369" gradientUnits="userSpaceOnUse">
<stop stop-color="#454545"/>
<stop offset="0.08" stop-color="#3D3D3D"/>
<stop offset="0.47" stop-color="#1B1B1B"/>
<stop offset="0.79" stop-color="#070707"/>
<stop offset="1"/>
</linearGradient>
<linearGradient id="paint10_linear_1105_741" x1="1099.16" y1="1962.99" x2="1442.75" y2="1849.2" gradientUnits="userSpaceOnUse">
<stop stop-color="#454545"/>
<stop offset="0.08" stop-color="#3D3D3D"/>
<stop offset="0.47" stop-color="#1B1B1B"/>
<stop offset="0.79" stop-color="#070707"/>
<stop offset="1"/>
</linearGradient>
<linearGradient id="paint11_linear_1105_741" x1="2357.47" y1="1322.95" x2="2540.18" y2="1262.4" gradientUnits="userSpaceOnUse">
<stop stop-color="#454545"/>
<stop offset="0.08" stop-color="#3D3D3D"/>
<stop offset="0.47" stop-color="#1B1B1B"/>
<stop offset="0.79" stop-color="#070707"/>
<stop offset="1"/>
</linearGradient>
<linearGradient id="paint12_linear_1105_741" x1="2071.34" y1="1784.67" x2="2346.31" y2="1693.6" gradientUnits="userSpaceOnUse">
<stop stop-color="#454545"/>
<stop offset="0.08" stop-color="#3D3D3D"/>
<stop offset="0.47" stop-color="#1B1B1B"/>
<stop offset="0.79" stop-color="#070707"/>
<stop offset="1"/>
</linearGradient>
<linearGradient id="paint13_linear_1105_741" x1="2760.21" y1="1799.56" x2="2926.99" y2="1744.29" gradientUnits="userSpaceOnUse">
<stop stop-color="#454545"/>
<stop offset="0.08" stop-color="#3D3D3D"/>
<stop offset="0.47" stop-color="#1B1B1B"/>
<stop offset="0.79" stop-color="#070707"/>
<stop offset="1"/>
</linearGradient>
<linearGradient id="paint14_linear_1105_741" x1="1754.28" y1="1919.45" x2="2075.89" y2="1812.94" gradientUnits="userSpaceOnUse">
<stop stop-color="#454545"/>
<stop offset="0.08" stop-color="#3D3D3D"/>
<stop offset="0.47" stop-color="#1B1B1B"/>
<stop offset="0.79" stop-color="#070707"/>
<stop offset="1"/>
</linearGradient>
<linearGradient id="paint15_linear_1105_741" x1="1916.52" y1="674.182" x2="2022.18" y2="639.168" gradientUnits="userSpaceOnUse">
<stop stop-color="#454545"/>
<stop offset="0.08" stop-color="#3D3D3D"/>
<stop offset="0.47" stop-color="#1B1B1B"/>
<stop offset="0.79" stop-color="#070707"/>
<stop offset="1"/>
</linearGradient>
<linearGradient id="paint16_linear_1105_741" x1="2598.59" y1="1463.88" x2="2639.31" y2="1450.4" gradientUnits="userSpaceOnUse">
<stop stop-color="#454545"/>
<stop offset="0.08" stop-color="#3D3D3D"/>
<stop offset="0.47" stop-color="#1B1B1B"/>
<stop offset="0.79" stop-color="#070707"/>
<stop offset="1"/>
</linearGradient>
<linearGradient id="paint17_linear_1105_741" x1="2341.45" y1="877.102" x2="2386.94" y2="862.037" gradientUnits="userSpaceOnUse">
<stop stop-color="#454545"/>
<stop offset="0.08" stop-color="#3D3D3D"/>
<stop offset="0.47" stop-color="#1B1B1B"/>
<stop offset="0.79" stop-color="#070707"/>
<stop offset="1"/>
</linearGradient>
<linearGradient id="paint18_linear_1105_741" x1="1254.78" y1="1379.53" x2="1298.66" y2="1365" gradientUnits="userSpaceOnUse">
<stop stop-color="#454545"/>
<stop offset="0.08" stop-color="#3D3D3D"/>
<stop offset="0.47" stop-color="#1B1B1B"/>
<stop offset="0.79" stop-color="#070707"/>
<stop offset="1"/>
</linearGradient>
<linearGradient id="paint19_linear_1105_741" x1="1644.25" y1="147.464" x2="1755.42" y2="110.625" gradientUnits="userSpaceOnUse">
<stop stop-color="#454545"/>
<stop offset="0.08" stop-color="#3D3D3D"/>
<stop offset="0.47" stop-color="#1B1B1B"/>
<stop offset="0.79" stop-color="#070707"/>
<stop offset="1"/>
</linearGradient>
<linearGradient id="paint20_linear_1105_741" x1="1390.05" y1="1132.46" x2="1589.08" y2="1066.5" gradientUnits="userSpaceOnUse">
<stop stop-color="#454545"/>
<stop offset="0.08" stop-color="#3D3D3D"/>
<stop offset="0.47" stop-color="#1B1B1B"/>
<stop offset="0.79" stop-color="#070707"/>
<stop offset="1"/>
</linearGradient>
<linearGradient id="paint21_linear_1105_741" x1="843.066" y1="-13.7004" x2="887.318" y2="-28.356" gradientUnits="userSpaceOnUse">
<stop stop-color="#454545"/>
<stop offset="0.08" stop-color="#3D3D3D"/>
<stop offset="0.47" stop-color="#1B1B1B"/>
<stop offset="0.79" stop-color="#070707"/>
<stop offset="1"/>
</linearGradient>
<linearGradient id="paint22_linear_1105_741" x1="526.964" y1="808.193" x2="573.999" y2="792.615" gradientUnits="userSpaceOnUse">
<stop stop-color="#454545"/>
<stop offset="0.08" stop-color="#3D3D3D"/>
<stop offset="0.47" stop-color="#1B1B1B"/>
<stop offset="0.79" stop-color="#070707"/>
<stop offset="1"/>
</linearGradient>
<linearGradient id="paint23_linear_1105_741" x1="755.275" y1="1575.58" x2="930.521" y2="1517.51" gradientUnits="userSpaceOnUse">
<stop stop-color="#454545"/>
<stop offset="0.08" stop-color="#3D3D3D"/>
<stop offset="0.47" stop-color="#1B1B1B"/>
<stop offset="0.79" stop-color="#070707"/>
<stop offset="1"/>
</linearGradient>
<linearGradient id="paint24_linear_1105_741" x1="2804.22" y1="1933.42" x2="3074.09" y2="1844.04" gradientUnits="userSpaceOnUse">
<stop stop-color="#454545"/>
<stop offset="0.08" stop-color="#3D3D3D"/>
<stop offset="0.47" stop-color="#1B1B1B"/>
<stop offset="0.79" stop-color="#070707"/>
<stop offset="1"/>
</linearGradient>
<linearGradient id="paint25_linear_1105_741" x1="140.752" y1="314.797" x2="306.527" y2="259.862" gradientUnits="userSpaceOnUse">
<stop stop-color="#454545"/>
<stop offset="0.08" stop-color="#3D3D3D"/>
<stop offset="0.47" stop-color="#1B1B1B"/>
<stop offset="0.79" stop-color="#070707"/>
<stop offset="1"/>
</linearGradient>
<linearGradient id="paint26_linear_1105_741" x1="2890.02" y1="868.049" x2="3031.6" y2="821.13" gradientUnits="userSpaceOnUse">
<stop stop-color="#454545"/>
<stop offset="0.08" stop-color="#3D3D3D"/>
<stop offset="0.47" stop-color="#1B1B1B"/>
<stop offset="0.79" stop-color="#070707"/>
<stop offset="1"/>
</linearGradient>
<linearGradient id="paint27_linear_1105_741" x1="1893.2" y1="878.451" x2="1939.58" y2="863.092" gradientUnits="userSpaceOnUse">
<stop stop-color="#454545"/>
<stop offset="0.08" stop-color="#3D3D3D"/>
<stop offset="0.47" stop-color="#1B1B1B"/>
<stop offset="0.79" stop-color="#070707"/>
<stop offset="1"/>
</linearGradient>
<linearGradient id="paint28_linear_1105_741" x1="2545.09" y1="58.5443" x2="2601.94" y2="39.7162" gradientUnits="userSpaceOnUse">
<stop stop-color="#454545"/>
<stop offset="0.08" stop-color="#3D3D3D"/>
<stop offset="0.47" stop-color="#1B1B1B"/>
<stop offset="0.79" stop-color="#070707"/>
<stop offset="1"/>
</linearGradient>
<linearGradient id="paint29_linear_1105_741" x1="2972.12" y1="38.1883" x2="3038.33" y2="16.2619" gradientUnits="userSpaceOnUse">
<stop stop-color="#454545"/>
<stop offset="0.08" stop-color="#3D3D3D"/>
<stop offset="0.47" stop-color="#1B1B1B"/>
<stop offset="0.79" stop-color="#070707"/>
<stop offset="1"/>
</linearGradient>
<clipPath id="clip0_1105_741">
<rect width="3024" height="1964" fill="white"/>
</clipPath>
<clipPath id="clip1_1105_741">
<rect width="1855" height="138" fill="white" transform="translate(-39 913)"/>
</clipPath>
<clipPath id="clip2_1105_741">
<rect width="1855" height="138" fill="white" transform="translate(1784 913)"/>
</clipPath>
<clipPath id="clip3_1105_741">
<rect width="1855" height="138" fill="white" transform="translate(-200 1116)"/>
</clipPath>
<clipPath id="clip4_1105_741">
<rect width="1855" height="138" fill="white" transform="translate(1623 1116)"/>
</clipPath>
<clipPath id="clip5_1105_741">
<rect width="1855" height="138" fill="white" transform="translate(-274 1325)"/>
</clipPath>
<clipPath id="clip6_1105_741">
<rect width="1855" height="138" fill="white" transform="translate(1549 1325)"/>
</clipPath>
</defs>
</svg>
