<svg width="2445" height="1365" viewBox="0 0 2445 1365" fill="none" xmlns="http://www.w3.org/2000/svg">
<path fill-rule="evenodd" clip-rule="evenodd" d="M2445 0L0 36.6941V229.793L135.89 275.45L0 321.108V510.535L63.3472 531.819L0 553.103V1326.86L2358.15 1364.04L2360.59 1325.72L2231.46 1282.34L2366.24 1237.05L2437.43 118.95L2367.35 95.4045L2440.49 70.8297L2445 0Z" fill="url(#paint0_linear_4023_152)"/>
<g style="mix-blend-mode:multiply" opacity="0.4">
<path d="M2400.42 731.617L1935.54 762.397H2399.57L2400.42 731.617Z" fill="#A53719"/>
</g>
<path d="M704 140.5L3.27237e-05 152L3.37291e-05 129L704 140.5Z" fill="#D38242"/>
<g style="mix-blend-mode:multiply" opacity="0.4">
<path d="M2376.01 1126L2377 1106L1 1110.47L1.55847 1121.53L2376.01 1126Z" fill="#A53719"/>
</g>
<path fill-rule="evenodd" clip-rule="evenodd" d="M2309.48 110.082H207.771L197.628 358.254L295.279 380.64L195.781 403.449L185.744 649.023L363.453 671.257L183.918 693.72L163 1205.52L2180.76 1295.06L2263.64 532.019L2183.81 513.717L2267.72 494.481L2293.25 259.453L2237.74 237.778L2298.17 214.182L2309.48 110.082Z" fill="#F8E2BF"/>
<ellipse cx="293.77" cy="184.68" rx="19.8666" ry="19.1048" fill="#7F7061"/>
<ellipse cx="2162.89" cy="201.459" rx="18.2111" ry="17.5127" fill="#7F7061"/>
<ellipse cx="2090.05" cy="1207.65" rx="18.2111" ry="17.5127" fill="#7F7061"/>
<g style="mix-blend-mode:multiply" opacity="0.4">
<path d="M379.449 1234.98C209.979 1233.62 71.6811 1233.35 0.600586 1233.32L1.27987 1257.34C77.8052 1256.15 226.281 1254.68 363.157 1258.15C609.364 1264.39 654.133 1272 418.592 1314.8C700.112 1301.1 676.359 1237.35 379.438 1234.98H379.449Z" fill="#A53719"/>
</g>
<path d="M1793.84 209.275C1820.18 184.91 1876.79 182.461 1876.21 133.795C1875.5 79.7145 1919.81 94.9909 1919.81 94.9909C1919.81 94.9909 1945.19 146.428 1971.4 135.922C1997.55 125.415 2046.04 94.5397 2046.24 124.448C2046.43 154.357 1998.32 201.089 1998.32 201.089C1998.32 201.089 2081.92 291.008 2056.03 312.15C2030.2 333.292 1944.22 276.376 1944.22 276.376C1944.22 276.376 1902.23 379.186 1868.8 374.868C1848 372.16 1868.1 249.046 1868.1 249.046C1868.1 249.046 1788.11 280.888 1775.03 246.725C1771.04 236.283 1778.9 213.271 1793.97 209.21L1793.84 209.275Z" fill="#EFB7CB"/>
<mask id="mask0_4023_152" style="mask-type:luminance" maskUnits="userSpaceOnUse" x="1774" y="93" width="288" height="282">
<path d="M1793.94 209.275C1820.31 184.91 1876.97 182.461 1876.39 133.795C1875.68 79.7145 1920.04 94.9909 1920.04 94.9909C1920.04 94.9909 1945.43 146.428 1971.67 135.922C1997.85 125.415 2046.39 94.5397 2046.58 124.448C2046.77 154.357 1998.62 201.089 1998.62 201.089C1998.62 201.089 2082.3 291.008 2056.38 312.15C2030.53 333.292 1944.47 276.376 1944.47 276.376C1944.47 276.376 1902.44 379.186 1868.98 374.868C1848.16 372.16 1868.27 249.046 1868.27 249.046C1868.27 249.046 1788.2 280.888 1775.12 246.725C1771.12 236.283 1778.98 213.271 1794.07 209.21L1793.94 209.275Z" fill="white"/>
</mask>
<g mask="url(#mask0_4023_152)">
<path d="M1948.4 297.067C1983.15 314.857 2021.83 323.881 2060.89 322.399C2067.86 322.141 2073.79 316.662 2073.79 309.507C2073.79 302.739 2067.86 296.358 2060.89 296.616C2026.4 297.969 1992.17 290.557 1961.42 274.829C1955.23 271.671 1947.43 273.218 1943.76 279.47C1940.41 285.207 1942.15 293.909 1948.4 297.131V297.067Z" fill="#DE8C8F"/>
<path d="M1752.68 223.005C1749.2 233.834 1751.52 246.145 1758.03 255.363C1765.51 265.934 1776.41 271.928 1789.23 273.346C1802.06 274.764 1813.47 271.348 1824.63 266.643C1830.56 264.129 1836.23 261.293 1842.03 258.521C1844.42 257.361 1846.8 256.201 1849.32 255.234C1850.54 254.718 1852.02 254.46 1853.18 253.816C1855.51 252.462 1853.7 254.847 1851.12 252.978L1846.48 248.337C1846.48 243.889 1846.22 242.664 1845.58 244.792C1845.26 245.758 1844.87 246.661 1844.48 247.628C1843.64 249.69 1842.81 251.753 1842.03 253.816C1840.55 257.619 1839 261.422 1837.52 265.225C1834.36 273.153 1831.2 281.081 1828.04 289.01C1821.73 304.866 1815.41 320.723 1809.15 336.58C1806.58 343.026 1811.99 350.76 1818.18 352.436C1825.53 354.435 1831.46 349.922 1834.04 343.412C1841.97 323.43 1849.96 303.384 1857.89 283.402C1862.02 273.089 1866.59 262.84 1870.2 252.333C1874.14 240.924 1868.2 228.548 1855.44 227.775C1845.9 227.194 1836.55 232.673 1828.24 236.67C1819.47 240.86 1810.89 245.372 1801.29 247.305C1795.1 248.53 1787.43 248.208 1782.72 244.469C1777.63 240.408 1776.02 235.058 1777.7 229.837C1779.82 223.198 1775.18 215.785 1768.67 213.981C1761.71 212.047 1754.94 216.366 1752.81 223.005H1752.68Z" fill="#DE8C8F"/>
<path d="M1806.19 226.679C1810.31 226.679 1810.31 220.233 1806.19 220.233C1802.06 220.233 1802.06 226.679 1806.19 226.679Z" fill="#DE8C8F"/>
<path d="M1809.03 201.798C1813.15 201.798 1813.15 195.352 1809.03 195.352C1804.9 195.352 1804.9 201.798 1809.03 201.798Z" fill="#DE8C8F"/>
<path d="M1935.06 295.133C1939.18 295.133 1939.18 288.688 1935.06 288.688C1930.93 288.688 1930.93 295.133 1935.06 295.133Z" fill="#DE8C8F"/>
<path d="M1861.5 311.441C1865.63 311.441 1865.63 304.995 1861.5 304.995C1857.37 304.995 1857.37 311.441 1861.5 311.441Z" fill="#DE8C8F"/>
<path d="M1876.13 379.187C1880.26 379.187 1880.26 372.741 1876.13 372.741C1872.01 372.741 1872.01 379.187 1876.13 379.187Z" fill="#DE8C8F"/>
<path d="M1878 377.317C1882.13 377.317 1882.13 370.871 1878 370.871C1873.88 370.871 1873.88 377.317 1878 377.317Z" fill="#DE8C8F"/>
<path d="M1916.04 98.665C1920.16 98.665 1920.16 92.2192 1916.04 92.2192C1911.91 92.2192 1911.91 98.665 1916.04 98.665Z" fill="#DE8C8F"/>
<path d="M1877.49 116.907C1881.61 116.907 1881.61 110.461 1877.49 110.461C1873.36 110.461 1873.36 116.907 1877.49 116.907Z" fill="#DE8C8F"/>
<path d="M2001.2 197.544C2005.32 197.544 2005.32 191.098 2001.2 191.098C1997.07 191.098 1997.07 197.544 2001.2 197.544Z" fill="#DE8C8F"/>
<path d="M1961.55 138.887C1965.68 138.887 1965.68 132.441 1961.55 132.441C1957.43 132.441 1957.43 138.887 1961.55 138.887Z" fill="#DE8C8F"/>
<path d="M2031.05 121.548C2035.17 121.548 2035.17 115.102 2031.05 115.102C2026.92 115.102 2026.92 121.548 2031.05 121.548Z" fill="#DE8C8F"/>
<path d="M2003.91 242.407C2008.03 242.407 2008.03 235.961 2003.91 235.961C1999.78 235.961 1999.78 242.407 2003.91 242.407Z" fill="#DE8C8F"/>
<path d="M1963.36 171.632C1965.42 171.632 1965.42 168.409 1963.36 168.409C1961.29 168.409 1961.29 171.632 1963.36 171.632Z" fill="#DE8C8F"/>
<path d="M1911.27 162.801C1913.33 162.801 1913.33 159.578 1911.27 159.578C1909.21 159.578 1909.21 162.801 1911.27 162.801Z" fill="#DE8C8F"/>
<path d="M1901.4 123.675C1903.47 123.675 1903.47 120.452 1901.4 120.452C1899.34 120.452 1899.34 123.675 1901.4 123.675Z" fill="#DE8C8F"/>
<path d="M1871.49 206.246C1873.56 206.246 1873.56 203.023 1871.49 203.023C1869.43 203.023 1869.43 206.246 1871.49 206.246Z" fill="#DE8C8F"/>
<path d="M1850.99 197.479C1853.06 197.479 1853.06 194.256 1850.99 194.256C1848.93 194.256 1848.93 197.479 1850.99 197.479Z" fill="#DE8C8F"/>
<path d="M1940.15 177.24C1942.21 177.24 1942.21 174.017 1940.15 174.017C1938.09 174.017 1938.09 177.24 1940.15 177.24Z" fill="#DE8C8F"/>
<path d="M1896.44 286.045C1898.5 286.045 1898.5 282.822 1896.44 282.822C1894.38 282.822 1894.38 286.045 1896.44 286.045Z" fill="#DE8C8F"/>
<path d="M1876.65 258.843C1878.71 258.843 1878.71 255.62 1876.65 255.62C1874.59 255.62 1874.59 258.843 1876.65 258.843Z" fill="#DE8C8F"/>
<path d="M2011.71 275.86C2013.77 275.86 2013.77 272.637 2011.71 272.637C2009.64 272.637 2009.64 275.86 2011.71 275.86Z" fill="#DE8C8F"/>
<path d="M2015.06 298.034C2017.12 298.034 2017.12 294.811 2015.06 294.811C2013 294.811 2013 298.034 2015.06 298.034Z" fill="#DE8C8F"/>
<path d="M1951.82 246.79C1953.88 246.79 1953.88 243.567 1951.82 243.567C1949.75 243.567 1949.75 246.79 1951.82 246.79Z" fill="#DE8C8F"/>
<path d="M1909.01 220.233C1911.07 220.233 1911.07 217.01 1909.01 217.01C1906.95 217.01 1906.95 220.233 1909.01 220.233Z" fill="#DE8C8F"/>
<path d="M2009.26 135.922C2011.32 135.922 2011.32 132.699 2009.26 132.699C2007.19 132.699 2007.19 135.922 2009.26 135.922Z" fill="#DE8C8F"/>
<path d="M2029.43 162.865C2031.5 162.865 2031.5 159.642 2029.43 159.642C2027.37 159.642 2027.37 162.865 2029.43 162.865Z" fill="#DE8C8F"/>
<path d="M1965.29 151.005C1967.35 151.005 1967.35 147.782 1965.29 147.782C1963.23 147.782 1963.23 151.005 1965.29 151.005Z" fill="#DE8C8F"/>
<path d="M1953.62 201.605C1955.69 201.605 1955.69 198.382 1953.62 198.382C1951.56 198.382 1951.56 201.605 1953.62 201.605Z" fill="#DE8C8F"/>
</g>
<defs>
<linearGradient id="paint0_linear_4023_152" x1="1222.5" y1="0" x2="1222.5" y2="1364.04" gradientUnits="userSpaceOnUse">
<stop stop-color="#E1C395"/>
<stop offset="1" stop-color="#C59955"/>
</linearGradient>
</defs>
</svg>
