<svg width="1000" height="1000" viewBox="0 0 1000 1000" fill="none" xmlns="http://www.w3.org/2000/svg">
<path d="M849.676 762.128C849.837 761.976 850.099 761.728 850.462 762.09C850.644 762.281 850.704 762.643 850.624 762.929C850.563 763.216 850.422 763.483 850.22 763.692C849.999 763.902 849.737 764.15 849.132 764.207C848.789 764.207 848.527 764.265 847.922 763.902C847.801 763.845 847.599 763.654 847.599 763.654H847.539H847.519L847.297 763.368L847.156 763.196C846.793 762.681 846.692 761.938 846.793 761.384C846.894 760.812 847.116 760.373 847.418 759.973C847.599 759.763 847.7 759.61 848.043 759.362C848.224 759.21 848.466 759.076 848.688 758.962C849.132 758.733 849.716 758.561 850.281 758.542C851.47 758.466 852.579 758.886 853.386 759.458C854.192 760.03 854.837 760.793 855.221 761.823C855.402 762.338 855.523 762.872 855.523 763.597C855.523 763.998 855.362 764.665 855.362 764.608V764.684L855.221 765.047L855.059 765.428C854.192 767.24 852.539 768.099 851.309 768.385C850.019 768.69 848.89 768.557 847.942 768.213L845.825 767.469L845.765 766.859C845.624 765.314 846.047 764.036 847.075 763.502C848.083 762.948 849.474 763.254 850.785 764.169L848.607 762.796C848.769 762.567 848.91 762.357 848.91 762.224C848.87 762.128 848.95 762.319 849.031 762.433C849.112 762.567 849.192 762.681 849.293 762.796C849.474 763.006 849.656 763.12 849.656 763.12C849.515 763.044 850.866 763.769 850.301 763.463V763.406V763.33C850.341 763.158 850.2 763.273 850.16 763.33C850.039 763.368 849.878 763.349 849.757 763.406C849.515 763.483 849.555 763.54 849.757 763.33C849.958 763.139 850.12 762.777 850.099 762.662C850.099 762.605 850.099 762.586 850.099 762.662V762.701H850.12C849.757 761.804 850.019 762.453 849.938 762.262V762.281V762.319C849.938 762.319 849.918 762.357 849.938 762.376C850.019 762.395 849.999 762.433 849.999 762.414C849.958 762.3 849.394 762.166 849.495 762.224C849.132 762.357 849.394 762.262 849.313 762.281C849.313 762.281 849.313 762.376 849.313 762.338C849.293 762.338 849.313 762.281 849.313 762.243C849.313 762.128 849.273 762.033 849.293 762.071C849.313 762.166 849.616 762.338 849.575 762.281C849.575 762.281 849.535 762.281 849.495 762.319C849.414 762.395 849.636 762.185 849.676 762.128Z" fill="#EED394"/>
<path d="M843.181 707.402C843.605 707.326 844.008 707.574 844.089 707.956C844.169 708.337 843.907 708.738 843.504 708.814C843.08 708.89 842.677 708.642 842.597 708.261C842.516 707.86 842.778 707.479 843.181 707.402Z" fill="#EED394"/>
<path d="M850.56 821.032C850.257 819.907 850.419 818.953 851.729 818.533C852.979 818.114 854.128 818.934 854.451 820.422C854.713 821.604 854.128 822.653 853.08 822.901C851.991 823.149 850.902 822.348 850.56 821.032Z" fill="#EED394"/>
<path d="M828.607 666.219C829.353 666.944 829.957 667.401 830.3 667.993C830.401 668.164 829.695 668.737 829.353 669.137C828.808 668.66 828.203 668.241 827.78 667.668C827.659 667.516 828.163 666.963 828.607 666.238V666.219Z" fill="#EED394"/>
<circle opacity="0.25" cx="501.5" cy="499.5" r="386.5" fill="#E2FDFF"/>
<path d="M720 789L724.266 801.438H738.07L726.902 809.125L731.168 821.562L720 813.875L708.832 821.562L713.098 809.125L701.93 801.438H715.734L720 789Z" fill="#8DD9DE"/>
<path d="M357 115L360.143 124.328H370.315L362.086 130.093L365.229 139.422L357 133.657L348.771 139.422L351.914 130.093L343.685 124.328H353.857L357 115Z" fill="#8DD9DE"/>
<path d="M328 825L334.511 843.311H355.581L338.535 854.628L345.046 872.939L328 861.622L310.954 872.939L317.465 854.628L300.419 843.311H321.489L328 825Z" fill="#8DD9DE"/>
<path d="M852.5 657L859.123 676.348H880.556L863.217 688.305L869.84 707.652L852.5 695.695L835.16 707.652L841.783 688.305L824.444 676.348H845.877L852.5 657Z" fill="#8DD9DE"/>
<path d="M570.5 842L577.123 861.348H598.556L581.217 873.305L587.84 892.652L570.5 880.695L553.16 892.652L559.783 873.305L542.444 861.348H563.877L570.5 842Z" fill="#8DD9DE"/>
<path d="M679.5 139L685.45 155.929L704.703 155.929L689.127 166.392L695.076 183.321L679.5 172.858L663.924 183.321L669.873 166.392L654.297 155.929L673.55 155.929L679.5 139Z" fill="#8DD9DE"/>
<path d="M889 478L895.062 495.275H914.679L898.808 505.951L904.87 523.225L889 512.549L873.13 523.225L879.192 505.951L863.321 495.275H882.938L889 478Z" fill="#8DD9DE"/>
<path d="M821.5 287L828.572 307.039L851.458 307.039L832.943 319.423L840.015 339.461L821.5 327.077L802.985 339.461L810.057 319.423L791.542 307.039L814.428 307.039L821.5 287Z" fill="#8DD9DE"/>
<path d="M494 94L501.858 115.766H527.287L506.714 129.218L514.572 150.984L494 137.532L473.428 150.984L481.286 129.218L460.713 115.766H486.142L494 94Z" fill="#8DD9DE"/>
<path d="M249.5 174L256.123 190.929L277.556 190.929L260.217 201.392L266.84 218.321L249.5 207.858L232.16 218.321L238.783 201.392L221.444 190.929L242.877 190.929L249.5 174Z" fill="#8DD9DE"/>
<path d="M412 870L416.266 882.092L430.07 882.092L418.902 889.566L423.168 901.658L412 894.184L400.832 901.658L405.098 889.566L393.93 882.092L407.734 882.092L412 870Z" fill="#8DD9DE"/>
<path d="M771 188L775.266 200.092L789.07 200.092L777.902 207.566L782.168 219.658L771 212.184L759.832 219.658L764.098 207.566L752.93 200.092L766.734 200.092L771 188Z" fill="#8DD9DE"/>
<path d="M186 727L193.633 749.111H218.336L198.351 762.777L205.985 784.889L186 771.223L166.015 784.889L173.649 762.777L153.664 749.111H178.367L186 727Z" fill="#8DD9DE"/>
<path d="M159 278L166.184 298.384H189.434L170.625 310.982L177.809 331.366L159 318.768L140.191 331.366L147.375 310.982L128.566 298.384H151.816L159 278Z" fill="#8DD9DE"/>
<path d="M116 420L120.266 432.092L134.07 432.092L122.902 439.566L127.168 451.658L116 444.184L104.832 451.658L109.098 439.566L97.9299 432.092L111.734 432.092L116 420Z" fill="#8DD9DE"/>
<path d="M123 578L129.511 596.311H150.581L133.535 607.628L140.046 625.939L123 614.622L105.954 625.939L112.465 607.628L95.4194 596.311H116.489L123 578Z" fill="#8DD9DE"/>
<path d="M970.532 500.815C970.532 500.719 970.632 500.548 970.975 500.509C971.318 500.452 971.862 500.643 972.225 501.082C972.568 501.539 972.87 502.112 972.649 503.008C972.507 503.504 972.145 503.943 971.641 504.172L971.257 504.324L970.834 504.248C970.552 504.21 970.27 504.076 970.007 503.905C968.999 503.123 968.999 502.283 969.04 501.597C969.12 500.91 969.443 500.338 969.866 499.956C970.29 499.575 970.814 499.479 971.116 499.518C971.439 499.594 971.56 499.708 971.54 499.823C971.499 500.071 971.036 500.242 970.854 500.719C970.753 500.948 970.693 501.291 970.713 501.654C970.713 501.997 970.975 502.436 970.975 502.398C970.975 502.398 970.975 502.455 971.036 502.417C971.116 502.322 971.157 501.883 971.076 501.673C970.995 501.177 970.592 501.024 970.511 500.776L970.532 500.815Z" fill="#EED394"/>
<path d="M974.504 386.498C974.847 386.974 975.331 387.413 975.492 387.947C975.553 388.157 974.928 388.558 974.625 388.863C974.182 388.443 973.617 388.1 973.375 387.604C973.194 387.241 973.456 386.688 973.536 386.23C973.859 386.326 974.182 386.402 974.504 386.498Z" fill="#EED394"/>
<ellipse cx="499.5" cy="500.5" rx="386.5" ry="386.5" fill="url(#paint0_radial_4018_628)" fill-opacity="0.5" style="mix-blend-mode:color-dodge"/>
<path d="M557.812 116.355C557.701 116.322 557.648 116.027 557.649 115.489C557.639 115.387 557.668 115.157 557.697 114.926C557.712 114.811 557.732 114.678 557.752 114.544C557.835 114.47 557.981 114.454 558.119 114.396C558.766 114.192 558.995 114.102 559.572 113.997C560.511 113.761 562.423 113.979 563.112 115.78C563.485 116.689 563.002 117.958 562.002 118.394C561.046 118.823 560.174 118.7 559.375 118.539C558.563 118.354 557.85 118.04 557.177 117.658C556.524 117.282 555.719 116.602 555.611 115.553C555.503 114.505 556.246 113.712 556.865 113.401C557.513 113.058 558.238 112.997 558.822 113.134C559.962 113.437 560.539 114.069 560.901 114.476C561.257 114.902 561.395 115.183 561.312 115.258C561.223 115.35 560.932 115.243 560.479 115.007C560.02 114.789 559.347 114.407 558.618 114.347C557.986 114.236 557.037 114.907 557.223 115.361C557.208 115.815 558.595 116.571 559.751 116.82C560.336 116.956 560.959 116.964 561.242 116.83C561.495 116.727 561.627 116.488 561.545 116.224C561.37 115.534 560.496 115.151 559.673 115.202C559.312 115.193 558.699 115.288 558.63 115.247C558.519 115.214 558.447 115.252 558.438 115.349C558.398 115.416 558.357 115.483 558.295 115.624C558.066 116.113 557.91 116.365 557.775 116.344L557.812 116.355Z" fill="#8DD9DE"/>
<path d="M909.867 600.11C909.675 600.211 909.363 600.376 909.134 599.929C909.023 599.696 909.072 599.332 909.228 599.081C909.366 598.824 909.573 598.607 909.818 598.462C910.082 598.322 910.394 598.157 910.966 598.269C911.281 598.364 911.538 598.382 911.989 598.896C912.083 598.984 912.213 599.223 912.213 599.223L912.269 599.239L912.287 599.245L912.408 599.58L912.488 599.784C912.673 600.377 912.551 601.117 912.299 601.619C912.042 602.139 911.712 602.498 911.318 602.798C911.091 602.949 910.955 603.067 910.569 603.21C910.358 603.306 910.098 603.367 909.861 603.415C909.388 603.511 908.802 603.514 908.278 603.376C907.164 603.121 906.267 602.412 905.692 601.642C905.116 600.871 904.744 599.962 904.689 598.87C904.671 598.326 904.714 597.781 904.923 597.087C905.039 596.704 905.379 596.109 905.363 596.164L905.385 596.091L905.619 595.783L905.877 595.462C907.195 593.967 908.96 593.602 910.172 593.668C911.444 593.732 912.442 594.172 913.213 594.763L914.942 596.06L914.821 596.661C914.506 598.18 913.748 599.286 912.65 599.514C911.566 599.765 910.376 599.088 909.437 597.849L911.04 599.766C910.826 599.941 910.636 600.102 910.598 600.23C910.607 600.333 910.588 600.128 910.547 599.996C910.512 599.846 910.471 599.714 910.411 599.576C910.305 599.325 910.171 599.166 910.171 599.166C910.279 599.278 909.248 598.21 909.678 598.659L909.662 598.713L909.64 598.786C909.553 598.94 909.716 598.869 909.769 598.825C909.891 598.822 910.034 598.885 910.161 598.864C910.405 598.858 910.385 598.792 910.139 598.937C909.899 599.064 909.647 599.366 909.632 599.481C909.616 599.536 909.61 599.554 909.632 599.481L909.643 599.445L909.625 599.439C909.699 600.398 909.646 599.705 909.665 599.91L909.67 599.891L909.681 599.855C909.681 599.855 909.711 599.824 909.698 599.8C909.629 599.759 909.659 599.728 909.653 599.747C909.657 599.867 910.137 600.151 910.061 600.069C910.433 600.041 910.165 600.06 910.244 600.064C910.244 600.064 910.272 599.973 910.261 600.009C910.279 600.015 910.244 600.064 910.233 600.101C910.2 600.21 910.21 600.313 910.202 600.271C910.211 600.174 909.983 599.926 910.003 599.992C910.003 599.992 910.041 600.003 910.089 599.977C910.185 599.927 909.92 600.066 909.867 600.11Z" fill="#8DD9DE"/>
<path d="M785.509 507.628C785.369 507.625 785.247 507.628 785.088 507.62C785.027 507.622 784.966 507.624 784.881 507.638C784.881 507.638 784.814 507.658 784.737 507.714C784.659 507.77 784.626 507.88 784.648 507.807C784.689 507.739 784.625 507.481 784.633 507.523L786.966 507.349C787.288 508.024 787.473 508.817 787.483 509.656L784.398 508.17C784.398 508.17 784.431 508.06 784.416 507.976C784.404 507.813 784.315 507.706 784.372 507.784C784.406 507.873 784.597 507.911 784.662 508.03C784.846 507.886 784.274 508.112 784.329 508.129C784.329 508.129 784.451 507.927 784.46 507.83C784.659 507.571 784.261 507.013 784.277 506.559C784.298 506.088 784.128 505.578 784.806 505.205C785.313 504.86 786.275 504.751 787.232 505.258C787.717 505.524 788.201 505.928 788.589 506.583C788.777 506.899 788.937 507.305 789.007 507.745C789.035 507.853 789.039 507.973 789.043 508.094L789.049 508.275L789.064 508.359L789.053 508.396L789.029 508.608L789.052 508.734C789.046 508.753 789.052 508.734 789.054 508.795L789.02 509.043C788.768 510.282 788.307 510.94 787.597 511.623C786.909 512.233 786.026 512.684 784.918 512.809C784.231 512.88 783.47 512.791 782.789 512.506L779.973 511.399L780.488 508.885C780.656 508.059 780.998 507.325 781.474 506.751L782.41 504.982C783.666 504.164 784.885 504.472 785.446 504.82C786.076 505.209 786.381 505.739 786.501 506.213C786.707 507.271 786 507.676 785.491 507.622L785.509 507.628Z" fill="#8DD9DE"/>
<path d="M787.171 535.36C786.815 535.133 786.51 534.404 787.449 533.631C788.416 532.966 790.12 532.941 791.558 534.131C791.928 534.442 792.266 534.862 792.56 535.429C792.686 535.746 792.798 535.979 792.87 536.478C792.896 536.725 792.917 536.991 792.901 537.245C792.896 537.462 792.907 537.426 792.917 537.528C792.779 539.06 791.938 540.242 790.829 541.043C789.725 541.826 788.496 542.154 787.189 542.138C786.473 542.102 785.959 542.067 784.987 541.675L784.739 541.56L784.683 541.543L784.404 541.399L784.198 541.278C783.924 541.116 783.655 540.935 783.392 540.736C781.244 538.954 780.748 536.912 780.521 535.39L780.063 532.483L782.225 531.739C785.529 530.622 788.032 532.233 788.821 533.566L789.536 534.678C789.654 535.291 789.215 536.214 788.716 536.463C788.249 536.74 787.894 536.713 787.637 536.695C787.12 536.6 786.789 536.36 786.546 536.028C786.284 535.691 786.305 535.219 786.487 535.015C786.639 534.981 786.804 534.97 786.963 534.979C787.079 534.994 787.405 535.052 787.229 535.099C787.203 535.051 787.192 535.088 787.286 534.976C787.38 534.865 787.396 534.611 787.395 534.75C787.397 534.81 787.432 534.961 787.508 535.043C787.584 535.126 787.601 535.071 787.431 535.1L786.78 536.457C786.003 536.622 785.152 537.103 785.002 537.536L786.725 533.891C787.117 534.666 787.651 535.305 787.762 535.339L787.781 535.344L787.202 536.126L787.269 536.107C787.354 536.092 787.476 536.089 787.524 536.064C787.368 535.778 787.523 535.665 787.489 535.575C787.483 535.394 787.492 535.835 787.737 536.228C787.847 536.4 788.004 536.547 788.067 536.606L788.141 536.628L788.104 536.617C788.328 536.744 787.606 536.328 788.621 536.912L788.654 536.803C788.741 536.649 788.151 536.93 787.967 537.074C787.736 537.303 787.972 537.056 788.027 536.873C788.139 536.568 788.135 536.248 788.094 536.116C788.073 536.05 788.099 536.098 788.029 535.997C787.977 535.901 787.882 535.813 787.777 535.761C787.595 535.627 787.341 535.531 787.165 535.378L787.171 535.36Z" fill="#8DD9DE"/>
<path d="M782.84 406.005C782.793 405.692 782.927 405.314 783.402 405.079C783.858 404.838 784.697 404.732 785.675 405.305L788.161 406.771L784.268 408.368C783.371 408.735 782.195 409.019 780.809 409.199L777.616 409.612L778.173 405.616C778.334 404.41 779.197 403.155 780.225 402.489C781.259 401.804 782.379 401.504 783.575 401.486C784.742 401.498 786.126 401.796 787.416 402.941C787.692 403.164 788.112 403.648 788.398 404.173C788.599 404.512 788.554 404.459 788.606 404.554L788.658 404.65L788.684 404.697L788.703 404.703L788.837 405.062L788.826 405.098C789.116 405.943 789.21 406.907 789.018 407.746C788.495 410.019 787.098 411.172 785.619 411.862C784.15 412.516 782.013 412.709 780.199 411.425C778.798 410.446 778.05 408.707 778.085 407.383C778.102 406.053 778.56 405.135 779.032 404.44C780.006 403.08 781.192 402.561 782.056 402.442C782.956 402.335 783.486 402.654 783.659 403.085C784 403.964 783.395 405.236 783.594 406.452C783.616 406.578 783.657 406.71 783.715 406.787C783.73 406.871 783.993 406.87 783.565 406.881C783.273 406.913 783.159 406.958 783.111 406.983C783.183 406.945 783.111 406.983 783.242 406.883C783.295 406.84 783.325 406.809 783.336 406.772L783.341 406.754C783.467 406.672 782.337 407.408 782.815 407.094L782.86 407.147L782.949 407.253L783.038 407.36C783.038 407.36 783.03 407.318 783.012 407.312C782.986 407.264 782.906 407.26 782.917 407.224C782.945 407.133 782.961 407.078 782.95 406.915C782.947 406.655 782.845 406.326 782.78 406.206C782.72 406.069 782.703 406.124 782.893 406.3C783.063 406.471 783.411 406.656 783.62 406.699C783.835 406.723 783.761 406.701 783.694 406.721C783.814 406.996 783.666 406.413 783.701 406.564C783.692 406.66 783.774 406.725 783.678 406.776C783.464 406.95 783.266 407.608 783.288 407.734C783.305 407.879 783.291 407.456 783.054 407.106C782.84 406.743 782.557 406.677 782.798 406.75L781.172 403.432C782.535 403.802 783.649 404.257 784.495 404.731L783.124 407.744C783.236 407.639 783.283 407.215 783.146 406.934C783.043 406.604 782.869 406.313 782.827 405.982L782.84 406.005Z" fill="#8DD9DE"/>
<path d="M869.335 684.383C868.967 684.532 868.459 684.478 868.072 683.884C867.705 683.295 867.594 682.186 868.328 681.092C868.689 680.563 869.286 679.986 870.279 679.707C870.484 679.629 871.02 679.592 871.246 679.58L871.397 679.546L871.434 679.557L871.44 679.539L871.71 679.58L871.924 679.605C872.526 679.686 873.109 679.962 873.596 680.288C874.597 680.987 875.239 681.938 875.534 683.102C875.822 684.225 875.706 685.883 874.517 687.219L874.023 687.787L873.112 688.13C871.368 688.76 869.533 688.487 868.101 687.677C866.649 686.802 865.403 685.51 865.141 683.16C865.068 682.6 865.252 681.182 865.764 680.42C866.267 679.555 866.933 679.019 867.568 678.652C868.852 677.943 870.131 677.85 871.364 678.181C872.596 678.513 873.62 679.538 873.852 680.444L874.097 681.036C873.747 682.066 873.225 682.726 872.516 682.871C871.806 683.016 871.035 682.624 870.288 681.822L870.851 682.23C871.084 682.061 870.825 682.183 870.791 682.631C870.709 683.104 870.953 683.436 870.744 683.055C870.61 682.696 869.685 682.417 870.544 682.715C870.562 682.522 870.802 682.594 871.003 682.396C871.206 682.257 871.346 682.061 871.352 682.042C871.342 681.94 871.195 682.632 871.323 682.81L871.082 684.013C871.082 684.013 870.667 683.848 870.528 683.906C870.371 683.958 870.661 683.866 870.82 683.675C870.885 683.595 870.931 683.509 870.925 683.527C871.14 683.552 870.944 683.533 870.981 683.544L870.84 683.542C870.84 683.542 870.951 683.575 870.935 683.63C870.946 683.793 871.1 684.018 871.15 684.053C871.306 684.14 870.758 683.816 870.443 683.92C870.066 683.966 869.74 684.246 869.354 684.389L869.335 684.383Z" fill="#8DD9DE"/>
<path d="M787.326 699.712C787.267 699.574 787.309 699.368 787.621 699.203C787.927 699.056 788.493 698.987 789.078 699.323C789.371 699.491 789.673 699.761 789.883 700.203C789.935 700.298 789.989 700.454 790.019 700.622C790.046 700.869 790.058 700.694 790.074 700.977C790.071 701.255 790.015 701.577 789.895 701.84C789.651 702.384 789.195 702.824 788.63 703.092C788.07 703.342 787.231 703.448 786.416 703.003L786.018 702.784L785.798 702.24C785.478 701.426 785.625 700.534 786.019 699.896C786.456 699.25 787.003 698.638 788.27 698.522C788.605 698.483 789.293 698.61 789.686 698.848C790.139 699.084 790.48 699.426 790.731 699.801C791.238 700.531 791.518 701.611 790.981 702.724L790.569 703.557L789.613 703.647C789.157 703.689 788.687 703.707 788.226 703.628C785.522 703.292 783.521 701.355 782.916 699.34L782.353 697.457L784.065 697.335C786.064 697.2 787.52 697.997 788.276 698.703C789.04 699.451 789.171 700.088 788.951 700.281C788.527 700.751 786.706 699.625 784.554 700.271L785.702 698.267C786.202 699.154 787.336 700.013 788.587 700.151C788.801 700.176 789.003 700.177 789.186 700.172L788.483 701.434C788.483 701.434 787.995 701.447 788.093 701.456C788.148 701.473 788.439 701.043 788.266 701.15C788.355 701.256 788.524 701.566 788.509 701.482C788.464 701.429 788.12 701.365 788.128 701.407L787.69 700.917C787.69 700.917 787.733 700.571 787.702 700.542C787.733 700.571 787.747 700.595 787.915 700.706C787.989 700.728 788.026 700.739 788.026 700.739C788.012 700.854 788.033 700.582 788 700.691C787.989 700.728 787.936 700.772 787.978 700.764C788.045 700.745 788.054 700.648 788.044 700.545C787.956 700.1 787.547 699.917 787.404 699.655L787.326 699.712Z" fill="#8DD9DE"/>
<path d="M668.593 787.73C668.816 787.797 668.987 788.167 668.818 788.794C668.655 789.402 668.11 790.274 667.017 790.821C666.003 791.373 664.199 791.666 662.593 790.565C661.818 790.053 661.224 789.276 660.859 788.41C660.692 787.961 660.561 787.523 660.501 786.987C660.473 786.341 660.499 785.652 660.704 785.036C660.836 784.598 661.055 784.205 661.287 783.837L661.622 783.261L662.249 783.19L662.87 783.138L663.557 783.206C663.906 783.251 664.262 783.278 664.593 783.318C665.991 783.5 667.305 783.697 668.507 783.859C668.385 785.137 668.233 786.446 668.091 787.121C667.968 787.661 667.825 788.136 667.667 788.527C667.37 789.314 667.079 789.744 666.761 789.728C666.442 789.712 666.177 789.254 665.955 788.45C665.85 788.059 665.736 787.567 665.662 787.007C665.574 786.562 665.473 786.631 665.397 786.548C665.287 786.575 665.215 786.613 665.167 786.639L665.156 786.675C665.156 786.675 665.095 786.677 664.955 786.674L664.295 786.655L663.976 786.639L663.965 786.675C663.964 786.814 664.007 787.007 664.061 787.162C664.169 787.474 664.325 787.76 664.509 787.955C664.834 788.351 665.474 788.504 666.101 788.434C667.38 788.341 668.073 787.514 668.554 787.659L668.593 787.73Z" fill="#8DD9DE"/>
<path d="M623.256 217.256C623.355 216.927 624.475 216.826 625.837 217.934C626.497 218.491 627.173 219.332 627.553 220.482C627.633 220.686 627.773 221.226 627.8 221.672C627.846 222.124 627.862 222.607 627.804 223.068C627.688 223.989 627.374 224.831 627.059 225.812C626.024 225.56 625.018 225.416 623.853 224.926C622.52 224.326 622.062 223.969 621.41 223.453C621.008 223.113 620.527 222.63 620.11 222.205C620.074 221.657 620.05 221.132 620.087 220.605C620.154 220.047 620.297 219.573 620.457 219.242C620.775 218.521 621.257 217.929 621.784 217.45C622.852 216.517 624.316 216.081 625.606 216.29L627.123 216.548L626.913 217.78C626.312 221.184 624.322 222.497 623.949 222.126C623.449 221.776 624.253 220.046 624.08 217.604L625.387 219.093C624.968 219.146 624.493 219.382 624.098 219.821C623.91 220.043 623.754 220.295 623.677 220.55C623.578 220.879 623.657 220.684 623.64 220.738C623.659 220.744 623.609 220.709 623.69 220.773C624.917 221.661 624.38 221.3 624.606 221.487C624.667 221.486 624.841 221.578 624.832 221.137C624.766 220.42 624.537 219.773 624.269 219.254C623.758 218.204 623.122 217.634 623.274 217.262L623.256 217.256Z" fill="#8DD9DE"/>
<path d="M846.22 351.381C846.249 351.151 846.577 350.931 847.216 351.024C847.835 351.111 848.706 351.572 849.308 352.59C849.599 353.096 849.834 353.725 849.829 354.48C849.823 355.235 849.554 356.13 848.966 356.81C848.378 357.489 847.563 357.981 846.659 358.167C845.719 358.342 844.835 358.395 843.655 357.821C843.376 357.677 843.125 357.502 842.881 357.308L842.523 357.021C842.44 356.897 842.404 356.747 842.339 356.627C842.238 356.358 842.082 356.072 842.019 355.814C841.968 355.579 841.914 355.424 841.871 355.232C841.712 354.486 841.706 353.768 841.788 353.095C841.932 351.744 842.464 350.649 843.061 349.872C844.303 348.294 845.634 348.097 845.866 348.466C846.167 348.875 845.59 349.718 845.274 351.037C845.118 351.687 844.985 352.464 845.043 353.278C845.063 353.682 845.119 354.098 845.242 354.494C845.276 354.583 845.317 354.715 845.343 354.763C845.343 354.763 845.713 354.874 845.918 354.797C846.186 354.778 846.402 354.663 846.552 354.569C846.84 354.417 847.046 354.001 846.985 353.464C846.925 352.391 846.149 351.818 846.194 351.334L846.22 351.381Z" fill="#8DD9DE"/>
<path d="M346.561 185.621C346.585 185.409 346.863 185.154 347.402 185.177C347.927 185.176 348.743 185.481 349.367 186.227C349.977 186.948 350.503 188.083 350.246 189.54C350.112 190.256 349.716 191.033 349.057 191.612C348.399 192.19 347.512 192.521 346.676 192.548C344.274 192.682 342.15 190.887 342.056 188.787L341.995 187.513L342.939 187.26C344.719 186.78 345.922 187.68 346.371 188.333C346.859 189.058 346.7 189.587 346.422 189.703C346.14 189.837 345.762 189.683 345.309 189.647C344.88 189.597 344.266 189.691 344.086 189.956L344.969 188.429C345.103 188.588 345.223 188.724 345.503 188.868C345.764 189.007 346.158 189.106 346.426 189.087C346.809 189.023 346.87 189.021 347.075 188.744C347.261 188.461 347.28 187.929 347.204 187.508C347.097 186.659 346.506 186.142 346.532 185.652L346.561 185.621Z" fill="#8DD9DE"/>
<path d="M430.704 123.584C430.496 123.202 430.819 122.463 431.915 122.176C432.931 121.884 434.774 122.2 435.827 123.931L436.312 124.735L435.898 125.506L435.72 125.831C435.031 126.978 433.828 127.353 432.985 127.338C432.118 127.336 431.392 126.998 430.895 126.57C429.86 125.581 430.263 124.646 430.688 124.575C431.148 124.455 431.703 124.622 432.088 124.419C432.274 124.335 432.498 124.263 432.634 124.145C432.706 124.107 432.747 124.039 432.752 124.021C432.778 124.069 432.93 124.234 432.886 124.181L432.746 125.653C432.626 125.378 432.257 124.928 431.825 124.619C431.423 124.278 430.909 124.044 430.693 123.62L430.704 123.584Z" fill="#8DD9DE"/>
<path d="M333.905 110.595C333.777 110.417 333.778 110.079 334.19 109.784C334.601 109.49 335.406 109.433 336.133 109.832C336.5 110.022 336.876 110.314 337.173 110.802C337.322 111.046 337.449 111.363 337.496 111.676C337.535 111.947 337.545 112.249 337.494 112.552C337.379 113.135 337.17 113.63 336.439 114.047C335.787 114.469 334.726 114.707 333.583 114.482C332.628 114.234 331.853 113.722 331.408 113.19C330.944 112.652 330.799 112.13 330.562 111.64C330.854 110.872 331.362 109.989 332.053 109.639C332.723 109.223 333.387 109.164 333.848 109.243C334.867 109.411 335.157 110.056 334.984 110.362C334.819 110.711 334.416 110.908 334.171 111.253C333.823 111.606 333.944 111.941 334.092 111.986C334.184 112.014 334.184 112.014 334.19 111.996C334.19 111.996 334.197 112.038 334.319 112.035C334.338 112.04 334.368 112.009 334.392 111.997L334.41 112.002C334.926 111.898 334.562 111.968 334.671 111.941L334.634 111.93C334.634 111.93 334.495 111.988 334.471 112.001C334.519 111.975 334.534 111.86 334.543 111.763C334.524 111.558 334.491 111.329 334.363 111.151C334.241 110.955 333.993 110.841 333.857 110.62L333.905 110.595Z" fill="#8DD9DE"/>
<path d="M119.636 280.944C119.553 280.481 120.18 279.873 121.467 279.623C122.092 279.492 122.885 279.472 123.732 279.608C125.022 279.817 126.514 280.625 127.759 281.318C128.281 281.595 128.489 281.777 126.104 280.581C125.512 280.402 124.859 279.688 123.93 280.424C123.749 280.489 123.439 280.715 123.358 280.65L123.043 280.556L122.51 280.515C122.166 280.451 122.078 280.544 121.844 280.314C121.768 280.232 121.608 280.024 121.597 280.061L121.544 280.104C121.836 280.073 121.919 279.799 122.795 279.903C123.467 280.086 123.679 280.389 123.851 280.62C124.173 281.095 124.266 281.522 124.216 282.024C124.21 282.58 123.553 283.02 123.268 282.894C123.117 282.789 123.039 282.646 123.017 282.52C122.981 282.37 123.025 282.224 123.112 282.07C123.054 281.993 123.136 282.257 123.103 282.167C123.14 282.178 122.979 282.11 122.772 282.127C122.493 282.183 122.511 282.188 122.432 282.184C122.376 282.168 122.297 282.164 122.249 282.189C122.171 282.245 122.313 282.109 122.418 281.961C122.499 281.826 122.591 281.655 122.6 281.558C122.606 281.54 122.617 281.503 122.622 281.485L122.628 281.466C122.808 283.413 122.688 282.003 122.715 282.449L122.752 282.46C122.752 282.46 122.861 282.433 122.832 282.464C122.821 282.501 122.81 282.537 122.804 282.556C123.029 282.882 122.971 282.805 122.947 282.818C122.929 282.812 123.075 282.796 122.93 282.673C122.355 282.44 121.829 282.242 121.383 282.048C120.461 281.691 119.742 281.395 119.665 280.913L119.636 280.944Z" fill="#8DD9DE"/>
<path d="M744.433 551.197C744.31 551 744.271 550.73 744.499 550.44C744.728 550.15 745.263 549.913 745.902 550.005C746.527 550.074 747.197 550.396 747.696 551.084C747.94 551.416 748.174 551.845 748.236 552.442C748.305 553.02 748.157 553.712 747.753 554.248L747.513 554.575L747.201 554.74L746.943 554.861C745.107 555.663 743.471 554.792 742.881 553.937C742.228 553.023 742.501 552.249 742.93 552.099C743.388 551.918 743.917 552.038 744.385 551.959C744.836 551.936 745.307 551.779 745.438 551.679L745.457 551.684L745.405 552.525C745.524 552.601 745.479 552.548 745.315 552.558C745.222 552.53 744.801 552.722 744.927 552.64C744.991 552.56 745.004 552.385 744.992 552.222C745.102 551.856 744.718 551.522 744.407 551.149L744.433 551.197Z" fill="#8DD9DE"/>
<path d="M452.67 829.614C452.836 829.464 453.208 829.437 453.631 829.843C454.035 830.244 454.405 831.092 454.256 832.123C454.129 833.081 453.475 834.517 451.664 834.968C450.778 835.16 449.828 835.033 448.998 834.504C448.131 833.964 447.466 833.087 447.19 832.127C446.972 831.444 446.961 830.743 447.124 830.135C447.263 829.539 447.648 828.998 447.889 828.533C449.256 828.147 450.697 828.123 451.88 828.619C452.717 828.99 453.308 829.507 453.698 830.023C454.472 831.072 454.365 831.897 454.016 832.051C453.643 832.217 453.094 831.893 452.341 831.646C451.952 831.529 451.527 831.401 451.049 831.377C450.911 831.435 450.859 831.539 450.88 831.605C450.9 831.67 450.956 831.687 450.956 831.687C450.787 831.577 451.178 832.292 451.882 831.428C452.459 830.785 452.366 830.02 452.678 829.656L452.67 829.614Z" fill="#8DD9DE"/>
<path d="M493.606 771.698C493.662 771.914 493.537 772.195 493.151 772.338C492.783 772.486 492.195 772.429 491.713 772.085C491.231 771.74 490.988 771.209 491.029 770.803C491.052 770.392 491.277 770.18 491.503 770.169C491.998 770.198 492.41 770.442 492.747 770.663C493.054 770.915 493.425 771.226 493.611 771.68L493.606 771.698Z" fill="#8DD9DE"/>
<path d="M924.925 660.323C924.897 660.414 924.755 660.551 924.43 660.493C924.099 660.453 923.654 660.12 923.447 659.599C923.265 659.066 923.152 658.435 923.614 657.637C923.887 657.202 924.346 656.882 924.875 656.802L925.271 656.762L925.637 656.952C925.885 657.066 926.106 657.272 926.297 657.509C926.997 658.536 926.755 659.34 926.52 659.987C926.248 660.622 925.787 661.081 925.288 661.329C924.79 661.577 924.281 661.524 924.014 661.403C923.74 661.241 923.662 661.098 923.714 660.994C923.822 660.768 924.297 660.732 924.601 660.325C924.76 660.134 924.914 659.822 925 659.469C925.099 659.14 924.985 658.648 924.974 658.684C924.974 658.684 924.991 658.63 924.924 658.649C924.823 658.718 924.659 659.127 924.673 659.351C924.604 659.848 924.93 660.105 924.932 660.365L924.925 660.323Z" fill="#8DD9DE"/>
<path d="M499.626 151.585C499.515 151.552 499.389 151.434 499.471 151.16C499.496 150.809 500.265 150.603 500.639 150.835C501.01 150.946 501.54 151.464 501.695 152.089C501.869 152.719 501.516 153.489 500.749 153.756C500.368 153.881 499.991 153.926 499.573 153.84C499.277 153.751 499.023 153.655 498.81 153.491C498.41 153.211 498.167 152.879 497.992 152.588C497.685 151.997 497.762 151.542 497.967 151.464C498.196 151.374 498.502 151.566 498.918 151.791C499.124 151.912 499.354 152.021 499.576 152.088C499.687 152.122 499.779 152.15 499.877 152.159C499.848 152.19 500.081 152.22 499.973 151.909C499.973 151.909 499.952 151.843 499.958 151.825L500.013 151.642C499.935 151.499 500.031 151.648 499.987 151.594C499.876 151.561 499.732 151.637 499.608 151.58L499.626 151.585Z" fill="#8DD9DE"/>
<path d="M805.281 257.458C805.28 257.06 807.023 256.768 809.398 256.726L808.665 258.019C808.474 257.782 808.235 257.571 807.9 257.41C806.894 256.928 805.632 257.166 804.96 257.521C804.226 257.878 803.921 258.423 803.662 258.345C803.466 258.326 803.297 257.478 804.182 256.55C805.003 255.701 806.812 254.991 808.678 255.832C809.28 256.112 809.784 256.583 810.107 257.118L810.96 258.511L809.38 258.394C807.029 258.224 805.288 257.839 805.305 257.446L805.281 257.458Z" fill="#8DD9DE"/>
<path d="M556.361 857.387C556.012 857.741 555.04 857.348 553.935 856.996C552.841 856.607 551.837 856.324 551.778 855.848C551.695 855.385 552.972 854.833 554.491 855.35C556.011 855.868 556.699 857.071 556.361 857.387Z" fill="#8DD9DE"/>
<path d="M388.329 237.501C388.218 237.468 388.092 237.35 388.175 237.076C388.2 236.725 388.968 236.519 389.342 236.751C389.713 236.862 390.243 237.38 390.398 238.005C390.572 238.635 390.219 239.405 389.452 239.672C389.071 239.797 388.694 239.842 388.276 239.756C387.98 239.667 387.726 239.571 387.513 239.407C387.113 239.127 386.851 238.79 386.695 238.504C386.389 237.913 386.465 237.458 386.67 237.38C386.899 237.29 387.205 237.482 387.621 237.707C387.827 237.828 388.057 237.937 388.279 238.004C388.39 238.038 388.482 238.065 388.58 238.075C388.551 238.106 388.784 238.136 388.676 237.825L388.655 237.759L388.71 237.576C388.632 237.433 388.729 237.582 388.684 237.529C388.573 237.495 388.429 237.571 388.305 237.514L388.329 237.501Z" fill="#8DD9DE"/>
<path d="M465.688 187.942C465.278 187.898 464.979 187.549 465.015 187.162C465.056 186.756 465.407 186.463 465.799 186.501C466.21 186.545 466.508 186.894 466.472 187.282C466.431 187.688 466.08 187.981 465.688 187.942Z" fill="#8DD9DE"/>
<path d="M426.915 133.159C426.504 133.115 426.205 132.766 426.241 132.379C426.283 131.973 426.633 131.68 427.026 131.718C427.436 131.762 427.735 132.111 427.699 132.499C427.658 132.905 427.307 133.197 426.915 133.159Z" fill="#8DD9DE"/>
<path d="M405.563 213.585C405.153 213.541 404.854 213.192 404.89 212.804C404.931 212.399 405.282 212.106 405.674 212.144C406.085 212.188 406.383 212.537 406.347 212.924C406.306 213.33 405.955 213.623 405.563 213.585Z" fill="#8DD9DE"/>
<path d="M384.645 233.583C384.235 233.539 383.936 233.19 383.972 232.802C384.013 232.397 384.364 232.104 384.756 232.142C385.148 232.18 385.465 232.535 385.429 232.923C385.388 233.328 385.037 233.621 384.645 233.583Z" fill="#8DD9DE"/>
<path d="M643.712 265.766C643.301 265.723 643.002 265.374 643.038 264.986C643.08 264.58 643.43 264.287 643.823 264.326C644.233 264.37 644.532 264.719 644.496 265.106C644.454 265.512 644.104 265.805 643.712 265.766Z" fill="#8DD9DE"/>
<path d="M320.548 217.251C320.137 217.207 319.838 216.858 319.874 216.47C319.916 216.065 320.266 215.772 320.658 215.81C321.069 215.854 321.368 216.203 321.332 216.591C321.29 216.996 320.94 217.289 320.548 217.251Z" fill="#8DD9DE"/>
<path d="M281.145 149.929C280.735 149.885 280.436 149.536 280.472 149.148C280.513 148.742 280.864 148.449 281.256 148.488C281.667 148.532 281.965 148.881 281.929 149.268C281.888 149.674 281.537 149.967 281.145 149.929Z" fill="#8DD9DE"/>
<path d="M900.052 654.307C899.641 654.264 899.342 653.915 899.378 653.527C899.414 653.139 899.77 652.828 900.162 652.867C900.573 652.911 900.872 653.26 900.836 653.647C900.794 654.053 900.444 654.346 900.052 654.307Z" fill="#8DD9DE"/>
<path d="M864.77 645.239C864.36 645.195 864.061 644.846 864.097 644.459C864.138 644.053 864.489 643.76 864.881 643.798C865.273 643.837 865.59 644.191 865.554 644.579C865.513 644.985 865.162 645.278 864.77 645.239Z" fill="#8DD9DE"/>
<path d="M829.141 622.778C828.731 622.734 828.432 622.385 828.468 621.998C828.509 621.592 828.86 621.299 829.252 621.337C829.663 621.381 829.962 621.73 829.926 622.118C829.884 622.524 829.534 622.817 829.141 622.778Z" fill="#8DD9DE"/>
<path d="M814.149 658.624C813.738 658.58 813.44 658.231 813.476 657.843C813.517 657.438 813.868 657.145 814.26 657.183C814.671 657.227 814.969 657.576 814.933 657.964C814.892 658.369 814.541 658.662 814.149 658.624Z" fill="#8DD9DE"/>
<path d="M819.64 328.438C819.412 330.6 817.427 332.234 815.254 332.077C812.945 331.9 811.259 329.858 811.498 327.52C811.718 325.315 813.637 323.702 815.842 323.888C818.132 324.059 819.876 326.178 819.64 328.438Z" fill="#8DD9DE"/>
<path d="M307.74 879.007C305.55 878.905 303.814 877.028 303.87 874.833C303.924 872.439 305.778 870.707 308.122 870.834C310.33 870.942 312.077 872.782 312.04 874.983C312.019 877.267 310.028 879.118 307.74 879.007Z" fill="#8DD9DE"/>
<path d="M733.76 862.532C736.059 862.806 737.644 864.917 737.325 867.251C737.013 869.428 734.994 870.972 732.835 870.7C730.676 870.429 728.989 868.387 729.163 866.268C729.346 864.052 731.54 862.262 733.76 862.532Z" fill="#8DD9DE"/>
<path d="M600.246 161.462C598.091 161.311 596.347 159.391 596.392 157.233C596.461 154.924 598.411 153.14 600.744 153.305C602.978 153.459 604.633 155.272 604.566 157.503C604.486 159.85 602.541 161.615 600.246 161.462Z" fill="#8DD9DE"/>
<path d="M191.231 683.486C188.942 683.176 187.376 681.071 187.714 678.742C188.026 676.565 190.064 675.027 192.236 675.322C194.524 675.633 196.166 677.821 195.795 680.06C195.451 682.207 193.366 683.77 191.231 683.486Z" fill="#8DD9DE"/>
<path d="M189.46 733.551C187.202 733.409 185.378 731.286 185.585 729.058C185.788 726.908 187.742 725.245 189.921 725.383C192.161 725.52 193.815 727.332 193.749 729.564C193.663 731.928 191.774 733.71 189.46 733.551Z" fill="#8DD9DE"/>
<path d="M692.263 211.318C692.54 208.991 694.585 207.496 696.96 207.852C699.177 208.201 700.652 210.139 700.384 212.369C700.115 214.539 698.17 216.105 695.952 215.895C693.636 215.676 691.973 213.622 692.263 211.318Z" fill="#8DD9DE"/>
<path d="M385.739 195.086C385.851 192.769 387.87 191.027 390.173 191.222C392.335 191.415 394.068 193.371 393.987 195.518C393.897 197.761 391.83 199.53 389.508 199.329C387.261 199.15 385.636 197.306 385.745 195.068L385.739 195.086Z" fill="#8DD9DE"/>
<path d="M524.937 873.386C522.627 873.148 520.983 871.099 521.278 868.778C521.564 866.553 523.439 865.086 525.713 865.312C528.084 865.548 529.684 867.544 529.383 869.883C529.095 872.048 527.131 873.608 524.919 873.38L524.937 873.386Z" fill="#8DD9DE"/>
<path d="M698.054 297.008C698.213 294.805 700.106 293.144 702.301 293.227C704.534 293.321 706.442 295.43 706.278 297.651C706.108 299.891 703.968 301.637 701.7 301.393C699.493 301.147 697.89 299.23 698.054 297.008Z" fill="#8DD9DE"/>
<path d="M820.316 392.766C820.198 395.101 818.204 396.832 815.906 396.618C813.744 396.425 812.03 394.475 812.111 392.328C812.201 390.084 814.268 388.316 816.589 388.517C818.855 388.701 820.449 390.515 820.316 392.766Z" fill="#8DD9DE"/>
<path d="M594.138 807.745C594.289 805.499 596.086 803.889 598.337 803.989C600.668 804.093 602.493 806.077 602.336 808.34C602.19 810.567 600.039 812.35 597.771 812.105C595.582 811.865 593.961 809.942 594.12 807.739L594.138 807.745Z" fill="#8DD9DE"/>
<path d="M600.943 887.982C601.092 885.676 603.105 883.952 605.403 884.165C607.578 884.382 609.237 886.316 609.102 888.506C608.96 890.854 607.012 892.498 604.64 892.262C602.367 892.036 600.816 890.215 600.943 887.982Z" fill="#8DD9DE"/>
<path d="M800.086 528.411C800.25 526.19 802.102 524.596 804.348 524.714C806.752 524.841 808.427 526.719 808.237 529.093C808.04 531.424 806.025 533.088 803.726 532.814C801.561 532.561 799.919 530.572 800.104 528.417L800.086 528.411Z" fill="#8DD9DE"/>
<path d="M357.849 153.7C359.657 153.866 360.587 154.664 360.511 155.856C360.438 157.169 359.192 157.89 357.466 157.589C356.987 157.504 356.411 157.471 356.115 157.182C355.616 156.693 354.881 155.914 355.006 155.434C355.161 154.783 355.948 154.184 356.581 153.757C356.909 153.537 357.507 153.697 357.849 153.7Z" fill="#8DD9DE"/>
<path d="M521.606 903.159C520.252 903.03 519.36 902.104 519.476 900.983C519.6 899.766 520.928 898.572 521.996 898.714C523.087 898.844 524.123 900.231 524.041 901.442C523.972 902.676 523.077 903.303 521.606 903.159Z" fill="#8DD9DE"/>
<path d="M315.385 728.577C313.732 728.438 312.417 727.106 312.425 726.073C312.452 725.045 313.552 724.141 314.596 724.296C315.774 724.471 317.141 725.899 316.788 726.868C316.526 727.606 315.732 728.164 315.367 728.572L315.385 728.577Z" fill="#8DD9DE"/>
<path d="M500.935 874.126C500.993 872.928 501.808 872.098 502.879 872.162C504.011 872.224 505.128 873.476 505.126 874.691C505.132 875.808 504.251 876.658 503.137 876.602C501.883 876.543 500.855 875.397 500.922 874.102L500.935 874.126Z" fill="#8DD9DE"/>
<path d="M280.241 779.391C278.906 779.268 277.78 778.112 277.92 776.979C278.053 775.863 278.738 775.333 279.876 775.376C281.172 775.428 282.425 776.562 282.424 777.638C282.403 778.647 281.357 779.508 280.26 779.396L280.241 779.391Z" fill="#8DD9DE"/>
<path d="M782.638 809.538C781.541 809.427 780.784 808.322 780.875 807.015C780.977 805.671 781.919 804.819 783.105 805.037C784.18 805.221 784.91 806.417 784.738 807.66C784.575 808.806 783.637 809.639 782.633 809.556L782.638 809.538Z" fill="#8DD9DE"/>
<path d="M267.425 679.694C267.152 679.193 266.493 678.497 266.387 677.708C266.242 676.648 267.831 675.394 268.908 675.439C269.942 675.491 270.816 676.611 270.624 677.649C270.435 678.747 268.958 679.896 267.443 679.699L267.425 679.694Z" fill="#8DD9DE"/>
<path d="M837.23 696.211C835.517 695.934 834.338 694.285 834.636 693.159C834.918 692.089 835.69 691.604 836.796 691.818C837.927 692.018 839.109 693.59 838.709 694.585C838.428 695.317 837.608 695.827 837.224 696.229L837.23 696.211Z" fill="#8DD9DE"/>
<path d="M926.035 543.463C925.988 544.624 925.565 545.492 924.241 545.532C922.973 545.588 922.154 544.485 922.287 542.972C922.387 541.767 923.226 540.924 924.26 540.976C925.331 541.04 926.1 542.108 926.035 543.463Z" fill="#8DD9DE"/>
<path d="M659.587 232.418C659.637 231.178 660.415 230.337 661.449 230.389C662.587 230.433 663.496 231.702 663.36 233.095C663.266 234.143 662.778 234.893 661.613 234.94C660.345 234.997 659.528 233.954 659.587 232.418Z" fill="#8DD9DE"/>
<path d="M758.592 726.421C759.815 726.65 760.579 727.597 760.375 728.612C760.167 729.704 759.026 730.277 757.625 730.035C756.384 729.8 755.658 728.925 755.861 727.85C756.079 726.721 757.16 726.149 758.592 726.421Z" fill="#8DD9DE"/>
<path d="M743.662 288.53C741.783 288.402 740.369 287.2 740.747 286.278C740.973 285.728 741.754 285.147 742.357 285.089C743.634 284.936 745.198 286.244 744.905 287.151C744.712 287.791 743.952 288.239 743.657 288.548L743.662 288.53Z" fill="#8DD9DE"/>
<path d="M683.086 283.159C681.677 283.014 680.411 281.318 680.772 280.251C680.943 279.685 681.74 279.049 682.324 278.985C683.249 278.865 684.539 280.748 684.226 281.789C684.044 282.392 683.381 282.85 683.086 283.159Z" fill="#8DD9DE"/>
<path d="M311.808 908.2C311.389 908.452 310.799 909.071 310.107 909.222C308.882 909.47 307.651 908.462 307.665 907.411C307.673 906.377 308.268 905.879 309.299 905.871C310.594 905.862 311.815 906.768 311.826 908.206L311.808 908.2Z" fill="#8DD9DE"/>
<path d="M811.569 350.211C810.639 350.15 809.622 348.967 809.786 348.02C809.966 347.019 810.644 346.645 811.63 346.723C812.677 346.799 813.53 347.116 813.619 348.298C813.704 349.22 812.518 350.277 811.564 350.229L811.569 350.211Z" fill="#8DD9DE"/>
<path d="M649.568 115.455C649.346 117.061 648.714 117.688 647.574 117.584C646.477 117.473 645.837 116.782 645.934 115.656C646.044 114.553 646.776 113.798 647.842 114.079C648.575 114.259 649.128 115.103 649.568 115.455Z" fill="#8DD9DE"/>
<path d="M296.7 731.298C295.548 732.106 294.897 732.926 294.143 733.018C293.097 733.141 292.373 732.326 292.391 731.195C292.408 730.065 293.183 729.302 294.221 729.475C294.951 729.596 295.566 730.438 296.694 731.316L296.7 731.298Z" fill="#8DD9DE"/>
<path d="M101.063 707.275C99.7973 707.053 99.2205 706.421 99.3414 705.282C99.4568 704.162 100.152 703.594 101.268 703.711C102.402 703.833 102.933 704.551 102.841 705.659C102.757 706.809 101.984 707.233 101.044 707.269L101.063 707.275Z" fill="#8DD9DE"/>
<path d="M305.848 746.702C305.004 745.552 304.183 744.926 304.085 744.179C303.947 743.162 304.735 742.423 305.883 742.43C307.05 742.442 307.784 743.221 307.641 744.234C307.543 744.961 306.709 745.587 305.867 746.708L305.848 746.702Z" fill="#8DD9DE"/>
<path d="M681.464 311.216C680.808 310.043 680.15 309.346 680.026 308.552C679.866 307.608 680.591 307.009 681.612 307.038C682.53 307.075 683.515 308.427 683.161 309.337C682.942 309.928 682.296 310.331 681.47 311.198L681.464 311.216Z" fill="#8DD9DE"/>
<path d="M346.116 812.493C345.307 811.493 344.444 810.874 344.316 810.158C344.151 809.232 345.019 808.696 345.992 808.75C347.044 808.808 347.942 809.378 347.82 810.456C347.736 811.068 346.911 811.597 346.116 812.493Z" fill="#8DD9DE"/>
<path d="M774.676 872.86C773.922 871.677 773.258 870.999 773.073 870.206C772.875 869.389 773.502 868.781 774.423 868.74C775.362 868.704 776.545 869.937 776.289 870.856C776.113 871.44 775.469 871.903 774.676 872.86Z" fill="#8DD9DE"/>
<path d="M632.33 789.98C630.875 789.921 629.675 788.743 629.982 787.859C630.195 787.285 630.894 786.639 631.506 786.485C632.45 786.231 633.511 787.467 633.272 788.531C633.133 789.126 632.557 789.63 632.33 789.98Z" fill="#8DD9DE"/>
<path d="M624.736 245.73C626.121 245.151 626.8 244.638 627.514 244.614C628.594 244.581 629.392 245.618 629.165 246.505C628.944 247.375 628.27 247.869 627.448 247.582C626.682 247.312 626.031 246.657 624.736 245.73Z" fill="#8DD9DE"/>
<path d="M894.71 327.971C893.62 328.778 892.969 329.599 892.239 329.678C891.198 329.782 890.872 328.788 890.993 327.848C891.103 326.945 891.574 326.051 892.588 326.237C893.221 326.348 893.748 327.144 894.729 327.977L894.71 327.971Z" fill="#8DD9DE"/>
<path d="M833.167 524.327C833.637 524.11 834.303 523.573 835.004 523.525C836.081 523.431 837.046 524.519 836.658 525.338C836.395 525.876 833.776 525.262 833.167 525.338C832.11 525.498 833.055 525.707 833.173 524.309L833.167 524.327Z" fill="#8DD9DE"/>
<path d="M821.691 512.565C822.673 511.985 823.245 511.36 823.813 511.352C824.98 511.364 825.365 512.297 825.309 513.356C825.25 514.354 824.629 515.143 823.689 514.781C822.983 514.508 822.567 513.546 821.697 512.547L821.691 512.565Z" fill="#8DD9DE"/>
<path d="M154.383 408.641C153.607 407.531 152.895 406.878 152.643 406.105C152.39 405.272 153.011 404.682 153.932 404.641C154.938 404.585 156.123 405.679 155.898 406.627C155.735 407.235 155.104 407.722 154.378 408.659L154.383 408.641Z" fill="#8DD9DE"/>
<path d="M883.409 495.708C883.062 495.922 882.506 496.492 881.898 496.568C880.889 496.703 879.839 495.43 880.149 494.468C880.297 493.975 880.937 493.39 881.453 493.287C882.442 493.086 883.482 494.256 883.409 495.708Z" fill="#8DD9DE"/>
<path d="M803.624 427.222C802.971 425.969 802.437 425.331 802.346 424.626C802.212 423.729 802.675 422.932 803.752 422.838C804.703 422.766 805.547 423.717 805.265 424.788C805.08 425.469 804.44 426.053 803.624 427.222Z" fill="#8DD9DE"/>
<path d="M726.197 899.379C724.558 899.125 724.155 898.386 724.222 897.29C724.281 896.292 724.802 895.632 725.838 895.745C726.856 895.852 727.359 896.661 727.158 897.597C727.01 898.289 726.468 898.883 726.192 899.397L726.197 899.379Z" fill="#8DD9DE"/>
<path d="M406.592 789.625C407.709 788.865 408.351 788.142 409.122 787.996C409.953 787.848 410.473 788.602 410.424 789.503C410.384 790.507 409.429 791.535 408.583 791.26C407.972 791.076 407.523 790.423 406.592 789.625Z" fill="#8DD9DE"/>
<path d="M661.621 773.142C660.365 773.76 659.699 774.296 658.993 774.362C658.079 774.446 657.34 773.885 657.293 772.835C657.25 771.905 658.266 771.076 659.303 771.388C659.988 771.594 660.511 772.27 661.621 773.142Z" fill="#8DD9DE"/>
<path d="M827.137 584.245C826.763 584.412 826.158 584.947 825.583 584.913C824.488 584.862 823.805 583.979 823.943 582.985C824.023 582.451 824.831 581.778 825.419 581.636C826.31 581.426 827.332 582.79 827.155 584.251L827.137 584.245Z" fill="#8DD9DE"/>
<path d="M827.405 381.215C826.862 381.41 826.17 381.898 825.467 381.886C824.38 381.877 823.724 380.903 823.973 379.942C824.206 379.036 824.869 378.778 825.698 378.908C826.736 379.081 827.449 379.594 827.405 381.215Z" fill="#8DD9DE"/>
<path d="M702.884 843.196C702.348 843.433 701.687 843.951 700.986 843.999C699.858 844.058 699.033 843.112 699.425 842.214C699.645 841.683 700.433 841.143 701.017 841.08C702.053 840.994 702.8 841.597 702.884 843.196Z" fill="#8DD9DE"/>
<path d="M663.502 824.147C661.937 823.915 661.113 823.368 661.411 822.243C661.565 821.731 662.394 821.124 662.954 821.074C663.947 820.994 664.943 821.573 664.761 822.714C664.66 823.32 663.827 823.807 663.502 824.147Z" fill="#8DD9DE"/>
<path d="M109.864 562.391C108.415 562.174 107.518 560.928 107.921 559.994C108.131 559.499 108.773 558.975 109.301 558.895C110.25 558.763 111.239 560.037 110.949 561.065C110.773 561.649 110.14 562.076 109.877 562.415L109.864 562.391Z" fill="#8DD9DE"/>
<path d="M806.061 728.4C806.398 728.222 806.995 727.645 807.546 727.692C808.636 727.761 809.258 728.645 809.053 729.659C808.931 730.2 808.234 730.907 807.67 731.036C806.742 731.235 805.87 729.976 806.061 728.4Z" fill="#8DD9DE"/>
<path d="M850.736 388.677C850.259 387.716 849.678 386.964 849.553 386.169C849.467 385.586 849.999 384.889 850.335 384.313C850.381 384.227 851.235 384.405 851.289 384.561C851.557 385.617 851.757 386.694 851.873 387.784C851.898 387.971 851.362 388.208 850.749 388.701L850.736 388.677Z" fill="#8DD9DE"/>
<path d="M431.836 916.909C431.559 916.487 430.931 915.959 430.831 915.351C430.688 914.352 431.395 913.748 432.408 913.735C433.318 913.73 433.845 914.326 433.862 915.208C433.865 916.205 433.309 916.775 431.841 916.891L431.836 916.909Z" fill="#8DD9DE"/>
<path d="M778.076 440.468C777.868 440.086 777.369 439.597 777.327 439.067C777.241 437.945 778.445 436.495 778.977 436.874C779.458 437.218 779.712 438.052 779.782 438.69C779.847 439.547 779.607 440.411 778.1 440.455L778.076 440.468Z" fill="#8DD9DE"/>
<path d="M368.191 753.181C368.741 754.303 369.381 754.993 369.238 755.468C369.084 755.98 368.25 756.605 367.677 756.632C366.854 756.683 366.26 755.906 366.531 755.072C366.72 754.511 367.354 754.084 368.172 753.175L368.191 753.181Z" fill="#8DD9DE"/>
<path d="M701.618 685.898C702.325 686.23 703.245 686.527 703.977 687.046C704.659 687.531 704.567 688.439 703.778 688.58C703.049 688.719 702.081 688.448 701.415 688.048C700.679 687.607 700.603 686.788 701.618 685.898Z" fill="#8DD9DE"/>
<path d="M697.022 771.29C696.28 770.27 695.551 769.672 695.596 769.187C695.658 768.648 696.455 768.211 696.946 767.721C697.408 768.199 698.186 768.632 698.265 769.174C698.342 769.655 697.678 770.252 697.022 771.29Z" fill="#8DD9DE"/>
<path d="M884.162 545.159C883.488 544.179 882.952 543.48 882.536 542.717C882.497 542.645 883.369 541.892 883.451 541.957C884.164 542.47 884.826 543.088 885.41 543.762C885.455 543.815 884.774 544.467 884.144 545.153L884.162 545.159Z" fill="#8DD9DE"/>
<path d="M722.929 768.312C723.959 767.706 724.485 767.167 725.099 767.073C725.98 766.96 726.615 767.669 726.373 768.473C726.208 769.021 725.481 769.758 724.974 769.765C724.462 769.79 723.9 769.043 722.934 768.294L722.929 768.312Z" fill="#8DD9DE"/>
<path d="M744.446 258.046C743.794 256.993 743.095 256.365 743.164 255.867C743.238 255.352 744.041 254.697 744.618 254.592C745.468 254.45 746.103 255.158 745.887 256.01C745.748 256.605 745.159 257.086 744.446 258.046Z" fill="#8DD9DE"/>
<path d="M586.167 839.31C585.624 838.23 585.021 837.551 585.133 837.046C585.263 836.548 586.107 836.224 586.631 835.824C587.034 836.364 587.779 836.907 587.765 837.421C587.752 837.935 586.962 838.414 586.148 839.304L586.167 839.31Z" fill="#8DD9DE"/>
<path d="M151.802 674.662C152.849 674.001 153.48 673.314 153.959 673.399C154.493 673.5 155.285 674.356 155.264 674.828C155.238 675.318 154.384 676.076 153.842 676.132C153.361 676.187 152.786 675.416 151.802 674.662Z" fill="#8DD9DE"/>
<path d="M597.228 202.805C596.13 203.371 595.454 204.004 594.992 203.865C594.455 203.704 594.111 202.903 593.684 202.376C594.214 201.958 594.752 201.243 595.306 201.211C595.795 201.198 596.303 201.989 597.234 202.787L597.228 202.805Z" fill="#8DD9DE"/>
<path d="M763.568 363.547C763.06 362.418 762.575 361.814 762.574 361.216C762.57 360.358 763.313 359.765 764.119 360.107C764.657 360.329 765.277 361.154 765.258 361.686C765.232 362.176 764.423 362.649 763.568 363.547Z" fill="#8DD9DE"/>
<path d="M219.822 662.81C219.357 661.674 218.778 660.982 218.945 660.494C219.099 659.983 219.956 659.683 220.493 659.307C220.891 659.865 221.619 660.463 221.582 660.989C221.555 661.479 220.715 661.924 219.804 662.805L219.822 662.81Z" fill="#8DD9DE"/>
<path d="M516.306 819.192C515.63 818.152 514.925 817.541 514.989 817.062C515.069 816.528 515.842 816.104 516.328 815.633C516.808 816.116 517.604 816.555 517.67 817.073C517.723 817.567 517.004 818.147 516.293 819.168L516.306 819.192Z" fill="#8DD9DE"/>
<path d="M535.753 199.813C535.372 198.663 534.853 197.909 535.051 197.45C535.242 196.95 536.114 196.735 536.683 196.388C537.051 196.977 537.726 197.618 537.651 198.134C537.582 198.631 536.703 199.004 535.753 199.813Z" fill="#8DD9DE"/>
<path d="M776.858 554.865C777.866 554.133 778.428 553.406 778.918 553.454C779.446 553.513 780.265 554.277 780.3 554.766C780.327 555.212 779.517 556.024 778.988 556.104C778.502 556.177 777.899 555.497 776.845 554.841L776.858 554.865Z" fill="#8DD9DE"/>
<path d="M460.806 798.159C461.889 797.648 462.577 797.039 463.04 797.178C463.576 797.34 463.897 798.153 464.318 798.698C463.77 799.111 463.232 799.826 462.669 799.816C462.205 799.815 461.702 799.006 460.806 798.159Z" fill="#8DD9DE"/>
<path d="M725.615 330.307C724.579 330.931 723.925 331.631 723.451 331.528C722.903 331.403 722.522 330.591 722.077 330.058C722.593 329.616 723.094 328.891 723.631 328.853C724.106 328.817 724.65 329.558 725.597 330.301L725.615 330.307Z" fill="#8DD9DE"/>
<path d="M767.033 316.84C766.014 317.41 765.452 317.938 764.843 318.013C763.924 318.115 763.355 317.326 763.586 316.559C763.751 316.011 764.54 315.333 765.071 315.313C765.578 315.306 766.11 316.084 767.033 316.84Z" fill="#8DD9DE"/>
<path d="M812.157 744.759C811.797 743.675 811.411 743.08 811.498 742.589C811.598 742.121 812.21 741.767 812.617 741.352C812.927 741.864 813.476 742.387 813.468 742.883C813.442 743.373 812.84 743.829 812.157 744.759Z" fill="#8DD9DE"/>
<path d="M901.556 697.77C901.081 696.87 900.657 696.265 900.513 695.604C900.47 695.411 901.283 695.058 901.713 694.77C902.075 695.377 902.51 695.946 902.733 696.611C902.8 696.79 902.178 697.181 901.562 697.752L901.556 697.77Z" fill="#8DD9DE"/>
<path d="M661.039 874.701C661.628 874.221 662.072 873.617 662.397 873.675C662.797 873.756 663.355 874.382 663.362 874.763C663.374 875.125 662.765 875.738 662.37 875.779C662.035 875.817 661.617 875.194 661.039 874.701Z" fill="#8DD9DE"/>
<path d="M721.988 583.106C721.517 582.327 721.116 581.847 720.957 581.302C720.914 581.109 721.544 580.761 721.852 580.475C722.24 580.931 722.729 581.317 722.954 581.843C723.04 582.028 722.48 582.477 721.988 583.106Z" fill="#8DD9DE"/>
<path d="M792.971 611.032C792.566 610.233 792.194 609.722 792.078 609.17C792.048 609.001 792.728 608.688 793.081 608.455C793.402 608.931 793.856 609.366 794.02 609.894C794.082 610.091 793.502 610.475 792.971 611.032Z" fill="#8DD9DE"/>
<path d="M888.319 768.686C888.142 768.135 887.824 767.581 887.83 767.025C887.835 766.808 888.524 766.597 888.89 766.388C889.176 766.913 889.595 767.397 889.674 767.939C889.736 768.336 889.336 768.794 889.13 769.21C888.862 769.029 888.588 768.867 888.319 768.686Z" fill="#8DD9DE"/>
<path d="M915.563 473.118C915.233 472.401 914.864 471.951 914.911 471.527C914.933 471.255 915.654 470.735 915.834 470.809C916.256 471.016 916.779 471.492 916.791 471.854C916.79 472.193 916.16 472.541 915.587 473.105L915.563 473.118Z" fill="#8DD9DE"/>
<path d="M253.739 161.239C254.327 160.759 254.79 160.161 255.11 160.237C255.51 160.318 256.074 160.926 256.075 161.324C256.092 161.668 255.454 162.313 255.106 162.328C254.722 162.332 254.33 161.755 253.733 161.257L253.739 161.239Z" fill="#8DD9DE"/>
<path d="M328.132 180.531C327.753 179.779 327.296 179.283 327.375 178.888C327.448 178.512 328.093 178.248 328.473 177.924C328.768 178.352 329.302 178.791 329.297 179.208C329.285 179.583 328.693 179.942 328.132 180.531Z" fill="#8DD9DE"/>
<path d="M799.852 679.16C800.474 678.77 800.957 678.238 801.272 678.333C801.642 678.444 802.122 679.127 802.074 679.49C802.019 679.873 801.387 680.16 801.026 680.49C800.696 680.111 800.365 679.733 799.87 679.166L799.852 679.16Z" fill="#8DD9DE"/>
<path d="M751.167 243.497C750.912 242.803 750.553 242.316 750.667 242.072C750.816 241.778 751.378 241.588 751.774 241.548C751.92 241.532 752.314 242.169 752.242 242.406C752.138 242.753 751.7 243 751.167 243.497Z" fill="#8DD9DE"/>
<path d="M101.663 475.997C101.296 476.145 100.787 476.091 100.401 475.497C100.033 474.908 99.9226 473.799 100.656 472.705C101.017 472.176 101.614 471.599 102.607 471.32C102.812 471.243 103.348 471.205 103.574 471.193L103.725 471.159L103.762 471.17L103.768 471.152L104.038 471.194L104.252 471.218C104.854 471.3 105.437 471.575 105.924 471.901C106.925 472.601 107.567 473.551 107.862 474.716C108.15 475.838 108.034 477.497 106.845 478.832L106.351 479.4L105.44 479.743C103.696 480.374 101.861 480.1 100.429 479.291C98.977 478.415 97.7308 477.123 97.4693 474.774C97.3957 474.214 97.5805 472.795 98.0926 472.033C98.5952 471.168 99.2613 470.632 99.8965 470.265C101.18 469.556 102.478 469.469 103.692 469.795C104.925 470.126 105.967 471.157 106.18 472.058L106.426 472.65C106.075 473.679 105.553 474.339 104.844 474.484C104.134 474.629 103.364 474.238 102.616 473.435L103.179 473.844C103.412 473.675 103.153 473.796 103.119 474.244C103.037 474.717 103.281 475.049 103.073 474.668C102.938 474.309 102.013 474.03 102.872 474.329C102.89 474.135 103.13 474.207 103.332 474.009C103.535 473.871 103.675 473.674 103.68 473.656C103.671 473.553 103.523 474.246 103.651 474.424L103.41 475.626C103.41 475.626 102.995 475.461 102.857 475.519C102.699 475.572 102.99 475.48 103.148 475.288C103.213 475.208 103.259 475.122 103.253 475.141C103.468 475.165 103.272 475.146 103.309 475.157L103.168 475.155C103.168 475.155 103.279 475.188 103.263 475.243C103.274 475.406 103.428 475.632 103.473 475.685C103.628 475.772 103.08 475.447 102.766 475.552C102.389 475.598 102.062 475.878 101.676 476.02L101.663 475.997Z" fill="#8DD9DE"/>
<path d="M157.277 451.923C157.249 452.014 157.107 452.15 156.781 452.092C156.45 452.052 156.006 451.719 155.799 451.199C155.616 450.666 155.504 450.034 155.966 449.237C156.238 448.801 156.698 448.481 157.226 448.402L157.622 448.361L157.989 448.551C158.237 448.666 158.458 448.872 158.649 449.109C159.349 450.136 159.107 450.94 158.872 451.586C158.6 452.221 158.139 452.68 157.64 452.928C157.141 453.177 156.632 453.123 156.366 453.003C156.092 452.841 156.014 452.698 156.065 452.594C156.174 452.367 156.649 452.331 156.953 451.925C157.111 451.733 157.266 451.421 157.352 451.069C157.451 450.74 157.337 450.248 157.326 450.284C157.326 450.284 157.342 450.229 157.276 450.249C157.174 450.318 157.011 450.727 157.024 450.95C156.955 451.447 157.282 451.705 157.284 451.965L157.277 451.923Z" fill="#8DD9DE"/>
<path d="M132.395 445.927C131.985 445.883 131.686 445.534 131.722 445.146C131.763 444.74 132.114 444.447 132.506 444.486C132.917 444.53 133.215 444.879 133.179 445.266C133.138 445.672 132.787 445.965 132.395 445.927Z" fill="#8DD9DE"/>
<path d="M97.114 436.858C96.7034 436.814 96.4047 436.465 96.4406 436.078C96.4821 435.672 96.8327 435.379 97.2249 435.418C97.6355 435.461 97.9342 435.81 97.8982 436.198C97.8568 436.604 97.5062 436.897 97.114 436.858Z" fill="#8DD9DE"/>
<path d="M133.904 489.39C133.428 488.489 133.005 487.884 132.861 487.223C132.818 487.031 133.631 486.678 134.061 486.389C134.423 486.996 134.876 487.57 135.081 488.23C135.148 488.409 134.526 488.8 133.91 489.371L133.904 489.39Z" fill="#8DD9DE"/>
<path d="M120.647 560.3C120.47 559.748 120.152 559.194 120.158 558.638C120.163 558.421 120.852 558.21 121.218 558.001C121.504 558.526 121.923 559.011 122.002 559.552C122.065 559.95 121.664 560.407 121.458 560.823C121.19 560.642 120.916 560.48 120.647 560.3Z" fill="#8DD9DE"/>
<defs>
<radialGradient id="paint0_radial_4018_628" cx="0" cy="0" r="1" gradientUnits="userSpaceOnUse" gradientTransform="translate(494.743 490.24) rotate(-113.743) scale(323.997 323.997)">
<stop stop-color="#93C1C6"/>
<stop offset="1" stop-color="#759599"/>
</radialGradient>
</defs>
</svg>
