<svg width="1294" height="841" viewBox="0 0 1294 841" fill="none" xmlns="http://www.w3.org/2000/svg">
<path d="M1285 0C1289.97 2.00363e-05 1294 4.02945 1294 9V760.315C1294 773.57 1283.25 784.315 1270 784.315H1170C1156.75 784.315 1146 795.061 1146 808.315V817C1146 830.255 1135.25 841 1122 841H9C4.02945 841 0 836.971 0 832V109.543C0 96.2881 10.7452 85.543 24 85.543H106C116.493 85.543 125 77.0363 125 66.543V24C125 10.7452 135.745 0 149 0H1285Z" fill="#11031B" opacity="0.75"/>
<mask id="path-2-inside-1_1260_432" fill="white">
<path d="M1255 42.2561C1259.97 42.2561 1264 46.2855 1264 51.2561V723.756C1264 737.011 1253.25 747.756 1240 747.756H1146.86C1133.61 747.756 1122.86 758.501 1122.86 771.756V774.744C1122.86 787.999 1112.12 798.744 1098.86 798.744H39C34.0296 798.744 30.0003 794.715 30 789.744V143.202C30 129.948 40.7452 119.202 54 119.202H130.204C140.698 119.202 149.204 110.696 149.204 100.202V66.2561C149.204 53.0013 159.949 42.2561 173.204 42.2561H1255Z"/>
</mask>
<path d="M30 789.744H22V789.745L30 789.744ZM1255 42.2561V50.2561C1255.55 50.2561 1256 50.7038 1256 51.2561H1264H1272C1272 41.8673 1264.39 34.2561 1255 34.2561V42.2561ZM1264 51.2561H1256V723.756H1264H1272V51.2561H1264ZM1240 747.756V739.756H1146.86V747.756V755.756H1240V747.756ZM1122.86 771.756H1114.86V774.744H1122.86H1130.86V771.756H1122.86ZM1098.86 798.744V790.744H39V798.744V806.744H1098.86V798.744ZM39 798.744V790.744C38.4483 790.744 38 790.297 38 789.744L30 789.744L22 789.745C22.0005 799.133 29.6109 806.744 39 806.744V798.744ZM30 789.744H38V143.202H30H22V789.744H30ZM54 119.202V127.202H130.204V119.202V111.202H54V119.202ZM130.204 119.202V127.202C145.116 127.202 157.204 115.114 157.204 100.202H149.204H141.204C141.204 106.278 136.279 111.202 130.204 111.202V119.202ZM149.204 100.202H157.204V66.2561H149.204H141.204V100.202H149.204ZM173.204 42.2561V50.2561H1255V42.2561V34.2561H173.204V42.2561ZM149.204 66.2561H157.204C157.204 57.4195 164.368 50.2561 173.204 50.2561V42.2561V34.2561C155.531 34.2561 141.204 48.583 141.204 66.2561H149.204ZM1122.86 774.744H1114.86C1114.86 783.581 1107.7 790.744 1098.86 790.744V798.744V806.744C1116.54 806.744 1130.86 792.417 1130.86 774.744H1122.86ZM1146.86 747.756V739.756C1129.19 739.756 1114.86 754.083 1114.86 771.756H1122.86H1130.86C1130.86 762.92 1138.03 755.756 1146.86 755.756V747.756ZM30 143.202H38C38 134.366 45.1634 127.202 54 127.202V119.202V111.202C36.3269 111.202 22 125.529 22 143.202H30ZM1264 723.756H1256C1256 732.593 1248.84 739.756 1240 739.756V747.756V755.756C1257.67 755.756 1272 741.429 1272 723.756H1264Z" fill="#A993A8" mask="url(#path-2-inside-1_1260_432)"/>
</svg>
