<svg width="3024" height="1964" viewBox="0 0 3024 1964" fill="none" xmlns="http://www.w3.org/2000/svg">
<g clip-path="url(#clip0_1749_2)">
<rect width="3024" height="1964" fill="#59707C"/>
<g clip-path="url(#clip1_1749_2)">
<path d="M574.847 1715.91C405.827 1476.87 318.617 1234.59 313.397 988.977H125.207V895.827H307.457C333.827 577.677 444.077 312.807 638.297 101.577C632.987 93.6574 623.717 83.0374 610.577 69.8974C595.997 56.6674 586.817 46.1375 582.857 38.2174C379.457 253.497 262.637 510.357 232.307 808.797H131.147C247.337 65.2173 675.197 -362.643 1414.73 -474.873V-373.803C1146.62 -350.043 891.737 -237.813 650.177 -37.1125C667.277 -14.6125 730.007 50.0074 838.367 157.017C959.867 61.8875 1071.47 -6.06253 1173.17 -47.0125C1311.86 -101.193 1467.02 -122.973 1638.65 -112.443C1897.49 -95.2525 2114.66 2.48749 2290.34 180.777C2456.75 348.447 2558.99 557.787 2597.33 808.707H2502.2C2462.6 580.197 2364.86 391.377 2209.07 242.157C2046.62 85.0175 1846.55 -1.47256 1608.86 -17.3126C1363.25 -34.5025 1131.5 46.7675 913.607 226.317C920.267 239.547 961.847 283.107 1038.44 356.997C878.597 510.267 790.847 689.817 775.007 895.737C767.087 899.697 736.037 901.677 681.857 901.677C685.817 691.707 759.077 512.157 901.727 362.937C881.927 340.527 850.247 308.127 806.687 265.917C764.387 224.967 733.337 192.567 713.537 168.807C490.337 394.617 388.007 672.537 406.547 1002.75C419.687 1241.79 500.867 1456.35 650.177 1646.52C611.837 1687.47 586.727 1710.6 574.937 1715.82L574.847 1715.91ZM2321.93 1915.98C2098.82 2082.39 1861.13 2169.51 1608.86 2177.43C1602.2 2197.23 1599.59 2227.65 1600.94 2268.51C1602.29 2322.69 1602.29 2355 1600.94 2365.62H1501.94V2183.37C1253.63 2167.53 1036.46 2096.88 850.247 1971.42C843.587 1966.11 819.197 1944.33 776.987 1906.08C739.997 1870.44 718.847 1852.53 713.627 1852.53C703.007 1852.53 691.127 1863.15 677.987 1884.21C663.407 1905.36 654.227 1915.89 650.267 1915.89C868.157 2116.68 1122.95 2230.8 1414.82 2258.61V2359.68C679.157 2246.1 251.297 1818.24 131.147 1076.1H232.217C257.237 1353.48 371.537 1610.25 574.937 1846.59C609.227 1817.61 651.437 1775.94 701.657 1721.85C953.837 1949.01 1218.62 2069.79 1496 2084.28C1490.69 2090.94 1492.67 2061.87 1501.94 1997.16C1224.56 1973.4 993.527 1875.75 808.667 1704.03C618.497 1525.74 513.467 1299.93 493.757 1026.6C475.217 770.457 546.587 528.807 707.687 301.647C719.567 305.607 732.707 315.507 747.287 331.347C761.867 348.537 773.657 359.067 782.927 363.027C653.507 550.587 588.797 740.757 588.797 933.537C588.797 1175.19 669.977 1391.73 832.427 1583.25C844.307 1580.55 856.187 1572 868.067 1557.51C882.557 1541.67 893.807 1531.77 901.727 1527.81C772.307 1381.2 697.067 1203.72 675.917 995.007C667.997 1001.67 701.027 999.687 775.007 989.067C802.727 1218.84 891.197 1399.83 1040.42 1531.77C1196.21 1670.46 1391.69 1731.84 1626.68 1716C1843.22 1700.16 2020.16 1605.75 2157.5 1432.77C2245.97 1323.15 2302.76 1177.26 2327.87 995.007C2333.18 1000.32 2306.09 998.337 2246.69 989.067C2209.7 1155.48 2170.1 1266.45 2127.89 1321.89C2117.27 1317.93 2094.23 1296.78 2058.59 1258.53C2111.42 1183.29 2137.79 1078.98 2137.79 945.597C2139.05 809.607 2112.68 705.207 2058.59 632.667C2075.69 604.947 2098.82 581.817 2127.89 563.367C2191.25 655.797 2228.24 766.767 2238.77 896.097H2327.87C2268.47 468.237 2028.8 225.957 1608.86 169.167C1602.2 198.237 1599.59 241.167 1600.94 297.867C1602.29 371.847 1602.29 416.757 1600.94 432.507C1729.01 476.067 1791.74 497.217 1789.13 495.957C1791.74 518.367 1768.61 543.477 1719.83 571.197C1595.72 513.057 1472.24 519.627 1349.39 590.997C1229.24 658.407 1161.2 753.447 1145.36 876.297C1129.52 997.797 1154.63 1101.39 1220.6 1187.25C1285.31 1271.76 1377.11 1324.59 1496 1345.74C1490.69 1351.05 1492.67 1323.96 1501.94 1264.56C1443.8 1247.37 1395.56 1226.94 1357.31 1203.18C1379.72 1172.85 1402.85 1149.63 1426.61 1133.79C1524.35 1189.32 1614.8 1181.4 1697.96 1110.03C1781.12 1040.01 1801.01 954.237 1757.36 852.537C1730.99 789.177 1686.71 748.857 1624.7 731.757C1567.91 715.917 1511.12 720.507 1454.33 745.617C1396.19 772.077 1357.31 812.307 1337.51 866.487C1315.01 925.887 1323.65 989.967 1363.25 1058.64C1346.06 1091.67 1321.04 1116.78 1288.01 1133.88C1214.03 1016.43 1210.07 898.887 1276.13 781.347C1343.45 662.457 1445.78 608.997 1583.12 620.877C1670.24 628.797 1740.26 664.437 1793.09 727.887C1840.61 786.027 1865.72 854.607 1868.33 933.897C1869.68 1014.45 1848.53 1084.47 1804.97 1143.87C1756.1 1209.93 1688.06 1248.27 1600.94 1258.8V1345.92C1694.72 1332.69 1774.55 1295.07 1840.61 1232.97C1908.02 1168.26 1946.9 1089.06 1957.52 995.277C1972.01 873.777 1922.51 747.057 1808.93 614.937L1870.31 551.577C1912.52 510.717 1933.67 492.177 1933.67 496.137C1932.32 473.637 1888.13 441.957 1801.01 401.007C1787.78 395.697 1767.35 389.127 1739.63 381.207C1711.91 374.637 1692.74 368.697 1682.12 363.387V270.237C1820.81 291.387 1948.16 362.037 2064.44 482.187C2063.09 486.147 2021.51 532.407 1939.61 620.877C2017.55 721.227 2057.15 827.517 2058.5 939.747C2059.76 1090.32 2006.93 1215.06 1900.01 1314.15C1791.65 1414.5 1658.99 1458.78 1501.85 1446.81C1389.62 1437.63 1293.86 1395.96 1214.57 1322.07C1140.59 1253.4 1091.09 1167.54 1065.98 1064.58C1040.87 962.877 1044.2 863.877 1075.88 767.487C1110.17 664.437 1172.99 581.997 1264.07 519.897C1311.59 488.217 1388.81 461.127 1495.82 438.717C1490.51 445.377 1492.49 416.307 1501.76 351.597C1336.7 378.057 1205.3 442.137 1107.56 543.747C1004.51 652.017 954.377 788.097 956.987 951.807C960.947 1136.76 1031.6 1286.61 1168.94 1401.45C1308.89 1517.64 1471.97 1559.94 1658.18 1528.17C1773.02 1508.37 1885.25 1443.75 1994.87 1334.04C2005.49 1331.34 2019.98 1339.35 2038.43 1357.8C2054.27 1374.99 2062.82 1387.5 2064.17 1395.42C1955.81 1544.64 1796.06 1621.23 1584.83 1625.19C1382.78 1630.5 1215.02 1572.99 1081.73 1452.84C916.667 1303.62 844.037 1109.49 863.837 870.537C877.067 705.477 943.037 566.157 1061.93 452.577C1182.08 337.737 1328.69 273.027 1501.67 258.447V169.347C1384.13 174.657 1252.73 218.847 1107.47 302.007C1078.4 284.817 1055.27 261.777 1038.17 232.707C1241.48 112.557 1433.63 58.3774 1614.53 70.2574C1853.57 86.0974 2050.31 180.507 2204.84 353.487C2363.33 533.127 2435.24 753.627 2420.75 1015.08C2412.83 1167 2364.59 1306.23 2276.12 1433.04C2191.61 1554.54 2081.99 1650.21 1947.26 1720.23C1811.27 1790.25 1667.99 1823.28 1517.42 1819.32C1357.67 1814.01 1208.45 1767.12 1069.76 1678.65C1056.53 1669.38 1041.32 1656.87 1024.22 1641.03C1001.72 1619.88 985.877 1605.39 976.607 1597.47C930.437 1635.72 907.307 1654.26 907.307 1652.91C907.307 1663.53 946.907 1694.49 1026.2 1746.06C1205.75 1863.6 1399.88 1915.71 1608.5 1902.57C1850.15 1887.99 2052.83 1799.52 2216.63 1637.16C2367.2 1487.94 2462.24 1301.1 2501.84 1076.55H2596.97C2497.88 1627.17 2168.39 1934.25 1608.5 1997.61C1613.81 1991.04 1611.2 2020.11 1600.58 2084.73C1806.59 2076.81 2027.81 1997.61 2264.15 1847.04C2268.11 1852.35 2279.36 1864.23 2297.81 1882.68C2313.65 1897.26 2321.57 1908.42 2321.57 1916.34L2321.93 1915.98ZM844.217 44.0674C837.557 40.1074 826.397 29.5775 810.557 12.3875C797.327 -2.19257 785.447 -12.0026 774.917 -17.3126C957.167 -182.373 1199.45 -276.063 1501.85 -298.563V-480.812H1594.91C1600.22 -462.273 1602.83 -434.553 1602.83 -397.653C1601.48 -346.173 1600.85 -315.753 1600.85 -306.573C1937.63 -268.323 2200.43 -155.373 2389.25 32.1874C2413.01 13.6475 2434.16 -7.41254 2452.7 -31.2625C2241.38 -226.653 1984.52 -342.843 1682.12 -379.833V-474.873C2053.19 -420.693 2347.04 -285.963 2563.58 -70.7725C2780.12 145.767 2914.22 438.987 2965.7 808.707H2870.57C2842.85 531.327 2728.55 274.557 2527.94 38.1274C2481.68 79.0775 2437.4 122.637 2395.19 168.897C2152.19 -92.5525 1847.81 -215.403 1482.05 -199.563C1261.55 -188.943 1048.88 -107.763 844.217 44.0674ZM2797.31 988.887C2769.59 1313.79 2658.62 1576.5 2464.49 1777.29L2488.25 1814.91C2502.74 1836.06 2513.99 1846.59 2521.91 1846.59C2535.05 1846.59 2576.72 1794.48 2646.65 1690.08C2783.99 1484.07 2858.6 1279.41 2870.48 1076.01H2965.61C2918.09 1439.16 2784.71 1731.03 2565.47 1951.53C2346.23 2172.03 2051.75 2308.02 1682.03 2359.59V2264.46C1967.33 2231.52 2224.1 2117.22 2452.61 1921.74C2441.99 1905.9 2400.41 1861.71 2327.78 1789.08C2558.81 1540.86 2679.68 1276.08 2690.3 994.737C2671.76 989.427 2642.69 987.447 2603.18 988.797C2550.35 990.147 2518.67 990.147 2508.05 988.797V895.647H2690.3C2686.34 684.417 2607.14 463.197 2452.61 232.077C2481.59 204.357 2502.11 183.297 2513.99 168.717C2683.01 361.497 2774.72 603.867 2789.3 895.647H2977.49V988.797H2797.22L2797.31 988.887Z" fill="#B9B2A8" fill-opacity="0.07"/>
</g>
</g>
<defs>
<clipPath id="clip0_1749_2">
<rect width="3024" height="1964" fill="white"/>
</clipPath>
<clipPath id="clip1_1749_2">
<rect width="2852.37" height="2846.43" fill="white" transform="translate(125.211 -480.812)"/>
</clipPath>
</defs>
</svg>
