<svg width="1920" height="2075" viewBox="0 0 1920 2075" fill="none" xmlns="http://www.w3.org/2000/svg">
<g clip-path="url(#clip0_5004_1057)">
<rect width="1920" height="2075" fill="white"/>
<rect width="1920" height="4159" fill="url(#paint0_linear_5004_1057)"/>
<path opacity="0.65" d="M2259.63 2140.82H-181V1792.59L60.0787 1853.12L397.807 1833.73L499.098 1853.12L647.015 1906.43L973.398 1853.12L1140.61 1873.91L1389.82 1884.43L1592.66 1816.06L2028.11 1865.3L2259.63 1815.99V2140.82Z" fill="#607B7D"/>
<path opacity="0.45" d="M-158.191 1764.5V2075.45H2282.44V1730.57L2133.01 1687.19L1980.49 1714.36L1442.66 1810.18L1262.28 1761.09L1115.18 1764.5L951.25 1782.34L946.025 1783.94L863.843 1809.13L698.764 1829.68L618.94 1791.33L457.226 1769.22L397.206 1756.71L298.811 1736.21L227.68 1730.57L89.0819 1714.81L-22.4619 1737.22L-39.5284 1740.65L-75.0414 1747.79L-127.814 1758.39L-129.16 1758.67L-158.191 1764.5Z" fill="#2C3739" fill-opacity="0.5"/>
<path d="M-157.353 1547.08C-144.808 1529.08 -122.556 1530.36 -96.9034 1525.69C-50.2105 1481.14 44.3562 1513.34 41.3616 1550.69C72.6157 1551.58 89.6017 1571.34 93.6462 1581.69C96.3185 1579.27 110.424 1577.98 117.143 1577.63C145.788 1560.37 184.479 1581.12 200.244 1593.65C234.067 1597.11 235.092 1619.57 231.376 1630.37C254.379 1636.49 261.118 1652.49 261.611 1659.73C292.531 1661.08 317.671 1668.88 326.376 1672.61C350.168 1661.48 372.716 1676.26 381.017 1685.04C425.505 1687.79 428.828 1712.6 424.928 1724.66C434.509 1723.85 443.798 1728.34 447.245 1730.69C455.38 1733.08 451.617 1752.4 448.719 1761.76C482.375 1767.3 485.628 1783.61 483.048 1791.07C505.699 1800.34 514.532 1816.69 516.118 1823.71C565.326 1823.22 564.506 1842.51 557.945 1852.22C581.481 1850.46 580.778 1853.88 577.484 1855.81C568.088 1855.54 516.495 1856.1 513.69 1854C511.445 1852.32 516.213 1851.37 518.878 1851.11C514.922 1851 507.83 1848.77 504.779 1847.67C476.523 1848.96 434.791 1844.82 417.457 1842.58L361.328 1840.99L257.354 1838.04C162.362 1832.18 54.7613 1835.92 12.8351 1838.53C38.9461 1839.27 44.8115 1843.59 44.4803 1845.66C-14.5386 1848.18 -137.302 1852.8 -156.206 1851.19C-175.109 1849.57 -183.265 1842.49 -184.98 1839.15C-202.909 1835.27 -276.992 1837.95 -311.793 1839.77C-337.607 1839.04 -365.43 1835.44 -376.115 1833.73L-528.429 1829.41C-539.111 1829.11 -559.892 1831.33 -568.947 1832.48C-574.08 1832.11 -585.989 1831.46 -592.56 1831.81C-599.131 1832.16 -606.777 1828.82 -609.779 1827.1C-609.056 1818.09 -597.441 1819.53 -591.724 1821.38L-544.91 1817.06C-529.652 1802.31 -510.351 1792.99 -502.608 1790.17C-457.555 1773.51 -417.899 1785.1 -403.702 1792.98C-376.991 1756.55 -320.136 1756.81 -325.854 1753.95C-330.429 1751.67 -334.618 1747.86 -336.14 1746.24C-379.569 1743.89 -466.757 1738.35 -468.08 1735.08C-469.404 1731.8 -452.627 1731.92 -444.073 1732.39C-445.094 1725.34 -379.629 1728.14 -346.768 1730.42C-347.545 1710.43 -326.243 1701.1 -315.496 1698.93C-297.8 1656.26 -253.742 1645.81 -233.925 1645.93C-234.284 1625.68 -213.748 1616.82 -199.146 1607.79C-187.464 1600.56 -160.662 1597.64 -148.722 1597.07C-174.058 1571.03 -173.062 1569.6 -157.91 1547.88L-157.353 1547.08Z" fill="white"/>
<path d="M41.4885 1552.21C42.0497 1545.21 36.7563 1534.99 33.7652 1531.08C24.2556 1550.78 -6.32778 1555.13 -20.1566 1554.51C-13.2944 1557.95 -9.74458 1560.65 -8.82747 1561.58C15.6516 1562.27 31.3642 1554.85 41.4885 1552.21Z" fill="#B5EDF8"/>
<path opacity="0.6" fill-rule="evenodd" clip-rule="evenodd" d="M98.7217 1573.81C98.1638 1572.33 96.7883 1569.07 95.7494 1567.92L89.7024 1571.36C79.2988 1565.11 50.1817 1556.12 16.9426 1570.18C15.4296 1571.57 11.7349 1574.81 9.06023 1576.69C8.87762 1576.82 8.63453 1576.98 8.33767 1577.18C3.19942 1580.64 -18.05 1594.93 -20.6098 1625.12C-27.9624 1625.48 -45.0893 1626.76 -54.7762 1629.09C-55.9027 1627.92 -60.0868 1625.33 -67.8118 1624.36C-74.6347 1617.19 -98.5901 1606.49 -139.829 1621.06C-181.068 1635.63 -199.727 1652.43 -203.902 1659C-211.872 1660.08 -229.294 1666.03 -235.217 1681.18C-256.066 1687.51 -294.787 1705.62 -282.874 1727.36C-285.993 1734.34 -285.574 1752.46 -258.941 1769.12C-260.181 1770.96 -262.727 1775.6 -262.988 1779.42C-269.586 1775.51 -287.738 1769.36 -307.56 1776.13C-316.021 1779.95 -332.045 1789.52 -328.456 1797.23C-344.885 1798.35 -378.906 1804.79 -383.556 1821.59C-384.781 1821.24 -388.33 1820.73 -392.727 1821.44C-400.802 1815.52 -425.523 1804.46 -459.81 1807.59C-466.962 1805.23 -489.84 1805.63 -524.14 1826.13C-527.382 1827.96 -528.954 1831.15 -509.314 1829.2L-495.618 1829.42C-493.564 1829.46 -569.964 1837.43 -608.421 1841.41C-607.537 1842.9 -602.981 1845.93 -591.829 1846.11L-568.717 1846.49C-560.063 1845.15 -540.529 1842.52 -531.626 1842.66L-436.855 1844.2L-378.403 1845.15C-363.491 1847.16 -329.974 1851.04 -315.198 1850.43C-307.73 1850.12 -298.042 1849.52 -287.917 1848.88L-287.916 1848.88L-287.916 1848.88C-273.003 1847.95 -257.141 1846.96 -246.027 1846.77L-244.498 1846.74C-225.753 1846.42 -196.849 1845.93 -190.142 1847.68C-187.261 1852.63 -174.908 1862.12 -148.543 1860.49L-71.7308 1857.49L38.4889 1851.75C38.2706 1849.47 31.8174 1844.82 7.75164 1844.43L96.3604 1840.11C113.868 1839.53 152.987 1838.49 169.405 1838.9L173.774 1839.01C196.712 1839.58 244.471 1840.76 250.609 1841.2C255.858 1841.56 357.472 1843.05 407.623 1843.75C420.844 1845.56 456.538 1848.85 493.549 1847.54C496.069 1848.67 502.379 1850.96 507.466 1851.04C502.881 1851.82 496.368 1853.7 507.002 1854.93C517.637 1856.17 550.483 1856.08 565.577 1855.88C569.3 1853.43 570.664 1848.98 546.336 1850.79C553.279 1840.86 554.941 1821.17 506.046 1821.87C504 1813.68 494.828 1795.53 474.507 1788.4C477.729 1780.56 475.802 1763.57 442.323 1758.28C445.765 1748.95 450.589 1729.25 442.355 1725.15C438.835 1722.81 429.491 1718.36 420.275 1719.2C425.696 1710.05 421.799 1691.02 362.841 1688.15C355.766 1686.17 337.277 1683.27 319.919 1687.45C313.777 1679.02 290.28 1663.12 245.423 1666.92C189.353 1671.68 139.606 1622.41 186.168 1604.92C192.721 1603.4 210.267 1604.62 228.037 1621.63C229.369 1620.74 230.748 1617.6 225.609 1612.2C219.185 1605.45 195.79 1586.91 171.748 1597.42C161.77 1591.7 135.462 1584.23 110.05 1600.05C105.335 1604.31 96.585 1615.35 99.3082 1625.39L98.285 1633.97C86.702 1637.94 63.1735 1649.34 61.7235 1663.14C41.6715 1663.82 -2.09586 1670.82 -16.7483 1693.41C-29.6282 1692.17 -58.9721 1697.95 -73.3083 1731.03C-61.436 1729.42 -34.4204 1727.34 -21.337 1731.87C-4.98285 1737.55 11.2721 1745.07 17.0136 1766.79C16.5123 1768.93 10.2879 1766.68 2.42211 1758.66C-0.759477 1755.42 -22.2386 1754.22 -33.0492 1760.21C-33.5962 1760.52 -34.152 1760.83 -34.717 1761.14C-48.107 1768.6 -66.7087 1778.97 -99.3881 1774.02C-103.824 1779.03 -117.154 1789.84 -134.981 1793.02C-156.57 1796.88 -156.794 1797.09 -159.922 1800.03C-160.022 1800.12 -160.126 1800.22 -160.233 1800.32C-160.545 1800.32 -160.975 1800.27 -161.517 1800.21C-168.001 1799.54 -190.537 1797.22 -218.232 1840.75C-221.86 1835.91 -223.805 1822.36 -202.553 1806.9C-181.301 1791.44 -164.606 1788.7 -158.915 1789.27C-157.047 1779.43 -145.268 1760.32 -113.089 1762.55C-112.373 1755.85 -107.777 1741.63 -95.1263 1738.3C-99.1626 1731.73 -99.5912 1713.89 -69.0149 1695.04C-71.9205 1690.3 -73.1624 1677.84 -54.8844 1665.94C-36.6064 1654.05 -19.0737 1656.07 -12.592 1658.57C1.28218 1643.26 39.6775 1616.85 82.2654 1633.71C85.4792 1634.5 89.4741 1633.88 79.7426 1625.07C76.0879 1615.65 74.7673 1592.21 98.7217 1573.81ZM-158.201 1572.73C-153.078 1581.14 -141.94 1593.56 -141.94 1593.56C-133.534 1591.57 -111.621 1587.34 -89.5327 1592.81C-89.5327 1592.81 -77.5844 1601.52 -65.1099 1601.71C-52.6355 1601.9 -30.1575 1591.36 -34.5956 1575.98C-34.864 1576.39 -35.1304 1576.81 -35.3976 1577.24C-39.9196 1584.36 -44.6853 1591.86 -63.8982 1591.55C-69.6553 1590.51 -80.1305 1586.3 -75.1771 1571.07C-77.1503 1568.44 -85.1956 1564.67 -101.591 1570.64C-106.82 1573.39 -158.201 1572.73 -158.201 1572.73ZM29.7435 1817.37C38.435 1813.81 58.225 1809.29 67.8532 1819.72C74.5682 1815.08 92.0056 1806.43 108.036 1808.91C105.242 1799.84 108.043 1778.23 141.6 1764.34C141.474 1751.96 152.962 1726.56 199.928 1723.98C200.121 1723.87 200.394 1723.71 200.746 1723.5C206.071 1720.32 229.426 1706.37 266.713 1722.27C274.744 1718.81 298.343 1715.49 328.49 1729.85C330.536 1730.34 334.754 1730.3 335.255 1726.14C327.896 1720.01 306.626 1708.05 280.427 1709.3C279.258 1701.53 271.138 1688.82 248.004 1700.11C238.575 1692.32 211.016 1679.6 176.208 1690.98C140.355 1702.7 136.238 1719.41 134.215 1727.61C133.783 1729.37 133.447 1730.73 132.917 1731.58C130.886 1732.46 128.798 1733.25 126.689 1734.04C117.612 1737.45 108.142 1741 101.14 1753.28C100.418 1755.23 99.5751 1760.61 101.977 1766.48C83.1697 1769.3 62.7606 1784.59 69.5664 1805.52L65.8368 1808.23C60.8216 1805.49 48.1437 1801.01 37.5534 1805C33.1825 1806.32 25.5014 1810.64 29.7435 1817.37Z" fill="url(#paint1_linear_5004_1057)"/>
<path d="M253.666 1850.17C291.873 1846.34 316.992 1849.39 324.775 1851.39C320.321 1853.25 296.421 1854.63 285.028 1855.09C289.473 1856.1 305.083 1858.87 331.957 1861.87C358.831 1864.87 365.425 1867.43 365.363 1868.33C360.924 1869.06 339.719 1870.95 290.415 1872.64C241.111 1874.33 221.641 1870.39 218.069 1868.22C203.981 1867.45 172.7 1865.68 160.278 1864.8C144.749 1863.69 148.54 1857.5 165.495 1855.83C179.06 1854.5 229.927 1851.5 253.666 1850.17Z" fill="white"/>
<path d="M259.123 1854.47C268.592 1851.02 306.078 1850.77 323.638 1851.07C317.85 1853.38 295.612 1854.6 285.216 1854.92L300.137 1858.19L269.12 1857.65C264.394 1857.57 260.486 1855.5 259.123 1854.47Z" fill="#AFD0D0"/>
<path d="M215.95 1856.73C200.589 1856.46 166.483 1859.38 151.35 1860.87C141.419 1864.92 192.321 1867.86 219.013 1868.82C254.408 1876.84 331.112 1872.1 365.039 1868.73C365.688 1867.36 363.934 1864.57 351.724 1864.36C336.462 1864.09 309.899 1867.77 306.453 1867.71C287.958 1863.78 263.3 1865.45 253.282 1866.79C208.606 1867.51 209.779 1860.38 215.95 1856.73Z" fill="#AFD0D0"/>
<path d="M1562.65 1814.7C1575.19 1796.71 1597.44 1797.98 1623.1 1793.31C1669.79 1748.77 1764.36 1780.96 1761.36 1818.32C1792.62 1819.2 1809.6 1838.97 1813.65 1849.31C1816.32 1846.89 1830.42 1845.6 1837.14 1845.26C1865.79 1827.99 1904.48 1848.74 1920.24 1861.28C1954.07 1864.73 1955.09 1887.2 1951.38 1898C1974.38 1904.11 1981.12 1920.12 1981.61 1927.36C2012.53 1928.71 2037.67 1936.51 2046.38 1940.24C2070.17 1929.11 2092.72 1943.89 2101.02 1952.67C2145.5 1955.42 2148.83 1980.22 2144.93 1992.28C2154.51 1991.48 2163.8 1995.97 2167.24 1998.31C2175.38 2000.7 2171.62 2020.02 2168.72 2029.39C2202.38 2034.93 2205.63 2051.23 2203.05 2058.69C2225.7 2067.97 2234.53 2084.32 2236.12 2091.34C2285.33 2090.84 2284.51 2110.14 2277.95 2119.85C2301.48 2118.08 2300.78 2121.5 2297.48 2123.44C2288.09 2123.17 2236.49 2123.73 2233.69 2121.63C2231.45 2119.94 2236.21 2119 2238.88 2118.74C2234.92 2118.62 2227.83 2116.4 2224.78 2115.3C2196.52 2116.59 2154.79 2112.44 2137.46 2110.21L2081.33 2108.62L1977.35 2105.67C1882.36 2099.8 1774.76 2103.55 1732.84 2106.15C1758.95 2106.89 1764.81 2111.22 1764.48 2113.29C1705.46 2115.8 1582.7 2120.43 1563.79 2118.81C1544.89 2117.2 1536.73 2110.12 1535.02 2106.78C1517.09 2102.9 1443.01 2105.58 1408.21 2107.4C1382.39 2106.67 1354.57 2103.07 1343.89 2101.36L1191.57 2097.04C1180.89 2096.74 1160.11 2098.96 1151.05 2100.11C1145.92 2099.74 1134.01 2099.08 1127.44 2099.44C1120.87 2099.79 1113.22 2096.45 1110.22 2094.73C1110.94 2085.71 1122.56 2087.16 1128.28 2089L1175.09 2084.68C1190.35 2069.94 1209.65 2060.62 1217.39 2057.8C1262.44 2041.14 1302.1 2052.73 1316.3 2060.61C1343.01 2024.18 1399.86 2024.44 1394.15 2021.58C1389.57 2019.29 1385.38 2015.49 1383.86 2013.87C1340.43 2011.51 1253.24 2005.98 1251.92 2002.71C1250.6 1999.43 1267.37 1999.55 1275.93 2000.01C1274.91 1992.97 1340.37 1995.77 1373.23 1998.05C1372.46 1978.06 1393.76 1968.73 1404.5 1966.56C1422.2 1923.88 1466.26 1913.44 1486.07 1913.55C1485.72 1893.31 1506.25 1884.44 1520.85 1875.41C1532.54 1868.19 1559.34 1865.26 1571.28 1864.7C1545.94 1838.65 1546.94 1837.23 1562.09 1815.5L1562.65 1814.7Z" fill="white"/>
<path d="M1761.49 1819.84C1762.05 1812.84 1756.76 1802.62 1753.77 1798.71C1744.26 1818.41 1713.67 1822.76 1699.84 1822.14C1706.71 1825.57 1710.26 1828.28 1711.17 1829.21C1735.65 1829.9 1751.36 1822.48 1761.49 1819.84Z" fill="#B5EDF8"/>
<path d="M1657.59 1795.81C1647.17 1792.27 1630.69 1792.35 1623.75 1792.82L1621.7 1793.69C1639.44 1794.94 1657.7 1799.07 1663.62 1800.95C1663.51 1798.59 1659.56 1796.54 1657.59 1795.81Z" fill="#B5EDF8"/>
<path opacity="0.6" fill-rule="evenodd" clip-rule="evenodd" d="M1818.72 1841.44C1818.16 1839.96 1816.79 1836.7 1815.75 1835.55L1809.7 1838.99C1799.3 1832.74 1770.18 1823.75 1736.94 1837.81C1735.43 1839.19 1731.73 1842.44 1729.06 1844.31C1728.88 1844.44 1728.63 1844.61 1728.34 1844.81C1723.2 1848.26 1701.95 1862.56 1699.39 1892.75C1692.04 1893.1 1674.91 1894.39 1665.22 1896.71C1664.1 1895.54 1659.91 1892.96 1652.19 1891.98C1645.37 1884.81 1621.41 1874.12 1580.17 1888.69C1538.93 1903.26 1520.27 1920.05 1516.1 1926.63C1508.13 1927.71 1490.71 1933.66 1484.78 1948.8C1463.93 1955.14 1425.21 1973.24 1437.13 1994.99C1434.01 2001.96 1434.43 2020.09 1461.06 2036.75C1459.82 2038.59 1457.27 2043.23 1457.01 2047.05C1450.41 2043.13 1432.26 2036.99 1412.44 2043.76C1403.98 2047.58 1387.96 2057.15 1391.54 2064.86C1375.11 2065.98 1341.09 2072.42 1336.44 2089.21C1335.22 2088.87 1331.67 2088.36 1327.27 2089.07C1319.2 2083.15 1294.48 2072.09 1260.19 2075.22C1253.04 2072.86 1230.16 2073.26 1195.86 2093.75C1192.62 2095.59 1191.05 2098.78 1210.69 2096.83L1224.38 2097.05C1226.44 2097.08 1150.04 2105.06 1111.58 2109.04C1112.46 2110.53 1117.02 2113.56 1128.17 2113.74L1151.28 2114.11C1159.94 2112.78 1179.47 2110.14 1188.37 2110.29L1283.14 2111.83L1341.6 2112.78C1356.51 2114.79 1390.03 2118.67 1404.8 2118.06C1412.27 2117.75 1421.96 2117.14 1432.08 2116.51L1432.08 2116.51L1432.08 2116.51C1447 2115.58 1462.86 2114.59 1473.97 2114.4L1475.5 2114.37C1494.25 2114.05 1523.15 2113.56 1529.86 2115.3C1532.74 2120.25 1545.09 2129.75 1571.46 2128.12L1648.27 2125.11L1758.49 2119.37C1758.27 2117.1 1751.82 2112.44 1727.75 2112.05L1816.36 2107.73C1833.87 2107.16 1872.99 2106.12 1889.4 2106.53L1893.77 2106.64C1916.71 2107.21 1964.47 2108.39 1970.61 2108.82C1975.86 2109.19 2077.47 2110.68 2127.62 2111.37C2140.84 2113.18 2176.54 2116.48 2213.55 2115.16C2216.07 2116.3 2222.38 2118.58 2227.47 2118.67C2222.88 2119.45 2216.37 2121.32 2227 2122.56C2237.64 2123.79 2270.48 2123.71 2285.58 2123.51C2289.3 2121.06 2290.66 2116.61 2266.34 2118.41C2273.28 2108.48 2274.94 2088.8 2226.05 2089.49C2224 2081.31 2214.83 2063.16 2194.51 2056.02C2197.73 2048.19 2195.8 2031.2 2162.32 2025.91C2165.76 2016.57 2170.59 1996.88 2162.36 1992.77C2158.84 1990.44 2149.49 1985.99 2140.27 1986.83C2145.7 1977.68 2141.8 1958.65 2082.84 1955.77C2075.77 1953.8 2057.28 1950.89 2039.92 1955.08C2033.78 1946.65 2010.28 1930.74 1965.42 1934.55C1909.35 1939.31 1859.61 1890.04 1906.17 1872.54C1912.72 1871.03 1930.27 1872.24 1948.04 1889.26C1949.37 1888.37 1950.75 1885.23 1945.61 1879.83C1939.19 1873.08 1915.79 1854.54 1891.75 1865.04C1881.77 1859.33 1855.46 1851.86 1830.05 1867.67C1825.33 1871.94 1816.58 1882.98 1819.31 1893.02L1818.28 1901.59C1806.7 1905.57 1783.17 1916.97 1781.72 1930.77C1761.67 1931.45 1717.9 1938.45 1703.25 1961.04C1690.37 1959.79 1661.03 1965.58 1646.69 1998.66C1658.56 1997.05 1685.58 1994.97 1698.66 1999.5C1715.02 2005.17 1731.27 2012.7 1737.01 2034.41C1736.51 2036.56 1730.29 2034.3 1722.42 2026.29C1719.24 2023.05 1697.76 2021.85 1686.95 2027.84C1686.4 2028.14 1685.85 2028.45 1685.28 2028.77C1671.89 2036.23 1653.29 2046.6 1620.61 2041.65C1616.18 2046.65 1602.85 2057.47 1585.02 2060.65C1563.43 2064.5 1563.21 2064.72 1560.08 2067.65C1559.98 2067.75 1559.87 2067.85 1559.77 2067.95C1559.46 2067.94 1559.03 2067.9 1558.48 2067.84C1552 2067.17 1529.46 2064.84 1501.77 2108.38C1498.14 2103.54 1496.19 2089.99 1517.45 2074.52C1538.7 2059.06 1555.39 2056.33 1561.09 2056.89C1562.95 2047.06 1574.73 2027.95 1606.91 2030.17C1607.63 2023.48 1612.22 2009.26 1624.87 2005.92C1620.84 1999.36 1620.41 1981.52 1650.99 1962.67C1648.08 1957.92 1646.84 1945.46 1665.12 1933.57C1683.39 1921.68 1700.93 1923.7 1707.41 1926.19C1721.28 1910.89 1759.68 1884.48 1802.27 1901.33C1805.48 1902.12 1809.47 1901.5 1799.74 1892.7C1796.09 1883.28 1794.77 1859.84 1818.72 1841.44ZM1561.8 1840.36C1566.92 1848.77 1578.06 1861.19 1578.06 1861.19C1586.47 1859.2 1608.38 1854.97 1630.47 1860.43C1630.47 1860.43 1642.42 1869.14 1654.89 1869.34C1667.36 1869.53 1689.84 1858.99 1685.4 1843.61C1685.14 1844.02 1684.87 1844.44 1684.6 1844.86C1680.08 1851.98 1675.31 1859.49 1656.1 1859.18C1650.34 1858.14 1639.87 1853.92 1644.82 1838.69C1642.85 1836.06 1634.8 1832.29 1618.41 1838.26C1613.18 1841.01 1561.8 1840.36 1561.8 1840.36ZM1749.74 2085C1758.43 2081.44 1778.23 2076.92 1787.85 2087.34C1794.57 2082.71 1812.01 2074.06 1828.04 2076.54C1825.24 2067.47 1828.04 2045.86 1861.6 2031.96C1861.47 2019.58 1872.96 1994.18 1919.93 1991.6C1920.12 1991.5 1920.39 1991.34 1920.75 1991.13C1926.07 1987.95 1949.43 1974 1986.71 1989.89C1994.74 1986.44 2018.34 1983.11 2048.49 1997.48C2050.54 1997.97 2054.75 1997.92 2055.26 1993.77C2047.9 1987.63 2026.63 1975.68 2000.43 1976.93C1999.26 1969.16 1991.14 1956.45 1968 1967.73C1958.58 1959.95 1931.02 1947.23 1896.21 1958.61C1860.35 1970.33 1856.24 1987.03 1854.22 1995.24C1853.78 1996.99 1853.45 1998.36 1852.92 1999.21C1850.89 2000.09 1848.8 2000.87 1846.69 2001.66C1837.61 2005.07 1828.14 2008.63 1821.14 2020.91C1820.42 2022.86 1819.58 2028.24 1821.98 2034.1C1803.17 2036.93 1782.76 2052.22 1789.57 2073.14L1785.84 2075.86C1780.82 2073.12 1768.14 2068.64 1757.55 2072.63C1753.18 2073.95 1745.5 2078.27 1749.74 2085Z" fill="url(#paint2_linear_5004_1057)"/>
<path d="M1398.85 2012.27C1388.96 2011.99 1295.66 2007.32 1292.69 2007.23C1295.31 2009.2 1354.21 2012.69 1383.34 2014.19C1387.01 2017.8 1392.44 2020.18 1394.69 2020.92C1408.51 2016.73 1426.16 2019.9 1433.26 2022.02C1431.05 2012.51 1408.75 2012.55 1398.85 2012.27Z" fill="#F5ECA1"/>
<path d="M1402.08 2365.4H335.925L-112.67 1906.44L-125.515 1816L49.3773 1863.3L154.609 1935.03L256.383 1874.73L335.925 1923.59L412.008 2091.48L535.026 2110.71L685.71 2205.31L823.549 2160.61L903.091 2277.56L1253.37 2234.94L1367.99 2160.61L1402.08 2205.31V2365.4Z" fill="#232A2A"/>
<path d="M1402.08 2446.74L1173.78 2518.03L730.029 2397.42L335.682 2446.74L101.952 2286.63H-155.999L-125.863 1897.27L49.0691 1944.58L154.325 2016.32L256.122 1956.01L335.682 2004.88L411.782 2172.78L534.828 2192.02L685.547 2286.63L823.417 2241.92L902.977 2358.88L1253.34 2316.26L1367.98 2241.92L1402.08 2286.63V2446.74Z" fill="#6A7D7D"/>
<path d="M1349.34 2071.29L1231.37 2026.4L1116.69 2087.51L1135.67 2220.47L1093.22 2333.08L1159.55 2391.26L1223.88 2363.55L1310.13 2370.46L1461.11 2359.13L1489.83 2256.56L1349.34 2071.29Z" fill="#374242"/>
<path d="M725.124 1807.33L631.928 1724.63L506.917 1731.77L480.603 1850.18L402.686 1873.44L446.338 2002.07L514.296 2003.55L590.945 2042.36L732.817 2090.72L792.8 2015.99L725.124 1807.33Z" fill="#222B2B"/>
<path d="M710.729 1755.39L617.533 1672.69L492.523 1679.83L466.208 1798.24L390.364 1876.1L431.944 1950.13L499.901 1951.61L576.55 1990.42L718.423 2038.77L778.406 1964.05L710.729 1755.39Z" fill="#374242"/>
<path d="M1140.88 2019.51L1147.16 1906.02L1070.24 1818.67L969.564 1864.5L869.757 1851.9L840.115 1922.94L878.052 1973.37L893.994 2050.66L902.925 2133.3L940.186 2178.57L1028.91 2183.57L1140.88 2019.51Z" fill="#273131"/>
<path d="M1101.18 1971.28L1107.46 1857.8L1030.55 1770.44L929.864 1816.28L830.058 1803.67L800.416 1874.71L838.353 1925.14L854.295 2002.44L900.775 2132.6L989.211 2135.34L1101.18 1971.28Z" fill="#4E6060"/>
<path d="M1766.31 1783.3L1846.77 1842.79L1946.26 1828.15L1958.85 1731.55L2019.52 1707.38L1975.41 1607.6L1920.94 1611.27L1856.86 1585.7L1739.91 1557.15L1697.27 1621.21L1766.31 1783.3Z" fill="#222B2B"/>
<path d="M1781.53 1823.82L1861.99 1883.32L1961.48 1868.67L1974.08 1772.08L2029.19 1704.38L1990.64 1648.12L1936.17 1651.79L1872.08 1626.22L1755.14 1597.67L1712.49 1661.73L1781.53 1823.82Z" fill="#374242"/>
<path d="M1968.02 1973.95L1872.92 1944.98L1782.69 1992.14L1800.67 2087.21L1769.18 2169.38L1823.36 2209.35L1874.1 2187.62L1943.08 2190.17L2015.15 2199.79L2061.36 2177.56L2084.08 2103.22L1968.02 1973.95Z" fill="#273131"/>
<path d="M1918.78 1997.63L1823.68 1968.67L1733.45 2015.82L1751.43 2110.9L1719.95 2193.06L1774.12 2233.03L1824.87 2211.31L1893.85 2213.85L2014.1 2201.47L2034.85 2126.91L1918.78 1997.63Z" fill="#4E6060"/>
<path d="M1675.56 439.872C1680.56 431.763 1710.61 440.435 1725 445.784V509.977H1715.06C1638.43 510.916 1485.92 512.23 1488.88 509.977C1491.83 507.725 1496.74 506.599 1498.82 506.317H1528.94C1523.73 503.126 1517.86 496.744 1536.05 496.744C1558.78 496.744 1549.68 498.152 1552.24 487.172C1554.8 476.191 1638.05 490.55 1624.13 487.172C1610.21 483.793 1638.62 461.551 1647.43 453.949C1654.48 447.868 1669.12 456.483 1675.56 461.551C1673.48 457.703 1670.56 447.98 1675.56 439.872Z" fill="#5EBFC5" fill-opacity="0.15"/>
<path d="M1774.45 439.872C1769.45 431.763 1739.4 440.435 1725.01 445.784V509.977H1734.95C1811.58 510.916 1964.09 512.23 1961.13 509.977C1958.18 507.725 1953.27 506.599 1951.19 506.317H1921.07C1926.28 503.126 1932.15 496.744 1913.96 496.744C1891.23 496.744 1900.33 498.152 1897.77 487.172C1895.21 476.191 1811.96 490.55 1825.88 487.172C1839.8 483.793 1811.39 461.551 1802.58 453.949C1795.53 447.868 1780.89 456.483 1774.45 461.551C1776.53 457.703 1779.45 447.98 1774.45 439.872Z" fill="#5EBFC5" fill-opacity="0.15"/>
<path d="M1747.45 507.362C1750.94 501.707 1771.89 507.755 1781.93 511.486V556.259H1775C1721.55 556.914 1615.18 557.83 1617.24 556.259C1619.3 554.688 1622.72 553.903 1624.18 553.707H1645.18C1641.55 551.481 1637.45 547.03 1650.14 547.03C1665.99 547.03 1659.65 548.012 1661.43 540.353C1663.22 532.695 1721.29 542.71 1711.58 540.353C1701.86 537.997 1721.68 522.483 1727.83 517.181C1732.74 512.939 1742.96 518.948 1747.45 522.483C1745.99 519.799 1743.96 513.018 1747.45 507.362Z" fill="#5EBFC5" fill-opacity="0.25"/>
<path d="M1816.42 507.362C1812.93 501.707 1791.98 507.755 1781.94 511.486V556.259H1788.87C1842.32 556.914 1948.69 557.83 1946.63 556.259C1944.57 554.688 1941.15 553.903 1939.69 553.707H1918.69C1922.32 551.481 1926.42 547.03 1913.73 547.03C1897.88 547.03 1904.22 548.012 1902.43 540.353C1900.65 532.695 1842.58 542.71 1852.29 540.353C1862 537.997 1842.19 522.483 1836.04 517.181C1831.13 512.939 1820.91 518.948 1816.42 522.483C1817.87 519.799 1819.91 513.018 1816.42 507.362Z" fill="#5EBFC5" fill-opacity="0.25"/>
<path d="M1748.24 169.84C1731.19 169.84 1719.58 190.74 1717.92 196.556C1699.44 194.414 1692.01 210.731 1690.6 219.158C1665.91 209.839 1649.16 224.263 1643.87 232.639C1612.26 233.194 1607.41 238.356 1608.93 240.867H1636.15C1628.88 248.163 1629.03 264.526 1630.01 271.796C1619.28 272.708 1617.55 277.959 1618.02 280.47C1585.35 270.557 1559 287.046 1549.91 296.529C1545.75 296.149 1534.62 296.39 1523.38 300.395C1512.13 304.4 1515.06 307.417 1517.92 308.425C1522.64 306.601 1543.05 306.442 1552.66 306.591C1585.18 305.124 1590.42 308.722 1588.98 310.705C1578.81 310.705 1570.6 315.513 1574.43 317.099C1578.27 318.685 1620.48 318.933 1618.02 317.099C1615.56 315.265 1603.03 312.093 1604.41 310.705C1605.78 309.317 1662.25 306.789 1662.25 308.425C1662.25 310.061 1659.3 312.093 1652.96 312.093C1647.89 312.093 1646.29 314.373 1646.13 315.513C1680.13 318.735 1699.94 317.545 1719.2 315.513C1738.46 313.481 1787.65 313.778 1787.65 311.597C1784.5 307.791 1777.69 306.575 1774.68 306.442C1777.04 304.063 1844.06 303.865 1850.16 303.667C1856.25 303.468 1861.95 304.658 1861.56 306.442C1861.16 308.227 1855.86 307.632 1850.16 308.822C1845.6 309.773 1847.14 311.068 1848.48 311.597C1848.48 311.597 1927.5 309.02 1931.83 308.921C1936.15 308.822 1933.74 305.055 1933.74 305.055C1925.29 305.055 1918.36 299.602 1914.14 299.602C1910.75 299.602 1903 298.049 1899.54 297.273C1894 282.681 1878.3 277.248 1871.14 276.356C1879.75 270.131 1870.89 266.03 1865.39 264.758C1866.96 235.653 1851.88 225.188 1841.36 223.371H1853.45C1871.14 224.312 1872.42 219.951 1865.39 218.265C1858.36 216.58 1835.81 217.125 1835.81 217.125C1828.73 190.796 1807.5 189.104 1797.77 191.55C1792.54 179.773 1782.03 179.67 1777.43 181.091C1772.83 171.813 1760.48 169.84 1748.24 169.84Z" fill="white"/>
<path d="M1598.11 253.032C1602.36 253.278 1603.13 251.242 1602.99 250.194C1602.65 249.471 1601.21 248.052 1598.13 248.163C1595.05 248.275 1593.14 249.67 1592.56 250.353C1592.64 251.144 1593.86 252.787 1598.11 253.032Z" fill="white"/>
<path d="M1890.5 226.445C1884.68 225.89 1883.1 228.362 1883.03 229.667C1884.26 232.889 1891.14 231.005 1891.78 230.708C1892.42 230.41 1895.17 230.708 1895.71 228.428C1896.14 226.604 1892.42 226.346 1890.5 226.445Z" fill="white"/>
<path opacity="0.6" fill-rule="evenodd" clip-rule="evenodd" d="M1717.82 196.408C1719.43 192.641 1722.59 187.238 1724.06 185.008C1724.96 187.37 1728.46 192.958 1734.48 196.408C1740.49 199.858 1748.55 199.531 1751.83 198.936V200.175C1738.3 199.818 1734.17 206.338 1733.79 209.642C1730.61 200.006 1721.82 196.804 1717.82 196.408ZM1781.9 198.936C1786.14 197.746 1792.38 190.906 1794.97 187.635C1795.68 186.767 1797.03 189.917 1797.62 191.6C1796.41 192.036 1795.35 194.161 1794.97 195.169C1806.96 194.177 1813.3 197.267 1814.97 198.936C1829.4 208.571 1831.2 220.761 1830.3 225.652C1841.11 224.66 1848.3 229.832 1850.45 233.235C1861.26 241.711 1865.14 254.598 1865.14 264.709C1878.35 268.04 1874.84 273.796 1871.43 276.258C1888.37 279.351 1897.3 291.425 1899.64 297.075C1907.14 299.038 1911.68 299.408 1914.15 299.609C1915.12 299.687 1915.76 299.74 1916.15 299.851C1916.76 300.028 1917.72 300.46 1918.97 301.016L1918.97 301.016L1918.97 301.016C1920.51 301.709 1922.49 302.595 1924.75 303.42C1928.01 304.609 1932.14 304.94 1933.79 304.956C1935.44 308.168 1933.1 308.971 1931.73 308.971L1882.54 310.458L1848.63 311.697C1843.72 309.794 1851.96 308.327 1856.69 307.831C1859.2 307.749 1863.58 307.088 1861.06 305.105C1858.55 303.122 1840.42 303.453 1831.68 303.866L1798.56 304.56C1782.91 304.56 1776.18 305.849 1774.77 306.493C1782.52 307.167 1786.58 310.243 1787.65 311.697C1784.12 313.265 1760.1 313.74 1745 314.038H1745L1743.08 314.076C1734.69 314.244 1724.73 315.087 1714.95 315.916L1714.95 315.916C1707.36 316.559 1699.87 317.193 1693.3 317.496C1681.27 318.052 1656.94 316.34 1646.27 315.415C1646.67 312.788 1649.86 312.391 1653.1 312.391C1656.35 312.391 1659.15 311.697 1662.39 309.516C1665.63 307.335 1649.86 307.831 1648.19 307.98C1647.67 308.026 1645.15 308.111 1641.58 308.231C1633.69 308.497 1620.65 308.936 1612.66 309.516C1603.38 310.19 1603.42 311.251 1604.6 311.697C1606.78 312.755 1612.23 315.177 1616.59 316.406C1620.96 317.635 1615.79 318.009 1612.66 318.042C1603.41 318.141 1584.13 318.28 1581.07 318.042C1578 317.804 1574.78 316.852 1573.55 316.406C1574.65 312.123 1584.39 310.855 1589.12 310.755C1589.32 308.023 1585.19 307.537 1580.39 306.972L1580.39 306.972C1579.18 306.83 1577.93 306.682 1576.69 306.493C1572.71 305.883 1561.04 306.105 1550.26 306.31H1550.26H1550.26L1550.26 306.31C1544.41 306.421 1538.82 306.528 1534.87 306.493C1525.91 306.414 1519.84 307.749 1517.92 308.426C1516.19 307.99 1515.37 306.394 1515.17 305.65C1524.01 304.461 1543.12 302.052 1548.78 301.933C1554.44 301.814 1565.55 296.464 1570.4 293.804C1589.98 283.217 1612.5 284.601 1621.31 286.617C1621.59 281.224 1624.8 278.29 1626.37 277.497C1631.25 275.475 1636.76 276.654 1638.9 277.497V278.984C1628.63 284.436 1632.81 296.629 1633.84 297.571C1634.31 297.997 1635.14 297.551 1635.87 297.154C1636.76 296.675 1637.52 296.268 1637.33 297.571C1637.06 299.474 1638.82 300.347 1639.74 300.545C1644.26 301.717 1647.87 297.484 1649.3 295.808C1649.56 295.499 1649.75 295.277 1649.86 295.192C1650.41 294.756 1649.63 291.805 1649.17 290.384C1648.15 292.922 1645.96 291.904 1645 291.078C1642.99 290.444 1643.51 287.179 1644.01 285.626C1652.43 269.884 1667.67 266.312 1674.23 266.493L1675.56 264.114L1673.4 262.429C1670.73 254.062 1653.1 258.563 1651.97 266.147C1645.68 265.353 1641.2 272.127 1639.74 275.614C1637.62 272.917 1632.6 271.78 1630.35 271.549C1636.13 271.549 1639.02 267.947 1639.74 266.147C1638.28 252.348 1646.41 245.032 1650.65 243.099C1662.91 221.805 1687.14 223.256 1697.72 226.643C1709.87 202.296 1734.36 213.194 1745.09 221.686C1751.3 209.91 1762.62 204.652 1767.5 203.496C1765.83 203.099 1762.73 200.274 1762.19 198.936C1761.76 197.865 1763.26 196.804 1764.06 196.408C1768.78 199.233 1776.59 200.423 1781.9 198.936ZM1841.36 223.322L1836.35 221.389C1849.17 220.447 1866.27 220.289 1869.22 220.447C1869.43 221.405 1868.15 223.322 1861.31 223.322H1841.36ZM1824.6 281.463C1823.16 280.587 1819.89 278.737 1818.36 278.34C1816.83 277.943 1811.79 278.175 1809.47 278.34C1806.47 272.673 1796.63 262.261 1781.26 265.949C1778.87 256.977 1767.2 241.166 1739.64 249.691C1738.2 247.51 1732.81 244.457 1722.78 249.691C1712.76 254.925 1713.17 261.884 1714.63 264.71C1709.4 269.088 1700.35 280.273 1705.93 289.988C1699.93 288.848 1687.55 290.404 1685.98 305.75H1688.39C1690.7 301.371 1697.77 293.15 1707.6 295.291C1710.68 296.25 1716.4 296.184 1714.63 288.253C1713.33 281.529 1715.51 268.328 1734.58 269.319C1735.56 264.627 1741.03 255.827 1755.07 258.167C1769.1 260.506 1774.05 267.865 1774.77 271.252C1783.29 269.65 1801.57 269.745 1806.57 282.95L1824.6 281.463Z" fill="url(#paint3_linear_5004_1057)"/>
<path d="M1698.96 265.332C1686.95 265.332 1678.78 280.047 1677.61 284.142C1664.6 282.635 1659.37 294.123 1658.38 300.056C1640.99 293.495 1629.2 303.65 1625.47 309.548C1603.22 309.939 1599.8 313.573 1600.87 315.341H1620.04C1614.92 320.478 1615.02 331.999 1615.72 337.118C1608.16 337.76 1606.94 341.457 1607.27 343.225C1584.27 336.245 1565.72 347.855 1559.32 354.532C1556.39 354.264 1548.55 354.434 1540.64 357.254C1532.72 360.074 1534.78 362.198 1536.8 362.907C1540.12 361.623 1554.49 361.511 1561.26 361.616C1584.15 360.583 1587.84 363.117 1586.83 364.513C1579.67 364.513 1573.89 367.898 1576.59 369.014C1579.28 370.131 1609 370.306 1607.27 369.014C1605.54 367.723 1596.72 365.49 1597.69 364.513C1598.66 363.535 1638.41 361.756 1638.41 362.907C1638.41 364.059 1636.34 365.49 1631.87 365.49C1628.3 365.49 1627.18 367.095 1627.06 367.898C1651.01 370.166 1664.95 369.329 1678.51 367.898C1692.07 366.467 1726.71 366.676 1726.71 365.141C1724.49 362.461 1719.7 361.604 1717.57 361.511C1719.23 359.836 1766.43 359.697 1770.72 359.557C1775.01 359.417 1779.02 360.255 1778.74 361.511C1778.47 362.768 1774.73 362.349 1770.72 363.186C1767.51 363.856 1768.59 364.769 1769.54 365.141C1769.54 365.141 1825.17 363.326 1828.22 363.256C1831.26 363.186 1829.57 360.534 1829.57 360.534C1823.62 360.534 1818.74 356.695 1815.76 356.695C1813.38 356.695 1807.92 355.602 1805.49 355.055C1801.59 344.781 1790.53 340.956 1785.49 340.328C1791.55 335.945 1785.32 333.058 1781.44 332.162C1782.55 311.67 1771.93 304.302 1764.52 303.022H1773.03C1785.49 303.685 1786.39 300.614 1781.44 299.428C1776.49 298.241 1760.61 298.625 1760.61 298.625C1755.63 280.087 1740.69 278.896 1733.83 280.617C1730.15 272.326 1722.75 272.253 1719.51 273.254C1716.27 266.721 1707.57 265.332 1698.96 265.332Z" fill="white"/>
<path d="M1593.25 323.906C1596.24 324.078 1596.79 322.645 1596.69 321.907C1596.45 321.398 1595.44 320.399 1593.27 320.478C1591.1 320.556 1589.75 321.538 1589.35 322.019C1589.4 322.576 1590.26 323.733 1593.25 323.906Z" fill="white"/>
<path d="M1799.12 305.185C1795.02 304.794 1793.91 306.535 1793.86 307.454C1794.72 309.722 1799.57 308.396 1800.02 308.186C1800.47 307.977 1802.41 308.186 1802.79 306.581C1803.09 305.297 1800.47 305.115 1799.12 305.185Z" fill="white"/>
<path opacity="0.6" fill-rule="evenodd" clip-rule="evenodd" d="M1677.54 284.036C1678.68 281.384 1680.9 277.58 1681.93 276.01C1682.57 277.673 1685.03 281.607 1689.27 284.036C1693.5 286.465 1699.18 286.235 1701.48 285.816V286.689C1691.96 286.437 1689.05 291.028 1688.79 293.354C1686.54 286.57 1680.35 284.316 1677.54 284.036ZM1722.66 285.816C1725.65 284.979 1730.04 280.163 1731.86 277.859C1732.36 277.249 1733.31 279.466 1733.73 280.651C1732.87 280.958 1732.13 282.454 1731.86 283.164C1740.3 282.466 1744.77 284.641 1745.94 285.816C1756.1 292.6 1757.37 301.183 1756.74 304.626C1764.35 303.928 1769.41 307.569 1770.92 309.966C1778.53 315.933 1781.27 325.007 1781.27 332.126C1790.57 334.471 1788.09 338.524 1785.69 340.257C1797.62 342.435 1803.91 350.936 1805.55 354.915C1810.83 356.296 1814.03 356.557 1815.77 356.698C1816.45 356.753 1816.91 356.791 1817.18 356.869C1817.61 356.993 1818.29 357.297 1819.16 357.689C1820.25 358.177 1821.64 358.801 1823.23 359.381C1825.53 360.219 1828.44 360.452 1829.6 360.463C1830.76 362.725 1829.12 363.29 1828.15 363.29L1793.51 364.337L1769.64 365.209C1766.18 363.869 1771.98 362.836 1775.32 362.487C1777.08 362.429 1780.17 361.964 1778.39 360.568C1776.62 359.172 1763.86 359.405 1757.71 359.696L1734.39 360.184C1723.37 360.184 1718.63 361.091 1717.64 361.545C1723.09 362.02 1725.96 364.186 1726.7 365.209C1724.22 366.313 1707.31 366.648 1696.67 366.858L1695.32 366.885C1689.42 367.003 1682.41 367.596 1675.52 368.18H1675.52L1675.52 368.18L1675.52 368.18C1670.17 368.633 1664.9 369.079 1660.28 369.293C1651.81 369.683 1634.67 368.478 1627.17 367.827C1627.44 365.977 1629.69 365.698 1631.97 365.698C1634.26 365.698 1636.23 365.209 1638.51 363.674C1640.8 362.138 1629.69 362.487 1628.52 362.592C1628.15 362.625 1626.38 362.684 1623.86 362.769H1623.86H1623.86H1623.86L1623.86 362.769C1618.3 362.956 1609.12 363.265 1603.5 363.674C1596.97 364.149 1597 364.895 1597.83 365.209C1599.36 365.954 1603.2 367.659 1606.27 368.525C1609.34 369.39 1605.7 369.653 1603.5 369.676C1596.98 369.746 1583.41 369.844 1581.25 369.676C1579.09 369.509 1576.83 368.839 1575.96 368.525C1576.74 365.51 1583.6 364.616 1586.93 364.546C1587.07 362.623 1584.16 362.28 1580.78 361.882C1579.93 361.782 1579.04 361.679 1578.17 361.545C1575.37 361.115 1567.15 361.272 1559.56 361.416C1555.44 361.495 1551.51 361.57 1548.73 361.545C1542.42 361.489 1538.14 362.429 1536.8 362.906C1535.58 362.599 1535 361.475 1534.86 360.952C1541.09 360.114 1554.54 358.418 1558.52 358.335C1562.51 358.251 1570.33 354.484 1573.75 352.611C1587.53 345.157 1603.39 346.132 1609.59 347.551C1609.78 343.754 1612.05 341.688 1613.15 341.13C1616.59 339.706 1620.47 340.536 1621.98 341.13V342.177C1614.74 346.015 1617.69 354.6 1618.41 355.263C1618.74 355.563 1619.32 355.249 1619.84 354.97C1620.47 354.632 1621 354.346 1620.87 355.263C1620.68 356.604 1621.92 357.218 1622.56 357.357C1625.75 358.182 1628.29 355.202 1629.3 354.022C1629.48 353.805 1629.62 353.648 1629.69 353.588C1630.08 353.281 1629.53 351.204 1629.21 350.203C1628.49 351.99 1626.95 351.273 1626.27 350.692C1624.85 350.245 1625.22 347.947 1625.57 346.853C1631.5 335.769 1642.23 333.254 1646.85 333.382L1647.79 331.707L1646.26 330.521C1644.38 324.63 1631.97 327.799 1631.18 333.138C1626.75 332.58 1623.59 337.349 1622.56 339.804C1621.07 337.905 1617.54 337.105 1615.96 336.942C1620.02 336.942 1622.06 334.406 1622.56 333.138C1621.54 323.422 1627.26 318.271 1630.25 316.91C1638.88 301.918 1655.94 302.94 1663.39 305.324C1671.94 288.182 1689.19 295.855 1696.74 301.834C1701.12 293.543 1709.08 289.841 1712.52 289.027C1711.34 288.748 1709.16 286.758 1708.78 285.816C1708.48 285.062 1709.53 284.316 1710.1 284.036C1713.42 286.026 1718.92 286.863 1722.66 285.816ZM1764.52 302.986L1760.99 301.625C1770.02 300.962 1782.06 300.85 1784.14 300.962C1784.29 301.637 1783.38 302.986 1778.57 302.986H1764.52ZM1752.72 343.921C1751.71 343.304 1749.41 342.001 1748.33 341.722C1747.25 341.443 1743.7 341.606 1742.07 341.722C1739.95 337.732 1733.03 330.401 1722.21 332.998C1720.52 326.681 1712.3 315.549 1692.9 321.551C1691.89 320.016 1688.09 317.866 1681.03 321.551C1673.98 325.236 1674.26 330.136 1675.29 332.125C1671.61 335.208 1665.24 343.083 1669.17 349.923C1664.95 349.121 1656.23 350.216 1655.12 361.021H1656.82C1658.44 357.938 1663.42 352.15 1670.34 353.657C1672.51 354.332 1676.54 354.286 1675.29 348.702C1674.38 343.967 1675.91 334.673 1689.34 335.371C1690.03 332.067 1693.88 325.872 1703.76 327.519C1713.65 329.166 1717.13 334.347 1717.64 336.732C1723.64 335.603 1736.51 335.671 1740.02 344.968L1752.72 343.921Z" fill="url(#paint4_linear_5004_1057)"/>
<ellipse cx="1605.52" cy="332.903" rx="22.0711" ry="17.231" transform="rotate(-53.9299 1605.52 332.903)" fill="#569EA3"/>
<path d="M1717.74 494.293C1812.37 421.421 1747.03 375.469 1702.53 361.601L1773.74 267.19C1813.76 275.797 1839.35 308.563 1847.15 323.87L1922.45 423.075L1852.41 539.592L1929.02 637.657L1787.42 687.004C1632.48 659.399 1676.4 547.028 1717.74 494.293Z" fill="url(#paint5_linear_5004_1057)"/>
<mask id="mask0_5004_1057" style="mask-type:alpha" maskUnits="userSpaceOnUse" x="1679" y="267" width="251" height="495">
<path d="M1717.74 494.293C1812.37 421.421 1747.03 375.469 1702.53 361.601L1773.74 267.19C1813.76 275.797 1839.35 308.563 1847.15 323.87L1922.45 423.075L1852.41 539.592L1929.02 637.657L1910.36 761.705L1788.24 690.121C1633.29 662.517 1676.4 547.028 1717.74 494.293Z" fill="url(#paint6_linear_5004_1057)"/>
</mask>
<g mask="url(#mask0_5004_1057)">
<path d="M1811.54 474.221C1857.92 398.575 1777.05 332.555 1730.82 309L1679.31 360.055L1719.96 403.875L1599.64 563.92L1744.29 753.282L1903.73 732.222C1867.2 697.799 1765.17 549.868 1811.54 474.221Z" fill="#DAE4CB"/>
</g>
<path d="M1594.96 400.269C1569.82 353.091 1646.54 175.506 1654.09 198.562C1654.09 198.562 1632 284.961 1649.9 238.872C1667.8 192.784 1684.31 185.598 1721.44 185.658C1728.51 205.381 1729.67 218.576 1726.93 231.192L1736.4 206.901C1739.55 216.949 1756.82 232.612 1787.89 217.944C1781.56 238.67 1778.07 282.171 1814.79 290.361C1804.93 290.665 1786 300.432 1789.15 337.066C1782.47 323.469 1763.12 301.84 1739.15 324.1C1741.93 332.712 1739.35 361.92 1678.5 381.476C1667.32 393.064 1635.44 411.237 1620.15 410.906C1604.86 410.574 1594.7 405.406 1594.96 400.269Z" fill="#5EBFC5"/>
<ellipse cx="1658.92" cy="337.439" rx="32.1387" ry="24.7816" transform="rotate(-50.8728 1658.92 337.439)" fill="#FEDD92"/>
<ellipse cx="1659.11" cy="337.64" rx="22.1238" ry="17.0593" transform="rotate(-50.8728 1659.11 337.64)" fill="#040404"/>
<mask id="mask1_5004_1057" style="mask-type:alpha" maskUnits="userSpaceOnUse" x="1630" y="308" width="57" height="59">
<ellipse cx="1658.92" cy="337.439" rx="32.1387" ry="24.7816" transform="rotate(-50.8728 1658.92 337.439)" fill="#FEDD92"/>
</mask>
<g mask="url(#mask1_5004_1057)">
<rect x="1605.9" y="360.902" width="108.807" height="27.8793" transform="rotate(-51.7885 1605.9 360.902)" fill="#569EA3"/>
</g>
<circle cx="1624.57" cy="397.946" r="3.29131" transform="rotate(-14.6223 1624.57 397.946)" fill="#569EA3"/>
<path d="M1732.08 308.47C1742.86 324.467 1747.32 361.359 1678.96 380.954L1630.52 410.001" stroke="#569EA3" stroke-width="10" stroke-linecap="round"/>
<path d="M1706.63 271.493L1737.14 205.908C1725.57 238.86 1720.88 273.445 1719.98 286.618C1712.69 290.243 1705.12 283.433 1706.63 271.493Z" fill="#569EA3"/>
<path d="M1731.65 279.971L1771.57 234.341" stroke="#569EA3" stroke-width="10" stroke-linecap="round"/>
<path d="M1736.09 287.015L1792.48 286.706" stroke="#569EA3" stroke-width="10" stroke-linecap="round"/>
<path d="M1740.72 294.011L1783.82 320.78" stroke="#569EA3" stroke-width="10" stroke-linecap="round"/>
<path d="M1645.14 251.319C1634.5 259.524 1612.45 278.558 1604.64 295.05C1603.67 298.081 1602.77 300.948 1601.96 303.603C1602.29 300.886 1603.24 298.009 1604.64 295.05C1616.19 259.036 1638.1 199.888 1651.35 196.877C1655.74 198.131 1662.86 210.039 1645.14 251.319Z" fill="#569EA3"/>
<path d="M1779.34 342.863C1782.92 357.882 1782.85 388.647 1753.86 391.563M1758.58 447.204C1764.75 458.343 1785.41 476.49 1818.68 459.96M1702.3 515.755C1701.16 549.962 1720.11 606.07 1804.98 556.853M1726.78 668.571C1756.22 685.122 1814.15 701.125 1835.58 637.38" stroke="#BEC6B1" stroke-width="5" stroke-linecap="round"/>
<path d="M1652.81 513.664C1641.48 490.183 1620.08 477.208 1617.02 473.502C1613.95 469.796 1627.33 511.981 1627.33 511.981C1638.5 526.764 1648.97 519.262 1652.81 513.664Z" fill="#569EA3"/>
<path d="M1731.68 711.812C1541.21 770.512 1513.41 617.194 1523.31 533.198L1615.12 549.903C1674.13 642.659 1744.83 622.24 1772.8 600.436L1731.68 711.812Z" fill="url(#paint7_linear_5004_1057)"/>
<mask id="mask2_5004_1057" style="mask-type:alpha" maskUnits="userSpaceOnUse" x="1521" y="533" width="252" height="192">
<path d="M1731.68 711.81C1541.21 770.51 1513.41 617.192 1523.31 533.196L1615.12 549.901C1674.13 642.657 1744.83 622.238 1772.8 600.434L1731.68 711.81Z" fill="url(#paint8_linear_5004_1057)"/>
</mask>
<g mask="url(#mask2_5004_1057)">
<path d="M1552.02 583.088L1508.36 566.684L1502.89 734.136L1744.6 778.117L1768.73 645.543C1764.52 662.161 1738.42 695.325 1667.62 695.038C1596.83 694.752 1553.96 620.371 1552.02 583.088Z" fill="#F4F5DC"/>
</g>
<ellipse cx="19.5543" cy="18.0054" rx="19.5543" ry="18.0054" transform="matrix(-0.983847 -0.179013 -0.179013 0.983847 1594.93 437.012)" fill="#569EA3"/>
<path d="M1657.65 569.251C1654.14 539.881 1642.02 517.079 1630.76 508.275C1607.45 427.68 1562.09 444.42 1530.44 421.54C1505.12 403.237 1492.69 429.299 1489.64 444.618L1517.27 493.922C1510.66 482.683 1483.11 472.947 1474 479.751C1464.89 486.556 1478.5 493.952 1486.93 498.438C1493.68 502.027 1524.86 546.335 1539.6 568.04L1609.84 588.691L1621.96 556.657C1619.9 566.908 1661 597.244 1657.65 569.251Z" fill="#5EBFC5"/>
<circle cx="23.62" cy="23.62" r="23.62" transform="matrix(-0.983847 -0.179013 -0.179013 0.983847 1592.29 477.463)" fill="#FEDD92"/>
<mask id="mask3_5004_1057" style="mask-type:alpha" maskUnits="userSpaceOnUse" x="1541" y="472" width="48" height="49">
<circle cx="23.62" cy="23.62" r="23.62" transform="matrix(-0.983847 -0.179013 -0.179013 0.983847 1592.29 477.463)" fill="#FEDD92"/>
</mask>
<g mask="url(#mask3_5004_1057)">
<circle cx="15.1013" cy="15.1013" r="15.1013" transform="matrix(-0.983847 -0.179013 -0.179013 0.983847 1582.38 484.318)" fill="#040404"/>
<path d="M1601.94 453.637L1574.89 448.715L1557.7 543.193L1584.75 548.114L1601.94 453.637Z" fill="#569EA3"/>
</g>
<g opacity="0.5">
<path d="M1896.44 475.009L1896.39 474.01L1897.39 474.003C1901.07 473.979 1904.48 474.634 1907.04 475.753C1909.51 476.832 1911.57 478.534 1911.69 480.788C1911.81 483.042 1909.93 484.771 1907.58 485.882C1905.14 487.034 1901.8 487.734 1898.12 487.758L1897.12 487.765L1897.07 486.766L1897.04 486.195L1896.98 485.196L1897.98 485.19C1901.09 485.169 1903.84 484.574 1905.75 483.671C1907.74 482.726 1908.48 481.64 1908.43 480.81C1908.39 479.98 1907.54 478.904 1905.44 477.986C1903.44 477.11 1900.64 476.551 1897.53 476.572L1896.53 476.578L1896.47 475.579L1896.44 475.009Z" fill="#76D3D9" stroke="#76D3D9" stroke-width="2"/>
<path d="M1909.15 480.415L1909.1 479.416L1910.1 479.409C1913.77 479.385 1917.19 480.04 1919.75 481.159C1922.22 482.238 1924.28 483.941 1924.4 486.195C1924.52 488.448 1922.64 490.177 1920.29 491.288C1917.85 492.44 1914.5 493.14 1910.83 493.165L1909.83 493.171L1909.77 492.172L1909.74 491.602L1909.69 490.603L1910.69 490.596C1913.8 490.575 1916.54 489.98 1918.45 489.077C1920.45 488.132 1921.18 487.046 1921.14 486.216C1921.1 485.386 1920.25 484.31 1918.15 483.393C1916.15 482.516 1913.34 481.957 1910.23 481.978L1909.23 481.984L1909.18 480.985L1909.15 480.415Z" fill="#76D3D9" stroke="#76D3D9" stroke-width="2"/>
<path d="M1896.82 486.126L1896.77 485.127L1897.77 485.12C1901.45 485.096 1904.86 485.751 1907.42 486.87C1909.89 487.949 1911.95 489.652 1912.07 491.906C1912.19 494.159 1910.31 495.888 1907.96 496.999C1905.52 498.151 1902.18 498.851 1898.5 498.876L1897.5 498.882L1897.45 497.883L1897.42 497.313L1897.36 496.314L1898.36 496.307C1901.47 496.286 1904.22 495.691 1906.13 494.788C1908.13 493.843 1908.86 492.757 1908.81 491.927C1908.77 491.097 1907.92 490.021 1905.82 489.104C1903.82 488.227 1901.02 487.668 1897.91 487.689L1896.91 487.695L1896.85 486.696L1896.82 486.126Z" fill="#76D3D9" stroke="#76D3D9" stroke-width="2"/>
<path d="M1909.53 491.53L1909.48 490.531L1910.48 490.524C1914.15 490.5 1917.57 491.155 1920.13 492.275C1922.6 493.353 1924.66 495.056 1924.78 497.31C1924.9 499.564 1923.02 501.293 1920.67 502.403C1918.23 503.556 1914.88 504.256 1911.21 504.28L1910.21 504.287L1910.15 503.288L1910.12 502.717L1910.07 501.718L1911.07 501.711C1914.18 501.691 1916.92 501.095 1918.83 500.192C1920.83 499.248 1921.57 498.162 1921.52 497.331C1921.48 496.501 1920.63 495.426 1918.53 494.508C1916.53 493.631 1913.72 493.072 1910.61 493.093L1909.61 493.1L1909.56 492.101L1909.53 491.53Z" fill="#76D3D9" stroke="#76D3D9" stroke-width="2"/>
</g>
<g opacity="0.5">
<path d="M1837.11 437.069L1837.93 436.498L1838.82 436.949C1841.64 438.369 1843.45 440.22 1844.04 442.087C1844.64 443.955 1844.04 445.891 1841.9 447.372C1839.77 448.854 1836.63 449.513 1833.42 449.46C1830.21 449.408 1826.83 448.648 1824.01 447.227L1823.12 446.777L1823.94 446.206L1824.58 445.762L1825.4 445.191L1826.3 445.642C1828.51 446.757 1831.1 447.322 1833.46 447.361C1835.82 447.4 1837.87 446.917 1839.18 446.002C1840.5 445.087 1840.99 443.818 1840.55 442.446C1840.11 441.074 1838.75 439.649 1836.54 438.534L1835.64 438.083L1836.47 437.512L1837.11 437.069Z" fill="#76D3D9" stroke="#76D3D9" stroke-width="2"/>
<path d="M1840.57 446.129L1841.4 445.558L1842.29 446.009C1845.11 447.43 1846.91 449.28 1847.51 451.148C1848.11 453.015 1847.51 454.952 1845.37 456.433C1843.24 457.915 1840.1 458.574 1836.89 458.521C1833.67 458.468 1830.3 457.708 1827.48 456.288L1826.59 455.837L1827.41 455.266L1828.05 454.823L1828.87 454.252L1829.76 454.702C1831.98 455.818 1834.57 456.383 1836.93 456.422C1839.29 456.46 1841.33 455.978 1842.65 455.063C1843.97 454.147 1844.45 452.879 1844.01 451.506C1843.57 450.134 1842.22 448.71 1840.01 447.595L1839.11 447.144L1839.93 446.573L1840.57 446.129Z" fill="#76D3D9" stroke="#76D3D9" stroke-width="2"/>
<path d="M1824.98 445.532L1825.8 444.961L1826.7 445.411C1829.52 446.832 1831.32 448.682 1831.92 450.55C1832.52 452.418 1831.91 454.354 1829.78 455.835C1827.64 457.317 1824.51 457.976 1821.3 457.923C1818.08 457.871 1814.71 457.111 1811.89 455.69L1810.99 455.24L1811.82 454.669L1812.46 454.225L1813.28 453.654L1814.17 454.105C1816.39 455.22 1818.98 455.785 1821.34 455.824C1823.7 455.863 1825.74 455.38 1827.06 454.465C1828.38 453.55 1828.86 452.281 1828.42 450.909C1827.98 449.537 1826.63 448.112 1824.41 446.997L1823.52 446.546L1824.34 445.975L1824.98 445.532Z" fill="#76D3D9" stroke="#76D3D9" stroke-width="2"/>
<path d="M1828.45 454.592L1829.27 454.021L1830.16 454.472C1832.98 455.893 1834.79 457.743 1835.39 459.611C1835.98 461.478 1835.38 463.414 1833.25 464.896C1831.11 466.377 1827.97 467.037 1824.76 466.984C1821.55 466.931 1818.17 466.171 1815.35 464.751L1814.46 464.3L1815.28 463.729L1815.92 463.286L1816.75 462.715L1817.64 463.165C1819.85 464.281 1822.45 464.846 1824.81 464.884C1827.17 464.923 1829.21 464.441 1830.53 463.525C1831.85 462.61 1832.33 461.342 1831.89 459.969C1831.45 458.597 1830.09 457.173 1827.88 456.057L1826.99 455.607L1827.81 455.036L1828.45 454.592Z" fill="#76D3D9" stroke="#76D3D9" stroke-width="2"/>
</g>
<path d="M1677.09 608.406C1657.9 598.776 1634.21 566.823 1624.77 552.051C1611.88 576.154 1573.34 576.542 1555.69 573.723C1565.02 579.515 1558.35 620.386 1553.84 640.097C1586.98 611.965 1610.98 630.355 1618.83 643.067C1617.21 609.555 1657 605.997 1677.09 608.406Z" fill="#5EBFC5"/>
<path d="M1623.73 546.942C1629.57 568.979 1662.02 596.166 1677.09 608.406C1644.7 597.79 1618.13 566.192 1608.89 551.72C1611.38 542.758 1615.05 542.61 1623.73 546.942Z" fill="#569EA3"/>
<path d="M1612.96 629.205L1604.14 577.225" stroke="#569EA3" stroke-width="10" stroke-linecap="round"/>
<path d="M1577.21 629.28L1597.5 577.986" stroke="#569EA3" stroke-width="10" stroke-linecap="round"/>
<path d="M1651.43 604.482L1606.87 571.966" stroke="#569EA3" stroke-width="10" stroke-linecap="round"/>
<path d="M1489.29 500.638L1523.22 545.579C1524.47 556.76 1520.64 576.004 1550.54 581.445" stroke="#569EA3" stroke-width="10" stroke-linecap="round"/>
<circle cx="3.29131" cy="3.29131" r="3.29131" transform="matrix(-0.983847 -0.179013 -0.179013 0.983847 1516.86 437.764)" fill="#569EA3"/>
<path d="M1837.6 568.413C1829.45 555.163 1780.47 569.333 1757 578.074V682.97H1773.21C1898.13 684.503 2146.75 686.65 2141.93 682.97C2137.11 679.289 2129.12 677.449 2125.72 676.989H2076.62C2085.11 671.775 2094.68 661.347 2065.04 661.347C2027.98 661.347 2042.8 663.647 2038.63 645.704C2034.47 627.762 1898.74 651.225 1921.44 645.704C1944.14 640.183 1897.82 603.838 1883.46 591.416C1871.97 581.479 1848.1 595.557 1837.6 603.838C1841 597.551 1845.75 581.663 1837.6 568.413Z" fill="#5EBFC5" fill-opacity="0.1"/>
<path d="M1798.2 572.266C1817.38 572.266 1830.45 595.778 1832.31 602.321C1853.1 599.912 1861.46 618.269 1863.05 627.748C1890.82 617.265 1909.67 633.492 1915.62 642.915C1951.18 643.54 1956.64 649.346 1954.92 652.172H1924.3C1932.48 660.38 1932.31 678.788 1931.21 686.967C1943.28 687.993 1945.23 693.9 1944.7 696.725C1981.45 685.573 2011.09 704.122 2021.32 714.791C2026 714.364 2038.52 714.635 2051.17 719.141C2063.82 723.646 2060.53 727.04 2057.31 728.174C2052 726.122 2029.04 725.944 2018.22 726.111C1981.65 724.46 1975.75 728.509 1977.37 730.739C1988.81 730.739 1998.04 736.148 1993.73 737.932C1989.42 739.717 1941.93 739.996 1944.7 737.932C1947.46 735.869 1961.56 732.3 1960.01 730.739C1958.46 729.178 1894.94 726.334 1894.94 728.174C1894.94 730.014 1898.26 732.3 1905.39 732.3C1911.1 732.3 1912.89 734.865 1913.08 736.148C1874.82 739.772 1852.54 738.434 1830.87 736.148C1809.2 733.862 1753.87 734.196 1753.87 731.743C1757.4 727.46 1765.07 726.092 1768.46 725.944C1765.81 723.267 1690.4 723.044 1683.55 722.821C1676.69 722.598 1670.28 723.936 1670.72 725.944C1671.16 727.951 1677.13 727.282 1683.55 728.62C1688.68 729.691 1686.94 731.148 1685.43 731.743C1685.43 731.743 1596.53 728.843 1591.67 728.732C1586.8 728.62 1589.51 724.382 1589.51 724.382C1599.02 724.382 1606.82 718.249 1611.57 718.249C1615.37 718.249 1624.1 716.501 1627.99 715.628C1634.23 699.212 1651.89 693.1 1659.94 692.097C1650.26 685.093 1660.22 680.48 1666.41 679.048C1664.64 646.305 1681.61 634.532 1693.44 632.488H1679.84C1659.94 633.547 1658.51 628.64 1666.41 626.744C1674.32 624.849 1699.69 625.462 1699.69 625.462C1707.65 595.841 1731.53 593.938 1742.48 596.689C1748.36 583.44 1760.19 583.325 1765.36 584.923C1770.54 574.485 1784.44 572.266 1798.2 572.266Z" fill="white"/>
<path d="M1638.16 635.947C1644.71 635.323 1646.49 638.103 1646.57 639.572C1645.19 643.196 1637.45 641.077 1636.73 640.743C1636.01 640.408 1632.91 640.743 1632.3 638.178C1631.82 636.126 1636.01 635.836 1638.16 635.947Z" fill="white"/>
<path opacity="0.6" fill-rule="evenodd" clip-rule="evenodd" d="M1832.43 602.153C1830.62 597.915 1827.07 591.837 1825.41 589.328C1824.4 591.986 1820.46 598.272 1813.69 602.153C1806.92 606.034 1797.86 605.666 1794.17 604.997V606.391C1809.39 605.99 1814.04 613.324 1814.46 617.041C1818.05 606.201 1827.93 602.599 1832.43 602.153ZM1760.34 604.997C1755.57 603.659 1748.55 595.964 1745.64 592.283C1744.84 591.308 1743.32 594.851 1742.65 596.744C1744.02 597.235 1745.21 599.625 1745.64 600.759C1732.15 599.644 1725.02 603.12 1723.14 604.997C1706.91 615.837 1704.88 629.551 1705.89 635.052C1693.73 633.937 1685.64 639.755 1683.22 643.584C1671.06 653.119 1666.7 667.617 1666.7 678.992C1651.84 682.739 1655.79 689.215 1659.62 691.985C1640.56 695.464 1630.52 709.048 1627.89 715.404C1619.45 717.612 1614.34 718.028 1611.56 718.255H1611.56H1611.56H1611.56C1610.48 718.343 1609.75 718.402 1609.31 718.527C1608.62 718.726 1607.54 719.212 1606.14 719.838C1604.41 720.617 1602.18 721.614 1599.64 722.542C1595.97 723.88 1591.33 724.252 1589.47 724.27C1587.61 727.884 1590.24 728.787 1591.79 728.787L1647.13 730.46L1685.27 731.854C1690.8 729.713 1681.53 728.062 1676.2 727.505C1673.38 727.412 1668.45 726.668 1671.28 724.438C1674.11 722.207 1694.5 722.579 1704.34 723.044L1741.6 723.824C1759.2 723.824 1766.77 725.274 1768.36 725.999C1759.65 726.757 1755.07 730.218 1753.87 731.854C1757.85 733.617 1784.87 734.152 1801.86 734.488L1804.01 734.53C1813.45 734.719 1824.65 735.668 1835.66 736.6C1844.2 737.324 1852.63 738.037 1860.01 738.378C1873.55 739.003 1900.92 737.077 1912.92 736.036C1912.48 733.081 1908.88 732.635 1905.24 732.635C1901.59 732.635 1898.44 731.854 1894.79 729.4C1891.14 726.947 1908.88 727.505 1910.76 727.672C1911.35 727.724 1914.18 727.819 1918.19 727.954H1918.19C1927.07 728.254 1941.75 728.748 1950.73 729.4C1961.17 730.159 1961.12 731.352 1959.8 731.854C1957.35 733.044 1951.22 735.768 1946.31 737.151C1941.4 738.534 1947.21 738.954 1950.73 738.991C1961.14 739.103 1982.83 739.259 1986.28 738.991C1989.73 738.724 1993.35 737.653 1994.74 737.151C1993.5 732.333 1982.54 730.906 1977.21 730.794C1976.99 727.721 1981.64 727.174 1987.04 726.538C1988.4 726.378 1989.81 726.212 1991.2 725.999C1995.68 725.312 2008.81 725.563 2020.93 725.793H2020.93L2020.94 725.793H2020.94H2020.94C2027.52 725.919 2033.81 726.038 2038.24 725.999C2048.33 725.91 2055.16 727.412 2057.31 728.174C2059.26 727.683 2060.19 725.887 2060.41 725.051C2050.46 723.713 2028.97 721.003 2022.6 720.869C2016.23 720.735 2003.73 714.717 1998.27 711.724C1976.25 699.814 1950.92 701.371 1941 703.639C1940.69 697.572 1937.08 694.271 1935.31 693.379C1929.82 691.104 1923.63 692.431 1921.21 693.379V695.051C1932.77 701.185 1928.07 714.903 1926.91 715.962C1926.38 716.441 1925.45 715.939 1924.62 715.493C1923.62 714.954 1922.77 714.496 1922.98 715.962C1923.29 718.103 1921.3 719.085 1920.27 719.308C1915.18 720.626 1911.12 715.864 1909.51 713.979C1909.22 713.631 1909 713.381 1908.88 713.285C1908.26 712.795 1909.14 709.475 1909.66 707.877C1910.81 710.732 1913.27 709.587 1914.36 708.657C1916.61 707.944 1916.03 704.271 1915.46 702.524C1906 684.814 1888.85 680.795 1881.46 681L1879.97 678.323L1882.4 676.427C1885.41 667.015 1905.24 672.078 1906.51 680.609C1913.58 679.717 1918.63 687.338 1920.27 691.26C1922.66 688.226 1928.31 686.948 1930.83 686.687C1924.33 686.687 1921.08 682.635 1920.27 680.609C1921.91 665.085 1912.77 656.855 1908 654.68C1894.2 630.725 1866.94 632.357 1855.04 636.168C1841.37 608.778 1813.82 621.038 1801.75 630.591C1794.76 617.343 1782.03 611.428 1776.54 610.127C1778.42 609.681 1781.9 606.503 1782.51 604.997C1783 603.793 1781.31 602.599 1780.41 602.153C1775.1 605.332 1766.31 606.67 1760.34 604.997ZM1693.45 632.432L1699.09 630.257C1684.66 629.197 1665.42 629.019 1662.11 629.197C1661.87 630.275 1663.31 632.432 1671.01 632.432H1693.45ZM1712.3 697.84C1713.93 696.855 1717.6 694.773 1719.32 694.327C1721.05 693.881 1726.71 694.141 1729.33 694.327C1732.7 687.951 1743.77 676.238 1761.06 680.386C1763.75 670.294 1776.88 652.506 1807.89 662.097C1809.51 659.643 1815.57 656.208 1826.85 662.097C1838.12 667.985 1837.66 675.814 1836.02 678.992C1841.9 683.918 1852.09 696.501 1845.81 707.431C1852.55 706.148 1866.48 707.899 1868.25 725.163H1865.54C1862.95 720.237 1854.99 710.988 1843.93 713.397C1840.47 714.475 1834.03 714.401 1836.02 705.479C1837.48 697.914 1835.03 683.063 1813.58 684.178C1812.47 678.899 1806.32 669 1790.53 671.632C1774.74 674.264 1769.17 682.543 1768.36 686.353C1758.78 684.55 1738.21 684.658 1732.59 699.513L1712.3 697.84Z" fill="url(#paint9_linear_5004_1057)"/>
<path d="M1853.63 679.695C1867.14 679.695 1876.34 696.25 1877.65 700.857C1892.28 699.161 1898.18 712.085 1899.29 718.759C1918.85 711.379 1932.12 722.803 1936.31 729.438C1961.34 729.878 1965.19 733.966 1963.98 735.956H1942.42C1948.18 741.735 1948.06 754.696 1947.28 760.454C1955.78 761.177 1957.16 765.336 1956.78 767.325C1982.66 759.473 2003.53 772.533 2010.73 780.045C2014.02 779.744 2022.84 779.935 2031.74 783.107C2040.65 786.28 2038.34 788.669 2036.07 789.468C2032.33 788.023 2016.16 787.897 2008.55 788.015C1982.8 786.853 1978.64 789.703 1979.78 791.274C1987.84 791.274 1994.34 795.082 1991.3 796.338C1988.27 797.595 1954.83 797.791 1956.78 796.338C1958.73 794.886 1968.65 792.373 1967.56 791.274C1966.47 790.174 1921.75 788.172 1921.75 789.468C1921.75 790.763 1924.08 792.373 1929.11 792.373C1933.12 792.373 1934.39 794.179 1934.52 795.082C1907.58 797.634 1891.9 796.692 1876.64 795.082C1861.38 793.472 1822.42 793.708 1822.42 791.98C1824.91 788.965 1830.31 788.002 1832.69 787.897C1830.83 786.013 1777.74 785.856 1772.91 785.699C1768.08 785.542 1763.57 786.484 1763.88 787.897C1764.19 789.311 1768.39 788.839 1772.91 789.782C1776.52 790.536 1775.3 791.562 1774.23 791.98C1774.23 791.98 1711.64 789.939 1708.22 789.86C1704.79 789.782 1706.7 786.798 1706.7 786.798C1713.4 786.798 1718.88 782.479 1722.23 782.479C1724.91 782.479 1731.05 781.249 1733.79 780.634C1738.18 769.076 1750.62 764.773 1756.29 764.066C1749.47 759.135 1756.48 755.887 1760.84 754.879C1759.6 731.825 1771.55 723.536 1779.88 722.097H1770.3C1756.29 722.843 1755.28 719.388 1760.84 718.053C1766.41 716.718 1784.27 717.15 1784.27 717.15C1789.88 696.295 1806.69 694.955 1814.4 696.891C1818.54 687.563 1826.87 687.482 1830.51 688.607C1834.16 681.258 1843.94 679.695 1853.63 679.695Z" fill="white"/>
<path d="M1740.96 724.532C1745.57 724.092 1746.83 726.05 1746.88 727.084C1745.9 729.636 1740.46 728.144 1739.95 727.908C1739.44 727.673 1737.26 727.908 1736.84 726.102C1736.49 724.658 1739.44 724.454 1740.96 724.532Z" fill="white"/>
<path opacity="0.6" fill-rule="evenodd" clip-rule="evenodd" d="M1877.73 700.741C1876.45 697.757 1873.95 693.478 1872.79 691.711C1872.07 693.582 1869.3 698.008 1864.54 700.741C1859.77 703.473 1853.39 703.214 1850.8 702.743V703.725C1861.51 703.442 1864.78 708.606 1865.08 711.223C1867.6 703.591 1874.56 701.055 1877.73 700.741ZM1826.97 702.743C1823.61 701.801 1818.67 696.383 1816.62 693.792C1816.06 693.105 1814.99 695.599 1814.52 696.933C1815.48 697.278 1816.32 698.961 1816.62 699.759C1807.12 698.974 1802.1 701.421 1800.78 702.743C1789.35 710.375 1787.92 720.031 1788.64 723.905C1780.07 723.119 1774.38 727.216 1772.68 729.911C1764.11 736.625 1761.04 746.833 1761.04 754.842C1750.58 757.48 1753.36 762.04 1756.06 763.989C1742.64 766.439 1735.57 776.003 1733.72 780.479C1727.78 782.033 1724.18 782.326 1722.22 782.486H1722.22C1721.46 782.548 1720.94 782.589 1720.64 782.677C1720.15 782.817 1719.39 783.16 1718.41 783.6L1718.41 783.6L1718.41 783.601L1718.41 783.601C1717.18 784.149 1715.62 784.851 1713.83 785.504C1711.24 786.446 1707.98 786.708 1706.66 786.721C1705.36 789.265 1707.21 789.901 1708.3 789.901L1747.26 791.079L1774.12 792.061C1778.01 790.553 1771.48 789.391 1767.73 788.998C1765.75 788.933 1762.28 788.41 1764.27 786.839C1766.26 785.269 1780.62 785.53 1787.55 785.858L1813.78 786.407C1826.17 786.407 1831.5 787.428 1832.62 787.938C1826.48 788.472 1823.26 790.909 1822.42 792.061C1825.22 793.302 1844.24 793.679 1856.21 793.915L1857.72 793.945C1864.37 794.078 1872.25 794.746 1880.01 795.403L1880.01 795.403H1880.01L1880.01 795.403C1886.02 795.912 1891.95 796.414 1897.15 796.654C1906.68 797.094 1925.96 795.738 1934.4 795.005C1934.09 792.924 1931.56 792.61 1928.99 792.61C1926.42 792.61 1924.2 792.061 1921.63 790.333C1919.07 788.606 1931.56 788.998 1932.88 789.116C1933.3 789.153 1935.29 789.22 1938.12 789.315C1944.37 789.526 1954.7 789.874 1961.02 790.333C1968.37 790.867 1968.34 791.707 1967.41 792.061C1965.68 792.898 1961.37 794.817 1957.91 795.79C1954.45 796.764 1958.55 797.06 1961.02 797.086C1968.35 797.165 1983.62 797.275 1986.05 797.086C1988.48 796.898 1991.03 796.144 1992.01 795.79C1991.14 792.398 1983.42 791.393 1979.67 791.315C1979.51 789.151 1982.79 788.766 1986.59 788.318C1987.55 788.205 1988.54 788.088 1989.52 787.938C1992.67 787.455 2001.92 787.631 2010.45 787.794C2015.09 787.882 2019.52 787.966 2022.64 787.938C2029.74 787.876 2034.55 788.933 2036.07 789.47C2037.44 789.124 2038.09 787.86 2038.25 787.271C2031.24 786.329 2016.11 784.421 2011.62 784.326C2007.14 784.232 1998.34 779.995 1994.5 777.888C1978.99 769.502 1961.15 770.598 1954.17 772.195C1953.96 767.923 1951.41 765.599 1950.17 764.971C1946.3 763.369 1941.94 764.304 1940.24 764.971V766.149C1948.37 770.467 1945.07 780.126 1944.25 780.872C1943.88 781.209 1943.22 780.855 1942.64 780.541C1941.93 780.161 1941.34 779.84 1941.49 780.872C1941.7 782.379 1940.3 783.07 1939.58 783.227C1936 784.155 1933.14 780.802 1932 779.475C1931.8 779.23 1931.64 779.054 1931.56 778.987C1931.12 778.642 1931.74 776.304 1932.1 775.179C1932.91 777.189 1934.65 776.383 1935.41 775.728C1937 775.226 1936.59 772.64 1936.19 771.41C1929.53 758.941 1917.46 756.111 1912.25 756.255L1911.2 754.371L1912.92 753.036C1915.03 746.409 1928.99 749.974 1929.89 755.98C1934.87 755.352 1938.42 760.718 1939.58 763.479C1941.26 761.343 1945.23 760.443 1947.01 760.26C1942.44 760.26 1940.15 757.407 1939.58 755.98C1940.73 745.05 1934.3 739.255 1930.94 737.724C1921.22 720.858 1902.03 722.007 1893.65 724.69C1884.03 705.405 1864.63 714.037 1856.13 720.764C1851.21 711.435 1842.25 707.271 1838.38 706.355C1839.7 706.041 1842.15 703.803 1842.58 702.743C1842.93 701.895 1841.74 701.055 1841.1 700.741C1837.37 702.979 1831.18 703.921 1826.97 702.743ZM1779.88 722.059L1783.85 720.528C1773.69 719.782 1760.14 719.657 1757.81 719.782C1757.64 720.541 1758.66 722.059 1764.08 722.059H1779.88ZM1793.15 768.111C1794.29 767.417 1796.88 765.952 1798.1 765.638C1799.31 765.323 1803.3 765.507 1805.14 765.638C1807.51 761.149 1815.31 752.901 1827.48 755.822C1829.38 748.716 1838.62 736.192 1860.45 742.945C1861.59 741.217 1865.86 738.799 1873.8 742.945C1881.74 747.091 1881.42 752.603 1880.26 754.841C1884.4 758.309 1891.57 767.169 1887.15 774.864C1891.9 773.961 1901.71 775.194 1902.95 787.349H1901.05C1899.22 783.881 1893.61 777.369 1885.83 779.065C1883.39 779.824 1878.86 779.771 1880.26 773.49C1881.29 768.163 1879.56 757.707 1864.46 758.492C1863.68 754.775 1859.34 747.805 1848.23 749.658C1837.11 751.512 1833.19 757.34 1832.62 760.023C1825.87 758.754 1811.39 758.83 1807.44 769.289L1793.15 768.111Z" fill="url(#paint10_linear_5004_1057)"/>
<path d="M727.369 1872.59C727.238 1870.98 728.962 1869.89 730.359 1870.69L731.036 1871.08C731.575 1871.39 732.228 1871.43 732.802 1871.19L733.523 1870.89C735.01 1870.27 736.582 1871.57 736.25 1873.15L736.09 1873.91C735.962 1874.52 736.124 1875.16 736.529 1875.63L737.038 1876.22C738.087 1877.44 737.335 1879.34 735.734 1879.51L734.957 1879.6C734.339 1879.66 733.786 1880.01 733.463 1880.54L733.056 1881.21C732.218 1882.59 730.181 1882.46 729.523 1880.99L729.204 1880.27C728.95 1879.71 728.446 1879.29 727.84 1879.15L727.08 1878.97C725.513 1878.59 725.006 1876.62 726.201 1875.54L726.78 1875.01C727.242 1874.59 727.483 1873.99 727.432 1873.37L727.369 1872.59Z" fill="#FFFACC" fill-opacity="0.2"/>
<path d="M517.771 1972.85C115.894 2035.46 -7.71277 1934.44 -19.2813 1876.11L-178.117 1809.24C-171.953 1843.77 -155.52 1941.85 -139.105 2057.95C-122.689 2174.05 105.862 2181.63 218.086 2170.91C364.846 2120.25 666.677 2042.45 699.913 2136.46C741.459 2253.98 517.771 2311.47 462.546 2336.8C407.321 2362.12 453.173 2368.96 586.93 2368.96C895.735 2382.64 1020.12 1894.59 517.771 1972.85Z" fill="url(#paint11_linear_5004_1057)"/>
<mask id="mask4_5004_1057" style="mask-type:alpha" maskUnits="userSpaceOnUse" x="-178" y="1809" width="1035" height="560">
<path d="M517.866 1972.57C116.183 2035.16 -7.3634 1934.17 -18.9263 1875.85L-177.685 1809C-171.524 1843.52 -155.099 1941.58 -138.692 2057.65C-122.284 2173.71 106.156 2181.29 218.326 2170.57C365.015 2119.93 666.699 2042.15 699.919 2136.14C741.445 2253.63 517.866 2311.1 462.667 2336.42C407.469 2361.74 453.299 2368.58 586.99 2368.58C895.646 2382.25 1019.97 1894.33 517.866 1972.57Z" fill="url(#paint12_linear_5004_1057)"/>
</mask>
<g mask="url(#mask4_5004_1057)">
<path d="M-171.103 1880.66H43.8669C269.809 1856.52 772.318 1848.74 924.256 2050.81C1093.51 2275.92 695.863 2389.93 489.505 2372.38C721.125 2385.73 793.049 2185.59 749.293 2080.69C724.539 2021.34 589.268 1988.27 264.154 2050.81C4.06335 2100.84 -134.388 1958.22 -171.103 1880.66Z" fill="url(#paint13_linear_5004_1057)"/>
<path d="M317.076 2039.42C299.69 2025.83 270.132 1997.33 290.996 1992.07" stroke="#BEC6B1" stroke-width="5" stroke-linecap="round"/>
</g>
<path d="M7.66972 2037.24C-2.09479 2006.94 -6.52249 1947.35 53.8828 1951.45" stroke="#BEC6B1" stroke-width="5" stroke-linecap="round"/>
<path d="M548.883 2023.24C536.809 2008.59 519.905 1977.28 548.883 1969.24" stroke="#BEC6B1" stroke-width="5" stroke-linecap="round"/>
<g opacity="0.5">
<path d="M-14.0653 1553.67L-13.7652 1552.71L-12.7624 1552.76C-7.64626 1553.02 -3.28361 1554.3 -0.377926 1556.22C2.48673 1558.1 4.14425 1560.76 3.19504 1563.82C2.24583 1566.87 -0.986139 1569.28 -4.91499 1570.82C-8.9001 1572.38 -13.9134 1573.19 -19.0296 1572.93L-20.0324 1572.88L-19.7323 1571.91L-19.4572 1571.03L-19.1571 1570.06L-18.1544 1570.11C-13.7808 1570.34 -9.58427 1569.64 -6.36025 1568.37C-3.07989 1567.09 -1.10363 1565.35 -0.566304 1563.62C-0.0289793 1561.89 -0.883699 1560.02 -3.27552 1558.44C-5.62627 1556.9 -9.2641 1555.8 -13.6376 1555.57L-14.6404 1555.52L-14.3403 1554.56L-14.0653 1553.67Z" fill="#76D3D9" stroke="#76D3D9" stroke-width="2"/>
<path d="M-17.825 1570.41L-17.525 1569.44L-16.5222 1569.49C-11.406 1569.75 -7.04337 1571.04 -4.13769 1572.95C-1.27303 1574.84 0.384485 1577.5 -0.564724 1580.55C-1.51393 1583.61 -4.74591 1586.02 -8.67475 1587.56C-12.6599 1589.12 -17.6732 1589.93 -22.7894 1589.67L-23.7921 1589.62L-23.492 1588.65L-23.217 1587.76L-22.9169 1586.8L-21.9141 1586.85C-17.5406 1587.07 -13.344 1586.37 -10.12 1585.11C-6.83966 1583.82 -4.8634 1582.09 -4.32607 1580.36C-3.78875 1578.63 -4.64347 1576.75 -7.03529 1575.18C-9.38603 1573.63 -13.0239 1572.53 -17.3974 1572.31L-18.4002 1572.26L-18.1001 1571.29L-17.825 1570.41Z" fill="#76D3D9" stroke="#76D3D9" stroke-width="2"/>
</g>
<g opacity="0.5">
<path d="M797.96 1534.24L798.26 1533.27L799.263 1533.32C804.379 1533.58 808.742 1534.87 811.647 1536.78C814.512 1538.67 816.17 1541.33 815.22 1544.38C814.271 1547.44 811.039 1549.85 807.11 1551.39C803.125 1552.95 798.112 1553.76 792.996 1553.5L791.993 1553.45L792.293 1552.48L792.568 1551.59L792.868 1550.63L793.871 1550.68C798.245 1550.9 802.441 1550.2 805.665 1548.94C808.945 1547.65 810.922 1545.92 811.459 1544.19C811.996 1542.46 811.142 1540.58 808.75 1539.01C806.399 1537.46 802.761 1536.36 798.388 1536.14L797.385 1536.09L797.685 1535.12L797.96 1534.24Z" fill="#76D3D9" stroke="#76D3D9" stroke-width="2"/>
<path d="M814.923 1544.1L815.223 1543.14L816.226 1543.19C821.342 1543.45 825.705 1544.73 828.61 1546.65C831.475 1548.53 833.133 1551.19 832.183 1554.25C831.234 1557.3 828.002 1559.71 824.073 1561.25C820.088 1562.81 815.075 1563.62 809.959 1563.36L808.956 1563.31L809.256 1562.34L809.531 1561.46L809.831 1560.49L810.834 1560.54C815.207 1560.77 819.404 1560.07 822.628 1558.8C825.908 1557.52 827.885 1555.78 828.422 1554.06C828.959 1552.33 828.105 1550.45 825.713 1548.87C823.362 1547.33 819.724 1546.23 815.351 1546.01L814.348 1545.95L814.648 1544.99L814.923 1544.1Z" fill="#76D3D9" stroke="#76D3D9" stroke-width="2"/>
<path d="M794.2 1550.97L794.5 1550.01L795.503 1550.06C800.619 1550.32 804.982 1551.61 807.888 1553.52C810.752 1555.4 812.41 1558.06 811.461 1561.12C810.511 1564.17 807.279 1566.58 803.351 1568.12C799.366 1569.68 794.352 1570.49 789.236 1570.23L788.233 1570.18L788.533 1569.22L788.808 1568.33L789.108 1567.36L790.111 1567.42C794.485 1567.64 798.681 1566.94 801.905 1565.67C805.186 1564.39 807.162 1562.66 807.699 1560.93C808.237 1559.2 807.382 1557.32 804.99 1555.75C802.639 1554.2 799.002 1553.1 794.628 1552.88L793.625 1552.83L793.925 1551.86L794.2 1550.97Z" fill="#76D3D9" stroke="#76D3D9" stroke-width="2"/>
<path d="M811.163 1560.84L811.463 1559.87L812.466 1559.92C817.582 1560.19 821.945 1561.47 824.851 1563.38C827.715 1565.27 829.373 1567.93 828.424 1570.98C827.474 1574.04 824.242 1576.45 820.314 1577.99C816.328 1579.55 811.315 1580.36 806.199 1580.1L805.196 1580.05L805.496 1579.08L805.771 1578.2L806.071 1577.23L807.074 1577.28C811.448 1577.5 815.644 1576.8 818.868 1575.54C822.149 1574.25 824.125 1572.52 824.662 1570.79C825.2 1569.06 824.345 1567.18 821.953 1565.61C819.602 1564.06 815.964 1562.96 811.591 1562.74L810.588 1562.69L810.888 1561.72L811.163 1560.84Z" fill="#76D3D9" stroke="#76D3D9" stroke-width="2"/>
</g>
<g opacity="0.5">
<path d="M417.007 1560.68L417.307 1559.71L418.31 1559.76C423.426 1560.02 427.789 1561.31 430.694 1563.22C433.559 1565.11 435.216 1567.76 434.267 1570.82C433.318 1573.87 430.086 1576.28 426.157 1577.82C422.172 1579.39 417.159 1580.19 412.043 1579.93L411.04 1579.88L411.34 1578.92L411.615 1578.03L411.915 1577.07L412.918 1577.12C417.291 1577.34 421.488 1576.64 424.712 1575.38C427.992 1574.09 429.969 1572.36 430.506 1570.63C431.043 1568.9 430.189 1567.02 427.797 1565.45C425.446 1563.9 421.808 1562.8 417.435 1562.58L416.432 1562.53L416.732 1561.56L417.007 1560.68Z" fill="#76D3D9" stroke="#76D3D9" stroke-width="2"/>
<path d="M433.97 1570.54L434.27 1569.57L435.273 1569.63C440.389 1569.89 444.752 1571.17 447.657 1573.08C450.522 1574.97 452.179 1577.63 451.23 1580.68C450.281 1583.74 447.049 1586.15 443.12 1587.69C439.135 1589.25 434.122 1590.06 429.006 1589.8L428.003 1589.75L428.303 1588.78L428.578 1587.9L428.878 1586.93L429.881 1586.98C434.254 1587.2 438.451 1586.5 441.675 1585.24C444.955 1583.96 446.932 1582.22 447.469 1580.49C448.006 1578.76 447.151 1576.89 444.76 1575.31C442.409 1573.76 438.771 1572.67 434.398 1572.44L433.395 1572.39L433.695 1571.43L433.97 1570.54Z" fill="#76D3D9" stroke="#76D3D9" stroke-width="2"/>
<path d="M413.247 1577.41L413.547 1576.45L414.55 1576.5C419.666 1576.76 424.029 1578.04 426.935 1579.96C429.799 1581.84 431.457 1584.5 430.508 1587.56C429.558 1590.61 426.326 1593.02 422.397 1594.56C418.412 1596.12 413.399 1596.93 408.283 1596.67L407.28 1596.62L407.58 1595.65L407.855 1594.77L408.155 1593.8L409.158 1593.85C413.532 1594.08 417.728 1593.38 420.952 1592.11C424.233 1590.83 426.209 1589.09 426.746 1587.36C427.283 1585.63 426.429 1583.76 424.037 1582.18C421.686 1580.64 418.048 1579.54 413.675 1579.31L412.672 1579.26L412.972 1578.3L413.247 1577.41Z" fill="#76D3D9" stroke="#76D3D9" stroke-width="2"/>
<path d="M430.21 1587.28L430.51 1586.31L431.513 1586.36C436.629 1586.62 440.992 1587.91 443.897 1589.82C446.762 1591.71 448.42 1594.37 447.47 1597.42C446.521 1600.48 443.289 1602.89 439.36 1604.43C435.375 1605.99 430.362 1606.8 425.246 1606.54L424.243 1606.48L424.543 1605.52L424.818 1604.63L425.118 1603.67L426.121 1603.72C430.495 1603.94 434.691 1603.24 437.915 1601.98C441.196 1600.69 443.172 1598.96 443.709 1597.23C444.246 1595.5 443.392 1593.62 441 1592.05C438.649 1590.5 435.011 1589.4 430.638 1589.18L429.635 1589.13L429.935 1588.16L430.21 1587.28Z" fill="#76D3D9" stroke="#76D3D9" stroke-width="2"/>
</g>
<path d="M214.817 1971.22C221.925 1963.26 219.887 1942.1 217.979 1932.52C219.299 1930.57 223.313 1928.32 228.805 1934.89C234.297 1941.45 230.503 1963.98 227.919 1974.43L223.73 1968.03L214.817 1971.22Z" fill="#FFC1C1"/>
<path d="M-69.226 1547.32C31.3558 1498.74 129.048 1598.56 165.321 1654.54L171.198 1674.16L116.265 1834.76C83.7042 1778.85 25.3541 1742.19 0.249134 1730.85C-70.5467 1733.41 -65.4124 1870.08 -53.9957 1938.09L-132.083 1781.41C-153.04 1723.62 -169.808 1595.9 -69.226 1547.32Z" fill="url(#paint14_linear_5004_1057)"/>
<g opacity="0.5">
<path d="M64.5974 1231.33L65.1391 1230.46L64.1375 1230.32C60.283 1229.77 56.2104 1230.11 52.7151 1231.16C49.2389 1232.21 46.1495 1234.01 44.6415 1236.44C43.1335 1238.86 43.652 1241.18 45.3664 1242.96C47.0902 1244.76 50.1006 1246.12 53.9551 1246.67L54.9567 1246.81L55.4985 1245.94L55.9401 1245.23L56.4819 1244.36L55.4802 1244.22C52.303 1243.76 49.908 1242.65 48.5811 1241.27C47.2446 1239.88 47.0671 1238.32 47.9459 1236.91C48.8247 1235.5 50.76 1234.24 53.4698 1233.42C56.1605 1232.61 59.4351 1232.31 62.6123 1232.76L63.614 1232.91L64.1558 1232.04L64.5974 1231.33Z" fill="#76D3D9" stroke="#76D3D9" stroke-width="2"/>
<path d="M46.5505 1235.17L47.0923 1234.3L46.0906 1234.16C42.2361 1233.61 38.1635 1233.96 34.6682 1235.01C31.192 1236.05 28.1026 1237.86 26.5946 1240.28C25.0866 1242.7 25.6051 1245.02 27.3195 1246.81C29.0433 1248.6 32.0537 1249.96 35.9082 1250.51L36.9099 1250.65L37.4516 1249.78L37.8932 1249.07L38.435 1248.2L37.4333 1248.06C34.2561 1247.61 31.8611 1246.5 30.5342 1245.12C29.1978 1243.72 29.0202 1242.16 29.899 1240.75C30.7778 1239.34 32.7131 1238.08 35.423 1237.26C38.1136 1236.46 41.3883 1236.15 44.5655 1236.61L45.5671 1236.75L46.1089 1235.88L46.5505 1235.17Z" fill="#76D3D9" stroke="#76D3D9" stroke-width="2"/>
<path d="M57.8747 1244.37L58.4165 1243.5L57.4148 1243.36C53.5603 1242.81 49.4878 1243.16 45.9924 1244.21C42.5162 1245.25 39.4268 1247.06 37.9188 1249.48C36.4109 1251.9 36.9293 1254.22 38.6437 1256.01C40.3675 1257.8 43.3779 1259.16 47.2324 1259.71L48.2341 1259.85L48.7758 1258.98L49.2174 1258.28L49.7592 1257.41L48.7575 1257.26C45.5803 1256.81 43.1853 1255.7 41.8584 1254.32C40.522 1252.92 40.3444 1251.36 41.2232 1249.95C42.102 1248.54 44.0373 1247.28 46.7472 1246.47C49.4378 1245.66 52.7125 1245.36 55.8897 1245.81L56.8914 1245.95L57.4331 1245.08L57.8747 1244.37Z" fill="#76D3D9" stroke="#76D3D9" stroke-width="2"/>
<path d="M39.8259 1248.22L40.3677 1247.35L39.366 1247.2C35.5115 1246.65 31.4389 1247 27.9436 1248.05C24.4674 1249.1 21.378 1250.9 19.87 1253.32C18.362 1255.75 18.8805 1258.07 20.5949 1259.85C22.3187 1261.65 25.3291 1263 29.1836 1263.56L30.1852 1263.7L30.727 1262.83L31.1686 1262.12L31.7104 1261.25L30.7087 1261.11C27.5315 1260.65 25.1365 1259.54 23.8096 1258.16C22.4731 1256.77 22.2956 1255.21 23.1744 1253.8C24.0532 1252.38 25.9885 1251.12 28.6983 1250.31C31.389 1249.5 34.6636 1249.2 37.8409 1249.65L38.8425 1249.8L39.3843 1248.93L39.8259 1248.22Z" fill="#76D3D9" stroke="#76D3D9" stroke-width="2"/>
</g>
<mask id="mask5_5004_1057" style="mask-type:alpha" maskUnits="userSpaceOnUse" x="-148" y="1534" width="320" height="405">
<path d="M-69.226 1547.32C31.3558 1498.74 129.048 1598.56 165.321 1654.54L171.198 1674.16L116.265 1834.76C83.7042 1778.85 25.3541 1742.19 0.249134 1730.85C-70.5467 1733.41 -65.4124 1870.08 -53.9957 1938.09L-132.083 1781.41C-153.04 1723.62 -169.808 1595.9 -69.226 1547.32Z" fill="url(#paint15_linear_5004_1057)"/>
</mask>
<g mask="url(#mask5_5004_1057)">
<path d="M-75.2283 1666.16C-32.7654 1617.38 68.4149 1676.43 91.2345 1711.92L139.827 1753.4L91.6419 1824.45L6.73478 1786.75L-60.8133 1985.33L-132.234 1841.34C-115.95 1803.36 -117.691 1714.94 -75.2283 1666.16Z" fill="url(#paint16_linear_5004_1057)"/>
<path d="M64.6683 1684.16C59.1864 1700.17 40.8681 1733.52 11.4502 1738.85M-62.5819 1658.87C-44.8651 1672.72 -15.0042 1711.5 -37.2954 1755.78M-115.791 1767.96C-96.7724 1771.8 -59.2297 1787.8 -61.2115 1821.15" stroke="#BEC6B1" stroke-width="5" stroke-linecap="round"/>
</g>
<path d="M173.343 1620.19L207.184 1701.76C213.451 1660.26 225.048 1646.26 233.66 1643.34C265.323 1660.56 268.601 1750.52 280.597 1779.97C290.194 1803.53 275.364 1843.2 273.682 1859.82C278.768 1876.41 289.023 1899.21 277.381 1927.69C265.738 1956.17 207.745 1931.37 180.203 1915.42C163.866 1898.65 138.611 1875.49 124.329 1866.87C110.461 1857.46 106.835 1860.19 90.8589 1810.42C74.8828 1760.65 123.011 1721.99 154.31 1706.39C128.443 1653.61 160.993 1624.96 173.343 1620.19Z" fill="#5EBFC5"/>
<mask id="mask6_5004_1057" style="mask-type:alpha" maskUnits="userSpaceOnUse" x="87" y="1620" width="197" height="321">
<path d="M173.275 1620.3L207.115 1701.86C213.382 1660.36 224.98 1646.37 233.592 1643.45C265.255 1660.66 268.533 1750.62 280.529 1780.07C290.125 1803.63 275.295 1843.31 273.614 1859.93C278.7 1876.52 288.955 1899.32 277.312 1927.8C265.67 1956.27 207.676 1931.48 180.135 1915.52C169.712 1897.37 137.135 1878.19 122.853 1869.57C114.536 1864.55 106.767 1860.29 90.7905 1810.52C74.8144 1760.76 122.942 1722.09 154.241 1706.5C128.374 1653.72 160.925 1625.07 173.275 1620.3Z" fill="#5EBFC5"/>
</mask>
<g mask="url(#mask6_5004_1057)">
<path d="M228.552 1628.63C207.289 1620.18 200.456 1651.97 202.916 1674L207.006 1703.06C259.007 1725.72 297.202 1813.38 297.202 1813.38C297.202 1813.38 325.881 1816.13 309.248 1795.62C292.615 1775.1 296.632 1711.04 296.632 1711.04C282.798 1687.1 249.815 1637.09 228.552 1628.63Z" fill="#569EA3"/>
</g>
<ellipse cx="183.735" cy="1830.08" rx="35.8658" ry="36.7477" transform="rotate(34.1469 183.735 1830.08)" fill="#FEDD92"/>
<rect x="162.674" y="1805.44" width="28.2223" height="38.2176" rx="14.1111" transform="rotate(12.855 162.674 1805.44)" fill="#040404"/>
<path d="M224.969 1792.33L223.581 1802.75" stroke="#569EA3" stroke-width="10" stroke-linecap="round"/>
<path d="M143.499 1630.15C137.684 1672.24 158.98 1699.85 170.354 1708.4L99.1636 1780.89C97.6877 1769.65 70.1299 1761.19 56.5355 1758.37C79.7734 1740.03 79.2809 1707.72 76.1298 1693.86C107.783 1699.99 134.232 1653.94 143.499 1630.15Z" fill="#5EBFC5"/>
<path d="M289.582 1763.05C298.1 1780.81 287.584 1803.19 281.125 1812L276.068 1771.61C279.777 1757.94 288.654 1759.16 289.582 1763.05Z" fill="url(#paint17_linear_5004_1057)"/>
<path d="M134.096 1735.67L86.3398 1701.85" stroke="#569EA3" stroke-width="10" stroke-linecap="round"/>
<path d="M143.622 1727.37L131.684 1670.09" stroke="#569EA3" stroke-width="10" stroke-linecap="round"/>
<path d="M70.4294 1755.17L128.066 1745.07" stroke="#569EA3" stroke-width="10" stroke-linecap="round"/>
<path d="M90.7598 1771.28C87.0569 1789.13 86.1563 1831.17 112.177 1856.49C112.177 1856.49 199.795 1932.61 204.303 1929.63" stroke="#569EA3" stroke-width="10" stroke-linecap="round"/>
<circle cx="249.643" cy="1918.82" r="4.99769" transform="rotate(34.1469 249.643 1918.82)" fill="#569EA3"/>
<path d="M161.879 1728.22L142.084 1633.81L151.978 1742.82C162.214 1745.51 163.784 1741.52 161.879 1728.22Z" fill="#569EA3"/>
<path d="M-220.035 1061.03C-235.811 1035.24 -330.585 1062.83 -376 1079.84V1284.04H-344.628C-102.912 1287.03 378.189 1291.21 368.866 1284.04C359.544 1276.88 344.067 1273.3 337.494 1272.4H242.481C258.914 1262.25 277.439 1241.95 220.072 1241.95C148.365 1241.95 177.048 1246.43 168.981 1211.5C160.913 1176.57 -101.717 1222.25 -57.7957 1211.5C-13.8746 1200.75 -103.51 1130 -131.296 1105.81C-153.526 1086.47 -199.718 1113.88 -220.035 1130C-213.462 1117.76 -204.259 1086.83 -220.035 1061.03Z" fill="#5EBFC5" fill-opacity="0.2"/>
</g>
<defs>
<linearGradient id="paint0_linear_5004_1057" x1="960" y1="4159" x2="960" y2="0" gradientUnits="userSpaceOnUse">
<stop stop-color="#98C8D3"/>
<stop offset="0.41" stop-color="#5EA6B7"/>
<stop offset="1" stop-color="#0A3147"/>
</linearGradient>
<linearGradient id="paint1_linear_5004_1057" x1="-7.75335" y1="1585.94" x2="186.448" y2="1855.75" gradientUnits="userSpaceOnUse">
<stop stop-color="#89E4F5"/>
<stop offset="1" stop-color="#61C8EE"/>
</linearGradient>
<linearGradient id="paint2_linear_5004_1057" x1="1712.25" y1="1853.57" x2="1906.45" y2="2123.38" gradientUnits="userSpaceOnUse">
<stop stop-color="#89E4F5"/>
<stop offset="1" stop-color="#61C8EE"/>
</linearGradient>
<linearGradient id="paint3_linear_5004_1057" x1="1674.53" y1="207.387" x2="1962.09" y2="389.896" gradientUnits="userSpaceOnUse">
<stop offset="0.0484235" stop-color="#F9DFD4"/>
<stop offset="0.552395" stop-color="#AFD0D0"/>
</linearGradient>
<linearGradient id="paint4_linear_5004_1057" x1="1647.06" y1="291.767" x2="1849.53" y2="420.268" gradientUnits="userSpaceOnUse">
<stop offset="0.0484235" stop-color="#F9DFD4"/>
<stop offset="0.552395" stop-color="#AFD0D0"/>
</linearGradient>
<linearGradient id="paint5_linear_5004_1057" x1="1738.7" y1="276.33" x2="1842.12" y2="672.733" gradientUnits="userSpaceOnUse">
<stop stop-color="#5EBFC5"/>
<stop offset="1" stop-color="#4A6A65"/>
</linearGradient>
<linearGradient id="paint6_linear_5004_1057" x1="1738.7" y1="276.33" x2="1842.12" y2="672.733" gradientUnits="userSpaceOnUse">
<stop stop-color="#5EBFC5"/>
<stop offset="1" stop-color="#4A6A65"/>
</linearGradient>
<linearGradient id="paint7_linear_5004_1057" x1="1644.61" y1="585.77" x2="1807.74" y2="755.564" gradientUnits="userSpaceOnUse">
<stop stop-color="#5EBFC5"/>
<stop offset="1" stop-color="#2D5C5F"/>
</linearGradient>
<linearGradient id="paint8_linear_5004_1057" x1="1644.61" y1="585.768" x2="1807.74" y2="755.562" gradientUnits="userSpaceOnUse">
<stop stop-color="#5EBFC5"/>
<stop offset="1" stop-color="#2D5C5F"/>
</linearGradient>
<linearGradient id="paint9_linear_5004_1057" x1="1881.13" y1="614.505" x2="1557.62" y2="819.825" gradientUnits="userSpaceOnUse">
<stop offset="0.0484235" stop-color="#F9DFD4"/>
<stop offset="0.552395" stop-color="#AFD0D0"/>
</linearGradient>
<linearGradient id="paint10_linear_5004_1057" x1="1912.02" y1="709.438" x2="1684.24" y2="853.999" gradientUnits="userSpaceOnUse">
<stop offset="0.0484235" stop-color="#F9DFD4"/>
<stop offset="0.552395" stop-color="#AFD0D0"/>
</linearGradient>
<linearGradient id="paint11_linear_5004_1057" x1="-31.9477" y1="1930.31" x2="1028.54" y2="2763.29" gradientUnits="userSpaceOnUse">
<stop stop-color="#5EBFC5"/>
<stop offset="1" stop-color="#2D5C5F"/>
</linearGradient>
<linearGradient id="paint12_linear_5004_1057" x1="-31.5865" y1="1930.03" x2="1028.58" y2="2762.57" gradientUnits="userSpaceOnUse">
<stop stop-color="#5EBFC5"/>
<stop offset="1" stop-color="#2D5C5F"/>
</linearGradient>
<linearGradient id="paint13_linear_5004_1057" x1="-171.103" y1="2121.31" x2="1296.21" y2="2601.02" gradientUnits="userSpaceOnUse">
<stop stop-color="#F4F5DC"/>
<stop offset="1" stop-color="#DDE6CD"/>
</linearGradient>
<linearGradient id="paint14_linear_5004_1057" x1="91.441" y1="1574.58" x2="-123.252" y2="1891.12" gradientUnits="userSpaceOnUse">
<stop stop-color="#5EBFC5"/>
<stop offset="1" stop-color="#2D5C5F"/>
</linearGradient>
<linearGradient id="paint15_linear_5004_1057" x1="91.441" y1="1574.58" x2="-123.252" y2="1891.12" gradientUnits="userSpaceOnUse">
<stop stop-color="#5EBFC5"/>
<stop offset="1" stop-color="#2D5C5F"/>
</linearGradient>
<linearGradient id="paint16_linear_5004_1057" x1="53.7291" y1="1677.47" x2="-6.97326" y2="1910.66" gradientUnits="userSpaceOnUse">
<stop stop-color="#DAE4CB"/>
<stop offset="1" stop-color="#FCFAE1"/>
</linearGradient>
<linearGradient id="paint17_linear_5004_1057" x1="285.099" y1="1791.13" x2="277.233" y2="1835" gradientUnits="userSpaceOnUse">
<stop stop-color="#5EBFC5"/>
<stop offset="1" stop-color="#2D5C5F"/>
</linearGradient>
<clipPath id="clip0_5004_1057">
<rect width="1920" height="2075" fill="white"/>
</clipPath>
</defs>
</svg>
