<svg width="1816" height="1816" viewBox="0 0 1816 1816" fill="none" xmlns="http://www.w3.org/2000/svg">
<circle cx="907.5" cy="907.5" r="824.5" fill="#5E7DA3" fill-opacity="0.5"/>
<g clip-path="url(#clip0_4019_2620)">
<path d="M1016.31 1628.87C1016.52 1628.87 1016.77 1629.33 1017.05 1630.23C1017.12 1630.4 1017.19 1630.8 1017.26 1631.2C1017.3 1631.4 1017.33 1631.63 1017.37 1631.86C1017.26 1632.03 1017.02 1632.13 1016.8 1632.3C1015.78 1632.96 1015.43 1633.23 1014.48 1633.69C1012.97 1634.56 1009.52 1635.16 1007.37 1632.5C1006.25 1631.17 1006.42 1628.8 1007.94 1627.57C1009.38 1626.37 1010.96 1626.14 1012.44 1626.01C1013.95 1625.91 1015.36 1626.07 1016.73 1626.37C1018.07 1626.67 1019.83 1627.4 1020.57 1629.1C1021.31 1630.8 1020.43 1632.5 1019.51 1633.33C1018.56 1634.23 1017.33 1634.69 1016.24 1634.76C1014.09 1634.83 1012.76 1634.06 1011.91 1633.56C1011.07 1633.03 1010.68 1632.63 1010.79 1632.46C1010.89 1632.26 1011.45 1632.3 1012.37 1632.46C1013.29 1632.6 1014.66 1632.9 1015.96 1632.63C1017.12 1632.5 1018.42 1630.9 1017.86 1630.23C1017.65 1629.47 1014.83 1628.9 1012.69 1629.07C1011.6 1629.13 1010.5 1629.43 1010.08 1629.8C1009.7 1630.1 1009.59 1630.57 1009.87 1630.97C1010.54 1632.03 1012.26 1632.23 1013.67 1631.73C1014.31 1631.56 1015.33 1631.1 1015.47 1631.13C1015.68 1631.13 1015.78 1631.03 1015.75 1630.87C1015.78 1630.73 1015.82 1630.6 1015.85 1630.33C1016 1629.4 1016.14 1628.9 1016.38 1628.87H1016.31Z" fill="#EED394"/>
<path d="M148.534 997.652C148.816 997.386 149.273 996.953 149.907 997.586C150.223 997.919 150.329 998.551 150.188 999.051C150.083 999.55 149.836 1000.02 149.484 1000.38C149.097 1000.75 148.64 1001.18 147.584 1001.28C146.986 1001.28 146.528 1001.38 145.472 1000.75C145.261 1000.65 144.909 1000.32 144.909 1000.32H144.803H144.768L144.381 999.816L144.135 999.517C143.501 998.618 143.325 997.32 143.501 996.354C143.677 995.356 144.064 994.59 144.592 993.891C144.909 993.525 145.085 993.259 145.683 992.826C146 992.56 146.422 992.327 146.81 992.127C147.584 991.727 148.605 991.428 149.59 991.395C151.667 991.261 153.602 991.994 155.01 992.992C156.418 993.991 157.544 995.322 158.213 997.12C158.53 998.019 158.741 998.951 158.741 1000.22C158.741 1000.91 158.459 1002.08 158.459 1001.98V1002.11L158.213 1002.75L157.931 1003.41C156.418 1006.57 153.532 1008.07 151.385 1008.57C149.132 1009.1 147.161 1008.87 145.507 1008.27L141.812 1006.97L141.706 1005.91C141.46 1003.21 142.199 1000.98 143.994 1000.05C145.754 999.084 148.182 999.616 150.47 1001.21L146.669 998.817C146.95 998.418 147.197 998.052 147.197 997.819C147.126 997.652 147.267 997.985 147.408 998.185C147.549 998.418 147.689 998.618 147.865 998.817C148.182 999.184 148.499 999.383 148.499 999.383C148.253 999.25 150.611 1000.52 149.625 999.983V999.883V999.75C149.696 999.45 149.449 999.65 149.379 999.75C149.168 999.816 148.886 999.783 148.675 999.883C148.253 1000.02 148.323 1000.12 148.675 999.75C149.027 999.417 149.308 998.784 149.273 998.584C149.273 998.485 149.273 998.451 149.273 998.584V998.651H149.308C148.675 997.087 149.132 998.218 148.992 997.885V997.919V997.985C148.992 997.985 148.956 998.052 148.992 998.085C149.132 998.119 149.097 998.185 149.097 998.152C149.027 997.952 148.041 997.719 148.217 997.819C147.584 998.052 148.041 997.885 147.901 997.919C147.901 997.919 147.901 998.085 147.901 998.019C147.865 998.019 147.901 997.919 147.901 997.852C147.901 997.652 147.83 997.486 147.865 997.553C147.901 997.719 148.429 998.019 148.358 997.919C148.358 997.919 148.288 997.919 148.217 997.985C148.077 998.118 148.464 997.752 148.534 997.652Z" fill="#EED394"/>
<path d="M413.91 1089.62C414.157 1089.56 414.368 1089.49 414.649 1089.42C414.755 1089.39 414.861 1089.36 415.001 1089.29C415.001 1089.29 415.107 1089.22 415.212 1089.09C415.318 1088.96 415.318 1088.76 415.318 1088.89C415.283 1089.02 415.529 1089.42 415.494 1089.36L411.517 1090.82C410.602 1089.86 409.863 1088.63 409.405 1087.23L415.564 1088.16C415.564 1088.16 415.564 1088.36 415.635 1088.49C415.74 1088.76 415.952 1088.89 415.811 1088.79C415.705 1088.66 415.353 1088.69 415.177 1088.53C414.931 1088.86 415.811 1088.19 415.705 1088.19C415.705 1088.19 415.6 1088.59 415.635 1088.76C415.424 1089.29 416.409 1090.02 416.62 1090.79C416.831 1091.59 417.395 1092.35 416.409 1093.32C415.705 1094.15 414.086 1094.82 412.15 1094.45C411.165 1094.25 410.109 1093.82 409.088 1092.92C408.596 1092.49 408.103 1091.89 407.751 1091.19C407.645 1091.02 407.575 1090.82 407.505 1090.62L407.399 1090.32L407.329 1090.19V1090.12L407.258 1089.76L407.153 1089.56C407.153 1089.52 407.153 1089.56 407.118 1089.46L407.047 1089.02C406.836 1086.83 407.293 1085.5 408.173 1084C409.053 1082.63 410.355 1081.44 412.221 1080.67C413.382 1080.2 414.755 1079.97 416.092 1080.1L421.583 1080.54L422.005 1085C422.146 1086.46 421.935 1087.86 421.407 1089.06L420.703 1092.49C418.943 1094.48 416.655 1094.58 415.494 1094.28C414.192 1093.95 413.382 1093.22 412.925 1092.49C412.01 1090.82 413.03 1089.79 413.945 1089.62H413.91Z" fill="#EED394"/>
<path d="M396.453 1044.12C397.192 1044.32 398.108 1045.39 396.876 1047.15C395.538 1048.75 392.582 1049.65 389.45 1048.38C388.64 1048.05 387.831 1047.52 387.021 1046.72C386.634 1046.25 386.317 1045.92 385.93 1045.12C385.754 1044.72 385.578 1044.29 385.472 1043.85C385.367 1043.49 385.367 1043.55 385.296 1043.39C384.733 1040.76 385.578 1038.36 387.091 1036.46C388.605 1034.6 390.576 1033.44 392.863 1032.8C394.131 1032.5 395.046 1032.3 396.946 1032.47L397.439 1032.54H397.544L398.108 1032.64L398.53 1032.74C399.093 1032.87 399.656 1033.04 400.219 1033.24C404.9 1035.13 406.836 1038.3 408.033 1040.73L410.356 1045.35L406.977 1047.68C401.803 1051.21 396.594 1049.78 394.518 1047.95L392.687 1046.45C392.16 1045.49 392.441 1043.72 393.18 1043.06C393.849 1042.36 394.482 1042.22 394.94 1042.12C395.89 1042.02 396.594 1042.26 397.192 1042.69C397.826 1043.12 398.037 1043.92 397.826 1044.35C397.58 1044.49 397.298 1044.59 397.017 1044.65C396.805 1044.69 396.207 1044.75 396.489 1044.59C396.559 1044.65 396.559 1044.59 396.453 1044.82C396.348 1045.05 396.453 1045.49 396.383 1045.25C396.348 1045.15 396.207 1044.92 396.031 1044.82C395.855 1044.72 395.855 1044.82 396.137 1044.69L396.559 1042.09C397.826 1041.42 399.058 1040.19 399.093 1039.39L398.002 1046.35C396.911 1045.25 395.644 1044.45 395.433 1044.45H395.398L395.996 1042.86L395.89 1042.92C395.749 1042.99 395.538 1043.06 395.468 1043.12C395.89 1043.52 395.679 1043.79 395.785 1043.92C395.89 1044.22 395.644 1043.49 395.01 1042.96C394.729 1042.72 394.377 1042.56 394.236 1042.49H394.095H394.166C393.708 1042.39 395.186 1042.72 393.11 1042.26V1042.46C393.039 1042.76 393.919 1041.99 394.166 1041.66C394.447 1041.16 394.166 1041.69 394.166 1042.02C394.13 1042.59 394.306 1043.12 394.447 1043.32C394.518 1043.42 394.447 1043.36 394.623 1043.49C394.764 1043.62 394.975 1043.72 395.186 1043.75C395.574 1043.89 396.066 1043.92 396.453 1044.09V1044.12Z" fill="#EED394"/>
<path d="M471.913 1258.09C472.159 1258.59 472.124 1259.29 471.42 1259.92C470.751 1260.55 469.343 1261.15 467.337 1260.68L462.234 1259.49L468.182 1254.86C469.555 1253.79 471.455 1252.73 473.778 1251.73L479.128 1249.43L480.254 1256.39C480.606 1258.49 479.761 1261.02 478.318 1262.65C476.875 1264.31 475.08 1265.38 473.004 1266.01C470.962 1266.58 468.393 1266.78 465.542 1265.51C464.944 1265.28 463.959 1264.68 463.184 1263.95C462.656 1263.48 462.762 1263.55 462.621 1263.41L462.48 1263.28L462.41 1263.21H462.375L461.952 1262.68V1262.61C461.002 1261.35 460.333 1259.79 460.228 1258.29C459.946 1254.23 461.777 1251.6 463.994 1249.7C466.211 1247.87 469.836 1246.47 473.673 1247.7C476.629 1248.63 478.846 1251.16 479.48 1253.39C480.148 1255.62 479.832 1257.39 479.374 1258.79C478.389 1261.55 476.594 1263.01 475.151 1263.65C473.637 1264.28 472.546 1264.01 472.018 1263.38C470.962 1262.08 471.35 1259.65 470.364 1257.72C470.259 1257.52 470.118 1257.32 469.977 1257.22C469.907 1257.09 469.449 1257.22 470.188 1256.99C470.681 1256.79 470.857 1256.66 470.927 1256.59C470.822 1256.69 470.927 1256.59 470.751 1256.82C470.681 1256.92 470.646 1256.99 470.646 1257.06V1257.09C470.47 1257.29 472.054 1255.49 471.385 1256.26L471.279 1256.19L471.068 1256.06L470.857 1255.92C470.857 1255.92 470.892 1255.99 470.927 1255.99C470.998 1256.06 471.138 1256.02 471.138 1256.09C471.138 1256.26 471.138 1256.36 471.244 1256.62C471.385 1257.06 471.737 1257.56 471.913 1257.72C472.089 1257.92 472.089 1257.82 471.666 1257.62C471.279 1257.42 470.575 1257.29 470.188 1257.32C469.801 1257.39 469.942 1257.39 470.047 1257.32C469.695 1256.92 470.259 1257.82 470.118 1257.59C470.083 1257.42 469.907 1257.36 470.047 1257.22C470.329 1256.82 470.329 1255.62 470.223 1255.42C470.118 1255.19 470.364 1255.89 470.962 1256.36C471.526 1256.86 472.054 1256.82 471.596 1256.82L476.171 1261.55C473.602 1261.62 471.42 1261.42 469.695 1261.05L470.505 1255.33C470.364 1255.56 470.505 1256.29 470.892 1256.69C471.244 1257.19 471.702 1257.59 471.948 1258.12L471.913 1258.09Z" fill="#EED394"/>
<path d="M174.966 836.446C175.529 836.014 176.444 835.847 177.43 836.646C178.38 837.445 179.154 839.242 178.451 841.439C178.099 842.505 177.36 843.769 175.776 844.735C175.459 844.968 174.544 845.301 174.157 845.434L173.91 845.567H173.84V845.6L173.347 845.667L172.96 845.733C171.869 845.9 170.708 845.733 169.687 845.434C167.575 844.768 165.956 843.503 164.83 841.706C163.739 839.975 163.07 837.145 164.443 834.316L165.006 833.118L166.414 832.086C169.124 830.155 172.467 829.689 175.389 830.322C178.38 831.054 181.231 832.585 182.92 836.38C183.343 837.279 183.765 839.742 183.272 841.273C182.85 842.971 181.97 844.202 181.055 845.134C179.19 846.965 177.008 847.764 174.685 847.83C172.362 847.897 170.039 846.699 169.159 845.301L168.42 844.435C168.49 842.538 169.053 841.173 170.215 840.574C171.376 839.975 172.925 840.241 174.649 841.206L173.453 840.807C173.136 841.206 173.523 840.873 173.347 840.108C173.242 839.276 172.643 838.843 173.206 839.376C173.629 839.908 175.389 839.908 173.734 839.842C173.805 840.174 173.347 840.174 173.101 840.607C172.819 840.94 172.679 841.34 172.679 841.373C172.749 841.539 172.643 840.308 172.327 840.075L172.115 837.944C172.115 837.944 172.925 838.011 173.136 837.844C173.382 837.678 172.925 837.978 172.749 838.377C172.679 838.543 172.643 838.71 172.643 838.677C172.256 838.743 172.608 838.677 172.538 838.677L172.784 838.61C172.784 838.61 172.573 838.61 172.573 838.51C172.467 838.244 172.08 837.944 171.975 837.911C171.658 837.844 172.784 838.111 173.277 837.778C173.91 837.512 174.333 836.879 174.931 836.446H174.966Z" fill="#EED394"/>
<path d="M309.905 769.573C310.081 769.773 310.117 770.139 309.659 770.572C309.202 770.971 308.251 771.371 307.055 771.104C306.456 770.971 305.788 770.672 305.189 770.039C305.049 769.906 304.873 769.673 304.732 769.407C304.556 769.007 304.626 769.307 304.45 768.841C304.309 768.375 304.239 767.809 304.309 767.31C304.45 766.278 305.013 765.313 305.858 764.58C306.703 763.881 308.111 763.282 309.765 763.615L310.574 763.781L311.243 764.58C312.228 765.779 312.44 767.343 312.088 768.608C311.665 769.906 311.032 771.204 308.885 772.037C308.322 772.27 307.055 772.403 306.245 772.203C305.33 772.037 304.556 771.637 303.922 771.138C302.655 770.172 301.599 768.508 301.951 766.378L302.233 764.78L303.852 764.148C304.626 763.848 305.436 763.582 306.28 763.482C311.173 762.683 315.678 764.913 317.789 767.976L319.76 770.838L316.839 771.903C313.425 773.135 310.469 772.536 308.779 771.737C307.055 770.872 306.492 769.873 306.773 769.44C307.266 768.442 311.032 769.407 314.446 767.243L313.495 771.171C312.158 769.939 309.73 769.074 307.477 769.473C307.09 769.54 306.738 769.64 306.421 769.74L306.984 767.276C306.984 767.276 307.829 767.01 307.653 767.044C307.547 767.044 307.266 767.909 307.512 767.643C307.301 767.51 306.844 767.077 306.914 767.21C307.019 767.277 307.653 767.21 307.618 767.143L308.638 767.743C308.638 767.743 308.744 768.342 308.814 768.375C308.744 768.342 308.709 768.308 308.357 768.209C308.216 768.209 308.146 768.209 308.146 768.209C308.111 768.009 308.216 768.475 308.216 768.275C308.216 768.209 308.287 768.109 308.216 768.142C308.111 768.209 308.146 768.375 308.216 768.541C308.603 769.24 309.413 769.34 309.8 769.706L309.905 769.573Z" fill="#EED394"/>
<path d="M470.714 562.762C470.291 562.762 469.799 562.23 469.763 561.098C469.728 560 470.221 558.269 471.84 556.804C473.318 555.373 476.31 553.975 479.689 555.007C481.308 555.473 482.751 556.471 483.842 557.736C484.37 558.402 484.827 559.068 485.214 559.933C485.601 560.998 485.918 562.163 485.883 563.295C485.883 564.094 485.707 564.859 485.496 565.592L485.214 566.724L484.158 567.156L483.103 567.556L481.871 567.789C481.237 567.889 480.604 568.022 480.005 568.122C477.471 568.521 475.078 568.854 472.896 569.187C472.438 566.99 472.016 564.726 471.91 563.528C471.84 562.563 471.84 561.697 471.91 560.965C472.016 559.5 472.298 558.635 472.861 558.502C473.424 558.369 474.128 559.001 474.937 560.233C475.324 560.832 475.782 561.597 476.204 562.496C476.591 563.195 476.732 563.029 476.908 563.129C477.084 563.029 477.19 562.929 477.26 562.862V562.796C477.26 562.796 477.366 562.762 477.612 562.696L478.773 562.396L479.337 562.263V562.197C479.266 561.964 479.09 561.664 478.914 561.431C478.562 560.965 478.14 560.565 477.718 560.332C476.943 559.833 475.747 559.9 474.691 560.332C472.509 561.131 471.734 562.862 470.819 562.862L470.714 562.762Z" fill="#EED394"/>
<path d="M849.241 1493.19C849.241 1493.79 847.34 1494.52 844.384 1493.36C842.941 1492.76 841.322 1491.69 840.055 1489.96C839.808 1489.66 839.281 1488.83 838.999 1488.1C838.682 1487.37 838.401 1486.57 838.26 1485.77C837.978 1484.17 838.084 1482.61 838.119 1480.81C840.055 1480.71 841.885 1480.44 844.173 1480.68C846.812 1481.01 847.798 1481.38 849.206 1481.91C850.085 1482.27 851.177 1482.84 852.127 1483.34C852.479 1484.24 852.796 1485.1 853.007 1486C853.183 1486.97 853.183 1487.83 853.077 1488.47C852.901 1489.83 852.373 1491.06 851.705 1492.13C850.332 1494.22 848.009 1495.69 845.651 1495.99L842.87 1496.32L842.589 1494.16C841.85 1488.17 844.63 1484.97 845.475 1485.4C846.531 1485.74 846.038 1489.03 847.622 1493.03L844.56 1491.2C845.264 1490.9 845.968 1490.26 846.425 1489.33C846.636 1488.87 846.777 1488.37 846.777 1487.9C846.777 1487.3 846.742 1487.67 846.742 1487.57C846.707 1487.57 846.812 1487.6 846.636 1487.53C844.032 1486.67 845.158 1487 844.665 1486.8C844.56 1486.84 844.208 1486.77 844.454 1487.5C844.947 1488.67 845.686 1489.63 846.425 1490.36C847.868 1491.86 849.276 1492.49 849.206 1493.19H849.241Z" fill="#EED394"/>
<path d="M390.084 1381.25C390.154 1381.65 389.696 1382.18 388.535 1382.35C387.409 1382.52 385.649 1382.18 384.065 1380.78C383.291 1380.09 382.552 1379.15 382.165 1377.89C381.777 1376.62 381.777 1374.99 382.446 1373.56C383.115 1372.13 384.276 1370.9 385.755 1370.13C387.303 1369.37 388.817 1368.83 391.175 1369.2C391.738 1369.3 392.266 1369.47 392.794 1369.67L393.568 1369.97C393.779 1370.13 393.92 1370.37 394.096 1370.53C394.413 1370.93 394.835 1371.33 395.081 1371.73C395.292 1372.1 395.468 1372.33 395.644 1372.63C396.313 1373.79 396.7 1374.99 396.911 1376.16C397.369 1378.49 397.017 1380.58 396.384 1382.18C395.046 1385.44 392.829 1386.44 392.231 1385.94C391.491 1385.41 392.055 1383.71 391.914 1381.35C391.843 1380.18 391.667 1378.82 391.139 1377.49C390.893 1376.82 390.576 1376.16 390.154 1375.56C390.048 1375.42 389.908 1375.23 389.837 1375.16C389.837 1375.16 389.133 1375.16 388.817 1375.39C388.359 1375.56 388.042 1375.86 387.831 1376.09C387.409 1376.49 387.268 1377.29 387.655 1378.15C388.324 1379.92 389.978 1380.48 390.154 1381.32L390.084 1381.25Z" fill="#EED394"/>
<path d="M1348.27 1406.85C1348.34 1407.21 1347.99 1407.78 1347.04 1408.01C1346.13 1408.28 1344.54 1408.18 1343.07 1407.25C1341.62 1406.35 1340.11 1404.72 1339.79 1402.15C1339.65 1400.89 1339.93 1399.39 1340.78 1398.09C1341.62 1396.79 1343 1395.8 1344.44 1395.33C1348.56 1393.9 1353.2 1395.83 1354.47 1399.29L1355.24 1401.39L1353.73 1402.29C1350.88 1403.98 1348.31 1403.09 1347.18 1402.22C1345.95 1401.26 1345.95 1400.29 1346.37 1399.96C1346.8 1399.59 1347.54 1399.66 1348.34 1399.49C1349.12 1399.36 1350.14 1398.89 1350.32 1398.36L1349.58 1401.35C1349.26 1401.16 1348.98 1400.99 1348.42 1400.89C1347.89 1400.79 1347.15 1400.82 1346.69 1400.99C1346.06 1401.29 1345.95 1401.32 1345.74 1401.89C1345.56 1402.45 1345.81 1403.35 1346.16 1404.02C1346.8 1405.38 1348.1 1405.95 1348.31 1406.78L1348.27 1406.85Z" fill="#EED394"/>
<path d="M1234.14 1552.84C1234.7 1553.37 1234.52 1554.77 1232.76 1555.8C1231.14 1556.8 1227.77 1557.2 1225.02 1554.84L1223.75 1553.74L1224.07 1552.24L1224.21 1551.61C1224.81 1549.35 1226.71 1548.12 1228.19 1547.72C1229.7 1547.28 1231.14 1547.48 1232.24 1547.95C1234.56 1549.08 1234.35 1550.84 1233.64 1551.18C1232.9 1551.61 1231.85 1551.61 1231.29 1552.14C1231 1552.38 1230.65 1552.61 1230.48 1552.88C1230.37 1552.98 1230.34 1553.11 1230.34 1553.14C1230.27 1553.08 1229.91 1552.88 1230.02 1552.94L1229.49 1550.41C1229.84 1550.81 1230.72 1551.38 1231.64 1551.68C1232.52 1552.04 1233.54 1552.18 1234.14 1552.78V1552.84Z" fill="#EED394"/>
<path d="M1409.73 1525.85C1410.04 1526.08 1410.22 1526.65 1409.66 1527.35C1409.09 1528.04 1407.72 1528.54 1406.24 1528.24C1405.5 1528.11 1404.69 1527.81 1403.92 1527.15C1403.53 1526.81 1403.15 1526.35 1402.9 1525.85C1402.69 1525.41 1402.51 1524.92 1402.44 1524.38C1402.34 1523.35 1402.44 1522.42 1403.5 1521.35C1404.41 1520.32 1406.14 1519.39 1408.25 1519.19C1410.04 1519.12 1411.66 1519.59 1412.72 1520.26C1413.81 1520.92 1414.34 1521.72 1415.01 1522.42C1414.9 1523.85 1414.48 1525.58 1413.46 1526.51C1412.51 1527.54 1411.38 1527.98 1410.54 1528.08C1408.67 1528.31 1407.83 1527.38 1407.97 1526.78C1408.07 1526.11 1408.67 1525.58 1408.92 1524.88C1409.34 1524.12 1408.95 1523.62 1408.67 1523.62C1408.5 1523.62 1408.5 1523.62 1408.5 1523.65C1408.5 1523.65 1408.46 1523.58 1408.25 1523.65C1408.21 1523.65 1408.18 1523.72 1408.14 1523.75H1408.11C1407.26 1524.18 1407.86 1523.88 1407.69 1523.98H1407.76C1407.76 1523.98 1407.97 1523.82 1408 1523.78C1407.93 1523.85 1407.97 1524.05 1408 1524.22C1408.14 1524.55 1408.32 1524.92 1408.64 1525.15C1408.95 1525.41 1409.45 1525.48 1409.8 1525.78L1409.73 1525.85Z" fill="#EED394"/>
<path d="M1693.89 1133.4C1694.28 1134.13 1693.51 1135.46 1691.4 1136.53C1690.38 1137.06 1689 1137.49 1687.45 1137.69C1685.1 1137.99 1682.07 1137.39 1679.53 1136.86C1678.48 1136.66 1678.02 1136.46 1682.81 1137.26C1683.93 1137.26 1685.45 1138.12 1686.68 1136.43C1686.96 1136.23 1687.38 1135.69 1687.56 1135.76H1688.16L1689.11 1135.56C1689.74 1135.49 1689.85 1135.29 1690.38 1135.56C1690.55 1135.66 1690.94 1135.93 1690.94 1135.86L1691.01 1135.76C1690.52 1135.96 1690.52 1136.46 1688.93 1136.72C1687.66 1136.76 1687.14 1136.36 1686.71 1136.06C1685.91 1135.43 1685.52 1134.76 1685.34 1133.9C1685.06 1132.96 1685.98 1131.9 1686.54 1131.96C1686.86 1132.06 1687.07 1132.26 1687.17 1132.46C1687.31 1132.7 1687.31 1132.96 1687.24 1133.26C1687.38 1133.36 1687.1 1132.96 1687.21 1133.1C1687.14 1133.1 1687.45 1133.13 1687.81 1133C1688.26 1132.76 1688.23 1132.76 1688.37 1132.73C1688.47 1132.73 1688.62 1132.7 1688.69 1132.63C1688.79 1132.5 1688.62 1132.8 1688.51 1133.1C1688.44 1133.36 1688.37 1133.7 1688.4 1133.86C1688.4 1133.9 1688.4 1133.96 1688.4 1134V1134.03C1687.07 1130.87 1688.02 1133.16 1687.74 1132.43H1687.67C1687.67 1132.43 1687.49 1132.53 1687.52 1132.46C1687.52 1132.4 1687.52 1132.33 1687.52 1132.3C1686.96 1131.87 1687.1 1131.96 1687.14 1131.93C1687.17 1131.93 1686.93 1132.03 1687.24 1132.16C1688.37 1132.26 1689.39 1132.33 1690.27 1132.43C1692.06 1132.56 1693.47 1132.7 1693.86 1133.46L1693.89 1133.4Z" fill="#EED394"/>
<path d="M462.656 996.155C462.973 996.421 463.184 996.854 462.938 997.453C462.691 998.052 461.882 998.718 460.72 998.884C459.594 999.084 458.257 998.884 457.025 997.985C456.426 997.553 455.793 996.954 455.371 995.988C454.948 995.056 454.843 993.825 455.265 992.726L455.511 992.06L455.969 991.628L456.356 991.295C459.136 989.031 462.445 989.664 463.923 990.796C465.542 991.994 465.472 993.425 464.803 993.891C464.099 994.424 463.114 994.49 462.339 994.857C461.565 995.123 460.826 995.622 460.65 995.855H460.615L460.263 994.424C460.016 994.357 460.122 994.424 460.403 994.324C460.579 994.324 461.213 993.791 461.037 993.991C460.967 994.157 461.037 994.457 461.143 994.723C461.143 995.389 461.987 995.755 462.726 996.221L462.656 996.155Z" fill="#EED394"/>
<path d="M825.202 384.146C824.991 384.479 824.357 384.712 823.407 384.246C822.492 383.78 821.401 382.549 821.119 380.751C820.838 379.087 821.225 376.357 824.146 374.693C825.589 373.927 827.314 373.661 829.038 374.127C830.833 374.593 832.452 375.725 833.438 377.189C834.177 378.221 834.564 379.386 834.599 380.485C834.67 381.55 834.283 382.648 834.107 383.547C831.924 384.879 829.426 385.644 827.103 385.411C825.448 385.212 824.146 384.646 823.196 383.98C821.295 382.615 821.049 381.184 821.577 380.751C822.14 380.285 823.266 380.551 824.709 380.585C825.448 380.585 826.258 380.585 827.103 380.385C827.314 380.219 827.349 380.019 827.279 379.919C827.208 379.819 827.103 379.819 827.103 379.819C827.455 379.919 826.399 378.92 825.624 380.718C824.956 382.083 825.519 383.314 825.167 384.08L825.202 384.146Z" fill="#EED394"/>
<path d="M784.233 501.514C784.022 501.182 784.092 500.649 784.691 500.216C785.254 499.783 786.31 499.584 787.33 499.917C788.351 500.25 789.055 501.015 789.196 501.714C789.372 502.413 789.09 502.879 788.703 503.012C787.823 503.212 786.978 503.012 786.275 502.813C785.606 502.546 784.796 502.213 784.233 501.548V501.514Z" fill="#EED394"/>
<path d="M90.6767 904.617C90.6767 904.451 90.8527 904.151 91.451 904.084C92.0494 903.984 92.9996 904.317 93.6332 905.083C94.2315 905.882 94.7594 906.88 94.3723 908.445C94.1259 909.31 93.4924 910.076 92.6125 910.475L91.9438 910.742L91.2047 910.609C90.7119 910.542 90.2192 910.309 89.7617 910.009C88.0019 908.645 88.0019 907.18 88.0723 905.982C88.2131 904.783 88.7762 903.785 89.5153 903.119C90.2544 902.453 91.1695 902.287 91.6974 902.353C92.2605 902.487 92.4717 902.686 92.4365 902.886C92.3661 903.319 91.5566 903.618 91.2399 904.45C91.0639 904.85 90.9583 905.449 90.9935 906.082C90.9935 906.681 91.451 907.446 91.451 907.38C91.451 907.38 91.451 907.48 91.5566 907.413C91.6974 907.247 91.7678 906.481 91.627 906.115C91.4862 905.249 90.7823 904.983 90.6416 904.55L90.6767 904.617Z" fill="#EED394"/>
<path d="M1099.27 1540.73C1099.48 1540.73 1099.76 1540.86 1099.76 1541.36C1099.9 1541.96 1098.67 1542.69 1097.89 1542.49C1097.19 1542.49 1095.99 1541.89 1095.4 1540.93C1094.76 1539.96 1094.97 1538.5 1096.17 1537.66C1096.77 1537.26 1097.4 1537 1098.18 1536.93C1098.74 1536.93 1099.23 1536.96 1099.69 1537.13C1100.53 1537.4 1101.13 1537.83 1101.59 1538.23C1102.44 1539.06 1102.54 1539.86 1102.22 1540.09C1101.87 1540.36 1101.24 1540.19 1100.39 1540.03C1099.97 1539.93 1099.51 1539.86 1099.09 1539.86C1098.88 1539.86 1098.7 1539.86 1098.53 1539.89C1098.56 1539.83 1098.14 1539.89 1098.49 1540.36C1098.49 1540.36 1098.56 1540.46 1098.56 1540.49V1540.83C1098.77 1541.03 1098.53 1540.83 1098.63 1540.89C1098.85 1540.89 1099.06 1540.69 1099.3 1540.73H1099.27Z" fill="#EED394"/>
<path d="M510.766 1517.59C510.977 1518.26 508.091 1519.62 503.973 1520.89L504.571 1518.36C505.029 1518.66 505.557 1518.89 506.225 1518.99C508.231 1519.29 510.308 1518.26 511.293 1517.33C512.384 1516.36 512.631 1515.3 513.124 1515.3C513.476 1515.23 514.215 1516.56 513.159 1518.56C512.173 1520.39 509.393 1522.49 505.697 1522.02C504.501 1521.85 503.374 1521.32 502.53 1520.59L500.312 1518.69L503.128 1518.09C507.316 1517.19 510.554 1516.96 510.73 1517.63L510.766 1517.59Z" fill="#EED394"/>
<path d="M629.834 389.905C630.256 389.139 632.157 389.306 634.268 389.339C636.38 389.439 638.281 389.406 638.633 390.171C639.02 390.904 637.084 392.468 634.163 392.368C631.242 392.268 629.411 390.604 629.834 389.905Z" fill="#EED394"/>
<path d="M1248.22 1341.17C1248.43 1341.17 1248.71 1341.3 1248.71 1341.8C1248.85 1342.4 1247.62 1343.14 1246.84 1342.94C1246.14 1342.94 1244.94 1342.34 1244.35 1341.37C1243.71 1340.41 1243.92 1338.94 1245.12 1338.11C1245.72 1337.71 1246.35 1337.44 1247.13 1337.38C1247.69 1337.38 1248.18 1337.41 1248.64 1337.58C1249.48 1337.84 1250.12 1338.28 1250.54 1338.68C1251.38 1339.51 1251.49 1340.31 1251.17 1340.54C1250.82 1340.81 1250.19 1340.64 1249.34 1340.47C1248.92 1340.37 1248.46 1340.31 1248.04 1340.31C1247.83 1340.31 1247.65 1340.31 1247.48 1340.34C1247.51 1340.27 1247.09 1340.34 1247.44 1340.81L1247.51 1340.91V1341.24C1247.72 1341.44 1247.48 1341.24 1247.58 1341.3C1247.79 1341.3 1248.01 1341.11 1248.25 1341.14L1248.22 1341.17Z" fill="#EED394"/>
<circle cx="919.5" cy="866.5" r="694.5" fill="url(#paint0_radial_4019_2620)" fill-opacity="0.5" style="mix-blend-mode:color-dodge"/>
<path d="M1139.35 1462.9C1140.09 1462.77 1140.8 1463.2 1140.94 1463.87C1141.08 1464.57 1140.62 1465.23 1139.92 1465.36C1139.18 1465.5 1138.47 1465.06 1138.33 1464.4C1138.19 1463.7 1138.65 1463.03 1139.35 1462.9Z" fill="#EED394"/>
<path d="M1235.72 1534.93C1236.46 1534.8 1237.16 1535.23 1237.31 1535.9C1237.45 1536.6 1236.99 1537.26 1236.29 1537.4C1235.55 1537.53 1234.84 1537.1 1234.7 1536.43C1234.56 1535.73 1235.02 1535.07 1235.72 1534.93Z" fill="#EED394"/>
<path d="M1230.72 1389.8C1231.46 1389.67 1232.16 1390.1 1232.31 1390.77C1232.45 1391.47 1231.99 1392.13 1231.28 1392.27C1230.55 1392.4 1229.84 1391.97 1229.7 1391.3C1229.56 1390.6 1230.02 1389.94 1230.72 1389.8Z" fill="#EED394"/>
<path d="M1256.7 1345.87C1257.44 1345.73 1258.14 1346.17 1258.28 1346.83C1258.42 1347.53 1257.97 1348.2 1257.26 1348.33C1256.56 1348.46 1255.82 1348.03 1255.68 1347.36C1255.54 1346.66 1255.99 1346 1256.7 1345.87Z" fill="#EED394"/>
<path d="M788.105 1422.42C788.844 1422.29 789.548 1422.72 789.688 1423.39C789.829 1424.09 789.372 1424.75 788.668 1424.89C787.929 1425.02 787.225 1424.59 787.084 1423.92C786.943 1423.22 787.401 1422.56 788.105 1422.42Z" fill="#EED394"/>
<path d="M1377.03 1340.9C1377.77 1340.77 1378.47 1341.2 1378.61 1341.87C1378.76 1342.57 1378.3 1343.23 1377.59 1343.37C1376.85 1343.5 1376.15 1343.07 1376.01 1342.4C1375.87 1341.7 1376.33 1341.04 1377.03 1340.9Z" fill="#EED394"/>
<path d="M1481.07 1433.57C1481.81 1433.44 1482.51 1433.87 1482.65 1434.54C1482.79 1435.24 1482.34 1435.9 1481.63 1436.04C1480.89 1436.17 1480.19 1435.74 1480.05 1435.07C1479.91 1434.37 1480.37 1433.71 1481.07 1433.57Z" fill="#EED394"/>
<path d="M137.202 902.153C137.941 902.02 138.645 902.453 138.786 903.118C138.927 903.784 138.469 904.483 137.765 904.616C137.026 904.749 136.322 904.317 136.182 903.651C136.041 902.952 136.498 902.286 137.202 902.153Z" fill="#EED394"/>
<path d="M203.476 899.557C204.215 899.424 204.919 899.857 205.06 900.523C205.2 901.222 204.743 901.887 204.039 902.021C203.335 902.154 202.596 901.721 202.455 901.055C202.314 900.356 202.772 899.69 203.476 899.557Z" fill="#EED394"/>
<path d="M277.386 919.163C278.125 919.03 278.829 919.462 278.97 920.128C279.111 920.827 278.653 921.493 277.949 921.626C277.21 921.759 276.506 921.326 276.365 920.661C276.225 919.962 276.682 919.296 277.386 919.163Z" fill="#EED394"/>
<path d="M284.706 851.723C285.445 851.59 286.149 852.023 286.29 852.689C286.431 853.388 285.973 854.053 285.269 854.186C284.53 854.32 283.826 853.887 283.686 853.221C283.545 852.522 284.002 851.856 284.706 851.723Z" fill="#EED394"/>
<path d="M448.469 1406.21C447.73 1402.49 450.335 1398.76 454.206 1397.93C458.324 1397.06 462.336 1399.62 463.146 1403.65C463.92 1407.45 461.421 1411.11 457.479 1411.91C453.397 1412.77 449.244 1410.11 448.469 1406.21Z" fill="#EED394"/>
<path d="M1051.97 228.698C1055.84 227.766 1059.85 230.029 1060.91 233.724C1062.07 237.752 1059.75 241.58 1055.59 242.545C1051.69 243.477 1047.67 241.28 1046.58 237.586C1045.42 233.758 1047.92 229.663 1051.97 228.698Z" fill="#EED394"/>
<path d="M317.827 470.557C313.674 471.256 309.802 468.527 309.134 464.466C308.535 460.671 311.245 457.076 315.152 456.444C319.059 455.811 323.071 458.374 323.88 462.003C324.725 465.797 321.839 469.892 317.827 470.557Z" fill="#EED394"/>
<path d="M918.647 1574.84C922.484 1574.01 926.531 1576.34 927.587 1579.97C928.678 1583.87 926.214 1587.83 922.061 1588.73C918.084 1589.59 914.248 1587.39 913.192 1583.63C912.101 1579.67 914.565 1575.74 918.647 1574.84Z" fill="#EED394"/>
<path d="M1357.74 496.788C1361.9 496.156 1365.73 498.885 1366.37 502.946C1366.96 506.741 1364.22 510.336 1360.28 510.935C1356.12 511.568 1352.11 508.738 1351.58 504.81C1351.06 501.049 1353.87 497.387 1357.74 496.788Z" fill="#EED394"/>
<path d="M1334.55 412.239C1338.56 411.341 1342.86 413.97 1343.66 417.798C1344.44 421.493 1341.91 425.254 1338.03 426.12C1334.06 427.019 1330.22 424.822 1329.16 421.06C1328.07 417.066 1330.43 413.138 1334.55 412.239Z" fill="#EED394"/>
<path d="M732.04 1537.83C732.779 1541.86 729.999 1545.38 725.67 1545.98C721.622 1546.52 718.032 1544.02 717.328 1540.16C716.66 1536.4 719.229 1532.8 723.206 1532.04C727.359 1531.24 731.336 1533.83 732.04 1537.83Z" fill="#EED394"/>
<path d="M1275 1410.74C1276.02 1414.67 1273.42 1418.6 1269.3 1419.43C1265.43 1420.19 1261.38 1417.8 1260.39 1414.17C1259.37 1410.38 1262.05 1406.38 1266.2 1405.55C1270.21 1404.72 1274.01 1406.98 1275 1410.77V1410.74Z" fill="#EED394"/>
<path d="M676.219 347.364C680.372 346.599 684.314 349.195 685.017 353.223C685.686 357.084 683.187 360.479 679.105 361.245C674.846 362.044 671.01 359.514 670.306 355.453C669.672 351.691 672.277 348.097 676.254 347.364H676.219Z" fill="#EED394"/>
<path d="M676.959 1397.56C677.839 1401.32 675.41 1405.05 671.539 1406.01C667.597 1406.98 663.162 1404.42 662.283 1400.62C661.403 1396.79 664.218 1392.8 668.301 1392.07C672.278 1391.37 676.079 1393.76 676.959 1397.56Z" fill="#EED394"/>
<path d="M413.521 1299.06C412.5 1295.1 415.069 1291.21 419.187 1290.41C423.059 1289.64 427.071 1292.04 428.056 1295.67C429.077 1299.46 426.402 1303.46 422.249 1304.29C418.202 1305.12 414.471 1302.89 413.521 1299.06Z" fill="#EED394"/>
<path d="M590.025 491.861C590.94 495.689 588.653 499.284 584.676 500.25C580.558 501.248 576.334 498.851 575.419 494.99C574.504 491.196 577.32 487.135 581.402 486.402C585.344 485.703 589.181 488.1 590.061 491.861H590.025Z" fill="#EED394"/>
<path d="M536.037 361.212C536.987 365.14 534.383 369.035 530.265 369.834C526.358 370.566 522.451 368.169 521.536 364.441C520.551 360.447 523.085 356.719 527.344 355.92C531.426 355.154 535.087 357.418 536.037 361.212Z" fill="#EED394"/>
<path d="M377.588 1062.23C378.468 1066.02 376.074 1069.62 372.097 1070.55C367.839 1071.55 363.932 1069.25 363.017 1065.19C362.137 1061.2 364.777 1057.4 368.93 1056.7C372.836 1056.04 376.743 1058.53 377.552 1062.23H377.588Z" fill="#EED394"/>
<path d="M1345.36 1465.86C1342.12 1466.5 1340.08 1465.63 1339.58 1463.6C1339.02 1461.37 1340.81 1459.54 1343.98 1459.17C1344.86 1459.07 1345.88 1458.84 1346.55 1459.17C1347.68 1459.74 1349.37 1460.67 1349.4 1461.54C1349.47 1462.7 1348.42 1464.1 1347.54 1465.13C1347.08 1465.66 1345.95 1465.7 1345.36 1465.86Z" fill="#EED394"/>
<path d="M666.401 295.937C668.83 295.471 670.871 296.569 671.258 298.5C671.68 300.597 669.991 303.26 668.055 303.559C666.084 303.892 663.55 302.095 663.058 300.031C662.53 297.934 663.761 296.436 666.401 295.937Z" fill="#EED394"/>
<path d="M1117.61 483.906C1120.56 483.307 1123.55 484.871 1124.08 486.602C1124.57 488.333 1123.13 490.397 1121.23 490.663C1119.08 490.962 1115.95 489.265 1116.06 487.467C1116.13 486.103 1117.22 484.771 1117.64 483.906H1117.61Z" fill="#EED394"/>
<path d="M717.68 334.049C718.208 336.079 717.222 337.877 715.322 338.309C713.316 338.775 710.711 337.244 710.078 335.214C709.479 333.35 710.571 331.486 712.541 331.02C714.759 330.487 717.152 331.885 717.715 334.082L717.68 334.049Z" fill="#EED394"/>
<path d="M1152.2 381.316C1154.59 380.85 1157.16 382.215 1157.52 384.179C1157.87 386.11 1156.95 387.341 1154.95 387.84C1152.66 388.406 1149.88 387.141 1149.32 385.344C1148.82 383.646 1150.2 381.682 1152.17 381.316H1152.2Z" fill="#EED394"/>
<path d="M260.421 583.701C262.392 583.334 264.292 584.799 264.82 587.029C265.348 589.326 264.152 591.223 261.97 591.456C259.999 591.689 258.098 590.058 257.746 587.895C257.429 585.897 258.626 584.033 260.421 583.667V583.701Z" fill="#EED394"/>
<path d="M1226.89 541.459C1227.62 542.158 1229.14 542.99 1229.74 544.255C1230.55 545.953 1228.43 548.849 1226.53 549.315C1224.7 549.747 1222.59 548.316 1222.38 546.485C1222.13 544.555 1224.1 541.892 1226.85 541.459H1226.89Z" fill="#EED394"/>
<path d="M224.732 800.529C227.865 800.129 230.786 802.293 230.856 804.323C230.927 806.254 229.836 807.452 227.794 807.652C225.718 807.885 222.832 805.854 223.008 803.99C223.113 802.626 224.275 801.361 224.732 800.495V800.529Z" fill="#EED394"/>
<path d="M150.086 1100.44C149.558 1098.48 149.84 1096.81 152.128 1096.08C154.31 1095.35 156.316 1096.78 156.879 1099.38C157.337 1101.44 156.316 1103.27 154.486 1103.7C152.585 1104.14 150.685 1102.74 150.086 1100.44Z" fill="#EED394"/>
<path d="M777.934 1486.14C778.497 1488.23 777.582 1490.03 775.752 1490.46C773.746 1490.96 771.493 1489.3 771.001 1486.9C770.613 1485.1 771.071 1483.61 773.077 1482.94C775.259 1482.21 777.23 1483.54 777.934 1486.14Z" fill="#EED394"/>
<path d="M345.983 710.489C343.731 710.722 341.901 709.523 341.725 707.726C341.514 705.795 343.203 704.264 345.772 703.965C348.06 703.732 349.785 704.83 349.996 706.727C350.207 708.724 348.623 710.222 345.983 710.489Z" fill="#EED394"/>
<path d="M601.889 1434.67C605.232 1433.94 608.329 1435.24 608.153 1436.97C608.048 1438 606.992 1439.37 605.971 1439.77C603.824 1440.67 600.41 1439.27 600.446 1437.6C600.446 1436.44 601.537 1435.31 601.889 1434.64V1434.67Z" fill="#EED394"/>
<path d="M710.326 1413.17C712.86 1412.7 715.957 1414.9 715.886 1416.87C715.886 1417.9 714.831 1419.36 713.845 1419.76C712.297 1420.43 709.059 1417.93 709.059 1416.03C709.059 1414.93 709.974 1413.84 710.326 1413.17Z" fill="#EED394"/>
<path d="M1029.55 181.962C1030.15 181.329 1030.85 179.998 1031.98 179.399C1033.98 178.367 1036.66 179.432 1037.18 181.196C1037.71 182.927 1036.94 184.059 1035.14 184.592C1032.89 185.257 1030.29 184.359 1029.51 181.962H1029.55Z" fill="#EED394"/>
<path d="M451.111 1365.77C452.765 1365.41 455.159 1366.87 455.37 1368.53C455.581 1370.3 454.595 1371.26 452.836 1371.63C450.97 1372.03 449.316 1371.93 448.542 1370C447.908 1368.5 449.422 1366.14 451.111 1365.74V1365.77Z" fill="#EED394"/>
<path d="M856.807 1676.54C856.349 1673.74 857.124 1672.37 859.165 1671.97C861.136 1671.61 862.614 1672.44 863.037 1674.37C863.424 1676.27 862.544 1677.9 860.538 1677.97C859.165 1678.03 857.757 1676.9 856.807 1676.54Z" fill="#EED394"/>
<path d="M1148.75 469.958C1150.34 468.028 1151.04 466.33 1152.31 465.798C1154.07 465.065 1155.76 466.064 1156.32 467.961C1156.88 469.859 1155.93 471.523 1154.03 471.756C1152.7 471.922 1151.18 470.824 1148.75 469.925V469.958Z" fill="#EED394"/>
<path d="M1502.47 411.674C1504.79 411.408 1506.13 412.174 1506.52 414.137C1506.9 416.068 1505.99 417.366 1503.98 417.732C1501.94 418.099 1500.64 417.167 1500.22 415.269C1499.76 413.305 1500.88 412.207 1502.5 411.674H1502.47Z" fill="#EED394"/>
<path d="M1124.72 448.822C1126.79 450.32 1128.55 450.953 1129.11 452.151C1129.89 453.782 1128.9 455.413 1126.9 455.979C1124.86 456.545 1123.17 455.613 1122.89 453.849C1122.67 452.584 1123.8 451.119 1124.68 448.822H1124.72Z" fill="#EED394"/>
<path d="M698.43 1365.47C700.19 1367.1 701.703 1367.93 702.337 1369.2C703.111 1370.7 702.161 1372.06 700.366 1372.53C698.747 1372.93 696.318 1371.16 696.459 1369.47C696.529 1368.37 697.444 1367.37 698.43 1365.5V1365.47Z" fill="#EED394"/>
<path d="M1019.97 359.148C1021.91 360.413 1023.74 361.012 1024.34 362.144C1025.11 363.609 1023.88 364.94 1022.16 365.34C1020.29 365.772 1018.42 365.273 1018.07 363.409C1017.9 362.344 1019.06 361.046 1019.97 359.148Z" fill="#EED394"/>
<path d="M241.064 473.887C243 475.484 244.514 476.283 245.253 477.515C246.027 478.78 245.253 480.111 243.669 480.644C242.05 481.177 239.34 479.712 239.305 478.048C239.305 476.982 240.185 475.884 241.064 473.887Z" fill="#EED394"/>
<path d="M532.763 540.759C535.333 540.127 538.043 541.492 537.972 543.123C537.902 544.188 537.022 545.619 536.037 546.185C534.523 547.084 532.024 545.553 531.884 543.655C531.813 542.59 532.552 541.458 532.763 540.759Z" fill="#EED394"/>
<path d="M831.712 1446.36C829.6 1448.02 828.685 1449.22 827.453 1449.62C825.588 1450.22 823.652 1448.89 823.582 1447.29C823.512 1445.73 824.427 1444.56 826.01 1444.63C827.489 1444.69 828.967 1445.46 831.712 1446.36Z" fill="#EED394"/>
<path d="M317.824 1444.76C319.302 1442.86 320.006 1441.17 321.238 1440.67C322.998 1439.97 324.089 1441.47 324.371 1443.1C324.652 1444.66 324.3 1446.39 322.435 1446.59C321.273 1446.72 319.936 1445.66 317.789 1444.76H317.824Z" fill="#EED394"/>
<path d="M322.049 1085.7C321.345 1086.3 320.466 1087.53 319.269 1087.96C317.439 1088.66 315.186 1087.33 315.433 1085.76C315.609 1084.73 316.664 1083.4 317.685 1082.97C319.445 1082.17 321.521 1083.33 322.049 1085.73V1085.7Z" fill="#EED394"/>
<path d="M348.235 1099.58C346.827 1101.04 346.159 1102.37 345.173 1102.67C343.132 1103.24 341.97 1101.87 341.513 1100.08C341.09 1098.38 341.759 1096.75 343.589 1096.88C344.962 1096.98 346.194 1098.38 348.235 1099.61V1099.58Z" fill="#EED394"/>
<path d="M1566.28 937.504C1568.21 938.969 1569.8 939.701 1570.64 940.866C1571.52 942.131 1570.75 943.429 1569.16 943.962C1567.44 944.561 1564.8 943.329 1564.69 941.632C1564.66 940.533 1565.5 939.401 1566.28 937.471V937.504Z" fill="#EED394"/>
<path d="M249.477 1158.79C249.969 1158.26 250.638 1157.03 251.659 1156.6C253.348 1155.86 255.847 1157.46 255.812 1159.23C255.812 1160.12 255.002 1161.42 254.158 1161.86C252.539 1162.69 250.11 1161.26 249.477 1158.79Z" fill="#EED394"/>
<path d="M424.538 1233.09C426.333 1234.85 427.6 1235.65 428.128 1236.78C428.832 1238.22 428.445 1239.78 426.615 1240.48C424.996 1241.08 423.025 1239.91 422.954 1237.98C422.919 1236.75 423.729 1235.45 424.538 1233.09Z" fill="#EED394"/>
<path d="M311.665 405.183C314.657 404.784 315.748 405.815 316.205 407.679C316.627 409.377 316.064 410.742 314.199 411.075C312.369 411.408 311.067 410.309 310.926 408.645C310.82 407.413 311.454 406.148 311.665 405.15V405.183Z" fill="#EED394"/>
<path d="M926.528 427.784C924.979 429.615 924.24 431.146 922.973 431.778C921.601 432.444 920.298 431.446 919.911 429.914C919.454 428.217 920.58 426.02 922.199 426.053C923.36 426.053 924.487 426.919 926.528 427.784Z" fill="#EED394"/>
<path d="M490.531 583.634C492.397 581.97 493.276 580.738 494.473 580.272C496.022 579.673 497.606 580.239 498.239 581.97C498.802 583.501 497.465 585.398 495.494 585.398C494.192 585.398 492.925 584.533 490.531 583.634Z" fill="#EED394"/>
<path d="M301.109 982.542C301.673 982.076 302.447 980.877 303.468 980.644C305.403 980.178 307.057 981.31 307.339 983.041C307.48 983.973 306.424 985.504 305.474 986.037C304.031 986.836 301.532 985.071 301.074 982.542H301.109Z" fill="#EED394"/>
<path d="M407.223 1321.93C408.067 1321.33 409.018 1320.17 410.249 1319.84C412.15 1319.3 413.804 1320.6 413.875 1322.33C413.945 1323.96 412.924 1324.73 411.411 1324.93C409.51 1325.16 407.997 1324.66 407.223 1321.93Z" fill="#EED394"/>
<path d="M381.812 487.335C382.622 486.669 383.502 485.471 384.699 485.038C386.634 484.372 388.57 485.537 388.359 487.235C388.253 488.233 387.162 489.532 386.177 489.931C384.417 490.597 382.798 489.964 381.812 487.335Z" fill="#EED394"/>
<path d="M460.474 499.352C463.325 498.952 465.049 499.451 465.12 501.482C465.12 502.414 463.994 503.845 463.043 504.211C461.354 504.844 459.313 504.378 459.031 502.381C458.89 501.315 460.087 500.084 460.474 499.352Z" fill="#EED394"/>
<path d="M1563.18 658.194C1565.82 657.828 1568.03 659.459 1567.82 661.224C1567.72 662.156 1566.87 663.354 1565.99 663.753C1564.41 664.452 1562.02 662.821 1561.98 660.957C1561.98 659.892 1562.86 658.86 1563.14 658.161L1563.18 658.194Z" fill="#EED394"/>
<path d="M262.183 731.059C261.69 731.525 260.951 732.79 259.965 732.99C258.029 733.423 256.481 732.258 256.305 730.46C256.235 729.495 257.079 727.964 257.994 727.464C259.508 726.666 261.69 728.33 262.183 731.059Z" fill="#EED394"/>
<path d="M362.631 1321.2C363.968 1322.56 365.376 1323.53 366.01 1324.79C366.467 1325.73 365.904 1327.16 365.623 1328.29C365.587 1328.46 364.004 1328.59 363.828 1328.36C362.807 1326.72 361.892 1325.03 361.118 1323.26C360.977 1322.96 361.786 1322.3 362.596 1321.17L362.631 1321.2Z" fill="#EED394"/>
<path d="M815.699 227.799C816.403 228.365 817.775 228.931 818.268 229.896C819.042 231.494 818.127 232.858 816.367 233.391C814.784 233.857 813.552 233.125 813.059 231.66C812.531 229.996 813.2 228.764 815.699 227.832V227.799Z" fill="#EED394"/>
<path d="M462.128 1198.11C462.691 1198.64 463.817 1199.2 464.169 1200.07C464.908 1201.9 463.571 1204.93 462.445 1204.56C461.424 1204.23 460.544 1202.97 460.087 1201.93C459.523 1200.54 459.488 1198.97 462.093 1198.14L462.128 1198.11Z" fill="#EED394"/>
<path d="M1012.62 469.36C1011.07 467.762 1009.59 466.93 1009.59 466.064C1009.59 465.132 1010.72 463.668 1011.7 463.335C1013.11 462.835 1014.55 463.834 1014.52 465.365C1014.48 466.397 1013.6 467.429 1012.65 469.36H1012.62Z" fill="#EED394"/>
<path d="M466.596 749.535C465.188 749.335 463.429 749.302 461.88 748.802C460.437 748.336 460.12 746.772 461.423 746.14C462.619 745.54 464.449 745.507 465.822 745.84C467.335 746.206 467.899 747.538 466.596 749.535Z" fill="#EED394"/>
<path d="M429.783 604.537C431.613 605.869 433.197 606.501 433.373 607.333C433.549 608.265 432.387 609.397 431.789 610.462C430.733 609.896 429.149 609.563 428.727 608.698C428.34 607.932 429.184 606.601 429.783 604.537Z" fill="#EED394"/>
<path d="M222.198 1076.54C223.887 1077.84 225.19 1078.74 226.316 1079.81C226.422 1079.9 225.295 1081.6 225.119 1081.54C223.606 1081.04 222.128 1080.34 220.755 1079.51C220.649 1079.44 221.494 1078.01 222.233 1076.54H222.198Z" fill="#EED394"/>
<path d="M386.175 622.546C384.697 624.077 384.063 625.242 383.042 625.708C381.564 626.34 380.086 625.475 380.086 624.01C380.086 623.012 380.966 621.414 381.846 621.148C382.726 620.848 384.098 621.813 386.175 622.579V622.546Z" fill="#EED394"/>
<path d="M616.53 1486C618.219 1487.43 619.768 1488.13 619.908 1489C620.049 1489.9 618.993 1491.39 618.043 1491.86C616.635 1492.53 615.157 1491.66 615.086 1490.13C615.016 1489.06 615.79 1487.97 616.53 1486Z" fill="#EED394"/>
<path d="M587.353 435.107C588.866 436.639 590.274 437.471 590.344 438.37C590.38 439.268 589.077 440.234 588.373 441.166C587.388 440.467 585.804 439.934 585.558 439.069C585.311 438.203 586.438 437.005 587.388 435.107H587.353Z" fill="#EED394"/>
<path d="M1431.13 491.694C1429.65 493.326 1428.91 494.79 1428.03 494.89C1427.04 494.99 1425.21 493.958 1425 493.159C1424.79 492.327 1425.88 490.629 1426.8 490.263C1427.61 489.93 1429.02 490.929 1431.13 491.694Z" fill="#EED394"/>
<path d="M902.211 1504.24C903.83 1502.75 904.675 1501.35 905.554 1501.35C906.575 1501.35 907.596 1502.51 908.617 1503.18C907.913 1504.14 907.349 1505.61 906.399 1505.94C905.555 1506.21 904.252 1505.14 902.211 1504.28V1504.24Z" fill="#EED394"/>
<path d="M527.801 1319.34C529.279 1320.97 530.44 1321.73 530.757 1322.73C531.215 1324.16 530.229 1325.53 528.645 1325.36C527.59 1325.26 526.076 1324.2 525.83 1323.3C525.619 1322.46 526.78 1321.27 527.801 1319.34Z" fill="#EED394"/>
<path d="M1318.75 545.719C1320.16 547.383 1321.53 548.249 1321.49 549.147C1321.49 550.079 1320.16 551.011 1319.42 551.91C1318.43 551.178 1316.85 550.545 1316.64 549.647C1316.43 548.814 1317.66 547.649 1318.78 545.719H1318.75Z" fill="#EED394"/>
<path d="M719.722 433.576C721.446 434.974 722.995 435.64 723.136 436.472C723.276 437.404 722.15 438.503 721.552 439.534C720.461 438.969 718.842 438.636 718.455 437.804C718.103 437.005 719.053 435.673 719.757 433.609L719.722 433.576Z" fill="#EED394"/>
<path d="M1010.96 1478.31C1012.23 1480.04 1013.53 1481.04 1013.43 1481.91C1013.36 1482.84 1011.95 1483.64 1011.14 1484.5C1010.19 1483.7 1008.67 1482.97 1008.53 1482.07C1008.39 1481.21 1009.73 1480.14 1010.96 1478.31Z" fill="#EED394"/>
<path d="M404.196 1006.34C402.824 1008.07 402.225 1009.57 401.345 1009.74C400.395 1009.9 398.565 1009.04 398.248 1008.24C397.967 1007.51 398.952 1005.74 399.832 1005.34C400.641 1004.98 402.049 1005.81 404.231 1006.37L404.196 1006.34Z" fill="#EED394"/>
<path d="M827.527 440.8C825.908 442.198 825.028 443.563 824.148 443.563C823.127 443.563 822.142 442.364 821.121 441.665C821.86 440.7 822.423 439.235 823.409 438.969C824.218 438.736 825.52 439.835 827.527 440.8Z" fill="#EED394"/>
<path d="M611.426 1355.78C612.904 1354.22 613.678 1352.72 614.558 1352.66C615.579 1352.59 616.67 1353.75 617.726 1354.42C617.057 1355.42 616.564 1356.88 615.649 1357.22C614.84 1357.51 613.502 1356.55 611.461 1355.78H611.426Z" fill="#EED394"/>
<path d="M546.277 1399.12C547.756 1397.66 548.459 1396.49 549.48 1396.06C551.029 1395.43 552.437 1396.46 552.437 1397.86C552.437 1398.86 551.416 1400.39 550.501 1400.69C549.621 1400.95 548.283 1399.92 546.277 1399.12Z" fill="#EED394"/>
<path d="M242.965 706.793C244.162 708.424 245.147 709.223 245.253 710.088C245.323 710.921 244.443 711.819 243.951 712.718C243.141 712.019 241.909 711.42 241.663 710.588C241.452 709.755 242.261 708.69 242.965 706.793Z" fill="#EED394"/>
<path d="M111.756 830.287C113.058 831.552 114.114 832.351 114.713 833.383C114.888 833.682 113.657 834.681 113.058 835.38C112.108 834.548 111.052 833.815 110.313 832.817C110.102 832.551 110.982 831.585 111.756 830.32V830.287Z" fill="#EED394"/>
<path d="M438.229 413.639C437.454 414.737 436.997 415.969 436.399 416.035C435.66 416.102 434.357 415.336 434.146 414.704C433.935 414.105 434.674 412.773 435.343 412.507C435.906 412.274 436.962 413.106 438.229 413.639Z" fill="#EED394"/>
<path d="M485.038 931.545C486.27 932.61 487.22 933.209 487.783 934.041C487.959 934.341 487.044 935.24 486.657 935.872C485.742 935.306 484.686 934.907 484.018 934.141C483.771 933.875 484.51 932.843 485.038 931.545Z" fill="#EED394"/>
<path d="M346.614 920.594C347.74 921.725 348.655 922.391 349.148 923.257C349.289 923.523 348.268 924.388 347.775 924.954C346.966 924.322 345.945 923.823 345.382 923.024C345.171 922.724 345.98 921.792 346.614 920.594Z" fill="#EED394"/>
<path d="M97.6077 705.13C98.206 705.962 99.0507 706.728 99.3323 707.66C99.4379 708.026 98.3468 708.725 97.8189 709.258C97.0446 708.525 96.0591 707.926 95.6368 707.061C95.32 706.428 95.7776 705.463 95.9183 704.664C96.4815 704.83 97.0446 704.964 97.6077 705.13Z" fill="#EED394"/>
<path d="M205.27 1212.72C206.22 1213.75 207.1 1214.32 207.241 1215.05C207.346 1215.51 206.361 1216.75 206.009 1216.71C205.164 1216.58 204.003 1216.05 203.792 1215.45C203.616 1214.88 204.531 1213.98 205.235 1212.75L205.27 1212.72Z" fill="#EED394"/>
<path d="M1522.92 1400.89C1522.14 1401.99 1521.65 1403.22 1521.05 1403.25C1520.31 1403.32 1519.01 1402.59 1518.8 1401.92C1518.59 1401.35 1519.36 1399.96 1519.96 1399.76C1520.63 1399.56 1521.61 1400.32 1522.92 1400.86V1400.89Z" fill="#EED394"/>
<path d="M1383.08 1406.08C1384.14 1407.15 1385.2 1407.75 1385.27 1408.45C1385.34 1409.11 1384.35 1409.88 1383.86 1410.61C1383.12 1410.04 1381.96 1409.58 1381.75 1408.88C1381.57 1408.25 1382.41 1407.35 1383.08 1406.08Z" fill="#EED394"/>
<path d="M298.856 810.215C297.976 811.18 297.413 812.312 296.815 812.312C296.111 812.312 294.914 811.413 294.809 810.781C294.703 810.115 295.654 809.316 296.111 808.584C296.885 809.05 297.66 809.516 298.821 810.215H298.856Z" fill="#EED394"/>
<path d="M612.447 1513.7C613.256 1514.73 614.136 1515.36 614.066 1515.83C613.96 1516.39 613.08 1516.99 612.412 1517.26C612.165 1517.36 611.145 1516.49 611.145 1516.06C611.145 1515.43 611.778 1514.8 612.447 1513.7Z" fill="#EED394"/>
<path d="M1622.83 798.433C1623.4 798 1624.31 797.833 1625.3 798.632C1626.25 799.431 1627.02 801.229 1626.32 803.426C1625.97 804.491 1625.23 805.756 1623.64 806.721C1623.33 806.954 1622.41 807.287 1622.02 807.42L1621.78 807.553H1621.71V807.586L1621.21 807.653L1620.83 807.72C1619.74 807.886 1618.57 807.72 1617.55 807.42C1615.44 806.754 1613.82 805.489 1612.7 803.692C1611.61 801.961 1610.94 799.132 1612.31 796.302L1612.87 795.104L1614.28 794.072C1616.99 792.141 1620.33 791.675 1623.26 792.308C1626.25 793.04 1629.1 794.571 1630.79 798.366C1631.21 799.265 1631.63 801.728 1631.14 803.259C1630.72 804.957 1629.84 806.188 1628.92 807.12C1627.06 808.951 1624.84 809.75 1622.55 809.817C1620.23 809.883 1617.87 808.685 1617.03 807.287L1616.29 806.421C1616.36 804.524 1616.92 803.159 1618.08 802.56C1619.24 801.961 1620.79 802.227 1622.52 803.193L1621.32 802.793C1621 803.193 1621.39 802.86 1621.21 802.094C1621.11 801.262 1620.51 800.829 1621.07 801.362C1621.5 801.894 1623.26 801.894 1621.6 801.828C1621.67 802.161 1621.21 802.161 1620.97 802.593C1620.69 802.926 1620.55 803.326 1620.55 803.359C1620.62 803.526 1620.51 802.294 1620.19 802.061L1619.98 799.931C1619.98 799.931 1620.79 799.997 1621 799.831C1621.25 799.664 1620.79 799.964 1620.62 800.363C1620.55 800.53 1620.51 800.696 1620.51 800.663C1620.12 800.729 1620.48 800.663 1620.4 800.663L1620.65 800.596C1620.65 800.596 1620.44 800.596 1620.44 800.496C1620.33 800.23 1619.95 799.931 1619.84 799.864C1619.52 799.797 1620.65 800.064 1621.14 799.731C1621.78 799.465 1622.2 798.832 1622.8 798.399L1622.83 798.433Z" fill="#EED394"/>
<path d="M1538.51 866.636C1538.51 866.47 1538.68 866.17 1539.28 866.104C1539.88 866.004 1540.83 866.337 1541.47 867.102C1542.06 867.901 1542.59 868.9 1542.2 870.464C1541.96 871.33 1541.32 872.095 1540.44 872.495L1539.78 872.761L1539.04 872.628C1538.54 872.562 1538.05 872.328 1537.59 872.029C1535.83 870.664 1535.83 869.2 1535.9 868.001C1536.05 866.803 1536.61 865.804 1537.35 865.139C1538.09 864.473 1539 864.306 1539.53 864.373C1540.09 864.506 1540.3 864.706 1540.27 864.906C1540.2 865.338 1539.39 865.638 1539.07 866.47C1538.9 866.869 1538.79 867.469 1538.83 868.101C1538.83 868.7 1539.28 869.466 1539.28 869.399C1539.28 869.399 1539.28 869.499 1539.39 869.433C1539.53 869.266 1539.6 868.501 1539.46 868.134C1539.32 867.269 1538.61 867.003 1538.47 866.57L1538.51 866.636Z" fill="#EED394"/>
<path d="M1585.03 864.139C1585.77 864.006 1586.48 864.439 1586.62 865.105C1586.76 865.804 1586.3 866.469 1585.6 866.603C1584.86 866.736 1584.15 866.303 1584.01 865.637C1583.87 864.938 1584.33 864.272 1585.03 864.139Z" fill="#EED394"/>
<path d="M1651.31 861.544C1652.05 861.41 1652.75 861.843 1652.89 862.509C1653.03 863.208 1652.57 863.874 1651.87 864.007C1651.13 864.14 1650.43 863.707 1650.29 863.041C1650.15 862.342 1650.6 861.677 1651.31 861.544Z" fill="#EED394"/>
<path d="M1559.59 792.273C1560.89 793.538 1561.95 794.337 1562.54 795.369C1562.72 795.669 1561.49 796.667 1560.89 797.366C1559.94 796.534 1558.85 795.802 1558.15 794.803C1557.93 794.537 1558.81 793.572 1559.59 792.307V792.273Z" fill="#EED394"/>
<path d="M1545.47 667.116C1546.07 667.949 1546.92 668.714 1547.2 669.646C1547.31 670.012 1546.21 670.711 1545.69 671.244C1544.91 670.512 1543.93 669.912 1543.5 669.047C1543.19 668.415 1543.64 667.449 1543.79 666.65C1544.35 666.817 1544.91 666.95 1545.47 667.116Z" fill="#EED394"/>
</g>
<circle cx="907.5" cy="907.5" r="870.5" stroke="#9B5F2B" stroke-width="8"/>
<circle cx="908" cy="908" r="905" stroke="#9B5F2B" stroke-width="6"/>
<path d="M1384.39 1525.4L1393.54 1552.27H1423.17L1399.2 1568.88L1408.35 1595.75L1384.39 1579.14L1360.42 1595.75L1369.58 1568.88L1345.61 1552.27H1375.23L1384.39 1525.4Z" fill="#EED394"/>
<path d="M605.395 69.3652L612.141 89.5171H633.969L616.309 101.972L623.055 122.123L605.395 109.669L587.736 122.123L594.481 101.972L576.822 89.5171H598.65L605.395 69.3652Z" fill="#EED394"/>
<path d="M543.163 1603.18L557.136 1642.73H602.351L565.771 1667.18L579.743 1706.74L543.163 1682.29L506.583 1706.74L520.556 1667.18L483.976 1642.73H529.191L543.163 1603.18Z" fill="#EED394"/>
<path d="M1668.73 1240.25L1682.95 1282.04H1728.94L1691.73 1307.87L1705.94 1349.67L1668.73 1323.84L1631.52 1349.67L1645.73 1307.87L1608.52 1282.04H1654.52L1668.73 1240.25Z" fill="#EED394"/>
<path d="M1063.56 1639.9L1077.78 1681.69H1123.77L1086.56 1707.53L1100.78 1749.32L1063.56 1723.49L1026.35 1749.32L1040.57 1707.53L1003.36 1681.69H1049.35L1063.56 1639.9Z" fill="#EED394"/>
<path d="M1297.48 121.213L1310.25 157.785H1351.56L1318.14 180.387L1330.9 216.959L1297.48 194.357L1264.05 216.959L1276.82 180.387L1243.39 157.785H1284.71L1297.48 121.213Z" fill="#EED394"/>
<path d="M1747.06 853.553L1760.07 890.871H1802.16L1768.11 913.935L1781.12 951.253L1747.06 928.189L1713 951.253L1726.01 913.935L1691.95 890.871H1734.05L1747.06 853.553Z" fill="#EED394"/>
<path d="M1602.21 440.938L1617.38 484.227H1666.5L1626.76 510.981L1641.94 554.27L1602.21 527.516L1562.47 554.27L1577.65 510.981L1537.92 484.227H1587.03L1602.21 440.938Z" fill="#EED394"/>
<path d="M899.395 24L916.258 71.0209H970.828L926.68 100.081L943.543 147.102L899.395 118.042L855.246 147.102L872.11 100.081L827.961 71.0209H882.532L899.395 24Z" fill="#EED394"/>
<path d="M374.701 196.82L388.914 233.392H434.909L397.699 255.995L411.912 292.567L374.701 269.964L337.49 292.567L351.704 255.995L314.493 233.392H360.488L374.701 196.82Z" fill="#EED394"/>
<path d="M723.422 1700.39L732.577 1726.51H762.2L738.234 1742.66L747.388 1768.78L723.422 1752.64L699.456 1768.78L708.61 1742.66L684.644 1726.51H714.268L723.422 1700.39Z" fill="#EED394"/>
<path d="M1493.84 227.066L1502.99 253.189H1532.61L1508.65 269.334L1517.8 295.457L1493.84 279.312L1469.87 295.457L1479.02 269.334L1455.06 253.189H1484.68L1493.84 227.066Z" fill="#EED394"/>
<path d="M238.432 1391.47L254.814 1439.23L307.825 1439.23L264.938 1468.76L281.319 1516.52L238.432 1487L195.545 1516.52L211.927 1468.76L169.04 1439.23L222.051 1439.23L238.432 1391.47Z" fill="#EED394"/>
<path d="M180.488 421.494L195.906 465.53H245.799L205.434 492.745L220.852 536.78L180.488 509.565L140.124 536.78L155.542 492.745L115.177 465.53H165.07L180.488 421.494Z" fill="#EED394"/>
<path d="M88.2113 728.258L97.3656 754.381H126.989L103.023 770.525L112.178 796.648L88.2113 780.503L64.2451 796.648L73.3993 770.525L49.4331 754.381H79.057L88.2113 728.258Z" fill="#EED394"/>
<path d="M103.234 1069.58L117.206 1109.14H162.421L125.841 1133.59L139.814 1173.14L103.234 1148.7L66.6536 1173.14L80.626 1133.59L44.0459 1109.14H89.2613L103.234 1069.58Z" fill="#EED394"/>
<defs>
<radialGradient id="paint0_radial_4019_2620" cx="0" cy="0" r="1" gradientUnits="userSpaceOnUse" gradientTransform="translate(919.5 866.5) rotate(90) scale(694.5)">
<stop stop-color="#C3F9FF"/>
<stop offset="1" stop-color="#759599" stop-opacity="0"/>
</radialGradient>
<clipPath id="clip0_4019_2620">
<rect width="1606" height="1499" fill="white" transform="translate(88 179)"/>
</clipPath>
</defs>
</svg>
