<svg width="1000" height="1000" viewBox="0 0 1000 1000" fill="none" xmlns="http://www.w3.org/2000/svg">
<circle opacity="0.19" cx="499.5" cy="496.5" r="386.5" fill="#FFEB97"/>
<path d="M729 786L733.266 798.438H747.07L735.902 806.125L740.168 818.562L729 810.875L717.832 818.562L722.098 806.125L710.93 798.438H724.734L729 786Z" fill="#EED394"/>
<path d="M366 112L369.143 121.328H379.315L371.086 127.093L374.229 136.422L366 130.657L357.771 136.422L360.914 127.093L352.685 121.328H362.857L366 112Z" fill="#EED394"/>
<path d="M337 822L343.511 840.311H364.581L347.535 851.628L354.046 869.939L337 858.622L319.954 869.939L326.465 851.628L309.419 840.311H330.489L337 822Z" fill="#EED394"/>
<path d="M861.5 654L868.123 673.348H889.556L872.217 685.305L878.84 704.652L861.5 692.695L844.16 704.652L850.783 685.305L833.444 673.348H854.877L861.5 654Z" fill="#EED394"/>
<path d="M579.5 839L586.123 858.348H607.556L590.217 870.305L596.84 889.652L579.5 877.695L562.16 889.652L568.783 870.305L551.444 858.348H572.877L579.5 839Z" fill="#EED394"/>
<path d="M688.5 136L694.45 152.929L713.703 152.929L698.127 163.392L704.076 180.321L688.5 169.858L672.924 180.321L678.873 163.392L663.297 152.929L682.55 152.929L688.5 136Z" fill="#EED394"/>
<path d="M898 475L904.062 492.275H923.679L907.808 502.951L913.87 520.225L898 509.549L882.13 520.225L888.192 502.951L872.321 492.275H891.938L898 475Z" fill="#EED394"/>
<path d="M830.5 284L837.572 304.039L860.458 304.039L841.943 316.423L849.015 336.461L830.5 324.077L811.985 336.461L819.057 316.423L800.542 304.039L823.428 304.039L830.5 284Z" fill="#EED394"/>
<path d="M503 91L510.858 112.766H536.287L515.714 126.218L523.572 147.984L503 134.532L482.428 147.984L490.286 126.218L469.713 112.766H495.142L503 91Z" fill="#EED394"/>
<path d="M258.5 171L265.123 187.929L286.556 187.929L269.217 198.392L275.84 215.321L258.5 204.858L241.16 215.321L247.783 198.392L230.444 187.929L251.877 187.929L258.5 171Z" fill="#EED394"/>
<path d="M421 867L425.266 879.092L439.07 879.092L427.902 886.566L432.168 898.658L421 891.184L409.832 898.658L414.098 886.566L402.93 879.092L416.734 879.092L421 867Z" fill="#EED394"/>
<path d="M780 185L784.266 197.092L798.07 197.092L786.902 204.566L791.168 216.658L780 209.184L768.832 216.658L773.098 204.566L761.93 197.092L775.734 197.092L780 185Z" fill="#EED394"/>
<path d="M195 724L202.633 746.111H227.336L207.351 759.777L214.985 781.889L195 768.223L175.015 781.889L182.649 759.777L162.664 746.111H187.367L195 724Z" fill="#EED394"/>
<path d="M168 275L175.184 295.384H198.434L179.625 307.982L186.809 328.366L168 315.768L149.191 328.366L156.375 307.982L137.566 295.384H160.816L168 275Z" fill="#EED394"/>
<path d="M125 417L129.266 429.092L143.07 429.092L131.902 436.566L136.168 448.658L125 441.184L113.832 448.658L118.098 436.566L106.93 429.092L120.734 429.092L125 417Z" fill="#EED394"/>
<path d="M132 575L138.511 593.311H159.581L142.535 604.628L149.046 622.939L132 611.622L114.954 622.939L121.465 604.628L104.419 593.311H125.489L132 575Z" fill="#EED394"/>
<path d="M559.784 912.845C559.905 912.845 560.046 913.112 560.207 913.627C560.248 913.722 560.288 913.951 560.328 914.18C560.349 914.294 560.369 914.428 560.389 914.561C560.328 914.657 560.187 914.714 560.066 914.809C559.482 915.191 559.28 915.343 558.736 915.61C557.869 916.106 555.893 916.45 554.663 914.924C554.018 914.161 554.119 912.806 554.986 912.101C555.812 911.414 556.719 911.28 557.566 911.204C558.433 911.147 559.24 911.242 560.026 911.414C560.792 911.586 561.8 912.005 562.224 912.978C562.647 913.951 562.143 914.924 561.619 915.401C561.074 915.916 560.369 916.183 559.744 916.221C558.514 916.259 557.748 915.82 557.264 915.534C556.78 915.229 556.558 915 556.619 914.905C556.679 914.79 557.002 914.809 557.526 914.905C558.05 914.981 558.836 915.153 559.582 915C560.248 914.924 560.994 914.008 560.671 913.627C560.55 913.188 558.937 912.864 557.707 912.959C557.082 912.997 556.457 913.169 556.215 913.379C555.994 913.55 555.933 913.817 556.094 914.046C556.478 914.657 557.465 914.771 558.272 914.485C558.635 914.39 559.219 914.123 559.3 914.142C559.421 914.142 559.482 914.084 559.461 913.989C559.482 913.913 559.502 913.837 559.522 913.684C559.603 913.15 559.683 912.864 559.824 912.845H559.784Z" fill="#EED394"/>
<path d="M214.699 603.832C214.84 603.794 214.961 603.756 215.122 603.718C215.183 603.699 215.243 603.68 215.324 603.641C215.324 603.641 215.385 603.603 215.445 603.527C215.506 603.451 215.506 603.336 215.506 603.413C215.485 603.489 215.626 603.718 215.606 603.68L213.328 604.519C212.804 603.966 212.38 603.26 212.118 602.459L215.647 602.993C215.647 602.993 215.647 603.107 215.687 603.184C215.747 603.336 215.868 603.413 215.788 603.355C215.727 603.279 215.526 603.298 215.425 603.203C215.284 603.393 215.788 603.012 215.727 603.012C215.727 603.012 215.667 603.241 215.687 603.336C215.566 603.641 216.131 604.061 216.252 604.5C216.372 604.958 216.695 605.396 216.131 605.949C215.727 606.426 214.8 606.808 213.691 606.598C213.126 606.484 212.522 606.236 211.937 605.721C211.655 605.473 211.372 605.129 211.171 604.729C211.11 604.633 211.07 604.519 211.03 604.404L210.969 604.233L210.929 604.156V604.118L210.888 603.908L210.828 603.794C210.828 603.775 210.828 603.794 210.808 603.737L210.768 603.489C210.647 602.23 210.909 601.467 211.413 600.609C211.917 599.826 212.663 599.14 213.731 598.701C214.397 598.434 215.183 598.3 215.949 598.377L219.094 598.625L219.336 601.181C219.417 602.02 219.296 602.821 218.994 603.508L218.59 605.473C217.582 606.617 216.272 606.674 215.606 606.503C214.86 606.312 214.397 605.892 214.135 605.473C213.61 604.519 214.195 603.928 214.719 603.832H214.699Z" fill="#EED394"/>
<path d="M204.699 577.758C205.122 577.872 205.646 578.483 204.941 579.493C204.175 580.409 202.481 580.924 200.687 580.199C200.223 580.008 199.759 579.703 199.295 579.246C199.074 578.978 198.892 578.788 198.67 578.33C198.57 578.101 198.469 577.853 198.408 577.605C198.348 577.395 198.348 577.433 198.307 577.338C197.985 575.831 198.469 574.458 199.336 573.37C200.203 572.302 201.332 571.635 202.642 571.272C203.368 571.101 203.892 570.986 204.981 571.081L205.263 571.12H205.324L205.646 571.177L205.888 571.234C206.211 571.31 206.533 571.406 206.856 571.52C209.538 572.607 210.646 574.42 211.332 575.812L212.663 578.463L210.727 579.799C207.763 581.821 204.779 581 203.59 579.951L202.541 579.093C202.239 578.54 202.4 577.529 202.824 577.147C203.207 576.747 203.57 576.67 203.832 576.613C204.376 576.556 204.779 576.689 205.122 576.937C205.485 577.185 205.606 577.643 205.485 577.891C205.344 577.967 205.183 578.025 205.021 578.063C204.9 578.082 204.558 578.12 204.719 578.025C204.759 578.063 204.759 578.025 204.699 578.158C204.638 578.292 204.699 578.54 204.658 578.406C204.638 578.349 204.558 578.215 204.457 578.158C204.356 578.101 204.356 578.158 204.517 578.082L204.759 576.594C205.485 576.213 206.191 575.507 206.211 575.049L205.586 579.036C204.961 578.406 204.235 577.948 204.114 577.948H204.094L204.437 577.033L204.376 577.071C204.296 577.109 204.175 577.147 204.134 577.185C204.376 577.414 204.255 577.567 204.316 577.643C204.376 577.815 204.235 577.395 203.872 577.09C203.711 576.957 203.509 576.861 203.429 576.823H203.348H203.388C203.126 576.766 203.973 576.957 202.783 576.689V576.804C202.743 576.976 203.247 576.537 203.388 576.346C203.55 576.06 203.388 576.365 203.388 576.556C203.368 576.88 203.469 577.185 203.55 577.3C203.59 577.357 203.55 577.319 203.65 577.395C203.731 577.472 203.852 577.529 203.973 577.548C204.195 577.624 204.477 577.643 204.699 577.739V577.758Z" fill="#EED394"/>
<path d="M247.925 700.371C248.066 700.657 248.046 701.057 247.643 701.42C247.26 701.782 246.453 702.126 245.304 701.859L242.38 701.172L245.788 698.52C246.574 697.91 247.663 697.3 248.994 696.727L252.058 695.411L252.703 699.398C252.905 700.6 252.421 702.049 251.594 702.984C250.768 703.938 249.74 704.548 248.55 704.911C247.381 705.235 245.909 705.349 244.276 704.624C243.933 704.491 243.368 704.148 242.925 703.728C242.622 703.461 242.683 703.499 242.602 703.423L242.522 703.346L242.481 703.308H242.461L242.219 703.003V702.965C241.675 702.24 241.292 701.344 241.231 700.485C241.07 698.158 242.118 696.651 243.389 695.564C244.659 694.515 246.735 693.714 248.933 694.419C250.627 694.953 251.897 696.403 252.26 697.681C252.643 698.959 252.461 699.97 252.199 700.771C251.635 702.355 250.606 703.194 249.78 703.556C248.913 703.919 248.288 703.766 247.985 703.404C247.381 702.66 247.602 701.267 247.038 700.161C246.977 700.047 246.897 699.932 246.816 699.875C246.776 699.799 246.514 699.875 246.937 699.741C247.219 699.627 247.32 699.551 247.36 699.512C247.3 699.57 247.36 699.512 247.26 699.646C247.219 699.703 247.199 699.741 247.199 699.779V699.799C247.098 699.913 248.006 698.883 247.623 699.322L247.562 699.283L247.441 699.207L247.32 699.131C247.32 699.131 247.34 699.169 247.36 699.169C247.401 699.207 247.481 699.188 247.481 699.226C247.481 699.322 247.481 699.379 247.542 699.531C247.623 699.779 247.824 700.066 247.925 700.161C248.026 700.275 248.026 700.218 247.784 700.104C247.562 699.989 247.159 699.913 246.937 699.932C246.715 699.97 246.796 699.97 246.856 699.932C246.655 699.703 246.977 700.218 246.897 700.085C246.877 699.989 246.776 699.951 246.856 699.875C247.018 699.646 247.018 698.959 246.957 698.845C246.897 698.711 247.038 699.112 247.381 699.379C247.703 699.665 248.006 699.646 247.744 699.646L250.365 702.355C248.893 702.393 247.643 702.278 246.655 702.068L247.119 698.788C247.038 698.921 247.119 699.341 247.34 699.57C247.542 699.856 247.804 700.085 247.945 700.39L247.925 700.371Z" fill="#EED394"/>
<path d="M77.8215 458.748C78.1441 458.5 78.6683 458.404 79.2329 458.862C79.7772 459.32 80.2208 460.35 79.8176 461.609C79.6159 462.219 79.1925 462.944 78.2853 463.497C78.1038 463.631 77.5796 463.821 77.3578 463.898L77.2167 463.974H77.1764V463.993L76.8941 464.031L76.6723 464.069C76.0473 464.165 75.382 464.069 74.7973 463.898C73.5876 463.516 72.6601 462.791 72.015 461.761C71.39 460.769 71.0069 459.148 71.7932 457.527L72.1158 456.84L72.9222 456.249C74.4747 455.142 76.3901 454.875 78.0635 455.238C79.7772 455.657 81.4103 456.535 82.3781 458.709C82.62 459.224 82.862 460.636 82.5797 461.513C82.3378 462.486 81.8337 463.192 81.3095 463.726C80.241 464.775 78.9909 465.233 77.6602 465.271C76.3296 465.309 74.9989 464.623 74.4949 463.821L74.0715 463.326C74.1118 462.238 74.4344 461.456 75.0997 461.113C75.765 460.769 76.6522 460.922 77.6401 461.475L76.9546 461.246C76.7731 461.475 76.9949 461.285 76.8941 460.846C76.8336 460.369 76.4909 460.121 76.8135 460.426C77.0554 460.731 78.0635 460.731 77.1159 460.693C77.1562 460.884 76.8941 460.884 76.753 461.132C76.5917 461.323 76.511 461.552 76.511 461.571C76.5514 461.666 76.4909 460.96 76.3094 460.827L76.1884 459.606C76.1884 459.606 76.6522 459.644 76.7731 459.549C76.9143 459.453 76.6522 459.625 76.5514 459.854C76.511 459.949 76.4909 460.045 76.4909 460.026C76.2691 460.064 76.4707 460.026 76.4304 460.026L76.5715 459.987C76.5715 459.987 76.4505 459.987 76.4505 459.93C76.3901 459.778 76.1683 459.606 76.1078 459.587C75.9263 459.549 76.5715 459.701 76.8538 459.511C77.2167 459.358 77.4586 458.996 77.8014 458.748H77.8215Z" fill="#EED394"/>
<path d="M155.119 420.426C155.22 420.541 155.24 420.75 154.978 420.998C154.716 421.227 154.172 421.456 153.486 421.304C153.143 421.227 152.76 421.056 152.418 420.693C152.337 420.617 152.236 420.483 152.155 420.331C152.055 420.102 152.095 420.274 151.994 420.007C151.914 419.739 151.873 419.415 151.914 419.129C151.994 418.538 152.317 417.985 152.801 417.565C153.285 417.164 154.091 416.821 155.039 417.012L155.502 417.107L155.885 417.565C156.45 418.252 156.571 419.148 156.369 419.873C156.127 420.617 155.764 421.361 154.535 421.838C154.212 421.971 153.486 422.048 153.022 421.933C152.498 421.838 152.055 421.609 151.692 421.323C150.966 420.77 150.361 419.816 150.563 418.595L150.724 417.679L151.651 417.317C152.095 417.145 152.559 416.993 153.043 416.935C155.845 416.478 158.426 417.756 159.635 419.511L160.765 421.151L159.091 421.761C157.135 422.467 155.442 422.124 154.474 421.666C153.486 421.17 153.164 420.598 153.325 420.35C153.607 419.778 155.764 420.331 157.72 419.091L157.176 421.342C156.41 420.636 155.018 420.14 153.728 420.369C153.506 420.407 153.305 420.464 153.123 420.522L153.446 419.11C153.446 419.11 153.93 418.957 153.829 418.976C153.768 418.976 153.607 419.472 153.748 419.32C153.627 419.244 153.365 418.996 153.406 419.072C153.466 419.11 153.829 419.072 153.809 419.034L154.393 419.377C154.393 419.377 154.454 419.72 154.494 419.739C154.454 419.72 154.434 419.701 154.232 419.644C154.151 419.644 154.111 419.644 154.111 419.644C154.091 419.53 154.151 419.797 154.151 419.682C154.151 419.644 154.192 419.587 154.151 419.606C154.091 419.644 154.111 419.739 154.151 419.835C154.373 420.235 154.837 420.293 155.059 420.502L155.119 420.426Z" fill="#EED394"/>
<path d="M247.237 301.914C246.995 301.914 246.713 301.609 246.692 300.96C246.672 300.331 246.954 299.339 247.882 298.5C248.729 297.68 250.442 296.878 252.378 297.47C253.305 297.737 254.132 298.309 254.757 299.034C255.06 299.415 255.322 299.797 255.543 300.293C255.765 300.903 255.947 301.571 255.926 302.219C255.926 302.677 255.826 303.116 255.705 303.536L255.543 304.184L254.939 304.432L254.334 304.661L253.628 304.795C253.265 304.852 252.902 304.928 252.559 304.985C251.108 305.214 249.737 305.405 248.487 305.596C248.225 304.337 247.983 303.04 247.922 302.353C247.882 301.8 247.882 301.304 247.922 300.884C247.983 300.045 248.144 299.549 248.467 299.473C248.789 299.396 249.192 299.759 249.656 300.465C249.878 300.808 250.14 301.247 250.382 301.762C250.604 302.162 250.684 302.067 250.785 302.124C250.886 302.067 250.947 302.01 250.987 301.971V301.933C250.987 301.933 251.047 301.914 251.188 301.876L251.854 301.704L252.176 301.628V301.59C252.136 301.456 252.035 301.285 251.934 301.151C251.733 300.884 251.491 300.655 251.249 300.522C250.805 300.236 250.12 300.274 249.515 300.522C248.265 300.98 247.821 301.971 247.297 301.971L247.237 301.914Z" fill="#EED394"/>
<path d="M464.079 835.097C464.079 835.44 462.99 835.86 461.296 835.192C460.47 834.849 459.542 834.238 458.817 833.246C458.675 833.075 458.373 832.598 458.212 832.178C458.03 831.758 457.869 831.301 457.788 830.843C457.627 829.927 457.687 829.031 457.708 828.001C458.817 827.943 459.865 827.791 461.175 827.924C462.688 828.115 463.252 828.325 464.059 828.63C464.563 828.84 465.188 829.164 465.732 829.45C465.934 829.965 466.115 830.461 466.236 830.976C466.337 831.53 466.337 832.026 466.276 832.388C466.176 833.17 465.873 833.876 465.49 834.486C464.704 835.688 463.373 836.527 462.022 836.699L460.429 836.89L460.268 835.65C459.845 832.216 461.438 830.385 461.921 830.633C462.526 830.824 462.244 832.712 463.151 835.001L461.397 833.952C461.8 833.78 462.204 833.418 462.466 832.884C462.587 832.617 462.667 832.331 462.667 832.064C462.667 831.72 462.647 831.93 462.647 831.873C462.627 831.873 462.688 831.892 462.587 831.854C461.095 831.358 461.74 831.549 461.458 831.434C461.397 831.453 461.196 831.415 461.337 831.835C461.619 832.502 462.042 833.056 462.466 833.475C463.292 834.334 464.099 834.696 464.059 835.097H464.079Z" fill="#EED394"/>
<path d="M201.05 770.947C201.09 771.176 200.828 771.482 200.163 771.577C199.518 771.672 198.51 771.482 197.602 770.68C197.159 770.28 196.735 769.746 196.514 769.021C196.292 768.296 196.292 767.361 196.675 766.541C197.058 765.721 197.723 765.015 198.57 764.576C199.457 764.138 200.324 763.833 201.675 764.042C201.998 764.1 202.3 764.195 202.602 764.309L203.046 764.481C203.167 764.576 203.248 764.71 203.348 764.805C203.53 765.034 203.772 765.263 203.913 765.492C204.034 765.702 204.135 765.835 204.235 766.007C204.619 766.675 204.84 767.361 204.961 768.029C205.223 769.364 205.022 770.566 204.659 771.482C203.893 773.351 202.623 773.923 202.28 773.637C201.856 773.332 202.179 772.359 202.098 771.005C202.058 770.337 201.957 769.555 201.655 768.792C201.514 768.411 201.332 768.029 201.09 767.686C201.03 767.609 200.949 767.495 200.909 767.457C200.909 767.457 200.506 767.457 200.324 767.59C200.062 767.686 199.881 767.857 199.76 767.991C199.518 768.22 199.437 768.678 199.659 769.174C200.042 770.185 200.989 770.509 201.09 770.986L201.05 770.947Z" fill="#EED394"/>
<path d="M749.953 785.615C749.993 785.825 749.792 786.149 749.247 786.283C748.723 786.435 747.816 786.378 746.969 785.844C746.142 785.329 745.275 784.394 745.094 782.926C745.013 782.201 745.175 781.342 745.659 780.598C746.142 779.854 746.929 779.282 747.755 779.015C750.114 778.195 752.776 779.301 753.501 781.285L753.945 782.487L753.078 783.002C751.445 783.975 749.973 783.46 749.328 782.964C748.622 782.411 748.622 781.857 748.864 781.667C749.106 781.457 749.53 781.495 749.993 781.4C750.437 781.323 751.022 781.056 751.122 780.751L750.699 782.468C750.518 782.353 750.356 782.258 750.034 782.201C749.731 782.143 749.308 782.163 749.046 782.258C748.683 782.43 748.622 782.449 748.501 782.773C748.4 783.097 748.542 783.612 748.743 783.994C749.106 784.776 749.852 785.1 749.973 785.577L749.953 785.615Z" fill="#EED394"/>
<path d="M684.565 869.278C684.887 869.583 684.787 870.384 683.779 870.976C682.851 871.548 680.916 871.777 679.343 870.422L678.617 869.793L678.799 868.935L678.879 868.572C679.222 867.275 680.311 866.569 681.158 866.34C682.024 866.092 682.851 866.207 683.476 866.474C684.807 867.122 684.686 868.133 684.283 868.324C683.859 868.572 683.254 868.572 682.932 868.877C682.77 869.011 682.569 869.144 682.468 869.297C682.408 869.354 682.387 869.43 682.387 869.45C682.347 869.411 682.145 869.297 682.206 869.335L681.903 867.885C682.105 868.114 682.609 868.439 683.133 868.61C683.637 868.82 684.222 868.896 684.565 869.24V869.278Z" fill="#EED394"/>
<path d="M785.153 853.809C785.334 853.942 785.435 854.267 785.113 854.667C784.79 855.068 784.004 855.354 783.157 855.182C782.733 855.106 782.27 854.934 781.826 854.553C781.604 854.362 781.383 854.095 781.242 853.809C781.121 853.561 781.02 853.275 780.979 852.97C780.919 852.378 780.979 851.844 781.584 851.234C782.108 850.642 783.096 850.108 784.306 849.994C785.334 849.956 786.262 850.223 786.867 850.604C787.492 850.986 787.794 851.444 788.177 851.844C788.117 852.664 787.875 853.656 787.29 854.19C786.746 854.782 786.1 855.03 785.617 855.087C784.548 855.22 784.064 854.686 784.145 854.343C784.205 853.961 784.548 853.656 784.689 853.256C784.931 852.817 784.709 852.531 784.548 852.531C784.447 852.531 784.447 852.531 784.447 852.55C784.447 852.55 784.427 852.512 784.306 852.55C784.286 852.55 784.266 852.588 784.246 852.607H784.225C783.742 852.855 784.084 852.683 783.983 852.741H784.024C784.024 852.741 784.145 852.645 784.165 852.626C784.125 852.664 784.145 852.779 784.165 852.874C784.246 853.065 784.346 853.275 784.528 853.408C784.709 853.561 784.992 853.599 785.193 853.771L785.153 853.809Z" fill="#EED394"/>
<path d="M947.938 628.915C948.16 629.335 947.717 630.098 946.507 630.709C945.922 631.014 945.136 631.262 944.249 631.376C942.898 631.548 941.164 631.204 939.712 630.899C939.107 630.785 938.845 630.67 941.587 631.128C942.233 631.128 943.099 631.624 943.805 630.651C943.966 630.537 944.208 630.232 944.309 630.27H944.652L945.196 630.155C945.559 630.117 945.62 630.003 945.922 630.155C946.023 630.213 946.245 630.365 946.245 630.327L946.285 630.27C946.003 630.384 946.003 630.67 945.095 630.823C944.37 630.842 944.067 630.613 943.825 630.441C943.362 630.079 943.14 629.698 943.039 629.202C942.878 628.667 943.402 628.057 943.724 628.095C943.906 628.152 944.027 628.267 944.087 628.381C944.168 628.515 944.168 628.667 944.128 628.839C944.208 628.896 944.047 628.668 944.108 628.744C944.067 628.744 944.249 628.763 944.45 628.687C944.712 628.553 944.692 628.553 944.773 628.534C944.833 628.534 944.914 628.515 944.954 628.477C945.015 628.4 944.914 628.572 944.854 628.744C944.813 628.896 944.773 629.087 944.793 629.182C944.793 629.202 944.793 629.24 944.793 629.259V629.278C944.027 627.466 944.571 628.782 944.41 628.362H944.37C944.37 628.362 944.269 628.42 944.289 628.381C944.289 628.343 944.289 628.305 944.289 628.286C943.966 628.038 944.047 628.095 944.067 628.076C944.087 628.076 943.946 628.133 944.128 628.21C944.773 628.267 945.358 628.305 945.862 628.362C946.89 628.439 947.696 628.515 947.918 628.954L947.938 628.915Z" fill="#EED394"/>
<path d="M242.622 550.269C242.804 550.422 242.925 550.67 242.784 551.013C242.643 551.356 242.179 551.738 241.513 551.833C240.868 551.948 240.102 551.833 239.396 551.318C239.054 551.07 238.691 550.727 238.449 550.174C238.207 549.64 238.146 548.934 238.388 548.305L238.53 547.923L238.792 547.675L239.013 547.484C240.606 546.187 242.501 546.55 243.348 547.198C244.276 547.885 244.235 548.705 243.852 548.972C243.449 549.277 242.884 549.315 242.441 549.525C241.997 549.678 241.574 549.964 241.473 550.098H241.453L241.251 549.277C241.11 549.239 241.171 549.277 241.332 549.22C241.433 549.22 241.796 548.915 241.695 549.029C241.655 549.125 241.695 549.296 241.755 549.449C241.755 549.83 242.239 550.04 242.663 550.307L242.622 550.269Z" fill="#EED394"/>
<path d="M450.308 199.559C450.187 199.75 449.824 199.883 449.28 199.616C448.756 199.349 448.131 198.644 447.97 197.614C447.808 196.66 448.03 195.096 449.703 194.142C450.53 193.703 451.518 193.551 452.506 193.818C453.534 194.085 454.462 194.733 455.026 195.573C455.45 196.164 455.671 196.832 455.692 197.461C455.732 198.071 455.51 198.701 455.409 199.216C454.159 199.979 452.728 200.418 451.397 200.284C450.449 200.17 449.703 199.845 449.159 199.464C448.07 198.682 447.929 197.862 448.232 197.614C448.554 197.347 449.199 197.499 450.026 197.518C450.449 197.518 450.913 197.518 451.397 197.404C451.518 197.308 451.538 197.194 451.498 197.137C451.458 197.079 451.397 197.079 451.397 197.079C451.599 197.137 450.994 196.564 450.55 197.594C450.167 198.377 450.49 199.082 450.288 199.521L450.308 199.559Z" fill="#EED394"/>
<path d="M426.839 266.816C426.718 266.625 426.759 266.32 427.101 266.072C427.424 265.824 428.029 265.709 428.614 265.9C429.198 266.091 429.601 266.53 429.682 266.93C429.783 267.331 429.622 267.598 429.4 267.674C428.896 267.789 428.412 267.674 428.009 267.56C427.626 267.407 427.162 267.216 426.839 266.835V266.816Z" fill="#EED394"/>
<path d="M607.308 862.335C607.429 862.335 607.591 862.411 607.591 862.697C607.671 863.04 606.966 863.46 606.522 863.346C606.119 863.346 605.433 863.002 605.091 862.449C604.728 861.896 604.849 861.057 605.534 860.58C605.877 860.351 606.24 860.198 606.683 860.16C607.006 860.16 607.288 860.179 607.55 860.275C608.034 860.427 608.377 860.675 608.639 860.904C609.123 861.381 609.184 861.839 609.002 861.972C608.8 862.125 608.438 862.029 607.954 861.934C607.712 861.877 607.45 861.839 607.208 861.839C607.087 861.839 606.986 861.839 606.885 861.858C606.905 861.82 606.663 861.858 606.865 862.125C606.865 862.125 606.905 862.182 606.905 862.201V862.392C607.026 862.506 606.885 862.392 606.946 862.43C607.067 862.43 607.187 862.316 607.329 862.335H607.308Z" fill="#EED394"/>
<path d="M270.183 849.077C270.304 849.459 268.651 850.241 266.292 850.966L266.635 849.516C266.897 849.688 267.199 849.821 267.582 849.878C268.732 850.05 269.921 849.459 270.486 848.925C271.111 848.372 271.252 847.761 271.534 847.761C271.736 847.723 272.159 848.486 271.554 849.63C270.99 850.68 269.397 851.881 267.28 851.614C266.595 851.519 265.949 851.214 265.465 850.794L264.195 849.707L265.808 849.363C268.207 848.848 270.062 848.715 270.163 849.096L270.183 849.077Z" fill="#EED394"/>
<path d="M338.39 202.858C338.632 202.419 339.721 202.515 340.93 202.534C342.14 202.591 343.229 202.572 343.43 203.011C343.652 203.43 342.543 204.327 340.87 204.269C339.197 204.212 338.148 203.258 338.39 202.858Z" fill="#EED394"/>
<path d="M692.633 747.981C692.754 747.981 692.915 748.057 692.915 748.344C692.996 748.687 692.29 749.107 691.846 748.992C691.443 748.992 690.758 748.649 690.415 748.096C690.052 747.542 690.173 746.703 690.858 746.226C691.201 745.997 691.564 745.845 692.008 745.807C692.33 745.807 692.613 745.826 692.875 745.921C693.359 746.074 693.721 746.322 693.963 746.551C694.447 747.027 694.508 747.485 694.326 747.619C694.125 747.771 693.762 747.676 693.278 747.581C693.036 747.523 692.774 747.485 692.532 747.485C692.411 747.485 692.31 747.485 692.209 747.504C692.23 747.466 691.988 747.504 692.189 747.771L692.23 747.829V748.019C692.35 748.134 692.209 748.019 692.27 748.057C692.391 748.057 692.512 747.943 692.653 747.962L692.633 747.981Z" fill="#EED394"/>
<path d="M630.271 817.738C630.695 817.662 631.098 817.91 631.178 818.292C631.259 818.692 630.997 819.074 630.594 819.15C630.17 819.226 629.767 818.978 629.686 818.597C629.606 818.196 629.868 817.815 630.271 817.738Z" fill="#EED394"/>
<path d="M685.474 859.016C685.898 858.939 686.301 859.187 686.382 859.569C686.462 859.97 686.2 860.351 685.797 860.427C685.373 860.504 684.97 860.256 684.89 859.874C684.809 859.474 685.071 859.092 685.474 859.016Z" fill="#EED394"/>
<path d="M682.611 775.85C683.034 775.773 683.438 776.021 683.518 776.403C683.599 776.803 683.337 777.185 682.934 777.261C682.51 777.338 682.107 777.09 682.026 776.708C681.946 776.308 682.208 775.926 682.611 775.85Z" fill="#EED394"/>
<path d="M697.49 750.67C697.913 750.594 698.317 750.842 698.397 751.223C698.478 751.624 698.216 752.005 697.813 752.082C697.409 752.158 696.986 751.91 696.905 751.528C696.825 751.128 697.087 750.746 697.49 750.67Z" fill="#EED394"/>
<path d="M429.056 794.543C429.48 794.467 429.883 794.715 429.964 795.096C430.044 795.497 429.782 795.878 429.379 795.955C428.955 796.031 428.552 795.783 428.472 795.401C428.391 795.001 428.653 794.619 429.056 794.543Z" fill="#EED394"/>
<path d="M766.424 747.828C766.847 747.752 767.25 748 767.331 748.381C767.411 748.782 767.149 749.163 766.746 749.24C766.323 749.316 765.919 749.068 765.839 748.687C765.758 748.286 766.02 747.905 766.424 747.828Z" fill="#EED394"/>
<path d="M826.021 800.934C826.445 800.857 826.848 801.105 826.928 801.487C827.009 801.887 826.747 802.269 826.344 802.345C825.92 802.422 825.517 802.174 825.436 801.792C825.356 801.392 825.618 801.01 826.021 800.934Z" fill="#EED394"/>
<path d="M94.1501 494.914C94.5734 494.838 94.9767 495.086 95.0573 495.467C95.138 495.868 94.8759 496.249 94.4726 496.326C94.0694 496.402 93.646 496.154 93.5654 495.773C93.4847 495.372 93.7468 494.99 94.1501 494.914Z" fill="#EED394"/>
<path d="M136.49 506.149C136.913 506.072 137.317 506.32 137.397 506.702C137.478 507.102 137.216 507.484 136.812 507.56C136.389 507.636 135.986 507.388 135.905 507.007C135.825 506.606 136.087 506.225 136.49 506.149Z" fill="#EED394"/>
<path d="M140.685 467.504C141.109 467.428 141.512 467.676 141.592 468.057C141.673 468.458 141.411 468.839 141.008 468.916C140.584 468.992 140.181 468.744 140.101 468.362C140.02 467.962 140.282 467.58 140.685 467.504Z" fill="#EED394"/>
<path d="M234.498 785.254C234.074 783.118 235.566 780.981 237.784 780.504C240.143 780.009 242.441 781.477 242.905 783.785C243.349 785.96 241.917 788.058 239.659 788.516C237.32 789.012 234.941 787.486 234.498 785.254Z" fill="#EED394"/>
<path d="M580.209 110.48C582.427 109.945 584.725 111.243 585.33 113.36C585.996 115.668 584.665 117.862 582.286 118.415C580.048 118.949 577.749 117.69 577.124 115.573C576.459 113.379 577.891 111.033 580.209 110.48Z" fill="#EED394"/>
<path d="M159.656 249.076C157.277 249.477 155.059 247.913 154.676 245.586C154.334 243.411 155.886 241.351 158.124 240.989C160.362 240.626 162.66 242.095 163.124 244.174C163.608 246.349 161.955 248.695 159.656 249.076Z" fill="#EED394"/>
<path d="M503.836 881.888C506.033 881.411 508.352 882.746 508.957 884.825C509.582 887.057 508.17 889.327 505.791 889.842C503.513 890.338 501.316 889.079 500.711 886.924C500.086 884.654 501.497 882.403 503.836 881.888Z" fill="#EED394"/>
<path d="M755.373 264.109C757.752 263.746 759.95 265.311 760.313 267.638C760.656 269.812 759.083 271.872 756.825 272.216C754.446 272.578 752.148 270.957 751.845 268.706C751.543 266.55 753.156 264.452 755.373 264.109Z" fill="#EED394"/>
<path d="M742.089 215.658C744.387 215.143 746.847 216.65 747.311 218.843C747.754 220.961 746.303 223.116 744.085 223.612C741.806 224.127 739.609 222.868 739.004 220.713C738.379 218.424 739.73 216.173 742.089 215.658Z" fill="#EED394"/>
<path d="M396.941 860.675C397.365 862.983 395.772 865.005 393.292 865.349C390.973 865.654 388.917 864.223 388.514 862.01C388.131 859.855 389.602 857.795 391.881 857.356C394.26 856.898 396.538 858.386 396.941 860.675Z" fill="#EED394"/>
<path d="M707.976 787.848C708.561 790.098 707.069 792.349 704.71 792.826C702.492 793.265 700.174 791.891 699.609 789.812C699.024 787.638 700.557 785.349 702.936 784.872C705.234 784.395 707.412 785.692 707.976 787.867V787.848Z" fill="#EED394"/>
<path d="M364.965 178.481C367.344 178.042 369.602 179.53 370.005 181.838C370.388 184.051 368.957 185.996 366.618 186.435C364.179 186.893 361.981 185.443 361.578 183.116C361.215 180.961 362.707 178.901 364.985 178.481H364.965Z" fill="#EED394"/>
<path d="M365.387 780.295C365.891 782.45 364.5 784.587 362.282 785.14C360.024 785.693 357.483 784.224 356.979 782.05C356.475 779.856 358.088 777.567 360.427 777.147C362.705 776.747 364.883 778.12 365.387 780.295Z" fill="#EED394"/>
<path d="M214.476 723.852C213.891 721.582 215.363 719.35 217.722 718.892C219.94 718.454 222.238 719.827 222.803 721.906C223.387 724.081 221.855 726.37 219.476 726.846C217.157 727.323 215.02 726.045 214.476 723.852Z" fill="#EED394"/>
<path d="M315.587 261.286C316.112 263.479 314.801 265.539 312.523 266.092C310.164 266.665 307.745 265.291 307.22 263.079C306.696 260.904 308.309 258.577 310.648 258.157C312.906 257.757 315.104 259.13 315.608 261.286H315.587Z" fill="#EED394"/>
<path d="M284.659 186.417C285.203 188.668 283.711 190.899 281.352 191.357C279.114 191.777 276.876 190.403 276.352 188.267C275.787 185.978 277.239 183.842 279.679 183.384C282.017 182.945 284.114 184.242 284.659 186.417Z" fill="#EED394"/>
<path d="M193.889 588.134C194.393 590.309 193.022 592.369 190.744 592.903C188.304 593.475 186.066 592.159 185.542 589.832C185.038 587.543 186.55 585.368 188.929 584.968C191.167 584.586 193.405 586.017 193.869 588.134H193.889Z" fill="#EED394"/>
<path d="M748.279 819.435C746.425 819.797 745.255 819.301 744.973 818.138C744.65 816.86 745.678 815.811 747.493 815.601C747.997 815.544 748.582 815.41 748.965 815.601C749.61 815.925 750.578 816.459 750.598 816.955C750.638 817.623 750.033 818.424 749.529 819.015C749.267 819.321 748.622 819.34 748.279 819.435Z" fill="#EED394"/>
<path d="M359.34 149.01C360.731 148.743 361.9 149.373 362.122 150.479C362.364 151.681 361.396 153.207 360.287 153.378C359.158 153.569 357.706 152.539 357.424 151.357C357.122 150.155 357.827 149.296 359.34 149.01Z" fill="#EED394"/>
<path d="M617.81 256.727C619.504 256.384 621.218 257.28 621.52 258.272C621.803 259.264 620.976 260.447 619.887 260.599C618.657 260.771 616.863 259.798 616.923 258.768C616.964 257.986 617.589 257.223 617.831 256.727H617.81Z" fill="#EED394"/>
<path d="M388.714 170.852C389.017 172.015 388.452 173.045 387.364 173.293C386.214 173.56 384.722 172.683 384.359 171.519C384.017 170.451 384.642 169.383 385.771 169.116C387.041 168.811 388.412 169.612 388.735 170.871L388.714 170.852Z" fill="#EED394"/>
<path d="M637.629 197.937C639 197.67 640.472 198.452 640.673 199.578C640.875 200.684 640.351 201.39 639.202 201.676C637.891 202 636.298 201.275 635.976 200.245C635.693 199.273 636.48 198.147 637.609 197.937H637.629Z" fill="#EED394"/>
<path d="M126.772 313.913C127.901 313.703 128.99 314.542 129.293 315.82C129.595 317.137 128.909 318.224 127.659 318.357C126.53 318.491 125.442 317.556 125.24 316.316C125.059 315.172 125.744 314.104 126.772 313.894V313.913Z" fill="#EED394"/>
<path d="M680.413 289.707C680.836 290.108 681.703 290.584 682.046 291.309C682.51 292.282 681.3 293.942 680.211 294.209C679.163 294.457 677.953 293.636 677.832 292.587C677.691 291.481 678.82 289.955 680.393 289.707H680.413Z" fill="#EED394"/>
<path d="M106.328 438.166C108.123 437.937 109.796 439.177 109.836 440.341C109.877 441.447 109.252 442.134 108.082 442.248C106.893 442.382 105.24 441.218 105.34 440.15C105.401 439.368 106.066 438.643 106.328 438.147V438.166Z" fill="#EED394"/>
<path d="M423.231 831.053C423.554 832.255 423.03 833.285 421.981 833.533C420.832 833.819 419.542 832.865 419.259 831.492C419.038 830.462 419.3 829.603 420.449 829.222C421.699 828.802 422.828 829.565 423.231 831.053Z" fill="#EED394"/>
<path d="M175.786 386.569C174.495 386.702 173.447 386.016 173.346 384.986C173.225 383.879 174.193 383.002 175.665 382.83C176.975 382.697 177.963 383.326 178.084 384.413C178.205 385.558 177.298 386.416 175.786 386.569Z" fill="#EED394"/>
<path d="M322.381 801.563C324.297 801.143 326.071 801.887 325.97 802.879C325.91 803.47 325.305 804.252 324.72 804.481C323.49 804.996 321.535 804.195 321.555 803.241C321.555 802.574 322.18 801.925 322.381 801.544V801.563Z" fill="#EED394"/>
<path d="M384.499 789.239C385.951 788.972 387.725 790.231 387.685 791.357C387.685 791.948 387.08 792.787 386.515 793.016C385.628 793.398 383.773 791.967 383.773 790.88C383.773 790.25 384.298 789.621 384.499 789.239Z" fill="#EED394"/>
<path d="M567.368 83.6968C567.711 83.3344 568.114 82.5714 568.759 82.228C569.908 81.6367 571.44 82.2471 571.743 83.2581C572.045 84.25 571.602 84.8985 570.573 85.2037C569.283 85.5852 567.791 85.0702 567.348 83.6968H567.368Z" fill="#EED394"/>
<path d="M236.009 762.077C236.957 761.868 238.328 762.707 238.449 763.661C238.57 764.672 238.005 765.225 236.997 765.435C235.929 765.663 234.981 765.606 234.537 764.5C234.175 763.642 235.042 762.287 236.009 762.058V762.077Z" fill="#EED394"/>
<path d="M468.413 940.162C468.151 938.559 468.594 937.777 469.764 937.548C470.893 937.338 471.739 937.815 471.981 938.922C472.203 940.009 471.699 940.944 470.55 940.982C469.764 941.02 468.957 940.371 468.413 940.162Z" fill="#EED394"/>
<path d="M635.656 248.733C636.564 247.627 636.967 246.654 637.693 246.349C638.701 245.929 639.668 246.502 639.991 247.589C640.314 248.676 639.769 249.63 638.681 249.763C637.914 249.859 637.047 249.229 635.656 248.714V248.733Z" fill="#EED394"/>
<path d="M838.279 215.334C839.61 215.181 840.376 215.62 840.597 216.746C840.819 217.852 840.295 218.596 839.146 218.806C837.976 219.015 837.23 218.481 836.989 217.394C836.726 216.269 837.372 215.639 838.299 215.334H838.279Z" fill="#EED394"/>
<path d="M621.884 236.621C623.073 237.479 624.081 237.842 624.404 238.529C624.847 239.463 624.283 240.398 623.134 240.722C621.964 241.046 620.996 240.512 620.835 239.501C620.714 238.777 621.359 237.937 621.863 236.621H621.884Z" fill="#EED394"/>
<path d="M377.683 761.906C378.691 762.841 379.558 763.318 379.921 764.043C380.365 764.901 379.82 765.683 378.792 765.95C377.865 766.179 376.473 765.168 376.554 764.195C376.594 763.566 377.119 762.994 377.683 761.925V761.906Z" fill="#EED394"/>
<path d="M561.884 185.232C562.993 185.957 564.041 186.301 564.384 186.949C564.828 187.788 564.122 188.551 563.134 188.78C562.066 189.028 560.997 188.742 560.795 187.674C560.695 187.064 561.36 186.32 561.884 185.232Z" fill="#EED394"/>
<path d="M115.684 250.984C116.793 251.9 117.66 252.358 118.083 253.064C118.527 253.788 118.083 254.551 117.176 254.857C116.248 255.162 114.696 254.322 114.676 253.369C114.676 252.758 115.18 252.129 115.684 250.984Z" fill="#EED394"/>
<path d="M282.784 289.305C284.256 288.943 285.808 289.725 285.768 290.66C285.728 291.27 285.224 292.09 284.659 292.415C283.792 292.93 282.361 292.052 282.28 290.965C282.24 290.354 282.663 289.706 282.784 289.305Z" fill="#EED394"/>
<path d="M454.038 808.257C452.829 809.211 452.305 809.898 451.599 810.126C450.53 810.47 449.421 809.707 449.381 808.791C449.341 807.895 449.865 807.227 450.772 807.265C451.619 807.303 452.466 807.742 454.038 808.257Z" fill="#EED394"/>
<path d="M159.657 807.342C160.504 806.254 160.907 805.282 161.613 804.996C162.621 804.595 163.246 805.453 163.407 806.388C163.568 807.285 163.367 808.276 162.298 808.391C161.633 808.467 160.867 807.857 159.637 807.342H159.657Z" fill="#EED394"/>
<path d="M162.074 601.581C161.671 601.924 161.167 602.63 160.482 602.878C159.433 603.278 158.143 602.515 158.284 601.619C158.385 601.027 158.99 600.264 159.574 600.016C160.583 599.559 161.772 600.226 162.074 601.6V601.581Z" fill="#EED394"/>
<path d="M177.077 609.536C176.271 610.375 175.888 611.138 175.323 611.31C174.154 611.634 173.488 610.852 173.226 609.822C172.984 608.849 173.367 607.914 174.416 607.991C175.202 608.048 175.908 608.849 177.077 609.555V609.536Z" fill="#EED394"/>
<path d="M874.834 516.66C875.943 517.499 876.85 517.919 877.334 518.586C877.838 519.311 877.394 520.055 876.487 520.36C875.499 520.704 873.987 519.998 873.926 519.025C873.906 518.396 874.39 517.747 874.834 516.641V516.66Z" fill="#EED394"/>
<path d="M120.504 643.469C120.786 643.164 121.169 642.458 121.754 642.21C122.722 641.79 124.153 642.706 124.133 643.717C124.133 644.232 123.669 644.976 123.185 645.224C122.258 645.7 120.867 644.88 120.504 643.469Z" fill="#EED394"/>
<path d="M220.787 686.045C221.815 687.056 222.541 687.514 222.843 688.162C223.247 688.982 223.025 689.879 221.976 690.28C221.049 690.623 219.92 689.955 219.88 688.849C219.859 688.143 220.323 687.399 220.787 686.045Z" fill="#EED394"/>
<path d="M156.129 211.613C157.843 211.384 158.468 211.976 158.73 213.044C158.972 214.017 158.65 214.799 157.581 214.99C156.533 215.18 155.787 214.551 155.706 213.597C155.645 212.891 156.008 212.167 156.129 211.594V211.613Z" fill="#EED394"/>
<path d="M508.353 224.566C507.466 225.615 507.043 226.493 506.317 226.855C505.531 227.237 504.785 226.665 504.563 225.787C504.301 224.814 504.946 223.555 505.873 223.574C506.539 223.574 507.184 224.07 508.353 224.566Z" fill="#EED394"/>
<path d="M258.59 313.875C259.658 312.922 260.162 312.216 260.848 311.949C261.735 311.605 262.642 311.93 263.005 312.922C263.328 313.799 262.562 314.886 261.433 314.886C260.687 314.886 259.961 314.39 258.59 313.875Z" fill="#EED394"/>
<path d="M150.079 542.468C150.401 542.201 150.845 541.514 151.43 541.381C152.538 541.114 153.486 541.762 153.647 542.754C153.728 543.288 153.123 544.166 152.579 544.471C151.752 544.929 150.321 543.918 150.059 542.468H150.079Z" fill="#EED394"/>
<path d="M210.867 736.957C211.351 736.613 211.895 735.946 212.601 735.755C213.69 735.45 214.637 736.194 214.678 737.185C214.718 738.12 214.133 738.559 213.266 738.673C212.178 738.807 211.311 738.521 210.867 736.957Z" fill="#EED394"/>
<path d="M196.309 258.691C196.772 258.309 197.276 257.623 197.962 257.375C199.071 256.993 200.18 257.661 200.059 258.634C199.998 259.206 199.373 259.95 198.809 260.179C197.801 260.56 196.873 260.198 196.309 258.691Z" fill="#EED394"/>
<path d="M241.372 265.577C243.005 265.348 243.993 265.634 244.034 266.797C244.034 267.332 243.388 268.152 242.844 268.362C241.876 268.724 240.707 268.457 240.546 267.312C240.465 266.702 241.15 265.996 241.372 265.577Z" fill="#EED394"/>
<path d="M873.061 356.602C874.573 356.392 875.843 357.327 875.722 358.338C875.661 358.872 875.178 359.559 874.673 359.788C873.766 360.188 872.395 359.253 872.375 358.185C872.375 357.575 872.879 356.983 873.04 356.583L873.061 356.602Z" fill="#EED394"/>
<path d="M127.78 398.357C127.497 398.624 127.074 399.349 126.509 399.463C125.4 399.711 124.513 399.043 124.413 398.013C124.372 397.46 124.856 396.583 125.38 396.297C126.247 395.839 127.497 396.793 127.78 398.357Z" fill="#EED394"/>
<path d="M185.321 736.537C186.088 737.319 186.894 737.872 187.257 738.597C187.519 739.131 187.197 739.951 187.035 740.6C187.015 740.695 186.108 740.771 186.007 740.638C185.422 739.703 184.898 738.73 184.455 737.719C184.374 737.548 184.838 737.166 185.301 736.518L185.321 736.537Z" fill="#EED394"/>
<path d="M444.863 109.963C445.266 110.287 446.052 110.611 446.334 111.165C446.778 112.08 446.254 112.862 445.246 113.167C444.338 113.435 443.633 113.015 443.35 112.176C443.048 111.222 443.431 110.516 444.863 109.982V109.963Z" fill="#EED394"/>
<path d="M242.319 665.998C242.642 666.303 243.287 666.628 243.489 667.123C243.912 668.173 243.146 669.908 242.501 669.699C241.916 669.508 241.412 668.783 241.15 668.192C240.827 667.391 240.807 666.494 242.299 666.017L242.319 665.998Z" fill="#EED394"/>
<path d="M557.667 248.39C556.78 247.475 555.934 246.998 555.934 246.502C555.934 245.968 556.579 245.128 557.143 244.938C557.95 244.651 558.776 245.224 558.756 246.101C558.736 246.692 558.232 247.284 557.688 248.39H557.667Z" fill="#EED394"/>
<path d="M244.879 408.943C244.073 408.829 243.065 408.81 242.178 408.524C241.351 408.257 241.17 407.36 241.916 406.998C242.601 406.654 243.65 406.635 244.436 406.826C245.303 407.036 245.625 407.799 244.879 408.943Z" fill="#EED394"/>
<path d="M223.79 325.854C224.838 326.617 225.746 326.979 225.846 327.456C225.947 327.99 225.282 328.638 224.939 329.249C224.334 328.925 223.427 328.734 223.185 328.238C222.963 327.799 223.447 327.036 223.79 325.854Z" fill="#EED394"/>
<path d="M104.875 596.336C105.843 597.08 106.588 597.595 107.234 598.205C107.294 598.262 106.649 599.235 106.548 599.197C105.681 598.911 104.834 598.51 104.048 598.034C103.988 597.995 104.472 597.175 104.895 596.336H104.875Z" fill="#EED394"/>
<path d="M198.808 336.173C197.962 337.05 197.599 337.718 197.014 337.985C196.167 338.348 195.32 337.852 195.32 337.012C195.32 336.44 195.824 335.524 196.328 335.372C196.832 335.2 197.619 335.753 198.808 336.192V336.173Z" fill="#EED394"/>
<path d="M330.771 830.977C331.738 831.797 332.625 832.197 332.706 832.693C332.787 833.208 332.182 834.067 331.638 834.334C330.831 834.715 329.984 834.219 329.944 833.342C329.904 832.731 330.347 832.102 330.771 830.977Z" fill="#EED394"/>
<path d="M314.056 228.762C314.923 229.639 315.729 230.116 315.77 230.631C315.79 231.146 315.044 231.699 314.64 232.233C314.076 231.833 313.169 231.528 313.028 231.032C312.886 230.536 313.532 229.849 314.076 228.762H314.056Z" fill="#EED394"/>
<path d="M797.414 261.19C796.567 262.125 796.144 262.964 795.64 263.021C795.075 263.078 794.027 262.487 793.906 262.029C793.785 261.552 794.41 260.58 794.934 260.37C795.398 260.179 796.204 260.751 797.414 261.19Z" fill="#EED394"/>
<path d="M494.422 841.429C495.349 840.571 495.833 839.77 496.337 839.77C496.922 839.77 497.507 840.437 498.091 840.819C497.688 841.372 497.365 842.211 496.821 842.402C496.337 842.554 495.591 841.944 494.422 841.448V841.429Z" fill="#EED394"/>
<path d="M279.94 735.469C280.787 736.403 281.452 736.842 281.634 737.414C281.896 738.235 281.331 739.017 280.424 738.921C279.819 738.864 278.952 738.254 278.811 737.739C278.69 737.262 279.356 736.575 279.94 735.469Z" fill="#EED394"/>
<path d="M733.036 292.148C733.842 293.102 734.629 293.598 734.608 294.113C734.608 294.647 733.842 295.181 733.419 295.696C732.854 295.277 731.947 294.914 731.826 294.399C731.705 293.922 732.411 293.255 733.056 292.148H733.036Z" fill="#EED394"/>
<path d="M389.882 227.885C390.87 228.686 391.758 229.067 391.838 229.544C391.919 230.078 391.274 230.708 390.931 231.299C390.306 230.975 389.378 230.784 389.157 230.307C388.955 229.849 389.499 229.086 389.903 227.904L389.882 227.885Z" fill="#EED394"/>
<path d="M556.721 826.57C557.447 827.562 558.193 828.134 558.133 828.63C558.092 829.165 557.286 829.622 556.822 830.118C556.278 829.66 555.411 829.241 555.33 828.726C555.249 828.23 556.016 827.619 556.721 826.57Z" fill="#EED394"/>
<path d="M209.135 556.106C208.348 557.098 208.006 557.957 207.502 558.052C206.957 558.147 205.909 557.651 205.727 557.194C205.566 556.774 206.131 555.763 206.635 555.534C207.098 555.324 207.905 555.801 209.155 556.125L209.135 556.106Z" fill="#EED394"/>
<path d="M451.638 232.024C450.711 232.825 450.207 233.608 449.703 233.608C449.118 233.608 448.553 232.921 447.969 232.52C448.392 231.967 448.715 231.128 449.279 230.975C449.743 230.842 450.489 231.471 451.638 232.024Z" fill="#EED394"/>
<path d="M327.844 756.355C328.691 755.459 329.134 754.6 329.638 754.562C330.223 754.524 330.848 755.192 331.453 755.573C331.07 756.145 330.787 756.985 330.263 757.175C329.799 757.347 329.033 756.794 327.864 756.355H327.844Z" fill="#EED394"/>
<path d="M290.527 781.19C291.374 780.351 291.777 779.683 292.362 779.435C293.249 779.073 294.056 779.664 294.056 780.465C294.056 781.038 293.471 781.915 292.947 782.087C292.443 782.239 291.677 781.648 290.527 781.19Z" fill="#EED394"/>
<path d="M116.773 384.451C117.459 385.386 118.023 385.844 118.084 386.34C118.124 386.816 117.62 387.331 117.338 387.847C116.874 387.446 116.168 387.103 116.027 386.626C115.906 386.149 116.37 385.538 116.773 384.451Z" fill="#EED394"/>
<path d="M228.629 216.459C228.186 217.088 227.924 217.794 227.581 217.832C227.158 217.87 226.412 217.432 226.291 217.069C226.17 216.726 226.593 215.963 226.976 215.81C227.299 215.677 227.904 216.154 228.629 216.459Z" fill="#EED394"/>
<path d="M255.445 513.246C256.15 513.856 256.695 514.2 257.017 514.677C257.118 514.848 256.594 515.363 256.372 515.726C255.848 515.402 255.243 515.173 254.86 514.734C254.719 514.581 255.142 513.99 255.445 513.246Z" fill="#EED394"/>
<path d="M176.147 506.969C176.792 507.617 177.317 507.999 177.599 508.495C177.679 508.647 177.095 509.143 176.812 509.468C176.349 509.105 175.764 508.819 175.441 508.361C175.321 508.19 175.784 507.655 176.147 506.969Z" fill="#EED394"/>
<path d="M95.1797 674.371C95.7241 674.962 96.2281 675.287 96.3088 675.706C96.3693 675.973 95.8047 676.679 95.6031 676.66C95.1192 676.584 94.4539 676.279 94.3329 675.935C94.2321 675.611 94.7563 675.096 95.1596 674.39L95.1797 674.371Z" fill="#EED394"/>
<path d="M849.993 782.202C849.549 782.832 849.267 783.538 848.924 783.557C848.501 783.595 847.755 783.175 847.634 782.794C847.513 782.469 847.956 781.668 848.299 781.554C848.682 781.439 849.247 781.878 849.993 782.183V782.202Z" fill="#EED394"/>
<path d="M769.893 785.178C770.498 785.788 771.103 786.131 771.143 786.532C771.183 786.914 770.619 787.352 770.337 787.772C769.913 787.448 769.248 787.181 769.127 786.78C769.026 786.418 769.51 785.903 769.893 785.178Z" fill="#EED394"/>
<path d="M148.788 443.718C148.284 444.271 147.961 444.92 147.619 444.92C147.215 444.92 146.53 444.405 146.469 444.042C146.409 443.661 146.953 443.203 147.215 442.783C147.659 443.05 148.103 443.317 148.768 443.718H148.788Z" fill="#EED394"/>
<path d="M328.43 846.846C328.893 847.437 329.397 847.799 329.357 848.066C329.297 848.391 328.792 848.734 328.409 848.887C328.268 848.944 327.684 848.448 327.684 848.2C327.684 847.838 328.046 847.475 328.43 846.846Z" fill="#EED394"/>
<path d="M907.232 436.964C907.554 436.716 908.079 436.621 908.643 437.079C909.187 437.537 909.631 438.567 909.228 439.826C909.026 440.436 908.603 441.161 907.695 441.714C907.514 441.848 906.99 442.038 906.768 442.115L906.627 442.191H906.587V442.21L906.304 442.248L906.082 442.286C905.457 442.382 904.792 442.286 904.207 442.115C902.998 441.733 902.07 441.008 901.425 439.978C900.8 438.986 900.417 437.365 901.203 435.744L901.526 435.057L902.332 434.466C903.885 433.359 905.8 433.092 907.474 433.455C909.187 433.874 910.82 434.752 911.788 436.926C912.03 437.441 912.272 438.853 911.99 439.73C911.748 440.703 911.244 441.409 910.72 441.943C909.651 442.992 908.381 443.45 907.07 443.488C905.74 443.526 904.389 442.839 903.905 442.038L903.482 441.542C903.522 440.455 903.845 439.673 904.51 439.33C905.175 438.986 906.062 439.139 907.05 439.692L906.365 439.463C906.183 439.692 906.405 439.501 906.304 439.063C906.244 438.586 905.901 438.338 906.224 438.643C906.466 438.948 907.474 438.948 906.526 438.91C906.566 439.101 906.304 439.101 906.163 439.349C906.002 439.539 905.921 439.768 905.921 439.787C905.962 439.883 905.901 439.177 905.72 439.043L905.599 437.823C905.599 437.823 906.062 437.861 906.183 437.765C906.324 437.67 906.062 437.842 905.961 438.071C905.921 438.166 905.901 438.261 905.901 438.242C905.679 438.28 905.881 438.242 905.841 438.242L905.982 438.204C905.982 438.204 905.861 438.204 905.861 438.147C905.8 437.994 905.578 437.823 905.518 437.785C905.336 437.746 905.982 437.899 906.264 437.708C906.627 437.556 906.869 437.193 907.212 436.945L907.232 436.964Z" fill="#EED394"/>
<path d="M858.926 476.049C858.926 475.954 859.027 475.782 859.37 475.744C859.712 475.687 860.257 475.877 860.62 476.316C860.962 476.774 861.265 477.346 861.043 478.243C860.902 478.739 860.539 479.177 860.035 479.406L859.652 479.559L859.229 479.483C858.946 479.444 858.664 479.311 858.402 479.139C857.394 478.357 857.394 477.518 857.434 476.831C857.515 476.144 857.837 475.572 858.261 475.191C858.684 474.809 859.208 474.714 859.511 474.752C859.833 474.828 859.954 474.943 859.934 475.057C859.894 475.305 859.43 475.477 859.249 475.954C859.148 476.183 859.087 476.526 859.108 476.888C859.108 477.232 859.37 477.67 859.37 477.632C859.37 477.632 859.37 477.689 859.43 477.651C859.511 477.556 859.551 477.117 859.47 476.907C859.39 476.411 858.987 476.259 858.906 476.011L858.926 476.049Z" fill="#EED394"/>
<path d="M885.58 474.619C886.003 474.543 886.406 474.791 886.487 475.172C886.568 475.573 886.306 475.955 885.902 476.031C885.479 476.107 885.076 475.859 884.995 475.478C884.914 475.077 885.177 474.696 885.58 474.619Z" fill="#EED394"/>
<path d="M923.545 473.131C923.968 473.055 924.371 473.303 924.452 473.684C924.532 474.085 924.27 474.466 923.867 474.543C923.444 474.619 923.041 474.371 922.96 473.989C922.879 473.589 923.141 473.207 923.545 473.131Z" fill="#EED394"/>
<path d="M871.001 433.436C871.747 434.16 872.352 434.618 872.695 435.209C872.796 435.381 872.09 435.953 871.747 436.354C871.203 435.877 870.578 435.457 870.174 434.885C870.054 434.733 870.558 434.179 871.001 433.455V433.436Z" fill="#EED394"/>
<path d="M862.918 361.714C863.261 362.191 863.745 362.63 863.906 363.164C863.967 363.374 863.342 363.774 863.039 364.08C862.596 363.66 862.031 363.317 861.789 362.821C861.608 362.458 861.87 361.905 861.951 361.447C862.273 361.543 862.596 361.619 862.918 361.714Z" fill="#EED394"/>
<ellipse cx="499.5" cy="496.5" rx="386.5" ry="386.5" fill="url(#paint0_radial_4009_4476)" fill-opacity="0.5" style="mix-blend-mode:color-dodge"/>
<defs>
<radialGradient id="paint0_radial_4009_4476" cx="0" cy="0" r="1" gradientUnits="userSpaceOnUse" gradientTransform="translate(501.97 502.915) rotate(-113.743) scale(257.482 257.482)">
<stop stop-color="#F3CD76"/>
<stop offset="1" stop-color="#F6E9C9" stop-opacity="0.5"/>
</radialGradient>
</defs>
</svg>
