<svg width="1431" height="201" viewBox="0 0 1431 201" fill="none" xmlns="http://www.w3.org/2000/svg">
<g clip-path="url(#clip0_1_97)">
<path opacity="0.3" d="M1252.73 73.899C1262.28 73.9 1270.02 82.51 1270.02 93.13C1270.02 103.751 1262.28 112.361 1252.73 112.361C1252.4 112.361 1252.07 112.349 1251.75 112.329C1251.79 112.905 1251.82 113.485 1251.82 114.07C1251.82 127.759 1240 138.857 1225.43 138.857C1221.2 138.857 1217.21 137.924 1213.67 136.268C1208.79 144.436 1199.38 149.968 1188.57 149.968C1180.94 149.968 1174 147.211 1168.87 142.717C1162.03 148.704 1151.58 152.532 1139.88 152.532C1131.06 152.532 1122.96 150.358 1116.57 146.726C1108.16 155.979 1095.03 161.934 1080.27 161.934C1067.81 161.934 1056.52 157.693 1048.24 150.811C1034.06 164.367 1012.3 173.045 987.9 173.045C966.4 173.045 946.96 166.312 932.942 155.446C923.116 162.745 910.96 167.062 897.8 167.062C884.909 167.062 872.981 162.92 863.263 155.891C847.441 167.013 825.537 173.899 801.332 173.899C777.075 173.899 755.127 166.983 739.296 155.818C725.193 169.466 703.795 178.173 679.837 178.173C660.241 178.173 642.357 172.348 628.776 162.758C613.2 169.294 595.033 173.045 575.634 173.045C560.135 173.045 545.424 170.65 532.191 166.354C515.353 180.556 492.503 189.284 467.336 189.284C448.208 189.284 430.42 184.241 415.59 175.587C404.862 181.453 390.806 185.01 375.418 185.01C364.676 185.01 354.583 183.275 345.818 180.233C330.122 190.645 309.401 196.976 286.687 196.976C270.395 196.976 255.129 193.718 242.007 188.035C230.557 195.845 216.821 200.396 202.05 200.396C184.326 200.396 170.025 200.157 157.445 189.284C145.808 193.313 134.239 200.396 120.143 200.396C78.694 200.396 46.909 176.737 40.526 150.896C19.6395 140.878 0.0186157 115.893 0.0186157 95.896C0.0186157 71.124 20.811 50.308 50.364 42.726C61.404 18.426 88.485 1.25 120.143 1.25C138.099 1.25 154.583 6.776 167.502 15.993C180.889 10.951 196.221 8.088 212.515 8.088C237.554 8.088 260.322 14.849 277.25 25.888C289.583 21.071 304.568 15.993 319.475 15.993C334.64 15.993 347.98 21.166 360.466 26.14C375.341 10.785 396.116 1.25 419.101 1.25C439.363 1.25 457.905 8.65901 472.204 20.932C486.138 8.35301 506.718 0.395996 529.675 0.395996C552.944 0.395996 573.77 8.57 587.71 21.446C602.175 14.619 619.437 10.652 637.974 10.652C662.436 10.652 684.678 17.56 701.204 28.835C710.073 23.79 720.329 20.908 731.257 20.908C745.297 20.908 758.228 25.665 768.535 33.657C780.386 26.182 795.034 21.763 810.888 21.763C823.088 21.763 834.573 24.379 844.62 28.991C861.079 19.707 882.728 14.071 906.445 14.071C928.208 14.071 948.23 18.816 964.1 26.771C975.04 19.332 988.64 14.925 1003.37 14.925C1018.53 14.925 1032.49 19.596 1043.6 27.436C1052.41 23.297 1062.79 20.907 1073.9 20.907C1094.64 20.907 1112.82 29.228 1123.02 41.724C1130.49 37.225 1139.6 34.583 1149.43 34.583C1165.46 34.583 1179.57 41.601 1187.79 52.238C1191.82 50.244 1196.42 49.113 1201.31 49.113C1210.96 49.113 1219.5 53.524 1224.7 60.284C1226.51 59.69 1228.43 59.37 1230.43 59.37C1239.29 59.37 1246.77 65.667 1249.18 74.305C1250.32 74.039 1251.51 73.899 1252.73 73.899Z" fill="url(#paint0_linear_1_97)"/>
<path d="M1283.41 87.539C1283.53 88.177 1283.63 88.902 1283.57 89.502C1283.51 90.356 1283.09 90.886 1282.44 91.189C1283.02 91.479 1283.39 91.978 1283.49 92.762C1283.57 93.359 1283.49 94.088 1283.4 94.731C1282.79 98.677 1282.18 102.638 1281.56 106.588C1281.37 107.817 1281.09 109.111 1280.43 110.152L1280.42 110.173L1280.41 110.17C1279.58 111.516 1278.14 112.321 1276.76 113.049C1274.25 114.388 1271.41 115.597 1268.71 116.479C1267.45 116.883 1266.05 117.316 1264.8 117.557C1263.93 117.72 1262.96 117.705 1262.3 117.137C1261.74 116.678 1261.39 115.849 1261.16 115.103C1260.95 114.407 1260.77 113.648 1260.57 112.887C1260.36 112.035 1260.16 111.162 1259.98 110.291C1259.15 106.379 1258.59 102.232 1258.35 98.238C1258.17 93.85 1258.23 89.384 1258.25 84.986C1258.33 80.985 1258.74 76.82 1259.42 72.879C1259.57 72.002 1259.74 71.122 1259.91 70.262C1260.08 69.494 1260.23 68.729 1260.42 68.025C1260.62 67.272 1260.94 66.43 1261.48 65.95C1262.11 65.357 1263.08 65.306 1263.96 65.435C1265.22 65.628 1266.63 66.008 1267.9 66.364C1270.64 67.143 1273.53 68.243 1276.08 69.485C1277.49 70.161 1278.96 70.91 1279.84 72.224V72.221L1279.86 72.241C1280.56 73.256 1280.89 74.538 1281.13 75.76C1281.89 79.683 1282.65 83.618 1283.41 87.539Z" fill="#C7C4FA"/>
<path opacity="0.66" d="M1284.1 88.207C1284.2 88.737 1284.28 89.34 1284.24 89.838C1284.18 90.548 1283.84 90.988 1283.3 91.24C1283.77 91.481 1284.09 91.896 1284.16 92.547C1284.23 93.043 1284.17 93.649 1284.09 94.183C1283.59 97.462 1283.07 100.753 1282.57 104.035C1282.4 105.057 1282.17 106.132 1281.63 106.997L1281.61 107.014V107.012C1280.92 108.13 1279.73 108.799 1278.58 109.404C1276.5 110.517 1274.14 111.521 1271.9 112.254C1270.85 112.589 1269.69 112.949 1268.65 113.15C1267.93 113.285 1267.12 113.273 1266.58 112.8C1266.12 112.419 1265.82 111.73 1265.63 111.111C1265.46 110.532 1265.3 109.902 1265.14 109.269C1264.97 108.561 1264.8 107.836 1264.65 107.112C1263.96 103.861 1263.49 100.416 1263.3 97.097C1263.15 93.451 1263.2 89.74 1263.21 86.085C1263.28 82.761 1263.62 79.3 1264.18 76.025C1264.31 75.296 1264.45 74.566 1264.6 73.851C1264.73 73.213 1264.86 72.577 1265.02 71.992C1265.18 71.366 1265.45 70.667 1265.89 70.268C1266.42 69.775 1267.22 69.732 1267.95 69.84C1269 70.001 1270.17 70.316 1271.23 70.612C1273.5 71.259 1275.89 72.173 1278.02 73.206C1279.18 73.767 1280.4 74.39 1281.14 75.481V75.479L1281.15 75.496C1281.73 76.339 1282 77.404 1282.2 78.419C1282.84 81.679 1283.47 84.949 1284.1 88.207Z" fill="#9395C5"/>
<path d="M1297.82 88.442C1298.02 89.212 1298.11 90.087 1297.28 90.361C1297.96 90.661 1297.9 91.477 1297.74 92.204C1296.97 95.702 1298.66 102.391 1294.16 110.004C1293.93 110.403 1293.73 110.722 1293.6 110.915V110.913C1293.09 111.283 1292.35 111.199 1291.74 111.174C1288.96 111.008 1286.18 110.848 1283.41 110.674C1283.17 110.659 1282.62 110.657 1281.99 110.399C1281.24 110.097 1280.75 109.609 1280.47 109.284C1280.2 99.58 1280.08 92.435 1280.18 91.426C1280.19 91.25 1280.23 90.849 1280.46 90.515C1280.35 90.264 1280.31 90.015 1280.3 89.886C1280.17 88.882 1280.01 81.737 1279.91 72.03C1280.18 71.695 1280.65 71.189 1281.39 70.858C1282.01 70.576 1282.56 70.553 1282.79 70.529C1285.56 70.25 1288.33 69.984 1291.1 69.713C1291.71 69.665 1292.44 69.553 1292.97 69.903V69.901C1293.1 70.09 1293.32 70.4 1293.57 70.79C1298.35 78.227 1296.91 84.975 1297.82 88.442Z" fill="#FB9840"/>
<path d="M1348.98 56.779C1348.7 56.489 1348.2 55.961 1347.57 55.313C1347.57 55.313 1333.72 41.067 1309.26 30.576C1308.6 30.294 1307.68 29.987 1306.56 29.979C1306.56 29.979 1305.68 29.85 1304.85 30.194C1292.53 35.35 1280.06 40.276 1267.84 45.644C1266.83 46.308 1266.55 47.488 1267.65 48.185C1268.05 48.458 1268.62 48.616 1269.13 48.731C1275.75 50.273 1282.42 51.695 1289.03 53.299C1289.78 53.539 1290.41 53.929 1290.89 54.539C1291.18 54.911 1291.42 55.346 1291.64 55.777C1292.93 58.379 1294.22 60.985 1295.51 63.589C1295.94 64.429 1296.34 65.469 1296.95 66.003C1297.2 66.224 1297.49 66.378 1297.81 66.452C1298.22 66.549 1298.68 66.526 1299.17 66.449C1300.93 66.173 1313.34 67.194 1346.64 57.467C1347.55 57.204 1348.34 56.97 1348.98 56.778V56.779Z" fill="#EB9840"/>
<path d="M1350.13 59.989C1350.28 59.752 1350.23 59.407 1350.17 59.133C1350 58.411 1349.84 57.675 1349.68 56.958C1349.6 56.633 1349.45 56.284 1349.12 56.176C1331.47 58.676 1313.81 61.821 1296.18 64.626C1295.63 64.766 1295.54 65.332 1295.64 65.836C1295.79 66.865 1295.93 67.9 1296.08 68.928C1296.13 69.257 1296.22 69.654 1296.55 69.787C1314.17 67.037 1331.8 63.406 1349.41 60.362C1349.73 60.297 1349.99 60.197 1350.12 60.006L1350.13 59.99V59.989Z" fill="#3263C3"/>
<path d="M1363.48 89.944C1363.6 86.735 1363.57 83.241 1363.28 79.506C1362.59 70.615 1360.67 63.017 1358.6 57.003C1358.15 56.889 1357.41 56.765 1356.52 56.884C1355.44 57.029 1354.65 57.46 1354.23 57.731C1356.38 63.86 1358.36 71.565 1359.06 80.558C1359.32 83.908 1359.37 87.066 1359.29 90.001C1360.69 89.982 1362.08 89.963 1363.48 89.944Z" fill="#3263C3"/>
<path d="M1357.64 89.294C1357.88 84.839 1357.32 80.393 1356.58 76.008C1356.37 74.765 1356.15 73.524 1355.92 72.285C1355.89 72.1 1355.96 71.909 1356.16 71.851C1356.32 71.802 1356.56 71.901 1356.59 72.087C1357.39 76.528 1358.2 80.993 1358.37 85.513C1358.41 86.769 1358.4 88.026 1358.34 89.281C1358.33 89.469 1358.19 89.632 1357.99 89.635C1357.82 89.639 1357.63 89.482 1357.64 89.294Z" fill="#FB9840"/>
<path d="M1355.6 68.506C1355.63 68.511 1355.66 68.516 1355.69 68.52L1355.59 68.509C1355.63 68.513 1355.65 68.513 1355.69 68.509L1355.59 68.523C1355.61 68.52 1355.63 68.515 1355.64 68.508L1355.56 68.544C1355.57 68.539 1355.59 68.531 1355.6 68.523L1355.53 68.578C1355.54 68.57 1355.55 68.561 1355.56 68.55L1355.5 68.622C1355.51 68.607 1355.52 68.591 1355.53 68.574L1355.49 68.658C1355.5 68.64 1355.51 68.623 1355.51 68.604L1355.5 68.696C1355.5 68.672 1355.5 68.647 1355.5 68.624L1355.51 68.715C1355.51 68.69 1355.5 68.667 1355.49 68.643L1355.52 68.726C1355.51 68.7 1355.5 68.677 1355.48 68.655L1355.54 68.725C1355.52 68.703 1355.5 68.684 1355.47 68.666L1355.55 68.719C1355.52 68.704 1355.5 68.692 1355.48 68.681L1355.56 68.714C1355.54 68.704 1355.51 68.697 1355.48 68.694L1355.58 68.704C1355.55 68.702 1355.52 68.703 1355.49 68.706L1355.58 68.692C1355.55 68.696 1355.52 68.705 1355.5 68.717L1355.58 68.681C1355.56 68.691 1355.54 68.704 1355.52 68.719L1355.59 68.664C1355.57 68.675 1355.56 68.688 1355.55 68.702L1355.6 68.63C1355.59 68.643 1355.58 68.657 1355.58 68.671L1355.61 68.587C1355.6 68.608 1355.6 68.63 1355.59 68.652L1355.61 68.56C1355.6 68.588 1355.6 68.615 1355.61 68.642L1355.59 68.551C1355.6 68.581 1355.61 68.609 1355.62 68.637L1355.58 68.554C1355.59 68.579 1355.61 68.601 1355.62 68.623L1355.57 68.553C1355.58 68.572 1355.6 68.588 1355.62 68.602L1355.55 68.549C1355.57 68.562 1355.59 68.575 1355.61 68.584L1355.52 68.551C1355.55 68.56 1355.58 68.568 1355.6 68.57L1355.51 68.559C1355.53 68.562 1355.56 68.561 1355.58 68.558L1355.49 68.572C1355.51 68.569 1355.53 68.563 1355.55 68.556L1355.46 68.592C1355.48 68.583 1355.5 68.572 1355.52 68.558L1355.45 68.613C1355.47 68.598 1355.49 68.579 1355.5 68.559L1355.45 68.631C1355.46 68.613 1355.47 68.593 1355.48 68.574L1355.45 68.658C1355.46 68.64 1355.46 68.622 1355.46 68.602L1355.45 68.694C1355.45 68.672 1355.45 68.65 1355.45 68.627L1355.47 68.719C1355.46 68.697 1355.45 68.676 1355.45 68.655L1355.48 68.738C1355.47 68.717 1355.46 68.699 1355.45 68.682L1355.5 68.752C1355.49 68.734 1355.48 68.719 1355.46 68.705L1355.53 68.758C1355.51 68.747 1355.5 68.738 1355.48 68.73C1355.4 68.696 1355.34 68.6 1355.32 68.525C1355.29 68.442 1355.3 68.331 1355.35 68.256C1355.39 68.181 1355.46 68.114 1355.55 68.092L1355.64 68.078C1355.7 68.076 1355.76 68.092 1355.82 68.122C1355.88 68.15 1355.94 68.196 1355.99 68.249C1356.02 68.286 1356.05 68.322 1356.07 68.365C1356.09 68.408 1356.12 68.457 1356.13 68.506C1356.15 68.606 1356.16 68.702 1356.13 68.802C1356.1 68.903 1356.06 68.978 1355.99 69.057C1355.89 69.186 1355.7 69.269 1355.53 69.258C1355.43 69.252 1355.33 69.231 1355.24 69.18C1355.14 69.129 1355.08 69.059 1355.02 68.975C1355 68.958 1354.99 68.938 1354.98 68.918C1354.96 68.872 1354.94 68.825 1354.93 68.775C1354.9 68.666 1354.9 68.572 1354.92 68.463C1354.96 68.255 1355.13 68.104 1355.33 68.039C1355.38 68.023 1355.43 68.018 1355.48 68.011C1355.5 68.008 1355.53 68.007 1355.56 68.01C1355.66 68.019 1355.75 68.037 1355.85 68.089C1356 68.171 1356.11 68.317 1356.17 68.479C1356.18 68.527 1356.19 68.58 1356.19 68.631C1356.2 68.683 1356.19 68.739 1356.18 68.789C1356.17 68.839 1356.15 68.886 1356.13 68.929C1356.12 68.94 1356.12 68.952 1356.11 68.963C1356.09 68.993 1356.07 69.027 1356.04 69.052C1355.98 69.112 1355.92 69.146 1355.84 69.177C1355.79 69.198 1355.73 69.203 1355.68 69.208C1355.64 69.212 1355.6 69.205 1355.56 69.201C1355.51 69.196 1355.47 69.19 1355.43 69.182C1355.35 69.166 1355.26 69.098 1355.22 69.026C1355.18 68.954 1355.15 68.842 1355.18 68.758C1355.21 68.674 1355.26 68.591 1355.34 68.547C1355.42 68.501 1355.51 68.488 1355.6 68.507V68.506Z" fill="#FB9840"/>
<path d="M1348.98 56.804C1348.7 56.514 1348.2 55.986 1347.57 55.338C1347.57 55.338 1333.72 41.092 1309.26 30.601C1308.6 30.319 1307.69 30.012 1306.56 30.004C1306.56 30.004 1305.68 29.875 1304.85 30.219C1292.53 35.375 1280.06 40.3 1267.84 45.669C1266.83 46.333 1266.55 47.512 1267.65 48.21C1268.05 48.483 1268.62 48.64 1269.13 48.756C1275.75 50.298 1282.42 51.72 1289.03 53.324C1289.78 53.564 1290.41 53.954 1290.89 54.564C1291.19 54.936 1291.42 55.371 1291.64 55.802C1292.93 58.404 1294.22 61.01 1295.51 63.614C1295.94 64.454 1296.34 65.494 1296.95 66.028C1297.2 66.249 1297.49 66.403 1297.81 66.477C1298.22 66.574 1298.68 66.551 1299.17 66.474C1300.93 66.198 1313.34 67.219 1346.64 57.492C1347.55 57.228 1348.34 56.995 1348.98 56.803V56.804Z" fill="#EB9840"/>
<path d="M1350.13 60.014C1350.28 59.778 1350.23 59.433 1350.17 59.158C1350 58.437 1349.84 57.701 1349.68 56.984C1349.6 56.659 1349.45 56.309 1349.12 56.202C1331.47 58.702 1313.81 61.847 1296.18 64.652C1295.63 64.792 1295.54 65.358 1295.64 65.861C1295.79 66.891 1295.93 67.926 1296.08 68.954C1296.13 69.283 1296.22 69.68 1296.55 69.813C1314.17 67.063 1331.8 63.432 1349.41 60.388C1349.73 60.323 1349.99 60.223 1350.12 60.031L1350.13 60.016V60.014Z" fill="#3263C3"/>
<path d="M1363.48 89.969C1363.6 86.76 1363.57 83.265 1363.28 79.531C1362.59 70.64 1360.67 63.041 1358.6 57.028C1358.15 56.914 1357.41 56.79 1356.52 56.909C1355.44 57.053 1354.65 57.485 1354.23 57.756C1356.38 63.885 1358.36 71.589 1359.06 80.583C1359.32 83.933 1359.38 87.091 1359.29 90.026C1360.69 90.006 1362.08 89.988 1363.48 89.969Z" fill="#3263C3"/>
<path d="M1357.64 89.319C1357.88 84.864 1357.32 80.418 1356.58 76.033C1356.37 74.79 1356.15 73.549 1355.92 72.31C1355.89 72.125 1355.96 71.934 1356.16 71.876C1356.32 71.827 1356.56 71.926 1356.59 72.112C1357.39 76.553 1358.2 81.018 1358.37 85.538C1358.41 86.794 1358.4 88.051 1358.34 89.306C1358.33 89.494 1358.19 89.657 1358 89.66C1357.82 89.664 1357.63 89.507 1357.64 89.319Z" fill="#FB9840"/>
<path d="M1355.61 68.532C1355.63 68.537 1355.66 68.542 1355.69 68.545L1355.6 68.535C1355.63 68.538 1355.66 68.539 1355.69 68.534L1355.6 68.549C1355.61 68.545 1355.63 68.541 1355.64 68.534L1355.56 68.57C1355.58 68.564 1355.59 68.558 1355.6 68.549L1355.53 68.604C1355.54 68.596 1355.55 68.587 1355.56 68.576L1355.5 68.648C1355.51 68.632 1355.52 68.617 1355.53 68.6L1355.5 68.684C1355.5 68.666 1355.51 68.649 1355.51 68.63L1355.5 68.722C1355.5 68.698 1355.5 68.673 1355.5 68.649L1355.51 68.741C1355.51 68.716 1355.5 68.692 1355.49 68.669L1355.53 68.752C1355.51 68.726 1355.5 68.702 1355.48 68.68L1355.54 68.75C1355.52 68.728 1355.5 68.709 1355.48 68.691L1355.55 68.744C1355.53 68.73 1355.5 68.717 1355.48 68.707L1355.57 68.74C1355.54 68.729 1355.51 68.723 1355.49 68.719L1355.58 68.73C1355.55 68.728 1355.52 68.728 1355.49 68.732L1355.59 68.717C1355.56 68.722 1355.53 68.731 1355.5 68.743L1355.58 68.706C1355.56 68.716 1355.54 68.729 1355.52 68.745L1355.59 68.689C1355.57 68.701 1355.56 68.714 1355.55 68.728L1355.6 68.656C1355.59 68.668 1355.58 68.682 1355.58 68.696L1355.61 68.612C1355.6 68.633 1355.6 68.656 1355.6 68.678L1355.61 68.586C1355.6 68.614 1355.61 68.64 1355.61 68.668L1355.59 68.576C1355.6 68.607 1355.61 68.635 1355.62 68.662L1355.58 68.579C1355.59 68.604 1355.61 68.626 1355.62 68.648L1355.57 68.578C1355.58 68.597 1355.6 68.614 1355.62 68.627L1355.55 68.574C1355.57 68.588 1355.59 68.6 1355.61 68.61L1355.53 68.576C1355.55 68.586 1355.58 68.593 1355.6 68.596L1355.51 68.585C1355.54 68.587 1355.56 68.587 1355.58 68.584L1355.49 68.598C1355.51 68.595 1355.53 68.589 1355.55 68.581L1355.47 68.618C1355.49 68.609 1355.5 68.598 1355.52 68.583L1355.45 68.639C1355.47 68.623 1355.49 68.605 1355.5 68.585L1355.45 68.657C1355.46 68.639 1355.47 68.619 1355.48 68.599L1355.45 68.684C1355.46 68.665 1355.46 68.647 1355.46 68.628L1355.45 68.72C1355.46 68.697 1355.46 68.675 1355.45 68.653L1355.47 68.745C1355.46 68.722 1355.46 68.702 1355.45 68.681L1355.48 68.764C1355.48 68.743 1355.46 68.725 1355.45 68.707L1355.51 68.777C1355.49 68.759 1355.48 68.744 1355.46 68.731L1355.53 68.784C1355.52 68.773 1355.5 68.763 1355.48 68.755C1355.4 68.722 1355.34 68.626 1355.32 68.551C1355.29 68.468 1355.3 68.356 1355.35 68.282C1355.39 68.207 1355.46 68.14 1355.55 68.118L1355.64 68.103C1355.7 68.102 1355.76 68.118 1355.82 68.147C1355.88 68.175 1355.94 68.222 1355.99 68.275C1356.02 68.312 1356.05 68.348 1356.07 68.39C1356.09 68.433 1356.12 68.483 1356.13 68.531C1356.15 68.631 1356.16 68.727 1356.13 68.828C1356.11 68.929 1356.06 69.004 1355.99 69.083C1355.89 69.212 1355.7 69.295 1355.53 69.284C1355.43 69.277 1355.33 69.257 1355.24 69.206C1355.15 69.155 1355.08 69.085 1355.02 69.001C1355.01 68.983 1354.99 68.964 1354.99 68.943C1354.96 68.898 1354.94 68.851 1354.93 68.801C1354.9 68.691 1354.9 68.598 1354.92 68.489C1354.96 68.281 1355.14 68.13 1355.33 68.065C1355.38 68.048 1355.43 68.043 1355.48 68.037C1355.51 68.033 1355.53 68.033 1355.56 68.035C1355.66 68.044 1355.75 68.062 1355.85 68.115C1356 68.197 1356.11 68.342 1356.17 68.504C1356.18 68.553 1356.19 68.605 1356.19 68.657C1356.2 68.708 1356.19 68.764 1356.18 68.815C1356.17 68.865 1356.15 68.911 1356.13 68.955C1356.12 68.966 1356.12 68.977 1356.11 68.989C1356.09 69.018 1356.07 69.052 1356.04 69.078C1355.98 69.137 1355.92 69.172 1355.84 69.203C1355.79 69.223 1355.73 69.228 1355.68 69.234C1355.64 69.237 1355.6 69.231 1355.56 69.226C1355.52 69.221 1355.47 69.215 1355.43 69.208C1355.35 69.191 1355.26 69.123 1355.22 69.052C1355.18 68.98 1355.15 68.868 1355.18 68.783C1355.21 68.699 1355.26 68.616 1355.34 68.573C1355.42 68.527 1355.51 68.514 1355.6 68.533L1355.61 68.532Z" fill="#FB9840"/>
<path d="M1367.95 62.337C1372.29 60.831 1388.82 61.191 1393.09 64.705" stroke="#A9A9B9" stroke-width="0.511079" stroke-linecap="round"/>
<g style="mix-blend-mode:screen" opacity="0.7">
<path d="M1403.18 66.307C1394.05 59.046 1385.87 57.052 1381.91 56.389C1376.75 55.525 1371.45 55.694 1369.64 55.757C1365.17 55.918 1361.4 56.478 1358.6 57.026C1359.12 58.456 1359.62 59.99 1360.08 61.624C1360.46 62.957 1360.79 64.243 1361.06 65.478C1361.04 63.931 1361.17 62.745 1361.35 62.193C1361.41 62.03 1361.51 61.735 1361.78 61.493C1361.99 61.302 1362.22 61.231 1362.33 61.197C1362.8 61.048 1364.15 60.637 1365.99 60.103C1370.65 59.023 1377.61 58.038 1385.53 59.3C1391.84 60.306 1396.22 62.334 1397.12 62.76C1399.7 63.977 1401.74 65.277 1403.18 66.306V66.307Z" fill="#EB9840"/>
</g>
<g style="mix-blend-mode:screen" opacity="0.7">
<path d="M1361.06 65.48C1360.94 65.401 1359.77 64.67 1358.44 65.187C1357.39 65.593 1356.95 66.494 1356.87 66.691C1356.49 65.113 1356.05 63.466 1355.54 61.761C1355.12 60.366 1354.68 59.03 1354.24 57.757C1354.62 57.497 1355.36 57.074 1356.39 56.913C1357.36 56.759 1358.16 56.91 1358.6 57.029C1358.76 57.488 1358.97 58.128 1359.23 58.897C1359.61 60.055 1359.8 60.648 1359.99 61.298C1360.15 61.852 1360.27 62.327 1360.52 63.28C1360.75 64.19 1360.94 64.947 1361.07 65.481L1361.06 65.48Z" fill="#EB9840"/>
</g>
<g style="mix-blend-mode:screen" opacity="0.3">
<path d="M1356.87 66.69C1355.94 65.663 1354.26 64.051 1351.75 62.968C1349.21 61.871 1346.97 61.815 1345.91 61.797C1341.13 61.721 1323.17 63.478 1298.96 66.626C1317.39 63.685 1335.82 60.742 1354.25 57.801C1354.72 59.145 1355.18 60.558 1355.62 62.04C1356.1 63.647 1356.51 65.201 1356.87 66.692V66.69Z" fill="#EB9840"/>
</g>
<g style="mix-blend-mode:multiply" opacity="0.4">
<path d="M1356.5 65.231C1357.85 70.453 1358.91 76.469 1359.22 83.16C1359.3 84.886 1359.33 86.561 1359.32 88.183L1356.35 88.239C1356.77 85.842 1357.1 83.203 1357.26 80.35C1357.6 74.564 1357.18 69.448 1356.5 65.231Z" fill="#9395C5"/>
</g>
<g style="mix-blend-mode:screen" opacity="0.5">
<path d="M1350.01 58.447C1349.88 57.906 1349.76 57.364 1349.63 56.823C1349.62 56.786 1349.6 56.733 1349.58 56.673C1349.53 56.58 1349.48 56.454 1349.36 56.347C1349.31 56.306 1349.23 56.247 1349.12 56.203C1347.76 56.401 1346.4 56.596 1345.03 56.794C1346.89 56.686 1348.26 56.647 1348.68 56.681C1348.76 56.688 1348.91 56.706 1349.06 56.791C1349.29 56.916 1349.4 57.117 1349.51 57.327C1349.66 57.6 1349.83 57.976 1350.01 58.449V58.447Z" fill="#EB9840"/>
</g>
<g style="mix-blend-mode:screen" opacity="0.7">
<path d="M1348.36 56.295C1348.48 56.158 1344.86 52.871 1341.48 50.089C1336.82 46.261 1333.05 43.666 1332.26 43.121C1323.04 36.803 1313.25 32.34 1309.01 30.498C1308.64 30.355 1308.21 30.218 1307.71 30.118C1306.76 29.924 1305.92 29.934 1305.29 29.996C1302.6 31.059 1299.88 32.183 1297.12 33.374C1296.84 33.495 1294.11 34.69 1294.11 34.69C1297.31 33.799 1299.83 33.03 1301.52 32.498C1303.36 31.922 1304.38 31.575 1305.87 31.512C1308.26 31.41 1310.13 32.103 1311.22 32.551C1324.08 37.826 1337.01 47.601 1337.01 47.601C1344.01 52.897 1348.24 56.443 1348.36 56.297V56.295Z" fill="#EB9840"/>
</g>
<path d="M1333.92 52.991C1327.35 47.952 1319.62 44.642 1311.44 43.364L1311.34 43.348L1311.28 43.268L1308.88 40.182C1307.27 38.1 1304.51 37.28 1302.02 38.148L1277.85 46.574L1290.87 49.63C1292.67 50.052 1294.21 51.205 1295.13 52.81L1298.93 59.479L1335.18 53.958L1333.92 52.991Z" stroke="#DE7A40" stroke-width="0.511079"/>
<path d="M1352.96 78.518C1352.91 77.924 1352.76 77.343 1352.53 76.792L1348.95 68.155C1347.88 65.578 1345.18 64.076 1342.43 64.529L1310.5 69.785L1305.51 74.3L1305.41 74.389L1305.27 74.398L1304.21 74.467C1300.62 74.698 1298.04 78.007 1298.69 81.542L1298.9 82.688V82.699V82.71L1299.92 90.811L1354.05 89.782L1352.96 78.518Z" stroke="#474985" stroke-width="0.766618"/>
<path d="M1342.8 67.458L1331.22 69.177" stroke="#474985" stroke-width="0.766618" stroke-linecap="round"/>
<path d="M1327.42 69.848L1322.11 70.698" stroke="#474985" stroke-width="0.766618" stroke-linecap="round"/>
<path d="M1331.32 51.34L1323.59 52.379L1319.42 56.277L1334.75 53.936L1331.32 51.34Z" fill="#DE7A40" stroke="#DE7A40" stroke-width="0.12777"/>
<path d="M1314.02 54.891L1317.75 54.42L1319.7 52.707L1312.44 53.747L1314.02 54.891Z" fill="#DE7A40" stroke="#DE7A40" stroke-width="0.12777"/>
<path d="M1353.69 88.825L1352.97 82.097L1352.4 82.181C1351.05 82.383 1350.12 83.665 1350.37 85.014L1350.45 85.472L1348.15 88.93L1353.69 88.825Z" fill="#474985"/>
<path d="M1350.06 121.902C1349.8 122.202 1349.32 122.749 1348.72 123.421C1348.72 123.421 1335.42 138.183 1311.37 149.596C1310.73 149.902 1309.82 150.244 1308.69 150.294C1308.69 150.294 1307.82 150.457 1306.98 150.144C1294.47 145.461 1281.83 141.012 1269.41 136.112C1268.38 135.487 1268.05 134.319 1269.12 133.58C1269.51 133.292 1270.08 133.113 1270.58 132.978C1277.14 131.186 1283.75 129.511 1290.29 127.657C1291.03 127.389 1291.64 126.975 1292.1 126.348C1292.38 125.965 1292.61 125.521 1292.81 125.082C1293.99 122.432 1295.18 119.78 1296.37 117.129C1296.78 116.273 1297.14 115.218 1297.73 114.661C1297.96 114.431 1298.25 114.267 1298.57 114.18C1298.97 114.068 1299.44 114.073 1299.93 114.132C1301.69 114.34 1314.05 112.849 1347.71 121.303C1348.62 121.532 1349.42 121.736 1350.07 121.903L1350.06 121.902Z" fill="#EB9840"/>
<path d="M1351.1 118.649C1351.25 118.88 1351.21 119.226 1351.16 119.503C1351.03 120.23 1350.9 120.972 1350.76 121.695C1350.69 122.022 1350.56 122.377 1350.23 122.498C1332.5 120.67 1314.73 118.198 1297.01 116.065C1296.45 115.946 1296.34 115.384 1296.42 114.877C1296.53 113.842 1296.64 112.803 1296.75 111.77C1296.78 111.439 1296.86 111.039 1297.18 110.894C1314.89 112.972 1332.64 115.931 1350.36 118.304C1350.68 118.356 1350.95 118.446 1351.09 118.632L1351.1 118.647V118.649Z" fill="#3263C3"/>
<path d="M1293.6 110.914C1293.09 111.283 1292.35 111.2 1291.74 111.175C1288.96 111.009 1286.18 110.849 1283.41 110.675C1283.17 110.66 1282.62 110.657 1281.99 110.399C1281.24 110.097 1280.75 109.609 1280.47 109.284C1280.2 99.58 1280.08 92.435 1280.18 91.426C1280.2 91.207 1280.25 90.637 1280.66 90.285C1280.97 90.021 1281.35 89.985 1281.48 89.985C1286.62 89.989 1291.79 90.04 1296.92 90.263C1297.98 90.414 1297.92 91.368 1297.74 92.204C1296.97 95.703 1298.66 102.392 1294.16 110.005C1293.93 110.404 1293.73 110.722 1293.6 110.915V110.914Z" fill="#FB9840"/>
<path d="M1365.95 96.52C1366.08 103.544 1371.88 109.13 1378.91 108.996C1385.93 108.863 1391.52 103.06 1391.38 96.037C1391.25 89.013 1385.45 83.427 1378.42 83.561C1371.4 83.694 1365.81 89.496 1365.95 96.52Z" fill="#3263C3"/>
<path d="M1378.34 106.538C1384.18 106.744 1389.08 102.18 1389.28 96.343C1389.49 90.506 1384.92 85.607 1379.09 85.401C1373.25 85.195 1368.35 89.76 1368.15 95.597C1367.94 101.434 1372.5 106.332 1378.34 106.538Z" fill="#CBCBEB"/>
<path d="M1363.29 88.21C1363.54 91.412 1363.64 94.905 1363.49 98.648C1363.14 107.559 1361.51 115.225 1359.67 121.312C1359.22 121.443 1358.49 121.595 1357.6 121.51C1356.51 121.407 1355.71 121.006 1355.28 120.751C1357.2 114.545 1358.88 106.77 1359.24 97.757C1359.37 94.4 1359.3 91.242 1359.11 88.312C1360.5 88.278 1361.9 88.243 1363.29 88.21Z" fill="#3263C3"/>
<path d="M1357.48 89.081C1357.9 93.524 1357.51 97.987 1356.93 102.397C1356.77 103.647 1356.59 104.896 1356.41 106.143C1356.39 106.329 1356.47 106.517 1356.67 106.567C1356.83 106.61 1357.06 106.503 1357.09 106.315C1357.73 101.847 1358.36 97.354 1358.36 92.831C1358.35 91.575 1358.3 90.319 1358.18 89.068C1358.16 88.88 1358.03 88.722 1357.83 88.726C1357.65 88.729 1357.47 88.893 1357.49 89.081H1357.48Z" fill="#FB9840"/>
<path d="M1356.24 109.93C1356.27 109.924 1356.3 109.918 1356.32 109.913L1356.23 109.927C1356.26 109.922 1356.29 109.92 1356.32 109.924L1356.23 109.913C1356.25 109.916 1356.27 109.92 1356.28 109.926L1356.2 109.893C1356.21 109.898 1356.22 109.905 1356.24 109.913L1356.16 109.86C1356.17 109.868 1356.18 109.877 1356.19 109.888L1356.14 109.818C1356.15 109.833 1356.16 109.848 1356.16 109.864L1356.13 109.782C1356.13 109.799 1356.14 109.816 1356.14 109.836L1356.13 109.744C1356.13 109.768 1356.13 109.793 1356.13 109.816L1356.14 109.724C1356.14 109.749 1356.13 109.773 1356.12 109.797L1356.15 109.713C1356.14 109.739 1356.13 109.763 1356.11 109.786L1356.16 109.714C1356.15 109.737 1356.13 109.756 1356.11 109.775L1356.18 109.719C1356.16 109.735 1356.13 109.748 1356.11 109.76L1356.19 109.723C1356.17 109.735 1356.14 109.742 1356.12 109.747L1356.21 109.733C1356.18 109.736 1356.15 109.736 1356.12 109.734L1356.22 109.745C1356.18 109.741 1356.16 109.734 1356.13 109.723L1356.21 109.756C1356.19 109.747 1356.17 109.735 1356.15 109.72L1356.22 109.773C1356.2 109.762 1356.19 109.75 1356.18 109.736L1356.23 109.806C1356.22 109.794 1356.21 109.78 1356.21 109.766L1356.25 109.849C1356.24 109.828 1356.23 109.806 1356.23 109.784L1356.24 109.875C1356.24 109.848 1356.24 109.821 1356.24 109.793L1356.23 109.885C1356.23 109.855 1356.24 109.827 1356.25 109.799L1356.22 109.883C1356.23 109.858 1356.24 109.835 1356.26 109.812L1356.2 109.885C1356.22 109.865 1356.24 109.848 1356.25 109.833L1356.18 109.889C1356.2 109.875 1356.22 109.862 1356.24 109.852L1356.16 109.888C1356.19 109.878 1356.21 109.869 1356.24 109.866L1356.15 109.88C1356.17 109.877 1356.19 109.876 1356.22 109.879L1356.13 109.868C1356.15 109.87 1356.17 109.876 1356.18 109.882L1356.1 109.849C1356.12 109.857 1356.14 109.868 1356.16 109.881L1356.08 109.828C1356.1 109.843 1356.12 109.861 1356.14 109.88L1356.08 109.81C1356.1 109.828 1356.11 109.847 1356.12 109.867L1356.08 109.784C1356.09 109.802 1356.09 109.82 1356.1 109.839L1356.08 109.748C1356.09 109.77 1356.09 109.792 1356.08 109.814L1356.1 109.722C1356.09 109.745 1356.09 109.766 1356.08 109.787L1356.11 109.702C1356.11 109.723 1356.09 109.742 1356.08 109.76L1356.13 109.688C1356.12 109.706 1356.11 109.722 1356.09 109.736L1356.16 109.681C1356.14 109.692 1356.13 109.702 1356.11 109.711C1356.03 109.747 1355.97 109.846 1355.95 109.921C1355.93 110.005 1355.94 110.117 1355.99 110.189C1356.04 110.262 1356.12 110.326 1356.2 110.346L1356.3 110.356C1356.36 110.355 1356.42 110.337 1356.47 110.306C1356.53 110.275 1356.59 110.227 1356.63 110.172C1356.66 110.134 1356.7 110.097 1356.71 110.053C1356.73 110.01 1356.76 109.959 1356.77 109.91C1356.79 109.809 1356.79 109.713 1356.76 109.614C1356.73 109.514 1356.68 109.441 1356.61 109.364C1356.5 109.24 1356.31 109.164 1356.14 109.181C1356.04 109.191 1355.94 109.215 1355.85 109.27C1355.76 109.325 1355.7 109.397 1355.64 109.483C1355.63 109.501 1355.62 109.521 1355.61 109.542C1355.59 109.588 1355.57 109.636 1355.56 109.687C1355.54 109.797 1355.54 109.89 1355.56 109.998C1355.61 110.205 1355.79 110.349 1355.98 110.407C1356.03 110.421 1356.09 110.424 1356.14 110.429C1356.16 110.431 1356.19 110.431 1356.21 110.428C1356.32 110.414 1356.41 110.393 1356.5 110.337C1356.65 110.249 1356.76 110.1 1356.8 109.936C1356.82 109.887 1356.82 109.834 1356.83 109.782C1356.83 109.731 1356.82 109.675 1356.81 109.625C1356.79 109.575 1356.77 109.53 1356.75 109.487C1356.74 109.476 1356.74 109.465 1356.73 109.454C1356.71 109.425 1356.68 109.392 1356.66 109.367C1356.59 109.31 1356.53 109.278 1356.45 109.25C1356.4 109.232 1356.34 109.229 1356.29 109.225C1356.25 109.223 1356.21 109.231 1356.17 109.237C1356.13 109.244 1356.09 109.252 1356.04 109.261C1355.96 109.28 1355.88 109.352 1355.84 109.425C1355.8 109.498 1355.78 109.611 1355.81 109.694C1355.84 109.777 1355.89 109.858 1355.97 109.899C1356.06 109.942 1356.15 109.951 1356.24 109.928V109.93Z" fill="#FB9840"/>
<path d="M1350.06 121.902C1349.8 122.202 1349.32 122.749 1348.72 123.421C1348.72 123.421 1335.42 138.183 1311.37 149.596C1310.73 149.902 1309.82 150.244 1308.69 150.294C1308.69 150.294 1307.82 150.457 1306.98 150.144C1294.47 145.461 1281.83 141.012 1269.41 136.112C1268.38 135.487 1268.05 134.319 1269.12 133.58C1269.51 133.292 1270.08 133.113 1270.58 132.978C1277.14 131.186 1283.75 129.511 1290.29 127.657C1291.03 127.389 1291.64 126.975 1292.1 126.348C1292.38 125.965 1292.61 125.521 1292.81 125.082C1293.99 122.432 1295.18 119.78 1296.37 117.129C1296.78 116.273 1297.14 115.218 1297.73 114.661C1297.96 114.431 1298.25 114.267 1298.57 114.18C1298.97 114.068 1299.44 114.073 1299.93 114.132C1301.69 114.34 1314.05 112.849 1347.71 121.303C1348.62 121.532 1349.42 121.736 1350.07 121.903L1350.06 121.902Z" fill="#EB9840"/>
<path d="M1351.1 118.649C1351.25 118.88 1351.21 119.226 1351.16 119.503C1351.03 120.23 1350.9 120.972 1350.76 121.695C1350.69 122.022 1350.56 122.377 1350.23 122.498C1332.5 120.67 1314.73 118.198 1297.01 116.065C1296.45 115.946 1296.34 115.384 1296.42 114.877C1296.53 113.842 1296.64 112.803 1296.75 111.77C1296.78 111.439 1296.86 111.039 1297.18 110.894C1314.89 112.972 1332.64 115.931 1350.36 118.304C1350.68 118.356 1350.95 118.446 1351.09 118.632L1351.1 118.647V118.649Z" fill="#3263C3"/>
<path d="M1409.98 89.458C1405.78 97.948 1401.58 106.439 1397.38 114.93C1394.97 116.482 1391.41 118.451 1386.8 119.909C1385.53 120.314 1382.09 121.337 1376.69 121.856C1369.05 122.591 1363.1 121.772 1361.32 121.531C1351.71 120.233 1326.99 117.34 1293.52 113.229C1292.93 112.544 1292.74 111.753 1292.15 111.068C1292.83 96.973 1292.73 83.711 1291.51 69.632C1292.08 68.924 1292.24 68.326 1292.8 67.619C1326.09 62.239 1350.69 58.408 1360.24 56.746C1362.01 56.438 1367.93 55.394 1375.59 55.837C1381 56.151 1384.47 57.043 1385.77 57.399C1390.43 58.681 1394.06 60.514 1396.52 61.973C1401.04 70.297 1405.56 78.621 1410.08 86.945C1410.47 86.935 1410.85 86.925 1411.24 86.914L1410.68 88.046C1410.93 88.511 1411.18 88.976 1411.44 89.442C1410.95 89.447 1410.47 89.452 1409.98 89.458Z" fill="#E6E7E8"/>
<path d="M1368.81 115.653C1373.21 116.993 1389.72 116.005 1393.84 112.331" stroke="#A9A9B9" stroke-width="0.511079" stroke-linecap="round"/>
<path d="M1367.77 61.088C1372.11 59.582 1388.65 59.942 1392.91 63.457" stroke="#A9A9B9" stroke-width="0.511079" stroke-linecap="round"/>
<path d="M1363.29 88.21C1363.54 91.412 1363.64 94.905 1363.49 98.648C1363.14 107.559 1361.51 115.225 1359.67 121.312C1359.22 121.443 1358.49 121.595 1357.6 121.51C1356.51 121.407 1355.71 121.006 1355.28 120.751C1357.2 114.545 1358.88 106.77 1359.24 97.757C1359.37 94.4 1359.3 91.242 1359.11 88.312C1360.5 88.278 1361.9 88.243 1363.29 88.21Z" fill="#3263C3"/>
<path d="M1357.49 89.082C1357.9 93.524 1357.51 97.988 1356.93 102.398C1356.77 103.648 1356.59 104.897 1356.41 106.144C1356.39 106.33 1356.47 106.518 1356.67 106.568C1356.83 106.611 1357.06 106.503 1357.09 106.316C1357.73 101.848 1358.37 97.355 1358.36 92.832C1358.35 91.575 1358.3 90.32 1358.18 89.068C1358.17 88.881 1358.03 88.723 1357.83 88.727C1357.65 88.73 1357.47 88.894 1357.49 89.082Z" fill="#FB9840"/>
<path d="M1356.24 109.931C1356.27 109.925 1356.3 109.919 1356.32 109.914L1356.23 109.928C1356.26 109.923 1356.29 109.921 1356.32 109.925L1356.23 109.914C1356.25 109.917 1356.27 109.921 1356.28 109.927L1356.2 109.894C1356.21 109.899 1356.22 109.906 1356.24 109.914L1356.16 109.861C1356.17 109.869 1356.18 109.878 1356.19 109.889L1356.14 109.819C1356.15 109.834 1356.16 109.849 1356.16 109.865L1356.13 109.782C1356.13 109.8 1356.14 109.817 1356.14 109.837L1356.13 109.745C1356.13 109.768 1356.13 109.794 1356.13 109.817L1356.14 109.725C1356.14 109.75 1356.13 109.774 1356.12 109.798L1356.15 109.714C1356.14 109.74 1356.13 109.764 1356.11 109.787L1356.16 109.715C1356.15 109.738 1356.13 109.757 1356.11 109.776L1356.18 109.72C1356.16 109.736 1356.13 109.749 1356.11 109.761L1356.19 109.724C1356.17 109.736 1356.14 109.743 1356.12 109.748L1356.21 109.734C1356.18 109.737 1356.15 109.737 1356.12 109.735L1356.22 109.746C1356.18 109.742 1356.16 109.735 1356.13 109.724L1356.21 109.757C1356.19 109.748 1356.17 109.736 1356.15 109.721L1356.22 109.774C1356.2 109.763 1356.19 109.751 1356.18 109.737L1356.23 109.807C1356.22 109.795 1356.21 109.781 1356.21 109.767L1356.25 109.85C1356.24 109.829 1356.23 109.807 1356.23 109.785L1356.24 109.876C1356.24 109.849 1356.24 109.822 1356.24 109.794L1356.23 109.886C1356.23 109.856 1356.24 109.828 1356.25 109.8L1356.22 109.884C1356.23 109.859 1356.24 109.836 1356.26 109.813L1356.2 109.886C1356.22 109.866 1356.24 109.849 1356.25 109.834L1356.18 109.89C1356.2 109.876 1356.22 109.863 1356.24 109.853L1356.16 109.889C1356.19 109.879 1356.21 109.87 1356.24 109.867L1356.15 109.881C1356.17 109.878 1356.19 109.877 1356.22 109.88L1356.13 109.869C1356.15 109.871 1356.17 109.876 1356.18 109.883L1356.1 109.85C1356.12 109.858 1356.14 109.869 1356.16 109.882L1356.08 109.829C1356.1 109.844 1356.12 109.862 1356.14 109.881L1356.08 109.811C1356.1 109.829 1356.11 109.848 1356.12 109.868L1356.08 109.785C1356.09 109.803 1356.09 109.821 1356.1 109.84L1356.08 109.749C1356.09 109.771 1356.09 109.793 1356.08 109.815L1356.1 109.723C1356.09 109.746 1356.09 109.767 1356.08 109.788L1356.11 109.703C1356.11 109.724 1356.09 109.743 1356.08 109.761L1356.13 109.689C1356.12 109.707 1356.11 109.723 1356.09 109.737L1356.16 109.682C1356.14 109.693 1356.13 109.703 1356.11 109.712C1356.03 109.748 1355.97 109.847 1355.95 109.922C1355.93 110.006 1355.94 110.118 1355.99 110.19C1356.04 110.263 1356.12 110.327 1356.2 110.347L1356.3 110.357C1356.36 110.356 1356.42 110.338 1356.47 110.307C1356.53 110.276 1356.59 110.228 1356.63 110.173C1356.66 110.134 1356.7 110.098 1356.71 110.054C1356.73 110.011 1356.76 109.96 1356.77 109.911C1356.79 109.81 1356.79 109.714 1356.76 109.615C1356.73 109.515 1356.68 109.442 1356.61 109.365C1356.5 109.241 1356.31 109.165 1356.14 109.182C1356.04 109.192 1355.94 109.216 1355.85 109.271C1355.76 109.326 1355.7 109.398 1355.64 109.484C1355.63 109.502 1355.62 109.522 1355.61 109.543C1355.59 109.589 1355.57 109.637 1355.56 109.687C1355.54 109.798 1355.54 109.891 1355.56 109.999C1355.61 110.206 1355.79 110.35 1355.98 110.408C1356.03 110.422 1356.08 110.425 1356.14 110.43C1356.16 110.432 1356.19 110.432 1356.21 110.429C1356.32 110.415 1356.41 110.394 1356.5 110.338C1356.65 110.25 1356.76 110.101 1356.8 109.937C1356.82 109.888 1356.82 109.835 1356.82 109.783C1356.83 109.732 1356.82 109.676 1356.81 109.626C1356.79 109.576 1356.77 109.531 1356.75 109.488C1356.74 109.477 1356.74 109.466 1356.73 109.455C1356.71 109.426 1356.68 109.393 1356.66 109.368C1356.59 109.311 1356.53 109.279 1356.45 109.251C1356.4 109.233 1356.34 109.23 1356.29 109.226C1356.25 109.224 1356.21 109.232 1356.17 109.238C1356.13 109.245 1356.08 109.253 1356.04 109.262C1355.96 109.281 1355.88 109.353 1355.84 109.426C1355.8 109.499 1355.78 109.612 1355.81 109.695C1355.84 109.778 1355.89 109.859 1355.97 109.9C1356.06 109.943 1356.15 109.952 1356.24 109.929V109.931Z" fill="#FB9840"/>
<g style="mix-blend-mode:screen" opacity="0.7">
<path d="M1403.87 110.346C1395.02 117.948 1386.92 120.252 1382.99 121.065C1377.87 122.125 1372.56 122.157 1370.76 122.162C1366.28 122.172 1362.49 121.755 1359.67 121.314C1360.13 119.865 1360.57 118.313 1360.98 116.663C1361.31 115.317 1361.58 114.019 1361.81 112.775C1361.85 114.322 1362.03 115.501 1362.23 116.046C1362.29 116.207 1362.4 116.498 1362.68 116.73C1362.9 116.912 1363.13 116.975 1363.24 117.005C1363.72 117.135 1365.08 117.495 1366.94 117.958C1371.63 118.861 1378.63 119.581 1386.49 118.019C1392.76 116.774 1397.06 114.58 1397.95 114.121C1400.48 112.806 1402.46 111.429 1403.87 110.346Z" fill="#EB9840"/>
</g>
<g style="mix-blend-mode:screen" opacity="0.7">
<path d="M1361.81 112.773C1361.7 112.856 1360.55 113.632 1359.2 113.166C1358.14 112.8 1357.67 111.916 1357.57 111.723C1357.25 113.314 1356.88 114.976 1356.43 116.699C1356.07 118.109 1355.68 119.461 1355.28 120.75C1355.68 120.996 1356.43 121.389 1357.47 121.512C1358.44 121.628 1359.23 121.448 1359.68 121.311C1359.81 120.847 1360 120.199 1360.23 119.422C1360.56 118.249 1360.73 117.65 1360.9 116.993C1361.04 116.434 1361.14 115.954 1361.35 114.993C1361.55 114.074 1361.71 113.31 1361.81 112.772V112.773Z" fill="#EB9840"/>
</g>
<g style="mix-blend-mode:screen" opacity="0.1">
<path d="M1392.11 89.744C1392.16 90.812 1392.1 92.519 1391.42 94.467C1391.05 95.535 1390.24 97.416 1388.49 99.197C1387.02 100.703 1385.47 101.532 1384.44 101.977C1383.46 102.401 1381.8 102.966 1379.7 103.014C1376.48 103.088 1374.12 101.914 1373.24 101.426C1370.44 99.875 1368.98 97.686 1368.41 96.7C1371.61 100.711 1376.73 102.622 1381.6 101.603C1387.17 100.439 1391.46 95.644 1392.11 89.744Z" fill="#D1E7FF"/>
</g>
<g style="mix-blend-mode:screen" opacity="0.3">
<path d="M1357.57 111.723C1356.69 112.784 1355.07 114.459 1352.6 115.637C1350.1 116.829 1347.87 116.971 1346.81 117.029C1342.03 117.286 1324.02 116.213 1299.71 113.987C1318.24 116.226 1336.77 118.466 1355.3 120.705C1355.72 119.344 1356.12 117.914 1356.5 116.417C1356.92 114.793 1357.27 113.225 1357.57 111.721V111.723Z" fill="#EB9840"/>
</g>
<g style="mix-blend-mode:multiply" opacity="0.6">
<path d="M1294.7 101.928C1294.39 105.795 1294 109.501 1293.55 113.034V113.037L1291.64 110.94C1291.85 107.886 1292.04 104.797 1292.21 101.672C1292.62 93.961 1292.64 86.743 1291.93 79.066C1291.64 75.95 1291.33 72.871 1291.01 69.826L1292.84 67.658V67.661C1293.43 71.175 1293.96 74.863 1294.41 78.716C1295.34 86.666 1295.33 93.971 1294.7 101.928Z" fill="#9395C5"/>
</g>
<g style="mix-blend-mode:multiply" opacity="0.7">
<path d="M1366.25 88.968C1366.06 87.899 1365.52 83.911 1367.97 80.075C1370.23 76.975 1373.81 76.158 1377.48 76.462C1376.83 76.765 1372.1 78.164 1371.2 78.862C1370.68 79.265 1369.32 80.371 1368.19 82.17C1366.47 84.911 1366.26 87.669 1366.25 88.968Z" fill="#9395C5"/>
</g>
<g style="mix-blend-mode:screen" opacity="0.5">
<path d="M1351.03 120.221C1350.93 120.767 1350.82 121.313 1350.72 121.858C1350.71 121.896 1350.69 121.949 1350.67 122.011C1350.63 122.105 1350.58 122.233 1350.46 122.345C1350.42 122.388 1350.34 122.449 1350.23 122.497C1348.86 122.352 1347.49 122.208 1346.12 122.063C1347.98 122.1 1349.35 122.086 1349.77 122.037C1349.85 122.027 1350 122.003 1350.15 121.912C1350.37 121.779 1350.48 121.573 1350.58 121.36C1350.71 121.081 1350.88 120.699 1351.03 120.22V120.221Z" fill="#EB9840"/>
</g>
<g style="mix-blend-mode:screen" opacity="0.7">
<path d="M1349.47 122.434C1349.59 122.567 1346.1 125.989 1342.83 128.897C1338.31 132.9 1334.65 135.636 1333.88 136.211C1324.9 142.875 1315.29 147.706 1311.13 149.708C1310.76 149.865 1310.33 150.018 1309.84 150.138C1308.9 150.367 1308.06 150.389 1307.43 150.351C1304.7 149.391 1301.93 148.371 1299.13 147.286C1298.85 147.176 1296.08 146.085 1296.08 146.085C1299.31 146.854 1301.86 147.527 1303.57 147.995C1305.42 148.5 1306.45 148.808 1307.95 148.814C1310.34 148.826 1312.19 148.062 1313.26 147.572C1325.91 141.813 1338.46 131.553 1338.46 131.553C1345.25 125.996 1349.34 122.293 1349.47 122.434Z" fill="#EB9840"/>
</g>
<g style="mix-blend-mode:multiply" opacity="0.2">
<path d="M1289.8 108.715C1290.46 107.603 1290.5 105.101 1290.45 103.352C1290.29 95.169 1290.22 86.862 1290.26 78.674C1290.26 77.061 1290.27 75.138 1289.89 73.703C1289.22 71.168 1288 71.807 1287.54 74.129C1287.25 75.521 1287.27 77.296 1287.3 78.856C1287.44 86.856 1287.61 94.9 1287.82 102.874C1287.85 103.797 1287.89 104.786 1287.99 105.661C1288.14 107.283 1288.89 110.058 1289.79 108.733L1289.8 108.716V108.715Z" fill="#6B00FF"/>
</g>
<g style="mix-blend-mode:multiply" opacity="0.2">
<path d="M1285.25 107.873C1285.9 106.799 1285.89 104.415 1285.83 102.75C1285.55 94.956 1285.36 87.043 1285.27 79.242C1285.25 77.704 1285.24 75.871 1284.83 74.512C1284.12 72.11 1282.89 72.745 1282.47 74.966C1282.2 76.298 1282.25 77.989 1282.29 79.475C1282.55 87.094 1282.84 94.755 1283.16 102.348C1283.2 103.227 1283.26 104.168 1283.37 105C1283.55 106.542 1284.35 109.171 1285.23 107.89L1285.25 107.873Z" fill="#6B00FF"/>
</g>
<path d="M1335.16 126.285C1328.79 131.57 1321.19 135.172 1313.06 136.76L1312.96 136.779L1312.9 136.861L1310.63 140.036C1309.1 142.179 1306.37 143.103 1303.85 142.33L1279.38 134.828L1292.28 131.28C1294.06 130.789 1295.55 129.579 1296.41 127.94L1299.95 121.132L1336.38 125.272L1335.16 126.285Z" stroke="#DE7A40" stroke-width="0.511079"/>
<path d="M1332.62 128.034L1324.87 127.289L1320.55 123.553L1335.95 125.309L1332.62 128.034Z" fill="#DE7A40" stroke="#DE7A40" stroke-width="0.12777"/>
<path d="M1315.21 125.141L1318.95 125.471L1320.96 127.108L1313.67 126.345L1315.21 125.141Z" fill="#DE7A40" stroke="#DE7A40" stroke-width="0.12777"/>
<path d="M1327.68 68.283C1327.72 68.528 1327.55 68.758 1327.31 68.797L1322.01 69.647C1321.76 69.686 1321.53 69.519 1321.49 69.274C1321.45 69.029 1321.62 68.799 1321.87 68.76L1327.17 67.91C1327.41 67.871 1327.64 68.038 1327.68 68.283Z" fill="#474985"/>
<path d="M1343.07 65.898C1343.1 66.143 1342.93 66.372 1342.69 66.408L1331.11 68.127C1330.87 68.163 1330.64 67.993 1330.6 67.748C1330.56 67.502 1330.73 67.274 1330.98 67.237L1342.56 65.519C1342.8 65.483 1343.03 65.652 1343.07 65.898Z" fill="#474985"/>
<path d="M1328.08 109.24C1328.32 109.27 1328.5 109.494 1328.47 109.74C1328.44 109.986 1328.22 110.162 1327.97 110.132L1322.64 109.484C1322.39 109.454 1322.22 109.23 1322.25 108.984C1322.28 108.738 1322.5 108.562 1322.75 108.592L1328.08 109.24Z" fill="#474985"/>
<path d="M1343.54 111.043C1343.78 111.07 1343.96 111.292 1343.94 111.538C1343.91 111.785 1343.69 111.963 1343.44 111.936L1331.8 110.659C1331.56 110.632 1331.38 110.41 1331.41 110.163C1331.43 109.917 1331.66 109.739 1331.9 109.766L1343.54 111.043Z" fill="#474985"/>
<path fill-rule="evenodd" clip-rule="evenodd" d="M1354.27 88.663L1353.62 99.911C1353.57 100.653 1353.42 101.384 1353.16 102.081L1350.27 109.876C1349.06 113.138 1345.77 115.137 1342.32 114.703L1310.97 110.759L1305.71 106.365C1301.36 106.25 1298.07 102.391 1298.63 98.087L1298.65 97.985L1298.66 97.885L1299.39 89.557L1298.35 81.262L1298.33 81.163L1298.31 81.061C1297.59 76.781 1300.72 72.801 1305.07 72.52L1310.15 67.929L1341.33 62.797C1344.76 62.232 1348.13 64.105 1349.46 67.318L1352.65 74.998C1352.93 75.684 1353.11 76.41 1353.18 77.15L1354.26 88.364L1354.28 88.363V88.513L1354.29 88.663H1354.27ZM1352.29 77.235C1352.23 76.584 1352.07 75.946 1351.82 75.342L1348.63 67.663C1347.46 64.835 1344.5 63.186 1341.47 63.684L1310.56 68.773L1305.44 73.397L1305.13 73.417C1301.28 73.665 1298.52 77.211 1299.21 81.001L1299.23 81.125L1299.24 81.15L1300.2 88.792L1348.29 87.878L1350.29 84.875L1350.28 84.842C1350 83.261 1351.08 81.757 1352.67 81.521L1352.7 81.516L1352.29 77.235ZM1352.93 95.562C1351.34 95.387 1350.2 93.925 1350.43 92.334V92.301L1348.32 89.376L1300.22 90.29L1299.56 97.963L1299.55 97.988L1299.54 98.113C1298.99 101.926 1301.89 105.365 1305.74 105.466L1306.05 105.475L1311.34 109.901L1342.43 113.812C1345.46 114.194 1348.37 112.434 1349.43 109.564L1352.32 101.769C1352.55 101.155 1352.68 100.512 1352.72 99.859L1352.97 95.566L1352.93 95.562Z" fill="#474985"/>
<path d="M1365.81 89.331C1365.94 96.355 1371.75 101.941 1378.77 101.807C1385.79 101.674 1391.38 95.872 1391.24 88.848C1391.11 81.824 1385.31 76.239 1378.29 76.372C1371.26 76.506 1365.68 82.308 1365.81 89.331Z" fill="#3263C3"/>
<path d="M1378.21 99.35C1384.04 99.556 1388.94 94.992 1389.15 89.155C1389.35 83.318 1384.79 78.419 1378.95 78.213C1373.11 78.007 1368.22 82.572 1368.01 88.409C1367.8 94.246 1372.37 99.144 1378.21 99.35Z" fill="#CBCBEB"/>
<path opacity="0.1" d="M1389.01 86.984C1388.94 86.595 1388.84 86.159 1388.7 85.691C1388.55 85.204 1388.38 84.772 1388.21 84.402C1381.48 86.032 1374.74 87.66 1368.01 89.29C1368.03 89.754 1368.09 90.305 1368.21 90.914C1368.34 91.539 1368.51 92.077 1368.69 92.52C1375.46 90.673 1382.23 88.828 1389.01 86.982V86.984Z" fill="#D1E7FF"/>
<path opacity="0.1" d="M1389.1 89.856C1383.01 91.896 1376.92 93.934 1370.83 95.973C1371.04 96.168 1371.25 96.364 1371.46 96.559C1371.63 96.721 1371.81 96.884 1371.98 97.045C1377.62 95.053 1383.26 93.059 1388.91 91.068C1388.96 90.904 1389 90.717 1389.04 90.511C1389.08 90.269 1389.1 90.048 1389.1 89.856Z" fill="#D1E7FF"/>
<path d="M1363.32 89.641C1363.45 86.432 1363.41 82.937 1363.12 79.203C1362.44 70.312 1360.51 62.713 1358.44 56.7C1357.99 56.586 1357.25 56.462 1356.36 56.581C1355.28 56.725 1354.49 57.157 1354.08 57.428C1356.23 63.557 1358.2 71.262 1358.9 80.255C1359.16 83.605 1359.22 86.763 1359.14 89.698C1360.53 89.679 1361.93 89.66 1363.32 89.641Z" fill="#3263C3"/>
<path d="M1357.48 88.991C1357.73 84.536 1357.17 80.09 1356.42 75.705C1356.21 74.462 1355.99 73.221 1355.77 71.982C1355.73 71.797 1355.81 71.606 1356 71.548C1356.17 71.499 1356.4 71.598 1356.43 71.784C1357.24 76.225 1358.05 80.691 1358.21 85.21C1358.26 86.466 1358.25 87.723 1358.18 88.978C1358.17 89.166 1358.04 89.329 1357.84 89.332C1357.66 89.336 1357.47 89.179 1357.48 88.991Z" fill="#FB9840"/>
<path d="M1355.45 68.204C1355.48 68.209 1355.5 68.214 1355.53 68.217L1355.44 68.207C1355.47 68.21 1355.5 68.211 1355.53 68.206L1355.44 68.221C1355.46 68.218 1355.47 68.213 1355.49 68.206L1355.41 68.242C1355.42 68.236 1355.43 68.229 1355.44 68.221L1355.37 68.276C1355.38 68.268 1355.39 68.259 1355.4 68.248L1355.35 68.32C1355.36 68.304 1355.37 68.289 1355.37 68.272L1355.34 68.356C1355.35 68.338 1355.35 68.321 1355.35 68.302L1355.34 68.394C1355.34 68.37 1355.34 68.345 1355.34 68.321L1355.35 68.413C1355.35 68.388 1355.34 68.365 1355.33 68.341L1355.37 68.424C1355.36 68.398 1355.34 68.374 1355.32 68.352L1355.38 68.422C1355.36 68.4 1355.34 68.381 1355.32 68.364L1355.39 68.417C1355.37 68.402 1355.35 68.39 1355.32 68.379L1355.41 68.412C1355.38 68.401 1355.36 68.395 1355.33 68.391L1355.42 68.402C1355.39 68.4 1355.37 68.4 1355.34 68.404L1355.43 68.389C1355.4 68.394 1355.37 68.403 1355.34 68.415L1355.42 68.378C1355.4 68.388 1355.38 68.401 1355.36 68.417L1355.43 68.361C1355.42 68.373 1355.4 68.386 1355.39 68.4L1355.45 68.328C1355.44 68.34 1355.43 68.355 1355.42 68.369L1355.46 68.284C1355.45 68.305 1355.44 68.328 1355.44 68.35L1355.45 68.258C1355.45 68.286 1355.45 68.312 1355.45 68.34L1355.44 68.249C1355.44 68.279 1355.45 68.307 1355.46 68.334L1355.43 68.252C1355.44 68.276 1355.45 68.298 1355.47 68.32L1355.41 68.25C1355.43 68.27 1355.45 68.286 1355.46 68.3L1355.39 68.247C1355.41 68.26 1355.43 68.272 1355.45 68.282L1355.37 68.248C1355.4 68.258 1355.42 68.266 1355.45 68.268L1355.36 68.257C1355.38 68.259 1355.4 68.259 1355.43 68.256L1355.34 68.27C1355.35 68.267 1355.37 68.261 1355.39 68.254L1355.31 68.29C1355.33 68.281 1355.35 68.27 1355.37 68.255L1355.3 68.311C1355.32 68.295 1355.33 68.277 1355.35 68.257L1355.29 68.329C1355.31 68.311 1355.32 68.291 1355.33 68.272L1355.29 68.356C1355.3 68.337 1355.31 68.319 1355.31 68.3L1355.3 68.392C1355.3 68.37 1355.3 68.347 1355.3 68.325L1355.31 68.417C1355.31 68.394 1355.3 68.374 1355.29 68.353L1355.33 68.436C1355.32 68.415 1355.31 68.397 1355.29 68.379L1355.35 68.449C1355.34 68.432 1355.32 68.417 1355.3 68.403L1355.38 68.456C1355.36 68.445 1355.34 68.436 1355.32 68.428C1355.25 68.394 1355.18 68.298 1355.16 68.223C1355.14 68.14 1355.14 68.028 1355.19 67.954C1355.24 67.879 1355.31 67.812 1355.39 67.79L1355.49 67.775C1355.55 67.774 1355.61 67.79 1355.66 67.819C1355.73 67.847 1355.79 67.894 1355.83 67.947C1355.86 67.984 1355.9 68.02 1355.92 68.063C1355.94 68.105 1355.96 68.155 1355.97 68.204C1356 68.303 1356 68.399 1355.97 68.5C1355.95 68.601 1355.9 68.676 1355.84 68.755C1355.73 68.884 1355.54 68.967 1355.38 68.956C1355.27 68.95 1355.18 68.929 1355.08 68.878C1354.99 68.827 1354.92 68.757 1354.86 68.673C1354.85 68.655 1354.84 68.636 1354.83 68.615C1354.81 68.57 1354.78 68.523 1354.77 68.473C1354.75 68.363 1354.74 68.27 1354.77 68.161C1354.8 67.953 1354.98 67.802 1355.17 67.737C1355.22 67.721 1355.27 67.715 1355.32 67.709C1355.35 67.706 1355.38 67.705 1355.4 67.707C1355.51 67.716 1355.6 67.734 1355.69 67.787C1355.84 67.869 1355.96 68.014 1356.01 68.176C1356.03 68.225 1356.03 68.278 1356.04 68.329C1356.04 68.381 1356.03 68.436 1356.02 68.487C1356.01 68.537 1355.99 68.583 1355.97 68.627C1355.97 68.638 1355.96 68.649 1355.95 68.661C1355.93 68.69 1355.91 68.724 1355.89 68.75C1355.82 68.81 1355.76 68.844 1355.68 68.875C1355.63 68.895 1355.58 68.901 1355.52 68.906C1355.48 68.909 1355.44 68.903 1355.4 68.898C1355.36 68.894 1355.32 68.887 1355.27 68.88C1355.19 68.863 1355.11 68.795 1355.06 68.724C1355.02 68.652 1355 68.54 1355.02 68.456C1355.05 68.371 1355.1 68.288 1355.18 68.245C1355.26 68.199 1355.35 68.186 1355.45 68.205V68.204Z" fill="#FB9840"/>
<g style="mix-blend-mode:screen" opacity="0.7">
<path d="M1403.03 65.979C1393.9 58.719 1385.71 56.725 1381.75 56.062C1376.59 55.197 1371.29 55.366 1369.49 55.43C1365.01 55.59 1361.25 56.151 1358.44 56.698C1358.96 58.129 1359.46 59.663 1359.92 61.296C1360.3 62.629 1360.63 63.916 1360.91 65.15C1360.89 63.603 1361.02 62.418 1361.2 61.865C1361.25 61.703 1361.35 61.407 1361.62 61.165C1361.84 60.974 1362.06 60.903 1362.17 60.869C1362.64 60.721 1363.99 60.309 1365.83 59.776C1370.49 58.695 1377.45 57.711 1385.37 58.973C1391.68 59.978 1396.06 62.007 1396.97 62.432C1399.54 63.65 1401.58 64.95 1403.03 65.978V65.979Z" fill="#EB9840"/>
</g>
<g style="mix-blend-mode:screen" opacity="0.7">
<path d="M1360.91 65.151C1360.79 65.072 1359.61 64.341 1358.28 64.858C1357.23 65.264 1356.8 66.165 1356.71 66.362C1356.33 64.784 1355.89 63.137 1355.38 61.432C1354.96 60.037 1354.53 58.702 1354.08 57.428C1354.47 57.168 1355.21 56.745 1356.23 56.584C1357.21 56.43 1358 56.581 1358.45 56.7C1358.6 57.159 1358.82 57.799 1359.07 58.568C1359.45 59.726 1359.64 60.319 1359.83 60.969C1359.99 61.523 1360.12 61.998 1360.36 62.951C1360.59 63.861 1360.78 64.617 1360.91 65.151Z" fill="#EB9840"/>
</g>
<g style="mix-blend-mode:screen" opacity="0.3">
<path d="M1356.71 66.362C1355.79 65.335 1354.11 63.723 1351.59 62.64C1349.05 61.543 1346.82 61.487 1345.75 61.469C1340.97 61.393 1323.01 63.15 1298.8 66.298C1317.23 63.357 1335.66 60.414 1354.1 57.473C1354.57 58.817 1355.03 60.23 1355.46 61.712C1355.94 63.319 1356.35 64.873 1356.71 66.364V66.362Z" fill="#EB9840"/>
</g>
<path d="M1405.28 88.668C1405.05 76.808 1395.76 63.531 1392.66 59.321C1405.59 61.921 1430.21 82.427 1430.21 88.194C1430.21 93.962 1401.52 115.606 1393.76 117.351C1396.71 113.375 1405.5 100.529 1405.28 88.668Z" fill="#EB9840"/>
<path d="M1405.13 88.594C1404.97 79.719 1399.86 69.721 1397.54 66.567C1407.22 68.524 1425.62 83.889 1425.62 88.204C1425.61 92.52 1404.13 108.69 1398.32 109.989C1400.53 107.017 1405.29 97.469 1405.13 88.594Z" fill="#DE7A40"/>
</g>
<defs>
<linearGradient id="paint0_linear_1_97" x1="-0.441584" y1="100.396" x2="1270.02" y2="100.396" gradientUnits="userSpaceOnUse">
<stop stop-color="#D5CDE5" stop-opacity="0"/>
<stop offset="1" stop-color="#D5CDE5"/>
</linearGradient>
<clipPath id="clip0_1_97">
<rect width="1431" height="201" fill="white"/>
</clipPath>
</defs>
</svg>
