<svg width="1545" height="1333" viewBox="0 0 1545 1333" fill="none" xmlns="http://www.w3.org/2000/svg">
<path d="M1494.93 446.019C1499.3 445.867 1501.46 446.534 1502.61 451.145L1533.89 585.566L1537.59 586.345C1538.06 589.558 1537.54 589.469 1535.1 590.683C1537.34 603.286 1543.71 618.579 1544.76 631.023C1545.33 637.773 1545.2 640.182 1538.58 642.839L1342.99 696.079C1339.81 696.197 1336.91 694.433 1335.47 691.627C1332.22 685.312 1330.08 667.503 1327.9 659.546C1336.36 657.21 1344.88 654.693 1353.49 652.824C1360.98 651.197 1375.13 650.199 1381.23 647.644C1384.88 646.115 1397.45 629.129 1401 624.722C1425.47 594.264 1448.72 564.588 1467.52 530.235C1479.36 508.599 1491.07 488.547 1493.55 463.552C1494.13 457.708 1492.83 451.714 1494.92 446.016L1494.93 446.019Z" fill="#676767"/>
<path d="M1494.93 446.02C1492.83 451.718 1494.13 457.708 1493.55 463.556C1491.08 488.55 1479.36 508.603 1467.52 530.238C1448.73 564.592 1425.47 594.264 1401 624.725C1397.46 629.133 1384.88 646.122 1381.23 647.648C1375.13 650.203 1360.98 651.2 1353.49 652.828C1344.89 654.696 1336.37 657.216 1327.9 659.549C1327.71 658.85 1326.46 657.588 1326.04 655.977C1323.88 647.619 1317.22 628.062 1317 620.978C1316.83 615.55 1322.91 614.143 1323.67 608.346L1491.25 446.56C1492.44 446.073 1493.67 446.064 1494.93 446.02H1494.93Z" fill="#7E7E7E"/>
<path d="M37.0798 1090.18C45.8351 1097.35 55.2197 1103.94 63.9019 1110.92C68.869 1114.92 74.5481 1121.4 79.7504 1125.56C77.1127 1129.99 70.9919 1129.64 66.7144 1131.43C61.8616 1133.46 32.869 1147.34 31.5819 1149.96C31.7376 1163.36 34.69 1178.26 37.4611 1191.68C44.7896 1227.17 58.1402 1260.48 67.029 1295.09C68.2621 1299.88 65.564 1306.56 72.4316 1307.37C72.4443 1308.02 73.6042 1309.79 73.6582 1311.58C74.4845 1338.92 69.5396 1335.73 49.6646 1324.67C44.2843 1321.67 12.0151 1303.1 10.4897 1300.42C9.63482 1298.56 9.24711 1296.59 9.03418 1294.55C5.3954 1259.61 8.44943 1220.73 5.37315 1185.35C4.23862 1176.43 4.53417 1167.46 4.15281 1158.51C3.79052 1150.02 3.28841 1141.45 2.93247 1132.89C2.59561 1124.77 1.99497 1116.66 1.71213 1108.48C1.42294 1100.12 -1.25927 1080.55 0.726958 1073.94C0.933527 1073.25 11.4812 1065.19 11.4812 1065.19L21.7937 1077.94C21.7937 1077.94 34.0893 1087.74 37.0671 1090.18L37.0798 1090.18Z" fill="#676767"/>
<path d="M84.6283 1126.78C90.9842 1132.57 96.962 1138.1 104.135 1143.87C109.448 1148.13 114.94 1150.74 118.766 1153.63C125.144 1158.44 131.586 1164.98 139.493 1170.71C139.68 1170.85 139.547 1172.44 140.23 1173.03C145.089 1177.24 151.223 1180.38 146.135 1187.74L73.07 1258.58C72.1642 1274.77 72.0912 1291.17 72.4376 1307.37C65.57 1306.56 68.2649 1299.88 67.035 1295.08C58.1462 1260.48 44.7955 1227.17 37.4671 1191.68C34.6959 1178.26 31.7436 1163.36 31.5879 1149.96C32.8718 1147.34 61.8644 1133.46 66.7204 1131.43C70.9979 1129.64 77.1187 1129.98 79.7564 1125.56C80.535 1126.18 84.0594 1126.26 84.6346 1126.78L84.6283 1126.78Z" fill="#7E7E7E"/>
<path d="M393.99 175.427C381.274 167.018 367.956 156.521 358.005 144.941C345.303 130.154 330.046 92.8 330.602 73.5544C330.694 70.3256 332.791 51.7155 333.653 49.7642C335.124 46.4274 357.951 27.6521 362.912 21.6998C365.483 18.6172 368.346 14.5526 369.602 10.7041C392.734 29.7082 418.444 49.0969 440.331 69.8647C445.333 74.6126 452.15 78.9886 447.071 86.4123C428.56 115.522 412.962 146.631 393.986 175.427H393.99Z" fill="#7E7E7E"/>
<path d="M369.605 10.7042C368.35 14.5559 365.487 18.6173 362.916 21.7C357.952 27.6491 335.127 46.4275 333.656 49.7643C332.795 51.7156 330.697 70.3257 330.605 73.5545C330.046 92.797 345.303 130.154 358.009 144.941C367.959 156.521 381.278 167.018 393.993 175.427C388.273 184.106 390.313 186.912 377.477 186.454C352.972 185.577 326.827 179.472 302.01 179.021C298.851 178.532 294.513 175.621 293.998 172.306L307.466 102.757C305.238 94.7042 301.744 64.468 304.025 56.7273C319.654 37.8821 335.261 18.7921 352.104 1.10048C359.976 -3.35182 364.965 6.89387 369.608 10.7042H369.605Z" fill="#676767"/>
<path d="M1086.04 76.8279C1089.99 84.2017 1092.13 92.7582 1095.75 100.427C1097.26 103.615 1100.73 109.662 1102.89 114.258C1122.99 156.912 1147.25 201.61 1165.12 244.773C1168.04 251.834 1173.23 259.855 1163.13 263.183C1149.65 267.622 1124.28 268.754 1109.21 270.835C1106.24 260.574 1106.15 249.066 1104.02 238.811C1095.13 195.937 1082.34 153.629 1079.65 109.456L1064.09 73.1701C1075.37 63.1055 1078.65 63.0293 1086.04 76.8311L1086.04 76.8279Z" fill="#676767"/>
<path d="M1064.09 73.1669L1079.65 109.453C1082.33 153.626 1095.13 195.934 1104.02 238.808C1106.14 249.066 1106.24 260.57 1109.2 270.832C1099.93 272.113 1070.74 278.713 1063.74 276.67C1062.15 276.206 1060.84 274.538 1059.85 273.247L1058 181.764C1062.36 170.361 1060.19 152.889 1060.44 140.279C1060.51 136.627 1060.39 132.95 1060.44 129.296C1060.53 121.481 1061.66 112.847 1061.66 105.502V85.9804C1061.66 78.2916 1058.77 76.0095 1064.1 73.1701C1069.42 70.3306 1064.09 73.1669 1064.09 73.1669Z" fill="#7E7E7E"/>
<path d="M1257.93 968.262C1268.55 971.131 1274.17 983.961 1279.32 992.726L1321.33 971.923C1322.36 974.799 1325.87 982.915 1326.18 984.835C1327.76 994.658 1316.86 997.925 1311.59 1003.05C1305.05 1009.39 1294.26 1031.02 1284.08 1030.42C1281.89 1030.3 1273.4 1021.2 1271.38 1018.86C1262.43 1008.51 1254.8 996.139 1246.24 985.397C1244.3 979.27 1254.38 972.806 1257.93 968.262Z" fill="#676767"/>
<path d="M1321.33 971.923L1279.33 992.726C1274.17 983.961 1268.55 971.132 1257.93 968.262C1258.23 967.887 1258.26 966.339 1259.12 965.227C1261.52 962.141 1274.97 943.865 1276.22 943.252C1280.4 941.202 1300.03 939.495 1304.93 940.137C1307.8 940.512 1309.38 941.38 1310.88 943.951C1313.16 953.729 1317.98 962.58 1321.33 971.923H1321.33Z" fill="#7E7E7E"/>
<path d="M607.221 1182.49C605.651 1185.39 602.295 1182.46 600.617 1182.48C599.991 1182.49 600.261 1184.42 598.148 1185.04C594.064 1186.24 584.39 1187.19 579.839 1187.42C570.941 1187.87 554.651 1187.87 546.773 1183.81C545.123 1182.96 536.759 1174.05 535.287 1172.12C531.102 1166.63 528.804 1158.9 523.097 1154.43C524.123 1140.56 527.514 1146.05 534.909 1139.4C536.768 1137.73 538.748 1132.22 540.979 1131.43C545.603 1129.82 548.323 1133.21 551.813 1133.62C555.912 1134.1 561.28 1132.87 564.903 1133.94C567.922 1134.83 572.581 1143.91 576.827 1146.41C580.825 1148.76 597.865 1154.4 599.997 1157.39C601.968 1160.14 600.859 1165.37 601.656 1169.15C602.282 1172.1 605.714 1179.39 607.214 1182.49L607.221 1182.49Z" fill="#7E7E7E"/>
<path d="M523.097 1154.43C528.805 1158.9 531.103 1166.63 535.288 1172.12C536.759 1174.05 545.124 1182.96 546.773 1183.81C554.651 1187.87 570.942 1187.87 579.84 1187.42C584.391 1187.19 594.065 1186.24 598.148 1185.04C600.259 1184.42 599.992 1182.49 600.618 1182.48C602.296 1182.45 605.652 1185.38 607.222 1182.49C607.914 1183.92 613.301 1187.13 610.368 1191.11C610.005 1191.6 601.488 1194.4 599.092 1195.71C591.748 1199.73 586.409 1204.33 581.807 1211.35C580.469 1213.39 580.352 1217.32 577.978 1218.5C576.039 1219.47 550.901 1219.63 548.327 1218.86C543.843 1217.52 542.575 1201.07 540.64 1196.05C540.106 1194.66 534.395 1184.59 533.74 1184.05C532.091 1182.71 529.32 1183 527.972 1181.88C525.335 1179.69 525.942 1171 525.246 1167.53C524.041 1161.51 522.598 1161.2 523.101 1154.42L523.097 1154.43Z" fill="#676767"/>
<path d="M111.459 419.96C120.645 434.362 129.665 451.765 139.581 465.878C147.841 477.637 149.233 474.666 158.088 482.162C168.693 491.136 153.176 495.855 145.499 499.948C122.111 512.425 125.68 513.219 108.497 531.055C100.352 539.508 103.539 535.249 93.6971 536.981C89.9259 528.334 78.3371 518.222 71.498 511.8C75.576 510.812 81.8376 504.674 83.944 501.298C86.718 496.854 101.278 462.132 102.25 457.406C104.797 445.025 101.054 427.074 102.578 414.038C106.687 414.235 109.222 416.457 111.459 419.964V419.96Z" fill="#676767"/>
<path d="M102.578 414.035C101.054 427.071 104.796 445.022 102.25 457.402C101.278 462.128 86.7177 496.85 83.9437 501.295C81.8373 504.67 75.5718 510.808 71.4977 511.796C65.4581 506.118 58.2224 498.802 52.2578 491.059C51.0016 489.424 47.4895 482.3 48.0602 480.257C48.9823 476.955 62.3156 460.832 65.2979 455.971C69.8272 448.591 73.1953 438 77.4198 431.812C79.1598 429.262 91.8604 417.484 94.5957 415.666C96.98 414.085 99.8195 413.903 102.582 414.035H102.578Z" fill="#7E7E7E"/>
</svg>
