<svg width="1713" height="995" viewBox="0 0 1713 995" fill="none" xmlns="http://www.w3.org/2000/svg">
<circle cx="195.306" cy="415.306" r="195.306" fill="#8ED1FB"/>
<path d="M174.85 221.121C178.426 223.728 181.778 224.473 185.589 226.846C203.55 238.036 217.18 258.42 201.013 277.814C175.229 308.744 112.002 299.717 93.7652 335.073C90.4869 341.427 90.4086 343.944 95.0612 349.558C103.37 359.583 119.977 364.746 132.665 365.651C170.596 368.361 210.697 340.167 246.768 329.412C278.003 320.097 307.784 325.424 310.603 362.981C312.868 393.163 284.797 411.479 261.629 424.311C226.134 443.968 199.095 445.542 159.001 443.77C156.746 443.67 154.353 442.862 151.942 443.262C151.873 443.22 150.555 442.774 150.477 442.774L150.476 442.773C150.395 442.792 149.91 443.337 149.293 443.28C132.472 441.72 115.309 440.663 98.5616 443.336C95.1833 443.876 88.8974 446.49 85.4629 446.69V253.065C111.607 236.342 144.406 223.044 174.85 221.121Z" fill="#58BCF8"/>
<path d="M268.625 506.221C270.922 508.049 270.246 513.824 270.026 516.651C266.582 561.065 230.604 586.171 192.587 600.783C182.897 604.507 178.995 604.931 169.526 608.932C134.78 605.009 116.847 596.883 86.584 578.669V543.643C147.179 539.285 212.365 520.248 268.623 506.206L268.625 506.221Z" fill="#58BCF8"/>
<path d="M374.361 337.408C398.459 385.324 392.853 448.762 376.322 488.722C371.799 490.516 368.855 493.081 364.209 494.648C349.373 499.652 333.816 498.141 318.897 494.255C318.086 494.045 292.194 445.297 292.059 443.299L292.06 443.26L292.276 442.792C301.514 423.039 321.451 412.961 336.983 399.098C344.85 392.075 350.405 385.132 356.217 376.355C364.263 364.203 371.488 351.905 374.361 337.408Z" fill="#58BCF8"/>
<path d="M85.4637 385.604C177.373 497.127 295.902 505.066 369.036 504.693C306.83 644.237 141.973 618.832 84.6231 585.113L58.8438 548.406L85.4637 385.604Z" fill="#AEB2C0" fill-opacity="0.5" style="mix-blend-mode:multiply"/>
<path d="M521.999 391.995C522.173 399.734 504.966 417.458 499.053 420.301C493.08 423.171 486.357 428.554 480.34 432.098C472.317 436.826 463.532 441.515 455.081 445.428C410.436 466.139 364.256 481.575 316.951 494.98C243.741 515.737 163.298 545.604 86.3047 545.604V486.199C119.515 481.383 154.189 475.113 187.091 468.635C222.293 461.705 256.826 453.532 291.567 445.209C325.504 437.11 359.33 427.645 392.137 414.459C403.822 409.763 429.67 399.178 435.987 388.26C441.78 378.252 430.426 372.44 422.735 368.983C409.712 363.137 382.207 357.583 382.207 357.583L381.366 354.5C381.366 354.5 490.578 354.226 509.893 368.983C517.355 374.684 521.767 382.328 521.999 391.995Z" fill="#B1DFF7"/>
<ellipse cx="1441.38" cy="666.982" rx="246.254" ry="234.982" fill="#EE82CD"/>
<path d="M1612.19 582.946V714.339C1589.8 717.742 1554.28 705.297 1548.34 681.137C1543.35 660.792 1556.87 649.099 1576.23 648.718L1594.82 651.656C1587.38 633.588 1579.44 601.509 1597.08 587.089C1601.83 583.206 1606.1 582.5 1612.19 582.946Z" fill="#ED47B9"/>
<path d="M1611.32 497.032C1611.32 497.032 1606.03 541.414 1591.44 554.277C1564.76 577.814 1533.55 544.915 1518.67 523.535C1512.4 514.531 1506.87 504.708 1503.4 494.25C1501.88 489.657 1501.24 484.015 1499.73 479.788C1498.41 476.091 1498.16 480.657 1497.79 481.775C1486.45 516.294 1463.47 554.799 1426.78 566.363C1384.5 579.691 1341.78 557.355 1359.34 508.76C1373.97 468.269 1421.04 449.686 1456.55 432.434C1504.9 431.117 1576.4 462.108 1611.32 497.032Z" fill="#ED47B9"/>
<path d="M1205.81 602.578C1218.61 597.638 1232.4 603.095 1244.31 608.265C1272 620.29 1292.29 642.781 1303.6 670.563C1318.58 707.352 1314.36 745.924 1306.27 783.805C1307.85 784.148 1307.99 782.989 1308.7 782.09C1323.17 763.894 1333.19 749.599 1351.23 733.989C1367.43 719.974 1386.58 706.623 1406.73 699.232C1439.25 684.403 1484.26 682.01 1509.09 712.271C1526.65 733.676 1520.18 761.824 1505.24 782.234C1474.19 824.654 1418.79 858.343 1377.92 891.306C1376.93 892.107 1375.65 892.36 1375.77 894.06C1244.99 862.788 1164.63 733.978 1205.81 602.578Z" fill="#ED47B9"/>
<path d="M1284.94 475.513C1300.91 715.972 1548.46 781.871 1658.58 796.178C1505.54 963.526 1300.36 902.737 1227.55 801.211C1167.31 717.203 1150.32 575.869 1284.94 475.513Z" fill="#D5BAD1" fill-opacity="0.5" style="mix-blend-mode:multiply"/>
<circle cx="519.443" cy="113.989" r="113.989" fill="#F1A15C"/>
<path d="M601.565 34.9324C607.693 40.7544 618.724 55.1562 622.994 66.2135C603.433 68.5812 583.663 69.1764 563.979 69.3926C547.686 69.5741 524.652 70.0841 509.167 64.9909C490.169 58.7393 496.615 46.351 511.422 40.337C537.46 29.763 601.565 34.9324 601.565 34.9324Z" fill="#F7D77E"/>
<path d="M629.188 83.1296C632.282 93.6308 633.371 102.165 633.432 113.376C621.305 115.709 610.145 117.158 597.887 114.155C581.284 110.085 578.243 93.8016 595.415 86.9948C605.284 83.0842 618.743 82.0137 629.188 83.1322V83.1296Z" fill="#F7D77E"/>
<path fill-rule="evenodd" clip-rule="evenodd" d="M563.439 128.141C581.723 137.401 557.016 151.732 547.935 155.115C512.374 168.219 470.473 168.926 433.35 176.395C431.759 176.515 425.371 178.338 425.371 178.338C425.371 178.338 417.404 167.307 414.34 158.727C412.265 152.918 409.438 145.244 409.438 143.712C436.374 137.706 465.193 131.849 492.519 127.738C514.163 124.499 543.065 117.822 563.439 128.141Z" fill="#F7D77E"/>
<path fill-rule="evenodd" clip-rule="evenodd" d="M445.341 83.6014C457.471 83.0622 474.117 84.9119 472.561 100.941C470.044 126.804 423.843 125.024 406.067 126.859C405.419 117.289 405.027 107.329 406.441 97.8154C407.029 93.8676 406.786 91.3586 410.65 89.749C418.271 86.5752 435.326 84.1003 443.74 83.5985C444.271 83.5664 444.81 83.6224 445.341 83.5985V83.6014Z" fill="#F7D77E"/>
<path fill-rule="evenodd" clip-rule="evenodd" d="M595.386 169.787C603.017 166.405 612.408 164.059 620.619 166.432C618.848 169.94 617.975 171.399 616.134 174.208L615.28 175.505C611.282 181.567 607.363 187.389 602.206 192.591C600.51 194.302 597.887 196.723 597.887 196.723C597.887 196.723 594.492 195.342 591.761 193.947C585.931 190.971 581.545 183.895 585.031 177.558C587.294 173.446 591.38 171.569 595.386 169.787Z" fill="#F7D77E"/>
<path d="M490.64 224.301C488.495 224.301 476.66 219.775 474.637 218.915C470.95 217.351 464.371 214.284 461.223 212.044C460.684 211.66 459.385 210.819 459.385 210.819C459.385 210.819 463.372 206.271 466.044 204.765C480.811 196.453 498.405 207.452 490.64 224.301Z" fill="#F7D77E"/>
<path d="M435.483 36.7711C450.603 146.993 565.097 171.322 616.272 174.355C560.197 264.136 462.755 223.688 433.338 192.74C400.459 158.149 386.149 87.6371 435.483 36.7711Z" fill="#D5C8BA" fill-opacity="0.5" style="mix-blend-mode:multiply"/>
</svg>
