<svg width="1500" height="570" viewBox="0 0 1500 570" fill="none" xmlns="http://www.w3.org/2000/svg">
<path d="M160.124 514.221C160.124 514.221 179.41 526.163 188.139 533.442C192.883 537.398 204.82 547.82 200.923 554.728C197.119 561.465 183.938 565.907 176.693 567.327C126.538 577.169 48.142 543.335 15.7039 504.622C10.5548 498.474 -1.05696 481.473 0.0775152 473.54C1.62041 462.734 24.633 465.756 32.1872 466.808C44.9174 468.58 70.4338 476.335 70.4338 476.335C74.0586 506.369 131.188 510.098 160.124 514.221Z" fill="#505050"/>
<path d="M160.125 514.221C142.982 524.116 121.771 521.631 104.084 514.472C92.4456 509.76 78.4662 503.066 73.2209 490.893C72.2385 488.611 68.7363 477.96 70.4341 476.338C70.5515 476.225 71.3443 476.228 71.7661 475.822C94.1353 454.297 125.7 444.386 148.897 471.285C160.178 484.364 161.013 497.449 160.125 514.221Z" fill="#4A82A2"/>
<path d="M110.899 459.953C119.825 459.081 129.921 460.8 136.891 466.744C143.86 472.689 139.464 477.35 132.505 479.944C123.274 483.385 109.327 483.129 100.192 479.413C80.9648 471.589 99.0283 461.112 110.899 459.953Z" fill="#5AA4CB"/>
<path d="M146.112 498.888C148.886 498.52 151.123 498.699 153.453 500.346C164.042 507.825 144.783 518.476 137.426 510.494C131.207 503.746 140.232 499.67 146.112 498.888Z" fill="#5AA4CB"/>
<path d="M1498.09 76.0776L1478.27 91.76C1422.85 130.359 1356.64 155.167 1291.06 170.898C1231.54 185.176 1163.43 193.675 1102.23 189.722C1085.42 188.636 1069.06 184.674 1052.3 183.324C1054.57 168.042 1079.27 153.112 1091.99 145.883C1118.14 131.013 1145.82 120.987 1173.78 110.253C1175.95 109.42 1179.93 107.917 1179.93 107.917C1179.93 107.917 1361.29 58.6441 1380.86 61.1347C1388.13 62.0663 1394.3 60.5313 1401.73 60.0775C1423.76 58.7268 1476.27 55.8973 1493.54 70.221C1495.6 71.932 1497.04 73.6031 1498.09 76.0776H1498.09Z" fill="#6E6E6E"/>
<path d="M1498.09 76.0771C1499.23 78.7945 1499.44 80.2065 1499.15 83.2763C1495.79 118.947 1453.9 152.506 1425.43 170.206C1347.05 218.943 1231.15 244.259 1139.68 230.72C1113.63 226.865 1083.19 218.118 1061.97 202.206C1054.59 196.672 1050.87 192.959 1052.3 183.323C1069.06 184.674 1085.43 188.635 1102.22 189.722C1163.42 193.675 1231.54 185.176 1291.06 170.897C1356.64 155.164 1422.85 130.358 1478.27 91.7595L1498.09 76.0771Z" fill="#505050"/>
<path d="M1377.43 61.6709C1377.53 63.5527 1375.78 67.167 1374.86 68.9715C1356.96 104.18 1316.22 124.689 1279.21 133.441C1252.35 139.792 1221.64 145.456 1197.13 129.018C1190.96 124.88 1176.12 115.219 1178.82 108.216C1180.24 98.6813 1182.05 89.085 1185.08 79.9265C1197.38 42.8227 1216.25 13.8924 1256.24 3.77292C1306.43 -8.93313 1345.04 11.2231 1372.31 52.6485C1373.48 54.429 1377.35 60.12 1377.43 61.6709H1377.43Z" fill="#5AA4CB"/>
<path d="M1277.49 9.53356C1286.82 9.49085 1295.16 13.3266 1294.15 24.0573C1293.81 27.6903 1287.55 38.4932 1285.2 41.7898C1273.22 58.5986 1239.75 80.5832 1218.58 79.302C1194.75 77.8632 1209.14 49.1171 1218.06 38.7227C1233.26 21.0196 1253.78 9.64033 1277.49 9.53356Z" fill="#98DAFE"/>
<path d="M1347.96 46.3407C1353.17 45.8629 1360.95 48.2066 1362.6 53.8176C1365.82 64.7832 1353.53 80.2306 1343.24 83.255C1332.25 86.4849 1319.45 79.7502 1325.36 66.9854C1329.21 58.6624 1338.1 47.2429 1347.96 46.3407Z" fill="#98DAFE"/>
<path d="M1480.91 352.321C1480.91 352.321 1482.6 353.893 1483.73 354.624C1486.01 356.103 1492.44 358.77 1495.32 360.072C1496.2 360.47 1496.96 360.972 1498 360.857V417.949C1461.62 424.598 1423.29 417.864 1388.58 406.457C1353.86 395.051 1306.56 370.141 1287.22 338.08C1283.06 331.193 1276.61 320.51 1285.34 314.525C1298.47 305.524 1340.14 311.789 1356.09 314.605C1359.72 315.246 1363.75 315.871 1367.2 317.107C1378.16 348.364 1447.25 349.008 1480.91 352.321Z" fill="#505050"/>
<path d="M1480.92 352.32C1480.45 354.063 1468.74 359.704 1466.49 360.582C1442.29 370.037 1390.28 359.712 1374.46 337.868C1372 334.476 1366.39 322.856 1366.63 318.964C1366.67 318.417 1366.82 317.464 1367.2 317.104C1389.96 295.634 1413.24 276.792 1446.04 290.861C1458.73 296.302 1484.92 337.148 1480.92 352.32Z" fill="#4A82A2"/>
<path d="M1424.23 291.102C1431.66 290.944 1447.04 294.401 1451.26 301.123C1454.94 306.976 1448.46 311.295 1444.09 313.647C1432.84 319.698 1416.24 320.753 1404.04 317.368C1390.89 313.722 1388.53 305.66 1400.55 297.882C1407.17 293.6 1416.34 291.27 1424.23 291.102H1424.23Z" fill="#5AA4CB"/>
<path d="M1464.25 335.396C1473.09 334.443 1480.27 342.644 1472.56 349.037C1467.97 352.835 1459.34 355.096 1454.04 351.701C1442.67 344.416 1456.51 336.232 1464.25 335.399V335.396Z" fill="#5AA4CB"/>
</svg>
