<svg width="672" height="1457" viewBox="0 0 672 1457" fill="none" xmlns="http://www.w3.org/2000/svg">
<g clip-path="url(#clip0_3082_5)">
<rect width="672" height="1456.85" fill="#E9CAB4"/>
<g clip-path="url(#clip1_3082_5)">
<path d="M918.197 0H-560.507V1478.7H918.197V0Z" fill="url(#paint0_linear_3082_5)"/>
<path d="M98.7686 1144.64C159.12 1079.72 165.196 964.37 112.067 892.387C105.612 883.638 98.1903 875.022 95.83 864.102C94.0859 856.055 95.3087 847.657 96.1334 839.438C106.57 735.683 44.3693 628.534 -46.3056 594.059C-45.0165 535.669 -43.9359 475.763 -61.7941 420.671C-79.6523 365.58 -120.838 315.494 -174.043 307.096C-196.271 234.061 -249.495 172.932 -315.382 144.77C-381.27 116.608 -458.561 121.954 -520.628 158.96C-569.587 188.145 -608.014 235.123 -636.963 287.01C-714.168 425.373 -726.623 596.334 -708.888 756.982C-688.205 944.379 -628.176 1128 -526.098 1280.72C-424.02 1433.43 -278.879 1553.95 -112.857 1609.51C-22.2956 1639.82 72.9102 1650.77 167.651 1653.27C227.966 1654.85 289.161 1652.93 347.134 1634.77C405.107 1616.61 460.15 1580.65 493.27 1525.86C515.896 1488.43 527.308 1444.02 531.668 1399.49C543.991 1273.64 495.27 1137.9 396.794 1070.3C322.944 1019.59 225.776 1011.55 145.708 1049.5" fill="url(#paint1_linear_3082_5)"/>
<path d="M162.241 1190.4C126.107 1204.21 102.96 1245.78 110.249 1283.77C117.538 1321.76 154.421 1351.81 193.094 1351.27C150.364 1381.54 154.335 1454.84 196.421 1486.02C238.498 1517.2 303.476 1505.24 337.951 1465.82C361.591 1489.94 401.554 1483.58 433.564 1472.8C496.987 1451.42 557.69 1418.76 604.098 1370.53C650.507 1322.3 681.569 1257.41 681 1190.49C680.763 1162.72 668.849 1128.74 641.237 1125.85C722.452 1113.42 789.932 1039.48 794.908 957.469C799.884 875.458 741.845 793.901 662.725 771.74C685.342 751.777 694.479 720.308 696.015 690.184C697.901 653.178 689.323 614.732 666.811 585.29C644.298 555.859 606.677 536.958 569.965 542C552.069 544.465 535.386 552.19 519.111 560.029C495.973 571.176 472.816 582.873 452.92 599.12C399.582 642.685 375.819 719.293 395.146 785.399C354.567 779.048 311.097 799.902 290.651 835.523C270.205 871.145 274.12 919.193 300.073 951.033C275.968 921.459 218.792 1042.05 210.289 1052.49C179.322 1090.5 120.391 1135.61 162.269 1190.39L162.241 1190.4Z" fill="url(#paint2_linear_3082_5)"/>
<path d="M355.728 1528.48C314.097 1451.91 352.344 1343.23 432.754 1309.6C400.999 1263.51 408.516 1194.58 449.465 1156.42C417.616 1092.78 449.247 1005.49 514.471 977.016C509.618 945.546 504.765 913.47 509.675 882C514.585 850.53 530.898 819.202 558.946 804.121C537.836 748.945 536.538 686.413 555.363 630.421C532.016 583.605 482.451 557.225 438.574 528.732C394.696 500.238 350.268 459.972 348.913 407.677C306.58 403.487 265.271 389.279 229.309 366.548C258.987 317.836 326.875 296.822 378.885 320.235C401.644 292.973 447 295.864 475.314 317.296C503.627 338.728 518.68 373.051 531.097 406.322C565.951 381.762 623.345 410.265 624.843 452.872C638.066 409.156 646.038 363.866 648.55 318.263C650.095 290.215 648.73 259.589 630.843 237.92C620.691 225.626 606.132 217.503 596.321 204.924C586.51 192.346 583.534 171.483 596.454 162.137C559.884 161.492 524.907 136.733 512.158 102.448C504.329 81.4049 504.48 58.3523 504.736 35.8874C505.068 6.11427 505.618 -24.6731 517.978 -51.7637C544.936 -110.846 617.63 -132.77 682.418 -137.187C737.035 -140.903 794.211 -136.353 841.938 -109.547C884.81 -85.4801 916.356 -45.6498 944.414 -5.27933C1006.17 83.5661 1056.54 179.72 1106.74 275.58C1196.75 447.479 1288.59 625.521 1303.22 819.013C1311.83 932.977 1293.08 1046.97 1278.88 1160.38C1266.49 1259.26 1256.56 1361.7 1208.26 1448.86C1171.43 1515.33 1114.41 1568.53 1053 1613.28C997.893 1653.44 937.75 1688.05 872.014 1706.19C814.373 1722.08 754.059 1724.91 694.333 1727.64C609.326 1731.52 516.945 1733.33 448.157 1683.25C386.743 1638.54 358.288 1562.47 333.036 1490.82" fill="url(#paint3_linear_3082_5)"/>
<path d="M591.413 1550.92C561.735 1517.06 542.047 1474.52 535.431 1429.97C531.791 1405.46 532.464 1378.88 545.782 1357.98C559.099 1337.09 588.247 1324.96 609.859 1337.08C583.602 1267.42 579.28 1189.67 597.659 1117.54C604.124 1092.16 615.11 1065.32 638.182 1052.93C610.314 1008.67 606.371 950.267 628.039 902.655C632.172 893.574 640.769 883.413 650.087 886.986C634.836 835.137 628.466 779.117 643.348 727.153C658.229 675.19 697.207 628.166 749.331 613.881C740.459 567.918 759.445 521.358 781.455 480.049C802.668 440.238 829.048 400.322 869.381 380.113C879.798 374.9 891.059 371.042 900.206 363.819C907.268 358.236 912.709 350.918 918.623 344.122C958.463 298.32 1030.05 276.992 1082.49 307.552C1092.57 313.42 1102.18 321.704 1105.2 332.975C1107.24 340.624 1106.01 348.71 1106.13 356.624C1106.31 368.369 1109.5 379.829 1112.15 391.279C1136.12 494.807 1115.46 607.89 1056.45 696.262C1103.36 688.214 1143.41 732.386 1160.51 776.804C1206.13 895.271 1156.34 1035.94 1062.67 1121.62C1093.66 1148.7 1095.71 1196.63 1085.75 1236.57C1066.29 1314.56 1008.61 1382.04 934.595 1413.39C942.615 1544.92 857.712 1676.9 734.695 1724.13C693.387 1739.99 642.267 1745.32 608.579 1716.62C594.313 1704.47 584.996 1687.64 576.541 1670.92C551.365 1621.11 530.957 1562.56 551.109 1510.53" fill="url(#paint4_linear_3082_5)"/>
<path d="M313.14 1618C307.548 1581.9 302.06 1544.25 313.216 1509.47C324.373 1474.7 357.672 1444.09 393.872 1448.9C384.507 1412.31 396.782 1371.01 424.612 1345.47C452.442 1319.93 494.651 1311.25 530.301 1323.73C518.671 1286.64 526.206 1244.1 549.885 1213.29C573.553 1182.47 612.711 1164.21 651.536 1165.88C644.863 1116.29 654.124 1063.44 683.366 1022.82C712.608 982.202 763.226 955.945 812.895 962.068C813.577 926.134 836.933 891.612 870.034 877.612C879.256 873.706 889.503 871.289 899.304 873.346C917.03 877.052 929.04 894.797 931.836 912.683C934.632 930.57 930.158 948.713 925.713 966.268C950.727 948.229 982.69 929.414 1010.39 942.968C1025.97 950.599 1035.46 966.884 1041.24 983.244C1057.54 1029.43 1050.09 1083.31 1021.88 1123.34C1075.38 1151.43 1098.28 1220.91 1084.3 1279.7C1070.32 1338.48 1026.16 1386.36 975.135 1418.74C993.79 1459.5 985.126 1509.18 960.794 1546.83C936.461 1584.48 898.432 1611.42 858.213 1631.21C824.488 1647.81 785.804 1660.15 749.614 1650.01C731.32 1697.35 682.399 1725.05 635.033 1743.3C593.042 1759.48 547.61 1771.43 503.287 1763.67C458.963 1755.91 416.394 1724.04 408.128 1679.8C415.683 1694.64 404.005 1714.27 387.834 1718.25C371.663 1722.22 354.345 1713.34 344.316 1700.04C334.288 1686.73 330.364 1669.84 328.449 1653.3C324.932 1622.84 327.463 1591.7 335.871 1562.22C337.141 1557.78 335.71 1552.1 339.245 1549.12C342.781 1546.15 345.795 1556 341.975 1553.39" fill="url(#paint5_linear_3082_5)"/>
<path d="M-427.066 273.485C-420.876 303.742 -379.615 324.226 -356.808 303.401C-388.401 307.477 -410.639 335.449 -429.35 361.231C-437.948 373.08 -446.952 387.99 -441.066 401.403C-432.327 421.337 -402.98 416.389 -382.847 408.123C-364.448 431.745 -329.993 438.276 -301.12 430.361C-272.247 422.446 -248.133 402.654 -227.232 381.213C-223.896 395.08 -208.834 403.64 -194.568 403.791C-180.302 403.943 -166.842 397.535 -154.482 390.426C-118.965 370.009 -87.5231 342.529 -62.5273 310.064C-54.1954 299.249 -46.3469 287.277 -44.8492 273.703C-43.3516 260.13 -50.1669 244.755 -63.1909 240.67C-7.54987 248.452 51.475 219.968 80.0065 171.569C82.7932 166.839 85.3904 161.455 84.3478 156.061C83.4947 151.644 80.3382 148.07 77.2291 144.8C29.5504 94.6664 -35.9012 61.7937 -104.576 53.4523C-163.563 46.2958 -232 62.0876 -261.479 113.672C-266.162 121.871 -269.878 130.942 -276.883 137.283C-288.485 147.777 -305.689 148.042 -320.997 151.265C-366.96 160.952 -437.767 221.143 -427.066 273.466V273.485Z" fill="url(#paint6_linear_3082_5)"/>
<path d="M361.72 71.9161C362.525 94.1819 386.185 112.647 407.977 108.021C385.625 123.671 387.73 160.326 406.507 180.127C425.285 199.928 454.499 205.919 481.789 206.08C490.272 247.332 537.543 275.977 578.037 264.413C593.867 290.328 622.256 308.167 652.475 311.182C682.693 314.196 714.04 302.31 734.675 280.025C731.642 291.039 743.737 301.788 755.14 300.982C766.543 300.177 775.89 291.437 782.041 281.807C798.212 256.489 797.738 221.559 780.894 196.677C788.136 161.15 763.51 122.135 728.334 113.377C733.443 74.3806 687.727 38.7211 651.148 53.1669C639.849 14.313 585.554 -3.94334 553.06 20.1709C519.827 -10.2373 460.622 -5.72537 432.897 29.9531C408.896 8.52137 360.706 43.0813 361.748 71.9066L361.72 71.9161Z" fill="url(#paint7_linear_3082_5)"/>
<path d="M-149.599 1321.32C-138.461 1357.67 -90.7732 1377.24 -57.3128 1359.21C-43.3789 1377.04 -21.6059 1389.7 0.99173 1388.69C23.5988 1387.67 45.6751 1370.75 48.8032 1348.34C49.4193 1343.94 49.2866 1339.22 47.1633 1335.31C44.6894 1330.75 39.9499 1327.96 35.3337 1325.59C13.2195 1314.27 -11.3024 1307.68 -36.1181 1306.39C-21.2457 1310.16 -12.2976 1289.36 -14.4967 1274.18C-17.7006 1252.04 -30.8004 1231.53 -49.5211 1219.3C-50.5638 1189.82 -63.9101 1160.96 -85.6925 1141.08C-89.2945 1137.79 -93.6548 1134.57 -98.508 1135.01C-103.361 1135.46 -107.39 1141.81 -104.072 1145.37C-90.4415 1130.83 -109.551 1109.25 -113.741 1089.76C-116.29 1077.9 -112.802 1065.71 -111.172 1053.69C-109.541 1041.67 -110.413 1027.91 -119.362 1019.72C-128.31 1011.54 -146.822 1015.54 -147.239 1027.66C-151.182 997.397 -193.628 1034.86 -199.648 1043.28C-215.411 1065.3 -215.61 1093.46 -225.269 1117.97C-242.52 1161.76 -266.568 1199.03 -225.525 1241.56C-258.606 1224.48 -236.615 1284.65 -226.188 1296.48C-218.15 1305.6 -146.67 1330.93 -149.618 1321.31L-149.599 1321.32Z" fill="url(#paint8_linear_3082_5)"/>
<path d="M364.137 1139.06C362.383 1144.26 360.999 1149.82 362.07 1155.21C364.355 1166.71 377.379 1173.43 389.075 1172.75C400.772 1172.08 411.36 1165.94 421.436 1159.96C410.251 1170.45 412.337 1190.57 423.749 1200.82C435.152 1211.08 452.878 1212.08 467.011 1206.13C481.144 1200.17 492.054 1188.33 500.272 1175.37C500.718 1181.23 507.647 1184.79 513.457 1183.87C519.268 1182.95 524.045 1178.97 528.519 1175.15C541.287 1164.22 554.453 1152.76 561.288 1137.41C568.122 1122.05 566.624 1101.61 553.316 1091.34C577.79 1078.08 597.649 1056.49 608.815 1031C611.782 1024.23 614.18 1016.78 612.71 1009.54C611.241 1002.3 604.635 995.651 597.307 996.533C606.028 978.286 614.985 958.608 611.801 938.636C608.616 918.664 587.355 900.474 568.738 908.36C570.634 893.895 572.501 878.995 568.766 864.9C565.032 850.805 554.245 837.544 539.809 835.468C526.434 833.544 513.618 841.364 503.476 850.293C472.992 877.127 454.925 917.545 455.285 958.162C423.569 974.911 398.564 1003.97 386.725 1037.82C392.109 1037.95 397.502 1038.06 402.886 1038.18C409.19 1038.33 366.032 1133.48 364.146 1139.08L364.137 1139.06Z" fill="url(#paint9_linear_3082_5)"/>
<path d="M290.382 1238.83C255.32 1218 202.627 1245.32 199.451 1285.98C155.716 1272.25 104.757 1285.01 72.6617 1317.74C31.9215 1299.43 -17.2738 1311.06 -54.2888 1336.06C-91.3038 1361.05 -118.641 1397.65 -145.239 1433.53C-144.054 1438.9 -138.11 1429.24 -142.49 1425.9C-151.409 1419.07 -165.144 1423.13 -172.528 1431.6C-179.912 1440.06 -182.557 1451.54 -184.946 1462.51C-187.931 1476.16 -190.908 1490.34 -187.837 1503.96C-184.765 1517.59 -173.798 1530.5 -159.836 1531.04C-140.641 1531.78 -124.641 1545.03 -108.991 1556.17C-70.9147 1583.27 -25.4351 1601.11 21.2957 1602.02C68.0266 1602.93 115.791 1585.86 147.99 1551.99C201.205 1587.9 278.657 1582.41 326.278 1539.36C401.721 1586.33 513.524 1558.75 558.482 1482.1C637.138 1496.59 718.675 1447.45 757.008 1377.26C770.231 1353.05 779.302 1324.87 773.236 1297.95C767.169 1271.03 741.936 1247.21 714.533 1250.44C714.353 1255.11 722.818 1254.71 724.097 1250.22C725.377 1245.72 722.078 1241.31 718.77 1238.01C681.215 1200.51 611.972 1202.44 576.549 1241.96C558.852 1201.38 516.804 1172.61 472.575 1170.81C451.655 1169.96 425.238 1181.23 426.83 1202.11C420.773 1181.63 399.484 1166.77 378.175 1168.15C356.867 1169.52 337.663 1186.99 334.288 1208.08C317.994 1196.77 295.046 1199.24 278.031 1209.41C261.007 1219.58 248.846 1236.12 238.277 1252.91C235.945 1256.61 234.011 1261.96 237.272 1264.86C240.533 1267.76 245.016 1259.4 240.694 1259.97" fill="url(#paint10_linear_3082_5)"/>
<path d="M474.879 701.315C450.802 701.088 426.707 707.581 406.005 719.875C385.663 731.951 367.227 754.937 374.526 777.44C379.739 793.497 397.55 803.441 414.394 802.408C431.238 801.384 446.546 790.995 456.622 777.459C504.453 820.038 584.426 819.991 632.199 777.355C655.413 791.905 686.551 792.767 710.542 779.525C734.533 766.284 750.391 739.477 750.448 712.074C780.259 710.955 808.487 690.737 819.151 662.869C829.815 635.001 822.289 601.114 800.828 580.374C810.734 582.033 818.08 571.635 822.355 562.535C830.867 544.412 838.061 525.018 837.635 504.998C837.208 484.979 827.786 464.135 810.061 454.808C792.345 445.481 766.619 451.888 759.093 470.438C759.842 468.581 726.059 480.799 721.452 486.505C711.499 498.837 707.822 515.473 715.111 529.767C717.812 462.296 632.105 556.526 616.569 563.417C578.246 580.412 536.794 579.161 549.098 635.541C512.737 636.186 475.741 661.732 474.879 701.296V701.315Z" fill="url(#paint11_linear_3082_5)"/>
<path d="M-132.28 187.38C-152.735 208.243 -152.877 245.571 -132.583 266.586C-112.289 287.601 -74.9704 288.748 -53.4154 269.032C-55.1216 299.127 -39.1213 329.583 -13.3672 345.261C12.3869 360.939 46.7857 361.157 72.7389 345.82C88.4643 387.015 146.513 404.655 182.495 379.176C200.239 375.536 214.173 358.275 213.993 340.161C213.813 322.047 199.557 305.07 181.746 301.772C191.718 266.861 183.054 227.192 159.423 199.618C180.779 148.745 164.855 84.7149 122.162 49.7663C118.152 46.4866 112.967 43.2732 108.105 45.0742C103.242 46.8752 103.403 56.2308 108.56 55.7569C111.034 1.69889 67.1369 -46.141 16.2164 -64.4542C-40.8559 -84.9759 -180.262 -95.7534 -203.968 -21.4201C-224.282 42.2685 -223.722 182.451 -132.28 187.399V187.38Z" fill="url(#paint12_linear_3082_5)"/>
<path d="M250.014 -67.6696C258.886 -0.805634 273.047 65.2242 287.19 131.178C298.214 182.582 311.257 237.579 350.423 272.66C387.211 305.608 439.942 314.253 480.502 342.434C530.493 377.164 556.361 437.696 568.295 497.385C580.229 557.073 580.75 618.61 593.045 678.223C599.784 710.897 611.282 744.746 637.093 765.893C667.122 790.491 708.952 792.339 747.37 797.875C799.371 805.372 850.936 822.122 893.184 853.355C948.265 894.085 983.603 956.323 1008.45 1020.16C1033.29 1084 1049.22 1151.06 1074.68 1214.66C1073.59 1096.78 1072.15 976.788 1036.05 864.578C1012.95 792.785 970.161 720.423 899.544 693.92C843.931 673.047 774.044 681.303 733.123 638.25C713.047 617.132 704.677 587.595 699.653 558.884C684.127 470.209 693.957 378.662 679.568 289.788C671.359 239.067 650.505 184.042 603.585 163.094C563.869 145.359 516.019 157.179 475.725 140.809C422.302 119.102 399.334 55.8022 393.344 -1.545C387.353 -58.8922 391.694 -119.225 367.476 -171.558C356.897 -194.421 335.579 -217.199 310.764 -212.839C263.246 -161.397 242.307 -86.6368 256.184 -18.0003" fill="url(#paint13_linear_3082_5)"/>
<path opacity="0.67" d="M500.464 52.2475C527.355 70.2668 563.034 62.3425 595.3 64.9397C654.827 69.736 706.477 113.889 731.615 168.06C756.763 222.232 758.545 284.736 749.151 343.713C741.274 393.193 725.956 444.085 739.492 492.323C751.227 534.125 786.621 569.396 829.333 577.206C872.045 585.017 919.543 562.581 937.383 522.997C939.923 517.366 941.876 510.807 939.43 505.129C937.108 499.736 931.506 496.683 926.586 493.489C892.661 471.451 879.239 428.502 874.054 388.378C865.836 324.775 872.054 260.318 872.263 196.194C872.405 151.548 868.035 102.922 837.703 70.1531C804.385 34.1618 750.658 28.3797 701.994 22.2943C653.329 16.2088 598.911 3.61142 573.811 -38.5222C556.92 -66.864 557.707 -101.945 558.986 -134.922C559.252 -141.709 509.023 -112.116 505.497 -108.438C492.729 -95.111 480.084 -73.5845 474.416 -55.8495C463.486 -21.6687 468.254 30.6546 500.473 52.2475H500.464Z" fill="white"/>
<path d="M447.107 429.854C497.013 559.364 480.188 716.789 568.133 824.166C570.465 827.01 572.977 830.109 573.072 833.787C573.384 846.062 553.289 842.46 544.701 833.692C447.742 734.723 493.572 552.312 398.205 451.807C377.816 430.319 352.195 414.262 332.308 392.308C306.564 363.881 291.577 325.937 290.961 287.586C290.895 283.349 291.227 278.572 294.421 275.785C299.293 271.529 307.028 274.903 311.673 279.415C326.318 293.671 327.493 316.411 341.256 330.829C355.219 345.454 365.19 341.085 381.02 348.507C414.452 364.185 434.178 396.29 447.116 429.864L447.107 429.854Z" fill="white"/>
</g>
<path d="M-162.443 -5.13045C-162.443 -19.2959 -150.96 -30.7793 -136.795 -30.7793H677.129C691.295 -30.7793 702.778 -19.2959 702.778 -5.13044V1470.53C702.778 1484.7 691.295 1496.18 677.129 1496.18H-136.794C-150.96 1496.18 -162.443 1484.7 -162.443 1470.53V-5.13045Z" fill="#623953" fill-opacity="0.39" style="mix-blend-mode:plus-darker"/>
<path d="M433.576 882.731C444.516 883.493 455.338 885.169 466.009 887.687C470.784 888.81 477.078 889.664 480.635 893.015C484.193 896.366 486.405 901.828 488.861 906.028C491.832 911.102 483.626 914.986 480.686 909.969C479.426 907.815 478.165 905.666 476.905 903.511C476.44 902.719 475.999 901.782 475.456 900.951C475.05 901.402 474.558 901.78 473.998 902.051C473.994 902.432 473.957 902.824 473.883 903.227C473.429 905.665 471.63 907.623 468.99 907.401C467.429 907.27 465.841 906.128 465.155 904.633C463.846 904.002 462.528 903.392 461.202 902.803C455.011 900.499 446.299 900.71 440.109 899.199C430.999 896.977 431.43 896.734 422.32 894.512C417.062 893.232 411.655 880.654 416.407 880.748C421.934 881.08 426.854 882.69 431.87 883.07C432.463 882.799 432.849 882.681 433.576 882.731Z" fill="#38509E"/>
<path fill-rule="evenodd" clip-rule="evenodd" d="M410.456 852.445L427.736 854.148C430.341 854.878 432.054 856.522 432.051 858.632C434.662 858.325 427.812 859.183 427.358 862.551C426.236 870.84 426.72 878.982 428.801 887.076C429.211 888.676 428.403 890.357 427.267 891.411C424.501 893.979 421.728 896.547 418.963 899.114C416.558 901.346 414.152 904.036 410.86 904.872C406.652 905.938 402.771 904.16 400.172 901.116C399.009 900.533 398.125 899.502 398.055 898.046C398.05 897.935 398.046 897.825 398.041 897.715C397.692 896.923 397.412 896.099 397.218 895.254C397.076 894.638 396.978 894.003 396.914 893.36C395.771 893.758 394.602 894.053 393.42 894.25C392.844 894.792 392.05 895.187 391.016 895.343L391.019 895.357C390.95 895.362 390.882 895.365 390.813 895.37C376.566 897.359 364.442 884.497 367.946 870.215C372.326 852.386 395.661 850.842 410.456 852.445Z" fill="#E78C3C"/>
<path fill-rule="evenodd" clip-rule="evenodd" d="M543.267 844.021C558.413 838.463 575.465 839.831 589.306 847.854C594.542 850.83 611.57 860.788 613.06 866.237C613.485 866.714 613.89 867.221 614.269 867.759C615.035 868.848 615.632 870.005 616.074 871.202C616.863 871.788 617.479 872.693 617.751 873.947C620.592 887.005 621.906 901.82 618.76 915.058C619.292 914.44 620 913.981 620.779 913.716C620.799 913.624 620.82 913.533 620.847 913.444C620.009 910.971 621.035 907.797 624.156 907.377C625.031 907.259 625.888 907.261 626.711 907.368C626.893 907.093 627.079 906.821 627.265 906.549C626.317 905.355 625.921 903.688 626.413 902.139C625.358 901.277 624.696 899.946 624.845 898.331C624.91 897.637 624.969 896.942 625.024 896.248C624.926 895.948 624.853 895.62 624.812 895.265C623.8 886.417 623.774 877.518 624.858 868.675C625.536 863.137 659.729 863.345 665.432 863.326C667.39 863.321 672.128 862.466 674.446 868.194C677.66 876.139 680.321 884.288 682.396 892.588C687.892 890.165 693.438 887.854 699.032 885.66C700.817 884.959 702.432 885.354 703.6 886.286C704.406 886.361 705.13 886.675 705.734 887.145C707.379 886.863 708.804 887.641 709.715 888.849C711.499 887.835 713.821 887.891 715.214 889.847C724.543 902.96 731.437 917.671 735.457 933.211C737.684 940.275 739.177 947.583 739.867 955.008C740.165 958.231 737.281 961.627 733.845 960.146C732.691 959.648 731.585 959.085 730.525 958.466C730.259 958.6 729.985 958.72 729.706 958.829C727.589 964.615 721.836 967.876 715.057 965.48C707.702 962.877 701.409 956.509 696.88 950.233L649.777 975.083C650.39 975.901 650.706 976.919 650.503 978.038C648.724 987.859 645.889 997.435 642.051 1006.57L641.863 1007.11C639.012 1015.58 636.158 1024.04 633.306 1032.51C633.191 1037.96 632.796 1043.4 632.126 1048.8C633.486 1049.84 634.205 1051.59 633.289 1053.69C632.146 1056.32 631.052 1058.96 630.005 1061.63C628.479 1069 626.433 1076.26 623.889 1083.35C628.691 1087.39 628.318 1094.66 624.714 1099.53C622.438 1102.6 619.25 1104.94 616.323 1107.33C614.372 1108.93 612.403 1110.5 610.419 1112.06C610.273 1112.2 610.128 1112.34 609.981 1112.48C612.464 1113.84 613.704 1117.36 610.862 1119.84C602.986 1126.71 594.614 1132.92 585.814 1138.53C562.787 1153.23 536.979 1163.05 510.232 1167.66C506.506 1169.03 502.736 1170.24 498.924 1171.25C496.142 1171.99 493.285 1172.6 490.397 1173.03C486.917 1183.11 484.003 1193.39 481.672 1203.83C480.705 1208.17 474.44 1207.32 473.117 1203.83C471.215 1209.43 469.026 1214.93 466.558 1220.3C468.432 1219.8 470.351 1219.67 472.263 1220.42C478.82 1222.99 476.738 1228.98 473.626 1234.02C474.693 1236.11 474.823 1238.68 474.036 1241.1C472.794 1244.92 469.85 1248.08 467.287 1251.04C461.825 1257.37 455.768 1263.14 449.102 1268.15C443.213 1272.57 436.905 1276.48 430.303 1279.73C426.607 1281.55 422.806 1283.16 418.929 1284.55C415.656 1285.72 412.125 1287.24 408.612 1287.32C404.741 1287.4 401.137 1285.25 400.1 1281.31C400.048 1281.12 400.003 1280.92 399.965 1280.73C399.805 1280.35 399.668 1279.95 399.558 1279.55C397.651 1272.48 402.704 1264.82 406.366 1259.24C410.804 1252.49 416.017 1246.75 421.796 1240.62C426.962 1235.14 432.377 1229.48 437.906 1224.63C438.449 1209.64 439.951 1194.71 442.371 1179.91C442.708 1173.76 443.046 1167.6 443.383 1161.44C442.151 1159.79 441.382 1157.79 441.328 1155.4C441.17 1148.42 447.155 1142.22 451.769 1137.62C453.088 1136.31 454.465 1135.06 455.89 1133.87C457.434 1132.15 458.982 1130.58 460.378 1129.24C467.221 1122.65 475.167 1117.34 483.738 1113.38C481.569 1112.54 479.399 1111.7 477.229 1110.86C476.056 1112.31 474.135 1113.22 472.153 1112.62C450.552 1106.07 429.895 1096.75 410.583 1085.01C406.309 1088.9 401.976 1092.72 397.587 1096.46C395.981 1097.92 394.38 1099.39 392.785 1100.86C378.835 1116.19 364.095 1130.79 348.619 1144.56C346.367 1146.56 343.912 1145.84 342.525 1144.09C341.665 1144.75 340.753 1145.34 339.806 1145.85C341.596 1148.26 340.345 1152 337.569 1152.94C336.493 1154.13 334.829 1154.79 332.859 1154.16L332.854 1154.15L332.852 1154.16C332.795 1154.14 332.738 1154.12 332.68 1154.1C332.448 1154.02 332.216 1153.95 331.984 1153.87C331.049 1154.29 329.986 1154.41 328.908 1154.1C315.155 1150.14 301.648 1145.39 288.439 1139.86C284.9 1138.38 284.969 1134.36 287.011 1132.29C286.252 1131.36 285.949 1130.21 286.014 1129.07C286.012 1128.89 286.024 1128.71 286.043 1128.53C285.858 1126.26 281.828 1128.39 282.618 1126.15C285.936 1116.73 317.249 1117.51 332.411 1112.48C338.152 1106.34 344.231 1099.12 348.154 1092.09C358.032 1074.34 373.871 1053.9 391.099 1043.43C395.821 1038.28 397.714 1036.84 403.926 1033.53C405.259 1032.07 410.093 1031.76 412.067 1032.01C417.03 1032.63 421.981 1033.34 426.915 1034.15C443.859 1036.6 460.803 1039.05 477.747 1041.51C479.444 1041.68 481.142 1041.84 482.841 1041.98C490.178 1030.41 497.76 1019.01 505.585 1007.77C505.134 1006.89 504.722 1005.99 504.351 1005.07C499.937 994.106 501.424 981.9 505.334 971.024C505.339 971.009 505.344 970.993 505.348 970.978L505.351 970.979C506.181 968.688 508.051 967.874 509.846 968.1C509.957 967.861 510.07 967.622 510.184 967.385C508.315 965.87 508.013 963.5 508.836 961.697C507.489 960.768 506.195 959.791 504.952 958.767C495.62 951.473 487.258 942.966 480.14 933.448C480.119 933.425 480.098 933.402 480.078 933.38L480.084 933.373C479.327 932.353 479.038 931.294 479.091 930.305C477.083 927.755 475.076 925.204 473.069 922.654C472.781 922.423 472.504 922.142 472.246 921.805L467.028 914.994C463.476 910.354 470.312 904.473 473.951 909.089C473.952 909.091 473.955 909.093 473.956 909.096L473.964 909.09L474.387 909.643C475.205 910.683 476.024 911.722 476.842 912.762C476.776 911.719 476.743 910.672 476.744 909.624C476.239 909.386 475.729 909.068 475.217 908.657C474.022 907.699 473.259 906.505 472.817 905.189C470.478 906.007 468.434 905.625 466.741 904.531C465.465 904.607 464.089 904.234 462.628 903.232C462.364 903.052 462.116 902.856 461.882 902.65C457.095 901.812 452.311 900.975 447.523 900.139C444.456 899.601 443.25 896.72 443.682 894.327C441.98 893.312 440.334 892.206 438.766 890.987C435.532 890.121 433.091 887.906 431.605 885.104C430.489 884.527 429.462 883.754 428.58 882.775C423.99 877.685 424.686 870.569 428.511 865.945C428.836 865.145 429.225 864.367 429.677 863.624C432.229 859.424 437.206 857.06 441.905 859.009C442.399 859.214 442.873 859.454 443.329 859.725C446.894 858.264 450.874 858.651 454.35 860.243C454.494 860.178 454.638 860.116 454.784 860.056C460.036 857.887 465.806 858.911 469.845 862.95C470.042 863.146 470.231 863.349 470.415 863.555C471.974 863.032 473.707 862.881 475.626 863.21C478.799 863.753 481.032 865.312 482.552 867.468C484.498 866.641 486.634 866.33 488.957 866.728C491.276 867.127 493.089 868.287 494.409 869.885C495.142 870.104 495.849 870.428 496.511 870.874C500.068 873.268 500.088 877.377 499.189 881.318C501.315 882.913 502.31 885.189 502.51 887.776C502.575 887.808 502.639 887.84 502.704 887.872C503.158 887.838 503.611 887.839 504.061 887.882C507.322 875.961 508.17 865.976 517.935 856.634C525.58 849.319 538.282 845.853 543.267 844.021ZM459.869 1149.16C458.527 1151.2 457.656 1153.35 458.181 1155.23C458.737 1153.2 459.301 1151.18 459.869 1149.16ZM472.02 1136.4C470.583 1137.62 469.189 1138.89 467.839 1140.2C468.18 1140.3 468.524 1140.38 468.87 1140.45C469.748 1139.04 470.851 1137.72 471.992 1136.5C472.001 1136.47 472.011 1136.44 472.02 1136.4ZM615.622 1095.74C615.429 1096.04 615.236 1096.34 615.041 1096.65C615.361 1096.36 615.677 1096.06 615.98 1095.76C615.86 1095.76 615.741 1095.75 615.622 1095.74ZM474.557 1074.84C474.842 1074.9 475.127 1074.96 475.412 1075.02C475.42 1074.97 475.429 1074.91 475.437 1074.85C475.144 1074.85 474.85 1074.84 474.557 1074.84ZM526.413 1035.81C525.935 1036.72 525.44 1037.62 524.928 1038.51C524.96 1038.56 524.989 1038.61 525.019 1038.66C525.287 1038.65 525.553 1038.67 525.812 1038.7C526.429 1037.91 527.047 1037.11 527.667 1036.32C527.232 1036.21 526.809 1036.04 526.413 1035.81ZM558.866 891.549C554.391 892.902 549.522 893.167 545 892.388C544.789 892.352 544.578 892.312 544.367 892.271C539.278 894.404 534.215 896.601 529.177 898.855C522.194 902.162 515.211 905.469 508.229 908.775C506.905 913.39 504.81 917.647 501.728 921.448C500.546 922.902 498.788 923.358 497.188 923.088C497.141 923.201 497.095 923.314 497.049 923.428C496.33 925.207 494.77 926.104 493.159 926.242C493.101 926.463 493.042 926.685 492.984 926.906C497.187 936.504 502.87 945.328 510.986 951.918C512.029 952.724 513.085 953.516 514.156 954.291C514.176 954.305 514.197 954.32 514.217 954.334L514.216 954.335C516.274 955.83 516.461 958.069 515.618 959.845C516.786 960.204 517.952 960.572 519.112 960.954C520.193 960.003 521.717 959.502 523.472 959.931C533.581 962.412 543.807 964.378 554.103 965.84C568.385 960.272 582.668 954.701 596.95 949.131C598.822 946.876 600.5 944.45 601.963 941.897C602.029 941.716 602.094 941.534 602.16 941.353C602.116 941.386 602.073 941.42 602.028 941.453C601.987 941.488 601.947 941.524 601.905 941.558L601.899 941.55C597.232 944.974 591.491 938.307 596.067 934.567C596.477 934.232 596.872 933.888 597.259 933.54C596.861 932.301 596.917 930.919 597.688 929.701C597.906 929.356 598.119 929.009 598.329 928.661C597.703 927.531 597.504 926.188 598.105 925.028L598.107 925.024L598.1 925.022C600.333 920.709 601.96 916.203 602.975 911.599C602.91 911.492 602.843 911.386 602.777 911.279C602.7 911.236 602.622 911.19 602.545 911.141C602.541 911.139 602.537 911.136 602.533 911.133L602.53 911.132C588.929 902.65 574.207 896.049 558.866 891.549ZM649.25 951.303C649.155 951.419 649.061 951.535 648.966 951.651C649.15 951.508 649.334 951.365 649.518 951.222C649.429 951.249 649.339 951.276 649.25 951.303ZM717.473 956.696C717.642 956.771 717.807 956.84 717.968 956.899C717.785 956.757 717.606 956.607 717.43 956.452C717.446 956.534 717.461 956.615 717.473 956.696ZM626.032 926.874C626.158 926.725 626.283 926.575 626.41 926.426C626.317 926.361 626.224 926.296 626.131 926.23C626.1 926.445 626.065 926.659 626.032 926.874Z" fill="#CBCCCE"/>
<path d="M676.501 964.4C681.481 962.942 683.94 971.074 679.277 973.017C678.309 973.421 677.339 973.823 676.37 974.226C677.966 974.827 679.27 976.353 679.358 978.705L679.385 978.707C679.378 978.746 679.369 978.786 679.362 978.825C679.796 991.453 679.46 1004.08 678.364 1016.64C678.022 1032.78 676.097 1048.88 672.61 1064.64C672.432 1067.12 672.095 1069.57 671.623 1071.98C671.166 1081.14 669.563 1090.1 664.744 1098.57C664.576 1098.86 664.402 1099.16 664.225 1099.45C665.108 1103.23 664.222 1107.54 662.007 1110.8C661.093 1112.14 660.011 1113.24 658.807 1114.14C658.93 1116.63 657.266 1119.11 654.086 1118.77C651.876 1118.54 649.643 1118.23 647.418 1117.82C645.059 1118.03 642.691 1118.03 640.471 1117.99C638.629 1117.95 637.292 1116.62 636.701 1114.99C635.787 1114.65 634.883 1114.3 633.994 1113.92C633.189 1113.58 632.416 1113.19 631.7 1112.73C629.056 1113.06 626.013 1111.13 626.354 1107.9C628.194 1090.43 632.138 1073.22 638.105 1056.72C638.612 1055.32 639.624 1054.46 640.786 1054.08C641.421 1051.29 642.039 1048.49 642.638 1045.69C642.653 1045.59 642.67 1045.49 642.685 1045.4L642.702 1045.4C642.703 1045.39 642.704 1045.39 642.705 1045.38C642.937 1044.3 643.402 1043.3 644.087 1042.55C645.226 1037.56 646.304 1032.55 647.319 1027.53C648.808 1011.41 651.457 995.423 655.178 979.636C655.934 976.427 659.481 976.056 661.832 977.479C662.808 975.58 663.92 973.784 665.208 972.152C665.024 970.487 665.739 968.795 667.766 967.952C669.422 967.262 671.081 966.571 672.74 965.882C673.905 965.293 675.156 964.794 676.501 964.4Z" fill="#CBCCCE"/>
<path fill-rule="evenodd" clip-rule="evenodd" d="M682.091 952.601C684.661 952.208 684.262 965.164 684.28 968.603C684.381 986.991 682.722 1004.95 680.878 1026.61C678.142 1058.74 671.735 1080.61 667.27 1108.06C666.671 1111.73 666.402 1115.86 664.381 1119.08C659.876 1126.27 650.542 1124.47 643.575 1123.21C635.003 1121.65 626.668 1119.15 618.675 1115.67C616.514 1114.73 615.009 1112.17 615.996 1109.8C620.388 1099.28 624.604 1088.69 628.632 1078.02C630.781 1072.33 632.928 1066.61 635.001 1060.87C637.609 1050.12 640.469 1039.43 643.591 1028.81C643.62 1028.7 643.65 1028.6 643.679 1028.49L643.686 1028.49C643.751 1028.27 643.827 1028.07 643.91 1027.87C644.014 1027.49 644.117 1027.1 644.221 1026.71C643.812 1026 643.61 1025.13 643.724 1024.12C645.221 1010.94 647.699 997.908 651.073 985.089C651.312 984.183 651.743 983.503 652.291 983.025C653.445 980.645 675.741 950.026 682.091 952.601Z" fill="#CBCCCE"/>
<path d="M427.504 854.234C449.108 856.228 480.14 861.62 496.723 868.628C499.603 869.845 498.538 875.085 492.789 875.669C481.408 876.821 471.801 871.732 460.654 869.173C449.508 866.615 438.014 865.22 426.738 863.341C421.064 862.393 421.633 853.691 427.504 854.234Z" fill="#CBCCCE"/>
<path d="M402.51 1035.03C404.62 1033.41 407.927 1034 409.378 1036.64C411.902 1041.22 413.41 1046.25 413.907 1051.38C414.631 1053.79 414.889 1056.3 414.675 1058.79C414.956 1061.62 414.945 1064.48 414.623 1067.35C419.674 1068.28 424.712 1069.69 429.694 1070.78C435.623 1072.09 441.553 1073.39 447.483 1074.69C447.944 1074.69 448.427 1074.77 448.926 1074.92C449.224 1075.02 449.523 1075.11 449.82 1075.2C455.531 1076.45 461.241 1077.7 466.95 1078.96C468.508 1079.3 470.173 1080.16 470.789 1081.72C471.042 1081.86 471.291 1082.02 471.536 1082.18C474.359 1084.05 473.83 1087.35 471.869 1089.16C472.952 1095.79 474.684 1102.28 477.128 1108.57C478.173 1111.27 476.915 1114.49 473.871 1115.04C472.89 1115.21 471.939 1115.28 471.006 1115.21C470.941 1115.39 470.866 1115.56 470.779 1115.73C469.651 1117.9 467.454 1118.46 465.234 1117.92C459.576 1116.54 454.098 1114.51 448.909 1111.9C447.79 1112.98 446.212 1113.46 444.545 1112.59C432.906 1106.53 421.69 1099.76 410.967 1092.16C410.227 1091.63 409.732 1090.98 409.444 1090.26C408.294 1091.92 406.829 1093.39 405.043 1094.55C404.272 1095.05 403.52 1095.26 402.82 1095.23C400.658 1097.71 398.43 1100.14 396.139 1102.5C391.019 1109.66 384.808 1116.01 377.751 1121.28C366.145 1135.25 352.281 1147.27 336.8 1156.86C332.398 1159.58 327.781 1152.21 331.936 1149.25C341.948 1142.12 351.395 1134.21 360.154 1125.56C360.614 1125.1 361.07 1124.64 361.525 1124.18C361.331 1122.76 361.709 1121.24 362.884 1120.1C372.991 1110.31 381.839 1099.35 389.41 1087.45C389.457 1087.36 389.506 1087.27 389.553 1087.18C389.56 1087.18 389.567 1087.19 389.573 1087.19C390.169 1086.26 391.118 1085.66 392.157 1085.42C394.495 1081.72 396.746 1077.97 398.91 1074.16C399.118 1073.79 399.332 1073.43 399.552 1073.09C399.438 1073.03 399.323 1072.98 399.206 1072.94C397.068 1072.13 396.024 1069.97 396.354 1067.82C394.209 1064.76 393.15 1060.66 392.915 1057.17C392.439 1050.08 394.427 1043.08 398.719 1037.42C399.436 1036.48 400.47 1035.85 401.569 1035.61C401.855 1035.38 402.172 1035.19 402.51 1035.03Z" fill="#38509E"/>
<path d="M449.176 886.073C457.859 886.302 466.471 887.247 474.991 888.918C476.907 889.293 478.116 890.545 478.638 892.007C479.038 892.245 479.423 892.556 479.783 892.947C487.698 901.581 494.62 911.739 498.979 922.697C500.113 925.556 501.096 928.568 501.455 931.638C501.588 932.773 501.638 933.911 501.661 935.05C502.209 935.987 502.756 936.923 503.305 937.859C503.353 937.938 503.401 938.018 503.449 938.097L503.445 938.098C503.446 938.099 503.447 938.101 503.448 938.103C504.507 939.912 503.701 942.372 502.152 943.654C502.964 948.459 504.809 953.039 506.609 957.546C507.755 960.412 505.756 964.793 502.135 964.072C500.706 963.787 499.435 963.193 498.414 962.368C497.121 962.561 495.764 962.099 494.732 960.643C483.764 945.176 473.824 928.994 465.015 912.19C464.924 912.051 464.833 911.912 464.743 911.773C464.735 911.763 464.727 911.753 464.719 911.742L464.721 911.74L464.719 911.737C464.412 911.261 464.168 910.754 463.995 910.234C463.376 909.037 462.763 907.838 462.156 906.635C452.802 903.471 443.622 899.834 434.627 895.727C429.804 893.524 431.505 886.989 436.577 886.884C439.771 886.818 442.962 886.839 446.149 886.924C446.907 886.371 447.916 886.04 449.176 886.073Z" fill="#38509E"/>
<path fill-rule="evenodd" clip-rule="evenodd" d="M526.707 897.961C546.322 892.659 568.371 891.396 587.509 899.164C596.423 902.776 606.332 908.471 608.849 918.576C610.053 923.405 609.148 928.697 605.986 932.589C604.617 934.273 602.977 935.695 601.215 936.967C603.009 946.992 594.768 953.384 586.538 956.629C576.333 960.656 565.623 964.133 554.819 966.006C547.465 967.282 539.831 967.766 532.381 966.886C524.192 966.985 515.858 965.635 508.62 962.265C502.88 959.592 496.525 955.505 494.119 949.789C487.944 945.16 484.33 938.625 486.73 929.537C491.468 911.591 510.427 902.363 526.707 897.961ZM591.583 942.696C591.429 942.776 591.275 942.855 591.121 942.935C590.856 943.261 590.59 943.581 590.317 943.891C589.836 944.44 589.341 944.975 588.837 945.501C589.979 944.699 590.943 943.777 591.583 942.696ZM598.088 916.764C598.817 918.341 599.252 920.047 599.306 921.873C599.645 922.328 599.965 922.794 600.257 923.273C600.312 922.628 600.277 921.942 600.136 921.207C599.816 919.545 599.074 918.071 598.088 916.764Z" fill="#71C4E1"/>
<path d="M615.454 862.29C620.441 860.49 625.046 862.344 628.28 865.921C631.107 869.046 632.346 874.075 632.859 877.532C633.625 879.276 633.085 880.764 633.536 882.589C635.373 886.965 636.002 891.808 634.684 896.469C633.864 901.599 630.215 908.946 630.215 908.946C630.215 908.946 623.611 910.415 622.259 911.487C616.879 915.747 612.297 910.941 609.745 905.721C608.875 905.189 608.049 904.583 607.283 903.905C601.748 899 599.002 891.18 599.385 883.825C599.579 880.094 600.673 876.95 602.891 873.186C606.198 867.574 609.981 864.266 615.454 862.29Z" fill="#E78C3C"/>
<path fill-rule="evenodd" clip-rule="evenodd" d="M543.148 894.365C555.155 892.155 567.595 893.124 579.143 897.43C580.109 897.762 581.066 898.14 582.014 898.569C582.046 898.583 582.077 898.598 582.107 898.612C582.531 898.654 582.976 898.758 583.438 898.938C585.957 899.919 588.31 901.215 590.445 902.822C591.015 903.144 591.577 903.477 592.13 903.823C594.321 904.768 596.215 906.133 597.778 907.79C597.782 907.792 597.786 907.794 597.79 907.796C602.014 910.141 603.988 913.821 604.667 917.946C605.17 919.18 605.572 920.455 605.86 921.751C607.807 930.494 604.299 939.573 599.051 946.451C598.518 947.151 597.894 947.626 597.234 947.917C595.919 950.138 594.438 952.259 592.799 954.254C592.627 955.126 592.167 955.982 591.335 956.727C589.892 958.02 588.385 959.233 586.825 960.363C585.98 961.089 585.108 961.787 584.21 962.455C584.157 962.5 584.106 962.546 584.052 962.59L584.044 962.581L584.041 962.583C583.385 963.067 582.707 963.35 582.04 963.47C576.278 966.805 569.957 969.081 563.414 970.109C563.097 970.41 562.72 970.672 562.279 970.879C544.338 979.276 521.167 973.262 509.966 956.674C509.964 956.672 509.961 956.67 509.959 956.667L509.96 956.665C509.956 956.66 509.953 956.654 509.949 956.649C508.928 955.132 508.795 953.601 509.225 952.33C507.818 948.232 507.424 943.788 508.216 939.448C508.235 939.341 508.259 939.236 508.283 939.133C508.099 938.306 507.916 937.479 507.732 936.652C506.597 934.455 505.462 932.257 504.325 930.058C503.934 929.302 503.771 928.57 503.789 927.887C502.444 924.578 501.489 921.106 500.967 917.492C500.706 915.681 501.374 914.238 502.456 913.319C502.493 910.558 504.958 909.215 507.298 909.364C506.814 907.533 507.398 905.409 509.599 904.166C514.503 901.393 519.793 899.404 525.272 898.285C531.125 896.387 537.09 894.919 543.148 894.365Z" fill="#308AC1"/>
<path d="M446.238 1143.75C451.802 1142.96 457.563 1144.63 462.357 1147.42C464.047 1147.84 465.689 1148.39 467.228 1148.99C473.166 1151.33 481.536 1156.95 484.076 1163.7C487.137 1167.73 489.195 1173.45 483.871 1176.69C482.034 1177.81 479.82 1178.15 477.513 1178.08C474.298 1179.27 470.52 1179.2 467.207 1178.68C461.564 1177.79 456.006 1175.53 451.527 1172.19C449.765 1170.88 447.898 1169.31 446.419 1167.52C446.399 1167.5 446.379 1167.49 446.358 1167.47C445.533 1166.89 444.618 1166.46 443.941 1165.75C438.034 1160.45 435.255 1145.32 446.238 1143.75Z" fill="#E78C3C"/>
<path d="M398.736 1033.61C402.604 1031.84 407.182 1032.65 410.67 1034.89C418.421 1039.86 418.629 1050.85 417.955 1059.07C417.63 1063.02 416.555 1072.15 413.165 1076.76C412.819 1078.98 412.297 1081.16 411.51 1083.2C409.651 1088.01 404.385 1089.92 400.042 1087.04C395.951 1084.35 394.296 1079.11 393.089 1074.6C391.931 1070.27 391.474 1065.7 391.651 1061.21C391.546 1060.79 391.452 1060.36 391.368 1059.93C390.1 1054.73 390.748 1048.95 391.843 1043.84C392.741 1039.65 394.648 1035.49 398.736 1033.61Z" fill="#E78C3C"/>
<path d="M436.874 1213.89C440.095 1209.59 445.432 1211.31 447.25 1215.83C448.141 1218.05 448.95 1220.3 449.797 1222.55C450.515 1224.44 451.065 1227.56 452.506 1229.15C453.947 1230.73 457.365 1231.71 459.244 1232.63C461.67 1233.81 464.102 1235 466.528 1236.18C471.723 1238.72 468.637 1247.32 463.389 1244.76C460.272 1243.23 457.148 1241.71 454.024 1240.19C451.33 1238.87 448.268 1237.76 446.134 1235.56C443.854 1233.22 442.949 1230 441.815 1227C441.563 1226.34 441.308 1225.67 441.055 1225L436.797 1232.87C435.628 1235.04 432.299 1235.3 430.489 1233.99C428.349 1232.43 428.213 1229.8 429.395 1227.62L433.211 1220.56C434.38 1218.41 435.4 1215.86 436.874 1213.89Z" fill="#E78C3C"/>
<path d="M342.479 1099.04C345.533 1098.38 348.593 1100.28 348.558 1103.21C348.523 1106.14 348.297 1109.04 347.769 1111.93C347.31 1114.44 346.33 1116.94 346.033 1119.46C345.776 1121.65 347.018 1123.45 347.976 1125.24C348.933 1127.03 349.709 1128.83 350.245 1130.81C351.788 1136.5 342.864 1138.12 341.345 1132.5C340.111 1127.94 336.723 1124.81 336.932 1119.73C337.046 1117.01 339.029 1115.25 339.574 1112.59C339.764 1111.67 339.917 1110.73 340.04 1109.79C336.178 1111.14 332.492 1112.97 329.092 1115.3L329.093 1115.3C327.081 1116.68 324.404 1116.82 322.712 1114.76C321.273 1113 321.216 1109.72 323.254 1108.32C329.656 1103.92 334.904 1100.69 342.479 1099.04Z" fill="#E78C3C"/>
<path d="M589.859 875.607C590.029 869.715 599.051 870.511 598.88 876.366C598.65 884.277 601.801 891.605 607.023 897.64C612.244 903.674 619.675 907.413 629.255 908.355C629.646 908.393 629.936 908.431 630.258 908.439C633.438 906.666 636.027 916.288 630.653 917.233C619.256 919.24 606.594 914.036 599.163 905.823C592.093 898.012 589.554 886.221 589.859 875.607Z" fill="#CBCCCE"/>
<path d="M556.075 884.697C561.803 885.858 567.569 887.09 573.165 888.82C583.104 891.901 592.071 897.113 599.087 904.925C613.558 921.033 616.764 936.01 607.108 955.474C605.333 959.046 593.622 966.227 595.392 962.652C603.526 946.246 604.8 925.414 592.773 911.518C586.949 904.791 579.443 900.435 571.07 897.731C566.577 896.283 561.966 895.228 557.349 894.241C553.125 893.341 542.515 894.272 538.362 896.112C532.996 898.491 535.097 888.283 540.228 885.523L540.231 885.521L540.229 885.517C540.246 885.509 540.262 885.501 540.279 885.494C546.911 881.923 548.544 883.166 556.075 884.697Z" fill="#CBCCCE"/>
<path d="M493.689 914.927C497.121 911.348 503.497 907.284 504.933 909.118C506.145 909.97 502.399 918.274 502.891 919.872L502.915 919.862C503.641 922.241 501.478 924.78 499.293 925.201C499.021 925.254 498.757 925.279 498.5 925.283C498.288 925.709 498.078 926.136 497.894 926.576C497.354 927.875 496.884 929.217 496.527 930.581C495.757 933.531 495.529 936.686 495.794 939.717C495.89 940.818 495.648 941.804 495.187 942.621C495.583 943.862 496.088 945.051 496.705 946.19C499.358 950.423 502.847 953.953 507.103 956.749C507.134 956.766 507.166 956.784 507.197 956.801C507.195 956.804 507.193 956.806 507.191 956.809C507.841 957.237 508.327 957.842 508.643 958.531C510.127 959.38 511.661 960.143 513.236 960.814C513.253 960.819 513.271 960.825 513.289 960.83L513.286 960.836C513.992 961.139 514.554 961.534 514.987 961.986C515.608 962.198 516.236 962.398 516.872 962.586C518.12 962.956 519.034 963.977 519.49 965.182C520.575 965.649 521.67 966.098 522.779 966.521C522.877 966.558 522.976 966.593 523.074 966.63C531.483 967.883 539.928 967.64 548.276 965.956C553.246 964.955 555.132 971.567 551.835 974.1C552.351 985.694 531.427 978.88 525.664 977.146C523.242 976.418 520.932 975.559 518.457 975.06C508.868 973.128 498.358 969.84 490.912 963.172C478.988 952.498 480.01 929.192 493.689 914.927Z" fill="#87BEEA"/>
<path d="M515.689 901.35C515.689 901.35 518.324 911.518 516.766 913.392C516.305 913.947 515.827 914.454 515.333 914.922C514.801 916.292 513.514 917.424 512.011 917.865L509.019 920.662C511.458 929.396 513.146 938.299 513.894 947.387C514.305 952.362 514.516 956.764 518.599 960.128C521.867 962.819 526.056 962.641 530.083 963.793C545.412 968.189 563.376 962.412 573.112 949.638C576.659 944.984 583.922 952.1 580.355 956.777C575.112 963.662 568.117 969.053 560.122 972.294C546.064 977.996 529.709 977.592 516.534 969.769C512.791 967.546 509.369 964.452 507.363 960.504C505.212 956.269 505.243 951.435 504.791 946.811C503.814 936.829 501.785 926.904 498.649 917.383C497.901 915.118 497.929 911.807 500.879 909.289C505.232 905.573 515.689 901.35 515.689 901.35Z" fill="#308AC1"/>
<path d="M603.623 899.396C605.946 898.632 607.884 899.785 609.101 901.734C613.338 908.492 615.373 916.464 615.438 924.451C615.825 925.848 616.213 927.244 616.599 928.64C617.213 930.854 616.232 932.451 614.714 933.243C614.624 933.763 614.528 934.282 614.421 934.798C610.489 953.754 596.637 968.945 579.751 977.449C572.552 981.076 564.899 983.433 557.049 984.784C556.475 985.667 555.526 986.374 554.154 986.693C546.252 988.523 538.058 988.802 530.095 987.568C529.116 989.504 526.928 990.882 524.519 989.995C521.87 989.02 519.305 988.554 516.49 988.463L516.484 988.463C513.058 988.354 511.921 985.169 512.74 982.596C511.772 981.978 510.804 981.362 509.836 980.744C505.542 978.004 506.594 971.048 511.148 973.425C513.272 974.53 516.581 974.887 520.513 975.605C532.13 977.726 540.682 977.682 550.738 976.468C567.949 974.394 584.907 967.059 595.951 953.129C602.268 945.158 606.17 935.227 606.31 925.312C604.394 918.391 602.475 911.472 600.56 904.55C599.952 902.346 601.642 900.049 603.623 899.396Z" fill="#CBCCCE"/>
<path d="M426.189 854.527C428.402 854.713 432.257 858.192 431.738 860.606C429.763 869.759 428.206 879.003 431.487 887.797C433.533 893.276 425.828 897.28 423.777 891.782C420.376 881.592 418.883 870.494 421.206 859.72C421.731 857.294 423.489 854.3 426.189 854.527Z" fill="#CBCCCE"/>
<path d="M579.016 1007.2C582.046 1006.39 583.345 1008 583.302 1010.74C583.178 1018.55 577.913 1025.19 571.092 1028.45C564.555 1031.57 555.366 1032.87 548.552 1030C545.589 1028.75 542.243 1026.66 539.152 1024.77C531.587 1020.15 523.486 1018.86 511.895 1013.11C500.266 1007.35 540.654 1006.53 544.659 1007.68C550.253 1009.28 556.062 1010.06 561.61 1009.42C567.157 1008.77 573.631 1008.65 579.016 1007.2Z" fill="#999B9E"/>
<path fill-rule="evenodd" clip-rule="evenodd" d="M619.487 914.256C621.084 911.067 629.441 911.761 627.978 917.41C627.039 921.041 625.945 924.619 624.705 928.139C623.085 935.679 620.092 942.908 616.768 949.866C609.997 964.031 601.221 977.81 588.021 986.439C587.301 987.464 586.32 987.984 585.287 988.114C566.162 999.073 551.103 994.529 531.367 985.918C527.546 984.251 527.392 977.731 532.106 977.137C559.254 973.711 584.406 960.7 603.121 940.537C607.101 936.251 613.025 927.157 619.487 914.256Z" fill="#999B9E"/>
<path d="M281.855 1127.16C282.496 1125.99 283.794 1124.21 283.794 1124.21C283.794 1124.21 286.245 1124.47 287.398 1124.97C298.702 1129.91 322.288 1151.02 333.799 1142.19C335.385 1143.49 335.2 1151.91 334.923 1153.38C335.806 1154.66 336.072 1156.48 335.571 1157.8C334.62 1160.33 332.154 1161.06 329.753 1160.52C312.228 1156.6 296.335 1147.18 284.117 1133.95C283.948 1133.77 283.798 1133.58 283.667 1133.4C283.519 1133.27 283.37 1133.14 283.222 1133.01C281.51 1131.47 280.273 1130.04 281.855 1127.16Z" fill="#999B9E"/>
<path d="M615.983 947.406C617.471 945.867 620.124 946.083 621.732 947.33C623.515 946.402 626.004 946.982 627.247 948.5C628.932 950.562 628.384 953.121 626.704 954.942C626.703 954.944 626.7 954.946 626.698 954.948L626.715 954.968C626.575 955.109 626.589 957.984 626.449 958.126C624.89 959.856 623.292 958.945 621.968 960.847C617.963 971.327 615.627 982.247 615.003 993.493C615.762 1002.4 614.999 1011.32 612.853 1020.09C612.59 1021.17 611.989 1021.93 611.22 1022.4C608.854 1033.78 605.021 1044.87 600.354 1055.63C593.172 1072.17 584.676 1088.41 575.383 1103.85C567.252 1117.35 557.464 1130.59 544.312 1139.48C537.37 1144.18 530.044 1147.31 521.88 1149.61C513.716 1151.91 505.249 1153.28 497.263 1156.2C493.22 1157.69 489.585 1160.08 485.577 1161.57C480.994 1163.27 477.092 1162.22 473.464 1159.05C467.388 1153.75 463.302 1151.87 451.765 1152.77C450.445 1152.87 445.283 1143.92 445.283 1143.92C445.283 1143.92 446.883 1142.32 448.046 1141.09C456.741 1131.96 474.586 1114.26 474.586 1114.26C474.586 1114.26 473.413 1111.11 472.958 1109.73C469.199 1098.23 467.528 1086.74 467.774 1074.46C467.882 1069.01 475.542 1069.3 476.733 1074C477.719 1077.87 478.377 1081.82 478.715 1085.79C482.331 1081.29 486.133 1076.94 489.995 1072.65C502.055 1059.25 514.876 1046.17 523.839 1030.34C525.958 1026.61 528.704 1022.1 529.357 1017.8C529.703 1015.49 528.952 1013.19 528.713 1010.85C528.473 1008.51 528.426 1006.13 528.683 1003.79C529.749 994.149 534.812 985.586 541.668 978.96L541.669 978.948C545.895 974.871 551.707 981.872 547.508 985.928C543.823 989.488 540.856 993.794 539.109 998.649C537.242 1003.85 537.689 1008.4 538.281 1013.74C539.302 1022.98 533.544 1032.1 528.806 1039.68C524.068 1047.26 518.465 1054.26 512.617 1060.99C501.461 1073.82 489.327 1085.86 479.493 1099.8C480.186 1102.64 481.01 1105.44 481.965 1108.2C482.518 1108.36 483.072 1108.52 483.627 1108.68C487.223 1109.7 487.116 1114.21 484.976 1116.46C476.442 1125.43 467.906 1134.4 459.372 1143.37C465.337 1143.89 471.143 1145.94 476.086 1149.48C477.428 1150.44 479.266 1152.93 480.837 1153.34C482.526 1153.78 485.089 1151.68 486.501 1150.96C490.413 1148.94 494.559 1147.46 498.756 1146.17C506.788 1143.71 515.1 1142.32 523.114 1139.78C530.12 1137.57 536.675 1134.16 542.473 1129.6C554.315 1120.29 562.882 1107.51 570.362 1094.56C579.167 1079.32 587.455 1063.53 594.074 1047.2C598.571 1036.1 602.203 1024.49 603.876 1012.62C604.055 1007.22 604.235 1001.83 604.416 996.429C604.143 992.594 603.592 988.77 602.757 984.957L602.762 984.955C602.761 984.948 602.761 984.94 602.759 984.932C602.7 984.541 602.683 984.168 602.703 983.815C602.199 980.352 601.694 976.889 601.19 973.427C600.796 970.711 602.464 968.835 604.498 968.295C606.387 960.378 610.274 953.365 615.993 947.426L615.983 947.406Z" fill="#999B9E"/>
<path d="M442.588 1175.84L443.279 1164.26C443.279 1164.26 448.825 1168.55 450.718 1170.96C452.048 1172.65 453.505 1172.34 455.425 1173.35C457.101 1174.22 458.949 1176.15 460.687 1176.79C463.059 1177.66 467.402 1176.87 468.089 1178.91C468.552 1180.28 466.609 1184.5 465.517 1185.88C463.847 1195.01 464.154 1203.91 466.036 1213.06C469.672 1230.78 482.077 1250.28 466.37 1265.35C453.234 1282.4 431.505 1291.92 409.536 1289.69C406.643 1289.39 402.327 1282.16 402.327 1282.16C402.327 1282.16 410.112 1286.59 415.74 1284.82C434.936 1278.78 445.062 1272.49 459.482 1258.53C462.033 1256.06 462.901 1253.96 464.184 1250.59C468.228 1239.96 461.03 1230.59 458.299 1222.08C456.207 1215.55 455.134 1208.88 454.911 1202.02C454.798 1198.54 454.946 1195.06 455.37 1191.61C455.628 1189.49 456.308 1187.28 456.595 1185.11C455.753 1184.9 454.904 1184.7 454.086 1184.4C452.823 1183.95 451.597 1183.34 450.423 1182.67C447.858 1181.21 446.141 1179.89 443.965 1177.49C443.402 1176.87 442.588 1175.84 442.588 1175.84Z" fill="#999B9E"/>
<path d="M417.918 1055.39C417.996 1052.45 420.49 1056.3 423.109 1057.35C430.918 1060.49 438.721 1063.63 446.524 1066.77C453.302 1069.49 461.252 1074.19 468.729 1072.07L468.723 1072.07C474.351 1070.47 475.943 1079.47 470.384 1081.05C470.122 1081.12 469.859 1081.19 469.596 1081.25C470.006 1081.38 470.415 1081.51 470.824 1081.64C476.389 1083.38 473.238 1091.96 467.686 1090.22C450.833 1084.94 434.239 1078.89 417.947 1072.05C414.34 1070.53 414.207 1065.98 417.204 1063.87C417.065 1063.05 417.893 1056.31 417.918 1055.39Z" fill="#999B9E"/>
<path d="M384.007 1069.04C384.752 1063.77 392.23 1063.89 393.014 1068.29C394.11 1069.09 394.875 1070.39 394.848 1072.12L394.849 1072.12L394.834 1072.7C394.821 1073.08 394.802 1073.47 394.777 1073.85C394.694 1075.81 394.609 1077.78 394.528 1079.75C394.182 1087.87 385.471 1098.52 380.786 1104.73C373.201 1114.76 364.973 1124.29 356.293 1133.37C355.539 1134.16 355.171 1134.3 354.626 1134.76C354.168 1134.21 352.748 1133.07 352.247 1133.03C350.578 1130.99 348.459 1129.46 350.172 1127.67C358.063 1119.41 365.781 1109.43 372.717 1100.34C375.245 1097.03 377.757 1093.6 379.898 1089.99C382.339 1084.03 382.225 1080.1 383.341 1073.41C383.357 1072.88 383.368 1072.35 383.366 1071.82C383.364 1070.93 383.575 1070.19 383.933 1069.61C383.962 1069.41 383.993 1069.21 384.021 1069.01L384.007 1069.04Z" fill="#999B9E"/>
<path d="M337.605 1138.94C339.387 1137.08 343.633 1133.33 343.633 1133.33C343.633 1133.33 346.154 1135 346.979 1135.58C348.848 1136.91 347.239 1139.67 345.651 1141.56C342.583 1145.19 338.773 1147.64 334.139 1148.73C332.199 1149.19 328.813 1147.39 328.813 1147.39C328.813 1147.39 325.847 1146.63 327.981 1145.28C327.981 1145.28 334.297 1142.41 337.605 1138.94Z" fill="#999B9E"/>
<path d="M474.223 896.718C468.478 894.549 462.598 893.077 456.604 892.283C453.455 892.217 450.305 892.147 447.156 892.062C440.249 891.878 433.23 890.785 428.408 885.323C427.592 884.398 426.209 884.305 426.309 883.111C426.437 881.591 426.245 880.77 426.565 880.071C426.886 879.372 427.43 878.327 432.25 877.82C444.032 876.579 452.478 878.036 462.59 878.14C468.919 878.208 482.809 873.709 482.809 873.709C482.809 873.709 482.814 873.705 482.816 873.703C489.12 870.238 500.277 868.415 500.277 868.415C500.277 868.415 498.958 873.969 496.458 877.789C495.861 884.882 495.451 889.621 496.471 895.638C497.336 900.761 498.744 910.638 498.744 910.638L494.391 914.354C494.391 914.354 480.305 896.335 474.223 896.718Z" fill="#999B9E"/>
<path d="M629.298 883.865C628.451 878.679 622.664 875.061 627.643 873.52C630.236 872.718 648.248 869.353 657.775 869.562C662.744 869.669 669.141 868.571 670.112 873.012C671.575 879.706 674.884 894.334 674.884 894.334C674.884 894.334 650.213 899.402 635.454 906.702C634.406 906.968 630.26 908.438 630.26 908.438C630.26 908.438 632.735 903.034 633.365 901.556C632.831 895.898 630.314 890.096 629.298 883.865Z" fill="#999B9E"/>
<path fill-rule="evenodd" clip-rule="evenodd" d="M672.85 960.5C677.699 958.598 676.616 973.686 676.493 977.433C676.068 990.184 675.075 1002.91 673.471 1015.57C670.653 1037.82 669.57 1058.56 661.486 1083.54C657.156 1096.92 654.604 1108.9 647.759 1112.48C639.919 1116.58 624.914 1113.1 617.214 1109.91C614.299 1108.7 613.518 1107.05 614.961 1104.43C633.076 1071.6 637.66 1012.55 650.237 981.767C656.278 977.059 655.865 966.54 662.98 963.751L672.85 960.5Z" fill="#999B9E"/>
<path d="M646.185 968.4C649.434 965.702 655.446 969.174 653.353 973.467C649.019 982.36 645.629 991.64 643.186 1001.24C641.737 1006.93 633.255 1003.73 634.693 998.081C636.128 992.446 637.894 986.921 639.982 981.519C639.438 980.534 639.261 979.312 639.701 977.944C640.922 974.158 643.137 970.932 646.185 968.4Z" fill="#38509E"/>
<path d="M644.707 968.161C645.302 965.772 648.431 964.646 650.526 965.446C652.984 966.387 653.802 968.902 653.206 971.316C650.833 980.87 648.454 990.423 646.081 999.976C645.176 1003.61 644.918 1009.77 640.902 1011.44C636.434 1013.29 633.335 1008.94 634.338 1004.86C634.563 1003.96 635.295 1003.12 636.159 1002.57L636.573 1000.91L637.736 996.234C638.513 993.114 639.284 989.993 640.062 986.872L644.714 968.155L644.707 968.161Z" fill="#38509E"/>
<path d="M408.391 1087.31C415.567 1087.18 421.608 1092.19 427.148 1096.16C436.045 1102.54 447.074 1110.42 458.497 1110.18C458.513 1110.13 458.529 1110.08 458.547 1110.03C459.489 1107.54 461.974 1106.73 464.365 1107.32L469.815 1110.4C473.523 1111.32 474.543 1114.24 474.543 1114.24C474.543 1114.24 464.236 1128.68 423.204 1105.86C418.6 1102.56 410.951 1093.74 404.935 1097.58C402.286 1099.26 400.343 1101.98 398.391 1104.39C396.067 1107.24 393.697 1110.06 391.277 1112.85C381.094 1124.52 370.146 1135.51 358.43 1145.63C347.242 1155.29 337.81 1163.85 322.148 1160.61C314.583 1159.04 307.689 1155.59 300.888 1151.77C294.088 1147.95 287.694 1143.46 281.722 1138.43C279.699 1136.72 276.874 1135.12 278.051 1133.2C278.494 1131.79 281.448 1128.1 281.448 1128.1C281.448 1128.1 281.31 1128.52 281.864 1129.15C282.181 1129.51 282.605 1129.93 283.714 1130.41C298.817 1136.91 306.248 1145.49 323.129 1148.95C326.403 1149.62 332.242 1148.7 332.242 1148.7C332.242 1148.7 341.142 1148.05 345.216 1144.81C351.175 1140.08 356.89 1135 362.44 1129.78C373.133 1119.74 382.951 1108.93 392.247 1097.58C396.458 1092.44 401.215 1087.44 408.391 1087.31Z" fill="#38509E"/>
<path d="M711.182 942.967C710.441 939.849 708.047 934.03 704.168 934.916C683.439 939.647 662.97 945.44 642.806 952.231C637.907 953.879 633.027 955.59 628.166 957.364C623.917 958.914 619.396 960.301 616.922 964.441C614.287 968.848 614.94 974.896 614.761 979.834C614.709 981.241 614.68 990.303 614.146 996.646C611.85 1023.93 602.953 1040.85 594.704 1063.45C589.793 1073.23 584.649 1082.9 579.413 1092.51C574.356 1101.79 565.984 1115.78 559.099 1123.84C546.329 1138.77 528.224 1143.36 509.765 1148.75C473.906 1160.99 474.826 1159.68 466.792 1181.45C462.814 1192.23 460.465 1190.61 463.862 1216.27C464.721 1222.76 466.261 1226.74 468.754 1231.11C472.43 1237.56 475.555 1242.58 471.19 1252.3C467.242 1261.09 455.348 1274.57 443.228 1281.35C437.471 1284.56 431.34 1287.1 424.954 1288.72C420.938 1289.73 414.794 1290.15 411.351 1289.04C407.909 1287.94 399.538 1279.38 399.538 1279.38C399.538 1279.38 399.65 1283.3 399.939 1286.61C400.338 1291.18 406.689 1297.33 414.137 1297.95C422.162 1298.63 426.892 1297.85 432.968 1295.82C445.102 1291.76 456.405 1284.89 465.56 1275.86C475.68 1265.86 482.675 1253.55 487.67 1240.26C490.301 1233.25 492.415 1226.05 494.433 1218.84C496.4 1211.81 497.956 1204.47 500.701 1197.69C503.513 1190.76 508.575 1187.39 515.159 1184.5C522.718 1181.19 530.338 1178.01 537.921 1174.77C551.93 1168.78 566.367 1163.33 579.803 1156.09C592.332 1149.35 603.364 1140.47 610.95 1128.2C617.031 1118.36 620.118 1109.17 624.37 1096.51L624.37 1096.51L624.594 1095.84C627.662 1086.71 628.47 1082.29 631.211 1072.06C640.737 1036.53 647.125 1011.35 652.297 980.24C661.076 975.489 669.612 970.295 677.882 964.69C681.043 962.817 684.204 960.944 687.365 959.071L687.727 958.857L691.067 956.877C692.859 956.194 694.656 955.521 696.456 954.861C698.179 958.592 699.902 962.323 701.627 966.053C702.739 968.459 706.406 973.383 706.406 973.383C706.406 973.383 703.47 976.991 702.179 978.922C699.637 982.725 696.392 987.595 696.122 992.311C695.524 1002.74 707.229 1002.09 715.46 999.301C716.619 1006.35 719.195 1013.15 725.835 1016.79C730.655 1019.43 735.694 1018.96 740.201 1016.85C744.345 1015.66 747.676 1012 750.406 1008.66C758.346 998.936 761.469 991.097 762.73 978.778C763.12 974.929 763.18 970.447 763.251 966.576C762.434 956.493 750.372 945.594 749.826 946.056C747.216 948.284 745.793 950.971 744.043 954.754C743.015 956.977 742.211 958.522 741.392 960.421C735.397 962.513 722.985 964.961 722.985 964.961C720.792 962.241 718.513 959.596 716.717 956.579C714.198 952.331 712.327 947.784 711.182 942.967Z" fill="#38509E"/>
<path fill-rule="evenodd" clip-rule="evenodd" d="M614.772 869.03C613.942 865.843 616.657 861.798 620.571 863.378C625.949 865.547 630.028 869.863 632.24 875.194C632.332 875.335 632.425 875.477 632.514 875.621C636.826 882.674 636.263 894.221 633.362 901.554C630.551 908.656 610.241 892.313 608.3 887.716C605.386 880.818 607.231 872.052 614.633 869.085C614.679 869.066 614.726 869.048 614.772 869.03Z" fill="#E78C3C"/>
<path d="M498.9 866.768C500.675 864.516 503.692 863.239 506.083 864.153C508.225 864.975 509.812 867.768 508.763 870.022C504.611 878.935 500.959 889.009 500.05 898.854C499.58 903.936 493.067 906.078 491.285 900.157C488.641 891.374 489.952 882.636 492.903 876.692C494.603 873.259 496.52 869.789 498.9 866.768Z" fill="#E78C3C"/>
<path d="M515.258 858.449C517.112 856.516 524.815 850.345 526.387 852.242C528.231 854.467 524.18 864.046 522.311 865.998C512.416 876.349 507.341 890.364 507.517 904.574L507.51 904.573C506.779 905.19 497.672 910.06 497.591 903.739C497.381 886.773 503.575 870.667 515.258 858.449Z" fill="#CBCCCE"/>
<path d="M637.247 914.018C641.439 909.907 647.251 916.914 643.086 920.997C638.452 925.535 634.072 930.303 629.983 935.347C627.997 937.79 626.031 940.279 624.215 942.859C624.067 943.071 623.83 943.568 623.593 943.897C623.995 943.955 624.392 944.02 624.506 944.015C634.321 943.612 644.426 937.388 650.638 930.004C654.38 925.549 661.82 930.762 658.038 935.256C653.092 941.138 647.055 945.943 640.044 949.083C634.349 951.631 627.238 960.453 621.022 958.175C617.468 956.873 613.689 947.893 614.06 943.925C614.43 939.957 617.499 936.589 619.81 933.592C625.148 926.654 627.446 915.861 633.684 909.745L637.247 914.018Z" fill="#CBCCCE"/>
<path d="M542.121 844.154C545.665 843.099 548.057 847.127 547.202 849.917C545.186 856.468 543.566 863.112 542.382 869.848L540.471 892.56C540.453 892.774 540.421 892.978 540.379 893.173C540.156 894.726 539.291 895.738 538.181 896.257C536.242 898.21 533.126 898.648 530.42 899.224C527.098 899.933 522.813 901.331 519.632 899.577C516.105 897.633 515.491 894.323 515.814 890.486C516.714 879.8 516.757 872.587 518.113 863.169C518.603 860.971 519.275 858.816 520.754 856.398C522.609 853.366 523.81 851.554 527.093 849.895C531.873 847.482 536.962 845.691 542.121 844.154Z" fill="#E78C3C"/>
<path d="M583.025 984.395C587.895 984.242 594.253 984.612 596.455 989.75C598.127 993.639 597.701 999.052 596.941 1003.12C596.098 1007.67 594.533 1011.87 592.297 1015.91C582.953 1032.82 563.569 1040.05 545.361 1041.24C542.9 1041.4 540.58 1040.25 540.077 1037.59C539.658 1035.37 541.265 1032.4 543.701 1032.25C560.167 1031.18 578.545 1025.18 585.82 1008.75C587.435 1005.1 588.393 1001.27 588.446 997.264C588.457 996.268 588.257 995.267 588.267 994.283C588.25 994.171 588.235 994.06 588.221 993.948C588.094 993.916 587.935 993.866 587.746 993.793C585.745 994.101 583.369 993.401 581.276 993.585C576.285 994.027 571.397 995.542 566.679 997.193C564.339 998.012 562.008 998.861 559.672 999.704C558.58 1000.1 557.492 1000.49 556.4 1000.88C555.704 1001.14 555.003 1001.39 554.308 1001.64C553.641 1003.97 551.466 1005.74 548.683 1004.42C546.074 1003.18 544.569 1000.69 545.601 997.78C546.491 995.268 548.518 994.076 550.866 993.228C556.444 991.221 561.993 989.119 567.638 987.313C572.667 985.706 577.741 984.568 583.025 984.395Z" fill="#CBCCCE"/>
<path d="M600.218 966.912C602.215 965.711 605.414 966.916 606.251 969.065C609.461 977.333 608.247 986.581 606.88 995.13C605.512 1003.68 604.852 1013.25 601.849 1021.37C595.764 1037.83 584.918 1051.65 573.069 1064.49C571.403 1066.29 568.099 1065.68 566.688 1063.95C565.002 1061.89 565.55 1059.33 567.23 1057.51C577.746 1046.12 585.977 1032.58 591.475 1018.05C594.186 1010.88 596.295 1003.46 597.603 995.896C598.136 992.812 598.801 989.365 599.16 985.886C594.49 987.984 589.735 989.966 584.913 991.733C584.866 994.126 583.198 996.616 580.148 996.549C576.741 996.475 573.336 996.401 569.931 996.328C561.885 998.074 547.79 999.507 541.243 993.914C543.738 988.268 544.61 983.579 549.414 984.143C567.957 986.321 584.899 976.153 600.218 966.912Z" fill="#CBCCCE"/>
<path d="M378.577 1061.7C378.148 1070.47 375.67 1079.04 370.946 1086.45C366.335 1093.68 359.999 1099.45 356.102 1107.18C354.983 1109.4 356.687 1112.25 358.782 1113.05C361.293 1114.01 363.495 1112.53 364.6 1110.33C368.563 1102.47 375.693 1096.7 379.976 1088.98C384.508 1080.82 387.144 1071.81 387.603 1062.46C387.89 1056.61 378.872 1055.82 378.583 1061.71L378.577 1061.7Z" fill="#CBCCCE"/>
<path d="M417.703 1057.41C437.686 1068.54 477.793 1084.21 493.592 1067.9C497.638 1063.72 488.989 1053.99 484.904 1058.2C472.435 1071.07 432.69 1063.11 421.776 1048.78C418.221 1044.11 418.087 1052.85 417.703 1057.41Z" fill="#CBCCCE"/>
<path d="M497.747 1119.11C490.996 1124.63 485.06 1130.91 479.945 1138C478.79 1139.6 479.547 1142.72 483.418 1145.52C488.841 1147.64 482.516 1156.24 478.695 1152.86C471.454 1150.02 465.593 1149.71 457.829 1149.42C453.524 1149.26 450.595 1144.16 453.052 1141.52C455.421 1138.97 457.838 1136.23 461.343 1133.03C469.788 1125.3 474.825 1118.61 481.674 1111.62C483.095 1110.17 481.86 1108.2 481.284 1106.13C480.12 1101.95 503.168 1114.68 497.747 1119.11Z" fill="#CBCCCE"/>
<path d="M412.389 1060.53C414.232 1057.76 416.496 1053.73 418.129 1052.34C418.172 1051.83 417.873 1055.38 417.675 1057.74C417.647 1063.61 416.685 1070.69 414.758 1076.25C414.617 1076.65 414.47 1077.06 414.318 1077.47C414.022 1079.88 413.3 1082.2 411.724 1084.23C409.083 1087.81 405.082 1089.25 401.157 1088.1C395.542 1086.67 395.13 1083.42 393.895 1079.74C392.379 1075.23 391.374 1070.63 390.882 1065.89C390.204 1059.3 390.748 1053.61 390.748 1053.61C390.748 1053.61 399.435 1066.61 405.27 1067.1C408.781 1067.4 409.498 1064.88 412.389 1060.53Z" fill="#A25831"/>
<path d="M454.864 1240.78L466.5 1246.2C469.052 1247.39 472.43 1249.78 472.984 1246.78C473.464 1244.18 473.326 1242.72 472.995 1240.65C472.724 1238.92 472.188 1238.78 470.632 1238.06L458.996 1232.64C453.716 1230.18 449.572 1238.32 454.864 1240.78Z" fill="#A25831"/>
<path d="M336.72 1124.31C338.961 1127.12 339.335 1130.42 341.682 1133.79C343.091 1135.82 346.006 1141.18 346.006 1141.18L354.617 1134.88C354.617 1134.88 346.907 1122.51 343.643 1118.4C339.983 1113.81 333.072 1119.73 336.72 1124.31Z" fill="#A25831"/>
<path d="M390.859 1088.31C391.214 1086.16 394.466 1081.47 394.466 1081.47C394.466 1081.47 395.341 1083.08 396.258 1084.18C398.374 1086.71 401.04 1089.07 404.529 1087.93C406.291 1087.36 408.443 1087.41 410.258 1085.86C410.803 1085.4 413.107 1082.02 413.107 1082.02C413.107 1082.02 416.027 1088.85 416.267 1092.49C416.419 1094.8 414.222 1098.78 414.222 1098.78C414.222 1098.78 409.466 1097.02 408.317 1096.93C407.314 1096.84 405.733 1097.12 404.856 1098C391.993 1110.86 383.404 1122.89 368.161 1136.92C366.599 1138.35 355.524 1148.1 355.524 1148.1C355.524 1148.1 355.237 1143.03 355.117 1140.92C354.914 1137.34 354.626 1134.76 354.626 1134.76C354.626 1134.76 361.991 1127.11 364.229 1124.34C373.488 1112.88 384.849 1101.87 390.859 1088.31Z" fill="#2B395E"/>
<path d="M481.778 1162.3C483.977 1154.12 507.355 1165.24 510.588 1167.69C515.996 1171.78 524.902 1178.61 519.278 1182.81C513.004 1185.34 505.259 1188.54 501.48 1196.24C500.378 1198.49 499.252 1201.31 498.216 1205.02C496.698 1210.45 492.03 1230.51 487.089 1235.21C483.621 1238.5 478.756 1244.2 476.921 1242C473.25 1237.61 465.959 1230.37 464.583 1220.56C464.369 1219.03 462.399 1209.23 462.224 1206.58C461.62 1197.41 462.173 1189.16 465.509 1184.75C468.037 1179.52 465.776 1177.4 468.378 1175.46C470.327 1174.01 477.108 1176.42 479.445 1176.39C484.445 1172.85 480.33 1167.68 481.778 1162.3Z" fill="#2B395E"/>
<path d="M690.401 937.995C700.186 935.757 699.247 933.636 691.345 953.819C690.738 955.369 690.227 956.954 688.696 958.262C682.838 961.851 674.523 967.339 670.578 969.494C670.128 970.232 667.1 971.709 666.31 972.196C654.136 978.825 640.103 987.541 636.593 1002.84C635.397 1008.05 628.958 1004.24 627.837 1000.89C625.977 995.336 624.771 991.662 622.775 985.371C620.751 978.989 613.678 974.385 615.112 968.398C616.67 961.896 620.81 960.713 622.944 959.362C623.989 958.7 626.219 957.868 631.06 955.891C642.228 951.328 654.456 947.993 665.565 945.035C673.711 942.877 682.262 940.153 690.401 937.995Z" fill="#2B395E"/>
<path d="M443.42 881.616C443.42 881.616 456.59 881.967 464.481 884.571C471.773 886.976 476.006 888.774 481.901 893.727C484.173 895.636 488.062 899.535 492.523 906.544C493.939 908.769 494.502 913.034 494.391 914.355C493.602 915.725 486.773 920.857 483.658 933.862C483.54 934.356 477.464 926.707 474.566 921.871C472.248 918.005 466.145 907.896 462.581 903.863C455.837 901.071 449.181 898.075 442.62 894.867C439.037 893.116 437.747 891.464 434.067 892.95C417.336 899.706 426.352 882.606 426.352 882.606C426.352 882.606 432.184 881.768 432.585 881.746L432.586 881.744C432.595 881.744 432.605 881.744 432.615 881.745C436.159 881.551 443.42 881.616 443.42 881.616Z" fill="#2B395E"/>
<path d="M531.471 893.861C531.287 896.016 531.076 898.56 531.033 899.066C534.085 898.813 539.995 898.028 540.551 894.625C543.569 876.139 549.159 857.729 554.076 841.305C554.076 841.305 549.617 841.784 547.429 842.276C546.215 842.548 543.79 843.501 542.744 843.923C538.466 852.747 532.42 882.785 531.471 893.861Z" fill="#A25831"/>
<path d="M617.86 866.456C621.508 863.178 626.232 865.166 629.045 868.503C632.778 872.933 635.227 880.177 634.799 885.975C634.389 891.572 630.476 898.055 624.085 895.261C619.196 893.119 616.08 886.895 614.949 882.128C613.817 877.361 613.916 870.001 617.86 866.456Z" fill="#A25831"/>
<path d="M553.91 980.838C556.958 981.094 569.275 982.131 574.343 982.558C580.178 983.049 580.281 992.034 573.554 991.942C571.2 991.91 570.017 991.88 568.222 991.82C567.642 995.211 566.927 998.756 565.805 1002.01C567.208 1002.4 568.205 1002.65 569.819 1002.85C574.927 1003.51 575.825 1008.97 571.976 1010.69C570.578 1011.31 568.047 1011.38 566.587 1011.26C559.019 1010.62 556.053 1009.86 550.12 1008.34C548.354 1007.77 545.232 1006.4 544.461 1005.7C541.478 1003.02 543.175 997.071 547.821 997.888C549.575 998.197 551.219 998.674 552.756 999.338C553.436 996.536 554.112 993.754 554.806 990.898C554.358 990.836 551.74 990.433 553.093 990.547C547.141 989.72 546.426 980.209 553.91 980.838Z" fill="#3A547F"/>
<path d="M531.043 951.663L530.756 951.119L528.238 952.759C528.602 953.249 528.967 953.738 529.331 954.227C529.457 954.384 529.604 954.507 529.786 954.583C529.958 954.696 530.147 954.754 530.352 954.765C530.556 954.789 530.758 954.763 530.94 954.68C531.132 954.635 531.303 954.546 531.448 954.405L531.709 954.115C531.867 953.89 531.954 953.641 531.977 953.368L531.957 952.962C531.906 952.701 531.799 952.466 531.628 952.262C531.264 951.773 530.899 951.284 530.535 950.794C530.409 950.637 530.261 950.515 530.08 950.438C529.908 950.326 529.719 950.267 529.514 950.256L529.113 950.277C528.91 950.309 528.734 950.386 528.578 950.507C528.459 950.565 528.361 950.648 528.285 950.758C528.14 950.892 528.036 951.055 527.971 951.251L527.883 951.647C527.86 951.92 527.911 952.182 528.023 952.429L528.31 952.973C528.392 953.157 528.506 953.314 528.659 953.431C528.793 953.576 528.953 953.682 529.148 953.747C529.341 953.824 529.538 953.853 529.747 953.822C529.946 953.826 530.137 953.787 530.321 953.687L530.648 953.476C530.85 953.303 530.996 953.089 531.089 952.84L531.177 952.444C531.2 952.171 531.149 951.91 531.037 951.662L531.043 951.663Z" fill="black"/>
<path d="M559.038 916.833C562.478 916.761 565.891 917.153 569.242 917.93C570.917 918.316 572.613 918.825 574.175 919.409C575.737 919.993 577.468 920.567 577.682 922.493C577.878 924.264 577.651 926.177 577.466 927.941C577.272 929.808 576.942 931.646 576.534 933.47C575.673 937.272 573.133 940.865 569.742 942.854C565.155 945.543 559.514 945.282 554.52 944.165C553.718 943.981 553.374 942.9 553.626 942.206C553.94 941.358 554.771 941.123 555.568 941.3C559.651 942.218 564.26 942.355 568.053 940.321C572.05 938.177 574.197 929.73 574.197 929.73C574.197 929.73 574.423 928.074 574.502 927.245C574.589 926.353 574.646 925.466 574.678 924.576C574.697 924.131 574.717 923.68 574.706 923.239C574.705 923.126 574.721 922.991 574.696 922.879C574.249 922.557 573.498 922.403 572.993 922.221C572.294 921.966 571.587 921.729 570.879 921.51C569.497 921.088 568.096 920.744 566.676 920.49C563.807 919.973 560.863 919.762 557.945 919.896C555.294 920.015 552.404 920.311 549.91 921.306C547.829 922.139 545.691 923.721 545.291 926.102C545.156 926.916 544.531 927.567 543.659 927.494C542.896 927.429 542.15 926.663 542.285 925.849C542.901 922.189 545.731 919.584 549.097 918.375C552.257 917.241 555.598 916.904 559.038 916.833Z" fill="black"/>
<path d="M565.121 928.534C566.894 930.713 568.749 933.792 568.265 936.735C567.657 940.46 561.804 944.068 558.197 942.736C553.402 940.972 548.384 935.075 550.452 929.402C551.084 927.67 551.547 926.151 553.059 925.476C557.904 923.32 561.627 924.238 565.121 928.534Z" fill="black"/>
<path d="M509.294 924.74C511.958 924.53 514.595 925.15 517.03 926.229C519.196 927.188 521.839 928.389 522.468 930.918L522.474 930.907C522.673 931.712 522.028 932.544 521.265 932.688C520.429 932.843 519.702 932.269 519.502 931.47C519.29 930.615 517.939 930.048 517.243 929.683C516.117 929.093 514.893 928.587 513.711 928.237C512.53 927.887 511.281 927.677 510.049 927.72C509.454 927.738 508.852 927.834 508.277 927.981C507.998 928.049 507.736 928.138 507.473 928.244C507.457 928.252 507.393 928.285 507.322 928.322C507.318 928.403 507.313 928.509 507.326 928.622C507.377 929.018 507.429 929.414 507.481 929.809C507.584 930.601 507.699 931.387 507.82 932.174C508.059 933.723 508.323 935.268 508.631 936.798C509.086 939.045 510.795 942.282 512.613 943.947C512.513 943.675 512.386 943.337 512.192 942.896C511.228 940.706 511.051 938.687 511.241 936.182C511.393 934.183 511.573 932.185 512.864 931.314C514.324 930.323 517.471 931.761 518.892 932.592C520.849 933.735 522.327 935.822 523.325 937.93C523.839 939.017 524.229 940.267 524.354 941.526C524.405 941.846 524.442 942.169 524.461 942.496C524.531 943.743 524.398 945.107 523.778 946.217C523.189 947.263 521.465 947.622 519.832 948.131C518.336 948.597 516.764 948.82 515.877 948.788C514.82 948.748 513.825 948.339 512.911 947.835C510.995 946.781 509.319 945.233 508.098 943.412L508.091 943.424C507.966 943.238 507.875 943.042 507.819 942.845C506.76 941.467 506.183 939.687 505.804 938.003C505.171 935.156 504.745 932.24 504.383 929.342C504.202 927.889 504.27 926.507 505.692 925.727C506.765 925.139 508.087 924.834 509.294 924.74Z" fill="black"/>
<path d="M544.59 903.679C545.279 903.694 546.057 903.735 546.701 904.003C547.625 904.392 548.284 905.194 548.213 906.252C548.154 907.103 547.403 907.676 546.582 907.643C546.043 907.622 545.721 906.914 545.367 906.793C544.876 906.625 544.329 906.67 543.813 906.726C543.667 906.738 543.52 906.75 543.379 906.769C543.129 906.797 542.876 906.843 542.63 906.889C542.384 906.936 542.137 906.994 541.894 907.065C540.974 907.291 539.953 907.708 539.335 906.532C538.975 905.847 539.313 904.788 540.051 904.502C541.51 903.933 543.018 903.65 544.59 903.679Z" fill="black"/>
<path d="M512.187 907.184C510.986 907.927 509.792 908.664 508.591 909.407C508.245 909.622 507.971 909.856 507.823 910.253C507.696 910.609 507.697 911.099 507.875 911.438C508.052 911.777 508.341 912.088 508.712 912.211C509.083 912.334 509.541 912.367 509.885 912.157C511.086 911.414 512.281 910.677 513.482 909.935C513.827 909.719 514.101 909.485 514.249 909.088C514.376 908.732 514.375 908.243 514.198 907.904C514.02 907.565 513.732 907.253 513.36 907.13C512.989 907.007 512.532 906.975 512.187 907.184Z" fill="black"/>
<path fill-rule="evenodd" clip-rule="evenodd" d="M546.44 956.642C548.315 956.31 550.367 956.172 552.145 956.994C553.789 957.75 555.14 959.123 555.424 960.993C555.709 962.864 555.054 964.742 553.854 966.2C552.653 967.658 551.06 968.808 549.447 969.761C547.7 970.8 545.651 971.257 543.71 971.155C541.768 971.052 542.03 968.018 543.965 968.12C545.594 968.202 547.07 967.708 548.44 966.833C549.682 966.038 551.01 965.092 551.836 963.841C552.391 963.001 552.781 961.738 552.189 960.795C551.596 959.852 550.414 959.502 549.372 959.433C547.806 959.332 546.212 959.778 544.684 960.084C543.058 960.412 541.425 960.733 539.799 961.061C536.497 961.725 533.189 962.381 529.881 963.045C528.797 963.265 527.317 963.355 526.473 964.171C526.256 964.385 526.222 964.853 526.222 964.853C526.188 965.129 526.451 965.526 526.451 965.526C526.451 965.526 527.592 966.357 527.332 967.075C527.032 967.899 526.177 968.193 525.39 967.981C523.543 967.477 522.887 965.263 523.411 963.571C524.011 961.628 526.008 960.781 527.805 960.37C531.943 959.415 536.14 958.692 540.298 957.862C542.343 957.453 544.387 957.001 546.44 956.642Z" fill="black"/>
<path d="M527.054 963.291C528.016 965.463 529.205 968.669 530.504 970.656C530.702 970.96 531.468 971.53 532.032 971.231C532.758 970.845 533.078 970.808 533.163 969.795C533.249 968.782 530.564 963.74 529.781 961.973C529.461 961.243 528.48 960.873 527.77 961.254C527.06 961.634 526.714 962.504 527.054 963.285L527.054 963.291Z" fill="black"/>
<path d="M538.173 959.959C539.031 959.72 539.75 960.444 539.958 961.302C540.413 963.208 540.769 965.154 541.279 966.924C541.551 967.873 541.419 968.818 540.58 969.132C539.74 969.446 538.948 968.911 538.572 968.035C538.386 967.608 538.292 967.119 538.164 966.662C537.728 965.109 537.317 963.538 536.939 961.962L536.926 961.968C536.708 961.044 537.417 960.163 538.173 959.959Z" fill="black"/>
<path d="M544.432 959.639C545.109 961.311 547.051 965.74 547.728 967.412C548.029 968.152 549.047 968.501 549.739 968.131C550.494 967.724 550.776 966.891 550.455 966.1C549.778 964.429 547.836 959.999 547.159 958.328C546.858 957.587 545.84 957.239 545.148 957.608C544.393 958.016 544.111 958.848 544.432 959.639Z" fill="black"/>
<path d="M481.203 1155.11C485.747 1158.05 488.443 1161.37 489.407 1166.33C490.55 1172.25 487.529 1177.71 481.908 1179.73C469.323 1184.25 456.702 1176.25 446.859 1169.14C444.649 1167.55 441.647 1163.01 441.647 1163.01C441.647 1163.01 451.582 1166.47 454.89 1167.69C460.279 1169.68 469.125 1170.07 471.611 1167.06C475.548 1162.29 461.558 1154.48 461.686 1152.96C461.686 1152.96 474.711 1150.91 481.203 1155.11Z" fill="#A25831"/>
<rect width="672" height="1457" fill="black" fill-opacity="0.3"/>
</g>
<defs>
<linearGradient id="paint0_linear_3082_5" x1="683.832" y1="-135.311" x2="-326.142" y2="1614.01" gradientUnits="userSpaceOnUse">
<stop stop-color="#E8D0C1"/>
<stop offset="1" stop-color="#EFB380"/>
</linearGradient>
<linearGradient id="paint1_linear_3082_5" x1="197.861" y1="439.279" x2="-393.564" y2="1463.66" gradientUnits="userSpaceOnUse">
<stop stop-color="#E8D0C1"/>
<stop offset="0.24" stop-color="#E8CDBC"/>
<stop offset="0.5" stop-color="#E9C8AF"/>
<stop offset="0.77" stop-color="#ECBE99"/>
<stop offset="1" stop-color="#EFB380"/>
</linearGradient>
<linearGradient id="paint2_linear_3082_5" x1="108.903" y1="1022.47" x2="795.183" y2="1022.47" gradientUnits="userSpaceOnUse">
<stop stop-color="#E8D0C1"/>
<stop offset="1" stop-color="#EFB380"/>
</linearGradient>
<linearGradient id="paint3_linear_3082_5" x1="229.299" y1="795.571" x2="1305.39" y2="795.571" gradientUnits="userSpaceOnUse">
<stop stop-color="#E6D1A3"/>
<stop offset="1" stop-color="white"/>
</linearGradient>
<linearGradient id="paint4_linear_3082_5" x1="533.525" y1="1015.2" x2="1177.65" y2="1015.2" gradientUnits="userSpaceOnUse">
<stop stop-color="#E6D1A3"/>
<stop offset="1" stop-color="white"/>
</linearGradient>
<linearGradient id="paint5_linear_3082_5" x1="306.742" y1="1319.35" x2="1088.32" y2="1319.35" gradientUnits="userSpaceOnUse">
<stop stop-color="#E6D1A3"/>
<stop offset="1" stop-color="white"/>
</linearGradient>
<linearGradient id="paint6_linear_3082_5" x1="-442.962" y1="242.707" x2="84.5848" y2="242.707" gradientUnits="userSpaceOnUse">
<stop stop-color="#E6D1A3"/>
<stop offset="1" stop-color="white"/>
</linearGradient>
<linearGradient id="paint7_linear_3082_5" x1="361.701" y1="155.823" x2="793.843" y2="155.823" gradientUnits="userSpaceOnUse">
<stop stop-color="#E6D1A3"/>
<stop offset="1" stop-color="white"/>
</linearGradient>
<linearGradient id="paint8_linear_3082_5" x1="-248.123" y1="1202.09" x2="49.1255" y2="1202.09" gradientUnits="userSpaceOnUse">
<stop stop-color="#E6D1A3"/>
<stop offset="1" stop-color="white"/>
</linearGradient>
<linearGradient id="paint9_linear_3082_5" x1="361.701" y1="1022.47" x2="613.156" y2="1022.47" gradientUnits="userSpaceOnUse">
<stop stop-color="#E6D1A3"/>
<stop offset="1" stop-color="white"/>
</linearGradient>
<linearGradient id="paint10_linear_3082_5" x1="-189.145" y1="1385.07" x2="775.141" y2="1385.07" gradientUnits="userSpaceOnUse">
<stop stop-color="#E6D1A3"/>
<stop offset="1" stop-color="white"/>
</linearGradient>
<linearGradient id="paint11_linear_3082_5" x1="372.895" y1="629.977" x2="837.663" y2="629.977" gradientUnits="userSpaceOnUse">
<stop stop-color="#E6D1A3"/>
<stop offset="1" stop-color="white"/>
</linearGradient>
<linearGradient id="paint12_linear_3082_5" x1="-214.774" y1="155.702" x2="213.993" y2="155.702" gradientUnits="userSpaceOnUse">
<stop stop-color="#E6D1A3"/>
<stop offset="1" stop-color="white"/>
</linearGradient>
<linearGradient id="paint13_linear_3082_5" x1="250.014" y1="500.636" x2="1074.68" y2="500.636" gradientUnits="userSpaceOnUse">
<stop stop-color="white"/>
<stop offset="1" stop-color="white" stop-opacity="0"/>
</linearGradient>
<clipPath id="clip0_3082_5">
<rect width="672" height="1456.85" fill="white"/>
</clipPath>
<clipPath id="clip1_3082_5">
<rect width="1433.21" height="1478.7" fill="white" transform="translate(-537.758)"/>
</clipPath>
</defs>
</svg>
