<svg width="601" height="626" viewBox="0 0 601 626" fill="none" xmlns="http://www.w3.org/2000/svg">
<path d="M538.347 504.834C461.722 421.676 355.04 404.059 320.449 443.655C285.858 483.251 289.81 533.515 304.097 539.12C355.596 559.322 535.667 621.463 545.972 609.878C561.683 592.215 550.729 526.288 538.347 504.834Z" fill="url(#paint0_linear_3078_4003)"/>
<path d="M405.086 448.086L387.149 468.431C387.149 468.431 394.931 456.925 391.54 454.301C379.554 445.026 366.144 429.395 361.59 423.346L405.086 448.086Z" fill="#8693A7"/>
<path d="M493.501 412.564C487.94 445.031 452.761 463.257 414.345 456.676C375.921 448.344 348.821 421.201 354.382 388.734C359.943 356.268 406.486 340.213 453.773 358.161C478.374 367.499 499.063 380.098 493.501 412.564Z" fill="#87BEEA"/>
<g style="mix-blend-mode:multiply" opacity="0.17">
<path d="M510.184 417.431C504.623 449.898 469.444 468.124 431.027 461.543C395.314 451.446 361.228 429.104 372.457 396.975C374.637 390.738 379.644 379.091 383.452 373.691C400.86 349.008 409.625 333.139 450.373 348.605C474.974 357.943 515.745 384.965 510.184 417.431Z" fill="#527D9E"/>
</g>
<path d="M385.018 388.839C391.296 374.682 389.864 360.545 400.787 353.023C420.894 339.177 436.852 339.018 461.572 343.301C492.851 348.721 523.326 371.386 527.451 393.322C531.576 415.257 527.175 439.672 517.763 449.878C500.651 468.434 486.316 468.565 471.025 468.353C448.814 468.046 406.366 456.253 397.866 451.884C379.352 442.367 371.254 428.285 372.675 419.991C375.661 402.556 379.425 401.45 385.018 388.839Z" fill="#308AC1"/>
<path d="M472.202 434.633C476.361 446.144 465.165 451.591 455.097 451.399C450.304 451.308 439.185 447.142 434.463 447.865C420.532 449.998 407.777 448.984 409.307 440.054C411.237 428.786 425.271 424.421 441.24 423.639C455.152 422.958 468.542 424.505 472.202 434.633Z" fill="#BDBFC0"/>
<path d="M455.893 416.082C453.326 416.476 450.408 404.341 450.997 399.923L466.641 400.633L492.566 395.007C492.718 399.235 487.142 410.054 483.928 414.756C474.988 414.538 455.893 416.082 455.893 416.082Z" fill="#BDBFC0"/>
<path d="M404.309 366.976C398.397 368.765 394.959 376.39 394.673 379.77C392.742 391.039 407.538 402.108 405.988 399.654C404.748 397.691 414.17 391.645 418.583 388.462C410.466 381.15 407.418 376.416 404.309 366.976Z" fill="#BDBFC0"/>
<path d="M458.454 417.616C459.033 417.53 459.615 417.448 460.195 417.371C461.355 417.216 462.517 417.081 463.677 416.967C465.95 416.74 468.218 416.594 470.482 416.519C475.04 416.369 479.566 416.522 484.042 416.954C485.827 417.124 486.301 414.195 484.514 414.024C479.398 413.533 474.214 413.406 469 413.672C466.49 413.8 463.971 414.013 461.456 414.311C460.149 414.466 458.843 414.643 457.538 414.847C456.283 415.042 455.43 415.323 454.727 416.538C454.311 417.256 454.788 418.16 455.413 418.393C456.058 418.635 457.719 417.723 458.454 417.616Z" fill="black"/>
<path d="M393.116 378.839C393.536 383.401 394.117 388.063 396.174 392.019C398.153 395.827 401.146 398.758 404.882 400.725C406.398 401.523 407.558 398.801 406.056 398.01C402.785 396.287 400.075 393.481 398.464 390.08C396.75 386.464 396.271 382.34 395.893 378.253C395.727 376.45 392.949 377.028 393.116 378.839Z" fill="black"/>
<path d="M443.834 382.385C442.006 386.332 441.21 390.563 441.484 394.692C441.601 396.453 444.238 395.875 444.121 394.111C443.88 390.447 444.611 386.754 446.231 383.259C447.01 381.578 444.612 380.706 443.834 382.385Z" fill="black"/>
<path d="M458.768 422.33C465.844 423.722 474.119 427.123 474.759 435.603C475.411 444.244 467.376 450.547 460.082 453.184C458.338 453.813 456.882 451.807 458.642 451.17C462.251 449.866 465.944 447.997 468.52 444.85C471.064 441.743 472.254 437.775 470.913 434.248C469.474 430.46 467.37 428.53 463.685 427.231C463.671 427.283 463.655 427.335 463.635 427.387C461.254 433.852 458.78 440.287 456.216 446.691C455.533 448.395 452.583 447.42 453.226 445.718C455.655 439.271 458.261 432.885 460.644 426.415C460.645 426.413 460.646 426.411 460.647 426.409C458.586 425.874 457.214 425.664 455.254 425.397C450.355 424.729 445.958 424.655 440.918 425.097C440.204 430.839 439.264 437.879 438.548 443.204C438.306 445.003 435.068 444.808 435.307 443.02C436.097 437.134 436.888 431.246 437.68 425.36C437.681 425.351 437.683 425.341 437.684 425.332C436.715 425.454 435.745 425.597 434.776 425.761C431.347 426.341 428.763 427.044 425.398 428.126C424.425 428.439 423.446 428.778 422.476 429.16C422.834 434.172 423.474 439.119 424.4 443.989C424.73 445.726 421.176 446.412 420.85 444.697C419.961 440.029 419.336 435.287 418.972 430.487C417.646 431.166 416.454 431.506 415.288 432.477C412.749 434.595 410.549 437.861 410.644 441.159C410.755 444.989 418.603 448.432 418.603 448.432C418.603 448.432 416.926 450.552 414.123 449.28C410.515 447.644 407.524 445.776 407.143 441.923C406.72 437.647 409.236 433.278 412.494 430.363C415.562 427.619 419.35 426.049 423.067 424.818C427.014 423.511 431.039 422.552 435.072 421.94C443.067 420.725 451.114 420.824 458.768 422.33Z" fill="black"/>
<path d="M413.809 410.306C413.935 411.459 414.061 412.611 414.187 413.764C414.38 415.537 417.116 414.965 416.921 413.184C416.795 412.031 416.669 410.879 416.543 409.726C416.35 407.953 413.615 408.525 413.809 410.306Z" fill="black"/>
<path fill-rule="evenodd" clip-rule="evenodd" d="M401.046 365.816C400.273 364.216 402.932 362.928 403.701 364.514C406.176 369.627 409.019 374.511 412.215 379.125C413.645 381.188 415.516 384.068 417.764 385.288C419.387 386.168 421.96 386.36 423.507 384.694L423.502 384.692C424.815 383.279 426.982 384.888 425.655 386.317C423.637 388.492 420.91 389.217 418.308 388.657C416.715 388.315 415.38 387.485 414.217 386.428C413.063 388.264 409.826 390.069 407.755 390.769C404.643 391.821 401.595 390.914 399.557 388.704C397.471 386.443 396.654 383.056 397.288 379.779C397.922 376.509 401.188 373.127 403.572 370.745C402.694 369.124 401.851 367.481 401.046 365.816Z" fill="black"/>
<path fill-rule="evenodd" clip-rule="evenodd" d="M492.254 391.774C493.176 391.501 493.909 392.402 493.78 393.282C493.204 397.202 492.054 401.071 490.357 404.756C489.544 406.522 486.979 405.597 487.792 403.83C489.085 401.021 490.032 398.14 490.63 395.186C486.081 396.499 481.513 397.692 476.932 398.761C476.881 399.64 476.549 400.613 476.312 401.344C474.25 407.698 467.594 413.529 461.369 413.517C458.402 413.512 455.128 412.5 453.308 410.199C451.869 408.382 452.379 404.612 452.833 402.285C449.498 401.747 446.274 399.415 447.031 395.401L447.035 395.399C447.389 393.523 450.179 393.68 449.826 395.555C449.21 398.812 454.975 399.609 457.435 399.448C461.241 399.201 465.097 398.358 468.889 397.593C476.719 396.016 484.515 394.067 492.254 391.774Z" fill="black"/>
<path d="M411.533 386.16C411.191 388.156 407.992 390.368 404.35 389.744C400.708 389.121 398.567 386.432 398.909 384.435C399.251 382.439 401.436 384.868 405.078 385.492C408.72 386.116 411.874 384.164 411.533 386.16Z" fill="#24303F"/>
<path d="M471.005 405.814C471.369 407.806 468.489 411.097 464.01 411.914C459.531 412.731 456.011 411.047 455.647 409.054C455.283 407.062 458.755 408.487 463.234 407.67C467.713 406.853 470.641 403.822 471.005 405.814Z" fill="#24303F"/>
<path d="M406.596 377.436C406.375 378.727 404.98 380.004 403.57 379.763C402.16 379.521 401.27 377.853 401.491 376.561C401.712 375.27 403.18 373.568 404.59 373.809C406 374.051 406.817 376.144 406.596 377.436Z" fill="#BDBFC0"/>
<path d="M459.185 404.123C459.098 405.43 457.87 406.413 456.443 406.317C455.015 406.221 453.93 405.084 454.017 403.776C454.105 402.469 455.26 402.562 456.688 402.658C458.115 402.754 459.273 402.815 459.185 404.123Z" fill="#BDBFC0"/>
<path d="M419.997 356.148C422.038 344.233 426.206 344.224 430.217 341.395C447.764 346.485 490.486 360.224 483.581 363.319C476.677 366.413 469.691 381.099 469.582 388.8C459.901 382.683 456.966 380.645 453.233 374.315L451.011 387.285C438.105 378.624 434.701 368.734 434.701 368.734L433.026 378.514C424.82 372.898 418.322 365.928 419.997 356.148Z" fill="#323B72"/>
<path d="M499.974 388.835C466.829 355.604 413.967 351.926 386.87 355.017C398.208 342.515 427.59 315.987 457.988 319.489C504.798 324.881 540.422 338.976 561.202 375.249C574.687 398.788 548.985 482.364 499.666 482.671L466.874 468.3C502.361 466.938 541.833 430.803 499.974 388.835Z" fill="#CBCCCE"/>
<path d="M427.033 346.138C429.69 332.737 459.608 315.712 479.202 318.963C498.797 322.213 515.156 333.439 517.739 334.978C506.089 337.797 473.541 337.124 465.921 354.988C466.361 357.601 465.039 365.253 463.991 366.256C453.638 364.483 426.041 357 424.948 355.412C423.855 353.824 426.266 347.291 427.033 346.138Z" fill="#E78C3C"/>
<path d="M517.74 334.977C477.404 336.393 468.988 345.384 466.249 353.076L463.14 366.113C463.14 366.113 502.382 347.477 517.74 334.977Z" fill="#A25831"/>
<g style="mix-blend-mode:hard-light">
<path d="M365.085 370.981C365.691 369.241 376.022 360.818 378.539 361.467C379.587 361.738 383.17 365.106 382.848 365.708C382.526 366.309 382.314 366.273 381.639 366.376C376.944 367.095 371.606 371.235 369.182 375.185C368.575 376.175 364.654 372.221 365.085 370.981Z" fill="#D9D9D9"/>
</g>
<g style="mix-blend-mode:hard-light">
<path d="M358.674 381.572C358.056 380.065 360.259 376.153 362.89 374.853C363.932 374.338 367.081 377.232 366.51 378.01C364.057 381.35 362.911 383.959 361.588 383.732C360.312 383.514 359.446 383.455 358.674 381.572Z" fill="#D9D9D9"/>
</g>
<path d="M523.446 400.078C523.446 400.078 559.408 404.328 568.791 419.812C574.206 428.748 566.698 461.856 553.256 464.383C540.46 466.789 518.479 462.039 511.255 457.188C528.821 440.282 530.146 412.098 523.446 400.078Z" fill="#E78C3C"/>
<ellipse cx="7.5536" cy="23.5129" rx="7.5536" ry="23.5129" transform="matrix(0.956005 0.293351 -0.29347 0.955968 557.764 415.585)" fill="#A25831"/>
<path opacity="0.07" d="M324.817 547.265C319.645 521.211 355.523 447.256 355.523 447.256C355.523 447.256 307.339 495.904 283.128 531.151L324.817 547.265Z" fill="#999B9E"/>
<path d="M486.233 479.275C503.16 481.769 518.354 473.06 536.218 464.858C532.438 469.025 519.303 486.91 491.645 491.145C468.664 494.664 471.133 500.106 447.291 491.864L449.367 479.745C449.367 479.745 464.532 476.078 486.233 479.275Z" fill="#8693A7"/>
<path d="M436.802 585.05C440.759 567.098 435.714 555.575 416.383 532.967L469.138 542.003L491.632 606.26L436.802 585.05Z" fill="url(#paint1_linear_3078_4003)"/>
<path d="M397.689 451.633C401.762 453.704 404.329 454.565 408.599 455.69C394.115 474.842 381.928 500.898 374.051 523.104C388.663 528.579 405.661 535.398 421.259 542.431C409.156 540.848 392.311 534.772 390.604 539.112C389.726 541.347 399.458 551.717 403.358 558.605C393.506 551.455 381.191 543.362 369.857 535.887C366.702 546.404 364.819 555.3 364.493 561.064L354.574 557.614C353.059 551.854 355.157 541.348 359.314 528.899C346.12 520.078 336.33 513.08 337.093 511.139C337.366 510.446 347.877 513.641 362.882 519.011C372.115 495.043 386.777 467.068 397.689 451.633Z" fill="url(#paint2_linear_3078_4003)"/>
<path d="M486.724 504.528C489.534 529.302 471.761 537.505 451.263 540.255C441.239 541.6 427.08 536.988 427.08 536.988C427.08 536.988 435.311 545.542 441.761 552.152C462.201 573.098 459.241 593.34 480.662 607.664C495.795 617.784 536.475 622.873 542.466 616.281C552.118 605.66 558.936 590.59 558.539 576.139C558.067 558.986 555.516 555.542 544.935 539.23C537.476 527.73 518.874 519.926 505.99 514.52L505.853 514.463C497.232 510.846 486.724 504.528 486.724 504.528Z" fill="url(#paint3_linear_3078_4003)"/>
<path d="M536.177 623.331C526.782 623.361 519.572 626.946 508.645 624.598C497.893 621.826 496.957 619.628 484.862 615.419C482.489 614.484 480.15 613.328 477.897 611.799C469.162 606.014 464.325 597.425 461.469 593.944C457.828 589.45 460.127 587.58 456.318 581.001C452.533 574.44 450.953 570.428 448.203 564.583C447.022 562.085 444.258 557.651 440.422 553.458C435.231 547.746 429.345 541.672 425.944 539.072C425.762 538.937 425.553 538.768 425.376 538.627L427.812 534.74C434.64 535.935 442.073 539.088 446.914 539.531C448.454 539.691 449.677 539.808 450.633 539.91C451.038 539.953 451.243 540.108 451.267 540.288C451.267 540.288 451.267 540.288 451.267 540.288C451.298 540.51 451.04 540.772 450.512 540.854C447.967 541.266 444.129 541.57 439.489 541.701C433.241 541.796 431.22 540.676 426.384 539.124L428.698 535.431C429.991 536.836 431.627 538.497 433.972 540.608C437.819 544.071 441.129 546.73 444.407 549.569C448.411 553.09 452.205 557.283 455.634 563.92C461.81 575.974 465.315 578.409 472.571 593.769C475.844 599.686 479.576 602.354 483.051 604.092C488.17 606.335 493.264 606.586 503.538 608.789C509.74 610.048 516.629 611.355 523.323 612.118C526.659 612.494 529.934 612.734 532.891 612.687C534.353 612.664 535.728 612.563 536.829 612.376C537.364 612.288 537.828 612.175 538.108 612.092C538.381 612.026 538.425 611.949 538.112 612.324C541.064 609.415 543.308 606.458 544.745 604.035C548.899 597.053 552.733 586.96 552.609 576.302C552.563 573.279 552.488 570.304 552.233 567.443C551.949 559.232 546.081 551.566 540.005 542.428C536.767 537.644 531.009 533.505 525.386 529.774C519.524 525.867 511.879 521.967 504.256 518.269C496.866 514.614 490.456 510.466 485.265 506.954L489.537 504.209C489.694 507.21 489.554 509.908 489.246 512.104C486.799 523.966 484.559 527.107 475.663 534.331C470.207 538.305 461.195 540.603 453.731 540.552C449.956 540.523 450.729 539.634 454.301 538.685C459.506 537.267 463.832 536.382 466.027 534.51C470.278 530.649 471.669 529.377 476.879 526.191C482.01 522.407 480.383 518.27 481.411 515.261C481.968 512.877 483.407 512.353 482.801 504.973L481.685 497.168L488.758 501.145C491.345 502.686 495.059 504.699 500.317 507.013C502.956 508.167 505.439 509.177 507.729 509.992C522.757 515.265 531.811 519.788 538.033 523.918C541.24 526.092 546.003 529.782 549.885 536.019C553.542 542.348 558.35 549.211 561.432 557.153C563.444 562.18 564.227 569.215 564.409 575.978C565.01 589.996 558.591 603.767 554.988 610.316C551.667 616.437 549.325 618.32 546.813 620.232C542.94 623.345 540.172 623.011 536.177 623.331Z" fill="url(#paint4_linear_3078_4003)"/>
<path d="M353.436 462.569C353.343 460.948 354.769 457.428 357.449 456.315C359.857 455.316 383.326 466.042 383.434 467.473C383.542 468.903 381.517 473.85 380.008 474.415C379.002 474.792 371.556 470.849 371.556 470.849C370.086 475.321 368.847 477.765 365.995 482.014C365.995 482.014 374.09 484.342 374.427 485.693C374.765 487.045 371.551 493.553 369.607 493.22C366.977 492.77 344.257 481.889 343.668 480.425C343.008 478.783 346.874 474.078 348.332 473.813C349.79 473.547 356 477.832 356 477.832C356.008 477.112 362.479 467.37 362.323 467.032C362.018 466.373 353.483 463.4 353.436 462.569Z" fill="#3A547F"/>
<path d="M360.841 474.337C365.005 489.105 364.204 497.578 354.29 509.071C347.386 517.076 340.776 522.398 333.915 526.274C326.257 530.601 315.416 545.476 306.375 547.921C297.333 550.367 262.71 528.841 269.607 514.336C273.491 506.169 272.216 474.471 277.508 468.21C281.218 463.822 286.489 461.601 286.489 461.601C286.489 461.601 289.541 451.522 295.008 446.258C306.345 435.343 316.838 434.569 331.144 442.38C341.559 448.067 357.21 461.459 360.841 474.337Z" fill="url(#paint5_linear_3078_4003)"/>
<path d="M270.259 493.204C270.09 499.923 267.359 506.226 265.572 512.237C265.55 512.295 265.53 512.346 265.512 512.391C263.136 518.199 264.984 521.786 266.265 524.465C267.748 527.196 269.537 529.734 272.825 533.693C279.662 541.765 289.131 545.84 292.958 548.439C297.056 550.911 297.704 549.685 304.984 550.904C305.631 550.939 306.411 550.9 307.137 550.74C313.49 549.052 316.009 546.013 319.395 542.262C322.165 539.299 328.732 531.075 334.7 527.661C337.013 526.444 339.01 525.323 340.471 524.647C346.287 522.014 350.233 515.701 352.635 512.363C353.41 511.319 353.937 510.426 354.291 509.708C354.441 509.403 354.402 509.168 354.265 509.05C354.265 509.05 354.265 509.05 354.265 509.05C354.265 509.05 354.265 509.05 354.265 509.05C354.265 509.05 354.265 509.05 354.265 509.05C354.094 508.903 353.773 508.938 353.478 509.234C352.042 510.674 349.726 512.698 346.634 514.574C340.837 517.887 341.43 519.783 333.572 523.881C333.305 524.011 333.039 524.138 332.777 524.26C324.475 528.874 320.596 532.744 313.655 539.876C310.569 543.011 307.731 544.253 305.441 544.468C303.783 544.278 299.329 542.794 291.878 539.913C285.155 537.169 282.166 534.15 279.71 531.129C277.46 528.099 274.709 524.448 273.501 519.596C273.272 518.333 273.332 517.331 273.747 516.303C278.099 500.168 275.551 486.207 277.223 478.415C277.653 475.6 278.379 471.697 279.637 470.008C281.537 467.705 284.496 465.502 287.514 464.034L288.702 463.501L289.017 462.366C290.086 458.83 291.633 454.965 293.652 451.571C294.461 450.223 295.403 448.916 296.5 447.806C300.466 443.807 305.509 440.183 311.311 439.305C317.104 438.355 323.231 440.245 328.655 442.742C329.262 443.021 329.848 443.301 330.471 443.613C342.803 449.648 356.428 463.198 359.533 471.499C359.986 472.531 360.34 473.503 360.61 474.402C362.378 480.9 363.409 483.595 362.947 491.365C362.613 496.502 359.369 503.038 355.534 507.58C353.613 509.888 354.071 509.373 355.979 507.045C358.764 503.602 360.502 500.391 361.4 498.292C363.084 494.085 363.696 492.05 363.453 486.275C362.921 480.525 362.334 477.832 361.525 474.581C361.487 474.44 361.449 474.306 361.413 474.176C360.174 471.528 361.48 469.805 351.004 457.07C343.547 448.785 337.04 444.151 331.872 441.049C329.037 439.391 326.582 438.215 324.371 437.346C321.29 436.14 315.964 434.586 310.01 435.633C304.035 436.599 298.52 440.297 294.43 443.857C294.129 444.116 293.816 444.391 293.492 444.684C289.511 448.334 286.275 454.328 283.991 460.845L285.476 459.196C281.439 460.963 278.038 463.327 275.313 466.355C271.864 471.276 271.953 474.787 271.167 477.414C269.358 486.145 270.439 486.218 270.259 493.204Z" fill="url(#paint6_linear_3078_4003)"/>
<path d="M312.205 526.284C302.243 528.9 271.957 513.262 271.957 513.262C271.957 513.262 268.276 519.416 270.355 522.617C280.515 543.835 303.769 548.694 305.932 548.846C308.096 548.998 313.972 544.095 315.467 543.038C316.961 541.981 329.024 530.255 331.071 528.64C333.349 526.842 340.745 523.294 345.624 519.096C365.343 504.965 365.6 486.844 362.024 477.04C362.727 494.669 324.816 522.973 312.205 526.284Z" fill="url(#paint7_linear_3078_4003)"/>
<path d="M293.74 457.684C294.505 453.219 309.677 440.061 319.888 441.809C326.013 442.859 339.727 452.539 333.073 453.041C326.418 453.542 310.989 464.359 305.915 464.584C301.855 464.764 292.855 462.852 293.74 457.684Z" fill="#E9AE8F"/>
<path d="M388.573 481.432C385.647 497.518 387.351 506.428 399.03 517.625C416.244 534.129 430.323 540.171 448.978 543.367C465.662 546.225 496.17 528.18 501.117 515.093C502.632 511.082 489.331 508.478 486.686 504.742C481.117 496.874 485.132 475.749 478.885 469.638C474.506 465.356 463.518 462.166 463.518 462.166C463.518 462.166 458.378 451.533 452.045 446.498C438.915 436.057 426.819 443.295 412.429 453.021L412.387 453.049C401.925 460.121 391.122 467.423 388.573 481.432Z" fill="#E78C3C"/>
<path d="M487.156 496.183C487.336 498.95 488.471 501.463 489.894 502.473C489.957 502.269 490.618 502.584 491.39 502.772C492.175 502.989 493.102 503.216 494.109 503.486C496.148 504.058 498.403 504.629 501.3 506.348C502.412 507.049 503.546 507.79 504.792 509.256C505.417 510.02 506.113 511.047 506.493 512.536C506.895 514.037 506.692 515.803 506.166 517C502.872 522.875 500.226 524.199 494.185 530.248C486.16 537.887 475.786 541.403 471.675 544.045C467.436 546.693 466.154 544.424 459.557 546.544C455.432 547.732 451.878 547.944 448.333 547.128C446.399 546.647 444.481 546.016 442.341 545.176C436.653 543.495 420.394 536.305 414.429 533.434C408.068 531.077 403.729 524.444 400.95 521.081C400.059 520.029 399.453 519.118 399.035 518.361C398.858 518.04 398.901 517.76 399.059 517.595C399.059 517.595 399.059 517.595 399.059 517.595C399.059 517.595 399.06 517.595 399.06 517.595C399.06 517.595 399.06 517.595 399.06 517.595C399.257 517.389 399.632 517.361 399.978 517.642C401.646 518.993 404.331 520.86 407.835 522.49C414.37 525.365 413.664 527.658 422.158 531.599C430.798 535.176 436.25 535.424 446.639 538.862C447.692 539.193 448.677 539.437 449.619 539.621C457.028 540.313 459.667 536.959 472.772 533.764C487.016 528.826 487.972 523.849 495.081 514.086C495.275 513.716 495.456 513.326 495.584 513.003C495.316 513.647 495.237 514.803 495.492 515.584C495.728 516.367 496.032 516.699 496.145 516.828C496.387 517.056 496.129 516.756 495.751 516.504C494.958 515.944 493.689 515.259 492.357 514.565C491.01 513.86 489.557 513.129 487.992 512.221C486.417 511.197 484.767 510.595 482.56 507.66C476.762 494.673 480.165 486.322 478.941 480.745C478.63 477.629 477.873 473.586 476.419 472.157C473.622 469.486 467.924 467.066 462.63 465.222L461.196 464.762L460.651 463.55C459.758 461.583 458.627 459.421 457.462 457.404C455.608 454.226 453.29 450.921 450.43 448.527C442.893 441.367 431.452 443.568 422.355 448.871C419.479 450.386 416.401 452.238 413.233 454.208C401.768 460.569 391.115 470.876 389.607 478.626C389.294 479.644 389.062 480.589 388.878 481.487C387.603 488.734 386.794 491.637 388.116 499.878C389.018 505.237 393.085 511.777 397.573 516.18C399.824 518.418 399.293 517.92 397.048 515.663C393.77 512.324 391.609 509.123 390.436 507.014C388.202 502.773 387.309 500.702 386.952 494.586C386.909 488.473 387.187 485.577 387.698 482.061C387.743 481.79 387.788 481.538 387.833 481.297C388.125 479.856 388.341 478.821 389.262 476.177C390.255 473.606 391.88 469.091 397.775 462.946C402.785 457.847 407.651 454.558 411.524 451.683C417.679 447.168 422.218 444.192 426.132 442.234C428.796 440.922 433.014 439.087 438.331 438.968C443.668 438.761 449.441 441.181 453.633 444.503C455.314 445.795 456.721 447.211 457.992 448.598C460.692 451.557 463.673 455.761 466.36 460.793L464.398 459.136C470.235 460.902 476.09 462.58 481.418 467.051C486.187 472.413 485.84 476.935 486.66 479.814C488.323 489.179 486.792 489.179 487.156 496.183Z" fill="#A25831"/>
<path d="M399.015 520.582C376.415 499.124 385.88 482.221 392.745 470.266C390.015 493.872 396.185 502.589 403.996 509.399C414.991 518.983 424.201 521.832 430.072 525.902C434.783 527.803 452.686 533.905 465.384 531.951C481.801 529.424 499.913 514.448 499.913 514.448C499.913 514.448 493.406 525.589 490.447 528.803C482.973 536.92 454.464 552.731 440.428 551.093C432.598 540.56 410.574 531.557 399.015 520.582Z" fill="#A25831"/>
<path d="M397.767 474.19C398.532 469.726 422.004 451.032 429.03 448.906C431.801 448.067 442.087 454.489 435.744 460.844C429.4 467.198 413.511 481.985 408.436 482.21C404.376 482.39 396.882 479.358 397.767 474.19Z" fill="#E9AE8F"/>
<g style="mix-blend-mode:multiply" opacity="0.3">
<path d="M434.332 396.144C435.349 400.802 435.726 406.541 425.387 408.795C422.723 409.376 417.82 410.685 418.438 407.605C419.056 404.525 422.896 402.644 427.044 399.118C429.912 396.68 433.315 391.486 434.332 396.144Z" fill="#251D51"/>
</g>
<mask id="path-44-outside-1_3078_4003" maskUnits="userSpaceOnUse" x="-1.20145" y="-1.93079" width="455.434" height="439.347" fill="black">
<rect fill="white" x="-1.20145" y="-1.93079" width="455.434" height="439.347"/>
<path d="M158.032 160.743C164.548 131.113 186.372 105.927 211.471 90.4015C236.573 74.877 264.804 67.7508 292.622 62.5122C303.036 60.5509 313.882 58.8486 323.586 62.0307C333.29 65.215 341.488 74.707 340.272 85.9093C338.48 102.44 319.291 111.075 303.903 111.583C288.515 112.091 272.005 108.985 258.409 118.092C243.086 128.353 238.315 149.437 235.106 167.987C234.825 169.603 234.566 171.363 235.283 172.715C236.302 174.629 238.758 174.868 240.886 174.917C264.033 175.457 289.54 177.513 304.09 195.504C312.966 206.482 316.192 221.73 323.692 233.883C335.184 252.508 356.706 264.109 361.186 286.43C363.126 296.093 361.528 306.817 364.803 315.937C367.481 323.395 373.377 329.926 372.26 338.185C370.943 347.938 359.424 354.151 350.906 351.56C342.385 348.97 337.042 340.218 334.711 331.048C332.383 321.878 332.439 312.005 331.147 302.509C330.485 297.652 329.355 292.653 326.241 289.265C323.054 285.799 318.298 284.554 314.321 282.15C307.384 277.958 303.002 270.377 296.964 264.885C290.926 259.394 281.306 256.307 274.457 262.001C290.105 299.492 279.033 349.931 248.52 380.179C241.801 381.746 237.006 373.672 237.537 366.412C238.068 359.152 241.819 352.33 243.554 345.17C250.316 317.267 225.864 293.635 227.277 265.36C222.416 265.885 217.557 266.409 212.696 266.934C211.913 288.976 211.041 311.521 203.453 332.704C195.868 353.887 180.149 373.816 159.879 379.646C154.119 381.303 146.499 380.626 145.234 374.653C144.432 370.864 146.722 366.904 148.741 363.382C164.677 335.592 169.816 301.666 162.565 272.105C160.07 261.933 154.92 251.144 145.189 249.332C136.473 247.709 127.651 253.919 120.02 259.811C101.434 274.158 82.9043 288.592 64.4257 303.109C57.8954 296.521 47.8574 295.803 39.1416 292.885C30.4258 289.967 21.6576 282.077 23.9304 272.104C26.3195 261.615 38.2687 257.607 47.4207 252.682C55.9565 248.089 63.4699 240.986 68.834 232.436C74.3701 223.614 77.5492 213.509 82.4099 204.282C96.9349 176.71 127.501 158.938 155.467 161.803"/>
</mask>
<path d="M158.032 160.743C164.548 131.113 186.372 105.927 211.471 90.4015C236.573 74.877 264.804 67.7508 292.622 62.5122C303.036 60.5509 313.882 58.8486 323.586 62.0307C333.29 65.215 341.488 74.707 340.272 85.9093C338.48 102.44 319.291 111.075 303.903 111.583C288.515 112.091 272.005 108.985 258.409 118.092C243.086 128.353 238.315 149.437 235.106 167.987C234.825 169.603 234.566 171.363 235.283 172.715C236.302 174.629 238.758 174.868 240.886 174.917C264.033 175.457 289.54 177.513 304.09 195.504C312.966 206.482 316.192 221.73 323.692 233.883C335.184 252.508 356.706 264.109 361.186 286.43C363.126 296.093 361.528 306.817 364.803 315.937C367.481 323.395 373.377 329.926 372.26 338.185C370.943 347.938 359.424 354.151 350.906 351.56C342.385 348.97 337.042 340.218 334.711 331.048C332.383 321.878 332.439 312.005 331.147 302.509C330.485 297.652 329.355 292.653 326.241 289.265C323.054 285.799 318.298 284.554 314.321 282.15C307.384 277.958 303.002 270.377 296.964 264.885C290.926 259.394 281.306 256.307 274.457 262.001C290.105 299.492 279.033 349.931 248.52 380.179C241.801 381.746 237.006 373.672 237.537 366.412C238.068 359.152 241.819 352.33 243.554 345.17C250.316 317.267 225.864 293.635 227.277 265.36C222.416 265.885 217.557 266.409 212.696 266.934C211.913 288.976 211.041 311.521 203.453 332.704C195.868 353.887 180.149 373.816 159.879 379.646C154.119 381.303 146.499 380.626 145.234 374.653C144.432 370.864 146.722 366.904 148.741 363.382C164.677 335.592 169.816 301.666 162.565 272.105C160.07 261.933 154.92 251.144 145.189 249.332C136.473 247.709 127.651 253.919 120.02 259.811C101.434 274.158 82.9043 288.592 64.4257 303.109C57.8954 296.521 47.8574 295.803 39.1416 292.885C30.4258 289.967 21.6576 282.077 23.9304 272.104C26.3195 261.615 38.2687 257.607 47.4207 252.682C55.9565 248.089 63.4699 240.986 68.834 232.436C74.3701 223.614 77.5492 213.509 82.4099 204.282C96.9349 176.71 127.501 158.938 155.467 161.803" fill="url(#paint8_linear_3078_4003)"/>
<path d="M211.471 90.4015L210.309 88.5427L210.309 88.5427L211.471 90.4015ZM292.622 62.5122L292.981 64.6828L292.981 64.6828L292.622 62.5122ZM323.586 62.0307L324.363 59.9322L324.362 59.932L323.586 62.0307ZM340.272 85.9093L338.027 85.7434L338.027 85.7436L340.272 85.9093ZM258.409 118.092L259.643 119.904L259.643 119.904L258.409 118.092ZM235.106 167.987L237.331 168.292L237.331 168.29L235.106 167.987ZM235.283 172.715L233.273 173.782L233.275 173.785L235.283 172.715ZM240.886 174.917L241.01 172.707L241.01 172.707L240.886 174.917ZM304.09 195.504L305.876 194.099L305.876 194.099L304.09 195.504ZM323.692 233.883L325.634 232.697L325.634 232.697L323.692 233.883ZM361.186 286.43L358.97 286.92L358.97 286.921L361.186 286.43ZM364.803 315.937L366.935 315.147L366.935 315.147L364.803 315.937ZM372.26 338.185L370.023 337.962L370.023 337.962L372.26 338.185ZM350.906 351.56L351.636 349.447L351.635 349.447L350.906 351.56ZM334.711 331.048L332.52 331.643L332.52 331.644L334.711 331.048ZM331.147 302.509L333.385 302.15L333.385 302.15L331.147 302.509ZM326.241 289.265L327.94 287.758L327.94 287.758L326.241 289.265ZM314.321 282.15L315.549 280.259L315.549 280.259L314.321 282.15ZM274.457 262.001L273.028 260.335L271.743 261.403L272.364 262.892L274.457 262.001ZM248.52 380.179L248.978 382.329L249.628 382.177L250.102 381.708L248.52 380.179ZM243.554 345.17L241.358 344.723L241.358 344.723L243.554 345.17ZM227.277 265.36L229.532 265.399L229.658 262.886L227.099 263.162L227.277 265.36ZM212.696 266.934L212.517 264.737L210.509 264.954L210.439 266.926L212.696 266.934ZM203.453 332.704L201.326 332.03L201.326 332.03L203.453 332.704ZM159.879 379.646L159.305 377.526L159.305 377.526L159.879 379.646ZM145.234 374.653L147.446 374.14L147.445 374.14L145.234 374.653ZM148.741 363.382L150.702 364.419L150.702 364.419L148.741 363.382ZM162.565 272.105L164.761 271.526L164.761 271.526L162.565 272.105ZM145.189 249.332L144.701 251.505L144.701 251.505L145.189 249.332ZM120.02 259.811L121.383 261.53L121.383 261.53L120.02 259.811ZM64.4257 303.109L62.7824 304.674L64.1851 306.089L65.8047 304.816L64.4257 303.109ZM23.9304 272.104L26.133 272.521L26.133 272.521L23.9304 272.104ZM47.4207 252.682L46.3814 250.752L46.3811 250.752L47.4207 252.682ZM68.834 232.436L66.9206 231.321L66.9205 231.322L68.834 232.436ZM82.4099 204.282L84.4094 205.247L84.4095 205.247L82.4099 204.282ZM158.032 160.743L160.239 161.144C166.591 132.254 187.929 107.541 212.634 92.2602L211.471 90.4015L210.309 88.5427C184.815 104.312 162.504 129.971 155.826 160.342L158.032 160.743ZM211.471 90.4015L212.634 92.2603C237.351 76.9735 265.227 69.9094 292.981 64.6828L292.622 62.5122L292.262 60.3417C264.381 65.5922 235.795 72.7804 210.309 88.5427L211.471 90.4015ZM292.622 62.5122L292.981 64.6828C303.457 62.71 313.735 61.1534 322.81 64.1293L323.586 62.0307L324.362 59.932C314.029 56.5439 302.616 58.3918 292.262 60.3417L292.622 62.5122ZM323.586 62.0307L322.81 64.1291C331.776 67.0715 339.108 75.7782 338.027 85.7434L340.272 85.9093L342.517 86.0753C343.867 73.6357 334.804 63.3586 324.363 59.9322L323.586 62.0307ZM340.272 85.9093L338.027 85.7436C337.227 93.1255 332.553 98.8637 326.025 102.895C319.472 106.942 311.237 109.131 303.897 109.374L303.903 111.583L303.909 113.793C311.957 113.527 321.01 111.145 328.347 106.614C335.708 102.068 341.525 95.2237 342.517 86.0751L340.272 85.9093ZM303.903 111.583L303.897 109.374C300.125 109.498 296.279 109.401 292.33 109.323C288.409 109.246 284.399 109.188 280.428 109.405C272.474 109.842 264.468 111.393 257.174 116.279L258.409 118.092L259.643 119.904C265.946 115.683 272.994 114.234 280.541 113.82C284.32 113.613 288.172 113.666 292.099 113.744C295.999 113.821 299.987 113.922 303.909 113.793L303.903 111.583ZM258.409 118.092L257.174 116.279C248.972 121.772 243.715 130.081 240.113 139.189C236.513 148.292 234.487 158.395 232.88 167.683L235.106 167.987L237.331 168.29C238.933 159.029 240.899 149.316 244.317 140.674C247.733 132.037 252.523 124.673 259.643 119.904L258.409 118.092ZM235.106 167.987L232.88 167.682C232.741 168.486 232.575 169.487 232.563 170.492C232.55 171.504 232.687 172.678 233.273 173.782L235.283 172.715L237.293 171.648C237.162 171.401 237.07 171.018 237.077 170.409C237.085 169.791 237.189 169.104 237.331 168.292L235.106 167.987ZM235.283 172.715L233.275 173.785C234.133 175.397 235.576 176.215 236.941 176.629C238.262 177.029 239.674 177.102 240.763 177.127L240.886 174.917L241.01 172.707C239.971 172.683 239.09 172.611 238.396 172.401C237.747 172.205 237.453 171.947 237.292 171.646L235.283 172.715ZM240.886 174.917L240.763 177.127C264.055 177.671 288.469 179.803 302.303 196.909L304.09 195.504L305.876 194.099C290.612 175.224 264.012 173.244 241.01 172.707L240.886 174.917ZM304.09 195.504L302.303 196.909C306.538 202.147 309.468 208.458 312.319 215.157C315.135 221.77 317.893 228.819 321.75 235.069L323.692 233.883L325.634 232.697C321.99 226.793 319.386 220.142 316.495 213.349C313.64 206.641 310.518 199.839 305.876 194.099L304.09 195.504ZM323.692 233.883L321.75 235.069C327.638 244.611 336.163 252.444 343.371 260.278C350.687 268.231 356.849 276.354 358.97 286.92L361.186 286.43L363.401 285.939C361.042 274.185 354.204 265.347 346.767 257.263C339.22 249.06 331.238 241.78 325.634 232.697L323.692 233.883ZM361.186 286.43L358.97 286.921C359.9 291.552 359.981 296.426 360.239 301.564C360.492 306.603 360.918 311.845 362.671 316.728L364.803 315.937L366.935 315.147C365.414 310.91 365.001 306.229 364.749 301.21C364.502 296.29 364.412 290.97 363.401 285.939L361.186 286.43ZM364.803 315.937L362.671 316.727C363.387 318.722 364.307 320.625 365.228 322.434C366.169 324.28 367.081 325.974 367.894 327.726C369.504 331.195 370.498 334.443 370.023 337.962L372.26 338.185L374.498 338.408C375.139 333.668 373.744 329.521 372.015 325.795C371.158 323.95 370.164 322.097 369.281 320.363C368.379 318.591 367.558 316.881 366.935 315.147L364.803 315.937ZM372.26 338.185L370.023 337.962C369.474 342.024 366.784 345.459 363.154 347.622C359.503 349.798 355.171 350.522 351.636 349.447L350.906 351.56L350.175 353.673C355.158 355.189 360.845 354.102 365.412 351.381C370.001 348.646 373.729 344.099 374.498 338.408L372.26 338.185ZM350.906 351.56L351.635 349.447C344.207 347.189 339.167 339.358 336.903 330.451L334.711 331.048L332.52 331.644C334.918 341.077 340.562 350.751 350.176 353.673L350.906 351.56ZM334.711 331.048L336.903 330.452C335.782 326.036 335.225 321.412 334.789 316.636C334.358 311.914 334.039 306.96 333.385 302.15L331.147 302.509L328.909 302.867C329.547 307.553 329.846 312.284 330.292 317.165C330.733 321.993 331.312 326.89 332.52 331.643L334.711 331.048ZM331.147 302.509L333.385 302.15C332.721 297.28 331.54 291.674 327.94 287.758L326.241 289.265L324.543 290.773C327.171 293.631 328.249 298.025 328.909 302.867L331.147 302.509ZM326.241 289.265L327.94 287.758C326.079 285.735 323.811 284.416 321.655 283.335C319.38 282.195 317.447 281.406 315.549 280.259L314.321 282.15L313.093 284.042C315.172 285.298 317.605 286.334 319.5 287.284C321.512 288.293 323.216 289.33 324.543 290.773L326.241 289.265ZM314.321 282.15L315.549 280.259C312.383 278.346 309.735 275.618 307.039 272.537C304.41 269.532 301.667 266.098 298.528 263.244L296.964 264.885L295.401 266.527C298.3 269.164 300.766 272.266 303.572 275.473C306.311 278.604 309.322 281.763 313.093 284.042L314.321 282.15ZM296.964 264.885L298.528 263.244C295.265 260.277 290.992 257.911 286.502 257.076C281.967 256.233 277.1 256.949 273.028 260.335L274.457 262.001L275.887 263.668C278.664 261.359 282.031 260.771 285.528 261.421C289.069 262.079 292.625 264.002 295.401 266.527L296.964 264.885ZM274.457 262.001L272.364 262.892C287.66 299.54 276.82 349.029 246.939 378.65L248.52 380.179L250.102 381.708C281.247 350.833 292.55 299.444 276.551 261.111L274.457 262.001ZM248.52 380.179L248.062 378.029C245.889 378.536 243.822 377.585 242.166 375.292C240.499 372.985 239.558 369.651 239.788 366.502L237.537 366.412L235.285 366.322C234.984 370.433 236.175 374.767 238.453 377.92C240.742 381.087 244.432 383.389 248.978 382.329L248.52 380.179ZM237.537 366.412L239.788 366.502C240.032 363.175 241.018 359.885 242.228 356.408C243.41 353.013 244.848 349.336 245.75 345.616L243.554 345.17L241.358 344.723C240.525 348.163 239.22 351.478 237.959 355.099C236.727 358.638 235.573 362.389 235.285 366.322L237.537 366.412ZM243.554 345.17L245.749 345.617C249.31 330.924 244.611 317.455 239.531 304.554C234.373 291.452 228.854 278.968 229.532 265.399L227.277 265.36L225.023 265.32C224.288 280.027 230.288 293.496 235.312 306.255C240.414 319.214 244.56 331.512 241.358 344.723L243.554 345.17ZM227.277 265.36L227.099 263.162C224.668 263.425 222.238 263.687 219.808 263.95C217.378 264.212 214.948 264.474 212.517 264.737L212.696 266.934L212.874 269.131C215.305 268.869 217.735 268.607 220.165 268.344C222.595 268.082 225.025 267.82 227.456 267.557L227.277 265.36ZM212.696 266.934L210.439 266.926C209.655 289.023 208.778 311.225 201.326 332.03L203.453 332.704L205.581 333.377C213.304 311.818 214.171 288.929 214.952 266.942L212.696 266.934ZM203.453 332.704L201.326 332.03C193.867 352.859 178.558 371.989 159.305 377.526L159.879 379.646L160.453 381.765C181.74 375.643 197.869 354.914 205.581 333.377L203.453 332.704ZM159.879 379.646L159.305 377.526C156.716 378.271 153.8 378.455 151.502 377.87C149.276 377.303 147.863 376.112 147.446 374.14L145.234 374.653L143.023 375.165C143.87 379.167 146.899 381.301 150.24 382.152C153.507 382.984 157.281 382.678 160.453 381.765L159.879 379.646ZM145.234 374.653L147.445 374.14C147.163 372.806 147.398 371.323 148.042 369.632C148.692 367.925 149.672 366.213 150.702 364.419L148.741 363.382L146.781 362.345C145.791 364.072 144.617 366.101 143.817 368.202C143.011 370.319 142.503 372.711 143.023 375.166L145.234 374.653ZM148.741 363.382L150.702 364.419C166.913 336.147 172.149 301.645 164.761 271.526L162.565 272.105L160.369 272.684C167.483 301.687 162.441 335.036 146.781 362.346L148.741 363.382ZM162.565 272.105L164.761 271.526C163.482 266.309 161.494 260.807 158.489 256.33C155.479 251.845 151.319 248.21 145.676 247.16L145.189 249.332L144.701 251.505C148.789 252.266 152.071 254.931 154.692 258.837C157.319 262.75 159.154 267.729 160.369 272.684L162.565 272.105ZM145.189 249.332L145.677 247.16C140.647 246.223 135.73 247.577 131.237 249.783C126.754 251.984 122.476 255.142 118.656 258.091L120.02 259.811L121.383 261.53C125.195 258.587 129.144 255.695 133.159 253.723C137.164 251.757 141.015 250.818 144.701 251.505L145.189 249.332ZM120.02 259.811L118.657 258.091C100.066 272.442 81.5304 286.88 63.0466 301.401L64.4257 303.109L65.8047 304.816C84.2783 290.304 102.803 275.874 121.383 261.53L120.02 259.811ZM64.4257 303.109L66.0689 301.544C62.4394 297.883 57.8985 295.922 53.3442 294.511C51.0709 293.807 48.7314 293.222 46.4846 292.647C44.2135 292.066 42.024 291.492 39.9307 290.791L39.1416 292.885L38.3525 294.979C40.6171 295.738 42.9507 296.347 45.2172 296.928C47.5079 297.514 49.7203 298.067 51.8622 298.731C56.1385 300.055 59.8817 301.748 62.7824 304.674L64.4257 303.109ZM39.1416 292.885L39.9307 290.791C35.8941 289.439 31.8836 286.941 29.1795 283.708C26.5007 280.505 25.181 276.699 26.133 272.521L23.9304 272.104L21.7278 271.687C20.4069 277.483 22.335 282.608 25.6511 286.573C28.9418 290.507 33.6733 293.413 38.3525 294.979L39.1416 292.885ZM23.9304 272.104L26.133 272.521C27.1436 268.084 30.1744 264.896 34.3623 262.127C36.4584 260.741 38.7845 259.501 41.2087 258.279C43.5868 257.08 46.1374 255.862 48.4603 254.612L47.4207 252.682L46.3811 250.752C44.128 251.965 41.753 253.095 39.2419 254.36C36.777 255.603 34.2505 256.943 31.9166 258.486C27.2446 261.575 23.1062 265.635 21.7277 271.687L23.9304 272.104ZM47.4207 252.682L48.4601 254.612C57.3727 249.817 65.1807 242.423 70.7475 233.55L68.834 232.436L66.9205 231.322C61.7591 239.548 54.5404 246.362 46.3814 250.752L47.4207 252.682ZM68.834 232.436L70.7473 233.551C73.6118 228.986 75.8467 224.121 77.9457 219.329C80.0642 214.491 82.0286 209.767 84.4094 205.247L82.4099 204.282L80.4103 203.317C77.9305 208.025 75.875 212.966 73.8047 217.693C71.715 222.465 69.5923 227.064 66.9206 231.321L68.834 232.436ZM82.4099 204.282L84.4095 205.247C98.5567 178.392 128.267 161.246 155.164 164.002L155.467 161.803L155.771 159.604C126.734 156.629 95.313 175.028 80.4103 203.317L82.4099 204.282Z" fill="url(#paint9_linear_3078_4003)" mask="url(#path-44-outside-1_3078_4003)"/>
<path d="M159.38 161.126C162.438 147.371 168.807 134.475 177.346 123.119C185.803 111.874 196.332 102.137 207.934 94.3438C220.003 86.2384 233.252 80.1453 246.816 75.4849C260.401 70.8174 274.338 67.5299 288.316 64.7875C301.668 62.1678 317.74 58.4511 329.402 66.5827C333.897 69.7156 337.444 74.4446 338.582 79.9903C339.724 85.5548 338.221 91.446 334.769 96.1502C331.29 100.89 326.134 104.191 320.867 106.427C315.324 108.781 309.344 109.994 303.457 110.157C291.364 110.493 278.888 108.62 266.96 112.455C261.012 114.368 255.558 117.753 251.211 122.416C246.866 127.076 243.702 132.664 241.289 138.503C238.746 144.657 237.038 151.1 235.666 157.554C234.98 160.777 234.378 164.012 233.814 167.252C233.274 170.343 232.979 173.888 236.112 175.46C238.885 176.851 242.595 176.39 245.661 176.496C249.067 176.616 252.465 176.787 255.855 177.054C262.6 177.583 269.314 178.49 275.813 180.198C282.089 181.848 288.144 184.259 293.512 187.846C298.962 191.488 303.421 196.313 306.801 201.973C313.431 213.07 316.596 226.077 323.852 236.809C330.346 246.41 339.065 254.035 346.623 262.702C350.283 266.9 353.67 271.374 356.187 276.406C358.947 281.923 360.288 287.863 360.71 294.127C361.158 300.814 360.962 307.702 362.733 314.146C364.329 319.958 367.907 324.762 369.898 330.386C370.834 333.029 371.321 335.97 370.736 338.833C370.15 341.695 368.466 344.359 366.236 346.354C361.825 350.297 355.509 351.799 350.215 349.782C344.486 347.597 340.596 342.29 338.186 336.797C335.365 330.368 334.525 323.16 333.894 316.11C333.264 309.098 333.202 301.626 331.007 294.968C329.981 291.857 328.412 289.043 325.92 286.953C323.326 284.779 320.157 283.558 317.161 282.038C305.788 276.272 301.116 262.114 288.415 258.334C283.362 256.831 277.894 257.426 273.524 260.971C272.994 261.4 272.959 262.163 273.187 262.714C279.397 277.678 281.219 294.456 279.473 310.944C277.708 327.601 272.271 344.143 263.501 358.733C261.313 362.371 258.919 365.889 256.325 369.255C255.018 370.949 253.658 372.602 252.242 374.207C251.612 374.923 250.972 375.628 250.321 376.326C249.587 377.113 248.825 378.125 247.966 378.768C247.811 378.883 247.664 378.904 247.212 378.928C246.798 378.949 246.382 378.931 245.978 378.86C245.141 378.71 244.382 378.367 243.684 377.905C242.153 376.893 241.055 375.324 240.279 373.662C238.37 369.571 238.795 365.062 240.004 360.662C241.421 355.51 243.699 350.593 244.939 345.396C245.808 341.746 246.219 338.022 246.151 334.319C246.017 326.96 244.193 319.889 241.833 313.091C237.044 299.292 229.707 285.946 228.74 270.906C228.622 269.067 228.611 267.215 228.697 265.363C228.729 264.647 228.13 263.839 227.355 263.922C222.494 264.447 217.635 264.971 212.774 265.496C212.019 265.577 211.307 266.09 211.277 266.937C210.322 293.85 209.335 322.618 195.302 347.096C189.742 356.796 182.302 365.785 172.956 371.969C168.519 374.907 163.526 377.417 158.393 378.558C154.499 379.422 148.359 379.412 146.811 374.981C145.84 372.199 147.201 369.096 148.548 366.569C150.018 363.812 151.624 361.131 153.036 358.339C155.939 352.599 158.425 346.658 160.451 340.58C164.453 328.57 166.727 316.018 167.139 303.537C167.539 291.403 166.415 278.798 162.735 267.419C160.992 262.027 158.516 256.619 154.451 252.699C150.542 248.926 145.369 247.064 139.801 247.823C134.296 248.575 129.19 251.501 124.6 254.698C118.884 258.677 113.451 263.128 107.939 267.398C96.0307 276.624 84.1453 285.884 72.2861 295.177C69.3523 297.475 66.4199 299.776 63.489 302.08L65.4943 302.107C59.3241 296.011 50.5656 294.679 42.4739 292.383C36.2645 290.621 30.0255 287.48 26.7527 281.647C25.2715 279.008 24.6006 275.922 25.2072 272.807C25.8767 269.364 27.8638 266.425 30.4668 264.089C35.975 259.151 43.1502 256.793 49.4271 253.171C56.6951 248.976 63.0348 243.096 67.9613 236.23C73.5785 228.402 76.8865 219.34 80.8378 210.669C87.3069 196.464 97.2437 184.229 110.246 175.555C122.226 167.563 136.302 162.735 150.345 162.952C152.034 162.977 153.716 163.079 155.39 163.247C157.194 163.427 157.343 160.544 155.546 160.366C141.267 158.944 126.508 162.789 113.715 170.12C100.472 177.711 89.1051 189.071 81.7425 202.592C77.0131 211.28 73.9791 220.735 69.0695 229.336C64.6619 237.058 58.5637 243.854 51.1857 248.786C44.724 253.104 37.2753 255.525 30.974 260.127C25.1489 264.381 21.0257 270.995 22.4237 278.246C23.6943 284.84 29.0782 289.809 34.7592 292.638C42.1614 296.32 50.9078 296.582 58.2386 300.431C60.1177 301.418 61.8458 302.628 63.3548 304.12C63.9287 304.685 64.7083 304.657 65.36 304.147C77.3355 294.738 89.3371 285.362 101.362 276.02C107.374 271.351 113.39 266.689 119.414 262.037C124.196 258.343 129.08 254.484 134.656 252.18C139.815 250.047 145.389 249.828 149.975 252.846C154.62 255.902 157.413 261.204 159.33 266.371C161.41 271.985 162.549 278.06 163.352 284.048C164.18 290.214 164.489 296.469 164.321 302.743C163.986 315.387 161.718 328.057 157.624 340.212C155.576 346.293 153.081 352.245 150.114 357.968C148.681 360.736 147.01 363.388 145.633 366.18C144.256 368.971 143.2 372.011 143.84 375.035C144.885 379.978 149.786 381.886 154.398 381.879C159.454 381.872 164.582 379.812 169.128 377.474C179.077 372.361 187.339 364.103 193.704 354.869C209.471 331.995 212.533 303.997 213.703 277.539C213.859 274.008 213.986 270.476 214.112 266.947L212.615 268.387C217.477 267.862 222.335 267.338 227.197 266.813L225.856 265.372C225.115 281.316 232.176 295.567 237.566 309.785C240.199 316.737 242.543 323.948 243.172 331.509C243.48 335.192 243.331 338.973 242.662 342.664C241.721 347.845 239.548 352.726 237.95 357.746C236.45 362.46 235.39 367.489 236.688 372.228C237.709 375.957 239.928 379.6 243.53 381.151C245.016 381.792 247.562 382.322 249.148 381.443C250.007 380.97 250.775 379.891 251.449 379.183C252.188 378.407 252.915 377.618 253.629 376.82C256.577 373.522 259.327 370.041 261.851 366.408C271.984 351.832 278.548 334.923 281.393 317.668C284.2 300.642 283.303 282.983 277.875 267.024C277.219 265.093 276.503 263.185 275.722 261.304L275.385 263.046C279.875 259.403 285.838 260.001 290.5 262.284C296.19 265.069 300.021 270.203 304.102 274.879C306.317 277.419 308.643 279.876 311.332 281.911C314.02 283.945 317.256 285.248 320.298 286.825C323.358 288.411 325.853 290.439 327.37 293.624C328.887 296.81 329.396 300.136 329.835 303.52C331.64 317.425 330.817 332.667 339.101 344.358C342.549 349.223 347.785 353.181 353.971 353.572C359.761 353.938 365.986 351.201 369.871 346.597C373.989 341.716 374.638 335.473 372.717 329.785C370.774 324.033 367.043 319.143 365.457 313.237C363.689 306.642 363.972 299.615 363.443 292.794C362.959 286.562 361.525 280.644 358.797 275.142C353.605 264.669 344.991 256.639 337.144 248.309C333.201 244.122 329.324 239.805 326.115 234.99C322.483 229.538 319.854 223.475 317.302 217.413C314.72 211.282 312.188 205.074 308.662 199.461C305.136 193.847 300.671 189.145 295.246 185.487C284.123 177.989 270.358 175.389 256.986 174.265C253.53 173.975 250.064 173.787 246.593 173.659C244.908 173.596 243.224 173.547 241.54 173.505C240.123 173.471 238.316 173.566 237.144 172.684C235.865 171.72 236.222 169.817 236.457 168.379C236.717 166.774 237.016 165.17 237.314 163.568C237.934 160.248 238.623 156.934 239.426 153.645C242.43 141.336 247.28 127.942 258.003 120.083C268.61 112.31 281.827 112.785 293.917 113.025C300.001 113.146 306.089 113.271 312.159 112.047C318.021 110.869 323.884 108.682 328.965 105.283C333.86 102.008 338.035 97.5729 340.215 92.021C342.438 86.36 342.255 80.1405 339.933 74.7993C337.612 69.458 333.556 65.383 328.7 62.696C322.643 59.3434 315.424 58.5503 308.448 58.9164C300.909 59.3092 293.384 60.8869 285.938 62.3733C278.919 63.7741 271.922 65.3223 264.972 67.122C250.931 70.7592 237.046 75.4525 223.883 81.9466C211.075 88.2665 199.064 96.3454 188.624 106.328C178.261 116.239 169.471 127.907 163.373 140.888C160.434 147.144 158.175 153.678 156.684 160.374C156.281 162.184 158.972 162.97 159.378 161.141L159.38 161.126Z" fill="url(#paint10_linear_3078_4003)"/>
<path d="M330.483 95.4115C325.098 89.4485 319.716 83.4861 314.331 77.5254C313.366 76.4568 312.368 75.3634 311.066 74.7933C306.816 72.9285 301.787 77.5004 299.808 82.3156C295.136 93.675 301.537 107.63 312.368 109.704" fill="white"/>
<path d="M331.552 94.4049C326.893 89.2452 322.235 84.086 317.576 78.9263C315.686 76.8333 313.797 74.0678 310.972 73.1979C308.862 72.5494 306.518 73.1338 304.611 74.3409C295.486 80.1109 295.213 93.5058 299.738 101.657C302.328 106.323 306.596 110.011 311.915 111.088C313.675 111.445 314.596 108.67 312.819 108.311C304.404 106.606 299.365 97.8487 299.697 89.3935C299.867 85.0497 301.431 80.5311 304.881 77.5887C306.274 76.402 308.151 75.4496 309.93 75.9383C311.081 76.2533 311.938 77.104 312.73 77.949C313.756 79.0401 314.742 80.1704 315.746 81.2831C320.301 86.3272 324.858 91.3741 329.413 96.4181C330.615 97.7516 332.754 95.7384 331.554 94.4079L331.552 94.4049Z" fill="#39783A"/>
<path d="M317.973 83.3929C313.314 87.6875 308.601 93.0052 308.108 99.3145C307.615 105.624 320.656 109.672 330.597 95.5427" fill="#2D2020"/>
<path d="M317.041 82.3606C313.178 85.9375 309.381 90.0305 307.599 95.0686C306.592 97.9146 306.114 101.007 307.979 103.4C311.161 107.484 317.5 107.033 321.939 105.012C325.964 103.179 329.211 99.8792 331.772 96.2805C332.87 94.7362 330.51 93.2687 329.418 94.8044C326.091 99.4761 320.999 103.895 315.122 103.642C313.454 103.572 311.728 103.01 310.693 102.028C310.552 101.894 310.424 101.754 310.295 101.609C310.235 101.539 309.985 101.2 310.079 101.34C309.99 101.206 309.913 101.066 309.84 100.921C309.809 100.859 309.61 100.363 309.678 100.569C309.339 99.5252 309.568 98.3247 309.919 97.02C311.285 91.9494 315.14 87.9056 318.907 84.4178C320.296 83.133 318.425 81.0722 317.04 82.3553L317.041 82.3606Z" fill="#39783A"/>
<path d="M354.975 81.9485C364.322 82.3663 373.417 84.4314 381.916 88.0158C381.859 87.1449 381.801 86.2711 381.745 85.4002C373.334 89.9198 364.92 94.4388 356.509 98.9584C354.914 99.8165 352.752 100.593 352.387 102.647C352.206 103.663 352.496 104.711 352.676 105.688C352.871 106.753 353.077 107.817 353.293 108.877C354.17 113.175 355.213 117.429 356.427 121.621C357.766 126.247 359.313 130.799 361.044 135.264C361.608 134.57 362.174 133.875 362.738 133.181C355.431 132.02 348.124 130.859 340.819 129.698C339.912 129.554 339.089 130.069 338.98 131.078C337.965 140.732 337.241 150.397 336.813 160.061C337.627 159.727 338.442 159.393 339.254 159.059C334.403 154.392 329.551 149.726 324.7 145.06C323.436 143.844 321.327 145.836 322.597 147.056C327.448 151.722 332.3 156.389 337.151 161.055C337.977 161.85 339.534 161.367 339.593 160.053C340.023 150.389 340.747 140.725 341.761 131.07C341.148 131.529 340.535 131.988 339.922 132.45C347.229 133.611 354.536 134.772 361.841 135.933C363.052 136.126 363.995 135.031 363.535 133.85C360.681 126.485 358.38 118.877 356.646 111.095C356.208 109.127 355.805 107.147 355.438 105.16C355.346 104.665 355.238 104.168 355.168 103.664C355.098 103.16 355.041 103.034 355.447 102.678C356.176 102.044 357.309 101.663 358.153 101.21C362.046 99.1178 365.938 97.028 369.831 94.9359C374.209 92.5838 378.591 90.2301 382.97 87.878C384.168 87.235 383.82 85.6918 382.799 85.2624C374.078 81.5845 364.711 79.5219 355.124 79.0935C353.341 79.0131 353.182 81.8679 354.965 81.9483L354.975 81.9485Z" fill="#FEB963"/>
<defs>
<linearGradient id="paint0_linear_3078_4003" x1="427.543" y1="523.665" x2="408.162" y2="577.839" gradientUnits="userSpaceOnUse">
<stop stop-color="#CBCCCE"/>
<stop offset="1" stop-color="#666768" stop-opacity="0"/>
</linearGradient>
<linearGradient id="paint1_linear_3078_4003" x1="459.033" y1="540.273" x2="450.743" y2="587.601" gradientUnits="userSpaceOnUse">
<stop stop-color="#999B9E"/>
<stop offset="1" stop-color="#363738" stop-opacity="0"/>
</linearGradient>
<linearGradient id="paint2_linear_3078_4003" x1="392.204" y1="450.693" x2="373.047" y2="562.529" gradientUnits="userSpaceOnUse">
<stop stop-color="#8693A7"/>
<stop offset="0.735577" stop-color="#8693A7" stop-opacity="0"/>
</linearGradient>
<linearGradient id="paint3_linear_3078_4003" x1="498.937" y1="523.992" x2="485.857" y2="600.354" gradientUnits="userSpaceOnUse">
<stop offset="0.533654" stop-color="#CBCCCE"/>
<stop offset="1" stop-color="#CBCCCE" stop-opacity="0"/>
</linearGradient>
<linearGradient id="paint4_linear_3078_4003" x1="501.733" y1="507.099" x2="483.601" y2="612.953" gradientUnits="userSpaceOnUse">
<stop stop-color="#8693A7"/>
<stop offset="1" stop-color="#363738" stop-opacity="0"/>
</linearGradient>
<linearGradient id="paint5_linear_3078_4003" x1="312.508" y1="454.104" x2="279.494" y2="530.2" gradientUnits="userSpaceOnUse">
<stop offset="0.831731" stop-color="#E78C3C"/>
<stop offset="1" stop-color="#E78C3C" stop-opacity="0"/>
</linearGradient>
<linearGradient id="paint6_linear_3078_4003" x1="313.474" y1="507.492" x2="292.734" y2="531.57" gradientUnits="userSpaceOnUse">
<stop stop-color="#A25831"/>
<stop offset="1" stop-color="#A25831" stop-opacity="0"/>
</linearGradient>
<linearGradient id="paint7_linear_3078_4003" x1="320.205" y1="466.876" x2="280.891" y2="544.366" gradientUnits="userSpaceOnUse">
<stop offset="0.745192" stop-color="#A25831"/>
<stop offset="0.9375" stop-color="#A25831" stop-opacity="0"/>
</linearGradient>
<linearGradient id="paint8_linear_3078_4003" x1="281.249" y1="49.9546" x2="187.096" y2="367.171" gradientUnits="userSpaceOnUse">
<stop stop-color="#65A543"/>
<stop offset="1" stop-color="#65A543" stop-opacity="0"/>
</linearGradient>
<linearGradient id="paint9_linear_3078_4003" x1="281.251" y1="49.9547" x2="184.572" y2="389.608" gradientUnits="userSpaceOnUse">
<stop stop-color="#22522F"/>
<stop offset="1" stop-color="#13321B" stop-opacity="0"/>
</linearGradient>
<linearGradient id="paint10_linear_3078_4003" x1="281.688" y1="48.5686" x2="184.222" y2="390.988" gradientUnits="userSpaceOnUse">
<stop stop-color="#207139"/>
<stop offset="1" stop-color="#231F20" stop-opacity="0"/>
</linearGradient>
</defs>
</svg>
