<svg width="309" height="135" viewBox="0 0 309 135" fill="none" xmlns="http://www.w3.org/2000/svg">
<path d="M78.6675 53.9707L69.5457 25.6552L80.6142 22.2163L93.1645 18.0615H122.829L133.478 22.2163L138.612 18.0615H184.82L190.335 22.2163L194.518 18.0615H268.704L276.311 22.2163V33.6914L271.937 37.2526L276.311 39.8246V83.3946L276.501 83.5487L283.727 79.394L287.322 76.4211L296.64 80.5758L309 123.904L303.478 133.406L282.363 134.546L278.179 128.017H258.023L251.557 134.546H241.479L239.197 131.381L236.725 134.546H229.119L223.414 128.017H200.785L197.172 134.546H183.861L179.298 128.017H169.6L165.226 134.546H147.732L143.738 128.017H132.899L127.004 134.546H81.7471L76.2325 129.996L71.8589 134.546H59.1184L55.3153 129.996H24.1295L19.9461 134.546H11.0144L4.74314 121.624L14.6297 84.1423L18.4329 75.3679L19.9541 72.0736H14.4396L78.6675 53.9707Z" fill="url(#paint0_linear_1059_266)"/>
<path d="M49.79 0L55.8711 3.99121H79.0557L85.1367 0H93.6885L101.29 6.08203V18.0537L113.832 14.0635H143.478L154.12 18.0537L159.251 14.0635H205.43L210.941 18.0537L215.122 14.0635H261.11L268.712 18.0537V29.0762L264.342 32.4971L268.712 34.9668V35.7275H268.902V72.9746H279.164L288.476 76.9648L300.828 118.583L296.077 124.854H281.444L277.264 118.583H257.12L250.658 124.854H240.587L238.307 121.814L235.836 124.854H228.234L222.533 118.583H199.919L196.309 124.854H183.006L178.444 118.583H168.753L164.382 124.854H146.898L142.908 118.583H132.075L126.185 124.854H80.9561L75.4443 120.483L71.0742 124.854H58.3418L54.541 120.483H23.375L19.1934 124.854H7.41113L4.94141 122.384L0 113.072L7.41113 77.5352L11.7822 67.8438L19.7637 62.9023H32.1162V6.08203L38.958 0H49.79Z" fill="#62318E"/>
<path d="M38.7091 68.4141C38.7091 71.3402 38.7091 72.1392 38.7091 75.0654C32.6078 75.0654 27.5165 76.3141 25.3915 77.7259C22.0066 79.9748 21.9209 80.2262 21.1675 82.6668C20.9328 83.427 20.6982 85.1373 21.1675 85.5174C21.6368 85.8975 22.4228 85.7074 23.0448 85.7074C27.8974 85.7074 29.8528 85.7074 34.3042 85.7074C35.8753 85.7074 38.7091 82.6668 38.7091 82.6668C38.7091 82.6668 41.0658 85.833 42.6368 85.833C50.6966 85.833 51.4077 85.8414 53.3527 85.8414C53.9815 85.8414 57.0715 85.9245 57.3062 85.7074C57.5408 85.4903 57.5408 83.9971 57.3062 83.2369C56.6232 81.0247 55.3055 79.5416 52.1435 77.7259C49.5052 76.2109 44.8105 75.0654 38.7091 75.0654C38.7091 72.1392 38.7091 71.3402 38.7091 68.4141C54.8163 68.4141 60.1222 69.9344 63.5845 80.142C67.0469 90.3496 69.4534 107.833 69.7154 112.068C69.9774 116.303 68.3907 118.584 65.7877 118.584H64.1503C61.5472 118.584 61.2339 116.829 60.1865 113.572C59.1391 110.314 59.1391 103.713 57.3062 97.3974C57.1078 96.7139 56.8073 95.4489 55.7549 94.1396C55.1573 93.3961 50.5873 93.5215 49.9685 93.5215C43.4686 93.5215 47.6579 93.5215 42.6368 93.5215C41.0658 93.5215 38.7091 98.2498 38.7091 98.2498C38.7091 98.2498 36.3525 93.5215 34.7815 93.5215C30.0141 93.5215 33.195 93.5215 27.1879 93.5215C26.6642 93.5215 23.0343 93.6066 22.0264 94.5908C21.0184 95.5749 20.5385 96.1096 20.1935 97.3974C18.0114 105.542 18.3407 110.314 17.2933 113.697C16.246 117.08 16.175 118.584 13.5719 118.584H12.5245C9.92149 118.584 7.5496 116.629 7.81131 112.068C8.07303 107.507 10.1891 90.4583 14.3575 80.142C18.5258 69.8256 22.602 68.4141 38.7091 68.4141Z" fill="white"/>
<path d="M41.5598 104.362C41.5598 104.362 40.2938 104.852 39.6239 105.449C39.0552 105.957 38.5485 107.624 38.5485 107.624C38.5485 107.624 38.0512 106.003 37.473 105.449C36.852 104.855 35.5371 104.362 35.5371 104.362C35.5371 104.362 36.852 104.087 37.473 103.492C38.0512 102.938 38.5485 101.1 38.5485 101.1C38.5485 101.1 39.0552 102.984 39.6239 103.492C40.2938 104.09 41.5598 104.362 41.5598 104.362Z" fill="white"/>
<path d="M41.5598 113.484C41.5598 113.484 40.2938 113.974 39.6239 114.571C39.0552 115.079 38.5485 116.746 38.5485 116.746C38.5485 116.746 38.0512 115.125 37.473 114.571C36.852 113.977 35.5371 113.484 35.5371 113.484C35.5371 113.484 36.852 113.209 37.473 112.614C38.0512 112.06 38.5485 110.222 38.5485 110.222C38.5485 110.222 39.0552 112.106 39.6239 112.614C40.2938 113.212 41.5598 113.484 41.5598 113.484Z" fill="white"/>
<path d="M92.2482 82.1417C102.553 80.8468 112.258 81.3129 116.983 82.1417C121.708 82.9705 125.32 84.6767 126.432 88.4437C127.046 90.5232 126.191 92.0631 123.931 92.4935C123.194 92.6338 121.339 92.6148 120.596 92.4935C118.569 92.1623 117.817 91.5903 116.983 90.9565C116.149 90.3227 113.542 89.5389 112.156 89.4165C104.835 88.7699 104.638 88.4741 97.7789 88.9373C94.9902 89.1257 91.8878 89.5075 89.6192 89.8875C87.3507 90.2676 85.6952 91.1652 85.4265 92.4935C84.9277 94.9599 89.0372 95.3011 89.6192 95.3986C91.8877 95.7787 92.3629 95.8206 95.3025 96.0522C95.8103 96.0922 97.0495 96.0522 97.9689 95.9686C100.059 95.7786 102.53 92.548 102.53 92.548C102.53 92.548 105.361 95.9682 106.711 96.0522C108.421 96.1587 109.933 96.0522 110.891 96.0522C115.957 96.0522 117.451 96.5064 120.596 97.4889C124.392 98.6747 127.615 102.759 127.615 104.52V108.393C127.615 115.542 120.203 117.063 112.051 118.163C103.662 119.294 96.7659 119.097 90.3738 118.163C83.7037 117.188 79.1191 115.162 77.8673 112.036C77.2744 110.555 76.7557 107.177 80.3686 106.332C81.6134 106.041 82.8631 106.172 83.7035 106.332C84.544 106.491 85.9269 107.971 87.3165 108.393C88.5949 108.934 91.6913 109.745 93.1527 109.923C100.101 110.768 104.151 110.643 107.091 110.411C110.03 110.18 113.181 110.354 115.262 109.461C117.063 108.689 118.873 107.662 118.873 106.332C118.873 105.001 118.113 104.52 115.262 103.76C112.315 102.974 109.814 103.111 106.711 103.19C105.494 103.221 102.53 106.611 102.53 106.611C102.53 106.611 99.6717 103.042 98.159 103C95.0861 102.914 92.1918 102.871 90.3738 102.62C81.6098 101.409 76.585 100.339 76.585 94.8942V90.9565C76.5851 86.0867 85.0622 83.0446 92.2482 82.1417Z" fill="white"/>
<path d="M178.445 82.4766C180.334 82.4766 181.865 84.567 181.865 85.8972V86.8474C181.865 88.3677 180.334 90.2681 178.445 90.2681C178.445 90.2681 168.558 90.2681 162.102 90.2681C161.582 90.2681 161.329 90.2808 160.961 90.6481C160.594 91.0155 160.581 91.2689 160.581 91.7884C160.581 94.6085 160.581 93.8788 160.581 96.7293C160.581 98.7262 164.192 100.72 164.192 100.72C164.192 100.72 160.581 102.62 160.581 104.331C160.581 107.371 160.581 115.543 160.581 115.543C160.581 117.432 159.05 118.964 157.161 118.964H155.64C153.751 118.964 152.22 117.432 152.22 115.543C152.22 115.543 152.22 107.561 152.22 104.331C152.22 102.598 148.609 100.72 148.609 100.72C148.609 100.72 152.22 98.6301 152.22 96.7293C152.22 93.8788 152.22 94.4489 152.22 91.5983C152.22 91.2719 152.124 90.9322 151.84 90.6481C151.556 90.3641 151.341 90.2681 150.889 90.2681C144.238 90.2681 134.356 90.2681 134.356 90.2681C132.467 90.2681 130.936 88.3677 130.936 86.8474V85.8972C130.936 84.3769 132.467 82.4766 134.356 82.4766H178.445Z" fill="white"/>
<path fill-rule="evenodd" clip-rule="evenodd" d="M226.904 81.716C231.085 82.3767 232.035 83.2363 232.415 83.8064C233.28 85.1031 232.732 86.2768 232.225 87.4171C231.718 88.5573 230.515 89.8876 228.804 91.7879C227.094 93.6882 225.194 95.0185 225.194 95.2086C225.194 95.3986 229.872 95.2268 230.135 95.2268C233.935 95.2086 235.456 98.8192 235.456 100.72V113.583C235.456 115.406 234.468 117.443 232.605 117.443H231.655C229.577 117.443 228.234 115.715 228.234 113.583V105.471C228.234 103.76 226.904 102.05 224.814 102.05H208.471C207.221 102.05 205.432 105.467 205.43 105.471C205.428 105.467 203.259 102.05 202.009 102.05H196.251C195.833 102.05 195.301 101.995 194.997 102.43C194.598 103 194.788 105.08 194.788 105.471V113.583C194.788 115.715 193.103 117.443 191.025 117.443H190.189C188.111 117.443 186.426 115.715 186.426 113.583V84.8538C186.426 82.8408 187.929 81.5277 189.847 81.4354C200.109 80.9409 222.723 81.0553 226.904 81.716ZM194.731 88.1772C194.504 88.5166 194.532 89.2242 194.523 89.8875C194.502 91.4189 194.598 91.7879 194.598 93.3082C194.598 93.8506 194.788 94.2789 194.997 94.6385C195.279 95.1231 195.784 95.2085 196.251 95.2086C200.125 95.2086 198.456 95.2268 202.009 95.2268C203.26 95.2268 205.417 91.8086 205.43 91.7883C205.441 91.8096 207.22 95.2268 208.471 95.2268C209.721 95.2268 211.097 95.2271 211.891 95.2271C212.345 95.2271 213.878 95.3869 215.882 94.6388C216.642 94.3551 217.592 93.8784 219.873 91.978C222.153 90.0776 224.186 89.1274 223.806 88.1775C223.502 87.4174 223.236 87.4171 219.816 87.2271C216.395 87.037 210.153 87.037 206.323 87.037C199.482 87.037 198.431 87.1876 196.251 87.4171C195.681 87.4771 195.111 87.6071 194.731 88.1772Z" fill="white"/>
<path d="M266.194 81.3359C266.194 83.4419 266.194 85.0915 266.194 87.1974C262.377 87.1543 258.585 88.2915 256.864 89.3076C254.123 90.9261 252.411 92.6872 252.411 94.4978C252.411 94.9284 252.395 95.2613 252.607 95.4357C252.819 95.61 253.392 95.664 253.896 95.664C257.825 95.664 259.409 95.664 263.014 95.664C264.286 95.664 266.242 92.7381 266.242 92.7381C266.242 92.7381 268.103 95.664 269.375 95.664C275.902 95.664 276.478 95.6701 278.053 95.6701C278.562 95.6701 279.082 95.6353 279.325 95.4357C279.568 95.236 279.553 94.7863 279.553 94.2633C279.553 92.6222 277.873 90.6143 275.312 89.3076C273.176 88.2172 270.011 87.2405 266.194 87.1974C266.194 85.0915 266.194 83.4419 266.194 81.3359C273.192 81.3359 284.43 81.8048 286.339 89.7765C288.247 97.7481 291.091 109.706 291.304 112.754C291.516 115.802 290.231 117.443 288.123 117.443H286.797C284.689 117.443 282.93 116.271 282.082 113.926C281.234 111.581 281.234 110.062 279.749 105.518C279.589 105.026 279.345 104.115 278.493 103.173C278.009 102.638 275.813 102.638 275.312 102.638C270.049 102.638 273.441 102.638 269.375 102.638C268.103 102.638 266.194 106.041 266.194 106.041C266.194 106.041 264.286 102.638 263.014 102.638C259.153 102.638 261.729 102.638 256.864 102.638C256.44 102.638 254.712 102.699 253.896 103.407C253.079 104.116 252.691 104.5 252.411 105.427C250.644 111.289 250.911 111.491 250.063 113.926C249.215 116.361 247.946 117.443 245.838 117.443H244.99C242.882 117.443 240.961 116.036 241.173 112.754C241.385 109.471 244.414 97.7481 246.474 89.7765C248.534 81.8048 260.045 81.3359 266.194 81.3359Z" fill="white"/>
<path d="M128.038 20.9043C128.038 23.0102 128.038 24.6598 128.038 26.7658C124.221 26.7226 120.428 27.8598 118.708 28.8759C115.966 30.4944 114.255 32.2556 114.255 34.0661C114.255 34.4967 114.238 34.8297 114.451 35.004C114.663 35.1784 115.235 35.2324 115.739 35.2324C119.669 35.2324 121.252 35.2324 124.857 35.2324C126.129 35.2324 128.085 32.3065 128.085 32.3065C128.085 32.3065 129.946 35.2324 131.218 35.2324C137.745 35.2324 138.321 35.2385 139.896 35.2385C140.405 35.2385 140.926 35.2037 141.168 35.004C141.411 34.8044 141.397 34.3547 141.397 33.8317C141.397 32.1905 139.716 30.1827 137.156 28.8759C135.019 27.7856 131.854 26.8089 128.038 26.7658C128.038 24.6598 128.038 23.0102 128.038 20.9043C135.035 20.9043 146.274 21.3732 148.182 29.3448C150.091 37.3165 152.935 49.2741 153.147 52.3221C153.359 55.3701 152.074 57.0113 149.966 57.0113H148.64C146.532 57.0113 144.773 55.839 143.925 53.4944C143.077 51.1498 143.077 49.6308 141.593 45.0859C141.432 44.5939 141.189 43.6835 140.336 42.7412C139.852 42.2061 137.657 42.2061 137.156 42.2061C131.892 42.2061 135.284 42.2061 131.218 42.2061C129.946 42.2061 128.038 45.6091 128.038 45.6091C128.038 45.6091 126.129 42.2061 124.857 42.2061C120.996 42.2061 123.572 42.2061 118.708 42.2061C118.283 42.2061 116.555 42.2674 115.739 42.9757C114.923 43.684 114.534 44.0688 114.255 44.9956C112.487 50.8571 112.754 51.0596 111.906 53.4944C111.058 55.9292 109.789 57.0113 107.681 57.0113H106.833C104.725 57.0113 102.804 55.6046 103.016 52.3221C103.228 49.0396 106.257 37.3165 108.317 29.3448C110.377 21.3732 121.888 20.9043 128.038 20.9043Z" fill="white"/>
<path d="M44.1993 6.8418C46.482 6.8418 48.3326 8.56962 48.3326 10.701C48.3326 10.701 48.3326 18.4194 48.3326 22.9218C48.3326 23.4514 48.3326 23.9938 48.5622 24.2082C48.7918 24.4226 49.3945 24.4226 49.94 24.4226C54.1954 24.4226 58.8955 24.4226 62.7991 24.4226C64.1769 24.4226 66.2435 21.421 66.2435 21.421C66.2435 21.421 68.3102 24.4226 69.688 24.4226C76.7561 24.4226 81.7599 24.4226 83.4656 24.4226C84.0171 24.4226 84.6138 24.4226 84.8434 24.2082C85.073 23.9938 85.073 23.565 85.073 22.9218C85.073 17.9906 85.073 10.701 85.073 10.701C85.073 8.56962 86.9236 6.8418 89.2063 6.8418H90.1248C92.4076 6.8418 94.2581 8.56962 94.2581 10.701V53.1523C94.2581 55.2837 92.4076 57.0115 90.1248 57.0115H89.2063C86.9236 57.0115 85.073 55.2837 85.073 53.1523C85.073 53.1523 85.073 42.2025 85.073 34.4995C85.073 33.8563 85.073 33.4275 84.8434 33.2131C84.6138 32.9987 84.1545 32.9987 83.4656 32.9987C77.7655 32.9987 74.0912 32.9987 69.688 32.9987C68.3102 32.9987 66.2435 36.4291 66.2435 36.4291C66.2435 36.4291 64.1769 32.9987 62.7991 32.9987C58.6183 32.9987 55.2079 32.9987 49.94 32.9987C49.4807 32.9987 48.85 32.9443 48.5622 33.2131C48.2744 33.4818 48.3326 34.1093 48.3326 34.4995C48.3326 41.7839 48.3326 53.1523 48.3326 53.1523C48.3326 55.2837 46.482 57.0115 44.1993 57.0115H43.2808C40.998 57.0115 39.1475 55.2837 39.1475 53.1523V10.701C39.1475 8.56962 40.998 6.8418 43.2808 6.8418H44.1993Z" fill="white"/>
<path d="M70.2182 13.4658C70.2182 13.4658 68.6254 14.0266 67.7827 14.7112C67.0671 15.2925 66.4297 17.2021 66.4297 17.2021C66.4297 17.2021 65.804 15.3453 65.0766 14.7112C64.2954 14.0302 62.6411 13.4658 62.6411 13.4658C62.6411 13.4658 64.2954 13.1504 65.0766 12.4694C65.804 11.8353 66.4297 9.72949 66.4297 9.72949C66.4297 9.72949 67.0671 11.8881 67.7827 12.4694C68.6254 13.1541 70.2182 13.4658 70.2182 13.4658Z" fill="white"/>
<path d="M69.9801 45.0383C69.9801 45.0383 68.3481 45.6129 67.4846 46.3144C66.7514 46.9101 66.0982 48.8667 66.0982 48.8667C66.0982 48.8667 65.4572 46.9642 64.7118 46.3144C63.9114 45.6167 62.2163 45.0383 62.2163 45.0383C62.2163 45.0383 63.9114 44.7152 64.7118 44.0174C65.4572 43.3677 66.0982 41.21 66.0982 41.21C66.0982 41.21 66.7514 43.4218 67.4846 44.0174C68.3481 44.7189 69.9801 45.0383 69.9801 45.0383Z" fill="white"/>
<path d="M187.376 38.5777C187.376 38.5777 185.299 39.4619 184.2 40.5414C183.267 41.458 182.435 44.4688 182.435 44.4688C182.435 44.4688 181.619 41.5412 180.67 40.5414C179.652 39.4677 177.494 38.5777 177.494 38.5777C177.494 38.5777 179.652 38.0804 180.67 37.0067C181.619 36.0069 182.435 32.6865 182.435 32.6865C182.435 32.6865 183.267 36.0901 184.2 37.0067C185.299 38.0862 187.376 38.5777 187.376 38.5777Z" fill="white"/>
<path d="M197.648 21.71C202.373 22.5388 205.986 24.2452 207.098 28.0123C207.711 30.0918 206.857 31.6316 204.596 32.062C203.859 32.2023 202.004 32.1834 201.261 32.062C199.234 31.7308 198.482 31.1589 197.648 30.5251C196.815 29.8913 194.207 29.1076 192.822 28.9852C185.501 28.3386 184.199 28.2903 177.34 28.7535C174.551 28.9419 171.555 29.425 170.284 30.1433C169.627 30.5149 168.451 30.9918 167.541 31.9962C166.509 33.1355 165.581 35.054 165.581 37.0919V39.6397C165.581 41.5409 166.482 43.8917 167.541 45.1986C167.993 45.7568 168.521 46.6578 170.284 47.2832C172.244 47.9781 173.028 48.2097 175.968 48.4413C178.907 48.6729 184.864 48.9632 191.812 48.1182C193.273 47.9404 196.37 47.1296 197.648 46.5884C199.038 46.1658 200.421 44.6864 201.261 44.5267C202.102 44.3669 203.351 44.2355 204.596 44.5267C208.209 45.3717 207.69 48.7498 207.098 50.2308C205.237 54.8787 201.261 55.3824 194.591 56.3575C188.199 57.292 178.75 57.1642 172.914 56.3575C164.149 55.1462 157.35 52.1473 157.35 40.3346V36.397C157.35 26.4373 165.728 22.6129 172.914 21.71C183.219 20.4152 192.924 20.8812 197.648 21.71Z" fill="white"/>
<path d="M247.048 29.6464C249.518 27.176 251.228 25.6115 253.129 23.565C255.029 21.5184 257.104 21.0945 258.64 21.8546C259.12 22.0921 259.773 22.564 260.16 22.9949C261.165 24.112 260.667 25.8454 260.16 26.9856C259.653 28.1258 258.07 29.2661 256.359 31.1664C254.649 33.0668 253.129 34.5871 253.129 34.7772C253.129 34.9672 257.807 34.7953 258.07 34.7953C261.871 34.7771 263.391 38.3878 263.391 40.2882V53.1522C263.391 54.9744 262.403 57.0112 260.54 57.0112H259.59C257.512 57.0112 256.169 55.2836 256.169 53.1522V45.0391C256.169 43.3288 254.839 41.6185 252.749 41.6185H236.406C235.155 41.6185 233.365 45.0391 233.365 45.0391C233.365 45.0391 231.195 41.6185 229.944 41.6185H224.186C223.768 41.6185 223.236 41.5636 222.932 41.9985C222.533 42.5686 222.723 44.6486 222.723 45.0391V53.1522C222.723 55.2836 221.038 57.0112 218.96 57.0112H218.124C216.046 57.0112 214.361 55.2836 214.361 53.1522V24.4225C214.361 22.2911 216.046 21.4209 218.124 21.4209H218.96C221.038 21.4209 222.723 22.2911 222.723 24.4225V32.8768C222.723 33.2566 222.723 33.8475 222.932 34.207C223.214 34.6917 223.719 34.7771 224.186 34.7771C228.06 34.7771 226.391 34.7953 229.944 34.7953C231.199 34.7953 233.365 31.3567 233.365 31.3567C233.365 31.3567 235.151 34.7953 236.406 34.7953C238.085 34.7953 239.401 34.7953 240.396 34.7953C241.157 34.7953 243.057 33.6369 247.048 29.6464Z" fill="white"/>
<defs>
<linearGradient id="paint0_linear_1059_266" x1="4.74316" y1="76.3039" x2="309" y2="76.3039" gradientUnits="userSpaceOnUse">
<stop stop-color="#FFAE5E"/>
<stop offset="0.466346" stop-color="#9802E4"/>
<stop offset="1" stop-color="#FFBB62"/>
</linearGradient>
</defs>
</svg>
