<svg width="386" height="395" viewBox="0 0 386 395" fill="none" xmlns="http://www.w3.org/2000/svg">
<g opacity="0.7">
<g style="mix-blend-mode:screen">
<path d="M26.4441 19.1473L35.5321 12.0855L32.0609 23.5128L41.1506 30.5745H29.9153L26.4441 42.0018L22.9728 30.5745H11.7393L20.8273 23.5128L17.3561 12.0855L26.4441 19.1473Z" fill="#FFEFCF"/>
<path d="M358.308 176.194L366.034 164.01L367.001 178.167L381.068 181.358L367.6 186.915L368.569 201.072L359.277 190.349L345.807 195.905L353.533 183.722L344.242 173.001L358.308 176.194Z" fill="#FFEFCF"/>
<path d="M319.885 99.3433L312.739 100.731L319.533 103.828L318.963 111.086L323.732 105.744L330.527 108.842L326.679 102.441L331.448 97.0976L324.303 98.485L320.455 92.0856L319.885 99.3433Z" fill="#FFEFCF"/>
<path d="M9.74539 214.171L13.246 211.553L11.9082 215.789L15.4088 218.406H11.0831L9.74539 222.64L8.4111 218.406H4.08545L7.58429 215.789L6.24828 211.553L9.74539 214.171Z" fill="#FFEFCF"/>
<path d="M364.132 128.535L367.462 126.086L366.19 130.051L369.523 132.5H365.403L364.132 136.465L362.858 132.5H358.74L362.071 130.051L360.799 126.086L364.132 128.535Z" fill="#FFEFCF"/>
<path d="M262.364 51.7348L264.152 46.2249L265.942 51.7348H271.735L267.049 55.1388L268.839 60.6471L264.152 57.2431L259.466 60.6471L261.258 55.1388L256.571 51.7348H262.364Z" fill="#FFEFCF"/>
<path d="M189.65 238.029L195.591 239.32L190.026 241.769L190.636 247.82L186.586 243.281L181.021 245.733L184.085 240.48L180.036 235.942L185.977 237.233L189.041 231.98L189.65 238.029Z" fill="#FFEFCF"/>
<path d="M197.697 7.65872L202.616 4.08554L200.736 9.86821L205.656 13.4414H199.576L197.697 19.2241L195.817 13.4414H189.739L194.657 9.86821L192.777 4.08554L197.697 7.65872Z" fill="#FFEFCF"/>
</g>
<g style="mix-blend-mode:screen" filter="url(#filter0_f_3002_7201)">
<path d="M26.4441 19.1473L35.5321 12.0855L32.0609 23.5128L41.1506 30.5745H29.9153L26.4441 42.0018L22.9728 30.5745H11.7393L20.8273 23.5128L17.3561 12.0855L26.4441 19.1473Z" fill="#FFEFCF"/>
<path d="M358.308 176.194L366.034 164.01L367.001 178.167L381.068 181.358L367.6 186.915L368.569 201.072L359.277 190.349L345.807 195.905L353.533 183.722L344.242 173.001L358.308 176.194Z" fill="#FFEFCF"/>
<path d="M319.885 99.3433L312.739 100.731L319.533 103.828L318.963 111.086L323.732 105.744L330.527 108.842L326.679 102.441L331.448 97.0976L324.303 98.485L320.455 92.0856L319.885 99.3433Z" fill="#FFEFCF"/>
<path d="M9.74539 214.171L13.246 211.553L11.9082 215.789L15.4088 218.406H11.0831L9.74539 222.64L8.4111 218.406H4.08545L7.58429 215.789L6.24828 211.553L9.74539 214.171Z" fill="#FFEFCF"/>
<path d="M364.132 128.535L367.462 126.086L366.19 130.051L369.523 132.5H365.403L364.132 136.465L362.858 132.5H358.74L362.071 130.051L360.799 126.086L364.132 128.535Z" fill="#FFEFCF"/>
<path d="M262.364 51.7348L264.152 46.2249L265.942 51.7348H271.735L267.049 55.1388L268.839 60.6471L264.152 57.2431L259.466 60.6471L261.258 55.1388L256.571 51.7348H262.364Z" fill="#FFEFCF"/>
<path d="M189.65 238.029L195.591 239.32L190.026 241.769L190.636 247.82L186.586 243.281L181.021 245.733L184.085 240.48L180.036 235.942L185.977 237.233L189.041 231.98L189.65 238.029Z" fill="#FFEFCF"/>
<path d="M197.697 7.65872L202.616 4.08554L200.736 9.86821L205.656 13.4414H199.576L197.697 19.2241L195.817 13.4414H189.739L194.657 9.86821L192.777 4.08554L197.697 7.65872Z" fill="#FFEFCF"/>
</g>
</g>
<g opacity="0.7">
<g style="mix-blend-mode:screen">
<path d="M31.9948 108.555L40.7988 124.604L58.7822 121.19L46.24 134.522L55.044 150.571L38.4884 142.762L25.9461 156.094L28.2565 137.936L11.701 130.128L29.6844 126.714L31.9948 108.555Z" fill="#FFEFCF"/>
</g>
<g style="mix-blend-mode:screen" filter="url(#filter1_f_3002_7201)">
<path d="M31.9948 108.555L40.7988 124.604L58.7822 121.19L46.24 134.522L55.044 150.571L38.4884 142.762L25.9461 156.094L28.2565 137.936L11.701 130.128L29.6844 126.714L31.9948 108.555Z" fill="#FFEFCF"/>
</g>
<g style="mix-blend-mode:screen">
<path d="M341.959 22.5608L342.348 32.713L352.124 35.4804L342.588 38.9875L342.977 49.1397L336.695 41.1549L327.16 44.662L332.813 36.2201L326.531 28.2354L336.307 31.0027L341.959 22.5608Z" fill="#FFEFCF"/>
</g>
<g style="mix-blend-mode:screen" filter="url(#filter2_f_3002_7201)">
<path d="M341.959 22.5608L342.348 32.713L352.124 35.4804L342.588 38.9875L342.977 49.1397L336.695 41.1549L327.16 44.662L332.813 36.2201L326.531 28.2354L336.307 31.0027L341.959 22.5608Z" fill="#FFEFCF"/>
</g>
<g style="mix-blend-mode:screen">
<path d="M340.502 251.959L340.679 256.598L345.147 257.863L340.789 259.466L340.967 264.105L338.096 260.456L333.739 262.059L336.322 258.201L333.451 254.552L337.918 255.817L340.502 251.959Z" fill="#FFEFCF"/>
</g>
<g style="mix-blend-mode:screen" filter="url(#filter3_f_3002_7201)">
<path d="M340.502 251.959L340.679 256.598L345.147 257.863L340.789 259.466L340.967 264.105L338.096 260.456L333.739 262.059L336.322 258.201L333.451 254.552L337.918 255.817L340.502 251.959Z" fill="#FFEFCF"/>
</g>
<g style="mix-blend-mode:screen">
<path d="M344.502 322.959L344.679 327.599L349.147 328.863L344.789 330.466L344.967 335.105L342.096 331.457L337.739 333.059L340.322 329.201L337.451 325.552L341.918 326.817L344.502 322.959Z" fill="#FFEFCF"/>
</g>
<g style="mix-blend-mode:screen" filter="url(#filter4_f_3002_7201)">
<path d="M344.502 322.959L344.679 327.599L349.147 328.863L344.789 330.466L344.967 335.105L342.096 331.457L337.739 333.059L340.322 329.201L337.451 325.552L341.918 326.817L344.502 322.959Z" fill="#FFEFCF"/>
</g>
<g style="mix-blend-mode:screen">
<path d="M137.156 349.646L134.319 353.321L129.947 351.759L132.566 355.593L129.728 359.268L134.184 357.962L136.802 361.796L136.938 357.155L141.393 355.85L137.021 354.287L137.156 349.646Z" fill="#FFEFCF"/>
</g>
<g style="mix-blend-mode:screen" filter="url(#filter5_f_3002_7201)">
<path d="M137.156 349.646L134.319 353.321L129.947 351.759L132.566 355.593L129.728 359.268L134.184 357.962L136.802 361.796L136.938 357.155L141.393 355.85L137.021 354.287L137.156 349.646Z" fill="#FFEFCF"/>
</g>
<g style="mix-blend-mode:screen">
<path d="M24.2585 330.564L27.5762 337.141L34.857 336.019L29.6267 341.206L32.9443 347.784L26.3941 344.413L21.1637 349.601L22.3458 342.329L15.7956 338.958L23.0764 337.835L24.2585 330.564Z" fill="#FFEFCF"/>
</g>
<g style="mix-blend-mode:screen" filter="url(#filter6_f_3002_7201)">
<path d="M24.2585 330.564L27.5762 337.141L34.857 336.019L29.6267 341.206L32.9443 347.784L26.3941 344.413L21.1637 349.601L22.3458 342.329L15.7956 338.958L23.0764 337.835L24.2585 330.564Z" fill="#FFEFCF"/>
</g>
<g style="mix-blend-mode:screen">
<path d="M94.3314 382.131L92.3741 385.698L88.3759 384.939L91.1644 387.904L89.207 391.472L92.8877 389.736L95.6762 392.7L95.1626 388.663L98.8433 386.927L94.8451 386.168L94.3314 382.131Z" fill="#FFEFCF"/>
</g>
<g style="mix-blend-mode:screen" filter="url(#filter7_f_3002_7201)">
<path d="M94.3314 382.131L92.3741 385.698L88.3759 384.939L91.1644 387.904L89.207 391.472L92.8877 389.736L95.6762 392.7L95.1626 388.663L98.8433 386.927L94.8451 386.168L94.3314 382.131Z" fill="#FFEFCF"/>
</g>
</g>
<defs>
<filter id="filter0_f_3002_7201" x="-8.91685e-05" y="2.38419e-06" width="385.154" height="251.905" filterUnits="userSpaceOnUse" color-interpolation-filters="sRGB">
<feFlood flood-opacity="0" result="BackgroundImageFix"/>
<feBlend mode="normal" in="SourceGraphic" in2="BackgroundImageFix" result="shape"/>
<feGaussianBlur stdDeviation="2.04277" result="effect1_foregroundBlur_3002_7201"/>
</filter>
<filter id="filter1_f_3002_7201" x="6.30826" y="103.163" width="57.8669" height="58.3247" filterUnits="userSpaceOnUse" color-interpolation-filters="sRGB">
<feFlood flood-opacity="0" result="BackgroundImageFix"/>
<feBlend mode="normal" in="SourceGraphic" in2="BackgroundImageFix" result="shape"/>
<feGaussianBlur stdDeviation="2.69646" result="effect1_foregroundBlur_3002_7201"/>
</filter>
<filter id="filter2_f_3002_7201" x="323.538" y="19.5676" width="31.5793" height="32.5653" filterUnits="userSpaceOnUse" color-interpolation-filters="sRGB">
<feFlood flood-opacity="0" result="BackgroundImageFix"/>
<feBlend mode="normal" in="SourceGraphic" in2="BackgroundImageFix" result="shape"/>
<feGaussianBlur stdDeviation="1.49662" result="effect1_foregroundBlur_3002_7201"/>
</filter>
<filter id="filter3_f_3002_7201" x="332.084" y="250.591" width="14.4311" height="14.882" filterUnits="userSpaceOnUse" color-interpolation-filters="sRGB">
<feFlood flood-opacity="0" result="BackgroundImageFix"/>
<feBlend mode="normal" in="SourceGraphic" in2="BackgroundImageFix" result="shape"/>
<feGaussianBlur stdDeviation="0.683937" result="effect1_foregroundBlur_3002_7201"/>
</filter>
<filter id="filter4_f_3002_7201" x="336.084" y="321.591" width="14.4311" height="14.882" filterUnits="userSpaceOnUse" color-interpolation-filters="sRGB">
<feFlood flood-opacity="0" result="BackgroundImageFix"/>
<feBlend mode="normal" in="SourceGraphic" in2="BackgroundImageFix" result="shape"/>
<feGaussianBlur stdDeviation="0.683937" result="effect1_foregroundBlur_3002_7201"/>
</filter>
<filter id="filter5_f_3002_7201" x="128.361" y="348.279" width="14.4003" height="14.8857" filterUnits="userSpaceOnUse" color-interpolation-filters="sRGB">
<feFlood flood-opacity="0" result="BackgroundImageFix"/>
<feBlend mode="normal" in="SourceGraphic" in2="BackgroundImageFix" result="shape"/>
<feGaussianBlur stdDeviation="0.683937" result="effect1_foregroundBlur_3002_7201"/>
</filter>
<filter id="filter6_f_3002_7201" x="13.625" y="328.393" width="23.4024" height="23.3777" filterUnits="userSpaceOnUse" color-interpolation-filters="sRGB">
<feFlood flood-opacity="0" result="BackgroundImageFix"/>
<feBlend mode="normal" in="SourceGraphic" in2="BackgroundImageFix" result="shape"/>
<feGaussianBlur stdDeviation="1.08522" result="effect1_foregroundBlur_3002_7201"/>
</filter>
<filter id="filter7_f_3002_7201" x="87.177" y="380.932" width="12.8653" height="12.9671" filterUnits="userSpaceOnUse" color-interpolation-filters="sRGB">
<feFlood flood-opacity="0" result="BackgroundImageFix"/>
<feBlend mode="normal" in="SourceGraphic" in2="BackgroundImageFix" result="shape"/>
<feGaussianBlur stdDeviation="0.599491" result="effect1_foregroundBlur_3002_7201"/>
</filter>
</defs>
</svg>
