<svg width="101" height="95" viewBox="0 0 101 95" fill="none" xmlns="http://www.w3.org/2000/svg">
<g filter="url(#filter0_i_5175_2321)">
<rect x="1.5" y="20.5" width="98" height="54" rx="10.5" fill="#ADEDAD" fill-opacity="0.67" stroke="#04FF00" stroke-width="3"/>
</g>
<path d="M72.509 34.2538C72.1793 33.1076 70.7347 32.7307 69.8867 33.5786L64.7992 38.6659L60.4811 37.504L59.3191 33.186L64.4066 28.0987C65.2545 27.2508 64.8777 25.8062 63.7314 25.4764C55.9431 23.2311 47.8252 29.1977 47.8252 37.5826C47.8252 38.6817 47.9665 39.7494 48.2492 40.7857L30.8667 58.2149C28.3387 60.7271 28.4172 64.7312 30.8667 67.1334C33.3319 69.6143 37.336 69.63 39.8011 67.1334L57.2147 49.736C58.2511 50.0186 59.3188 50.1599 60.418 50.1599C68.7871 50.1599 74.7696 42.0578 72.5245 34.2542L72.509 34.2538Z" fill="#005912" fill-opacity="0.3"/>
<mask id="path-3-outside-1_5175_2321" maskUnits="userSpaceOnUse" x="21" y="41" width="58" height="12" fill="black">
<rect fill="white" x="21" y="41" width="58" height="12"/>
<path d="M30.0086 49.588C30.2086 49.588 30.3766 49.66 30.5126 49.804C30.6566 49.94 30.7286 50.108 30.7286 50.308C30.7286 50.5 30.6606 50.672 30.5246 50.824C30.1566 51.216 29.6406 51.54 28.9766 51.796C28.3126 52.044 27.6526 52.168 26.9966 52.168C26.0446 52.168 25.1846 51.96 24.4166 51.544C23.6486 51.128 23.0446 50.544 22.6046 49.792C22.1646 49.04 21.9446 48.176 21.9446 47.2C21.9446 46.232 22.1646 45.368 22.6046 44.608C23.0446 43.848 23.6486 43.26 24.4166 42.844C25.1846 42.42 26.0446 42.208 26.9966 42.208C27.6526 42.208 28.3086 42.34 28.9646 42.604C29.6206 42.868 30.1366 43.216 30.5126 43.648C30.6486 43.808 30.7166 43.98 30.7166 44.164C30.7166 44.364 30.6446 44.536 30.5006 44.68C30.3566 44.816 30.1846 44.884 29.9846 44.884C29.8886 44.884 29.7926 44.864 29.6966 44.824C29.6006 44.784 29.5246 44.728 29.4686 44.656C29.2366 44.376 28.8926 44.156 28.4366 43.996C27.9806 43.836 27.5006 43.756 26.9966 43.756C26.1086 43.756 25.3606 43.98 24.7526 44.428C24.1526 44.868 23.7646 45.488 23.5886 46.288H27.3326C27.5326 46.288 27.7006 46.36 27.8366 46.504C27.9806 46.64 28.0526 46.808 28.0526 47.008C28.0526 47.208 27.9806 47.38 27.8366 47.524C27.7006 47.66 27.5326 47.728 27.3326 47.728H23.5286C23.6326 48.632 23.9966 49.344 24.6206 49.864C25.2526 50.376 26.0446 50.632 26.9966 50.632C27.5486 50.632 28.0526 50.56 28.5086 50.416C28.9646 50.272 29.2846 50.084 29.4686 49.852C29.5326 49.772 29.6126 49.708 29.7086 49.66C29.8126 49.612 29.9126 49.588 30.0086 49.588ZM40.3753 42.16C40.5833 42.16 40.7553 42.232 40.8913 42.376C41.0353 42.512 41.1073 42.676 41.1073 42.868C41.1073 42.98 41.0873 43.076 41.0473 43.156L37.1473 51.748C37.0753 51.908 36.9793 52.024 36.8593 52.096C36.7393 52.176 36.6113 52.216 36.4753 52.216C36.3633 52.216 36.2553 52.172 36.1513 52.084C36.0473 52.004 35.9593 51.888 35.8873 51.736L32.0593 43.084C32.0193 43.004 31.9993 42.908 31.9993 42.796C31.9993 42.58 32.0673 42.412 32.2033 42.292C32.3473 42.164 32.5233 42.1 32.7313 42.1C32.8913 42.1 33.0353 42.144 33.1633 42.232C33.2993 42.312 33.3993 42.42 33.4633 42.556L34.8193 45.688L36.4033 49.36L36.5233 49.708L36.6433 49.372L39.7033 42.508C39.7593 42.388 39.8393 42.3 39.9433 42.244C40.0553 42.188 40.1993 42.16 40.3753 42.16ZM50.6102 49.588C50.8102 49.588 50.9782 49.66 51.1142 49.804C51.2582 49.94 51.3302 50.108 51.3302 50.308C51.3302 50.5 51.2622 50.672 51.1262 50.824C50.7582 51.216 50.2422 51.54 49.5782 51.796C48.9142 52.044 48.2542 52.168 47.5982 52.168C46.6462 52.168 45.7862 51.96 45.0182 51.544C44.2502 51.128 43.6462 50.544 43.2062 49.792C42.7662 49.04 42.5462 48.176 42.5462 47.2C42.5462 46.232 42.7662 45.368 43.2062 44.608C43.6462 43.848 44.2502 43.26 45.0182 42.844C45.7862 42.42 46.6462 42.208 47.5982 42.208C48.2542 42.208 48.9102 42.34 49.5662 42.604C50.2222 42.868 50.7382 43.216 51.1142 43.648C51.2502 43.808 51.3182 43.98 51.3182 44.164C51.3182 44.364 51.2462 44.536 51.1022 44.68C50.9582 44.816 50.7862 44.884 50.5862 44.884C50.4902 44.884 50.3942 44.864 50.2982 44.824C50.2022 44.784 50.1262 44.728 50.0702 44.656C49.8382 44.376 49.4942 44.156 49.0382 43.996C48.5822 43.836 48.1022 43.756 47.5982 43.756C46.7102 43.756 45.9622 43.98 45.3542 44.428C44.7542 44.868 44.3662 45.488 44.1902 46.288H47.9342C48.1342 46.288 48.3022 46.36 48.4382 46.504C48.5822 46.64 48.6542 46.808 48.6542 47.008C48.6542 47.208 48.5822 47.38 48.4382 47.524C48.3022 47.66 48.1342 47.728 47.9342 47.728H44.1302C44.2342 48.632 44.5982 49.344 45.2222 49.864C45.8542 50.376 46.6462 50.632 47.5982 50.632C48.1502 50.632 48.6542 50.56 49.1102 50.416C49.5662 50.272 49.8862 50.084 50.0702 49.852C50.1342 49.772 50.2142 49.708 50.3102 49.66C50.4142 49.612 50.5142 49.588 50.6102 49.588ZM53.6089 52.192C53.4009 52.192 53.2209 52.12 53.0689 51.976C52.9169 51.832 52.8409 51.664 52.8409 51.472V43.024C52.8409 42.816 52.9209 42.636 53.0809 42.484C53.2489 42.324 53.4449 42.244 53.6689 42.244C53.9169 42.244 54.1249 42.352 54.2929 42.568L59.6929 49.216L59.7889 49.408V42.868C59.7889 42.676 59.8649 42.508 60.0169 42.364C60.1689 42.22 60.3489 42.148 60.5569 42.148C60.7649 42.148 60.9449 42.22 61.0969 42.364C61.2569 42.508 61.3369 42.676 61.3369 42.868V51.256C61.3369 51.464 61.2529 51.648 61.0849 51.808C60.9169 51.96 60.7209 52.036 60.4969 52.036C60.3849 52.036 60.2729 52.008 60.1609 51.952C60.0489 51.888 59.9529 51.808 59.8729 51.712L54.4849 45.1L54.3889 44.896V51.472C54.3889 51.664 54.3089 51.832 54.1489 51.976C53.9969 52.12 53.8169 52.192 53.6089 52.192ZM69.8948 42.4C70.0948 42.4 70.2628 42.472 70.3988 42.616C70.5428 42.752 70.6148 42.92 70.6148 43.12C70.6148 43.32 70.5428 43.492 70.3988 43.636C70.2628 43.772 70.0948 43.84 69.8948 43.84H67.4588V51.448C67.4588 51.648 67.3788 51.82 67.2188 51.964C67.0668 52.1 66.8868 52.168 66.6788 52.168C66.4708 52.168 66.2908 52.1 66.1388 51.964C65.9868 51.82 65.9108 51.648 65.9108 51.448V43.84H63.4628C63.2628 43.84 63.0908 43.772 62.9468 43.636C62.8108 43.492 62.7428 43.32 62.7428 43.12C62.7428 42.92 62.8108 42.752 62.9468 42.616C63.0908 42.472 63.2628 42.4 63.4628 42.4H69.8948ZM74.881 52.228C74.257 52.228 73.665 52.076 73.105 51.772C72.545 51.46 72.105 51.044 71.785 50.524C71.721 50.412 71.689 50.28 71.689 50.128C71.689 49.88 71.749 49.684 71.869 49.54C71.997 49.396 72.165 49.324 72.373 49.324C72.549 49.324 72.701 49.36 72.829 49.432C72.957 49.504 73.069 49.62 73.165 49.78C73.317 50.036 73.553 50.248 73.873 50.416C74.201 50.576 74.537 50.656 74.881 50.656C76.033 50.656 76.609 50.256 76.609 49.456C76.609 49.112 76.465 48.8 76.177 48.52C75.897 48.24 75.449 47.956 74.833 47.668C74.105 47.332 73.537 47.028 73.129 46.756C72.729 46.476 72.441 46.18 72.265 45.868C72.089 45.548 72.001 45.172 72.001 44.74C72.001 44.244 72.133 43.804 72.397 43.42C72.661 43.028 73.025 42.724 73.489 42.508C73.953 42.284 74.473 42.172 75.049 42.172C75.689 42.172 76.277 42.316 76.813 42.604C77.349 42.884 77.757 43.268 78.037 43.756C78.117 43.884 78.157 44.016 78.157 44.152C78.157 44.344 78.093 44.512 77.965 44.656C77.845 44.8 77.693 44.872 77.509 44.872C77.373 44.872 77.233 44.836 77.089 44.764C76.945 44.684 76.833 44.588 76.753 44.476C76.569 44.22 76.337 44.032 76.057 43.912C75.785 43.792 75.449 43.732 75.049 43.732C74.577 43.732 74.205 43.82 73.933 43.996C73.669 44.164 73.537 44.412 73.537 44.74C73.537 44.94 73.585 45.108 73.681 45.244C73.785 45.372 73.957 45.504 74.197 45.64C74.445 45.776 74.849 45.972 75.409 46.228C76.385 46.684 77.085 47.16 77.509 47.656C77.941 48.152 78.157 48.752 78.157 49.456C78.157 50.008 78.021 50.496 77.749 50.92C77.477 51.336 77.093 51.66 76.597 51.892C76.101 52.116 75.529 52.228 74.881 52.228Z"/>
</mask>
<path d="M30.0086 49.588C30.2086 49.588 30.3766 49.66 30.5126 49.804C30.6566 49.94 30.7286 50.108 30.7286 50.308C30.7286 50.5 30.6606 50.672 30.5246 50.824C30.1566 51.216 29.6406 51.54 28.9766 51.796C28.3126 52.044 27.6526 52.168 26.9966 52.168C26.0446 52.168 25.1846 51.96 24.4166 51.544C23.6486 51.128 23.0446 50.544 22.6046 49.792C22.1646 49.04 21.9446 48.176 21.9446 47.2C21.9446 46.232 22.1646 45.368 22.6046 44.608C23.0446 43.848 23.6486 43.26 24.4166 42.844C25.1846 42.42 26.0446 42.208 26.9966 42.208C27.6526 42.208 28.3086 42.34 28.9646 42.604C29.6206 42.868 30.1366 43.216 30.5126 43.648C30.6486 43.808 30.7166 43.98 30.7166 44.164C30.7166 44.364 30.6446 44.536 30.5006 44.68C30.3566 44.816 30.1846 44.884 29.9846 44.884C29.8886 44.884 29.7926 44.864 29.6966 44.824C29.6006 44.784 29.5246 44.728 29.4686 44.656C29.2366 44.376 28.8926 44.156 28.4366 43.996C27.9806 43.836 27.5006 43.756 26.9966 43.756C26.1086 43.756 25.3606 43.98 24.7526 44.428C24.1526 44.868 23.7646 45.488 23.5886 46.288H27.3326C27.5326 46.288 27.7006 46.36 27.8366 46.504C27.9806 46.64 28.0526 46.808 28.0526 47.008C28.0526 47.208 27.9806 47.38 27.8366 47.524C27.7006 47.66 27.5326 47.728 27.3326 47.728H23.5286C23.6326 48.632 23.9966 49.344 24.6206 49.864C25.2526 50.376 26.0446 50.632 26.9966 50.632C27.5486 50.632 28.0526 50.56 28.5086 50.416C28.9646 50.272 29.2846 50.084 29.4686 49.852C29.5326 49.772 29.6126 49.708 29.7086 49.66C29.8126 49.612 29.9126 49.588 30.0086 49.588ZM40.3753 42.16C40.5833 42.16 40.7553 42.232 40.8913 42.376C41.0353 42.512 41.1073 42.676 41.1073 42.868C41.1073 42.98 41.0873 43.076 41.0473 43.156L37.1473 51.748C37.0753 51.908 36.9793 52.024 36.8593 52.096C36.7393 52.176 36.6113 52.216 36.4753 52.216C36.3633 52.216 36.2553 52.172 36.1513 52.084C36.0473 52.004 35.9593 51.888 35.8873 51.736L32.0593 43.084C32.0193 43.004 31.9993 42.908 31.9993 42.796C31.9993 42.58 32.0673 42.412 32.2033 42.292C32.3473 42.164 32.5233 42.1 32.7313 42.1C32.8913 42.1 33.0353 42.144 33.1633 42.232C33.2993 42.312 33.3993 42.42 33.4633 42.556L34.8193 45.688L36.4033 49.36L36.5233 49.708L36.6433 49.372L39.7033 42.508C39.7593 42.388 39.8393 42.3 39.9433 42.244C40.0553 42.188 40.1993 42.16 40.3753 42.16ZM50.6102 49.588C50.8102 49.588 50.9782 49.66 51.1142 49.804C51.2582 49.94 51.3302 50.108 51.3302 50.308C51.3302 50.5 51.2622 50.672 51.1262 50.824C50.7582 51.216 50.2422 51.54 49.5782 51.796C48.9142 52.044 48.2542 52.168 47.5982 52.168C46.6462 52.168 45.7862 51.96 45.0182 51.544C44.2502 51.128 43.6462 50.544 43.2062 49.792C42.7662 49.04 42.5462 48.176 42.5462 47.2C42.5462 46.232 42.7662 45.368 43.2062 44.608C43.6462 43.848 44.2502 43.26 45.0182 42.844C45.7862 42.42 46.6462 42.208 47.5982 42.208C48.2542 42.208 48.9102 42.34 49.5662 42.604C50.2222 42.868 50.7382 43.216 51.1142 43.648C51.2502 43.808 51.3182 43.98 51.3182 44.164C51.3182 44.364 51.2462 44.536 51.1022 44.68C50.9582 44.816 50.7862 44.884 50.5862 44.884C50.4902 44.884 50.3942 44.864 50.2982 44.824C50.2022 44.784 50.1262 44.728 50.0702 44.656C49.8382 44.376 49.4942 44.156 49.0382 43.996C48.5822 43.836 48.1022 43.756 47.5982 43.756C46.7102 43.756 45.9622 43.98 45.3542 44.428C44.7542 44.868 44.3662 45.488 44.1902 46.288H47.9342C48.1342 46.288 48.3022 46.36 48.4382 46.504C48.5822 46.64 48.6542 46.808 48.6542 47.008C48.6542 47.208 48.5822 47.38 48.4382 47.524C48.3022 47.66 48.1342 47.728 47.9342 47.728H44.1302C44.2342 48.632 44.5982 49.344 45.2222 49.864C45.8542 50.376 46.6462 50.632 47.5982 50.632C48.1502 50.632 48.6542 50.56 49.1102 50.416C49.5662 50.272 49.8862 50.084 50.0702 49.852C50.1342 49.772 50.2142 49.708 50.3102 49.66C50.4142 49.612 50.5142 49.588 50.6102 49.588ZM53.6089 52.192C53.4009 52.192 53.2209 52.12 53.0689 51.976C52.9169 51.832 52.8409 51.664 52.8409 51.472V43.024C52.8409 42.816 52.9209 42.636 53.0809 42.484C53.2489 42.324 53.4449 42.244 53.6689 42.244C53.9169 42.244 54.1249 42.352 54.2929 42.568L59.6929 49.216L59.7889 49.408V42.868C59.7889 42.676 59.8649 42.508 60.0169 42.364C60.1689 42.22 60.3489 42.148 60.5569 42.148C60.7649 42.148 60.9449 42.22 61.0969 42.364C61.2569 42.508 61.3369 42.676 61.3369 42.868V51.256C61.3369 51.464 61.2529 51.648 61.0849 51.808C60.9169 51.96 60.7209 52.036 60.4969 52.036C60.3849 52.036 60.2729 52.008 60.1609 51.952C60.0489 51.888 59.9529 51.808 59.8729 51.712L54.4849 45.1L54.3889 44.896V51.472C54.3889 51.664 54.3089 51.832 54.1489 51.976C53.9969 52.12 53.8169 52.192 53.6089 52.192ZM69.8948 42.4C70.0948 42.4 70.2628 42.472 70.3988 42.616C70.5428 42.752 70.6148 42.92 70.6148 43.12C70.6148 43.32 70.5428 43.492 70.3988 43.636C70.2628 43.772 70.0948 43.84 69.8948 43.84H67.4588V51.448C67.4588 51.648 67.3788 51.82 67.2188 51.964C67.0668 52.1 66.8868 52.168 66.6788 52.168C66.4708 52.168 66.2908 52.1 66.1388 51.964C65.9868 51.82 65.9108 51.648 65.9108 51.448V43.84H63.4628C63.2628 43.84 63.0908 43.772 62.9468 43.636C62.8108 43.492 62.7428 43.32 62.7428 43.12C62.7428 42.92 62.8108 42.752 62.9468 42.616C63.0908 42.472 63.2628 42.4 63.4628 42.4H69.8948ZM74.881 52.228C74.257 52.228 73.665 52.076 73.105 51.772C72.545 51.46 72.105 51.044 71.785 50.524C71.721 50.412 71.689 50.28 71.689 50.128C71.689 49.88 71.749 49.684 71.869 49.54C71.997 49.396 72.165 49.324 72.373 49.324C72.549 49.324 72.701 49.36 72.829 49.432C72.957 49.504 73.069 49.62 73.165 49.78C73.317 50.036 73.553 50.248 73.873 50.416C74.201 50.576 74.537 50.656 74.881 50.656C76.033 50.656 76.609 50.256 76.609 49.456C76.609 49.112 76.465 48.8 76.177 48.52C75.897 48.24 75.449 47.956 74.833 47.668C74.105 47.332 73.537 47.028 73.129 46.756C72.729 46.476 72.441 46.18 72.265 45.868C72.089 45.548 72.001 45.172 72.001 44.74C72.001 44.244 72.133 43.804 72.397 43.42C72.661 43.028 73.025 42.724 73.489 42.508C73.953 42.284 74.473 42.172 75.049 42.172C75.689 42.172 76.277 42.316 76.813 42.604C77.349 42.884 77.757 43.268 78.037 43.756C78.117 43.884 78.157 44.016 78.157 44.152C78.157 44.344 78.093 44.512 77.965 44.656C77.845 44.8 77.693 44.872 77.509 44.872C77.373 44.872 77.233 44.836 77.089 44.764C76.945 44.684 76.833 44.588 76.753 44.476C76.569 44.22 76.337 44.032 76.057 43.912C75.785 43.792 75.449 43.732 75.049 43.732C74.577 43.732 74.205 43.82 73.933 43.996C73.669 44.164 73.537 44.412 73.537 44.74C73.537 44.94 73.585 45.108 73.681 45.244C73.785 45.372 73.957 45.504 74.197 45.64C74.445 45.776 74.849 45.972 75.409 46.228C76.385 46.684 77.085 47.16 77.509 47.656C77.941 48.152 78.157 48.752 78.157 49.456C78.157 50.008 78.021 50.496 77.749 50.92C77.477 51.336 77.093 51.66 76.597 51.892C76.101 52.116 75.529 52.228 74.881 52.228Z" fill="#0A3F15"/>
<path d="M30.5126 49.804L30.3309 49.9757L30.3358 49.9809L30.341 49.9858L30.5126 49.804ZM30.5246 50.824L30.7069 50.9952L30.7109 50.9907L30.5246 50.824ZM28.9766 51.796L29.0641 52.0302L29.0665 52.0293L28.9766 51.796ZM24.4166 51.544L24.2975 51.7638V51.7638L24.4166 51.544ZM22.6046 44.608L22.3883 44.4827V44.4827L22.6046 44.608ZM24.4166 42.844L24.5357 43.0638L24.5374 43.0629L24.4166 42.844ZM30.5126 43.648L30.7031 43.4861L30.7012 43.4839L30.5126 43.648ZM30.5006 44.68L30.6723 44.8618L30.6774 44.8568L30.5006 44.68ZM29.4686 44.656L29.666 44.5024L29.6611 44.4965L29.4686 44.656ZM28.4366 43.996L28.5194 43.7601V43.7601L28.4366 43.996ZM24.7526 44.428L24.9005 44.6296L24.9009 44.6293L24.7526 44.428ZM23.5886 46.288L23.3444 46.2343L23.2776 46.538H23.5886V46.288ZM27.8366 46.504L27.6549 46.6757L27.6598 46.6808L27.665 46.6858L27.8366 46.504ZM27.8366 47.524L27.6598 47.3472V47.3472L27.8366 47.524ZM23.5286 47.728V47.478H23.2482L23.2802 47.7566L23.5286 47.728ZM24.6206 49.864L24.4605 50.0561L24.4632 50.0583L24.6206 49.864ZM28.5086 50.416L28.5839 50.6544V50.6544L28.5086 50.416ZM29.4686 49.852L29.2734 49.6958L29.2727 49.6967L29.4686 49.852ZM29.7086 49.66L29.6038 49.4329L29.5968 49.4364L29.7086 49.66ZM30.0086 49.588V49.838C30.1406 49.838 30.2426 49.8822 30.3309 49.9757L30.5126 49.804L30.6944 49.6323C30.5106 49.4378 30.2766 49.338 30.0086 49.338V49.588ZM30.5126 49.804L30.341 49.9858C30.4344 50.074 30.4786 50.176 30.4786 50.308H30.7286H30.9786C30.9786 50.04 30.8788 49.806 30.6843 49.6222L30.5126 49.804ZM30.7286 50.308H30.4786C30.4786 50.4344 30.4361 50.548 30.3383 50.6573L30.5246 50.824L30.7109 50.9907C30.8851 50.796 30.9786 50.5656 30.9786 50.308H30.7286ZM30.5246 50.824L30.3423 50.6529C30.007 51.0101 29.5265 51.3161 28.8867 51.5627L28.9766 51.796L29.0665 52.0293C29.7548 51.7639 30.3062 51.4219 30.7069 50.9951L30.5246 50.824ZM28.9766 51.796L28.8891 51.5618C28.2509 51.8002 27.6204 51.918 26.9966 51.918V52.168V52.418C27.6848 52.418 28.3744 52.2878 29.0641 52.0302L28.9766 51.796ZM26.9966 52.168V51.918C26.0824 51.918 25.2639 51.7186 24.5357 51.3242L24.4166 51.544L24.2975 51.7638C25.1053 52.2014 26.0069 52.418 26.9966 52.418V52.168ZM24.4166 51.544L24.5357 51.3242C23.8078 50.9299 23.2372 50.3782 22.8204 49.6657L22.6046 49.792L22.3888 49.9183C22.852 50.7098 23.4895 51.3261 24.2975 51.7638L24.4166 51.544ZM22.6046 49.792L22.8204 49.6657C22.4054 48.9565 22.1946 48.1371 22.1946 47.2H21.9446H21.6946C21.6946 48.2149 21.9238 49.1235 22.3888 49.9183L22.6046 49.792ZM21.9446 47.2H22.1946C22.1946 46.2714 22.4052 45.4514 22.821 44.7333L22.6046 44.608L22.3883 44.4827C21.924 45.2846 21.6946 46.1926 21.6946 47.2H21.9446ZM22.6046 44.608L22.821 44.7333C23.238 44.0129 23.8084 43.4577 24.5357 43.0638L24.4166 42.844L24.2975 42.6242C23.4888 43.0623 22.8512 43.6831 22.3883 44.4827L22.6046 44.608ZM24.4166 42.844L24.5374 43.0629C25.2653 42.661 26.0832 42.458 26.9966 42.458V42.208V41.958C26.006 41.958 25.1039 42.179 24.2958 42.6251L24.4166 42.844ZM26.9966 42.208V42.458C27.6182 42.458 28.2426 42.5829 28.8713 42.8359L28.9646 42.604L29.0579 42.3721C28.3746 42.0971 27.687 41.958 26.9966 41.958V42.208ZM28.9646 42.604L28.8713 42.8359C29.4991 43.0886 29.9794 43.4161 30.324 43.8121L30.5126 43.648L30.7012 43.4839C30.2939 43.0159 29.7422 42.6474 29.0579 42.3721L28.9646 42.604ZM30.5126 43.648L30.3221 43.8099C30.4255 43.9315 30.4666 44.0476 30.4666 44.164H30.7166H30.9666C30.9666 43.9124 30.8718 43.6845 30.7031 43.4861L30.5126 43.648ZM30.7166 44.164H30.4666C30.4666 44.2964 30.4219 44.4051 30.3238 44.5032L30.5006 44.68L30.6774 44.8568C30.8673 44.6669 30.9666 44.4316 30.9666 44.164H30.7166ZM30.5006 44.68L30.329 44.4982C30.2319 44.5899 30.1215 44.634 29.9846 44.634V44.884V45.134C30.2477 45.134 30.4814 45.0421 30.6723 44.8618L30.5006 44.68ZM29.9846 44.884V44.634C29.9243 44.634 29.8609 44.6216 29.7928 44.5932L29.6966 44.824L29.6005 45.0548C29.7244 45.1064 29.8529 45.134 29.9846 45.134V44.884ZM29.6966 44.824L29.7928 44.5932C29.7309 44.5675 29.6919 44.5359 29.6659 44.5025L29.4686 44.656L29.2713 44.8095C29.3573 44.9201 29.4703 45.0005 29.6005 45.0548L29.6966 44.824ZM29.4686 44.656L29.6611 44.4965C29.3921 44.1718 29.0045 43.9303 28.5194 43.7601L28.4366 43.996L28.3538 44.2319C28.7807 44.3817 29.0811 44.5802 29.2761 44.8155L29.4686 44.656ZM28.4366 43.996L28.5194 43.7601C28.0357 43.5904 27.5276 43.506 26.9966 43.506V43.756V44.006C27.4736 44.006 27.9256 44.0816 28.3538 44.2319L28.4366 43.996ZM26.9966 43.756V43.506C26.0649 43.506 25.2625 43.7418 24.6043 44.2267L24.7526 44.428L24.9009 44.6293C25.4587 44.2182 26.1523 44.006 26.9966 44.006V43.756ZM24.7526 44.428L24.6048 44.2264C23.9507 44.7061 23.5321 45.3814 23.3444 46.2343L23.5886 46.288L23.8328 46.3417C23.9971 45.5946 24.3545 45.0299 24.9004 44.6296L24.7526 44.428ZM23.5886 46.288V46.538H27.3326V46.288V46.038H23.5886V46.288ZM27.3326 46.288V46.538C27.4646 46.538 27.5666 46.5822 27.6549 46.6757L27.8366 46.504L28.0184 46.3323C27.8346 46.1378 27.6006 46.038 27.3326 46.038V46.288ZM27.8366 46.504L27.665 46.6858C27.7584 46.774 27.8026 46.876 27.8026 47.008H28.0526H28.3026C28.3026 46.74 28.2028 46.506 28.0083 46.3222L27.8366 46.504ZM28.0526 47.008H27.8026C27.8026 47.1404 27.7579 47.2491 27.6598 47.3472L27.8366 47.524L28.0134 47.7008C28.2033 47.5109 28.3026 47.2757 28.3026 47.008H28.0526ZM27.8366 47.524L27.6598 47.3472C27.5728 47.4343 27.4693 47.478 27.3326 47.478V47.728V47.978C27.596 47.978 27.8285 47.8857 28.0134 47.7008L27.8366 47.524ZM27.3326 47.728V47.478H23.5286V47.728V47.978H27.3326V47.728ZM23.5286 47.728L23.2802 47.7566C23.3906 48.7161 23.7811 49.4899 24.4606 50.0561L24.6206 49.864L24.7807 49.6719C24.2121 49.1981 23.8746 48.5479 23.777 47.6994L23.5286 47.728ZM24.6206 49.864L24.4632 50.0583C25.1471 50.6123 25.9975 50.882 26.9966 50.882V50.632V50.382C26.0917 50.382 25.3581 50.1397 24.778 49.6697L24.6206 49.864ZM26.9966 50.632V50.882C27.5703 50.882 28.1001 50.8072 28.5839 50.6544L28.5086 50.416L28.4333 50.1776C28.0051 50.3128 27.5269 50.382 26.9966 50.382V50.632ZM28.5086 50.416L28.5839 50.6544C29.0608 50.5038 29.4357 50.2958 29.6645 50.0073L29.4686 49.852L29.2727 49.6967C29.1335 49.8722 28.8684 50.0402 28.4333 50.1776L28.5086 50.416ZM29.4686 49.852L29.6638 50.0082C29.7042 49.9578 29.7552 49.9162 29.8204 49.8836L29.7086 49.66L29.5968 49.4364C29.47 49.4998 29.3611 49.5862 29.2734 49.6958L29.4686 49.852ZM29.7086 49.66L29.8134 49.887C29.8908 49.8513 29.9551 49.838 30.0086 49.838V49.588V49.338C29.8701 49.338 29.7344 49.3727 29.6038 49.433L29.7086 49.66ZM40.8913 42.376L40.7095 42.5477L40.7144 42.5528L40.7196 42.5578L40.8913 42.376ZM41.0473 43.156L40.8235 43.0441L40.8196 43.0527L41.0473 43.156ZM37.1473 51.748L36.9197 51.6447L36.9193 51.6454L37.1473 51.748ZM36.8593 52.096L36.7305 51.8814L36.7206 51.888L36.8593 52.096ZM36.1513 52.084L36.313 51.8929L36.3037 51.8858L36.1513 52.084ZM35.8873 51.736L35.6586 51.8372L35.6614 51.843L35.8873 51.736ZM32.0593 43.084L32.2882 42.9827L32.2829 42.9722L32.0593 43.084ZM32.2033 42.292L32.3687 42.4795L32.3694 42.4789L32.2033 42.292ZM33.1633 42.232L33.0217 42.438L33.0289 42.443L33.0365 42.4475L33.1633 42.232ZM33.4633 42.556L33.6928 42.4566L33.6895 42.4496L33.4633 42.556ZM34.8193 45.688L35.0489 45.589L35.0487 45.5887L34.8193 45.688ZM36.4033 49.36L36.6396 49.2785L36.6366 49.2696L36.6329 49.261L36.4033 49.36ZM36.5233 49.708L36.287 49.7895L36.5192 50.4629L36.7587 49.7921L36.5233 49.708ZM36.6433 49.372L36.415 49.2702L36.4111 49.2789L36.4079 49.2879L36.6433 49.372ZM39.7033 42.508L39.4767 42.4023L39.475 42.4062L39.7033 42.508ZM39.9433 42.244L39.8314 42.0203L39.8248 42.0239L39.9433 42.244ZM40.3753 42.16V42.41C40.5184 42.41 40.6234 42.4564 40.7095 42.5477L40.8913 42.376L41.0731 42.2043C40.8872 42.0076 40.6482 41.91 40.3753 41.91V42.16ZM40.8913 42.376L40.7196 42.5578C40.8154 42.6482 40.8573 42.7472 40.8573 42.868H41.1073H41.3573C41.3573 42.6048 41.2552 42.3758 41.063 42.1942L40.8913 42.376ZM41.1073 42.868H40.8573C40.8573 42.9507 40.8425 43.0065 40.8237 43.0442L41.0473 43.156L41.2709 43.2678C41.3321 43.1454 41.3573 43.0093 41.3573 42.868H41.1073ZM41.0473 43.156L40.8196 43.0527L36.9197 51.6447L37.1473 51.748L37.3749 51.8513L41.2749 43.2593L41.0473 43.156ZM37.1473 51.748L36.9193 51.6454C36.8629 51.7708 36.797 51.8419 36.7307 51.8816L36.8593 52.096L36.9879 52.3104C37.1616 52.2061 37.2877 52.0452 37.3753 51.8506L37.1473 51.748ZM36.8593 52.096L36.7206 51.888C36.6391 51.9424 36.5589 51.966 36.4753 51.966V52.216V52.466C36.6637 52.466 36.8395 52.4096 36.998 52.304L36.8593 52.096ZM36.4753 52.216V51.966C36.4345 51.966 36.3818 51.9516 36.3128 51.8932L36.1513 52.084L35.9898 52.2748C36.1288 52.3924 36.2921 52.466 36.4753 52.466V52.216ZM36.1513 52.084L36.3037 51.8858C36.2387 51.8358 36.1729 51.755 36.1132 51.629L35.8873 51.736L35.6614 51.843C35.7457 52.021 35.8559 52.1722 35.9989 52.2822L36.1513 52.084ZM35.8873 51.736L36.1159 51.6348L32.2879 42.9828L32.0593 43.084L31.8307 43.1852L35.6587 51.8372L35.8873 51.736ZM32.0593 43.084L32.2829 42.9722C32.2641 42.9346 32.2493 42.8787 32.2493 42.796H31.9993H31.7493C31.7493 42.9373 31.7745 43.0734 31.8357 43.1958L32.0593 43.084ZM31.9993 42.796H32.2493C32.2493 42.6367 32.2968 42.5429 32.3687 42.4795L32.2033 42.292L32.0379 42.1045C31.8378 42.2811 31.7493 42.5233 31.7493 42.796H31.9993ZM32.2033 42.292L32.3694 42.4789C32.4638 42.3949 32.5792 42.35 32.7313 42.35V42.1V41.85C32.4674 41.85 32.2308 41.9331 32.0372 42.1051L32.2033 42.292ZM32.7313 42.1V42.35C32.8423 42.35 32.9367 42.3796 33.0217 42.438L33.1633 42.232L33.3049 42.026C33.1339 41.9084 32.9403 41.85 32.7313 41.85V42.1ZM33.1633 42.232L33.0365 42.4475C33.1315 42.5033 33.1956 42.5743 33.2371 42.6624L33.4633 42.556L33.6895 42.4496C33.603 42.2657 33.4671 42.1207 33.2901 42.0165L33.1633 42.232ZM33.4633 42.556L33.2339 42.6553L34.5899 45.7873L34.8193 45.688L35.0487 45.5887L33.6927 42.4567L33.4633 42.556ZM34.8193 45.688L34.5897 45.787L36.1737 49.459L36.4033 49.36L36.6329 49.261L35.0489 45.589L34.8193 45.688ZM36.4033 49.36L36.167 49.4415L36.287 49.7895L36.5233 49.708L36.7596 49.6265L36.6396 49.2785L36.4033 49.36ZM36.5233 49.708L36.7587 49.7921L36.8787 49.4561L36.6433 49.372L36.4079 49.2879L36.2879 49.6239L36.5233 49.708ZM36.6433 49.372L36.8716 49.4738L39.9316 42.6098L39.7033 42.508L39.475 42.4062L36.415 49.2702L36.6433 49.372ZM39.7033 42.508L39.9298 42.6137C39.966 42.5363 40.0109 42.4915 40.0618 42.4641L39.9433 42.244L39.8248 42.0239C39.6677 42.1085 39.5526 42.2397 39.4768 42.4023L39.7033 42.508ZM39.9433 42.244L40.0551 42.4676C40.1212 42.4345 40.2233 42.41 40.3753 42.41V42.16V41.91C40.1753 41.91 39.9894 41.9415 39.8315 42.0204L39.9433 42.244ZM51.1142 49.804L50.9324 49.9757L50.9373 49.9809L50.9425 49.9858L51.1142 49.804ZM51.1262 50.824L51.3085 50.9952L51.3125 50.9907L51.1262 50.824ZM49.5782 51.796L49.6656 52.0302L49.6681 52.0293L49.5782 51.796ZM45.0182 51.544L44.8991 51.7638V51.7638L45.0182 51.544ZM43.2062 44.608L42.9898 44.4827V44.4827L43.2062 44.608ZM45.0182 42.844L45.1372 43.0638L45.139 43.0629L45.0182 42.844ZM51.1142 43.648L51.3047 43.4861L51.3027 43.4839L51.1142 43.648ZM51.1022 44.68L51.2739 44.8618L51.2789 44.8568L51.1022 44.68ZM50.0702 44.656L50.2676 44.5024L50.2627 44.4965L50.0702 44.656ZM49.0382 43.996L49.1209 43.7601V43.7601L49.0382 43.996ZM45.3542 44.428L45.502 44.6296L45.5025 44.6293L45.3542 44.428ZM44.1902 46.288L43.946 46.2343L43.8792 46.538H44.1902V46.288ZM48.4382 46.504L48.2564 46.6757L48.2613 46.6808L48.2665 46.6858L48.4382 46.504ZM48.4382 47.524L48.2614 47.3472V47.3472L48.4382 47.524ZM44.1302 47.728V47.478H43.8498L43.8818 47.7566L44.1302 47.728ZM45.2222 49.864L45.0621 50.0561L45.0648 50.0583L45.2222 49.864ZM49.1102 50.416L49.1855 50.6544V50.6544L49.1102 50.416ZM50.0702 49.852L49.875 49.6958L49.8743 49.6967L50.0702 49.852ZM50.3102 49.66L50.2054 49.4329L50.1984 49.4364L50.3102 49.66ZM50.6102 49.588V49.838C50.7421 49.838 50.8442 49.8822 50.9324 49.9757L51.1142 49.804L51.2959 49.6323C51.1122 49.4378 50.8782 49.338 50.6102 49.338V49.588ZM51.1142 49.804L50.9425 49.9858C51.036 50.074 51.0802 50.176 51.0802 50.308H51.3302H51.5802C51.5802 50.04 51.4804 49.806 51.2858 49.6222L51.1142 49.804ZM51.3302 50.308H51.0802C51.0802 50.4344 51.0376 50.548 50.9399 50.6573L51.1262 50.824L51.3125 50.9907C51.4867 50.796 51.5802 50.5656 51.5802 50.308H51.3302ZM51.1262 50.824L50.9439 50.6529C50.6085 51.0101 50.128 51.3161 49.4882 51.5627L49.5782 51.796L49.6681 52.0293C50.3563 51.7639 50.9078 51.4219 51.3084 50.9951L51.1262 50.824ZM49.5782 51.796L49.4907 51.5618C48.8524 51.8002 48.222 51.918 47.5982 51.918V52.168V52.418C48.2864 52.418 48.9759 52.2878 49.6656 52.0302L49.5782 51.796ZM47.5982 52.168V51.918C46.6839 51.918 45.8655 51.7186 45.1372 51.3242L45.0182 51.544L44.8991 51.7638C45.7069 52.2014 46.6084 52.418 47.5982 52.418V52.168ZM45.0182 51.544L45.1372 51.3242C44.4093 50.9299 43.8388 50.3782 43.422 49.6657L43.2062 49.792L42.9904 49.9183C43.4535 50.7098 44.091 51.3261 44.8991 51.7638L45.0182 51.544ZM43.2062 49.792L43.422 49.6657C43.007 48.9565 42.7962 48.1371 42.7962 47.2H42.5462H42.2962C42.2962 48.2149 42.5254 49.1235 42.9904 49.9183L43.2062 49.792ZM42.5462 47.2H42.7962C42.7962 46.2714 43.0068 45.4514 43.4225 44.7333L43.2062 44.608L42.9898 44.4827C42.5256 45.2846 42.2962 46.1926 42.2962 47.2H42.5462ZM43.2062 44.608L43.4225 44.7333C43.8396 44.0129 44.41 43.4577 45.1372 43.0638L45.0182 42.844L44.8991 42.6242C44.0903 43.0623 43.4528 43.6831 42.9898 44.4827L43.2062 44.608ZM45.0182 42.844L45.139 43.0629C45.8669 42.661 46.6847 42.458 47.5982 42.458V42.208V41.958C46.6076 41.958 45.7054 42.179 44.8973 42.6251L45.0182 42.844ZM47.5982 42.208V42.458C48.2198 42.458 48.8442 42.5829 49.4728 42.8359L49.5662 42.604L49.6595 42.3721C48.9762 42.0971 48.2886 41.958 47.5982 41.958V42.208ZM49.5662 42.604L49.4728 42.8359C50.1006 43.0886 50.5809 43.4161 50.9256 43.8121L51.1142 43.648L51.3027 43.4839C50.8954 43.0159 50.3437 42.6474 49.6595 42.3721L49.5662 42.604ZM51.1142 43.648L50.9237 43.8099C51.027 43.9315 51.0682 44.0476 51.0682 44.164H51.3182H51.5682C51.5682 43.9124 51.4733 43.6845 51.3047 43.4861L51.1142 43.648ZM51.3182 44.164H51.0682C51.0682 44.2964 51.0235 44.4051 50.9254 44.5032L51.1022 44.68L51.2789 44.8568C51.4689 44.6669 51.5682 44.4316 51.5682 44.164H51.3182ZM51.1022 44.68L50.9305 44.4982C50.8334 44.5899 50.723 44.634 50.5862 44.634V44.884V45.134C50.8493 45.134 51.0829 45.0421 51.2738 44.8618L51.1022 44.68ZM50.5862 44.884V44.634C50.5258 44.634 50.4624 44.6216 50.3943 44.5932L50.2982 44.824L50.202 45.0548C50.3259 45.1064 50.4545 45.134 50.5862 45.134V44.884ZM50.2982 44.824L50.3943 44.5932C50.3325 44.5675 50.2935 44.5359 50.2675 44.5025L50.0702 44.656L49.8728 44.8095C49.9589 44.9201 50.0719 45.0005 50.202 45.0548L50.2982 44.824ZM50.0702 44.656L50.2627 44.4965C49.9937 44.1718 49.6061 43.9303 49.1209 43.7601L49.0382 43.996L48.9554 44.2319C49.3823 44.3817 49.6827 44.5802 49.8777 44.8155L50.0702 44.656ZM49.0382 43.996L49.1209 43.7601C48.6372 43.5904 48.1291 43.506 47.5982 43.506V43.756V44.006C48.0752 44.006 48.5271 44.0816 48.9554 44.2319L49.0382 43.996ZM47.5982 43.756V43.506C46.6665 43.506 45.864 43.7418 45.2059 44.2267L45.3542 44.428L45.5025 44.6293C46.0603 44.2182 46.7538 44.006 47.5982 44.006V43.756ZM45.3542 44.428L45.2063 44.2264C44.5522 44.7061 44.1337 45.3814 43.946 46.2343L44.1902 46.288L44.4343 46.3417C44.5987 45.5946 44.9561 45.0299 45.502 44.6296L45.3542 44.428ZM44.1902 46.288V46.538H47.9342V46.288V46.038H44.1902V46.288ZM47.9342 46.288V46.538C48.0662 46.538 48.1682 46.5822 48.2564 46.6757L48.4382 46.504L48.6199 46.3323C48.4362 46.1378 48.2022 46.038 47.9342 46.038V46.288ZM48.4382 46.504L48.2665 46.6858C48.36 46.774 48.4042 46.876 48.4042 47.008H48.6542H48.9042C48.9042 46.74 48.8044 46.506 48.6098 46.3222L48.4382 46.504ZM48.6542 47.008H48.4042C48.4042 47.1404 48.3595 47.2491 48.2614 47.3472L48.4382 47.524L48.6149 47.7008C48.8049 47.5109 48.9042 47.2757 48.9042 47.008H48.6542ZM48.4382 47.524L48.2614 47.3472C48.1743 47.4343 48.0708 47.478 47.9342 47.478V47.728V47.978C48.1975 47.978 48.43 47.8857 48.6149 47.7008L48.4382 47.524ZM47.9342 47.728V47.478H44.1302V47.728V47.978H47.9342V47.728ZM44.1302 47.728L43.8818 47.7566C43.9922 48.7161 44.3827 49.4899 45.0621 50.0561L45.2222 49.864L45.3822 49.6719C44.8137 49.1981 44.4762 48.5479 44.3785 47.6994L44.1302 47.728ZM45.2222 49.864L45.0648 50.0583C45.7487 50.6123 46.5991 50.882 47.5982 50.882V50.632V50.382C46.6932 50.382 45.9597 50.1397 45.3795 49.6697L45.2222 49.864ZM47.5982 50.632V50.882C48.1719 50.882 48.7017 50.8072 49.1855 50.6544L49.1102 50.416L49.0349 50.1776C48.6067 50.3128 48.1285 50.382 47.5982 50.382V50.632ZM49.1102 50.416L49.1855 50.6544C49.6624 50.5038 50.0373 50.2958 50.266 50.0073L50.0702 49.852L49.8743 49.6967C49.735 49.8722 49.47 50.0402 49.0349 50.1776L49.1102 50.416ZM50.0702 49.852L50.2654 50.0082C50.3057 49.9578 50.3568 49.9162 50.422 49.8836L50.3102 49.66L50.1984 49.4364C50.0716 49.4998 49.9626 49.5862 49.875 49.6958L50.0702 49.852ZM50.3102 49.66L50.4149 49.887C50.4923 49.8513 50.5567 49.838 50.6102 49.838V49.588V49.338C50.4717 49.338 50.336 49.3727 50.2054 49.433L50.3102 49.66ZM53.0689 51.976L52.8969 52.1575L53.0689 51.976ZM53.0809 42.484L53.253 42.6652L53.2533 42.665L53.0809 42.484ZM54.2929 42.568L54.0955 42.7215L54.0988 42.7256L54.2929 42.568ZM59.6929 49.216L59.9165 49.1042L59.9042 49.0797L59.8869 49.0584L59.6929 49.216ZM59.7889 49.408L59.5653 49.5198L60.0389 49.408H59.7889ZM61.0969 42.364L60.9249 42.5455L60.9296 42.5498L61.0969 42.364ZM61.0849 51.808L61.2526 51.9934L61.2573 51.989L61.0849 51.808ZM60.1609 51.952L60.0366 52.1694L60.0491 52.1756L60.1609 51.952ZM59.8729 51.712L59.679 51.8699L59.6808 51.872L59.8729 51.712ZM54.4849 45.1L54.2587 45.2064L54.2717 45.2342L54.2911 45.2579L54.4849 45.1ZM54.3889 44.896L54.6151 44.7896L54.1389 44.896H54.3889ZM54.1489 51.976L53.9816 51.7901L53.9769 51.7945L54.1489 51.976ZM53.6089 52.192V51.942C53.4653 51.942 53.3467 51.8948 53.2408 51.7945L53.0689 51.976L52.8969 52.1575C53.095 52.3452 53.3364 52.442 53.6089 52.442V52.192ZM53.0689 51.976L53.2408 51.7945C53.1336 51.693 53.0909 51.5887 53.0909 51.472H52.8409H52.5909C52.5909 51.7393 52.7001 51.971 52.8969 52.1575L53.0689 51.976ZM52.8409 51.472H53.0909V43.024H52.8409H52.5909V51.472H52.8409ZM52.8409 43.024H53.0909C53.0909 42.8891 53.1393 42.7733 53.253 42.6652L53.0809 42.484L52.9087 42.3027C52.7024 42.4987 52.5909 42.7429 52.5909 43.024H52.8409ZM53.0809 42.484L53.2533 42.665C53.3766 42.5476 53.5116 42.494 53.6689 42.494V42.244V41.994C53.3782 41.994 53.1211 42.1004 52.9084 42.303L53.0809 42.484ZM53.6689 42.244V42.494C53.831 42.494 53.9693 42.5592 54.0955 42.7215L54.2929 42.568L54.4902 42.4145C54.2804 42.1448 54.0027 41.994 53.6689 41.994V42.244ZM54.2929 42.568L54.0988 42.7256L59.4988 49.3736L59.6929 49.216L59.8869 49.0584L54.4869 42.4104L54.2929 42.568ZM59.6929 49.216L59.4693 49.3278L59.5653 49.5198L59.7889 49.408L60.0125 49.2962L59.9165 49.1042L59.6929 49.216ZM59.7889 49.408H60.0389V42.868H59.7889H59.5389V49.408H59.7889ZM59.7889 42.868H60.0389C60.0389 42.7513 60.0816 42.647 60.1888 42.5455L60.0169 42.364L59.8449 42.1825C59.6481 42.369 59.5389 42.6007 59.5389 42.868H59.7889ZM60.0169 42.364L60.1888 42.5455C60.2947 42.4452 60.4133 42.398 60.5569 42.398V42.148V41.898C60.2844 41.898 60.043 41.9948 59.8449 42.1825L60.0169 42.364ZM60.5569 42.148V42.398C60.7004 42.398 60.819 42.4452 60.9249 42.5455L61.0969 42.364L61.2688 42.1825C61.0707 41.9948 60.8293 41.898 60.5569 41.898V42.148ZM61.0969 42.364L60.9296 42.5498C61.044 42.6528 61.0869 42.7559 61.0869 42.868H61.3369H61.5869C61.5869 42.5961 61.4697 42.3632 61.2641 42.1782L61.0969 42.364ZM61.3369 42.868H61.0869V51.256H61.3369H61.5869V42.868H61.3369ZM61.3369 51.256H61.0869C61.0869 51.3873 61.0372 51.5081 60.9124 51.627L61.0849 51.808L61.2573 51.989C61.4685 51.7879 61.5869 51.5407 61.5869 51.256H61.3369ZM61.0849 51.808L60.9171 51.6226C60.7945 51.7336 60.6581 51.786 60.4969 51.786V52.036V52.286C60.7836 52.286 61.0392 52.1864 61.2526 51.9934L61.0849 51.808ZM60.4969 52.036V51.786C60.4281 51.786 60.3541 51.7691 60.2727 51.7284L60.1609 51.952L60.0491 52.1756C60.1916 52.2469 60.3417 52.286 60.4969 52.286V52.036ZM60.1609 51.952L60.2849 51.7349C60.1979 51.6852 60.1252 51.6243 60.0649 51.552L59.8729 51.712L59.6808 51.872C59.7805 51.9917 59.8998 52.0908 60.0368 52.1691L60.1609 51.952ZM59.8729 51.712L60.0667 51.5541L54.6787 44.9421L54.4849 45.1L54.2911 45.2579L59.6791 51.8699L59.8729 51.712ZM54.4849 45.1L54.7111 44.9935L54.6151 44.7896L54.3889 44.896L54.1627 45.0024L54.2587 45.2064L54.4849 45.1ZM54.3889 44.896H54.1389V51.472H54.3889H54.6389V44.896H54.3889ZM54.3889 51.472H54.1389C54.1389 51.5841 54.096 51.6872 53.9816 51.7902L54.1489 51.976L54.3161 52.1618C54.5217 51.9768 54.6389 51.7439 54.6389 51.472H54.3889ZM54.1489 51.976L53.9769 51.7945C53.871 51.8948 53.7524 51.942 53.6089 51.942V52.192V52.442C53.8813 52.442 54.1227 52.3452 54.3208 52.1575L54.1489 51.976ZM70.3988 42.616L70.2171 42.7877L70.222 42.7928L70.2272 42.7978L70.3988 42.616ZM70.3988 43.636L70.2221 43.4592V43.4592L70.3988 43.636ZM67.4588 43.84V43.59H67.2088V43.84H67.4588ZM67.2188 51.964L67.3855 52.1503L67.3861 52.1498L67.2188 51.964ZM66.1388 51.964L65.9668 52.1456L65.9721 52.1503L66.1388 51.964ZM65.9108 43.84H66.1608V43.59H65.9108V43.84ZM62.9468 43.636L62.7651 43.8077L62.77 43.8128L62.7752 43.8178L62.9468 43.636ZM62.9468 42.616L62.7701 42.4392V42.4392L62.9468 42.616ZM69.8948 42.4V42.65C70.0268 42.65 70.1288 42.6942 70.2171 42.7877L70.3988 42.616L70.5806 42.4443C70.3968 42.2498 70.1628 42.15 69.8948 42.15V42.4ZM70.3988 42.616L70.2272 42.7978C70.3206 42.886 70.3648 42.988 70.3648 43.12H70.6148H70.8648C70.8648 42.852 70.765 42.618 70.5705 42.4342L70.3988 42.616ZM70.6148 43.12H70.3648C70.3648 43.2523 70.3201 43.3611 70.2221 43.4592L70.3988 43.636L70.5756 43.8128C70.7655 43.6229 70.8648 43.3876 70.8648 43.12H70.6148ZM70.3988 43.636L70.2221 43.4592C70.135 43.5463 70.0315 43.59 69.8948 43.59V43.84V44.09C70.1582 44.09 70.3907 43.9977 70.5756 43.8128L70.3988 43.636ZM69.8948 43.84V43.59H67.4588V43.84V44.09H69.8948V43.84ZM67.4588 43.84H67.2088V51.448H67.4588H67.7088V43.84H67.4588ZM67.4588 51.448H67.2088C67.2088 51.5713 67.1634 51.6775 67.0516 51.7782L67.2188 51.964L67.3861 52.1498C67.5942 51.9625 67.7088 51.7247 67.7088 51.448H67.4588ZM67.2188 51.964L67.0521 51.7777C66.947 51.8718 66.8267 51.918 66.6788 51.918V52.168V52.418C66.947 52.418 67.1867 52.3282 67.3855 52.1503L67.2188 51.964ZM66.6788 52.168V51.918C66.531 51.918 66.4107 51.8718 66.3055 51.7777L66.1388 51.964L65.9721 52.1503C66.171 52.3282 66.4107 52.418 66.6788 52.418V52.168ZM66.1388 51.964L66.3108 51.7825C66.206 51.6832 66.1608 51.5758 66.1608 51.448H65.9108H65.6608C65.6608 51.7202 65.7677 51.9568 65.9669 52.1455L66.1388 51.964ZM65.9108 51.448H66.1608V43.84H65.9108H65.6608V51.448H65.9108ZM65.9108 43.84V43.59H63.4628V43.84V44.09H65.9108V43.84ZM63.4628 43.84V43.59C63.326 43.59 63.2156 43.5459 63.1185 43.4542L62.9468 43.636L62.7752 43.8178C62.9661 43.9981 63.1997 44.09 63.4628 44.09V43.84ZM62.9468 43.636L63.1286 43.4643C63.0369 43.3673 62.9928 43.2569 62.9928 43.12H62.7428H62.4928C62.4928 43.3831 62.5848 43.6167 62.7651 43.8077L62.9468 43.636ZM62.7428 43.12H62.9928C62.9928 42.9834 63.0365 42.8798 63.1236 42.7928L62.9468 42.616L62.7701 42.4392C62.5851 42.6242 62.4928 42.8566 62.4928 43.12H62.7428ZM62.9468 42.616L63.1236 42.7928C63.2217 42.6947 63.3305 42.65 63.4628 42.65V42.4V42.15C63.1952 42.15 62.96 42.2493 62.7701 42.4392L62.9468 42.616ZM63.4628 42.4V42.65H69.8948V42.4V42.15H63.4628V42.4ZM73.105 51.772L72.9833 51.9904L72.9857 51.9917L73.105 51.772ZM71.785 50.524L71.5678 50.6481L71.5721 50.655L71.785 50.524ZM71.869 49.54L71.6821 49.3738L71.677 49.38L71.869 49.54ZM72.829 49.432L72.9516 49.2141V49.2141L72.829 49.432ZM73.165 49.78L73.38 49.6524L73.3794 49.6514L73.165 49.78ZM73.873 50.416L73.7568 50.6374L73.7634 50.6407L73.873 50.416ZM76.177 48.52L76.0002 48.6968L76.0027 48.6992L76.177 48.52ZM74.833 47.668L74.9389 47.4415L74.9378 47.441L74.833 47.668ZM73.129 46.756L72.9856 46.9609L72.9903 46.964L73.129 46.756ZM72.265 45.868L72.046 45.9885L72.0473 45.9908L72.265 45.868ZM72.397 43.42L72.603 43.5616L72.6044 43.5597L72.397 43.42ZM73.489 42.508L73.5945 42.7347L73.5977 42.7331L73.489 42.508ZM76.813 42.604L76.6947 42.8242L76.6973 42.8256L76.813 42.604ZM78.037 43.756L77.82 43.8805L77.825 43.8885L78.037 43.756ZM77.965 44.656L77.7781 44.4898L77.773 44.496L77.965 44.656ZM77.089 44.764L76.9675 44.9827L76.9772 44.9876L77.089 44.764ZM76.753 44.476L76.9565 44.3307L76.956 44.3301L76.753 44.476ZM76.057 43.912L75.9561 44.1407L75.9585 44.1418L76.057 43.912ZM73.933 43.996L74.0672 44.2069L74.0688 44.2059L73.933 43.996ZM73.681 45.244L73.4768 45.3882L73.4817 45.3951L73.487 45.4016L73.681 45.244ZM74.197 45.64L74.0738 45.8575L74.0768 45.8592L74.197 45.64ZM75.409 46.228L75.5148 46.0015L75.513 46.0006L75.409 46.228ZM77.509 47.656L77.319 47.8185L77.3205 47.8202L77.509 47.656ZM77.749 50.92L77.9583 51.0568L77.9594 51.055L77.749 50.92ZM76.597 51.892L76.6999 52.1199L76.7029 52.1185L76.597 51.892ZM74.881 52.228V51.978C74.2996 51.978 73.7485 51.8368 73.2243 51.5523L73.105 51.772L72.9857 51.9917C73.5816 52.3152 74.2144 52.478 74.881 52.478V52.228ZM73.105 51.772L73.2267 51.5536C72.7021 51.2614 72.2944 50.8747 71.9979 50.393L71.785 50.524L71.5721 50.655C71.9157 51.2133 72.3879 51.6586 72.9833 51.9904L73.105 51.772ZM71.785 50.524L72.0021 50.4C71.9632 50.332 71.939 50.2443 71.939 50.128H71.689H71.439C71.439 50.3157 71.4788 50.492 71.568 50.648L71.785 50.524ZM71.689 50.128H71.939C71.939 49.9194 71.9891 49.7864 72.0611 49.7L71.869 49.54L71.677 49.38C71.5089 49.5816 71.439 49.8406 71.439 50.128H71.689ZM71.869 49.54L72.0559 49.7061C72.1323 49.6201 72.23 49.574 72.373 49.574V49.324V49.074C72.1 49.074 71.8617 49.1719 71.6822 49.3739L71.869 49.54ZM72.373 49.324V49.574C72.5146 49.574 72.6227 49.6028 72.7065 49.6499L72.829 49.432L72.9516 49.2141C72.7794 49.1172 72.5834 49.074 72.373 49.074V49.324ZM72.829 49.432L72.7065 49.6499C72.7877 49.6956 72.871 49.776 72.9506 49.9086L73.165 49.78L73.3794 49.6514C73.267 49.464 73.1263 49.3124 72.9516 49.2141L72.829 49.432ZM73.165 49.78L72.9501 49.9076C73.1303 50.2112 73.4046 50.4525 73.7568 50.6373L73.873 50.416L73.9892 50.1946C73.7014 50.0435 73.5038 49.8608 73.38 49.6524L73.165 49.78ZM73.873 50.416L73.7634 50.6407C74.1234 50.8163 74.4967 50.906 74.881 50.906V50.656V50.406C74.5773 50.406 74.2786 50.3357 73.9826 50.1913L73.873 50.416ZM74.881 50.656V50.906C75.4782 50.906 75.9706 50.8037 76.3196 50.5613C76.6852 50.3075 76.859 49.9246 76.859 49.456H76.609H76.359C76.359 49.7874 76.2449 50.0045 76.0344 50.1507C75.8074 50.3083 75.4358 50.406 74.881 50.406V50.656ZM76.609 49.456H76.859C76.859 49.0331 76.6789 48.6593 76.3513 48.3408L76.177 48.52L76.0027 48.6992C76.2511 48.9407 76.359 49.1909 76.359 49.456H76.609ZM76.177 48.52L76.3538 48.3432C76.0436 48.033 75.5652 47.7343 74.9389 47.4415L74.833 47.668L74.7271 47.8945C75.3329 48.1777 75.7504 48.447 76.0002 48.6968L76.177 48.52ZM74.833 47.668L74.9378 47.441C74.2152 47.1075 73.6603 46.8097 73.2677 46.548L73.129 46.756L72.9903 46.964C73.4137 47.2463 73.9949 47.5565 74.7282 47.895L74.833 47.668ZM73.129 46.756L73.2724 46.5512C72.8925 46.2853 72.635 46.015 72.4828 45.7452L72.265 45.868L72.0473 45.9908C72.247 46.345 72.5656 46.6667 72.9856 46.9608L73.129 46.756ZM72.265 45.868L72.4841 45.7475C72.3318 45.4706 72.251 45.1376 72.251 44.74H72.001H71.751C71.751 45.2064 71.8462 45.6254 72.046 45.9885L72.265 45.868ZM72.001 44.74H72.251C72.251 44.2911 72.3696 43.9012 72.603 43.5616L72.397 43.42L72.191 43.2784C71.8965 43.7068 71.751 44.1969 71.751 44.74H72.001ZM72.397 43.42L72.6044 43.5597C72.8409 43.2085 73.1682 42.9331 73.5945 42.7346L73.489 42.508L73.3835 42.2814C72.8818 42.5149 72.4812 42.8475 72.1897 43.2803L72.397 43.42ZM73.489 42.508L73.5977 42.7331C74.024 42.5273 74.5062 42.422 75.049 42.422V42.172V41.922C74.4398 41.922 73.882 42.0407 73.3803 42.2829L73.489 42.508ZM75.049 42.172V42.422C75.6499 42.422 76.197 42.5568 76.6947 42.8242L76.813 42.604L76.9313 42.3838C76.3571 42.0752 75.7281 41.922 75.049 41.922V42.172ZM76.813 42.604L76.6973 42.8256C77.1943 43.0852 77.5657 43.4369 77.8202 43.8804L78.037 43.756L78.2539 43.6316C77.9483 43.0991 77.5037 42.6828 76.9288 42.3824L76.813 42.604ZM78.037 43.756L77.825 43.8885C77.883 43.9813 77.907 44.0679 77.907 44.152H78.157H78.407C78.407 43.9641 78.351 43.7867 78.249 43.6235L78.037 43.756ZM78.157 44.152H77.907C77.907 44.2825 77.8656 44.3915 77.7782 44.4899L77.965 44.656L78.1519 44.8221C78.3204 44.6325 78.407 44.4055 78.407 44.152H78.157ZM77.965 44.656L77.773 44.496C77.6994 44.5842 77.6172 44.622 77.509 44.622V44.872V45.122C77.7688 45.122 77.9906 45.0158 78.1571 44.816L77.965 44.656ZM77.509 44.872V44.622C77.4183 44.622 77.3164 44.5982 77.2008 44.5404L77.089 44.764L76.9772 44.9876C77.1496 45.0738 77.3277 45.122 77.509 45.122V44.872ZM77.089 44.764L77.2104 44.5455C77.0926 44.48 77.011 44.4071 76.9565 44.3307L76.753 44.476L76.5496 44.6213C76.655 44.7689 76.7975 44.888 76.9676 44.9825L77.089 44.764ZM76.753 44.476L76.956 44.3301C76.7464 44.0385 76.4788 43.8208 76.1555 43.6822L76.057 43.912L75.9585 44.1418C76.1952 44.2432 76.3916 44.4015 76.55 44.6219L76.753 44.476ZM76.057 43.912L76.1579 43.6833C75.8452 43.5453 75.4724 43.482 75.049 43.482V43.732V43.982C75.4256 43.982 75.7249 44.0387 75.9561 44.1407L76.057 43.912ZM75.049 43.732V43.482C74.5497 43.482 74.1242 43.5745 73.7972 43.7861L73.933 43.996L74.0688 44.2059C74.2859 44.0655 74.6044 43.982 75.049 43.982V43.732ZM73.933 43.996L73.7988 43.7851C73.4586 44.0016 73.287 44.3315 73.287 44.74H73.537H73.787C73.787 44.4925 73.8794 44.3264 74.0672 44.2069L73.933 43.996ZM73.537 44.74H73.287C73.287 44.981 73.3454 45.2021 73.4768 45.3882L73.681 45.244L73.8853 45.0998C73.8246 45.0139 73.787 44.899 73.787 44.74H73.537ZM73.681 45.244L73.487 45.4016C73.6195 45.5648 73.8224 45.7151 74.0738 45.8575L74.197 45.64L74.3203 45.4225C74.0916 45.2929 73.9505 45.1792 73.875 45.0863L73.681 45.244ZM74.197 45.64L74.0768 45.8592C74.3333 45.9999 74.7444 46.1991 75.3051 46.4554L75.409 46.228L75.513 46.0006C74.9536 45.7449 74.5567 45.5521 74.3172 45.4208L74.197 45.64ZM75.409 46.228L75.3032 46.4545C76.2653 46.904 76.9285 47.3616 77.319 47.8184L77.509 47.656L77.699 47.4936C77.2415 46.9584 76.5047 46.464 75.5148 46.0015L75.409 46.228ZM77.509 47.656L77.3205 47.8202C77.7099 48.2673 77.907 48.8078 77.907 49.456H78.157H78.407C78.407 48.6962 78.1721 48.0367 77.6975 47.4918L77.509 47.656ZM78.157 49.456H77.907C77.907 49.9649 77.7823 50.4051 77.5386 50.785L77.749 50.92L77.9594 51.055C78.2597 50.5869 78.407 50.0511 78.407 49.456H78.157ZM77.749 50.92L77.5398 50.7832C77.2958 51.1564 76.9494 51.4512 76.4911 51.6655L76.597 51.892L76.7029 52.1185C77.2366 51.8688 77.6583 51.5156 77.9583 51.0568L77.749 50.92ZM76.597 51.892L76.4941 51.6642C76.036 51.871 75.5002 51.978 74.881 51.978V52.228V52.478C75.5578 52.478 76.166 52.361 76.6999 52.1198L76.597 51.892Z" fill="#0A3F15" mask="url(#path-3-outside-1_5175_2321)"/>
<defs>
<filter id="filter0_i_5175_2321" x="0" y="19" width="101" height="61" filterUnits="userSpaceOnUse" color-interpolation-filters="sRGB">
<feFlood flood-opacity="0" result="BackgroundImageFix"/>
<feBlend mode="normal" in="SourceGraphic" in2="BackgroundImageFix" result="shape"/>
<feColorMatrix in="SourceAlpha" type="matrix" values="0 0 0 0 0 0 0 0 0 0 0 0 0 0 0 0 0 0 127 0" result="hardAlpha"/>
<feOffset dy="4"/>
<feGaussianBlur stdDeviation="10"/>
<feComposite in2="hardAlpha" operator="arithmetic" k2="-1" k3="1"/>
<feColorMatrix type="matrix" values="0 0 0 0 0 0 0 0 0 1 0 0 0 0 0.0833333 0 0 0 0.75 0"/>
<feBlend mode="normal" in2="shape" result="effect1_innerShadow_5175_2321"/>
</filter>
</defs>
</svg>
