<svg width="101" height="95" viewBox="0 0 101 95" fill="none" xmlns="http://www.w3.org/2000/svg">
<g filter="url(#filter0_i_5175_2300)">
<rect x="1.5" y="20.5" width="98" height="54" rx="10.5" fill="#ADEDAD" fill-opacity="0.67" stroke="#04FF00" stroke-width="3"/>
</g>
<path d="M63.7402 48.9643C70.4574 40.95 72.1714 29.7855 71.9861 26.4038C71.9861 26.0332 71.8008 25.7089 71.5692 25.4309C71.3375 25.1993 71.0133 25.014 70.5963 25.014C67.2146 24.8287 56.0502 26.4964 48.0822 33.2136L46.2292 32.5187C42.9864 31.3143 39.3267 32.2871 37.1031 34.9276L31.9609 40.9963C31.2197 41.8301 31.5903 43.1736 32.6558 43.5442L38.1686 45.5825C36.9641 47.6208 36.1302 49.3349 35.5743 50.5393C35.1111 51.5122 35.3427 52.6703 36.1302 53.4578L43.5423 60.9162C44.2835 61.6574 45.4416 61.889 46.4608 61.4258C47.6653 60.8699 49.3793 60.036 51.4176 58.8316L53.4096 64.3443C53.7802 65.4098 55.1237 65.7341 55.9575 65.0392L61.9798 59.8971C64.6204 57.6734 65.5932 54.0137 64.3887 50.7709L63.7402 48.9643ZM60.2658 43.1736C58.5054 44.9339 55.6332 44.9339 53.8265 43.1736C52.0662 41.4132 52.0662 38.541 53.8265 36.7343C55.5869 34.974 58.4591 34.974 60.2658 36.7343C62.0261 38.541 62.0261 41.4132 60.2658 43.1736Z" fill="#005912" fill-opacity="0.3"/>
<path d="M40.3463 62.8156L37.0108 66.1047C36.3623 66.7532 36.3623 67.865 37.0108 68.5136C37.6594 69.1621 38.7712 69.1621 39.4198 68.5136L42.7552 65.1781C43.4037 64.5296 43.4037 63.4178 42.7552 62.7692C42.0603 62.1207 40.9948 62.1207 40.3463 62.8156Z" fill="#005912" fill-opacity="0.3"/>
<path d="M38.4465 58.5536C37.7979 57.905 36.6861 57.905 36.0375 58.5536L30.7564 63.881C30.1079 64.5295 30.1079 65.6413 30.7564 66.2899C31.405 66.9385 32.5168 66.9385 33.1654 66.2899L38.4465 60.9162C39.1413 60.2676 39.1413 59.2021 38.4465 58.5536Z" fill="#005912" fill-opacity="0.3"/>
<path d="M34.2313 56.7005C34.8798 56.052 34.8798 54.9401 34.2313 54.2916C33.5827 53.643 32.4709 53.643 31.8223 54.2916L28.4869 57.627C27.8383 58.2756 27.8383 59.3874 28.4869 60.0359C29.1355 60.6845 30.2473 60.6845 30.8958 60.0359L34.2313 56.7005Z" fill="#005912" fill-opacity="0.3"/>
<mask id="path-6-outside-1_5175_2300" maskUnits="userSpaceOnUse" x="24" y="41" width="52" height="12" fill="black">
<rect fill="white" x="24" y="41" width="52" height="12"/>
<path d="M29.8426 52.288C28.8906 52.288 28.0346 52.076 27.2746 51.652C26.5226 51.228 25.9306 50.632 25.4986 49.864C25.0746 49.088 24.8626 48.204 24.8626 47.212C24.8626 46.26 25.0906 45.404 25.5466 44.644C26.0026 43.876 26.6226 43.276 27.4066 42.844C28.1906 42.404 29.0626 42.184 30.0226 42.184C30.6946 42.184 31.3786 42.328 32.0746 42.616C32.7706 42.904 33.3066 43.28 33.6826 43.744C33.7306 43.808 33.7706 43.884 33.8026 43.972C33.8346 44.052 33.8506 44.128 33.8506 44.2C33.8506 44.4 33.7826 44.572 33.6466 44.716C33.5106 44.852 33.3386 44.92 33.1306 44.92C33.0426 44.92 32.9426 44.896 32.8306 44.848C32.7266 44.8 32.6466 44.74 32.5906 44.668C32.3506 44.38 31.9706 44.136 31.4506 43.936C30.9306 43.728 30.4546 43.624 30.0226 43.624C29.3426 43.624 28.7266 43.776 28.1746 44.08C27.6226 44.384 27.1906 44.808 26.8786 45.352C26.5666 45.896 26.4106 46.516 26.4106 47.212C26.4106 47.94 26.5546 48.572 26.8426 49.108C27.1306 49.644 27.5306 50.052 28.0426 50.332C28.5626 50.612 29.1626 50.752 29.8426 50.752C30.4186 50.752 30.9266 50.68 31.3666 50.536C31.8146 50.384 32.1586 50.18 32.3986 49.924C32.6466 49.66 32.7706 49.368 32.7706 49.048C32.7706 48.68 32.6426 48.384 32.3866 48.16C32.1386 47.928 31.7986 47.812 31.3666 47.812C31.0066 47.812 30.6186 47.836 30.2026 47.884C30.1626 47.892 30.0906 47.896 29.9866 47.896C29.7626 47.896 29.5826 47.836 29.4466 47.716C29.3106 47.596 29.2426 47.432 29.2426 47.224C29.2426 46.8 29.5346 46.54 30.1186 46.444C30.2306 46.428 30.4106 46.412 30.6586 46.396C30.9146 46.38 31.1426 46.372 31.3426 46.372C31.9186 46.372 32.4226 46.488 32.8546 46.72C33.2866 46.944 33.6186 47.26 33.8506 47.668C34.0906 48.068 34.2106 48.528 34.2106 49.048C34.2106 49.648 34.0226 50.196 33.6466 50.692C33.2706 51.188 32.7466 51.58 32.0746 51.868C31.4106 52.148 30.6666 52.288 29.8426 52.288ZM41.7678 43.012C41.7678 42.812 41.8438 42.644 41.9958 42.508C42.1478 42.364 42.3278 42.292 42.5358 42.292C42.7438 42.292 42.9238 42.364 43.0758 42.508C43.2358 42.644 43.3158 42.812 43.3158 43.012V48.172C43.3158 49.004 43.1638 49.728 42.8598 50.344C42.5558 50.952 42.1158 51.42 41.5398 51.748C40.9718 52.076 40.2958 52.24 39.5118 52.24C38.7278 52.24 38.0518 52.076 37.4838 51.748C36.9158 51.42 36.4798 50.952 36.1758 50.344C35.8718 49.728 35.7198 49.004 35.7198 48.172V42.904C35.7198 42.704 35.7958 42.536 35.9478 42.4C36.0998 42.256 36.2798 42.184 36.4878 42.184C36.6958 42.184 36.8758 42.256 37.0278 42.4C37.1878 42.536 37.2678 42.704 37.2678 42.904V48.172C37.2678 48.964 37.4638 49.584 37.8558 50.032C38.2558 50.472 38.8078 50.692 39.5118 50.692C40.2238 50.692 40.7758 50.472 41.1678 50.032C41.5678 49.584 41.7678 48.964 41.7678 48.172V43.012ZM46.9154 51.448C46.9154 51.648 46.8434 51.82 46.6994 51.964C46.5634 52.1 46.3954 52.168 46.1954 52.168C45.9954 52.168 45.8234 52.1 45.6794 51.964C45.5434 51.82 45.4754 51.648 45.4754 51.448V42.94C45.4754 42.74 45.5434 42.572 45.6794 42.436C45.8234 42.292 45.9954 42.22 46.1954 42.22C46.3954 42.22 46.5634 42.292 46.6994 42.436C46.8434 42.572 46.9154 42.74 46.9154 42.94V51.448ZM49.8951 52.108C49.6631 52.108 49.4671 52.036 49.3071 51.892C49.1551 51.74 49.0791 51.556 49.0791 51.34V43.06C49.0791 42.844 49.1551 42.664 49.3071 42.52C49.4671 42.368 49.6631 42.292 49.8951 42.292H51.8871C52.9111 42.292 53.8391 42.496 54.6711 42.904C55.5031 43.312 56.1551 43.876 56.6271 44.596C57.1071 45.308 57.3471 46.116 57.3471 47.02C57.3471 47.956 57.1071 48.812 56.6271 49.588C56.1471 50.364 55.4911 50.98 54.6591 51.436C53.8271 51.884 52.9031 52.108 51.8871 52.108H49.8951ZM50.6271 50.56H51.8871C52.6391 50.56 53.3111 50.416 53.9031 50.128C54.5031 49.832 54.9671 49.416 55.2951 48.88C55.6311 48.344 55.7991 47.724 55.7991 47.02C55.7991 46.388 55.6311 45.832 55.2951 45.352C54.9671 44.872 54.5031 44.5 53.9031 44.236C53.3111 43.972 52.6391 43.84 51.8871 43.84H50.6271V50.56ZM66.8524 49.588C67.0524 49.588 67.2204 49.66 67.3564 49.804C67.5004 49.94 67.5724 50.108 67.5724 50.308C67.5724 50.5 67.5044 50.672 67.3684 50.824C67.0004 51.216 66.4844 51.54 65.8204 51.796C65.1564 52.044 64.4964 52.168 63.8404 52.168C62.8884 52.168 62.0284 51.96 61.2604 51.544C60.4924 51.128 59.8884 50.544 59.4484 49.792C59.0084 49.04 58.7884 48.176 58.7884 47.2C58.7884 46.232 59.0084 45.368 59.4484 44.608C59.8884 43.848 60.4924 43.26 61.2604 42.844C62.0284 42.42 62.8884 42.208 63.8404 42.208C64.4964 42.208 65.1524 42.34 65.8084 42.604C66.4644 42.868 66.9804 43.216 67.3564 43.648C67.4924 43.808 67.5604 43.98 67.5604 44.164C67.5604 44.364 67.4884 44.536 67.3444 44.68C67.2004 44.816 67.0284 44.884 66.8284 44.884C66.7324 44.884 66.6364 44.864 66.5404 44.824C66.4444 44.784 66.3684 44.728 66.3124 44.656C66.0804 44.376 65.7364 44.156 65.2804 43.996C64.8244 43.836 64.3444 43.756 63.8404 43.756C62.9524 43.756 62.2044 43.98 61.5964 44.428C60.9964 44.868 60.6084 45.488 60.4324 46.288H64.1764C64.3764 46.288 64.5444 46.36 64.6804 46.504C64.8244 46.64 64.8964 46.808 64.8964 47.008C64.8964 47.208 64.8244 47.38 64.6804 47.524C64.5444 47.66 64.3764 47.728 64.1764 47.728H60.3724C60.4764 48.632 60.8404 49.344 61.4644 49.864C62.0964 50.376 62.8884 50.632 63.8404 50.632C64.3924 50.632 64.8964 50.56 65.3524 50.416C65.8084 50.272 66.1284 50.084 66.3124 49.852C66.3764 49.772 66.4564 49.708 66.5524 49.66C66.6564 49.612 66.7564 49.588 66.8524 49.588ZM71.963 52.228C71.339 52.228 70.747 52.076 70.187 51.772C69.627 51.46 69.187 51.044 68.867 50.524C68.803 50.412 68.771 50.28 68.771 50.128C68.771 49.88 68.831 49.684 68.951 49.54C69.079 49.396 69.247 49.324 69.455 49.324C69.631 49.324 69.783 49.36 69.911 49.432C70.039 49.504 70.151 49.62 70.247 49.78C70.399 50.036 70.635 50.248 70.955 50.416C71.283 50.576 71.619 50.656 71.963 50.656C73.115 50.656 73.691 50.256 73.691 49.456C73.691 49.112 73.547 48.8 73.259 48.52C72.979 48.24 72.531 47.956 71.915 47.668C71.187 47.332 70.619 47.028 70.211 46.756C69.811 46.476 69.523 46.18 69.347 45.868C69.171 45.548 69.083 45.172 69.083 44.74C69.083 44.244 69.215 43.804 69.479 43.42C69.743 43.028 70.107 42.724 70.571 42.508C71.035 42.284 71.555 42.172 72.131 42.172C72.771 42.172 73.359 42.316 73.895 42.604C74.431 42.884 74.839 43.268 75.119 43.756C75.199 43.884 75.239 44.016 75.239 44.152C75.239 44.344 75.175 44.512 75.047 44.656C74.927 44.8 74.775 44.872 74.591 44.872C74.455 44.872 74.315 44.836 74.171 44.764C74.027 44.684 73.915 44.588 73.835 44.476C73.651 44.22 73.419 44.032 73.139 43.912C72.867 43.792 72.531 43.732 72.131 43.732C71.659 43.732 71.287 43.82 71.015 43.996C70.751 44.164 70.619 44.412 70.619 44.74C70.619 44.94 70.667 45.108 70.763 45.244C70.867 45.372 71.039 45.504 71.279 45.64C71.527 45.776 71.931 45.972 72.491 46.228C73.467 46.684 74.167 47.16 74.591 47.656C75.023 48.152 75.239 48.752 75.239 49.456C75.239 50.008 75.103 50.496 74.831 50.92C74.559 51.336 74.175 51.66 73.679 51.892C73.183 52.116 72.611 52.228 71.963 52.228Z"/>
</mask>
<path d="M29.8426 52.288C28.8906 52.288 28.0346 52.076 27.2746 51.652C26.5226 51.228 25.9306 50.632 25.4986 49.864C25.0746 49.088 24.8626 48.204 24.8626 47.212C24.8626 46.26 25.0906 45.404 25.5466 44.644C26.0026 43.876 26.6226 43.276 27.4066 42.844C28.1906 42.404 29.0626 42.184 30.0226 42.184C30.6946 42.184 31.3786 42.328 32.0746 42.616C32.7706 42.904 33.3066 43.28 33.6826 43.744C33.7306 43.808 33.7706 43.884 33.8026 43.972C33.8346 44.052 33.8506 44.128 33.8506 44.2C33.8506 44.4 33.7826 44.572 33.6466 44.716C33.5106 44.852 33.3386 44.92 33.1306 44.92C33.0426 44.92 32.9426 44.896 32.8306 44.848C32.7266 44.8 32.6466 44.74 32.5906 44.668C32.3506 44.38 31.9706 44.136 31.4506 43.936C30.9306 43.728 30.4546 43.624 30.0226 43.624C29.3426 43.624 28.7266 43.776 28.1746 44.08C27.6226 44.384 27.1906 44.808 26.8786 45.352C26.5666 45.896 26.4106 46.516 26.4106 47.212C26.4106 47.94 26.5546 48.572 26.8426 49.108C27.1306 49.644 27.5306 50.052 28.0426 50.332C28.5626 50.612 29.1626 50.752 29.8426 50.752C30.4186 50.752 30.9266 50.68 31.3666 50.536C31.8146 50.384 32.1586 50.18 32.3986 49.924C32.6466 49.66 32.7706 49.368 32.7706 49.048C32.7706 48.68 32.6426 48.384 32.3866 48.16C32.1386 47.928 31.7986 47.812 31.3666 47.812C31.0066 47.812 30.6186 47.836 30.2026 47.884C30.1626 47.892 30.0906 47.896 29.9866 47.896C29.7626 47.896 29.5826 47.836 29.4466 47.716C29.3106 47.596 29.2426 47.432 29.2426 47.224C29.2426 46.8 29.5346 46.54 30.1186 46.444C30.2306 46.428 30.4106 46.412 30.6586 46.396C30.9146 46.38 31.1426 46.372 31.3426 46.372C31.9186 46.372 32.4226 46.488 32.8546 46.72C33.2866 46.944 33.6186 47.26 33.8506 47.668C34.0906 48.068 34.2106 48.528 34.2106 49.048C34.2106 49.648 34.0226 50.196 33.6466 50.692C33.2706 51.188 32.7466 51.58 32.0746 51.868C31.4106 52.148 30.6666 52.288 29.8426 52.288ZM41.7678 43.012C41.7678 42.812 41.8438 42.644 41.9958 42.508C42.1478 42.364 42.3278 42.292 42.5358 42.292C42.7438 42.292 42.9238 42.364 43.0758 42.508C43.2358 42.644 43.3158 42.812 43.3158 43.012V48.172C43.3158 49.004 43.1638 49.728 42.8598 50.344C42.5558 50.952 42.1158 51.42 41.5398 51.748C40.9718 52.076 40.2958 52.24 39.5118 52.24C38.7278 52.24 38.0518 52.076 37.4838 51.748C36.9158 51.42 36.4798 50.952 36.1758 50.344C35.8718 49.728 35.7198 49.004 35.7198 48.172V42.904C35.7198 42.704 35.7958 42.536 35.9478 42.4C36.0998 42.256 36.2798 42.184 36.4878 42.184C36.6958 42.184 36.8758 42.256 37.0278 42.4C37.1878 42.536 37.2678 42.704 37.2678 42.904V48.172C37.2678 48.964 37.4638 49.584 37.8558 50.032C38.2558 50.472 38.8078 50.692 39.5118 50.692C40.2238 50.692 40.7758 50.472 41.1678 50.032C41.5678 49.584 41.7678 48.964 41.7678 48.172V43.012ZM46.9154 51.448C46.9154 51.648 46.8434 51.82 46.6994 51.964C46.5634 52.1 46.3954 52.168 46.1954 52.168C45.9954 52.168 45.8234 52.1 45.6794 51.964C45.5434 51.82 45.4754 51.648 45.4754 51.448V42.94C45.4754 42.74 45.5434 42.572 45.6794 42.436C45.8234 42.292 45.9954 42.22 46.1954 42.22C46.3954 42.22 46.5634 42.292 46.6994 42.436C46.8434 42.572 46.9154 42.74 46.9154 42.94V51.448ZM49.8951 52.108C49.6631 52.108 49.4671 52.036 49.3071 51.892C49.1551 51.74 49.0791 51.556 49.0791 51.34V43.06C49.0791 42.844 49.1551 42.664 49.3071 42.52C49.4671 42.368 49.6631 42.292 49.8951 42.292H51.8871C52.9111 42.292 53.8391 42.496 54.6711 42.904C55.5031 43.312 56.1551 43.876 56.6271 44.596C57.1071 45.308 57.3471 46.116 57.3471 47.02C57.3471 47.956 57.1071 48.812 56.6271 49.588C56.1471 50.364 55.4911 50.98 54.6591 51.436C53.8271 51.884 52.9031 52.108 51.8871 52.108H49.8951ZM50.6271 50.56H51.8871C52.6391 50.56 53.3111 50.416 53.9031 50.128C54.5031 49.832 54.9671 49.416 55.2951 48.88C55.6311 48.344 55.7991 47.724 55.7991 47.02C55.7991 46.388 55.6311 45.832 55.2951 45.352C54.9671 44.872 54.5031 44.5 53.9031 44.236C53.3111 43.972 52.6391 43.84 51.8871 43.84H50.6271V50.56ZM66.8524 49.588C67.0524 49.588 67.2204 49.66 67.3564 49.804C67.5004 49.94 67.5724 50.108 67.5724 50.308C67.5724 50.5 67.5044 50.672 67.3684 50.824C67.0004 51.216 66.4844 51.54 65.8204 51.796C65.1564 52.044 64.4964 52.168 63.8404 52.168C62.8884 52.168 62.0284 51.96 61.2604 51.544C60.4924 51.128 59.8884 50.544 59.4484 49.792C59.0084 49.04 58.7884 48.176 58.7884 47.2C58.7884 46.232 59.0084 45.368 59.4484 44.608C59.8884 43.848 60.4924 43.26 61.2604 42.844C62.0284 42.42 62.8884 42.208 63.8404 42.208C64.4964 42.208 65.1524 42.34 65.8084 42.604C66.4644 42.868 66.9804 43.216 67.3564 43.648C67.4924 43.808 67.5604 43.98 67.5604 44.164C67.5604 44.364 67.4884 44.536 67.3444 44.68C67.2004 44.816 67.0284 44.884 66.8284 44.884C66.7324 44.884 66.6364 44.864 66.5404 44.824C66.4444 44.784 66.3684 44.728 66.3124 44.656C66.0804 44.376 65.7364 44.156 65.2804 43.996C64.8244 43.836 64.3444 43.756 63.8404 43.756C62.9524 43.756 62.2044 43.98 61.5964 44.428C60.9964 44.868 60.6084 45.488 60.4324 46.288H64.1764C64.3764 46.288 64.5444 46.36 64.6804 46.504C64.8244 46.64 64.8964 46.808 64.8964 47.008C64.8964 47.208 64.8244 47.38 64.6804 47.524C64.5444 47.66 64.3764 47.728 64.1764 47.728H60.3724C60.4764 48.632 60.8404 49.344 61.4644 49.864C62.0964 50.376 62.8884 50.632 63.8404 50.632C64.3924 50.632 64.8964 50.56 65.3524 50.416C65.8084 50.272 66.1284 50.084 66.3124 49.852C66.3764 49.772 66.4564 49.708 66.5524 49.66C66.6564 49.612 66.7564 49.588 66.8524 49.588ZM71.963 52.228C71.339 52.228 70.747 52.076 70.187 51.772C69.627 51.46 69.187 51.044 68.867 50.524C68.803 50.412 68.771 50.28 68.771 50.128C68.771 49.88 68.831 49.684 68.951 49.54C69.079 49.396 69.247 49.324 69.455 49.324C69.631 49.324 69.783 49.36 69.911 49.432C70.039 49.504 70.151 49.62 70.247 49.78C70.399 50.036 70.635 50.248 70.955 50.416C71.283 50.576 71.619 50.656 71.963 50.656C73.115 50.656 73.691 50.256 73.691 49.456C73.691 49.112 73.547 48.8 73.259 48.52C72.979 48.24 72.531 47.956 71.915 47.668C71.187 47.332 70.619 47.028 70.211 46.756C69.811 46.476 69.523 46.18 69.347 45.868C69.171 45.548 69.083 45.172 69.083 44.74C69.083 44.244 69.215 43.804 69.479 43.42C69.743 43.028 70.107 42.724 70.571 42.508C71.035 42.284 71.555 42.172 72.131 42.172C72.771 42.172 73.359 42.316 73.895 42.604C74.431 42.884 74.839 43.268 75.119 43.756C75.199 43.884 75.239 44.016 75.239 44.152C75.239 44.344 75.175 44.512 75.047 44.656C74.927 44.8 74.775 44.872 74.591 44.872C74.455 44.872 74.315 44.836 74.171 44.764C74.027 44.684 73.915 44.588 73.835 44.476C73.651 44.22 73.419 44.032 73.139 43.912C72.867 43.792 72.531 43.732 72.131 43.732C71.659 43.732 71.287 43.82 71.015 43.996C70.751 44.164 70.619 44.412 70.619 44.74C70.619 44.94 70.667 45.108 70.763 45.244C70.867 45.372 71.039 45.504 71.279 45.64C71.527 45.776 71.931 45.972 72.491 46.228C73.467 46.684 74.167 47.16 74.591 47.656C75.023 48.152 75.239 48.752 75.239 49.456C75.239 50.008 75.103 50.496 74.831 50.92C74.559 51.336 74.175 51.66 73.679 51.892C73.183 52.116 72.611 52.228 71.963 52.228Z" fill="#0A3F15"/>
<path d="M27.2746 51.652L27.1518 51.8698L27.1528 51.8703L27.2746 51.652ZM25.4986 49.864L25.2792 49.9839L25.2807 49.9866L25.4986 49.864ZM25.5466 44.644L25.761 44.7726L25.7615 44.7716L25.5466 44.644ZM27.4066 42.844L27.5272 43.063L27.5289 43.062L27.4066 42.844ZM32.0746 42.616L32.1702 42.385V42.385L32.0746 42.616ZM33.6826 43.744L33.8827 43.5939L33.8768 43.5866L33.6826 43.744ZM33.8026 43.972L33.5675 44.0575L33.5705 44.0648L33.8026 43.972ZM33.6466 44.716L33.8234 44.8928L33.8283 44.8877L33.6466 44.716ZM32.8306 44.848L32.7258 45.0751L32.7321 45.0778L32.8306 44.848ZM32.5906 44.668L32.788 44.5144L32.7826 44.508L32.5906 44.668ZM31.4506 43.936L31.3577 44.1681L31.3608 44.1693L31.4506 43.936ZM26.8786 45.352L27.0954 45.4764V45.4764L26.8786 45.352ZM26.8426 49.108L26.6224 49.2263V49.2263L26.8426 49.108ZM28.0426 50.332L27.9226 50.5513L27.9241 50.5521L28.0426 50.332ZM31.3666 50.536L31.4443 50.7736L31.4469 50.7727L31.3666 50.536ZM32.3986 49.924L32.2164 49.7528L32.2162 49.753L32.3986 49.924ZM32.3866 48.16L32.2157 48.3427L32.222 48.3481L32.3866 48.16ZM30.2026 47.884L30.1739 47.6356L30.1637 47.6368L30.1535 47.6389L30.2026 47.884ZM29.4466 47.716L29.612 47.5285V47.5285L29.4466 47.716ZM30.1186 46.444L30.0832 46.1965L30.078 46.1973L30.1186 46.444ZM30.6586 46.396L30.643 46.1465L30.6425 46.1465L30.6586 46.396ZM32.8546 46.72L32.7363 46.9403L32.7395 46.9419L32.8546 46.72ZM33.8506 47.668L33.6332 47.7916L33.6362 47.7966L33.8506 47.668ZM33.6466 50.692L33.4474 50.541V50.541L33.6466 50.692ZM32.0746 51.868L32.1717 52.0984L32.1731 52.0978L32.0746 51.868ZM29.8426 52.288V52.038C28.9291 52.038 28.1157 51.835 27.3964 51.4337L27.2746 51.652L27.1528 51.8703C27.9534 52.317 28.852 52.538 29.8426 52.538V52.288ZM27.2746 51.652L27.3974 51.4342C26.686 51.0332 26.1266 50.4705 25.7165 49.7414L25.4986 49.864L25.2807 49.9866C25.7346 50.7935 26.3591 51.4228 27.1518 51.8698L27.2746 51.652ZM25.4986 49.864L25.718 49.7441C25.3164 49.0092 25.1126 48.1673 25.1126 47.212H24.8626H24.6126C24.6126 48.2407 24.8328 49.1668 25.2792 49.9839L25.4986 49.864ZM24.8626 47.212H25.1126C25.1126 46.3018 25.33 45.4909 25.761 44.7726L25.5466 44.644L25.3322 44.5154C24.8512 45.3171 24.6126 46.2182 24.6126 47.212H24.8626ZM25.5466 44.644L25.7615 44.7716C26.1947 44.042 26.7822 43.4735 27.5272 43.063L27.4066 42.844L27.2859 42.625C26.463 43.0785 25.8104 43.71 25.3316 44.5164L25.5466 44.644ZM27.4066 42.844L27.5289 43.062C28.273 42.6444 29.1024 42.434 30.0226 42.434V42.184V41.934C29.0227 41.934 28.1081 42.1636 27.2842 42.626L27.4066 42.844ZM30.0226 42.184V42.434C30.658 42.434 31.3096 42.57 31.979 42.847L32.0746 42.616L32.1702 42.385C31.4475 42.086 30.7311 41.934 30.0226 41.934V42.184ZM32.0746 42.616L31.979 42.847C32.6463 43.1231 33.1446 43.4772 33.4883 43.9014L33.6826 43.744L33.8768 43.5866C33.4686 43.0828 32.8948 42.6848 32.1702 42.385L32.0746 42.616ZM33.6826 43.744L33.4826 43.894C33.5135 43.9353 33.5426 43.9887 33.5676 44.0574L33.8026 43.972L34.0375 43.8866C33.9985 43.7793 33.9476 43.6807 33.8826 43.594L33.6826 43.744ZM33.8026 43.972L33.5705 44.0648C33.5929 44.121 33.6006 44.1654 33.6006 44.2H33.8506H34.1006C34.1006 44.0906 34.0762 43.983 34.0347 43.8792L33.8026 43.972ZM33.8506 44.2H33.6006C33.6006 44.3369 33.5565 44.4473 33.4648 44.5443L33.6466 44.716L33.8283 44.8877C34.0086 44.6967 34.1006 44.4631 34.1006 44.2H33.8506ZM33.6466 44.716L33.4698 44.5392C33.3847 44.6243 33.2782 44.67 33.1306 44.67V44.92V45.17C33.3989 45.17 33.6364 45.0797 33.8234 44.8928L33.6466 44.716ZM33.1306 44.92V44.67C33.0868 44.67 33.0211 44.6577 32.9291 44.6182L32.8306 44.848L32.7321 45.0778C32.864 45.1343 32.9984 45.17 33.1306 45.17V44.92ZM32.8306 44.848L32.9353 44.621C32.8586 44.5856 32.8139 44.5479 32.7879 44.5145L32.5906 44.668L32.3932 44.8215C32.4793 44.9321 32.5946 45.0144 32.7258 45.075L32.8306 44.848ZM32.5906 44.668L32.7826 44.508C32.5052 44.1751 32.0822 43.9111 31.5403 43.7027L31.4506 43.936L31.3608 44.1693C31.859 44.3609 32.1959 44.5849 32.3985 44.828L32.5906 44.668ZM31.4506 43.936L31.5434 43.7039C31.0022 43.4874 30.4943 43.374 30.0226 43.374V43.624V43.874C30.4149 43.874 30.8589 43.9686 31.3577 44.1681L31.4506 43.936ZM30.0226 43.624V43.374C29.3038 43.374 28.6458 43.5351 28.054 43.861L28.1746 44.08L28.2952 44.299C28.8073 44.0169 29.3813 43.874 30.0226 43.874V43.624ZM28.1746 44.08L28.054 43.861C27.462 44.187 26.9966 44.6437 26.6617 45.2276L26.8786 45.352L27.0954 45.4764C27.3845 44.9723 27.7831 44.581 28.2952 44.299L28.1746 44.08ZM26.8786 45.352L26.6617 45.2276C26.3257 45.8135 26.1606 46.4773 26.1606 47.212H26.4106H26.6606C26.6606 46.5547 26.8075 45.9785 27.0954 45.4764L26.8786 45.352ZM26.4106 47.212H26.1606C26.1606 47.9732 26.3113 48.6474 26.6224 49.2263L26.8426 49.108L27.0628 48.9897C26.7978 48.4966 26.6606 47.9068 26.6606 47.212H26.4106ZM26.8426 49.108L26.6224 49.2263C26.9323 49.8031 27.3662 50.2471 27.9226 50.5513L28.0426 50.332L28.1625 50.1127C27.6949 49.8569 27.3289 49.4849 27.0628 48.9897L26.8426 49.108ZM28.0426 50.332L27.9241 50.5521C28.4857 50.8545 29.1275 51.002 29.8426 51.002V50.752V50.502C29.1976 50.502 28.6395 50.3695 28.1611 50.1119L28.0426 50.332ZM29.8426 50.752V51.002C30.4388 51.002 30.974 50.9275 31.4443 50.7736L31.3666 50.536L31.2888 50.2984C30.8792 50.4325 30.3983 50.502 29.8426 50.502V50.752ZM31.3666 50.536L31.4469 50.7727C31.9208 50.6119 32.3048 50.3896 32.581 50.095L32.3986 49.924L32.2162 49.753C32.0124 49.9704 31.7083 50.1561 31.2863 50.2993L31.3666 50.536ZM32.3986 49.924L32.5808 50.0952C32.8661 49.7914 33.0206 49.4401 33.0206 49.048H32.7706H32.5206C32.5206 49.2959 32.427 49.5286 32.2164 49.7528L32.3986 49.924ZM32.7706 49.048H33.0206C33.0206 48.6146 32.8663 48.2475 32.5512 47.9719L32.3866 48.16L32.222 48.3481C32.4189 48.5205 32.5206 48.7454 32.5206 49.048H32.7706ZM32.3866 48.16L32.5574 47.9774C32.2514 47.6912 31.8441 47.562 31.3666 47.562V47.812V48.062C31.7531 48.062 32.0257 48.1648 32.2158 48.3426L32.3866 48.16ZM31.3666 47.812V47.562C30.9956 47.562 30.5979 47.5867 30.1739 47.6356L30.2026 47.884L30.2312 48.1324C30.6392 48.0853 31.0175 48.062 31.3666 48.062V47.812ZM30.2026 47.884L30.1535 47.6389C30.1536 47.6389 30.1524 47.6391 30.15 47.6394C30.1476 47.6398 30.1443 47.6402 30.1399 47.6407C30.1312 47.6416 30.1196 47.6426 30.1047 47.6434C30.0749 47.645 30.0358 47.646 29.9866 47.646V47.896V48.146C30.0894 48.146 30.1844 48.1426 30.2516 48.1291L30.2026 47.884ZM29.9866 47.896V47.646C29.8086 47.646 29.6923 47.5994 29.612 47.5285L29.4466 47.716L29.2812 47.9035C29.4729 48.0726 29.7166 48.146 29.9866 48.146V47.896ZM29.4466 47.716L29.612 47.5285C29.5379 47.4632 29.4926 47.3719 29.4926 47.224H29.2426H28.9926C28.9926 47.4921 29.0832 47.7288 29.2812 47.9035L29.4466 47.716ZM29.2426 47.224H29.4926C29.4926 47.0766 29.54 46.9759 29.6278 46.8977C29.7247 46.8115 29.8915 46.7347 30.1591 46.6907L30.1186 46.444L30.078 46.1973C29.7616 46.2493 29.4905 46.3505 29.2953 46.5243C29.0912 46.7061 28.9926 46.9474 28.9926 47.224H29.2426ZM30.1186 46.444L30.1539 46.6915C30.2556 46.677 30.4274 46.6614 30.6747 46.6455L30.6586 46.396L30.6425 46.1465C30.3938 46.1626 30.2055 46.179 30.0832 46.1965L30.1186 46.444ZM30.6586 46.396L30.6742 46.6455C30.9263 46.6298 31.149 46.622 31.3426 46.622V46.372V46.122C31.1362 46.122 30.9028 46.1302 30.643 46.1465L30.6586 46.396ZM31.3426 46.372V46.622C31.8845 46.622 32.3465 46.7309 32.7363 46.9402L32.8546 46.72L32.9729 46.4998C32.4986 46.2451 31.9526 46.122 31.3426 46.122V46.372ZM32.8546 46.72L32.7395 46.9419C33.1303 47.1446 33.426 47.4272 33.6333 47.7916L33.8506 47.668L34.0679 47.5444C33.8111 47.0928 33.4429 46.7434 32.9697 46.4981L32.8546 46.72ZM33.8506 47.668L33.6362 47.7966C33.8503 48.1534 33.9606 48.568 33.9606 49.048H34.2106H34.4606C34.4606 48.488 34.3309 47.9826 34.065 47.5394L33.8506 47.668ZM34.2106 49.048H33.9606C33.9606 49.5913 33.7917 50.0867 33.4474 50.541L33.6466 50.692L33.8458 50.843C34.2534 50.3053 34.4606 49.7047 34.4606 49.048H34.2106ZM33.6466 50.692L33.4474 50.541C33.1018 50.9968 32.6153 51.3643 31.9761 51.6382L32.0746 51.868L32.1731 52.0978C32.8779 51.7957 33.4394 51.3792 33.8458 50.843L33.6466 50.692ZM32.0746 51.868L31.9774 51.6376C31.3483 51.903 30.638 52.038 29.8426 52.038V52.288V52.538C30.6952 52.538 31.4729 52.3931 32.1717 52.0984L32.0746 51.868ZM41.9958 42.508L42.1625 42.6944L42.1677 42.6895L41.9958 42.508ZM43.0758 42.508L42.9036 42.6898L42.9139 42.6985L43.0758 42.508ZM42.8598 50.344L43.0834 50.4558L43.084 50.4546L42.8598 50.344ZM41.5398 51.748L41.4161 51.5308L41.4147 51.5315L41.5398 51.748ZM37.4838 51.748L37.6088 51.5315V51.5315L37.4838 51.748ZM36.1758 50.344L35.9516 50.4546L35.9522 50.4558L36.1758 50.344ZM35.9478 42.4L36.1145 42.5864L36.1197 42.5815L35.9478 42.4ZM37.0278 42.4L36.8556 42.5818L36.8659 42.5905L37.0278 42.4ZM37.8558 50.032L37.6676 50.1967L37.6708 50.2002L37.8558 50.032ZM41.1678 50.032L40.9813 49.8655L40.9811 49.8657L41.1678 50.032ZM41.7678 43.012H42.0178C42.0178 42.8847 42.0623 42.784 42.1625 42.6943L41.9958 42.508L41.8291 42.3217C41.6253 42.504 41.5178 42.7393 41.5178 43.012H41.7678ZM41.9958 42.508L42.1677 42.6895C42.2736 42.5892 42.3922 42.542 42.5358 42.542V42.292V42.042C42.2633 42.042 42.0219 42.1388 41.8238 42.3265L41.9958 42.508ZM42.5358 42.292V42.542C42.6793 42.542 42.7979 42.5892 42.9038 42.6895L43.0758 42.508L43.2477 42.3265C43.0496 42.1388 42.8082 42.042 42.5358 42.042V42.292ZM43.0758 42.508L42.9139 42.6985C43.0212 42.7897 43.0658 42.8894 43.0658 43.012H43.3158H43.5658C43.5658 42.7346 43.4504 42.4983 43.2377 42.3175L43.0758 42.508ZM43.3158 43.012H43.0658V48.172H43.3158H43.5658V43.012H43.3158ZM43.3158 48.172H43.0658C43.0658 48.9736 42.9194 49.6583 42.6356 50.2334L42.8598 50.344L43.084 50.4546C43.4081 49.7977 43.5658 49.0344 43.5658 48.172H43.3158ZM42.8598 50.344L42.6362 50.2322C42.3537 50.7971 41.9479 51.2279 41.4161 51.5308L41.5398 51.748L41.6635 51.9652C42.2836 51.6121 42.7578 51.1069 43.0834 50.4558L42.8598 50.344ZM41.5398 51.748L41.4147 51.5315C40.8916 51.8336 40.2605 51.99 39.5118 51.99V52.24V52.49C40.3311 52.49 41.052 52.3184 41.6648 51.9645L41.5398 51.748ZM39.5118 52.24V51.99C38.7631 51.99 38.132 51.8336 37.6088 51.5315L37.4838 51.748L37.3587 51.9645C37.9716 52.3184 38.6925 52.49 39.5118 52.49V52.24ZM37.4838 51.748L37.6088 51.5315C37.0848 51.2289 36.6823 50.7981 36.3994 50.2322L36.1758 50.344L35.9522 50.4558C36.2772 51.1059 36.7467 51.6111 37.3587 51.9645L37.4838 51.748ZM36.1758 50.344L36.4 50.2334C36.1161 49.6583 35.9698 48.9736 35.9698 48.172H35.7198H35.4698C35.4698 49.0344 35.6274 49.7977 35.9516 50.4546L36.1758 50.344ZM35.7198 48.172H35.9698V42.904H35.7198H35.4698V48.172H35.7198ZM35.7198 42.904H35.9698C35.9698 42.7767 36.0143 42.676 36.1145 42.5863L35.9478 42.4L35.7811 42.2137C35.5773 42.396 35.4698 42.6313 35.4698 42.904H35.7198ZM35.9478 42.4L36.1197 42.5815C36.2256 42.4812 36.3442 42.434 36.4878 42.434V42.184V41.934C36.2153 41.934 35.9739 42.0308 35.7758 42.2185L35.9478 42.4ZM36.4878 42.184V42.434C36.6313 42.434 36.7499 42.4812 36.8558 42.5815L37.0278 42.4L37.1997 42.2185C37.0016 42.0308 36.7602 41.934 36.4878 41.934V42.184ZM37.0278 42.4L36.8659 42.5905C36.9732 42.6817 37.0178 42.7814 37.0178 42.904H37.2678H37.5178C37.5178 42.6266 37.4024 42.3903 37.1897 42.2095L37.0278 42.4ZM37.2678 42.904H37.0178V48.172H37.2678H37.5178V42.904H37.2678ZM37.2678 48.172H37.0178C37.0178 49.0043 37.2242 49.6898 37.6676 50.1966L37.8558 50.032L38.0439 49.8674C37.7034 49.4782 37.5178 48.9237 37.5178 48.172H37.2678ZM37.8558 50.032L37.6708 50.2002C38.1269 50.7019 38.7515 50.942 39.5118 50.942V50.692V50.442C38.8641 50.442 38.3846 50.2421 38.0408 49.8638L37.8558 50.032ZM39.5118 50.692V50.942C40.2789 50.942 40.9052 50.7025 41.3544 50.1983L41.1678 50.032L40.9811 49.8657C40.6463 50.2415 40.1686 50.442 39.5118 50.442V50.692ZM41.1678 50.032L41.3543 50.1985C41.8067 49.6917 42.0178 49.0055 42.0178 48.172H41.7678H41.5178C41.5178 48.9225 41.3288 49.4763 40.9813 49.8655L41.1678 50.032ZM41.7678 48.172H42.0178V43.012H41.7678H41.5178V48.172H41.7678ZM46.6994 51.964L46.5226 51.7872V51.7872L46.6994 51.964ZM45.6794 51.964L45.4976 52.1357L45.5025 52.1409L45.5077 52.1458L45.6794 51.964ZM45.6794 42.436L45.5026 42.2592V42.2592L45.6794 42.436ZM46.6994 42.436L46.5176 42.6077L46.5225 42.6128L46.5277 42.6178L46.6994 42.436ZM46.9154 51.448H46.6654C46.6654 51.5804 46.6207 51.6891 46.5226 51.7872L46.6994 51.964L46.8762 52.1408C47.0661 51.9509 47.1654 51.7156 47.1654 51.448H46.9154ZM46.6994 51.964L46.5226 51.7872C46.4355 51.8743 46.332 51.918 46.1954 51.918V52.168V52.418C46.4587 52.418 46.6912 52.3257 46.8762 52.1408L46.6994 51.964ZM46.1954 52.168V51.918C46.0585 51.918 45.9481 51.8739 45.851 51.7822L45.6794 51.964L45.5077 52.1458C45.6986 52.3261 45.9323 52.418 46.1954 52.418V52.168ZM45.6794 51.964L45.8611 51.7923C45.7694 51.6953 45.7254 51.5849 45.7254 51.448H45.4754H45.2254C45.2254 51.7111 45.3173 51.9447 45.4976 52.1357L45.6794 51.964ZM45.4754 51.448H45.7254V42.94H45.4754H45.2254V51.448H45.4754ZM45.4754 42.94H45.7254C45.7254 42.8034 45.7691 42.6998 45.8562 42.6128L45.6794 42.436L45.5026 42.2592C45.3177 42.4442 45.2254 42.6766 45.2254 42.94H45.4754ZM45.6794 42.436L45.8562 42.6128C45.9542 42.5147 46.063 42.47 46.1954 42.47V42.22V41.97C45.9277 41.97 45.6925 42.0693 45.5026 42.2592L45.6794 42.436ZM46.1954 42.22V42.47C46.3274 42.47 46.4294 42.5142 46.5176 42.6077L46.6994 42.436L46.8811 42.2643C46.6974 42.0698 46.4634 41.97 46.1954 41.97V42.22ZM46.6994 42.436L46.5277 42.6178C46.6212 42.706 46.6654 42.808 46.6654 42.94H46.9154H47.1654C47.1654 42.672 47.0656 42.438 46.871 42.2542L46.6994 42.436ZM46.9154 42.94H46.6654V51.448H46.9154H47.1654V42.94H46.9154ZM49.3071 51.892L49.1301 52.069L49.1399 52.0778L49.3071 51.892ZM49.3071 42.52L49.4791 42.7015L49.4793 42.7012L49.3071 42.52ZM54.6711 42.904L54.5611 43.1285V43.1285L54.6711 42.904ZM56.6271 44.596L56.418 44.7331L56.4198 44.7357L56.6271 44.596ZM56.6271 49.588L56.4145 49.4565L56.6271 49.588ZM54.6591 51.436L54.7777 51.6561L54.7793 51.6552L54.6591 51.436ZM50.6271 50.56H50.3771V50.81H50.6271V50.56ZM53.9031 50.128L54.0125 50.3528L54.0137 50.3522L53.9031 50.128ZM55.2951 48.88L55.0833 48.7472L55.0819 48.7495L55.2951 48.88ZM55.2951 45.352L55.0887 45.4931L55.0903 45.4954L55.2951 45.352ZM53.9031 44.236L53.8013 44.4643L53.8025 44.4648L53.9031 44.236ZM50.6271 43.84V43.59H50.3771V43.84H50.6271ZM49.8951 52.108V51.858C49.7197 51.858 49.5847 51.8055 49.4744 51.7062L49.3071 51.892L49.1399 52.0778C49.3495 52.2665 49.6066 52.358 49.8951 52.358V52.108ZM49.3071 51.892L49.4839 51.7152C49.3791 51.6104 49.3291 51.4901 49.3291 51.34H49.0791H48.8291C48.8291 51.6219 48.9312 51.8696 49.1304 52.0688L49.3071 51.892ZM49.0791 51.34H49.3291V43.06H49.0791H48.8291V51.34H49.0791ZM49.0791 43.06H49.3291C49.3291 42.9102 49.3787 42.7966 49.4791 42.7015L49.3071 42.52L49.1352 42.3385C48.9316 42.5314 48.8291 42.7778 48.8291 43.06H49.0791ZM49.3071 42.52L49.4793 42.7012C49.5903 42.5958 49.7236 42.542 49.8951 42.542V42.292V42.042C49.6027 42.042 49.344 42.1402 49.135 42.3387L49.3071 42.52ZM49.8951 42.292V42.542H51.8871V42.292V42.042H49.8951V42.292ZM51.8871 42.292V42.542C52.877 42.542 53.7668 42.739 54.5611 43.1285L54.6711 42.904L54.7812 42.6795C53.9115 42.253 52.9452 42.042 51.8871 42.042V42.292ZM54.6711 42.904L54.5611 43.1285C55.356 43.5183 55.9725 44.0534 56.4181 44.7331L56.6271 44.596L56.8362 44.4589C56.3378 43.6986 55.6503 43.1057 54.7812 42.6795L54.6711 42.904ZM56.6271 44.596L56.4198 44.7357C56.8705 45.4042 57.0971 46.163 57.0971 47.02H57.3471H57.5971C57.5971 46.069 57.3438 45.2118 56.8344 44.4563L56.6271 44.596ZM57.3471 47.02H57.0971C57.0971 47.9108 56.8694 48.7211 56.4145 49.4565L56.6271 49.588L56.8398 49.7195C57.3448 48.9029 57.5971 48.0012 57.5971 47.02H57.3471ZM56.6271 49.588L56.4145 49.4565C55.9582 50.1943 55.3347 50.7807 54.539 51.2168L54.6591 51.436L54.7793 51.6552C55.6476 51.1793 56.3361 50.5337 56.8398 49.7195L56.6271 49.588ZM54.6591 51.436L54.5406 51.2159C53.7478 51.6428 52.865 51.858 51.8871 51.858V52.108V52.358C52.9413 52.358 53.9065 52.1252 54.7777 51.6561L54.6591 51.436ZM51.8871 52.108V51.858H49.8951V52.108V52.358H51.8871V52.108ZM50.6271 50.56V50.81H51.8871V50.56V50.31H50.6271V50.56ZM51.8871 50.56V50.81C52.6716 50.81 53.3819 50.6596 54.0125 50.3528L53.9031 50.128L53.7938 49.9032C53.2404 50.1724 52.6067 50.31 51.8871 50.31V50.56ZM53.9031 50.128L54.0137 50.3522C54.6533 50.0367 55.1541 49.5894 55.5084 49.0105L55.2951 48.88L55.0819 48.7495C54.7802 49.2426 54.353 49.6273 53.7925 49.9038L53.9031 50.128ZM55.2951 48.88L55.507 49.0128C55.8707 48.4326 56.0491 47.7655 56.0491 47.02H55.7991H55.5491C55.5491 47.6825 55.3916 48.2554 55.0833 48.7472L55.2951 48.88ZM55.7991 47.02H56.0491C56.0491 46.341 55.8677 45.734 55.5 45.2086L55.2951 45.352L55.0903 45.4954C55.3946 45.93 55.5491 46.435 55.5491 47.02H55.7991ZM55.2951 45.352L55.5016 45.211C55.144 44.6876 54.641 44.2875 54.0038 44.0072L53.9031 44.236L53.8025 44.4648C54.3653 44.7125 54.7903 45.0564 55.0887 45.493L55.2951 45.352ZM53.9031 44.236L54.005 44.0077C53.3762 43.7273 52.6686 43.59 51.8871 43.59V43.84V44.09C52.6096 44.09 53.2461 44.2167 53.8013 44.4643L53.9031 44.236ZM51.8871 43.84V43.59H50.6271V43.84V44.09H51.8871V43.84ZM50.6271 43.84H50.3771V50.56H50.6271H50.8771V43.84H50.6271ZM67.3564 49.804L67.1746 49.9757L67.1795 49.9809L67.1847 49.9858L67.3564 49.804ZM67.3684 50.824L67.5507 50.9952L67.5547 50.9907L67.3684 50.824ZM65.8204 51.796L65.9078 52.0302L65.9103 52.0293L65.8204 51.796ZM61.2604 51.544L61.1413 51.7638V51.7638L61.2604 51.544ZM59.4484 44.608L59.232 44.4827V44.4827L59.4484 44.608ZM61.2604 42.844L61.3794 43.0638L61.3812 43.0629L61.2604 42.844ZM67.3564 43.648L67.5469 43.4861L67.5449 43.4839L67.3564 43.648ZM67.3444 44.68L67.5161 44.8618L67.5211 44.8568L67.3444 44.68ZM66.3124 44.656L66.5098 44.5024L66.5049 44.4965L66.3124 44.656ZM65.2804 43.996L65.3631 43.7601V43.7601L65.2804 43.996ZM61.5964 44.428L61.7442 44.6296L61.7447 44.6293L61.5964 44.428ZM60.4324 46.288L60.1882 46.2343L60.1214 46.538H60.4324V46.288ZM64.6804 46.504L64.4986 46.6757L64.5035 46.6808L64.5087 46.6858L64.6804 46.504ZM64.6804 47.524L64.5036 47.3472V47.3472L64.6804 47.524ZM60.3724 47.728V47.478H60.0919L60.124 47.7566L60.3724 47.728ZM61.4644 49.864L61.3043 50.0561L61.307 50.0583L61.4644 49.864ZM65.3524 50.416L65.4276 50.6544V50.6544L65.3524 50.416ZM66.3124 49.852L66.1171 49.6958L66.1165 49.6967L66.3124 49.852ZM66.5524 49.66L66.4475 49.4329L66.4406 49.4364L66.5524 49.66ZM66.8524 49.588V49.838C66.9843 49.838 67.0863 49.8822 67.1746 49.9757L67.3564 49.804L67.5381 49.6323C67.3544 49.4378 67.1204 49.338 66.8524 49.338V49.588ZM67.3564 49.804L67.1847 49.9858C67.2782 50.074 67.3224 50.176 67.3224 50.308H67.5724H67.8224C67.8224 50.04 67.7226 49.806 67.528 49.6222L67.3564 49.804ZM67.5724 50.308H67.3224C67.3224 50.4344 67.2798 50.548 67.1821 50.6573L67.3684 50.824L67.5547 50.9907C67.7289 50.796 67.8224 50.5656 67.8224 50.308H67.5724ZM67.3684 50.824L67.1861 50.6529C66.8507 51.0101 66.3702 51.3161 65.7304 51.5627L65.8204 51.796L65.9103 52.0293C66.5985 51.7639 67.15 51.4219 67.5506 50.9951L67.3684 50.824ZM65.8204 51.796L65.7329 51.5618C65.0946 51.8002 64.4642 51.918 63.8404 51.918V52.168V52.418C64.5285 52.418 65.2181 52.2878 65.9078 52.0302L65.8204 51.796ZM63.8404 52.168V51.918C62.9261 51.918 62.1076 51.7186 61.3794 51.3242L61.2604 51.544L61.1413 51.7638C61.9491 52.2014 62.8506 52.418 63.8404 52.418V52.168ZM61.2604 51.544L61.3794 51.3242C60.6515 50.9299 60.081 50.3782 59.6641 49.6657L59.4484 49.792L59.2326 49.9183C59.6957 50.7098 60.3332 51.3261 61.1413 51.7638L61.2604 51.544ZM59.4484 49.792L59.6641 49.6657C59.2492 48.9565 59.0384 48.1371 59.0384 47.2H58.7884H58.5384C58.5384 48.2149 58.7676 49.1235 59.2326 49.9183L59.4484 49.792ZM58.7884 47.2H59.0384C59.0384 46.2714 59.249 45.4514 59.6647 44.7333L59.4484 44.608L59.232 44.4827C58.7678 45.2846 58.5384 46.1926 58.5384 47.2H58.7884ZM59.4484 44.608L59.6647 44.7333C60.0818 44.0129 60.6522 43.4577 61.3794 43.0638L61.2604 42.844L61.1413 42.6242C60.3325 43.0623 59.695 43.6831 59.232 44.4827L59.4484 44.608ZM61.2604 42.844L61.3812 43.0629C62.1091 42.661 62.9269 42.458 63.8404 42.458V42.208V41.958C62.8498 41.958 61.9476 42.179 61.1395 42.6251L61.2604 42.844ZM63.8404 42.208V42.458C64.462 42.458 65.0864 42.5829 65.715 42.8359L65.8084 42.604L65.9017 42.3721C65.2184 42.0971 64.5308 41.958 63.8404 41.958V42.208ZM65.8084 42.604L65.715 42.8359C66.3428 43.0886 66.8231 43.4161 67.1678 43.8121L67.3564 43.648L67.5449 43.4839C67.1376 43.0159 66.5859 42.6474 65.9017 42.3721L65.8084 42.604ZM67.3564 43.648L67.1659 43.8099C67.2692 43.9315 67.3104 44.0476 67.3104 44.164H67.5604H67.8104C67.8104 43.9124 67.7155 43.6845 67.5468 43.4861L67.3564 43.648ZM67.5604 44.164H67.3104C67.3104 44.2964 67.2657 44.4051 67.1676 44.5032L67.3444 44.68L67.5211 44.8568C67.7111 44.6669 67.8104 44.4316 67.8104 44.164H67.5604ZM67.3444 44.68L67.1727 44.4982C67.0756 44.5899 66.9652 44.634 66.8284 44.634V44.884V45.134C67.0915 45.134 67.3251 45.0421 67.516 44.8618L67.3444 44.68ZM66.8284 44.884V44.634C66.768 44.634 66.7046 44.6216 66.6365 44.5932L66.5404 44.824L66.4442 45.0548C66.5681 45.1064 66.6967 45.134 66.8284 45.134V44.884ZM66.5404 44.824L66.6365 44.5932C66.5747 44.5675 66.5357 44.5359 66.5097 44.5025L66.3124 44.656L66.115 44.8095C66.201 44.9201 66.314 45.0005 66.4442 45.0548L66.5404 44.824ZM66.3124 44.656L66.5049 44.4965C66.2359 44.1718 65.8483 43.9303 65.3631 43.7601L65.2804 43.996L65.1976 44.2319C65.6244 44.3817 65.9249 44.5802 66.1199 44.8155L66.3124 44.656ZM65.2804 43.996L65.3631 43.7601C64.8794 43.5904 64.3713 43.506 63.8404 43.506V43.756V44.006C64.3174 44.006 64.7693 44.0816 65.1976 44.2319L65.2804 43.996ZM63.8404 43.756V43.506C62.9087 43.506 62.1062 43.7418 61.4481 44.2267L61.5964 44.428L61.7447 44.6293C62.3025 44.2182 62.996 44.006 63.8404 44.006V43.756ZM61.5964 44.428L61.4485 44.2264C60.7944 44.7061 60.3758 45.3814 60.1882 46.2343L60.4324 46.288L60.6765 46.3417C60.8409 45.5946 61.1983 45.0299 61.7442 44.6296L61.5964 44.428ZM60.4324 46.288V46.538H64.1764V46.288V46.038H60.4324V46.288ZM64.1764 46.288V46.538C64.3083 46.538 64.4104 46.5822 64.4986 46.6757L64.6804 46.504L64.8621 46.3323C64.6784 46.1378 64.4444 46.038 64.1764 46.038V46.288ZM64.6804 46.504L64.5087 46.6858C64.6021 46.774 64.6464 46.876 64.6464 47.008H64.8964H65.1464C65.1464 46.74 65.0466 46.506 64.852 46.3222L64.6804 46.504ZM64.8964 47.008H64.6464C64.6464 47.1404 64.6017 47.2491 64.5036 47.3472L64.6804 47.524L64.8571 47.7008C65.0471 47.5109 65.1464 47.2757 65.1464 47.008H64.8964ZM64.6804 47.524L64.5036 47.3472C64.4165 47.4343 64.313 47.478 64.1764 47.478V47.728V47.978C64.4397 47.978 64.6722 47.8857 64.8571 47.7008L64.6804 47.524ZM64.1764 47.728V47.478H60.3724V47.728V47.978H64.1764V47.728ZM60.3724 47.728L60.124 47.7566C60.2344 48.7161 60.6249 49.4899 61.3043 50.0561L61.4644 49.864L61.6244 49.6719C61.0558 49.1981 60.7183 48.5479 60.6207 47.6994L60.3724 47.728ZM61.4644 49.864L61.307 50.0583C61.9908 50.6123 62.8413 50.882 63.8404 50.882V50.632V50.382C62.9354 50.382 62.2019 50.1397 61.6217 49.6697L61.4644 49.864ZM63.8404 50.632V50.882C64.414 50.882 64.9439 50.8072 65.4276 50.6544L65.3524 50.416L65.2771 50.1776C64.8489 50.3128 64.3707 50.382 63.8404 50.382V50.632ZM65.3524 50.416L65.4276 50.6544C65.9045 50.5038 66.2795 50.2958 66.5082 50.0073L66.3124 49.852L66.1165 49.6967C65.9772 49.8722 65.7122 50.0402 65.2771 50.1776L65.3524 50.416ZM66.3124 49.852L66.5076 50.0082C66.5479 49.9578 66.5989 49.9162 66.6642 49.8836L66.5524 49.66L66.4406 49.4364C66.3138 49.4998 66.2048 49.5862 66.1171 49.6958L66.3124 49.852ZM66.5524 49.66L66.6571 49.887C66.7345 49.8513 66.7988 49.838 66.8524 49.838V49.588V49.338C66.7139 49.338 66.5782 49.3727 66.4476 49.433L66.5524 49.66ZM70.187 51.772L70.0654 51.9904L70.0678 51.9917L70.187 51.772ZM68.8671 50.524L68.6499 50.6481L68.6541 50.655L68.8671 50.524ZM68.951 49.54L68.7641 49.3738L68.759 49.38L68.951 49.54ZM69.911 49.432L70.0336 49.2141V49.2141L69.911 49.432ZM70.247 49.78L70.462 49.6524L70.4614 49.6514L70.247 49.78ZM70.955 50.416L70.8388 50.6374L70.8454 50.6407L70.955 50.416ZM73.259 48.52L73.0823 48.6968L73.0848 48.6992L73.259 48.52ZM71.915 47.668L72.0209 47.4415L72.0198 47.441L71.915 47.668ZM70.211 46.756L70.0676 46.9609L70.0724 46.964L70.211 46.756ZM69.347 45.868L69.128 45.9885L69.1293 45.9908L69.347 45.868ZM69.479 43.42L69.6851 43.5616L69.6864 43.5597L69.479 43.42ZM70.571 42.508L70.6766 42.7347L70.6797 42.7331L70.571 42.508ZM73.8951 42.604L73.7767 42.8242L73.7793 42.8256L73.8951 42.604ZM75.119 43.756L74.9021 43.8805L74.9071 43.8885L75.119 43.756ZM75.0471 44.656L74.8601 44.4898L74.855 44.496L75.0471 44.656ZM74.1711 44.764L74.0495 44.9827L74.0592 44.9876L74.1711 44.764ZM73.835 44.476L74.0385 44.3307L74.038 44.3301L73.835 44.476ZM73.139 43.912L73.0381 44.1407L73.0406 44.1418L73.139 43.912ZM71.015 43.996L71.1493 44.2069L71.1509 44.2059L71.015 43.996ZM70.763 45.244L70.5588 45.3882L70.5637 45.3951L70.569 45.4016L70.763 45.244ZM71.279 45.64L71.1558 45.8575L71.1588 45.8592L71.279 45.64ZM72.491 46.228L72.5969 46.0015L72.595 46.0006L72.491 46.228ZM74.591 47.656L74.401 47.8185L74.4025 47.8202L74.591 47.656ZM74.831 50.92L75.0403 51.0568L75.0415 51.055L74.831 50.92ZM73.679 51.892L73.782 52.1199L73.785 52.1185L73.679 51.892ZM71.963 52.228V51.978C71.3816 51.978 70.8305 51.8368 70.3063 51.5523L70.187 51.772L70.0678 51.9917C70.6636 52.3152 71.2965 52.478 71.963 52.478V52.228ZM70.187 51.772L70.3087 51.5536C69.7842 51.2614 69.3764 50.8747 69.08 50.393L68.8671 50.524L68.6541 50.655C68.9977 51.2133 69.4699 51.6586 70.0654 51.9904L70.187 51.772ZM68.8671 50.524L69.0841 50.4C69.0453 50.332 69.021 50.2443 69.021 50.128H68.771H68.521C68.521 50.3157 68.5608 50.492 68.65 50.648L68.8671 50.524ZM68.771 50.128H69.021C69.021 49.9194 69.0712 49.7864 69.1431 49.7L68.951 49.54L68.759 49.38C68.5909 49.5816 68.521 49.8406 68.521 50.128H68.771ZM68.951 49.54L69.1379 49.7061C69.2144 49.6201 69.3121 49.574 69.455 49.574V49.324V49.074C69.182 49.074 68.9437 49.1719 68.7642 49.3739L68.951 49.54ZM69.455 49.324V49.574C69.5966 49.574 69.7047 49.6028 69.7885 49.6499L69.911 49.432L70.0336 49.2141C69.8614 49.1172 69.6655 49.074 69.455 49.074V49.324ZM69.911 49.432L69.7885 49.6499C69.8697 49.6956 69.9531 49.776 70.0327 49.9086L70.247 49.78L70.4614 49.6514C70.349 49.464 70.2084 49.3124 70.0336 49.2141L69.911 49.432ZM70.247 49.78L70.0321 49.9076C70.2123 50.2112 70.4867 50.4525 70.8388 50.6373L70.955 50.416L71.0713 50.1946C70.7834 50.0435 70.5858 49.8608 70.462 49.6524L70.247 49.78ZM70.955 50.416L70.8454 50.6407C71.2055 50.8163 71.5788 50.906 71.963 50.906V50.656V50.406C71.6593 50.406 71.3606 50.3357 71.0647 50.1913L70.955 50.416ZM71.963 50.656V50.906C72.5603 50.906 73.0526 50.8037 73.4016 50.5613C73.7672 50.3075 73.941 49.9246 73.941 49.456H73.691H73.441C73.441 49.7874 73.3269 50.0045 73.1164 50.1507C72.8895 50.3083 72.5178 50.406 71.963 50.406V50.656ZM73.691 49.456H73.941C73.941 49.0331 73.7609 48.6593 73.4333 48.3408L73.259 48.52L73.0848 48.6992C73.3332 48.9407 73.441 49.1909 73.441 49.456H73.691ZM73.259 48.52L73.4358 48.3432C73.1256 48.033 72.6472 47.7343 72.0209 47.4415L71.915 47.668L71.8092 47.8945C72.4149 48.1777 72.8325 48.447 73.0823 48.6968L73.259 48.52ZM71.915 47.668L72.0198 47.441C71.2972 47.1075 70.7423 46.8097 70.3497 46.548L70.211 46.756L70.0724 46.964C70.4958 47.2463 71.0769 47.5565 71.8103 47.895L71.915 47.668ZM70.211 46.756L70.3544 46.5512C69.9745 46.2853 69.717 46.015 69.5648 45.7452L69.347 45.868L69.1293 45.9908C69.3291 46.345 69.6476 46.6667 70.0677 46.9608L70.211 46.756ZM69.347 45.868L69.5661 45.7475C69.4138 45.4706 69.333 45.1376 69.333 44.74H69.083H68.833C68.833 45.2064 68.9283 45.6254 69.128 45.9885L69.347 45.868ZM69.083 44.74H69.333C69.333 44.2911 69.4516 43.9012 69.6851 43.5616L69.479 43.42L69.273 43.2784C68.9785 43.7068 68.833 44.1969 68.833 44.74H69.083ZM69.479 43.42L69.6864 43.5597C69.9229 43.2085 70.2502 42.9331 70.6766 42.7346L70.571 42.508L70.4655 42.2814C69.9639 42.5149 69.5632 42.8475 69.2717 43.2803L69.479 43.42ZM70.571 42.508L70.6797 42.7331C71.106 42.5273 71.5882 42.422 72.1311 42.422V42.172V41.922C71.5219 41.922 70.9641 42.0407 70.4624 42.2829L70.571 42.508ZM72.1311 42.172V42.422C72.732 42.422 73.279 42.5568 73.7767 42.8242L73.8951 42.604L74.0134 42.3838C73.4391 42.0752 72.8101 41.922 72.1311 41.922V42.172ZM73.8951 42.604L73.7793 42.8256C74.2763 43.0852 74.6477 43.4369 74.9022 43.8804L75.119 43.756L75.3359 43.6316C75.0304 43.0991 74.5858 42.6828 74.0108 42.3824L73.8951 42.604ZM75.119 43.756L74.9071 43.8885C74.965 43.9813 74.989 44.0679 74.989 44.152H75.239H75.489C75.489 43.9641 75.4331 43.7867 75.331 43.6235L75.119 43.756ZM75.239 44.152H74.989C74.989 44.2825 74.9477 44.3915 74.8602 44.4899L75.0471 44.656L75.2339 44.8221C75.4024 44.6325 75.489 44.4055 75.489 44.152H75.239ZM75.0471 44.656L74.855 44.496C74.7815 44.5842 74.6993 44.622 74.591 44.622V44.872V45.122C74.8508 45.122 75.0726 45.0158 75.2391 44.816L75.0471 44.656ZM74.591 44.872V44.622C74.5004 44.622 74.3985 44.5982 74.2829 44.5404L74.1711 44.764L74.0592 44.9876C74.2316 45.0738 74.4097 45.122 74.591 45.122V44.872ZM74.1711 44.764L74.2925 44.5455C74.1746 44.48 74.0931 44.4071 74.0385 44.3307L73.835 44.476L73.6316 44.6213C73.737 44.7689 73.8795 44.888 74.0496 44.9825L74.1711 44.764ZM73.835 44.476L74.038 44.3301C73.8285 44.0385 73.5609 43.8208 73.2375 43.6822L73.139 43.912L73.0406 44.1418C73.2772 44.2432 73.4736 44.4015 73.632 44.6219L73.835 44.476ZM73.139 43.912L73.24 43.6833C72.9272 43.5453 72.5544 43.482 72.1311 43.482V43.732V43.982C72.5076 43.982 72.8069 44.0387 73.0381 44.1407L73.139 43.912ZM72.1311 43.732V43.482C71.6317 43.482 71.2062 43.5745 70.8792 43.7861L71.015 43.996L71.1509 44.2059C71.3679 44.0655 71.6864 43.982 72.1311 43.982V43.732ZM71.015 43.996L70.8808 43.7851C70.5406 44.0016 70.369 44.3315 70.369 44.74H70.619H70.869C70.869 44.4925 70.9615 44.3264 71.1493 44.2069L71.015 43.996ZM70.619 44.74H70.369C70.369 44.981 70.4274 45.2021 70.5588 45.3882L70.763 45.244L70.9673 45.0998C70.9066 45.0139 70.869 44.899 70.869 44.74H70.619ZM70.763 45.244L70.569 45.4016C70.7015 45.5648 70.9044 45.7151 71.1558 45.8575L71.279 45.64L71.4023 45.4225C71.1737 45.2929 71.0326 45.1792 70.9571 45.0863L70.763 45.244ZM71.279 45.64L71.1588 45.8592C71.4154 45.9999 71.8264 46.1991 72.3871 46.4554L72.491 46.228L72.595 46.0006C72.0357 45.7449 71.6387 45.5521 71.3993 45.4208L71.279 45.64ZM72.491 46.228L72.3852 46.4545C73.3473 46.904 74.0105 47.3616 74.401 47.8184L74.591 47.656L74.7811 47.4936C74.3236 46.9584 73.5868 46.464 72.5969 46.0015L72.491 46.228ZM74.591 47.656L74.4025 47.8202C74.792 48.2673 74.989 48.8078 74.989 49.456H75.239H75.489C75.489 48.6962 75.2541 48.0367 74.7796 47.4918L74.591 47.656ZM75.239 49.456H74.989C74.989 49.9649 74.8643 50.4051 74.6206 50.785L74.831 50.92L75.0415 51.055C75.3418 50.5869 75.489 50.0511 75.489 49.456H75.239ZM74.831 50.92L74.6218 50.7832C74.3778 51.1564 74.0314 51.4512 73.5731 51.6655L73.679 51.892L73.785 52.1185C74.3186 51.8688 74.7403 51.5156 75.0403 51.0568L74.831 50.92ZM73.679 51.892L73.5761 51.6642C73.1181 51.871 72.5822 51.978 71.963 51.978V52.228V52.478C72.6399 52.478 73.248 52.361 73.7819 52.1198L73.679 51.892Z" fill="#0A3F15" mask="url(#path-6-outside-1_5175_2300)"/>
<defs>
<filter id="filter0_i_5175_2300" x="0" y="19" width="101" height="61" filterUnits="userSpaceOnUse" color-interpolation-filters="sRGB">
<feFlood flood-opacity="0" result="BackgroundImageFix"/>
<feBlend mode="normal" in="SourceGraphic" in2="BackgroundImageFix" result="shape"/>
<feColorMatrix in="SourceAlpha" type="matrix" values="0 0 0 0 0 0 0 0 0 0 0 0 0 0 0 0 0 0 127 0" result="hardAlpha"/>
<feOffset dy="4"/>
<feGaussianBlur stdDeviation="10"/>
<feComposite in2="hardAlpha" operator="arithmetic" k2="-1" k3="1"/>
<feColorMatrix type="matrix" values="0 0 0 0 0 0 0 0 0 1 0 0 0 0 0.0833333 0 0 0 0.75 0"/>
<feBlend mode="normal" in2="shape" result="effect1_innerShadow_5175_2300"/>
</filter>
</defs>
</svg>
