<svg width="101" height="95" viewBox="0 0 101 95" fill="none" xmlns="http://www.w3.org/2000/svg">
<g filter="url(#filter0_i_5175_2337)">
<rect x="1.5" y="20.5" width="98" height="54" rx="10.5" fill="#005800" fill-opacity="0.15" stroke="#04FF00" stroke-width="3"/>
</g>
<path d="M74.3657 56.4955L67.3042 53.8599L53.778 58.8825C53.0321 59.1311 52.1867 59.33 51.391 59.33C50.5456 59.33 49.7499 59.1808 49.004 58.8825L35.4778 53.8599L28.4163 56.4955C27.5709 56.7939 27.5709 57.9874 28.4163 58.3355L50.2472 66.3915C50.9932 66.6402 51.7888 66.6402 52.5348 66.3915L74.3657 58.3355C75.2111 57.9874 75.2111 56.7939 74.3657 56.4955Z" fill="#DDFFE4" fill-opacity="0.3"/>
<path d="M74.3657 45.6049L67.3042 42.9692L53.778 47.9421C53.0321 48.2405 52.1867 48.3897 51.391 48.3897C50.5456 48.3897 49.7499 48.2405 49.004 47.9421L35.4778 42.9692L28.4163 45.6049C27.5709 45.9032 27.5709 47.0967 28.4163 47.4448L50.2472 55.4512C50.9932 55.7496 51.7888 55.7496 52.5348 55.4512L74.3657 47.3951C75.2111 47.0967 75.2111 45.9032 74.3657 45.6049Z" fill="#DDFFE4" fill-opacity="0.3"/>
<path d="M28.4163 36.5045L50.2472 44.5606C50.9932 44.8092 51.7888 44.8092 52.5348 44.5606L74.3657 36.5045C75.2111 36.2061 75.2111 34.9629 74.3657 34.6646L52.5348 26.6085C51.7888 26.3598 50.9932 26.3598 50.2472 26.6085L28.4163 34.6646C27.5709 34.9629 27.5709 36.2061 28.4163 36.5045Z" fill="#DDFFE4" fill-opacity="0.3"/>
<mask id="path-5-outside-1_5175_2337" maskUnits="userSpaceOnUse" x="11" y="41" width="78" height="12" fill="black">
<rect fill="white" x="11" y="41" width="78" height="12"/>
<path d="M14.9104 42.22C15.8704 42.22 16.6224 42.448 17.1664 42.904C17.7184 43.36 17.9944 43.992 17.9944 44.8C17.9944 45.36 17.8704 45.848 17.6224 46.264C17.3744 46.68 17.0184 47.004 16.5544 47.236C16.0984 47.46 15.5584 47.572 14.9344 47.572H13.3264V51.34C13.3264 51.54 13.2464 51.712 13.0864 51.856C12.9344 51.992 12.7544 52.06 12.5464 52.06C12.3384 52.06 12.1584 51.992 12.0064 51.856C11.8544 51.712 11.7784 51.54 11.7784 51.34V43.012C11.7784 42.804 11.8504 42.628 11.9944 42.484C12.1464 42.34 12.3384 42.26 12.5704 42.244C12.8424 42.236 13.2224 42.232 13.7104 42.232C14.1984 42.224 14.5984 42.22 14.9104 42.22ZM14.9344 46.132C15.4304 46.132 15.8064 46.024 16.0624 45.808C16.3264 45.592 16.4584 45.296 16.4584 44.92C16.4584 44.584 16.3264 44.308 16.0624 44.092C15.8064 43.876 15.4224 43.768 14.9104 43.768L13.3264 43.78V46.132H14.9344ZM23.2624 50.596C23.4624 50.596 23.6304 50.668 23.7664 50.812C23.9104 50.948 23.9824 51.116 23.9824 51.316C23.9824 51.516 23.9104 51.688 23.7664 51.832C23.6304 51.968 23.4624 52.036 23.2624 52.036H20.0464C19.8224 52.036 19.6384 51.964 19.4944 51.82C19.3504 51.676 19.2784 51.492 19.2784 51.268V42.952C19.2784 42.752 19.3464 42.584 19.4824 42.448C19.6264 42.304 19.7984 42.232 19.9984 42.232C20.1984 42.232 20.3664 42.304 20.5024 42.448C20.6464 42.584 20.7184 42.752 20.7184 42.952V50.596H23.2624ZM33.5639 51.1C33.6039 51.196 33.6239 51.272 33.6239 51.328C33.6239 51.536 33.5519 51.716 33.4079 51.868C33.2719 52.012 33.0999 52.084 32.8919 52.084C32.7479 52.084 32.6119 52.044 32.4839 51.964C32.3639 51.884 32.2759 51.776 32.2199 51.64L31.2839 49.216H27.6239L26.6999 51.652C26.6519 51.78 26.5639 51.884 26.4359 51.964C26.3159 52.044 26.1799 52.084 26.0279 52.084C25.8199 52.084 25.6479 52.012 25.5119 51.868C25.3759 51.724 25.3079 51.552 25.3079 51.352C25.3079 51.288 25.3279 51.208 25.3679 51.112L28.8359 42.688C28.8999 42.536 28.9839 42.42 29.0879 42.34C29.1999 42.26 29.3159 42.22 29.4359 42.22C29.5719 42.22 29.6999 42.26 29.8199 42.34C29.9399 42.42 30.0319 42.54 30.0959 42.7L33.5639 51.1ZM29.3519 44.704L28.1399 47.884H30.7679L29.5439 44.704L29.4479 44.368L29.3519 44.704ZM40.7972 42.4C40.9972 42.4 41.1652 42.472 41.3012 42.616C41.4452 42.752 41.5172 42.92 41.5172 43.12C41.5172 43.32 41.4452 43.492 41.3012 43.636C41.1652 43.772 40.9972 43.84 40.7972 43.84H38.3612V51.448C38.3612 51.648 38.2812 51.82 38.1212 51.964C37.9692 52.1 37.7892 52.168 37.5812 52.168C37.3732 52.168 37.1932 52.1 37.0412 51.964C36.8892 51.82 36.8132 51.648 36.8132 51.448V43.84H34.3652C34.1652 43.84 33.9932 43.772 33.8492 43.636C33.7132 43.492 33.6452 43.32 33.6452 43.12C33.6452 42.92 33.7132 42.752 33.8492 42.616C33.9932 42.472 34.1652 42.4 34.3652 42.4H40.7972ZM44.3434 43.792V45.856H47.2234C47.4234 45.856 47.5914 45.928 47.7274 46.072C47.8714 46.208 47.9434 46.376 47.9434 46.576C47.9434 46.776 47.8714 46.948 47.7274 47.092C47.5914 47.228 47.4234 47.296 47.2234 47.296H44.3434V51.436C44.3434 51.636 44.2714 51.808 44.1274 51.952C43.9914 52.088 43.8234 52.156 43.6234 52.156C43.4234 52.156 43.2514 52.088 43.1074 51.952C42.9714 51.808 42.9034 51.636 42.9034 51.436V43.12C42.9034 42.896 42.9754 42.712 43.1194 42.568C43.2634 42.424 43.4474 42.352 43.6714 42.352H47.6554C47.8554 42.352 48.0234 42.424 48.1594 42.568C48.3034 42.704 48.3754 42.872 48.3754 43.072C48.3754 43.272 48.3034 43.444 48.1594 43.588C48.0234 43.724 47.8554 43.792 47.6554 43.792H44.3434ZM54.7198 52.348C53.7918 52.348 52.9558 52.136 52.2118 51.712C51.4678 51.28 50.8798 50.68 50.4478 49.912C50.0238 49.144 49.8118 48.268 49.8118 47.284C49.8118 46.3 50.0238 45.424 50.4478 44.656C50.8798 43.888 51.4678 43.292 52.2118 42.868C52.9558 42.436 53.7918 42.22 54.7198 42.22C55.6478 42.22 56.4838 42.436 57.2278 42.868C57.9718 43.292 58.5558 43.888 58.9798 44.656C59.4038 45.424 59.6158 46.3 59.6158 47.284C59.6158 48.268 59.4038 49.144 58.9798 49.912C58.5558 50.68 57.9718 51.28 57.2278 51.712C56.4838 52.136 55.6478 52.348 54.7198 52.348ZM54.7198 50.8C55.3598 50.8 55.9318 50.656 56.4358 50.368C56.9478 50.072 57.3478 49.66 57.6358 49.132C57.9238 48.596 58.0678 47.98 58.0678 47.284C58.0678 46.588 57.9238 45.976 57.6358 45.448C57.3478 44.912 56.9478 44.5 56.4358 44.212C55.9318 43.916 55.3598 43.768 54.7198 43.768C54.0798 43.768 53.5038 43.916 52.9918 44.212C52.4798 44.5 52.0798 44.912 51.7918 45.448C51.5038 45.976 51.3598 46.588 51.3598 47.284C51.3598 47.98 51.5038 48.596 51.7918 49.132C52.0798 49.66 52.4798 50.072 52.9918 50.368C53.5038 50.656 54.0798 50.8 54.7198 50.8ZM67.4941 50.908C67.5741 50.972 67.6581 51.072 67.7461 51.208C67.8421 51.344 67.8901 51.472 67.8901 51.592C67.8901 51.792 67.8221 51.952 67.6861 52.072C67.5501 52.192 67.3781 52.252 67.1701 52.252C66.9701 52.252 66.8221 52.22 66.7261 52.156C66.4061 51.98 66.1741 51.744 66.0301 51.448C65.8861 51.144 65.7821 50.708 65.7181 50.14C65.6941 49.9 65.6701 49.62 65.6461 49.3C65.6221 48.972 65.6021 48.704 65.5861 48.496C65.5701 48.12 65.3621 47.836 64.9621 47.644C64.5701 47.452 64.0901 47.356 63.5221 47.356H62.7301V51.448C62.7301 51.648 62.6581 51.82 62.5141 51.964C62.3781 52.1 62.2101 52.168 62.0101 52.168C61.8101 52.168 61.6381 52.1 61.4941 51.964C61.3581 51.82 61.2901 51.648 61.2901 51.448V43.012C61.2901 42.788 61.3581 42.608 61.4941 42.472C61.6301 42.336 61.8061 42.26 62.0221 42.244C62.2941 42.236 62.6741 42.232 63.1621 42.232C63.6501 42.224 64.0541 42.22 64.3741 42.22C64.9741 42.22 65.5061 42.328 65.9701 42.544C66.4421 42.76 66.8061 43.064 67.0621 43.456C67.3261 43.848 67.4581 44.296 67.4581 44.8C67.4581 45.824 66.9461 46.508 65.9221 46.852C66.6021 47.14 66.9701 47.648 67.0261 48.376L67.0741 48.928C67.0901 49.184 67.1181 49.54 67.1581 49.996C67.2061 50.476 67.3181 50.78 67.4941 50.908ZM62.7301 46.024H64.3621C64.9381 46.024 65.3581 45.932 65.6221 45.748C65.8861 45.564 66.0181 45.248 66.0181 44.8C66.0181 44.44 65.8741 44.16 65.5861 43.96C65.2981 43.76 64.8941 43.66 64.3741 43.66H62.7301V46.024ZM80.7266 51.436C80.7266 51.644 80.6466 51.828 80.4866 51.988C80.3346 52.148 80.1506 52.228 79.9346 52.228C79.7666 52.228 79.6066 52.172 79.4546 52.06C79.3106 51.956 79.2226 51.828 79.1906 51.676C79.0066 50.884 78.7506 49.792 78.4226 48.4C78.0946 47 77.8466 45.956 77.6786 45.268L77.6306 44.98C77.6066 45.052 77.5906 45.116 77.5826 45.172C77.5826 45.22 77.5786 45.252 77.5706 45.268L75.6266 51.376C75.5706 51.544 75.4746 51.68 75.3386 51.784C75.2106 51.88 75.0626 51.928 74.8946 51.928C74.7186 51.928 74.5546 51.876 74.4026 51.772C74.2586 51.668 74.1586 51.54 74.1026 51.388L72.0506 45.28L72.0026 45.004C71.9626 45.148 71.9426 45.24 71.9426 45.28C71.7746 46.08 71.5546 47.152 71.2826 48.496C71.0106 49.832 70.8066 50.856 70.6706 51.568C70.6386 51.72 70.5466 51.852 70.3946 51.964C70.2506 52.068 70.0906 52.12 69.9146 52.12C69.7146 52.12 69.5426 52.048 69.3986 51.904C69.2626 51.76 69.1946 51.592 69.1946 51.4C69.1946 51.368 69.2026 51.312 69.2186 51.232C69.2906 50.936 69.9466 48.132 71.1866 42.82C71.2266 42.644 71.3146 42.504 71.4506 42.4C71.5946 42.296 71.7546 42.244 71.9306 42.244C72.0986 42.244 72.2466 42.296 72.3746 42.4C72.5106 42.496 72.6066 42.628 72.6626 42.796L74.7386 49.204C74.7386 49.228 74.7626 49.344 74.8106 49.552C74.8586 49.344 74.8826 49.228 74.8826 49.204L76.9226 42.712C76.9786 42.552 77.0786 42.42 77.2226 42.316C77.3666 42.212 77.5266 42.16 77.7026 42.16C77.8946 42.16 78.0706 42.212 78.2306 42.316C78.3906 42.42 78.4866 42.552 78.5186 42.712C78.6866 43.344 78.9466 44.364 79.2986 45.772C79.6586 47.18 80.0186 48.584 80.3786 49.984L80.7026 51.28L80.7266 51.436ZM85.2873 52.228C84.6633 52.228 84.0713 52.076 83.5113 51.772C82.9513 51.46 82.5113 51.044 82.1913 50.524C82.1273 50.412 82.0953 50.28 82.0953 50.128C82.0953 49.88 82.1553 49.684 82.2753 49.54C82.4033 49.396 82.5713 49.324 82.7793 49.324C82.9553 49.324 83.1073 49.36 83.2353 49.432C83.3633 49.504 83.4753 49.62 83.5713 49.78C83.7233 50.036 83.9593 50.248 84.2793 50.416C84.6073 50.576 84.9433 50.656 85.2873 50.656C86.4393 50.656 87.0153 50.256 87.0153 49.456C87.0153 49.112 86.8713 48.8 86.5833 48.52C86.3033 48.24 85.8553 47.956 85.2393 47.668C84.5113 47.332 83.9433 47.028 83.5353 46.756C83.1353 46.476 82.8473 46.18 82.6713 45.868C82.4953 45.548 82.4073 45.172 82.4073 44.74C82.4073 44.244 82.5393 43.804 82.8033 43.42C83.0673 43.028 83.4313 42.724 83.8953 42.508C84.3593 42.284 84.8793 42.172 85.4553 42.172C86.0953 42.172 86.6833 42.316 87.2193 42.604C87.7553 42.884 88.1633 43.268 88.4433 43.756C88.5233 43.884 88.5633 44.016 88.5633 44.152C88.5633 44.344 88.4993 44.512 88.3713 44.656C88.2513 44.8 88.0993 44.872 87.9153 44.872C87.7793 44.872 87.6393 44.836 87.4953 44.764C87.3513 44.684 87.2393 44.588 87.1593 44.476C86.9753 44.22 86.7433 44.032 86.4633 43.912C86.1913 43.792 85.8553 43.732 85.4553 43.732C84.9833 43.732 84.6113 43.82 84.3393 43.996C84.0753 44.164 83.9433 44.412 83.9433 44.74C83.9433 44.94 83.9913 45.108 84.0873 45.244C84.1913 45.372 84.3633 45.504 84.6033 45.64C84.8513 45.776 85.2553 45.972 85.8153 46.228C86.7913 46.684 87.4913 47.16 87.9153 47.656C88.3473 48.152 88.5633 48.752 88.5633 49.456C88.5633 50.008 88.4273 50.496 88.1553 50.92C87.8833 51.336 87.4993 51.66 87.0033 51.892C86.5073 52.116 85.9353 52.228 85.2873 52.228Z"/>
</mask>
<path d="M14.9104 42.22C15.8704 42.22 16.6224 42.448 17.1664 42.904C17.7184 43.36 17.9944 43.992 17.9944 44.8C17.9944 45.36 17.8704 45.848 17.6224 46.264C17.3744 46.68 17.0184 47.004 16.5544 47.236C16.0984 47.46 15.5584 47.572 14.9344 47.572H13.3264V51.34C13.3264 51.54 13.2464 51.712 13.0864 51.856C12.9344 51.992 12.7544 52.06 12.5464 52.06C12.3384 52.06 12.1584 51.992 12.0064 51.856C11.8544 51.712 11.7784 51.54 11.7784 51.34V43.012C11.7784 42.804 11.8504 42.628 11.9944 42.484C12.1464 42.34 12.3384 42.26 12.5704 42.244C12.8424 42.236 13.2224 42.232 13.7104 42.232C14.1984 42.224 14.5984 42.22 14.9104 42.22ZM14.9344 46.132C15.4304 46.132 15.8064 46.024 16.0624 45.808C16.3264 45.592 16.4584 45.296 16.4584 44.92C16.4584 44.584 16.3264 44.308 16.0624 44.092C15.8064 43.876 15.4224 43.768 14.9104 43.768L13.3264 43.78V46.132H14.9344ZM23.2624 50.596C23.4624 50.596 23.6304 50.668 23.7664 50.812C23.9104 50.948 23.9824 51.116 23.9824 51.316C23.9824 51.516 23.9104 51.688 23.7664 51.832C23.6304 51.968 23.4624 52.036 23.2624 52.036H20.0464C19.8224 52.036 19.6384 51.964 19.4944 51.82C19.3504 51.676 19.2784 51.492 19.2784 51.268V42.952C19.2784 42.752 19.3464 42.584 19.4824 42.448C19.6264 42.304 19.7984 42.232 19.9984 42.232C20.1984 42.232 20.3664 42.304 20.5024 42.448C20.6464 42.584 20.7184 42.752 20.7184 42.952V50.596H23.2624ZM33.5639 51.1C33.6039 51.196 33.6239 51.272 33.6239 51.328C33.6239 51.536 33.5519 51.716 33.4079 51.868C33.2719 52.012 33.0999 52.084 32.8919 52.084C32.7479 52.084 32.6119 52.044 32.4839 51.964C32.3639 51.884 32.2759 51.776 32.2199 51.64L31.2839 49.216H27.6239L26.6999 51.652C26.6519 51.78 26.5639 51.884 26.4359 51.964C26.3159 52.044 26.1799 52.084 26.0279 52.084C25.8199 52.084 25.6479 52.012 25.5119 51.868C25.3759 51.724 25.3079 51.552 25.3079 51.352C25.3079 51.288 25.3279 51.208 25.3679 51.112L28.8359 42.688C28.8999 42.536 28.9839 42.42 29.0879 42.34C29.1999 42.26 29.3159 42.22 29.4359 42.22C29.5719 42.22 29.6999 42.26 29.8199 42.34C29.9399 42.42 30.0319 42.54 30.0959 42.7L33.5639 51.1ZM29.3519 44.704L28.1399 47.884H30.7679L29.5439 44.704L29.4479 44.368L29.3519 44.704ZM40.7972 42.4C40.9972 42.4 41.1652 42.472 41.3012 42.616C41.4452 42.752 41.5172 42.92 41.5172 43.12C41.5172 43.32 41.4452 43.492 41.3012 43.636C41.1652 43.772 40.9972 43.84 40.7972 43.84H38.3612V51.448C38.3612 51.648 38.2812 51.82 38.1212 51.964C37.9692 52.1 37.7892 52.168 37.5812 52.168C37.3732 52.168 37.1932 52.1 37.0412 51.964C36.8892 51.82 36.8132 51.648 36.8132 51.448V43.84H34.3652C34.1652 43.84 33.9932 43.772 33.8492 43.636C33.7132 43.492 33.6452 43.32 33.6452 43.12C33.6452 42.92 33.7132 42.752 33.8492 42.616C33.9932 42.472 34.1652 42.4 34.3652 42.4H40.7972ZM44.3434 43.792V45.856H47.2234C47.4234 45.856 47.5914 45.928 47.7274 46.072C47.8714 46.208 47.9434 46.376 47.9434 46.576C47.9434 46.776 47.8714 46.948 47.7274 47.092C47.5914 47.228 47.4234 47.296 47.2234 47.296H44.3434V51.436C44.3434 51.636 44.2714 51.808 44.1274 51.952C43.9914 52.088 43.8234 52.156 43.6234 52.156C43.4234 52.156 43.2514 52.088 43.1074 51.952C42.9714 51.808 42.9034 51.636 42.9034 51.436V43.12C42.9034 42.896 42.9754 42.712 43.1194 42.568C43.2634 42.424 43.4474 42.352 43.6714 42.352H47.6554C47.8554 42.352 48.0234 42.424 48.1594 42.568C48.3034 42.704 48.3754 42.872 48.3754 43.072C48.3754 43.272 48.3034 43.444 48.1594 43.588C48.0234 43.724 47.8554 43.792 47.6554 43.792H44.3434ZM54.7198 52.348C53.7918 52.348 52.9558 52.136 52.2118 51.712C51.4678 51.28 50.8798 50.68 50.4478 49.912C50.0238 49.144 49.8118 48.268 49.8118 47.284C49.8118 46.3 50.0238 45.424 50.4478 44.656C50.8798 43.888 51.4678 43.292 52.2118 42.868C52.9558 42.436 53.7918 42.22 54.7198 42.22C55.6478 42.22 56.4838 42.436 57.2278 42.868C57.9718 43.292 58.5558 43.888 58.9798 44.656C59.4038 45.424 59.6158 46.3 59.6158 47.284C59.6158 48.268 59.4038 49.144 58.9798 49.912C58.5558 50.68 57.9718 51.28 57.2278 51.712C56.4838 52.136 55.6478 52.348 54.7198 52.348ZM54.7198 50.8C55.3598 50.8 55.9318 50.656 56.4358 50.368C56.9478 50.072 57.3478 49.66 57.6358 49.132C57.9238 48.596 58.0678 47.98 58.0678 47.284C58.0678 46.588 57.9238 45.976 57.6358 45.448C57.3478 44.912 56.9478 44.5 56.4358 44.212C55.9318 43.916 55.3598 43.768 54.7198 43.768C54.0798 43.768 53.5038 43.916 52.9918 44.212C52.4798 44.5 52.0798 44.912 51.7918 45.448C51.5038 45.976 51.3598 46.588 51.3598 47.284C51.3598 47.98 51.5038 48.596 51.7918 49.132C52.0798 49.66 52.4798 50.072 52.9918 50.368C53.5038 50.656 54.0798 50.8 54.7198 50.8ZM67.4941 50.908C67.5741 50.972 67.6581 51.072 67.7461 51.208C67.8421 51.344 67.8901 51.472 67.8901 51.592C67.8901 51.792 67.8221 51.952 67.6861 52.072C67.5501 52.192 67.3781 52.252 67.1701 52.252C66.9701 52.252 66.8221 52.22 66.7261 52.156C66.4061 51.98 66.1741 51.744 66.0301 51.448C65.8861 51.144 65.7821 50.708 65.7181 50.14C65.6941 49.9 65.6701 49.62 65.6461 49.3C65.6221 48.972 65.6021 48.704 65.5861 48.496C65.5701 48.12 65.3621 47.836 64.9621 47.644C64.5701 47.452 64.0901 47.356 63.5221 47.356H62.7301V51.448C62.7301 51.648 62.6581 51.82 62.5141 51.964C62.3781 52.1 62.2101 52.168 62.0101 52.168C61.8101 52.168 61.6381 52.1 61.4941 51.964C61.3581 51.82 61.2901 51.648 61.2901 51.448V43.012C61.2901 42.788 61.3581 42.608 61.4941 42.472C61.6301 42.336 61.8061 42.26 62.0221 42.244C62.2941 42.236 62.6741 42.232 63.1621 42.232C63.6501 42.224 64.0541 42.22 64.3741 42.22C64.9741 42.22 65.5061 42.328 65.9701 42.544C66.4421 42.76 66.8061 43.064 67.0621 43.456C67.3261 43.848 67.4581 44.296 67.4581 44.8C67.4581 45.824 66.9461 46.508 65.9221 46.852C66.6021 47.14 66.9701 47.648 67.0261 48.376L67.0741 48.928C67.0901 49.184 67.1181 49.54 67.1581 49.996C67.2061 50.476 67.3181 50.78 67.4941 50.908ZM62.7301 46.024H64.3621C64.9381 46.024 65.3581 45.932 65.6221 45.748C65.8861 45.564 66.0181 45.248 66.0181 44.8C66.0181 44.44 65.8741 44.16 65.5861 43.96C65.2981 43.76 64.8941 43.66 64.3741 43.66H62.7301V46.024ZM80.7266 51.436C80.7266 51.644 80.6466 51.828 80.4866 51.988C80.3346 52.148 80.1506 52.228 79.9346 52.228C79.7666 52.228 79.6066 52.172 79.4546 52.06C79.3106 51.956 79.2226 51.828 79.1906 51.676C79.0066 50.884 78.7506 49.792 78.4226 48.4C78.0946 47 77.8466 45.956 77.6786 45.268L77.6306 44.98C77.6066 45.052 77.5906 45.116 77.5826 45.172C77.5826 45.22 77.5786 45.252 77.5706 45.268L75.6266 51.376C75.5706 51.544 75.4746 51.68 75.3386 51.784C75.2106 51.88 75.0626 51.928 74.8946 51.928C74.7186 51.928 74.5546 51.876 74.4026 51.772C74.2586 51.668 74.1586 51.54 74.1026 51.388L72.0506 45.28L72.0026 45.004C71.9626 45.148 71.9426 45.24 71.9426 45.28C71.7746 46.08 71.5546 47.152 71.2826 48.496C71.0106 49.832 70.8066 50.856 70.6706 51.568C70.6386 51.72 70.5466 51.852 70.3946 51.964C70.2506 52.068 70.0906 52.12 69.9146 52.12C69.7146 52.12 69.5426 52.048 69.3986 51.904C69.2626 51.76 69.1946 51.592 69.1946 51.4C69.1946 51.368 69.2026 51.312 69.2186 51.232C69.2906 50.936 69.9466 48.132 71.1866 42.82C71.2266 42.644 71.3146 42.504 71.4506 42.4C71.5946 42.296 71.7546 42.244 71.9306 42.244C72.0986 42.244 72.2466 42.296 72.3746 42.4C72.5106 42.496 72.6066 42.628 72.6626 42.796L74.7386 49.204C74.7386 49.228 74.7626 49.344 74.8106 49.552C74.8586 49.344 74.8826 49.228 74.8826 49.204L76.9226 42.712C76.9786 42.552 77.0786 42.42 77.2226 42.316C77.3666 42.212 77.5266 42.16 77.7026 42.16C77.8946 42.16 78.0706 42.212 78.2306 42.316C78.3906 42.42 78.4866 42.552 78.5186 42.712C78.6866 43.344 78.9466 44.364 79.2986 45.772C79.6586 47.18 80.0186 48.584 80.3786 49.984L80.7026 51.28L80.7266 51.436ZM85.2873 52.228C84.6633 52.228 84.0713 52.076 83.5113 51.772C82.9513 51.46 82.5113 51.044 82.1913 50.524C82.1273 50.412 82.0953 50.28 82.0953 50.128C82.0953 49.88 82.1553 49.684 82.2753 49.54C82.4033 49.396 82.5713 49.324 82.7793 49.324C82.9553 49.324 83.1073 49.36 83.2353 49.432C83.3633 49.504 83.4753 49.62 83.5713 49.78C83.7233 50.036 83.9593 50.248 84.2793 50.416C84.6073 50.576 84.9433 50.656 85.2873 50.656C86.4393 50.656 87.0153 50.256 87.0153 49.456C87.0153 49.112 86.8713 48.8 86.5833 48.52C86.3033 48.24 85.8553 47.956 85.2393 47.668C84.5113 47.332 83.9433 47.028 83.5353 46.756C83.1353 46.476 82.8473 46.18 82.6713 45.868C82.4953 45.548 82.4073 45.172 82.4073 44.74C82.4073 44.244 82.5393 43.804 82.8033 43.42C83.0673 43.028 83.4313 42.724 83.8953 42.508C84.3593 42.284 84.8793 42.172 85.4553 42.172C86.0953 42.172 86.6833 42.316 87.2193 42.604C87.7553 42.884 88.1633 43.268 88.4433 43.756C88.5233 43.884 88.5633 44.016 88.5633 44.152C88.5633 44.344 88.4993 44.512 88.3713 44.656C88.2513 44.8 88.0993 44.872 87.9153 44.872C87.7793 44.872 87.6393 44.836 87.4953 44.764C87.3513 44.684 87.2393 44.588 87.1593 44.476C86.9753 44.22 86.7433 44.032 86.4633 43.912C86.1913 43.792 85.8553 43.732 85.4553 43.732C84.9833 43.732 84.6113 43.82 84.3393 43.996C84.0753 44.164 83.9433 44.412 83.9433 44.74C83.9433 44.94 83.9913 45.108 84.0873 45.244C84.1913 45.372 84.3633 45.504 84.6033 45.64C84.8513 45.776 85.2553 45.972 85.8153 46.228C86.7913 46.684 87.4913 47.16 87.9153 47.656C88.3473 48.152 88.5633 48.752 88.5633 49.456C88.5633 50.008 88.4273 50.496 88.1553 50.92C87.8833 51.336 87.4993 51.66 87.0033 51.892C86.5073 52.116 85.9353 52.228 85.2873 52.228Z" fill="#DDFFE4"/>
<path d="M17.1664 42.904L17.0058 43.0956L17.0071 43.0967L17.1664 42.904ZM17.6224 46.264L17.8371 46.392H17.8371L17.6224 46.264ZM16.5544 47.236L16.6646 47.4604L16.6662 47.4596L16.5544 47.236ZM13.3264 47.572V47.322H13.0764V47.572H13.3264ZM13.0864 51.856L13.2531 52.0423L13.2536 52.0418L13.0864 51.856ZM12.0064 51.856L11.8344 52.0376L11.8397 52.0423L12.0064 51.856ZM11.9944 42.484L11.8224 42.3024L11.8176 42.3072L11.9944 42.484ZM12.5704 42.244L12.563 41.9939L12.5532 41.9946L12.5704 42.244ZM13.7104 42.232V42.482L13.7145 42.482L13.7104 42.232ZM16.0624 45.808L15.904 45.6145L15.9011 45.6169L16.0624 45.808ZM16.0624 44.092L15.9011 44.2831L15.904 44.2855L16.0624 44.092ZM14.9104 43.768V43.518L14.9085 43.518L14.9104 43.768ZM13.3264 43.78L13.3245 43.53L13.0764 43.5319V43.78H13.3264ZM13.3264 46.132H13.0764V46.382H13.3264V46.132ZM14.9104 42.22V42.47C15.8324 42.47 16.5205 42.6888 17.0058 43.0956L17.1664 42.904L17.327 42.7124C16.7243 42.2072 15.9084 41.97 14.9104 41.97V42.22ZM17.1664 42.904L17.0071 43.0967C17.4938 43.4988 17.7444 44.0558 17.7444 44.8H17.9944H18.2444C18.2444 43.9282 17.9429 43.2212 17.3256 42.7113L17.1664 42.904ZM17.9944 44.8H17.7444C17.7444 45.3221 17.6291 45.7644 17.4076 46.136L17.6224 46.264L17.8371 46.392C18.1116 45.9316 18.2444 45.3979 18.2444 44.8H17.9944ZM17.6224 46.264L17.4076 46.136C17.1859 46.508 16.867 46.8002 16.4426 47.0124L16.5544 47.236L16.6662 47.4596C17.1697 47.2078 17.5629 46.852 17.8371 46.392L17.6224 46.264ZM16.5544 47.236L16.4441 47.0116C16.0294 47.2154 15.5287 47.322 14.9344 47.322V47.572V47.822C15.588 47.822 16.1674 47.7046 16.6646 47.4604L16.5544 47.236ZM14.9344 47.572V47.322H13.3264V47.572V47.822H14.9344V47.572ZM13.3264 47.572H13.0764V51.34H13.3264H13.5764V47.572H13.3264ZM13.3264 51.34H13.0764C13.0764 51.4633 13.031 51.5695 12.9191 51.6702L13.0864 51.856L13.2536 52.0418C13.4618 51.8545 13.5764 51.6167 13.5764 51.34H13.3264ZM13.0864 51.856L12.9197 51.6697C12.8145 51.7638 12.6942 51.81 12.5464 51.81V52.06V52.31C12.8145 52.31 13.0542 52.2202 13.2531 52.0423L13.0864 51.856ZM12.5464 52.06V51.81C12.3985 51.81 12.2782 51.7638 12.1731 51.6697L12.0064 51.856L11.8397 52.0423C12.0385 52.2202 12.2782 52.31 12.5464 52.31V52.06ZM12.0064 51.856L12.1783 51.6745C12.0735 51.5752 12.0284 51.4678 12.0284 51.34H11.7784H11.5284C11.5284 51.6122 11.6352 51.8488 11.8344 52.0375L12.0064 51.856ZM11.7784 51.34H12.0284V43.012H11.7784H11.5284V51.34H11.7784ZM11.7784 43.012H12.0284C12.0284 42.8687 12.0751 42.7568 12.1711 42.6608L11.9944 42.484L11.8176 42.3072C11.6256 42.4992 11.5284 42.7393 11.5284 43.012H11.7784ZM11.9944 42.484L12.1663 42.6655C12.2715 42.5659 12.4066 42.5059 12.5876 42.4934L12.5704 42.244L12.5532 41.9946C12.2701 42.0141 12.0213 42.1141 11.8224 42.3025L11.9944 42.484ZM12.5704 42.244L12.5777 42.4939C12.8461 42.486 13.2232 42.482 13.7104 42.482V42.232V41.982C13.2215 41.982 12.8387 41.986 12.563 41.9941L12.5704 42.244ZM13.7104 42.232L13.7145 42.482C14.2018 42.474 14.6003 42.47 14.9104 42.47V42.22V41.97C14.5965 41.97 14.195 41.974 13.7063 41.982L13.7104 42.232ZM14.9344 46.132V46.382C15.4619 46.382 15.9052 46.2677 16.2236 45.9991L16.0624 45.808L15.9011 45.6169C15.7076 45.7803 15.3989 45.882 14.9344 45.882V46.132ZM16.0624 45.808L16.2207 46.0015C16.5491 45.7328 16.7084 45.3623 16.7084 44.92H16.4584H16.2084C16.2084 45.2297 16.1036 45.4512 15.904 45.6145L16.0624 45.808ZM16.4584 44.92H16.7084C16.7084 44.5077 16.5417 44.1612 16.2207 43.8985L16.0624 44.092L15.904 44.2855C16.111 44.4548 16.2084 44.6603 16.2084 44.92H16.4584ZM16.0624 44.092L16.2236 43.9009C15.904 43.6313 15.4515 43.518 14.9104 43.518V43.768V44.018C15.3932 44.018 15.7088 44.1207 15.9011 44.2831L16.0624 44.092ZM14.9104 43.768L14.9085 43.518L13.3245 43.53L13.3264 43.78L13.3283 44.03L14.9123 44.018L14.9104 43.768ZM13.3264 43.78H13.0764V46.132H13.3264H13.5764V43.78H13.3264ZM13.3264 46.132V46.382H14.9344V46.132V45.882H13.3264V46.132ZM23.7664 50.812L23.5846 50.9837L23.5895 50.9888L23.5947 50.9938L23.7664 50.812ZM23.7664 51.832L23.9431 52.0088V52.0088L23.7664 51.832ZM19.4944 51.82L19.6711 51.6432V51.6432L19.4944 51.82ZM19.4824 42.448L19.3056 42.2712V42.2712L19.4824 42.448ZM20.5024 42.448L20.3206 42.6197L20.3255 42.6248L20.3307 42.6298L20.5024 42.448ZM20.7184 50.596H20.4684V50.846H20.7184V50.596ZM23.2624 50.596V50.846C23.3943 50.846 23.4964 50.8902 23.5846 50.9837L23.7664 50.812L23.9481 50.6403C23.7644 50.4458 23.5304 50.346 23.2624 50.346V50.596ZM23.7664 50.812L23.5947 50.9938C23.6881 51.082 23.7324 51.184 23.7324 51.316H23.9824H24.2324C24.2324 51.048 24.1326 50.814 23.938 50.6302L23.7664 50.812ZM23.9824 51.316H23.7324C23.7324 51.4484 23.6877 51.5571 23.5896 51.6552L23.7664 51.832L23.9431 52.0088C24.1331 51.8189 24.2324 51.5836 24.2324 51.316H23.9824ZM23.7664 51.832L23.5896 51.6552C23.5025 51.7423 23.399 51.786 23.2624 51.786V52.036V52.286C23.5257 52.286 23.7582 52.1937 23.9431 52.0088L23.7664 51.832ZM23.2624 52.036V51.786H20.0464V52.036V52.286H23.2624V52.036ZM20.0464 52.036V51.786C19.8814 51.786 19.7633 51.7354 19.6711 51.6432L19.4944 51.82L19.3176 51.9968C19.5134 52.1926 19.7633 52.286 20.0464 52.286V52.036ZM19.4944 51.82L19.6711 51.6432C19.5789 51.551 19.5284 51.433 19.5284 51.268H19.2784H19.0284C19.0284 51.551 19.1218 51.801 19.3176 51.9968L19.4944 51.82ZM19.2784 51.268H19.5284V42.952H19.2784H19.0284V51.268H19.2784ZM19.2784 42.952H19.5284C19.5284 42.8154 19.5721 42.7118 19.6591 42.6248L19.4824 42.448L19.3056 42.2712C19.1207 42.4562 19.0284 42.6886 19.0284 42.952H19.2784ZM19.4824 42.448L19.6591 42.6248C19.7572 42.5267 19.866 42.482 19.9984 42.482V42.232V41.982C19.7307 41.982 19.4955 42.0813 19.3056 42.2712L19.4824 42.448ZM19.9984 42.232V42.482C20.1303 42.482 20.2324 42.5262 20.3206 42.6197L20.5024 42.448L20.6841 42.2763C20.5004 42.0818 20.2664 41.982 19.9984 41.982V42.232ZM20.5024 42.448L20.3307 42.6298C20.4241 42.718 20.4684 42.82 20.4684 42.952H20.7184H20.9684C20.9684 42.684 20.8686 42.45 20.674 42.2662L20.5024 42.448ZM20.7184 42.952H20.4684V50.596H20.7184H20.9684V42.952H20.7184ZM20.7184 50.596V50.846H23.2624V50.596V50.346H20.7184V50.596ZM33.5639 51.1L33.3328 51.1954L33.3331 51.1962L33.5639 51.1ZM33.4079 51.868L33.2264 51.6961L33.2261 51.6963L33.4079 51.868ZM32.4839 51.964L32.3452 52.1721L32.3514 52.176L32.4839 51.964ZM32.2199 51.64L31.9866 51.7301L31.9887 51.7352L32.2199 51.64ZM31.2839 49.216L31.5171 49.1259L31.4553 48.966H31.2839V49.216ZM27.6239 49.216V48.966H27.4513L27.3901 49.1273L27.6239 49.216ZM26.6999 51.652L26.4661 51.5633L26.4658 51.5642L26.6999 51.652ZM26.4359 51.964L26.3033 51.7519L26.2972 51.756L26.4359 51.964ZM25.5119 51.868L25.6936 51.6963V51.6963L25.5119 51.868ZM25.3679 51.112L25.5987 51.2082L25.5991 51.2072L25.3679 51.112ZM28.8359 42.688L28.6055 42.591L28.6047 42.5928L28.8359 42.688ZM29.0879 42.34L28.9425 42.1364L28.9355 42.1418L29.0879 42.34ZM29.8199 42.34L29.9586 42.132H29.9586L29.8199 42.34ZM30.0959 42.7L29.8638 42.7929L29.8648 42.7954L30.0959 42.7ZM29.3519 44.704L29.5855 44.793L29.5893 44.783L29.5923 44.7727L29.3519 44.704ZM28.1399 47.884L27.9063 47.795L27.7771 48.134H28.1399V47.884ZM30.7679 47.884V48.134H31.132L31.0012 47.7942L30.7679 47.884ZM29.5439 44.704L29.3035 44.7727L29.3066 44.7834L29.3106 44.7938L29.5439 44.704ZM29.4479 44.368L29.6883 44.2993L29.4479 43.458L29.2075 44.2993L29.4479 44.368ZM33.5639 51.1L33.3331 51.1962C33.35 51.2367 33.3608 51.2686 33.3671 51.2926C33.3737 51.3175 33.3739 51.3282 33.3739 51.328H33.6239H33.8739C33.8739 51.2217 33.8384 51.1087 33.7947 51.0038L33.5639 51.1ZM33.6239 51.328H33.3739C33.3739 51.4716 33.3267 51.5902 33.2264 51.6961L33.4079 51.868L33.5894 52.0399C33.777 51.8418 33.8739 51.6004 33.8739 51.328H33.6239ZM33.4079 51.868L33.2261 51.6963C33.14 51.7876 33.035 51.834 32.8919 51.834V52.084V52.334C33.1648 52.334 33.4038 52.2364 33.5896 52.0397L33.4079 51.868ZM32.8919 52.084V51.834C32.7971 51.834 32.7067 51.8084 32.6164 51.752L32.4839 51.964L32.3514 52.176C32.5171 52.2796 32.6987 52.334 32.8919 52.334V52.084ZM32.4839 51.964L32.6226 51.756C32.5448 51.7041 32.4885 51.6358 32.4511 51.5448L32.2199 51.64L31.9887 51.7352C32.0633 51.9162 32.183 52.0639 32.3452 52.172L32.4839 51.964ZM32.2199 51.64L32.4531 51.5499L31.5171 49.1259L31.2839 49.216L31.0507 49.3061L31.9867 51.7301L32.2199 51.64ZM31.2839 49.216V48.966H27.6239V49.216V49.466H31.2839V49.216ZM27.6239 49.216L27.3901 49.1273L26.4661 51.5633L26.6999 51.652L26.9336 51.7407L27.8576 49.3047L27.6239 49.216ZM26.6999 51.652L26.4658 51.5642C26.4391 51.6354 26.3899 51.6979 26.3034 51.752L26.4359 51.964L26.5684 52.176C26.7379 52.0701 26.8647 51.9246 26.934 51.7398L26.6999 51.652ZM26.4359 51.964L26.2972 51.756C26.2206 51.8071 26.1333 51.834 26.0279 51.834V52.084V52.334C26.2264 52.334 26.4112 52.2809 26.5746 52.172L26.4359 51.964ZM26.0279 52.084V51.834C25.8848 51.834 25.7798 51.7876 25.6936 51.6963L25.5119 51.868L25.3301 52.0397C25.516 52.2364 25.755 52.334 26.0279 52.334V52.084ZM25.5119 51.868L25.6936 51.6963C25.6019 51.5993 25.5579 51.4889 25.5579 51.352H25.3079H25.0579C25.0579 51.6151 25.1498 51.8487 25.3301 52.0397L25.5119 51.868ZM25.3079 51.352H25.5579C25.5579 51.3353 25.5644 51.2904 25.5987 51.2082L25.3679 51.112L25.1371 51.0158C25.0914 51.1256 25.0579 51.2407 25.0579 51.352H25.3079ZM25.3679 51.112L25.5991 51.2072L29.0671 42.7832L28.8359 42.688L28.6047 42.5928L25.1367 51.0168L25.3679 51.112ZM28.8359 42.688L29.0663 42.785C29.1178 42.6628 29.1784 42.5858 29.2403 42.5382L29.0879 42.34L28.9355 42.1418C28.7894 42.2542 28.682 42.4092 28.6055 42.591L28.8359 42.688ZM29.0879 42.34L29.2332 42.5434C29.3093 42.4891 29.3754 42.47 29.4359 42.47V42.22V41.97C29.2564 41.97 29.0905 42.0309 28.9426 42.1366L29.0879 42.34ZM29.4359 42.22V42.47C29.5195 42.47 29.5997 42.4936 29.6812 42.548L29.8199 42.34L29.9586 42.132C29.8001 42.0264 29.6243 41.97 29.4359 41.97V42.22ZM29.8199 42.34L29.6812 42.548C29.7515 42.5949 29.8148 42.6705 29.8638 42.7928L30.0959 42.7L30.328 42.6072C30.249 42.4095 30.1283 42.2451 29.9586 42.132L29.8199 42.34ZM30.0959 42.7L29.8648 42.7954L33.3328 51.1954L33.5639 51.1L33.795 51.0046L30.327 42.6046L30.0959 42.7ZM29.3519 44.704L29.1183 44.615L27.9063 47.795L28.1399 47.884L28.3735 47.973L29.5855 44.793L29.3519 44.704ZM28.1399 47.884V48.134H30.7679V47.884V47.634H28.1399V47.884ZM30.7679 47.884L31.0012 47.7942L29.7772 44.6142L29.5439 44.704L29.3106 44.7938L30.5346 47.9738L30.7679 47.884ZM29.5439 44.704L29.7843 44.6353L29.6883 44.2993L29.4479 44.368L29.2075 44.4367L29.3035 44.7727L29.5439 44.704ZM29.4479 44.368L29.2075 44.2993L29.1115 44.6353L29.3519 44.704L29.5923 44.7727L29.6883 44.4367L29.4479 44.368ZM41.3012 42.616L41.1194 42.7877L41.1243 42.7928L41.1295 42.7978L41.3012 42.616ZM41.3012 43.636L41.1244 43.4592L41.1244 43.4592L41.3012 43.636ZM38.3612 43.84V43.59H38.1112V43.84H38.3612ZM38.1212 51.964L38.2879 52.1503L38.2884 52.1498L38.1212 51.964ZM37.0412 51.964L36.8692 52.1456L36.8745 52.1503L37.0412 51.964ZM36.8132 43.84H37.0632V43.59H36.8132V43.84ZM33.8492 43.636L33.6674 43.8077L33.6723 43.8128L33.6775 43.8178L33.8492 43.636ZM33.8492 42.616L33.6724 42.4392V42.4392L33.8492 42.616ZM40.7972 42.4V42.65C40.9291 42.65 41.0312 42.6942 41.1194 42.7877L41.3012 42.616L41.4829 42.4443C41.2992 42.2498 41.0652 42.15 40.7972 42.15V42.4ZM41.3012 42.616L41.1295 42.7978C41.223 42.886 41.2672 42.988 41.2672 43.12H41.5172H41.7672C41.7672 42.852 41.6674 42.618 41.4728 42.4342L41.3012 42.616ZM41.5172 43.12H41.2672C41.2672 43.2523 41.2225 43.3611 41.1244 43.4592L41.3012 43.636L41.478 43.8128C41.6679 43.6229 41.7672 43.3876 41.7672 43.12H41.5172ZM41.3012 43.636L41.1244 43.4592C41.0373 43.5463 40.9338 43.59 40.7972 43.59V43.84V44.09C41.0605 44.09 41.293 43.9977 41.478 43.8128L41.3012 43.636ZM40.7972 43.84V43.59H38.3612V43.84V44.09H40.7972V43.84ZM38.3612 43.84H38.1112V51.448H38.3612H38.6112V43.84H38.3612ZM38.3612 51.448H38.1112C38.1112 51.5713 38.0658 51.6775 37.9539 51.7782L38.1212 51.964L38.2884 52.1498C38.4966 51.9625 38.6112 51.7247 38.6112 51.448H38.3612ZM38.1212 51.964L37.9545 51.7777C37.8493 51.8718 37.729 51.918 37.5812 51.918V52.168V52.418C37.8493 52.418 38.089 52.3282 38.2879 52.1503L38.1212 51.964ZM37.5812 52.168V51.918C37.4333 51.918 37.313 51.8718 37.2079 51.7777L37.0412 51.964L36.8745 52.1503C37.0733 52.3282 37.313 52.418 37.5812 52.418V52.168ZM37.0412 51.964L37.2131 51.7825C37.1083 51.6832 37.0632 51.5758 37.0632 51.448H36.8132H36.5632C36.5632 51.7202 36.67 51.9568 36.8692 52.1455L37.0412 51.964ZM36.8132 51.448H37.0632V43.84H36.8132H36.5632V51.448H36.8132ZM36.8132 43.84V43.59H34.3652V43.84V44.09H36.8132V43.84ZM34.3652 43.84V43.59C34.2283 43.59 34.1179 43.5459 34.0208 43.4542L33.8492 43.636L33.6775 43.8178C33.8684 43.9981 34.102 44.09 34.3652 44.09V43.84ZM33.8492 43.636L34.0309 43.4643C33.9392 43.3673 33.8952 43.2569 33.8952 43.12H33.6452H33.3952C33.3952 43.3831 33.4871 43.6167 33.6674 43.8077L33.8492 43.636ZM33.6452 43.12H33.8952C33.8952 42.9834 33.9389 42.8798 34.0259 42.7928L33.8492 42.616L33.6724 42.4392C33.4875 42.6242 33.3952 42.8566 33.3952 43.12H33.6452ZM33.8492 42.616L34.0259 42.7928C34.124 42.6947 34.2328 42.65 34.3652 42.65V42.4V42.15C34.0975 42.15 33.8623 42.2493 33.6724 42.4392L33.8492 42.616ZM34.3652 42.4V42.65H40.7972V42.4V42.15H34.3652V42.4ZM44.3434 43.792V43.542H44.0934V43.792H44.3434ZM44.3434 45.856H44.0934V46.106H44.3434V45.856ZM47.7274 46.072L47.5456 46.2437L47.5505 46.2488L47.5557 46.2538L47.7274 46.072ZM47.7274 47.092L47.9041 47.2688V47.2688L47.7274 47.092ZM44.3434 47.296V47.046H44.0934V47.296H44.3434ZM44.1274 51.952L44.3041 52.1288V52.1288L44.1274 51.952ZM43.1074 51.952L42.9256 52.1237L42.9305 52.1288L42.9357 52.1338L43.1074 51.952ZM48.1594 42.568L47.9776 42.7397L47.9825 42.7449L47.9877 42.7498L48.1594 42.568ZM48.1594 43.588L47.9826 43.4112V43.4112L48.1594 43.588ZM44.3434 43.792H44.0934V45.856H44.3434H44.5934V43.792H44.3434ZM44.3434 45.856V46.106H47.2234V45.856V45.606H44.3434V45.856ZM47.2234 45.856V46.106C47.3553 46.106 47.4574 46.1502 47.5456 46.2437L47.7274 46.072L47.9091 45.9003C47.7254 45.7058 47.4914 45.606 47.2234 45.606V45.856ZM47.7274 46.072L47.5557 46.2538C47.6491 46.342 47.6934 46.444 47.6934 46.576H47.9434H48.1934C48.1934 46.308 48.0936 46.074 47.899 45.8902L47.7274 46.072ZM47.9434 46.576H47.6934C47.6934 46.7084 47.6487 46.8171 47.5506 46.9152L47.7274 47.092L47.9041 47.2688C48.0941 47.0788 48.1934 46.8436 48.1934 46.576H47.9434ZM47.7274 47.092L47.5506 46.9152C47.4635 47.0023 47.36 47.046 47.2234 47.046V47.296V47.546C47.4867 47.546 47.7192 47.4537 47.9041 47.2688L47.7274 47.092ZM47.2234 47.296V47.046H44.3434V47.296V47.546H47.2234V47.296ZM44.3434 47.296H44.0934V51.436H44.3434H44.5934V47.296H44.3434ZM44.3434 51.436H44.0934C44.0934 51.5684 44.0487 51.6771 43.9506 51.7752L44.1274 51.952L44.3041 52.1288C44.4941 51.9389 44.5934 51.7036 44.5934 51.436H44.3434ZM44.1274 51.952L43.9506 51.7752C43.8635 51.8623 43.76 51.906 43.6234 51.906V52.156V52.406C43.8867 52.406 44.1192 52.3137 44.3041 52.1288L44.1274 51.952ZM43.6234 52.156V51.906C43.4865 51.906 43.3761 51.8619 43.279 51.7702L43.1074 51.952L42.9357 52.1338C43.1266 52.3141 43.3602 52.406 43.6234 52.406V52.156ZM43.1074 51.952L43.2891 51.7803C43.1974 51.6833 43.1534 51.5729 43.1534 51.436H42.9034H42.6534C42.6534 51.6991 42.7453 51.9327 42.9256 52.1237L43.1074 51.952ZM42.9034 51.436H43.1534V43.12H42.9034H42.6534V51.436H42.9034ZM42.9034 43.12H43.1534C43.1534 42.955 43.2039 42.837 43.2961 42.7448L43.1194 42.568L42.9426 42.3912C42.7468 42.587 42.6534 42.837 42.6534 43.12H42.9034ZM43.1194 42.568L43.2961 42.7448C43.3883 42.6526 43.5064 42.602 43.6714 42.602V42.352V42.102C43.3883 42.102 43.1384 42.1954 42.9426 42.3912L43.1194 42.568ZM43.6714 42.352V42.602H47.6554V42.352V42.102H43.6714V42.352ZM47.6554 42.352V42.602C47.7873 42.602 47.8894 42.6462 47.9776 42.7397L48.1594 42.568L48.3411 42.3963C48.1574 42.2018 47.9234 42.102 47.6554 42.102V42.352ZM48.1594 42.568L47.9877 42.7498C48.0811 42.838 48.1254 42.94 48.1254 43.072H48.3754H48.6254C48.6254 42.804 48.5256 42.57 48.331 42.3862L48.1594 42.568ZM48.3754 43.072H48.1254C48.1254 43.2044 48.0807 43.3131 47.9826 43.4112L48.1594 43.588L48.3361 43.7648C48.5261 43.5749 48.6254 43.3396 48.6254 43.072H48.3754ZM48.1594 43.588L47.9826 43.4112C47.8955 43.4983 47.792 43.542 47.6554 43.542V43.792V44.042C47.9187 44.042 48.1512 43.9497 48.3361 43.7648L48.1594 43.588ZM47.6554 43.792V43.542H44.3434V43.792V44.042H47.6554V43.792ZM52.2118 51.712L52.0863 51.9282L52.088 51.9292L52.2118 51.712ZM50.4478 49.912L50.2289 50.0328L50.2299 50.0346L50.4478 49.912ZM50.4478 44.656L50.2299 44.5334L50.2289 44.5352L50.4478 44.656ZM52.2118 42.868L52.3356 43.0852L52.3373 43.0842L52.2118 42.868ZM57.2278 42.868L57.1023 43.0842L57.104 43.0852L57.2278 42.868ZM58.9798 44.656L59.1987 44.5352V44.5352L58.9798 44.656ZM58.9798 49.912L59.1987 50.0328V50.0328L58.9798 49.912ZM57.2278 51.712L57.3516 51.9292L57.3533 51.9282L57.2278 51.712ZM56.4358 50.368L56.5598 50.5851L56.5609 50.5844L56.4358 50.368ZM57.6358 49.132L57.8553 49.2517L57.856 49.2503L57.6358 49.132ZM57.6358 45.448L57.4156 45.5663L57.4163 45.5677L57.6358 45.448ZM56.4358 44.212L56.3092 44.4276L56.3132 44.4299L56.4358 44.212ZM52.9918 44.212L53.1144 44.4299L53.1169 44.4284L52.9918 44.212ZM51.7918 45.448L52.0113 45.5677L52.012 45.5663L51.7918 45.448ZM51.7918 49.132L51.5716 49.2503L51.5723 49.2517L51.7918 49.132ZM52.9918 50.368L52.8667 50.5844L52.8692 50.5859L52.9918 50.368ZM54.7198 52.348V52.098C53.8315 52.098 53.0387 51.8955 52.3356 51.4948L52.2118 51.712L52.088 51.9292C52.8729 52.3765 53.7521 52.598 54.7198 52.598V52.348ZM52.2118 51.712L52.3373 51.4958C51.6329 51.0868 51.0764 50.5195 50.6657 49.7894L50.4478 49.912L50.2299 50.0346C50.6832 50.8405 51.3027 51.4732 52.0863 51.9282L52.2118 51.712ZM50.4478 49.912L50.6667 49.7912C50.2655 49.0645 50.0618 48.231 50.0618 47.284H49.8118H49.5618C49.5618 48.305 49.7821 49.2235 50.2289 50.0328L50.4478 49.912ZM49.8118 47.284H50.0618C50.0618 46.337 50.2655 45.5035 50.6667 44.7768L50.4478 44.656L50.2289 44.5352C49.7821 45.3445 49.5618 46.263 49.5618 47.284H49.8118ZM50.4478 44.656L50.6657 44.7786C51.0762 44.0489 51.6321 43.4861 52.3356 43.0852L52.2118 42.868L52.088 42.6508C51.3035 43.0979 50.6834 43.7271 50.2299 44.5334L50.4478 44.656ZM52.2118 42.868L52.3373 43.0842C53.0402 42.6761 53.8323 42.47 54.7198 42.47V42.22V41.97C53.7513 41.97 52.8714 42.1959 52.0863 42.6518L52.2118 42.868ZM54.7198 42.22V42.47C55.6073 42.47 56.3994 42.6761 57.1023 43.0842L57.2278 42.868L57.3533 42.6518C56.5682 42.1959 55.6883 41.97 54.7198 41.97V42.22ZM57.2278 42.868L57.104 43.0852C57.807 43.4859 58.3586 44.048 58.7609 44.7768L58.9798 44.656L59.1987 44.5352C58.753 43.7279 58.1366 43.0981 57.3516 42.6508L57.2278 42.868ZM58.9798 44.656L58.7609 44.7768C59.1621 45.5035 59.3658 46.337 59.3658 47.284H59.6158H59.8658C59.8658 46.263 59.6455 45.3445 59.1987 44.5352L58.9798 44.656ZM59.6158 47.284H59.3658C59.3658 48.231 59.1621 49.0645 58.7609 49.7912L58.9798 49.912L59.1987 50.0328C59.6455 49.2235 59.8658 48.305 59.8658 47.284H59.6158ZM58.9798 49.912L58.7609 49.7912C58.3584 50.5203 57.8063 51.087 57.1023 51.4958L57.2278 51.712L57.3533 51.9282C58.1373 51.473 58.7532 50.8397 59.1987 50.0328L58.9798 49.912ZM57.2278 51.712L57.104 51.4948C56.4009 51.8955 55.6081 52.098 54.7198 52.098V52.348V52.598C55.6875 52.598 56.5667 52.3765 57.3516 51.9292L57.2278 51.712ZM54.7198 50.8V51.05C55.3987 51.05 56.0143 50.8968 56.5598 50.5851L56.4358 50.368L56.3118 50.1509C55.8493 50.4152 55.3209 50.55 54.7198 50.55V50.8ZM56.4358 50.368L56.5609 50.5844C57.1134 50.2651 57.5457 49.8193 57.8553 49.2517L57.6358 49.132L57.4163 49.0123C57.1499 49.5007 56.7822 49.8789 56.3107 50.1516L56.4358 50.368ZM57.6358 49.132L57.856 49.2503C58.1662 48.673 58.3178 48.0153 58.3178 47.284H58.0678H57.8178C57.8178 47.9447 57.6814 48.519 57.4156 49.0137L57.6358 49.132ZM58.0678 47.284H58.3178C58.3178 46.5528 58.1663 45.8984 57.8553 45.3283L57.6358 45.448L57.4163 45.5677C57.6813 46.0536 57.8178 46.6232 57.8178 47.284H58.0678ZM57.6358 45.448L57.856 45.3297C57.5464 44.7535 57.1132 44.3062 56.5584 43.9941L56.4358 44.212L56.3132 44.4299C56.7824 44.6938 57.1492 45.0705 57.4156 45.5663L57.6358 45.448ZM56.4358 44.212L56.5624 43.9964C56.0164 43.6758 55.4 43.518 54.7198 43.518V43.768V44.018C55.3196 44.018 55.8472 44.1562 56.3092 44.4276L56.4358 44.212ZM54.7198 43.768V43.518C54.0396 43.518 53.4198 43.6758 52.8667 43.9956L52.9918 44.212L53.1169 44.4284C53.5878 44.1562 54.12 44.018 54.7198 44.018V43.768ZM52.9918 44.212L52.8692 43.9941C52.3144 44.3062 51.8812 44.7535 51.5716 45.3297L51.7918 45.448L52.012 45.5663C52.2784 45.0705 52.6452 44.6938 53.1144 44.4299L52.9918 44.212ZM51.7918 45.448L51.5723 45.3283C51.2613 45.8984 51.1098 46.5528 51.1098 47.284H51.3598H51.6098C51.6098 46.6232 51.7463 46.0536 52.0113 45.5677L51.7918 45.448ZM51.3598 47.284H51.1098C51.1098 48.0153 51.2614 48.673 51.5716 49.2503L51.7918 49.132L52.012 49.0137C51.7462 48.519 51.6098 47.9447 51.6098 47.284H51.3598ZM51.7918 49.132L51.5723 49.2517C51.8819 49.8193 52.3142 50.2651 52.8667 50.5844L52.9918 50.368L53.1169 50.1516C52.6454 49.8789 52.2777 49.5007 52.0113 49.0123L51.7918 49.132ZM52.9918 50.368L52.8692 50.5859C53.4219 50.8968 54.0408 51.05 54.7198 51.05V50.8V50.55C54.1188 50.55 53.5856 50.4152 53.1144 50.1501L52.9918 50.368ZM67.4941 50.908L67.6504 50.7126L67.6411 50.7058L67.4941 50.908ZM67.7461 51.208L67.536 51.3439L67.5418 51.3522L67.7461 51.208ZM67.6861 52.072L67.5207 51.8845V51.8845L67.6861 52.072ZM66.7261 52.156L66.8648 51.948L66.8559 51.9421L66.8466 51.9369L66.7261 52.156ZM66.0301 51.448L65.8041 51.555L65.8053 51.5574L66.0301 51.448ZM65.7181 50.14L65.4693 50.1649L65.4697 50.168L65.7181 50.14ZM65.6461 49.3L65.3967 49.3182L65.3968 49.3187L65.6461 49.3ZM65.5861 48.496L65.3362 48.5066L65.3368 48.5152L65.5861 48.496ZM64.9621 47.644L64.8521 47.8685L64.8539 47.8694L64.9621 47.644ZM62.7301 47.356V47.106H62.4801V47.356H62.7301ZM62.5141 51.964L62.6909 52.1408V52.1408L62.5141 51.964ZM61.4941 51.964L61.3123 52.1357L61.3172 52.1409L61.3224 52.1458L61.4941 51.964ZM61.4941 42.472L61.3173 42.2952V42.2952L61.4941 42.472ZM62.0221 42.244L62.0147 41.9939L62.0036 41.9947L62.0221 42.244ZM63.1621 42.232V42.482L63.1662 42.482L63.1621 42.232ZM65.9701 42.544L65.8646 42.7706L65.866 42.7713L65.9701 42.544ZM67.0621 43.456L66.8527 43.5927L66.8547 43.5956L67.0621 43.456ZM65.9221 46.852L65.8425 46.615L65.2173 46.825L65.8246 47.0822L65.9221 46.852ZM67.0261 48.376L66.7768 48.3952L66.777 48.3977L67.0261 48.376ZM67.0741 48.928L67.3237 48.9124L67.3231 48.9063L67.0741 48.928ZM67.1581 49.996L66.909 50.0178L66.9093 50.0209L67.1581 49.996ZM62.7301 46.024H62.4801V46.274H62.7301V46.024ZM65.6221 45.748L65.4791 45.5429V45.5429L65.6221 45.748ZM65.5861 43.96L65.4435 44.1653V44.1653L65.5861 43.96ZM62.7301 43.66V43.41H62.4801V43.66H62.7301ZM67.4941 50.908L67.3379 51.1032C67.3884 51.1436 67.4553 51.2189 67.5362 51.3438L67.7461 51.208L67.956 51.0722C67.8608 50.9251 67.7598 50.8004 67.6503 50.7128L67.4941 50.908ZM67.7461 51.208L67.5418 51.3522C67.6193 51.4619 67.6401 51.5402 67.6401 51.592H67.8901H68.1401C68.1401 51.4038 68.0649 51.2261 67.9503 51.0638L67.7461 51.208ZM67.8901 51.592H67.6401C67.6401 51.7285 67.597 51.8172 67.5207 51.8845L67.6861 52.072L67.8515 52.2595C68.0472 52.0868 68.1401 51.8555 68.1401 51.592H67.8901ZM67.6861 52.072L67.5207 51.8845C67.437 51.9584 67.3267 52.002 67.1701 52.002V52.252V52.502C67.4295 52.502 67.6631 52.4256 67.8515 52.2595L67.6861 52.072ZM67.1701 52.252V52.002C66.9875 52.002 66.8994 51.9711 66.8648 51.948L66.7261 52.156L66.5874 52.364C66.7448 52.4689 66.9527 52.502 67.1701 52.502V52.252ZM66.7261 52.156L66.8466 51.9369C66.5667 51.783 66.3738 51.5831 66.2549 51.3386L66.0301 51.448L65.8053 51.5574C65.9743 51.9049 66.2455 52.177 66.6056 52.3751L66.7261 52.156ZM66.0301 51.448L66.256 51.341C66.1292 51.0734 66.0293 50.669 65.9665 50.112L65.7181 50.14L65.4697 50.168C65.5349 50.747 65.6429 51.2146 65.8041 51.555L66.0301 51.448ZM65.7181 50.14L65.9668 50.1151C65.9431 49.8777 65.9193 49.5999 65.8954 49.2813L65.6461 49.3L65.3968 49.3187C65.4209 49.6401 65.4451 49.9223 65.4693 50.1649L65.7181 50.14ZM65.6461 49.3L65.8954 49.2818C65.8714 48.9536 65.8514 48.6853 65.8353 48.4768L65.5861 48.496L65.3368 48.5152C65.3528 48.7227 65.3728 48.9904 65.3967 49.3182L65.6461 49.3ZM65.5861 48.496L65.8359 48.4854C65.8151 47.9988 65.5355 47.6419 65.0703 47.4186L64.9621 47.644L64.8539 47.8694C65.1886 48.03 65.325 48.2412 65.3363 48.5066L65.5861 48.496ZM64.9621 47.644L65.072 47.4195C64.6371 47.2065 64.1171 47.106 63.5221 47.106V47.356V47.606C64.063 47.606 64.5031 47.6975 64.8521 47.8685L64.9621 47.644ZM63.5221 47.356V47.106H62.7301V47.356V47.606H63.5221V47.356ZM62.7301 47.356H62.4801V51.448H62.7301H62.9801V47.356H62.7301ZM62.7301 51.448H62.4801C62.4801 51.5804 62.4354 51.6891 62.3373 51.7872L62.5141 51.964L62.6909 52.1408C62.8808 51.9509 62.9801 51.7156 62.9801 51.448H62.7301ZM62.5141 51.964L62.3373 51.7872C62.2502 51.8743 62.1467 51.918 62.0101 51.918V52.168V52.418C62.2734 52.418 62.5059 52.3257 62.6909 52.1408L62.5141 51.964ZM62.0101 52.168V51.918C61.8732 51.918 61.7628 51.8739 61.6657 51.7822L61.4941 51.964L61.3224 52.1458C61.5133 52.3261 61.7469 52.418 62.0101 52.418V52.168ZM61.4941 51.964L61.6758 51.7923C61.5841 51.6953 61.5401 51.5849 61.5401 51.448H61.2901H61.0401C61.0401 51.7111 61.132 51.9447 61.3123 52.1357L61.4941 51.964ZM61.2901 51.448H61.5401V43.012H61.2901H61.0401V51.448H61.2901ZM61.2901 43.012H61.5401C61.5401 42.8425 61.5895 42.7302 61.6709 42.6488L61.4941 42.472L61.3173 42.2952C61.1267 42.4858 61.0401 42.7335 61.0401 43.012H61.2901ZM61.4941 42.472L61.6709 42.6488C61.7591 42.5605 61.8763 42.5055 62.0405 42.4933L62.0221 42.244L62.0036 41.9947C61.7359 42.0145 61.501 42.1115 61.3173 42.2952L61.4941 42.472ZM62.0221 42.244L62.0294 42.4939C62.2978 42.486 62.6749 42.482 63.1621 42.482V42.232V41.982C62.6732 41.982 62.2904 41.986 62.0147 41.9941L62.0221 42.244ZM63.1621 42.232L63.1662 42.482C63.6534 42.474 64.056 42.47 64.3741 42.47V42.22V41.97C64.0522 41.97 63.6467 41.974 63.158 41.982L63.1621 42.232ZM64.3741 42.22V42.47C64.9439 42.47 65.4388 42.5725 65.8646 42.7706L65.9701 42.544L66.0756 42.3174C65.5733 42.0835 65.0043 41.97 64.3741 41.97V42.22ZM65.9701 42.544L65.866 42.7713C66.2999 42.9699 66.6253 43.2445 66.8528 43.5927L67.0621 43.456L67.2714 43.3193C66.9868 42.8835 66.5842 42.5501 66.0741 42.3167L65.9701 42.544ZM67.0621 43.456L66.8547 43.5956C67.089 43.9436 67.2081 44.3423 67.2081 44.8H67.4581H67.7081C67.7081 44.2497 67.5631 43.7524 67.2694 43.3163L67.0621 43.456ZM67.4581 44.8H67.2081C67.2081 45.269 67.0915 45.6405 66.8739 45.9312C66.6555 46.223 66.3191 46.4549 65.8425 46.615L65.9221 46.852L66.0017 47.089C66.549 46.9051 66.9807 46.623 67.2742 46.2308C67.5686 45.8375 67.7081 45.355 67.7081 44.8H67.4581ZM65.9221 46.852L65.8246 47.0822C66.1301 47.2116 66.3528 47.3846 66.5056 47.5957C66.6584 47.8065 66.7518 48.0695 66.7768 48.3952L67.0261 48.376L67.2753 48.3568C67.2444 47.9545 67.1258 47.5995 66.9105 47.3023C66.6954 47.0054 66.394 46.7804 66.0196 46.6218L65.9221 46.852ZM67.0261 48.376L66.777 48.3977L66.825 48.9497L67.0741 48.928L67.3231 48.9063L67.2751 48.3543L67.0261 48.376ZM67.0741 48.928L66.8246 48.9436C66.8408 49.2027 66.869 49.5611 66.909 50.0178L67.1581 49.996L67.4071 49.9742C67.3672 49.5189 67.3394 49.1653 67.3236 48.9124L67.0741 48.928ZM67.1581 49.996L66.9093 50.0209C66.9345 50.2727 66.9776 50.4915 67.0435 50.6704C67.1087 50.8475 67.2039 51.0061 67.347 51.1102L67.4941 50.908L67.6411 50.7058C67.6082 50.6819 67.5594 50.6245 67.5127 50.4976C67.4666 50.3725 67.4297 50.1993 67.4068 49.9711L67.1581 49.996ZM62.7301 46.024V46.274H64.3621V46.024V45.774H62.7301V46.024ZM64.3621 46.024V46.274C64.9539 46.274 65.4373 46.1815 65.765 45.9531L65.6221 45.748L65.4791 45.5429C65.2789 45.6825 64.9223 45.774 64.3621 45.774V46.024ZM65.6221 45.748L65.765 45.9531C66.1203 45.7055 66.2681 45.2951 66.2681 44.8H66.0181H65.7681C65.7681 45.2009 65.6519 45.4225 65.4791 45.5429L65.6221 45.748ZM66.0181 44.8H66.2681C66.2681 44.3607 66.0861 44.0028 65.7287 43.7547L65.5861 43.96L65.4435 44.1653C65.6621 44.3172 65.7681 44.5193 65.7681 44.8H66.0181ZM65.5861 43.96L65.7287 43.7547C65.3831 43.5146 64.9217 43.41 64.3741 43.41V43.66V43.91C64.8664 43.91 65.2131 44.0054 65.4435 44.1653L65.5861 43.96ZM64.3741 43.66V43.41H62.7301V43.66V43.91H64.3741V43.66ZM62.7301 43.66H62.4801V46.024H62.7301H62.9801V43.66H62.7301ZM80.7266 51.436H80.9766V51.4169L80.9737 51.398L80.7266 51.436ZM80.4866 51.988L80.3098 51.8112L80.3054 51.8158L80.4866 51.988ZM79.4546 52.06L79.6029 51.8587L79.601 51.8573L79.4546 52.06ZM79.1906 51.676L79.4353 51.6245L79.4341 51.6194L79.1906 51.676ZM78.4226 48.4L78.1792 48.457L78.1793 48.4573L78.4226 48.4ZM77.6786 45.268L77.432 45.3091L77.4335 45.3183L77.4357 45.3273L77.6786 45.268ZM77.6306 44.98L77.8772 44.9389L77.3934 44.9009L77.6306 44.98ZM77.5826 45.172L77.3351 45.1366L77.3326 45.1542V45.172H77.5826ZM77.5706 45.268L77.347 45.1562L77.3383 45.1736L77.3324 45.1922L77.5706 45.268ZM75.6266 51.376L75.8638 51.4551L75.8648 51.4518L75.6266 51.376ZM75.3386 51.784L75.4886 51.984L75.4905 51.9826L75.3386 51.784ZM74.4026 51.772L74.2562 51.9747L74.2614 51.9783L74.4026 51.772ZM74.1026 51.388L73.8655 51.4676L73.868 51.4744L74.1026 51.388ZM72.0506 45.28L71.8043 45.3228L71.8076 45.3416L71.8136 45.3596L72.0506 45.28ZM72.0026 45.004L72.2489 44.9612L71.7617 44.9371L72.0026 45.004ZM71.9426 45.28L72.1873 45.3314L72.1926 45.306V45.28H71.9426ZM71.2826 48.496L71.5276 48.5459L71.5276 48.5456L71.2826 48.496ZM70.6706 51.568L70.9153 51.6195L70.9162 51.6149L70.6706 51.568ZM70.3946 51.964L70.541 52.1667L70.5429 52.1653L70.3946 51.964ZM69.3986 51.904L69.2168 52.0757L69.2218 52.0808L69.3986 51.904ZM69.2186 51.232L68.9755 51.1729L68.9735 51.183L69.2186 51.232ZM71.1866 42.82L71.4301 42.8768L71.4304 42.8754L71.1866 42.82ZM71.4506 42.4L71.3042 42.1973L71.2987 42.2014L71.4506 42.4ZM72.3746 42.4L72.217 42.594L72.2235 42.5994L72.2304 42.6042L72.3746 42.4ZM72.6626 42.796L72.9005 42.7189L72.8998 42.7169L72.6626 42.796ZM74.7386 49.204H74.9886V49.1645L74.9764 49.1269L74.7386 49.204ZM74.8106 49.552L74.567 49.6082H75.0542L74.8106 49.552ZM74.8826 49.204L74.6441 49.1291L74.6326 49.1656V49.204H74.8826ZM76.9226 42.712L76.6865 42.6294L76.6841 42.6371L76.9226 42.712ZM78.2306 42.316L78.0944 42.5256V42.5256L78.2306 42.316ZM78.5186 42.712L78.2735 42.761L78.275 42.7687L78.277 42.7762L78.5186 42.712ZM79.2986 45.772L79.0561 45.8326L79.0564 45.8339L79.2986 45.772ZM80.3786 49.984L80.6212 49.9234L80.6207 49.9217L80.3786 49.984ZM80.7026 51.28L80.9497 51.242L80.9479 51.2306L80.9451 51.2194L80.7026 51.28ZM80.7266 51.436H80.4766C80.4766 51.5715 80.4275 51.6936 80.3098 51.8112L80.4866 51.988L80.6634 52.1648C80.8657 51.9624 80.9766 51.7165 80.9766 51.436H80.7266ZM80.4866 51.988L80.3054 51.8158C80.1994 51.9273 80.0804 51.978 79.9346 51.978V52.228V52.478C80.2208 52.478 80.4698 52.3687 80.6679 52.1602L80.4866 51.988ZM79.9346 52.228V51.978C79.8265 51.978 79.7175 51.9432 79.6029 51.8587L79.4546 52.06L79.3063 52.2613C79.4957 52.4008 79.7067 52.478 79.9346 52.478V52.228ZM79.4546 52.06L79.601 51.8573C79.4996 51.7841 79.4526 51.7069 79.4352 51.6245L79.1906 51.676L78.946 51.7275C78.9926 51.9491 79.1216 52.1279 79.3082 52.2627L79.4546 52.06ZM79.1906 51.676L79.4341 51.6194C79.25 50.827 78.994 49.7348 78.6659 48.3427L78.4226 48.4L78.1793 48.4573C78.5072 49.8492 78.7632 50.9409 78.9471 51.7326L79.1906 51.676ZM78.4226 48.4L78.666 48.343C78.338 46.9428 78.0898 45.8979 77.9215 45.2087L77.6786 45.268L77.4357 45.3273C77.6035 46.0141 77.8512 47.0572 78.1792 48.457L78.4226 48.4ZM77.6786 45.268L77.9252 45.2269L77.8772 44.9389L77.6306 44.98L77.384 45.0211L77.432 45.3091L77.6786 45.268ZM77.6306 44.98L77.3934 44.9009C77.3662 44.9827 77.3458 45.0618 77.3351 45.1366L77.5826 45.172L77.8301 45.2074C77.8354 45.1702 77.847 45.1213 77.8678 45.0591L77.6306 44.98ZM77.5826 45.172H77.3326C77.3326 45.1806 77.3324 45.1874 77.3322 45.1925C77.3319 45.1977 77.3316 45.2004 77.3315 45.201C77.3314 45.2018 77.3318 45.1985 77.3333 45.1924C77.3341 45.1891 77.3354 45.1844 77.3375 45.1787C77.3395 45.1729 77.3425 45.1652 77.347 45.1562L77.5706 45.268L77.7942 45.3798C77.8172 45.3338 77.8245 45.2883 77.8277 45.263C77.8314 45.2331 77.8326 45.2019 77.8326 45.172H77.5826ZM77.5706 45.268L77.3324 45.1922L75.3884 51.3002L75.6266 51.376L75.8648 51.4518L77.8088 45.3438L77.5706 45.268ZM75.6266 51.376L75.3894 51.2969C75.3487 51.4192 75.2816 51.5129 75.1867 51.5854L75.3386 51.784L75.4905 51.9826C75.6677 51.8471 75.7925 51.6688 75.8638 51.4551L75.6266 51.376ZM75.3386 51.784L75.1886 51.584C75.1061 51.6459 75.0114 51.678 74.8946 51.678V51.928V52.178C75.1138 52.178 75.3151 52.1141 75.4886 51.984L75.3386 51.784ZM74.8946 51.928V51.678C74.7714 51.678 74.6562 51.6426 74.5438 51.5657L74.4026 51.772L74.2614 51.9783C74.453 52.1094 74.6658 52.178 74.8946 52.178V51.928ZM74.4026 51.772L74.549 51.5693C74.4412 51.4915 74.3744 51.4024 74.3372 51.3016L74.1026 51.388L73.868 51.4744C73.9429 51.6776 74.076 51.8445 74.2562 51.9747L74.4026 51.772ZM74.1026 51.388L74.3396 51.3084L72.2876 45.2004L72.0506 45.28L71.8136 45.3596L73.8656 51.4676L74.1026 51.388ZM72.0506 45.28L72.2969 45.2372L72.2489 44.9612L72.0026 45.004L71.7563 45.0468L71.8043 45.3228L72.0506 45.28ZM72.0026 45.004L71.7617 44.9371C71.7411 45.0113 71.7247 45.0754 71.7133 45.1279C71.7032 45.1743 71.6926 45.2305 71.6926 45.28H71.9426H72.1926C72.1926 45.2881 72.1919 45.2888 72.1935 45.2777C72.195 45.2681 72.1976 45.2538 72.2019 45.2341C72.2105 45.1946 72.2241 45.1407 72.2435 45.0709L72.0026 45.004ZM71.9426 45.28L71.6979 45.2286C71.5298 46.0295 71.3096 47.1022 71.0376 48.4464L71.2826 48.496L71.5276 48.5456C71.7996 47.2018 72.0195 46.1305 72.1873 45.3314L71.9426 45.28ZM71.2826 48.496L71.0376 48.4461C70.7656 49.7824 70.5613 50.8076 70.425 51.5211L70.6706 51.568L70.9162 51.6149C71.0519 50.9044 71.2556 49.8816 71.5276 48.5459L71.2826 48.496ZM70.6706 51.568L70.426 51.5165C70.4092 51.5961 70.3601 51.6789 70.2463 51.7627L70.3946 51.964L70.5429 52.1653C70.7332 52.0251 70.868 51.8439 70.9152 51.6195L70.6706 51.568ZM70.3946 51.964L70.2482 51.7613C70.1464 51.8349 70.0375 51.87 69.9146 51.87V52.12V52.37C70.1437 52.37 70.3548 52.3011 70.541 52.1667L70.3946 51.964ZM69.9146 52.12V51.87C69.7823 51.87 69.6735 51.8253 69.5754 51.7272L69.3986 51.904L69.2218 52.0808C69.4118 52.2707 69.647 52.37 69.9146 52.37V52.12ZM69.3986 51.904L69.5804 51.7323C69.4867 51.6331 69.4446 51.526 69.4446 51.4H69.1946H68.9446C68.9446 51.658 69.0386 51.8869 69.2169 52.0757L69.3986 51.904ZM69.1946 51.4H69.4446C69.4446 51.4015 69.4447 51.3931 69.4481 51.3694C69.4512 51.3474 69.4563 51.3183 69.4638 51.281L69.2186 51.232L68.9735 51.183C68.9577 51.2618 68.9446 51.3402 68.9446 51.4H69.1946ZM69.2186 51.232L69.4615 51.2911C69.5339 50.9936 70.1903 48.1876 71.4301 42.8768L71.1866 42.82L70.9432 42.7632C69.7029 48.0764 69.0473 50.8784 68.9757 51.1729L69.2186 51.232ZM71.1866 42.82L71.4304 42.8754C71.4582 42.7531 71.5156 42.665 71.6025 42.5986L71.4506 42.4L71.2987 42.2014C71.1137 42.343 70.995 42.5349 70.9428 42.7646L71.1866 42.82ZM71.4506 42.4L71.597 42.6027C71.6988 42.5291 71.8077 42.494 71.9306 42.494V42.244V41.994C71.7015 41.994 71.4904 42.0629 71.3042 42.1973L71.4506 42.4ZM71.9306 42.244V42.494C72.0424 42.494 72.1344 42.527 72.217 42.594L72.3746 42.4L72.5323 42.206C72.3588 42.065 72.1549 41.994 71.9306 41.994V42.244ZM72.3746 42.4L72.2304 42.6042C72.32 42.6675 72.3852 42.7542 72.4254 42.8751L72.6626 42.796L72.8998 42.7169C72.8281 42.5018 72.7012 42.3245 72.5188 42.1958L72.3746 42.4ZM72.6626 42.796L72.4248 42.8731L74.5008 49.2811L74.7386 49.204L74.9764 49.1269L72.9004 42.7189L72.6626 42.796ZM74.7386 49.204H74.4886C74.4886 49.2347 74.4943 49.2673 74.4967 49.2815C74.5004 49.303 74.5055 49.3294 74.5118 49.3596C74.5244 49.4204 74.5429 49.5036 74.567 49.6082L74.8106 49.552L75.0542 49.4958C75.0304 49.3924 75.0128 49.3136 75.0014 49.2584C74.9957 49.2306 74.9918 49.2105 74.9895 49.197C74.9859 49.1762 74.9886 49.1852 74.9886 49.204H74.7386ZM74.8106 49.552L75.0542 49.6082C75.0784 49.5036 75.0968 49.4204 75.1094 49.3596C75.1157 49.3294 75.1208 49.303 75.1245 49.2815C75.1269 49.2673 75.1326 49.2347 75.1326 49.204H74.8826H74.6326C74.6326 49.1852 74.6353 49.1762 74.6317 49.197C74.6294 49.2105 74.6255 49.2306 74.6198 49.2583C74.6084 49.3136 74.5909 49.3924 74.567 49.4958L74.8106 49.552ZM74.8826 49.204L75.1211 49.2789L77.1611 42.7869L76.9226 42.712L76.6841 42.6371L74.6441 49.1291L74.8826 49.204ZM76.9226 42.712L77.1586 42.7946C77.1969 42.6852 77.2643 42.5943 77.369 42.5187L77.2226 42.316L77.0762 42.1133C76.8929 42.2457 76.7604 42.4188 76.6866 42.6294L76.9226 42.712ZM77.2226 42.316L77.369 42.5187C77.4708 42.4451 77.5797 42.41 77.7026 42.41V42.16V41.91C77.4735 41.91 77.2624 41.9789 77.0762 42.1133L77.2226 42.316ZM77.7026 42.16V42.41C77.8466 42.41 77.9752 42.4481 78.0944 42.5256L78.2306 42.316L78.3669 42.1064C78.166 41.9759 77.9427 41.91 77.7026 41.91V42.16ZM78.2306 42.316L78.0944 42.5256C78.2083 42.5997 78.2569 42.6782 78.2735 42.761L78.5186 42.712L78.7638 42.663C78.7163 42.4258 78.5729 42.2403 78.3669 42.1064L78.2306 42.316ZM78.5186 42.712L78.277 42.7762C78.4445 43.4063 78.7041 44.4248 79.0561 45.8326L79.2986 45.772L79.5411 45.7114C79.1891 44.3032 78.9287 43.2817 78.7602 42.6478L78.5186 42.712ZM79.2986 45.772L79.0564 45.8339C79.4164 47.242 79.7765 48.6461 80.1365 50.0463L80.3786 49.984L80.6207 49.9217C80.2608 48.5219 79.9008 47.118 79.5408 45.7101L79.2986 45.772ZM80.3786 49.984L80.1361 50.0446L80.4601 51.3406L80.7026 51.28L80.9451 51.2194L80.6211 49.9234L80.3786 49.984ZM80.7026 51.28L80.4555 51.318L80.4795 51.474L80.7266 51.436L80.9737 51.398L80.9497 51.242L80.7026 51.28ZM83.5113 51.772L83.3896 51.9904L83.392 51.9917L83.5113 51.772ZM82.1913 50.524L81.9741 50.6481L81.9783 50.655L82.1913 50.524ZM82.2753 49.54L82.0883 49.3738L82.0832 49.38L82.2753 49.54ZM83.2353 49.432L83.3578 49.2141V49.2141L83.2353 49.432ZM83.5713 49.78L83.7862 49.6524L83.7856 49.6514L83.5713 49.78ZM84.2793 50.416L84.163 50.6374L84.1697 50.6407L84.2793 50.416ZM86.5833 48.52L86.4065 48.6968L86.409 48.6992L86.5833 48.52ZM85.2393 47.668L85.3451 47.4415L85.344 47.441L85.2393 47.668ZM83.5353 46.756L83.3919 46.9609L83.3966 46.964L83.5353 46.756ZM82.6713 45.868L82.4522 45.9885L82.4535 45.9908L82.6713 45.868ZM82.8033 43.42L83.0093 43.5616L83.0106 43.5597L82.8033 43.42ZM83.8953 42.508L84.0008 42.7347L84.004 42.7331L83.8953 42.508ZM87.2193 42.604L87.1009 42.8242L87.1035 42.8256L87.2193 42.604ZM88.4433 43.756L88.2263 43.8805L88.2313 43.8885L88.4433 43.756ZM88.3713 44.656L88.1843 44.4898L88.1792 44.496L88.3713 44.656ZM87.4953 44.764L87.3737 44.9827L87.3835 44.9876L87.4953 44.764ZM87.1593 44.476L87.3627 44.3307L87.3623 44.3301L87.1593 44.476ZM86.4633 43.912L86.3624 44.1407L86.3648 44.1418L86.4633 43.912ZM84.3393 43.996L84.4735 44.2069L84.4751 44.2059L84.3393 43.996ZM84.0873 45.244L83.883 45.3882L83.8879 45.3951L83.8932 45.4016L84.0873 45.244ZM84.6033 45.64L84.48 45.8575L84.4831 45.8592L84.6033 45.64ZM85.8153 46.228L85.9211 46.0015L85.9192 46.0006L85.8153 46.228ZM87.9153 47.656L87.7252 47.8185L87.7267 47.8202L87.9153 47.656ZM88.1553 50.92L88.3645 51.0568L88.3657 51.055L88.1553 50.92ZM87.0033 51.892L87.1062 52.1199L87.1092 52.1185L87.0033 51.892ZM85.2873 52.228V51.978C84.7058 51.978 84.1547 51.8368 83.6305 51.5523L83.5113 51.772L83.392 51.9917C83.9878 52.3152 84.6207 52.478 85.2873 52.478V52.228ZM83.5113 51.772L83.6329 51.5536C83.1084 51.2614 82.7006 50.8747 82.4042 50.393L82.1913 50.524L81.9783 50.655C82.3219 51.2133 82.7941 51.6586 83.3896 51.9904L83.5113 51.772ZM82.1913 50.524L82.4083 50.4C82.3695 50.332 82.3453 50.2443 82.3453 50.128H82.0953H81.8453C81.8453 50.3157 81.8851 50.492 81.9742 50.648L82.1913 50.524ZM82.0953 50.128H82.3453C82.3453 49.9194 82.3954 49.7864 82.4673 49.7L82.2753 49.54L82.0832 49.38C81.9152 49.5816 81.8453 49.8406 81.8453 50.128H82.0953ZM82.2753 49.54L82.4621 49.7061C82.5386 49.6201 82.6363 49.574 82.7793 49.574V49.324V49.074C82.5063 49.074 82.2679 49.1719 82.0884 49.3739L82.2753 49.54ZM82.7793 49.324V49.574C82.9208 49.574 83.0289 49.6028 83.1127 49.6499L83.2353 49.432L83.3578 49.2141C83.1856 49.1172 82.9897 49.074 82.7793 49.074V49.324ZM83.2353 49.432L83.1127 49.6499C83.1939 49.6956 83.2773 49.776 83.3569 49.9086L83.5713 49.78L83.7856 49.6514C83.6732 49.464 83.5326 49.3124 83.3578 49.2141L83.2353 49.432ZM83.5713 49.78L83.3563 49.9076C83.5365 50.2112 83.8109 50.4525 84.1631 50.6373L84.2793 50.416L84.3955 50.1946C84.1076 50.0435 83.91 49.8608 83.7862 49.6524L83.5713 49.78ZM84.2793 50.416L84.1697 50.6407C84.5297 50.8163 84.903 50.906 85.2873 50.906V50.656V50.406C84.9836 50.406 84.6849 50.3357 84.3889 50.1913L84.2793 50.416ZM85.2873 50.656V50.906C85.8845 50.906 86.3769 50.8037 86.7259 50.5613C87.0914 50.3075 87.2653 49.9246 87.2653 49.456H87.0153H86.7653C86.7653 49.7874 86.6511 50.0045 86.4407 50.1507C86.2137 50.3083 85.842 50.406 85.2873 50.406V50.656ZM87.0153 49.456H87.2653C87.2653 49.0331 87.0852 48.6593 86.7575 48.3408L86.5833 48.52L86.409 48.6992C86.6574 48.9407 86.7653 49.1909 86.7653 49.456H87.0153ZM86.5833 48.52L86.76 48.3432C86.4499 48.033 85.9714 47.7343 85.3451 47.4415L85.2393 47.668L85.1334 47.8945C85.7391 48.1777 86.1567 48.447 86.4065 48.6968L86.5833 48.52ZM85.2393 47.668L85.344 47.441C84.6214 47.1075 84.0666 46.8097 83.6739 46.548L83.5353 46.756L83.3966 46.964C83.82 47.2463 84.4011 47.5565 85.1345 47.895L85.2393 47.668ZM83.5353 46.756L83.6786 46.5512C83.2987 46.2853 83.0413 46.015 82.889 45.7452L82.6713 45.868L82.4535 45.9908C82.6533 46.345 82.9718 46.6667 83.3919 46.9608L83.5353 46.756ZM82.6713 45.868L82.8903 45.7475C82.738 45.4706 82.6573 45.1376 82.6573 44.74H82.4073H82.1573C82.1573 45.2064 82.2525 45.6254 82.4522 45.9885L82.6713 45.868ZM82.4073 44.74H82.6573C82.6573 44.2911 82.7758 43.9012 83.0093 43.5616L82.8033 43.42L82.5973 43.2784C82.3027 43.7068 82.1573 44.1969 82.1573 44.74H82.4073ZM82.8033 43.42L83.0106 43.5597C83.2471 43.2085 83.5745 42.9331 84.0008 42.7346L83.8953 42.508L83.7898 42.2814C83.2881 42.5149 82.8874 42.8475 82.5959 43.2803L82.8033 43.42ZM83.8953 42.508L84.004 42.7331C84.4302 42.5273 84.9124 42.422 85.4553 42.422V42.172V41.922C84.8461 41.922 84.2883 42.0407 83.7866 42.2829L83.8953 42.508ZM85.4553 42.172V42.422C86.0562 42.422 86.6032 42.5568 87.1009 42.8242L87.2193 42.604L87.3376 42.3838C86.7633 42.0752 86.1344 41.922 85.4553 41.922V42.172ZM87.2193 42.604L87.1035 42.8256C87.6005 43.0852 87.9719 43.4369 88.2264 43.8804L88.4433 43.756L88.6601 43.6316C88.3546 43.0991 87.91 42.6828 87.335 42.3824L87.2193 42.604ZM88.4433 43.756L88.2313 43.8885C88.2893 43.9813 88.3133 44.0679 88.3133 44.152H88.5633H88.8133C88.8133 43.9641 88.7573 43.7867 88.6553 43.6235L88.4433 43.756ZM88.5633 44.152H88.3133C88.3133 44.2825 88.2719 44.3915 88.1844 44.4899L88.3713 44.656L88.5581 44.8221C88.7266 44.6325 88.8133 44.4055 88.8133 44.152H88.5633ZM88.3713 44.656L88.1792 44.496C88.1057 44.5842 88.0235 44.622 87.9153 44.622V44.872V45.122C88.1751 45.122 88.3969 45.0158 88.5633 44.816L88.3713 44.656ZM87.9153 44.872V44.622C87.8246 44.622 87.7227 44.5982 87.6071 44.5404L87.4953 44.764L87.3835 44.9876C87.5558 45.0738 87.7339 45.122 87.9153 45.122V44.872ZM87.4953 44.764L87.6167 44.5455C87.4988 44.48 87.4173 44.4071 87.3627 44.3307L87.1593 44.476L86.9558 44.6213C87.0612 44.7689 87.2037 44.888 87.3739 44.9825L87.4953 44.764ZM87.1593 44.476L87.3623 44.3301C87.1527 44.0385 86.8851 43.8208 86.5617 43.6822L86.4633 43.912L86.3648 44.1418C86.6015 44.2432 86.7979 44.4015 86.9563 44.6219L87.1593 44.476ZM86.4633 43.912L86.5642 43.6833C86.2514 43.5453 85.8787 43.482 85.4553 43.482V43.732V43.982C85.8319 43.982 86.1311 44.0387 86.3624 44.1407L86.4633 43.912ZM85.4553 43.732V43.482C84.9559 43.482 84.5304 43.5745 84.2035 43.7861L84.3393 43.996L84.4751 44.2059C84.6921 44.0655 85.0106 43.982 85.4553 43.982V43.732ZM84.3393 43.996L84.205 43.7851C83.8648 44.0016 83.6933 44.3315 83.6933 44.74H83.9433H84.1933C84.1933 44.4925 84.2857 44.3264 84.4735 44.2069L84.3393 43.996ZM83.9433 44.74H83.6933C83.6933 44.981 83.7517 45.2021 83.883 45.3882L84.0873 45.244L84.2915 45.0998C84.2309 45.0139 84.1933 44.899 84.1933 44.74H83.9433ZM84.0873 45.244L83.8932 45.4016C84.0258 45.5648 84.2287 45.7151 84.48 45.8575L84.6033 45.64L84.7265 45.4225C84.4979 45.2929 84.3568 45.1792 84.2813 45.0863L84.0873 45.244ZM84.6033 45.64L84.4831 45.8592C84.7396 45.9999 85.1507 46.1991 85.7113 46.4554L85.8153 46.228L85.9192 46.0006C85.3599 45.7449 84.9629 45.5521 84.7235 45.4208L84.6033 45.64ZM85.8153 46.228L85.7094 46.4545C86.6715 46.904 87.3347 47.3616 87.7252 47.8184L87.9153 47.656L88.1053 47.4936C87.6478 46.9584 86.911 46.464 85.9211 46.0015L85.8153 46.228ZM87.9153 47.656L87.7267 47.8202C88.1162 48.2673 88.3133 48.8078 88.3133 49.456H88.5633H88.8133C88.8133 48.6962 88.5784 48.0367 88.1038 47.4918L87.9153 47.656ZM88.5633 49.456H88.3133C88.3133 49.9649 88.1885 50.4051 87.9448 50.785L88.1553 50.92L88.3657 51.055C88.666 50.5869 88.8133 50.0511 88.8133 49.456H88.5633ZM88.1553 50.92L87.946 50.7832C87.702 51.1564 87.3557 51.4512 86.8973 51.6655L87.0033 51.892L87.1092 52.1185C87.6429 51.8688 88.0645 51.5156 88.3645 51.0568L88.1553 50.92ZM87.0033 51.892L86.9004 51.6642C86.4423 51.871 85.9064 51.978 85.2873 51.978V52.228V52.478C85.9641 52.478 86.5723 52.361 87.1062 52.1198L87.0033 51.892Z" fill="#DDFFE4" mask="url(#path-5-outside-1_5175_2337)"/>
<defs>
<filter id="filter0_i_5175_2337" x="0" y="19" width="101" height="61" filterUnits="userSpaceOnUse" color-interpolation-filters="sRGB">
<feFlood flood-opacity="0" result="BackgroundImageFix"/>
<feBlend mode="normal" in="SourceGraphic" in2="BackgroundImageFix" result="shape"/>
<feColorMatrix in="SourceAlpha" type="matrix" values="0 0 0 0 0 0 0 0 0 0 0 0 0 0 0 0 0 0 127 0" result="hardAlpha"/>
<feOffset dy="4"/>
<feGaussianBlur stdDeviation="10"/>
<feComposite in2="hardAlpha" operator="arithmetic" k2="-1" k3="1"/>
<feColorMatrix type="matrix" values="0 0 0 0 0 0 0 0 0 1 0 0 0 0 0.0833333 0 0 0 0.75 0"/>
<feBlend mode="normal" in2="shape" result="effect1_innerShadow_5175_2337"/>
</filter>
</defs>
</svg>
