<?xml version="1.0" encoding="UTF-8" standalone="no"?>
<!-- Created with Inkscape (http://www.inkscape.org/) -->

<svg
   version="1.1"
   id="svg1"
   width="567.46667"
   height="191.50667"
   viewBox="0 0 567.46667 191.50667"
   sodipodi:docname="CF_logo_stacked_blktype - Sabrina Farmin.eps"
   xmlns:inkscape="http://www.inkscape.org/namespaces/inkscape"
   xmlns:sodipodi="http://sodipodi.sourceforge.net/DTD/sodipodi-0.dtd"
   xmlns="http://www.w3.org/2000/svg"
   xmlns:svg="http://www.w3.org/2000/svg">
  <defs
     id="defs1" />
  <sodipodi:namedview
     id="namedview1"
     pagecolor="#ffffff"
     bordercolor="#000000"
     borderopacity="0.25"
     inkscape:showpageshadow="2"
     inkscape:pageopacity="0.0"
     inkscape:pagecheckerboard="0"
     inkscape:deskcolor="#d1d1d1">
    <inkscape:page
       x="0"
       y="0"
       inkscape:label="1"
       id="page1"
       width="567.46667"
       height="191.50667"
       margin="0"
       bleed="0" />
  </sodipodi:namedview>
  <g
     id="g1"
     inkscape:groupmode="layer"
     inkscape:label="1">
    <g
       id="group-R5">
      <path
         id="path2"
         d="m 3608.01,529.457 10.4,35.973 c 12.39,42.808 7.78,82.379 -13.02,111.453 -19.13,26.785 -51.01,42.547 -89.74,44.379 l -733.47,9.351 c -4.94,0.262 -9.02,2.485 -11.54,6.149 -2.55,3.761 -3.14,8.601 -1.57,13.246 2.42,7.226 9.58,12.687 17.04,13.015 l 740.27,9.383 c 87.81,4.024 182.88,75.285 216.17,162.18 l 42.22,110.304 c 1.16,3 1.69,6.19 1.66,9.38 -0.01,1.74 -0.13,3.49 -0.52,5.21 -47.97,215.61 -240.37,376.84 -470.43,376.84 -211.99,0 -391.99,-136.83 -456.54,-327 -41.67,31.26 -94.97,47.88 -152.27,42.15 -101.71,-10.1 -183.43,-91.99 -193.54,-193.7 -2.65,-26.391 -0.49,-51.868 5.59,-75.805 -166.13,-4.84 -299.36,-140.953 -299.36,-308.262 0,-15.14 1.14,-30.023 3.27,-44.574 1.04,-7.066 7,-12.363 14.12,-12.363 l 1354.12,-0.164 c 0.14,0 0.25,0.062 0.39,0.066 7.75,0.172 14.56,5.297 16.75,12.789"
         style="fill:#f47116;fill-opacity:1;fill-rule:nonzero;stroke:none"
         transform="matrix(0.13333333,0,0,-0.13333333,0,191.50667)" />
      <path
         id="path3"
         d="m 3852.36,1036.82 c -6.81,0 -13.58,-0.2 -20.31,-0.53 -1.12,-0.06 -2.17,-0.33 -3.18,-0.68 -3.52,-1.23 -6.32,-4.08 -7.39,-7.79 l -28.84,-99.613 c -12.4,-42.809 -7.78,-82.348 13.01,-111.422 19.14,-26.816 51.02,-42.547 89.74,-44.379 l 156.36,-9.383 c 4.61,-0.23 8.66,-2.453 11.15,-6.05 2.62,-3.793 3.2,-8.668 1.63,-13.313 -2.45,-7.226 -9.58,-12.687 -17,-13.015 l -162.47,-9.383 c -88.2,-4.055 -183.27,-75.285 -216.56,-162.176 l -11.74,-30.68 c -2.14,-5.547 1.84,-11.461 7.71,-11.75 0.14,-0.008 0.28,-0.054 0.43,-0.054 h 559.03 c 6.67,0 12.62,4.351 14.42,10.761 9.72,34.532 14.88,70.934 14.88,108.575 0,221.402 -179.47,400.882 -400.87,400.882"
         style="fill:#f8a420;fill-opacity:1;fill-rule:nonzero;stroke:none"
         transform="matrix(0.13333333,0,0,-0.13333333,0,191.50667)" />
      <path
         id="path4"
         d="m 473.391,350.988 h 95.371 V 90.4492 H 735.418 V 6.89844 H 473.391 V 350.988"
         style="fill:#231f20;fill-opacity:1;fill-rule:nonzero;stroke:none"
         transform="matrix(0.13333333,0,0,-0.13333333,0,191.50667)" />
      <path
         id="path5"
         d="m 1107.5,177.961 v 0.98 c 0,49.649 -35.88,92.911 -88.47,92.911 -52.112,0 -87.014,-42.282 -87.014,-91.942 v -0.969 c 0,-49.66 35.879,-92.9215 87.994,-92.9215 52.59,0 87.49,42.2815 87.49,91.9415 m -273.312,0 v 0.98 c 0,98.797 79.636,178.95 185.822,178.95 106.18,0 184.81,-79.172 184.81,-177.981 v -0.969 C 1204.82,80.1289 1125.18,0.0195313 1019.03,0.0195313 912.848,0.0195313 834.188,79.1484 834.188,177.961"
         style="fill:#231f20;fill-opacity:1;fill-rule:nonzero;stroke:none"
         transform="matrix(0.13333333,0,0,-0.13333333,0,191.50667)" />
      <path
         id="path6"
         d="m 1321.55,157.809 v 193.203 h 96.85 v -191.25 c 0,-49.653 25.07,-73.2425 63.4,-73.2425 38.34,0 63.4,22.6095 63.4,70.7815 v 193.711 h 96.86 V 160.27 c 0,-111.1098 -63.4,-159.750469 -161.23,-159.750469 -97.83,0 -159.28,49.621069 -159.28,157.289469"
         style="fill:#231f20;fill-opacity:1;fill-rule:nonzero;stroke:none"
         transform="matrix(0.13333333,0,0,-0.13333333,0,191.50667)" />
      <path
         id="path7"
         d="m 1922.22,91.4492 c 57.03,0 94.86,31.4608 94.86,87.0118 v 0.98 c 0,55.039 -37.83,87.008 -94.86,87.008 h -38.85 V 91.4492 Z M 1788,350.98 h 132.74 c 122.89,0 194.17,-70.781 194.17,-170.058 V 179.91 C 2114.91,80.6289 2042.65,6.89063 1918.78,6.89063 H 1788 V 350.98"
         style="fill:#231f20;fill-opacity:1;fill-rule:nonzero;stroke:none"
         transform="matrix(0.13333333,0,0,-0.13333333,0,191.50667)" />
      <path
         id="path8"
         d="m 2253.51,350.988 h 275.27 V 267.41 h -179.9 V 208.93 H 2511.6 V 129.801 H 2348.88 V 6.89844 h -95.37 V 350.988"
         style="fill:#231f20;fill-opacity:1;fill-rule:nonzero;stroke:none"
         transform="matrix(0.13333333,0,0,-0.13333333,0,191.50667)" />
      <path
         id="path9"
         d="m 2661.48,350.988 h 95.37 V 90.4492 h 166.66 V 6.89844 H 2661.48 V 350.988"
         style="fill:#231f20;fill-opacity:1;fill-rule:nonzero;stroke:none"
         transform="matrix(0.13333333,0,0,-0.13333333,0,191.50667)" />
      <path
         id="path10"
         d="m 3256.26,142.559 -38.34,97.832 -38.84,-97.832 z m -83.55,210.89 h 91.91 L 3411.12,6.89844 h -102.24 l -25.1,61.45316 H 3151.05 L 3126.49,6.89844 h -100.28 l 146.5,346.55056"
         style="fill:#231f20;fill-opacity:1;fill-rule:nonzero;stroke:none"
         transform="matrix(0.13333333,0,0,-0.13333333,0,191.50667)" />
      <path
         id="path11"
         d="m 3692.26,185.832 c 32.44,0 51.14,15.727 51.14,40.797 v 0.973 c 0,27.046 -19.68,40.796 -51.65,40.796 h -62.42 V 185.832 Z M 3533.96,351 h 162.71 c 52.62,0 88.97,-13.781 112.08,-37.359 20.18,-19.672 30.49,-46.219 30.49,-80.141 v -0.98 c 0,-52.59 -28.03,-87.489 -70.78,-105.68 L 3850.56,6.87891 H 3740.43 L 3671.14,111.109 h -41.81 V 6.87891 h -95.37 V 351"
         style="fill:#231f20;fill-opacity:1;fill-rule:nonzero;stroke:none"
         transform="matrix(0.13333333,0,0,-0.13333333,0,191.50667)" />
      <path
         id="path12"
         d="m 3976.84,350.988 h 276.75 v -81.117 h -182.35 v -52.082 h 165.17 V 142.57 H 4071.24 V 87.9883 h 184.81 V 6.89844 H 3976.84 V 350.988"
         style="fill:#231f20;fill-opacity:1;fill-rule:nonzero;stroke:none"
         transform="matrix(0.13333333,0,0,-0.13333333,0,191.50667)" />
      <path
         id="path13"
         d="M 264.586,137.621 C 251.246,107.5 223.117,86.0391 185.789,86.0391 c -52.113,0 -87.9921,43.2619 -87.9921,92.9099 v 0.981 c 0,49.66 34.8981,91.929 87.0161,91.929 39.281,0 69.195,-24.148 81.828,-57.027 H 367.164 C 351.063,296.73 279.105,357.871 185.789,357.871 79.6055,357.871 0,277.762 0,178.949 V 177.98 C 0,79.1719 78.6289,0 184.813,0 275.637,0 346.617,58.8203 365.348,137.621 H 264.586"
         style="fill:#231f20;fill-opacity:1;fill-rule:nonzero;stroke:none"
         transform="matrix(0.13333333,0,0,-0.13333333,0,191.50667)" />
    </g>
  </g>
</svg>
