<svg width="290" height="100" viewBox="0 0 290 100" fill="none" xmlns="http://www.w3.org/2000/svg">
<path fill-rule="evenodd" clip-rule="evenodd" d="M0 99.1176C0 99.605 0.395043 100 0.882353 100H81.4706C81.9579 100 82.3529 99.605 82.3529 99.1176V94.9244C82.3529 94.5149 82.2107 94.1181 81.9506 93.8017L46.3968 50.5604C46.1291 50.2348 46.1291 49.7652 46.3968 49.4396L81.9506 6.19827C82.2107 5.88193 82.3529 5.4851 82.3529 5.07556V0.882353C82.3529 0.395043 81.9579 0 81.4706 0H0.882353C0.395043 0 0 0.395041 0 0.882351V99.1176ZM41.6565 56.3727C41.42 56.085 40.9792 56.0867 40.7449 56.3761L12.1586 91.6887C11.8473 92.0733 12.121 92.6471 12.6158 92.6471H70.2368C70.7337 92.6471 71.0067 92.0691 70.6911 91.6852L41.6565 56.3727ZM8.13702 84.9703C7.87543 85.2935 7.35294 85.1085 7.35294 84.6927V54.2647C7.35294 53.9398 7.6163 53.6765 7.94118 53.6765H32.2371C32.7319 53.6765 33.0056 54.2502 32.6943 54.6348L8.13702 84.9703ZM32.2371 46.3235C32.7319 46.3235 33.0056 45.7498 32.6943 45.3652L8.13702 15.0297C7.87542 14.7065 7.35294 14.8915 7.35294 15.3073V45.7353C7.35294 46.0602 7.6163 46.3235 7.94118 46.3235H32.2371ZM12.1586 8.3113C11.8472 7.9267 12.121 7.35294 12.6158 7.35294H70.2368C70.7337 7.35294 71.0067 7.93094 70.6911 8.31477L41.6565 43.6273C41.42 43.915 40.9792 43.9133 40.7449 43.6239L12.1586 8.3113Z" fill="#1F40ED"/>
<path d="M260.741 13.347C269.403 13.347 276.104 15.6265 280.846 20.1853C285.678 24.6529 288.094 31.3544 288.094 40.2897V66.9588C288.094 73.4653 288.564 79.032 289.504 83.659C289.616 84.2136 289.197 84.7382 288.631 84.7382H279.504C279.09 84.7382 278.73 84.45 278.65 84.0431C278.108 81.2885 277.837 78.1466 277.837 74.6176H277.563C272.549 82.3676 264.525 86.2426 253.493 86.2426C246.381 86.2426 240.682 84.3735 236.397 80.6353C232.112 76.8059 229.969 71.8823 229.969 65.8647C229.969 59.8471 231.929 55.1059 235.85 51.6412C239.862 48.0853 246.7 45.5323 256.365 43.9823C262.927 42.9182 269.445 42.156 275.921 41.6956C276.23 41.6737 276.469 41.4173 276.469 41.108V38.922C276.469 33.3603 275.056 29.2573 272.229 26.6132C269.494 23.9691 265.665 22.6471 260.741 22.6471C255.818 22.6471 251.988 23.9235 249.253 26.4765C246.704 28.7709 245.263 31.8177 244.931 35.617C244.89 36.0876 244.504 36.4603 244.032 36.4603H233.772C233.266 36.4603 232.863 36.035 232.905 35.531C233.448 29.1165 236.025 23.8645 240.637 19.775C245.469 15.4897 252.171 13.347 260.741 13.347ZM276.469 55.0603V51.7744C276.469 51.26 276.03 50.8546 275.518 50.8963C268.899 51.4343 263.153 52.1385 258.279 53.0088C252.444 53.9206 248.296 55.2882 245.834 57.1118C243.463 58.9353 242.278 61.5794 242.278 65.0441C242.278 68.6912 243.509 71.6088 245.971 73.7971C248.524 75.8941 252.034 76.9426 256.501 76.9426C262.61 76.9426 267.397 75.1191 270.862 71.4721C272.959 69.2838 274.418 67.05 275.238 64.7706C276.059 62.4 276.469 59.1632 276.469 55.0603Z" fill="black"/>
<path d="M223.372 15.2618C224.089 15.2618 224.506 16.0701 224.092 16.6545L201.419 48.6324L226.268 83.3423C226.686 83.9262 226.269 84.7382 225.551 84.7382H213.242C212.947 84.7382 212.672 84.5915 212.509 84.347L194.171 56.975H193.897L175.559 84.347C175.396 84.5915 175.121 84.7382 174.826 84.7382H162.654C161.936 84.7382 161.518 83.9262 161.936 83.3423L186.785 48.6324L164.113 16.6545C163.698 16.0702 164.116 15.2618 164.832 15.2618H176.876C177.171 15.2618 177.447 15.4096 177.611 15.6556L193.897 40.1529H194.171L210.594 15.6528C210.758 15.4084 211.033 15.2618 211.327 15.2618H223.372Z" fill="black"/>
<path d="M125.646 77.3529C130.57 77.3529 134.627 76.1221 137.818 73.6603C140.907 71.3439 142.906 68.3414 143.815 64.6526C143.915 64.2457 144.274 63.95 144.693 63.95H155.208C155.764 63.95 156.182 64.4583 156.055 64.9993C154.636 71.0119 151.384 76.0871 146.298 80.225C141.01 84.5103 134.126 86.6529 125.646 86.6529C115.526 86.6529 107.548 83.2794 101.713 76.5323C95.8773 69.6941 92.9596 60.5309 92.9596 49.0426C92.9596 38.5574 95.8317 29.9868 101.576 23.3309C107.411 16.675 115.298 13.3471 125.236 13.3471C132.986 13.3471 139.505 15.4897 144.793 19.775C150.173 24.0603 153.774 29.9868 155.598 37.5544C156.466 41.1134 156.921 45.7881 156.962 51.5785C156.966 52.0658 156.57 52.4618 156.083 52.4618H105.451C105.202 52.4618 105.002 52.6697 105.012 52.9189C105.344 60.8983 107.344 66.9459 111.013 71.0618C114.842 75.2559 119.72 77.3529 125.646 77.3529ZM125.236 22.6471C119.583 22.6471 114.979 24.4706 111.423 28.1176C107.984 31.5562 105.91 36.4016 105.2 42.6537C105.16 42.9988 105.433 43.2985 105.78 43.2985H144.42C144.767 43.2985 145.039 42.9994 145 42.6545C144.291 36.3124 142.216 31.4212 138.776 27.9809C135.22 24.425 130.707 22.6471 125.236 22.6471Z" fill="black"/>
</svg>
