<?xml version="1.0" encoding="UTF-8"?>
<svg id="Layer_1" xmlns="http://www.w3.org/2000/svg" version="1.1" viewBox="0 0 659 149">
  <!-- Generator: Adobe Illustrator 29.7.1, SVG Export Plug-In . SVG Version: 2.1.1 Build 8)  -->
  <defs>
    <style>
      .st0 {
        fill: #00447c;
      }

      .st1 {
        fill: #231f20;
      }
    </style>
  </defs>
  <path class="st1" d="M76.2,48.2l-1.3,4.8h-10.6l-8,31.6c-3.5,13.9-7.1,24.7-10.6,32.3-5.1,10.7-10.5,18.2-16.3,22.3-4.4,3.1-8.9,4.7-13.3,4.7s-5.3-.9-7.4-2.6c-1.5-1.2-2.2-2.8-2.2-4.7s.6-2.9,1.8-4c1.2-1.1,2.7-1.7,4.5-1.7s2.4.4,3.3,1.2c.9.8,1.3,1.8,1.3,2.8s-.5,2-1.5,3c-.8.7-1.2,1.2-1.2,1.5s.2.8.5,1c.4.3,1.1.5,2,.5,2.1,0,4.3-.7,6.5-2,2.3-1.3,4.3-3.2,6.1-5.8,1.8-2.6,3.5-6.3,5.1-11.2.7-2,2.5-8.7,5.4-20l12.6-48.9h-12.6l1-4.8c4,0,6.8-.3,8.4-.8,1.6-.6,3-1.6,4.4-3.2,1.3-1.6,3-4.5,5.2-8.8,2.8-5.8,5.6-10.3,8.2-13.4,3.6-4.3,7.3-7.5,11.2-9.6s7.6-3.2,11.1-3.2,6.6.9,8.8,2.8c2.2,1.9,3.3,3.9,3.3,6s-.6,3.1-1.7,4.3c-1.1,1.2-2.5,1.7-4.3,1.7s-2.7-.4-3.6-1.3c-.9-.9-1.4-1.9-1.4-3.1s.3-1.7.9-2.9c.6-1.1.9-1.9.9-2.3,0-.7-.2-1.2-.7-1.5-.6-.5-1.5-.7-2.7-.7-3,0-5.8,1-8.2,2.9-3.2,2.6-6.1,6.6-8.7,12-1.3,2.8-3.7,9.9-7.2,21.2h11Z"/>
  <path class="st1" d="M146.1,48.2l-12.6,43.1c-1.9,6.4-2.8,10.5-2.8,12.1s.2,1.5.5,1.9.7.6,1.3.6,1.7-.4,2.7-1.1,3.5-3.7,7.5-8.9l2.2,1.7c-3.8,6-7.7,10.5-11.7,13.3-2.7,1.8-5.2,2.7-7.7,2.7s-3.3-.5-4.4-1.6c-1.1-1.1-1.6-2.4-1.6-4.1s.3-3.8.9-6.5c.8-3.6,3-11.3,6.6-23.3-8.2,13.4-15,22.7-20.6,27.8-5.5,5.1-10.6,7.7-15.4,7.7s-4.1-.8-5.6-2.3-2.3-3.5-2.3-5.9c0-3.6,1.1-9.2,3.2-16.6l6.3-22.3c1.5-5.3,2.3-8.7,2.3-10s-.2-1.1-.6-1.5c-.4-.4-.9-.6-1.3-.6-1,0-2,.4-3,1.1s-3.3,3.4-6.9,8l-2.2-1.6c3.6-5.6,7.4-9.7,11.5-12.4,3.1-2.1,5.9-3.1,8.5-3.1s3.2.6,4.4,1.7c1.1,1.1,1.7,2.6,1.7,4.4,0,2.6-1,7.3-2.9,14l-6.8,23.3c-1.9,6.4-2.8,10.4-2.8,12.1s.3,1.7.9,2.2c.6.6,1.4.8,2.4.8,1.6,0,3.7-.8,6.2-2.4,2.6-1.6,6-5.1,10.2-10.6,4.3-5.5,7.8-10.6,10.6-15.4s5.7-12.4,8.9-22.9l1.6-5.5h11-.2Z"/>
  <path class="st1" d="M194.4,9.1l-24.7,86c-1.2,4.3-1.8,6.9-1.8,7.9s.2,1.3.7,1.8,1,.7,1.7.7,1.9-.4,3-1.2c2.5-2,5.1-5,7.9-9.2l2.2,2.2c-4.6,6.5-8.8,11-12.6,13.5-2.8,1.8-5.5,2.7-8.1,2.7s-3.4-.6-4.6-1.9c-1.2-1.3-1.8-2.7-1.8-4.3s.8-5.3,2.3-10.7l19.6-67.8c1.6-5.5,2.4-8.7,2.4-9.5s-.5-2.1-1.4-2.9c-.9-.7-2.3-1.1-4.3-1.1s-2.8.2-5.1.5v-2.7l24.7-4.1h-.1Z"/>
  <path class="st1" d="M242.9,96.1c-5,6-10.1,10.4-15.2,13.3-5.1,2.8-10.5,4.2-16.2,4.2s-12.2-1.9-16-5.8-5.7-9-5.7-15.5,2.1-14.6,6.2-21.8c4.1-7.1,9.7-12.9,16.6-17.4,7-4.5,13.8-6.7,20.5-6.7s9.2,1.1,11.8,3.3c2.6,2.2,3.9,4.9,3.9,8.1s-.9,5.5-2.7,7.7c-1.3,1.6-3,2.5-5,2.5s-2.7-.5-3.7-1.4c-1-1-1.5-2.2-1.5-3.6s.2-1.8.5-2.5c.4-.8,1.1-1.7,2.2-2.8,1.1-1.1,1.8-1.9,2.1-2.3.2-.5.4-1,.4-1.5,0-1-.5-1.9-1.4-2.5-1.4-1-3.4-1.4-5.9-1.4-4.7,0-9.4,1.7-14,5s-8.6,8-11.9,14.2c-4,7.4-5.9,14.8-5.9,22.3s1.4,8.8,4.2,11.7c2.8,2.9,6.6,4.3,11.4,4.3s7.4-.9,11-2.8,7.7-5.2,12.3-10.1l2.1,1.9v-.4Z"/>
  <path class="st1" d="M259.2,50.5l24.9-4-10.4,35.1c8.4-14.4,16.1-24.5,23-30.2,3.9-3.3,7.1-4.9,9.5-4.9s2.8.5,3.8,1.4c.9.9,1.4,2.3,1.4,4.1,0,3.2-.8,6.2-2.5,9.1-1.2,2.2-2.8,3.3-5,3.3s-2.1-.4-2.9-1.1-1.3-1.8-1.5-3.3c0-.9-.3-1.5-.7-1.8-.4-.4-.8-.6-1.4-.6s-1.6.2-2.3.6c-1.3.7-3.2,2.6-5.7,5.6-4,4.7-8.3,10.8-13,18.4-2,3.2-3.8,6.8-5.2,10.8-2,5.5-3.2,8.8-3.5,9.9l-2.3,9.1h-11.1l13.4-44.9c1.5-5.2,2.3-8.9,2.3-11.1s-.4-1.6-1.1-2.2c-1-.8-2.2-1.2-3.8-1.2s-2.9.2-5.6.7l-.5-2.7h.2Z"/>
  <path class="st1" d="M378.7,48.2l-12.6,43.1c-1.9,6.4-2.8,10.5-2.8,12.1s.2,1.5.5,1.9.7.6,1.3.6,1.7-.4,2.7-1.1,3.5-3.7,7.5-8.9l2.2,1.7c-3.8,6-7.7,10.5-11.7,13.3-2.7,1.8-5.2,2.7-7.7,2.7s-3.3-.5-4.4-1.6-1.6-2.4-1.6-4.1.3-3.8.9-6.5c.8-3.6,3-11.3,6.6-23.3-8.2,13.4-15,22.7-20.6,27.8-5.5,5.1-10.6,7.7-15.4,7.7s-4.1-.8-5.6-2.3-2.3-3.5-2.3-5.9c0-3.6,1.1-9.2,3.2-16.6l6.3-22.3c1.5-5.3,2.3-8.7,2.3-10s-.2-1.1-.6-1.5-.9-.6-1.3-.6c-1,0-2,.4-3,1.1s-3.3,3.4-6.9,8l-2.2-1.6c3.6-5.6,7.4-9.7,11.5-12.4,3.1-2.1,5.9-3.1,8.5-3.1s3.2.6,4.4,1.7c1.1,1.1,1.7,2.6,1.7,4.4,0,2.6-1,7.3-2.9,14l-6.8,23.3c-1.9,6.4-2.8,10.4-2.8,12.1s.3,1.7.9,2.2c.6.6,1.4.8,2.4.8,1.6,0,3.7-.8,6.2-2.4,2.6-1.6,6-5.1,10.2-10.6,4.3-5.5,7.8-10.6,10.6-15.4,2.8-4.8,5.7-12.4,8.9-22.9l1.6-5.5h11-.2Z"/>
  <path class="st1" d="M418.1,46.4l-9.4,32.6c4.2-7.7,7.8-13.4,10.7-17.3,4.6-6,9-10.3,13.4-13,2.6-1.5,5.2-2.3,8-2.3s4.4.8,6,2.3,2.4,3.5,2.4,5.9-.6,5.4-1.7,9.3l-5.1,18.4c7.9-14.7,15.3-25,22.3-30.9,3.9-3.3,7.8-4.9,11.6-4.9s4,.8,5.5,2.3c1.4,1.5,2.1,3.9,2.1,7s-.4,5.8-1.3,8.9l-7.9,28.1c-1.7,6.1-2.6,9.5-2.6,10.2s.2,1.3.7,1.7c.3.3.7.5,1.2.5s1.3-.5,2.5-1.4c2.7-2.1,5.3-4.9,7.7-8.4l2.4,1.5c-1.2,1.9-3.3,4.6-6.4,8-3.1,3.4-5.7,5.7-7.8,6.9s-4.2,1.8-6,1.8-3.1-.6-4.2-1.7c-1.1-1.2-1.7-2.6-1.7-4.3s1-7,3-14l6.6-23.2c1.5-5.3,2.3-8.3,2.4-8.9,0-.9.2-1.8.2-2.7s-.3-2.1-.8-2.8c-.6-.7-1.2-1-2-1-2,0-4.2,1-6.4,3.1-6.6,6.1-12.9,14.7-18.6,25.7-3.8,7.3-7.4,16.6-10.7,28h-10.9l12.4-43.7c1.3-4.7,2-7.9,2-9.5s-.3-2.3-.8-2.9-1.2-.9-2-.9c-1.6,0-3.3.6-5.1,1.7-2.9,1.9-6.6,5.9-11.2,12.1-4.6,6.2-8.1,12.1-10.6,17.7-1.2,2.7-4.1,11.2-8.6,25.5h-10.7l13.4-46.8,1.7-6.1c.3-.9.5-1.6.5-2,0-1.1-.5-2-1.4-2.9-1-.8-2.2-1.3-3.7-1.3s-2.4.3-5.2.9l-.7-2.7,24.9-4.6h-.1Z"/>
  <path class="st0" d="M542.8,86.5v-7.6h27.4v24c-4.2,3.4-8.5,5.9-13,7.6s-9.1,2.5-13.8,2.5-12.1-1.4-17.3-4.1-9.1-6.7-11.8-11.8c-2.6-5.1-4-10.9-4-17.3s1.3-12.2,4-17.6c2.6-5.5,6.4-9.5,11.4-12.2,4.9-2.6,10.6-4,17.1-4s8.9.8,12.7,2.3,6.7,3.6,8.9,6.3c2.1,2.7,3.8,6.2,4.9,10.6l-7.7,2.1c-1-3.3-2.2-5.9-3.6-7.8s-3.5-3.4-6.2-4.5-5.6-1.7-8.9-1.7-7.3.6-10.2,1.8c-2.9,1.2-5.2,2.8-6.9,4.7s-3.1,4.1-4.1,6.4c-1.6,4-2.5,8.3-2.5,13s1,10.6,3,14.5,4.9,6.8,8.7,8.6c3.8,1.9,7.8,2.8,12.1,2.8s7.3-.7,10.9-2.1c3.5-1.4,6.2-2.9,8-4.6v-12h-19.1Z"/>
  <path class="st0" d="M594.3,111.8v-57.1h-21.3v-7.6h51.3v7.6h-21.4v57.1h-8.6Z"/>
  <path class="st1" d="M633.2,59.1v-10.2h-3.9v-1.8h9.8v1.8h-3.9v10.2h-2,0ZM640.5,59.1v-11.9h2.9l3,9.5,2.9-9.5h2.9v11.9h-1.8v-10l-3.1,10h-1.8l-3.2-10.2v10.2h-1.8Z"/>
</svg>