<svg width="366" height="159" viewBox="0 0 366 159" fill="none" xmlns="http://www.w3.org/2000/svg">
<path d="M61.6131 2.1V87.1C61.6131 97.2 60.9131 104.8 59.5131 109.8C58.1131 115.5 55.7131 120.3 52.3131 124.2C45.7131 132 36.9131 135.8 25.9131 135.8C17.6131 135.8 9.91313 133.6 2.71313 129.3L12.4131 112.4C17.2131 115.6 21.7131 117.2 25.9131 117.2C31.8131 117.2 35.9131 115 38.1131 110.5C40.5131 106 41.7131 98.2 41.7131 87V2H61.6131V2.1Z" fill="#C8003E" stroke="#C8003E" stroke-width="4" stroke-miterlimit="10"/>
<path d="M92.7131 28.6001V76.1001C92.7131 89.8001 98.1131 96.7001 108.913 96.7001C119.713 96.7001 125.113 89.8001 125.113 76.1001V28.6001H144.213V76.6001C144.213 83.2001 143.413 89.0001 141.713 93.8001C140.113 98.1001 137.413 102 133.513 105.4C127.013 111 118.813 113.8 108.813 113.8C98.9131 113.8 90.7131 111 84.2131 105.4C80.2131 101.9 77.4131 98.1001 75.8131 93.8001C74.2131 89.9001 73.4131 84.2001 73.4131 76.6001V28.6001H92.7131Z" fill="#C8003E" stroke="#C8003E" stroke-width="4" stroke-miterlimit="10"/>
<path d="M155.013 28.5999H174.113V36.2999C177.813 32.3999 180.913 29.7999 183.513 28.4999C186.313 27.0999 189.813 26.3999 194.013 26.3999C203.413 26.3999 210.813 30.4999 216.213 38.5999C222.213 30.3999 230.313 26.3999 240.613 26.3999C259.313 26.3999 268.613 37.6999 268.613 60.2999V111.5H249.413V65.4999C249.413 57.5999 248.413 51.8999 246.513 48.6999C244.513 45.3999 241.313 43.6999 236.713 43.6999C231.413 43.6999 227.613 45.6999 225.213 49.6999C222.813 53.6999 221.613 59.9999 221.613 68.7999V111.6H202.413V65.6999C202.413 50.9999 198.113 43.5999 189.613 43.5999C184.213 43.5999 180.313 45.5999 177.813 49.5999C175.313 53.5999 174.113 59.9999 174.113 68.6999V111.5H155.013V28.5999Z" fill="#C8003E" stroke="#C8003E" stroke-width="4" stroke-miterlimit="10"/>
<path d="M298.113 156.5H279.013V28.6H298.113V37.6001C305.613 30.1001 314.213 26.3 323.813 26.3C335.213 26.3 344.613 30.5 351.913 38.9C359.413 47.2 363.113 57.8 363.113 70.5C363.113 82.9 359.413 93.3 352.013 101.5C344.613 109.7 335.313 113.8 324.113 113.8C314.413 113.8 305.713 109.9 298.113 102.2V156.5ZM343.613 70.6001C343.613 62.7001 341.413 56.2001 337.113 51.2001C332.713 46.2001 327.213 43.6001 320.613 43.6001C313.613 43.6001 307.913 46 303.513 50.9C299.113 55.8 297.013 62.2001 297.013 70.1001C297.013 77.9001 299.213 84.3 303.513 89.3C307.813 94.2 313.513 96.7001 320.513 96.7001C327.113 96.7001 332.613 94.2001 336.913 89.2001C341.313 84.3001 343.613 78.0001 343.613 70.6001Z" fill="#C8003E" stroke="#C8003E" stroke-width="4" stroke-miterlimit="10"/>
<path d="M95.0132 153.2H87.8132V131.7H82.0132V125.7H101.013V131.7H95.0132V153.2Z" fill="black"/>
<path d="M127.013 153.2H118.113L111.313 142.6V153.2H104.113V125.6H115.213C116.813 125.6 118.113 125.8 119.213 126.2C120.313 126.6 121.213 127.2 122.013 128.1C122.713 128.9 123.313 129.8 123.713 130.9C124.113 131.9 124.313 133.1 124.313 134.2C124.313 135.4 124.113 136.6 123.613 137.7C123.213 138.8 122.513 139.7 121.713 140.3C121.213 140.7 120.713 141 120.213 141.3C119.713 141.5 119.013 141.8 118.213 142L127.013 153.2ZM112.613 138C114.013 138 115.013 137.8 115.613 137.3C116.013 137 116.313 136.6 116.613 136.1C116.913 135.6 117.013 135.1 117.013 134.6C117.013 134.1 116.913 133.6 116.613 133.1C116.313 132.6 116.013 132.2 115.613 131.9C114.913 131.4 113.913 131.2 112.613 131.2H111.313V138.1H112.613V138Z" fill="black"/>
<path d="M138.213 148.4L136.313 153.2H128.713L139.313 125.6H147.113L157.513 153.2H149.813L148.013 148.4H138.213ZM143.313 134.1L140.313 142.9H146.313L143.313 134.1Z" fill="black"/>
<path d="M160.713 125.6H171.313C173.113 125.6 174.913 126 176.513 126.7C178.113 127.4 179.613 128.4 180.813 129.7C182.013 131 183.013 132.4 183.813 134.1C184.513 135.8 184.913 137.5 184.913 139.4C184.913 141.3 184.513 143 183.813 144.7C183.113 146.4 182.113 147.9 180.813 149.1C179.613 150.4 178.113 151.4 176.513 152.1C174.913 152.8 173.113 153.2 171.313 153.2H160.713V125.6ZM169.613 147.1C170.913 147.1 172.113 146.9 173.013 146.5C173.913 146.1 174.713 145.5 175.513 144.7C176.113 144 176.613 143.2 177.013 142.2C177.313 141.3 177.513 140.3 177.513 139.2C177.513 138.2 177.313 137.2 177.013 136.3C176.713 135.4 176.213 134.5 175.513 133.8C174.813 133 174.013 132.4 173.013 132C172.113 131.6 170.913 131.4 169.613 131.4H168.013V146.9H169.613V147.1Z" fill="black"/>
<path d="M196.713 153.2H189.513V125.6H196.713V153.2Z" fill="black"/>
<path d="M202.413 125.6H209.613L222.813 142.5V125.6H230.013V153.2H222.813L209.613 136.3V153.2H202.413V125.6Z" fill="black"/>
<path d="M263.813 137.9C263.813 139.9 263.613 141.6 263.413 142.8C263.213 144.1 262.813 145.3 262.313 146.4C261.113 148.9 259.513 150.9 257.313 152.2C255.113 153.5 252.613 154.2 249.613 154.2C247.413 154.2 245.413 153.8 243.613 153.1C241.813 152.4 240.213 151.4 238.913 150.1C237.613 148.8 236.613 147.3 235.913 145.5C235.213 143.7 234.813 141.7 234.813 139.5C234.813 137.3 235.213 135.3 235.913 133.5C236.613 131.7 237.713 130.1 239.013 128.8C240.313 127.5 241.913 126.5 243.713 125.8C245.513 125.1 247.613 124.7 249.813 124.7C252.813 124.7 255.213 125.3 257.213 126.6C259.213 127.9 260.913 129.8 262.213 132.5L255.513 135.3C254.313 132.4 252.313 130.9 249.613 130.9C248.613 130.9 247.613 131.1 246.813 131.6C245.913 132 245.213 132.6 244.513 133.4C243.913 134.2 243.313 135.1 243.013 136.1C242.713 137.1 242.513 138.3 242.513 139.6C242.513 140.9 242.713 142.1 243.113 143.3C243.513 144.5 244.113 145.5 244.913 146.3C246.113 147.6 247.713 148.3 249.813 148.3C251.913 148.3 253.413 147.6 254.513 146.3C254.813 145.9 255.013 145.5 255.113 145.1C255.213 144.7 255.413 144.2 255.513 143.5H249.513V137.9H263.813Z" fill="black"/>
</svg>
