<svg width="336" height="386" viewBox="0 0 336 386" fill="none" xmlns="http://www.w3.org/2000/svg">
<path d="M0 375V373.032L4.32 372.408V345.384L0 344.856V342.888H8.88L19.6322 369.288L29.8082 342.888H39.2642V344.856L34.8482 345.384C34.8162 347.4 34.7842 349.448 34.7522 351.528C34.7522 353.608 34.7522 355.688 34.7522 357.768V360.12C34.7522 362.168 34.7522 364.232 34.7522 366.312C34.7842 368.36 34.8162 370.424 34.8482 372.504L39.2642 373.032V375H26.2082V373.032L30.2402 372.504C30.3042 370.488 30.3362 368.44 30.3362 366.36C30.3362 364.28 30.3362 362.216 30.3362 360.168V348.216L19.9202 375H17.5202L6.528 348.216L6.816 357.288V372.408L10.752 373.032V375H0ZM53.4152 353.784C52.5192 353.784 51.6072 354.04 50.6792 354.552C49.7832 355.064 48.9992 355.88 48.3272 357C47.6872 358.12 47.2712 359.608 47.0792 361.464H55.8152C56.9672 361.464 57.7192 361.224 58.0712 360.744C58.4552 360.264 58.6472 359.672 58.6472 358.968C58.6472 358.04 58.4072 357.192 57.9272 356.424C57.4792 355.624 56.8552 354.984 56.0552 354.504C55.2872 354.024 54.4072 353.784 53.4152 353.784ZM53.3672 375.624C50.1352 375.624 47.5432 374.584 45.5912 372.504C43.6392 370.392 42.6632 367.496 42.6632 363.816C42.6632 361.352 43.1592 359.208 44.1512 357.384C45.1752 355.56 46.5192 354.136 48.1832 353.112C49.8792 352.088 51.7192 351.576 53.7032 351.576C55.3672 351.576 56.8712 351.944 58.2152 352.68C59.5592 353.416 60.6312 354.472 61.4312 355.848C62.2312 357.192 62.6312 358.84 62.6312 360.792C62.6312 361.336 62.5992 361.848 62.5352 362.328C62.4712 362.776 62.3912 363.16 62.2952 363.48H46.9832C47.0472 366.424 47.7832 368.664 49.1912 370.2C50.5992 371.736 52.4552 372.504 54.7592 372.504C56.2952 372.504 57.5752 372.2 58.5992 371.592C59.6232 370.952 60.5672 370.136 61.4312 369.144L62.5832 370.056C61.6872 371.752 60.4712 373.112 58.9352 374.136C57.3992 375.128 55.5432 375.624 53.3672 375.624ZM77.7882 375.624C74.4922 375.624 71.8682 374.552 69.9162 372.408C67.9642 370.264 66.9882 367.352 66.9882 363.672C66.9882 361.144 67.5002 358.984 68.5242 357.192C69.5802 355.368 70.9562 353.976 72.6522 353.016C74.3482 352.056 76.1562 351.576 78.0762 351.576C79.5162 351.576 80.8442 351.848 82.0602 352.392C83.2762 352.936 84.2842 353.688 85.0842 354.648C85.8842 355.576 86.3802 356.632 86.5722 357.816C86.3482 359.032 85.6122 359.64 84.3642 359.64C83.5642 359.64 82.9562 359.432 82.5402 359.016C82.1562 358.568 81.8842 358.008 81.7242 357.336L80.8602 354.168C80.4122 354.008 79.9642 353.912 79.5162 353.88C79.1002 353.816 78.6842 353.784 78.2682 353.784C76.2202 353.784 74.5242 354.584 73.1802 356.184C71.8682 357.784 71.2122 360.12 71.2122 363.192C71.2122 366.2 71.9322 368.504 73.3722 370.104C74.8122 371.704 76.6522 372.504 78.8922 372.504C80.2682 372.504 81.5322 372.2 82.6842 371.592C83.8362 370.952 84.7802 370.04 85.5162 368.856L86.7162 369.48C86.0442 371.464 84.9562 372.984 83.4522 374.04C81.9482 375.096 80.0602 375.624 77.7882 375.624ZM89.3332 375V373.272L92.9332 372.6C92.9652 371.384 92.9812 370.072 92.9812 368.664C93.0132 367.224 93.0292 365.976 93.0292 364.92V343.848L89.0932 343.368V341.688L96.4372 339.528L97.1092 339.912L96.9172 346.728V355.992C98.1012 354.68 99.4772 353.624 101.045 352.824C102.613 351.992 104.165 351.576 105.701 351.576C107.781 351.576 109.317 352.28 110.309 353.688C111.333 355.064 111.845 357.32 111.845 360.456V364.92C111.845 366.008 111.845 367.256 111.845 368.664C111.877 370.072 111.909 371.384 111.941 372.6L115.301 373.272V375H104.165V373.272L107.669 372.648C107.701 371.432 107.717 370.12 107.717 368.712C107.749 367.272 107.765 366.008 107.765 364.92V360.84C107.765 358.632 107.461 357.112 106.853 356.28C106.245 355.448 105.237 355.032 103.829 355.032C102.645 355.032 101.525 355.272 100.469 355.752C99.4132 356.232 98.2772 357.032 97.0612 358.152V364.92C97.0612 365.976 97.0612 367.224 97.0612 368.664C97.0932 370.072 97.1252 371.384 97.1572 372.6L100.469 373.272V375H89.3332ZM136.69 375.48C135.538 375.48 134.578 375.144 133.81 374.472C133.042 373.8 132.562 372.904 132.37 371.784C131.058 373.064 129.906 374.024 128.914 374.664C127.922 375.304 126.722 375.624 125.314 375.624C123.554 375.624 122.034 375.128 120.754 374.136C119.506 373.112 118.882 371.608 118.882 369.624C118.882 368.696 119.09 367.832 119.506 367.032C119.954 366.232 120.754 365.448 121.906 364.68C123.058 363.912 124.706 363.144 126.85 362.376C127.586 362.12 128.434 361.848 129.394 361.56C130.354 361.272 131.314 361.016 132.274 360.792V359.592C132.274 357.256 131.922 355.704 131.218 354.936C130.514 354.168 129.362 353.784 127.762 353.784C127.41 353.784 127.01 353.8 126.562 353.832C126.146 353.864 125.682 353.944 125.17 354.072L124.258 357.192C123.81 358.728 122.978 359.496 121.762 359.496C120.418 359.496 119.666 358.84 119.506 357.528C119.954 355.704 121.01 354.264 122.674 353.208C124.37 352.12 126.434 351.576 128.866 351.576C131.394 351.576 133.266 352.216 134.482 353.496C135.698 354.744 136.306 356.888 136.306 359.928V370.152C136.306 371.176 136.466 371.912 136.786 372.36C137.106 372.776 137.522 372.984 138.034 372.984C138.45 372.984 138.802 372.888 139.09 372.696C139.378 372.504 139.65 372.248 139.906 371.928L140.866 372.984C140.29 373.912 139.65 374.568 138.946 374.952C138.274 375.304 137.522 375.48 136.69 375.48ZM123.154 368.904C123.154 370.184 123.522 371.096 124.258 371.64C124.994 372.184 125.906 372.456 126.994 372.456C127.474 372.456 127.922 372.392 128.338 372.264C128.786 372.136 129.314 371.896 129.922 371.544C130.53 371.16 131.314 370.616 132.274 369.912V362.568C131.442 362.792 130.626 363.048 129.826 363.336C129.026 363.592 128.37 363.816 127.858 364.008C126.482 364.552 125.458 365.112 124.786 365.688C124.114 366.264 123.666 366.824 123.442 367.368C123.25 367.912 123.154 368.424 123.154 368.904ZM142.829 375V373.272L146.381 372.6C146.413 371.384 146.429 370.072 146.429 368.664C146.461 367.256 146.477 366.008 146.477 364.92V362.616C146.477 361.304 146.461 360.216 146.429 359.352C146.429 358.488 146.397 357.576 146.333 356.616L142.541 356.184V354.504L149.261 351.576L149.981 352.056L150.365 355.896C151.549 354.616 152.909 353.576 154.445 352.776C155.981 351.976 157.485 351.576 158.957 351.576C161.037 351.576 162.573 352.28 163.565 353.688C164.589 355.064 165.101 357.32 165.101 360.456V364.92C165.101 366.008 165.101 367.256 165.101 368.664C165.133 370.072 165.165 371.384 165.197 372.6L168.557 373.272V375H157.421V373.272L160.973 372.6C161.005 371.416 161.021 370.12 161.021 368.712C161.053 367.272 161.069 366.008 161.069 364.92V360.84C161.069 358.632 160.749 357.112 160.109 356.28C159.501 355.448 158.493 355.032 157.085 355.032C155.997 355.032 154.941 355.256 153.917 355.704C152.893 356.152 151.773 356.888 150.557 357.912V364.92C150.557 365.976 150.557 367.224 150.557 368.664C150.589 370.072 150.621 371.384 150.653 372.6L153.965 373.272V375H142.829ZM171.698 375V373.272L175.298 372.6C175.33 371.384 175.346 370.072 175.346 368.664C175.378 367.224 175.394 365.976 175.394 364.92V362.664C175.394 361.352 175.378 360.264 175.346 359.4C175.346 358.504 175.314 357.576 175.25 356.616L171.41 356.184V354.504L178.802 351.576L179.522 352.056L179.378 358.584V364.92C179.378 365.976 179.378 367.224 179.378 368.664C179.41 370.072 179.442 371.384 179.474 372.6L182.834 373.272V375H171.698ZM177.362 346.296C176.466 346.296 175.698 346.008 175.058 345.432C174.45 344.856 174.146 344.12 174.146 343.224C174.146 342.296 174.45 341.56 175.058 341.016C175.698 340.44 176.466 340.152 177.362 340.152C178.258 340.152 179.01 340.44 179.618 341.016C180.258 341.56 180.578 342.296 180.578 343.224C180.578 344.12 180.258 344.856 179.618 345.432C179.01 346.008 178.258 346.296 177.362 346.296ZM185.707 375V373.32L199.483 354.264H189.787L188.491 359.592L185.995 359.4L186.379 352.2H204.283V353.928L190.555 372.984H201.067L202.507 367.176H205.003L204.523 375H185.707ZM219.118 353.784C218.222 353.784 217.31 354.04 216.382 354.552C215.486 355.064 214.702 355.88 214.03 357C213.39 358.12 212.974 359.608 212.782 361.464H221.518C222.67 361.464 223.422 361.224 223.774 360.744C224.158 360.264 224.35 359.672 224.35 358.968C224.35 358.04 224.11 357.192 223.63 356.424C223.182 355.624 222.558 354.984 221.758 354.504C220.99 354.024 220.11 353.784 219.118 353.784ZM219.07 375.624C215.838 375.624 213.246 374.584 211.294 372.504C209.342 370.392 208.366 367.496 208.366 363.816C208.366 361.352 208.862 359.208 209.854 357.384C210.878 355.56 212.222 354.136 213.886 353.112C215.582 352.088 217.422 351.576 219.406 351.576C221.07 351.576 222.574 351.944 223.918 352.68C225.262 353.416 226.334 354.472 227.134 355.848C227.934 357.192 228.334 358.84 228.334 360.792C228.334 361.336 228.302 361.848 228.238 362.328C228.174 362.776 228.094 363.16 227.998 363.48H212.686C212.75 366.424 213.486 368.664 214.894 370.2C216.302 371.736 218.158 372.504 220.462 372.504C221.998 372.504 223.278 372.2 224.302 371.592C225.326 370.952 226.27 370.136 227.134 369.144L228.286 370.056C227.39 371.752 226.174 373.112 224.638 374.136C223.102 375.128 221.246 375.624 219.07 375.624ZM239.492 373.608C239.492 375.528 239.028 377.304 238.1 378.936C237.204 380.568 236.052 381.96 234.644 383.112C233.236 384.296 231.764 385.176 230.228 385.752L229.556 384.12C231.188 383.288 232.628 382.28 233.876 381.096C235.124 379.912 236.036 378.424 236.612 376.632L234.836 375.24C234.196 374.728 233.732 374.184 233.444 373.608C233.156 373 233.012 372.392 233.012 371.784C233.012 370.952 233.252 370.248 233.732 369.672C234.244 369.064 234.996 368.76 235.988 368.76C236.436 368.76 236.884 368.856 237.332 369.048C237.812 369.24 238.356 369.608 238.964 370.152C239.156 370.76 239.284 371.352 239.348 371.928C239.444 372.472 239.492 373.032 239.492 373.608ZM256.974 344.856V342.888H270.558V344.856L266.142 345.384C266.11 347.4 266.078 349.448 266.046 351.528C266.046 353.608 266.046 355.688 266.046 357.768V360.12C266.046 362.168 266.046 364.232 266.046 366.312C266.078 368.36 266.11 370.424 266.142 372.504L270.558 373.032V375H256.974V373.032L261.39 372.504C261.454 370.488 261.486 368.44 261.486 366.36C261.486 364.28 261.486 362.2 261.486 360.12V357.768C261.486 355.688 261.486 353.624 261.486 351.576C261.486 349.496 261.454 347.432 261.39 345.384L256.974 344.856ZM274.595 375V373.272L278.147 372.6C278.179 371.384 278.195 370.072 278.195 368.664C278.227 367.256 278.243 366.008 278.243 364.92V362.616C278.243 361.304 278.227 360.216 278.195 359.352C278.195 358.488 278.163 357.576 278.099 356.616L274.307 356.184V354.504L281.027 351.576L281.747 352.056L282.131 355.896C283.315 354.616 284.675 353.576 286.211 352.776C287.747 351.976 289.251 351.576 290.723 351.576C292.803 351.576 294.339 352.28 295.331 353.688C296.355 355.064 296.867 357.32 296.867 360.456V364.92C296.867 366.008 296.867 367.256 296.867 368.664C296.899 370.072 296.931 371.384 296.963 372.6L300.323 373.272V375H289.187V373.272L292.739 372.6C292.771 371.416 292.787 370.12 292.787 368.712C292.819 367.272 292.835 366.008 292.835 364.92V360.84C292.835 358.632 292.515 357.112 291.875 356.28C291.267 355.448 290.259 355.032 288.851 355.032C287.763 355.032 286.707 355.256 285.683 355.704C284.659 356.152 283.539 356.888 282.323 357.912V364.92C282.323 365.976 282.323 367.224 282.323 368.664C282.355 370.072 282.387 371.384 282.419 372.6L285.731 373.272V375H274.595ZM314.6 375.624C311.304 375.624 308.68 374.552 306.728 372.408C304.776 370.264 303.8 367.352 303.8 363.672C303.8 361.144 304.312 358.984 305.336 357.192C306.392 355.368 307.768 353.976 309.464 353.016C311.16 352.056 312.968 351.576 314.888 351.576C316.328 351.576 317.656 351.848 318.872 352.392C320.088 352.936 321.096 353.688 321.896 354.648C322.696 355.576 323.192 356.632 323.384 357.816C323.16 359.032 322.424 359.64 321.176 359.64C320.376 359.64 319.768 359.432 319.352 359.016C318.968 358.568 318.696 358.008 318.536 357.336L317.672 354.168C317.224 354.008 316.776 353.912 316.328 353.88C315.912 353.816 315.496 353.784 315.08 353.784C313.032 353.784 311.336 354.584 309.992 356.184C308.68 357.784 308.024 360.12 308.024 363.192C308.024 366.2 308.744 368.504 310.184 370.104C311.624 371.704 313.464 372.504 315.704 372.504C317.08 372.504 318.344 372.2 319.496 371.592C320.648 370.952 321.592 370.04 322.328 368.856L323.528 369.48C322.856 371.464 321.768 372.984 320.264 374.04C318.76 375.096 316.872 375.624 314.6 375.624ZM332.422 375.624C331.462 375.624 330.646 375.288 329.974 374.616C329.334 373.944 329.014 373.144 329.014 372.216C329.014 371.256 329.334 370.44 329.974 369.768C330.646 369.096 331.462 368.76 332.422 368.76C333.382 368.76 334.182 369.096 334.822 369.768C335.494 370.44 335.83 371.256 335.83 372.216C335.83 373.144 335.494 373.944 334.822 374.616C334.182 375.288 333.382 375.624 332.422 375.624Z" fill="black"/>
<path d="M214.49 41.59C221.45 44.54 228.09 48.12 234.33 52.25C249.26 48.5 264.19 44.76 279.12 41.01C291.43 64.25 303.74 87.49 316.05 110.73C307.09 121.57 298.12 132.42 289.16 143.26C289.53 147.06 289.75 150.91 289.76 154.8C289.77 158.68 289.59 162.5 289.25 166.29C298.29 177.08 307.33 187.86 316.37 198.65C304.2 221.98 292.04 245.32 279.88 268.65C264.93 265.02 249.97 261.38 235.02 257.75C228.81 261.92 222.2 265.54 215.25 268.54C211.34 282.42 207.44 296.3 203.53 310.18C179.11 310.27 154.68 310.37 130.25 310.46C126.25 296.6 122.25 282.73 118.25 268.87C111.29 265.92 104.65 262.34 98.4102 258.21C83.4802 261.96 68.5502 265.7 53.6202 269.45C41.3102 246.21 29.0002 222.97 16.6902 199.73C25.6502 188.891 34.6202 178.04 43.5802 167.2C43.2102 163.4 42.9902 159.56 42.9802 155.66C42.9702 151.78 43.1502 147.96 43.4902 144.17C34.4502 133.38 25.4102 122.6 16.3702 111.81C28.5402 88.48 40.7002 65.139 52.8602 41.81C67.8102 45.44 82.7702 49.08 97.7202 52.71C103.93 48.54 110.54 44.92 117.49 41.92C121.4 28.04 125.3 14.16 129.21 0.280296C153.64 0.190296 178.06 0.09 202.49 0C206.49 13.86 210.49 27.73 214.49 41.59ZM165.87 74.47C120.859 74.47 84.3702 110.959 84.3702 155.97C84.3702 200.981 120.859 237.47 165.87 237.47C210.881 237.47 247.37 200.981 247.37 155.97C247.37 110.959 210.881 74.47 165.87 74.47Z" fill="black"/>
</svg>
