<svg width="756" height="450" viewBox="0 0 756 450" fill="none" xmlns="http://www.w3.org/2000/svg">
<path d="M130.477 9.50971L85.2496 125.456L78.9601 79.5597C93.2167 81.0413 104.39 86.3917 112.481 95.6107C120.571 104.83 123.858 116.733 122.342 131.321C120.86 145.578 115.013 156.7 104.799 164.687C94.9514 172.377 83.2308 175.515 69.6374 174.103C55.7124 172.655 44.5562 167.139 36.1687 157.554C28.1472 147.672 24.8773 135.603 26.3589 121.346C26.8068 117.036 27.5691 112.926 28.6457 109.017C29.7567 104.775 31.5997 99.94 34.1748 94.5104C36.7498 89.0808 40.3432 81.9139 44.955 73.0096L81.2422 4.39295L130.477 9.50971ZM133.195 382.79L138.622 330.572L286.078 217.709C297.687 209.197 306.374 201.387 312.14 194.278C317.906 187.169 321.945 180.551 324.257 174.424C326.901 168.331 328.499 162.633 329.05 157.328C330.497 143.403 326.792 132.294 317.936 124C309.445 115.41 296.082 110.167 277.847 108.272C263.259 106.756 249.372 108.162 236.188 112.489C223.335 116.85 211.978 124.551 202.117 135.59L147.361 91.6953C162.69 73.1807 182.894 59.3617 207.971 50.2384C233.049 41.1151 261.17 38.1729 292.336 41.4117C318.196 44.0993 340.294 50.7525 358.627 61.3712C377.327 71.6928 391.19 85.0305 400.214 101.384C409.57 117.773 413.146 136.576 410.94 157.795C409.769 169.068 407.105 180.185 402.95 191.148C399.161 201.813 392.318 212.832 382.423 224.203C372.86 235.609 359.162 248.093 341.332 261.656L219.026 355.014L206.659 324.07L403.101 344.485L396.278 410.131L133.195 382.79ZM584.562 435.731C552.734 432.423 525.739 422.915 503.577 407.207C481.747 391.533 465.859 370.277 455.914 343.439C445.968 316.6 442.942 284.448 446.835 246.983C451.005 206.866 461.996 173.658 479.81 147.358C497.956 121.093 521.048 102.045 549.088 90.2134C577.46 78.4163 609.052 74.3266 643.864 77.9446C662.431 79.8741 679.962 83.7068 696.457 89.4426C712.953 95.1785 726.921 102.662 738.361 111.894L702.371 167.975C693.446 160.344 683.633 154.8 672.933 151.343C662.267 147.553 650.967 145.038 639.031 143.798C608.86 140.662 584.041 147.299 564.574 163.708C545.107 180.117 533.513 206.225 529.792 242.032C529.171 248 528.482 254.631 527.724 261.925C527.298 269.253 527.534 276.651 528.434 284.117L508.225 260.904C515.868 248.628 525.111 238.697 535.954 231.11C546.83 223.192 559.289 217.785 573.331 214.887C587.738 211.693 603.23 210.957 619.808 212.68C642.353 215.023 662.112 221.6 679.086 232.413C696.059 243.225 709.006 257.306 717.927 274.654C727.18 292.037 730.669 311.67 728.395 333.552C725.949 357.092 717.845 377.027 704.083 393.359C690.687 409.393 673.543 421.184 652.651 428.732C632.125 435.982 609.429 438.315 584.562 435.731ZM586.34 375.09C597.613 376.262 607.766 375.306 616.8 372.223C626.2 368.844 633.8 363.434 639.6 355.993C645.4 348.553 648.834 339.694 649.902 329.416C651.556 313.502 647.395 300.334 637.419 289.914C627.808 279.196 614.051 272.907 596.148 271.047C584.212 269.806 573.527 271.042 564.093 274.753C554.693 278.133 546.928 283.526 540.796 290.931C535.03 298.04 531.613 306.734 530.545 317.012C529.511 326.958 531.068 336.168 535.214 344.642C539.395 352.785 545.72 359.642 554.189 365.214C562.693 370.454 573.41 373.746 586.34 375.09Z" fill="#480021" fill-opacity="0.34"/>
</svg>
