<svg width="891" height="699" viewBox="0 0 891 699" fill="none" xmlns="http://www.w3.org/2000/svg">
<circle cx="110" cy="110" r="105" stroke="#FFFFFF" stroke-width="10"/>
<path d="M61.7466 125V120.8L79.0666 99.92L79.8666 102.28H62.0666V97H85.6266V101.2L68.3466 122.08L67.5466 119.72H86.2266V125H61.7466ZM100.388 125.32C97.9348 125.32 95.7748 124.84 93.9081 123.88C92.0681 122.92 90.6415 121.613 89.6281 119.96C88.6148 118.28 88.1081 116.373 88.1081 114.24C88.1081 112.08 88.6015 110.173 89.5881 108.52C90.6015 106.84 91.9748 105.533 93.7081 104.6C95.4415 103.64 97.4015 103.16 99.5881 103.16C101.695 103.16 103.588 103.613 105.268 104.52C106.975 105.4 108.321 106.68 109.308 108.36C110.295 110.013 110.788 112 110.788 114.32C110.788 114.56 110.775 114.84 110.748 115.16C110.721 115.453 110.695 115.733 110.668 116H93.1881V112.36H107.388L104.988 113.44C104.988 112.32 104.761 111.347 104.308 110.52C103.855 109.693 103.228 109.053 102.428 108.6C101.628 108.12 100.695 107.88 99.6281 107.88C98.5615 107.88 97.6148 108.12 96.7881 108.6C95.9881 109.053 95.3615 109.707 94.9081 110.56C94.4548 111.387 94.2281 112.373 94.2281 113.52V114.48C94.2281 115.653 94.4815 116.693 94.9881 117.6C95.5215 118.48 96.2548 119.16 97.1881 119.64C98.1481 120.093 99.2681 120.32 100.548 120.32C101.695 120.32 102.695 120.147 103.548 119.8C104.428 119.453 105.228 118.933 105.948 118.24L109.268 121.84C108.281 122.96 107.041 123.827 105.548 124.44C104.055 125.027 102.335 125.32 100.388 125.32ZM124.023 125.32C122.236 125.32 120.636 124.973 119.223 124.28C117.836 123.587 116.756 122.533 115.983 121.12C115.209 119.68 114.823 117.853 114.823 115.64V103.48H121.063V114.72C121.063 116.507 121.436 117.827 122.183 118.68C122.956 119.507 124.036 119.92 125.423 119.92C126.383 119.92 127.236 119.72 127.983 119.32C128.729 118.893 129.316 118.253 129.743 117.4C130.169 116.52 130.383 115.427 130.383 114.12V103.48H136.623V125H130.703V119.08L131.783 120.8C131.063 122.293 129.996 123.427 128.583 124.2C127.196 124.947 125.676 125.32 124.023 125.32ZM149.643 125.32C147.803 125.32 146.03 125.107 144.323 124.68C142.643 124.227 141.31 123.667 140.323 123L142.403 118.52C143.39 119.133 144.55 119.64 145.883 120.04C147.243 120.413 148.577 120.6 149.883 120.6C151.323 120.6 152.337 120.427 152.923 120.08C153.537 119.733 153.843 119.253 153.843 118.64C153.843 118.133 153.603 117.76 153.123 117.52C152.67 117.253 152.057 117.053 151.283 116.92C150.51 116.787 149.657 116.653 148.723 116.52C147.817 116.387 146.897 116.213 145.963 116C145.03 115.76 144.177 115.413 143.403 114.96C142.63 114.507 142.003 113.893 141.523 113.12C141.07 112.347 140.843 111.347 140.843 110.12C140.843 108.76 141.23 107.56 142.003 106.52C142.803 105.48 143.95 104.667 145.443 104.08C146.937 103.467 148.723 103.16 150.803 103.16C152.27 103.16 153.763 103.32 155.283 103.64C156.803 103.96 158.07 104.427 159.083 105.04L157.003 109.48C155.963 108.867 154.91 108.453 153.843 108.24C152.803 108 151.79 107.88 150.803 107.88C149.417 107.88 148.403 108.067 147.763 108.44C147.123 108.813 146.803 109.293 146.803 109.88C146.803 110.413 147.03 110.813 147.483 111.08C147.963 111.347 148.59 111.56 149.363 111.72C150.137 111.88 150.977 112.027 151.883 112.16C152.817 112.267 153.75 112.44 154.683 112.68C155.617 112.92 156.457 113.267 157.203 113.72C157.977 114.147 158.603 114.747 159.083 115.52C159.563 116.267 159.803 117.253 159.803 118.48C159.803 119.813 159.403 121 158.603 122.04C157.803 123.053 156.643 123.853 155.123 124.44C153.63 125.027 151.803 125.32 149.643 125.32Z" fill="#FFFFFF"/>
<circle cx="403" cy="110" r="105" stroke="#FFFFFF" stroke-width="10"/>
<path d="M335.777 125L348.257 97H354.657L367.177 125H360.377L350.137 100.28H352.697L342.417 125H335.777ZM342.017 119L343.737 114.08H358.137L359.897 119H342.017ZM382.362 125.32C380.548 125.32 378.962 124.92 377.602 124.12C376.242 123.32 375.175 122.107 374.402 120.48C373.655 118.827 373.282 116.747 373.282 114.24C373.282 111.707 373.642 109.627 374.362 108C375.082 106.373 376.122 105.16 377.482 104.36C378.842 103.56 380.468 103.16 382.362 103.16C384.388 103.16 386.202 103.627 387.802 104.56C389.428 105.467 390.708 106.747 391.642 108.4C392.602 110.053 393.082 112 393.082 114.24C393.082 116.507 392.602 118.467 391.642 120.12C390.708 121.773 389.428 123.053 387.802 123.96C386.202 124.867 384.388 125.32 382.362 125.32ZM369.642 132.76V103.48H375.602V107.88L375.482 114.28L375.882 120.64V132.76H369.642ZM381.282 120.2C382.322 120.2 383.242 119.96 384.042 119.48C384.868 119 385.522 118.32 386.002 117.44C386.508 116.533 386.762 115.467 386.762 114.24C386.762 112.987 386.508 111.92 386.002 111.04C385.522 110.16 384.868 109.48 384.042 109C383.242 108.52 382.322 108.28 381.282 108.28C380.242 108.28 379.308 108.52 378.482 109C377.655 109.48 377.002 110.16 376.522 111.04C376.042 111.92 375.802 112.987 375.802 114.24C375.802 115.467 376.042 116.533 376.522 117.44C377.002 118.32 377.655 119 378.482 119.48C379.308 119.96 380.242 120.2 381.282 120.2ZM407.499 125.32C405.206 125.32 403.166 124.84 401.379 123.88C399.619 122.92 398.219 121.613 397.179 119.96C396.166 118.28 395.659 116.373 395.659 114.24C395.659 112.08 396.166 110.173 397.179 108.52C398.219 106.84 399.619 105.533 401.379 104.6C403.166 103.64 405.206 103.16 407.499 103.16C409.766 103.16 411.792 103.64 413.579 104.6C415.366 105.533 416.766 106.827 417.779 108.48C418.792 110.133 419.299 112.053 419.299 114.24C419.299 116.373 418.792 118.28 417.779 119.96C416.766 121.613 415.366 122.92 413.579 123.88C411.792 124.84 409.766 125.32 407.499 125.32ZM407.499 120.2C408.539 120.2 409.472 119.96 410.299 119.48C411.126 119 411.779 118.32 412.259 117.44C412.739 116.533 412.979 115.467 412.979 114.24C412.979 112.987 412.739 111.92 412.259 111.04C411.779 110.16 411.126 109.48 410.299 109C409.472 108.52 408.539 108.28 407.499 108.28C406.459 108.28 405.526 108.52 404.699 109C403.872 109.48 403.206 110.16 402.699 111.04C402.219 111.92 401.979 112.987 401.979 114.24C401.979 115.467 402.219 116.533 402.699 117.44C403.206 118.32 403.872 119 404.699 119.48C405.526 119.96 406.459 120.2 407.499 120.2ZM423.47 125V95.32H429.71V125H423.47ZM435.501 125V95.32H441.741V125H435.501ZM457.772 125.32C455.479 125.32 453.439 124.84 451.652 123.88C449.892 122.92 448.492 121.613 447.452 119.96C446.439 118.28 445.932 116.373 445.932 114.24C445.932 112.08 446.439 110.173 447.452 108.52C448.492 106.84 449.892 105.533 451.652 104.6C453.439 103.64 455.479 103.16 457.772 103.16C460.039 103.16 462.066 103.64 463.852 104.6C465.639 105.533 467.039 106.827 468.052 108.48C469.066 110.133 469.572 112.053 469.572 114.24C469.572 116.373 469.066 118.28 468.052 119.96C467.039 121.613 465.639 122.92 463.852 123.88C462.066 124.84 460.039 125.32 457.772 125.32ZM457.772 120.2C458.812 120.2 459.746 119.96 460.572 119.48C461.399 119 462.052 118.32 462.532 117.44C463.012 116.533 463.252 115.467 463.252 114.24C463.252 112.987 463.012 111.92 462.532 111.04C462.052 110.16 461.399 109.48 460.572 109C459.746 108.52 458.812 108.28 457.772 108.28C456.732 108.28 455.799 108.52 454.972 109C454.146 109.48 453.479 110.16 452.972 111.04C452.492 111.92 452.252 112.987 452.252 114.24C452.252 115.467 452.492 116.533 452.972 117.44C453.479 118.32 454.146 119 454.972 119.48C455.799 119.96 456.732 120.2 457.772 120.2Z" fill="#FFFFFF"/>
<circle cx="651" cy="299" r="105" stroke="#FFFFFF" stroke-width="10"/>
<path d="M607.856 286H614.336V314H607.856V286ZM595.136 314H588.656V286H595.136V314ZM608.336 302.52H594.656V297.04H608.336V302.52ZM633.721 314V309.8L633.321 308.88V301.36C633.321 300.027 632.907 298.987 632.081 298.24C631.281 297.493 630.041 297.12 628.361 297.12C627.214 297.12 626.081 297.307 624.961 297.68C623.867 298.027 622.934 298.507 622.161 299.12L619.921 294.76C621.094 293.933 622.507 293.293 624.161 292.84C625.814 292.387 627.494 292.16 629.201 292.16C632.481 292.16 635.027 292.933 636.841 294.48C638.654 296.027 639.561 298.44 639.561 301.72V314H633.721ZM627.161 314.32C625.481 314.32 624.041 314.04 622.841 313.48C621.641 312.893 620.721 312.107 620.081 311.12C619.441 310.133 619.121 309.027 619.121 307.8C619.121 306.52 619.427 305.4 620.041 304.44C620.681 303.48 621.681 302.733 623.041 302.2C624.401 301.64 626.174 301.36 628.361 301.36H634.081V305H629.041C627.574 305 626.561 305.24 626.001 305.72C625.467 306.2 625.201 306.8 625.201 307.52C625.201 308.32 625.507 308.96 626.121 309.44C626.761 309.893 627.627 310.12 628.721 310.12C629.761 310.12 630.694 309.88 631.521 309.4C632.347 308.893 632.947 308.16 633.321 307.2L634.281 310.08C633.827 311.467 633.001 312.52 631.801 313.24C630.601 313.96 629.054 314.32 627.161 314.32ZM654.604 314.32C652.578 314.32 650.751 313.867 649.124 312.96C647.498 312.027 646.204 310.733 645.244 309.08C644.311 307.427 643.844 305.48 643.844 303.24C643.844 300.973 644.311 299.013 645.244 297.36C646.204 295.707 647.498 294.427 649.124 293.52C650.751 292.613 652.578 292.16 654.604 292.16C656.418 292.16 658.004 292.56 659.364 293.36C660.724 294.16 661.778 295.373 662.524 297C663.271 298.627 663.644 300.707 663.644 303.24C663.644 305.747 663.284 307.827 662.564 309.48C661.844 311.107 660.804 312.32 659.444 313.12C658.111 313.92 656.498 314.32 654.604 314.32ZM655.684 309.2C656.698 309.2 657.618 308.96 658.444 308.48C659.271 308 659.924 307.32 660.404 306.44C660.911 305.533 661.164 304.467 661.164 303.24C661.164 301.987 660.911 300.92 660.404 300.04C659.924 299.16 659.271 298.48 658.444 298C657.618 297.52 656.698 297.28 655.684 297.28C654.644 297.28 653.711 297.52 652.884 298C652.058 298.48 651.391 299.16 650.884 300.04C650.404 300.92 650.164 301.987 650.164 303.24C650.164 304.467 650.404 305.533 650.884 306.44C651.391 307.32 652.058 308 652.884 308.48C653.711 308.96 654.644 309.2 655.684 309.2ZM661.324 314V309.6L661.444 303.2L661.044 296.84V284.32H667.284V314H661.324ZM683.74 314.32C681.286 314.32 679.126 313.84 677.26 312.88C675.42 311.92 673.993 310.613 672.98 308.96C671.966 307.28 671.46 305.373 671.46 303.24C671.46 301.08 671.953 299.173 672.94 297.52C673.953 295.84 675.326 294.533 677.06 293.6C678.793 292.64 680.753 292.16 682.94 292.16C685.046 292.16 686.94 292.613 688.62 293.52C690.326 294.4 691.673 295.68 692.66 297.36C693.646 299.013 694.14 301 694.14 303.32C694.14 303.56 694.126 303.84 694.1 304.16C694.073 304.453 694.046 304.733 694.02 305H676.54V301.36H690.74L688.34 302.44C688.34 301.32 688.113 300.347 687.66 299.52C687.206 298.693 686.58 298.053 685.78 297.6C684.98 297.12 684.046 296.88 682.98 296.88C681.913 296.88 680.966 297.12 680.14 297.6C679.34 298.053 678.713 298.707 678.26 299.56C677.806 300.387 677.58 301.373 677.58 302.52V303.48C677.58 304.653 677.833 305.693 678.34 306.6C678.873 307.48 679.606 308.16 680.54 308.64C681.5 309.093 682.62 309.32 683.9 309.32C685.046 309.32 686.046 309.147 686.9 308.8C687.78 308.453 688.58 307.933 689.3 307.24L692.62 310.84C691.633 311.96 690.393 312.827 688.9 313.44C687.406 314.027 685.686 314.32 683.74 314.32ZM705.534 314.32C703.694 314.32 701.921 314.107 700.214 313.68C698.534 313.227 697.201 312.667 696.214 312L698.294 307.52C699.281 308.133 700.441 308.64 701.774 309.04C703.134 309.413 704.467 309.6 705.774 309.6C707.214 309.6 708.227 309.427 708.814 309.08C709.427 308.733 709.734 308.253 709.734 307.64C709.734 307.133 709.494 306.76 709.014 306.52C708.561 306.253 707.947 306.053 707.174 305.92C706.401 305.787 705.547 305.653 704.614 305.52C703.707 305.387 702.787 305.213 701.854 305C700.921 304.76 700.067 304.413 699.294 303.96C698.521 303.507 697.894 302.893 697.414 302.12C696.961 301.347 696.734 300.347 696.734 299.12C696.734 297.76 697.121 296.56 697.894 295.52C698.694 294.48 699.841 293.667 701.334 293.08C702.827 292.467 704.614 292.16 706.694 292.16C708.161 292.16 709.654 292.32 711.174 292.64C712.694 292.96 713.961 293.427 714.974 294.04L712.894 298.48C711.854 297.867 710.801 297.453 709.734 297.24C708.694 297 707.681 296.88 706.694 296.88C705.307 296.88 704.294 297.067 703.654 297.44C703.014 297.813 702.694 298.293 702.694 298.88C702.694 299.413 702.921 299.813 703.374 300.08C703.854 300.347 704.481 300.56 705.254 300.72C706.027 300.88 706.867 301.027 707.774 301.16C708.707 301.267 709.641 301.44 710.574 301.68C711.507 301.92 712.347 302.267 713.094 302.72C713.867 303.147 714.494 303.747 714.974 304.52C715.454 305.267 715.694 306.253 715.694 307.48C715.694 308.813 715.294 310 714.494 311.04C713.694 312.053 712.534 312.853 711.014 313.44C709.521 314.027 707.694 314.32 705.534 314.32Z" fill="#FFFFFF"/>
<circle cx="781" cy="589" r="105" stroke="#FFFFFF" stroke-width="10"/>
<path d="M721.899 576H728.379V604H721.899V576ZM709.179 604H702.699V576H709.179V604ZM722.379 592.52H708.699V587.04H722.379V592.52ZM745.244 604.32C742.79 604.32 740.63 603.84 738.764 602.88C736.924 601.92 735.497 600.613 734.484 598.96C733.47 597.28 732.964 595.373 732.964 593.24C732.964 591.08 733.457 589.173 734.444 587.52C735.457 585.84 736.83 584.533 738.564 583.6C740.297 582.64 742.257 582.16 744.444 582.16C746.55 582.16 748.444 582.613 750.124 583.52C751.83 584.4 753.177 585.68 754.164 587.36C755.15 589.013 755.644 591 755.644 593.32C755.644 593.56 755.63 593.84 755.604 594.16C755.577 594.453 755.55 594.733 755.524 595H738.044V591.36H752.244L749.844 592.44C749.844 591.32 749.617 590.347 749.164 589.52C748.71 588.693 748.084 588.053 747.284 587.6C746.484 587.12 745.55 586.88 744.484 586.88C743.417 586.88 742.47 587.12 741.644 587.6C740.844 588.053 740.217 588.707 739.764 589.56C739.31 590.387 739.084 591.373 739.084 592.52V593.48C739.084 594.653 739.337 595.693 739.844 596.6C740.377 597.48 741.11 598.16 742.044 598.64C743.004 599.093 744.124 599.32 745.404 599.32C746.55 599.32 747.55 599.147 748.404 598.8C749.284 598.453 750.084 597.933 750.804 597.24L754.124 600.84C753.137 601.96 751.897 602.827 750.404 603.44C748.91 604.027 747.19 604.32 745.244 604.32ZM759.798 604V582.48H765.758V588.56L764.918 586.8C765.558 585.28 766.585 584.133 767.998 583.36C769.411 582.56 771.131 582.16 773.158 582.16V587.92C772.891 587.893 772.651 587.88 772.438 587.88C772.225 587.853 771.998 587.84 771.758 587.84C770.051 587.84 768.665 588.333 767.598 589.32C766.558 590.28 766.038 591.787 766.038 593.84V604H759.798ZM804.467 582.16C806.174 582.16 807.681 582.507 808.987 583.2C810.321 583.867 811.361 584.907 812.107 586.32C812.881 587.707 813.267 589.493 813.267 591.68V604H807.027V592.64C807.027 590.907 806.667 589.627 805.947 588.8C805.227 587.973 804.214 587.56 802.907 587.56C802.001 587.56 801.187 587.773 800.467 588.2C799.747 588.6 799.187 589.213 798.787 590.04C798.387 590.867 798.187 591.92 798.187 593.2V604H791.947V592.64C791.947 590.907 791.587 589.627 790.867 588.8C790.174 587.973 789.174 587.56 787.867 587.56C786.961 587.56 786.147 587.773 785.427 588.2C784.707 588.6 784.147 589.213 783.747 590.04C783.347 590.867 783.147 591.92 783.147 593.2V604H776.907V582.48H782.867V588.36L781.747 586.64C782.494 585.173 783.547 584.067 784.907 583.32C786.294 582.547 787.867 582.16 789.627 582.16C791.601 582.16 793.321 582.667 794.787 583.68C796.281 584.667 797.267 586.187 797.747 588.24L795.547 587.64C796.267 585.96 797.414 584.627 798.987 583.64C800.587 582.653 802.414 582.16 804.467 582.16ZM829.697 604.32C827.243 604.32 825.083 603.84 823.217 602.88C821.377 601.92 819.95 600.613 818.937 598.96C817.923 597.28 817.417 595.373 817.417 593.24C817.417 591.08 817.91 589.173 818.897 587.52C819.91 585.84 821.283 584.533 823.017 583.6C824.75 582.64 826.71 582.16 828.897 582.16C831.003 582.16 832.897 582.613 834.577 583.52C836.283 584.4 837.63 585.68 838.617 587.36C839.603 589.013 840.097 591 840.097 593.32C840.097 593.56 840.083 593.84 840.057 594.16C840.03 594.453 840.003 594.733 839.977 595H822.497V591.36H836.697L834.297 592.44C834.297 591.32 834.07 590.347 833.617 589.52C833.163 588.693 832.537 588.053 831.737 587.6C830.937 587.12 830.003 586.88 828.937 586.88C827.87 586.88 826.923 587.12 826.097 587.6C825.297 588.053 824.67 588.707 824.217 589.56C823.763 590.387 823.537 591.373 823.537 592.52V593.48C823.537 594.653 823.79 595.693 824.297 596.6C824.83 597.48 825.563 598.16 826.497 598.64C827.457 599.093 828.577 599.32 829.857 599.32C831.003 599.32 832.003 599.147 832.857 598.8C833.737 598.453 834.537 597.933 835.257 597.24L838.577 600.84C837.59 601.96 836.35 602.827 834.857 603.44C833.363 604.027 831.643 604.32 829.697 604.32ZM851.491 604.32C849.651 604.32 847.878 604.107 846.171 603.68C844.491 603.227 843.158 602.667 842.171 602L844.251 597.52C845.238 598.133 846.398 598.64 847.731 599.04C849.091 599.413 850.424 599.6 851.731 599.6C853.171 599.6 854.184 599.427 854.771 599.08C855.384 598.733 855.691 598.253 855.691 597.64C855.691 597.133 855.451 596.76 854.971 596.52C854.518 596.253 853.904 596.053 853.131 595.92C852.358 595.787 851.504 595.653 850.571 595.52C849.664 595.387 848.744 595.213 847.811 595C846.878 594.76 846.024 594.413 845.251 593.96C844.478 593.507 843.851 592.893 843.371 592.12C842.918 591.347 842.691 590.347 842.691 589.12C842.691 587.76 843.078 586.56 843.851 585.52C844.651 584.48 845.798 583.667 847.291 583.08C848.784 582.467 850.571 582.16 852.651 582.16C854.118 582.16 855.611 582.32 857.131 582.64C858.651 582.96 859.918 583.427 860.931 584.04L858.851 588.48C857.811 587.867 856.758 587.453 855.691 587.24C854.651 587 853.638 586.88 852.651 586.88C851.264 586.88 850.251 587.067 849.611 587.44C848.971 587.813 848.651 588.293 848.651 588.88C848.651 589.413 848.878 589.813 849.331 590.08C849.811 590.347 850.438 590.56 851.211 590.72C851.984 590.88 852.824 591.027 853.731 591.16C854.664 591.267 855.598 591.44 856.531 591.68C857.464 591.92 858.304 592.267 859.051 592.72C859.824 593.147 860.451 593.747 860.931 594.52C861.411 595.267 861.651 596.253 861.651 597.48C861.651 598.813 861.251 600 860.451 601.04C859.651 602.053 858.491 602.853 856.971 603.44C855.478 604.027 853.651 604.32 851.491 604.32Z" fill="#FFFFFF"/>
<circle cx="403" cy="589" r="105" stroke="#FFFFFF" stroke-width="10"/>
<path d="M319.827 603L332.308 575H338.708L351.228 603H344.428L334.188 578.28H336.748L326.468 603H319.827ZM326.067 597L327.788 592.08H342.188L343.948 597H326.067ZM353.693 603V581.48H359.653V587.56L358.813 585.8C359.453 584.28 360.479 583.133 361.893 582.36C363.306 581.56 365.026 581.16 367.053 581.16V586.92C366.786 586.893 366.546 586.88 366.333 586.88C366.119 586.853 365.893 586.84 365.653 586.84C363.946 586.84 362.559 587.333 361.493 588.32C360.453 589.28 359.933 590.787 359.933 592.84V603H353.693ZM380.305 603.32C377.772 603.32 375.798 602.68 374.385 601.4C372.972 600.093 372.265 598.16 372.265 595.6V576.72H378.505V595.52C378.505 596.427 378.745 597.133 379.225 597.64C379.705 598.12 380.358 598.36 381.185 598.36C382.172 598.36 383.012 598.093 383.705 597.56L385.385 601.96C384.745 602.413 383.972 602.76 383.065 603C382.185 603.213 381.265 603.32 380.305 603.32ZM368.945 586.76V581.96H383.865V586.76H368.945ZM398.904 603.32C396.45 603.32 394.29 602.84 392.424 601.88C390.584 600.92 389.157 599.613 388.144 597.96C387.13 596.28 386.624 594.373 386.624 592.24C386.624 590.08 387.117 588.173 388.104 586.52C389.117 584.84 390.49 583.533 392.224 582.6C393.957 581.64 395.917 581.16 398.104 581.16C400.21 581.16 402.104 581.613 403.784 582.52C405.49 583.4 406.837 584.68 407.824 586.36C408.81 588.013 409.304 590 409.304 592.32C409.304 592.56 409.29 592.84 409.264 593.16C409.237 593.453 409.21 593.733 409.184 594H391.704V590.36H405.904L403.504 591.44C403.504 590.32 403.277 589.347 402.824 588.52C402.37 587.693 401.744 587.053 400.944 586.6C400.144 586.12 399.21 585.88 398.144 585.88C397.077 585.88 396.13 586.12 395.304 586.6C394.504 587.053 393.877 587.707 393.424 588.56C392.97 589.387 392.744 590.373 392.744 591.52V592.48C392.744 593.653 392.997 594.693 393.504 595.6C394.037 596.48 394.77 597.16 395.704 597.64C396.664 598.093 397.784 598.32 399.064 598.32C400.21 598.32 401.21 598.147 402.064 597.8C402.944 597.453 403.744 596.933 404.464 596.24L407.784 599.84C406.797 600.96 405.557 601.827 404.064 602.44C402.57 603.027 400.85 603.32 398.904 603.32ZM441.018 581.16C442.725 581.16 444.231 581.507 445.538 582.2C446.871 582.867 447.911 583.907 448.658 585.32C449.431 586.707 449.818 588.493 449.818 590.68V603H443.578V591.64C443.578 589.907 443.218 588.627 442.498 587.8C441.778 586.973 440.765 586.56 439.458 586.56C438.551 586.56 437.738 586.773 437.018 587.2C436.298 587.6 435.738 588.213 435.338 589.04C434.938 589.867 434.738 590.92 434.738 592.2V603H428.498V591.64C428.498 589.907 428.138 588.627 427.418 587.8C426.725 586.973 425.725 586.56 424.418 586.56C423.511 586.56 422.698 586.773 421.978 587.2C421.258 587.6 420.698 588.213 420.298 589.04C419.898 589.867 419.698 590.92 419.698 592.2V603H413.458V581.48H419.418V587.36L418.298 585.64C419.045 584.173 420.098 583.067 421.458 582.32C422.845 581.547 424.418 581.16 426.178 581.16C428.151 581.16 429.871 581.667 431.338 582.68C432.831 583.667 433.818 585.187 434.298 587.24L432.098 586.64C432.818 584.96 433.965 583.627 435.538 582.64C437.138 581.653 438.965 581.16 441.018 581.16ZM455.411 603V581.48H461.651V603H455.411ZM458.531 578.48C457.385 578.48 456.451 578.147 455.731 577.48C455.011 576.813 454.651 575.987 454.651 575C454.651 574.013 455.011 573.187 455.731 572.52C456.451 571.853 457.385 571.52 458.531 571.52C459.678 571.52 460.611 571.84 461.331 572.48C462.051 573.093 462.411 573.893 462.411 574.88C462.411 575.92 462.051 576.787 461.331 577.48C460.638 578.147 459.705 578.48 458.531 578.48ZM474.683 603.32C472.843 603.32 471.069 603.107 469.363 602.68C467.683 602.227 466.349 601.667 465.363 601L467.443 596.52C468.429 597.133 469.589 597.64 470.923 598.04C472.283 598.413 473.616 598.6 474.923 598.6C476.363 598.6 477.376 598.427 477.963 598.08C478.576 597.733 478.883 597.253 478.883 596.64C478.883 596.133 478.643 595.76 478.163 595.52C477.709 595.253 477.096 595.053 476.322 594.92C475.549 594.787 474.696 594.653 473.763 594.52C472.856 594.387 471.936 594.213 471.003 594C470.069 593.76 469.216 593.413 468.443 592.96C467.669 592.507 467.043 591.893 466.563 591.12C466.109 590.347 465.882 589.347 465.882 588.12C465.882 586.76 466.269 585.56 467.043 584.52C467.843 583.48 468.989 582.667 470.483 582.08C471.976 581.467 473.763 581.16 475.843 581.16C477.309 581.16 478.803 581.32 480.323 581.64C481.843 581.96 483.109 582.427 484.123 583.04L482.043 587.48C481.003 586.867 479.949 586.453 478.883 586.24C477.843 586 476.829 585.88 475.843 585.88C474.456 585.88 473.443 586.067 472.803 586.44C472.163 586.813 471.843 587.293 471.843 587.88C471.843 588.413 472.069 588.813 472.523 589.08C473.003 589.347 473.629 589.56 474.403 589.72C475.176 589.88 476.016 590.027 476.923 590.16C477.856 590.267 478.789 590.44 479.723 590.68C480.656 590.92 481.496 591.267 482.243 591.72C483.016 592.147 483.643 592.747 484.123 593.52C484.603 594.267 484.843 595.253 484.843 596.48C484.843 597.813 484.443 599 483.643 600.04C482.843 601.053 481.683 601.853 480.163 602.44C478.669 603.027 476.843 603.32 474.683 603.32Z" fill="#FFFFFF"/>
<circle cx="110" cy="404" r="105" stroke="#FFFFFF" stroke-width="10"/>
<path d="M33.0384 418L45.5184 390H51.9184L64.4384 418H57.6384L47.3984 393.28H49.9584L39.6784 418H33.0384ZM39.2784 412L40.9984 407.08H55.3984L57.1584 412H39.2784ZM75.5081 418.32C72.9748 418.32 71.0015 417.68 69.5881 416.4C68.1748 415.093 67.4681 413.16 67.4681 410.6V391.72H73.7081V410.52C73.7081 411.427 73.9481 412.133 74.4281 412.64C74.9081 413.12 75.5615 413.36 76.3881 413.36C77.3748 413.36 78.2148 413.093 78.9081 412.56L80.5881 416.96C79.9481 417.413 79.1748 417.76 78.2681 418C77.3881 418.213 76.4681 418.32 75.5081 418.32ZM64.1481 401.76V396.96H79.0681V401.76H64.1481ZM97.1709 396.16C98.8776 396.16 100.398 396.507 101.731 397.2C103.091 397.867 104.158 398.907 104.931 400.32C105.704 401.707 106.091 403.493 106.091 405.68V418H99.8509V406.64C99.8509 404.907 99.4643 403.627 98.6909 402.8C97.9443 401.973 96.8776 401.56 95.4909 401.56C94.5043 401.56 93.6109 401.773 92.8109 402.2C92.0376 402.6 91.4243 403.227 90.9709 404.08C90.5443 404.933 90.3309 406.027 90.3309 407.36V418H84.0909V388.32H90.3309V402.44L88.9309 400.64C89.7043 399.2 90.8109 398.093 92.2509 397.32C93.6909 396.547 95.3309 396.16 97.1709 396.16ZM122.583 418.32C120.13 418.32 117.97 417.84 116.103 416.88C114.263 415.92 112.837 414.613 111.823 412.96C110.81 411.28 110.303 409.373 110.303 407.24C110.303 405.08 110.797 403.173 111.783 401.52C112.797 399.84 114.17 398.533 115.903 397.6C117.637 396.64 119.597 396.16 121.783 396.16C123.89 396.16 125.783 396.613 127.463 397.52C129.17 398.4 130.517 399.68 131.503 401.36C132.49 403.013 132.983 405 132.983 407.32C132.983 407.56 132.97 407.84 132.943 408.16C132.917 408.453 132.89 408.733 132.863 409H115.383V405.36H129.583L127.183 406.44C127.183 405.32 126.957 404.347 126.503 403.52C126.05 402.693 125.423 402.053 124.623 401.6C123.823 401.12 122.89 400.88 121.823 400.88C120.757 400.88 119.81 401.12 118.983 401.6C118.183 402.053 117.557 402.707 117.103 403.56C116.65 404.387 116.423 405.373 116.423 406.52V407.48C116.423 408.653 116.677 409.693 117.183 410.6C117.717 411.48 118.45 412.16 119.383 412.64C120.343 413.093 121.463 413.32 122.743 413.32C123.89 413.32 124.89 413.147 125.743 412.8C126.623 412.453 127.423 411.933 128.143 411.24L131.463 414.84C130.477 415.96 129.237 416.827 127.743 417.44C126.25 418.027 124.53 418.32 122.583 418.32ZM150.218 396.16C151.924 396.16 153.444 396.507 154.778 397.2C156.138 397.867 157.204 398.907 157.978 400.32C158.751 401.707 159.138 403.493 159.138 405.68V418H152.898V406.64C152.898 404.907 152.511 403.627 151.738 402.8C150.991 401.973 149.924 401.56 148.538 401.56C147.551 401.56 146.658 401.773 145.858 402.2C145.084 402.6 144.471 403.227 144.018 404.08C143.591 404.933 143.378 406.027 143.378 407.36V418H137.138V396.48H143.098V402.44L141.978 400.64C142.751 399.2 143.858 398.093 145.298 397.32C146.738 396.547 148.378 396.16 150.218 396.16ZM177.994 418V413.8L177.594 412.88V405.36C177.594 404.027 177.181 402.987 176.354 402.24C175.554 401.493 174.314 401.12 172.634 401.12C171.487 401.12 170.354 401.307 169.234 401.68C168.141 402.027 167.207 402.507 166.434 403.12L164.194 398.76C165.367 397.933 166.781 397.293 168.434 396.84C170.087 396.387 171.767 396.16 173.474 396.16C176.754 396.16 179.301 396.933 181.114 398.48C182.927 400.027 183.834 402.44 183.834 405.72V418H177.994ZM171.434 418.32C169.754 418.32 168.314 418.04 167.114 417.48C165.914 416.893 164.994 416.107 164.354 415.12C163.714 414.133 163.394 413.027 163.394 411.8C163.394 410.52 163.701 409.4 164.314 408.44C164.954 407.48 165.954 406.733 167.314 406.2C168.674 405.64 170.447 405.36 172.634 405.36H178.354V409H173.314C171.847 409 170.834 409.24 170.274 409.72C169.741 410.2 169.474 410.8 169.474 411.52C169.474 412.32 169.781 412.96 170.394 413.44C171.034 413.893 171.901 414.12 172.994 414.12C174.034 414.12 174.967 413.88 175.794 413.4C176.621 412.893 177.221 412.16 177.594 411.2L178.554 414.08C178.101 415.467 177.274 416.52 176.074 417.24C174.874 417.96 173.327 418.32 171.434 418.32Z" fill="#FFFFFF"/>
<line x1="210" y1="120" x2="303" y2="120" stroke="#FFFFFF" stroke-width="10"/>
<line x1="352.862" y1="202.176" x2="213.862" y2="371.176" stroke="#FFFFFF" stroke-width="10"/>
<line x1="580.899" y1="382.131" x2="474.899" y2="514.131" stroke="#FFFFFF" stroke-width="10"/>
<line x1="675.06" y1="595" x2="507.06" y2="597" stroke="#FFFFFF" stroke-width="10"/>
<line x1="776.698" y1="484.548" x2="715.698" y2="381.548" stroke="#FFFFFF" stroke-width="10"/>
</svg>
