<svg width="189" height="59" viewBox="0 0 189 59" fill="none" xmlns="http://www.w3.org/2000/svg">
<path d="M56.418 1.1994H62.0333V9.59143H70.6791V1.11377H76.2944V21.7513H70.6791V13.7874H62.0333V21.7513H56.418V1.1994Z" fill="white"/>
<path d="M96.3526 21.8363L94.8374 18.1541H85.5676L84.0524 21.8363H78.2588L87.5285 1.19873H93.3221L102.324 21.8363H96.3526ZM87.2611 14.1293H93.233L90.2916 6.76487L87.2611 14.1293Z" fill="white"/>
<path d="M116.765 6.16569C115.784 5.65189 114.893 5.39499 113.913 5.39499C112.843 5.39499 111.863 5.65189 110.971 6.16569C110.08 6.67949 109.367 7.36455 108.832 8.30651C108.297 9.24847 108.03 10.2761 108.03 11.3893C108.03 12.5025 108.297 13.5301 108.832 14.4721C109.367 15.414 110.08 16.0991 110.971 16.6129C111.863 17.1267 112.843 17.3836 113.913 17.3836C114.804 17.3836 115.695 17.2123 116.676 16.6985C117.656 16.2704 118.458 15.6709 119.261 14.9002L122.558 18.3256C121.4 19.5244 119.974 20.4664 118.369 21.1515C116.765 21.8365 115.16 22.179 113.556 22.179C111.417 22.179 109.545 21.6653 107.763 20.7233C106.069 19.7813 104.732 18.4968 103.752 16.8698C102.771 15.2428 102.236 13.4445 102.236 11.3893C102.236 9.41974 102.771 7.53581 103.752 5.99442C104.732 4.3674 106.158 3.0829 107.852 2.22657C109.634 1.28461 111.595 0.856445 113.734 0.856445C115.339 0.856445 116.943 1.19898 118.458 1.79841C120.063 2.48347 121.311 3.3398 122.38 4.45303L119.082 8.22088C118.548 7.36455 117.656 6.67949 116.765 6.16569Z" fill="white"/>
<path d="M145.55 21.8363H138.866L133.25 13.7868L130.576 16.6983V21.8363H124.961V1.19873H130.576V10.1902L138.687 1.19873H145.194L137.261 9.67639L145.55 21.8363Z" fill="white"/>
<path d="M56.3301 37.5918H61.9454V58.2293H56.3301V37.5918Z" fill="white"/>
<path d="M66.1348 37.5918H71.7501V53.6908H80.8416V58.315H66.1348V37.5918Z" fill="white"/>
<path d="M85.1182 37.5918H90.7335V53.6908H99.825V58.315H85.1182V37.5918Z" fill="white"/>
<path d="M103.038 37.5918H108.653V58.2293H103.038V37.5918Z" fill="white"/>
<path d="M128.081 37.5918H133.25V58.2293H128.348L118.633 45.8982V58.2293H113.374V37.5918H118.276L128.081 50.0086V37.5918Z" fill="white"/>
<path d="M154.286 38.7048C156.069 39.6468 157.405 40.9313 158.475 42.4727C159.456 44.0997 159.99 45.898 159.99 47.8675C159.99 49.9227 159.456 51.721 158.475 53.3481C157.495 54.9751 156.069 56.2596 154.286 57.2015C152.503 58.1435 150.542 58.6573 148.314 58.6573C146.086 58.6573 144.125 58.2291 142.342 57.2872C140.56 56.3452 139.223 55.0607 138.153 53.4337C137.172 51.8067 136.638 49.9227 136.638 47.9532C136.638 45.9836 137.172 44.0997 138.153 42.5583C139.133 40.9313 140.56 39.6468 142.342 38.7905C144.125 37.9341 146.086 37.4203 148.314 37.4203C150.542 37.2491 152.503 37.7629 154.286 38.7048ZM145.462 42.6439C144.57 43.1577 143.857 43.9284 143.323 44.8704C142.788 45.8124 142.52 46.84 142.52 47.9532C142.52 49.0664 142.788 50.094 143.323 51.036C143.857 51.9779 144.57 52.663 145.462 53.2624C146.353 53.7762 147.334 54.1187 148.403 54.1187C149.473 54.1187 150.453 53.8619 151.344 53.2624C152.236 52.7486 152.949 51.9779 153.484 51.036C154.018 50.094 154.286 49.0664 154.286 47.9532C154.286 46.84 154.018 45.8124 153.484 44.8704C152.949 43.9284 152.236 43.2434 151.344 42.6439C150.453 42.1301 149.473 41.8732 148.403 41.8732C147.334 41.8732 146.353 42.1301 145.462 42.6439Z" fill="white"/>
<path d="M162.486 37.5918H168.102V58.2293H162.486V37.5918Z" fill="white"/>
<path d="M183.165 42.2172C181.828 41.789 180.759 41.6178 179.867 41.6178C179.154 41.6178 178.619 41.7034 178.263 41.9603C177.906 42.2172 177.639 42.5597 177.639 43.0735C177.639 43.5017 177.817 43.9299 178.174 44.1868C178.53 44.5293 178.976 44.7006 179.422 44.9575C179.956 45.1287 180.669 45.3856 181.65 45.6425C183.165 46.0707 184.413 46.4988 185.304 46.8414C186.285 47.2695 187.087 47.869 187.8 48.7253C188.513 49.5816 188.87 50.6949 188.87 52.065C188.87 53.4351 188.513 54.634 187.711 55.5759C186.998 56.5179 185.928 57.2886 184.591 57.8024C183.254 58.3162 181.828 58.5731 180.224 58.5731C178.441 58.5731 176.658 58.2306 174.876 57.7168C173.093 57.1173 171.578 56.261 170.33 55.2334L172.469 51.0374C173.539 51.9794 174.876 52.75 176.302 53.3495C177.817 53.9489 179.065 54.2058 180.224 54.2058C181.026 54.2058 181.739 54.0345 182.185 53.7776C182.63 53.5207 182.898 53.0926 182.898 52.4931C182.898 51.9794 182.719 51.6368 182.363 51.2943C182.006 50.9518 181.561 50.6949 181.026 50.5236C180.491 50.3523 179.689 50.0954 178.708 49.8385C177.193 49.4104 176.035 49.0678 175.054 48.6397C174.074 48.2115 173.271 47.6121 172.558 46.8414C171.845 45.985 171.489 44.9574 171.489 43.5873C171.489 42.3028 171.845 41.1896 172.558 40.2476C173.271 39.3057 174.252 38.535 175.589 38.0212C176.926 37.5074 178.352 37.2505 180.135 37.2505C181.65 37.2505 183.254 37.4218 184.769 37.8499C186.285 38.2781 187.622 38.8775 188.78 39.5626L186.641 43.8442C185.661 43.1592 184.413 42.6454 183.165 42.2172Z" fill="white"/>
<path d="M40.8225 0V12.8449H29.2353V23.4634H11.7654V12.9306H0L7.7545 0.0856349L40.8225 0.0856349V0Z" fill="white"/>
<path d="M40.8225 45.4697L33.3354 58.3147H0L0 45.4697H11.7654V34.7656H29.3245V45.3841H40.8225V45.4697Z" fill="white"/>
</svg>
