<svg width="441" height="495" viewBox="0 0 441 495" fill="none" xmlns="http://www.w3.org/2000/svg">
<path d="M115.504 62.2894C110.989 59.3036 106.26 55.5765 102.727 51.4646C98.2165 46.2141 92.799 32.9509 92.9965 26.1172C93.0292 24.9708 93.7739 18.3628 94.0797 17.67C94.6022 16.4852 102.708 9.81857 104.469 7.70507C105.382 6.61052 106.399 5.16728 106.844 3.80078C115.058 10.5486 124.187 17.433 131.958 24.8071C133.734 26.493 136.155 28.0468 134.352 30.6828C127.779 41.0189 122.24 52.0649 115.503 62.2894H115.504Z" fill="#7E7E7E"/>
<path d="M106.846 3.80079C106.4 5.16841 105.384 6.61052 104.471 7.70508C102.708 9.81745 94.6039 16.4852 94.0815 17.67C93.7757 18.3628 93.0309 24.9708 92.9982 26.1172C92.7996 32.9497 98.2171 46.2141 102.729 51.4646C106.262 55.5765 110.991 59.3036 115.506 62.2894C113.474 65.3711 114.199 66.3674 109.641 66.2049C100.94 65.8935 91.6565 63.7258 82.8447 63.5656C81.7231 63.3918 80.1828 62.3582 80 61.1813L84.7822 36.4861C83.991 33.6269 82.7502 22.8909 83.5601 20.1423C89.1097 13.4509 94.6513 6.67258 100.632 0.390751C103.427 -1.19014 105.199 2.44783 106.847 3.80079H106.846Z" fill="#676767"/>
<path d="M379.977 32.6245C381.664 35.7739 382.58 39.4283 384.124 42.7037C384.768 44.065 386.249 46.648 387.175 48.6107C395.757 66.8281 406.119 85.9184 413.749 104.353C414.998 107.369 417.214 110.795 412.901 112.216C407.143 114.112 396.308 114.595 389.87 115.484C388.605 111.101 388.565 106.187 387.655 101.807C383.859 83.4956 378.394 65.4261 377.249 46.5598L370.604 31.0623C375.419 26.7638 376.82 26.7312 379.976 32.6259L379.977 32.6245Z" fill="#676767"/>
<path d="M370.603 31.0609L377.249 46.5585C378.394 65.4247 383.859 83.4942 387.655 101.805C388.563 106.187 388.604 111.1 389.87 115.483C385.91 116.03 373.44 118.849 370.451 117.976C369.774 117.778 369.212 117.065 368.793 116.514L368 77.4421C369.865 72.5722 368.935 65.1098 369.041 59.7241C369.072 58.1646 369.022 56.5942 369.041 55.0333C369.08 51.6958 369.562 48.008 369.562 44.8713V36.5335C369.562 33.2497 368.332 32.275 370.605 31.0623C372.878 29.8496 370.603 31.0609 370.603 31.0609Z" fill="#7E7E7E"/>
<path d="M111.905 411.283C111.348 412.311 110.156 411.271 109.561 411.279C109.338 411.282 109.434 411.968 108.684 412.189C107.234 412.616 103.799 412.952 102.183 413.034C99.0234 413.195 93.2392 413.192 90.4418 411.751C89.8562 411.45 86.8862 408.286 86.3637 407.601C84.8776 405.651 84.0618 402.905 82.0352 401.319C82.3996 396.394 83.6037 398.344 86.2295 395.983C86.8896 395.39 87.5926 393.432 88.3847 393.154C90.0266 392.58 90.9925 393.784 92.2315 393.929C93.6872 394.101 95.5931 393.664 96.8794 394.043C97.9514 394.359 99.6057 397.586 101.113 398.471C102.533 399.305 108.583 401.31 109.341 402.369C110.04 403.347 109.646 405.204 109.93 406.545C110.152 407.594 111.371 410.182 111.903 411.284L111.905 411.283Z" fill="#7E7E7E"/>
<path d="M82.0353 401.319C84.0619 402.905 84.8777 405.65 86.3639 407.6C86.8863 408.285 89.8563 411.449 90.442 411.751C93.2393 413.192 99.0235 413.194 102.183 413.034C103.799 412.952 107.234 412.615 108.684 412.188C109.433 411.967 109.338 411.281 109.561 411.278C110.156 411.27 111.348 412.31 111.906 411.282C112.152 411.792 114.064 412.931 113.023 414.345C112.894 414.519 109.87 415.51 109.019 415.977C106.411 417.405 104.516 419.037 102.882 421.532C102.407 422.256 102.365 423.65 101.522 424.071C100.834 424.414 91.9078 424.47 90.9937 424.196C89.4016 423.72 88.9513 417.879 88.2641 416.096C88.0746 415.603 86.0468 412.027 85.8143 411.837C85.2287 411.361 84.2447 411.465 83.7663 411.067C82.8297 410.288 83.0452 407.204 82.7981 405.97C82.3704 403.835 81.8581 403.723 82.0364 401.317L82.0353 401.319Z" fill="#676767"/>
<path d="M37.533 61.1164C40.7947 66.2301 43.9975 72.4096 47.5181 77.4206C50.451 81.596 50.9455 80.5412 54.0894 83.2028C57.8552 86.3892 52.3455 88.0645 49.6195 89.518C41.3152 93.9481 42.5824 94.2303 36.4809 100.563C33.5891 103.565 34.7206 102.052 31.2261 102.667C29.887 99.597 25.7721 96.0066 23.3438 93.7262C24.7917 93.3755 27.015 91.196 27.763 89.9974C28.7479 88.4193 33.9179 76.0905 34.2631 74.4124C35.1672 70.0165 33.8384 63.6425 34.3795 59.0137C35.8384 59.0835 36.7385 59.8726 37.533 61.1178V61.1164Z" fill="#676767"/>
<path d="M34.3799 59.0123C33.8388 63.6411 35.1676 70.0151 34.2635 74.411C33.9182 76.0891 28.7483 88.4179 27.7634 89.996C27.0154 91.1946 24.7907 93.3741 23.3441 93.7248C21.1996 91.7088 18.6304 89.111 16.5125 86.3617C16.0665 85.7812 14.8194 83.2516 15.0221 82.5261C15.3495 81.3535 20.0838 75.6288 21.1427 73.9028C22.751 71.2822 23.9469 67.5219 25.4469 65.3246C26.0647 64.4191 30.5744 60.2369 31.5456 59.5917C32.3922 59.0301 33.4004 58.9657 34.3813 59.0123H34.3799Z" fill="#7E7E7E"/>
<path d="M14.9662 397.086C18.5 399.981 22.2878 402.639 25.7921 405.458C27.797 407.07 30.0891 409.686 32.1889 411.367C31.1243 413.153 28.6538 413.012 26.9273 413.735C24.9686 414.555 13.2666 420.156 12.7471 421.214C12.81 426.621 14.0016 432.638 15.1201 438.053C18.078 452.378 23.4666 465.824 27.0543 479.789C27.552 481.725 26.463 484.423 29.2349 484.748C29.24 485.01 29.7082 485.724 29.73 486.447C30.0635 497.484 28.0676 496.194 20.0456 491.729C17.874 490.519 4.84955 483.024 4.23385 481.943C3.88881 481.19 3.73232 480.397 3.64638 479.575C2.1777 465.471 3.41036 449.78 2.16871 435.5C1.71079 431.898 1.83008 428.278 1.67616 424.665C1.52993 421.237 1.32727 417.781 1.18361 414.322C1.04764 411.045 0.805211 407.774 0.691051 404.473C0.574326 401.098 -0.508269 393.197 0.293415 390.533C0.37679 390.254 4.63405 387 4.63405 387L8.7964 392.146C8.7964 392.146 13.7591 396.099 14.961 397.084L14.9662 397.086Z" fill="#676767"/>
<path d="M34.1582 411.86C36.7236 414.195 39.1363 416.429 42.0314 418.754C44.176 420.477 46.3925 421.529 47.9369 422.695C50.5112 424.637 53.1113 427.275 56.3026 429.589C56.3783 429.644 56.3244 430.288 56.6002 430.527C58.5614 432.224 61.037 433.493 58.9834 436.462L29.493 465.057C29.1274 471.591 29.0979 478.208 29.2378 484.747C26.4659 484.421 27.5536 481.725 27.0572 479.788C23.4695 465.823 18.0809 452.377 15.123 438.052C14.0045 432.637 12.8129 426.621 12.75 421.213C13.2682 420.155 24.9702 414.554 26.9302 413.734C28.6567 413.012 31.1272 413.152 32.1918 411.366C32.5061 411.618 33.9286 411.648 34.1607 411.859L34.1582 411.86Z" fill="#7E7E7E"/>
<path d="M142.237 446.035C146.007 447.054 148.001 451.609 149.833 454.722L164.748 447.335C165.114 448.356 166.362 451.238 166.471 451.92C167.033 455.408 163.163 456.568 161.288 458.387C158.966 460.64 155.135 468.318 151.521 468.107C150.746 468.062 147.728 464.831 147.012 464.002C143.835 460.325 141.127 455.934 138.087 452.12C137.399 449.944 140.977 447.649 142.237 446.035Z" fill="#676767"/>
<path d="M164.749 447.335L149.834 454.722C148.002 451.609 146.008 447.054 142.238 446.035C142.343 445.902 142.353 445.352 142.66 444.957C143.511 443.862 148.289 437.372 148.732 437.155C150.215 436.427 157.185 435.821 158.926 436.049C159.943 436.182 160.506 436.49 161.037 437.403C161.846 440.875 163.56 444.017 164.748 447.335H164.749Z" fill="#7E7E7E"/>
<path d="M424.341 351.006C425.775 350.956 426.482 351.175 426.859 352.687L437.117 396.762L438.331 397.017C438.483 398.071 438.313 398.042 437.513 398.44C438.247 402.572 440.337 407.587 440.682 411.667C440.868 413.88 440.826 414.67 438.655 415.541L374.523 432.998C373.479 433.037 372.527 432.458 372.055 431.538C370.992 429.468 370.288 423.628 369.573 421.019C372.35 420.253 375.144 419.428 377.965 418.815C380.422 418.282 385.061 417.955 387.06 417.117C388.257 416.616 392.381 411.046 393.542 409.601C401.565 399.614 409.191 389.884 415.354 378.62C419.236 371.526 423.077 364.951 423.889 356.755C424.078 354.839 423.653 352.874 424.34 351.005L424.341 351.006Z" fill="#676767"/>
<path d="M424.341 351.006C423.654 352.874 424.079 354.838 423.89 356.756C423.078 364.951 419.236 371.526 415.355 378.62C409.193 389.884 401.566 399.614 393.543 409.601C392.382 411.047 388.258 416.617 387.061 417.117C385.061 417.955 380.422 418.282 377.966 418.816C375.145 419.429 372.351 420.255 369.574 421.02C369.512 420.791 369.101 420.377 368.965 419.849C368.255 417.108 366.074 410.696 366.001 408.373C365.945 406.593 367.938 406.132 368.187 404.231L423.136 351.183C423.525 351.024 423.93 351.02 424.342 351.006H424.341Z" fill="#7E7E7E"/>
</svg>
