<svg width="568" height="306" viewBox="0 0 568 306" fill="none" xmlns="http://www.w3.org/2000/svg">
<circle cx="90.9194" cy="206.334" r="90.9194" fill="#8ED1FB"/>
<path d="M81.3968 115.937C83.0615 117.15 84.6221 117.497 86.3959 118.602C94.7572 123.811 101.102 133.3 93.5765 142.328C81.5732 156.727 52.1397 152.525 43.6501 168.984C42.124 171.941 42.0875 173.113 44.2534 175.727C48.1215 180.394 55.8521 182.797 61.7588 183.218C79.4165 184.48 98.0845 171.355 114.876 166.348C129.417 162.012 143.28 164.492 144.593 181.975C145.647 196.026 132.579 204.552 121.794 210.526C105.271 219.677 92.6833 220.41 74.0188 219.585C72.9688 219.538 71.8552 219.162 70.7325 219.348C70.7004 219.328 70.087 219.121 70.0507 219.121L70.0502 219.12C70.0124 219.129 69.7868 219.383 69.4996 219.356C61.6691 218.63 53.6794 218.138 45.8829 219.383C44.3102 219.634 41.384 220.851 39.7852 220.944V130.807C51.9558 123.022 67.2243 116.832 81.3968 115.937Z" fill="#58BCF8"/>
<path d="M125.051 248.657C126.12 249.508 125.805 252.197 125.703 253.513C124.1 274.188 107.351 285.876 89.6536 292.678C85.1423 294.412 83.3259 294.609 78.9181 296.471C62.743 294.645 54.3946 290.862 40.3066 282.384V266.078C68.515 264.049 98.8604 255.187 125.05 248.65L125.051 248.657Z" fill="#58BCF8"/>
<path d="M174.273 170.071C185.492 192.377 182.882 221.909 175.187 240.511C173.081 241.346 171.71 242.54 169.548 243.27C162.641 245.599 155.399 244.896 148.454 243.087C148.076 242.989 136.023 220.296 135.96 219.366L135.961 219.348L136.061 219.13C140.361 209.934 149.643 205.243 156.873 198.789C160.535 195.52 163.122 192.288 165.827 188.202C169.573 182.545 172.936 176.82 174.273 170.071Z" fill="#58BCF8"/>
<path d="M39.7857 192.507C82.5714 244.424 137.749 248.119 171.795 247.946C142.836 312.907 66.0919 301.08 39.3944 285.383L27.3936 268.295L39.7857 192.507Z" fill="#AEB2C0" fill-opacity="0.5" style="mix-blend-mode:multiply"/>
<path d="M243.002 195.483C243.083 199.086 235.073 207.337 232.32 208.66C229.54 209.996 226.41 212.502 223.609 214.152C219.874 216.353 215.784 218.536 211.85 220.357C191.067 229.999 169.569 237.185 147.548 243.425C113.467 253.088 76.0189 266.991 40.1768 266.991V239.337C55.6368 237.095 71.7783 234.176 87.0951 231.161C103.482 227.934 119.558 224.13 135.731 220.255C151.53 216.485 167.276 212.079 182.548 205.941C187.988 203.754 200.021 198.827 202.962 193.744C205.658 189.085 200.373 186.38 196.792 184.771C190.73 182.049 177.926 179.463 177.926 179.463L177.534 178.028C177.534 178.028 228.375 177.901 237.367 184.771C240.84 187.425 242.894 190.983 243.002 195.483Z" fill="#B1DFF7"/>
<circle cx="220.034" cy="53.0644" r="53.0644" fill="#F1A15C"/>
<path d="M258.264 16.262C261.117 18.9722 266.252 25.6766 268.239 30.824C259.133 31.9263 249.93 32.2033 240.767 32.304C233.182 32.3885 222.459 32.6259 215.25 30.2549C206.406 27.3446 209.407 21.5776 216.3 18.7779C228.421 13.8555 258.264 16.262 258.264 16.262Z" fill="#F7D77E"/>
<path d="M271.123 38.6984C272.563 43.5869 273.07 47.5597 273.099 52.7788C267.453 53.8648 262.258 54.5395 256.552 53.1416C248.822 51.2465 247.407 43.6665 255.401 40.4977C259.995 38.6773 266.26 38.179 271.123 38.6996V38.6984Z" fill="#F7D77E"/>
<path fill-rule="evenodd" clip-rule="evenodd" d="M240.515 59.6526C249.027 63.9635 237.525 70.6348 233.298 72.2097C216.743 78.3098 197.237 78.6389 179.956 82.1158C179.215 82.1717 176.242 83.0204 176.242 83.0204C176.242 83.0204 172.533 77.8851 171.107 73.891C170.141 71.1868 168.824 67.6146 168.824 66.9014C181.364 64.1054 194.78 61.3788 207.501 59.4651C217.576 57.957 231.031 54.8491 240.515 59.6526Z" fill="#F7D77E"/>
<path fill-rule="evenodd" clip-rule="evenodd" d="M185.539 38.9186C191.185 38.6676 198.934 39.5286 198.21 46.9907C197.038 59.0304 175.531 58.2017 167.256 59.056C166.954 54.6011 166.771 49.9642 167.43 45.5355C167.703 43.6977 167.59 42.5297 169.389 41.7804C172.937 40.303 180.876 39.1508 184.793 38.9172C185.04 38.9023 185.291 38.9284 185.539 38.9172V38.9186Z" fill="#F7D77E"/>
<path fill-rule="evenodd" clip-rule="evenodd" d="M255.387 79.0401C258.94 77.4657 263.312 76.3735 267.134 77.4782C266.31 79.1112 265.903 79.7902 265.046 81.0981L264.649 81.7019C262.787 84.5238 260.963 87.2339 258.562 89.6558C257.773 90.4524 256.552 91.5792 256.552 91.5792C256.552 91.5792 254.971 90.9363 253.7 90.2871C250.986 88.9016 248.944 85.6075 250.567 82.6575C251.62 80.7434 253.523 79.8695 255.387 79.0401Z" fill="#F7D77E"/>
<path d="M206.626 104.417C205.628 104.417 200.118 102.31 199.176 101.91C197.46 101.182 194.397 99.7541 192.932 98.7116C192.681 98.5326 192.076 98.1409 192.076 98.1409C192.076 98.1409 193.932 96.0237 195.176 95.3229C202.051 91.4533 210.241 96.5738 206.626 104.417Z" fill="#F7D77E"/>
<path d="M180.949 17.1176C187.988 68.4284 241.287 79.7541 265.111 81.1657C239.006 122.961 193.645 104.132 179.951 89.7245C164.645 73.6215 157.983 40.7969 180.949 17.1176Z" fill="#D5C8BA" fill-opacity="0.5" style="mix-blend-mode:multiply"/>
<ellipse cx="441.59" cy="153.389" rx="114.637" ry="109.389" fill="#EE82CD"/>
<path d="M521.109 114.269V175.435C510.687 177.019 494.148 171.226 491.386 159.979C489.06 150.508 495.356 145.065 504.37 144.887L513.022 146.255C509.558 137.844 505.864 122.91 514.073 116.197C516.285 114.39 518.273 114.061 521.109 114.269Z" fill="#ED47B9"/>
<path d="M520.706 74.2734C520.706 74.2734 518.24 94.9339 511.45 100.922C499.028 111.879 484.502 96.5637 477.573 86.6108C474.655 82.4193 472.079 77.8464 470.463 72.978C469.755 70.8401 469.459 68.2134 468.756 66.246C468.141 64.5248 468.023 66.6503 467.853 67.1707C462.574 83.2403 451.874 101.165 434.797 106.548C415.113 112.753 395.229 102.355 403.403 79.7328C410.213 60.8836 432.126 52.2327 448.654 44.2015C471.163 43.5884 504.448 58.0154 520.706 74.2734Z" fill="#ED47B9"/>
<path d="M331.929 123.407C337.886 121.108 344.308 123.648 349.85 126.055C362.741 131.653 372.189 142.123 377.453 155.056C384.424 172.182 382.46 190.138 378.696 207.773C379.429 207.933 379.495 207.393 379.827 206.974C386.562 198.504 391.227 191.849 399.626 184.583C407.165 178.058 416.081 171.843 425.462 168.402C440.6 161.499 461.555 160.385 473.112 174.472C481.287 184.437 478.273 197.54 471.321 207.041C456.865 226.789 431.078 242.472 412.051 257.817C411.588 258.19 410.994 258.308 411.047 259.099C350.168 244.541 312.758 184.577 331.929 123.407Z" fill="#ED47B9"/>
<path d="M368.765 64.2565C376.199 176.195 491.441 206.873 542.704 213.533C471.46 291.437 375.943 263.139 342.051 215.876C314.008 176.768 306.098 110.975 368.765 64.2565Z" fill="#D5BAD1" fill-opacity="0.5" style="mix-blend-mode:multiply"/>
</svg>
