<svg width="432" height="217" viewBox="0 0 432 217" fill="none" xmlns="http://www.w3.org/2000/svg">
<path d="M84.1352 188.117C84.1352 188.117 94.2688 194.392 98.8552 198.217C101.348 200.296 107.62 205.771 105.572 209.401C103.573 212.941 96.6476 215.275 92.841 216.021C66.4879 221.193 25.2956 203.415 8.25143 183.074C5.54585 179.843 -0.555367 170.911 0.0407293 166.742C0.85142 161.065 12.9431 162.652 16.9124 163.205C23.6012 164.136 37.0085 168.211 37.0085 168.211C38.9131 183.992 68.9308 185.951 84.1352 188.117Z" fill="#505050"/>
<path d="M84.1356 188.117C75.1282 193.316 63.9833 192.01 54.6898 188.249C48.5746 185.773 41.2293 182.255 38.4732 175.86C37.9571 174.661 36.1169 169.064 37.0089 168.212C37.0707 168.153 37.4872 168.154 37.7088 167.941C49.4624 156.631 66.0479 151.423 78.2363 165.556C84.1636 172.429 84.6027 179.304 84.1356 188.117Z" fill="#4A82A2"/>
<path d="M58.2702 159.602C62.9604 159.144 68.265 160.047 71.9271 163.17C75.5893 166.294 73.2792 168.743 69.6227 170.106C64.7726 171.914 57.4441 171.779 52.6445 169.827C42.5417 165.716 52.0329 160.211 58.2702 159.602Z" fill="#5AA4CB"/>
<path d="M76.7729 180.06C78.2302 179.866 79.4055 179.96 80.63 180.826C86.194 184.756 76.0744 190.352 72.2089 186.158C68.9409 182.613 73.683 180.471 76.7729 180.06Z" fill="#5AA4CB"/>
<path d="M397.389 39.974L386.979 48.214C357.857 68.4952 323.068 81.5306 288.608 89.7959C257.334 97.2983 221.546 101.764 189.389 99.6868C180.561 99.116 171.964 97.0346 163.158 96.3249C164.352 88.2952 177.328 80.4506 184.009 76.6525C197.75 68.8388 212.298 63.5707 226.988 57.931C228.128 57.4934 230.221 56.7033 230.221 56.7033C230.221 56.7033 325.514 30.8137 335.796 32.1224C339.612 32.6119 342.858 31.8053 346.76 31.5669C358.335 30.8572 385.927 29.3705 395 36.8967C396.084 37.7957 396.84 38.6738 397.39 39.974H397.389Z" fill="#6E6E6E"/>
<path d="M397.389 39.9736C397.993 41.4014 398.099 42.1434 397.948 43.7563C396.182 62.4988 374.175 80.1319 359.215 89.4324C318.032 115.04 257.13 128.342 209.069 121.229C195.384 119.203 179.387 114.607 168.239 106.246C164.362 103.339 162.407 101.388 163.159 96.3246C171.964 97.0343 180.563 99.1157 189.39 99.6865C221.547 101.764 257.335 97.298 288.608 89.7956C323.068 81.5289 357.858 68.4949 386.98 48.2137L397.389 39.9736Z" fill="#505050"/>
<path d="M333.993 32.4041C334.047 33.3929 333.124 35.292 332.642 36.2401C323.238 54.74 301.831 65.5159 282.382 70.115C268.271 73.4517 252.134 76.4279 239.257 67.7909C236.015 65.6164 228.218 60.5402 229.635 56.8607C230.38 51.8507 231.332 46.8085 232.927 41.9963C239.387 22.5006 249.305 7.29956 270.313 1.98243C296.688 -4.69379 316.974 5.89701 331.304 27.6635C331.92 28.599 333.949 31.5892 333.994 32.4041H333.993Z" fill="#5AA4CB"/>
<path d="M281.482 5.00897C286.385 4.98653 290.764 7.00198 290.234 12.6403C290.055 14.5492 286.764 20.2254 285.53 21.9576C279.235 30.7896 261.652 42.3411 250.527 41.6678C238.006 40.9118 245.566 25.8076 250.256 20.346C258.243 11.0442 269.024 5.06508 281.482 5.00897Z" fill="#98DAFE"/>
<path d="M318.506 24.3491C321.247 24.0981 325.335 25.3296 326.201 28.2778C327.893 34.0395 321.433 42.1561 316.028 43.7452C310.255 45.4423 303.531 41.9037 306.632 35.1966C308.654 30.8234 313.328 24.8232 318.506 24.3491Z" fill="#98DAFE"/>
<path d="M422.042 149.847C422.042 149.847 422.927 150.673 423.521 151.057C424.719 151.834 428.1 153.236 429.611 153.92C430.074 154.129 430.475 154.393 431.019 154.332V184.331C411.905 187.824 391.765 184.286 373.524 178.293C355.281 172.299 330.432 159.211 320.268 142.364C318.085 138.746 314.695 133.133 319.28 129.988C326.178 125.259 348.075 128.55 356.454 130.03C358.363 130.367 360.478 130.695 362.293 131.344C368.053 147.768 404.353 148.106 422.042 149.847Z" fill="#505050"/>
<path d="M422.042 149.847C421.8 150.763 415.645 153.727 414.464 154.188C401.747 159.156 374.419 153.731 366.105 142.254C364.813 140.471 361.868 134.366 361.995 132.321C362.013 132.033 362.093 131.532 362.293 131.343C374.25 120.062 386.483 110.162 403.719 117.554C410.384 120.413 424.149 141.875 422.042 149.847Z" fill="#4A82A2"/>
<path d="M392.256 117.68C396.163 117.598 404.243 119.414 406.461 122.946C408.392 126.022 404.988 128.291 402.692 129.527C396.785 132.706 388.061 133.26 381.651 131.482C374.74 129.566 373.498 125.33 379.818 121.243C383.296 118.993 388.111 117.769 392.257 117.68H392.256Z" fill="#5AA4CB"/>
<path d="M413.283 140.955C417.933 140.454 421.706 144.763 417.651 148.122C415.241 150.118 410.707 151.306 407.921 149.522C401.946 145.694 409.221 141.394 413.283 140.956V140.955Z" fill="#5AA4CB"/>
</svg>
