<svg width="278" height="336" viewBox="0 0 278 336" fill="none" xmlns="http://www.w3.org/2000/svg">
<path d="M87.3307 129.489C103.666 146.516 90.5977 177.378 105.329 194.37C111.948 202.004 121.203 188.782 126.44 185.532C136.122 179.536 127.353 132.125 102.565 96.3326C92.8069 82.2492 85.4029 76.9349 84.567 64.259C83.3216 45.322 98.394 35.4526 93.2163 19.0576C90.0091 8.88109 80.5664 1.20399 77.1374 2.69677C74.7746 3.73745 75.8409 8.88959 76.0371 25.2078C76.2247 40.383 76.2759 48.0943 74.3737 53.7583C72.9492 57.9807 68.0786 70.1363 56.5291 76.406C44.9028 82.7268 35.5455 78.1717 32.9609 83.469C30.2654 88.9965 37.3282 100.256 43.7683 100.401C50.9676 100.555 54.4563 86.7531 59.5316 87.7768C63.5834 88.5957 62.5768 97.6716 69.3155 108.505C73.3501 114.996 83.0828 125.028 87.3392 129.472L87.3307 129.489Z" fill="#7AB026"/>
<path d="M89.6312 14.9297C88.2271 12.1118 86.313 9.74261 84.1265 7.83733C83.0307 6.88868 81.8499 6.04846 80.6414 5.43539C80.0414 5.13214 79.4241 4.88613 78.8811 4.76635C78.3492 4.62681 77.8729 4.73863 78.0339 4.75598C78.0867 4.75147 78.1977 4.68845 78.242 4.65109C78.2903 4.61297 78.2817 4.63077 78.2607 4.72087C78.2135 4.90079 78.1504 5.30923 78.1256 5.75419C78.0712 6.65934 78.098 7.75464 78.1343 8.89238C78.213 11.1585 78.3272 13.6502 78.3524 16.3234C78.3905 19.9281 78.3357 22.7207 78.2467 25.1813C77.9024 31.9039 78.0125 35.9148 77.2596 47.4453C77.0333 49.7157 76.6433 52.0318 75.8852 54.2659C71.9602 66.1336 63.0269 74.6351 57.186 77.616C56.6631 77.9125 56.2 78.1627 55.7421 78.4021C49.2427 81.4354 47.9218 80.6181 38.3965 81.591C36.1916 81.8786 34.519 82.5273 33.9168 83.9354C32.3361 88.9378 35.3975 94.4672 39.9484 98.2287C40.8555 98.8837 42.1647 99.6636 43.783 99.7488C46.3198 99.9603 48.967 97.548 51.1023 94.7162C52.2085 93.2978 53.2683 91.7419 54.5005 90.2509C55.711 88.8737 57.2581 86.9549 59.6169 87.354C61.9168 87.9204 62.4651 90.2275 63.0653 91.81C63.6252 93.5135 64.0694 95.1561 64.5533 96.6759C65.5012 99.7232 66.5664 102.264 67.4832 104.042C68.1941 105.433 68.9762 106.826 69.8293 108.185C74.2622 114.91 80.0002 121.236 83.625 125.277C84.9937 126.772 86.0788 127.963 86.8936 128.878C87.1844 129.204 87.3283 129.398 87.3476 129.464L87.3533 129.47L87.3497 129.477C87.3384 129.486 87.33 129.489 87.3244 129.486C87.3244 129.486 87.3244 129.486 87.3244 129.486C87.3244 129.486 87.3244 129.486 87.3243 129.486C87.3243 129.486 87.3243 129.486 87.3243 129.486C87.3187 129.483 87.316 129.475 87.3161 129.461L87.3205 129.49C87.2398 129.465 86.9555 129.221 86.5569 128.813C84.2917 126.49 80.8645 123.058 76.9213 118.884C72.8784 114.549 70.9847 112.177 68.8458 108.797C67.1871 106.043 65.3541 102.604 63.3996 96.4184C62.261 93.1922 61.628 89.0472 59.3767 88.5436C53.7203 89.3049 53.5538 99.8813 43.7451 101.489C40.387 101.345 37.6627 99.1461 35.5154 96.5043C32.1433 91.965 30.2509 87.4775 31.9406 82.9714C32.8165 80.8689 35.1301 79.8291 36.9302 79.4828C38.8049 79.0849 40.6178 78.9668 42.5405 78.7498C46.3659 78.3202 50.7053 77.7139 55.7998 75.0645C57.3999 74.2279 59.0531 73.1907 60.7271 71.8888C68.8261 65.2123 71.2324 58.7355 72.9922 53.2922C74.7015 46.6865 73.8688 39.957 73.6102 26.9676C73.5956 26.3879 73.5816 25.8294 73.5676 25.2384C73.4837 21.5854 73.3572 17.8032 73.2241 13.9581C73.1615 12.0123 73.0885 10.0875 73.0977 8.04275C73.1094 7.01344 73.1252 5.98323 73.2947 4.78143C73.3904 4.17129 73.5044 3.51885 73.8625 2.70374C74.1869 1.90849 75.0569 0.83392 76.128 0.404932L76.1378 0.400625C78.4751 -0.455389 79.9317 0.259387 81.1724 0.710404C82.3985 1.2331 83.4375 1.89384 84.3888 2.5877C86.2869 3.98742 87.8861 5.59308 89.299 7.28254C92.117 10.6762 94.1883 14.4764 95.3772 18.3766C98.0184 26.578 95.345 34.1343 93.5694 38.6441C90.6013 46.1703 86.1563 54.4437 86.9871 64.0999C87.2352 72.004 92.2901 78.7953 97.978 86.0629C100.118 88.863 102.359 91.8175 104.549 94.9578C115.079 109.995 124.301 128.902 128.929 147.318C130.369 153.08 131.683 159.591 132.245 166.396C132.306 173.075 134.267 180.833 127.447 187.157C123.939 189.476 120.569 193.314 116.728 195.784C114.798 197.03 112.636 198.144 110.16 198.181C107.635 198.245 105.509 196.742 104.319 195.245C103.225 193.918 102.363 192.605 101.671 191.374C95.3845 177.394 97.2691 173.243 95.816 159.252C95.1784 151.231 94.4103 139.893 89.0386 132.053C86.2395 128.28 87.347 128.58 90.4969 132.366C94.8747 138.185 95.7345 144.263 96.9124 147.733C99.0994 154.854 99.4459 158.088 99.314 167.145C99.2289 176.216 101.384 180.122 102.81 184.748C103.791 187.376 103.711 188.772 106.921 192.989C108.018 194.272 109.34 195.32 112.116 194.183C114.899 193.058 118.039 190.018 122.234 186.017C123.146 185.186 124.064 184.355 125.236 183.591C128.004 181.269 127.935 174.43 127.659 170.041C127.324 165.285 126.573 161.073 125.788 157.332C124.178 149.844 122.405 144.265 120.851 139.714C117.816 130.34 110.174 110.963 100.57 97.7144C100.431 97.5174 100.293 97.3226 100.156 97.1303C95.8215 89.6553 82.9354 79.8174 82.1564 64.418C81.2973 52.3055 87.3374 42.48 89.2156 36.9785C92.7218 27.0833 92.3189 25.2854 91.3744 19.6393C91.0415 18.2949 90.5306 16.7493 89.6312 14.9297Z" fill="#2E7037"/>
<path d="M102.079 157.272C97.4134 165.257 89.3014 184.04 92.8072 204.828C94.6155 215.602 98.8805 222.904 95.1188 226.887C89.8729 232.44 78.4684 221.641 61.8691 225.787C48.4089 229.148 47.2573 238.403 36.3219 238.454C24.1668 238.505 19.4668 227.1 12.3699 229.455C5.17063 231.843 1.6563 246.353 3.88262 257.707C9.10294 284.33 47.5815 302.362 60.3508 293.312C67.6609 288.125 61.5961 277.574 69.6996 270.647C84.934 257.621 126.731 277.574 126.731 277.574C126.935 277.855 127.14 278.137 127.345 278.418C142.076 298.805 170.592 303.446 190.918 288.629C197.418 283.886 203.312 280.772 208.14 283.084C220.824 289.175 208.43 324.276 220.458 330.41C235.982 338.334 278.555 291.068 273.446 283.886C270.793 280.15 255.345 287.426 253.631 283.886C251.839 280.192 267.611 270.084 265.939 266.988C264.284 263.925 248.35 273.078 243.668 268.327C236.989 261.545 263.397 236.74 255.166 217.248C251.293 208.07 240.435 201.715 231.18 201.246C218.82 200.614 210.128 210.526 208.14 208.471C205.564 205.818 223.358 192.562 224.39 175.945C225.669 155.43 201.274 132.168 175.113 126.248C145.505 119.56 114.874 135.384 102.105 157.272H102.079Z" fill="#7AB026"/>
<path d="M103.428 158.06C102.529 157.535 101.63 157.01 100.731 156.485C92.7229 170.363 88.5398 186.661 90.4344 202.861C90.5278 203.634 90.6344 204.4 90.7574 205.174C91.3637 209.071 92.3941 212.863 93.3278 216.507C94.2448 220.053 95.0225 224.001 93.4474 225.309C91.5306 227.644 84.7683 224.622 79.319 223.486C73.5623 222.114 67.2264 221.77 61.238 223.26C50.2796 224.956 44.2578 236.555 36.3086 235.611C32.5402 235.624 29.1133 234.168 25.7313 231.791C24.0136 230.623 22.3271 229.236 20.1465 227.932C18.0938 226.642 14.5629 225.427 11.412 226.567C4.12953 229.583 2.47852 236.095 1.04351 241.418C-0.185621 246.98 -0.359382 252.664 0.684905 258.334C3.3676 271.899 12.9772 282.362 23.6749 289.543C34.532 295.947 47.3286 303.783 62.4775 296.312C67.8286 292.736 68.1223 286 68.5138 282.327C68.9074 278.233 69.7693 275.505 72.163 273.529C85.7184 264.96 108.217 273.978 125.008 281.183L123.496 279.926C123.7 280.208 123.904 280.49 124.108 280.772L124.101 280.762C138.976 302.556 172.279 308.089 193.357 291.974C198.054 288.436 203.978 285.304 206.346 286.833C210.407 288.495 210.444 299.666 210.379 308.194C210.39 312.229 210.363 316.358 210.951 320.763C211.624 324.904 212.595 330.855 218.569 334.114C228.228 337.846 234.642 332.831 240.364 329.722C246.046 326.144 251.084 321.922 255.817 317.448C260.539 312.952 264.933 308.187 268.982 302.994C270.996 300.393 272.916 297.712 274.651 294.732C275.491 293.273 276.335 291.675 277.012 289.865C277.362 288.894 277.656 288 277.84 286.673C277.953 285.537 278.172 283.649 276.744 281.539C274.979 279.215 272.852 278.995 271.614 278.816C270.277 278.682 269.209 278.762 268.191 278.862C266.178 279.079 264.418 279.452 262.706 279.804C261.008 280.157 259.354 280.519 257.889 280.733C257.164 280.839 256.456 280.899 256.043 280.882C255.842 280.88 255.721 280.834 255.911 280.893C255.998 280.925 256.198 281.001 256.463 281.202C256.73 281.401 257.044 281.757 257.226 282.145C257.422 282.543 257.486 282.971 257.481 283.239C257.478 283.513 257.436 283.646 257.423 283.695C257.388 283.79 257.446 283.621 257.571 283.422C257.824 282.999 258.285 282.41 258.794 281.831C259.83 280.653 261.079 279.434 262.359 278.192C263.644 276.945 264.983 275.679 266.336 274.242C267.019 273.507 267.707 272.748 268.424 271.741C268.787 271.215 269.16 270.663 269.529 269.773C269.818 268.97 270.502 267.324 269.396 265.121C268.814 264.009 267.747 263.236 266.957 262.915C266.15 262.578 265.566 262.503 265.028 262.451C264.053 262.377 263.34 262.466 262.713 262.55C261.448 262.736 260.428 263 259.426 263.263C257.442 263.794 255.619 264.358 253.838 264.829C252.068 265.299 250.334 265.691 248.82 265.82C248.073 265.885 247.388 265.87 246.937 265.787C246.469 265.703 246.37 265.59 246.406 265.628C246.105 257.409 266.426 236.676 258.482 215.848C253.438 204.939 242.781 198.68 231.354 197.817C226.583 197.581 221.908 198.792 217.842 200.628C215.797 201.541 213.878 202.606 212.074 203.653C211.182 204.168 210.291 204.694 209.53 205.086C209.158 205.279 208.795 205.436 208.665 205.474C208.61 205.497 208.625 205.464 208.925 205.467C209.198 205.449 210.032 205.666 210.499 206.19C210.862 206.546 211.109 207.144 211.144 207.52C211.189 207.906 211.137 208.06 211.126 208.122C211.091 208.232 211.15 208.034 211.257 207.836C211.482 207.4 211.86 206.826 212.266 206.252C213.088 205.094 214.044 203.873 214.989 202.641C216.89 200.175 218.819 197.599 220.565 194.867C224.038 189.428 227.01 183.14 227.41 176.133C226.17 147.255 199.952 129.996 175.645 123.896C162.975 121.13 149.661 122.349 137.629 126.699C122.509 132.192 108.865 142.427 100.756 156.485L102.105 155.71C102.096 155.711 102.088 155.711 102.079 155.711C102.079 156.752 102.079 157.793 102.079 158.834C102.088 158.834 102.096 158.834 102.105 158.835L103.019 158.824L103.454 158.06C111.373 144.982 124.592 135.476 138.986 130.581C150.442 126.696 162.913 125.829 174.581 128.6C197.124 134.259 221.274 152.742 221.37 175.757C220.993 181.199 218.507 186.527 215.268 191.43C213.646 193.892 211.819 196.272 209.911 198.681C208.956 199.893 207.974 201.107 206.986 202.459C206.489 203.148 205.997 203.836 205.484 204.781C205.239 205.252 204.961 205.782 204.75 206.637C204.652 207.076 204.552 207.614 204.648 208.392C204.736 209.156 205.138 210.107 205.787 210.756C206.612 211.659 207.959 212.044 208.751 212.036C209.555 212.05 210.079 211.912 210.528 211.787C211.396 211.525 211.945 211.251 212.499 210.982C213.57 210.445 214.473 209.919 215.362 209.422C217.134 208.424 218.821 207.521 220.55 206.775C223.988 205.278 227.525 204.463 231.005 204.674C239.548 205.26 248.631 210.996 251.85 218.647C254.787 225.546 252.22 234.093 248.571 241.913C246.735 245.889 244.586 249.781 242.489 253.953C241.449 256.058 240.412 258.17 239.573 260.727C239.178 261.979 238.789 263.407 238.743 265.141C238.666 266.81 239.214 269.348 240.928 271.025C243.977 273.896 247.18 273.619 249.432 273.529C251.79 273.337 253.829 272.854 255.805 272.352C257.77 271.846 259.653 271.28 261.41 270.824C262.277 270.6 263.137 270.4 263.796 270.312C264.105 270.266 264.399 270.265 264.362 270.27C264.335 270.264 264.211 270.274 263.851 270.126C263.506 269.995 262.832 269.53 262.483 268.855C262.149 268.246 262.108 267.609 262.144 267.277C262.176 266.962 262.234 266.841 262.243 266.811C262.267 266.76 262.161 266.968 261.998 267.19C261.669 267.651 261.148 268.245 260.592 268.829C259.476 270.003 258.175 271.225 256.863 272.482C255.544 273.748 254.193 275.035 252.828 276.563C252.147 277.339 251.461 278.146 250.765 279.266C250.42 279.841 250.067 280.456 249.766 281.439C249.494 282.363 249.224 283.929 250.036 285.629C250.801 287.259 252.349 288.145 253.299 288.452C254.324 288.793 255.029 288.841 255.715 288.879C257.014 288.926 258.028 288.802 259.009 288.672C260.934 288.399 262.657 288.02 264.326 287.685C265.983 287.349 267.596 287.033 269.01 286.892C269.705 286.821 270.366 286.807 270.74 286.853C270.92 286.871 271.018 286.913 270.915 286.876C270.826 286.845 270.447 286.657 270.145 286.229C264.284 298.608 238.908 328.056 222.348 326.706C219.063 325.402 218.617 315.689 218.709 308.197C218.698 303.693 218.797 299.061 218.231 294.14C217.564 289.53 216.646 282.808 209.939 279.338C199.843 275.63 193.725 281.99 188.478 285.285C171 298.728 143.164 294.276 130.589 276.074L130.582 276.064C130.376 275.783 130.171 275.502 129.965 275.221L128.454 273.964C109.842 266.995 89.513 255.067 67.2358 267.765C57.9273 275.732 62.9197 288.555 58.2227 290.312C40.2562 296.915 11.7358 278.325 7.08033 257.08C5.28687 248.333 7.15293 235.34 13.3278 232.342C17.3615 230.546 25.8319 242.231 36.3339 241.297C42.0743 241.559 47.5519 237.672 50.8931 234.635C54.4638 231.56 58.132 229.409 62.5001 228.314C67.5953 226.965 72.9223 227.121 78.2614 228.281C80.9435 228.836 83.6048 229.639 86.5413 230.298C89.2255 230.842 93.6531 231.808 96.7898 228.466C98.768 226.426 99.0449 223.444 98.8109 221.354C98.5913 219.176 98.0659 217.266 97.5646 215.394C96.532 211.669 95.4962 208.117 94.8572 204.484C94.728 203.763 94.6142 203.05 94.5126 202.329C92.4183 187.271 96.0689 171.46 103.428 158.06ZM100.731 156.485L103.428 158.06L102.079 158.834V155.711L101.2 155.701L100.731 156.485Z" fill="#2E7037"/>
<path d="M143.68 29.2252C126.041 38.3027 119.395 54.9522 115.139 71.2448C108.28 97.4751 108.596 131.289 126.449 153.953C135.969 166.041 153.02 176.43 171.581 175.066C205.573 172.532 220.799 132.287 223.17 125.591C234.268 94.1569 221.626 66.8688 218.47 60.565C213.403 50.4397 202.528 28.7134 180.469 24.8322C168.306 22.6896 156.545 22.6039 143.68 29.2252Z" fill="#7AB026"/>
<path d="M209.104 149.499C214.624 142.131 216.992 135.026 221.034 124.834C221.057 124.772 221.081 124.709 221.105 124.645C224.615 114.143 225.829 112.489 226.221 99.6304C226.301 86.7286 222.983 74.0213 220.654 68.7548C219.149 65.2784 218.745 63.7268 217.588 61.0068C216.97 59.5929 216.173 57.8572 214.809 55.4186C210.733 48.2882 208.048 44.095 203.397 38.6479C200.32 34.7321 190.275 26.4846 180.404 25.2058C176.362 24.4892 172.757 24.1566 170.381 24.1051C162.353 23.7169 153.218 25.2415 148.091 27.3988C146.487 28.023 145.24 28.5763 144.294 29.0036C143.892 29.1861 143.693 29.2507 143.677 29.2195C143.677 29.2195 143.677 29.2195 143.677 29.2195C143.677 29.2195 143.677 29.2195 143.677 29.2195C143.677 29.2195 143.677 29.2195 143.677 29.2195C143.657 29.1814 143.922 28.9948 144.428 28.7375C146.888 27.49 150.66 25.7574 155.402 24.4767C164.318 22.5193 165.522 22.599 177.743 23.8464C178.717 23.9754 179.656 24.113 180.571 24.2565C191.114 26.2016 198.458 30.1005 207.085 40.402C213.207 48.3144 215.7 52.4082 219.703 59.9481C221.513 63.4418 223.464 67.9058 225.153 74.1574C229.319 94.2103 230.927 96.6778 227.859 117.284C227.231 120.251 226.385 123.302 225.319 126.349C219.281 144.145 206.046 160.834 197.153 167.083C191.068 171.85 182.24 176.477 171.745 177.262C165.24 177.791 158.302 176.866 151.759 174.531C142.094 171.114 132.03 164.671 124.57 155.433C118.956 148.478 114.956 140.222 112.661 132.053C106.623 112.984 109.769 85.0576 113.548 73.0915C113.753 72.3517 113.953 71.6517 114.15 70.9863C117.4 60.7062 118.256 57.3558 123.567 47.2092C126.874 41.0345 133.804 33.6431 141.217 30.1976C144.937 28.4868 144.236 29.26 140.87 31.4466C135.987 34.7417 132.422 38.058 130.808 40.6358C127.717 45.866 126.656 48.0051 122.848 54.5302C119.235 61.2324 119.523 65.1701 118.132 69.362C117.836 70.2974 117.578 71.0192 117.297 71.8087C116.514 74.5965 114.297 78.1856 113.219 95.7998C112.505 118.452 116.946 130.376 120.106 138.029C121.685 141.669 124.277 147.15 128.328 152.474C132.734 158.35 139.199 163.778 145.569 167.057C151.497 170.257 161.501 173.71 171.421 172.889C181.49 172.311 190.264 167.289 194.567 163.78C202.999 156.496 203.218 156.572 209.104 149.499Z" fill="#2E7037"/>
<path d="M118.9 94.0884C131.447 89.0983 143.142 98.2857 147.868 109.537C150.538 115.909 151.271 123.424 148.328 129.557C147.289 131.725 145.841 133.603 144.104 135.114C142.798 136.725 141.053 137.966 138.817 138.582C137.068 139.066 135.287 139.259 133.511 139.205C133.121 139.212 132.729 139.208 132.334 139.188C119.574 138.54 106.218 123.184 108.51 110.254C108.28 103.501 111.266 97.1201 118.9 94.0884Z" fill="#0D0829"/>
<path d="M215.221 105.025C220.646 104.436 226.386 105.656 229.943 110.084C233.407 114.404 233.423 119.981 231.596 124.946C231.376 126.194 230.971 127.498 230.353 128.85C229.417 130.898 228.163 132.774 226.671 134.455C220.464 143.275 208.72 147.87 198.186 147.429C193.025 147.207 186.849 146.209 183.054 142.387C180.109 139.419 179.269 136.128 179.122 131.673C178.908 125.227 181.902 120.61 186.116 116.711C194.57 108.88 204.153 106.234 215.221 105.025Z" fill="#0D0829"/>
<path d="M114.396 110.449C113.765 122.34 123.071 131.783 134.424 133.259C137.751 133.685 140.626 130.103 140.626 127.058C140.626 123.347 137.768 121.283 134.424 120.856C129.545 120.217 126.56 114.928 126.799 110.449C127.217 102.465 114.814 102.491 114.396 110.449Z" fill="#4B4A4B"/>
<path d="M191.661 139.58C205.3 144.092 216.662 134.376 224.458 124.328C226.523 121.666 227.009 118.169 224.458 115.55C222.343 113.384 217.737 112.915 215.681 115.55C210.802 121.846 203.995 130.606 194.953 127.612C187.362 125.096 184.103 137.072 191.652 139.571L191.661 139.58Z" fill="#4B4A4B"/>
<path d="M125.554 111.235C133.538 111.235 133.555 98.832 125.554 98.832C117.552 98.832 117.552 111.235 125.554 111.235Z" fill="#BDBFC0"/>
<path d="M209.923 111.123C210.725 111.234 211.587 111.259 212.363 111.532C213.676 111.993 214.598 112.479 215.621 113.46C215.917 113.739 216.193 114.069 216.428 114.421C216.706 114.734 216.959 115.068 217.182 115.414C217.634 116.131 217.873 116.898 217.916 117.726C218.104 118.553 218.06 119.372 217.805 120.199C217.617 121.01 217.242 121.709 216.696 122.306C216.261 122.972 215.672 123.509 214.956 123.901C214.376 124.174 213.753 124.499 213.122 124.635L212.438 124.727C211.962 124.831 211.464 124.891 211.015 124.891C210.657 124.891 210.384 124.831 209.974 124.772C208.976 124.644 208.524 124.618 207.526 123.996C207.1 123.731 206.511 123.305 206.153 122.946C206.051 122.844 205.248 121.803 205.163 121.667C205.159 121.661 205.156 121.655 205.152 121.65C205.006 121.474 204.822 121.247 204.72 121.061C204.694 121.018 204.669 120.959 204.643 120.899C204.413 120.413 204.114 119.807 203.978 119.287C203.901 119.005 203.867 118.485 203.841 118.331C203.799 118.007 203.722 117.666 203.722 117.325C203.747 115.636 204.413 114.169 205.539 112.94C206.102 112.343 206.767 111.908 207.535 111.661C208.269 111.269 209.07 111.089 209.923 111.123Z" fill="#BDBFC0"/>
<path d="M132.514 58.3395C136.191 59.0816 141.479 54.68 141.982 50.2272C142.895 42.1918 127.891 37.2954 129.264 29.4818C129.989 25.3447 134.621 24.3041 134.425 19.5613C134.297 16.6525 132.403 13.4536 130.296 13.2488C128.3 13.0526 127.123 15.5946 123.498 20.4653C116.384 30.0277 113.595 30.0788 111.778 35.7855C112.777 47.0593 118.748 34.3092 119.857 34.5651C123.364 35.3514 123.127 56.4474 132.514 58.3395Z" fill="#7AB026"/>
<path d="M121.835 24.6848C119.799 26.7341 118.976 29.3099 116.551 31.6394C114.657 33.5902 113.973 33.8539 113.086 36.202L113.145 35.6644C113.179 36.1382 113.232 36.587 113.344 37.1345C113.507 37.9949 113.85 38.9652 114.006 39.0932C114.028 39.1161 113.952 39.0623 113.872 39.0584C113.789 39.0525 113.785 39.0796 113.855 39.0603C114 39.0266 114.303 38.8421 114.571 38.6187C115.676 37.6774 116.56 36.4588 116.984 35.6825C117.275 35.1387 117.561 34.8098 117.895 34.5158C118.057 34.3761 118.229 34.2438 118.452 34.08C118.558 34.0054 118.68 33.9167 118.844 33.8147C118.915 33.7733 119.034 33.6965 119.187 33.6298C119.304 33.5869 119.623 33.4201 120.095 33.5315C121.085 33.8685 121.504 34.6348 121.979 35.4129C123.288 37.942 123.381 39.4568 123.701 41.6909C123.929 43.9072 125.494 50.5888 127.034 52.5382C128.35 54.5389 129.701 56.8775 131.233 57.64C131.681 57.8863 132.05 58.0509 132.345 58.1808C132.47 58.2353 132.522 58.298 132.512 58.3487C132.512 58.3487 132.512 58.3487 132.512 58.3488C132.5 58.4114 132.388 58.4549 132.212 58.4202C131.37 58.2621 130.096 57.85 128.78 56.9363C126.438 55.0809 126.629 54.4498 124.893 51.0487C123.305 47.5517 122.381 45.3701 121.593 41.0281C121.325 39.5572 120.968 38.517 120.541 37.6147C120.334 37.1851 120.091 36.7435 119.846 36.4032C119.719 36.2228 119.594 36.0791 119.488 35.9907C119.391 35.9018 119.33 35.9524 119.529 36.026C119.846 36.1002 120.106 36.0403 120.246 35.9922C120.358 35.9532 120.411 35.9223 120.448 35.9012C120.517 35.859 120.501 35.8685 120.486 35.8867C120.451 35.9245 120.363 36.0227 120.281 36.1221C120.102 36.3357 119.892 36.6018 119.657 36.893C119.186 37.4752 118.62 38.1628 117.873 38.9162C116.979 39.8004 116.242 40.5579 115.244 41.1421C114.753 41.4165 114.056 41.6944 113.261 41.5052C112.464 41.3011 112.028 40.7977 111.729 40.407C110.682 38.8084 110.395 37.6243 110.003 35.9428L110.08 35.2449C110.301 34.1539 110.664 32.8215 111.597 31.2911C115.211 26.3767 119.731 22.9475 122.206 19.504C122.693 18.8883 123.114 18.324 123.455 17.8308C124.108 16.894 124.793 15.8445 125.623 14.6882C126.05 14.1072 126.493 13.4979 127.161 12.8495C127.761 12.2392 129.047 11.3793 130.463 11.5569C133.887 12.2336 134.886 14.8242 135.62 17.0453C135.83 17.8132 135.976 18.6255 136.01 19.4916C136.206 21.7127 134.928 24.2229 133.55 25.6815C132.181 27.2287 131.14 28.4037 130.927 29.7732C130.739 30.7796 130.917 31.7716 131.377 32.8179C133.489 37.4098 141.204 42.5776 142.181 46.9062C142.606 48.2704 142.589 49.3698 142.449 50.2803C142.114 52.0088 141.64 53.2641 140.112 55.2814C138.785 56.9973 135.978 58.9534 133.308 58.6066C132.662 58.5088 132.456 58.3254 132.543 58.2585C132.629 58.1803 133.003 58.1838 133.585 58.1023C135.279 57.8353 136.6 57.1045 137.172 56.3826C138.25 54.8625 138.588 54.3017 139.989 52.6887C140.776 51.6916 140.821 50.7597 140.734 50.0862C140.673 49.5996 140.555 49.2172 140.524 48.7777C140.193 47.815 141.608 47.1885 136.562 42.5334C131.306 38.1868 127.893 35.0225 127.464 31.3687C127.377 30.7541 127.369 30 127.524 29.1759C128.216 24.8747 133.29 22.7717 132.828 20.0713C132.828 19.9274 132.823 19.7888 132.812 19.628C132.751 18.8021 132.488 17.7321 131.963 16.7455C131.486 15.7643 130.506 14.8839 130.133 14.9254C130.077 14.6872 128.906 15.8006 128.186 16.8998C127.408 17.9986 126.733 19.0399 126.251 19.8066C125.765 20.5859 125.365 21.1492 125.01 21.591C123.973 22.8719 123.377 23.1262 121.835 24.6848Z" fill="#2E7037"/>
<path d="M208.516 60.471C210.119 56.8712 215.544 58.543 217.916 54.6106C220.79 49.8167 215.152 43.3082 217.916 40.6297C219.442 39.1455 222.539 39.8364 224.228 40.6297C230.787 43.7262 232.655 56.2485 228.288 60.471C224.782 63.866 217.037 62.1001 217.011 62.7314C216.994 63.1408 220.33 62.9447 221.072 64.5313C222.053 66.6212 218.487 71.7564 214.947 71.7478C210.733 71.7308 206.784 64.3692 208.516 60.471Z" fill="#7AB026"/>
<path d="M229.813 60.275C229.537 60.5956 229.269 60.903 228.992 61.1991C227.649 62.6219 226.027 63.9046 223.625 64.1223C220.812 64.287 220.27 63.6087 217.502 63.6964C217.453 63.7018 217.4 63.7117 217.414 63.7125C217.427 63.7094 217.438 63.7161 217.55 63.6697C217.611 63.6418 217.702 63.5962 217.814 63.4918C217.955 63.3707 218.135 63.0631 218.137 62.777C218.147 62.5944 218.095 62.3904 218.021 62.2513C217.955 62.1236 217.878 62.0363 217.816 61.9771C217.711 61.88 217.643 61.8482 217.616 61.8331C217.55 61.8005 217.559 61.808 217.572 61.81C217.607 61.8189 217.687 61.8362 217.773 61.8524C217.947 61.885 218.152 61.9193 218.358 61.9579C218.774 62.0352 219.208 62.13 219.642 62.2692C220.479 62.5432 221.514 63.0141 222.009 64.0931C222.548 65.5684 222.08 66.4316 222.005 67.0389C221.59 68.5741 220.991 68.4137 219.801 70.044C218.495 71.5931 217.217 72.3698 215.273 72.3836C215.173 72.38 215.064 72.374 214.946 72.3632C212.372 72.4617 209.306 68.3914 208.537 66.7857C207.48 65.1199 207.581 62.7076 207.982 61.4674C208.09 61.0725 208.236 60.7774 208.37 60.5701C208.427 60.4824 208.485 60.4573 208.522 60.474C208.523 60.474 208.523 60.474 208.523 60.474C208.569 60.4953 208.586 60.579 208.546 60.6981C208.347 61.2743 208.259 62.2208 208.541 63.2528C209.172 65.1069 208.81 65.4876 210.258 67.7514C211.655 69.5739 213.055 70.6058 214.951 70.8265C215.216 70.8392 215.509 70.8202 215.83 70.7586C217.176 70.4511 217.83 69.6034 218.427 68.7721C218.962 67.9318 219.838 66.781 220.185 65.274C220.207 65.1313 220.203 65.0227 220.189 64.9454C220.143 64.5443 219.312 64.1939 218.7 64.1145C218.376 64.0619 218.058 64.0429 217.726 64.0292C217.559 64.0218 217.391 64.0175 217.189 63.999C217.081 63.9872 216.979 63.9783 216.815 63.9357C216.736 63.9134 216.637 63.8879 216.474 63.7972C216.382 63.7397 216.296 63.696 216.14 63.5198C216.007 63.3742 215.829 63.0345 215.848 62.6829C215.851 62.3846 216.003 62.0627 216.172 61.8848C216.319 61.7269 216.424 61.6639 216.528 61.6037C216.757 61.4863 216.804 61.482 216.913 61.4468C217.094 61.3952 217.201 61.3762 217.305 61.3553C217.512 61.3163 217.687 61.2916 217.855 61.268C218.196 61.2219 218.532 61.1868 218.882 61.1544C219.59 61.0899 220.377 61.0468 221.334 60.9923C223.5 60.878 225.93 60.559 227.255 59.4042C228.585 58.2823 229.163 56.276 229.282 55.0647C229.552 52.5552 229.065 48.94 227.474 45.7076C226.695 44.1195 225.351 42.5683 223.664 41.8235C221.985 41.0667 219.582 40.8287 218.803 41.5427C218.78 41.5611 218.76 41.578 218.741 41.5951C217.8 42.1295 218.535 45.1499 219.045 47.4783C219.603 49.9049 219.575 52.4827 218.845 53.8971C218.679 54.2612 218.496 54.571 218.308 54.8457C216.95 56.6106 216.014 57.0053 213.754 57.8474C212.254 58.3993 210.085 58.6393 208.923 60.0267C208.633 60.3665 208.506 60.5163 208.457 60.4347C208.417 60.3559 208.461 60.0502 208.717 59.6212C209.523 58.341 210.794 58.0424 211.373 57.5884C212.608 56.6977 213.188 56.4763 214.765 56.1294C216.366 55.6963 216.416 54.6704 216.892 54.0765C216.906 54.0569 216.921 54.0379 216.935 54.0193C217.156 53.712 217.361 53.5754 217.608 52.9581C217.831 52.3442 218.099 51.1884 217.44 48.8534C216.515 45.4108 214.615 42.3034 216.972 39.6563C217.672 38.953 218.468 38.6513 219.112 38.4906C220.626 38.1128 222.753 38.4562 224.782 39.4498C226.338 40.2245 227.619 41.47 228.569 42.6543C231.138 45.3835 232.446 52.4636 232.003 55.3823C231.681 58.3046 231.258 58.3216 229.813 60.275Z" fill="#2E7037"/>
<path d="M170.036 217.574C174.975 211.87 183.212 209.053 191.072 210.347C207.594 213.068 202.314 232.602 199.67 243.657C198.988 246.506 198.407 249.432 198.817 252.366C199.354 256.231 201.308 259.702 201.683 263.652C202.229 269.478 199.158 275.953 193.383 277.983C187.003 280.226 181.245 276.097 179.138 270.169C178.2 267.55 177.996 264.744 177.731 261.989C177.706 261.727 177.681 261.466 177.656 261.205C177.18 261.535 176.686 261.83 176.178 262.086C175.273 263.258 174.296 264.37 173.176 265.315C168.57 269.197 161.26 269.239 158.403 263.251C155.886 257.988 159.256 253.382 162.122 249.185C164.139 246.237 165.755 243.143 167.031 239.898C160.573 237.876 155.335 232.634 152.943 226.068C151.536 222.229 155.127 218.204 158.922 218.221C161.655 218.233 164.389 218.235 167.122 218.236C168.019 217.921 169.002 217.708 170.036 217.574Z" fill="#7AB026"/>
<path d="M176.091 266.102C176.02 264.685 175.855 263.411 175.591 262.194C175.535 261.933 175.476 261.675 175.415 261.42L178.939 263.056C178.434 263.505 177.898 263.939 177.312 264.344L178.178 263.63C177.448 264.964 176.595 266.393 175.234 267.755C174.143 268.831 172.758 269.769 171.067 270.357C167.444 271.538 165.021 271.008 162.849 270.175C160.733 269.258 158.322 267.85 156.401 264.206C156.371 264.148 156.341 264.088 156.311 264.027C154.553 260.75 155.296 256.513 156.669 253.979C158.008 251.326 159.534 249.484 160.423 248.025C160.698 247.586 160.918 247.182 161.08 246.822C162.207 244.155 163.556 244.543 165.012 240.614C165.174 240.151 165.325 239.709 165.468 239.284L166.529 241.5C162.898 240.474 160.624 238.865 158.254 236.272C156.695 234.618 153.649 230.685 152.203 226.337C150.838 222.446 153.786 219.225 155.399 218.154C156.362 217.453 157.623 217.012 158.928 217.033C161.951 217.081 164.965 217.553 167.122 217.752L166.961 217.779C167.141 217.733 167.316 217.692 167.483 217.654C168.394 217.451 169.122 217.42 169.676 217.431C169.911 217.437 170.028 217.507 170.038 217.589C170.038 217.589 170.038 217.589 170.038 217.589C170.051 217.691 169.902 217.81 169.617 217.867C168.949 218.002 168.125 218.221 167.256 218.62L167.122 218.643C166.068 218.739 164.866 218.875 163.56 219.065C161.485 219.368 160.223 219.386 158.917 219.34C157.723 219.32 155.692 219.548 154.286 222.25C153.735 223.485 153.831 224.668 154.289 225.574C155.981 229.012 157.873 231.735 161.663 235.189C163.808 237.032 165.744 237.65 167.624 238.005L169.692 238.722L168.878 240.624C168.098 243.366 167.243 246.324 164 250.471C163.607 250.962 163.189 251.465 162.752 251.986C158.528 256.903 158.986 259.907 160.671 262.166C161.751 263.554 163.041 264.585 165.554 264.718C167.305 264.787 169.43 264.122 171.071 262.817C171.969 262.108 172.844 261.196 173.7 260.174L174.772 259.289C175.158 259.12 175.539 258.917 175.912 258.687L180.352 255.783L180.706 260.913C180.721 261.18 180.735 261.441 180.748 261.697C180.896 264.707 181.027 267.272 181.655 269.267C182.25 271.249 183.314 272.782 184.307 273.693C186.272 275.555 189.327 276.62 192.485 275.427C195.201 274.481 197.557 271.864 198.641 268.515C199.111 267.09 199.314 265.479 199.159 263.888C198.929 260.795 196.927 257.366 196.165 252.735C195.643 249.208 196.342 245.891 197.082 243.037C197.418 241.753 197.766 240.505 198.115 239.279C201.28 230.157 202.232 215.387 195.482 212.861C193.797 211.832 192.297 211.392 190.949 211.095C188.234 210.578 186.096 210.437 182.168 211.408C178.8 212.252 174.407 214.18 171.169 216.788C169.574 218.123 169.548 217.543 170.961 215.873C173.101 213.477 175.533 212.366 176.835 211.266C179.514 209.138 181.04 208.234 185.388 208.335C188.029 208.48 189.786 208.354 191.403 208.336C192.464 208.339 193.417 208.408 194.395 208.778C195.65 209.289 196.219 209.68 197.9 210.863C199.407 212.04 202.798 214.45 204.235 220.978C206.018 233.571 202.986 239.911 202.403 244.311C202.381 244.416 202.359 244.52 202.339 244.622C201.959 246.554 201.203 249.287 201.477 251.995C201.725 255.085 203.696 258.989 204.202 263.413C204.252 263.869 204.284 264.318 204.301 264.761C204.684 269.438 201.78 277.945 194.28 280.534C188.64 282.756 182.767 279.848 180.544 277.673C177.419 274.793 177.001 272.823 176.58 271.078C176.317 269.726 176.209 268.333 176.091 266.102Z" fill="#2E7037"/>
<path d="M156.475 156.249C154.76 157.75 153.447 159.908 153.575 162.254C153.685 164.361 155.059 166.314 157.106 166.92C159.383 167.594 161.908 166.579 163.563 165.001C165.218 163.423 166.156 160.957 165.772 158.646C165.388 156.334 163.486 154.619 161.2 154.372C158.906 154.125 156.381 155.592 155.468 157.784C154.555 159.976 154.956 162.766 156.551 164.455C158.368 166.382 161.533 165.768 163.188 163.934C164.032 162.996 164.501 161.81 164.791 160.599C165.081 159.388 165.252 157.963 164.885 156.709C164.16 154.27 161.669 153.297 159.358 154.184C156.935 155.114 155.946 157.477 155.895 159.917C155.869 161.077 155.878 162.331 156.415 163.38C156.952 164.429 157.933 165.001 159.076 165.052C161.994 165.188 163.179 161.938 163.273 159.524C163.316 158.526 163.358 156.999 162.429 156.36C161.286 155.575 159.665 156.291 158.923 157.298C158.181 158.304 157.933 159.712 157.959 160.906C157.959 161.392 158.061 161.879 158.42 162.237C158.923 162.723 159.75 162.732 160.398 162.552C161.738 162.186 162.403 161.026 162.838 159.806C163.179 158.859 163.555 157.605 163.154 156.624C162.676 155.438 161.26 155.421 160.253 155.916C159.085 156.479 158.769 157.741 158.565 158.919C158.385 159.925 157.908 161.768 159.273 162.117C160.637 162.476 161.934 161.418 162.301 160.172C162.642 159.012 162.582 157.69 162.19 156.547C162.028 156.078 161.814 155.515 161.371 155.242C160.714 154.841 159.776 155.029 159.153 155.404C158.129 156.044 157.857 157.392 157.652 158.501C157.413 159.737 157.37 161.017 157.507 162.271C157.643 163.525 157.959 164.762 158.462 165.93C158.846 166.826 160.373 166.229 160.782 165.674C161.874 164.199 162.011 162.356 161.866 160.59C161.729 158.978 161.439 156.675 159.221 157.153C158.112 157.383 157.558 158.117 157.149 159.115C156.79 159.985 156.688 161 157.524 161.64C158.36 162.279 159.725 162.049 160.441 161.316C160.961 160.778 161.072 159.857 160.313 159.481C159.793 159.226 159.085 159.362 158.607 159.678C158.275 159.9 157.899 160.454 158.428 160.719C158.445 160.719 158.445 160.846 158.428 160.846C158.377 160.829 159.631 160.599 159.622 160.548C159.605 160.497 159.435 160.377 159.392 160.309C159.136 159.866 159.366 159.302 159.563 158.867C159.614 158.748 159.853 158.432 159.853 158.33C159.87 158.646 158.692 158.211 158.803 158.552C158.82 158.612 158.94 158.688 158.965 158.748C159.187 159.081 159.247 159.507 159.315 159.899C159.605 161.802 159.742 163.926 158.539 165.555L160.859 165.299C160.168 163.678 159.793 161.904 159.861 160.138C159.895 159.268 160.006 158.407 160.228 157.571C160.322 157.204 160.407 156.82 160.569 156.479C160.603 156.411 160.68 156.342 160.688 156.283C160.74 155.916 159.494 156.769 159.46 156.453C159.46 156.564 159.673 156.82 159.725 156.922C160.04 157.699 160.185 158.552 160.117 159.388C160.083 159.789 160.032 160.249 159.87 160.616C159.827 160.701 159.682 160.829 159.673 160.906L160.253 160.795C160.697 160.915 160.893 160.855 160.816 160.608C160.833 160.573 160.816 160.172 160.816 160.172C160.876 159.268 160.996 158.313 161.269 157.443C161.311 157.306 161.379 157.204 161.422 157.076C161.439 157.042 161.516 156.965 161.516 156.931C161.516 156.957 160.697 157.025 160.68 157.085C160.663 157.161 160.859 157.537 160.885 157.656C161.021 158.373 160.748 159.2 160.509 159.883C160.373 160.284 160.219 160.684 159.989 161.043C159.938 161.119 159.776 161.256 159.759 161.324C159.716 161.478 160.654 161.128 160.612 161.222C160.612 161.222 160.492 161.094 160.492 161.085C160.262 160.249 160.424 159.337 160.671 158.518C160.782 158.159 160.944 157.869 161.106 157.545C161.141 157.486 161.226 157.451 161.243 157.392L160.424 157.537L160.484 157.596C160.543 157.75 160.646 157.878 160.697 158.04C161.149 159.584 160.808 161.512 160.091 162.936C159.989 163.132 159.878 163.32 159.767 163.508C159.656 163.696 159.554 163.636 159.784 163.602C160.015 163.568 159.946 163.627 159.784 163.559C159.614 163.491 159.452 163.422 159.307 163.32C158.701 162.877 158.479 162.075 158.377 161.367C158.155 159.848 158.198 157.938 158.974 156.564C159.247 156.087 159.699 155.515 160.262 155.37C160.748 155.251 161.294 155.6 161.635 155.942C162.864 157.17 162.787 159.004 162.446 160.582C162.19 161.768 161.644 163.798 160.262 164.148C159.665 164.293 159.068 163.841 158.71 163.431C158.215 162.885 157.899 162.211 157.703 161.512C157.259 159.959 157.302 158.091 158.385 156.777C159.213 155.779 160.245 155.618 161.371 156.266C162.736 157.051 163.469 158.586 163.452 160.138C163.435 161.691 162.855 163.235 161.789 164.327C160.987 165.154 159.921 165.82 158.769 165.564C157.439 165.282 156.517 164.054 156.168 162.8C155.741 161.307 156.108 159.763 156.918 158.475C157.328 157.818 157.848 157.255 158.428 156.743C158.829 156.394 158.641 155.916 158.172 155.788C157.592 155.635 156.918 155.856 156.475 156.24V156.257V156.249Z" fill="#388F44"/>
<g style="mix-blend-mode:multiply" opacity="0.55">
<path fill-rule="evenodd" clip-rule="evenodd" d="M202.77 57.4436C203.724 59.1911 204.571 60.9065 205.3 62.5275C207.18 66.7099 208.618 71.0038 209.632 75.3707C211.578 82.646 216.062 104.949 216.062 104.949C216.062 104.949 184.826 106.615 179.412 128.272C173.998 149.929 202.735 147.43 202.735 147.43C202.735 147.43 196.143 156.084 192.739 159.507C186.529 165.755 174.914 167.769 159.838 165.755C148.458 164.234 138.702 155.91 133.222 149.92C130.29 146.718 127.353 138.267 127.353 138.267C127.353 138.267 135.693 140.588 141.513 137.434C146.511 133.686 150.259 128.688 150.259 118.693C150.259 109.531 143.967 102.567 140.264 98.7022C132.405 90.5024 123.605 92.8716 123.605 92.8716C123.605 92.8716 122.636 72.5578 130.268 63.7182C133.84 59.5819 137.464 59.8631 141.097 56.2217C146.041 51.2649 145.199 43.1833 150.259 40.8121C169.742 31.683 191.578 35.4756 202.77 57.4436Z" fill="#388F44"/>
<path d="M71.2975 82.0757C73.536 78.725 79.2465 77.4636 82.06 81.9594C87.8225 91.1612 93.674 98.3935 100.699 109.115C103.934 114.051 105.616 117.707 108.187 122.146C112.978 138.109 108.187 142.849 101.948 141.183C98.3038 138.081 92.7714 127.255 87.3718 120.776C78.701 110.371 75.3345 99.638 69.6829 90.0546C69.6829 90.0546 71.5442 93.2357 69.6739 90.0636C67.8036 86.8914 69.0233 83.7971 71.2975 82.0757Z" fill="#388F44"/>
<path d="M181.427 215.181C185.024 213.253 188.916 211.843 192.497 213.649C197.393 216.106 197.299 221.795 195.951 226.307C192.463 237.951 193.324 249.979 194.254 261.938C194.8 268.907 184.829 269.836 183.6 263.012C182.763 258.359 181.912 249.467 181.079 249.05C179.893 248.457 179.243 250.171 178.524 251.285C175.664 255.714 173.816 260.347 168.221 259.878C163.76 259.495 165.09 252.798 165.09 252.798C165.09 252.798 169.834 244.052 171.697 238.397C172.06 237.298 172.668 235.328 173.166 234.474C171.569 234.916 169.948 236.483 168.221 236.296C162.233 235.657 159.776 228.159 165.09 224.729C170.404 221.3 175.846 218.127 181.433 215.176L181.427 215.181Z" fill="#388F44"/>
<path d="M201.947 174.64C207.04 169.897 215.365 175.988 211.689 182.155C203.236 196.349 193.999 198.348 179.412 206.153C175.77 208.098 171.499 211.15 169.001 213.649C167.335 215.315 158.589 210.734 153.591 216.148C150.37 219.637 147.51 226.56 149.633 230.725C150.742 232.9 154.424 237.805 157.546 240.72C159.449 242.496 160.671 243.635 157.546 247.384C153.771 251.912 150.634 256.982 151.299 261.127C151.716 266.958 158.315 275.093 163.073 276.028C168.904 277.175 174.318 272.177 174.318 272.177C174.318 272.177 174.804 275.734 175.151 278.008C175.635 281.181 181.078 283.701 176.497 286.116C167.923 290.635 159.454 288.589 149.633 284.866C141.018 281.601 138.938 274.906 130.685 270.809C125.984 268.476 120.817 266.04 115.692 264.459C99.6689 259.516 92.821 253.252 75.2939 259.878C64.67 263.894 61.2848 266.902 57.3855 276.954C56.9127 278.172 55.692 281.862 55.0296 282.89C53.8094 287.366 47.7969 287.047 43.9564 287.162C37.4822 287.349 30.7606 283.041 26.3335 278.7C24.572 276.966 22.9952 275.049 21.5595 273.02C19.8112 270.877 18.294 268.534 17.0483 266.076C14.7519 262.028 12.9716 257.282 12.8307 252.837C12.5833 244.963 20.0723 242.191 26.3929 245.381C31.9512 248.185 32.0143 248.429 39.0606 250.299C53.0646 254.017 53.2208 232.391 69.4632 232.391C85.7057 232.391 89.1069 242.803 103.198 234.473C106.928 232.268 110.01 229.112 109.445 227.393C108.669 225.03 108.017 222.097 107.362 218.647C105.012 206.258 104.407 200.057 104.864 188.094C105.307 176.475 107.325 159.747 109.445 158.675C119.453 153.613 125.099 174.503 138.181 179.915C161.352 189.5 180.915 194.226 201.947 174.64Z" fill="#388F44"/>
<path d="M230.982 213.686C238.48 215.213 243.487 222.225 244.519 229.475C245.824 238.603 237.048 251.753 234.984 260.369C234.331 263.065 233.857 268.551 233.857 268.551C233.857 268.551 233.248 275.31 235.997 277.795C237.719 279.35 248.547 276.12 248.547 276.12C248.547 276.12 243.549 289.171 244.519 290.943C245.488 292.715 257.711 290.005 263.956 290.943C263.956 290.943 259.412 297.993 252.295 303.608C247.794 307.989 234.819 318.798 229.389 321.516C223.378 324.516 223.142 308.605 221.893 287.963C217.195 262.17 207.771 237.457 209.659 227.322L209.701 227.382L209.82 227.348C210.997 221.016 225.584 212.584 230.982 213.686Z" fill="#388F44"/>
</g>
</svg>
