<svg width="204" height="353" viewBox="0 0 204 353" fill="none" xmlns="http://www.w3.org/2000/svg">
<path d="M45.1939 28.3981C35.6858 34.6989 28.6641 53.5405 26.0361 77.5374C21.9592 114.803 49.008 162.184 84.2644 161.84C113.618 161.557 134.79 127.971 141.179 103.219C150.229 68.1436 139.285 35.8849 107.991 20.17C92.4653 12.3665 57.4649 20.2576 45.1939 28.3913V28.3981Z" fill="#7AB026"/>
<path d="M131.766 121.797C135.279 115.604 136.431 109.596 138.016 102.403C138.442 100.407 138.895 98.3142 139.4 96.0598C141.426 85.4574 142.825 83.7301 141.674 71.2685C140.331 58.8054 135.143 47.1038 131.609 42.7819C128.121 38.4923 128.708 37.2029 122.818 31.7921C117.085 26.9027 113.14 24.2709 107.551 21.0459C107.25 20.8753 106.935 20.7078 106.604 20.5435C100.595 16.332 78.2223 17.3999 70.6939 19.7726C63.0122 21.5736 54.2525 23.9204 49.3597 26.2784C47.8029 27.0048 46.6715 27.6045 45.7552 28.1302C45.4214 28.3217 45.2459 28.4023 45.1966 28.3954C45.195 28.3958 45.1911 28.3981 45.1873 28.3981C45.1873 28.3981 45.1873 28.3981 45.1873 28.3981C45.1872 28.3981 45.1872 28.3981 45.1872 28.3981C45.1872 28.3981 45.1872 28.3981 45.1872 28.3981C45.1833 28.3981 45.1794 28.3958 45.1756 28.3913L45.1758 28.3812L45.1838 28.3761C45.2003 28.3162 45.419 28.1222 45.8538 27.8456C48.1609 26.3683 51.7671 24.5502 56.2364 22.746C64.618 19.5966 65.6644 19.5384 77.5347 17.2956C88.6652 15.8739 96.2832 13.9536 108.572 19.0135C109.325 19.4014 110.087 19.8125 110.857 20.2499C122.656 27.9842 127.836 28.4105 138.032 46.4163C145.54 65.3052 147.309 67.674 147.073 88.2729C146.707 93.3735 145.788 98.7585 144.393 104.048C140.169 120.288 130.665 134.608 124.838 141.826C117.474 151.249 103.871 164.621 84.8474 164.831C84.6633 164.832 84.4786 164.833 84.2932 164.832C65.4944 165.398 45.9905 150.44 36.8096 133.719C35.661 131.731 34.5399 129.616 33.4733 127.394C25.1193 111.024 22.8078 88.3823 24.9616 77.4198C24.982 77.2835 25.0023 77.1492 25.0225 77.0167C27.0953 64.8501 27.6088 61.8842 30.9069 50.4772C32.9486 44.0321 36.8592 35.0173 43.073 29.8556C44.6306 28.5964 45.3607 28.3039 45.1955 28.4697C45.0534 28.6498 44.0411 29.3602 42.6573 30.7705C38.6669 34.975 36.5488 39.368 35.5519 42.1778C33.7575 47.8919 33.3157 50.3535 31.0765 57.519C28.9301 64.7425 29.5678 68.4843 28.8943 72.7837C28.6235 74.5716 28.3553 75.589 28.0189 77.7545C27.6873 80.7205 26.5994 86.1645 29.1133 98.8499C31.62 110.391 35.4076 118.571 38.6869 124.707C41.5622 129.997 44.2096 133.771 46.544 136.756C51.2223 143.236 63.6789 156.325 76.8808 158.187C78.9958 158.564 81.4848 158.835 84.2347 158.794C98.5018 159.6 115.132 145.657 120.125 138.112C126.481 129.173 127.046 129.493 131.766 121.797Z" fill="#2E7037"/>
<path d="M18.6709 278.239C16.993 213.607 16.1237 179.981 38.9946 148.638C45.2952 140.006 56.1106 125.605 75.2887 120.032C94.6015 114.412 111.704 120.861 116.623 122.795C155.067 137.904 168.356 185.432 181.503 232.489C193.261 274.56 201.146 304.419 184.427 325.276C175.397 336.543 158.234 346.388 143.214 341.954C127.574 337.331 116.994 318.018 116.623 302.424C116.401 293.118 119.885 288.044 116.623 283.792C111.435 277.026 95.518 280.591 83.6243 284.317C86.5758 288.098 90.4775 294.196 92.3172 302.424C95.5786 317.054 92.553 339.616 76.8049 347.467C61.3532 355.169 42.2426 344.421 32.5861 334.272C22.4041 323.578 19.5065 310.147 18.6777 278.239H18.6709Z" fill="#7AB026"/>
<path d="M192.78 314.171C190.987 318.747 188.688 322.807 185.906 326.461C178.392 335.685 168.629 344.816 151.729 345.811C148.206 345.851 145.122 345.303 142.476 344.452C128.724 338.355 123.824 333.061 116.601 313.504C115.573 309.916 114.943 306.195 114.861 302.466C114.321 295.679 118.097 288.341 115.325 284.788C112.146 280.878 105.512 281.337 100.951 281.802C96.1512 282.381 92.1365 283.437 89.2276 284.305C87.226 284.911 85.5797 285.418 84.1066 285.857L84.8957 283.325C88.4175 288.437 90.4142 291.262 93.383 302.186C93.4887 302.645 93.5924 303.124 93.6928 303.625C96.0528 318.865 94.3396 329.349 86.4054 340.495C84.6019 342.765 81.5909 345.893 77.1017 348.062C62.8918 355.845 41.2248 344.58 32.2238 334.617C29.9626 332.279 28.2515 329.987 27.0307 328.083C18.7519 314.936 19.3446 297.063 18.7495 287.033C18.6446 283.87 18.6153 281.331 18.6108 279.436C18.6091 278.682 18.6377 278.294 18.6756 278.239C18.6732 278.238 18.6709 278.234 18.6709 278.231C18.6709 278.231 18.6709 278.231 18.6709 278.231C18.6709 278.231 18.6709 278.231 18.6709 278.231C18.6709 278.231 18.6709 278.231 18.6709 278.231C18.6709 278.228 18.6732 278.225 18.6777 278.221L18.695 278.221L18.6954 278.239C18.7468 278.305 18.8081 278.891 18.8428 279.869C19.0397 284.902 19.3296 292.529 20.4659 301.376C23.2011 316.114 21.8184 320.348 33.0296 333.85C34.1239 334.984 35.365 336.149 36.7744 337.332C49.3501 347.215 62.4757 352.553 76.2721 346.398C81.034 344.033 85.3309 339.716 88.2527 333.602C93.6208 321.154 92.8019 312.203 90.8334 302.755C89.4825 297.423 87.1115 291.688 82.2536 285.388L80.7119 283.398L83.1044 282.658C87.9389 281.182 93.5405 279.577 100.428 278.799C107.013 278.188 113.803 278.192 117.692 282.972C120.568 286.891 119.034 290.971 118.759 293.876C118.288 296.927 118.07 299.684 118.224 302.386C119.437 312.892 122.135 324.943 137.514 336.362C139.522 337.62 141.701 338.638 143.998 339.301C157.327 343.16 173.285 334.618 182.338 323.602C195.147 307.954 191.566 287.111 189.757 275.849C187.537 263.548 183.426 249.05 178.914 233.213C175.409 220.915 171.77 207.826 167.421 194.702C159.04 169.382 144.259 136.506 115.516 125.613C111.109 123.844 106.609 122.519 102.079 121.657C94.0785 120.115 84.8904 120.013 76.0049 122.493C61.1426 126.323 48.9704 138.002 40.539 149.766C32.6207 160.16 27.9768 170.857 25.4892 178.609C19.2504 200.459 19.505 206.416 19.0571 228.398C19.0237 241.091 19.2782 258.593 18.9539 273.407C18.7897 280.877 18.2371 279.162 17.8108 271.705C17.184 260.718 17.242 251.757 16.5731 246.093C15.2876 234.798 14.7186 229.954 16.0794 215.63C17.604 201.357 17.1558 194.413 19.107 186.109C22.0153 178.893 18.6207 176.638 37.0945 147.252C38.6009 145.14 40.2556 142.846 42.1618 140.444C51.7401 128.102 63.5333 120.403 74.4791 117.246C93.9268 111.809 108.084 116.259 117.794 119.818C117.928 119.87 118.063 119.923 118.196 119.975C135.385 124.534 158.334 153.014 166.946 177.861C172.469 190.957 178.68 212.022 184.078 231.77C188.845 248.74 193.046 264.961 194.814 274.843C197.93 296.263 197.805 297.067 192.78 314.171Z" fill="#2E7037"/>
<path d="M20.3331 330.968C20.3331 330.968 33.6441 339.09 37.8423 342.89C49.4259 353.383 75.2415 353.922 84.9451 342.89C96.5558 329.689 85.4842 299.506 67.0542 284.93C48.2197 270.037 20.0726 270.186 16.7235 277.356C14.0685 283.03 26.8044 293.34 23.7316 297.377C20.989 300.982 10.3016 293.475 5.21395 297.902C0.267813 302.195 2.39722 316.171 9.97815 322.883C12.2027 324.85 20.3331 330.968 20.3331 330.968Z" fill="#7AB026"/>
<path d="M52.6578 279.005C47.2934 276.454 42.2898 277.048 35.4537 276.089C28.7295 275.551 26.8082 273.987 20.2199 276.885C19.4622 277.352 18.9264 277.905 18.7555 278.305C18.0033 279.568 19.8411 283.251 21.3034 285.6C22.8385 288.119 24.2671 290.28 25.2304 291.854C26.4348 293.913 27.0371 296.104 25.1592 298.463C23.6959 300.102 21.3606 300.055 19.0877 299.776C13.5412 299.025 10.5173 297.293 6.90541 298.296C6.62406 298.399 6.31129 298.552 5.98683 298.79C1.20469 301.681 4.22691 315.772 7.70253 318.74C8.65896 319.871 9.66044 321.002 10.7465 322.015C13.4977 324.467 16.2297 327.103 18.1354 328.756C18.9881 329.487 19.6269 330.082 20.1149 330.567C20.3194 330.771 20.3787 330.919 20.3242 330.979C20.3241 330.979 20.3241 330.98 20.3241 330.98C20.2657 331.062 20.045 331.021 19.7429 330.809C18.2749 329.776 16.0573 328.302 13.339 326.652C11.4769 325.515 10.3084 324.668 9.2366 323.721C7.4369 321.988 5.94425 320.278 3.5885 315.611C2.07815 312.408 1.23736 309.533 0.934956 306.476C0.78286 303.516 0.560771 299.848 4.01367 296.519C5.22158 295.475 6.885 294.902 8.48012 294.817C12.3838 294.732 14.7121 295.523 17.0281 295.81C18.1626 295.982 19.2669 296.13 20.2932 296.158C20.7958 296.17 21.2848 296.141 21.5977 296.056C21.7548 296.016 21.8483 295.963 21.8679 295.937C21.8896 295.908 21.8389 295.928 21.8299 295.93C21.7934 295.935 21.8076 296.035 21.8023 295.76C21.7899 295.504 21.6778 295.025 21.4669 294.471C21.0442 293.345 20.2919 291.93 19.407 290.278C16.7318 284.877 13.4112 281.924 14.8456 276.477C17.7948 271.184 22.4377 270.031 29.8675 269.398C44.1463 268.533 60.2626 276.493 66.755 281.564C67.3674 281.996 67.9923 282.454 68.6258 282.942C74.9871 287.799 81.8141 295.611 86.2716 305.249C90.8411 315.356 96.7618 331.335 87.6225 343.565C87.359 343.886 87.0816 344.202 86.79 344.513C76.3475 355.209 57.3056 352.991 50.0341 350.347C43.6196 348.039 41.3829 346.619 37.3731 343.408C36.5965 342.738 35.6252 342.022 34.5029 341.246C30.851 338.729 25.7608 335.285 21.6114 332.1C19.5145 330.502 20.2215 330.511 22.5476 331.754C25.9628 333.589 28.5257 335.461 30.4351 336.195C34.0366 337.631 35.7093 338.179 39.0661 341.539C39.2189 341.708 39.3796 341.882 39.5501 342.063C42.9139 345.419 45.701 345.16 48.1402 346.263C50.6996 346.901 50.3776 349.354 64.6948 348.927C74.3156 348.038 80.2279 344.487 82.9609 341.145C84.2924 339.538 85.0623 337.919 85.5792 336.445C87.624 332.077 87.5766 320.546 83.8697 312.431C81.169 304.84 72.0795 291.591 65.3038 287.143C64.6989 286.694 64.1334 286.305 63.6232 285.974C57.558 282.321 57.8518 281.767 52.6578 279.005Z" fill="#2E7037"/>
<path d="M186.766 321.509C178.996 326.368 176.402 332.102 172.79 335.903C162.817 346.395 140.613 346.934 132.257 335.903C122.264 322.702 131.792 292.519 147.648 277.943C163.861 263.05 188.073 263.198 190.957 270.368C193.235 276.042 182.278 286.353 184.926 290.389C187.285 293.994 196.476 286.487 200.863 290.915C205.115 295.207 203.289 309.184 196.766 315.895C193.76 318.989 191.988 318.241 186.766 321.502V321.509Z" fill="#7AB026"/>
<path d="M157.883 269.352C163.174 267.201 167.225 264.575 174.405 264.032C177.982 263.832 180.045 264.139 182.211 264.534C184.329 265.083 186.783 265.111 190.361 267.839C190.999 268.41 191.565 269.133 191.901 269.989C193.142 274.428 190.523 277.512 189.233 280.109C187.724 282.685 186.468 284.792 185.947 286.216C185.275 288.101 184.935 288.997 185.408 290.073C185.706 290.758 186.798 291.171 188.646 290.758C193.21 289.823 196.745 287.56 200.744 290.405C200.847 290.497 200.954 290.6 201.064 290.716C205.311 294.637 202.477 308.115 199.792 311.927C199.004 313.352 198 314.76 196.821 315.95C194.519 318.482 191.144 319.004 189.253 320.106C188.324 320.57 187.627 320.977 187.092 321.302C186.898 321.42 186.79 321.487 186.766 321.502C186.766 321.507 186.766 321.509 186.766 321.509C186.766 321.509 186.766 321.509 186.766 321.509C186.766 321.509 186.766 321.509 186.766 321.509C186.766 321.509 186.766 321.509 186.766 321.509C186.766 321.509 186.766 321.507 186.766 321.502C186.797 321.483 186.958 321.382 187.211 321.228C188.605 320.333 190.86 319.323 193.534 318.187C195.049 317.464 195.953 316.625 196.711 315.842C198.311 314.037 199.629 312.593 201.368 307.855C203.069 301.829 204.252 296.655 200.57 291.205C200.024 290.655 199.312 290.244 198.471 290.044C195.656 289.522 193.477 290.502 191.477 291.084C190.463 291.406 189.466 291.749 188.311 291.972C187.735 292.077 187.102 292.163 186.379 292.071C185.666 291.993 184.772 291.588 184.273 290.816C182.715 287.894 184.654 285.141 186.322 282.038C189.459 276.805 191.187 273.26 190.036 270.738C188.792 268.56 185.391 267.496 179.867 267.388C168.169 267.043 154.181 273.832 149.33 278.9C149.188 279.033 149.045 279.169 148.902 279.308C143.88 284.108 138.67 291.981 134.923 300.987C131.07 310.076 128.952 323.455 133.264 332.388C133.582 333.037 133.955 333.68 134.384 334.293C139.865 342.706 155.756 343.063 161.77 341.019C167.18 339.488 169.312 338.157 172.102 335.25C172.835 334.43 173.578 333.42 174.436 332.158C176.644 328.748 180.664 324.063 185.21 322.009C187.471 320.979 187.239 321.742 185.423 323.293C182.807 325.595 180.686 327.514 180.002 329.281C178.649 332.756 178.465 334.292 174.553 337.579C174.515 337.609 174.477 337.638 174.439 337.668C170.303 340.694 168.916 342.963 166.072 344.058C164.66 344.535 163.88 344.555 161.724 345.003C159.553 345.343 156.02 346.505 148.643 346.28C139.726 345.854 133.245 342.012 129.943 337.656C127.758 334.796 126.821 332.105 126.202 329.891C124.322 324.135 125.946 312.498 128.781 304.258C130.953 295.908 140.243 281.29 146.213 276.382C146.366 276.237 146.514 276.099 146.656 275.967C152.161 271.201 152.652 271.767 157.883 269.352Z" fill="#2E7037"/>
<path d="M15.4902 154.562C14.7153 155.068 2.69362 163.114 1.66261 177.373C0.0722985 199.254 25.7262 216.734 32.5726 213.068C37.4716 210.44 32.0268 197.36 38.981 192.724C45.632 188.29 56.4205 196.376 59.2305 192.724C61.7238 189.476 53.314 182.919 54.7696 172.69C55.7332 165.951 59.9515 164.785 59.2305 161.105C57.593 152.662 32.4513 143.591 15.4902 154.569V154.562Z" fill="#7AB026"/>
<path d="M51.9823 191.51C53.2964 191.963 54.556 192.261 55.7368 192.34C56.9181 192.449 57.9309 192.106 57.9576 191.745C58.1797 191.584 57.728 190.021 56.8664 188.132C54.7961 183.021 54.1989 182.027 53.6437 175.411C53.6258 174.452 53.6938 173.498 53.8413 172.558C54.4471 166.764 59.7302 163.375 58.5376 161.241C58.5292 161.205 58.5206 161.17 58.5116 161.136C57.6306 158.909 57.6811 158.263 54.6125 155.876C51.3591 153.687 49.1114 152.732 45.8394 151.559C42.6258 150.081 31.7971 149.033 27.9458 150.043C24.0757 150.595 19.8206 152.079 17.4777 153.4C16.7381 153.796 16.1792 154.133 15.7493 154.404C15.595 154.501 15.5118 154.555 15.4902 154.569C15.4902 154.564 15.4902 154.562 15.4902 154.562C15.4902 154.562 15.4902 154.564 15.4902 154.569C15.5176 154.551 15.6418 154.47 15.8467 154.341C16.9729 153.63 18.7193 152.65 20.9084 151.774C25.0346 150.294 25.5289 150.069 31.4345 149.451C37.3533 149.17 41.0728 149.299 47.7688 151.497C50.7128 152.574 52.578 153.453 54.497 154.575C56.2769 155.806 58.8076 156.902 59.99 160.958C60.2252 162.001 59.9971 163.343 59.3665 164.386C56.6212 168.172 55.7565 170.38 55.619 172.811C55.4891 175.657 55.844 178.245 58.0087 182.842C58.6591 184.214 59.4424 185.61 60.2211 187.184C60.6054 187.984 60.998 188.801 61.2753 189.87C61.5488 190.851 61.6425 192.555 60.6403 193.806C59.6369 195.153 57.9588 195.485 56.8822 195.478C55.7529 195.483 54.8011 195.295 53.9017 195.101C52.1157 194.696 50.5393 194.201 49.0648 193.829C46.1312 193.047 43.6194 192.832 42.0514 193.269C41.3175 193.456 40.6142 193.763 39.9809 194.224C36.1261 196.694 38.0414 203.292 36.3664 211.467C35.9807 212.632 35.1237 214.15 33.5885 214.962C22.5579 217.305 15.3033 209.913 9.39455 203.81C3.04007 197.05 -1.23078 184.071 0.318512 177.275C0.375114 176.859 0.438674 176.47 0.505524 176.112C1.9494 169.947 2.72471 168.611 5.51097 163.301C7.21489 160.287 10.6062 156.762 14.2189 154.964C16.0609 154.091 15.907 154.783 14.5218 156.112C12.5134 158.098 10.7512 159.623 10.2456 161.096C9.30471 164.051 8.98684 165.077 6.69914 167.775C4.49135 170.621 5.49948 172.729 4.88519 174.53C4.59344 175.504 4.21949 175.924 3.91412 177.536C3.68716 179.036 3.34392 181.696 4.87274 186.472C8.46195 196.195 13.2371 200.151 15.9701 202.875C18.5808 205.391 25.9063 211.892 31.0157 211.314C31.2279 211.271 31.4173 211.204 31.5382 211.137C34.3476 210.354 30.209 196.019 37.8945 191.094C39.0677 190.309 40.2579 189.893 41.2178 189.659C47.8528 188.827 47.5876 190.231 51.9823 191.51Z" fill="#2E7037"/>
<path d="M157.688 146.125C144.225 143.686 129.568 150.175 129.427 155.398C129.292 160.56 143.409 162.81 143.207 168.714C143.005 174.603 128.827 177.427 129.386 181.531C129.898 185.251 141.718 184.489 143.207 189.543C144.777 194.88 133.315 201.673 134.575 203.816C135.377 205.184 141.004 204.092 149.636 200.191C166.583 192.535 184.34 184.516 184.42 171.207C184.501 159.367 170.579 148.47 157.682 146.132L157.688 146.125Z" fill="#7AB026"/>
<path d="M144.672 200.545C146.231 200.05 147.569 199.328 148.869 198.494C151.193 197.012 153.431 195.267 156.655 193.823C161.674 191.52 162.911 192.05 168.19 188.641C173.425 185.247 178.347 181.539 179.364 179.086C180.285 176.743 181.864 177.188 182.427 173.561C182.505 172.697 182.509 171.927 182.484 171.195C182.373 168.926 182.125 167.123 181.44 164.704C181.007 161.249 173.477 153.161 169.566 152.118C165.974 150.739 162.382 148.143 159.81 147.215C159.023 146.923 158.406 146.669 157.933 146.446C157.768 146.369 157.687 146.267 157.675 146.171L157.601 146.159L157.654 146.104C157.672 146.114 157.689 146.126 157.703 146.14C157.703 146.14 157.703 146.14 157.703 146.14C157.703 146.14 157.703 146.14 157.703 146.14C157.703 146.14 157.703 146.14 157.703 146.14C157.718 146.154 157.73 146.171 157.739 146.19L157.696 146.052C157.754 145.942 157.919 145.865 158.158 145.897C159.515 146.075 161.546 146.334 164.018 146.736C168.606 147.664 168.737 148.674 174.069 151.806C179.125 155.247 183.028 157.561 185.387 165.133C186.003 167.55 186.318 169.412 186.478 171.221C186.748 174.916 186.459 179.495 180.747 184.387C172.228 190.627 172.143 192.297 163.141 197.131C159.275 199.075 154.842 200.828 150.657 202.452C144.77 204.595 139.783 206.572 134.9 206.024C134.431 205.888 133.649 205.7 133.033 204.72C132.44 203.675 132.758 202.72 132.943 202.258C133.161 201.74 133.394 201.402 133.632 201.069C134.1 200.432 134.579 199.914 135.067 199.397C136.036 198.379 137.05 197.404 138.031 196.381C139.912 194.434 142.164 191.761 141.696 189.988C141.539 189.247 140.779 188.49 139.673 187.888C138.196 187.072 136.284 186.531 134.275 185.934C133.263 185.628 132.215 185.321 131.121 184.843C130.119 184.347 128.524 183.725 128.155 181.7C127.994 180.521 128.6 179.525 129.138 178.92C129.699 178.289 130.293 177.843 130.887 177.43C132.082 176.616 133.29 175.978 134.473 175.344C136.827 174.081 139.204 172.908 140.921 171.314C141.692 170.587 142.332 169.691 142.401 168.686C141.807 162.676 130.385 161.944 129.143 155.39C129.368 153.218 130.943 152.048 131.967 151.196C137.12 147.808 138.745 147.526 144.466 146.201C147.797 145.546 152.518 145.323 156.424 145.92C158.382 146.239 157.943 146.134 155.964 145.867C153.063 145.521 150.652 145.606 149.157 145.737C146.173 146.061 144.907 146.277 141.252 147.225C137.618 148.262 136.072 149.246 134.209 150.335C133.488 150.777 133.06 151.036 132.312 151.613C131.701 152.202 130.111 153.065 129.807 155.408C129.735 156.793 131.229 158.24 133.381 159.488C138.191 162.404 143.674 163.718 144.095 168.744C143.563 172.95 140.536 174.089 139 175.338C137.849 176.112 136.24 177.002 134.483 178.01C133.61 178.518 132.696 179.058 131.887 179.679C131.072 180.27 130.467 181.101 130.596 181.366C130.528 181.713 131.705 182.458 132.907 182.821C134.125 183.227 135.442 183.532 136.705 183.852C137.816 184.138 139.141 184.475 140.607 185.11C142.002 185.743 143.951 186.772 144.707 189.101C145.676 193.89 142.31 196.576 140.437 198.932C139.381 200.099 138.354 201.152 137.534 202.103C137.129 202.573 136.77 203.028 136.565 203.377C136.467 203.54 136.409 203.697 136.432 203.68C136.441 203.668 136.474 203.609 136.482 203.44C136.492 203.279 136.444 203.007 136.32 202.79C136.173 202.526 135.989 202.393 135.908 202.337C135.823 202.281 135.806 202.274 135.821 202.268C135.957 202.266 136.527 202.237 136.945 202.166C137.39 202.099 137.814 202.016 138.196 201.941C138.964 201.787 139.588 201.667 140.192 201.563C141.392 201.349 142.527 201.217 144.672 200.545Z" fill="#2E7037"/>
<path d="M43.4083 65.6903C50.0593 64.1269 60.9895 62.4358 62.6607 71.513C64.0959 79.3029 55.336 85.0782 49.2309 87.7805C42.27 90.8601 34.662 91.7627 27.1755 90.2937C23.2672 89.5255 19.3181 87.5647 19.2843 83.0027C19.2574 79.1212 22.5794 76.0751 25.3826 73.7974C28.8879 70.9486 32.8991 68.881 37.1693 67.6728C39.198 66.8618 41.2836 66.1863 43.4083 65.6903Z" fill="#0D0829"/>
<path d="M118.045 64.4443C125.288 63.1635 130.076 63.2681 136.394 63.1635C143.187 63.0557 155.808 64.2352 154.696 73.9323C153.802 81.6617 143.49 84.1684 136.897 85.1663C129.729 87.104 122.985 87.17 114.865 86.3859C110.033 85.0247 103.274 81.9648 101.967 76.6074C100.37 70.0613 110.292 65.8152 118.045 64.4443Z" fill="#0D0829"/>
<path d="M48.267 66.8828C51.2388 66.0723 54.3337 68.3518 54.7766 71.4183C55.2623 74.7812 52.0005 77.9534 48.6243 77.5706C45.9358 77.2658 43.9593 75.367 43.7251 72.6714C43.4764 69.8088 45.8364 67.5089 48.267 66.8828Z" fill="#BDBFC0"/>
<path fill-rule="evenodd" clip-rule="evenodd" d="M135.661 65.4404C135.87 65.4406 136.819 65.569 137.022 65.6229C137.048 65.6297 137.076 65.6428 137.103 65.6428C137.272 65.697 138.154 66.0674 138.309 66.155C138.336 66.1685 138.363 66.182 138.39 66.1955C138.409 66.2085 138.441 66.2342 138.443 66.236L138.802 66.5116C139.825 67.1299 140.495 68.2085 140.856 69.3224C140.98 69.7238 141.037 70.1227 141.03 70.5221C141.038 70.6094 141.044 70.6802 141.044 70.7239C141.051 70.98 141.024 70.96 140.957 71.4385C140.93 71.6339 140.916 71.9233 140.849 72.1524C140.795 72.341 140.431 73.183 140.337 73.3586C140.108 73.7898 139.778 74.1876 139.42 74.5178L138.429 75.2793L138.376 75.3134C138.059 75.5088 137.5 75.7171 137.149 75.8384C136.853 75.9395 136.563 75.9467 136.24 75.9939C135.95 76.0343 135.64 76.1086 135.337 76.0884C134.825 76.0547 134.292 75.9732 133.78 75.8789C133.686 75.8586 133.591 75.839 133.497 75.812C132.857 75.6638 132.304 75.3668 131.833 74.9355C131.307 74.5919 130.882 74.127 130.572 73.561L130.074 72.3882L129.899 71.0883C129.879 70.4144 130.013 69.7805 130.323 69.2009C130.431 68.7899 130.647 68.4326 130.95 68.1227C131.207 67.7305 131.53 67.3942 131.914 67.1202L132.055 66.9371C132.176 66.8158 132.917 66.2433 133.066 66.1486C133.214 66.0543 134.083 65.6906 134.258 65.6364C134.279 65.6297 134.299 65.6159 134.319 65.6159C134.509 65.5619 135.472 65.4404 135.661 65.4404ZM134.818 65.8723V65.8742L134.824 65.8723H134.818Z" fill="#BDBFC0"/>
<path d="M28.5583 77.9568C31.1904 77.0448 32.2768 77.1235 34.7019 76.9639C36.7793 76.8272 38.2533 77.0179 40.0323 77.0449C46.3462 77.1326 48.299 85.853 40.0323 86.8426C37.9499 87.0919 35.9191 87.4426 33.8225 87.4981C30.802 87.578 28.5582 87.8381 27.0132 86.6338C23.3475 83.7765 25.4012 79.0506 28.5583 77.9568Z" fill="#4B4A4B"/>
<path d="M110.97 81.3918C115.147 81.4862 119.11 82.1668 123.099 83.4135C129.13 85.3003 131.711 75.8392 125.707 73.9658C120.929 72.4698 115.976 71.7016 110.97 71.5938C103.244 72.0352 104.662 81.2638 110.97 81.3918Z" fill="#4B4A4B"/>
<path d="M57.5866 1.46246C61.5421 0.597051 65.3294 3.92934 63.3572 8.48546C62.4902 10.4884 61.2341 13.6552 61.2341 13.6552C61.2341 13.6552 63.1497 20.1345 65.3422 23.0809H65.3294C66.9058 25.1969 65.6722 28.5931 63.5699 29.7858C61.0836 31.1939 58.4626 30.1629 56.8656 28.027C54.5584 24.9314 52.9085 21.3991 51.9831 17.6843C47.6924 17.7863 41.9079 14.8289 44.894 9.53354C47.3121 5.24531 53.8031 2.29049 57.5866 1.46246Z" fill="#7AB026"/>
<path d="M54.6984 23.2056C55.3482 24.8374 56.5225 25.7485 57.6684 27.4287C57.7006 27.4754 57.7342 27.5236 57.7683 27.572C58.3316 28.3522 58.7264 28.758 59.1938 29.1294C59.6646 29.4737 60.2631 29.8482 61.3736 29.8031C62.0387 29.7631 62.6903 29.5643 63.2695 29.2554C64.5543 28.5673 65.2237 27.1921 65.324 26.5051C65.4097 25.519 65.8853 25.3616 65.3867 23.9753C65.2715 23.7287 65.1381 23.5171 64.9943 23.3305L64.493 22.6712L65.3294 22.663C65.3336 22.663 65.3379 22.6629 65.3422 22.6628L65.0068 23.3305C64.293 22.3738 63.9288 21.5627 63.4996 20.4862C62.953 19.2095 61.5895 15.3424 61.0405 13.7124L61.0207 13.6482L61.0465 13.5808C61.0661 13.523 61.0862 13.4635 61.1033 13.4108C61.6005 11.9 62.4552 10.2989 62.9141 9.31267C63.0574 9.00593 63.178 8.76729 63.2749 8.58675C63.3161 8.51009 63.3457 8.48061 63.3598 8.48656C63.3598 8.48657 63.3598 8.48657 63.3598 8.48657C63.3598 8.48657 63.3598 8.48657 63.3598 8.48657C63.3772 8.49426 63.3704 8.5569 63.3284 8.66089C63.1263 9.16123 62.8432 9.91595 62.5515 10.8248C62.124 12.1664 61.9052 12.5263 61.4285 13.7323L61.4346 13.5959C61.5308 13.9126 61.6618 14.3058 61.8327 14.7679C62.6831 17.0024 63.3107 18.3018 64.4571 20.8297C64.8756 21.7141 65.2804 22.3088 65.7126 22.8053L66.2567 23.5515L65.3422 23.5426C65.3379 23.5429 65.3336 23.5432 65.3294 23.5436L65.7004 22.8045C66.5723 23.8607 67.281 25.6096 65.8783 28.1015C65.2182 29.1594 64.5036 29.7855 63.8135 30.2152C62.1962 31.0924 60.5412 31.9456 57.6701 30.1841C57.0681 29.7673 56.5219 29.2341 56.064 28.6264C53.8093 25.7071 52.3976 21.9196 51.7522 19.9672C51.5326 19.3411 51.3105 18.6501 51.1052 17.903L52.0046 18.5889C49.7912 18.66 47.1076 18.174 44.9457 16.2388C43.0408 14.7891 42.5356 11.2046 43.9743 9.01498C44.8266 7.44083 46.0685 6.17628 47.3673 5.21809C50.2359 3.05077 54.7356 1.33823 57.4731 0.943805C57.7856 0.89388 58.0735 0.872054 58.3317 0.867781C59.6609 0.864826 60.4456 1.16465 61.1674 1.48205C61.8751 1.82869 62.596 2.20853 63.399 3.20735C64.3899 4.34484 64.5337 6.65638 63.6818 8.05699C63.2673 8.765 63.1951 8.50362 63.3689 7.7568C63.6025 6.66127 63.6382 5.73506 63.3181 5.24154C62.6282 4.30868 62.4007 4.12512 61.6497 3.09971C60.738 2.11299 59.8737 2.54016 59.2213 2.39452C58.8031 2.33517 58.6252 2.16381 57.764 2.27289C57.1187 2.37941 56.0866 2.63067 54.4568 3.36925C50.5054 5.2217 48.7222 6.81239 47.6185 7.90531C47.1359 8.40034 46.4033 9.12019 45.8176 10.0544C45.0495 11.2184 44.7526 12.7177 45.3915 13.7548C46.0414 15.3004 49.5304 16.9094 51.9606 16.7342L52.7093 16.7071L52.9054 17.4546C53.1027 18.2318 53.3161 18.8991 53.4986 19.3843C54.3054 21.4245 54.0804 21.5126 54.6984 23.2056Z" fill="#2E7037"/>
<path d="M99.3892 2.97848C104.593 -1.13813 110.675 0.377858 115.242 3.98287C117.65 5.94773 116.888 9.09255 114.989 10.9442C115.145 14.3903 114.711 17.9128 114.016 21.2342C113.126 25.5133 111.738 28.7951 106.994 29.3882C105.277 29.611 103.732 28.3015 102.6 26.6185C100.539 23.5529 104.237 20.7278 104.811 17.4203C105.049 15.95 105.147 14.4656 105.2 12.9787C103.313 12.7017 101.452 12.1099 99.6424 11.2546C96.1574 9.60987 96.8532 4.98452 99.3892 2.97848Z" fill="#7AB026"/>
<path d="M104.158 16.3246C104.392 15.167 104.137 14.1252 103.954 12.9344L105.019 14.2117C104.345 14.2288 103.617 14.1775 102.835 13.9505C101.007 13.3879 100.559 12.8559 99.2014 12.1878C98.8027 11.9846 98.3441 11.7285 97.8378 11.3121C96.5398 10.2736 96.0762 8.49875 96.183 7.2037C96.2647 5.87308 96.7145 4.88387 96.9153 4.23179C97.3256 3.08901 97.8857 3.12972 98.8609 2.31061C98.9989 2.20419 99.1469 2.08047 99.3088 1.93497C100.615 0.791652 101.685 0.372326 103.196 0.167794C104.732 -0.27264 109.212 0.245132 110.817 0.696271C112.521 0.93573 113.893 2.42539 114.673 3.17849C114.926 3.41312 115.102 3.6248 115.224 3.80137C115.276 3.87627 115.271 3.94634 115.236 3.99101C115.236 3.99101 115.236 3.99101 115.236 3.99101C115.236 3.99104 115.236 3.99107 115.236 3.9911C115.236 3.9911 115.236 3.9911 115.236 3.9911C115.192 4.04672 115.101 4.06322 115.009 4.0029C114.563 3.7107 113.848 3.3283 112.933 3.06753C111.237 2.64423 111.307 2.03226 109.054 1.58268C106.787 1.29465 105.519 1.59593 103.038 2.05823C101.562 2.42082 100.987 3.16927 100.166 3.96017C99.7174 4.4549 99.1428 5.0323 98.5072 6.24013C97.9267 7.43527 98.1591 8.38763 98.5381 8.93872C98.9409 9.5048 99.4624 9.77447 100.226 10.0174C100.744 10.1938 101.328 10.4052 102.04 10.6612C103.088 11.0379 104.229 11.4038 105.395 11.6514L106.614 11.8652L106.54 13.0263C106.394 14.6066 106.156 16.2017 105.838 17.5867L105.836 17.5982C105.488 19.0218 104.861 19.9796 104.49 20.6921C103.631 22.358 102.071 24.4095 103.265 26.1715C103.605 26.7143 103.995 27.2372 104.444 27.688C105.102 28.3554 105.993 28.8653 106.911 28.7525C109.382 28.579 111.563 26.9892 112.534 24.6845C113.014 23.6812 113.395 22.4469 113.707 21.1701C114.427 18.3335 114.817 15.3329 114.902 13.6611C114.974 12.4478 114.968 11.6906 114.944 10.9462L114.943 10.9246L114.957 10.9116C115.479 10.395 115.972 9.82098 116.401 8.73805C116.945 7.52203 116.824 5.42617 115.618 4.32656C115.038 3.79457 115.187 3.89479 115.748 4.45762C116.549 5.31919 116.747 6.32529 116.779 6.91539C116.796 8.10793 116.702 8.68984 115.905 9.99223C115.611 10.4281 115.328 10.7541 115.068 11.0253L115.102 10.9391C115.155 11.646 115.207 12.1536 115.206 12.7346C115.159 13.617 115.273 13.6096 114.833 18.0831C114.694 19.304 114.531 20.3701 114.369 21.3082C113.951 23.8115 113.377 25.4406 112.704 26.5767C112.088 27.9105 109.632 29.8117 107.072 30.0118C106.385 30.1149 105.683 29.9978 105.098 29.773C103.983 29.3668 102.823 28.3209 101.943 27.0608C100.964 25.8372 101.001 23.8397 101.507 22.6338C101.97 21.3709 102.51 20.4453 102.778 19.7918C103.427 18.2416 103.611 18.0142 103.914 17.2646L103.912 17.2747C103.993 17.0206 104.078 16.7201 104.158 16.3246Z" fill="#2E7037"/>
<path d="M74.8238 99.7347C78.9276 95.4758 85.5988 93.9055 91.1716 95.8867C94.4668 97.0593 97.2633 99.3034 99.8442 101.669C90.3091 102.053 80.8009 102.754 71.313 103.751C73.2874 100.685 76.2052 98.2454 79.5678 96.837" fill="#388F44"/>
<g style="mix-blend-mode:multiply" opacity="0.55">
<path fill-rule="evenodd" clip-rule="evenodd" d="M98.9671 37.4892C115.807 37.7858 132.197 63.1524 132.197 63.1524C132.197 63.1524 121.34 63.1524 113.388 65.8204C105.527 68.2791 102.257 70.7197 101.873 75.3618C101.625 78.3619 106.808 85.0673 115.692 86.5482C124.575 88.0291 137.406 85.2321 137.406 85.2321C137.406 85.2321 134.445 107.276 129.316 118.229C126.506 122.279 122.315 126.43 122.281 131.511C122.248 136.592 124.667 141.976 127.894 145.851C131.338 149.995 135.523 151.525 140.954 152.105C146.385 152.684 151.587 153.271 156.628 155.501C165.718 159.524 171.769 168.318 170.078 178.453C168.952 185.188 164.423 190.789 158.526 193.758C157.029 201.027 165.228 215.019 167.731 228.975C169.235 237.365 169.438 243.827 170.004 250.693C170.314 254.454 171.089 258.261 172.78 261.657C173.441 262.992 173.387 263.369 174.721 263.766C175.492 263.996 176.255 264.132 177.029 264.225C177.069 264.223 177.11 264.221 177.151 264.219C178.465 263.935 179.841 264.083 180.871 265.005C183.395 266.433 184.351 269.945 182.877 272.181C182.017 277.062 177.952 282.137 176.756 286.651C175.988 289.536 175.819 292.467 177.544 295.021C180.824 299.846 186.838 293.874 191.091 296.093C192.602 296.775 197.226 299.247 197.342 301.028C198.645 311.864 172.382 325.823 163.717 328.789C152.437 332.651 139.902 328.985 132.288 319.834C123.528 309.308 123.454 296.093 122.982 283.1C122.844 279.06 123.403 266.778 119.653 264.225C118.049 263.127 114.568 265.692 111.324 266.678C103.625 269.019 99.3325 270.42 91.7352 273.073C86.21 275.003 82.2731 276.299 77.6622 278.224C78.6199 287.217 80.8252 294.405 83.1745 303.862C85.3308 312.535 86.0315 323.101 81.8603 331.309C78.0396 338.843 69.8254 343.816 61.4628 344.146C45.2186 344.784 36.6053 333.672 22.6361 323.73C15.9759 318.99 4.3861 310.327 8.15959 303.862C10.1088 300.523 15.2995 303.539 18.972 303.862C28.5975 304.694 27.7415 303.002 29.5454 298.725C32.1819 292.474 23.1026 285.988 25.5973 281.946C27.3546 279.1 36.3929 283.116 39.7448 281.946C38.8559 274.461 36.6019 268.818 36.2696 261.307C35.6496 247.196 35.9532 234.933 32.7591 221.078C29.8107 208.322 17.1065 194.113 17.3719 180.939C17.6264 168.31 30.9601 163.169 39.9157 157.745C48.1536 152.761 55.9044 147.483 62.8791 141.088C46.7787 135.893 41.6356 118.193 37.3866 99.7087C36.621 96.3782 36.3996 90.8254 36.3996 90.8254C36.3996 90.8254 41.9928 90.8254 47.586 88.5223C54.9358 85.4959 63.9523 80.6888 62.8791 71.7426C60.0885 57.5951 35.0835 68.4525 35.0835 68.4525C35.0835 68.4525 42.9531 48.8812 53.8923 43.4115C72.317 34.1991 88.327 37.3012 98.9671 37.4892Z" fill="#388F44"/>
</g>
</svg>
