<svg width="270" height="343" viewBox="0 0 270 343" fill="none" xmlns="http://www.w3.org/2000/svg">
<path fill-rule="evenodd" clip-rule="evenodd" d="M141.454 131.467C163.635 127.17 182.487 132.465 193.751 141.465C204.327 149.744 208.94 159.316 211.805 166.79C214.533 173.774 216.466 184.733 217.086 196.41C218.295 211.627 215.604 228.744 211.988 242.832C210.626 248.496 208.521 255.384 206.73 262.69C205.006 269.884 203.679 278.124 208.15 282.436C210.549 285.038 214.076 286.056 218.632 286.713C220.894 287.086 223.406 287.362 226.188 288.414C228.964 289.385 231.898 291.868 233.182 294.629C238.128 308.454 230.702 317.416 227.284 323.116C218.45 334.739 212.196 336.538 205.826 338.379C201.937 339.248 197.445 339.832 190.731 338.818C177.857 336.413 167.15 331.595 158.223 320.704C154.913 316.469 152.309 310.732 151.639 304.386C150.513 284.913 154.984 280.838 146.447 266.722C145.232 264.922 143.73 263.038 141.846 261.13C134.666 253.822 125.029 248.939 116.094 247.809C105.343 246.383 96.2714 250.173 91.4681 252.798C84.9847 256.506 82.5332 257.544 76.8482 261.114C74.785 262.43 72.3206 264.173 69.3613 266.828C59.5593 274.815 55.9307 285.653 43.0744 286.62C41.5221 286.693 39.923 286.598 38.3063 286.322C32.9038 285.67 24.2114 280.995 17.2675 273.434C7.82554 264.404 4.36983 249.695 3.28599 240.015C2.87467 237.214 2.52825 234.704 2.28791 232.697C1.67404 224.915 0.10481 213.885 8.30839 208.811C15.2194 206.343 20.5826 210.843 24.1816 213.079C26.3995 214.643 30.6816 217.709 31.5441 218.14C33.1837 218.96 48.0447 199.433 53.9685 193.991C70.9319 178.408 82.186 168.491 97.4625 157.26C104.207 153.025 102.76 152.422 132.804 133.613C135.548 132.737 138.324 132.072 141.454 131.467Z" fill="#7AB026"/>
<path d="M110.609 249.592C103.958 249.56 97.9112 251.682 92.5999 254.869L92.6395 254.846C88.0177 257.786 83.2649 260.411 78.4564 263.675L78.4751 263.663C76.1163 265.26 73.818 267.074 71.4765 269.186L71.3624 269.283C69.9304 270.455 68.5256 271.77 67.0857 273.238C58.9961 282.256 52.7116 288.661 43.2392 288.812L43.1778 288.816C41.5127 288.844 39.7778 288.708 37.9578 288.36L38.0586 288.375C33.0669 287.54 28.1618 285.078 22.4069 280.8C20.0267 278.988 17.8132 276.967 15.8055 274.776L15.8957 274.868C5.44385 264.453 2.81482 250.345 1.60148 240.204L1.60893 240.261C1.23635 237.6 0.899718 235.136 0.623937 232.896L0.61724 232.829C0.401839 230.291 0.16537 228.004 0.0367155 226.1C-0.167266 217.548 0.234406 213.086 7.64798 207.743L7.8862 207.629C10.1397 206.851 13.1941 206.477 16.56 207.522C19.9815 208.572 22.5682 210.523 24.8775 211.959L24.9418 212.001C27.4925 213.775 30.0213 215.65 32.1273 216.974C31.9078 216.864 31.704 216.855 31.5907 216.865C31.4627 216.879 31.4592 216.888 31.4297 216.896C31.3883 216.912 31.4303 216.898 31.4671 216.876C31.5607 216.824 31.6871 216.738 31.8252 216.632C32.0947 216.425 32.3843 216.17 32.663 215.913C33.2224 215.396 33.7974 214.815 34.3382 214.255C35.4445 213.106 36.5326 211.915 37.6298 210.702C39.8239 208.274 42.0651 205.732 44.539 202.972C46.6319 200.692 49.5047 197.2 53.4718 193.45C66.7935 181.244 87.6369 163.576 97.0679 156.723L97.1083 156.696C97.1106 156.694 97.113 156.692 97.1154 156.691C108.953 147.589 123.852 138.727 132.665 133.391L132.724 133.364C132.732 133.361 132.741 133.358 132.75 133.356C135.843 132.417 138.339 131.932 140.252 131.592C141.063 131.451 141.446 131.429 141.455 131.476C141.455 131.476 141.455 131.476 141.455 131.476C141.455 131.476 141.455 131.476 141.455 131.476C141.466 131.535 140.899 131.701 139.868 131.924C137.873 132.358 135.495 132.939 132.869 133.818L132.918 133.796C129.407 136.065 125.23 138.805 120.76 141.86C110.207 149.016 106.999 151.472 97.812 157.816L97.8518 157.789C94.9429 159.928 91.4826 162.54 87.1315 166.073C74.4431 176.444 66.0946 184.612 54.8728 194.975C50.7828 198.96 46.6601 204.089 41.7041 209.728C40.0604 211.608 38.5243 213.368 37.0419 214.998C36.3089 215.802 35.5629 216.605 34.809 217.356C34.4417 217.72 34.045 218.101 33.6204 218.46C33.529 218.537 33.3929 218.648 33.2783 218.735C33.1573 218.827 33.0571 218.901 32.8928 219.008C32.7289 219.109 32.6351 219.174 32.3554 219.291C32.226 219.341 32.1054 219.383 31.9114 219.415C31.6692 219.452 31.3278 219.451 30.9761 219.276C27.9599 217.461 25.7688 215.84 23.3569 214.248L23.4266 214.294C18.7247 211.307 14.162 208.51 8.93014 210.552L9.28097 210.384C3.89954 213.459 2.99563 221.59 4.12073 232.552L4.11339 232.478C4.29234 234.206 4.50594 236.022 4.73509 237.917C4.81097 238.543 4.8876 239.16 4.96462 239.769L4.97208 239.826C6.73693 256.531 11.8487 265.905 18.5636 272.078L18.6487 272.165C23.6672 277.023 29.9906 282.04 38.6371 283.581L38.7716 283.601C40.1019 283.788 41.4995 283.853 42.9392 283.751L42.859 283.756C45.7741 283.473 48.6736 282.556 51.454 280.505C56.6161 276.763 60.7469 269.731 67.37 264.384L67.2565 264.481C69.6881 262.295 72.3526 260.239 75.1601 258.469L75.1795 258.456C80.07 255.347 85.2207 252.845 89.9522 250.147L90.0035 250.119C98.2994 245.641 107.831 243.727 116.468 244.992L116.451 244.99C128.725 246.813 137.873 253.357 143.748 259.261C144.777 260.3 145.714 261.344 146.556 262.368C147.295 263.266 148.01 264.213 148.692 265.206L148.765 265.321C151.858 270.208 154.818 276.884 154.687 283.931C154.661 290.785 154.121 297.244 154.639 304.212L154.627 304.07C155.204 309.243 157.279 314.507 160.644 318.811L160.6 318.756C165.587 324.89 172.139 329.796 179.851 332.731C183.4 334.111 187.245 335.13 191.28 335.879L191.177 335.862C195.834 336.575 200.442 336.55 205.161 335.405L204.98 335.451C213.39 333.536 219.403 328.343 224.69 321.144L224.49 321.441C230.413 312.883 233.379 304.483 229.967 295.779L230.085 296.069C229.268 294.27 227.026 292.307 225.067 291.618L224.987 291.589C222.944 290.789 220.763 290.449 218.09 290.008L218.155 290.018C216.29 289.727 214.376 289.367 212.403 288.709C210.182 287.974 207.69 286.706 205.807 284.597L205.937 284.73C199.447 277.297 202.493 268.831 203.915 262.015L203.919 262C205.635 255.355 207.771 248.725 209.467 242.225L209.476 242.187C213.909 225.994 216.091 209.495 215.277 196.554L215.274 196.507C215.084 190.908 214.613 185.943 214.053 181.866C213.222 175.886 212.151 171.141 210.724 167.212C206.937 157.213 203.432 150.589 193.055 142.355L193.046 142.348C191.963 141.511 190.78 140.686 189.485 139.886C178.9 132.977 161.157 129.637 146.317 131.131C138.871 131.948 140.339 130.979 147.91 129.689C159.048 128.013 168.312 129.653 174.102 130.42C183.137 131.778 188.434 133.475 195.602 139.149L195.578 139.131C197.556 140.754 199.642 142.724 201.808 145.286C208.905 153.91 212.107 160.004 214.768 165.654L214.761 165.635C215.717 167.743 216.429 169.837 216.951 172.072C218.143 178.209 218.506 179.924 219.62 196.276L219.616 196.21C220.106 202.767 220.185 211.687 218.609 223.925C217.679 231.061 216.38 237.595 214.926 243.586L214.937 243.541C213.177 251.055 211.273 257.525 209.906 263.468L209.91 263.452C208.131 270.704 207.796 277.719 210.546 279.952L210.688 280.096C212.48 282.06 215.866 282.765 219.136 283.218L219.205 283.228C221.791 283.606 224.819 284.052 227.455 285.063L227.37 285.032C228.299 285.353 229.124 285.748 229.887 286.184C232.294 287.615 234.726 289.593 236.438 293.115L236.563 293.419C240.561 302.033 237.009 316.216 230.053 324.776L229.854 325.069C224.567 332.301 215.756 339.494 206.659 341.262L206.481 341.307C202.442 342.241 198.14 342.546 194.211 342.254C192.943 342.169 191.631 342.026 190.277 341.828L190.172 341.81C179.753 340.157 165.085 334.557 155.876 322.627L155.832 322.573C151.823 317.399 149.329 311.117 148.657 304.701L148.645 304.559C148.109 296.882 148.904 289.182 148.821 283.072C148.748 277.044 146.246 272.263 143.821 268.311L143.903 268.44C143.314 267.587 142.716 266.809 142.128 266.102C141.278 265.081 140.43 264.17 139.601 263.346C128.879 253.926 125.956 252.646 115.809 250.063L115.795 250.061C114.273 249.795 112.567 249.608 110.609 249.592Z" fill="#2E7037"/>
<path d="M154.433 28.0488C130.136 42.331 123.856 67.5039 122.204 74.146C114.432 105.316 122.884 152.791 154.433 163.417C182.546 172.876 213.989 148.021 228.121 125.481C245.945 97.0752 250.829 49.1586 222.574 28.0488C202.993 13.4309 174.006 16.5399 154.442 28.0488H154.433Z" fill="#7AB026"/>
<path d="M221.125 132.624C223.373 130.016 225.122 127.355 226.662 124.566C229.258 119.815 231.354 114.705 234.003 108.163C237.868 97.6418 239.175 96.0826 240.714 83.1972C242.093 70.2699 240.105 57.229 237.854 51.9303C235.62 46.6894 236.33 45.6238 231.742 38.8362C228.405 34.3157 225.421 31.4692 222.036 28.7691C220.486 27.5542 218.836 26.3957 216.911 25.2469C211.16 20.3465 188.562 17.0029 180.61 19.4606C172.638 20.7742 163.757 23.4821 158.747 25.9455C157.179 26.6886 155.965 27.3142 155.036 27.8C154.69 27.9811 154.499 28.0595 154.445 28.0542C154.436 28.0508 154.433 28.0465 154.433 28.0422C154.433 28.0422 154.433 28.0422 154.433 28.0422C154.433 28.0422 154.433 28.0421 154.433 28.0421C154.433 28.0421 154.433 28.0421 154.433 28.0421C154.433 28.0378 154.436 28.0335 154.442 28.0292L154.432 28.0319C154.459 27.9699 154.706 27.7811 155.152 27.5205C157.547 26.1185 161.22 24.1572 165.785 22.3085C174.399 19.1872 175.483 18.8852 187.821 17.7218C200.085 17.4172 208.419 17.8869 221.007 25.7769C221.761 26.2919 222.464 26.7991 223.131 27.3027C232.442 35.4203 237.42 38.4813 242.15 57.5726C244.711 78.1182 245.372 80.66 241.176 101.034C238.95 109.589 235.139 118.782 230.054 126.694C223.152 137.458 214.4 145.529 208.878 150.153C199.437 157.996 184.281 168.369 165.506 167.713C161.68 167.536 157.666 166.867 153.713 165.558C138.213 160.836 126.68 145.22 122.228 130.358C116.163 112.789 116.867 86.9458 121.024 73.8517C121.296 72.8772 121.562 71.9566 121.823 71.1088C125.934 59.0717 127.321 56.2298 133.802 45.8606C137.671 39.9616 144.75 32.9686 152.008 29.1384C155.649 27.2487 155.016 28.0746 151.718 30.4357C146.947 33.9537 143.28 37.1946 141.546 39.7461C138.204 44.898 136.924 47.0002 132.509 53.1738C128.247 59.551 128.263 63.502 126.663 67.5787C125.848 69.8071 125.257 70.7428 124.139 74.6271C123.242 77.9204 121.815 83.4338 121.627 93.8986C121.687 116.633 126.651 128.493 130.044 136.07C133.052 143.169 142.191 157.526 155.151 161.284C155.962 161.553 156.765 161.787 157.557 161.986C170.956 167.477 198.186 155.176 206.065 146.843C214.509 139.196 214.853 139.482 221.125 132.624Z" fill="#2E7037"/>
<path d="M134.549 55.6341C141.78 55.7117 147.135 58.2464 151.712 62.5836C155.744 66.4084 158.377 71.3256 159.615 76.6005C162.892 85.6455 162.166 96.7001 158.001 105.377C153.974 113.759 145.962 122.168 136.061 122.494C127.315 122.781 123.398 118.525 117.36 111.625C108.959 102.024 106.432 89.621 109.299 77.7931C111.34 69.3492 116.242 61.2403 124.421 57.6277C127.722 56.1642 130.518 55.5908 134.549 55.6341Z" fill="#0D0829"/>
<path d="M206.906 105.765C213.874 97.1272 224.124 90.2437 236.813 90.9255C246.3 91.4353 254.024 93.6878 258.583 101.72C265.057 113.123 254.574 127.67 246.686 136.105C238.799 144.54 227.609 150.908 215.358 146.74C210.968 145.245 206.673 143.1 203.576 139.568C194.814 129.56 199.416 115.048 206.906 105.765Z" fill="#0D0829"/>
<path d="M121.541 74.6834C120.738 66.3156 131.423 60.0659 137.869 65.6661C139.886 66.6066 141.274 68.3519 141.535 70.8553C143.419 74.2312 142.874 78.6643 139.816 81.573C133.412 87.6498 122.372 83.3304 121.541 74.6834Z" fill="#BDBFC0"/>
<path d="M237.623 102.691C244.338 102.459 248.938 109.208 247.145 115.72C246.949 116.434 246.682 117.101 246.358 117.721C246.349 117.751 246.342 117.783 246.333 117.813C244.973 122.486 239.867 125.489 235.089 123.916C232.711 123.134 230.881 121.516 229.782 119.494C226.926 116.308 226.145 111.518 228.553 107.577C230.452 104.468 234.072 102.666 237.623 102.691Z" fill="#BDBFC0"/>
<path d="M113.239 95.0339C110.403 86.6092 121.417 85.9761 125.852 92.2519C128.572 96.1005 130.728 96.1006 132.885 96.1006C135.041 96.1006 140.372 94.9017 143.216 91.9428C148.03 86.9527 154.963 92.2788 153.956 98.1966C152.401 107.241 143.092 113.618 134.137 113.062C123.686 112.407 116.287 104.09 113.239 95.0339Z" fill="#4B4A4B"/>
<path d="M219.574 117.557C219.574 121.293 219.926 124.562 221.288 125.856C222.196 126.718 223.876 127.581 228.619 127.581C239.4 127.581 244.144 136.637 230.752 140.222C221.345 142.74 211.046 139.151 206.915 132.899C203.32 127.458 204.645 120.966 206.897 115.313C209.526 108.711 219.574 109.9 219.574 117.557Z" fill="#4B4A4B"/>
<path d="M157.034 0.366063C162.546 -0.340541 167.734 7.67146 163.768 11.0808C162.523 12.1494 161.245 13.1627 159.94 14.1239C162.196 19.8084 164.034 22.8289 165.228 28.828C166.422 34.827 155.131 38.3468 152.419 30.5918C151.264 27.3002 150.06 24.0255 148.807 20.7693C148.008 21.1484 147.204 21.5122 146.393 21.8592C146.353 21.8785 146.313 21.8991 146.272 21.9182C146.271 21.916 146.271 21.9136 146.27 21.9115C145.76 22.1286 145.249 22.3402 144.735 22.5448C138.777 24.9266 135.634 18.4271 136.766 13.7347C137.174 12.0442 138.624 9.52996 140.045 8.35106C145.786 3.59053 148.807 1.65977 157.034 0.366063Z" fill="#7AB026"/>
<path d="M149.561 24.4196C149.186 23.1787 148.673 22.1455 148.144 21.0246L149.112 21.4114C148.39 21.8216 147.62 22.2315 146.717 22.6142L146.745 22.6015C146.722 22.6122 146.681 22.6332 146.62 22.6613L145.87 23.0305L145.516 22.2373C145.491 22.1729 145.49 22.1705 145.514 22.2305L146.591 22.6662C146.339 22.771 146.076 22.8738 145.802 22.9741C145.519 23.0774 145.258 23.1681 145.016 23.2492C143.836 23.6386 143.002 23.6834 142.088 23.6013C141.186 23.4909 140.101 23.2781 138.811 22.2264C135.937 19.6918 136.089 15.705 136.324 14.2434C136.354 14.0213 136.394 13.8267 136.437 13.6553C136.749 12.6241 136.978 12.2943 137.892 10.6694C138.542 9.59561 139.164 8.82709 139.925 8.20634C140.475 7.7705 141.022 7.34761 141.659 6.86939C143.095 5.65285 147.977 2.49577 150.055 1.97559C152.032 1.25548 154.394 0.813586 155.809 0.567129C156.253 0.490265 156.596 0.435363 156.866 0.392481C156.981 0.374408 157.034 0.36608 157.034 0.366063C157.034 0.366063 156.951 0.379086 156.805 0.402835C156.104 0.517309 155.046 0.696136 153.817 0.979478C151.547 1.56703 151.25 1.5223 148.339 2.7777C145.484 4.15899 144.002 5.39153 141.097 7.72041C140.756 7.99701 140.452 8.24967 140.164 8.49361C138.608 10.0253 137.946 11.2126 137.117 13.8195C136.974 14.4316 136.878 15.146 136.884 15.9819C136.961 18.5356 137.785 19.8757 138.687 20.8624C139.631 21.7885 140.885 22.6627 143.166 22.224C143.595 22.1323 144.008 21.9966 144.442 21.8121C144.939 21.6016 145.443 21.3837 145.95 21.1605L146.724 20.8483L147.022 21.594C147.047 21.6581 147.048 21.6604 147.024 21.6007L145.926 21.1788C145.947 21.1685 145.986 21.148 146.043 21.12L146.071 21.1074C146.866 20.7563 147.664 20.3902 148.451 20.0169L149.284 19.6414L149.585 20.4703C150.891 23.8485 152 27.1425 152.727 29.0496C152.881 29.4529 153.042 29.8751 153.21 30.3144C154.01 32.9469 157.309 34.8444 160.665 33.7289C162.706 33.1741 164.689 31.1292 164.097 29.053C163.589 26.7964 162.887 24.6015 162.145 22.5077C161.313 20.1257 160.054 17.2092 159.096 14.459L158.844 13.7864L159.401 13.3923C160.877 12.3939 162.229 11.3965 163.318 10.5563C163.748 10.2317 164.05 9.85068 164.25 9.48823C164.886 8.25172 164.732 7.19413 164.509 6.31364C164.246 5.41849 163.824 4.54084 162.812 3.45593C161.657 2.21262 159.745 0.805677 157.711 0.512691C156.697 0.41213 156.837 0.116741 157.969 0.0047653C159.649 -0.0699726 160.834 0.722416 161.683 0.94672C163.383 1.4855 164.242 1.98704 165.122 4.07865C165.863 6.16468 166.662 7.17433 166.431 8.71568C166.139 9.65741 166.138 10.1991 164.421 11.8393C163.695 12.4282 162.692 13.2916 161.164 14.5346C160.969 14.6935 160.775 14.8483 160.585 14.9989L160.951 13.7231C163.169 18.6586 164.533 21.5279 165.218 23.6588C165.608 24.7862 166.039 26.6028 166.352 28.6041C166.849 31.0096 165.256 33.476 163.563 34.5562C162.076 35.6272 159.4 36.4819 156.737 35.8084C154.004 35.2179 152.098 32.7107 151.553 30.8945C151.386 30.4214 151.232 29.9996 151.098 29.6458C150.032 26.8391 150.259 26.7509 149.561 24.4196Z" fill="#2E7037"/>
<path d="M251.43 46.3315C252.738 40.467 259.591 40.6922 262.706 44.4465C263.557 45.1641 264.272 46.1187 264.749 47.3119C266.736 52.2846 267.654 57.4869 267.751 62.8129C267.848 68.1388 260.474 71.6275 256.791 67.3526C255.951 66.3796 255.198 65.3743 254.531 64.3407C254.163 64.1343 253.818 63.8905 253.505 63.6079C248.574 64.8224 243.594 65.7942 238.552 66.5222H238.569C235.098 67.0167 231.698 65.7185 230.665 62.0354C229.817 58.9882 231.725 54.6247 235.151 54.13C240.436 53.3671 245.656 52.3378 250.818 51.0406C250.872 49.498 251.073 47.9265 251.43 46.3315Z" fill="#7AB026"/>
<path d="M246.135 66.1203C243.704 66.3866 241.94 67.4925 238.959 67.778C238.883 67.7854 238.809 67.7922 238.736 67.7987L238.552 65.2324C238.558 65.2328 238.564 65.2331 238.569 65.2334L238.751 67.798C237.207 67.9241 236.275 67.7018 235.322 67.4189C234.386 67.095 233.315 66.7841 231.866 65.566C230.843 64.6742 230.197 63.4239 229.906 62.2482C229.357 59.8859 230.17 58.0015 230.542 57.0064C231.265 55.5097 231.587 55.4222 233.517 54.1168C234.039 53.8267 234.569 53.6599 235.073 53.5844C236.409 53.3821 237.483 53.2776 238.882 53.1453C240.753 52.9991 246.421 51.973 248.421 51.3377C249.169 51.112 249.967 50.9238 250.747 50.7557L250.525 51.0305C250.616 49.6723 250.889 48.4089 251.08 47.5256C251.175 47.0859 251.269 46.7445 251.349 46.485C251.382 46.3752 251.414 46.328 251.433 46.3323C251.433 46.3323 251.433 46.3323 251.433 46.3323C251.433 46.3323 251.433 46.3323 251.433 46.3323C251.433 46.3323 251.433 46.3323 251.433 46.3323C251.458 46.3378 251.464 46.4229 251.436 46.5671C251.302 47.2659 251.146 48.3238 251.126 49.5777C251.116 50.1804 251.115 50.642 251.11 51.0507L251.1 51.2736L250.89 51.3236C249.739 51.6374 248.992 51.7342 246.709 52.3294C243.628 53.1141 241.791 53.7163 238.076 54.218C236.918 54.3691 236.047 54.5323 235.235 54.706C233.756 55.1465 232.462 55.994 231.35 59.0861C231.016 60.2006 231.061 61.1512 231.276 61.8653C232.135 64.1087 233.294 65.0294 236.592 65.3339C237.168 65.356 237.772 65.3207 238.385 65.2268L238.569 67.8306C238.563 67.8307 238.558 67.8307 238.552 67.8308L238.365 65.227C243.079 64.5134 248.37 63.7334 251.024 63.0504C251.71 62.876 252.446 62.6808 253.224 62.4682L253.845 62.3234L254.291 62.7364C254.536 62.9432 254.814 63.1297 255.12 63.2901L255.543 63.6878C256.18 64.6238 256.921 65.5784 257.754 66.5211C258.524 67.4008 259.598 67.9429 260.842 68.0059C263.394 68.2386 266.557 65.6253 266.337 62.8386C266.293 61.3743 266.208 59.9252 266.115 58.5231C265.926 55.156 265.091 50.8511 263.961 47.6267C263.572 46.4465 262.907 45.5335 262.292 44.9369L262.212 44.8562C262.175 44.8035 262.137 44.7524 262.1 44.703C260.157 42.534 259.05 42.0458 256.228 42.3042C254.575 42.5265 252.655 43.8243 251.789 45.7342C251.363 46.6718 251.147 46.427 251.381 45.3352C251.776 43.7222 252.898 42.781 253.483 42.0865C254.723 40.711 255.828 40.18 258.086 40.7425C260.24 41.4391 261.456 41.4359 262.541 42.3568C262.981 42.7738 263.165 43.0765 263.597 43.707L263.453 43.5613C263.946 44.1137 264.859 44.9148 265.745 46.9135C265.988 47.4812 266.262 48.1366 266.561 48.9029C268.726 54.6455 268.906 58.0962 269.15 60.3848C269.204 61.019 269.226 61.8457 269.211 62.7862C269.321 65.9932 266.378 69.2491 263.402 70.1374C261.593 70.8857 257.85 70.7246 255.838 68.1738C254.958 67.1435 254.154 66.0502 253.486 65.0148L253.923 65.4254C253.46 65.1667 253.037 64.8639 252.669 64.5351L253.804 64.8203C252.931 65.0421 252.169 65.2364 251.583 65.3978C248.654 66.1892 248.57 65.844 246.135 66.1203Z" fill="#2E7037"/>
<path d="M146.113 127.308C145.955 126.902 149.652 125.489 149.865 126.018C153.503 135.187 159.452 143.113 165.434 150.877C165.718 150.867 165.925 150.911 165.949 151.033C166.002 151.262 166.046 151.501 166.09 151.73C166.196 152.269 162.656 153.435 162.338 153.019C156.138 144.982 149.884 136.812 146.113 127.308Z" fill="#388F44"/>
<path d="M148.471 130.735C146.466 130.947 144.444 131.583 142.916 132.89C141.379 134.198 140.39 136.247 140.681 138.243C141.114 141.193 144.082 143.118 146.97 143.834C147.924 144.072 148.904 144.222 149.885 144.09C151.686 143.86 153.214 142.712 154.619 141.564" fill="#9D248B"/>
<g style="mix-blend-mode:multiply" opacity="0.55">
<path fill-rule="evenodd" clip-rule="evenodd" d="M155.309 66.7765C151.299 60.1549 142.803 56.8579 142.803 56.8579C142.803 56.8579 165.227 31.8464 201.314 54.6868C229.109 67.1407 231.079 103.645 216.718 126.919C203.664 148.073 176.943 169.807 152.29 155.18C137.841 146.608 129.003 121.544 129.003 121.544C129.003 121.544 144.528 126.919 155.309 109.9C162.437 98.6483 165.227 83.1532 155.309 66.7765Z" fill="#388F44"/>
<path fill-rule="evenodd" clip-rule="evenodd" d="M111.87 184.323C127.017 180.012 144.779 180.746 158.213 188.2C171.656 195.646 179.782 209.504 182.855 224.237C186.309 240.815 188.014 256.726 186.742 273.34C186.16 281.035 185.043 289.283 189.377 297.058C196.324 297.058 199.04 297.973 204.901 299.873C210.462 301.675 214.34 303.349 218.44 306.256C221.452 308.385 223.013 312.582 219.739 316.343C214.996 321.789 210.628 323.705 203.601 325.371C192.172 328.082 178.585 327.374 174.306 318.56C168.663 306.95 163.206 285.097 163.206 285.097C163.206 285.097 156.206 255.8 142.372 247.034C134.112 241.804 111.148 234.37 94.0734 240.566C83.6242 244.358 58.7119 265.146 46.6373 276.358C39.6697 282.828 23.4597 269.772 19.7559 264.202C17.36 261.201 15.3705 257.864 13.8575 254.277C10.8899 247.211 8.01949 235.755 14.1313 229.439C15.9081 227.605 17.7827 226.677 19.6717 226.419C21.5083 225.485 23.7696 225.43 25.7991 226.551C30.482 229.129 34.3521 232.619 37.3238 236.705C47.4463 230.66 55.7692 220.203 64.318 212.104C80.705 196.58 91.6641 190.062 111.87 184.323Z" fill="#388F44"/>
</g>
</svg>
