<svg width="509" height="510" viewBox="0 0 509 510" fill="none" xmlns="http://www.w3.org/2000/svg">
<path d="M317.15 221.08C325.662 199.652 364.727 170.903 367.181 169.617C369.634 168.33 404.359 158.544 404.359 158.544C404.359 158.544 414.683 185.969 419.814 187.02C424.395 187.018 451.751 164.741 447.409 162.061C439.365 157.095 423.134 169.59 423.134 169.59C423.134 169.59 420.609 158.769 423.631 149.317C425.362 143.905 429.076 135.402 435.576 129.453C440.072 125.338 458.669 122.164 457.659 115.713C456.334 107.253 431.102 117.302 431.102 117.302L412.681 128.632C412.681 128.632 445.123 94.2867 437.883 88.9378C433.566 85.7491 406.043 115.419 406.043 115.419L405.187 100.541C405.187 100.541 417.019 91.5621 414.948 84.5423C412.28 75.4983 398.644 89.3117 394.87 97.9527C393.076 102.06 393.504 104.907 393.128 109.295C392.509 116.531 392.433 127.726 392.433 127.726C392.433 127.726 375.517 133.47 364.822 137.229C350.949 142.105 332.824 148.618 329.889 150.623C323.867 154.736 299.555 188.736 300.112 191.281C300.669 193.826 317.143 221.082 317.143 221.082L317.15 221.08Z" fill="#7AB026"/>
<path d="M436.462 93.9288C437.228 92.2189 437.199 90.4228 436.794 90.4114C430.065 93.6813 421.177 104.248 410.798 114.533C409.816 115.524 408.896 116.454 408.069 117.297L403.677 122.059L403.285 115.577C403.082 109.298 403.063 105.023 403.008 100.666L402.937 99.5151L403.868 98.8021C405.799 97.4244 407.825 95.7208 409.766 93.5299C411.574 91.4128 414.043 88.1859 413.239 85.0463C413.05 84.3948 412.748 83.8696 412.456 83.6465C411.988 83.0508 409.929 83.5839 408.266 84.7125C406.549 85.8135 404.943 87.249 403.463 88.7643C400.535 91.8039 397.966 95.2358 396.396 98.6195C394.737 102.03 395.036 105.759 394.671 109.427C394.228 114.434 394.133 118.704 394.145 121.714C394.162 124.191 394.12 126.083 394.048 127.737L394.045 128.879L392.952 129.255C388.653 130.555 385.568 131.116 376.666 134.315C372.381 135.856 368.673 137.164 365.222 138.366C358.813 140.602 353.196 142.453 346.214 144.821C342.714 146.09 336.484 147.961 330.226 151.116C319.735 160.889 309.394 176.644 304.867 183.713C303.42 186.107 301.43 189.179 300.782 191.135C304.944 199.82 310.252 208.772 313.496 214.537C314.865 216.905 315.911 218.743 316.719 220.182C317.037 220.747 317.149 221.008 317.146 221.08C317.148 221.081 317.151 221.085 317.152 221.088C317.152 221.088 317.152 221.088 317.152 221.088C317.152 221.088 317.152 221.088 317.152 221.088C317.152 221.092 317.15 221.096 317.146 221.101L317.133 221.103L317.126 221.092C317.061 221.082 316.759 220.671 316.325 219.964C314.065 216.271 310.668 210.785 306.631 204.282C303.203 198.641 301.192 195.569 299.485 191.418C301.186 185.925 304.455 182.284 310.274 173.531C317.008 164.16 321.497 156.861 329.233 149.662C335.606 146.214 342.378 144.015 351.043 140.9C356.311 139.063 360.565 137.53 364.423 136.093C373.095 132.877 379.834 130.137 391.86 126.039L390.651 127.714C390.705 123.08 390.841 117.734 391.392 111.286C391.457 110.564 391.525 109.855 391.599 109.164C391.975 105.094 391.947 100.742 393.604 97.3998C396.379 91.6124 399.65 87.8612 403.009 84.514C404.736 82.8921 406.504 81.3507 408.958 80.2859C410.172 79.8026 411.787 79.3132 413.659 80.0157C415.551 80.7546 416.53 82.5391 416.983 83.9421C418.642 91.6985 413.142 97.0934 406.822 102.695L407.887 100.386C408.001 101.908 408.115 103.501 408.231 105.173C408.457 108.454 408.677 111.826 408.891 115.255L403.952 113.479C408.704 108.363 413.747 103.242 419.02 98.3223C421.66 95.8702 424.353 93.4683 427.2 91.2135C428.619 90.0969 430.085 88.9989 431.703 87.9925C432.53 87.4846 433.382 86.998 434.403 86.5808C434.948 86.365 435.506 86.1674 436.27 86.053C437.001 85.9614 438.217 85.865 439.483 86.7723C441.248 88.0368 441.687 90.271 441.598 91.6012C441.527 93.0664 441.197 94.128 440.831 95.1903C440.081 97.2593 439.138 98.9904 438.161 100.663C436.201 103.967 434.094 106.872 432.064 109.561C427.983 114.923 424.16 119.371 421.135 122.907C419.102 125.274 416.86 127.827 414.521 130.37L411.355 126.476C417.022 122.919 423.173 119.057 429.681 114.991L430.099 114.782C434.51 113.057 439.025 111.557 443.96 110.465C446.429 109.943 448.974 109.498 451.82 109.524C453.25 109.561 454.773 109.669 456.496 110.379C458.208 110.977 460.222 113.112 460.428 115.28C460.753 117.096 459.999 119.019 459.099 120.142C458.194 121.315 457.208 122.068 456.251 122.724C454.328 124.007 452.403 124.872 450.495 125.682C445.997 127.628 440.34 129.225 437.423 131.471C432.354 136.164 428.663 142.995 426.397 150.201C424.647 155.942 424.872 162.832 426.124 168.893L421.262 167.158C425.123 164.272 429.039 161.873 433.487 159.98C437.821 158.318 443.248 156.227 449.01 159.468C450.557 160.272 451.109 162.629 450.875 163.504C450.734 164.525 450.433 165.131 450.176 165.664C449.631 166.724 449.058 167.489 448.476 168.235C440.671 176.52 433.541 184.107 419.815 189.484L419.319 189.434C417.623 188.987 417.029 188.245 416.35 187.622C415.7 186.958 415.222 186.34 414.761 185.706C413.846 184.433 413.091 183.161 412.374 181.878C410.952 179.311 409.735 176.744 408.585 174.186C406.302 169.069 404.32 164.029 402.575 159.216L404.876 160.379C395.093 162.949 386.44 165.252 380.216 166.921C375.128 168.306 370.788 169.42 367.668 170.546C359.698 175.831 354.554 179.935 344.552 189.17C336.739 196.593 325.863 206.895 319.249 217.568C316.254 223.105 316.14 221.595 318.979 215.727C323.516 207.327 329.123 201.868 331.954 197.893C337.825 190.061 340.601 186.82 350.432 179.455C357.675 174.181 361.181 170.522 365.848 167.076C368.341 165.871 369.717 165.482 371.74 164.884C377.919 163.21 378.656 163.683 403.715 156.259L405.801 155.661L406.581 157.708C407.637 160.384 408.923 163.455 410.411 166.765C412.136 170.591 413.858 174.17 415.64 177.399C416.53 179.007 417.443 180.542 418.389 181.884C418.845 182.528 419.352 183.18 419.797 183.644C420.032 183.89 420.249 184.084 420.407 184.198C420.56 184.32 420.672 184.309 420.385 184.23L419.813 184.172C419.578 184.177 419.665 184.184 419.762 184.145C419.879 184.107 420.04 184.045 420.211 183.97C420.585 183.805 420.964 183.609 421.356 183.392C422.172 182.939 422.949 182.45 423.742 181.927C425.317 180.884 426.813 179.791 428.239 178.705C431.094 176.525 433.668 174.368 435.977 172.301C438.287 170.227 440.335 168.242 442.052 166.322C442.901 165.369 443.66 164.433 444.197 163.604C444.339 163.383 444.448 163.196 444.533 163.033C444.627 162.852 444.674 162.732 444.69 162.676C444.711 162.634 444.637 162.703 444.669 163.138C444.665 163.618 445.205 164.547 445.716 164.803C444.446 164.012 442.412 164.012 440.461 164.433C436.588 165.212 430.704 168.016 425.044 172.071L421.213 175.045L420.086 170.302C418.837 163.483 418.519 156.047 420.917 148.448C423.575 140.575 427.762 132.968 433.723 127.429C434.315 126.884 434.923 126.472 435.463 126.136C438.91 124.089 442.632 122.913 446.553 121.309C448.497 120.522 450.49 119.679 452.243 118.658C453.107 118.152 453.908 117.582 454.407 117.049C454.656 116.786 454.807 116.548 454.863 116.411C454.919 116.266 454.916 116.251 454.906 116.144C454.872 115.944 454.84 115.9 454.797 115.839C454.753 115.781 454.645 115.676 454.394 115.556C453.895 115.31 452.966 115.138 451.983 115.106C449.984 115.035 447.691 115.361 445.44 115.817C440.931 116.751 436.297 118.234 432.111 119.835L432.531 119.624C425.792 123.756 419.433 127.668 414.119 130.971L410.685 126.747C413.146 124.092 415.372 121.545 417.092 119.513C428.328 105.535 429.788 106.071 436.462 93.9288Z" fill="#2E7037"/>
<path d="M346.574 261.577C356.519 254.582 370.311 254.43 381.374 259.474C385.439 261.326 389.294 263.896 391.899 267.52C396.705 274.198 396.263 284.149 390.875 290.37C385.487 296.592 375.692 298.45 368.404 294.65C373.595 298.936 377.157 306.982 372.992 312.275C370.803 315.054 367.001 316.184 363.478 315.878C359.963 315.571 356.672 314.003 353.636 312.192C342.724 305.675 334.028 295.526 329.258 283.741C339.508 283.27 339.645 266.456 346.574 261.577Z" fill="#7AB026"/>
<path d="M376.61 310.808C376.103 311.888 375.545 312.874 374.923 313.794C372.548 317.275 368.662 320.342 363.134 319.845C362.911 319.82 362.689 319.789 362.466 319.751C356.744 318.463 355.951 316.616 352.285 314.457C351.58 314.006 350.777 313.513 349.834 312.942C344.023 309.474 339.905 304.045 337.615 302.151C335.292 300.205 336.257 299.028 333.589 295.829C330.973 292.554 329.904 290.166 328.829 286.666C328.643 286.045 328.369 285.209 328.056 284.227L327.327 282.601L329.199 282.446C333.793 283.372 338.007 275.6 338.587 272.542C339.528 268.716 342.356 264.728 344.462 262.811C345.099 262.192 345.696 261.811 346.182 261.581C346.387 261.485 346.528 261.511 346.584 261.591C346.584 261.591 346.584 261.591 346.584 261.591C346.655 261.693 346.601 261.875 346.4 262.052C345.403 262.905 344.301 264.574 343.623 266.815C342.398 271.011 341.672 271.147 339.431 276.872C337.677 281.03 335.345 285.588 329.361 285.983L331.339 282.899C331.808 284.063 332.307 285.329 332.876 286.76C335.657 293.054 338.155 293.215 343.546 301.034C348.076 306.909 350.935 307.308 355.405 309.23C356.783 309.781 358.323 310.437 360.132 311.054C361.372 311.473 362.612 311.787 363.825 311.913C366.264 312.19 368.896 311.466 370.18 310.06C372.39 307.986 371.579 303.679 370.259 301.586C369.368 300.047 368.038 298.423 366.373 297.109L369.878 291.822C373.216 293.499 377.863 293.898 382.243 292.539C384.569 291.832 386.873 290.379 388.547 288.354C391.852 284.438 392.69 278.342 391.465 273.372C391.132 271.956 390.562 270.476 389.708 269.097C387.741 265.855 384.149 263.094 380.582 261.211C377.319 259.457 374.12 258.416 371.89 257.829C366.133 256.499 364.484 256.384 358.894 257.516C355.686 258.247 351.415 259.559 347.826 261.164C346.033 261.989 346.101 261.383 347.71 260.108C350.1 258.278 352.486 257.574 353.774 256.564C356.397 254.591 357.803 253.79 361.856 254.001C365.849 254.328 367.762 253.089 370.127 253.501C372.311 254.17 372.449 253.953 382.339 257.357C382.754 257.523 383.187 257.701 383.637 257.895C388.443 259.95 392.048 262.768 394.349 265.758C397.342 269.705 398.121 273.309 398.503 276.052C399.102 279.818 397.833 287.237 393.154 292.345C391.806 293.87 390.271 295.155 388.734 296.204C384.256 299.663 373.926 301.46 366.888 297.556L370.49 292.122C373.133 294.259 374.871 296.645 375.987 298.389C377.791 301.279 378.04 303.203 378.042 304.843C377.965 306.495 377.804 308.072 376.61 310.808Z" fill="#2E7037"/>
<path d="M237.288 301.653C239.252 301.082 241.294 300.829 243.354 300.973C251.596 301.548 260.121 308.387 262.854 316.187C267.526 329.512 269.957 349.022 268.497 363.264C268.379 364.439 266.866 369.475 263.698 369.89C261.308 370.204 259.14 368.998 257.503 367.303C256.19 365.945 255.452 364.165 254.96 362.322C253.262 365.219 251.196 367.868 248.666 370.139C243.793 374.512 236.487 377.13 230.64 374.18C221.982 369.809 215.72 358.918 214.656 349.676C213.76 341.889 215.303 334.021 217.566 326.522C219.277 320.852 221.468 315.186 225.031 310.483C227.592 306.289 231.024 302.642 235.724 301.815C236.243 301.723 236.765 301.671 237.288 301.653Z" fill="#7AB026"/>
<path d="M239.337 376.713C236.093 377.098 233.024 377.429 229.655 376.132C227.816 375.417 225.948 374.339 224.21 372.688C219.818 368.069 219.821 366.885 216.434 360.797C214.603 357.166 213.608 353.149 213.322 349.829C213.11 347.458 213.125 345.487 213.045 344.191C212.924 341.094 213.693 340.821 214.182 336.541C214.769 332.289 215.574 329.785 216.862 326.309C216.871 326.287 216.879 326.264 216.888 326.241C217.962 323.086 221.501 314.178 224.672 310.211L224.647 310.249C224.948 309.722 225.226 309.258 225.461 308.866C227.544 305.136 231.928 302.239 234.815 301.805C235.129 301.736 235.423 301.687 235.696 301.652C236.186 301.591 236.604 301.578 236.952 301.583C237.181 301.587 237.287 301.623 237.288 301.66C237.288 301.66 237.288 301.66 237.288 301.66C237.288 301.66 237.288 301.66 237.288 301.66C237.288 301.66 237.288 301.66 237.288 301.66C237.29 301.706 237.13 301.754 236.843 301.781C236.512 301.813 236.144 301.864 235.747 301.947C234.471 302.207 232.892 302.829 231.422 303.971C228.453 306.543 227.761 307.169 225.473 310.753L225.443 310.796C225.071 311.303 224.674 311.885 224.258 312.567C221.388 317.454 220.472 320.977 218.548 326.818C218.37 327.377 218.184 327.959 217.993 328.566C216.012 335.611 216.252 337.448 215.809 347.501C215.808 348.223 215.834 348.899 215.88 349.535C217.03 357.624 218.858 359.116 224.384 366.082C226.434 368.375 228.93 370.579 231.723 372.035C237.225 374.999 244.503 371.325 247.127 368.738C247.178 368.691 247.229 368.643 247.28 368.595C249.285 366.721 251.28 364.206 252.981 361.161L255.806 356.423L257.178 361.731C257.624 363.293 258.266 364.715 259.205 365.659C260.475 366.963 262.012 367.739 263.394 367.569C263.454 367.565 263.512 367.555 263.577 367.537C264.385 367.507 265.958 364.744 266.152 363.028C266.721 356.236 266.157 348.746 265.714 341.865C265.265 333.955 263.565 323.379 261.534 316.649C261.138 315.27 260.605 314.07 260.109 313.105C257.032 307.874 255.647 306.56 250.37 303.918C248.402 303.058 245.909 302.172 243.295 301.818C241.76 301.604 240.177 301.576 238.663 301.67C236.618 301.867 236.87 301.296 238.954 300.64C240.56 300.18 242.103 300.111 243.412 300.147C244.599 300.178 245.6 300.28 246.431 300.218C249.91 300.061 251.715 300.352 254.96 303.217C258.035 306.164 260.264 306.778 261.753 308.925C262.674 310.518 262.928 310.983 264.701 315.54C265.282 317.256 266.083 319.575 267.074 322.856C270.426 334.422 270.878 341.059 271.362 345.579C271.723 349.41 271.563 356.808 270.802 363.5C270.506 365.343 270.047 366.376 269.45 367.67C268.655 369.102 267.53 371.58 264.006 372.237C260.881 372.698 257.747 371.006 255.822 368.927C254.084 367.108 253.247 364.868 252.731 362.916L256.951 363.489C254.799 367.18 252.13 370.152 250.261 371.917C250.208 371.968 250.155 372.019 250.103 372.068C245.039 376.291 244.442 375.678 239.337 376.713Z" fill="#2E7037"/>
<path d="M293.197 183.769C326.157 178.66 356.157 213.423 353.122 246.63C350.089 279.851 321.591 306.726 289.644 316.295C257.691 325.864 223.15 321.023 191.013 312.089L166.765 332.44L149.135 352.038C149.135 352.038 169.276 358.907 176.155 369.823C186.905 386.881 204.851 424.097 194.694 424.048C178.782 423.972 173.936 395.516 165.428 395.697C154.534 395.93 142.44 411.512 142.44 411.512C142.44 411.512 140.524 428.334 141.775 445.724C149.231 474.575 147.985 509.599 134.383 494.383C121.708 480.205 120.701 447.647 120.701 447.647C120.701 447.647 121.967 403.655 117.75 404.315C108.035 405.837 102.754 421.655 102.061 426.607C101.368 431.559 110.381 484.423 100.667 484.103C80.6914 483.443 82.4378 436.281 82.4378 436.281C82.4378 436.281 88.7033 383.518 84.359 384.199C76.8758 385.371 73.8423 397.446 70.0421 407.386C65.4058 419.514 76.3198 430.18 65.5638 440.331C52.4056 452.748 56.0999 394.98 56.0999 394.98C56.0999 394.98 64.6424 369.282 66.1035 361.419C67.5646 353.556 117.667 340.152 117.667 340.152C117.667 340.152 121.484 317.009 126.61 302.989C141.276 262.877 157.435 273.681 195.648 218.171L293.185 183.793L293.183 183.778L293.197 183.769Z" fill="#7AB026"/>
<path d="M106.796 452.201C107.184 458.112 107.557 463.792 107.602 469.458C107.612 472.302 107.56 475.138 107.175 478.062C106.953 479.594 106.715 481.003 106.042 482.694C105.698 483.505 105.282 484.377 104.395 485.288C103.58 486.163 102.03 486.926 100.576 486.856C89.0635 486.517 84.2958 475.025 81.8667 466.464C79.3852 457.214 78.4276 447.332 78.7169 436.144L78.7403 435.842C78.8036 435.354 78.8943 434.62 78.9596 434.106C80.4363 422.183 81.4216 413.643 82.1827 406.017C82.556 402.208 82.869 398.659 83.0598 395.051C83.1514 393.285 83.2153 391.447 83.1874 389.655C83.1727 388.788 83.1382 387.898 83.0374 387.039C82.9979 386.677 82.9173 386.222 82.8573 386.009C82.8286 385.887 82.7782 385.813 82.8735 385.957C82.9329 386.038 83.046 386.195 83.3195 386.379C83.6451 386.617 84.2876 386.779 84.7486 386.686C79.384 387.3 76.1716 397.192 72.1684 408.199C71.6538 409.545 71.3166 411.003 71.1857 412.571C70.7754 416.993 72.1936 421.659 72.6792 426.931C73.4098 432.188 71.172 438.516 67.0932 441.951C65.9073 442.985 64.793 444.041 62.478 444.277C60.0198 444.441 58.3069 442.599 57.57 441.379C55.9614 438.674 55.5187 436.22 55.0222 433.745C54.1541 428.857 53.9027 424.133 53.7532 419.596C53.5057 410.537 53.8224 402.175 54.2683 394.863L54.3582 394.401C56.9762 386.604 59.0776 379.919 60.4955 374.955C62.1704 369.036 63.4734 364.798 64.3315 361.09C70.8039 352.195 77.7218 352.261 94.533 345.831C102.967 342.997 110.418 340.807 117.343 338.942L116.431 339.948C118.814 326.975 121.107 315.703 125.799 302.693C126.292 301.398 126.788 300.155 127.311 298.902C130.73 276.46 180.356 247 195.412 218.009L195.463 217.934L195.553 217.901C200.89 216.02 205.555 214.372 209.245 213.06C233.778 204.377 261.875 194.8 278.712 188.869C283.96 187.032 288.09 185.585 291.255 184.472C292.427 184.06 293.048 183.841 293.185 183.793C293.185 183.787 293.184 183.782 293.183 183.778C293.192 183.772 293.197 183.769 293.197 183.769C293.197 183.769 293.197 183.769 293.197 183.769C293.197 183.769 293.197 183.769 293.197 183.769C293.197 183.769 293.197 183.769 293.197 183.769C293.197 183.769 293.192 183.772 293.183 183.778C293.184 183.782 293.185 183.787 293.185 183.793C293.012 183.854 292.08 184.183 290.533 184.73C282.174 187.686 269.68 192.101 254.948 197.392C229.729 206.483 225.101 208.023 195.765 218.503L195.938 218.371C194.311 220.757 192.709 223.061 190.77 225.753C179.988 240.741 169.749 252.126 158.058 262.472C146.236 272.529 134.158 283.647 127.675 303.379C126.801 305.768 126.001 308.306 125.247 310.918C122.029 322.337 120.299 331.793 118.911 340.357L118.771 341.168L117.993 341.371C101.835 346.677 84.1361 349.977 68.1107 361.792C65.9472 371.702 62.3469 382.4 57.9043 395.58L57.9975 395.101C57.981 395.328 57.9719 395.44 57.9524 395.737C57.2286 407.14 57.1553 416.843 57.7969 425.234C58.1404 429.407 58.6519 433.349 59.7176 436.643C60.2165 438.227 61.1059 439.861 61.7942 440.176C62.0895 440.311 62.2368 440.323 62.7367 440.123C63.1977 439.916 63.7172 439.528 64.2848 438.975C73.6301 430.955 63.0426 420.378 67.5196 406.422C68.8642 402.618 70.0641 398.447 71.8566 393.898C73.8596 389.73 75.4402 383.039 83.8437 380.909C84.5885 380.778 85.4975 380.919 86.1698 381.27C86.3387 381.354 86.4972 381.45 86.6376 381.547C86.7491 381.624 86.8525 381.703 86.9483 381.784C87.1399 381.945 87.3011 382.11 87.4395 382.272C87.7087 382.583 87.9283 382.95 88.035 383.153C88.1444 383.358 88.2337 383.555 88.3116 383.747C88.6417 384.614 88.7077 384.994 88.8384 385.63C89.0286 386.634 89.1257 387.593 89.1997 388.583C89.335 390.459 89.3643 392.291 89.3589 394.213C89.3427 397.974 89.1696 401.945 88.9211 406.081C88.3068 416.03 87.3301 426.306 86.1455 436.722L86.169 436.42C86.0157 445.114 86.5865 454.406 88.4527 463.005C90.2295 471.363 94.2452 480.547 100.785 480.505C100.541 480.469 100.027 480.719 100.014 480.78C99.9699 480.838 100.147 480.64 100.302 480.295C100.63 479.594 100.908 478.531 101.104 477.406C101.497 475.134 101.636 472.653 101.69 470.182C101.784 465.212 101.525 460.182 101.186 455.262C100.586 445.177 99.0704 436.676 98.898 426.164C101.545 415.14 105.755 404.199 117.28 401.311C118.137 401.151 119.182 401.437 119.731 401.795C120.27 402.121 120.633 402.511 120.892 402.847C121.283 403.351 121.555 403.941 121.689 404.267C122.022 405.09 122.175 405.701 122.333 406.367C122.618 407.61 122.79 408.792 122.93 409.88C123.21 412.11 123.364 414.178 123.491 416.15C123.793 421 123.91 425.986 123.958 431.162C124.002 436.511 123.968 442.03 123.839 447.738L123.838 447.55C124.893 462.06 126.911 479.907 136.787 492.234C137.547 493.084 138.278 493.778 138.984 494.272C139.164 494.398 139.323 494.496 139.471 494.578C139.637 494.669 139.776 494.731 139.885 494.77C140.123 494.858 140.209 494.841 140.187 494.844C140.164 494.842 140.133 494.883 140.261 494.784C140.374 494.694 140.579 494.467 140.784 494.133C141.187 493.49 141.581 492.471 141.862 491.456C143.016 487.149 143.19 482.087 143.103 477.08C142.852 467.007 141.36 456.622 138.842 446.482L138.753 445.942C138.643 444.262 138.562 442.58 138.506 440.9C138.208 431.294 138.542 421.428 139.594 411.188L139.688 410.382L140.177 409.756C146.584 402.53 153.253 394.246 165.368 392.865C168.622 392.861 170.607 394.823 171.97 396.279C173.353 397.826 174.374 399.393 175.354 400.952C177.286 404.071 178.949 407.157 180.786 410.074C184.354 415.821 188.977 421.329 194.708 421.23C194.943 421.225 194.823 421.198 194.705 421.301C194.586 421.406 194.667 421.387 194.742 421.117C194.91 420.575 194.933 419.484 194.813 418.407C194.575 416.227 193.956 413.861 193.239 411.535C191.776 406.855 189.876 402.225 187.838 397.649C183.733 388.534 179.075 379.558 173.956 371.208C169.941 365.026 162.577 360.698 155.522 357.236C153.228 356.136 150.794 355.076 148.399 354.195L145.125 353.059L147.44 350.513C153.16 344.295 159.147 337.785 165.284 331.108L165.484 330.914C173.477 324.35 181.695 317.597 189.944 310.814L190.627 310.249L191.459 310.486C225.794 320.876 263.275 323.826 289.429 315.576C297.589 313.204 304.543 309.997 310.127 306.856C339.723 287.709 347.925 275.228 352.885 246.608C353.21 243.076 353.187 239.247 352.667 235.138C350.856 213.259 328.766 184.031 301.582 183.316C295.068 183.121 292.584 183.953 293.324 183.749C294.064 183.683 298.069 182.829 304.61 183.528C324.058 185.98 335.888 198.93 341.615 206.591C350.908 220.285 354.47 229.293 353.746 246.687C353.458 249.895 352.904 253.38 351.915 257.176C344.477 281.28 334.656 290.018 323.837 299.576C315.643 305.328 313.846 308.887 289.952 317.321C279.072 320.588 263.133 323.904 239.985 322.533C221.175 321.358 204.814 317.731 190.5 313.937L192.246 313.558C183.425 321.11 175.449 327.935 168.193 334.141L168.416 333.925C161.988 341.206 156.209 347.748 150.964 353.683L149.929 349.709C162.282 354.318 172.361 359.543 178.477 368.36C178.736 368.763 178.997 369.174 179.259 369.592C183.028 375.617 187.387 383.461 191.739 392.724C193.902 397.367 196.076 402.348 197.941 407.795C198.861 410.537 199.719 413.324 200.238 416.497C200.465 418.044 200.684 419.739 200.359 421.768C200.175 422.772 199.835 424.038 198.757 425.203C197.637 426.424 195.951 426.889 194.681 426.857C176.139 425.291 173.215 401.768 165.487 398.472C157.618 399.08 150.022 406.827 144.717 413.279L145.304 411.838C145.262 412.244 145.216 412.738 145.177 413.186C144.419 422.283 143.955 433.459 144.828 445.505L144.738 444.959C147.2 454.447 148.925 464.764 149.381 475.543C149.555 480.949 149.557 486.436 148.265 492.203C147.363 494.899 147.23 498.739 141.996 500.991C139.251 501.777 136.996 500.636 135.591 499.725C134.083 498.715 133.057 497.684 131.996 496.517C119.821 480.987 118.653 462.825 117.384 447.75L117.383 447.552C117.511 441.757 117.532 436.21 117.475 431.197C117.412 425.746 117.249 420.878 116.958 416.748C116.788 414.353 116.582 412.125 116.293 410.156C116.146 409.166 115.975 408.24 115.776 407.506C115.684 407.157 115.557 406.818 115.522 406.76C115.513 406.743 115.516 406.753 115.543 406.796C115.574 406.842 115.603 406.9 115.757 407.067C115.91 407.224 116.125 407.429 116.559 407.639C117.029 407.873 117.736 407.99 118.31 407.89C114.054 408.673 111.076 413.238 109.177 416.663C107.267 420.239 105.89 423.823 105.201 427.047C105.077 432.219 106.015 440.396 106.796 452.201Z" fill="#2E7037"/>
<path d="M144.82 150.726C137.297 109.554 146.17 85.4889 158.237 67.1207C175.862 40.301 214.887 33.7683 242.676 39.2913C288.365 48.3736 312.03 90.1841 318.263 108.853C327.044 135.192 319.954 160.039 308.494 189.916C295.671 223.34 284.794 244.312 254.283 247.962C247.298 248.793 233.04 252.785 208.489 234.902C184.737 217.601 152.759 194.165 144.819 150.719L144.82 150.726Z" fill="#7AB026"/>
<path d="M319.836 164.296C316.831 173.616 315.056 181.738 312.058 191.283C310.848 195.101 309.435 199.147 307.516 203.539C300.253 218.682 299.167 221.192 286.348 236.284C277.437 245.861 264.176 249.88 254.618 250.761C249.67 251.501 244.755 251.906 241.574 251.868C232.502 251.459 231.774 249.691 220.457 244.979C214.905 242.406 210.791 239.721 207.026 236.911C203.316 234.12 199.817 231.323 195.786 227.862C187.36 221.526 164.173 198.784 157.971 188.5C150.693 178.941 147.059 165.506 145.585 157.636C145.075 155.168 144.822 153.215 144.685 151.694C144.633 151.109 144.696 150.792 144.806 150.721L144.832 150.717C144.82 150.724 144.808 150.728 144.796 150.73C144.796 150.73 144.796 150.73 144.796 150.73C144.796 150.73 144.796 150.73 144.796 150.73C144.783 150.732 144.771 150.732 144.758 150.728L144.88 150.708C145.043 150.742 145.263 151.162 145.427 151.903C146.28 155.759 147.911 161.516 150.894 167.809C156.844 179.238 156.074 181.352 166.778 195.174C178.158 208.451 186.756 214.541 202.78 227.574C205.381 229.656 207.734 231.399 209.913 232.948C221.457 239.796 227.841 245.918 250.801 245.529C251.847 245.445 252.878 245.335 253.96 245.252C279.156 241.428 281.75 234.787 294.6 211.822C298.128 204.678 301.477 196.625 304.764 188.485C313.495 167.736 319.727 146.196 319.317 133.826C319.368 126.589 318.349 118.305 315.484 109.779C311.545 98.3559 304.653 86.2109 295.865 75.2503C283.844 59.9736 264.055 45.9178 242.196 41.7053C236.656 40.5614 231.02 39.9469 225.506 39.737C202.017 37.8053 169.212 49.8483 159.01 67.6283C157.333 70.0878 155.905 72.3778 154.73 74.3959C146.308 90.1388 145.069 94.7517 143.05 111.835C142.134 121.755 142.727 135.449 144.358 146.977C145.188 152.747 144.711 151.494 143.653 145.697C142.158 137.226 141.817 130.117 141.407 125.677C140.719 116.814 140.429 112.838 142.66 101.734C145.229 90.7316 146.582 85.4809 149.363 79.4482C151.298 75.6431 151.981 74.3032 157.089 66.3663C160.039 62.0105 164.792 55.5282 174.91 48.8114C204.547 31.4988 225.297 35.0796 237.648 35.8679C239.295 36.07 241.158 36.3542 243.181 36.7506C257.235 38.9492 278.193 49.5932 291.187 62.5277C301.17 71.5816 314.836 89.7802 321.081 107.912C324.566 117.953 325.419 127.578 325.527 133.772C325.199 151.189 323.588 151.117 319.836 164.296Z" fill="#2E7037"/>
<path d="M127.019 91.7518C127.614 93.3808 127.814 95.163 127.879 96.9436C132.407 97.7194 136.937 98.4977 141.466 99.276C143.395 99.5116 145.319 99.8061 147.237 100.159C147.273 100.163 147.309 100.167 147.345 100.17C149.543 100.364 151.741 100.557 153.938 100.75C157.424 101.057 159.14 104.079 158.52 106.562C155.602 118.249 136.336 116.828 128.898 115.163C128.478 119.783 127.385 124.902 124.464 127.643C120.122 131.707 114.641 128.523 111.928 124.236C108.596 118.972 106.835 114.253 106.177 107.681C105.656 102.483 105.408 94.9503 109.65 90.5323C115.405 84.5387 123.664 82.5623 127.019 91.7518Z" fill="#7AB026"/>
<path d="M123.027 129.864C119.261 131.359 115.143 130.572 112.036 126.93C111.462 126.226 111.056 125.582 110.737 124.99C109.53 122.603 109.082 121.465 107.478 117.686C106.031 114.143 105.586 110.325 105.358 107.763C105.279 106.912 105.21 106.185 105.134 105.631C104.873 103.407 105.295 103.156 105.39 99.9869C105.601 96.8179 106.158 94.8224 107.661 92.4215C108.02 91.8757 108.58 91.0812 109.391 90.2834C111.912 87.5303 117.072 84.9004 119.616 85.1192C123.04 84.8511 125.702 88.1666 126.42 90.0428C126.695 90.6299 126.867 91.1224 126.983 91.4999C127.032 91.662 127.037 91.7454 127.015 91.7533C127.015 91.7533 127.015 91.7533 127.015 91.7533C127.014 91.7533 127.014 91.7533 127.014 91.7533C127.014 91.7533 127.014 91.7533 127.014 91.7533C126.987 91.7635 126.918 91.6574 126.837 91.459C126.444 90.5152 125.76 89.0749 124.451 87.8522C123.213 86.7467 122.372 86.38 121.39 86.052C120.406 85.7733 119.145 85.5182 117.002 86.1769C113.969 87.2423 112.184 88.8629 110.123 90.9863C109.348 91.8158 108.626 92.8399 107.999 94.1639C106.149 98.981 106.85 100.423 107.041 107.594C107.047 107.709 107.053 107.824 107.06 107.941C107.751 115.439 108.86 116.093 112.545 122.393C112.761 122.733 112.983 123.076 113.212 123.423C115.511 127.23 120.776 129.658 123.528 126.643C124.906 125.405 125.68 123.719 126.111 122.46C126.801 120.433 127.227 117.867 127.438 115.03L127.608 113.354L129.219 113.732C131.964 114.291 135.074 114.632 138.238 114.771C144.383 115.053 153.133 113.628 156.183 108.217C156.535 107.614 156.827 106.947 157.047 106.194C157.636 104.514 156.147 102.161 153.831 101.966C151.499 101.672 149.242 101.384 147.262 101.122L147.243 101.121C147.216 101.116 147.18 101.111 147.136 101.105L147.065 101.094C145.427 100.717 143.977 100.423 142.847 100.201C142.318 100.097 141.835 100.006 141.386 99.9253L141.355 99.9207C137.924 99.1319 136.591 98.8668 132.618 98.3554C131.202 98.1734 129.506 97.8841 127.781 97.5127L127.314 97.4279L127.302 96.9646C127.313 95.5342 127.28 94.0898 127.098 92.748C126.838 91.2694 127.232 91.4411 127.774 92.9437C128.266 94.4554 128.324 95.8473 128.449 96.9228L127.975 96.381C128.467 96.4271 128.905 96.4417 129.282 96.3994C131.67 96.1321 132.678 96.0613 135.482 96.9478C138.287 97.8293 139.784 97.2222 141.439 97.6204C141.545 97.6456 141.643 97.6711 141.737 97.6972L141.66 97.6859C142.78 97.9548 143.297 98.2381 147.463 98.9328L147.371 98.9193C147.395 98.9216 147.43 98.9245 147.478 98.9292L147.455 98.9269C148.537 99.0103 149.862 99.0938 151.501 99.1773C152.397 99.223 153.25 99.2682 154.065 99.3127C158.547 99.4751 161.017 103.965 160.139 106.966C159.524 109.621 158.224 111.44 157.021 112.677C154.399 115.795 146.959 117.586 141.523 117.713C138.287 117.92 133.142 117.626 128.577 116.596L130.362 115.296C130.072 118.545 129.415 121.545 128.794 123.399C127.663 126.644 126.708 127.416 125.317 128.552C124.754 128.965 124.081 129.431 123.027 129.864Z" fill="#2E7037"/>
<path d="M277.573 36.6088C274.153 29.1272 278.613 23.2812 286.601 24.6323C288.275 24.9156 292.079 26.4208 293.972 27.1499C303.32 30.7509 311.881 38.2987 311.171 43.1836C310.891 45.1044 310.325 47.6918 308.503 49.7985C304.855 54.0166 299.032 53.9886 294.387 51.9633C292.593 55.9403 290.442 59.7545 287.973 63.395C287.177 64.5694 286.269 65.2033 284.825 65.6544C281.038 66.8371 274.793 64.8834 276.837 59.3778C277.628 57.2503 278.461 55.1423 279.335 53.0547C280.375 50.0214 281.587 47.0716 282.989 44.1711C281.025 41.6962 278.914 39.5411 277.573 36.6088Z" fill="#7AB026"/>
<path d="M295.398 53.7933C294.871 53.5633 294.363 53.3668 293.856 53.183L295.6 52.5106C294.81 54.6156 294.62 56.8679 293.034 59.359C291.458 61.7887 290.564 62.3041 289.172 64.2082C288.773 64.7487 288.243 65.4181 287.406 66.0338C286.72 66.5386 285.965 66.8547 285.267 67.0706C281.323 68.1912 277.893 66.4329 276.433 65.0667C275.524 64.2618 275.359 63.457 275.318 62.6828C275.298 61.8882 275.362 61.0241 275.67 59.588C275.713 59.3902 275.766 59.1949 275.826 59.0025C276.485 56.8515 277.135 55.5087 278.156 53.6903C278.294 53.4442 278.461 53.1309 278.648 52.7669L278.63 52.8131C279.609 50.4732 281.484 46.2635 282.458 43.9144L282.527 44.5378C282.309 44.3004 282.106 44.0946 281.925 43.9261C280.099 42.2632 278.684 39.6356 277.992 38.0528C277.763 37.5641 277.626 37.1588 277.544 36.8417C277.509 36.7073 277.533 36.627 277.582 36.6047C277.582 36.6047 277.582 36.6047 277.582 36.6047C277.643 36.5769 277.743 36.6378 277.824 36.7889C278.219 37.5269 278.934 38.5656 279.999 39.596C281.722 41.2369 281.884 41.8055 283.514 43.7547L283.777 44.1104L283.592 44.4626C283.426 44.8255 283.25 45.2385 283.064 45.7179C281.966 48.5768 281.531 50.5975 280.489 53.4502L280.46 53.5258C280.193 54.138 279.893 54.7886 279.549 55.4964C278.7 57.2494 278.404 58.5107 278.091 59.8438C277.944 60.5557 277.913 61.2546 278.064 61.9012C278.226 62.53 278.518 63.2322 279.685 64.0227C281.585 65.1824 283.383 64.9004 284.429 64.387C285.454 63.8801 285.899 63.3563 286.386 62.3189C286.799 61.5167 287.294 60.6081 287.931 59.511C289.454 56.8957 291.194 53.9524 292.614 51.1629L293.49 49.3817L295.165 50.1796C297.699 51.4728 300.351 51.8104 301.926 51.5392C303.715 51.2738 305.692 50.3903 307.162 48.6384C308.286 47.3335 309.004 45.5222 309.416 43.4159C309.448 43.2612 309.477 43.1016 309.505 42.9413C309.871 39.3544 304.055 34.7683 299.798 31.8713C298.008 30.6344 295.804 29.3546 293.515 28.3344C290.962 27.203 288.39 26.0057 286.458 25.4758C285.504 25.2532 284.641 25.1567 283.937 25.1342C280.446 25.2451 279.062 25.8002 277.539 28.7908C276.747 30.5987 276.809 33.421 277.439 35.8006C277.759 36.9883 277.423 36.8646 276.847 35.7133C276.03 34.0052 275.989 32.4093 275.736 31.406C275.304 29.3975 275.295 27.9826 277.363 26.0416C279.519 24.3557 280.575 23.4063 282.183 23.1238C283.354 23.0528 283.697 23.0601 286.797 23.4732C287.992 23.6922 289.285 24.0993 291.082 24.6507C292.337 25.0405 293.474 25.4244 294.504 25.7687C299.262 27.4148 301.897 29.1031 303.809 30.3199C306.103 31.8978 310.703 35.5686 312.572 40.5931C312.812 41.3344 313.02 42.2933 312.871 43.431C312.6 45.6483 311.822 48.6795 309.838 50.9527C307.612 53.6482 304.274 54.768 302.43 55.0818C298.332 55.6164 298.295 54.8643 295.398 53.7933Z" fill="#2E7037"/>
<path d="M291.721 123.869C293.389 122.572 295.178 122.441 296.708 123.006C304.092 120.458 312.252 121.054 317.746 127.834C321.718 132.74 322.067 139.77 321.905 145.601C321.75 151.431 320.553 157.282 318.609 162.776C314.759 173.638 307.194 184.111 297.451 190.044C287.715 195.968 273.636 196.353 266.215 186.234C258.801 176.114 264.452 161.24 269.468 151.203C274.788 140.556 282.32 131.215 291.723 123.884L291.708 123.886L291.721 123.869Z" fill="#0D0829"/>
<path d="M156.54 162.505C160.971 157.1 166.504 155.49 173.277 154.791C195.664 152.481 226.987 179.236 217.92 203.582C213.171 216.331 195.381 217.379 184.533 212.284C181.966 211.282 179.506 209.894 177.323 208.435C173.387 205.814 169.995 202.458 167.08 198.71C164.472 196.037 162.001 193.238 159.702 190.287C156.763 186.498 152.973 182.083 152.158 177.216C151.391 172.629 152.928 166.91 156.54 162.505Z" fill="#0D0829"/>
<path d="M170.394 162.703C175.041 158.524 181.515 160.91 185.823 164.311C188.642 166.539 190.92 170.134 190.661 174.052C190.426 177.623 188.764 179.845 185.508 181.417C175.001 186.499 160.802 171.313 170.394 162.703Z" fill="white"/>
<path d="M286.846 133.71C289.425 131.547 292.99 129.815 296.398 131.071C300.508 132.586 301.928 137.087 300.504 141.01C298.973 145.228 295.725 150.148 290.182 150.985C288.317 151.267 286.963 151.328 285.357 150.761C281.519 149.399 279.577 145.205 281.09 141.374C282.254 138.431 284.447 135.726 286.846 133.71Z" fill="white"/>
<path d="M181.054 196.194L181.135 196.716C181.221 197.454 181.483 198.12 181.919 198.698C182.236 199.326 182.7 199.84 183.29 200.244C183.856 200.689 184.486 200.967 185.18 201.076C185.864 201.315 186.577 201.354 187.308 201.217L188.694 200.804C189.557 200.405 190.271 199.827 190.836 199.062L191.496 197.853C191.851 196.948 191.952 196.007 191.801 195.045L191.72 194.524C191.634 193.785 191.372 193.119 190.935 192.541C190.619 191.913 190.155 191.4 189.565 190.996C188.999 190.55 188.369 190.273 187.675 190.163C186.991 189.925 186.278 189.886 185.547 190.023L184.16 190.435C183.298 190.834 182.583 191.412 182.019 192.177L181.358 193.386C181.004 194.292 180.903 195.233 181.054 196.194Z" fill="white"/>
<path d="M285.639 170.181L285.721 170.702C285.806 171.441 286.068 172.106 286.505 172.685C286.821 173.312 287.285 173.826 287.875 174.23C288.441 174.676 289.071 174.953 289.765 175.062C290.449 175.301 291.162 175.34 291.893 175.203L293.28 174.79C294.143 174.392 294.857 173.814 295.421 173.049L296.082 171.839C296.436 170.934 296.537 169.993 296.387 169.031L296.305 168.51C296.219 167.772 295.957 167.105 295.521 166.527C295.204 165.9 294.74 165.386 294.15 164.982C293.584 164.537 292.954 164.259 292.26 164.15C291.576 163.911 290.863 163.872 290.132 164.009L288.746 164.422C287.883 164.82 287.169 165.398 286.604 166.164L285.944 167.373C285.589 168.278 285.488 169.219 285.639 170.181Z" fill="white"/>
<path d="M288.584 164.064C284.615 163.497 280.971 166.693 280.526 170.575C280.082 174.458 282.863 178.242 286.895 178.829C289.968 179.287 293.225 177.898 295.022 175.352C297.081 172.413 297.059 168.573 295.662 165.37C294.684 163.109 292.254 162 289.903 162.255C282.138 163.096 281.2 174.779 288.036 177.657C292.102 179.374 296.849 176.691 297.091 172.185C297.19 170.32 296.697 168.419 295.462 166.973C294.458 165.791 293.079 165.007 291.533 164.79C290.164 164.599 289.38 164.872 288.095 165.261C286.894 165.614 285.723 167.114 285.294 168.219C284.805 169.469 284.783 171.202 285.395 172.415C286.007 173.635 287.011 174.764 288.353 175.216C289.823 175.723 291.076 175.557 292.549 175.115C291.327 175.72 290.174 175.705 289.083 175.079C288.302 174.938 287.676 174.547 287.188 173.924C287.244 173.998 286.388 172.561 286.676 173.155C286.288 172.358 286.272 172.015 286.36 171.136L286.34 171.297C286.38 170.734 286.555 170.218 286.874 169.762C287.292 168.876 287.989 168.234 288.963 167.825L291.334 167.454C290.972 167.405 291.076 167.441 291.65 167.555C292.01 167.596 292.316 167.721 292.597 167.933C293.086 168.225 293.193 168.283 292.907 168.087L293.651 168.806C293.138 168.217 294.37 170.129 294.002 169.412C293.883 169.183 293.71 168.556 294.029 169.589C294.349 170.622 294.146 169.999 294.134 169.73C294.149 169.826 294.025 171.334 294.161 170.523C294.311 169.658 293.935 171.243 293.934 171.236C293.917 171.223 294.109 170.719 294.132 170.723L293.65 171.634C293.863 171.36 293.778 171.441 293.394 171.869C293.003 172.254 292.907 172.359 293.099 172.194C293.44 171.922 293.165 172.086 292.268 172.7C292.981 172.355 290.733 173.031 291.589 172.927L285.829 169.812C285.911 169.995 285.967 170.212 286.062 170.385C285.51 169.404 285.821 169.468 285.898 170.058C285.929 170.256 285.966 171.025 285.928 170.105C285.929 169.586 285.909 169.552 285.873 169.994L286.083 169.224C286.01 169.333 285.881 169.661 285.864 169.792L286.215 169.105C286.888 168.458 287.062 168.273 286.744 168.549C286.223 168.916 287.879 167.92 287.318 168.226C286.861 168.478 286.447 168.332 287.892 168.098C287.166 168.212 288.543 168.124 288.611 168.129C287.912 168.08 289.191 168.323 289.263 168.35C288.901 168.203 288.962 168.254 289.441 168.48C289.728 168.585 289.975 168.765 290.163 169.006C290.625 169.46 290.913 169.957 291.1 170.574C291.183 170.862 291.111 172.565 291.273 171.773C291.139 172.403 290.96 172.897 290.609 173.441C291.031 172.774 289.941 174.027 289.715 174.168C289.058 174.579 288.151 174.886 287.366 174.776C290.166 175.173 293.152 172.87 293.352 170.018C293.553 167.024 291.595 164.465 288.594 164.032L288.565 164.037L288.584 164.064Z" fill="#010101"/>
<path d="M171.956 186.653C175.233 184.046 178.894 188.012 191.205 183.887C194.538 183.177 198.694 181.623 202.072 182.591C209.023 184.571 208.934 193.753 205.746 198.847C202.111 204.643 195.04 206.887 188.512 205.54C179.824 203.73 164.393 192.655 171.956 186.653Z" fill="#4B4A4B"/>
<path d="M304.459 150.56C308.412 148.331 312.104 152.408 312.058 156.101C311.86 171.068 300.047 181.214 286.054 183.631C279.053 184.84 271.347 183.859 270.267 175.906C269.87 172.948 269.408 170.427 270.768 167.382C272.093 164.414 273.596 162.089 276.573 161.417C286.395 159.21 295.697 155.504 304.459 150.56Z" fill="#4B4A4B"/>
<path d="M238.49 226.548C250.975 226.36 262.104 219.052 272.234 211.75C270.907 217.395 272.006 223.977 268.307 228.452C265.121 232.313 259.372 233.063 254.477 232.009C249.583 230.963 245.124 228.473 240.376 226.877C239.741 226.661 238.689 226.856 238.907 227.483" fill="#388F44"/>
<path d="M257.648 145.173C256.25 147.256 257.77 154.729 259.395 156.324C261.633 158.52 322.051 119.693 320.475 117.885C316.518 113.345 288.21 116.974 284.899 118.297C281.587 119.621 260.106 141.512 257.648 145.173Z" fill="#388F44"/>
<path d="M211.098 163.195C212.051 164.46 213.952 172.975 212.843 174.339C210.6 177.097 150.007 162.059 153.927 155.203C155.08 153.186 179.489 144.919 182.082 145.131C184.674 145.344 209.575 161.176 211.098 163.195Z" fill="#388F44"/>
<g style="mix-blend-mode:multiply" opacity="0.55">
<path d="M225.276 331.192C226.641 323.531 248.12 326.386 254.416 327.417C257.513 327.924 259.5 329.198 260.151 331.786C261.838 338.509 262.743 345.317 262.856 352.256C262.935 357.233 261.194 357.686 256.904 353.188C256.467 352.726 255.63 351.713 254.748 350.668C253.409 352.145 245.473 357.046 243.434 357.807C239.039 359.457 233.798 358.91 230.015 356.986C219.656 351.719 223.723 339.64 225.245 331.182L225.276 331.192Z" fill="#388F44"/>
<path d="M352.383 266.173C353 263.339 355.537 262.362 358.369 261.416C361.069 260.513 363.483 260.726 366.536 261.655C369.01 262.407 370.649 263.042 372.314 264.887C375.5 268.42 379.993 273.651 378.942 279.908C378.372 283.302 376.087 285.128 371.596 286.933C367.784 288.465 362.643 287.147 361.203 288.561C359.762 289.975 361.154 290.845 361.789 292.303C362.767 294.519 363.437 296.828 363.219 299.276C362.741 304.676 358.943 303.932 353.698 302.956C348.833 302.048 343.777 297.612 342.07 293.006C340.144 287.818 342.666 282.985 345.802 279.095C348.94 275.212 351.356 271.095 352.418 266.161L352.405 266.17L352.383 266.173Z" fill="#388F44"/>
<path fill-rule="evenodd" clip-rule="evenodd" d="M314.586 180.166C323.725 167.739 336.681 156.971 352.768 156.49C358.935 156.299 361.217 163.568 355.826 166.751C346.706 172.143 337.342 177.949 330.077 185.78C322.303 194.15 318.876 203.96 320.202 215.357C321.565 227.034 323.408 242.926 321.248 254.779C319.361 265.107 313.459 273.958 305.784 280.944C290.338 295.02 268.362 301.118 247.77 299.439C237.502 298.603 227.25 295.762 218.144 290.924C213.748 288.589 209.716 284.986 204.592 286.698C199.469 288.418 194.489 291.244 189.818 293.931C171.279 304.589 162.683 315.302 151.761 333.634C147.726 340.418 141.112 349.882 134.138 354.753C141.824 361.628 145.823 361.369 155.64 367.782C159.227 368.829 167.681 376.673 171.92 382.635C173.952 385.494 173.208 390.863 158.813 388.041C154.602 387.216 151.831 387.043 147.826 388.228C144.034 389.35 141.453 390.524 138.97 393.757C135.942 397.699 137.308 402.672 136.268 406.195C134.961 410.626 130.405 412.988 129.026 404.184C126.297 397.06 127.943 388.448 116.35 391.338C107.845 393.46 107.626 398.164 102.842 404.885C94.2498 416.957 92.2766 408.678 93.4457 399.73C95.2012 394.852 96.9647 389.973 98.719 385.088C99.7524 382.227 97.6031 380.165 95.7858 377.155C94.2338 374.593 90.2482 374.262 87.6678 374.929C83.4465 376.019 77.8864 377.717 74.6394 380.467C70.3639 384.092 66.5517 380.605 68.2661 375.659C74.2572 358.4 93.8577 357.211 108.917 353.822C123.033 350.649 128.723 341.281 132.549 328.197C132.549 328.197 135.245 307.66 141.13 298.579C158.874 271.197 176.167 250.275 210.174 240.03C214.015 238.873 228.146 256.309 261.679 249.763C276.248 246.36 293.951 228.337 300.769 215.927C308.249 202.316 310.641 194.553 314.586 180.166Z" fill="#388F44"/>
<path fill-rule="evenodd" clip-rule="evenodd" d="M269.694 76.117C292.408 87.64 308.808 105.341 312.633 125.207L269.183 152.574C266.631 157.38 258.307 174.344 264.938 184.084C277.815 202.998 294.852 189.681 295.133 191.473C295.414 193.265 293.085 207.32 286.598 218.513C273.737 240.705 249.091 245.196 228.854 236.526C221.049 233.183 204.863 214.055 204.863 214.055C204.863 214.055 221.432 211.461 219.027 188.704C218.484 183.562 212.067 174.739 212.067 174.739C204.54 175.917 166.476 164.987 158.409 160.375C157.2 159.684 162.108 126.077 166.198 106.856C169.231 92.6107 178.181 84.3389 191.218 75.8419C215.687 59.894 242.363 62.2517 269.694 76.117Z" fill="#388F44"/>
<path d="M399.818 130.172C401.803 128.395 405.898 128.558 407.422 130.945C409.384 134.014 411.296 137.001 413.31 140.161C415.324 143.32 413.751 147.192 409.959 148.921C405.3 151.045 402.264 151.208 397.297 152.325C392.954 153.302 390.526 153.738 386.121 154.076C377.116 154.765 375.881 146.88 381.046 144.489C386.212 142.097 387.242 142.05 390.977 140.11C396.2 137.397 395.544 134.01 399.818 130.172Z" fill="#388F44"/>
</g>
</svg>
