<svg width="254" height="395" viewBox="0 0 254 395" fill="none" xmlns="http://www.w3.org/2000/svg">
<path d="M59.9453 8.9707C63.6171 7.88543 68.3013 8.80119 72.2695 10.9883C76.1882 13.1481 78.7107 16.1423 79.1299 18.7148L79.1641 18.9629C79.3614 20.7507 78.5596 22.7363 76.7656 24.9893C74.9886 27.2208 72.485 29.4064 69.8643 31.5361C67.3328 33.5934 64.5901 35.6731 62.6992 37.4951C61.7493 38.4105 60.8613 39.4008 60.2949 40.4336C59.7212 41.4797 59.3154 42.8902 59.9512 44.3457C60.7723 46.2266 62.6607 46.7085 63.9082 46.8818C65.2071 47.0622 66.8884 47.0331 68.2979 47.0654C71.3272 47.1348 74.0688 47.4767 76.04 49.3008L76.2285 49.4824C78.0679 51.3251 79.1304 54.5162 79.1221 57.8447C79.1135 61.213 78.0202 64.0277 76.3936 65.3467C75.5444 66.0336 74.6265 66.2615 73.417 66.1729C72.1031 66.0766 70.5988 65.6195 68.6777 64.9824C65.0171 63.7684 60.1643 61.9847 54.6494 63.0869L54.6484 63.0879C45.7727 64.8665 37.7422 73.4963 32.9453 83.3311C28.1301 93.2035 26.1225 105.198 30.3174 114.333H30.3184C34.0053 122.358 41.0409 124.892 47.8271 127.72C54.6968 130.582 61.9885 133.919 68.1523 143.062L68.1533 143.063C69.0328 144.364 72.0135 148.792 73.9395 154.133C75.8968 159.561 76.5505 165.321 73.6543 169.758C72.8236 171.03 70.7056 171.849 66.4287 171.13C62.3408 170.442 57.1289 168.456 51.4902 165.506C40.2225 159.61 27.8096 150.161 20.1113 140.801C13.799 133.125 8.78974 123.653 5.66895 114.835C2.51124 105.913 1.42821 98.0618 2.51758 93.5059C5.08866 82.7903 11.3594 77.3497 19.4287 70.0781C27.2621 63.0192 36.417 54.5069 44.0859 38.2061L44.8232 36.6035C46.5423 32.7882 47.8827 29.2227 49.0547 26.0146C50.2374 22.7771 51.2251 19.9741 52.2754 17.5479C54.3771 12.6929 56.4639 10.0021 59.9463 8.97168L59.9453 8.9707Z" fill="#7AB026" stroke="#2E7037" stroke-width="4.21526"/>
<path d="M116.318 135.281C168.741 125.328 186.446 174.206 183.19 207.933C181.747 222.882 204.768 265.619 185.194 289.293C167.311 310.927 149.039 301.948 150.087 314.787C151.574 332.98 157.852 350.975 154.367 364.351C150.415 379.54 131.096 377.513 114.684 381.408C94.5428 386.188 78.9357 400.205 61.6874 382.481C53.4672 374.039 66.2018 369.585 73.2441 366.355C112.709 348.251 105.205 333.785 84.7202 290.367C69.2356 257.54 61.8972 253.914 57.0193 232.558C54.4972 221.507 50.4888 203.986 57.0193 184.986C65.9735 158.937 91.3185 140.036 116.318 135.287V135.281Z" fill="#7AB026"/>
<path d="M61.1261 385.083C60.7854 384.736 60.4459 384.381 60.1072 384.019C58.4967 382.256 56.7139 380 56.8363 376.806C57.0615 373.605 59.15 371.56 60.8584 370.108C64.4435 367.215 68.3282 365.501 71.9658 363.568C77.466 360.614 83.309 357.46 89.1306 353.023C101.662 341.809 101.287 336.609 94.1104 316.941C90.399 308.058 86.2256 299.313 82.6044 291.365C78.1164 281.541 73.8859 273.538 70.9961 268.982C65.9037 260.712 65.958 259.548 59.7242 246.872C57.4487 241.792 56.1539 237.258 55.1846 232.977C53.7187 226.466 52.5958 220.419 52.298 212.935C52.0386 207.264 52.1401 195.797 56.1672 184.693C60.5337 171.772 69.9128 160.677 75.0867 155.539C84.6213 145.452 99.4513 139.026 108.434 136.748C111.24 135.968 113.487 135.548 115.225 135.293C115.904 135.195 116.255 135.212 116.318 135.284C116.321 135.283 116.328 135.281 116.335 135.281C116.335 135.281 116.335 135.281 116.335 135.281C116.341 135.281 116.348 135.283 116.355 135.287L116.355 135.318L116.325 135.323C116.285 135.437 115.795 135.626 114.928 135.823C110.455 136.827 103.838 138.919 96.7942 142.864C84.2408 150.839 81.54 150.59 68.6353 166.131C63.7463 172.778 60.7584 179.071 58.6879 185.56C55.7961 194.968 54.5945 204.91 56.2286 218.794C56.8625 223.992 57.86 228.254 58.827 232.145C61.9778 245.951 68.276 252.349 80.3168 276.386C82.7187 281.387 84.7207 285.73 86.4772 289.538C91.0094 299.381 94.391 305.636 97.9153 313.024C100.66 320.436 107.583 328.601 103.68 345.241C98.7669 358.471 85.7091 364.288 74.687 369.5C70.7048 371.253 66.8365 372.732 64.1541 374.757C62.8108 375.763 62.2104 376.762 62.2323 377.259C62.1479 377.825 62.7854 379.123 63.9277 380.3C73.1658 391.338 86.3322 388.507 94.2275 385.397C100.011 383.34 106.468 380.47 114.022 378.618C127.049 374.791 147.535 377.675 151.561 363.62C152.355 360.653 152.615 357.418 152.574 354.104C152.387 342.358 148.514 329.216 147.27 315.017C147.062 312.837 147.313 309.819 149.321 307.565C151.285 305.394 153.539 304.641 155.42 303.936C159.273 302.628 162.764 301.711 166.079 300.271C172.714 297.495 178.376 292.972 182.977 287.46C185.24 284.776 186.968 281.705 188.175 278.438C196.007 258.256 182.844 230.973 181.597 207.779C182.7 197.984 181.843 189.183 180.728 182.9C176.057 163.088 173.807 157.057 158.966 144.202C150.024 137.016 134.057 133.267 120.687 134.9C113.994 135.694 115.395 134.936 122.16 133.847C132.147 132.407 140.485 134.037 145.584 135.143C155.698 137.694 160.728 139.851 169.236 150.22C177.021 161.061 179.993 166.756 182.312 174.191C183.393 180.847 185.943 181.488 185.193 208.126C184.957 211.188 185.805 215.271 186.914 219.689C197.776 253.869 198.929 278.711 187.534 291.228C187.023 291.857 186.522 292.45 186.032 293.009C182.685 296.842 177.351 301.7 169.99 305.009C163.426 308.709 151.056 308.535 152.85 314.562C153.47 322.884 155.181 331.322 156.55 339.189C157.558 345.861 159.57 354.803 157.165 365.079C155.378 374.27 145.142 379.24 137.49 380.512C129.489 382.15 121.851 382.701 115.373 384.311C107.774 386.193 101.25 389.152 96.3104 390.96C77.6152 397.222 73.2249 395.542 61.1261 385.083Z" fill="#2E7037"/>
<path d="M59.8434 74.7153C59.8064 131.124 67.1016 148.792 86.9832 159.51C96.4183 164.598 104.885 165.252 114.45 163.371C144.284 157.506 192.046 126.887 186.286 84.6504C182.968 60.322 172.059 28.3589 134.393 18.646C111.484 12.7381 81.0939 20.3049 70.814 39.4285C67.41 45.7619 59.8557 66.3285 59.8496 74.7093L59.8434 74.7153Z" fill="#7AB026"/>
<path d="M183.294 78.9416C181.889 69.5233 178.124 62.7815 173.259 52.7389C167.854 43.0193 167.743 40.5889 157.766 32.295C149.838 26.2041 140.498 22.2467 133.888 20.6035C131.941 20.1045 130.23 19.8163 128.898 19.6953C123.138 19.3443 122.6 17.828 114.261 18.3841C105.989 19.2565 101.036 20.2123 94.0555 22.3074C88.9005 23.6392 75.92 30.4249 71.5096 39.8024C69.946 42.8685 68.8928 45.7854 68.2284 47.7945C65.6784 55.6451 62.0219 64.3788 60.8176 69.9275C60.4366 71.6411 60.1902 73.0156 60.0533 74.068C60.0019 74.4717 59.9359 74.6664 59.8632 74.7093L59.8633 74.7148L59.8591 74.719C59.8484 74.7163 59.8396 74.7114 59.833 74.7046C59.8329 74.7046 59.8329 74.7045 59.8329 74.7045C59.8262 74.6976 59.8216 74.6887 59.819 74.678L59.8058 74.7092C59.7152 74.6578 59.6281 74.3473 59.6462 73.7999C59.7365 70.9445 60.4564 66.7186 61.4892 61.7876C63.6342 52.612 64.4142 51.8388 69.2537 40.0428C69.4305 39.6558 69.6238 39.249 69.8048 38.886C75.7354 28.1978 82.7626 22.5507 96.7209 18.2102C110.968 15.1626 115.06 11.8363 134.932 16.5554C135.414 16.7032 135.901 16.8587 136.393 17.0224C155.96 25.053 159.816 24.8432 173.997 41.4809C183.095 53.5869 187.576 70.9691 188.973 84.2839C189.724 90.6581 189.221 96.281 188.56 100.366C186.781 113.499 177.624 129.71 163.482 141.317C150.93 151.89 133.445 162.382 114.956 165.944C112.951 166.311 110.934 166.575 108.912 166.697C101.687 167.276 93.0765 165.424 86.039 161.261C71.978 154.255 65.3835 138.799 63.7922 130.783C61.0805 118.092 61.1005 114.906 59.8275 102.584C59.1939 95.5405 59.0535 85.6642 59.553 77.4292C59.8063 73.2255 60.1631 74.2132 60.3513 78.3902C60.6351 84.5245 60.5972 89.4798 61.1642 92.6498C62.3229 98.8929 62.76 101.523 62.9556 109.405C63.2352 117.325 65.0769 120.804 65.8669 125.24C66.2971 127.463 66.3227 128.612 67.1765 131.917C68.2319 135.057 69.2375 141.259 76.8836 149.513C80.4477 153.127 84.3597 155.571 88.0759 157.483C99.201 163.216 107.804 161.86 113.916 160.657C114.742 160.482 115.547 160.294 116.331 160.098C124.672 158.304 142.045 151.67 153.32 142.851C165.551 135.241 183.34 111.451 183.179 99.5322C184.07 91.4136 183.895 89.1783 183.848 84.9829C183.771 83.3902 183.64 81.492 183.294 78.9416Z" fill="#2E7037"/>
<path d="M101.157 63.27C104.721 61.9279 108.499 61.5164 111.974 62.692C123.706 63.2704 128.059 76.2448 127.733 86.3034C127.375 97.0955 122.713 107.74 114.906 115.22C106.691 123.1 94.316 127.564 84.6884 119.597C84.2712 119.39 83.86 119.167 83.4558 118.926C77.7511 115.534 74.7086 109.165 75.3523 103.061C74.6757 97.6098 75.2712 91.9878 76.666 86.7045C77.5277 83.4269 78.8016 80.087 80.4567 77.012C80.476 76.9641 80.4949 76.9161 80.5143 76.8685L80.4832 76.8991L80.4708 76.9179C80.7213 76.2993 81.0595 75.7274 81.4717 75.2395C82.8002 73.0603 84.3326 71.0597 86.058 69.3695C89.8091 65.6898 95.716 62.3953 101.157 63.27Z" fill="#0D0829"/>
<path d="M102.376 69.8386C103.783 69.4568 104.986 69.72 105.909 70.3508C107.353 70.5246 108.715 71.2304 109.862 72.7002C111.351 74.6055 111.404 76.5964 110.653 78.4403C110.644 78.4754 110.636 78.5108 110.626 78.5461C109.903 81.186 107.926 83.0592 105.522 84.0646C104.599 84.6608 103.664 85.1413 102.807 85.4718C98.0033 87.328 89.4439 86.4211 89.6598 79.6005C89.8327 74.1122 98.0031 71.0288 102.381 69.8386H102.376Z" fill="#BDBFC0"/>
<path d="M98.595 95.6519C102.178 93.66 106.587 91.3351 110.743 91.6125C114.9 91.89 118.853 94.8316 119.204 99.1791C119.494 102.768 117.595 106.123 115.4 108.824C110.707 114.596 102.209 119.573 94.5926 119.135C90.5227 118.907 85.8363 116.749 84.9113 112.518C84.3155 109.797 85.4191 107.648 87.1118 105.885C87.4612 104.85 88.0206 103.853 88.7713 102.972C91.3305 99.9689 95.0122 97.65 98.595 95.6519Z" fill="#4B4A4B"/>
<path d="M161.36 164.339C176.962 156.014 198.632 154.133 217.434 164.339C240.325 176.766 253.528 204.171 248.034 223.295C244.124 236.911 230.995 245.379 234.763 253.062C237.229 258.095 243.735 256.238 248.447 262.726C252.973 268.967 253.343 279.506 248.034 286.734C240.633 296.817 226.524 294.59 222.904 294.023C219.149 293.431 206.982 291.513 202.141 280.764C198.28 272.18 200.655 261.412 206.642 256.214C210.713 252.68 213.438 254.339 217.428 251.391C228.183 243.479 223.465 220.464 222.898 217.683C220.154 204.288 210.824 181.939 199.076 182.02C186.786 182.112 185.484 206.656 166.454 211.929C154.145 215.346 138.241 209.635 134.849 200.323C130.434 188.218 147.726 171.61 161.354 164.339H161.36Z" fill="#7AB026"/>
<path d="M232.369 293.324C238.436 293.041 243.674 290.47 246.764 285.802C249.156 282.215 250.469 277.493 249.983 272.021C249.605 268.29 248.49 265.646 247.178 263.646C245.832 261.635 244.236 260.314 241.998 259.242C239.979 258.014 236.095 257.9 233.741 253.563C233.025 252.144 232.749 250.289 233.116 248.48C237.039 237.605 245.406 230.805 247.085 223.022C248.116 219.501 248.297 216.365 248.248 214.172C247.746 207.441 248.494 206.476 245.229 197.247C241.458 188.229 238.071 183.205 232.469 176.72C229.899 173.81 224.351 168.477 217.273 164.636C208.839 159.826 198.484 157.966 193.261 157.867C183.642 157.316 172.698 159.475 166.586 162.052C164.668 162.814 163.198 163.496 162.073 164.039C161.598 164.269 161.371 164.36 161.358 164.335C161.358 164.335 161.358 164.335 161.358 164.335C161.358 164.335 161.358 164.335 161.358 164.335C161.358 164.335 161.358 164.335 161.358 164.335C161.342 164.304 161.657 164.094 162.261 163.781C165.187 162.261 169.722 160.238 175.387 158.754C186.007 156.57 187.463 156.078 202.015 158.22C208.153 159.467 213.087 161.329 217.751 163.756C224.027 167.116 230.053 171.445 236.395 179.246C241.765 186.116 244.362 190.881 246.821 196.664C248.923 202.428 252.046 209.773 249.368 222.184C249.246 222.657 249.116 223.118 248.979 223.567C243.538 239.194 233.628 243.461 236.052 252.43C237.186 255.816 243.945 254.772 249.255 260.88C249.477 261.145 249.678 261.401 249.886 261.681C255.165 269.064 255.132 280.085 249.488 287.802C242.71 296.994 230.575 297.027 222.655 295.61C216.495 294.697 211.14 292.508 207.645 289.909C204.872 287.91 202.285 285.04 200.648 281.436C197.111 273.632 197.556 262.317 205.472 254.866C207.074 253.395 209.421 252.295 211.473 251.882C213.515 251.438 214.952 251.02 216.368 249.957C217.791 248.92 218.958 247.518 219.859 245.886C223.766 238.449 223.061 227.848 221.081 218.054C218.139 205.883 213.009 191.927 203.577 185.235C202.199 184.404 200.667 183.862 199.088 183.851C192.994 183.69 189.215 192.351 184.799 198.651C180.487 205.323 174.058 211.404 166.775 213.089C159.218 214.999 152.376 213.619 147.828 212.009C140.164 209.111 136.186 205.315 134.306 200.521C132.802 196.288 133.555 191.31 136.94 185.441C141.149 178.073 149.983 170.211 158.506 165.651C160.324 164.677 161.262 164.335 161.383 164.394L161.354 164.401C161.362 164.412 161.362 164.423 161.354 164.433L161.398 164.422C161.379 164.6 160.082 165.408 157.922 166.853C152.047 170.806 147.616 174.624 145.347 177.476C141.133 183.304 138.738 185.628 135.93 193.662C135.305 196.074 135.525 198.192 136.187 199.835C137.943 203.795 140.919 205.339 143.83 207.189C145.747 208.299 146.819 208.971 149.601 209.961C152.332 210.73 157.235 212.656 166.05 210.475C168.287 209.836 170.709 208.767 173.089 207.024C185.444 197.844 185.762 181.455 199.061 180.023C207.052 180.451 210.505 185.843 213.193 189.11C217.432 194.769 222.292 205.476 224.682 217.317C225.939 223.86 226.517 230.701 225.923 236.985C225.401 241.499 224.379 248.301 218.484 252.827C216.76 254.182 214.31 254.946 212.429 255.319C210.547 255.723 209.172 256.345 207.798 257.545C201.434 263.186 200.719 273.83 203.732 280.049C205.239 283.399 207.565 285.706 209.586 287.154C216.111 291.395 219.607 291.546 223.152 292.451C225.525 292.929 228.096 293.487 232.369 293.324Z" fill="#2E7037"/>
<path d="M73.2623 75.079C71.0945 78.0286 71.0575 83.8777 73.2623 84.4525C76.4771 85.2905 130.003 62.6298 128.282 60.778C124.35 56.5472 103.274 55.5827 99.0577 56.5473C93.3381 57.8558 75.2727 72.3436 73.2623 75.079Z" fill="#388F44"/>
<path d="M161.484 0.237818C166.528 -0.477289 171.93 5.05464 174.693 8.69305C176.867 11.5543 178.97 14.5191 179.669 18.1221C180.314 21.4336 180.885 24.8494 177.616 27.0149C174.649 28.984 171.032 27.5867 167.94 25.3842C167.232 27.1995 166.471 28.8936 165.819 30.3386C161.927 38.9651 152.653 43.4398 145.986 42.5675C142.513 42.113 142.835 32.2508 148.373 33.9217C152.954 33.9217 155.952 30.2277 157.629 26.7002C158.155 25.6003 160.057 21.6158 160.921 18.4597C159.775 17.0457 158.829 15.4682 158.049 13.8239C156.008 9.5071 154.842 1.18135 161.484 0.237818Z" fill="#7AB026"/>
<path d="M149.084 33.2823C151.88 33.0827 153.529 31.2693 155.503 28.6104C156.152 27.704 156.572 27.0007 156.935 26.3701C157.687 25.0322 158.303 24.0455 159.288 21.4935C159.692 20.4223 160.081 19.3459 160.38 18.3114L160.486 18.8131C159.123 17.0877 158.219 15.3062 157.608 14.0328C157.408 13.6135 157.244 13.2322 157.112 12.9312C156.414 11.173 156.566 10.9136 156.16 8.29382C155.91 5.67617 156.145 3.81363 157.674 1.94169C158.249 1.23617 159.673 0.243075 161.458 0.058856C164.423 -0.360206 167.417 1.55225 168.693 2.40843C170.851 3.83125 172.742 6.10441 173.818 7.4705C174.158 7.89861 174.407 8.2406 174.597 8.51377C174.676 8.62784 174.702 8.68604 174.691 8.69458C174.691 8.69458 174.691 8.69458 174.691 8.69458C174.691 8.69459 174.691 8.6946 174.691 8.6946C174.691 8.6946 174.691 8.6946 174.691 8.6946C174.677 8.70494 174.605 8.63841 174.494 8.49814C173.956 7.82063 173.115 6.83189 172.011 5.78172C169.894 3.91513 169.845 3.42104 166.535 1.54536C164.748 0.664481 163.143 0.335586 161.534 0.591717C160.1 0.833174 158.53 1.47743 157.577 3.26952C156.18 7.08618 156.79 8.57246 158.531 13.5958C158.643 13.8507 158.763 14.1153 158.891 14.3893C159.708 16.1217 160.512 17.2732 161.277 18.1715L161.426 18.3575L161.363 18.5806C160.634 21.2884 160.262 22.9774 158.439 27.0596C158.435 27.0671 158.432 27.0745 158.428 27.0818C156.891 30.7929 152.868 35.0212 148.373 34.751L148.133 34.7156C146.187 33.9941 145.029 35.5465 144.741 36.7779C144.51 37.6277 144.451 38.6583 144.655 39.6647C144.838 40.6566 145.436 41.6757 146.1 41.7017C148.257 41.9616 150.678 41.6227 153.014 40.8455C157.79 39.335 162.661 34.9752 164.935 29.9398C165.052 29.6919 165.17 29.445 165.286 29.2009C165.895 27.9285 166.546 26.5345 167.156 25.0785L167.558 24.0702L168.428 24.6991C171.117 26.8274 174.943 28.2152 177.308 26.5511C178.361 25.9155 179.022 25.0597 179.35 24.2875C180.272 21.6331 179.729 20.2225 179.378 18.1787C179.248 17.5599 179.053 16.8749 178.735 16.0768C177.981 14.0884 176.426 11.5769 175.081 9.42834C174.409 8.34452 174.715 8.46942 175.546 9.45148C176.762 10.8911 177.536 12.2388 178.186 12.9977C179.454 14.5317 180.051 15.3204 180.396 17.882C180.399 17.9145 180.403 17.9469 180.406 17.979C180.651 20.3481 181.295 21.5083 181.069 23.1017C180.96 23.7272 180.826 24.1019 180.516 24.7764C180.188 25.4192 179.667 26.5134 178.023 27.6302C177.139 28.2301 175.786 28.8094 174.058 28.7481C171.055 28.572 169.003 27.2177 167.389 26.1585L168.826 25.7296C168.04 27.8404 167.327 29.4467 166.755 30.7608C166.484 31.3771 166.212 31.9196 165.947 32.4085C164.691 35.0225 160.42 39.4284 156.202 41.409C153.901 42.6175 149.792 43.9747 145.873 43.4323C143.627 42.9853 143.176 40.9467 142.943 39.7231C142.739 38.3833 142.887 37.2096 143.116 36.3328C143.606 34.4967 144.634 33.5898 145.554 33.2213C146.499 32.863 147.376 32.8848 148.56 33.2994L148.373 33.2717C148.59 33.2867 148.824 33.2926 149.084 33.2823Z" fill="#2E7037"/>
<path d="M168.821 150.963C169.607 147.566 173.029 144.794 176.155 144.89C178.345 144.958 180.423 143.52 180.758 140.957C181.051 138.706 179.521 136.042 177.319 135.973C169.427 135.722 162.736 141.435 160.78 149.913C160.229 152.28 162.216 154.635 164.218 154.896C166.59 155.206 168.274 153.336 168.821 150.963Z" fill="#388F44"/>
<path d="M175.425 158.193C177.732 156.716 180.432 155.805 183.362 156.239C185.776 156.594 188.245 155.688 188.943 153.549C189.542 151.695 188.201 149.169 185.776 148.809C180.525 148.036 175.169 148.772 170.848 151.542C168.896 152.792 167.88 154.868 169.221 156.811C170.343 158.442 173.461 159.449 175.425 158.193Z" fill="#388F44"/>
<path d="M188.326 214.384C189.991 212.744 193.106 212.071 195.098 213.638C197.089 215.204 199.581 215.5 201.443 213.638C202.997 212.084 203.355 208.803 201.443 207.292C195.585 202.698 187.432 202.661 181.987 208.038C177.874 212.096 184.219 218.442 188.333 214.384H188.326Z" fill="#388F44"/>
<path d="M188.051 229.312C190.604 228.696 193.7 229.516 195.341 231.693C196.796 233.623 199.213 234.622 201.476 233.302C203.382 232.192 204.547 229.115 203.086 227.166C198.948 221.653 192.467 219.026 185.665 220.66C180.053 222.01 182.427 230.663 188.051 229.306V229.312Z" fill="#388F44"/>
<path d="M186.971 243.542C190.489 244.421 193.421 246.208 195.92 248.817C197.594 250.563 200.69 250.268 202.258 248.564C203.983 246.696 203.687 243.975 202.005 242.226C198.487 238.561 193.957 236.037 189.037 234.812C183.419 233.414 181.368 242.152 186.971 243.542Z" fill="#388F44"/>
<path fill-rule="evenodd" clip-rule="evenodd" d="M97.6766 136.181C101.645 134.479 107.26 133.653 110.284 137.538C110.297 137.55 110.311 137.562 110.324 137.575L110.316 137.578L110.355 137.636C110.673 138.202 109.109 138.642 108.709 138.266C105.323 135.077 100.396 136.557 96.7763 138.457C94.9568 139.41 93.2083 140.519 91.352 141.39C91.3489 141.392 91.3464 141.396 91.3431 141.398C88.6729 143.625 84.0909 143.254 82.3457 140.06C82.0319 139.48 83.6776 139.184 84.017 139.48C85.9102 141.127 88.6298 140.405 90.708 139.554C93.1007 138.58 95.3024 137.205 97.6766 136.181ZM84.6027 141.848H84.6215C84.6155 141.844 84.6088 141.84 84.6027 141.836V141.848Z" fill="#388F44"/>
<path d="M113.919 135.38C114.191 135.256 114.881 135.114 115.079 135.46C115.868 136.847 115.918 138.451 115.338 139.925C115.067 140.628 114.616 141.287 114.055 141.793C113.716 142.101 113.346 142.379 112.914 142.552C112.378 142.768 111.638 142.885 111.144 142.502C110.437 141.961 111.868 141.231 112.441 141.544C112.502 141.508 112.551 141.466 112.606 141.423C112.526 141.485 112.704 141.33 112.704 141.33C112.741 141.3 112.785 141.263 112.822 141.22C112.92 141.115 113.019 140.998 113.118 140.88C113.402 140.504 113.673 139.974 113.808 139.48C114.117 138.401 114.055 137.18 113.488 136.188L113.481 136.175C113.278 135.824 113.605 135.521 113.919 135.38Z" fill="#388F44"/>
<g style="mix-blend-mode:multiply" opacity="0.55">
<path fill-rule="evenodd" clip-rule="evenodd" d="M159.879 33.2018C164.395 29.8898 166.202 25.0724 166.202 25.0724C166.202 25.0724 165.236 32.1317 163.793 34.1051C160.982 37.952 159.493 39.6446 155.261 41.8036C171.479 62.7869 179.102 93.1529 164.998 116.002C161.063 122.354 150.51 133.72 144.824 138.885C153.831 146.522 161.44 163.324 158.675 165.079C149.944 170.394 145.071 189.112 158.675 192.178C172.525 195.298 191.192 182.543 191.192 182.543C191.192 182.543 186.124 188.707 183.966 192.178C180.077 198.431 179.45 207.232 172.525 210.243C175.466 223.684 179.595 238.21 178.245 252.998C176.912 267.611 176.298 282.353 165.901 289.43C156.084 297.186 133.919 298.915 131.878 303.581C129.244 309.603 134.796 334.417 136.695 343.283C137.713 348.038 142.063 354.983 139.405 359.584C137.966 362.078 129.129 364.49 122.544 367.412C109.32 373.279 101.75 377.727 87.9184 380.058C83.0837 380.872 73.0935 377.69 77.6813 374.939C85.4761 370.254 112.456 356.978 115.318 353.562C121.136 346.615 118.05 333.068 117.124 324.958C115.052 306.865 109.372 293.578 101.762 277.125C94.3867 261.177 85.938 245.458 81.3191 228.413C77.1072 212.866 75.8123 195.592 81.2944 180.181C82.6696 176.308 84.421 172.602 86.5547 169.099C88.5897 165.763 90.9824 162.506 92.4747 158.874C93.8149 155.623 93.647 153.298 92.5359 150.536C88.0666 149.426 83.8966 147.051 80.4129 143.118C75.8849 138.012 76.477 123.83 77.3802 112.389C77.4178 111.912 88.8217 133.766 111.705 118.109C131.878 99.7428 126.458 83.4211 126.458 80.4728C126.458 74.451 120.257 65.3764 119.232 65.7194C119.232 65.7194 75.1462 86.4411 72.8638 84.387C69.853 81.6774 70.8169 67.7937 73.1114 62.3748C77.1526 52.8541 82.4941 44.6602 91.0751 38.7739C99.4988 32.9956 110.932 32.3236 120.798 31.3307C130.559 30.3449 140.217 29.3924 150.244 34.4062C153.857 36.2127 157.071 35.261 159.879 33.2018Z" fill="#388F44"/>
<path d="M225.481 264.532C231.004 265.925 237.574 271.986 238.05 278.063C238.661 285.86 231.539 286.72 222.64 285.314C216.265 284.306 211.045 282.859 207.395 278.932C204.447 275.756 205.082 270.909 208.745 268.615C213.735 265.485 219.468 263.021 225.481 264.532Z" fill="#388F44"/>
<path d="M161.987 8.64188C163.805 7.86988 166.535 8.3342 167.956 9.70275C170.225 11.892 171.796 14.0411 172.826 17.5452C173.18 18.7496 174.944 21.6427 173.729 22.9648C172.03 24.8155 169.686 24.5941 167.956 22.6638C165.416 19.8312 161.384 16.943 160.782 14.2332C160.353 12.3003 160.272 9.36959 161.987 8.64188Z" fill="#388F44"/>
</g>
</svg>
