<svg width="184" height="348" viewBox="0 0 184 348" fill="none" xmlns="http://www.w3.org/2000/svg">
<path d="M52.2443 22.5565C44.1129 26.0832 27.5023 33.2828 18.4875 51.2433C10.2587 67.6249 13.2428 83.2206 15.6704 95.9154C17.931 107.734 23.8782 138.89 45.8518 146.277C56.237 149.769 65.843 146.486 72.0407 144.371C109.999 131.398 121.462 84.8899 122.158 81.8779C125.058 69.3361 124.933 47.3341 106.994 31.3421C86.8498 13.3816 58.5324 19.8367 52.2443 22.5635V22.5565Z" fill="#7AB026"/>
<path d="M96.0267 125.42C101.966 119.874 103.622 113.203 108.521 104.935C113.202 96.4336 115.199 95.5318 118.356 84.6842C118.662 83.5202 118.985 82.2752 119.229 81.2015C121.403 71.7841 120.986 62.2436 119.496 58.1376C117.761 53.6012 119.431 52.4669 116.038 46.2703C112.452 40.4058 109.892 37.1066 105.832 32.6458C105.752 32.5605 105.671 32.4753 105.589 32.3899C101.986 26.9558 83.4844 19.3768 76.2249 20.6411C69.2451 20.8572 61.1945 20.7606 56.387 21.8038C54.9046 22.111 53.7401 22.3721 52.8497 22.5874C52.4993 22.6751 52.322 22.654 52.251 22.5791L52.2279 22.5897L52.2273 22.5635C52.2396 22.5588 52.2519 22.5565 52.2642 22.5565C52.2643 22.5565 52.2643 22.5565 52.2644 22.5565C52.2768 22.5565 52.2891 22.5589 52.3014 22.5635L52.2216 22.5111C52.2099 22.3835 52.4012 22.1753 52.8498 21.9875C55.1192 21.0404 58.6228 19.8865 62.8838 18.7703C70.9098 17.0037 71.9484 17.5882 82.9637 18.5349C92.9785 20.0102 100.047 21.8518 108.593 29.5492C109.325 30.2431 110.028 30.9562 110.761 31.7578C118.773 41.8621 124.204 43.8377 126.001 62.9506C126.149 72.2906 125.517 77.3422 124.957 82.5253C124.183 87.7414 123.465 92.9099 119.842 101.651C113.099 119.227 95.5383 136.558 85.4023 141.832C81.9476 143.964 77.8472 146.061 73.1814 147.709C65.6317 150.53 54.9669 153.33 44.7469 149.563C44.3771 149.431 44.0111 149.293 43.649 149.148C26.8041 142.728 17.487 122.396 14.304 105.748C13.7221 102.837 13.1958 99.6732 12.7091 96.4818C9.44367 81.2189 10.932 61.6756 15.9135 53.464C16.4063 52.451 16.8911 51.5364 17.3701 50.6821C21.9336 43.1524 23.9149 40.5644 30.9572 33.8173C35.5347 29.5663 43.1403 25.2902 49.9716 23.1216C53.4037 22.0003 52.8221 22.7658 49.6412 24.4284C44.991 26.8704 41.1634 28.8111 39.2424 30.7611C35.4729 34.7215 34.0369 36.2538 28.9332 40.4196C23.9218 44.8228 23.6748 48.4807 21.7272 51.6228C21.5205 51.9702 21.3295 52.2795 21.1424 52.5759C20.1405 55.0881 16.3411 56.1234 15.7501 73.5211C15.9485 82.42 17.7353 89.431 18.9693 95.2845C20.4475 102.19 21.7557 107.043 23.0083 110.892C25.1209 117.822 30.2843 133.339 40.0791 139.558C41.9112 140.79 44.2325 142.062 46.9694 142.953C53.905 145.473 63.1165 143.933 70.8695 140.939C75.4281 139.341 79.1844 137.276 81.6133 135.641C89.396 129.994 89.9169 130.612 96.0267 125.42Z" fill="#2E7037"/>
<path d="M47.0205 264.983C33.9643 240.97 29.4804 158.306 53.5934 127.74C64.1877 114.311 89.9328 103.288 89.9328 103.288C89.9328 103.288 109.042 92.2824 132.592 97.411L132.65 97.4237C138.156 98.6206 155.788 102.453 167.183 117.827C176.824 130.821 180.611 140.831 180.611 156.608C180.611 185.136 182.282 198.599 174.654 223.513C171.929 232.413 163.916 237.633 165.668 245.589C167.462 253.731 179.661 258.79 174.654 266.84C170.066 274.217 166.251 275.765 158.231 281.844C150.691 287.562 140.236 290.811 138.664 290.031C136.536 288.967 143.978 277.963 141.293 276.391C138.455 274.735 127.59 283.054 125.844 281.837C124.307 280.773 137.662 270.416 138.664 257.248C135.387 245.653 129.329 246.662 125.844 245.589C122.536 244.57 91.3433 253.229 91.3433 257.248C91.3433 270.256 91.3433 287.395 95.955 289.593C110.778 296.647 111.307 306.851 111.14 317.292C110.966 327.921 79.2025 344.998 75.5187 344.078C71.8348 343.158 80.2306 326.451 77.9045 324.255C75.5187 322.003 55.3383 328.795 56.3066 325.271C58.1375 318.607 72.9728 314.725 75.5187 305.662C78.6558 294.49 59.5689 288.056 47.0205 264.983Z" fill="#7AB026"/>
<path d="M127.066 279.629C126.487 279.367 126.33 279.457 126.279 279.448C126.229 279.458 126.29 279.457 126.369 279.441C126.541 279.408 126.805 279.324 127.076 279.222C127.629 279.014 128.235 278.733 128.838 278.436C130.053 277.837 131.275 277.165 132.517 276.499C133.763 275.833 135.02 275.159 136.409 274.549C137.116 274.244 137.848 273.949 138.74 273.721C139.633 273.567 140.723 273.096 142.666 274.038C143.633 274.56 144.271 275.607 144.47 276.351C144.688 277.1 144.691 277.682 144.681 278.157C144.642 279.129 144.481 279.85 144.317 280.55C143.978 281.931 143.566 283.125 143.163 284.303C142.762 285.474 142.353 286.611 142.038 287.67C141.884 288.189 141.752 288.707 141.714 289.042C141.694 289.191 141.713 289.329 141.732 289.144C141.733 289.038 141.751 288.833 141.589 288.389C141.445 287.947 140.903 287.214 140.232 286.895L140.221 286.889C139.829 286.694 139.62 286.665 139.522 286.64C139.409 286.617 139.385 286.613 139.374 286.607C139.362 286.597 139.448 286.585 139.55 286.565C139.762 286.525 140.076 286.454 140.385 286.37C141.026 286.198 141.738 285.966 142.453 285.708C143.888 285.188 145.372 284.557 146.869 283.849C149.849 282.431 152.916 280.719 155.775 278.605C156.306 278.209 156.836 277.822 157.374 277.437C165.23 272.081 168.895 269.522 171.824 265.08C172.527 264.09 172.793 263.364 172.72 262.425C172.649 261.475 172.045 260.177 171.04 258.763C169.201 255.764 165.092 253.13 163.052 246.165C162.54 243.975 162.644 241.356 163.432 238.98C166.043 231.974 170.588 227.867 172.016 222.706C177.758 205.335 178.519 188.992 178.106 180.513C177.639 170.472 178.717 168.412 178.711 156.608C178.712 155.224 178.669 153.715 178.542 152.051C177.378 137.405 172.818 129.2 165.837 118.826C165.365 118.139 164.881 117.472 164.354 116.789C160.325 110.844 147.542 101.127 132.384 98.3671C119.2 95.2662 105.697 98.1139 99.0429 100.777C96.2179 101.864 93.2646 103.118 90.6584 104.548L90.5051 104.624C78.8032 109.859 67.09 116.114 60.4425 121.567C57.8578 123.656 55.9503 125.467 54.5631 126.925C53.9727 127.547 53.6601 127.791 53.579 127.729C53.579 127.729 53.5789 127.729 53.5789 127.729C53.482 127.653 53.7518 127.092 54.4751 126.235C57.9248 122.094 64.0798 116.804 71.9897 111.502C79.5402 106.496 84.0383 104.386 89.4047 102.054L89.2632 102.125C94.4566 99.5657 100.477 96.917 112.277 95.1256C119.822 94.1206 126.594 94.395 132.984 95.608C145.39 98.0482 158.316 102.392 168.944 116.522C169.844 117.775 170.743 119.076 171.634 120.442C180.633 134.199 182.922 144.147 183.388 156.608C183.522 165.629 184.368 176.341 182.946 193.4C181.576 207.099 178.992 216.321 176.845 224.184C174.357 233.091 167.057 238.965 168.907 244.875C169.484 246.993 171.523 249.347 174.305 252.354C175.67 253.909 177.317 255.587 178.687 258.396C180.218 261.106 180.089 266.056 178.044 268.949C177.466 269.9 176.835 270.868 176.122 271.845C171.907 277.845 165.585 281.25 160.687 285.084C157.525 287.457 154.14 289.328 150.607 290.89C148.84 291.665 147.031 292.362 145.136 292.952C144.185 293.246 143.212 293.516 142.159 293.736C141.615 293.848 141.068 293.946 140.417 294.013C140.073 294.047 139.713 294.073 139.27 294.065C138.74 294.013 138.349 294.154 136.927 293.537L136.914 293.531C135.882 293.041 135.064 292.008 134.755 291.201C134.598 290.823 134.506 290.459 134.453 290.152C134.405 289.874 134.384 289.62 134.376 289.385C134.359 288.522 134.478 287.983 134.575 287.52C134.788 286.595 135.034 285.921 135.278 285.262C135.767 283.967 136.267 282.84 136.727 281.744C137.184 280.66 137.614 279.605 137.89 278.713C138.026 278.283 138.113 277.864 138.123 277.756C138.135 277.713 138.103 277.757 138.195 278.105C138.261 278.43 138.716 279.25 139.404 279.617C140.036 279.957 140.315 279.889 140.341 279.896C140.374 279.888 140.229 279.895 140.053 279.933C139.68 280.01 139.14 280.189 138.59 280.406C137.471 280.849 136.269 281.436 135.052 282.047C133.83 282.66 132.593 283.31 131.259 283.948C130.583 284.268 129.894 284.587 129.064 284.896C128.644 285.049 128.186 285.208 127.564 285.339C127.232 285.404 126.866 285.468 126.326 285.469C125.792 285.451 124.932 285.442 123.841 284.71L123.851 284.717C122.957 284.163 122.296 282.841 122.253 282.075C122.164 281.187 122.298 280.811 122.384 280.454C122.492 280.083 122.576 279.904 122.662 279.712C122.747 279.529 122.845 279.35 122.909 279.239C123.209 278.722 123.46 278.389 123.688 278.083C124.159 277.461 124.589 276.95 125.009 276.448C125.852 275.446 126.653 274.506 127.414 273.57C128.935 271.705 130.304 269.856 131.466 267.99C133.798 264.271 135.246 260.485 135.531 257.009L135.64 258.102C134.561 254.016 132.722 251.05 130.616 250.073C129.318 249.367 127.861 249.328 124.921 248.587C118.163 249.024 100.211 255.588 94.6568 257.248C94.6724 262.562 94.6704 267.994 94.9603 273.427C95.1112 276.141 95.3304 278.861 95.7631 281.448C95.9805 282.733 96.2606 283.999 96.6283 285.053C96.8135 285.585 97.0248 286.053 97.2146 286.361C97.4007 286.683 97.5672 286.75 97.363 286.639C101.245 288.518 105.124 291.007 108.193 294.617C113.737 300.808 114.486 309.9 114.241 317.342C112.068 328.144 104.439 331.516 98.2078 336.467C94.9127 338.731 91.4924 340.818 87.9319 342.734C86.1497 343.689 84.3407 344.599 82.4297 345.443C81.4585 345.869 80.5331 346.254 79.4393 346.635C79.1937 346.72 78.9006 346.816 78.6155 346.903C78.329 346.989 78.0684 347.064 77.7183 347.148C77.3838 347.226 77.0921 347.291 76.6254 347.351C76.3942 347.377 76.2314 347.395 75.8983 347.4C75.5622 347.401 75.1885 347.381 74.7222 347.267C73.8868 347.072 73.0097 346.535 72.4524 345.852C71.9155 345.208 71.6657 344.562 71.5211 344.06C71.2511 343.06 71.2696 342.361 71.2836 341.746C71.3382 340.518 71.5292 339.551 71.7291 338.598C72.1408 336.715 72.6473 335.015 73.1403 333.336C73.6337 331.664 74.1312 330.032 74.5241 328.475C74.7174 327.705 74.8838 326.947 74.9671 326.317C75.0094 326.005 75.0226 325.728 75.0163 325.621C75.0158 325.575 75.0056 325.58 75.0438 325.719C75.0664 325.797 75.1067 325.914 75.1876 326.066C75.2753 326.231 75.4248 326.45 75.6411 326.653C75.8693 326.868 76.0767 326.982 76.1966 327.038C76.3077 327.09 76.3736 327.109 76.4005 327.116C76.4492 327.127 76.3709 327.107 76.2695 327.098C76.0389 327.074 75.6861 327.071 75.3094 327.087C74.5427 327.12 73.6726 327.219 72.7909 327.341C71.0237 327.587 69.1928 327.922 67.3454 328.252C65.4941 328.582 63.6214 328.924 61.6711 329.184C60.6773 329.312 59.6813 329.43 58.516 329.45C57.9084 329.448 57.32 329.465 56.3512 329.25C55.8876 329.109 55.2428 329.041 54.2528 328.132C53.7967 327.696 53.35 326.945 53.2226 326.188C53.0956 325.456 53.1816 324.927 53.3093 324.448C53.4378 323.996 53.6059 323.555 53.7916 323.155C60.0662 313.639 70.5282 312.32 72.9378 304.937C74.938 299.1 66.0783 292.602 60.5378 286.443C54.4729 280.159 49.112 273.162 45.3465 265.893C38.9944 252.398 37.9504 239.464 36.8476 230.699C34.9171 206.395 34.9983 200.425 36.6089 177.049C37.8577 163.726 41.4263 144.849 50.3861 131.686C55.1805 125.384 54.2359 127.031 50.2784 133.76C44.9136 143.882 42.593 153.174 41.7913 159.024C40.5176 170.781 40.2421 175.723 38.7561 190.545C37.5539 205.439 39.5251 212.439 39.9863 221.068C41.4546 228.737 36.6498 231.012 49.0754 263.865C50.2753 266.007 51.6612 268.22 53.2834 270.495C58.0603 277.214 63.5132 282.455 68.673 287.379C71.2444 289.875 73.7816 292.252 75.9418 295.249C78.1219 298.097 79.6349 302.672 78.43 306.479C76.1428 313.61 70.7685 316.441 67.125 319.22C63.3714 321.78 59.7483 324.543 59.5007 326.149C59.5518 325.965 59.6007 325.698 59.584 325.362C59.5743 325.028 59.4482 324.515 59.2228 324.136C59.0018 323.75 58.7345 323.49 58.5089 323.32C58.2808 323.152 58.1576 323.098 58.0412 323.045C57.6445 322.896 57.7929 322.975 57.9476 322.968C58.2984 322.983 58.8636 322.946 59.4365 322.882C60.5822 322.753 61.8065 322.54 62.9903 322.321C65.3721 321.879 67.6598 321.395 69.8959 320.994C71.0303 320.792 72.2577 320.587 73.659 320.44C74.3724 320.368 75.1051 320.308 76.0035 320.317C76.4361 320.325 76.9291 320.344 77.557 320.451C78.1537 320.599 78.9808 320.608 80.2858 321.733C81.6487 323.147 81.6328 324.219 81.7508 324.96C81.8152 325.689 81.7733 326.268 81.7223 326.783C81.6107 327.822 81.4161 328.712 81.2092 329.58C80.7894 331.306 80.2782 332.96 79.7694 334.631C79.2625 336.296 78.7362 337.988 78.3384 339.614C78.143 340.415 77.9789 341.231 77.9265 341.847C77.8957 342.139 77.923 342.403 77.9054 342.306C77.8857 342.25 77.8586 342.061 77.6028 341.707C77.359 341.348 76.7674 340.948 76.3226 340.86C84.7752 337.847 105.311 327.003 108.05 317.242C108.068 315.571 108.062 313.957 107.984 312.409C108.003 304.908 104.322 296.706 94.5536 292.538C91.7644 291.012 91.2192 289.063 90.5503 287.539C89.9582 285.948 89.6274 284.474 89.3493 282.991C88.8134 280.04 88.5634 277.145 88.3847 274.265C88.0444 268.508 88.0471 262.789 88.0348 257.248C88.2121 254.876 89.2052 254.334 89.6699 253.762C90.2234 253.229 90.7276 252.873 91.1679 252.576C92.1129 251.95 92.9426 251.513 93.8204 251.075C95.5171 250.24 97.1749 249.56 98.816 248.926C102.076 247.677 105.274 246.636 108.355 245.709C111.436 244.786 114.41 243.981 117.259 243.31C118.669 242.979 120.091 242.671 121.493 242.423C122.177 242.304 122.888 242.19 123.655 242.107C123.985 242.071 124.464 242.031 124.861 242.021C125.117 242.015 125.371 242.017 125.639 242.033C125.919 242.052 126.363 242.092 126.874 242.246C128.2 242.597 131.287 242.874 133.559 244.053C140.114 247.665 141.113 252.962 142.225 256.241L142.354 257.528C141.666 264.04 139.469 267.594 137.197 271.137C136.011 272.899 134.67 274.633 133.028 276.568C132.205 277.537 131.31 278.547 130.336 279.639C129.863 280.171 129.351 280.745 128.884 281.301C128.659 281.568 128.419 281.869 128.271 282.074C128.19 282.183 128.138 282.282 128.162 282.212C128.168 282.176 128.231 282.07 128.257 281.712C128.269 281.497 128.253 281.174 128.11 280.804C127.96 280.393 127.617 279.975 127.284 279.757C127.216 279.71 127.14 279.666 127.066 279.629Z" fill="#2E7037"/>
<path d="M10.5366 80.0627C16.3291 76.055 27.6433 73.6491 32.072 81.0364C37.3345 89.8281 26.7956 101.411 19.2871 105.299C11.1856 109.493 -1.25988 104.266 0.103212 93.9466C0.896231 87.9368 5.79281 83.3459 10.5366 80.0627Z" fill="#0D0829"/>
<path d="M26.6568 95.9769C23.3946 100.359 20.4514 101.778 14.3806 102.136C11.1292 102.328 3.85591 101.89 5.02234 97.3555C6.32486 92.2919 30.8566 90.336 26.6568 95.9769Z" fill="#4B4A4B"/>
<path d="M26.3964 85.8776V85.5855C26.4242 84.8899 26.2781 84.236 25.9581 83.6377C25.7564 83.0117 25.4017 82.4692 24.9148 82.0101C24.4557 81.5163 23.9131 81.1684 23.2871 80.9667C22.6889 80.6467 22.035 80.5075 21.3394 80.5284L19.997 80.7093C19.1414 80.9527 18.3971 81.3841 17.7641 82.0101L16.9781 83.0327C16.519 83.8187 16.2895 84.6742 16.2895 85.5855V85.8776C16.2616 86.5732 16.4077 87.2271 16.7277 87.8253C16.9294 88.4514 17.2842 88.994 17.7711 89.4531C18.2302 89.947 18.7727 90.2948 19.3988 90.4965C19.997 90.8165 20.6508 90.9555 21.3464 90.9347L22.6889 90.7538C23.5445 90.5103 24.2887 90.0791 24.9217 89.4531L25.7077 88.4306C26.1668 87.6445 26.3964 86.7888 26.3964 85.8776Z" fill="#BDBFC0"/>
<path d="M62.5424 0.736137C66.3762 0.336075 70.2868 0.79236 73.9748 2.08467C77.7886 3.41556 78.3741 7.15725 77.367 10.3556C76.5384 12.9873 73.6415 15.5254 71.2538 16.3169C71.6437 27.6205 67.751 37.607 60.5982 46.3945H60.5704L60.5498 46.4157C58.8317 48.5234 55.1517 48.2174 53.3919 46.4157C51.34 44.315 51.653 41.3864 53.3919 39.2578C58.3203 33.2049 60.8637 25.7888 61.168 18.1457C58.7798 18.0413 56.4527 17.4166 54.6025 16.3169C51.4372 14.4343 50.9779 13.1388 50.537 10.3556C49.9168 6.44099 52.3106 2.16195 55.291 1.38884C56.9628 0.953068 59.6421 0.670713 62.5424 0.736137Z" fill="#7AB026"/>
<path d="M62.2566 42.844C64.0619 40.5192 64.5414 38.1214 66.0558 34.987C67.494 31.8102 68.1821 31.4634 69.0576 27.5105C69.863 23.562 70.3684 19.5222 70.0964 17.72C70.0128 17.1437 70.0178 16.7382 70.0599 16.3581L70.0144 15.4862L70.8779 15.183C71.5299 15.0661 72.2767 15.1141 73.5227 14.0109C75.0176 12.5792 75.8716 11.4946 76.5322 10.0928C76.6432 9.83172 76.7488 9.55734 76.8456 9.26461C77.0852 8.54128 77.3673 7.13353 76.9401 5.67986C76.5555 4.21046 75.2204 2.98492 73.805 2.57115C72.7278 2.21743 71.7541 2.01638 71.0805 1.95821C68.5966 1.72459 65.8304 0.984999 64.0649 0.933976C63.5227 0.913626 63.0924 0.885952 62.759 0.850919C62.6178 0.836188 62.5475 0.78398 62.5413 0.72548C62.5413 0.72548 62.5413 0.72548 62.5413 0.72548C62.5413 0.725442 62.5413 0.725404 62.5413 0.725366C62.5413 0.725366 62.5413 0.725366 62.5413 0.725366C62.5337 0.652658 62.6263 0.570302 62.8057 0.544449C63.6765 0.419347 64.9783 0.224638 66.5629 0.0519801C69.5344 -0.163152 69.8312 0.305302 73.689 1.21637C73.8719 1.26577 74.0508 1.31544 74.2267 1.36559C78.0336 2.33511 80.0213 6.38249 78.3642 10.6696C78.3334 10.7514 78.3006 10.8331 78.2659 10.9148C76.2996 14.4406 75.5385 15.9234 71.6774 17.5947L72.5992 16.2705C72.6148 17.271 72.5584 18.4373 72.3571 19.841C71.2016 26.3296 72.0752 27.2179 69.9159 33.5352C68.0636 38.5604 64.2363 43.7916 61.3646 47.0184L61.0505 47.3907L60.5982 47.3827C60.5889 47.3824 60.5796 47.3821 60.5704 47.3818L61.2795 47.0815C61.2724 47.0883 61.2653 47.0951 61.2582 47.102L61.3143 47.0389C60.4407 48.0534 59.3189 48.4888 58.4498 48.6721C56.6538 49.03 54.445 48.7119 52.7472 47.0454C50.567 45.0515 50.6702 41.0089 52.785 38.762C53.0847 38.4119 53.3801 38.0532 53.6697 37.6872C57.0606 33.4987 59.6009 27.1511 60.4369 21.2289C60.584 20.2583 60.7006 19.2143 60.7714 18.1299L61.1507 18.5422C58.8728 18.3879 56.455 17.752 54.4787 16.5251C53.2433 15.7537 52.05 14.8769 51.3763 13.7118C50.7051 12.5481 50.5802 11.3388 50.4272 10.373C50.3773 10.0245 50.3541 9.69707 50.3475 9.39586C50.3411 7.38966 50.8069 6.18757 51.3105 5.08956C51.8629 4.02482 52.4766 2.89412 54.1007 1.85405C54.4475 1.64849 54.8447 1.46853 55.2827 1.35676C57.2302 0.870543 59.6366 0.722166 61.7149 0.725439C62.9962 0.742803 62.706 0.726138 61.416 0.730892C59.5292 0.753166 57.9854 0.915224 57.0281 1.07692C56.3512 1.19196 55.8141 1.31293 55.3084 1.45561C54.409 1.73264 53.5852 2.1912 52.5682 3.37625C51.0755 5.30039 50.9424 6.55151 50.7131 7.90689C50.6362 8.66651 50.5423 9.0156 50.7153 10.3274C50.9807 11.3251 50.8149 13.5552 53.5918 15.3551C53.9761 15.6168 54.3663 15.8516 54.7499 16.069C57.1169 17.3717 59.3811 17.6532 61.1873 17.7047L61.6189 17.716L61.609 18.1632C61.5617 20.6589 61.3193 22.4866 61.0775 23.9512C60.6996 26.7254 58.8402 32.3398 56.4098 36.2395C55.8169 37.2459 55.0014 38.4818 54.0003 39.7532C52.5226 41.4816 52.4007 44.3488 54.0485 45.7744C55.261 46.9319 57.1166 47.0072 58.0118 46.7245C58.9543 46.4452 59.3679 46.0357 59.6781 45.7051L59.742 45.6332C59.7491 45.6263 59.7562 45.6195 59.7633 45.6127L60.0747 45.2796L60.5704 45.2708C60.5797 45.2711 60.589 45.2715 60.5982 45.2718L59.7275 45.6858C60.5305 44.7586 61.0758 44.3386 62.2566 42.844Z" fill="#2E7037"/>
<path d="M118.798 2.59507C121.796 4.27841 123.744 7.65924 122.471 11.0537C121.68 13.1597 120.056 14.3606 118.135 14.9872C116.545 21.4911 113.8 26.3289 109.78 32.9321C105.216 40.4305 95.072 36.4958 99.5716 29.835C99.8964 29.3554 100.214 28.9469 100.544 28.59C103.337 25.0103 105.606 20.8987 107.105 16.6256C107.184 16.4068 107.437 15.4632 107.729 14.3551C103.793 12.6013 98.8064 9.05202 101.477 4.00131C102.592 1.89132 104.346 0.343826 106.402 0.383561C110.699 0.461832 114.903 0.426174 118.798 2.59507Z" fill="#7AB026"/>
<path d="M101.738 26.0051C103.129 24.1712 103.651 22.3873 104.944 19.9412C105.768 18.3216 106.164 17.6067 106.648 16.4655C106.848 15.948 107.061 15.2117 107.319 14.2469L107.557 14.7424C107.494 14.7143 107.43 14.6854 107.364 14.6555C104.323 13.3356 101.86 10.9252 101.167 9.56802C100.502 8.23054 100.42 7.96491 100.608 5.87246C100.743 5.08694 101.008 4.46293 101.305 3.9107C101.809 3.0014 102.368 2.24022 103.247 1.50765C103.783 1.0645 104.941 0.266002 106.404 0.318477C108.584 0.365914 111.093 0.455076 112.301 0.609178C114.299 0.802453 116.509 1.46564 117.745 2.06074C118.133 2.23893 118.432 2.39503 118.658 2.51776C118.754 2.57009 118.798 2.59513 118.798 2.59507C118.798 2.59507 118.798 2.59507 118.798 2.59507C118.798 2.59507 118.798 2.59507 118.798 2.59507C118.798 2.59507 118.798 2.59507 118.798 2.59507C118.798 2.59513 118.729 2.55644 118.606 2.49019C118.007 2.16881 117.079 1.73288 115.926 1.39292C113.761 0.83575 113.511 0.754885 110.496 0.556138C108.948 0.489039 107.715 0.512306 106.4 0.512402C105.188 0.509192 103.925 1.09535 102.798 2.36527C102.263 2.97192 101.918 3.54959 101.646 4.09109C100.91 5.83357 100.298 7.57736 102.63 10.5099C104.775 12.8089 106.227 13.23 107.929 13.9074L108.315 14.0884L108.203 14.4802C108.07 15.164 107.962 15.8492 107.707 16.8427C107.561 17.3355 107.385 17.8822 107.162 18.491C105.827 22.2762 103.257 26.4263 101.134 29.0499L101.093 29.0974C100.738 29.4777 100.442 29.8774 100.191 30.2542C100.042 30.4786 99.9268 30.6774 99.8283 30.8699C99.1924 32.057 98.9534 33.7067 99.981 34.809C100.97 35.9333 102.951 36.3385 104.725 35.8459C106.36 35.4287 107.915 34.1269 108.88 32.3843C110.201 30.0708 111.534 27.6854 112.801 25.4751C114.629 22.381 116.544 18.0807 117.453 14.8204L117.556 14.4292L117.917 14.3192C118.831 14.0744 119.577 13.7106 120.114 13.3503C121.282 12.5514 121.772 11.7357 122.115 10.92C122.429 10.0961 122.621 9.17835 122.3 7.83203C121.953 6.27912 120.73 4.39106 119.25 3.08167C118.499 2.43911 118.785 2.31946 119.717 2.81299C121.068 3.57649 121.776 4.67164 122.414 5.22641C123.64 6.37957 124.253 7.29171 123.835 9.52211C123.656 10.2759 123.496 10.8636 123.358 11.3864C123.093 12.3624 122.882 13.1772 122.253 13.8117C121.453 14.4537 121.26 14.7874 118.425 15.8761L119.044 15.2093C118.859 15.9687 118.628 16.9293 118.287 18.1463C116.64 23.742 114.898 26.4662 113.902 28.3839C113.244 29.5838 111.971 31.4838 110.664 33.4703C109.823 34.7722 108.686 35.9294 107.442 36.7155C105.863 37.7997 102.52 38.6944 99.8222 37.0071C98.4924 36.2141 97.5991 34.6559 97.5814 33.263C97.5306 31.8817 98.0264 30.7982 98.3805 30.1016C98.5321 29.81 98.6807 29.5671 98.8353 29.3376C99.2427 28.7364 99.5983 28.337 99.9318 28.0244L99.8869 28.0772C100.453 27.457 100.884 27.096 101.738 26.0051Z" fill="#2E7037"/>
<path d="M122.937 122.035C125.678 119.566 131.96 118.027 135.761 118.288C138.482 118.478 141.134 117.209 141.7 114.291C142.171 111.87 140.445 108.541 137.703 108.352C131.251 107.903 122.084 109.306 117.188 113.704C115.164 115.526 114.21 118.292 115.904 120.744C117.3 122.765 120.899 123.865 122.943 122.028L122.937 122.035Z" fill="#388F44"/>
<path d="M124.8 141.542C130.404 140.768 136.147 140.897 141.701 142.021C144.403 142.567 147.136 141.584 148.08 138.781C148.88 136.43 147.512 132.94 144.84 132.401C137.427 130.905 130.162 130.621 122.656 131.65C116.2 132.537 118.38 142.428 124.798 141.535L124.8 141.542Z" fill="#388F44"/>
<path d="M126.3 162.9C131.899 163.873 136.969 166.266 141.471 169.696C146.658 173.65 152.46 165.373 147.294 161.416C141.381 156.904 134.594 154.097 127.283 152.822C120.86 151.703 119.933 161.779 126.305 162.892L126.3 162.9Z" fill="#388F44"/>
<path d="M125.579 184.282C129.989 185.993 131.92 188.665 134.694 192.609C139.012 198.747 145.531 193.715 144.446 189.917C142.408 182.785 135.902 177.493 128.271 174.523C125.718 173.528 122.72 175.608 122.045 178.057C121.259 180.915 123.026 183.281 125.579 184.282Z" fill="#388F44"/>
<path d="M118.628 204.79C122.127 210.125 125.626 215.454 129.139 220.789C132.644 226.124 141.464 221.144 137.875 215.683C134.286 210.223 130.878 205.02 127.365 199.684C123.804 194.259 115.039 199.33 118.628 204.79Z" fill="#388F44"/>
<path d="M36.0161 124.227C36.0627 124.264 35.8907 125.122 35.9464 125.319C36.0577 125.715 35.3489 125.945 35.0914 126.028C34.0634 126.368 33.0495 126.753 32.0534 127.181C30.1886 128.336 28.3239 129.491 26.4576 130.645C25.8795 131.257 25.4439 131.673 24.7259 132.155C23.9405 132.683 23.2855 133.093 22.6959 133.033C22.229 132.985 22.1459 132.717 22.3981 132.386H22.3968C22.3986 132.385 22.4002 132.383 22.4021 132.381C24.3517 129.828 29.8711 126.505 29.8711 126.505C29.8711 126.505 34.369 122.918 36.0161 124.227Z" fill="#388F44"/>
<g style="mix-blend-mode:multiply" opacity="0.55">
<path d="M104.536 7.17491C105.816 4.74754 110.989 4.45801 110.989 4.45801C110.989 4.45801 118.916 5.71456 118.8 7.85415C118.121 20.4201 107.906 37.4475 103.517 44.5332C107.204 51.4565 113.388 59.1097 111.668 68.9858C110.571 75.2897 109.464 80.1445 105.555 85.2877C97.0681 96.4534 96.2973 92.2955 88.2344 99.552C85.1662 102.313 83.5143 104.909 84.3978 108.295C85.4771 112.464 88.9152 115.854 93.6684 115.854C103.178 115.854 102.999 113.648 116.483 111.42C134.317 107.508 150.738 111.052 158.217 128.588C169.166 154.272 172.38 174.564 172.121 202.117C172.044 211 168.561 224.532 164.102 228.947C153.234 239.708 160.234 252.381 168.045 260.871C167.211 268.349 146.649 281.249 146.649 281.249C149.416 273.359 148.88 274.097 148.008 272.079C147.273 270.381 144.951 269.604 143.593 270.381C141.369 271.652 139.177 272.079 139.177 272.079C139.177 272.079 143.593 264.802 145.63 256.169C147.124 249.842 140.587 243.296 133.614 239.029C123.037 232.556 112.085 238.163 102.02 242.215C95.3192 244.912 88.2884 247.77 84.159 253.739C84.159 260.386 82.8005 280.23 91.0369 293.488C94.3605 298.839 100.546 297.463 101.944 303.54C103.697 311.192 106.103 313.606 101.944 320.305C100.265 323.017 85.8571 332.835 84.8382 332.192C83.1681 331.137 87.3642 324.351 88.2344 322.003C88.6887 320.783 89.9033 317.588 89.9033 316.033C83.3798 317.88 79.2606 320.031 72.2723 318.607C72.2723 318.607 82.1431 310.043 82.8005 304.682C83.0795 302.436 83.8194 299.062 81.4732 295.898C75.4812 287.815 68.609 283.181 64.514 271.208C61.3914 262.087 58.6696 254.148 56.3101 242.872C47.6255 201.366 55.5939 170.072 64.4703 134.597C55.9641 135.946 46.8748 133.218 40.3565 127.364C32.3559 120.174 26.788 99.6437 26.7631 99.552C26.7631 99.552 32.1969 94.7971 33.2159 88.0049C33.8951 84.6087 32.8762 80.5332 28.8008 77.8162C25.3515 75.5167 19.9707 76.4578 19.9707 76.4578C19.9707 76.4578 39.3466 44.1813 56.7101 40.7976C60.3857 39.0995 63.4422 33.159 65.8195 30.2694C68.1871 27.3917 70.218 21.4874 70.2345 21.4393C70.232 21.5115 69.8168 33.3909 69.5553 34.3448C70.8748 34.29 74.283 34.198 75.5325 34.2911C81.6632 34.7462 96.0457 36.7219 96.0457 36.7219C96.0457 36.7219 111.701 24.7586 110.989 13.2881L107.404 11.8583C104.956 10.4531 103.256 9.60258 104.536 7.17491Z" fill="#388F44"/>
<path d="M65.1402 5.47711C68.876 5.47711 74.8064 7.10194 73.6307 9.89217C71.6172 14.6705 68.711 16.184 65.1402 17.0242C62.0837 17.7433 56.7103 15.1126 54.8946 12.2934C53.4478 10.0466 53.3008 8.4412 55.6308 7.17521C59.0322 5.32501 61.5575 5.47711 65.1402 5.47711Z" fill="#388F44"/>
</g>
</svg>
