<svg width="497" height="477" viewBox="0 0 497 477" fill="none" xmlns="http://www.w3.org/2000/svg">
<path d="M130.454 148.849C361.413 123.259 473.818 234.829 377.966 259.979" stroke="#D12427" stroke-width="31.2706" stroke-miterlimit="3.99393" stroke-linecap="round"/>
<path d="M369.734 332.038C138.775 360.081 26.3692 237.813 122.221 210.251" stroke="#D12427" stroke-width="31.2706" stroke-miterlimit="3.99393" stroke-linecap="round"/>
<ellipse cx="421.857" cy="212.101" rx="17.3369" ry="46.0174" transform="rotate(-35.6296 421.857 212.101)" fill="#D12427"/>
<path d="M242.847 326.587C314.046 314.852 457.79 277.013 481.243 191.36" stroke="#D12427" stroke-width="31.2706" stroke-miterlimit="3.99393" stroke-linecap="round"/>
<path d="M266.552 178.767C187.092 183.429 58.6658 206.401 22.8025 289.344" stroke="#D12427" stroke-width="31.2706" stroke-miterlimit="3.99393" stroke-linecap="round"/>
<ellipse cx="249.512" cy="244.884" rx="180.247" ry="81.8589" fill="#FF5C5E"/>
<ellipse cx="249.512" cy="239.374" rx="162.931" ry="59.0329" fill="#FF989A"/>
<ellipse cx="249.512" cy="236.226" rx="126.724" ry="46.4392" fill="#EFEDFF"/>
<circle cx="69.2652" cy="255.903" r="7.87105" fill="#D12427"/>
<circle cx="103.898" cy="295.258" r="7.87105" fill="#D12427"/>
<circle cx="224.398" cy="346.04" r="7.87105" transform="rotate(146.771 224.398 346.04)" fill="#D12427"/>
<circle cx="113.343" cy="306.278" r="11.0195" fill="#D12427"/>
<circle cx="210.458" cy="341.999" r="11.0195" transform="rotate(146.771 210.458 341.999)" fill="#D12427"/>
<circle cx="408.808" cy="321.534" r="11.0195" transform="rotate(146.771 408.808 321.534)" fill="#D12427"/>
<circle cx="372.602" cy="247.546" r="5.99209" transform="rotate(146.771 372.602 247.546)" fill="#EFEDFF"/>
<circle cx="346.751" cy="264.199" r="5.99209" transform="rotate(146.771 346.751 264.199)" fill="#EFEDFF"/>
<circle cx="257.021" cy="283.09" r="5.99209" transform="rotate(146.771 257.021 283.09)" fill="#EFEDFF"/>
<circle cx="164.143" cy="268.922" r="5.99209" transform="rotate(146.771 164.143 268.922)" fill="#EFEDFF"/>
<circle cx="164.143" cy="201.231" r="5.99209" transform="rotate(146.771 164.143 201.231)" fill="#FF989A"/>
<circle cx="246.002" cy="190.211" r="5.99209" transform="rotate(146.771 246.002 190.211)" fill="#FF989A"/>
<circle cx="260.17" cy="188.637" r="5.99209" transform="rotate(146.771 260.17 188.637)" fill="#FF989A"/>
<circle cx="312.119" cy="276.793" r="5.99209" transform="rotate(146.771 312.119 276.793)" fill="#FF989A"/>
<circle cx="217.666" cy="281.515" r="5.99209" transform="rotate(146.771 217.666 281.515)" fill="#FF989A"/>
<circle cx="234.982" cy="190.211" r="5.99209" transform="rotate(146.771 234.982 190.211)" fill="#FF989A"/>
<circle cx="321.564" cy="196.508" r="5.99209" transform="rotate(146.771 321.564 196.508)" fill="#FF989A"/>
<circle cx="371.939" cy="239.012" r="5.99209" transform="rotate(146.771 371.939 239.012)" fill="#EFEDFF"/>
<circle cx="370.364" cy="224.844" r="5.99209" transform="rotate(146.771 370.364 224.844)" fill="#EFEDFF"/>
<circle cx="340.454" cy="204.379" r="5.99209" transform="rotate(146.771 340.454 204.379)" fill="#EFEDFF"/>
<circle cx="379.81" cy="205.953" r="5.99209" transform="rotate(146.771 379.81 205.953)" fill="#FF989A"/>
<circle cx="90.1548" cy="229.566" r="5.99209" transform="rotate(146.771 90.1548 229.566)" fill="#FF989A"/>
<circle cx="183.033" cy="290.961" r="5.99209" transform="rotate(146.771 183.033 290.961)" fill="#FF989A"/>
<circle cx="102.749" cy="267.348" r="5.99209" transform="rotate(146.771 102.749 267.348)" fill="#D12427"/>
<circle cx="181.459" cy="183.914" r="5.99209" transform="rotate(146.771 181.459 183.914)" fill="#D12427"/>
<circle cx="384.532" cy="272.07" r="5.99209" transform="rotate(146.771 384.532 272.07)" fill="#D12427"/>
<circle cx="412.867" cy="245.308" r="5.99209" transform="rotate(146.771 412.867 245.308)" fill="#D12427"/>
<circle cx="211.369" cy="183.914" r="5.99209" transform="rotate(146.771 211.369 183.914)" fill="#FF989A"/>
<circle cx="389.917" cy="175.133" r="11.0195" transform="rotate(146.771 389.917 175.133)" fill="#D12427"/>
<circle cx="300.188" cy="142.074" r="11.0195" transform="rotate(146.771 300.188 142.074)" fill="#D12427"/>
<circle cx="111.284" cy="149.945" r="11.0195" transform="rotate(146.771 111.284 149.945)" fill="#D12427"/>
<circle cx="15.5354" cy="328.11" r="11.0195" transform="rotate(-139.522 15.5354 328.11)" fill="#D12427"/>
<circle cx="436.744" cy="313.263" r="5.0454" transform="rotate(146.771 436.744 313.263)" fill="#D12427"/>
<circle cx="96.7161" cy="152.694" r="5.0454" transform="rotate(146.771 96.7161 152.694)" fill="#D12427"/>
<circle cx="485.545" cy="174.733" r="5.0454" transform="rotate(146.771 485.545 174.733)" fill="#D12427"/>
<circle cx="31.3113" cy="352.603" r="5.0454" transform="rotate(-139.522 31.3113 352.603)" fill="#D12427"/>
<ellipse cx="91.4057" cy="281.048" rx="7.87105" ry="15.7421" transform="rotate(-37.6195 91.4057 281.048)" fill="#D12427"/>
<ellipse cx="156.558" cy="322.904" rx="12.473" ry="33.107" transform="rotate(-66.8208 156.558 322.904)" fill="#D12427"/>
<ellipse cx="275.398" cy="347.319" rx="17.3369" ry="46.0174" transform="rotate(-85.9072 275.398 347.319)" fill="#D12427"/>
<ellipse cx="221.419" cy="141.28" rx="17.3369" ry="46.0174" transform="rotate(-87.6814 221.419 141.28)" fill="#D12427"/>
<path d="M342.152 87.2971L271.72 233.981L406.058 325.797L259.374 255.364L167.558 389.703L237.991 243.019L103.652 151.203L250.336 221.635L342.152 87.2971Z" fill="url(#paint0_radial_2122_1326)"/>
<path d="M274.631 246.692C274.782 246.838 274.95 246.821 274.874 247.172C274.793 247.172 274.712 247.172 274.631 247.172V246.687V246.692Z" fill="#241F21"/>
<path d="M280.321 222.513L288.764 222.756C287.549 230.702 286.108 239.016 284.699 246.999C284.699 247.026 284.634 247.048 284.558 247.059C284.154 247.194 283.533 247.156 283.106 247.059C281.293 247.161 279.473 247.161 277.66 247.059C277.109 247.102 276.548 247.145 275.965 247.178C275.803 247.161 275.673 247.259 275.732 247.01L280.321 222.513Z" fill="#241F21"/>
<path d="M280.321 222.513L289.033 222.638L284.801 247.129C284.737 247.183 284.634 247.167 284.553 247.183C284.445 247.151 284.45 247.107 284.553 247.064L288.666 222.881L280.315 222.519L280.321 222.513Z" fill="#241F21"/>
<path d="M283.106 247.059C283.214 247.091 283.209 247.134 283.106 247.178C281.298 247.199 279.468 247.199 277.66 247.178C277.552 247.145 277.557 247.102 277.66 247.059C279.473 247.059 281.293 247.059 283.106 247.059Z" fill="#241F21"/>
<path d="M277.66 247.059V247.177C277.114 247.172 276.494 247.226 275.965 247.177C276.418 246.956 277.125 247.059 277.66 247.059Z" fill="#241F21"/>
<path d="M284.558 247.059V247.178C284.159 247.242 283.549 247.172 283.106 247.178V247.059H284.558Z" fill="#241F21"/>
<path d="M237.476 246.573V247.059C237.756 247.064 238.043 247.048 238.323 247.059V247.178C237.999 247.172 237.675 247.183 237.357 247.178C237.249 246.935 237.46 246.697 237.481 246.573H237.476Z" fill="#241F21"/>
<path d="M217.141 229.283C216.698 229.283 216.25 229.267 215.808 229.283C216.115 229.078 216.855 229.083 217.141 229.283Z" fill="#241F21"/>
<path d="M260.596 229.283C260.704 229.315 260.699 229.359 260.596 229.402C260.245 229.423 259.916 229.51 259.63 229.52C259.522 229.488 259.527 229.445 259.63 229.402C259.916 229.375 260.207 229.294 260.596 229.283Z" fill="#241F21"/>
<path d="M259.624 229.402V229.52C259.381 229.531 259.138 229.51 258.896 229.52C258.777 229.585 258.631 229.628 258.534 229.52C258.782 229.278 259.273 229.429 259.624 229.402Z" fill="#241F21"/>
<path d="M218.593 229.402C218.366 229.375 218.102 229.412 217.864 229.402V229.283C218.091 229.283 218.458 229.202 218.593 229.402Z" fill="#241F21"/>
<path d="M235.905 229.526L232.876 247.059C229.999 247.178 227.133 247.178 224.283 247.059L224.175 247.021L227.273 229.558L235.905 229.526Z" fill="#241F21"/>
<path d="M235.538 223.361C235.657 223.404 235.781 223.437 235.899 223.48C236.088 223.566 236.256 223.674 236.385 223.842C238.253 225.688 236.342 227.167 234.447 227.771C232.79 228.3 228.515 228.354 227.91 226.26C227.608 225.693 227.754 225.137 228.11 224.64C229.454 222.735 233.621 222.195 235.538 223.361Z" fill="#241F21"/>
<path d="M235.905 229.526L227.365 229.639L224.288 247.059C224.396 247.091 224.391 247.135 224.288 247.178C224.196 247.172 224.024 247.221 224.051 247.118L227.203 229.407L235.91 229.52L235.905 229.526Z" fill="#241F21"/>
<path d="M227.916 226.26C227.23 225.412 228.04 224.392 228.725 223.863C230.372 222.584 233.087 222.363 235.03 222.967C235.235 223.032 235.613 223.043 235.543 223.361C234.383 222.946 233.589 222.789 232.331 222.87C230.69 222.978 227.3 224.112 227.921 226.26H227.916Z" fill="#241F21"/>
<path d="M232.876 247.059L232.585 247.189C229.88 247.021 226.96 247.388 224.283 247.183V247.064H232.876V247.059Z" fill="#241F21"/>
<path d="M236.385 223.842L235.899 223.48C236.509 223.701 236.159 223.62 236.385 223.842Z" fill="#241F21"/>
<path d="M250.307 224.084C250.167 224.684 249.373 229.035 249.46 229.283C250.906 229.326 252.358 229.369 253.816 229.402L252.958 233.018L248.612 233.029L246.07 247.054C245.249 247.156 244.25 247.145 243.408 247.054C242.928 247.145 242.442 247.145 241.956 247.054C240.758 247.156 239.522 247.183 238.323 247.054C237.513 247.28 237.233 247.118 237.476 246.568C237.589 245.839 237.713 245.121 237.837 244.392C237.924 244.203 237.967 244.004 237.956 243.788C237.999 243.545 238.032 243.302 238.075 243.064C238.161 242.875 238.204 242.676 238.194 242.46C238.237 242.222 238.269 241.974 238.312 241.736C238.399 241.547 238.442 241.348 238.431 241.132C238.755 239.356 239.084 237.585 239.397 235.809C239.484 235.62 239.527 235.421 239.516 235.205C239.559 234.967 239.597 234.719 239.635 234.481C239.721 234.292 239.765 234.093 239.754 233.877C239.802 233.607 239.824 233.304 239.872 233.029H236.607C236.742 231.923 237.152 230.757 237.211 229.645C237.217 229.466 237.271 229.364 237.373 229.337L240.24 229.348C240.499 229.364 240.661 229.299 240.72 229.159C240.72 229.121 240.72 229.078 240.72 229.04L240.839 228.435C240.92 227.674 241.028 226.627 241.2 225.898L241.217 225.796C244.196 225.164 247.176 224.549 250.167 223.944L250.28 224.084H250.307Z" fill="#241F21"/>
<path d="M241.227 225.898C241.244 225.833 241.195 225.742 241.238 225.666L250.426 223.723C250.507 223.917 250.318 224.025 250.307 224.084L241.227 225.898Z" fill="#241F21"/>
<path d="M253.816 229.401C252.542 229.283 250.993 229.563 249.756 229.407C249.622 229.391 249.519 229.461 249.46 229.283C250.755 229.385 252.245 229.148 253.519 229.283C253.643 229.293 253.816 229.223 253.821 229.407L253.816 229.401Z" fill="#241F21"/>
<path d="M240.742 229.164C240.742 229.245 240.747 229.326 240.742 229.407C239.738 229.477 238.631 229.315 237.643 229.402C237.4 229.423 237.346 229.418 237.233 229.65C237.238 229.531 237.227 229.407 237.233 229.288C237.395 229.148 240.277 229.477 240.742 229.169V229.164Z" fill="#241F21"/>
<path d="M241.956 247.059C242.064 247.091 242.059 247.135 241.956 247.178C240.752 247.178 239.532 247.21 238.323 247.178C238.215 247.145 238.221 247.102 238.323 247.059C239.527 247.091 240.747 247.059 241.956 247.059Z" fill="#241F21"/>
<path d="M246.07 247.059L246.194 247.178C245.265 247.183 244.337 247.178 243.408 247.178C243.3 247.145 243.306 247.102 243.408 247.059H246.07Z" fill="#241F21"/>
<path d="M243.408 247.059V247.178C242.928 247.178 242.437 247.178 241.956 247.178V247.059C242.437 247.059 242.928 247.059 243.408 247.059Z" fill="#241F21"/>
<path d="M238.08 243.064C238.118 242.859 238.167 242.654 238.199 242.46C238.194 242.654 238.275 242.962 238.08 243.064Z" fill="#241F21"/>
<path d="M237.837 244.398C237.875 244.187 237.924 243.987 237.956 243.793C237.951 243.987 238.032 244.295 237.837 244.398Z" fill="#241F21"/>
<path d="M238.323 241.736C238.361 241.531 238.41 241.326 238.442 241.132C238.437 241.326 238.518 241.634 238.323 241.736Z" fill="#241F21"/>
<path d="M239.657 234.481C239.694 234.271 239.743 234.076 239.775 233.877C239.77 234.071 239.851 234.379 239.657 234.481Z" fill="#241F21"/>
<path d="M239.414 235.815C239.451 235.609 239.5 235.404 239.532 235.21C239.527 235.404 239.608 235.712 239.414 235.815Z" fill="#241F21"/>
<path d="M240.742 229.04C240.758 228.83 240.682 228.614 240.86 228.436C240.839 228.624 240.947 228.938 240.742 229.04Z" fill="#241F21"/>
<path d="M269.794 229.164C272.65 229.272 276.11 230.114 275.921 233.655C275.587 236.419 275.068 239.161 274.372 241.882C273.875 243.469 273.805 244.954 274.156 246.336C274.27 246.46 274.518 246.573 274.642 246.697C274.761 246.854 274.874 247.102 274.642 247.183C272.294 247.28 268.213 247.453 265.983 247.188C265.859 247.172 265.568 247.134 265.568 247V245.126C264.915 245.251 264.234 245.655 263.63 245.974L263.025 246.217C262.636 246.4 262.232 246.573 261.816 246.703C261.627 246.686 261.427 246.73 261.211 246.821C260.58 247.064 259.479 247.253 258.793 247.307C258.437 247.215 258.059 247.199 257.703 247.307C257.341 247.323 256.974 247.307 256.612 247.307C256.051 247.199 255.479 247.221 254.917 247.307C253.789 247.226 252.472 246.919 251.538 246.271C249.854 245.094 249.071 243.502 249.864 241.472C251.117 238.271 255.452 237.65 258.431 237.272C258.685 237.277 258.928 237.24 259.16 237.153C259.241 237.148 259.322 237.153 259.403 237.153L260.251 237.035C260.369 237.035 260.493 237.035 260.612 237.035L261.341 236.916C261.503 236.916 261.665 236.916 261.827 236.916L262.674 236.797C262.836 236.797 262.998 236.808 263.16 236.797C263.43 236.716 263.716 236.673 264.008 236.678C264.769 236.559 266.863 236.176 267.209 235.464C267.554 234.751 267.349 234.017 266.599 233.671C264.958 232.91 260.645 233.418 258.761 233.671C257.028 233.909 255.322 234.341 253.6 234.622L255.23 230.146C255.403 229.931 255.7 230.066 255.894 230.028C255.981 229.833 256.18 229.79 256.499 229.909C256.58 229.909 256.661 229.909 256.742 229.909C257.006 229.747 257.373 229.666 257.832 229.666C257.972 229.558 258.167 229.574 258.318 229.666C258.507 229.623 258.707 229.585 258.923 229.547C259.117 229.429 259.435 229.461 259.651 229.547C259.916 229.423 260.331 229.342 260.618 229.429C260.796 229.385 260.995 229.348 261.222 229.31C261.492 229.196 261.794 229.213 262.07 229.31C262.302 229.277 262.545 229.234 262.798 229.191C263.144 229.072 263.538 229.099 263.889 229.191C264.31 229.105 264.753 229.061 265.222 229.072C266.739 228.948 268.315 228.953 269.821 229.191L269.794 229.164ZM258.777 241.618C258.631 242.103 258.582 242.066 258.777 242.584C259.036 243.275 259.835 243.377 260.526 243.437C263.419 243.669 266.464 242.551 266.399 239.199C264.472 239.75 262.129 239.734 260.251 240.376C259.506 240.63 259.009 240.84 258.771 241.618H258.777Z" fill="#241F21"/>
<path d="M274.151 246.33C273.778 245.92 273.757 245.601 273.789 245.062C273.978 241.785 275.322 237.779 275.711 234.406C276.186 230.303 273.276 229.515 269.794 229.159C269.686 229.126 269.692 229.083 269.794 229.04C272.299 229.256 276.137 229.914 276.094 233.207C276.046 236.813 274.264 241.396 274.048 245.078C274.021 245.547 274.113 245.882 274.156 246.33H274.151Z" fill="#241F21"/>
<path d="M269.794 229.04V229.159C268.267 229.002 266.728 229.018 265.195 229.04H264.229C264.353 228.84 264.688 228.921 264.893 228.916C266.539 228.9 268.17 228.9 269.794 229.04Z" fill="#241F21"/>
<path d="M256.601 247.296C256.051 247.296 255.446 247.334 254.906 247.296C255.338 247.091 256.196 247.097 256.601 247.296Z" fill="#241F21"/>
<path d="M263.862 229.04C263.97 229.072 263.964 229.115 263.862 229.159C263.5 229.169 263.133 229.159 262.771 229.159C262.609 229.234 262.442 229.261 262.286 229.159C262.69 228.937 263.36 229.04 263.856 229.04H263.862Z" fill="#241F21"/>
<path d="M264.224 229.04C264.547 229.04 264.871 229.04 265.19 229.04C264.882 229.04 264.299 229.148 263.856 229.159V229.04C263.975 229.04 264.099 229.04 264.218 229.04H264.224Z" fill="#241F21"/>
<path d="M262.048 229.164C262.156 229.197 262.151 229.24 262.048 229.283C261.767 229.283 261.481 229.283 261.201 229.283C261.082 229.353 260.936 229.391 260.839 229.283C261.12 229.062 261.67 229.164 262.048 229.164Z" fill="#241F21"/>
<path d="M257.568 229.644C257.659 229.59 257.74 229.558 257.811 229.644C257.589 229.736 256.931 229.882 256.72 229.887C256.607 229.499 257.211 229.655 257.568 229.644Z" fill="#241F21"/>
<path d="M258.777 247.296C258.421 247.323 258.048 247.28 257.686 247.296C257.913 247.091 258.55 247.091 258.777 247.296Z" fill="#241F21"/>
<path d="M262.653 236.781C262.485 236.991 262.07 236.9 261.805 236.9C261.973 236.689 262.388 236.781 262.653 236.781Z" fill="#241F21"/>
<path d="M260.229 237.024C260.062 237.234 259.646 237.137 259.381 237.142C259.549 236.932 259.964 237.024 260.229 237.024Z" fill="#241F21"/>
<path d="M263.981 236.657C263.684 236.705 263.506 236.754 263.133 236.775C263.306 236.549 263.716 236.683 263.981 236.657Z" fill="#241F21"/>
<path d="M261.319 236.899C261.19 237.105 260.823 237.018 260.591 237.018C260.72 236.813 261.087 236.899 261.319 236.899Z" fill="#241F21"/>
<path d="M259.138 237.143C259.004 237.359 258.642 237.245 258.41 237.261C258.626 237.234 258.831 237.164 259.138 237.143Z" fill="#241F21"/>
<path d="M263.619 245.968C263.446 246.06 263.322 246.282 263.014 246.211C263.171 246.136 263.317 245.887 263.619 245.968Z" fill="#241F21"/>
<path d="M256.477 229.887C256.245 229.823 256.051 229.974 255.873 230.006C255.792 229.477 256.321 229.882 256.477 229.887Z" fill="#241F21"/>
<path d="M262.286 229.164C262.448 229.164 262.61 229.164 262.771 229.164C262.642 229.369 262.275 229.283 262.043 229.283V229.164C262.124 229.164 262.205 229.164 262.286 229.164Z" fill="#241F21"/>
<path d="M258.296 229.526C258.404 229.558 258.399 229.601 258.296 229.644C258.134 229.644 257.972 229.644 257.811 229.644C257.73 229.644 257.649 229.644 257.568 229.644C257.697 229.439 258.064 229.526 258.296 229.526Z" fill="#241F21"/>
<path d="M261.805 246.692C261.605 246.751 261.438 246.864 261.201 246.81C261.352 246.751 261.681 246.416 261.805 246.692Z" fill="#241F21"/>
<path d="M260.834 229.283C260.952 229.283 261.076 229.283 261.195 229.283C261.093 229.482 260.785 229.391 260.591 229.401V229.283C260.672 229.283 260.753 229.283 260.834 229.283Z" fill="#241F21"/>
<path d="M258.534 229.526C258.653 229.526 258.777 229.526 258.896 229.526C258.793 229.72 258.485 229.644 258.291 229.644V229.526C258.372 229.526 258.453 229.526 258.534 229.526Z" fill="#241F21"/>
<path d="M258.777 242.584C258.583 242.065 258.631 242.103 258.777 241.617V242.584Z" fill="#241F21"/>
<path d="M159.289 247.539C158.841 247.518 158.485 247.458 158.08 247.421V247.302C158.463 247.356 158.954 247.345 159.289 247.545V247.539Z" fill="#241F21"/>
<path d="M160.86 247.539C160.379 247.534 159.888 247.555 159.408 247.539C159.753 247.334 160.536 247.34 160.86 247.539Z" fill="#241F21"/>
<path d="M169.335 222.389L169.939 222.508C170.101 222.508 170.263 222.492 170.425 222.508L171.03 222.627C172.336 222.913 173.637 223.269 174.895 223.728L173.815 229.882C173.772 229.909 173.437 229.79 173.335 229.758L172.244 229.153C168.541 227.723 164.439 227.583 160.908 229.618C157.362 231.658 154.533 236.857 158.447 239.977C160.466 241.591 163.602 241.612 166.074 241.488L166.922 241.369C167.138 241.288 167.338 241.288 167.526 241.369C167.721 241.342 167.872 241.251 167.888 241.251C168.185 241.261 168.466 241.224 168.736 241.132C168.811 241.121 168.903 241.143 168.979 241.132C169.313 240.975 169.68 240.894 170.069 240.889C170.301 240.835 170.711 240.711 170.916 240.83L169.804 246.973C169.67 247.324 169.049 247.14 168.736 247.178L168.131 247.297C167.732 247.318 167.321 247.297 166.922 247.297L165.956 247.415C165.265 247.437 164.59 247.518 163.899 247.534C162.976 247.442 162.037 247.437 161.113 247.534C161.032 247.534 160.951 247.534 160.871 247.534C160.39 247.426 159.899 247.442 159.418 247.534C159.381 247.534 159.337 247.534 159.3 247.534C158.873 247.469 158.468 247.388 158.09 247.291C153.086 246.827 146.447 244.463 145.864 238.708V235.804C147.154 224.802 159.92 221.537 169.346 222.384L169.335 222.389Z" fill="#241F21"/>
<path d="M169.696 222.389C169.605 222.503 169.454 222.454 169.335 222.389C161.848 222.265 152.984 223.377 148.298 229.968C146.997 231.798 146.366 233.634 145.853 235.809V232.905C149.399 224.295 159.661 221.747 168.19 222.141C168.628 222.163 169.281 222.26 169.696 222.389Z" fill="#241F21"/>
<path d="M158.08 247.297C158.188 247.329 158.182 247.372 158.08 247.415C153.426 246.967 148.206 245.218 145.853 240.889V238.714C146.177 239.394 146.269 240.112 146.598 240.814C148.514 244.938 153.891 246.708 158.08 247.302V247.297Z" fill="#241F21"/>
<path d="M163.888 247.539C162.965 247.561 162.026 247.545 161.103 247.539C161.929 247.34 163.062 247.34 163.888 247.539Z" fill="#241F21"/>
<path d="M173.329 229.769C172.952 229.661 172.46 229.493 172.239 229.164C172.617 229.31 173.103 229.407 173.329 229.769Z" fill="#241F21"/>
<path d="M170.058 240.889C169.68 240.975 169.362 241.067 168.968 241.132C169.216 240.792 169.686 240.9 170.058 240.889Z" fill="#241F21"/>
<path d="M166.911 247.297C166.706 247.518 166.247 247.41 165.945 247.415C166.145 247.2 166.609 247.297 166.911 247.297Z" fill="#241F21"/>
<path d="M168.73 241.132C168.557 241.358 168.147 241.223 167.883 241.25C168.115 241.223 168.46 241.169 168.73 241.132Z" fill="#241F21"/>
<path d="M166.911 241.375C166.566 241.45 166.458 241.477 166.064 241.493C166.231 241.283 166.647 241.375 166.911 241.375Z" fill="#241F21"/>
<path d="M168.73 247.178C168.611 247.194 168.417 247.28 168.126 247.297C168.228 247.102 168.536 247.183 168.73 247.178Z" fill="#241F21"/>
<path d="M167.516 241.375C167.338 241.402 167.105 241.375 166.911 241.375C167.024 241.348 167.338 241.056 167.516 241.375Z" fill="#241F21"/>
<path d="M171.03 222.632C170.835 222.627 170.528 222.708 170.425 222.513C170.733 222.54 170.798 222.584 171.03 222.632Z" fill="#241F21"/>
<path d="M169.696 222.389C169.799 222.395 169.907 222.389 169.939 222.508C169.745 222.508 169.437 222.578 169.335 222.389C169.454 222.389 169.578 222.379 169.696 222.389Z" fill="#241F21"/>
<path d="M215.57 229.402C216.304 229.272 217.135 229.283 217.87 229.402C218.064 229.289 218.377 229.305 218.598 229.402C224.072 230.023 225.718 235.475 224.099 240.161C222.577 244.571 218.561 247.108 213.999 247.421C213.357 247.335 212.704 247.329 212.061 247.421C211.942 247.421 211.818 247.426 211.699 247.421L211.095 247.302C211.014 247.291 210.928 247.313 210.852 247.302C210.55 247.221 210.269 247.14 210.004 247.059C209.729 247.081 209.367 246.887 209.157 246.698C208.779 246.887 207.019 245.321 207.127 245.256C207.192 245.213 207.354 245.505 207.1 245.488C206.771 248.069 206.172 250.638 205.74 253.202C205.675 253.267 205.573 253.213 205.529 253.229C202.739 253.332 199.932 253.343 197.124 253.256L201.211 229.764L201.416 229.65C203.791 229.472 206.366 229.526 208.801 229.65C208.871 229.677 209.054 229.58 209.049 229.72C208.784 230.39 208.806 231.156 208.682 231.826C208.963 231.88 208.552 232.214 208.574 232.198C210.571 230.471 212.914 229.413 215.581 229.407L215.57 229.402ZM213.513 241.494C213.735 241.397 213.789 241.375 213.999 241.251C214.15 241.165 214.226 241.121 214.361 241.008C214.544 240.862 214.582 240.798 214.722 240.646C216.223 239.022 217.141 235.54 214.841 234.239C212.731 233.046 209.675 234.007 208.644 236.209C206.749 240.252 209.297 243.313 213.508 241.494H213.513Z" fill="#241F21"/>
<path d="M201.405 229.526C201.513 229.558 201.508 229.602 201.405 229.645L197.292 253.224H205.524C205.367 253.283 205.351 253.337 205.114 253.354C202.479 253.548 199.591 253.192 196.93 253.343L201.054 229.531C201.173 229.499 201.292 229.531 201.411 229.526H201.405Z" fill="#241F21"/>
<path d="M215.57 229.283C215.678 229.316 215.673 229.359 215.57 229.402C213.119 229.559 210.377 230.59 208.606 232.301C208.223 232.371 208.655 231.901 208.671 231.82C210.636 230.233 213.054 229.407 215.57 229.283Z" fill="#241F21"/>
<path d="M208.79 229.645H201.405V229.526C202.496 229.44 208.067 229.38 208.79 229.645Z" fill="#241F21"/>
<path d="M209.152 246.692C209.227 246.73 209.227 246.768 209.152 246.811C208.855 246.692 208.677 246.714 208.315 246.498C207.824 246.206 207.538 245.812 207.095 245.483C207.111 245.369 207.03 245.153 207.154 245.121C207.77 245.785 208.315 246.314 209.152 246.692Z" fill="#241F21"/>
<path d="M215.813 229.283C216.25 229.17 216.709 229.175 217.146 229.283C217.389 229.283 217.632 229.283 217.875 229.283C217.983 229.315 217.978 229.359 217.875 229.402C217.173 229.364 216.277 229.359 215.575 229.402V229.283C215.656 229.283 215.737 229.283 215.818 229.283H215.813Z" fill="#241F21"/>
<path d="M213.994 247.421C213.395 247.464 212.666 247.442 212.056 247.421C212.574 247.216 213.502 247.221 213.994 247.421Z" fill="#241F21"/>
<path d="M209.999 247.059C210.107 247.092 210.102 247.135 209.999 247.178C209.648 247.086 209.422 246.924 209.152 246.816V246.698C209.373 246.8 209.794 247 209.999 247.059Z" fill="#241F21"/>
<path d="M210.847 247.297C210.566 247.254 210.274 247.248 209.999 247.178V247.059C210.237 247.13 210.641 247.022 210.847 247.302V247.297Z" fill="#241F21"/>
<path d="M211.694 247.421C211.408 247.405 211.203 247.313 211.09 247.302C211.284 247.307 211.592 247.226 211.694 247.421Z" fill="#241F21"/>
<path d="M214.722 240.651H214.604C215.71 239.399 216.498 236.43 215.505 234.978C215.322 234.713 214.998 234.541 214.847 234.244C217.141 235.545 216.229 239.026 214.728 240.651H214.722Z" fill="#241F21"/>
<path d="M214.361 240.889C214.415 240.927 214.415 240.965 214.361 241.008C214.22 241.121 214.145 241.164 213.999 241.251H213.88C213.972 241.181 214.339 240.911 214.366 240.889H214.361Z" fill="#241F21"/>
<path d="M213.875 241.256H213.994C213.783 241.375 213.729 241.402 213.508 241.499C213.535 241.262 213.81 241.305 213.87 241.256H213.875Z" fill="#241F21"/>
<path d="M214.722 240.652C214.582 240.808 214.544 240.868 214.361 241.013V240.895C214.42 240.841 214.555 240.706 214.604 240.652H214.722Z" fill="#241F21"/>
<path d="M188.698 229.04C189.173 228.937 189.675 228.943 190.15 229.04C190.663 228.932 191.214 228.927 191.721 229.04L192.45 229.159C195.354 229.418 198.452 230.174 198.264 233.699C198.075 237.224 196.563 241.283 196.326 244.819C196.277 245.51 196.25 245.844 196.687 246.39C196.833 246.573 197.718 247.043 196.806 247.178C196.266 247.145 195.743 247.102 195.235 247.059C193.34 247.167 191.44 247.162 189.546 247.059C189.124 247.162 188.525 247.172 188.093 247.059L187.845 246.94L187.872 245.305L187.608 245.251C185.686 246.341 182.668 247.156 180.466 247.307C179.742 247.226 179.008 247.205 178.285 247.307C178.123 247.307 177.961 247.307 177.799 247.307L176.709 247.189C176.628 247.189 176.547 247.189 176.466 247.189C169.006 245.801 171.24 238.39 177.799 237.758C178.047 237.639 178.328 237.558 178.647 237.515C178.873 237.472 179.116 237.434 179.375 237.396C179.505 237.272 179.71 237.321 179.861 237.396C179.942 237.391 180.023 237.402 180.104 237.396C180.207 237.164 180.595 237.207 180.833 237.278C180.914 237.272 180.995 237.283 181.076 237.278C181.232 237.029 181.648 237.099 181.923 237.159C182.004 237.148 182.085 237.17 182.166 237.159C182.307 236.943 182.69 236.948 182.895 237.04C183.089 236.997 183.289 236.959 183.5 236.921C183.662 236.781 183.915 236.857 184.104 236.921C184.266 236.911 184.428 236.932 184.59 236.921C184.763 236.684 185.162 236.738 185.438 236.803C185.594 236.786 185.767 236.824 185.923 236.803C186.004 236.592 186.323 236.614 186.528 236.684C187.991 236.403 190.992 235.485 188.946 233.661C186.749 232.835 182.458 233.445 180.088 233.817C178.755 234.023 177.281 234.53 175.996 234.508C175.91 234.476 175.786 234.4 175.802 234.346C175.975 233.817 177.276 230.271 177.437 230.109C177.853 229.693 182.485 229.315 183.554 229.234C185.265 229.099 186.992 228.981 188.703 229.072L188.698 229.04ZM188.455 239.199C186.609 239.766 184.525 239.761 182.765 240.349C182.047 240.592 181.27 241.04 181.119 241.861C180.774 243.712 184.099 243.512 185.184 243.313C185.556 243.248 185.637 243.162 185.913 243.07C187.883 242.411 188.806 241.467 188.941 239.259C188.963 238.881 188.622 239.151 188.455 239.199Z" fill="#241F21"/>
<path d="M177.805 237.628C177.912 237.661 177.907 237.704 177.805 237.747C175.834 238.19 173.346 239.221 172.455 241.17C171.521 243.221 172.093 244.614 173.745 245.969C174.62 246.687 175.446 246.795 176.471 247.172C173.06 246.946 170.053 244.085 172.185 240.651C173.324 238.827 175.786 237.931 177.805 237.618V237.628Z" fill="#241F21"/>
<path d="M188.698 228.921C188.806 228.954 188.801 228.997 188.698 229.04C186.987 229.072 185.259 229.137 183.554 229.283C181.605 229.45 179.645 229.752 177.707 230.033L175.985 234.481C175.748 234.481 175.435 234.735 175.5 234.422L177.097 230.093L177.346 229.855C181.108 229.261 184.887 228.937 188.698 228.921Z" fill="#241F21"/>
<path d="M186.523 236.657C186.415 236.624 186.42 236.581 186.523 236.538C188.056 236.236 190.404 235.583 188.941 233.634C189.713 233.925 189.907 234.066 189.778 235.016C189.616 236.203 187.521 236.495 186.523 236.657Z" fill="#241F21"/>
<path d="M188.093 247.059C188.201 247.091 188.196 247.135 188.093 247.178C187.931 247.167 187.77 247.189 187.608 247.178V245.245C187.667 245.213 187.948 244.619 188.077 245.078C188.218 245.591 188.012 246.487 188.093 247.059Z" fill="#241F21"/>
<path d="M195.235 247.059C195.343 247.091 195.338 247.134 195.235 247.178C193.346 247.21 191.435 247.194 189.546 247.178C189.438 247.145 189.443 247.102 189.546 247.059C191.44 247.059 193.34 247.053 195.235 247.059Z" fill="#241F21"/>
<path d="M180.471 247.296C179.78 247.345 178.998 247.296 178.29 247.296C178.895 247.091 179.856 247.091 180.471 247.296Z" fill="#241F21"/>
<path d="M191.969 229.04C191.915 229.137 191.829 229.094 191.726 229.04C191.203 229.029 190.674 229.04 190.156 229.04C190.048 229.008 190.053 228.964 190.156 228.921C190.728 228.921 191.473 228.819 191.969 229.04Z" fill="#241F21"/>
<path d="M196.806 247.178C196.358 247.242 195.716 247.167 195.235 247.178V247.059C195.732 247.059 196.407 246.956 196.806 247.178Z" fill="#241F21"/>
<path d="M190.15 228.921V229.04C189.67 229.04 189.178 229.029 188.698 229.04V228.921C189.178 228.921 189.67 228.921 190.15 228.921Z" fill="#241F21"/>
<path d="M189.546 247.059V247.178C189.065 247.178 188.568 247.205 188.093 247.178V247.059H189.546Z" fill="#241F21"/>
<path d="M178.409 237.504C178.495 237.45 178.571 237.429 178.652 237.504C178.436 237.672 178.08 237.682 177.805 237.747V237.628C177.988 237.601 178.123 237.531 178.409 237.51V237.504Z" fill="#241F21"/>
<path d="M177.805 247.297C177.464 247.297 176.952 247.394 176.714 247.178C177.06 247.189 177.562 247.075 177.805 247.297Z" fill="#241F21"/>
<path d="M179.257 237.386H179.375C179.24 237.591 178.879 237.499 178.647 237.504C178.566 237.504 178.485 237.499 178.404 237.504C178.571 237.294 178.987 237.386 179.251 237.386H179.257Z" fill="#241F21"/>
<path d="M185.432 236.781C185.151 236.808 184.801 236.889 184.585 236.9C184.444 236.527 185.211 236.581 185.432 236.781Z" fill="#241F21"/>
<path d="M181.923 237.142C181.626 237.175 181.319 237.24 181.076 237.261C180.935 236.889 181.702 236.943 181.923 237.142Z" fill="#241F21"/>
<path d="M182.89 236.9C182.998 236.932 182.992 236.975 182.89 237.018C182.598 237.04 182.377 237.116 182.161 237.137C182.058 236.754 182.544 236.905 182.89 236.894V236.9Z" fill="#241F21"/>
<path d="M184.099 236.9C183.899 236.91 183.694 236.889 183.494 236.9C183.413 236.964 183.338 236.97 183.251 236.9C183.402 236.7 183.948 236.7 184.099 236.9Z" fill="#241F21"/>
<path d="M180.833 237.261C180.563 237.288 180.298 237.364 180.104 237.38C179.975 237.019 180.617 237.056 180.833 237.261Z" fill="#241F21"/>
<path d="M191.969 229.04C192.147 229.051 192.315 229.007 192.455 229.159C192.228 229.137 191.867 229.256 191.726 229.04C191.807 229.04 191.888 229.04 191.969 229.04Z" fill="#241F21"/>
<path d="M186.523 236.538V236.657C186.317 236.689 186.074 236.759 185.918 236.775C185.826 236.36 186.22 236.592 186.523 236.532V236.538Z" fill="#241F21"/>
<path d="M183.251 236.9C183.332 236.9 183.413 236.9 183.494 236.9C183.392 237.099 183.084 237.008 182.89 237.018V236.9C183.008 236.9 183.133 236.9 183.251 236.9Z" fill="#241F21"/>
<path d="M179.861 237.385C179.699 237.396 179.537 237.385 179.375 237.385C179.338 237.385 179.294 237.385 179.257 237.385C179.338 237.196 179.78 237.196 179.861 237.385Z" fill="#241F21"/>
<path d="M188.455 239.199C188.622 239.151 188.962 238.881 188.941 239.259C188.806 241.467 187.883 242.406 185.913 243.07H185.794C187.548 242.336 188.374 241.116 188.455 239.199Z" fill="#241F21"/>
<path d="M185.794 243.064H185.913C185.637 243.156 185.556 243.237 185.184 243.307C185.313 243.102 185.562 243.059 185.788 243.064H185.794Z" fill="#241F21"/>
<path d="M328.251 191.199C333.811 191.539 347.474 193.704 349.768 199.631C351.917 205.18 344.742 212.511 341.023 215.987C335.053 221.574 328.235 226.206 321.53 230.854C321.455 230.265 321.045 231.237 320.866 230.676C319.83 227.41 318.351 224.851 315.425 222.924C319.134 217.947 322.405 211.41 316.996 206.243C310.248 199.798 293.465 198.843 284.494 198.573C260.515 197.849 235.435 200.764 211.775 204.511C208.795 204.98 205.794 205.612 202.825 205.952C202.539 205.574 202.058 205.18 202.706 204.883C233.816 198.308 265.411 193.455 297.147 191.199C307.349 191.668 318.113 190.573 328.251 191.199Z" fill="#241F21"/>
<path d="M289.276 245.844C289.525 247.102 290.205 248.203 290.729 249.353L258.901 266.465C258.383 266.854 256.78 267.075 257.325 266.098L289.276 245.844Z" fill="#241F21"/>
<path d="M360.084 226.141L360.689 226.26C361.218 225.752 363.415 227.264 363.21 227.68C363.183 227.734 363.145 227.782 363.107 227.831C363.447 228.489 363.318 229.299 363.35 230.006C363.436 231.048 362.529 231.96 361.536 232.063C361.417 232.165 361.255 232.246 361.05 232.306C358.556 232.549 356.689 231.064 357.228 228.43C357.515 227.043 358.81 226.373 360.079 226.141H360.084ZM359.841 226.864C359.647 226.891 359.463 226.837 359.237 226.918C358.394 227.221 358.06 228.009 357.909 228.797C357.892 228.889 357.774 228.975 357.768 229.218C357.763 229.461 357.892 229.564 357.909 229.639C358.135 230.994 359.096 231.998 360.57 231.815C361.147 231.744 361.639 231.372 362.022 230.967C362.249 230.73 362.216 230.838 362.384 230.481C362.794 229.623 362.794 229.304 362.502 228.425C362.286 227.761 362.357 227.804 361.774 227.334C361.255 226.924 360.845 226.697 360.133 226.719C359.971 226.719 359.873 226.843 359.836 226.848L359.841 226.864Z" fill="#241F21"/>
<path d="M360.57 226.141C360.57 226.141 360.608 226.022 360.867 226.011C361.59 225.99 362.707 226.292 363.226 226.81C363.668 227.248 363.42 227.744 363.474 228.316L363.112 227.836C362.713 227.064 361.541 226.373 360.694 226.265C360.602 226.254 360.564 226.216 360.575 226.146L360.57 226.141Z" fill="#241F21"/>
<path d="M361.536 232.187C361.428 232.155 361.434 232.111 361.536 232.068C362.519 231.572 362.934 231.021 363.35 230.011C363.35 230.033 363.469 230.211 363.479 230.422C363.55 231.733 362.61 231.971 361.536 232.187Z" fill="#241F21"/>
<path d="M361.536 232.187C361.39 232.22 361.315 232.284 361.05 232.306C361.174 232.155 361.374 232.144 361.536 232.063V232.182V232.187Z" fill="#241F21"/>
<path d="M360.57 226.141L360.688 226.26C360.5 226.238 360.186 226.346 360.084 226.141C360.224 226.114 360.413 226.157 360.57 226.141Z" fill="#241F21"/>
<path d="M336.122 250.562C336.051 250.573 336.03 250.73 335.76 250.638C335.134 250.422 335.236 249.488 335.29 248.943C335.571 246.001 337.428 241.386 338.173 238.282C338.68 236.155 339.895 232.484 336.489 232.425C336.499 232.425 336.472 232.317 336.667 232.306C340.472 232.079 339.533 235.404 338.972 237.866C338.2 241.245 336.915 244.651 336.186 248.02C336.008 248.835 335.7 249.801 336.127 250.562H336.122Z" fill="#241F21"/>
<path d="M334.059 235.21C330.524 237.202 327.987 240.581 325.05 243.318L323.031 252.846C321.87 252.83 320.661 252.975 319.538 252.743C320.019 252.668 322.324 252.894 322.507 252.63L324.494 243.248C326.432 241.477 328.181 239.377 330.124 237.628C330.961 236.878 332.953 235.124 334.059 235.215V235.21Z" fill="#241F21"/>
<path d="M326.923 232.425C327.107 232.387 327.598 232.176 327.522 232.479C327.312 233.305 327.053 234.125 326.864 234.962C326.502 236.581 326.205 238.924 325.714 240.403C325.622 240.678 325.153 241.148 324.926 241.369L324.877 241.083L326.923 232.425Z" fill="#241F21"/>
<path d="M333.822 253.467C334.319 253.299 334.707 253.326 335.236 253.127C336.937 252.473 338.416 250.411 339.274 248.873C339.576 248.608 339.593 249.612 339.636 249.72C338.356 251.253 336.91 253.396 334.718 253.575C334.275 253.612 334.162 253.515 333.827 253.467H333.822Z" fill="#241F21"/>
<path d="M345.439 244.036C345.25 244.241 344.656 244.236 344.473 244.036C344.796 244.036 345.12 244.047 345.439 244.036Z" fill="#241F21"/>
<path d="M321.109 235.448C321.077 235.448 320.715 235.545 320.505 235.566C320.607 235.372 320.915 235.453 321.109 235.448Z" fill="#241F21"/>
<path d="M346.772 243.912C346.664 243.879 346.67 243.836 346.772 243.793C351.101 243.086 357.201 241.148 356.575 235.631C356.311 233.304 353.741 232.457 351.733 232.43C352.041 232.23 352.651 232.279 353.007 232.306C354.88 232.441 357.137 233.429 357.412 235.523C358.168 241.31 351.274 243.431 346.772 243.917V243.912Z" fill="#241F21"/>
<path d="M354.637 246.935C354.691 246.476 355.533 246.973 355.598 247.064C355.755 247.286 354.13 249.515 353.849 249.834C352.089 251.858 349.412 253.369 346.707 253.58C346.346 253.607 345.752 253.666 345.439 253.461C345.714 253.439 345.995 253.402 346.286 253.342C349.32 253.148 352.057 251.205 353.768 248.786C353.973 248.495 354.632 247.566 354.707 247.296C354.767 247.102 354.632 246.973 354.637 246.935Z" fill="#241F21"/>
<path d="M343.382 244.155C343.468 244.106 343.544 244.085 343.625 244.155C343.247 245.488 343.279 247.086 343.809 248.387C344.289 249.569 345.293 250.287 346.41 250.805C343.123 250.33 342.2 247.178 342.837 244.274C342.961 244.101 343.209 244.171 343.387 244.16L343.382 244.155Z" fill="#241F21"/>
<path d="M346.286 253.342C346.124 253.553 345.703 253.461 345.439 253.461C345.174 253.461 344.753 253.547 344.591 253.342C345.104 253.375 345.773 253.375 346.286 253.342Z" fill="#241F21"/>
<path d="M346.772 243.793V243.912C346.394 243.955 346.097 244.009 345.682 244.031C345.973 243.852 346.427 243.847 346.772 243.788V243.793Z" fill="#241F21"/>
<path d="M344.348 244.036C344.213 244.241 343.852 244.149 343.62 244.155C343.539 244.155 343.458 244.149 343.377 244.155C343.576 243.939 344.041 244.036 344.343 244.036H344.348Z" fill="#241F21"/>
<path d="M350.885 233.515C347.355 235.356 345.126 239.383 343.987 243.064C343.744 243.07 343.501 243.064 343.263 243.064C343.188 242.994 343.582 241.893 343.652 241.704C344.607 239.145 347.846 233.645 350.885 233.515Z" fill="#241F21"/>
<path d="M306.464 222.514C313.833 221.591 319.835 226.8 319.938 234.163C320.105 234.109 320.186 234.195 320.262 234.363C322.486 233.866 324.769 232.889 326.918 232.43L327.128 232.592L325.233 240.608C325.314 240.49 325.471 240.425 325.709 240.409C327.711 238.309 329.66 236.041 332.014 234.314C333.574 233.17 334.518 232.63 336.478 232.425C339.225 232.128 339.198 234.363 338.858 236.387C338.14 239.41 337.277 242.422 336.278 245.418C335.922 246.676 335.598 247.955 335.495 249.256C335.441 249.926 335.474 250.303 336.111 250.557C337.012 250.384 338.788 248.484 339.069 247.647C339.263 247.075 339.091 245.985 339.15 245.31C339.652 239.534 345.601 232.333 351.722 232.419C353.806 232.176 356.473 233.126 356.786 235.469C357.558 241.181 351.312 243.329 346.756 243.782C346.416 243.885 346.054 243.961 345.665 244.025C345.585 244.025 345.504 244.025 345.423 244.025C345.109 244.133 344.769 244.128 344.456 244.025C344.419 244.025 344.375 244.025 344.338 244.025L343.371 244.144C342.858 244.479 342.864 245.283 342.875 245.958C342.907 248.355 344.041 250.104 346.394 250.795C348.91 251.162 351.398 249.791 353.05 247.95C353.244 247.734 353.995 246.573 354.081 246.568C354.151 246.568 354.502 246.87 354.626 246.924C355.409 246.913 354.518 248.139 354.238 248.506C352.672 250.568 351.301 252.096 348.753 252.975C348.003 253.235 346.993 253.553 346.27 253.332C345.741 253.456 345.104 253.456 344.575 253.332C342.383 253.186 340.451 251.723 339.614 249.704C339.393 249.71 339.29 249.564 339.306 249.267C338.065 251.264 336.408 253.618 333.806 253.451C331.592 253.132 331.252 252.144 331.522 250.017C331.916 246.897 333.574 242.973 334.378 239.815C334.669 238.676 335.852 235.34 334.049 235.194C332.872 235.588 331.684 236.452 330.777 237.305C328.731 239.237 326.61 241.288 324.672 243.361L322.696 252.716C321.638 252.862 320.58 252.792 319.522 252.722C319.382 252.695 319.188 252.743 319.036 252.722L322.794 236.209C322.772 235.415 321.681 235.404 321.093 235.431C320.877 235.431 320.677 235.469 320.488 235.55C320.408 235.561 320.327 235.55 320.246 235.55C320.197 235.68 320.138 235.809 320.003 235.788C319.771 245.294 312.521 253.634 302.696 253.445C302.275 253.553 301.789 253.548 301.363 253.445C301.152 253.548 300.845 253.558 300.634 253.445C300.402 253.343 300.143 253.353 299.905 253.445C294.453 252.749 290.469 248.085 289.994 242.73C289.179 233.456 295.252 224.56 304.505 222.735L305.352 222.616C305.687 222.519 306.054 222.476 306.442 222.497L306.464 222.514ZM301.865 225.537C301.525 225.769 301.357 225.861 301.017 226.141C300.618 226.476 300.391 226.746 300.051 227.108C294.831 232.635 291.473 245.699 299.085 250.562C299.241 250.665 299.371 250.827 299.571 250.924C301.465 251.896 303.857 251.853 305.865 251.226C312.656 249.116 315.808 238.735 314.923 232.382C313.989 225.655 308.116 221.294 301.87 225.531L301.865 225.537ZM350.885 233.515C347.846 233.645 344.607 239.145 343.652 241.704C343.582 241.893 343.188 242.994 343.263 243.064C343.506 243.064 343.749 243.07 343.987 243.064C347.231 242.989 351.593 241.164 352.883 237.985C353.682 236.02 353.585 233.402 350.885 233.515Z" fill="#241F21"/>
<path d="M320.262 235.572C320.283 243.399 315.382 250.681 307.765 252.894C305.973 253.418 304.569 253.558 302.712 253.585C302.604 253.553 302.61 253.51 302.712 253.467C306.335 253.31 309.622 252.333 312.559 250.179C317.158 246.805 319.614 241.213 319.781 235.572C319.943 235.561 320.105 235.572 320.262 235.572Z" fill="#241F21"/>
<path d="M320.262 234.363C320.1 234.4 319.932 234.379 319.781 234.487C319.592 234.033 319.706 233.569 319.646 233.11C318.653 225.904 313.622 222.249 306.469 222.514H305.984L308.348 222.265C309.946 222.406 311.403 222.595 312.909 223.145C317.617 224.873 320.192 229.483 320.262 234.357V234.363Z" fill="#241F21"/>
<path d="M302.712 253.467V253.586C302.27 253.591 301.822 253.586 301.379 253.586C301.271 253.553 301.276 253.51 301.379 253.467C301.816 253.478 302.27 253.483 302.712 253.467Z" fill="#241F21"/>
<path d="M305.984 222.514C306.146 222.514 306.308 222.514 306.469 222.514C306.254 222.519 305.676 222.6 305.379 222.632C305.287 222.686 305.206 222.719 305.136 222.632C305.298 222.427 305.719 222.508 305.984 222.514Z" fill="#241F21"/>
<path d="M301.384 253.467V253.586C301.12 253.586 300.704 253.677 300.537 253.467H300.656C300.899 253.478 301.142 253.467 301.384 253.467Z" fill="#241F21"/>
<path d="M305.136 222.632C305.217 222.627 305.298 222.643 305.379 222.632C305.206 222.859 304.796 222.724 304.532 222.751C304.747 222.708 304.828 222.654 305.136 222.632Z" fill="#241F21"/>
<path d="M300.656 253.467C300.618 253.467 300.575 253.467 300.537 253.467C300.337 253.456 300.121 253.488 299.932 253.467C300.046 253.272 300.537 253.267 300.661 253.467H300.656Z" fill="#241F21"/>
<path d="M300.17 227.107C294.858 233.089 292.37 244.792 299.204 250.562H299.085C291.479 245.693 294.831 232.63 300.051 227.107H300.17Z" fill="#241F21"/>
<path d="M301.142 226.141C300.899 226.357 300.386 226.87 300.175 227.107H300.057C300.402 226.746 300.623 226.47 301.023 226.141H301.142Z" fill="#241F21"/>
<path d="M301.865 225.537C301.773 225.909 301.276 226.017 301.136 226.141H301.017C301.357 225.861 301.525 225.769 301.865 225.537Z" fill="#241F21"/>
<path d="M299.565 250.924C299.371 250.822 299.241 250.665 299.079 250.562H299.198C299.279 250.633 299.619 250.568 299.56 250.924H299.565Z" fill="#241F21"/>
<path d="M359.841 226.864C360.014 227.145 359.809 227.35 359.236 227.469C359.398 227.755 359.328 227.912 358.994 227.831C358.724 228.727 358.772 229.59 358.994 230.492C359.215 230.503 359.377 230.702 359.479 231.096C359.517 231.048 359.555 231.01 359.603 230.983C359.663 230.951 360.748 231.49 360.791 231.604C360.823 231.696 360.689 231.793 360.57 231.825C359.096 232.009 358.135 231.005 357.908 229.65C357.822 229.369 357.822 229.083 357.908 228.802C358.065 228.009 358.4 227.221 359.236 226.924C359.469 226.843 359.647 226.897 359.841 226.87V226.864Z" fill="#241F21"/>
<path d="M361.779 227.35C362.362 227.814 362.286 227.771 362.508 228.441C362.626 228.948 362.599 229.347 362.06 229.542C362.33 229.85 362.437 230.168 362.389 230.492C362.222 230.848 362.254 230.735 362.027 230.978C361.649 230.832 361.115 229.952 361.061 229.526C360.937 229.245 361.358 228.678 361.666 228.802C361.79 228.473 361.849 228.284 361.666 227.955C361.433 228.025 361.169 227.966 360.861 227.787C360.375 227.798 360.035 227.696 359.846 227.469C359.965 226.778 361.261 227.14 361.784 227.35H361.779Z" fill="#241F21"/>
<path d="M359.841 227.469C360.494 227.469 361.147 227.469 361.655 227.955C361.849 228.252 361.801 228.495 361.655 228.802C361.488 229.078 361.331 229.331 361.05 229.526C361.002 229.558 360.802 229.461 360.807 229.585L361.774 231.097C360.942 231.269 360.867 230.487 360.44 230.012C360.208 229.882 360.008 229.72 359.836 229.526C359.755 229.526 359.674 229.52 359.593 229.526C359.463 229.693 359.776 230.87 359.469 231.097C359.409 231.07 359.183 231.151 359.123 231.086C359.102 231.059 359.058 230.67 358.983 230.492C358.761 229.607 358.707 228.716 358.983 227.831C359.096 227.615 359.075 227.653 359.226 227.469C359.425 227.469 359.631 227.469 359.83 227.469H359.841ZM359.841 227.955C359.447 228.052 359.631 228.732 359.598 229.045C359.679 229.051 359.76 229.045 359.841 229.045C360.197 229.067 360.51 229.11 360.807 228.926C361.363 228.576 361.034 228.057 360.446 227.96C360.332 227.939 359.938 227.933 359.841 227.96V227.955Z" fill="#241F21"/>
<path d="M359.841 229.526C360.311 229.493 360.392 229.504 360.446 230.011C360.478 230.319 360.424 230.665 360.446 230.978H359.841V229.526Z" fill="#241F21"/>
<path d="M360.446 227.955C360.683 228.079 360.753 228.317 360.662 228.678L360.807 228.921C360.51 229.11 360.192 229.061 359.841 229.04C359.625 228.862 359.668 228.225 359.841 227.949C359.938 227.922 360.332 227.928 360.446 227.949V227.955Z" fill="#241F21"/>
<defs>
<radialGradient id="paint0_radial_2122_1326" cx="0" cy="0" r="1" gradientUnits="userSpaceOnUse" gradientTransform="translate(254.334 239.403) rotate(120) scale(173.552)">
<stop offset="0.461538" stop-color="#EFEDFF"/>
<stop offset="1" stop-color="#FFE57E"/>
</radialGradient>
</defs>
</svg>
