<svg width="548" height="477" viewBox="0 0 548 477" fill="none" xmlns="http://www.w3.org/2000/svg">
<path d="M149.137 148.849C380.096 123.259 492.502 234.829 396.65 259.979" stroke="#D12427" stroke-width="31.2706" stroke-miterlimit="3.99393" stroke-linecap="round"/>
<path d="M388.417 332.038C157.458 360.081 45.0528 237.813 140.905 210.251" stroke="#D12427" stroke-width="31.2706" stroke-miterlimit="3.99393" stroke-linecap="round"/>
<ellipse cx="440.541" cy="212.101" rx="17.3369" ry="46.0174" transform="rotate(-35.6296 440.541 212.101)" fill="#D12427"/>
<path d="M261.531 326.587C332.729 314.852 476.474 277.013 499.926 191.36" stroke="#D12427" stroke-width="31.2706" stroke-miterlimit="3.99393" stroke-linecap="round"/>
<path d="M285.235 178.767C205.775 183.429 77.3493 206.401 41.4861 289.344" stroke="#D12427" stroke-width="31.2706" stroke-miterlimit="3.99393" stroke-linecap="round"/>
<ellipse cx="268.196" cy="244.884" rx="180.247" ry="81.8589" fill="#FF5C5E"/>
<ellipse cx="268.196" cy="239.374" rx="162.931" ry="59.0329" fill="#FF989A"/>
<ellipse cx="268.196" cy="236.226" rx="126.724" ry="46.4392" fill="#EFEDFF"/>
<circle cx="87.9487" cy="255.903" r="7.87105" fill="#D12427"/>
<circle cx="122.581" cy="295.258" r="7.87105" fill="#D12427"/>
<circle cx="243.081" cy="346.04" r="7.87105" transform="rotate(146.771 243.081 346.04)" fill="#D12427"/>
<circle cx="132.027" cy="306.278" r="11.0195" fill="#D12427"/>
<circle cx="229.142" cy="341.999" r="11.0195" transform="rotate(146.771 229.142 341.999)" fill="#D12427"/>
<circle cx="427.491" cy="321.534" r="11.0195" transform="rotate(146.771 427.491 321.534)" fill="#D12427"/>
<circle cx="391.286" cy="247.546" r="5.99209" transform="rotate(146.771 391.286 247.546)" fill="#EFEDFF"/>
<circle cx="365.435" cy="264.199" r="5.99209" transform="rotate(146.771 365.435 264.199)" fill="#EFEDFF"/>
<circle cx="275.705" cy="283.09" r="5.99209" transform="rotate(146.771 275.705 283.09)" fill="#EFEDFF"/>
<circle cx="182.826" cy="268.922" r="5.99209" transform="rotate(146.771 182.826 268.922)" fill="#EFEDFF"/>
<circle cx="182.826" cy="201.231" r="5.99209" transform="rotate(146.771 182.826 201.231)" fill="#FF989A"/>
<circle cx="264.685" cy="190.211" r="5.99209" transform="rotate(146.771 264.685 190.211)" fill="#FF989A"/>
<circle cx="278.853" cy="188.637" r="5.99209" transform="rotate(146.771 278.853 188.637)" fill="#FF989A"/>
<circle cx="330.802" cy="276.793" r="5.99209" transform="rotate(146.771 330.802 276.793)" fill="#FF989A"/>
<circle cx="236.35" cy="281.515" r="5.99209" transform="rotate(146.771 236.35 281.515)" fill="#FF989A"/>
<circle cx="253.666" cy="190.211" r="5.99209" transform="rotate(146.771 253.666 190.211)" fill="#FF989A"/>
<circle cx="340.247" cy="196.508" r="5.99209" transform="rotate(146.771 340.247 196.508)" fill="#FF989A"/>
<circle cx="390.622" cy="239.012" r="5.99209" transform="rotate(146.771 390.622 239.012)" fill="#EFEDFF"/>
<circle cx="389.048" cy="224.844" r="5.99209" transform="rotate(146.771 389.048 224.844)" fill="#EFEDFF"/>
<circle cx="359.138" cy="204.379" r="5.99209" transform="rotate(146.771 359.138 204.379)" fill="#EFEDFF"/>
<circle cx="398.493" cy="205.953" r="5.99209" transform="rotate(146.771 398.493 205.953)" fill="#FF989A"/>
<circle cx="108.838" cy="229.566" r="5.99209" transform="rotate(146.771 108.838 229.566)" fill="#FF989A"/>
<circle cx="201.717" cy="290.961" r="5.99209" transform="rotate(146.771 201.717 290.961)" fill="#FF989A"/>
<circle cx="121.432" cy="267.348" r="5.99209" transform="rotate(146.771 121.432 267.348)" fill="#D12427"/>
<circle cx="200.143" cy="183.914" r="5.99209" transform="rotate(146.771 200.143 183.914)" fill="#D12427"/>
<circle cx="403.216" cy="272.07" r="5.99209" transform="rotate(146.771 403.216 272.07)" fill="#D12427"/>
<circle cx="431.551" cy="245.308" r="5.99209" transform="rotate(146.771 431.551 245.308)" fill="#D12427"/>
<circle cx="230.053" cy="183.914" r="5.99209" transform="rotate(146.771 230.053 183.914)" fill="#FF989A"/>
<circle cx="408.601" cy="175.133" r="11.0195" transform="rotate(146.771 408.601 175.133)" fill="#D12427"/>
<circle cx="318.872" cy="142.074" r="11.0195" transform="rotate(146.771 318.872 142.074)" fill="#D12427"/>
<circle cx="129.968" cy="149.945" r="11.0195" transform="rotate(146.771 129.968 149.945)" fill="#D12427"/>
<circle cx="34.219" cy="328.11" r="11.0195" transform="rotate(-139.522 34.219 328.11)" fill="#D12427"/>
<circle cx="455.427" cy="313.263" r="5.0454" transform="rotate(146.771 455.427 313.263)" fill="#D12427"/>
<circle cx="115.4" cy="152.694" r="5.0454" transform="rotate(146.771 115.4 152.694)" fill="#D12427"/>
<circle cx="504.229" cy="174.733" r="5.0454" transform="rotate(146.771 504.229 174.733)" fill="#D12427"/>
<circle cx="49.9949" cy="352.603" r="5.0454" transform="rotate(-139.522 49.9949 352.603)" fill="#D12427"/>
<ellipse cx="110.089" cy="281.048" rx="7.87105" ry="15.7421" transform="rotate(-37.6195 110.089 281.048)" fill="#D12427"/>
<ellipse cx="175.242" cy="322.904" rx="12.473" ry="33.107" transform="rotate(-66.8208 175.242 322.904)" fill="#D12427"/>
<ellipse cx="294.082" cy="347.319" rx="17.3369" ry="46.0174" transform="rotate(-85.9072 294.082 347.319)" fill="#D12427"/>
<ellipse cx="240.103" cy="141.28" rx="17.3369" ry="46.0174" transform="rotate(-87.6814 240.103 141.28)" fill="#D12427"/>
<path d="M360.836 87.2971L290.403 233.981L424.742 325.797L278.058 255.364L186.242 389.703L256.674 243.019L122.336 151.203L269.02 221.635L360.836 87.2971Z" fill="url(#paint0_radial_2228_6)"/>
<path d="M152.158 250.28C150.128 250.28 148.32 249.872 146.733 249.055C145.147 248.215 143.898 247.06 142.988 245.59C142.102 244.12 141.658 242.452 141.658 240.585C141.658 238.695 142.102 237.027 142.988 235.58C143.898 234.11 145.147 232.967 146.733 232.15C148.32 231.31 150.128 230.89 152.158 230.89C154.142 230.89 155.868 231.31 157.338 232.15C158.808 232.967 159.893 234.145 160.593 235.685L156.358 237.96C155.868 237.073 155.25 236.42 154.503 236C153.78 235.58 152.987 235.37 152.123 235.37C151.19 235.37 150.35 235.58 149.603 236C148.857 236.42 148.262 237.015 147.818 237.785C147.398 238.555 147.188 239.488 147.188 240.585C147.188 241.682 147.398 242.615 147.818 243.385C148.262 244.155 148.857 244.75 149.603 245.17C150.35 245.59 151.19 245.8 152.123 245.8C152.987 245.8 153.78 245.602 154.503 245.205C155.25 244.785 155.868 244.12 156.358 243.21L160.593 245.52C159.893 247.037 158.808 248.215 157.338 249.055C155.868 249.872 154.142 250.28 152.158 250.28ZM172.458 250.28C170.451 250.28 168.666 249.86 167.103 249.02C165.563 248.18 164.338 247.037 163.428 245.59C162.541 244.12 162.098 242.452 162.098 240.585C162.098 238.695 162.541 237.027 163.428 235.58C164.338 234.11 165.563 232.967 167.103 232.15C168.666 231.31 170.451 230.89 172.458 230.89C174.441 230.89 176.215 231.31 177.778 232.15C179.341 232.967 180.566 234.098 181.453 235.545C182.34 236.992 182.783 238.672 182.783 240.585C182.783 242.452 182.34 244.12 181.453 245.59C180.566 247.037 179.341 248.18 177.778 249.02C176.215 249.86 174.441 250.28 172.458 250.28ZM172.458 245.8C173.368 245.8 174.185 245.59 174.908 245.17C175.631 244.75 176.203 244.155 176.623 243.385C177.043 242.592 177.253 241.658 177.253 240.585C177.253 239.488 177.043 238.555 176.623 237.785C176.203 237.015 175.631 236.42 174.908 236C174.185 235.58 173.368 235.37 172.458 235.37C171.548 235.37 170.731 235.58 170.008 236C169.285 236.42 168.701 237.015 168.258 237.785C167.838 238.555 167.628 239.488 167.628 240.585C167.628 241.658 167.838 242.592 168.258 243.385C168.701 244.155 169.285 244.75 170.008 245.17C170.731 245.59 171.548 245.8 172.458 245.8ZM210.547 230.89C212.041 230.89 213.359 231.193 214.502 231.8C215.669 232.383 216.579 233.293 217.232 234.53C217.909 235.743 218.247 237.307 218.247 239.22V250H212.787V240.06C212.787 238.543 212.472 237.423 211.842 236.7C211.212 235.977 210.326 235.615 209.182 235.615C208.389 235.615 207.677 235.802 207.047 236.175C206.417 236.525 205.927 237.062 205.577 237.785C205.227 238.508 205.052 239.43 205.052 240.55V250H199.592V240.06C199.592 238.543 199.277 237.423 198.647 236.7C198.041 235.977 197.166 235.615 196.022 235.615C195.229 235.615 194.517 235.802 193.887 236.175C193.257 236.525 192.767 237.062 192.417 237.785C192.067 238.508 191.892 239.43 191.892 240.55V250H186.432V231.17H191.647V236.315L190.667 234.81C191.321 233.527 192.242 232.558 193.432 231.905C194.646 231.228 196.022 230.89 197.562 230.89C199.289 230.89 200.794 231.333 202.077 232.22C203.384 233.083 204.247 234.413 204.667 236.21L202.742 235.685C203.372 234.215 204.376 233.048 205.752 232.185C207.152 231.322 208.751 230.89 210.547 230.89ZM223.141 250V231.17H228.601V250H223.141ZM225.871 228.545C224.868 228.545 224.051 228.253 223.421 227.67C222.791 227.087 222.476 226.363 222.476 225.5C222.476 224.637 222.791 223.913 223.421 223.33C224.051 222.747 224.868 222.455 225.871 222.455C226.875 222.455 227.691 222.735 228.321 223.295C228.951 223.832 229.266 224.532 229.266 225.395C229.266 226.305 228.951 227.063 228.321 227.67C227.715 228.253 226.898 228.545 225.871 228.545ZM245.114 230.89C246.607 230.89 247.937 231.193 249.104 231.8C250.294 232.383 251.227 233.293 251.904 234.53C252.58 235.743 252.919 237.307 252.919 239.22V250H247.459V240.06C247.459 238.543 247.12 237.423 246.444 236.7C245.79 235.977 244.857 235.615 243.644 235.615C242.78 235.615 241.999 235.802 241.299 236.175C240.622 236.525 240.085 237.073 239.689 237.82C239.315 238.567 239.129 239.523 239.129 240.69V250H233.669V231.17H238.884V236.385L237.904 234.81C238.58 233.55 239.549 232.582 240.809 231.905C242.069 231.228 243.504 230.89 245.114 230.89ZM266.86 257.07C265.086 257.07 263.371 256.848 261.715 256.405C260.081 255.985 258.716 255.343 257.62 254.48L259.79 250.56C260.583 251.213 261.586 251.727 262.8 252.1C264.036 252.497 265.25 252.695 266.44 252.695C268.376 252.695 269.776 252.263 270.64 251.4C271.526 250.537 271.97 249.253 271.97 247.55V244.715L272.32 239.99L272.25 235.23V231.17H277.43V246.85C277.43 250.35 276.52 252.928 274.7 254.585C272.88 256.242 270.266 257.07 266.86 257.07ZM266.02 249.09C264.27 249.09 262.683 248.717 261.26 247.97C259.86 247.2 258.728 246.138 257.865 244.785C257.025 243.408 256.605 241.81 256.605 239.99C256.605 238.147 257.025 236.548 257.865 235.195C258.728 233.818 259.86 232.757 261.26 232.01C262.683 231.263 264.27 230.89 266.02 230.89C267.606 230.89 269.006 231.217 270.22 231.87C271.433 232.5 272.378 233.492 273.055 234.845C273.731 236.175 274.07 237.89 274.07 239.99C274.07 242.067 273.731 243.782 273.055 245.135C272.378 246.465 271.433 247.457 270.22 248.11C269.006 248.763 267.606 249.09 266.02 249.09ZM267.105 244.61C268.061 244.61 268.913 244.423 269.66 244.05C270.406 243.653 270.99 243.105 271.41 242.405C271.83 241.705 272.04 240.9 272.04 239.99C272.04 239.057 271.83 238.252 271.41 237.575C270.99 236.875 270.406 236.338 269.66 235.965C268.913 235.568 268.061 235.37 267.105 235.37C266.148 235.37 265.296 235.568 264.55 235.965C263.803 236.338 263.208 236.875 262.765 237.575C262.345 238.252 262.135 239.057 262.135 239.99C262.135 240.9 262.345 241.705 262.765 242.405C263.208 243.105 263.803 243.653 264.55 244.05C265.296 244.423 266.148 244.61 267.105 244.61ZM298.759 250.28C297.149 250.28 295.597 250.093 294.104 249.72C292.634 249.323 291.467 248.833 290.604 248.25L292.424 244.33C293.287 244.867 294.302 245.31 295.469 245.66C296.659 245.987 297.825 246.15 298.969 246.15C300.229 246.15 301.115 245.998 301.629 245.695C302.165 245.392 302.434 244.972 302.434 244.435C302.434 243.992 302.224 243.665 301.804 243.455C301.407 243.222 300.87 243.047 300.194 242.93C299.517 242.813 298.77 242.697 297.954 242.58C297.16 242.463 296.355 242.312 295.539 242.125C294.722 241.915 293.975 241.612 293.299 241.215C292.622 240.818 292.074 240.282 291.654 239.605C291.257 238.928 291.059 238.053 291.059 236.98C291.059 235.79 291.397 234.74 292.074 233.83C292.774 232.92 293.777 232.208 295.084 231.695C296.39 231.158 297.954 230.89 299.774 230.89C301.057 230.89 302.364 231.03 303.694 231.31C305.024 231.59 306.132 231.998 307.019 232.535L305.199 236.42C304.289 235.883 303.367 235.522 302.434 235.335C301.524 235.125 300.637 235.02 299.774 235.02C298.56 235.02 297.674 235.183 297.114 235.51C296.554 235.837 296.274 236.257 296.274 236.77C296.274 237.237 296.472 237.587 296.869 237.82C297.289 238.053 297.837 238.24 298.514 238.38C299.19 238.52 299.925 238.648 300.719 238.765C301.535 238.858 302.352 239.01 303.169 239.22C303.985 239.43 304.72 239.733 305.374 240.13C306.05 240.503 306.599 241.028 307.019 241.705C307.439 242.358 307.649 243.222 307.649 244.295C307.649 245.462 307.299 246.5 306.599 247.41C305.899 248.297 304.884 248.997 303.554 249.51C302.247 250.023 300.649 250.28 298.759 250.28ZM319.977 250.28C317.971 250.28 316.186 249.86 314.622 249.02C313.082 248.18 311.857 247.037 310.947 245.59C310.061 244.12 309.617 242.452 309.617 240.585C309.617 238.695 310.061 237.027 310.947 235.58C311.857 234.11 313.082 232.967 314.622 232.15C316.186 231.31 317.971 230.89 319.977 230.89C321.961 230.89 323.734 231.31 325.297 232.15C326.861 232.967 328.086 234.098 328.972 235.545C329.859 236.992 330.302 238.672 330.302 240.585C330.302 242.452 329.859 244.12 328.972 245.59C328.086 247.037 326.861 248.18 325.297 249.02C323.734 249.86 321.961 250.28 319.977 250.28ZM319.977 245.8C320.887 245.8 321.704 245.59 322.427 245.17C323.151 244.75 323.722 244.155 324.142 243.385C324.562 242.592 324.772 241.658 324.772 240.585C324.772 239.488 324.562 238.555 324.142 237.785C323.722 237.015 323.151 236.42 322.427 236C321.704 235.58 320.887 235.37 319.977 235.37C319.067 235.37 318.251 235.58 317.527 236C316.804 236.42 316.221 237.015 315.777 237.785C315.357 238.555 315.147 239.488 315.147 240.585C315.147 241.658 315.357 242.592 315.777 243.385C316.221 244.155 316.804 244.75 317.527 245.17C318.251 245.59 319.067 245.8 319.977 245.8ZM342.912 250.28C340.905 250.28 339.12 249.86 337.557 249.02C336.017 248.18 334.792 247.037 333.882 245.59C332.995 244.12 332.552 242.452 332.552 240.585C332.552 238.695 332.995 237.027 333.882 235.58C334.792 234.11 336.017 232.967 337.557 232.15C339.12 231.31 340.905 230.89 342.912 230.89C344.895 230.89 346.669 231.31 348.232 232.15C349.795 232.967 351.02 234.098 351.907 235.545C352.794 236.992 353.237 238.672 353.237 240.585C353.237 242.452 352.794 244.12 351.907 245.59C351.02 247.037 349.795 248.18 348.232 249.02C346.669 249.86 344.895 250.28 342.912 250.28ZM342.912 245.8C343.822 245.8 344.639 245.59 345.362 245.17C346.085 244.75 346.657 244.155 347.077 243.385C347.497 242.592 347.707 241.658 347.707 240.585C347.707 239.488 347.497 238.555 347.077 237.785C346.657 237.015 346.085 236.42 345.362 236C344.639 235.58 343.822 235.37 342.912 235.37C342.002 235.37 341.185 235.58 340.462 236C339.739 236.42 339.155 237.015 338.712 237.785C338.292 238.555 338.082 239.488 338.082 240.585C338.082 241.658 338.292 242.592 338.712 243.385C339.155 244.155 339.739 244.75 340.462 245.17C341.185 245.59 342.002 245.8 342.912 245.8ZM368.332 230.89C369.825 230.89 371.155 231.193 372.322 231.8C373.512 232.383 374.445 233.293 375.122 234.53C375.798 235.743 376.137 237.307 376.137 239.22V250H370.677V240.06C370.677 238.543 370.338 237.423 369.662 236.7C369.008 235.977 368.075 235.615 366.862 235.615C365.998 235.615 365.217 235.802 364.517 236.175C363.84 236.525 363.303 237.073 362.907 237.82C362.533 238.567 362.347 239.523 362.347 240.69V250H356.887V231.17H362.102V236.385L361.122 234.81C361.798 233.55 362.767 232.582 364.027 231.905C365.287 231.228 366.722 230.89 368.332 230.89ZM383.151 250.28C382.217 250.28 381.412 249.965 380.736 249.335C380.082 248.682 379.756 247.853 379.756 246.85C379.756 245.847 380.082 245.042 380.736 244.435C381.412 243.805 382.217 243.49 383.151 243.49C384.107 243.49 384.912 243.805 385.566 244.435C386.219 245.042 386.546 245.847 386.546 246.85C386.546 247.853 386.219 248.682 385.566 249.335C384.912 249.965 384.107 250.28 383.151 250.28ZM392.311 250.28C391.378 250.28 390.573 249.965 389.896 249.335C389.243 248.682 388.916 247.853 388.916 246.85C388.916 245.847 389.243 245.042 389.896 244.435C390.573 243.805 391.378 243.49 392.311 243.49C393.268 243.49 394.073 243.805 394.726 244.435C395.379 245.042 395.706 245.847 395.706 246.85C395.706 247.853 395.379 248.682 394.726 249.335C394.073 249.965 393.268 250.28 392.311 250.28ZM401.471 250.28C400.538 250.28 399.733 249.965 399.056 249.335C398.403 248.682 398.076 247.853 398.076 246.85C398.076 245.847 398.403 245.042 399.056 244.435C399.733 243.805 400.538 243.49 401.471 243.49C402.428 243.49 403.233 243.805 403.886 244.435C404.539 245.042 404.866 245.847 404.866 246.85C404.866 247.853 404.539 248.682 403.886 249.335C403.233 249.965 402.428 250.28 401.471 250.28Z" fill="black"/>
<defs>
<radialGradient id="paint0_radial_2228_6" cx="0" cy="0" r="1" gradientUnits="userSpaceOnUse" gradientTransform="translate(273.018 239.403) rotate(120) scale(173.552)">
<stop offset="0.461538" stop-color="#EFEDFF"/>
<stop offset="1" stop-color="#FFE57E"/>
</radialGradient>
</defs>
</svg>
