<svg width="488" height="468" viewBox="0 0 488 468" fill="none" xmlns="http://www.w3.org/2000/svg">
<path d="M127.949 150.895C354.474 125.797 464.721 235.224 370.709 259.892" stroke="#806DFD" stroke-width="31.2706" stroke-miterlimit="3.99393" stroke-linecap="round"/>
<path d="M362.635 330.567C136.11 358.072 25.8629 238.151 119.874 211.118" stroke="#806DFD" stroke-width="31.2706" stroke-miterlimit="3.99393" stroke-linecap="round"/>
<ellipse cx="413.758" cy="212.933" rx="17.0041" ry="45.1339" transform="rotate(-35.6296 413.758 212.933)" fill="#806DFD"/>
<path d="M238.185 325.22C308.016 313.711 449.001 276.599 472.003 192.59" stroke="#806DFD" stroke-width="31.2706" stroke-miterlimit="3.99393" stroke-linecap="round"/>
<path d="M261.434 180.239C183.5 184.811 57.5393 207.343 22.3646 288.693" stroke="#806DFD" stroke-width="31.2706" stroke-miterlimit="3.99393" stroke-linecap="round"/>
<ellipse cx="244.722" cy="245.086" rx="176.786" ry="80.2872" fill="#9687FF"/>
<ellipse cx="244.722" cy="239.682" rx="159.802" ry="57.8994" fill="#BDB4FF"/>
<ellipse cx="244.722" cy="236.594" rx="124.291" ry="45.5476" fill="#EFEDFF"/>
<circle cx="67.9352" cy="255.894" r="7.71993" fill="#806DFD"/>
<circle cx="101.903" cy="294.493" r="7.71993" fill="#806DFD"/>
<circle cx="220.089" cy="344.3" r="7.71993" transform="rotate(146.771 220.089 344.3)" fill="#806DFD"/>
<circle cx="111.167" cy="305.301" r="10.8079" fill="#806DFD"/>
<circle cx="206.418" cy="340.336" r="10.8079" transform="rotate(146.771 206.418 340.336)" fill="#806DFD"/>
<circle cx="400.959" cy="320.265" r="10.8079" transform="rotate(146.771 400.959 320.265)" fill="#806DFD"/>
<circle cx="365.448" cy="247.697" r="5.87705" transform="rotate(146.771 365.448 247.697)" fill="#EFEDFF"/>
<circle cx="340.094" cy="264.031" r="5.87705" transform="rotate(146.771 340.094 264.031)" fill="#EFEDFF"/>
<circle cx="252.086" cy="282.558" r="5.87705" transform="rotate(146.771 252.086 282.558)" fill="#EFEDFF"/>
<circle cx="160.991" cy="268.662" r="5.87705" transform="rotate(146.771 160.991 268.662)" fill="#EFEDFF"/>
<circle cx="160.991" cy="202.271" r="5.87705" transform="rotate(146.771 160.991 202.271)" fill="#BDB4FF"/>
<circle cx="241.278" cy="191.463" r="5.87705" transform="rotate(146.771 241.278 191.463)" fill="#BDB4FF"/>
<circle cx="255.174" cy="189.919" r="5.87705" transform="rotate(146.771 255.174 189.919)" fill="#BDB4FF"/>
<circle cx="306.126" cy="276.382" r="5.87705" transform="rotate(146.771 306.126 276.382)" fill="#BDB4FF"/>
<circle cx="213.487" cy="281.014" r="5.87705" transform="rotate(146.771 213.487 281.014)" fill="#BDB4FF"/>
<circle cx="230.471" cy="191.463" r="5.87705" transform="rotate(146.771 230.471 191.463)" fill="#BDB4FF"/>
<circle cx="315.39" cy="197.639" r="5.87705" transform="rotate(146.771 315.39 197.639)" fill="#BDB4FF"/>
<circle cx="364.797" cy="239.327" r="5.87705" transform="rotate(146.771 364.797 239.327)" fill="#EFEDFF"/>
<circle cx="363.253" cy="225.431" r="5.87705" transform="rotate(146.771 363.253 225.431)" fill="#EFEDFF"/>
<circle cx="333.918" cy="205.359" r="5.87705" transform="rotate(146.771 333.918 205.359)" fill="#EFEDFF"/>
<circle cx="372.517" cy="206.903" r="5.87705" transform="rotate(146.771 372.517 206.903)" fill="#BDB4FF"/>
<circle cx="88.4238" cy="230.063" r="5.87705" transform="rotate(146.771 88.4238 230.063)" fill="#BDB4FF"/>
<circle cx="179.519" cy="290.278" r="5.87705" transform="rotate(146.771 179.519 290.278)" fill="#BDB4FF"/>
<circle cx="100.776" cy="267.118" r="5.87705" transform="rotate(146.771 100.776 267.118)" fill="#806DFD"/>
<circle cx="177.975" cy="185.287" r="5.87705" transform="rotate(146.771 177.975 185.287)" fill="#806DFD"/>
<circle cx="377.149" cy="271.751" r="5.87705" transform="rotate(146.771 377.149 271.751)" fill="#806DFD"/>
<circle cx="404.94" cy="245.503" r="5.87705" transform="rotate(146.771 404.94 245.503)" fill="#806DFD"/>
<circle cx="207.311" cy="185.287" r="5.87705" transform="rotate(146.771 207.311 185.287)" fill="#BDB4FF"/>
<circle cx="382.431" cy="176.674" r="10.8079" transform="rotate(146.771 382.431 176.674)" fill="#806DFD"/>
<circle cx="294.425" cy="144.25" r="10.8079" transform="rotate(146.771 294.425 144.25)" fill="#806DFD"/>
<circle cx="109.147" cy="151.97" r="10.8079" transform="rotate(146.771 109.147 151.97)" fill="#806DFD"/>
<circle cx="15.2371" cy="326.714" r="10.8079" transform="rotate(-139.522 15.2371 326.714)" fill="#806DFD"/>
<circle cx="428.358" cy="312.152" r="4.94853" transform="rotate(146.771 428.358 312.152)" fill="#806DFD"/>
<circle cx="94.8591" cy="154.666" r="4.94853" transform="rotate(146.771 94.8591 154.666)" fill="#806DFD"/>
<circle cx="476.223" cy="176.282" r="4.94853" transform="rotate(146.771 476.223 176.282)" fill="#806DFD"/>
<circle cx="30.7101" cy="350.738" r="4.94853" transform="rotate(-139.522 30.7101 350.738)" fill="#806DFD"/>
<ellipse cx="89.6507" cy="280.556" rx="7.71993" ry="15.4399" transform="rotate(-37.6195 89.6507 280.556)" fill="#806DFD"/>
<ellipse cx="153.552" cy="321.608" rx="12.2335" ry="32.4713" transform="rotate(-66.8208 153.552 321.608)" fill="#806DFD"/>
<ellipse cx="270.11" cy="345.555" rx="17.0041" ry="45.1339" transform="rotate(-85.9072 270.11 345.555)" fill="#806DFD"/>
<ellipse cx="217.168" cy="143.472" rx="17.0041" ry="45.1339" transform="rotate(-87.6814 217.168 143.472)" fill="#806DFD"/>
<path fill-rule="evenodd" clip-rule="evenodd" d="M327.788 238.492C327.788 228.059 322.734 219.827 313.076 219.827C303.377 219.827 297.508 228.059 297.508 238.41C297.508 250.677 304.436 256.871 314.38 256.871C319.23 256.871 322.897 255.771 325.668 254.222V246.072C322.897 247.457 319.719 248.313 315.684 248.313C311.731 248.313 308.226 246.927 307.778 242.119H327.706C327.706 241.589 327.788 239.47 327.788 238.492ZM307.656 234.62C307.656 230.015 310.468 228.1 313.035 228.1C315.521 228.1 318.17 230.015 318.17 234.62H307.656Z" fill="#241F21"/>
<path d="M334.864 85.621L265.784 229.489L397.543 319.542L253.675 250.462L163.622 382.221L232.703 238.353L100.943 148.3L244.811 217.38L334.864 85.621Z" fill="url(#paint0_radial_2122_1052)"/>
<path fill-rule="evenodd" clip-rule="evenodd" d="M281.778 219.827C277.784 219.827 275.217 221.702 273.79 223.006L273.26 220.479H264.295V267.997L274.483 265.837L274.524 254.304C275.991 255.363 278.151 256.871 281.737 256.871C289.032 256.871 295.674 251.003 295.674 238.084C295.634 226.266 288.909 219.827 281.778 219.827ZM279.333 247.906C276.928 247.906 275.502 247.05 274.524 245.99L274.483 230.871C275.543 229.689 277.01 228.874 279.333 228.874C283.041 228.874 285.608 233.031 285.608 238.369C285.608 243.83 283.082 247.906 279.333 247.906Z" fill="#241F21"/>
<path fill-rule="evenodd" clip-rule="evenodd" d="M250.276 217.422L260.505 215.222V206.949L250.276 209.109V217.422Z" fill="#241F21"/>
<path d="M260.505 220.52H250.276V256.178H260.505V220.52Z" fill="#241F21"/>
<path fill-rule="evenodd" clip-rule="evenodd" d="M239.313 223.535L238.661 220.52H229.859V256.178H240.047V232.012C242.451 228.874 246.527 229.444 247.79 229.893V220.52C246.486 220.031 241.718 219.134 239.313 223.535Z" fill="#241F21"/>
<path fill-rule="evenodd" clip-rule="evenodd" d="M218.937 211.677L208.993 213.796L208.953 246.439C208.953 252.47 213.476 256.912 219.508 256.912C222.849 256.912 225.294 256.301 226.639 255.567V247.294C225.335 247.824 218.896 249.699 218.896 243.667V229.2H226.639V220.52H218.896L218.937 211.677Z" fill="#241F21"/>
<path fill-rule="evenodd" clip-rule="evenodd" d="M191.388 230.871C191.388 229.282 192.692 228.67 194.852 228.67C197.949 228.67 201.862 229.608 204.959 231.278V221.702C201.576 220.357 198.235 219.827 194.852 219.827C186.579 219.827 181.078 224.147 181.078 231.36C181.078 242.608 196.564 240.815 196.564 245.664C196.564 247.539 194.934 248.15 192.651 248.15C189.269 248.15 184.949 246.764 181.526 244.89V254.589C185.316 256.219 189.147 256.912 192.651 256.912C201.128 256.912 206.956 252.714 206.956 245.42C206.915 233.275 191.388 235.435 191.388 230.871Z" fill="#241F21"/>
<defs>
<radialGradient id="paint0_radial_2122_1052" cx="0" cy="0" r="1" gradientUnits="userSpaceOnUse" gradientTransform="translate(248.732 234.806) rotate(120) scale(170.22)">
<stop offset="0.461538" stop-color="#EFEDFF"/>
<stop offset="1" stop-color="#FFE57E"/>
</radialGradient>
</defs>
</svg>
