<svg width="497" height="477" viewBox="0 0 497 477" fill="none" xmlns="http://www.w3.org/2000/svg">
<path d="M130.454 148.849C361.413 123.259 473.818 234.829 377.966 259.979" stroke="#1F772D" stroke-width="31.2706" stroke-miterlimit="3.99393" stroke-linecap="round"/>
<path d="M369.734 332.038C138.775 360.081 26.3693 237.813 122.221 210.251" stroke="#1F772D" stroke-width="31.2706" stroke-miterlimit="3.99393" stroke-linecap="round"/>
<ellipse cx="421.857" cy="212.101" rx="17.3369" ry="46.0174" transform="rotate(-35.6296 421.857 212.101)" fill="#1F772D"/>
<path d="M242.847 326.587C314.046 314.852 457.79 277.013 481.243 191.361" stroke="#1F772D" stroke-width="31.2706" stroke-miterlimit="3.99393" stroke-linecap="round"/>
<path d="M266.552 178.767C187.092 183.429 58.6657 206.401 22.8024 289.344" stroke="#1F772D" stroke-width="31.2706" stroke-miterlimit="3.99393" stroke-linecap="round"/>
<ellipse cx="249.512" cy="244.884" rx="180.247" ry="81.8589" fill="#63A345"/>
<ellipse cx="249.512" cy="239.374" rx="162.931" ry="59.0329" fill="#FEE119"/>
<ellipse cx="249.512" cy="236.226" rx="126.724" ry="46.4392" fill="#EFEDFF"/>
<circle cx="69.2652" cy="255.903" r="7.87105" fill="#1F772D"/>
<circle cx="103.898" cy="295.258" r="7.87105" fill="#1F772D"/>
<circle cx="224.398" cy="346.04" r="7.87105" transform="rotate(146.771 224.398 346.04)" fill="#1F772D"/>
<circle cx="113.343" cy="306.278" r="11.0195" fill="#1F772D"/>
<circle cx="210.458" cy="341.999" r="11.0195" transform="rotate(146.771 210.458 341.999)" fill="#1F772D"/>
<circle cx="408.808" cy="321.534" r="11.0195" transform="rotate(146.771 408.808 321.534)" fill="#1F772D"/>
<circle cx="372.602" cy="247.546" r="5.99209" transform="rotate(146.771 372.602 247.546)" fill="#EFEDFF"/>
<circle cx="346.751" cy="264.199" r="5.99209" transform="rotate(146.771 346.751 264.199)" fill="#EFEDFF"/>
<circle cx="257.021" cy="283.09" r="5.99209" transform="rotate(146.771 257.021 283.09)" fill="#EFEDFF"/>
<circle cx="164.143" cy="268.922" r="5.99209" transform="rotate(146.771 164.143 268.922)" fill="#EFEDFF"/>
<circle cx="164.143" cy="201.231" r="5.99209" transform="rotate(146.771 164.143 201.231)" fill="#FEE119"/>
<circle cx="246.002" cy="190.211" r="5.99209" transform="rotate(146.771 246.002 190.211)" fill="#FEE119"/>
<circle cx="260.17" cy="188.637" r="5.99209" transform="rotate(146.771 260.17 188.637)" fill="#FEE119"/>
<circle cx="312.119" cy="276.793" r="5.99209" transform="rotate(146.771 312.119 276.793)" fill="#FEE119"/>
<circle cx="217.666" cy="281.515" r="5.99209" transform="rotate(146.771 217.666 281.515)" fill="#FEE119"/>
<circle cx="234.982" cy="190.211" r="5.99209" transform="rotate(146.771 234.982 190.211)" fill="#FEE119"/>
<circle cx="321.564" cy="196.508" r="5.99209" transform="rotate(146.771 321.564 196.508)" fill="#FEE119"/>
<circle cx="371.939" cy="239.012" r="5.99209" transform="rotate(146.771 371.939 239.012)" fill="#EFEDFF"/>
<circle cx="370.364" cy="224.844" r="5.99209" transform="rotate(146.771 370.364 224.844)" fill="#EFEDFF"/>
<circle cx="340.454" cy="204.379" r="5.99209" transform="rotate(146.771 340.454 204.379)" fill="#EFEDFF"/>
<circle cx="379.81" cy="205.953" r="5.99209" transform="rotate(146.771 379.81 205.953)" fill="#FEE119"/>
<circle cx="90.1548" cy="229.566" r="5.99209" transform="rotate(146.771 90.1548 229.566)" fill="#FEE119"/>
<circle cx="183.033" cy="290.961" r="5.99209" transform="rotate(146.771 183.033 290.961)" fill="#FEE119"/>
<circle cx="102.749" cy="267.348" r="5.99209" transform="rotate(146.771 102.749 267.348)" fill="#1F772D"/>
<circle cx="181.459" cy="183.914" r="5.99209" transform="rotate(146.771 181.459 183.914)" fill="#1F772D"/>
<circle cx="384.532" cy="272.07" r="5.99209" transform="rotate(146.771 384.532 272.07)" fill="#1F772D"/>
<circle cx="412.867" cy="245.308" r="5.99209" transform="rotate(146.771 412.867 245.308)" fill="#1F772D"/>
<circle cx="211.369" cy="183.914" r="5.99209" transform="rotate(146.771 211.369 183.914)" fill="#FEE119"/>
<circle cx="389.917" cy="175.133" r="11.0195" transform="rotate(146.771 389.917 175.133)" fill="#1F772D"/>
<circle cx="300.188" cy="142.074" r="11.0195" transform="rotate(146.771 300.188 142.074)" fill="#1F772D"/>
<circle cx="111.284" cy="149.945" r="11.0195" transform="rotate(146.771 111.284 149.945)" fill="#1F772D"/>
<circle cx="15.5354" cy="328.11" r="11.0195" transform="rotate(-139.522 15.5354 328.11)" fill="#1F772D"/>
<circle cx="436.744" cy="313.263" r="5.0454" transform="rotate(146.771 436.744 313.263)" fill="#1F772D"/>
<circle cx="96.7161" cy="152.694" r="5.0454" transform="rotate(146.771 96.7161 152.694)" fill="#1F772D"/>
<circle cx="485.545" cy="174.733" r="5.0454" transform="rotate(146.771 485.545 174.733)" fill="#1F772D"/>
<circle cx="31.3113" cy="352.603" r="5.0454" transform="rotate(-139.522 31.3113 352.603)" fill="#1F772D"/>
<ellipse cx="91.4057" cy="281.048" rx="7.87105" ry="15.7421" transform="rotate(-37.6195 91.4057 281.048)" fill="#1F772D"/>
<ellipse cx="156.558" cy="322.904" rx="12.473" ry="33.107" transform="rotate(-66.8208 156.558 322.904)" fill="#1F772D"/>
<ellipse cx="275.398" cy="347.319" rx="17.3369" ry="46.0174" transform="rotate(-85.9072 275.398 347.319)" fill="#1F772D"/>
<ellipse cx="221.419" cy="141.28" rx="17.3369" ry="46.0174" transform="rotate(-87.6814 221.419 141.28)" fill="#1F772D"/>
<path d="M342.152 87.2971L271.72 233.981L406.058 325.797L259.374 255.364L167.558 389.703L237.991 243.019L103.652 151.203L250.336 221.635L342.152 87.2971Z" fill="url(#paint0_radial_2122_1127)"/>
<path d="M282.087 220.801C281.1 221.647 278.149 222.641 276.784 223.183C269.482 226.08 261.88 227.647 254.053 228.268C249.402 228.637 246.04 228.637 241.387 228.268C231.35 227.473 221.279 225.145 212.444 220.239C206.606 205.393 205.318 189.215 209.125 173.664C209.581 171.804 211.73 164.294 212.68 163.203C213.566 162.183 218.259 160.466 219.78 159.904C236.093 153.869 254.582 153.43 271.241 158.445C273.341 159.077 280.877 161.599 282.229 162.716C283.432 163.71 285.74 172.075 286.17 174.037C288.766 185.865 288.868 195.6 286.621 207.479C286.117 210.155 283.926 219.222 282.087 220.801Z" fill="#241F21"/>
<path d="M285.283 196.632L283.618 206.943C283.182 209.03 281.084 217.364 279.836 218.53C278.606 219.681 270.713 222.145 268.645 222.714C253.661 226.838 237.725 226.545 222.959 221.616C221.474 221.12 216.592 219.35 215.637 218.537C214.5 217.569 212.957 212.151 212.492 210.381C208.599 195.545 209.463 179.305 215.287 165.108C235.446 155.672 259.765 155.806 280.001 164.964C280.35 165.255 282.309 170.852 282.569 171.775C283.768 174.502 284.52 177.76 284.379 180.815C284.683 182.898 284.628 185.357 285.28 187.141C285.651 190.088 285.642 193.641 285.28 196.632H285.283Z" fill="#FEFEFE"/>
<path d="M254.071 228.268C249.421 228.636 246.059 228.636 241.406 228.268C241.876 227.519 243.123 227.816 243.888 227.808C247.155 227.772 250.964 227.47 254.071 228.268Z" fill="#241F21"/>
<path d="M285.737 184.432H285.28V199.347H285.737V184.432Z" fill="#241F21"/>
<path d="M284.379 180.815C283.969 178.013 283.332 174.48 282.569 171.775L283.078 171.487C283.435 174.392 285.512 177.965 284.379 180.815Z" fill="#241F21"/>
<path d="M253.622 157.314H241.86V157.765H253.622V157.314Z" fill="#241F21"/>
<path d="M243.67 159.573C246.216 159.904 248.814 159.908 251.36 159.573C260.918 159.976 270.111 162.145 278.851 166.002C281.573 172.419 282.986 179.28 283.477 186.237C283.23 189.843 283.226 193.477 283.477 197.084C283.127 202.25 282.305 207.289 280.773 212.231C280.522 213.037 280.209 214.814 279.413 215.158C278.679 213.681 276.68 209.436 275.652 208.519C274.725 207.692 272.042 206.85 270.839 205.869C267.407 203.068 268.348 196.594 264.48 193.694C264.801 193.178 267.056 192.713 267.182 192.541C267.704 191.829 264.975 187.846 264.268 187.125C263.906 186.755 260.552 184.132 260.86 185.106C262.302 187.323 263.463 189.841 263.115 192.565C257.521 190.519 251.213 191.86 245.693 191.22C242.312 190.828 242.175 188.397 242.292 185.54C242.33 184.641 243.423 178.813 243.694 178.584C244.102 178.242 245.757 178.981 246.698 178.663C247.84 178.28 249.78 176.463 250.452 175.394L244.571 176.289C246.452 172.168 245.839 167.746 242.081 164.997C241.796 166.196 243.017 166.719 243.214 168.158C243.068 169.251 242.912 170.316 242.742 171.35L240.046 170.869C238.73 169.891 238.069 166.986 235.525 167.259C235.684 167.98 236.429 167.861 236.993 168.725C237.558 169.589 237.88 170.715 237.789 171.773C236.78 171.438 235.175 172.256 234.448 172.119C233.72 171.982 232.459 169.902 231.003 170.424C234.575 173.408 232.032 173.095 229.188 174.713C231.32 174.87 233.374 173.88 235.525 173.583C237.179 173.763 238.838 173.763 240.5 173.583C242.147 174.131 242.608 176.073 241.417 176.984C239.359 178.555 221.302 180.257 236.429 182.624C235.766 185.088 234.393 187.401 233.716 189.852C233.279 191.37 232.869 192.922 232.49 194.505L226.162 195.023L226.48 195.274L221.051 196.634C220.947 197.397 221.203 197.961 221.564 198.604C222.988 201.124 232.556 208.569 235.307 209.731C235.51 209.817 236.048 209.848 235.975 209.513C234.712 205.614 232.814 206.61 230.088 204.549C229.215 203.89 224.926 199.255 225.578 198.439C226.874 199.096 228.291 198.809 229.671 199.092C232.786 199.726 236.403 201.642 239.407 202.016C242.793 202.44 246.2 201.794 249.548 201.602H256.333C257.711 202.164 259.778 205.069 261.909 206.2C266.666 208.719 272.046 208.331 275.774 212.685C276.933 214.04 277.654 215.903 278.941 217.194C275.928 219.161 272.397 220.073 268.998 221.034C266.622 221.389 264.211 221.874 261.766 222.491C258.575 222.249 258.27 222.365 260.856 222.842C259.082 223.646 256.873 223.567 254.975 223.745C250.351 223.45 245.131 223.443 240.5 223.745C232.094 222.972 223.782 221.025 216.188 217.305C214.165 211.457 212.635 205.526 212.003 199.343C212.276 194.436 212.274 188.891 212.003 183.978C212.342 180.715 214.548 168.185 216.539 166.139C217.169 165.491 220.497 164.385 221.604 163.97C228.496 161.387 236.332 159.899 243.666 159.573H243.67Z" fill="#241F21"/>
<path d="M212.005 199.343C211.447 193.901 211.436 189.422 212.005 183.978C212.754 184.447 212.457 185.692 212.465 186.457C212.503 189.92 212.507 193.403 212.465 196.865C212.457 197.63 212.756 198.876 212.005 199.345V199.343Z" fill="#151113"/>
<path d="M254.977 223.748C249.703 224.246 245.788 224.235 240.503 223.748C240.972 222.998 242.22 223.296 242.984 223.287C246.15 223.254 249.332 223.247 252.495 223.287C253.26 223.296 254.506 222.998 254.977 223.748Z" fill="#0A0708"/>
<path d="M283.475 197.083C282.719 193.848 282.719 189.472 283.475 186.237C283.746 190.096 283.735 193.233 283.475 197.083Z" fill="#030202"/>
<path d="M269 221.036C266.346 221.786 263.646 222.791 260.858 222.844L259.051 222.396C261.764 222.462 264.327 221.603 266.92 220.983C267.526 220.84 268.617 220.201 269 221.036Z" fill="#1B191A"/>
<path d="M251.358 159.573C249.258 160.331 245.799 160.333 243.668 159.573C246.108 159.465 248.916 159.469 251.358 159.573Z" fill="#050203"/>
<path d="M233.718 189.852C233.445 190.844 233.473 194.187 232.843 194.626C230.725 194.992 228.651 195.377 226.482 195.274C225.979 195.25 225.007 195.587 225.126 194.826L232.34 194.348L233.205 189.558L233.718 189.852Z" fill="#221E1F"/>
<path d="M256.335 201.602C254.567 202.367 251.224 202.354 249.551 201.602C251.777 201.474 254.184 200.725 256.335 201.602Z" fill="#020101"/>
<path d="M243.216 168.16C243.368 169.276 243.11 170.62 243.214 171.775C242.114 171.709 240.963 171.553 240.051 170.874C240.492 170.226 242.387 171.257 242.764 170.876C242.973 170.664 242.332 168.462 243.218 168.162L243.216 168.16Z" fill="#0C0A0B"/>
<path d="M240.503 173.583C239.354 174.354 236.586 174.334 235.528 173.583C237.291 173.34 238.748 172.999 240.503 173.583Z" fill="#040202"/>
<path d="M215.596 246.491V250.806H206.937V244.833H203.552V259.594H206.937V254.154H215.596V259.531H219.243V244.776H217.295C216.357 244.776 215.596 245.543 215.596 246.491Z" fill="#241F21"/>
<path d="M233.372 254.366L224.563 245.31C224.523 245.263 224.478 245.218 224.431 245.175L224.389 245.131V245.135C224.158 244.945 223.865 244.83 223.543 244.83H221.493V259.592H224.878V250.311L233.687 259.338V259.327C233.849 259.473 234.06 259.562 234.296 259.562H237.019V244.862H233.372V254.366Z" fill="#241F21"/>
<path d="M193.67 244.326C188.157 244.326 184.99 247.448 184.99 252.153C184.99 256.858 188.161 259.979 193.67 259.979C199.179 259.979 202.35 256.858 202.35 252.153C202.35 247.448 199.183 244.326 193.67 244.326ZM193.67 256.858C190.625 256.858 188.157 254.752 188.157 252.153C188.157 249.554 190.625 247.448 193.67 247.448C196.715 247.448 199.183 249.554 199.183 252.153C199.183 254.752 196.715 256.858 193.67 256.858Z" fill="#241F21"/>
<path d="M178.148 252.48C178.144 254.239 176.74 255.668 174.994 255.691L168.606 255.321V259.291L175.263 259.516C178.928 259.516 181.9 256.518 181.9 252.821V240.605H178.179L178.148 252.48Z" fill="#241F21"/>
<path d="M262.056 249.338C261.646 245.256 258.596 241.94 254.629 241.028L253.882 240.858H243.398V259.421H253.882C258.716 258.888 262.396 254.655 262.09 249.76C262.081 249.619 262.07 249.48 262.054 249.338H262.056ZM256.692 255.054C256.006 255.621 255.151 255.944 254.267 256.038L253.885 256.078H247.048V244.203H253.885C254.733 244.293 255.544 244.602 256.237 245.104C256.659 245.411 257.048 245.74 257.265 245.991C257.265 245.991 257.265 245.993 257.268 245.995C258.029 246.867 258.445 247.934 258.574 249.058C258.849 251.456 258.318 253.708 256.69 255.052L256.692 255.054Z" fill="#241F21"/>
<path d="M263.418 244.432V247.752V250.506V253.826V256.125V259.287V259.444H276.676V256.125H266.708V253.826H274.451V250.506H266.708V247.752H276.676V244.432H266.708H263.418Z" fill="#241F21"/>
<path d="M278.633 244.353V247.674V250.427V253.748V256.047V259.211V259.365H291.892V256.047H281.923V253.748H289.666V250.427H281.923V247.674H291.892V244.353H281.923H278.633Z" fill="#241F21"/>
<path d="M323.606 247.757V244.436H313.639H310.348V247.757V250.51V253.831V256.128V259.291V259.448H323.606V256.128H313.639V253.831H321.38V250.51H313.639V247.757H323.606Z" fill="#241F21"/>
<path d="M304.812 253.62C306.934 252.652 308.417 250.743 308.417 248.767C308.417 247.279 307.573 246.022 306.247 245.164C305.237 244.51 304.044 244.203 302.842 244.203H293.653V258.946H296.856V254.263C298.231 254.27 299.715 254.275 301.301 254.277L304.47 258.859L308.717 258.946L304.839 253.62H304.812ZM303.919 250.349H296.854V247.134H303.919C305.243 247.134 305.243 250.349 303.919 250.349Z" fill="#241F21"/>
<defs>
<radialGradient id="paint0_radial_2122_1127" cx="0" cy="0" r="1" gradientUnits="userSpaceOnUse" gradientTransform="translate(254.334 239.403) rotate(120) scale(173.552)">
<stop offset="0.461538" stop-color="#EFEDFF"/>
<stop offset="1" stop-color="#FFE57E"/>
</radialGradient>
</defs>
</svg>
