<svg width="497" height="477" viewBox="0 0 497 477" fill="none" xmlns="http://www.w3.org/2000/svg">
<path d="M130.454 148.849C361.413 123.259 473.818 234.829 377.966 259.979" stroke="#073E99" stroke-width="31.2706" stroke-miterlimit="3.99393" stroke-linecap="round"/>
<path d="M369.734 332.038C138.775 360.081 26.3692 237.813 122.221 210.251" stroke="#073E99" stroke-width="31.2706" stroke-miterlimit="3.99393" stroke-linecap="round"/>
<ellipse cx="421.857" cy="212.101" rx="17.3369" ry="46.0174" transform="rotate(-35.6296 421.857 212.101)" fill="#073E99"/>
<path d="M242.847 326.587C314.046 314.852 457.79 277.013 481.243 191.36" stroke="#073E99" stroke-width="31.2706" stroke-miterlimit="3.99393" stroke-linecap="round"/>
<path d="M266.552 178.767C187.092 183.429 58.6657 206.401 22.8025 289.344" stroke="#073E99" stroke-width="31.2706" stroke-miterlimit="3.99393" stroke-linecap="round"/>
<ellipse cx="249.512" cy="244.884" rx="180.247" ry="81.8589" fill="#127BF3"/>
<ellipse cx="249.512" cy="239.374" rx="162.931" ry="59.0329" fill="#51BBFF"/>
<ellipse cx="249.512" cy="236.226" rx="126.724" ry="46.4392" fill="#EFEDFF"/>
<circle cx="69.2652" cy="255.903" r="7.87105" fill="#073E99"/>
<circle cx="103.898" cy="295.258" r="7.87105" fill="#073E99"/>
<circle cx="224.398" cy="346.04" r="7.87105" transform="rotate(146.771 224.398 346.04)" fill="#073E99"/>
<circle cx="113.343" cy="306.278" r="11.0195" fill="#073E99"/>
<circle cx="210.458" cy="341.999" r="11.0195" transform="rotate(146.771 210.458 341.999)" fill="#073E99"/>
<circle cx="408.808" cy="321.534" r="11.0195" transform="rotate(146.771 408.808 321.534)" fill="#073E99"/>
<circle cx="372.602" cy="247.546" r="5.99209" transform="rotate(146.771 372.602 247.546)" fill="#EFEDFF"/>
<circle cx="346.751" cy="264.199" r="5.99209" transform="rotate(146.771 346.751 264.199)" fill="#EFEDFF"/>
<circle cx="257.021" cy="283.09" r="5.99209" transform="rotate(146.771 257.021 283.09)" fill="#EFEDFF"/>
<circle cx="164.143" cy="268.922" r="5.99209" transform="rotate(146.771 164.143 268.922)" fill="#EFEDFF"/>
<circle cx="164.143" cy="201.231" r="5.99209" transform="rotate(146.771 164.143 201.231)" fill="#51BBFF"/>
<circle cx="246.002" cy="190.211" r="5.99209" transform="rotate(146.771 246.002 190.211)" fill="#51BBFF"/>
<circle cx="260.17" cy="188.637" r="5.99209" transform="rotate(146.771 260.17 188.637)" fill="#51BBFF"/>
<circle cx="312.119" cy="276.793" r="5.99209" transform="rotate(146.771 312.119 276.793)" fill="#51BBFF"/>
<circle cx="217.666" cy="281.515" r="5.99209" transform="rotate(146.771 217.666 281.515)" fill="#51BBFF"/>
<circle cx="234.982" cy="190.211" r="5.99209" transform="rotate(146.771 234.982 190.211)" fill="#51BBFF"/>
<circle cx="321.564" cy="196.508" r="5.99209" transform="rotate(146.771 321.564 196.508)" fill="#51BBFF"/>
<circle cx="371.939" cy="239.012" r="5.99209" transform="rotate(146.771 371.939 239.012)" fill="#EFEDFF"/>
<circle cx="370.364" cy="224.844" r="5.99209" transform="rotate(146.771 370.364 224.844)" fill="#EFEDFF"/>
<circle cx="340.454" cy="204.379" r="5.99209" transform="rotate(146.771 340.454 204.379)" fill="#EFEDFF"/>
<circle cx="379.81" cy="205.953" r="5.99209" transform="rotate(146.771 379.81 205.953)" fill="#51BBFF"/>
<circle cx="90.1548" cy="229.566" r="5.99209" transform="rotate(146.771 90.1548 229.566)" fill="#51BBFF"/>
<circle cx="183.033" cy="290.961" r="5.99209" transform="rotate(146.771 183.033 290.961)" fill="#51BBFF"/>
<circle cx="102.749" cy="267.348" r="5.99209" transform="rotate(146.771 102.749 267.348)" fill="#073E99"/>
<circle cx="181.459" cy="183.914" r="5.99209" transform="rotate(146.771 181.459 183.914)" fill="#073E99"/>
<circle cx="384.532" cy="272.07" r="5.99209" transform="rotate(146.771 384.532 272.07)" fill="#073E99"/>
<circle cx="412.867" cy="245.308" r="5.99209" transform="rotate(146.771 412.867 245.308)" fill="#073E99"/>
<circle cx="211.369" cy="183.914" r="5.99209" transform="rotate(146.771 211.369 183.914)" fill="#51BBFF"/>
<circle cx="389.917" cy="175.133" r="11.0195" transform="rotate(146.771 389.917 175.133)" fill="#073E99"/>
<circle cx="300.188" cy="142.074" r="11.0195" transform="rotate(146.771 300.188 142.074)" fill="#073E99"/>
<circle cx="111.284" cy="149.945" r="11.0195" transform="rotate(146.771 111.284 149.945)" fill="#073E99"/>
<circle cx="15.5354" cy="328.11" r="11.0195" transform="rotate(-139.522 15.5354 328.11)" fill="#073E99"/>
<circle cx="436.744" cy="313.263" r="5.0454" transform="rotate(146.771 436.744 313.263)" fill="#073E99"/>
<circle cx="96.7161" cy="152.694" r="5.0454" transform="rotate(146.771 96.7161 152.694)" fill="#073E99"/>
<circle cx="485.545" cy="174.733" r="5.0454" transform="rotate(146.771 485.545 174.733)" fill="#073E99"/>
<circle cx="31.3113" cy="352.603" r="5.0454" transform="rotate(-139.522 31.3113 352.603)" fill="#073E99"/>
<ellipse cx="91.4057" cy="281.048" rx="7.87105" ry="15.7421" transform="rotate(-37.6195 91.4057 281.048)" fill="#073E99"/>
<ellipse cx="156.558" cy="322.904" rx="12.473" ry="33.107" transform="rotate(-66.8208 156.558 322.904)" fill="#073E99"/>
<ellipse cx="275.398" cy="347.319" rx="17.3369" ry="46.0174" transform="rotate(-85.9072 275.398 347.319)" fill="#073E99"/>
<ellipse cx="221.419" cy="141.28" rx="17.3369" ry="46.0174" transform="rotate(-87.6814 221.419 141.28)" fill="#073E99"/>
<path d="M342.152 87.2971L271.72 233.981L406.058 325.797L259.374 255.364L167.558 389.703L237.991 243.019L103.652 151.203L250.336 221.635L342.152 87.2971Z" fill="url(#paint0_radial_2228_5)"/>
<path d="M221.897 246.248C221.944 246.328 221.885 246.429 221.792 246.429H205.3C205.257 246.429 205.217 246.406 205.195 246.369L187.718 216.181C187.671 216.101 187.73 216 187.823 216H203.687C204.119 216 204.518 216.23 204.734 216.603L221.897 246.248ZM176.582 230.317C176.628 230.398 176.57 230.498 176.477 230.498H159.985C159.942 230.498 159.902 230.475 159.88 230.438L151.613 216.181C151.566 216.101 151.625 216 151.718 216H167.582C168.014 216 168.413 216.229 168.629 216.603L176.582 230.317ZM133.015 247.748C132.799 247.375 132.799 246.916 133.015 246.543L150.178 216.897C150.225 216.817 150.341 216.817 150.388 216.897L157.211 228.686L158.614 231.155C158.635 231.192 158.635 231.237 158.613 231.274L155.479 236.736L141.178 261.504C141.132 261.585 141.015 261.585 140.968 261.504L133.015 247.748ZM159.462 261.757C159.245 262.13 158.846 262.36 158.414 262.36H142.55C142.457 262.36 142.399 262.259 142.445 262.179L159.922 231.991C159.944 231.954 159.984 231.931 160.027 231.931H176.519C176.612 231.931 176.671 232.031 176.624 232.112L159.462 261.757ZM178.33 231.859C178.114 231.486 178.114 231.027 178.33 230.654L186.283 216.898C186.33 216.817 186.447 216.817 186.493 216.898L200.794 241.667L203.928 247.128C203.95 247.165 203.95 247.21 203.928 247.247L202.526 249.716L195.703 261.504C195.656 261.585 195.54 261.585 195.493 261.504L178.33 231.859ZM213.944 261.757C213.728 262.13 213.329 262.36 212.897 262.36H197.033C196.939 262.36 196.881 262.259 196.928 262.179L205.195 247.922C205.217 247.885 205.257 247.862 205.3 247.862H221.792C221.885 247.862 221.943 247.962 221.897 248.043L213.944 261.757Z" fill="#241F21"/>
<path d="M272.799 222.585H280.916V256.341H274.829V232.279L265.454 256.341H259.945L250.573 232.231V256.341H244.483V222.585H252.603L262.701 248.625L272.802 222.585H272.799ZM308.386 237.412C309.465 239.356 310.004 241.567 310.004 244.042C310.004 246.517 309.465 248.729 308.386 250.672C307.307 252.618 305.792 254.137 303.845 255.231C301.894 256.324 299.681 256.87 297.198 256.87C294.716 256.87 292.416 256.317 290.482 255.207C288.55 254.098 287.035 252.57 285.941 250.626C284.845 248.683 284.299 246.486 284.299 244.042C284.299 241.599 284.845 239.366 285.941 237.436C287.037 235.507 288.559 233.989 290.509 232.88C292.457 231.772 294.69 231.217 297.201 231.217C299.712 231.217 301.938 231.765 303.871 232.856C305.804 233.953 307.309 235.471 308.39 237.415L308.386 237.412ZM304.156 244.042C304.156 242.565 303.869 241.239 303.288 240.066C302.707 238.892 301.887 237.992 300.825 237.364C299.761 236.739 298.553 236.425 297.198 236.425C295.844 236.425 294.588 236.739 293.528 237.364C292.464 237.992 291.634 238.883 291.039 240.039C290.444 241.198 290.144 242.531 290.144 244.042C290.144 245.554 290.444 246.887 291.039 248.045C291.634 249.204 292.464 250.095 293.528 250.723C294.591 251.348 295.815 251.662 297.198 251.662C298.582 251.662 299.761 251.348 300.825 250.723C301.887 250.095 302.71 249.204 303.288 248.045C303.869 246.889 304.156 245.554 304.156 244.042ZM331.989 222.102H337.834V256.341H331.989V253.497C331.217 254.528 330.199 255.347 328.945 255.955C327.69 256.566 326.192 256.87 324.45 256.87C322.195 256.87 320.197 256.348 318.46 255.303C316.72 254.258 315.368 252.77 314.4 250.841C313.435 248.912 312.951 246.645 312.951 244.042C312.951 241.44 313.418 239.269 314.352 237.34C315.285 235.411 316.597 233.909 318.29 232.832C319.982 231.755 321.97 231.217 324.259 231.217C326.03 231.217 327.552 231.504 328.824 232.084C330.097 232.663 331.152 233.45 331.989 234.445V222.1V222.102ZM332.182 244.042C332.182 242.565 331.909 241.239 331.36 240.066C330.813 238.892 330.039 237.992 329.042 237.364C328.043 236.739 326.867 236.425 325.515 236.425C324.094 236.425 322.88 236.739 321.866 237.364C320.853 237.992 320.078 238.892 319.546 240.066C319.016 241.239 318.75 242.565 318.75 244.042C318.75 245.52 319.016 246.848 319.546 248.021C320.078 249.195 320.86 250.093 321.891 250.721C322.924 251.346 324.131 251.66 325.517 251.66C326.903 251.66 328.004 251.346 329.018 250.721C330.032 250.093 330.815 249.195 331.362 248.021C331.911 246.848 332.185 245.522 332.185 244.042H332.182ZM360.256 231.746H366.102V256.339H360.256V253.543C359.451 254.571 358.42 255.383 357.164 255.979C355.909 256.573 354.409 256.87 352.669 256.87C350.414 256.87 348.419 256.348 346.679 255.303C344.94 254.258 343.594 252.77 342.644 250.841C341.693 248.912 341.219 246.645 341.219 244.042C341.219 241.44 341.686 239.269 342.619 237.34C343.553 235.411 344.865 233.909 346.558 232.832C348.249 231.755 350.238 231.217 352.527 231.217C354.329 231.217 355.892 231.531 357.213 232.156C358.532 232.784 359.548 233.595 360.256 234.59V231.746ZM360.448 244.042C360.448 242.565 360.174 241.239 359.625 240.066C359.078 238.892 358.304 237.992 357.307 237.364C356.308 236.739 355.132 236.425 353.78 236.425C352.36 236.425 351.145 236.739 350.131 237.364C349.118 237.992 348.343 238.892 347.811 240.066C347.282 241.239 347.015 242.565 347.015 244.042C347.015 245.52 347.282 246.848 347.811 248.021C348.343 249.195 349.125 250.093 350.156 250.721C351.189 251.346 352.396 251.66 353.782 251.66C355.169 251.66 356.269 251.346 357.283 250.721C358.297 250.093 359.081 249.195 359.627 248.021C360.177 246.848 360.45 245.522 360.45 244.042H360.448ZM371.006 222.102V256.341H376.853V222.102H371.006Z" fill="#241F21"/>
<defs>
<radialGradient id="paint0_radial_2228_5" cx="0" cy="0" r="1" gradientUnits="userSpaceOnUse" gradientTransform="translate(254.334 239.403) rotate(120) scale(173.552)">
<stop offset="0.461538" stop-color="#EFEDFF"/>
<stop offset="1" stop-color="#FFE57E"/>
</radialGradient>
</defs>
</svg>
