<svg width="453" height="453" viewBox="0 0 453 453" fill="none" xmlns="http://www.w3.org/2000/svg">
<path d="M6.37591 12.8187C9.85947 12.8187 12.6834 9.99472 12.6834 6.51116C12.6834 3.0276 9.85947 0.203613 6.37591 0.203613C2.89235 0.203613 0.0683594 3.0276 0.0683594 6.51116C0.0683594 9.99472 2.89235 12.8187 6.37591 12.8187Z" fill="#FCE891"/>
<path d="M61.2929 12.8187C64.7765 12.8187 67.6004 9.99472 67.6004 6.51116C67.6004 3.0276 64.7765 0.203613 61.2929 0.203613C57.8093 0.203613 54.9854 3.0276 54.9854 6.51116C54.9854 9.99472 57.8093 12.8187 61.2929 12.8187Z" fill="#FCE891"/>
<path d="M116.278 12.8187C119.762 12.8187 122.586 9.99472 122.586 6.51116C122.586 3.0276 119.762 0.203613 116.278 0.203613C112.795 0.203613 109.971 3.0276 109.971 6.51116C109.971 9.99472 112.795 12.8187 116.278 12.8187Z" fill="#FCE891"/>
<path d="M171.195 12.8187C174.678 12.8187 177.502 9.99472 177.502 6.51116C177.502 3.0276 174.678 0.203613 171.195 0.203613C167.711 0.203613 164.887 3.0276 164.887 6.51116C164.887 9.99472 167.711 12.8187 171.195 12.8187Z" fill="#FCE891"/>
<path d="M226.181 12.8187C229.664 12.8187 232.488 9.99472 232.488 6.51116C232.488 3.0276 229.664 0.203613 226.181 0.203613C222.697 0.203613 219.873 3.0276 219.873 6.51116C219.873 9.99472 222.697 12.8187 226.181 12.8187Z" fill="#FCE891"/>
<path d="M281.097 12.8187C284.581 12.8187 287.405 9.99472 287.405 6.51116C287.405 3.0276 284.581 0.203613 281.097 0.203613C277.614 0.203613 274.79 3.0276 274.79 6.51116C274.79 9.99472 277.614 12.8187 281.097 12.8187Z" fill="#FCE891"/>
<path d="M336.082 12.8187C339.566 12.8187 342.39 9.99472 342.39 6.51116C342.39 3.0276 339.566 0.203613 336.082 0.203613C332.599 0.203613 329.775 3.0276 329.775 6.51116C329.775 9.99472 332.599 12.8187 336.082 12.8187Z" fill="#FCE891"/>
<path d="M390.999 12.8187C394.482 12.8187 397.306 9.99472 397.306 6.51116C397.306 3.0276 394.482 0.203613 390.999 0.203613C387.515 0.203613 384.691 3.0276 384.691 6.51116C384.691 9.99472 387.515 12.8187 390.999 12.8187Z" fill="#FCE891"/>
<path d="M445.984 12.8187C449.468 12.8187 452.292 9.99472 452.292 6.51116C452.292 3.0276 449.468 0.203613 445.984 0.203613C442.501 0.203613 439.677 3.0276 439.677 6.51116C439.677 9.99472 442.501 12.8187 445.984 12.8187Z" fill="#FCE891"/>
<path d="M6.37591 67.804C9.85947 67.804 12.6834 64.9801 12.6834 61.4965C12.6834 58.013 9.85947 55.189 6.37591 55.189C2.89235 55.189 0.0683594 58.013 0.0683594 61.4965C0.0683594 64.9801 2.89235 67.804 6.37591 67.804Z" fill="#FCE891"/>
<path d="M61.2929 67.804C64.7765 67.804 67.6004 64.9801 67.6004 61.4965C67.6004 58.013 64.7765 55.189 61.2929 55.189C57.8093 55.189 54.9854 58.013 54.9854 61.4965C54.9854 64.9801 57.8093 67.804 61.2929 67.804Z" fill="#FCE891"/>
<path d="M116.278 67.804C119.762 67.804 122.586 64.9801 122.586 61.4965C122.586 58.013 119.762 55.189 116.278 55.189C112.795 55.189 109.971 58.013 109.971 61.4965C109.971 64.9801 112.795 67.804 116.278 67.804Z" fill="#FCE891"/>
<path d="M171.195 67.804C174.678 67.804 177.502 64.9801 177.502 61.4965C177.502 58.013 174.678 55.189 171.195 55.189C167.711 55.189 164.887 58.013 164.887 61.4965C164.887 64.9801 167.711 67.804 171.195 67.804Z" fill="#FCE891"/>
<path d="M226.181 67.804C229.664 67.804 232.488 64.9801 232.488 61.4965C232.488 58.013 229.664 55.189 226.181 55.189C222.697 55.189 219.873 58.013 219.873 61.4965C219.873 64.9801 222.697 67.804 226.181 67.804Z" fill="#FCE891"/>
<path d="M281.097 67.804C284.581 67.804 287.405 64.9801 287.405 61.4965C287.405 58.013 284.581 55.189 281.097 55.189C277.614 55.189 274.79 58.013 274.79 61.4965C274.79 64.9801 277.614 67.804 281.097 67.804Z" fill="#FCE891"/>
<path d="M336.082 67.804C339.566 67.804 342.39 64.9801 342.39 61.4965C342.39 58.013 339.566 55.189 336.082 55.189C332.599 55.189 329.775 58.013 329.775 61.4965C329.775 64.9801 332.599 67.804 336.082 67.804Z" fill="#FCE891"/>
<path d="M390.999 67.804C394.482 67.804 397.306 64.9801 397.306 61.4965C397.306 58.013 394.482 55.189 390.999 55.189C387.515 55.189 384.691 58.013 384.691 61.4965C384.691 64.9801 387.515 67.804 390.999 67.804Z" fill="#FCE891"/>
<path d="M445.984 67.804C449.468 67.804 452.292 64.9801 452.292 61.4965C452.292 58.013 449.468 55.189 445.984 55.189C442.501 55.189 439.677 58.013 439.677 61.4965C439.677 64.9801 442.501 67.804 445.984 67.804Z" fill="#FCE891"/>
<path d="M6.37591 122.721C9.85947 122.721 12.6834 119.897 12.6834 116.413C12.6834 112.929 9.85947 110.105 6.37591 110.105C2.89235 110.105 0.0683594 112.929 0.0683594 116.413C0.0683594 119.897 2.89235 122.721 6.37591 122.721Z" fill="#FCE891"/>
<path d="M61.2929 122.721C64.7765 122.721 67.6004 119.897 67.6004 116.413C67.6004 112.929 64.7765 110.105 61.2929 110.105C57.8093 110.105 54.9854 112.929 54.9854 116.413C54.9854 119.897 57.8093 122.721 61.2929 122.721Z" fill="#FCE891"/>
<path d="M116.278 122.721C119.762 122.721 122.586 119.897 122.586 116.413C122.586 112.929 119.762 110.105 116.278 110.105C112.795 110.105 109.971 112.929 109.971 116.413C109.971 119.897 112.795 122.721 116.278 122.721Z" fill="#FCE891"/>
<path d="M171.195 122.721C174.678 122.721 177.502 119.897 177.502 116.413C177.502 112.929 174.678 110.105 171.195 110.105C167.711 110.105 164.887 112.929 164.887 116.413C164.887 119.897 167.711 122.721 171.195 122.721Z" fill="#FCE891"/>
<path d="M226.181 122.721C229.664 122.721 232.488 119.897 232.488 116.413C232.488 112.929 229.664 110.105 226.181 110.105C222.697 110.105 219.873 112.929 219.873 116.413C219.873 119.897 222.697 122.721 226.181 122.721Z" fill="#FCE891"/>
<path d="M281.097 122.721C284.581 122.721 287.405 119.897 287.405 116.413C287.405 112.929 284.581 110.105 281.097 110.105C277.614 110.105 274.79 112.929 274.79 116.413C274.79 119.897 277.614 122.721 281.097 122.721Z" fill="#FCE891"/>
<path d="M336.082 122.721C339.566 122.721 342.39 119.897 342.39 116.413C342.39 112.929 339.566 110.105 336.082 110.105C332.599 110.105 329.775 112.929 329.775 116.413C329.775 119.897 332.599 122.721 336.082 122.721Z" fill="#FCE891"/>
<path d="M390.999 122.721C394.482 122.721 397.306 119.897 397.306 116.413C397.306 112.929 394.482 110.105 390.999 110.105C387.515 110.105 384.691 112.929 384.691 116.413C384.691 119.897 387.515 122.721 390.999 122.721Z" fill="#FCE891"/>
<path d="M445.984 122.721C449.468 122.721 452.292 119.897 452.292 116.413C452.292 112.929 449.468 110.105 445.984 110.105C442.501 110.105 439.677 112.929 439.677 116.413C439.677 119.897 442.501 122.721 445.984 122.721Z" fill="#FCE891"/>
</svg>
