<svg width="1318" height="744" viewBox="0 0 1318 744" fill="none" xmlns="http://www.w3.org/2000/svg">
<path d="M1146.39 103.937C1149.88 103.937 1152.7 101.113 1152.7 97.6298C1152.7 94.1463 1149.88 91.3223 1146.39 91.3223C1142.91 91.3223 1140.08 94.1463 1140.08 97.6298C1140.08 101.113 1142.91 103.937 1146.39 103.937Z" fill="#B4E4DF"/>
<path d="M1201.38 103.937C1204.86 103.937 1207.69 101.113 1207.69 97.6298C1207.69 94.1463 1204.86 91.3223 1201.38 91.3223C1197.89 91.3223 1195.07 94.1463 1195.07 97.6298C1195.07 101.113 1197.89 103.937 1201.38 103.937Z" fill="#B4E4DF"/>
<path d="M1256.29 103.937C1259.78 103.937 1262.6 101.113 1262.6 97.6298C1262.6 94.1463 1259.78 91.3223 1256.29 91.3223C1252.81 91.3223 1249.99 94.1463 1249.99 97.6298C1249.99 101.113 1252.81 103.937 1256.29 103.937Z" fill="#B4E4DF"/>
<path d="M1311.28 103.937C1314.76 103.937 1317.59 101.113 1317.59 97.6298C1317.59 94.1463 1314.76 91.3223 1311.28 91.3223C1307.8 91.3223 1304.97 94.1463 1304.97 97.6298C1304.97 101.113 1307.8 103.937 1311.28 103.937Z" fill="#B4E4DF"/>
<path d="M1146.39 158.923C1149.88 158.923 1152.7 156.099 1152.7 152.615C1152.7 149.132 1149.88 146.308 1146.39 146.308C1142.91 146.308 1140.08 149.132 1140.08 152.615C1140.08 156.099 1142.91 158.923 1146.39 158.923Z" fill="#B4E4DF"/>
<path d="M1201.38 158.923C1204.86 158.923 1207.69 156.099 1207.69 152.615C1207.69 149.132 1204.86 146.308 1201.38 146.308C1197.89 146.308 1195.07 149.132 1195.07 152.615C1195.07 156.099 1197.89 158.923 1201.38 158.923Z" fill="#B4E4DF"/>
<path d="M1256.29 158.923C1259.78 158.923 1262.6 156.099 1262.6 152.615C1262.6 149.132 1259.78 146.308 1256.29 146.308C1252.81 146.308 1249.99 149.132 1249.99 152.615C1249.99 156.099 1252.81 158.923 1256.29 158.923Z" fill="#B4E4DF"/>
<path d="M1311.28 158.923C1314.76 158.923 1317.59 156.099 1317.59 152.615C1317.59 149.132 1314.76 146.308 1311.28 146.308C1307.8 146.308 1304.97 149.132 1304.97 152.615C1304.97 156.099 1307.8 158.923 1311.28 158.923Z" fill="#B4E4DF"/>
<path d="M1146.39 213.84C1149.88 213.84 1152.7 211.016 1152.7 207.532C1152.7 204.049 1149.88 201.225 1146.39 201.225C1142.91 201.225 1140.08 204.049 1140.08 207.532C1140.08 211.016 1142.91 213.84 1146.39 213.84Z" fill="#B4E4DF"/>
<path d="M1201.38 213.84C1204.86 213.84 1207.69 211.016 1207.69 207.532C1207.69 204.049 1204.86 201.225 1201.38 201.225C1197.89 201.225 1195.07 204.049 1195.07 207.532C1195.07 211.016 1197.89 213.84 1201.38 213.84Z" fill="#B4E4DF"/>
<path d="M1256.29 213.84C1259.78 213.84 1262.6 211.016 1262.6 207.532C1262.6 204.049 1259.78 201.225 1256.29 201.225C1252.81 201.225 1249.99 204.049 1249.99 207.532C1249.99 211.016 1252.81 213.84 1256.29 213.84Z" fill="#B4E4DF"/>
<path d="M1311.28 213.84C1314.76 213.84 1317.59 211.016 1317.59 207.532C1317.59 204.049 1314.76 201.225 1311.28 201.225C1307.8 201.225 1304.97 204.049 1304.97 207.532C1304.97 211.016 1307.8 213.84 1311.28 213.84Z" fill="#B4E4DF"/>
<path d="M1146.39 268.825C1149.88 268.825 1152.7 266.001 1152.7 262.517C1152.7 259.033 1149.88 256.209 1146.39 256.209C1142.91 256.209 1140.08 259.033 1140.08 262.517C1140.08 266.001 1142.91 268.825 1146.39 268.825Z" fill="#B4E4DF"/>
<path d="M1201.38 268.825C1204.86 268.825 1207.69 266.001 1207.69 262.517C1207.69 259.033 1204.86 256.209 1201.38 256.209C1197.89 256.209 1195.07 259.033 1195.07 262.517C1195.07 266.001 1197.89 268.825 1201.38 268.825Z" fill="#B4E4DF"/>
<path d="M1256.29 268.825C1259.78 268.825 1262.6 266.001 1262.6 262.517C1262.6 259.033 1259.78 256.209 1256.29 256.209C1252.81 256.209 1249.99 259.033 1249.99 262.517C1249.99 266.001 1252.81 268.825 1256.29 268.825Z" fill="#B4E4DF"/>
<path d="M1311.28 268.825C1314.76 268.825 1317.59 266.001 1317.59 262.517C1317.59 259.033 1314.76 256.209 1311.28 256.209C1307.8 256.209 1304.97 259.033 1304.97 262.517C1304.97 266.001 1307.8 268.825 1311.28 268.825Z" fill="#B4E4DF"/>
<path d="M106.543 30.4409H0V45.6613H106.543V30.4409Z" fill="#68C8BF"/>
<path d="M106.543 0H0V15.2204H106.543V0Z" fill="#68C8BF"/>
<path d="M1234.32 334.78H1127.78V350H1234.32V334.78Z" fill="#FBA036"/>
<path d="M1051.75 0H945.204V15.2204H1051.75V0Z" fill="#FBDE56"/>
<path d="M838.543 543H732V558.22H838.543V543Z" fill="#FBDE56"/>
<path d="M214.763 91.3223H579.984H214.763Z" stroke="#FBA036" stroke-width="7.17359" stroke-miterlimit="10"/>
<path d="M762.56 740H1127.78H762.56Z" stroke="#95D8D2" stroke-width="7.17359" stroke-miterlimit="10"/>
<path d="M978.61 195.22C982.813 195.22 986.22 191.813 986.22 187.61C986.22 183.407 982.813 180 978.61 180C974.407 180 971 183.407 971 187.61C971 191.813 974.407 195.22 978.61 195.22Z" stroke="#FBC587" stroke-width="7.17359" stroke-miterlimit="10"/>
<path d="M978.61 256.102C982.813 256.102 986.22 252.695 986.22 248.492C986.22 244.289 982.813 240.882 978.61 240.882C974.407 240.882 971 244.289 971 248.492C971 252.695 974.407 256.102 978.61 256.102Z" stroke="#FBC587" stroke-width="7.17359" stroke-miterlimit="10"/>
<path d="M978.61 316.983C982.813 316.983 986.22 313.576 986.22 309.373C986.22 305.17 982.813 301.763 978.61 301.763C974.407 301.763 971 305.17 971 309.373C971 313.576 974.407 316.983 978.61 316.983Z" stroke="#FBC587" stroke-width="7.17359" stroke-miterlimit="10"/>
<path d="M210.644 712C214.847 712 218.255 708.593 218.255 704.39C218.255 700.187 214.847 696.78 210.644 696.78C206.441 696.78 203.034 700.187 203.034 704.39C203.034 708.593 206.441 712 210.644 712Z" stroke="#FBC587" stroke-width="7.17359" stroke-miterlimit="10"/>
<path d="M149.763 712C153.966 712 157.373 708.593 157.373 704.39C157.373 700.187 153.966 696.78 149.763 696.78C145.56 696.78 142.153 700.187 142.153 704.39C142.153 708.593 145.56 712 149.763 712Z" stroke="#FBC587" stroke-width="7.17359" stroke-miterlimit="10"/>
<path d="M88.8817 712C93.0847 712 96.4919 708.593 96.4919 704.39C96.4919 700.187 93.0847 696.78 88.8817 696.78C84.6787 696.78 81.2715 700.187 81.2715 704.39C81.2715 708.593 84.6787 712 88.8817 712Z" stroke="#FBC587" stroke-width="7.17359" stroke-miterlimit="10"/>
<path d="M732.187 121.763H701.746V152.203H732.187V121.763Z" fill="#FBC587"/>
<path d="M762.628 91.3223H732.187V121.763H762.628V91.3223Z" fill="#68C8BF"/>
<path d="M483.661 711.56H453.221V742H483.661V711.56Z" fill="#68C8BF"/>
<path d="M1303.37 586.22C1307.58 586.22 1310.98 582.813 1310.98 578.61C1310.98 574.407 1307.58 571 1303.37 571C1299.17 571 1295.76 574.407 1295.76 578.61C1295.76 582.813 1299.17 586.22 1303.37 586.22Z" stroke="#FBC587" stroke-width="7.17359" stroke-miterlimit="10"/>
<path d="M1242.49 586.22C1246.7 586.22 1250.1 582.813 1250.1 578.61C1250.1 574.407 1246.7 571 1242.49 571C1238.29 571 1234.88 574.407 1234.88 578.61C1234.88 582.813 1238.29 586.22 1242.49 586.22Z" stroke="#FBC587" stroke-width="7.17359" stroke-miterlimit="10"/>
<path d="M1181.61 586.22C1185.81 586.22 1189.22 582.813 1189.22 578.61C1189.22 574.407 1185.81 571 1181.61 571C1177.41 571 1174 574.407 1174 578.61C1174 582.813 1177.41 586.22 1181.61 586.22Z" stroke="#FBC587" stroke-width="7.17359" stroke-miterlimit="10"/>
</svg>
