<svg width="999" height="805" viewBox="0 0 999 805" fill="none" xmlns="http://www.w3.org/2000/svg">
    <path d="M554.29 392.828C557.765 392.828 560.581 390.18 560.581 386.914C560.581 383.648 557.765 381 554.29 381C550.816 381 548 383.648 548 386.914C548 390.18 550.816 392.828 554.29 392.828Z" fill="#FCE891"/>
    <path d="M609.059 392.828C612.533 392.828 615.35 390.18 615.35 386.914C615.35 383.648 612.533 381 609.059 381C605.585 381 602.769 383.648 602.769 386.914C602.769 390.18 605.585 392.828 609.059 392.828Z" fill="#FCE891"/>
    <path d="M663.895 392.828C667.369 392.828 670.186 390.18 670.186 386.914C670.186 383.648 667.369 381 663.895 381C660.421 381 657.605 383.648 657.605 386.914C657.605 390.18 660.421 392.828 663.895 392.828Z" fill="#FCE891"/>
    <path d="M718.663 392.828C722.137 392.828 724.954 390.18 724.954 386.914C724.954 383.648 722.137 381 718.663 381C715.189 381 712.373 383.648 712.373 386.914C712.373 390.18 715.189 392.828 718.663 392.828Z" fill="#FCE891"/>
    <path d="M773.5 392.828C776.974 392.828 779.791 390.18 779.791 386.914C779.791 383.648 776.974 381 773.5 381C770.026 381 767.21 383.648 767.21 386.914C767.21 390.18 770.026 392.828 773.5 392.828Z" fill="#FCE891"/>
    <path d="M828.268 392.828C831.742 392.828 834.559 390.18 834.559 386.914C834.559 383.648 831.742 381 828.268 381C824.794 381 821.978 383.648 821.978 386.914C821.978 390.18 824.794 392.828 828.268 392.828Z" fill="#FCE891"/>
    <path d="M883.105 392.828C886.579 392.828 889.395 390.18 889.395 386.914C889.395 383.648 886.579 381 883.105 381C879.631 381 876.814 383.648 876.814 386.914C876.814 390.18 879.631 392.828 883.105 392.828Z" fill="#FCE891"/>
    <path d="M937.873 392.828C941.347 392.828 944.163 390.18 944.163 386.914C944.163 383.648 941.347 381 937.873 381C934.399 381 931.583 383.648 931.583 386.914C931.583 390.18 934.399 392.828 937.873 392.828Z" fill="#FCE891"/>
    <path d="M992.709 392.828C996.184 392.828 999 390.18 999 386.914C999 383.648 996.184 381 992.709 381C989.235 381 986.419 383.648 986.419 386.914C986.419 390.18 989.235 392.828 992.709 392.828Z" fill="#FCE891"/>
    <path d="M554.29 444.381C557.765 444.381 560.581 441.734 560.581 438.468C560.581 435.201 557.765 432.554 554.29 432.554C550.816 432.554 548 435.201 548 438.468C548 441.734 550.816 444.381 554.29 444.381Z" fill="#FCE891"/>
    <path d="M609.059 444.381C612.533 444.381 615.35 441.734 615.35 438.468C615.35 435.201 612.533 432.554 609.059 432.554C605.585 432.554 602.769 435.201 602.769 438.468C602.769 441.734 605.585 444.381 609.059 444.381Z" fill="#FCE891"/>
    <path d="M663.895 444.381C667.369 444.381 670.186 441.734 670.186 438.468C670.186 435.201 667.369 432.554 663.895 432.554C660.421 432.554 657.605 435.201 657.605 438.468C657.605 441.734 660.421 444.381 663.895 444.381Z" fill="#FCE891"/>
    <path d="M718.663 444.381C722.137 444.381 724.954 441.734 724.954 438.468C724.954 435.201 722.137 432.554 718.663 432.554C715.189 432.554 712.373 435.201 712.373 438.468C712.373 441.734 715.189 444.381 718.663 444.381Z" fill="#FCE891"/>
    <path d="M773.5 444.381C776.974 444.381 779.791 441.734 779.791 438.468C779.791 435.201 776.974 432.554 773.5 432.554C770.026 432.554 767.21 435.201 767.21 438.468C767.21 441.734 770.026 444.381 773.5 444.381Z" fill="#FCE891"/>
    <path d="M828.268 444.381C831.742 444.381 834.559 441.734 834.559 438.468C834.559 435.201 831.742 432.554 828.268 432.554C824.794 432.554 821.978 435.201 821.978 438.468C821.978 441.734 824.794 444.381 828.268 444.381Z" fill="#FCE891"/>
    <path d="M883.105 444.381C886.579 444.381 889.395 441.734 889.395 438.468C889.395 435.201 886.579 432.554 883.105 432.554C879.631 432.554 876.814 435.201 876.814 438.468C876.814 441.734 879.631 444.381 883.105 444.381Z" fill="#FCE891"/>
    <path d="M937.873 444.381C941.347 444.381 944.164 441.734 944.164 438.468C944.164 435.201 941.347 432.554 937.873 432.554C934.399 432.554 931.583 435.201 931.583 438.468C931.583 441.734 934.399 444.381 937.873 444.381Z" fill="#FCE891"/>
    <path d="M992.709 444.381C996.184 444.381 999 441.734 999 438.468C999 435.201 996.184 432.554 992.709 432.554C989.235 432.554 986.419 435.201 986.419 438.468C986.419 441.734 989.235 444.381 992.709 444.381Z" fill="#FCE891"/>
    <path d="M554.29 495.871C557.765 495.871 560.581 493.223 560.581 489.957C560.581 486.691 557.765 484.043 554.29 484.043C550.816 484.043 548 486.691 548 489.957C548 493.223 550.816 495.871 554.29 495.871Z" fill="#FCE891"/>
    <path d="M609.059 495.871C612.533 495.871 615.35 493.223 615.35 489.957C615.35 486.691 612.533 484.043 609.059 484.043C605.585 484.043 602.769 486.691 602.769 489.957C602.769 493.223 605.585 495.871 609.059 495.871Z" fill="#FCE891"/>
    <path d="M663.895 495.871C667.369 495.871 670.186 493.223 670.186 489.957C670.186 486.691 667.369 484.043 663.895 484.043C660.421 484.043 657.605 486.691 657.605 489.957C657.605 493.223 660.421 495.871 663.895 495.871Z" fill="#FCE891"/>
    <path d="M718.663 495.871C722.137 495.871 724.954 493.223 724.954 489.957C724.954 486.691 722.137 484.043 718.663 484.043C715.189 484.043 712.373 486.691 712.373 489.957C712.373 493.223 715.189 495.871 718.663 495.871Z" fill="#FCE891"/>
    <path d="M773.5 495.871C776.974 495.871 779.791 493.223 779.791 489.957C779.791 486.691 776.974 484.043 773.5 484.043C770.026 484.043 767.21 486.691 767.21 489.957C767.21 493.223 770.026 495.871 773.5 495.871Z" fill="#FCE891"/>
    <path d="M828.268 495.871C831.742 495.871 834.559 493.223 834.559 489.957C834.559 486.691 831.742 484.043 828.268 484.043C824.794 484.043 821.978 486.691 821.978 489.957C821.978 493.223 824.794 495.871 828.268 495.871Z" fill="#FCE891"/>
    <path d="M883.105 495.871C886.579 495.871 889.395 493.223 889.395 489.957C889.395 486.691 886.579 484.043 883.105 484.043C879.631 484.043 876.814 486.691 876.814 489.957C876.814 493.223 879.631 495.871 883.105 495.871Z" fill="#FCE891"/>
    <path d="M937.873 495.871C941.347 495.871 944.164 493.223 944.164 489.957C944.164 486.691 941.347 484.043 937.873 484.043C934.399 484.043 931.583 486.691 931.583 489.957C931.583 493.223 934.399 495.871 937.873 495.871Z" fill="#FCE891"/>
    <path d="M992.709 495.871C996.184 495.871 999 493.223 999 489.957C999 486.691 996.184 484.043 992.709 484.043C989.235 484.043 986.419 486.691 986.419 489.957C986.419 493.223 989.235 495.871 992.709 495.871Z" fill="#FCE891"/>
    <path d="M554.29 547.425C557.765 547.425 560.581 544.777 560.581 541.511C560.581 538.244 557.765 535.597 554.29 535.597C550.816 535.597 548 538.244 548 541.511C548 544.777 550.816 547.425 554.29 547.425Z" fill="#FCE891"/>
    <path d="M609.059 547.425C612.533 547.425 615.35 544.777 615.35 541.511C615.35 538.244 612.533 535.597 609.059 535.597C605.585 535.597 602.769 538.244 602.769 541.511C602.769 544.777 605.585 547.425 609.059 547.425Z" fill="#FCE891"/>
    <path d="M663.895 547.425C667.369 547.425 670.186 544.777 670.186 541.511C670.186 538.244 667.369 535.597 663.895 535.597C660.421 535.597 657.605 538.244 657.605 541.511C657.605 544.777 660.421 547.425 663.895 547.425Z" fill="#FCE891"/>
    <path d="M718.663 547.425C722.137 547.425 724.954 544.777 724.954 541.511C724.954 538.244 722.137 535.597 718.663 535.597C715.189 535.597 712.373 538.244 712.373 541.511C712.373 544.777 715.189 547.425 718.663 547.425Z" fill="#FCE891"/>
    <path d="M773.5 547.425C776.974 547.425 779.791 544.777 779.791 541.511C779.791 538.244 776.974 535.597 773.5 535.597C770.026 535.597 767.21 538.244 767.21 541.511C767.21 544.777 770.026 547.425 773.5 547.425Z" fill="#FCE891"/>
    <path d="M828.268 547.425C831.742 547.425 834.559 544.777 834.559 541.511C834.559 538.244 831.742 535.597 828.268 535.597C824.794 535.597 821.978 538.244 821.978 541.511C821.978 544.777 824.794 547.425 828.268 547.425Z" fill="#FCE891"/>
    <path d="M883.105 547.425C886.579 547.425 889.395 544.777 889.395 541.511C889.395 538.245 886.579 535.597 883.105 535.597C879.631 535.597 876.814 538.245 876.814 541.511C876.814 544.777 879.631 547.425 883.105 547.425Z" fill="#FCE891"/>
    <path d="M937.873 547.425C941.347 547.425 944.164 544.777 944.164 541.511C944.164 538.245 941.347 535.597 937.873 535.597C934.399 535.597 931.583 538.245 931.583 541.511C931.583 544.777 934.399 547.425 937.873 547.425Z" fill="#FCE891"/>
    <path d="M992.709 547.425C996.184 547.425 999 544.777 999 541.511C999 538.245 996.184 535.597 992.709 535.597C989.235 535.597 986.419 538.245 986.419 541.511C986.419 544.777 989.235 547.425 992.709 547.425Z" fill="#FCE891"/>
    <path d="M554.29 598.914C557.765 598.914 560.581 596.266 560.581 593C560.581 589.734 557.765 587.086 554.29 587.086C550.816 587.086 548 589.734 548 593C548 596.266 550.816 598.914 554.29 598.914Z" fill="#FCE891"/>
    <path d="M609.059 598.914C612.533 598.914 615.35 596.266 615.35 593C615.35 589.734 612.533 587.086 609.059 587.086C605.585 587.086 602.769 589.734 602.769 593C602.769 596.266 605.585 598.914 609.059 598.914Z" fill="#FCE891"/>
    <path d="M663.895 598.914C667.369 598.914 670.186 596.266 670.186 593C670.186 589.734 667.369 587.086 663.895 587.086C660.421 587.086 657.605 589.734 657.605 593C657.605 596.266 660.421 598.914 663.895 598.914Z" fill="#FCE891"/>
    <path d="M718.663 598.914C722.137 598.914 724.954 596.266 724.954 593C724.954 589.734 722.137 587.086 718.663 587.086C715.189 587.086 712.373 589.734 712.373 593C712.373 596.266 715.189 598.914 718.663 598.914Z" fill="#FCE891"/>
    <path d="M773.5 598.914C776.974 598.914 779.791 596.266 779.791 593C779.791 589.734 776.974 587.086 773.5 587.086C770.026 587.086 767.21 589.734 767.21 593C767.21 596.266 770.026 598.914 773.5 598.914Z" fill="#FCE891"/>
    <path d="M828.268 598.914C831.742 598.914 834.559 596.266 834.559 593C834.559 589.734 831.742 587.086 828.268 587.086C824.794 587.086 821.978 589.734 821.978 593C821.978 596.266 824.794 598.914 828.268 598.914Z" fill="#FCE891"/>
    <path d="M883.105 598.914C886.579 598.914 889.395 596.266 889.395 593C889.395 589.734 886.579 587.086 883.105 587.086C879.631 587.086 876.814 589.734 876.814 593C876.814 596.266 879.631 598.914 883.105 598.914Z" fill="#FCE891"/>
    <path d="M937.873 598.914C941.347 598.914 944.164 596.266 944.164 593C944.164 589.734 941.347 587.086 937.873 587.086C934.399 587.086 931.583 589.734 931.583 593C931.583 596.266 934.399 598.914 937.873 598.914Z" fill="#FCE891"/>
    <path d="M992.709 598.914C996.184 598.914 999 596.266 999 593C999 589.734 996.184 587.086 992.709 587.086C989.235 587.086 986.419 589.734 986.419 593C986.419 596.266 989.235 598.914 992.709 598.914Z" fill="#FCE891"/>
    <path d="M554.29 650.468C557.765 650.468 560.581 647.82 560.581 644.554C560.581 641.288 557.765 638.64 554.29 638.64C550.816 638.64 548 641.288 548 644.554C548 647.82 550.816 650.468 554.29 650.468Z" fill="#FCE891"/>
    <path d="M609.059 650.468C612.533 650.468 615.35 647.82 615.35 644.554C615.35 641.288 612.533 638.64 609.059 638.64C605.585 638.64 602.769 641.288 602.769 644.554C602.769 647.82 605.585 650.468 609.059 650.468Z" fill="#FCE891"/>
    <path d="M663.895 650.468C667.369 650.468 670.186 647.82 670.186 644.554C670.186 641.288 667.369 638.64 663.895 638.64C660.421 638.64 657.605 641.288 657.605 644.554C657.605 647.82 660.421 650.468 663.895 650.468Z" fill="#FCE891"/>
    <path d="M718.663 650.468C722.137 650.468 724.954 647.82 724.954 644.554C724.954 641.288 722.137 638.64 718.663 638.64C715.189 638.64 712.373 641.288 712.373 644.554C712.373 647.82 715.189 650.468 718.663 650.468Z" fill="#FCE891"/>
    <path d="M773.5 650.468C776.974 650.468 779.791 647.82 779.791 644.554C779.791 641.288 776.974 638.64 773.5 638.64C770.026 638.64 767.21 641.288 767.21 644.554C767.21 647.82 770.026 650.468 773.5 650.468Z" fill="#FCE891"/>
    <path d="M828.268 650.468C831.742 650.468 834.559 647.82 834.559 644.554C834.559 641.288 831.742 638.64 828.268 638.64C824.794 638.64 821.978 641.288 821.978 644.554C821.978 647.82 824.794 650.468 828.268 650.468Z" fill="#FCE891"/>
    <path d="M883.105 650.468C886.579 650.468 889.395 647.82 889.395 644.554C889.395 641.288 886.579 638.64 883.105 638.64C879.631 638.64 876.814 641.288 876.814 644.554C876.814 647.82 879.631 650.468 883.105 650.468Z" fill="#FCE891"/>
    <path d="M937.873 650.468C941.347 650.468 944.164 647.82 944.164 644.554C944.164 641.288 941.347 638.64 937.873 638.64C934.399 638.64 931.583 641.288 931.583 644.554C931.583 647.82 934.399 650.468 937.873 650.468Z" fill="#FCE891"/>
    <path d="M992.709 650.468C996.184 650.468 999 647.82 999 644.554C999 641.288 996.184 638.64 992.709 638.64C989.235 638.64 986.419 641.288 986.419 644.554C986.419 647.82 989.235 650.468 992.709 650.468Z" fill="#FCE891"/>
    <path d="M554.29 701.957C557.765 701.957 560.581 699.309 560.581 696.043C560.581 692.777 557.765 690.129 554.29 690.129C550.816 690.129 548 692.777 548 696.043C548 699.309 550.816 701.957 554.29 701.957Z" fill="#FCE891"/>
    <path d="M609.059 701.957C612.533 701.957 615.35 699.309 615.35 696.043C615.35 692.777 612.533 690.129 609.059 690.129C605.585 690.129 602.769 692.777 602.769 696.043C602.769 699.309 605.585 701.957 609.059 701.957Z" fill="#FCE891"/>
    <path d="M663.895 701.957C667.369 701.957 670.186 699.309 670.186 696.043C670.186 692.777 667.369 690.129 663.895 690.129C660.421 690.129 657.605 692.777 657.605 696.043C657.605 699.309 660.421 701.957 663.895 701.957Z" fill="#FCE891"/>
    <path d="M718.663 701.957C722.137 701.957 724.954 699.309 724.954 696.043C724.954 692.777 722.137 690.129 718.663 690.129C715.189 690.129 712.373 692.777 712.373 696.043C712.373 699.309 715.189 701.957 718.663 701.957Z" fill="#FCE891"/>
    <path d="M773.5 701.957C776.974 701.957 779.791 699.309 779.791 696.043C779.791 692.777 776.974 690.129 773.5 690.129C770.026 690.129 767.21 692.777 767.21 696.043C767.21 699.309 770.026 701.957 773.5 701.957Z" fill="#FCE891"/>
    <path d="M828.268 701.957C831.742 701.957 834.559 699.309 834.559 696.043C834.559 692.777 831.742 690.129 828.268 690.129C824.794 690.129 821.978 692.777 821.978 696.043C821.978 699.309 824.794 701.957 828.268 701.957Z" fill="#FCE891"/>
    <path d="M883.105 701.957C886.579 701.957 889.395 699.309 889.395 696.043C889.395 692.777 886.579 690.129 883.105 690.129C879.631 690.129 876.814 692.777 876.814 696.043C876.814 699.309 879.631 701.957 883.105 701.957Z" fill="#FCE891"/>
    <path d="M937.873 701.957C941.347 701.957 944.164 699.309 944.164 696.043C944.164 692.777 941.347 690.129 937.873 690.129C934.399 690.129 931.583 692.777 931.583 696.043C931.583 699.309 934.399 701.957 937.873 701.957Z" fill="#FCE891"/>
    <path d="M992.709 701.957C996.184 701.957 999 699.309 999 696.043C999 692.777 996.184 690.129 992.709 690.129C989.235 690.129 986.419 692.777 986.419 696.043C986.419 699.309 989.235 701.957 992.709 701.957Z" fill="#FCE891"/>
    <path d="M554.29 753.511C557.765 753.511 560.581 750.863 560.581 747.597C560.581 744.331 557.765 741.683 554.29 741.683C550.816 741.683 548 744.331 548 747.597C548 750.863 550.816 753.511 554.29 753.511Z" fill="#FCE891"/>
    <path d="M609.059 753.511C612.533 753.511 615.35 750.863 615.35 747.597C615.35 744.331 612.533 741.683 609.059 741.683C605.585 741.683 602.769 744.331 602.769 747.597C602.769 750.863 605.585 753.511 609.059 753.511Z" fill="#FCE891"/>
    <path d="M663.895 753.511C667.369 753.511 670.186 750.863 670.186 747.597C670.186 744.331 667.369 741.683 663.895 741.683C660.421 741.683 657.605 744.331 657.605 747.597C657.605 750.863 660.421 753.511 663.895 753.511Z" fill="#FCE891"/>
    <path d="M718.663 753.511C722.137 753.511 724.954 750.863 724.954 747.597C724.954 744.331 722.137 741.683 718.663 741.683C715.189 741.683 712.373 744.331 712.373 747.597C712.373 750.863 715.189 753.511 718.663 753.511Z" fill="#FCE891"/>
    <path d="M773.5 753.511C776.974 753.511 779.791 750.863 779.791 747.597C779.791 744.331 776.974 741.683 773.5 741.683C770.026 741.683 767.21 744.331 767.21 747.597C767.21 750.863 770.026 753.511 773.5 753.511Z" fill="#FCE891"/>
    <path d="M828.268 753.511C831.742 753.511 834.559 750.863 834.559 747.597C834.559 744.331 831.742 741.683 828.268 741.683C824.794 741.683 821.978 744.331 821.978 747.597C821.978 750.863 824.794 753.511 828.268 753.511Z" fill="#FCE891"/>
    <path d="M883.105 753.511C886.579 753.511 889.395 750.863 889.395 747.597C889.395 744.331 886.579 741.683 883.105 741.683C879.631 741.683 876.814 744.331 876.814 747.597C876.814 750.863 879.631 753.511 883.105 753.511Z" fill="#FCE891"/>
    <path d="M937.873 753.511C941.347 753.511 944.164 750.863 944.164 747.597C944.164 744.331 941.347 741.683 937.873 741.683C934.399 741.683 931.583 744.331 931.583 747.597C931.583 750.863 934.399 753.511 937.873 753.511Z" fill="#FCE891"/>
    <path d="M992.709 753.511C996.184 753.511 999 750.863 999 747.597C999 744.331 996.184 741.683 992.709 741.683C989.235 741.683 986.419 744.331 986.419 747.597C986.419 750.863 989.235 753.511 992.709 753.511Z" fill="#FCE891"/>
    <path d="M554.29 805C557.765 805 560.581 802.352 560.581 799.086C560.581 795.82 557.765 793.172 554.29 793.172C550.816 793.172 548 795.82 548 799.086C548 802.352 550.816 805 554.29 805Z" fill="#FCE891"/>
    <path d="M609.059 805C612.533 805 615.35 802.352 615.35 799.086C615.35 795.82 612.533 793.172 609.059 793.172C605.585 793.172 602.769 795.82 602.769 799.086C602.769 802.352 605.585 805 609.059 805Z" fill="#FCE891"/>
    <path d="M663.895 805C667.369 805 670.186 802.352 670.186 799.086C670.186 795.82 667.369 793.172 663.895 793.172C660.421 793.172 657.605 795.82 657.605 799.086C657.605 802.352 660.421 805 663.895 805Z" fill="#FCE891"/>
    <path d="M718.663 805C722.137 805 724.954 802.352 724.954 799.086C724.954 795.82 722.137 793.172 718.663 793.172C715.189 793.172 712.373 795.82 712.373 799.086C712.373 802.352 715.189 805 718.663 805Z" fill="#FCE891"/>
    <path d="M773.5 805C776.974 805 779.791 802.352 779.791 799.086C779.791 795.82 776.974 793.172 773.5 793.172C770.026 793.172 767.21 795.82 767.21 799.086C767.21 802.352 770.026 805 773.5 805Z" fill="#FCE891"/>
    <path d="M828.268 805C831.742 805 834.559 802.352 834.559 799.086C834.559 795.82 831.742 793.172 828.268 793.172C824.794 793.172 821.978 795.82 821.978 799.086C821.978 802.352 824.794 805 828.268 805Z" fill="#FCE891"/>
    <path d="M883.105 805C886.579 805 889.395 802.352 889.395 799.086C889.395 795.82 886.579 793.172 883.105 793.172C879.631 793.172 876.814 795.82 876.814 799.086C876.814 802.352 879.631 805 883.105 805Z" fill="#FCE891"/>
    <path d="M937.873 805C941.347 805 944.164 802.352 944.164 799.086C944.164 795.82 941.347 793.172 937.873 793.172C934.399 793.172 931.583 795.82 931.583 799.086C931.583 802.352 934.399 805 937.873 805Z" fill="#FCE891"/>
    <path d="M992.709 805C996.184 805 999 802.352 999 799.086C999 795.82 996.184 793.172 992.709 793.172C989.235 793.172 986.419 795.82 986.419 799.086C986.419 802.352 989.235 805 992.709 805Z" fill="#FCE891"/>
    <path d="M623.64 227.362L595.658 295.623C592.241 293.069 589.222 290.019 586.779 286.545C586.23 285.762 585.685 284.888 585.741 283.936C585.786 283.125 586.26 282.403 586.72 281.722C589.351 277.826 591.984 273.929 594.614 270.032C586.778 263.628 578.941 257.224 571.104 250.817C564.748 258.673 558.391 266.53 552.035 274.384C551.23 275.381 550.377 276.514 550.483 277.774C550.583 278.957 551.501 279.894 552.367 280.726C556.133 284.346 559.901 287.966 563.666 291.583C565.309 293.162 567.11 294.819 569.395 295.16C571.681 295.503 574.417 293.774 574.103 291.542C575.993 295.146 578.318 298.504 580.998 301.571L515.126 311.294L507.96 302.473C508.11 302.074 508.252 301.674 508.392 301.274C511.719 291.677 512.897 281.541 514.388 271.53C514.621 269.964 514.903 268.305 515.961 267.094C516.925 265.99 518.38 265.439 519.662 264.702C524.298 262.049 526.871 256.557 526.452 251.355C526.033 246.154 522.875 241.374 518.534 238.346C512.967 234.467 505.305 233.41 498.971 236.05C492.635 238.688 488.004 245.105 488.05 251.795C488.098 258.488 493.102 264.934 499.795 266.389C500.744 266.596 501.791 266.748 502.446 267.444C503.162 268.203 503.172 269.354 503.11 270.385C502.693 277.109 500.76 283.715 497.61 289.727L465.872 250.649L495.505 178.36L574.386 166.717L623.64 227.362Z" fill="#FCE891"/>
    <path d="M900.698 224.669L643.546 203.604L619.882 454.267L877.034 475.332L900.698 224.669Z" fill="#FBA036"/>
    <path d="M377.849 546.832C461.712 534.454 519.933 458.274 507.89 376.681C495.846 295.087 418.099 238.977 334.237 251.355C250.374 263.733 192.153 339.912 204.197 421.506C216.24 503.1 293.987 559.21 377.849 546.832Z" fill="#68C8BF"/>
    <path d="M317.371 328.301L317.374 328.325C317.553 330.413 317.234 332.57 316.468 334.707L316.466 334.707C314.596 339.948 310.066 345.066 303.748 348.759C303.037 349.172 302.301 349.572 301.544 349.95C300.585 350.431 299.593 350.876 298.57 351.288C284.843 356.792 270.601 353.767 266.756 344.523C262.912 335.279 270.919 323.324 284.647 317.815C288.675 316.199 292.752 315.318 296.593 315.113C297.38 315.072 298.152 315.058 298.915 315.074C307.141 315.228 313.973 318.604 316.46 324.581C316.96 325.78 317.26 327.026 317.373 328.298L317.371 328.301Z" fill="#E1F4F2"/>
    <path d="M409.151 304.217C409.159 304.324 409.161 304.432 409.167 304.536C409.448 311.305 404.177 317.557 396.109 321.146C394.922 321.676 393.67 322.144 392.37 322.552C389.654 323.403 386.707 323.968 383.617 324.188C368.844 325.244 356.328 318.016 355.658 308.04C354.986 298.066 366.417 289.127 381.189 288.069C383.309 287.917 385.382 287.937 387.38 288.112C388.781 288.232 390.142 288.428 391.454 288.696C398.017 290.025 403.431 293.093 406.48 297.208C408.038 299.304 408.981 301.671 409.151 304.217Z" fill="#E1F4F2"/>
    <path d="M317.371 328.301L317.374 328.325C317.475 330.422 317.162 332.571 316.468 334.707L316.466 334.707C314.596 339.948 310.066 345.066 303.748 348.759C303.037 349.172 302.301 349.572 301.544 349.95L296.591 315.113C297.377 315.072 298.149 315.059 298.913 315.074C307.138 315.229 313.97 318.605 316.458 324.581C316.957 325.78 317.258 327.027 317.37 328.298L317.371 328.301Z" fill="#313332"/>
    <path d="M409.167 304.536C409.448 311.305 404.177 317.557 396.109 321.146C394.923 321.676 393.67 322.144 392.37 322.552L387.378 288.115C388.779 288.235 390.14 288.431 391.452 288.699C398.015 290.028 403.429 293.096 406.478 297.211C407.977 299.446 408.911 301.912 409.165 304.539L409.167 304.536Z" fill="#313332"/>
    <path d="M333.166 353.374C335.953 354.381 338.876 355.143 341.83 355.52C343.14 355.686 344.461 355.768 345.782 355.753C347.445 355.736 349.094 355.664 350.733 355.371C353.314 354.913 355.882 354.092 358.151 352.785C359.367 352.083 360.549 351.351 361.627 350.454C362.705 349.556 363.646 348.606 364.512 347.567C366.446 345.243 367.715 342.474 368.282 339.552C368.462 338.634 368.064 337.475 367.482 336.768C366.9 336.06 365.9 335.474 364.968 335.408C363.967 335.338 362.885 335.543 362.103 336.21C361.322 336.878 360.882 337.676 360.688 338.669C360.631 338.964 360.563 339.258 360.487 339.548L360.739 338.612C360.435 339.736 359.982 340.813 359.4 341.833L359.883 340.998C359.202 342.173 358.362 343.251 357.404 344.224L358.087 343.533C356.998 344.623 355.772 345.567 354.444 346.359L355.293 345.854C353.871 346.692 352.349 347.346 350.754 347.8L351.742 347.518C349.818 348.053 347.832 348.321 345.837 348.36L346.865 348.344C344.207 348.384 341.568 348.028 339 347.398L339.959 347.635C338.635 347.306 337.335 346.905 336.054 346.444C335.11 346.103 334.013 346.1 333.079 346.504C332.235 346.869 331.38 347.671 331.066 348.531C330.727 349.455 330.648 350.526 331.103 351.428C331.559 352.33 332.226 353.033 333.169 353.374L333.166 353.374Z" fill="#313332"/>
    <path d="M250.972 397.217C260.05 395.877 266.352 387.631 265.048 378.799C263.745 369.967 255.329 363.893 246.251 365.233C237.174 366.573 230.872 374.819 232.175 383.651C233.479 392.483 241.895 398.557 250.972 397.217Z" fill="#95D9D2"/>
    <path d="M453.172 334.365C462.25 333.025 468.552 324.779 467.249 315.947C465.945 307.115 457.529 301.042 448.452 302.382C439.374 303.721 433.072 311.967 434.376 320.799C435.679 329.631 444.095 335.705 453.172 334.365Z" fill="#95D9D2"/>
    <path d="M220.935 414.249C215.518 414.9 210.184 416.047 204.982 417.683C199.822 419.306 194.947 421.548 190.35 424.356C186.126 426.938 182.364 430.107 179.06 433.747C175.939 437.188 173.349 441.126 171.432 445.314C169.516 449.502 168.309 454.039 168.041 458.589C168.011 459.118 167.978 459.648 167.853 460.166L168.105 459.23C168.036 459.481 167.949 459.715 167.823 459.947L168.307 459.112C168.209 459.272 168.101 459.416 167.974 459.553L168.657 458.862C168.508 459.005 168.352 459.12 168.174 459.227L169.024 458.723C168.732 458.881 168.426 458.992 168.106 459.084L169.095 458.802C167.007 459.367 164.933 459.846 162.965 460.762C160.997 461.678 159.21 462.773 157.574 464.089C154.341 466.685 151.693 470.095 150.188 473.908C147.151 481.606 148.421 490.876 153.82 497.238C158.941 503.272 167.483 506.361 175.455 505.056C183.618 503.723 190.39 497.794 193.468 490.407C195.161 486.347 195.664 481.891 195.183 477.565C194.93 475.287 194.345 473.04 193.575 470.881C192.805 468.723 191.712 466.709 190.475 464.757C189.947 463.926 189.383 463.118 188.863 462.283L189.374 463.107C188.82 462.207 188.324 461.273 188.012 460.262L188.293 461.222C188.12 460.627 188.021 460.024 188.007 459.404L188.015 460.404C188.012 459.526 188.169 458.669 188.395 457.82L188.143 458.756C188.802 456.381 189.814 454.092 191.051 451.948L190.568 452.783C191.985 450.349 193.718 448.104 195.704 446.083L195.021 446.774C197.175 444.598 199.61 442.697 202.258 441.121L201.408 441.625C204.024 440.079 206.83 438.856 209.762 438.017L208.774 438.298C211.491 437.528 214.298 437.096 217.123 437.041L216.096 437.057C216.171 437.056 216.245 437.055 216.32 437.054C216.846 437.134 217.354 437.079 217.84 436.897C218.342 436.8 218.791 436.586 219.185 436.252C219.905 435.688 220.526 434.7 220.601 433.793C220.681 432.816 220.479 431.764 219.8 431.008C219.195 430.334 218.253 429.637 217.287 429.649C215.226 429.674 213.192 429.781 211.158 430.131C209.125 430.482 207.221 430.999 205.317 431.629C201.761 432.807 198.404 434.578 195.344 436.699C189.268 440.913 184.314 446.991 181.761 453.829C181.286 455.102 180.876 456.418 180.602 457.744C180.482 458.332 180.417 458.922 180.418 459.519C180.415 460.391 180.424 461.241 180.644 462.087C181.011 463.485 181.502 464.733 182.252 465.968C183.002 467.204 183.845 468.42 184.62 469.662L184.108 468.838C185.377 470.894 186.363 473.101 187.04 475.412L186.759 474.451C187.374 476.591 187.715 478.793 187.749 481.018L187.74 480.017C187.758 482.043 187.52 484.065 186.997 486.031L187.248 485.094C186.774 486.832 186.076 488.499 185.177 490.071L185.661 489.236C184.735 490.834 183.611 492.313 182.305 493.639L182.987 492.948C181.787 494.152 180.449 495.211 178.984 496.09L179.833 495.586C178.464 496.398 177 497.041 175.465 497.489L176.454 497.207C174.863 497.658 173.222 497.89 171.57 497.92L172.597 497.904C170.866 497.926 169.143 497.724 167.468 497.318L168.427 497.556C166.712 497.131 165.065 496.495 163.519 495.658L164.372 496.123C162.965 495.351 161.664 494.42 160.497 493.335L161.201 493.994C160.058 492.917 159.071 491.702 158.246 490.377L158.757 491.201C157.863 489.743 157.178 488.179 156.697 486.548L156.978 487.508C156.474 485.754 156.208 483.948 156.184 482.123L156.192 483.124C156.178 481.301 156.403 479.482 156.878 477.714L156.626 478.65C157.059 477.072 157.69 475.558 158.514 474.128L158.03 474.963C158.902 473.473 159.962 472.101 161.178 470.862L160.495 471.553C161.805 470.234 163.277 469.086 164.88 468.123L164.03 468.628C165.673 467.655 167.434 466.89 169.276 466.362L168.288 466.643C170.035 466.154 171.902 465.952 173.334 464.741C174.929 463.393 175.522 461.5 175.637 459.517C175.768 457.255 176.134 455.016 176.719 452.82L176.467 453.757C177.323 450.584 178.624 447.54 180.276 444.679L179.793 445.514C181.644 442.33 183.918 439.395 186.517 436.754L185.834 437.445C188.75 434.501 192.057 431.969 195.634 429.834L194.784 430.338C199.53 427.518 204.684 425.417 210.006 423.9L209.018 424.182C213.275 422.978 217.627 422.145 222.019 421.615C222.978 421.499 223.966 420.888 224.54 420.141C225.114 419.393 225.443 418.282 225.264 417.369C225.085 416.456 224.611 415.482 223.77 414.925C222.929 414.369 221.971 414.116 220.931 414.242L220.935 414.249Z" fill="#313332"/>
    <path d="M305.94 524.361C305.212 530.852 304.105 537.306 302.618 543.68C302.195 545.488 301.744 547.29 301.263 549.083L301.514 548.147C300.892 550.456 300.222 552.755 299.504 555.038C298.879 557.016 298.206 558.991 297.17 560.807L297.653 559.972C297.11 560.909 296.473 561.784 295.711 562.564L296.393 561.873C295.701 562.568 294.924 563.165 294.077 563.669L294.927 563.164C293.952 563.733 292.911 564.16 291.824 564.476L292.813 564.195C291.205 564.65 289.541 564.848 287.873 564.879L288.9 564.862C286.198 564.895 283.542 564.473 280.935 563.826L281.894 564.063C277.274 562.91 272.745 561.255 267.982 560.703C266.422 560.521 264.858 560.508 263.288 560.569L262.3 560.851C261.824 561.037 261.427 561.321 261.109 561.7C260.847 561.907 260.655 562.158 260.527 562.461C260.243 562.867 260.08 563.318 260.035 563.814C258.635 569.232 257.573 574.73 256.865 580.268C256.159 585.784 255.799 591.339 255.79 596.89C255.786 600.321 255.876 603.751 256.111 607.174C256.191 608.368 257.271 609.737 258.457 610.08C259.956 610.511 261.389 610.712 262.958 610.5C263.703 610.4 264.446 610.173 265.152 609.938C265.607 609.788 266.045 609.59 266.464 609.365C268.763 608.119 270.63 606.412 272.283 604.425C273.712 602.705 274.873 600.799 276.087 598.935C277.44 596.856 278.795 594.778 280.148 592.7L282.463 589.147C283.134 588.116 283.752 586.99 284.62 586.099L283.937 586.789C284.162 586.568 284.404 586.371 284.674 586.201L283.824 586.706C284.092 586.548 284.367 586.43 284.666 586.34L283.677 586.622C284.124 586.503 284.574 586.452 285.035 586.444L284.007 586.46C285.271 586.457 286.542 586.656 287.795 586.785C289.048 586.914 290.263 587.036 291.501 587.134C294.269 587.354 297.072 587.435 299.847 587.211C302.466 587 305.134 586.418 307.537 585.353C310.204 584.168 312.512 582.386 314.355 580.168C315.992 578.198 317.214 575.861 318.171 573.515C319.128 571.169 319.779 568.968 320.471 566.664C322.115 561.203 323.561 555.683 324.795 550.122C325.974 544.808 326.952 539.453 327.73 534.072C327.827 533.402 327.919 532.733 328.011 532.062C328.141 531.104 327.824 530.028 327.21 529.277C326.638 528.581 325.628 527.984 324.697 527.918C323.696 527.847 322.613 528.052 321.832 528.72C321.05 529.388 320.55 530.195 320.416 531.179C319.442 538.392 318.11 545.562 316.416 552.655C315.94 554.654 315.431 556.65 314.899 558.637L315.15 557.701C314.512 560.073 313.836 562.433 313.119 564.781C312.492 566.83 311.858 568.882 311.039 570.869C310.59 571.954 310.086 573.018 309.499 574.041L309.983 573.207C309.244 574.481 308.375 575.676 307.334 576.734L308.016 576.043C307.166 576.892 306.214 577.63 305.175 578.248L306.024 577.744C304.817 578.449 303.52 578.98 302.172 579.362L303.161 579.08C301.056 579.665 298.874 579.889 296.697 579.931L297.724 579.915C295.199 579.957 292.677 579.761 290.167 579.514C288.947 579.393 287.729 579.259 286.511 579.137C285.523 579.037 284.53 579.005 283.537 579.081C283.218 579.106 282.907 579.162 282.596 579.243C281.987 579.403 281.369 579.55 280.818 579.859C279.758 580.458 278.966 581.092 278.18 582.024C277.78 582.498 277.45 583.023 277.115 583.537L274.761 587.154C273.164 589.607 271.567 592.058 269.97 594.511C268.373 596.964 266.919 599.354 264.89 601.413L265.573 600.722C264.768 601.529 263.891 602.267 262.907 602.861L263.757 602.357C263.151 602.712 262.518 603.004 261.843 603.207L262.831 602.925C262.277 603.082 261.711 603.171 261.135 603.181L262.162 603.165C261.677 603.163 261.204 603.11 260.734 603.001L261.693 603.239C261.58 603.21 261.47 603.181 261.357 603.148L263.704 606.053C263.525 603.445 263.423 600.831 263.396 598.216L263.404 599.217C263.324 590.176 264.164 581.125 265.923 572.234C266.423 569.707 266.999 567.194 267.642 564.698L264.389 567.943C264.566 567.937 264.741 567.931 264.916 567.928L263.888 567.944C266.614 567.911 269.297 568.391 271.925 569.043L270.966 568.805C275.65 569.975 280.25 571.689 285.095 572.149C287.449 572.374 289.9 572.367 292.236 571.954C294.852 571.49 297.278 570.562 299.468 569.083C303.667 566.249 305.472 561.477 306.88 556.925C308.432 551.912 309.767 546.828 310.867 541.707C311.904 536.875 312.728 532.002 313.332 527.104C313.408 526.483 313.481 525.862 313.55 525.242C313.659 524.269 313.378 523.223 312.749 522.457C312.176 521.76 311.167 521.164 310.236 521.098C309.234 521.027 308.152 521.232 307.37 521.9C306.589 522.568 306.064 523.381 305.955 524.359L305.94 524.361Z" fill="#313332"/>
    <path d="M433.575 529.026C434.845 531.3 435.991 533.66 436.723 536.156L436.442 535.195C436.834 536.554 437.097 537.951 437.115 539.367L437.106 538.367C437.111 539.257 437.015 540.143 436.784 541.011L437.036 540.075C436.849 540.748 436.583 541.395 436.234 542.006L436.718 541.171C436.365 541.771 435.943 542.32 435.457 542.821L436.139 542.131C435.53 542.74 434.836 543.252 434.094 543.696L434.943 543.191C433.715 543.907 432.385 544.427 431.035 544.885C429.457 545.42 427.858 545.899 426.253 546.357L427.241 546.076C423.644 547.094 419.998 547.941 416.318 548.609C414.504 548.94 412.68 549.227 410.85 549.469C408.627 549.765 406.285 550.123 404.881 552.068C404.365 552.784 403.978 553.695 403.93 554.574C403.891 555.308 403.948 555.922 404.09 556.62C404.268 557.495 404.454 558.369 404.649 559.239C405.035 560.96 405.453 562.674 405.903 564.378C406.867 568.02 407.958 571.633 409.196 575.194C410.354 578.529 411.64 581.82 413.054 585.056C413.752 586.653 414.479 588.239 415.237 589.809C415.936 591.255 416.609 592.741 417.445 594.117C417.922 594.902 418.397 595.709 419.041 596.382C419.912 597.296 420.75 597.955 421.912 598.485C424.176 599.517 427.117 598.967 428.936 597.305C429.691 596.616 430.341 595.877 430.878 595.022C431.415 594.166 431.961 593.209 432.464 592.284C433.211 590.908 433.88 589.493 434.464 588.049C437.052 581.662 438.115 574.803 437.681 567.982C437.636 567.273 437.565 566.567 437.553 565.858L437.562 566.859C437.557 566.25 437.597 565.644 437.749 565.049L437.497 565.985C437.581 565.681 437.696 565.393 437.846 565.112L437.363 565.947C437.511 565.691 437.681 565.463 437.884 565.247L437.201 565.938C437.442 565.699 437.709 565.494 437.999 565.313L437.15 565.818C437.888 565.38 438.709 565.118 439.529 564.866C440.41 564.596 441.29 564.313 442.157 564.001C443.915 563.373 445.642 562.653 447.322 561.848C450.962 560.105 454.469 557.988 457.653 555.531C458.568 554.826 459.44 554.035 460.175 553.155C461.1 552.047 461.624 550.789 461.952 549.423C462.436 547.405 461.995 545.253 461.695 543.243L459.888 531.122L457.847 517.433C457.707 516.487 457.139 515.559 456.353 514.989C455.567 514.42 454.453 514.125 453.514 514.306C452.575 514.487 451.571 514.957 450.993 515.781C450.415 516.604 450.119 517.552 450.269 518.552L453.736 541.796L454.225 545.076C454.368 546.039 454.528 547.003 454.543 547.977L454.534 546.977C454.533 547.507 454.485 548.026 454.36 548.542L454.612 547.606C454.496 548.029 454.331 548.428 454.111 548.81L454.594 547.975C454.33 548.41 454.011 548.802 453.655 549.171L454.338 548.48C453.404 549.424 452.293 550.205 451.204 550.974C450.047 551.79 448.854 552.559 447.635 553.284L448.484 552.779C445.412 554.596 442.16 556.118 438.781 557.302C437.959 557.589 437.131 557.852 436.299 558.108C435.553 558.339 434.813 558.589 434.138 558.98C433.574 559.304 432.995 559.613 432.521 560.06C431.853 560.688 431.438 561.184 430.998 561.944C430.418 562.946 430.07 564.068 429.99 565.219C429.845 567.245 430.166 569.282 430.186 571.308L430.178 570.307C430.203 574.025 429.723 577.734 428.763 581.339L429.015 580.403C428.066 583.925 426.663 587.327 424.83 590.505L425.314 589.67C424.83 590.505 424.338 591.346 423.656 592.045L424.339 591.354C424.102 591.587 423.849 591.793 423.565 591.97L424.415 591.466C424.191 591.594 423.966 591.695 423.721 591.771L424.71 591.49C424.476 591.552 424.246 591.586 424.005 591.594L425.032 591.578C424.816 591.577 424.608 591.555 424.398 591.511L425.357 591.748C425.092 591.682 424.842 591.583 424.599 591.458L425.452 591.923C425.12 591.736 424.823 591.508 424.548 591.25L425.252 591.91C424.77 591.443 424.369 590.91 424.015 590.347L424.526 591.17C423.635 589.735 422.935 588.171 422.205 586.654C421.408 584.999 420.646 583.331 419.917 581.645C418.476 578.32 417.169 574.939 416 571.513C415.333 569.563 414.712 567.595 414.134 565.616L414.415 566.577C413.833 564.576 413.293 562.561 412.801 560.537C412.557 559.536 412.326 558.53 412.106 557.526C411.997 557.034 411.893 556.54 411.792 556.048C411.691 555.555 411.553 555.036 411.531 554.524L411.54 555.525C411.541 555.361 411.561 555.213 411.602 555.054L411.35 555.99C411.381 555.902 411.416 555.824 411.458 555.743L410.975 556.578C411.037 556.475 411.107 556.387 411.187 556.298L410.504 556.989C410.612 556.885 410.729 556.797 410.858 556.715L410.009 557.22C410.233 557.091 410.467 556.999 410.714 556.925L409.726 557.206C410.541 556.981 411.401 556.929 412.239 556.815C413.2 556.686 414.163 556.544 415.121 556.39C417.087 556.075 419.043 555.706 420.993 555.29C425.171 554.394 429.308 553.272 433.37 551.956C434.931 551.45 436.488 550.893 437.914 550.078C439.763 549.021 441.494 547.739 442.653 545.94C443.695 544.325 444.385 542.599 444.631 540.701C444.84 539.086 444.752 537.391 444.447 535.794C443.781 532.332 442.321 529.072 440.606 526C440.122 525.132 439.51 524.432 438.54 524.055C437.659 523.713 436.435 523.693 435.566 524.115C434.696 524.537 433.889 525.221 433.552 526.142C433.216 527.063 433.103 528.17 433.59 529.039L433.575 529.026Z" fill="#313332"/>
    <path d="M629.374 317.589C627.989 317.716 626.603 317.789 625.213 317.814L626.241 317.798C621.345 317.868 616.46 317.285 611.722 316.119L612.682 316.356C607.701 315.12 602.903 313.249 598.417 310.818L599.27 311.282C594.861 308.882 590.774 305.949 587.13 302.542L587.834 303.201C584.421 299.996 581.42 296.384 578.953 292.436L579.464 293.26C578.808 292.201 578.189 291.122 577.611 290.022C577.177 289.195 576.48 288.394 575.546 288.077C574.722 287.797 573.911 287.756 573.066 287.996C571.226 288.519 570.089 290.244 570.314 292.101C570.33 292.225 570.338 292.349 570.338 292.475L570.33 291.474C570.325 291.685 570.296 291.891 570.244 292.097L570.495 291.161C570.429 291.391 570.337 291.608 570.221 291.819L570.704 290.984C570.561 291.221 570.395 291.439 570.202 291.641L570.885 290.95C570.613 291.224 570.309 291.454 569.974 291.652L570.824 291.147C570.476 291.344 570.112 291.498 569.728 291.613L570.717 291.331C570.33 291.439 569.939 291.501 569.538 291.513L570.566 291.497C570.128 291.501 569.702 291.436 569.279 291.333L570.238 291.57C569.688 291.423 569.168 291.211 568.667 290.946L569.52 291.41C568.394 290.793 567.424 289.957 566.496 289.089L567.2 289.749C564.931 287.61 562.699 285.431 560.452 283.269C559.321 282.183 558.193 281.096 557.062 280.01C556.003 278.991 554.748 278.004 553.955 276.762L554.467 277.586C554.309 277.322 554.184 277.055 554.092 276.762L554.373 277.722C554.308 277.473 554.272 277.228 554.27 276.969L554.278 277.97C554.286 277.728 554.319 277.497 554.38 277.262L554.128 278.198C554.231 277.844 554.381 277.513 554.56 277.19L554.077 278.025C554.535 277.246 555.133 276.556 555.702 275.851C556.368 275.03 557.034 274.206 557.7 273.384C559.031 271.739 560.363 270.093 561.694 268.448C564.358 265.157 567.018 261.866 569.681 258.575C571.179 256.724 572.676 254.874 574.173 253.023L568.816 253.814C574.939 258.819 581.061 263.821 587.184 268.826C588.898 270.228 590.612 271.628 592.326 273.03L591.556 267.817C590.036 270.068 588.515 272.319 586.996 274.57C586.236 275.696 585.475 276.821 584.715 277.947C584.34 278.502 583.963 279.058 583.59 279.612C583.127 280.304 582.638 281.026 582.358 281.808C581.975 282.884 581.78 284.061 582.021 285.188C582.283 286.425 582.786 287.348 583.466 288.402C584.145 289.457 584.869 290.373 585.638 291.301C587.34 293.355 589.265 295.241 591.307 296.973C594.922 300.043 599.099 302.536 603.493 304.411C607.82 306.258 612.492 307.497 617.19 308.049C621.889 308.601 626.755 308.483 631.414 307.59C631.963 307.483 632.511 307.367 633.055 307.239C634.063 307.005 634.935 306.6 635.576 305.765C636.138 305.029 636.479 303.907 636.3 302.994C636.121 302.081 635.647 301.106 634.806 300.55C634.009 300.025 632.947 299.636 631.967 299.867C629.035 300.55 626.04 300.91 623.033 300.962L624.06 300.946C620.151 301 616.252 300.539 612.468 299.606L613.427 299.843C609.597 298.887 605.909 297.455 602.464 295.585L603.317 296.049C600.06 294.27 597.036 292.105 594.344 289.584L595.047 290.244C592.94 288.257 590.919 286.039 589.384 283.594L589.895 284.417C589.67 284.044 589.479 283.663 589.354 283.249L589.635 284.21C589.578 283.98 589.542 283.754 589.533 283.517L589.541 284.517C589.547 284.298 589.576 284.088 589.627 283.874L589.375 284.811C589.471 284.48 589.611 284.173 589.781 283.869L589.297 284.704C589.897 283.679 590.614 282.709 591.281 281.724C591.997 280.664 592.713 279.602 593.431 278.542C594.85 276.441 596.267 274.341 597.684 272.244C598.22 271.449 598.597 270.439 598.408 269.472C598.219 268.506 597.719 267.688 596.914 267.029C590.792 262.026 584.669 257.021 578.547 252.016C576.832 250.614 575.118 249.212 573.404 247.813C572.714 247.247 571.448 246.959 570.565 247.129C569.551 247.324 568.695 247.802 568.044 248.604C561.662 256.492 555.238 264.348 548.896 272.268C548.607 272.63 548.323 272.998 548.076 273.391C547.437 274.412 547.052 275.227 546.781 276.382C546.725 276.619 546.689 276.848 546.679 277.09C546.66 277.578 546.641 278.108 546.733 278.591C546.954 279.777 547.416 280.685 548.106 281.671C548.796 282.656 549.683 283.367 550.504 284.155C551.409 285.023 552.311 285.892 553.216 286.76C554.988 288.46 556.756 290.163 558.528 291.862C559.391 292.692 560.249 293.524 561.117 294.348C562.035 295.217 562.951 296.109 563.998 296.836C565.404 297.813 566.869 298.436 568.551 298.795C570.062 299.117 571.642 298.841 573.079 298.333C574.436 297.851 575.701 296.894 576.577 295.783C577.659 294.407 578.102 292.685 577.895 290.983L570.598 293.062C572.998 297.622 576.007 301.886 579.581 305.645C582.688 308.908 586.148 311.873 589.912 314.398C593.659 316.912 597.706 319.061 601.919 320.747C606.149 322.441 610.607 323.671 615.12 324.429C619.653 325.189 624.278 325.377 628.875 325.086C629.407 325.052 629.935 325.01 630.465 324.961C631.41 324.875 632.43 324.214 632.986 323.487C633.542 322.76 633.888 321.629 633.71 320.716C633.531 319.803 633.057 318.828 632.216 318.272C631.375 317.715 630.431 317.491 629.377 317.589L629.374 317.589Z" fill="#313332"/>
    <path d="M803.877 463.943C797.932 459.929 791.765 456.252 785.423 452.856C783.876 452.027 782.319 451.217 780.749 450.429C779.776 449.94 778.84 449.596 777.763 449.358C776.488 449.079 775.164 449.275 773.945 449.708C772.155 450.344 770.74 452.02 770.115 453.732C769.496 455.428 769.4 457.089 769.459 458.866C769.512 460.538 769.739 462.217 769.905 463.88C770.082 465.657 770.269 467.432 770.472 469.208C770.876 472.79 771.334 476.363 771.84 479.93C772.847 487.033 774.052 494.11 775.452 501.146C776.852 508.184 778.45 515.183 780.239 522.131C780.463 522.997 780.688 523.86 780.916 524.723L785.189 520.461C778.676 520.21 772.234 519.179 765.933 517.621L766.892 517.858C756.105 515.174 745.793 511.01 735.674 506.57C734.285 505.962 732.899 505.345 731.512 504.729C730.125 504.112 728.665 503.534 727.31 502.822L728.163 503.287C727.709 503.037 727.282 502.756 726.896 502.414L727.6 503.074C727.39 502.874 727.204 502.665 727.043 502.428L727.554 503.251C727.462 503.099 727.388 502.947 727.327 502.777L727.608 503.738C727.56 503.569 727.536 503.409 727.534 503.234L727.542 504.235C727.55 504.098 727.568 503.975 727.6 503.842L727.349 504.778C727.391 504.646 727.439 504.531 727.503 504.409L727.02 505.243C727.112 505.097 727.212 504.972 727.333 504.848L726.65 505.539C726.78 505.422 726.915 505.322 727.064 505.229L726.215 505.734C726.536 505.551 726.876 505.423 727.229 505.316L726.241 505.597C728.121 505.078 730.102 504.806 732.019 504.44C734.065 504.05 736.112 503.668 738.163 503.292C742.262 502.544 746.366 501.825 750.475 501.144C752.822 500.752 755.174 500.372 757.525 500.003C759.5 499.691 761.163 497.755 760.77 495.757L757.032 476.797L753.275 457.741C752.631 454.479 751.977 451.201 751.933 447.862L751.941 448.863C751.931 447.077 752.104 445.296 752.56 443.558L752.308 444.495C752.686 443.1 753.245 441.765 753.967 440.503L753.484 441.338C754.273 439.988 755.236 438.749 756.338 437.627L755.655 438.318C756.997 436.967 758.519 435.806 760.159 434.823L759.31 435.327C761.344 434.123 763.536 433.202 765.815 432.552L764.827 432.833C767.208 432.165 769.665 431.795 772.139 431.749L771.111 431.765C774.135 431.723 777.154 432.159 780.076 432.877L779.117 432.64C784.171 433.9 788.922 436.047 793.459 438.509L792.606 438.044C795.062 439.382 797.462 440.813 799.841 442.278C800.707 442.81 801.632 443.116 802.68 442.961C803.61 442.824 804.659 442.259 805.201 441.486C805.742 440.713 806.115 439.692 805.925 438.715C805.734 437.739 805.28 436.794 804.431 436.271C797.57 432.051 790.399 427.886 782.484 425.83C778.373 424.762 774.252 424.177 769.979 424.413C766.557 424.602 763.119 425.426 759.946 426.696C753.551 429.254 747.713 434.219 745.513 440.754C744.058 445.077 744.128 449.609 744.814 454.051C745.501 458.492 746.441 462.64 747.287 466.92L752.54 493.559L753.195 496.877L756.44 492.632C749.122 493.782 741.822 495.035 734.543 496.391C732.722 496.73 730.904 497.074 729.085 497.428C728.176 497.605 727.268 497.781 726.358 497.961C725.4 498.15 724.404 498.347 723.513 498.742C722.134 499.353 721.075 500.343 720.41 501.661C719.745 502.98 719.79 504.611 720.356 505.943C721.236 508.026 723.283 509.268 725.289 510.167C731.252 512.843 737.225 515.507 743.303 517.935C749.381 520.362 755.514 522.536 761.827 524.231C768.355 525.982 775.01 527.29 781.783 527.747C782.599 527.802 783.413 527.845 784.231 527.875C785.49 527.923 786.548 527.628 787.438 526.729C788.201 525.956 788.795 524.715 788.503 523.613C786.251 515.101 784.284 506.517 782.614 497.877C780.946 489.236 779.572 480.536 778.497 471.8C778.192 469.332 777.912 466.859 777.658 464.386C777.422 462.108 777.083 459.795 777.042 457.503L777.05 458.504C777.043 457.666 777.113 456.83 777.326 456.015L777.074 456.951C777.191 456.537 777.344 456.14 777.56 455.764L777.076 456.599C777.211 456.378 777.362 456.175 777.541 455.985L776.858 456.676C777.013 456.523 777.179 456.388 777.365 456.267L776.516 456.772C776.749 456.635 776.984 456.535 777.247 456.461L776.259 456.742C776.461 456.695 776.658 456.666 776.865 456.653L775.837 456.669C776.17 456.665 776.485 456.704 776.808 456.774L775.849 456.537C777.207 456.889 778.456 457.656 779.687 458.29C781.001 458.968 782.308 459.659 783.607 460.364L782.754 459.899C788.434 462.989 793.954 466.345 799.298 469.953C800.118 470.508 801.134 470.784 802.137 470.636C803.067 470.499 804.116 469.935 804.658 469.162C805.8 467.529 805.64 465.132 803.889 463.949L803.877 463.943Z" fill="#313332"/>
    <path d="M692.694 461.694C693.809 475.772 695.343 489.87 699.765 503.358C703.418 514.503 709.365 525.262 717.957 533.514C720.429 535.886 723.038 538.102 725.904 540.017C728.779 541.941 731.899 543.386 734.943 545.024L734.09 544.56C735.168 545.149 736.199 545.803 737.1 546.629L736.397 545.969C736.94 546.487 737.408 547.051 737.803 547.683L737.292 546.859C737.792 547.71 738.132 548.619 738.408 549.56L738.127 548.599C738.914 551.396 739.496 554.223 740.578 556.936C741.603 559.507 742.946 561.926 744.466 564.248C745.859 566.377 747.474 568.366 749.284 570.173C750.37 571.256 751.498 572.335 752.712 573.286C754.317 574.543 756.178 575.278 758.26 575.169C761.897 574.979 763.815 571.695 764.687 568.668C765.532 565.736 766.261 562.773 766.807 559.775C767.842 554.107 768.221 548.389 768.133 542.646C768.038 536.46 767.239 530.298 765.759 524.293C765.516 523.31 765.124 522.471 764.265 521.849C763.514 521.307 762.365 520.985 761.426 521.166C759.541 521.53 757.681 523.384 758.181 525.412C759.705 531.593 760.496 537.932 760.562 544.301L760.553 543.3C760.609 550.743 759.673 558.179 757.747 565.396L757.998 564.46C757.638 565.796 757.323 567.194 756.652 568.423L757.136 567.588C756.94 567.923 756.722 568.227 756.448 568.508L757.131 567.817C756.974 567.964 756.813 568.093 756.634 568.212L757.484 567.708C757.293 567.816 757.107 567.901 756.898 567.97L757.886 567.688C757.648 567.751 757.42 567.782 757.173 567.791L758.201 567.775C757.952 567.764 757.72 567.733 757.479 567.676L758.438 567.913C758.133 567.823 757.853 567.706 757.571 567.564L758.424 568.028C757.28 567.396 756.31 566.47 755.367 565.589L756.071 566.249C753.746 564.053 751.725 561.584 750.037 558.893L750.549 559.716C748.804 556.905 747.443 553.887 746.506 550.725L746.787 551.686C745.74 548.068 745.331 544.123 742.46 541.343C740.991 539.917 739.398 538.92 737.583 537.957C736.231 537.24 734.839 536.604 733.492 535.876L734.346 536.34C730.5 534.241 726.975 531.643 723.794 528.677L724.498 529.336C720.48 525.567 717.048 521.253 714.154 516.612L714.665 517.436C710.766 511.148 707.917 504.331 705.845 497.267L706.126 498.227C703.353 488.705 701.961 478.861 701.011 469.012C700.741 466.201 700.504 463.389 700.282 460.574C700.128 458.625 697.889 457.072 695.949 457.446C693.798 457.859 692.538 459.607 692.704 461.692L692.694 461.694Z" fill="#313332"/>
    <path d="M715.044 464.326C715.288 472.552 716.823 480.66 719.403 488.473C720.099 490.578 720.883 492.657 721.747 494.701C722.108 495.555 722.942 496.308 723.813 496.647C724.683 496.985 725.918 497.009 726.788 496.587C727.662 496.164 728.464 495.48 728.801 494.559C729.137 493.638 729.167 492.614 728.763 491.662C727.526 488.741 726.464 485.754 725.573 482.713L725.855 483.674C724.345 478.485 723.342 473.154 722.883 467.77C722.752 466.252 722.666 464.73 722.622 463.208C722.567 462.696 722.389 462.24 722.087 461.835C721.868 461.4 721.547 461.044 721.128 460.764C720.377 460.222 719.228 459.899 718.289 460.08C717.351 460.262 716.346 460.731 715.768 461.555L715.285 462.39C715.026 463.015 714.946 463.66 715.042 464.326L715.044 464.326Z" fill="#313332"/>
    <path d="M872.52 335.317C877.422 335.796 882.28 336.634 887.051 337.815L886.092 337.578C892.601 339.201 898.934 341.455 904.969 344.309C906.673 345.114 908.35 345.967 910.002 346.863L909.149 346.399C913.437 348.734 917.549 351.374 921.43 354.307C923.687 356.013 925.809 357.975 928.759 358.428C932.38 358.984 935.276 356.522 937.712 354.264C939.006 353.064 940.248 351.806 941.422 350.495C942.387 349.421 943.213 348.219 944.205 347.171L943.522 347.862C943.72 347.664 943.924 347.491 944.16 347.343L943.311 347.848C943.471 347.761 943.626 347.693 943.802 347.642L942.814 347.924C942.951 347.896 943.076 347.88 943.217 347.874L942.189 347.89C942.324 347.896 942.448 347.91 942.581 347.938L941.622 347.7C941.84 347.761 942.038 347.842 942.234 347.949L941.381 347.485C941.907 347.796 942.35 348.211 942.802 348.614C943.327 349.078 943.848 349.546 944.369 350.017C945.409 350.958 946.442 351.908 947.463 352.865L946.76 352.205C951.667 356.81 956.365 361.623 960.841 366.628L960.775 362.072C955.972 368.944 950.708 375.509 945.018 381.71C943.411 383.462 941.77 385.183 940.097 386.876L940.78 386.185C937.696 389.302 934.502 392.318 931.209 395.222L936.587 395.779L929.85 389.27C927.644 387.137 925.393 385.041 923.23 382.867C922.223 381.855 921.291 380.768 920.537 379.56L921.049 380.384C920.624 379.691 920.266 378.965 920.025 378.19L920.307 379.15C920.154 378.623 920.062 378.091 920.056 377.542L920.065 378.543C920.071 378.128 920.122 377.726 920.23 377.323L919.979 378.259C920.091 377.884 920.246 377.532 920.443 377.189L919.96 378.023C920.342 377.397 920.843 376.854 921.361 376.33L920.679 377.021C921.457 376.241 922.281 375.494 922.987 374.651C923.817 373.66 924.349 372.529 924.61 371.285C924.961 369.611 924.348 367.868 923.343 366.533C922.585 365.525 921.454 364.732 920.452 363.961C916.955 361.27 913.215 358.942 909.319 356.838C901.792 352.773 893.579 349.973 885.114 348.389C880.509 347.527 875.822 347.076 871.128 347.044C870.066 347.037 869.126 347.171 868.263 347.846C867.543 348.409 866.922 349.397 866.847 350.305C866.767 351.281 866.969 352.333 867.648 353.089C868.26 353.77 869.187 354.442 870.161 354.449C875.052 354.483 879.93 354.973 884.721 355.903C886.079 356.167 887.429 356.468 888.771 356.799L887.812 356.562C892.942 357.844 897.934 359.618 902.693 361.869C904.047 362.508 905.378 363.188 906.691 363.9L905.838 363.436C907.91 364.569 909.931 365.788 911.887 367.101C912.847 367.743 913.789 368.407 914.716 369.092C915.683 369.805 916.679 370.52 917.563 371.333L916.859 370.674C917.106 370.914 917.326 371.162 917.513 371.449L917.002 370.625C917.116 370.824 917.208 371.024 917.273 371.241L916.992 370.28C917.04 370.469 917.07 370.655 917.076 370.85L917.068 369.85C917.069 370.065 917.042 370.27 916.991 370.481L917.242 369.545C917.164 369.818 917.049 370.071 916.909 370.315L917.393 369.48C917.046 370.051 916.589 370.54 916.12 371.017L916.802 370.326C916.016 371.115 915.185 371.873 914.466 372.72C913.508 373.85 912.942 375.137 912.603 376.55C912.331 377.68 912.377 378.954 912.677 380.073C912.871 380.795 913.071 381.519 913.381 382.204C913.691 382.889 914.126 383.578 914.543 384.237C915.708 386.082 917.266 387.579 918.835 389.096L924.364 394.437L930.593 400.453C931.291 401.129 932.065 401.738 933.106 401.813C934.147 401.888 935.206 401.686 935.971 401.011C940.635 396.899 945.09 392.563 949.343 388.053C953.432 383.718 957.312 379.198 960.97 374.512C963.018 371.884 964.998 369.206 966.902 366.479C967.834 365.146 967.971 363.195 966.837 361.924C963.331 358.004 959.69 354.199 955.916 350.522C953.86 348.518 951.769 346.552 949.642 344.616C948.685 343.745 947.734 342.858 946.743 342.023C945.042 340.586 942.755 340.027 940.603 340.85C938.829 341.528 937.775 343.095 936.638 344.481C935.725 345.592 934.76 346.659 933.75 347.687L934.433 346.996C933.662 347.773 932.868 348.528 932.046 349.252C931.223 349.976 930.432 350.68 929.506 351.231L930.356 350.727C929.998 350.928 929.633 351.092 929.238 351.213L930.226 350.932C929.938 351.007 929.653 351.052 929.353 351.066L930.38 351.05C930.019 351.053 929.675 351.011 929.327 350.926L930.286 351.164C929.848 351.045 929.44 350.872 929.041 350.665L929.894 351.129C928.237 350.218 926.819 348.883 925.312 347.765C923.729 346.592 922.11 345.465 920.456 344.388C916.962 342.114 913.31 340.054 909.564 338.196C902.268 334.577 894.546 331.907 886.578 330.05C882.27 329.046 877.892 328.326 873.482 327.897C872.484 327.801 871.408 328.08 870.617 328.699C869.897 329.263 869.276 330.251 869.201 331.158C869.121 332.135 869.323 333.187 870.002 333.943C870.681 334.699 871.512 335.204 872.515 335.302L872.52 335.317Z" fill="#313332"/>
    <path d="M477.382 182.369L491.953 192.048L496.079 194.789C496.903 195.335 498.158 195.251 498.759 194.393C499.326 193.582 499.256 192.371 498.374 191.786L483.803 182.106L479.677 179.366C478.853 178.819 477.598 178.904 476.997 179.761C476.43 180.573 476.5 181.783 477.382 182.369Z" fill="#313332"/>
    <path d="M530.53 156.717L535.216 188.467C535.359 189.431 536.366 190.226 537.383 190.031C538.399 189.836 539.158 188.94 539.005 187.908L534.319 156.158C534.177 155.195 533.169 154.399 532.153 154.594C531.136 154.79 530.378 155.685 530.53 156.717Z" fill="#313332"/>
    <path d="M574.235 194.877C579.827 190.519 585.023 185.679 589.765 180.449C591.07 179.008 592.339 177.538 593.571 176.04C594.201 175.274 594.019 173.982 593.186 173.432C592.306 172.852 591.178 173.01 590.506 173.828C588.331 176.474 586.042 179.029 583.641 181.486C583.56 181.568 583.482 181.65 583.401 181.732C583.32 181.814 583.028 182.106 583.421 181.714C583.287 181.849 583.152 181.985 583.017 182.12C582.693 182.444 582.366 182.766 582.039 183.086C581.439 183.672 580.831 184.254 580.219 184.829C578.965 186.003 577.684 187.154 576.381 188.273C574.901 189.543 573.39 190.778 571.851 191.98C571.066 192.59 570.867 193.848 571.544 194.602C572.22 195.356 573.392 195.534 574.233 194.88L574.235 194.877Z" fill="#313332"/>
    <path d="M690.641 266.308L652.587 263.191L649.085 300.285L687.139 303.402L690.641 266.308Z" fill="#F9DFBE"/>
    <path d="M842.269 278.456L804.215 275.339L800.713 312.433L838.767 315.55L842.269 278.456Z" fill="#F9DFBE"/>
    <path d="M739.206 268.598L707.843 266.029L706.55 279.732L737.912 282.301L739.206 268.598Z" fill="#FAE5CB"/>
    <path d="M780.996 272.019L749.634 269.45L748.34 283.153L779.703 285.722L780.996 272.019Z" fill="#FAE5CB"/>
    <path d="M763.691 270.602L749.634 269.451L748.34 283.154L762.398 284.305L763.691 270.602Z" fill="#313332"/>
    <path d="M722.048 267.192L707.99 266.04L706.697 279.743L720.755 280.894L722.048 267.192Z" fill="#313332"/>
    <path d="M710.583 292.622L724.946 309.336L739.967 297.054L753.392 312.679L770.238 298.902" stroke="#313332" stroke-width="8" stroke-linecap="round" stroke-linejoin="round"/>
    <path d="M492.947 328.444C499.997 323.998 505.197 317.224 508.858 309.959C512.873 301.996 514.864 293.207 516.307 284.516C516.716 282.055 517.079 279.588 517.438 277.12C517.617 275.885 517.793 274.651 517.976 273.419C518.145 272.261 518.279 271.089 518.573 269.951L518.322 270.887C518.475 270.317 518.676 269.77 518.963 269.25L518.48 270.085C518.688 269.728 518.931 269.403 519.22 269.102L518.537 269.793C518.943 269.394 519.401 269.068 519.892 268.774L519.042 269.279C520.741 268.285 522.551 267.485 524.044 266.185C525.538 264.885 526.806 263.354 527.804 261.63C529.767 258.236 530.603 254.386 530.219 250.521C529.825 246.576 528.036 242.747 525.514 239.681C523.004 236.631 519.684 234.231 515.98 232.724C512.292 231.221 508.26 230.661 504.27 230.979C500.281 231.297 496.638 232.688 493.437 234.871C490.384 236.954 487.995 239.863 486.328 243.087C484.654 246.327 483.969 250.06 484.334 253.652C484.692 257.2 486.236 260.669 488.475 263.457C490.667 266.187 493.738 268.461 497.145 269.54C498.157 269.86 499.203 270.058 500.236 270.302L499.277 270.064C499.665 270.16 500.039 270.278 500.396 270.459L499.542 269.995C499.731 270.103 499.901 270.221 500.064 270.365L499.36 269.705C499.493 269.836 499.604 269.973 499.707 270.129L499.195 269.305C499.313 269.506 499.4 269.712 499.471 269.933L499.19 268.972C499.303 269.387 499.339 269.809 499.346 270.24L499.338 269.239C499.329 270.895 499.105 272.576 498.846 274.213C498.583 275.877 498.23 277.524 497.795 279.155L498.046 278.219C496.908 282.415 495.215 286.457 493.028 290.245L493.511 289.41C491.326 293.173 488.669 296.664 485.591 299.785L486.274 299.094C483.393 301.998 480.166 304.561 476.643 306.691C475.882 307.15 475.333 308.33 475.227 309.15C475.107 310.069 475.394 311.227 476.028 311.934C476.661 312.642 477.545 313.222 478.541 313.294L479.569 313.278C480.253 313.177 480.865 312.913 481.406 312.492C487.747 308.658 493.241 303.367 497.411 297.345C501.979 290.749 505.106 283.244 506.395 275.397C506.565 274.365 506.698 273.326 506.798 272.286C506.919 271.01 507.052 269.675 506.883 268.404C506.653 266.67 505.703 264.902 504.131 263.991C503.484 263.617 502.883 263.319 502.161 263.135C501.44 262.95 500.663 262.793 499.914 262.613L500.873 262.85C499.699 262.554 498.578 262.112 497.52 261.537L498.373 262.001C497.246 261.379 496.215 260.62 495.279 259.748L495.983 260.408C494.959 259.439 494.073 258.347 493.332 257.158L493.844 257.981C493.112 256.784 492.539 255.507 492.142 254.164L492.423 255.125C492.061 253.86 491.862 252.563 491.846 251.247L491.854 252.248C491.85 250.913 492.027 249.591 492.365 248.296L492.113 249.232C492.505 247.778 493.092 246.385 493.851 245.073L493.367 245.908C494.139 244.593 495.07 243.381 496.141 242.284L495.459 242.975C496.571 241.854 497.815 240.874 499.179 240.06L498.329 240.565C499.671 239.776 501.105 239.171 502.606 238.743L501.617 239.025C503.269 238.567 504.966 238.33 506.68 238.298L505.652 238.314C507.512 238.29 509.359 238.51 511.159 238.952L510.2 238.715C511.956 239.159 513.64 239.812 515.224 240.668L514.371 240.203C515.86 241.021 517.232 242.011 518.468 243.162L517.764 242.503C519.014 243.682 520.105 245.002 521.008 246.453L520.497 245.63C521.309 246.956 521.949 248.369 522.388 249.856L522.107 248.895C522.482 250.216 522.695 251.573 522.709 252.945L522.701 251.944C522.703 253.267 522.527 254.579 522.183 255.863L522.434 254.927C522.09 256.163 521.596 257.348 520.954 258.467L521.437 257.633C520.853 258.625 520.158 259.547 519.347 260.379L520.029 259.689C519.272 260.451 518.431 261.12 517.508 261.681L518.357 261.176C517.213 261.855 516.011 262.416 514.882 263.128C513.518 263.99 512.531 265.225 511.802 266.621C511.213 267.753 510.932 269.047 510.718 270.289C510.525 271.412 510.377 272.544 510.213 273.671C509.533 278.364 508.876 283.062 507.984 287.723C507.482 290.354 506.903 292.968 506.212 295.559L506.463 294.623C505.03 299.932 503.078 305.107 500.31 309.905L500.793 309.07C498.896 312.338 496.639 315.409 493.968 318.121L494.651 317.43C492.698 319.398 490.54 321.161 488.183 322.646C487.423 323.125 486.877 324.27 486.768 325.105C486.648 326.024 486.935 327.182 487.569 327.89C488.202 328.597 489.085 329.177 490.082 329.249L491.109 329.233C491.794 329.132 492.405 328.868 492.947 328.447L492.947 328.444Z" fill="#313332"/>
    </svg>
    