<svg width="699" height="346" viewBox="0 0 699 346" fill="none" xmlns="http://www.w3.org/2000/svg">
<path d="M698.698 21.6688L441.546 0.603516L417.882 251.266L675.034 272.331L698.698 21.6688Z" fill="#FBA036"/>
<path d="M175.849 343.831C259.712 331.453 317.933 255.274 305.889 173.68C293.846 92.0867 216.099 35.9764 132.237 48.3545C48.3741 60.7326 -9.84689 136.912 2.19634 218.506C14.2396 300.099 91.9865 356.21 175.849 343.831Z" fill="#68C8BF"/>
<path d="M115.371 125.301L115.375 125.325C115.554 127.413 115.235 129.57 114.469 131.707L114.466 131.707C112.597 136.948 108.066 142.066 101.748 145.758C101.038 146.172 100.302 146.572 99.5444 146.95C98.5855 147.431 97.5931 147.876 96.5699 148.288C82.8435 153.792 68.6014 150.766 64.7567 141.523C60.912 132.279 68.9191 120.324 82.6473 114.815C86.6751 113.198 90.7522 112.318 94.5934 112.113C95.3798 112.072 96.1521 112.058 96.9157 112.074C105.141 112.228 111.973 115.604 114.461 121.58C114.96 122.78 115.26 124.026 115.373 125.298L115.371 125.301Z" fill="#E1F4F2"/>
<path d="M207.151 101.217C207.159 101.324 207.161 101.431 207.167 101.536C207.448 108.305 202.177 114.557 194.109 118.146C192.922 118.675 191.67 119.144 190.37 119.552C187.654 120.402 184.707 120.968 181.617 121.188C166.844 122.243 154.328 115.015 153.658 105.039C152.986 95.0661 164.417 86.1266 179.189 85.0687C181.309 84.9165 183.382 84.937 185.38 85.1118C186.781 85.2314 188.142 85.4273 189.454 85.6957C196.017 87.0247 201.431 90.0929 204.48 94.2081C206.038 96.3035 206.981 98.6704 207.151 101.217Z" fill="#E1F4F2"/>
<path d="M115.371 125.301L115.374 125.325C115.475 127.422 115.162 129.57 114.468 131.707L114.466 131.707C112.596 136.948 108.066 142.066 101.748 145.758C101.037 146.172 100.301 146.572 99.5442 146.95L94.5906 112.113C95.377 112.072 96.1493 112.059 96.913 112.074C105.138 112.229 111.97 115.605 114.458 121.581C114.957 122.78 115.258 124.027 115.37 125.298L115.371 125.301Z" fill="#313332"/>
<path d="M207.167 101.536C207.448 108.305 202.177 114.557 194.109 118.146C192.922 118.676 191.67 119.144 190.37 119.552L185.377 85.1149C186.779 85.2345 188.139 85.4305 189.451 85.6989C196.015 87.0278 201.428 90.096 204.477 94.2113C205.976 96.4459 206.911 98.9121 207.164 101.539L207.167 101.536Z" fill="#313332"/>
<path d="M131.166 150.374C133.953 151.381 136.876 152.143 139.83 152.52C141.14 152.686 142.461 152.767 143.782 152.753C145.445 152.736 147.094 152.663 148.733 152.371C151.314 151.912 153.882 151.091 156.151 149.785C157.367 149.083 158.549 148.351 159.627 147.454C160.705 146.556 161.646 145.606 162.512 144.567C164.446 142.242 165.715 139.473 166.282 136.552C166.462 135.634 166.064 134.475 165.482 133.767C164.9 133.06 163.9 132.474 162.968 132.408C161.967 132.337 160.885 132.542 160.103 133.21C159.322 133.878 158.882 134.676 158.688 135.669C158.631 135.964 158.563 136.258 158.487 136.547L158.739 135.611C158.435 136.736 157.982 137.812 157.4 138.832L157.883 137.998C157.202 139.173 156.362 140.251 155.404 141.224L156.087 140.533C154.998 141.623 153.772 142.567 152.444 143.358L153.293 142.854C151.871 143.692 150.349 144.346 148.754 144.799L149.742 144.518C147.818 145.053 145.832 145.321 143.837 145.359L144.865 145.343C142.207 145.384 139.568 145.028 137 144.397L137.959 144.635C136.635 144.305 135.335 143.905 134.054 143.444C133.11 143.103 132.013 143.099 131.079 143.503C130.235 143.869 129.38 144.671 129.066 145.531C128.727 146.455 128.648 147.526 129.103 148.428C129.559 149.33 130.226 150.033 131.169 150.373L131.166 150.374Z" fill="#313332"/>
<path d="M513.044 261.326C513.288 269.552 514.823 277.66 517.403 285.473C518.099 287.578 518.883 289.657 519.747 291.701C520.108 292.555 520.942 293.308 521.813 293.647C522.683 293.985 523.918 294.009 524.788 293.587C525.662 293.164 526.464 292.48 526.801 291.559C527.137 290.638 527.167 289.614 526.763 288.662C525.526 285.741 524.464 282.754 523.573 279.713L523.855 280.674C522.345 275.485 521.342 270.154 520.883 264.77C520.752 263.252 520.666 261.73 520.622 260.208C520.567 259.696 520.389 259.24 520.087 258.835C519.868 258.4 519.547 258.044 519.128 257.764C518.377 257.222 517.228 256.899 516.289 257.08C515.351 257.262 514.346 257.731 513.768 258.555L513.285 259.39C513.026 260.015 512.946 260.66 513.042 261.326L513.044 261.326Z" fill="#313332"/>
<path d="M537.206 65.598L505.843 63.0288L504.55 76.7317L535.912 79.3009L537.206 65.598Z" fill="#FAE5CB"/>
<path d="M578.997 69.0194L547.634 66.4502L546.34 80.1531L577.703 82.7223L578.997 69.0194Z" fill="#FAE5CB"/>
<path d="M561.691 67.6022L547.634 66.4507L546.34 80.1536L560.398 81.3052L561.691 67.6022Z" fill="#313332"/>
<path d="M520.048 64.1916L505.991 63.04L504.697 76.7429L518.755 77.8945L520.048 64.1916Z" fill="#313332"/>
<path d="M508.583 89.6221L522.946 106.336L537.967 94.0541L551.392 109.678L568.239 95.9016" stroke="#313332" stroke-width="8" stroke-linecap="round" stroke-linejoin="round"/>
</svg>
