<svg width="1393" height="510" viewBox="0 0 1393 510" fill="none" xmlns="http://www.w3.org/2000/svg">
<path d="M730.771 358.664L736.105 367.892L725.441 367.894L714.774 367.896L720.104 358.668L725.436 349.438L730.771 358.664Z" fill="#FCF2C1"/>
<path d="M713.181 389.165L718.515 398.393L707.851 398.395L697.187 398.398L702.516 389.167L707.846 379.939L713.181 389.165Z" fill="#FCF2C1"/>
<path d="M1218.44 140.441L1218.44 110L1188 110L1188 140.441L1218.44 140.441Z" fill="#F9DFBE"/>
<path d="M624.441 293.44H594V323.881H624.441V293.44Z" fill="#FBC587"/>
<path d="M546.441 233H516V263.441H546.441V233Z" fill="#FBA036"/>
<path d="M654.882 263H624.441V293.441H654.882V263Z" fill="#68C8BF"/>
<path d="M30.4409 479.44L30.4409 449L0.00015831 449L0.000156979 479.44L30.4409 479.44Z" fill="#FBC587"/>
<path d="M90.8813 401.441L90.8813 371L60.4406 371L60.4406 401.441L90.8813 401.441Z" fill="#FBA036"/>
<path d="M234.441 185.441L234.441 155L204 155L204 185.441L234.441 185.441Z" fill="#95D9D2"/>
<path d="M1392.44 60.4408L1392.44 30L1362 30L1362 60.4408L1392.44 60.4408Z" fill="#FBA036"/>
<path d="M1362.44 90.4408L1362.44 60L1332 60L1332 90.4408L1362.44 90.4408Z" fill="#68C8BF"/>
<path d="M1362.44 30.4408L1362.44 0L1332 -1.33061e-06L1332 30.4408L1362.44 30.4408Z" fill="#FBC587"/>
<path d="M433.441 460.441L433.441 430L403 430L403 460.441L433.441 460.441Z" fill="#FBDE56"/>
<path d="M403.441 430.441L403.441 400L373 400L373 430.441L403.441 430.441Z" fill="#E1F4F2"/>
<path d="M60.8813 509.882L60.8813 479.441L30.4406 479.441L30.4406 509.882L60.8813 509.882Z" fill="#68C8BF"/>
<path d="M45.4408 60H15V90.4407H45.4408V60Z" fill="#FBDE56"/>
</svg>
