<svg width="856" height="558" viewBox="0 0 856 558" fill="none" xmlns="http://www.w3.org/2000/svg">
<path d="M383.541 416.959H64.6689L224.104 141.043L279.827 237.475L208.087 356.745L294.661 263.146L383.541 416.959Z" fill="#FBDE56"/>
<path d="M752.715 157.085H502.588V406.997H752.715V157.085Z" fill="#FBA036"/>
<path d="M201.657 301.429C214.054 301.429 224.104 291.388 224.104 279.001C224.104 266.615 214.054 256.573 201.657 256.573C189.259 256.573 179.209 266.615 179.209 279.001C179.209 291.388 189.259 301.429 201.657 301.429Z" fill="#FDF5CD"/>
<path d="M235.822 256.573C248.219 256.573 258.269 246.532 258.269 234.146C258.269 221.759 248.219 211.718 235.822 211.718C223.425 211.718 213.375 221.759 213.375 234.146C213.375 246.532 223.425 256.573 235.822 256.573Z" fill="#FDF5CD"/>
<path d="M140.771 303.664L146.105 312.892L135.441 312.894L124.774 312.896L130.104 303.668L135.436 294.438L140.771 303.664Z" fill="#FCF2C1"/>
<path d="M573.331 288.628C573.331 288.628 603.174 281.137 606.496 267.817L577.7 254.294L573.331 284.616V288.628Z" fill="#FAE5CB"/>
<path d="M123.181 334.165L128.515 343.393L117.851 343.395L107.187 343.398L112.516 334.167L117.846 324.939L123.181 334.165Z" fill="#FCF2C1"/>
<path d="M723.832 224.034H683.901V263.931H723.832V224.034Z" fill="#F9DFBE"/>
<path d="M633.724 228.978H609.693V237.451H633.724V228.978Z" fill="#313332"/>
<path d="M545.707 228.978H527.53V237.451H545.707V228.978Z" fill="#313332"/>
<path d="M213.375 289.679C218.215 289.679 222.138 284.897 222.138 278.999C222.138 273.1 218.215 268.319 213.375 268.319C208.535 268.319 204.612 273.1 204.612 278.999C204.612 284.897 208.535 289.679 213.375 289.679Z" fill="#313332"/>
<path d="M247.972 244.826C252.811 244.826 256.735 240.044 256.735 234.146C256.735 228.247 252.811 223.466 247.972 223.466C243.132 223.466 239.208 228.247 239.208 234.146C239.208 240.044 243.132 244.826 247.972 244.826Z" fill="#313332"/>
<path d="M413.168 155.034L373.658 150.592L369.213 190.067L408.722 194.509L413.168 155.034Z" fill="#FBC587"/>
<path d="M437.698 197.654C445.797 197.654 452.362 191.095 452.362 183.003C452.362 174.911 445.797 168.351 437.698 168.351C429.599 168.351 423.034 174.911 423.034 183.003C423.034 191.095 429.599 197.654 437.698 197.654Z" fill="#95D9D2"/>
<path d="M322.857 155.58L316.345 196.958L355.468 181.905L322.857 155.58Z" fill="#FBDE56"/>
<path d="M517.814 257.56L535.032 270.701L570.831 251.187L623.096 275.556L655.109 256.849" stroke="#313332" stroke-width="8" stroke-linecap="round" stroke-linejoin="round"/>
<path d="M471.048 245.989C470.765 246.044 470.479 246.088 470.196 246.139C470.011 246.174 469.484 246.295 470.322 246.13C469.861 246.221 469.359 246.235 468.888 246.27C467.883 246.339 466.873 246.351 465.869 246.307C465.438 246.287 465.007 246.26 464.576 246.221C464.297 246.196 463.989 246.191 463.716 246.13C464.531 246.314 464.036 246.176 463.842 246.142C462.797 245.96 461.765 245.761 460.743 245.482C459.861 245.244 458.992 244.961 458.137 244.638C457.913 244.552 457.692 244.459 457.465 244.375C458.204 244.653 457.711 244.483 457.551 244.41C457.027 244.168 456.505 243.927 455.992 243.661C455.14 243.221 454.31 242.734 453.507 242.207C453.145 241.971 452.79 241.725 452.441 241.471C452.276 241.351 451.746 240.94 452.384 241.442C452.158 241.265 451.933 241.083 451.714 240.898C450.17 239.604 448.872 238.122 447.586 236.579C445.722 234.342 443.454 232.94 440.525 232.622C438.131 232.361 435.636 232.681 433.237 232.804C430.688 232.935 428.142 233.07 425.595 233.21C405.362 234.315 385.011 235.541 364.79 233.555C363.652 233.444 362.517 233.321 361.382 233.188C360.872 233.129 360.36 233.068 359.85 233.004C359.566 232.969 359.283 232.932 359 232.895C357.872 232.75 359.749 233.001 358.623 232.846C356.303 232.521 353.99 232.16 351.688 231.741C347.148 230.919 342.644 229.898 338.203 228.646C333.763 227.393 329.529 225.956 325.322 224.243C325.007 224.115 324.692 223.985 324.379 223.854C324.519 223.913 324.987 224.115 324.322 223.83C323.802 223.606 323.28 223.38 322.763 223.148C321.674 222.663 320.596 222.159 319.524 221.637C317.463 220.631 315.431 219.56 313.441 218.416C311.616 217.368 309.83 216.255 308.091 215.069C307.222 214.476 306.375 213.854 305.528 213.231C305.414 213.147 304.971 212.808 305.525 213.234C305.276 213.042 305.03 212.845 304.784 212.648C304.375 212.321 303.969 211.986 303.57 211.649C301.934 210.266 300.373 208.792 298.917 207.222C298.245 206.496 297.595 205.748 296.969 204.98C296.9 204.896 296.255 204.077 296.772 204.746C296.644 204.581 296.518 204.414 296.395 204.247C296.021 203.745 295.659 203.233 295.309 202.714C294.154 201.006 293.134 199.207 292.262 197.339C292.176 197.155 292.09 196.968 292.006 196.781C291.954 196.665 291.563 195.715 291.893 196.535C291.701 196.06 291.511 195.587 291.334 195.107C290.979 194.148 290.661 193.178 290.376 192.196C290.09 191.214 289.844 190.22 289.629 189.219C289.524 188.717 289.423 188.215 289.334 187.71C289.297 187.508 289.262 187.307 289.23 187.105C289.213 187.001 289.038 185.862 289.115 186.379C289.201 186.967 289.065 185.965 289.063 185.953C289.038 185.749 289.016 185.545 288.996 185.34C288.945 184.829 288.9 184.317 288.863 183.802C288.785 182.67 288.745 181.538 288.745 180.404C288.745 178.33 288.918 176.277 289.134 174.218C289.053 175 289.102 174.441 289.127 174.274C289.174 173.967 289.218 173.659 289.267 173.351C289.341 172.891 289.423 172.431 289.511 171.973C289.716 170.905 289.952 169.842 290.225 168.789C290.74 166.786 291.381 164.812 292.137 162.886C292.25 162.598 292.366 162.31 292.484 162.024C292.432 162.15 292.191 162.691 292.474 162.051C292.679 161.591 292.885 161.131 293.1 160.673C293.545 159.721 294.021 158.783 294.521 157.861C295.496 156.059 296.567 154.312 297.728 152.624C298.264 151.841 298.821 151.071 299.392 150.316C299.511 150.161 299.939 149.624 299.454 150.232C299.58 150.075 299.7 149.917 299.826 149.762C300.2 149.292 300.582 148.829 300.969 148.372C303.594 145.266 306.513 142.409 309.641 139.811C309.99 139.52 310.34 139.235 310.695 138.949C310.931 138.76 311.168 138.573 311.407 138.386C311.527 138.29 311.966 137.97 311.377 138.408C312.266 137.746 313.155 137.081 314.067 136.447C315.719 135.292 317.419 134.202 319.155 133.176C320.982 132.096 322.852 131.087 324.756 130.142C325.8 129.625 326.852 129.128 327.913 128.648C328.443 128.41 328.977 128.178 329.511 127.945C329.612 127.9 330.164 127.671 329.593 127.908C329.915 127.775 330.238 127.642 330.561 127.509C339.329 123.958 348.55 121.63 357.857 120.021C360.219 119.612 362.586 119.26 364.96 118.926C365.63 118.83 364.079 119.039 365.138 118.901C365.357 118.872 365.576 118.844 365.795 118.815C366.344 118.744 366.894 118.677 367.443 118.611C368.655 118.466 369.866 118.33 371.078 118.207C375.502 117.754 379.94 117.444 384.383 117.297C393.368 116.996 402.377 117.353 411.293 118.525C410.532 118.424 411.271 118.525 411.46 118.549C411.734 118.589 412.007 118.625 412.28 118.667C412.827 118.746 413.371 118.83 413.916 118.916C415.004 119.088 416.09 119.273 417.177 119.472C419.45 119.888 421.711 120.36 423.96 120.897C428.23 121.913 432.447 123.148 436.582 124.622C437.614 124.992 438.643 125.373 439.666 125.772C440.178 125.971 440.685 126.173 441.195 126.379C441.399 126.463 441.601 126.547 441.803 126.63C442.614 126.96 441.402 126.453 442.136 126.768C444.205 127.662 446.254 128.604 448.266 129.62C452.034 131.52 455.699 133.639 459.15 136.075C459.568 136.37 459.982 136.671 460.394 136.973C460.559 137.094 460.721 137.219 460.884 137.34C461.706 137.948 460.307 136.872 461.105 137.51C461.903 138.147 462.691 138.789 463.457 139.459C465.019 140.824 466.506 142.276 467.888 143.824C468.526 144.538 469.137 145.271 469.73 146.022C469.253 145.416 469.676 145.958 469.792 146.113C469.942 146.314 470.09 146.516 470.235 146.72C470.585 147.21 470.925 147.71 471.253 148.214C472.378 149.952 473.38 151.785 474.183 153.694C473.94 153.114 474.166 153.662 474.206 153.768C474.326 154.091 474.457 154.41 474.575 154.733C474.772 155.272 474.959 155.816 475.137 156.362C475.489 157.457 475.799 158.564 476.072 159.679C476.346 160.794 476.585 161.928 476.792 163.063C476.895 163.631 476.994 164.202 477.082 164.773C477.119 165.002 477.154 165.231 477.188 165.46C477.218 165.654 477.338 166.518 477.25 165.853C477.883 170.558 478.218 175.33 478.333 180.074C478.39 182.4 478.378 184.728 478.269 187.051C478.215 188.207 478.136 189.364 478.033 190.518C477.981 191.094 477.922 191.67 477.856 192.243C477.828 192.472 477.801 192.701 477.772 192.932C477.663 193.828 477.846 192.511 477.718 193.323C476.991 197.927 475.836 202.367 474.055 206.68C474.004 206.806 473.848 207.069 473.846 207.185L474.008 206.801C473.94 206.966 473.868 207.131 473.797 207.293C473.639 207.657 473.479 208.019 473.316 208.381C472.947 209.2 472.565 210.015 472.161 210.82C471.43 212.279 470.637 213.709 469.753 215.082C469.324 215.749 468.876 216.401 468.403 217.038C468.425 217.006 468.122 217.417 468.12 217.417C468.125 217.419 468.659 216.738 468.115 217.412C467.841 217.749 467.563 218.081 467.277 218.406C466.189 219.644 465.004 220.796 463.733 221.849C463.605 221.955 463.477 222.061 463.347 222.164C463.295 222.206 462.63 222.688 463.127 222.341C463.625 221.994 462.94 222.474 462.891 222.511C462.753 222.612 462.613 222.713 462.472 222.811C461.751 223.323 461.012 223.805 460.256 224.265C458.6 225.272 456.872 226.148 455.108 226.945C453.5 227.671 453.189 229.603 453.411 231.114C454.83 240.834 461.509 250.057 471.046 253.109C472.888 253.697 475.159 252.419 475.59 250.53C476.05 248.512 474.981 246.619 473.009 245.989C472.743 245.903 472.479 245.817 472.216 245.721C472.112 245.684 471.368 245.396 471.883 245.601C472.398 245.805 471.541 245.438 471.44 245.389C471.233 245.288 471.026 245.185 470.822 245.076C470.373 244.838 469.935 244.582 469.509 244.311C469.201 244.114 468.43 243.767 468.255 243.442C468.597 243.711 468.664 243.76 468.455 243.593C468.346 243.506 468.238 243.418 468.132 243.329C467.955 243.179 467.78 243.027 467.605 242.874C467.223 242.532 466.854 242.178 466.497 241.808C466.139 241.439 465.792 241.058 465.457 240.664C465.305 240.485 465.162 240.298 465.009 240.12C465.6 240.797 464.992 240.096 464.901 239.97C464.287 239.129 463.728 238.248 463.223 237.34C462.992 236.924 462.773 236.503 462.566 236.077C462.44 235.821 462.324 235.563 462.204 235.302C461.876 234.596 462.43 235.93 462.132 235.135C461.403 233.183 460.837 231.212 460.536 229.148L458.839 233.316C465.871 230.139 471.858 225.412 476.068 218.906C478.102 215.761 479.641 212.343 481.075 208.893C482.895 204.513 484.153 199.977 484.84 195.282C486.269 185.552 485.912 175.581 484.638 165.851C483.996 160.949 483.072 156.086 481.205 151.485C479.4 147.035 476.927 143.049 473.809 139.395C468.162 132.77 460.706 127.748 453.024 123.766C444.754 119.477 435.929 116.229 426.885 114.004C408.697 109.528 389.663 108.918 371.081 110.82C351.867 112.786 332.226 116.856 315.426 126.795C300.567 135.588 287.846 149.277 283.258 166.22C280.896 174.946 280.669 184.351 282.965 193.117C285.285 201.968 290.356 209.754 297.156 215.83C304.018 221.96 312.16 226.586 320.591 230.196C329.472 234 338.72 236.754 348.208 238.57C368.295 242.416 388.804 242.367 409.157 241.442C414.509 241.198 419.861 240.9 425.211 240.608C427.885 240.462 430.56 240.317 433.235 240.182C434.508 240.118 435.782 240.054 437.055 239.995C437.648 239.968 438.242 239.931 438.836 239.923C439.062 239.921 439.289 239.919 439.515 239.923C439.739 239.928 439.966 239.941 440.19 239.963C439.818 239.906 439.767 239.901 440.035 239.953C440.296 240.042 440.574 240.079 440.835 240.177C440.175 239.928 440.668 240.165 440.796 240.211C441.552 240.482 440.424 239.793 441.008 240.349C441.153 240.489 441.303 240.622 441.444 240.768C442.225 241.557 442.877 242.463 443.606 243.297C445.082 244.985 446.786 246.43 448.591 247.754C451.956 250.224 455.96 251.996 460.031 252.907C464.332 253.869 468.679 253.923 473.004 253.104C474.907 252.744 476.164 250.352 475.585 248.563C474.927 246.533 473.08 245.601 471.041 245.984L471.048 245.989Z" fill="#313332"/>
<path d="M318.613 171.779C318.369 173.679 318.118 175.576 317.864 177.473L317.931 176.983C317.268 181.91 316.571 186.829 315.837 191.746C315.628 193.156 315.414 194.566 315.199 195.976C315.096 196.648 315.167 197.265 315.675 197.772C316.148 198.245 316.827 198.41 317.473 198.247C320.793 197.413 324.014 196.195 327.073 194.664C327.938 194.231 328.253 192.939 327.736 192.14C327.164 191.256 326.135 191.012 325.209 191.478C324.283 191.943 323.411 192.341 322.49 192.73L322.931 192.543C320.839 193.419 318.687 194.135 316.49 194.689L318.763 196.96C319.768 190.395 320.709 183.82 321.593 177.237C321.837 175.421 322.076 173.602 322.31 171.784C322.367 171.351 322.064 170.772 321.768 170.48C321.448 170.16 320.921 169.918 320.463 169.938C320.005 169.958 319.49 170.115 319.157 170.48C318.803 170.866 318.682 171.269 318.615 171.784L318.613 171.779Z" fill="#313332"/>
<path d="M328.77 185.129C330.302 185.554 331.709 184.986 333.093 184.38L336.528 182.877L343.343 179.897L347.23 178.196C347.626 178.024 347.969 177.49 348.08 177.094C348.2 176.651 348.146 176.063 347.892 175.672C347.639 175.28 347.259 174.931 346.789 174.823C346.274 174.705 345.846 174.798 345.365 175.01C341.573 176.668 337.78 178.327 333.987 179.985C332.91 180.455 331.837 180.938 330.753 181.396L331.194 181.208C330.75 181.393 330.302 181.553 329.827 181.629L330.317 181.563C330.066 181.595 329.824 181.6 329.573 181.57L330.063 181.637C329.955 181.619 329.854 181.595 329.748 181.565C328.817 181.307 327.696 181.885 327.475 182.855C327.253 183.824 327.768 184.848 328.765 185.126L328.77 185.129Z" fill="#313332"/>
<path d="M331.15 177.335C332.115 177.335 333.041 176.486 332.997 175.49C332.952 174.493 332.184 173.644 331.15 173.644C330.184 173.644 329.258 174.493 329.302 175.49C329.347 176.486 330.115 177.335 331.15 177.335Z" fill="#313332"/>
<path d="M337.777 174.183C338.742 174.183 339.668 173.334 339.624 172.337C339.58 171.341 338.811 170.492 337.777 170.492C336.811 170.492 335.885 171.341 335.93 172.337C335.974 173.334 336.743 174.183 337.777 174.183Z" fill="#313332"/>
<path d="M332.142 191.977L334.316 198.144L336.097 195.808C334.326 195.892 332.568 196.237 330.925 196.906C330.462 197.095 330.085 197.305 329.822 197.755C329.59 198.151 329.492 198.734 329.634 199.177C329.777 199.62 330.056 200.056 330.484 200.28C330.913 200.504 331.457 200.649 331.908 200.467C333.009 200.019 334.154 199.711 335.331 199.546L334.841 199.613C335.26 199.559 335.676 199.522 336.097 199.502C336.691 199.475 337.183 199.246 337.548 198.774C337.885 198.336 338.07 197.711 337.878 197.164L335.703 190.998C335.54 190.54 335.284 190.146 334.853 189.895C334.457 189.664 333.873 189.565 333.43 189.708C332.531 189.998 331.797 191.002 332.139 191.979L332.142 191.977Z" fill="#313332"/>
<path d="M340.676 188.625C340.37 189.361 340.208 190.176 340.191 190.971C340.181 191.431 340.237 191.911 340.348 192.356C340.402 192.58 340.489 192.787 340.58 192.998C340.671 193.21 340.755 193.419 340.88 193.613C341.402 194.423 342.126 194.972 343.038 195.272C343.41 195.395 343.823 195.447 344.212 195.452C344.4 195.454 344.582 195.427 344.769 195.402C344.966 195.375 345.161 195.356 345.35 195.297C345.892 195.129 346.321 194.881 346.742 194.507C347.163 194.133 347.414 193.638 347.592 193.121C347.742 192.686 347.634 192.088 347.404 191.699C347.175 191.31 346.742 190.951 346.301 190.85C345.828 190.742 345.299 190.766 344.877 191.037C344.456 191.308 344.193 191.667 344.028 192.139C344.013 192.179 344.001 192.216 343.983 192.255L344.171 191.815C344.126 191.911 344.075 192.002 344.011 192.088L344.299 191.714C344.227 191.805 344.146 191.886 344.052 191.957L344.427 191.669C344.321 191.748 344.21 191.81 344.092 191.864L344.533 191.677C344.37 191.743 344.203 191.788 344.028 191.81L344.518 191.743C344.323 191.765 344.129 191.763 343.937 191.738L344.427 191.805C344.23 191.775 344.04 191.726 343.858 191.652L344.299 191.839C344.131 191.768 343.974 191.677 343.828 191.566L344.203 191.854C344.094 191.765 343.996 191.669 343.907 191.559L344.195 191.933C344.057 191.753 343.947 191.561 343.858 191.354L344.045 191.795C343.947 191.554 343.882 191.303 343.846 191.044L343.912 191.534C343.87 191.192 343.875 190.85 343.917 190.508L343.85 190.998C343.917 190.518 344.05 190.05 344.235 189.602C344.405 189.191 344.262 188.544 344.047 188.18C343.823 187.796 343.385 187.432 342.944 187.331C342.471 187.223 341.942 187.247 341.521 187.518L341.146 187.806C340.917 188.037 340.759 188.308 340.671 188.62L340.676 188.625Z" fill="#313332"/>
<path d="M372.578 169.968C373.918 169.692 375.233 169.308 376.509 168.811C377.243 168.526 377.97 168.216 378.679 167.871C379.295 167.573 379.878 167.197 380.504 166.919L380.063 167.106C380.189 167.056 380.312 167.022 380.445 167.002L379.955 167.069C380.026 167.061 380.095 167.061 380.166 167.069L379.676 167.002C379.866 167.032 380.036 167.091 380.213 167.165L379.772 166.978C383.977 168.823 388.166 170.698 392.365 172.556C392.836 172.766 393.274 172.884 393.789 172.743C394.217 172.625 394.683 172.296 394.892 171.894C395.119 171.466 395.232 170.947 395.079 170.472C394.941 170.044 394.661 169.559 394.23 169.37L387.366 166.328L383.878 164.783L382.191 164.035C381.809 163.865 381.43 163.685 381.038 163.54C380.531 163.351 379.994 163.353 379.464 163.439C378.745 163.557 378.098 164.027 377.46 164.359C376.886 164.66 376.3 164.933 375.704 165.186L376.144 164.999C374.677 165.614 373.157 166.087 371.598 166.407C370.65 166.601 370.014 167.773 370.307 168.678C370.632 169.682 371.563 170.177 372.581 169.968H372.578Z" fill="#313332"/>
<path d="M375.127 162.794C376.093 162.794 377.019 161.945 376.974 160.949C376.93 159.952 376.161 159.103 375.127 159.103C374.162 159.103 373.236 159.952 373.28 160.949C373.324 161.945 374.093 162.794 375.127 162.794Z" fill="#313332"/>
<path d="M390.929 164.323C391.895 164.323 392.821 163.474 392.776 162.477C392.732 161.48 391.964 160.631 390.929 160.631C389.964 160.631 389.038 161.48 389.082 162.477C389.126 163.474 389.895 164.323 390.929 164.323Z" fill="#313332"/>
<path d="M380.162 192.275L380.137 196.138L381.984 194.293L377.676 194.234C377.206 194.226 376.701 194.445 376.371 194.775C376.041 195.105 375.81 195.622 375.829 196.079C375.874 197.091 376.64 197.91 377.676 197.925L381.984 197.984C382.987 197.999 383.824 197.128 383.831 196.138L383.856 192.275C383.858 191.805 383.647 191.303 383.314 190.971C382.982 190.639 382.467 190.41 382.009 190.429C381.001 190.474 380.169 191.239 380.162 192.275Z" fill="#313332"/>
<path d="M393.927 194.059L393.951 196.259C393.956 196.714 394.148 197.248 394.493 197.563L394.868 197.851C395.156 198.019 395.466 198.102 395.801 198.102L398.835 198.434C399.089 198.444 399.328 198.39 399.547 198.274C399.776 198.201 399.973 198.073 400.141 197.893C400.461 197.573 400.702 197.047 400.683 196.589C400.663 196.131 400.505 195.617 400.141 195.285L399.766 194.997C399.478 194.829 399.168 194.746 398.833 194.746L395.799 194.413L397.646 196.259L397.621 194.059C397.616 193.582 397.419 193.092 397.079 192.755C396.759 192.435 396.232 192.194 395.774 192.214C395.316 192.233 394.801 192.391 394.469 192.755C394.136 193.119 393.922 193.562 393.927 194.059Z" fill="#313332"/>
<path d="M402.2 155.404C403.766 155.641 405.328 155.921 406.879 156.246C407.645 156.406 408.409 156.578 409.17 156.76C409.931 156.942 410.716 157.1 411.458 157.351L411.017 157.164C411.202 157.262 411.152 157.196 410.867 156.965C410.64 156.684 410.571 156.627 410.662 156.795L410.475 156.354C410.495 156.406 410.51 156.458 410.517 156.512L410.451 156.022C410.465 156.17 410.458 156.31 410.441 156.455L410.507 155.966C410.059 159.059 409.837 162.145 410.019 165.272C410.076 166.234 410.83 167.165 411.867 167.118C412.82 167.076 413.773 166.303 413.714 165.272C413.559 162.637 413.657 159.991 414.004 157.373L413.938 157.863C414.017 157.287 414.174 156.687 414.155 156.108C414.118 155.006 413.47 154.162 412.441 153.793C411.968 153.623 411.458 153.524 410.97 153.401C410.446 153.269 409.919 153.143 409.391 153.022C407.337 152.55 405.269 152.159 403.185 151.844C402.675 151.767 402.224 151.76 401.761 152.031C401.377 152.255 401.013 152.693 400.912 153.133C400.803 153.606 400.828 154.135 401.099 154.556C401.343 154.932 401.739 155.333 402.202 155.404H402.2Z" fill="#313332"/>
<path d="M421.728 182.498C423.152 184.836 425.553 186.303 428.156 186.999C430.759 187.695 433.513 187.828 436.06 187.275C437.744 186.908 439.264 186.02 440.215 184.56C440.742 183.748 440.404 182.486 439.552 182.036C438.631 181.548 437.589 181.831 437.025 182.698C436.996 182.747 436.964 182.794 436.929 182.84C436.818 182.99 436.863 182.934 437.062 182.671C437.003 182.727 436.951 182.798 436.895 182.86C436.838 182.922 436.776 182.978 436.715 183.035C436.661 183.084 436.358 183.325 436.646 183.104C436.934 182.882 436.621 183.111 436.56 183.153C436.488 183.197 436.417 183.241 436.343 183.283C436.171 183.382 435.991 183.465 435.806 183.544L436.247 183.357C435.619 183.613 434.959 183.763 434.286 183.854L434.777 183.788C433.35 183.967 431.888 183.928 430.464 183.736L430.954 183.802C429.796 183.643 428.656 183.362 427.577 182.909L428.018 183.096C427.654 182.939 427.297 182.766 426.952 182.567C426.782 182.469 426.614 182.365 426.452 182.257C426.358 182.196 426.27 182.129 426.178 182.065C425.91 181.878 426.565 182.375 426.255 182.124C425.944 181.873 425.669 181.61 425.408 181.322C425.341 181.248 425.277 181.174 425.215 181.098C425.178 181.054 425.144 181.012 425.11 180.968C425.302 181.219 425.356 181.288 425.27 181.172C425.146 180.997 425.026 180.82 424.915 180.638C424.413 179.814 423.235 179.43 422.388 179.976C421.541 180.522 421.189 181.617 421.726 182.501L421.728 182.498Z" fill="#313332"/>
<path d="M429.673 177.313C430.639 177.313 431.565 176.464 431.521 175.468C431.476 174.471 430.708 173.622 429.673 173.622C428.708 173.622 427.782 174.471 427.826 175.468C427.871 176.464 428.639 177.313 429.673 177.313Z" fill="#313332"/>
<path d="M435.791 177.567C436.757 177.567 437.683 176.718 437.638 175.721C437.594 174.724 436.826 173.875 435.791 173.875C434.826 173.875 433.9 174.724 433.944 175.721C433.988 176.718 434.757 177.567 435.791 177.567Z" fill="#313332"/>
<path d="M427.102 196.143C427.088 196.266 427.073 196.389 427.055 196.512L427.122 196.023C427.055 196.493 426.967 196.955 426.79 197.398L426.977 196.958C426.883 197.179 426.77 197.383 426.624 197.575L426.913 197.201C426.807 197.332 426.691 197.447 426.56 197.551L426.935 197.263C426.809 197.354 426.681 197.43 426.541 197.497L426.982 197.31C426.819 197.378 426.654 197.423 426.479 197.452L426.969 197.386C426.716 197.42 426.464 197.413 426.211 197.381L426.701 197.447C426.324 197.388 425.964 197.275 425.612 197.13L426.053 197.317C425.62 197.135 425.208 196.911 424.804 196.67C423.974 196.175 422.74 196.456 422.277 197.332C421.814 198.208 422.053 199.327 422.94 199.856C424.509 200.792 426.391 201.53 428.181 200.774C429.063 200.403 429.782 199.694 430.166 198.818C430.353 198.392 430.509 197.979 430.6 197.524C430.691 197.068 430.742 196.606 430.797 196.146C430.851 195.685 430.553 195.139 430.255 194.841C429.935 194.521 429.408 194.28 428.949 194.3C428.491 194.32 427.977 194.477 427.644 194.841L427.356 195.215C427.189 195.503 427.105 195.813 427.105 196.148L427.102 196.143Z" fill="#313332"/>
<path d="M439.089 198.375C439.121 198.493 439.144 198.609 439.163 198.73L439.097 198.24C439.19 198.963 439.06 199.685 439.006 200.403C438.937 201.338 439.047 202.391 439.599 203.181C439.942 203.671 440.358 204.119 440.895 204.399C441.471 204.7 441.991 204.815 442.631 204.887C443.471 204.98 444.343 204.818 445.16 204.638C446.106 204.431 446.747 203.282 446.451 202.367C446.128 201.375 445.19 200.856 444.178 201.077C443.894 201.139 443.611 201.193 443.323 201.232L443.813 201.166C443.407 201.218 443 201.24 442.594 201.188L443.084 201.255C442.86 201.223 442.643 201.168 442.434 201.08L442.875 201.267C442.732 201.203 442.601 201.124 442.476 201.031L442.85 201.318C442.742 201.23 442.646 201.134 442.557 201.028L442.845 201.402C442.747 201.272 442.668 201.136 442.601 200.989L442.789 201.429C442.712 201.24 442.665 201.043 442.636 200.841L442.702 201.331C442.636 200.745 442.72 200.159 442.774 199.576C442.843 198.845 442.835 198.11 442.646 197.391C442.4 196.458 441.316 195.796 440.373 196.102C439.429 196.407 438.818 197.371 439.082 198.373L439.089 198.375Z" fill="#313332"/>
<path d="M426.44 194.509C428.612 195.912 430.89 197.196 433.365 197.981C435.841 198.766 438.444 198.902 440.991 198.387C445.786 197.42 449.931 194.074 452.113 189.733C453.389 187.196 454.081 184.417 454.162 181.58C454.189 180.613 453.293 179.69 452.315 179.734C451.337 179.779 450.497 180.544 450.468 181.58C450.451 182.215 450.399 182.845 450.315 183.472L450.382 182.983C450.175 184.471 449.778 185.926 449.199 187.314L449.387 186.873C449.01 187.762 448.559 188.618 448.032 189.425C447.904 189.62 447.773 189.811 447.638 190.001C447.579 190.082 447.52 190.161 447.461 190.242C447.345 190.395 447.382 190.348 447.567 190.107C447.525 190.158 447.485 190.21 447.443 190.262C447.153 190.623 446.842 190.973 446.517 191.308C446.192 191.642 445.86 191.95 445.508 192.245C445.407 192.329 445.306 192.413 445.202 192.494C444.946 192.703 445.552 192.235 445.264 192.447C445.079 192.582 444.892 192.718 444.702 192.848C443.914 193.385 443.072 193.835 442.195 194.206L442.636 194.019C441.515 194.485 440.343 194.809 439.141 194.974L439.631 194.908C438.515 195.053 437.392 195.055 436.274 194.908L436.764 194.974C435.405 194.785 434.092 194.386 432.828 193.862L433.269 194.049C431.526 193.313 429.893 192.349 428.306 191.325C427.494 190.801 426.23 191.133 425.78 191.987C425.294 192.905 425.575 193.951 426.442 194.512L426.44 194.509Z" fill="#313332"/>
<path d="M545.707 264.883C545.707 264.883 568.191 324.777 609.691 269.308L601.548 266.537C601.548 266.537 591.199 285.643 577.7 284.132C577.7 284.132 572.144 262.213 590.677 260.323L571.008 251.189L545.707 264.883Z" fill="#313332"/>
<path d="M566.673 408.193C567.56 412.948 568.501 417.69 569.493 422.422C570.486 427.154 571.52 431.837 572.611 436.527C572.919 437.849 573.229 439.168 573.545 440.484C573.86 441.801 574.237 443.046 574.419 444.35L574.286 443.368C574.345 443.833 574.362 444.296 574.298 444.763L574.431 443.782C574.384 444.065 574.311 444.333 574.202 444.596L574.574 443.715C574.434 444.025 574.256 444.306 574.052 444.576L574.631 443.828C573.793 444.894 572.766 445.831 571.83 446.808L568.828 449.934C568.402 450.377 568.042 450.967 567.877 451.563L567.744 452.544C567.725 453.054 567.831 453.526 568.062 453.967C568.151 454.279 568.308 454.55 568.537 454.781C568.702 455.059 568.922 455.278 569.2 455.443C569.432 455.672 569.702 455.83 570.015 455.918C570.456 456.15 570.929 456.255 571.439 456.236C575.532 456.625 579.658 456.666 583.758 456.351C584.803 456.27 585.847 456.167 586.886 456.041C587.608 455.953 588.344 455.896 589.056 455.731C590.031 455.502 590.866 455.01 591.618 454.365C591.975 454.058 592.258 453.647 592.519 453.261C592.795 452.852 592.965 452.348 593.142 451.9C593.319 451.452 593.46 450.997 593.605 450.541C593.908 449.594 594.191 448.637 594.452 447.677C595.571 443.553 596.28 439.315 596.649 435.06C597.019 430.806 596.832 426.861 596.923 422.756C597.014 418.652 597.435 414.513 597.893 410.408C597.952 409.884 598.011 409.362 598.07 408.838C598.09 408.329 597.984 407.856 597.753 407.416C597.605 406.958 597.349 406.562 596.989 406.227C596.349 405.587 595.297 405.105 594.376 405.147C593.455 405.189 592.43 405.504 591.763 406.227L591.184 406.975C590.849 407.551 590.682 408.171 590.679 408.838C590.248 412.66 589.817 416.486 589.623 420.328C589.428 424.169 589.603 428.005 589.46 431.842C589.381 433.951 589.199 436.052 588.921 438.144L589.054 437.162C588.758 439.35 588.359 441.52 587.849 443.668C587.596 444.731 587.317 445.79 587.012 446.84C586.706 447.891 586.418 448.934 586.019 449.936L586.391 449.055C586.3 449.269 586.194 449.466 586.054 449.653L586.633 448.905C586.549 449.003 586.46 449.09 586.359 449.173L587.108 448.595C586.98 448.686 586.849 448.76 586.706 448.826L587.588 448.455C587.234 448.6 586.859 448.666 586.482 448.718L587.465 448.585C583.337 449.124 579.16 449.294 575 449.104C573.813 449.05 572.626 448.964 571.441 448.853L574.054 455.155L577.478 451.592C578.035 451.014 578.594 450.436 579.148 449.855C579.813 449.158 580.492 448.405 580.916 447.537C581.485 446.373 581.808 445.108 581.721 443.804C581.653 442.775 581.453 441.764 581.212 440.767C580.83 439.195 580.453 437.62 580.084 436.045C578.599 429.723 577.205 423.379 575.907 417.015C575.175 413.428 574.473 409.832 573.801 406.232C573.638 405.366 572.838 404.455 572.104 404.027C571.311 403.565 570.146 403.368 569.257 403.656C568.368 403.944 567.501 404.497 567.05 405.351L566.678 406.232C566.503 406.887 566.503 407.541 566.678 408.196L566.673 408.193Z" fill="#313332"/>
<path d="M649.248 408.243C649.312 413.612 649.538 418.979 649.933 424.334C650.349 429.979 650.964 435.604 651.726 441.213C652.132 444.212 652.592 447.207 653.102 450.19L653.474 451.071C653.706 451.501 654.023 451.846 654.425 452.107C654.656 452.335 654.927 452.493 655.24 452.581C655.681 452.813 656.154 452.919 656.664 452.899L671.444 454.678C673.879 454.971 676.626 455.635 678.877 454.257C679.246 454.031 679.628 453.748 679.931 453.43C680.505 452.83 680.81 452.237 681.096 451.467C681.133 451.368 681.16 451.277 681.18 451.174C681.258 450.792 681.335 450.364 681.327 449.968C681.318 449.459 681.253 448.912 681.064 448.43C680.768 447.677 680.576 447.298 680.113 446.698C679.862 446.375 679.625 446.065 679.327 445.787C678.911 445.401 678.461 445.049 678.025 444.685L674.857 442.039L673.274 440.718C672.788 440.312 672.252 439.93 671.843 439.446L672.421 440.194C672.32 440.063 672.239 439.933 672.17 439.783L672.542 440.664C672.493 440.531 672.461 440.403 672.441 440.263L672.574 441.245C672.564 441.102 672.567 440.964 672.579 440.821L672.446 441.803C672.515 441.301 672.7 440.824 672.857 440.341C673.015 439.859 673.18 439.357 673.338 438.865C673.663 437.861 673.98 436.857 674.293 435.848C674.926 433.815 675.537 431.775 676.123 429.728C677.293 425.655 678.372 421.556 679.362 417.434C679.919 415.111 680.448 412.783 680.946 410.448C681.153 409.478 681.086 408.476 680.574 407.603C680.125 406.838 679.246 406.107 678.367 405.907C677.421 405.693 676.36 405.738 675.52 406.279C674.737 406.783 674.022 407.546 673.823 408.484C672.582 414.281 671.165 420.042 669.569 425.754C668.776 428.591 667.941 431.414 667.062 434.226C666.624 435.631 666.173 437.034 665.712 438.432C665.607 438.757 665.488 439.079 665.405 439.409C665.158 440.376 665.146 441.247 665.316 442.222C665.513 443.349 666.249 444.412 667.106 445.147C668.382 446.247 669.69 447.308 670.983 448.386L672.939 450.02C673.513 450.5 674.133 450.952 674.599 451.541L674.02 450.792C674.133 450.943 674.229 451.098 674.311 451.27L673.939 450.389C673.995 450.529 674.037 450.665 674.059 450.815L673.926 449.833C673.936 449.953 673.936 450.067 673.919 450.187L674.052 449.205C674.032 449.306 674.005 449.402 673.968 449.498L674.34 448.617C674.293 448.72 674.237 448.812 674.168 448.9L674.746 448.152C674.675 448.236 674.596 448.31 674.508 448.376L675.256 447.798C675.143 447.876 675.025 447.94 674.899 447.997L675.781 447.625C675.549 447.719 675.313 447.773 675.069 447.81L676.052 447.677C675.007 447.81 673.936 447.584 672.902 447.458L668.949 446.983L661.102 446.038L656.661 445.504L660.223 448.214C659.698 445.15 659.228 442.076 658.811 438.995L658.944 439.977C658.393 435.875 657.937 431.763 657.58 427.639C657.223 423.517 656.967 419.385 656.807 415.249C656.715 412.908 656.659 410.568 656.632 408.225C656.619 407.273 656.228 406.294 655.55 405.615C654.91 404.975 653.858 404.492 652.937 404.534C652.016 404.576 650.992 404.891 650.324 405.615C649.657 406.338 649.231 407.229 649.243 408.225L649.248 408.243Z" fill="#313332"/>
<path d="M208.193 419.587C208.37 420.323 208.501 421.071 208.646 421.814C208.956 423.386 209.259 424.959 209.557 426.531C210.321 430.542 211.064 434.561 211.752 438.587C212.064 440.413 212.37 442.241 212.619 444.077L212.486 443.095C212.552 443.59 212.616 444.084 212.658 444.581C212.68 444.849 212.715 445.135 212.68 445.406L212.813 444.424C212.803 444.49 212.781 444.537 212.754 444.601L213.126 443.72C212.986 444.03 212.808 444.311 212.604 444.581L213.183 443.833C212.345 444.899 211.318 445.836 210.382 446.813L207.38 449.938C206.954 450.381 206.594 450.972 206.429 451.567L206.296 452.549C206.277 453.059 206.382 453.531 206.614 453.972C206.703 454.284 206.86 454.555 207.089 454.786C207.254 455.064 207.474 455.283 207.752 455.448C207.983 455.677 208.254 455.834 208.567 455.923C209.008 456.154 209.481 456.26 209.991 456.241C213.202 456.546 216.431 456.639 219.655 456.511C221.266 456.447 222.874 456.329 224.478 456.157C225.502 456.046 226.556 455.97 227.561 455.746C227.716 455.711 227.867 455.667 228.014 455.613C228.421 455.465 228.859 455.305 229.231 455.079C230.029 454.594 230.591 454.001 231.095 453.224C231.625 452.407 231.893 451.361 232.189 450.433C232.425 449.69 232.649 448.939 232.861 448.189C233.282 446.685 233.649 445.164 233.965 443.634C234.649 440.292 235.105 436.889 235.317 433.485C235.541 429.873 235.393 426.253 235.474 422.638C235.497 421.706 235.048 420.682 234.393 420.027C233.738 419.373 232.701 418.905 231.78 418.947C230.859 418.989 229.834 419.304 229.167 420.027C228.499 420.751 228.108 421.629 228.086 422.638C227.995 426.686 228.165 430.732 227.834 434.77C227.741 435.9 227.62 437.024 227.47 438.149L227.603 437.167C227.307 439.354 226.908 441.525 226.399 443.673C226.145 444.736 225.867 445.794 225.561 446.845C225.256 447.896 224.968 448.939 224.569 449.941L224.941 449.06C224.849 449.274 224.744 449.471 224.603 449.658L225.182 448.91C225.098 449.008 225.01 449.094 224.909 449.178L225.657 448.6C225.529 448.691 225.399 448.765 225.256 448.831L226.138 448.459C225.783 448.605 225.409 448.671 225.032 448.723L226.014 448.59C221.887 449.129 217.709 449.299 213.55 449.109C212.362 449.055 211.175 448.969 209.991 448.858L212.604 455.16L215.478 452.168C216.392 451.218 217.362 450.298 218.214 449.291C218.948 448.427 219.576 447.559 219.921 446.466C220.034 446.107 220.059 445.718 220.076 445.342C220.086 445.142 220.076 444.941 220.059 444.741C219.899 442.573 219.505 440.408 219.15 438.262C218.697 435.518 218.204 432.779 217.705 430.045C217.205 427.311 216.727 424.794 216.222 422.171C215.939 420.706 215.668 419.237 215.352 417.781C215.34 417.729 215.33 417.677 215.318 417.628C215.104 416.745 214.397 415.876 213.621 415.423C212.845 414.97 211.663 414.764 210.774 415.052C209.885 415.339 209.018 415.893 208.567 416.747C208.116 417.601 207.954 418.595 208.195 419.592L208.193 419.587Z" fill="#313332"/>
<path d="M267.428 417.623C266.576 421.602 265.665 425.569 264.434 429.45C263.862 431.249 263.249 433.035 262.643 434.824C262.234 436.03 261.83 437.236 261.429 438.444C261.323 438.767 261.205 439.087 261.121 439.414C260.875 440.381 260.862 441.252 261.032 442.226C261.229 443.354 261.966 444.417 262.823 445.152C264.099 446.252 265.406 447.313 266.699 448.391L268.655 450.025C269.229 450.505 269.849 450.957 270.315 451.546L269.736 450.798C269.849 450.948 269.946 451.103 270.027 451.275L269.655 450.394C269.712 450.534 269.753 450.67 269.776 450.82L269.643 449.838C269.652 449.958 269.652 450.072 269.635 450.192L269.768 449.21C269.64 449.84 269.502 450.492 269.256 451.088L269.628 450.207C269.547 450.391 269.453 450.569 269.332 450.729L269.911 449.98C269.847 450.059 269.781 450.128 269.702 450.192L270.45 449.614C270.389 449.661 270.325 449.698 270.256 449.729L271.138 449.358C271.064 449.387 270.992 449.407 270.916 449.419L271.899 449.287C271.647 449.314 271.391 449.257 271.143 449.232C270.837 449.2 270.529 449.176 270.224 449.154C269.596 449.109 268.968 449.085 268.34 449.072C267.039 449.048 265.739 449.077 264.441 449.124C261.825 449.22 259.212 449.395 256.594 449.392C255.188 449.392 253.779 449.336 252.38 449.171L256.074 452.862L255.634 449.267L254.584 440.698L253.316 430.343L252.215 421.366C252.038 419.914 251.86 418.46 251.681 417.008L251.673 416.949C251.693 416.44 251.587 415.967 251.355 415.527C251.208 415.069 250.951 414.673 250.592 414.338C249.952 413.698 248.9 413.216 247.979 413.258C247.058 413.3 246.033 413.615 245.366 414.338C244.75 415.008 244.169 416.002 244.284 416.949L244.725 420.544L245.774 429.113L247.043 439.468L248.144 448.445C248.321 449.897 248.498 451.351 248.678 452.803L248.686 452.862C248.666 453.372 248.772 453.844 249.003 454.284C249.151 454.742 249.407 455.138 249.767 455.473L250.516 456.051C251.092 456.386 251.713 456.553 252.38 456.556C257.234 457.129 262.136 456.479 267.002 456.45C268.18 456.443 269.359 456.467 270.532 456.561C271.364 456.627 272.096 456.767 272.938 456.529C274.182 456.174 275.078 455.402 275.79 454.348C276.054 453.957 276.211 453.477 276.384 453.047C276.467 452.84 276.539 452.628 276.6 452.412C276.716 452.003 276.815 451.585 276.896 451.169C277.068 450.298 277.095 449.555 276.869 448.679C276.768 448.29 276.578 447.904 276.408 447.544C276.342 447.404 276.265 447.271 276.174 447.143C275.657 446.403 275.12 445.834 274.438 445.266L270.945 442.35L269.177 440.871C268.633 440.415 268.02 439.987 267.561 439.443L268.14 440.191C268.039 440.061 267.958 439.931 267.889 439.78L268.261 440.661C268.212 440.529 268.18 440.401 268.16 440.26L268.293 441.242C268.283 441.099 268.286 440.962 268.298 440.819L268.165 441.801C268.234 441.301 268.416 440.826 268.574 440.349C268.731 439.872 268.877 439.436 269.029 438.981C269.303 438.161 269.579 437.344 269.857 436.527C270.305 435.201 270.756 433.877 271.192 432.548C271.968 430.181 272.657 427.789 273.248 425.368C273.716 423.446 274.142 421.516 274.556 419.582C274.763 418.613 274.696 417.611 274.184 416.737C273.736 415.972 272.857 415.241 271.977 415.042C271.032 414.828 269.97 414.872 269.13 415.414C268.347 415.918 267.633 416.681 267.433 417.618L267.428 417.623Z" fill="#313332"/>
<path d="M734.901 324.108C734.787 324.263 734.672 324.413 734.556 324.566L735.135 323.817C734.029 325.24 732.743 326.51 731.322 327.614L732.071 327.036C730.445 328.289 728.662 329.317 726.773 330.12L727.655 329.748C725.517 330.646 723.268 331.252 720.97 331.562L721.953 331.429C719.685 331.726 717.389 331.734 715.121 331.434L716.104 331.567C714.008 331.284 711.956 330.737 710.006 329.918L710.887 330.289C709.2 329.568 707.607 328.648 706.153 327.526L706.902 328.104C706.432 327.737 705.984 327.351 705.614 326.881L706.193 327.629C706.038 327.423 705.91 327.208 705.801 326.972L706.173 327.853C706.092 327.651 706.033 327.45 705.996 327.236L706.129 328.217C706.102 327.998 706.097 327.787 706.119 327.568L705.986 328.55C706.023 328.276 706.097 328.016 706.198 327.757L705.826 328.638C706.19 327.782 706.799 327.063 707.328 326.308C707.599 325.924 707.853 325.525 708.05 325.097C708.267 324.632 708.491 324.142 708.634 323.645C708.777 323.148 708.833 322.58 708.89 322.048C708.971 321.293 708.85 320.495 708.69 319.762C708.53 319.029 708.203 318.295 707.858 317.626C707.254 316.45 706.353 315.382 705.407 314.461C704.462 313.541 703.333 312.695 702.233 311.905L698.932 309.54L692.332 304.81L684.847 299.448L683.965 299.077C683.475 298.921 682.982 298.902 682.492 299.01C681.766 299.108 680.845 299.421 680.372 300.026C677.219 304.052 674.227 308.194 671.456 312.493C668.833 316.561 666.4 320.751 664.166 325.045C663.602 326.128 663.04 327.211 662.515 328.313C661.991 329.416 661.589 330.415 661.599 331.611C661.612 333.053 662.205 334.288 663.136 335.354C663.656 335.949 664.348 336.395 664.981 336.857L666.56 338.011L669.717 340.32L682.522 349.683C683.007 350.037 683.482 350.416 684.004 350.714C684.977 351.265 686.071 351.627 687.196 351.634C689.233 351.647 690.822 350.48 692.144 349.06C693.92 347.153 695.696 345.246 697.472 343.339L698.792 341.922H693.568C695.721 344.198 698.302 346.147 701.065 347.621C703.841 349.102 706.855 350.217 709.941 350.847C713.028 351.477 716.232 351.755 719.387 351.534C722.529 351.312 725.672 350.736 728.63 349.641C730.398 348.987 732.14 348.216 733.77 347.266C735.401 346.317 736.935 345.18 738.366 343.949C739.051 343.359 739.447 342.214 739.447 341.338C739.447 340.462 739.046 339.353 738.366 338.727C737.686 338.102 736.738 337.603 735.753 337.647C734.768 337.691 733.916 338.061 733.14 338.727C732.79 339.028 732.433 339.321 732.066 339.604L732.815 339.025C731.019 340.406 729.051 341.538 726.968 342.424L727.849 342.052C725.458 343.058 722.938 343.73 720.367 344.08L721.35 343.947C718.569 344.318 715.749 344.314 712.968 343.942L713.951 344.075C711.308 343.713 708.72 343.022 706.262 341.99L707.144 342.362C704.971 341.444 702.915 340.265 701.04 338.831L701.789 339.409C700.72 338.585 699.718 337.682 698.792 336.702C697.457 335.292 694.9 335.27 693.568 336.702L689.657 340.903L687.751 342.95C687.152 343.592 686.583 344.299 685.894 344.845L686.642 344.267C686.46 344.402 686.273 344.518 686.066 344.611L686.948 344.24C686.807 344.294 686.667 344.336 686.519 344.365L687.502 344.232C687.297 344.259 687.103 344.257 686.898 344.232L687.881 344.365C687.679 344.328 687.49 344.269 687.3 344.195L688.182 344.567C687.497 344.267 686.908 343.794 686.31 343.356L684.381 341.946L680.463 339.082L672.628 333.353C671.175 332.29 669.702 331.249 668.269 330.161L669.018 330.74C668.754 330.533 668.505 330.316 668.293 330.058L668.872 330.806C668.764 330.659 668.675 330.511 668.601 330.344L668.973 331.224C668.931 331.111 668.904 331.008 668.88 330.892L669.013 331.874C668.991 331.702 668.991 331.539 669.008 331.365L668.875 332.347C668.922 332.039 669.015 331.756 669.133 331.471L668.761 332.352C669.599 330.449 670.623 328.609 671.609 326.78C672.599 324.942 673.626 323.126 674.687 321.33C676.791 317.776 679.034 314.304 681.411 310.928C682.766 309.003 684.165 307.109 685.603 305.248L685.024 305.996C685.214 305.75 685.406 305.504 685.598 305.261L681.12 305.839C685.913 309.272 690.709 312.707 695.501 316.14C696.804 317.072 698.132 317.978 699.403 318.955L698.654 318.377C699.622 319.13 700.538 319.956 701.294 320.924L700.715 320.175C701.087 320.663 701.412 321.179 701.659 321.743L701.287 320.862C701.444 321.241 701.558 321.627 701.622 322.033L701.489 321.052C701.538 321.423 701.538 321.79 701.489 322.161L701.622 321.179C701.568 321.524 701.472 321.851 701.339 322.174L701.71 321.293C701.366 322.068 700.841 322.737 700.348 323.421C699.733 324.273 699.191 325.213 698.927 326.239C698.511 327.87 698.725 329.652 699.622 331.092C700.427 332.386 701.526 333.245 702.728 334.143C703.942 335.049 705.257 335.821 706.639 336.449C708.309 337.207 710.02 337.854 711.808 338.272C718.69 339.879 726.042 338.924 732.3 335.659C734.061 334.741 735.686 333.587 737.206 332.315C738.726 331.042 740.075 329.482 741.28 327.846C741.812 327.12 741.881 325.83 741.652 325.001C741.423 324.172 740.753 323.217 739.955 322.796C739.097 322.343 738.058 322.117 737.108 322.425L736.226 322.796C735.672 323.124 735.228 323.566 734.901 324.12V324.108Z" fill="#313332"/>
<path d="M484.779 319.481L492.229 307.48C492.5 307.057 492.645 306.599 492.667 306.107C492.778 305.617 492.756 305.125 492.601 304.635L492.229 303.754C491.901 303.201 491.458 302.758 490.904 302.43L472.816 289.696L463.772 283.327C463.034 282.808 462.309 282.225 461.529 281.772C460.812 281.356 460.088 281.112 459.28 281.004C458.576 280.911 458.155 280.913 457.403 281.076C456.945 281.174 456.49 281.376 456.081 281.59C455.123 282.092 454.436 282.894 453.763 283.709C453.234 284.348 452.707 284.993 452.187 285.643C447.759 291.17 443.66 296.955 439.993 303.016C439.114 304.47 438.257 305.94 437.424 307.423C436.865 308.418 436.326 309.431 435.976 310.524C435.577 311.767 435.488 313.322 435.937 314.567C436.385 315.812 437.035 316.841 437.988 317.724C438.761 318.443 439.641 319.056 440.478 319.698C441.862 320.761 443.259 321.807 444.668 322.838C450.3 326.962 456.115 330.838 462.09 334.45C462.822 334.891 463.553 335.329 464.287 335.762C465.075 336.227 466.25 336.419 467.134 336.134L468.016 335.762C468.57 335.435 469.014 334.992 469.341 334.438C469.654 333.99 469.977 333.55 470.309 333.119L469.73 333.867C471.112 332.083 472.666 330.439 474.37 328.96L468.568 328.212C471.437 331.977 474.314 335.853 478.016 338.853C479.094 339.726 480.205 340.57 481.39 341.296C482.574 342.022 483.769 342.546 485.02 343.058C486.005 343.462 487.025 343.782 488.064 344.006C489.377 344.291 490.734 344.473 492.076 344.508C493.529 344.542 495.017 344.372 496.428 344.045C497.84 343.718 499.214 343.154 500.465 342.443C501.265 341.988 501.918 341.122 502.162 340.238C502.406 339.355 502.295 338.179 501.79 337.394C501.285 336.609 500.524 335.912 499.583 335.698C498.606 335.477 497.623 335.568 496.736 336.07C496.34 336.296 495.931 336.498 495.512 336.675L496.394 336.303C495.409 336.714 494.379 336.985 493.325 337.135L494.308 337.002C493.012 337.175 491.707 337.16 490.411 336.992L491.394 337.125C489.813 336.911 488.271 336.476 486.801 335.863L487.682 336.235C485.993 335.518 484.436 334.561 482.983 333.444L483.732 334.022C480.602 331.596 478.06 328.527 475.649 325.409L476.227 326.158C475.799 325.604 475.375 325.048 474.949 324.489C474.622 323.935 474.178 323.492 473.624 323.165C473.201 322.894 472.742 322.749 472.25 322.727C471.76 322.616 471.267 322.639 470.777 322.794C470.151 322.968 469.607 323.286 469.147 323.743C466.787 325.788 464.748 328.161 462.96 330.717L468.014 329.393C461.433 325.51 455.039 321.31 448.864 316.811C447.108 315.532 445.372 314.23 443.65 312.904L444.399 313.482C443.759 312.987 443.109 312.498 442.604 311.858L443.182 312.606C443.015 312.384 442.872 312.153 442.756 311.9L443.128 312.781C443.025 312.535 442.958 312.286 442.921 312.023L443.054 313.005C443.03 312.751 443.032 312.507 443.062 312.254L442.929 313.236C442.993 312.795 443.126 312.379 443.296 311.971L442.924 312.852C443.244 312.111 443.658 311.412 444.054 310.711C444.451 310.01 444.86 309.299 445.271 308.597C446.074 307.229 446.897 305.871 447.741 304.527C449.451 301.808 451.244 299.14 453.12 296.532C454.179 295.058 455.266 293.606 456.374 292.169L455.795 292.917C456.512 291.992 457.241 291.071 457.977 290.161C458.334 289.72 458.694 289.282 459.056 288.847C459.418 288.411 459.738 287.995 460.159 287.648L459.411 288.227C459.561 288.111 459.716 288.013 459.888 287.934L459.007 288.305C459.125 288.259 459.238 288.227 459.361 288.202L458.379 288.335C458.517 288.318 458.645 288.318 458.783 288.33L457.8 288.197C457.972 288.224 458.135 288.271 458.297 288.335L457.416 287.963C457.911 288.182 458.342 288.517 458.783 288.825L460.241 289.851L463.154 291.903L468.984 296.008L480.592 304.18L487.175 308.814L485.85 303.764L478.4 315.766C477.902 316.568 477.779 317.71 478.028 318.61C478.277 319.511 478.927 320.394 479.725 320.815C480.582 321.268 481.621 321.494 482.572 321.187C483.523 320.879 484.257 320.33 484.779 319.491V319.481Z" fill="#313332"/>
<path d="M483.826 328.173C484.542 329.081 485.281 329.979 486.138 330.762C487.399 331.913 488.766 332.809 490.389 333.351C490.631 333.432 490.879 333.496 491.131 333.538C491.719 333.639 492.333 333.739 492.936 333.742C493.763 333.742 494.628 333.626 495.421 333.375C497.047 332.861 498.426 331.965 499.679 330.823C500.847 329.76 501.812 328.461 502.692 327.157C503.206 326.394 503.302 325.178 503.063 324.312C502.825 323.446 502.165 322.528 501.367 322.107C500.509 321.654 499.47 321.428 498.519 321.736C497.569 322.043 496.872 322.602 496.313 323.431C496.047 323.822 495.773 324.209 495.485 324.583L496.064 323.835C495.421 324.661 494.712 325.437 493.884 326.084L494.633 325.506C494.15 325.877 493.638 326.195 493.079 326.438L493.961 326.067C493.52 326.251 493.064 326.382 492.591 326.448L493.574 326.315C493.148 326.367 492.724 326.367 492.298 326.315L493.281 326.448C492.832 326.384 492.402 326.263 491.983 326.091L492.865 326.463C492.303 326.224 491.788 325.907 491.303 325.538L492.052 326.116C490.897 325.223 489.958 324.096 489.059 322.954C488.724 322.594 488.328 322.339 487.87 322.191C487.429 321.96 486.956 321.854 486.446 321.873C485.54 321.873 484.459 322.275 483.833 322.954C483.207 323.633 482.707 324.58 482.752 325.565L482.885 326.546C483.06 327.172 483.377 327.715 483.835 328.176L483.826 328.173Z" fill="#313332"/>
<path d="M151.125 383.054L151.117 399.098L151.11 415.143L151.105 424.181L154.799 420.49C151.216 420.66 147.689 421.76 144.667 423.706C141.65 425.65 139.064 428.286 137.261 431.396C135.458 434.507 134.431 438.065 134.47 441.638C134.51 445.211 135.596 448.819 137.463 451.88C141.177 457.978 147.918 462.329 155.169 462.336C162.4 462.343 169.21 458.089 172.968 452.02C174.87 448.949 175.939 445.317 175.916 441.7C175.904 439.645 175.581 437.531 174.943 435.575C174.306 433.626 173.416 431.711 172.212 430.045C171.54 429.113 170.781 428.256 170.077 427.351L170.656 428.099C170.335 427.676 170.047 427.237 169.835 426.75L170.207 427.631C170.099 427.358 170.02 427.087 169.968 426.797L170.101 427.779C170.045 427.351 170.055 426.927 170.111 426.499L169.978 427.481C170.18 426.142 170.628 424.828 170.983 423.527L172.052 419.592L174.212 411.651L178.552 395.697L180.987 386.738C181.239 385.812 181.101 384.722 180.616 383.893C180.167 383.128 179.288 382.397 178.409 382.197C177.463 381.983 176.402 382.028 175.562 382.569C174.722 383.11 174.121 383.829 173.865 384.774L168.774 403.496L163.703 422.144C163.469 423.005 163.213 423.866 163.008 424.735C162.673 426.155 162.575 427.528 162.887 428.958C163.023 429.578 163.304 430.183 163.587 430.744C163.752 431.071 163.954 431.379 164.171 431.672C164.791 432.511 165.476 433.289 166.114 434.111L165.535 433.362C166.407 434.502 167.124 435.74 167.688 437.056L167.316 436.175C167.902 437.575 168.306 439.037 168.515 440.541L168.382 439.559C168.569 440.984 168.587 442.423 168.397 443.848L168.53 442.866C168.34 444.229 167.966 445.556 167.437 446.826L167.808 445.945C167.227 447.31 166.471 448.592 165.57 449.771L166.148 449.023C165.171 450.288 164.035 451.42 162.772 452.402L163.52 451.823C162.282 452.773 160.934 453.566 159.496 454.176L160.378 453.804C159.04 454.361 157.644 454.749 156.208 454.946L157.191 454.813C155.851 454.986 154.501 454.986 153.164 454.806L154.147 454.939C152.748 454.742 151.386 454.356 150.085 453.807L150.967 454.178C149.568 453.578 148.255 452.8 147.048 451.873L147.797 452.451C146.534 451.467 145.403 450.332 144.423 449.067L145.002 449.815C144.054 448.578 143.26 447.229 142.65 445.792L143.022 446.673C142.465 445.337 142.073 443.939 141.876 442.504L142.009 443.486C141.834 442.148 141.834 440.799 142.009 439.46L141.876 440.442C142.073 439.008 142.46 437.612 143.017 436.276L142.645 437.157C143.265 435.688 144.078 434.312 145.054 433.05L144.475 433.798C145.46 432.536 146.595 431.404 147.859 430.422L147.11 431C148.346 430.05 149.691 429.253 151.127 428.643L150.245 429.014C151.583 428.453 152.982 428.062 154.418 427.863L153.435 427.995C153.893 427.936 154.351 427.895 154.814 427.872C155.745 427.828 156.775 427.501 157.427 426.792C158.08 426.083 158.508 425.183 158.508 424.181L158.516 408.137L158.523 392.092L158.528 383.054C158.528 382.106 158.117 381.112 157.447 380.443C156.777 379.773 155.755 379.321 154.834 379.363C152.831 379.451 151.139 380.984 151.139 383.054H151.125Z" fill="#313332"/>
<path d="M354.658 368.633C356.601 368.742 358.544 368.843 360.49 368.84C362.719 368.838 364.926 368.658 367.127 368.304C369.314 367.952 371.373 367.275 373.388 366.362C375.043 365.614 376.504 364.608 377.932 363.498C380.536 361.475 382.644 358.859 384.442 356.113C386.168 353.475 387.579 350.647 388.909 347.793C389.663 346.174 390.392 344.54 391.131 342.916C391.87 341.291 392.606 339.377 393.742 337.881L393.163 338.629C393.49 338.21 393.857 337.836 394.276 337.507L393.527 338.085C394.86 337.076 396.49 336.557 397.946 335.762C399.502 334.913 400.933 333.875 402.305 332.757C404.82 330.715 406.965 328.146 408.625 325.37C410.293 322.582 411.534 319.437 412.093 316.233C412.428 314.309 412.64 312.342 412.494 310.389C412.411 309.276 412.263 308.154 412.012 307.067C411.76 305.979 411.357 304.972 410.911 303.956C409.423 300.568 406.436 297.925 403.175 296.278C399.542 294.445 395.515 293.365 391.464 293.037C387.587 292.725 383.725 293.515 380.279 295.304C377.144 296.93 374.472 299.463 372.566 302.423C370.556 305.543 369.539 309.33 369.548 313.031C369.558 316.769 370.595 320.616 372.625 323.77C373.083 324.482 373.588 325.163 373.928 325.943L373.556 325.062C373.689 325.39 373.785 325.722 373.839 326.071L373.706 325.089C373.75 325.466 373.748 325.835 373.706 326.212L373.839 325.23C373.63 326.768 372.9 328.232 372.302 329.652L372.674 328.771C371.378 331.832 369.928 334.874 367.888 337.521L368.467 336.773C367.544 337.962 366.504 339.052 365.315 339.975L366.063 339.397C365.15 340.095 364.16 340.684 363.101 341.136L363.982 340.765C362.761 341.277 361.475 341.587 360.165 341.771L361.147 341.638C359.197 341.899 357.226 341.894 355.261 341.892C353.443 341.892 351.621 341.857 349.818 341.616L350.801 341.749C349.424 341.56 348.069 341.242 346.781 340.708L347.663 341.08C347.042 340.814 346.446 340.504 345.877 340.137C345.092 339.633 343.914 339.522 343.03 339.766C342.146 340.009 341.245 340.664 340.823 341.461C340.37 342.318 340.144 343.356 340.452 344.306C340.759 345.256 341.311 345.972 342.148 346.511C345.663 348.775 349.976 349.213 354.057 349.267C355.963 349.291 357.882 349.311 359.783 349.164C361.059 349.065 362.342 348.908 363.591 348.627C364.748 348.369 365.832 347.943 366.916 347.47C370.223 346.028 372.797 343.354 374.849 340.457C376.836 337.654 378.218 334.49 379.541 331.335C379.925 330.417 380.334 329.494 380.641 328.547C381.154 326.977 381.304 325.24 380.866 323.633C380.526 322.38 379.834 321.302 379.129 320.234C378.587 319.41 378.122 318.544 377.735 317.636L378.107 318.517C377.533 317.141 377.147 315.697 376.947 314.22L377.08 315.202C376.89 313.723 376.89 312.227 377.085 310.748L376.952 311.73C377.147 310.325 377.511 308.954 378.058 307.645L377.686 308.526C378.215 307.278 378.905 306.112 379.728 305.034L379.149 305.782C380.036 304.638 381.063 303.614 382.208 302.726L381.459 303.304C382.609 302.423 383.86 301.687 385.193 301.119L384.311 301.49C385.612 300.946 386.969 300.57 388.363 300.376L387.38 300.508C389.119 300.28 390.872 300.317 392.609 300.54L391.626 300.408C394.133 300.745 396.623 301.416 398.958 302.391L398.076 302.019C399.522 302.63 400.904 303.38 402.153 304.335L401.404 303.757C402.266 304.426 403.047 305.186 403.714 306.05L403.135 305.302C403.717 306.067 404.194 306.897 404.571 307.778L404.199 306.897C404.662 308.004 404.96 309.163 405.128 310.352L404.995 309.37C405.216 311.023 405.184 312.697 404.97 314.348L405.103 313.366C404.82 315.46 404.249 317.503 403.428 319.449L403.8 318.568C402.951 320.562 401.85 322.434 400.527 324.152L401.106 323.404C399.798 325.087 398.286 326.603 396.601 327.91L397.35 327.331C396.493 327.991 395.594 328.594 394.655 329.133C393.641 329.716 392.569 330.176 391.518 330.683C390.185 331.325 388.895 332.194 387.969 333.36C387.4 334.074 386.88 334.783 386.451 335.587C386.178 336.097 385.934 336.623 385.688 337.145C383.885 340.984 382.257 344.906 380.255 348.647C379.151 350.706 377.935 352.712 376.509 354.565L377.087 353.817C375.807 355.471 374.361 356.991 372.703 358.273L373.452 357.695C372.147 358.694 370.728 359.531 369.213 360.176L370.095 359.804C368.287 360.557 366.384 361.022 364.448 361.285L365.43 361.153C361.857 361.625 358.241 361.445 354.655 361.246C353.741 361.194 352.677 361.694 352.042 362.326C351.407 362.959 350.919 364.017 350.961 364.937C351.003 365.858 351.318 366.881 352.042 367.548C352.766 368.215 353.636 368.572 354.655 368.628L354.658 368.633Z" fill="#313332"/>
<path d="M628.441 85.4408L628.441 55L598 55L598 85.4408L628.441 85.4408Z" fill="#F9DFBE"/>
</svg>
