<svg width="1584" height="874" viewBox="0 0 1584 874" fill="none" xmlns="http://www.w3.org/2000/svg">
<mask id="path-1-outside-1_3078_4002" maskUnits="userSpaceOnUse" x="3.74433" y="-2.00609" width="901.755" height="873.707" fill="black">
<rect fill="white" x="3.74433" y="-2.00609" width="901.755" height="873.707"/>
<path d="M283.204 336.399C286.146 268.089 324.279 203.264 373.266 158.472C422.258 113.68 481.304 86.1849 540.165 63.0407C562.202 54.3754 585.281 46.1052 607.728 49.1232C630.174 52.1466 651.733 69.7612 653.35 95.0698C655.74 132.415 617.054 159.499 583.582 167.01C550.109 174.521 512.802 174.495 486.53 200.303C456.925 229.383 454.536 278.047 454.595 320.451C454.598 324.147 454.703 328.151 456.79 330.847C459.748 334.661 465.214 334.17 469.889 333.396C520.738 324.986 577.329 318.952 616.03 352.749C639.642 373.371 652.52 405.794 673.569 429.591C705.824 466.061 757.339 482.814 775.662 530.378C783.596 550.968 784.195 575.377 794.842 594.211C803.547 609.613 818.94 621.626 819.651 640.377C820.492 662.517 797.662 681.057 778.036 678.854C758.404 676.656 743.375 659.494 734.774 640.157C726.178 620.821 722.533 598.936 716.079 578.446C712.778 567.968 708.397 557.367 700.29 551.159C691.994 544.807 681.113 544.025 671.494 540.353C654.716 533.949 642.236 518.981 626.928 509.328C611.621 499.675 589.395 496.832 576.585 512.283C625.133 588.801 620.166 705.075 564.956 784.715C550.853 790.973 537.28 775.087 535.669 758.791C534.059 742.494 539.662 725.833 540.724 709.259C544.867 644.67 482.347 602.494 474.644 539.301C464.208 542.482 453.778 545.658 443.341 548.838C450.045 597.968 456.744 648.249 448.231 698.299C439.723 748.35 412.939 799.002 370.817 820.322C358.847 826.383 341.917 828.047 336.87 815.345C333.667 807.289 337.166 797.57 340.24 788.934C364.495 720.787 362.786 643.537 335.637 581.094C326.294 559.606 310.907 537.854 288.925 537.882C269.237 537.904 252.307 555.316 237.859 571.529C202.674 611.01 167.643 650.66 132.757 690.472C115.955 678.597 93.7185 681.173 73.5353 678.329C53.3521 675.484 31.1565 661.655 32.3213 638.628C33.5437 614.412 58.1572 600.579 76.3002 585.875C93.2221 572.164 106.948 553.317 115.42 532.16C124.164 510.329 127.262 486.636 134.374 464.189C155.626 397.11 215.715 345.073 277.996 339.81"/>
</mask>
<path d="M283.204 336.399C286.146 268.089 324.279 203.264 373.266 158.472C422.258 113.68 481.304 86.1849 540.165 63.0407C562.202 54.3754 585.281 46.1052 607.728 49.1232C630.174 52.1466 651.733 69.7612 653.35 95.0698C655.74 132.415 617.054 159.499 583.582 167.01C550.109 174.521 512.802 174.495 486.53 200.303C456.925 229.383 454.536 278.047 454.595 320.451C454.598 324.147 454.703 328.151 456.79 330.847C459.748 334.661 465.214 334.17 469.889 333.396C520.738 324.986 577.329 318.952 616.03 352.749C639.642 373.371 652.52 405.794 673.569 429.591C705.824 466.061 757.339 482.814 775.662 530.378C783.596 550.968 784.195 575.377 794.842 594.211C803.547 609.613 818.94 621.626 819.651 640.377C820.492 662.517 797.662 681.057 778.036 678.854C758.404 676.656 743.375 659.494 734.774 640.157C726.178 620.821 722.533 598.936 716.079 578.446C712.778 567.968 708.397 557.367 700.29 551.159C691.994 544.807 681.113 544.025 671.494 540.353C654.716 533.949 642.236 518.981 626.928 509.328C611.621 499.675 589.395 496.832 576.585 512.283C625.133 588.801 620.166 705.075 564.956 784.715C550.853 790.973 537.28 775.087 535.669 758.791C534.059 742.494 539.662 725.833 540.724 709.259C544.867 644.67 482.347 602.494 474.644 539.301C464.208 542.482 453.778 545.658 443.341 548.838C450.045 597.968 456.744 648.249 448.231 698.299C439.723 748.35 412.939 799.002 370.817 820.322C358.847 826.383 341.917 828.047 336.87 815.345C333.667 807.289 337.166 797.57 340.24 788.934C364.495 720.787 362.786 643.537 335.637 581.094C326.294 559.606 310.907 537.854 288.925 537.882C269.237 537.904 252.307 555.316 237.859 571.529C202.674 611.01 167.643 650.66 132.757 690.472C115.955 678.597 93.7185 681.173 73.5353 678.329C53.3521 675.484 31.1565 661.655 32.3213 638.628C33.5437 614.412 58.1572 600.579 76.3002 585.875C93.2221 572.164 106.948 553.317 115.42 532.16C124.164 510.329 127.262 486.636 134.374 464.189C155.626 397.11 215.715 345.073 277.996 339.81" fill="url(#paint0_linear_3078_4002)"/>
<path d="M373.266 158.472L369.946 154.892L369.946 154.892L373.266 158.472ZM540.165 63.0407L541.837 67.6491L541.837 67.6491L540.165 63.0407ZM607.728 49.1232L608.625 44.1971L608.623 44.197L607.728 49.1232ZM653.35 95.0698L648.335 95.6051L648.335 95.6056L653.35 95.0698ZM486.53 200.303L489.989 203.751L489.989 203.751L486.53 200.303ZM454.595 320.451L459.62 320.224L459.62 320.22L454.595 320.451ZM456.79 330.847L452.749 333.979L452.753 333.983L456.79 330.847ZM469.889 333.396L469.279 328.495L469.278 328.495L469.889 333.396ZM616.03 352.749L619.449 348.958L619.449 348.958L616.03 352.749ZM673.569 429.591L677.415 426.224L677.415 426.223L673.569 429.591ZM775.662 530.378L770.956 532.328L770.956 532.328L775.662 530.378ZM794.842 594.211L799.254 591.639L799.254 591.638L794.842 594.211ZM819.651 640.377L814.63 640.787L814.63 640.787L819.651 640.377ZM778.036 678.854L778.823 673.914L778.822 673.914L778.036 678.854ZM734.774 640.157L730.159 642.327L730.159 642.328L734.774 640.157ZM716.079 578.446L720.883 576.775L720.883 576.775L716.079 578.446ZM700.29 551.159L703.476 547.177L703.476 547.177L700.29 551.159ZM671.494 540.353L673.485 535.704L673.484 535.704L671.494 540.353ZM576.585 512.283L572.758 509.236L570.403 512.077L572.295 515.06L576.585 512.283ZM564.956 784.715L566.838 789.235L568.207 788.628L569.059 787.398L564.956 784.715ZM540.724 709.259L535.71 709.167L535.709 709.167L540.724 709.259ZM474.644 539.301L479.633 538.488L478.946 532.854L473.364 534.556L474.644 539.301ZM443.341 548.838L442.062 544.093L437.772 545.401L438.361 549.72L443.341 548.838ZM448.231 698.299L443.276 697.691L443.276 697.691L448.231 698.299ZM370.817 820.322L368.69 815.918L368.689 815.918L370.817 820.322ZM336.87 815.345L341.558 813.349L341.558 813.348L336.87 815.345ZM340.24 788.934L344.972 790.395L344.972 790.395L340.24 788.934ZM335.637 581.094L340.268 578.959L340.268 578.959L335.637 581.094ZM288.925 537.882L288.705 542.853L288.705 542.853L288.925 537.882ZM237.859 571.529L241.563 574.72L241.563 574.72L237.859 571.529ZM132.757 690.472L129.716 694.56L133.395 697.161L136.49 693.63L132.757 690.472ZM32.3213 638.628L37.3399 638.653L37.3399 638.653L32.3213 638.628ZM76.3002 585.875L73.2224 582.087L73.222 582.087L76.3002 585.875ZM115.42 532.16L110.759 530.511L110.759 530.512L115.42 532.16ZM134.374 464.189L139.163 465.479L139.163 465.478L134.374 464.189ZM283.204 336.399L288.224 336.387C291.095 269.739 328.368 206.141 376.586 162.052L373.266 158.472L369.946 154.892C320.19 200.388 281.197 266.439 278.183 336.41L283.204 336.399ZM373.266 158.472L376.586 162.052C424.828 117.946 483.115 90.7384 541.837 67.6491L540.165 63.0407L538.493 58.4322C479.492 81.6315 419.689 109.414 369.946 154.892L373.266 158.472ZM540.165 63.0407L541.837 67.6491C564.01 58.9305 585.876 51.2318 606.833 54.0493L607.728 49.1232L608.623 44.197C584.686 40.9787 560.395 49.8203 538.493 58.4323L540.165 63.0407ZM607.728 49.1232L606.831 54.0492C627.499 56.8329 646.893 73.0289 648.335 95.6051L653.35 95.0698L658.365 94.5344C656.573 66.4935 632.85 47.4602 608.625 44.1971L607.728 49.1232ZM653.35 95.0698L648.335 95.6056C649.406 112.336 641.341 127.01 628.597 138.645C615.804 150.326 598.631 158.586 582.682 162.165L583.582 167.01L584.482 171.856C602.005 167.923 620.911 158.886 635.232 145.81C649.602 132.69 659.685 115.149 658.365 94.5339L653.35 95.0698ZM583.582 167.01L582.682 162.165C574.48 164.005 566.032 165.387 557.362 166.853C548.753 168.309 539.954 169.844 531.344 171.976C514.094 176.247 497.165 183.01 483.071 196.854L486.53 200.303L489.989 203.751C502.168 191.787 517.027 185.66 533.367 181.614C541.552 179.588 549.998 178.109 558.619 176.65C567.18 175.203 575.947 173.771 584.482 171.856L583.582 167.01ZM486.53 200.303L483.071 196.854C467.235 212.41 458.914 232.97 454.514 254.613C450.115 276.248 449.541 299.448 449.57 320.681L454.595 320.451L459.62 320.22C459.591 299.05 460.181 276.716 464.363 256.148C468.544 235.588 476.22 217.275 489.989 203.751L486.53 200.303ZM454.595 320.451L449.57 320.678C449.572 322.516 449.592 324.793 449.947 327.014C450.304 329.248 451.048 331.78 452.749 333.979L456.79 330.847L460.831 327.715C460.445 327.217 460.094 326.399 459.875 325.034C459.655 323.655 459.621 322.081 459.62 320.224L454.595 320.451ZM456.79 330.847L452.753 333.983C455.251 337.203 458.741 338.43 461.915 338.782C464.976 339.122 468.106 338.694 470.499 338.298L469.889 333.396L469.278 328.495C466.996 328.872 465.057 329.077 463.477 328.902C462.01 328.739 461.287 328.304 460.827 327.711L456.79 330.847ZM469.889 333.396L470.499 338.298C521.673 329.834 575.845 324.433 612.61 356.54L616.03 352.749L619.449 348.958C578.813 313.471 519.803 320.137 469.279 328.495L469.889 333.396ZM616.03 352.749L612.61 356.54C623.872 366.375 632.69 379.132 641.488 392.783C650.172 406.259 658.899 420.721 669.724 432.958L673.569 429.591L677.415 426.223C667.19 414.664 658.953 401.016 650.033 387.175C641.226 373.51 631.8 359.744 619.449 348.958L616.03 352.749ZM673.569 429.591L669.723 432.958C686.251 451.645 707.899 465.455 726.655 479.807C745.692 494.373 762.278 509.8 770.956 532.328L775.662 530.378L780.368 528.427C770.723 503.392 752.39 486.66 733.025 471.841C713.379 456.808 693.142 444.006 677.415 426.224L673.569 429.591ZM775.662 530.378L770.956 532.328C774.761 542.204 776.801 552.97 779.326 564.235C781.803 575.285 784.733 586.707 790.429 596.783L794.842 594.211L799.254 591.638C794.304 582.881 791.611 572.681 789.143 561.671C786.723 550.875 784.497 539.142 780.368 528.427L775.662 530.378ZM794.842 594.211L790.429 596.783C792.757 600.901 795.496 604.732 798.202 608.354C800.965 612.052 803.608 615.425 806.055 618.967C810.898 625.975 814.326 632.767 814.63 640.787L819.651 640.377L824.673 639.968C824.266 629.236 819.641 620.646 814.433 613.109C811.856 609.379 808.974 605.689 806.379 602.216C803.728 598.668 801.279 595.222 799.254 591.639L794.842 594.211ZM819.651 640.377L814.63 640.787C814.982 650.058 810.382 658.809 803.264 665.106C796.102 671.442 786.921 674.823 778.823 673.914L778.036 678.854L777.249 683.793C788.776 685.087 800.823 680.3 809.773 672.383C818.767 664.426 825.161 652.837 824.673 639.968L819.651 640.377ZM778.036 678.854L778.822 673.914C761.768 672.005 747.755 656.795 739.388 637.986L734.774 640.157L730.159 642.328C738.995 662.192 755.04 681.307 777.25 683.793L778.036 678.854ZM734.774 640.157L739.389 637.987C735.247 628.67 732.263 618.658 729.485 608.264C726.738 597.984 724.151 587.152 720.883 576.775L716.079 578.446L711.276 580.117C714.461 590.23 716.923 600.586 719.761 611.205C722.568 621.71 725.705 632.309 730.159 642.327L734.774 640.157ZM716.079 578.446L720.883 576.775C717.576 566.278 712.855 554.359 703.476 547.177L700.29 551.159L697.104 555.141C703.94 560.375 707.981 569.659 711.276 580.117L716.079 578.446ZM700.29 551.159L703.476 547.177C698.624 543.462 693.145 541.479 688.008 539.978C682.586 538.394 678.069 537.454 673.485 535.704L671.494 540.353L669.504 545.001C674.538 546.923 680.271 548.21 684.768 549.524C689.551 550.921 693.661 552.505 697.104 555.141L700.29 551.159ZM671.494 540.353L673.484 535.704C665.842 532.787 659.013 527.853 651.938 522.15C645.043 516.591 637.724 510.122 629.763 505.102L626.928 509.328L624.094 513.555C631.44 518.187 638.015 524.029 645.382 529.968C652.569 535.763 660.369 541.514 669.504 545.001L671.494 540.353ZM626.928 509.328L629.763 505.102C621.483 499.88 611.209 496.405 601.039 496.421C590.754 496.437 580.366 500.059 572.758 509.236L576.585 512.283L580.413 515.331C585.614 509.057 592.744 506.375 600.602 506.362C608.574 506.35 617.067 509.123 624.094 513.555L626.928 509.328ZM576.585 512.283L572.295 515.06C619.764 589.877 614.945 704.005 560.853 782.031L564.956 784.715L569.059 787.398C625.388 706.146 630.501 587.724 580.875 509.507L576.585 512.283ZM564.956 784.715L563.074 780.194C558.569 782.193 553.731 780.979 549.237 776.594C544.714 772.182 541.372 765.183 540.671 758.087L535.669 758.791L530.668 759.494C531.577 768.694 535.827 777.786 542.019 783.826C548.24 789.895 557.241 793.494 566.838 789.235L564.956 784.715ZM535.669 758.791L540.671 758.087C539.931 750.605 540.836 742.897 542.156 734.694C543.447 726.679 545.188 717.953 545.739 709.35L540.724 709.259L535.709 709.167C535.199 717.139 533.607 725.031 532.233 733.564C530.889 741.91 529.797 750.68 530.668 759.494L535.669 758.791ZM540.724 709.259L545.739 709.351C547.918 675.38 532.511 647.527 516.467 621.061C500.183 594.2 483.332 568.835 479.633 538.488L474.644 539.301L469.654 540.114C473.658 572.96 491.919 600.278 507.786 626.452C523.892 653.019 537.673 678.549 535.71 709.167L540.724 709.259ZM474.644 539.301L473.364 534.556C468.146 536.146 462.93 537.735 457.713 539.324C452.497 540.914 447.28 542.503 442.062 544.093L443.341 548.838L444.621 553.583C449.839 551.993 455.055 550.404 460.272 548.815C465.488 547.226 470.705 545.636 475.923 544.046L474.644 539.301ZM443.341 548.838L438.361 549.72C445.081 598.969 451.642 648.509 443.276 697.691L448.231 698.299L453.185 698.908C461.846 647.989 455.009 596.968 448.322 547.957L443.341 548.838ZM448.231 698.299L443.276 697.691C434.904 746.943 408.693 795.671 368.69 815.918L370.817 820.322L372.943 824.726C417.186 802.334 444.541 749.758 453.185 698.908L448.231 698.299ZM370.817 820.322L368.689 815.918C363.316 818.639 357.025 820.25 351.801 819.909C346.766 819.581 343.231 817.558 341.558 813.349L336.87 815.345L332.182 817.341C335.556 825.834 343.009 829.329 350.693 829.83C358.189 830.318 366.348 828.066 372.944 824.726L370.817 820.322ZM336.87 815.345L341.558 813.348C340.422 810.492 340.373 807.087 341.138 803.061C341.91 799 343.406 794.794 344.972 790.395L340.24 788.934L335.509 787.473C334 791.71 332.209 796.681 331.264 801.652C330.312 806.659 330.115 812.142 332.182 817.342L336.87 815.345ZM340.24 788.934L344.972 790.395C369.635 721.1 367.922 642.563 340.268 578.959L335.637 581.094L331.007 583.229C357.651 644.51 359.355 720.475 335.508 787.473L340.24 788.934ZM335.637 581.094L340.268 578.959C335.478 567.944 329.031 556.588 320.745 547.919C312.448 539.24 301.939 532.895 289.145 532.911L288.925 537.882L288.705 542.853C297.893 542.841 306.069 547.358 313.297 554.92C320.536 562.492 326.453 572.756 331.007 583.229L335.637 581.094ZM288.925 537.882L289.146 532.911C277.746 532.924 267.489 537.978 258.505 544.724C249.538 551.458 241.385 560.225 234.156 568.337L237.859 571.529L241.563 574.72C248.781 566.62 256.317 558.575 264.349 552.544C272.364 546.525 280.416 542.862 288.705 542.853L288.925 537.882ZM237.859 571.529L234.156 568.337C198.961 607.83 163.92 647.491 129.024 687.314L132.757 690.472L136.49 693.63C171.367 653.829 206.388 614.19 241.563 574.72L237.859 571.529ZM132.757 690.472L135.798 686.383C126.443 679.772 115.74 677.312 105.227 676.077C99.9802 675.461 94.6348 675.137 89.5008 674.796C84.31 674.452 79.3044 674.089 74.4621 673.407L73.5353 678.329L72.6085 683.25C77.8578 683.99 83.2005 684.372 88.3805 684.716C93.6173 685.063 98.6654 685.37 103.601 685.95C113.452 687.107 122.268 689.297 129.716 694.56L132.757 690.472ZM73.5353 678.329L74.4621 673.407C65.1355 672.092 55.4242 668.233 48.2828 662.205C41.2128 656.236 36.8496 648.345 37.3399 638.653L32.3213 638.628L27.3027 638.603C26.6281 651.938 32.7804 662.475 41.5628 669.889C50.2738 677.242 61.7519 681.72 72.6085 683.25L73.5353 678.329ZM32.3213 638.628L37.3399 638.653C37.8594 628.362 43.2988 620.021 51.4018 612.155C55.4597 608.216 60.0757 604.503 64.9127 600.792C69.6579 597.151 74.7735 593.395 79.3784 589.663L76.3002 585.875L73.222 582.087C68.7554 585.707 63.9907 589.195 58.9798 593.04C54.0609 596.814 49.0454 600.83 44.5293 605.215C35.4841 613.995 28.0056 624.679 27.3026 638.604L32.3213 638.628ZM76.3002 585.875L79.3779 589.664C97.0457 575.348 111.297 555.746 120.081 533.808L115.42 532.16L110.759 530.512C102.6 550.889 89.3986 568.98 73.2224 582.087L76.3002 585.875ZM115.42 532.16L120.081 533.809C124.602 522.522 127.632 510.831 130.395 499.348C133.182 487.761 135.678 476.479 139.163 465.479L134.374 464.189L129.585 462.899C125.958 474.345 123.349 486.133 120.623 497.462C117.873 508.896 114.983 519.967 110.759 530.511L115.42 532.16ZM134.374 464.189L139.163 465.478C159.881 400.085 218.361 349.82 278.199 344.763L277.996 339.81L277.793 334.858C213.069 340.327 151.371 394.135 129.585 462.899L134.374 464.189Z" fill="url(#paint1_linear_3078_4002)" mask="url(#path-1-outside-1_3078_4002)"/>
<path d="M286.299 336.689C287.737 304.964 296.748 273.766 311.096 245.079C325.305 216.671 344.624 190.741 367.032 168.67C390.342 145.715 417.002 126.725 444.901 110.776C472.84 94.8038 502.078 81.7403 531.613 69.8669C559.825 58.525 593.569 43.6253 622.189 56.7898C633.22 61.8611 642.784 70.8602 647.392 82.6668C652.015 94.5134 650.976 108.181 645.219 120.03C639.418 131.968 629.395 141.418 618.727 148.554C607.499 156.067 594.877 161.236 582.06 164.039C555.729 169.801 527.719 170.834 503.088 184.274C490.803 190.978 480.163 200.738 472.434 212.865C464.705 224.986 459.917 238.672 456.866 252.603C453.652 267.285 452.376 282.258 451.838 297.119C451.567 304.541 451.485 311.953 451.488 319.362C451.487 326.429 452.194 334.4 459.65 336.58C466.249 338.51 474.189 335.949 480.938 334.912C488.434 333.764 495.935 332.732 503.452 331.916C518.413 330.288 533.448 329.51 548.32 330.595C562.68 331.644 576.847 334.47 589.96 340.182C603.275 345.986 614.874 354.817 624.431 365.947C643.173 387.765 655.062 415.253 675.036 436.002C692.908 454.566 714.896 467.83 734.741 483.885C744.351 491.66 753.468 500.16 760.897 510.259C769.041 521.329 774.244 533.923 777.557 547.619C781.091 562.239 783.291 577.571 789.626 591.104C795.338 603.312 805 612.463 811.504 624.089C814.559 629.553 816.749 635.862 816.56 642.443C816.371 649.025 813.703 655.621 809.588 660.964C801.441 671.526 788.197 677.474 775.843 675.203C762.476 672.744 751.938 662.607 744.57 651.445C735.944 638.381 731.353 622.77 727.28 607.422C723.226 592.158 720.236 575.639 712.893 561.808C709.461 555.345 704.954 549.767 698.704 546.173C692.199 542.435 684.798 541.047 677.663 538.924C650.579 530.878 634.953 501.47 605.721 498.372C594.093 497.139 582.356 500.727 574.148 510.391C573.153 511.559 573.368 513.265 574.077 514.389C593.376 544.945 603.768 581.338 606.242 618.569C608.74 656.183 603.161 695.067 589.543 731.011C586.146 739.974 582.251 748.759 577.859 757.287C575.647 761.58 573.302 765.806 570.818 769.947C569.712 771.793 568.583 773.621 567.424 775.434C566.117 777.482 564.838 780.039 563.203 781.82C562.907 782.139 562.594 782.247 561.615 782.486C560.717 782.705 559.8 782.839 558.89 782.848C557.001 782.863 555.209 782.42 553.505 781.687C549.771 780.082 546.768 777.063 544.435 773.704C538.697 765.438 537.906 755.278 538.871 745.035C540.005 733.039 543.111 721.207 543.841 709.184C544.349 700.743 543.824 692.327 542.263 684.155C539.16 667.918 532.469 653.018 524.711 638.945C508.966 610.379 487.817 583.874 479.959 550.974C479 546.951 478.269 542.856 477.749 538.72C477.546 537.12 475.929 535.58 474.264 536.086C463.828 539.266 453.398 542.442 442.962 545.623C441.342 546.116 439.98 547.547 440.238 549.433C448.423 609.42 457.246 673.527 435.89 733.55C427.43 757.336 414.584 780.325 396.497 797.898C387.91 806.243 377.945 813.874 367.15 818.531C358.959 822.06 345.523 824.585 340.444 815.416C337.257 809.659 339.05 802.226 341.034 796.071C343.195 789.355 345.686 782.753 347.709 775.985C351.871 762.07 355.041 747.886 357.152 733.586C361.325 705.333 361.506 676.596 357.643 648.792C353.887 621.757 346.614 594.316 334.219 570.647C328.346 559.433 320.864 548.486 310.475 541.492C300.482 534.761 288.452 532.785 276.56 536.777C264.804 540.726 254.75 549.325 245.927 558.308C234.94 569.491 224.753 581.602 214.325 593.343C191.793 618.713 169.325 644.149 146.926 669.647C141.385 675.953 135.847 682.264 130.315 688.582L134.712 687.809C118.885 676.874 99.2144 677.559 80.6345 675.834C66.3762 674.509 51.527 670.143 42.1398 658.588C37.8915 653.359 35.2455 646.804 35.3837 639.656C35.5339 631.755 38.7593 624.422 43.5622 618.169C53.7281 604.948 68.5266 596.751 80.8767 586.126C95.1766 573.821 106.802 558.171 114.959 540.923C124.26 521.26 128.038 499.822 133.373 478.983C142.103 444.845 159.172 413.631 184.308 389.029C207.468 366.362 236.42 349.829 267.227 344.481C270.933 343.837 274.651 343.365 278.379 343.042C282.393 342.691 281.618 336.245 277.619 336.597C245.837 339.375 215.014 354.014 189.823 375.555C163.747 397.86 143.215 427.73 132.268 460.724C125.238 481.922 122.21 504.118 114.752 525.199C108.057 544.127 97.3093 561.705 83.0502 575.687C70.5614 587.93 55.189 596.382 43.1593 609.185C32.0388 621.022 25.5431 637.379 31.37 652.852C36.6675 666.927 50.3439 675.695 63.8527 679.599C81.4538 684.68 100.69 681.63 118.198 687.11C122.686 688.517 126.929 690.479 130.8 693.155C132.271 694.169 133.966 693.782 135.197 692.383C157.806 666.58 180.484 640.838 203.226 615.163C214.597 602.331 225.981 589.511 237.383 576.71C246.435 566.547 255.648 555.975 266.967 548.558C277.44 541.696 289.552 538.898 300.738 543.675C312.068 548.516 320.203 559.094 326.369 569.741C333.064 581.308 337.873 594.285 341.916 607.212C346.084 620.519 349.148 634.241 351.175 648.202C355.268 676.337 355.145 705.332 350.827 733.946C348.668 748.258 345.482 762.474 341.176 776.376C339.097 783.099 336.455 789.666 334.507 796.418C332.559 803.171 331.41 810.339 333.964 816.77C338.138 827.28 349.589 829.472 359.677 827.542C370.736 825.427 381.169 818.737 390.223 811.676C410.038 796.225 424.962 774.511 435.361 751.425C461.125 694.233 457.136 630.97 449.594 571.902C448.587 564.019 447.516 556.147 446.444 548.279L443.719 552.089C454.155 548.908 464.585 545.732 475.021 542.552L471.536 539.917C476.004 575.529 496.892 604.152 514.113 633.396C522.529 647.697 530.409 662.691 534.673 679.169C536.752 687.197 537.869 695.63 537.814 704.081C537.734 715.943 534.843 727.653 533.265 739.431C531.783 750.491 531.382 762.065 536.032 772.019C539.689 779.853 545.935 786.999 554.407 788.938C557.904 789.74 563.676 789.857 566.811 787.253C568.508 785.848 569.777 783.141 570.983 781.293C572.302 779.268 573.593 777.219 574.85 775.155C580.04 766.63 584.727 757.782 588.864 748.69C605.467 712.211 613.373 672.046 613.01 632.661C612.651 593.799 603.947 555.069 585.98 521.987C583.805 517.983 581.511 514.055 579.084 510.214L579.012 514.212C587.446 504.283 600.72 503.131 611.79 506.251C625.303 510.056 635.645 519.833 646.359 528.494C652.175 533.198 658.201 537.673 664.86 541.063C671.52 544.452 679.097 545.994 686.354 548.222C693.655 550.465 699.887 553.919 704.422 560.342C708.957 566.766 711.341 573.919 713.594 581.23C722.852 611.27 726.87 645.358 749.457 667.806C758.858 677.148 771.827 683.739 785.508 682.036C798.317 680.443 810.89 671.8 817.633 659.994C824.78 647.477 823.816 633.384 817.44 621.588C810.995 609.659 800.964 600.38 795.24 587.962C788.853 574.093 786.79 558.416 783.027 543.532C779.59 529.935 774.193 517.427 766.124 506.375C750.767 485.343 728.854 471.138 708.506 455.95C698.28 448.316 688.151 440.366 679.292 431.036C669.263 420.473 661.198 408.139 653.298 395.776C645.309 383.272 637.399 370.578 627.542 359.612C617.685 348.647 606.121 340.088 592.855 334.24C565.656 322.255 534.548 322.21 504.862 325.273C497.192 326.063 489.535 327.086 481.892 328.243C478.182 328.804 474.479 329.393 470.779 330C467.666 330.512 463.749 331.472 460.847 330.005C457.682 328.403 457.736 324.04 457.702 320.759C457.658 317.098 457.699 313.422 457.74 309.752C457.828 302.142 458.07 294.519 458.572 286.904C460.444 258.403 465.943 226.733 486.403 204.882C506.64 183.268 535.741 178.835 562.283 174.348C575.64 172.091 589.007 169.84 601.82 164.613C614.195 159.57 626.189 152.294 636.007 142.66C645.467 133.378 652.907 121.825 655.557 108.627C658.26 95.1702 655.484 81.4752 648.366 70.6122C641.248 59.7492 630.819 52.4096 619.169 48.4756C604.636 43.5663 588.539 44.8064 573.416 48.512C557.072 52.5107 541.211 59.1271 525.487 65.5086C510.667 71.5229 495.948 77.8553 481.43 84.7243C452.098 98.6053 423.512 114.759 397.192 134.602C371.584 153.91 348.39 176.783 329.359 203.219C310.471 229.465 295.693 258.949 287.308 290.222C283.265 305.294 280.817 320.697 280.112 336.143C279.922 340.317 286.109 340.94 286.3 336.722L286.299 336.689Z" fill="url(#paint2_linear_3078_4002)"/>
<path d="M634.443 123.017C620.385 112.049 606.333 101.081 592.275 90.1175C589.756 88.1518 587.155 86.1452 584.09 85.4228C574.078 83.0579 564.822 95.268 562.329 106.751C556.444 133.842 575.778 162.085 600.267 162.182" fill="white"/>
<path d="M636.396 120.345C624.232 110.854 612.072 101.364 599.908 91.8733C594.975 88.0233 589.786 82.684 583.273 81.9305C578.409 81.37 573.504 83.637 569.793 87.1012C552.031 103.664 556.547 133.436 569.558 149.606C577.007 158.864 587.752 165.258 599.801 165.434C603.789 165.494 604.743 158.968 600.718 158.91C581.658 158.628 567.29 141.329 564.787 122.47C563.501 112.781 565.198 102.127 571.624 94.1803C574.216 90.975 577.961 88.0869 582.04 88.4306C584.678 88.6503 586.877 90.1784 588.933 91.7206C591.594 93.7107 594.183 95.8042 596.805 97.8511C608.696 107.129 620.592 116.413 632.484 125.691C635.623 128.144 639.536 122.799 636.401 120.351L636.396 120.345Z" fill="#39783A"/>
<path d="M602.616 101.662C594.065 113.101 585.787 126.827 587.117 140.998C588.447 155.168 618.514 158.718 634.863 123.319" fill="#2D2020"/>
<path d="M600.184 99.7637C593.102 109.284 586.358 119.92 584.384 131.811C583.267 138.529 583.403 145.573 588.396 150.096C596.914 157.816 610.606 154.186 619.543 147.871C627.646 142.144 633.489 133.493 637.717 124.464C639.529 120.59 633.808 118.321 632.003 122.174C626.511 133.895 617.06 145.79 604.11 147.668C600.435 148.204 596.446 147.676 593.806 145.932C593.448 145.695 593.114 145.438 592.776 145.17C592.617 145.039 591.941 144.393 592.201 144.664C591.955 144.405 591.734 144.125 591.519 143.836C591.427 143.712 590.803 142.696 591.03 143.124C589.89 140.954 589.933 138.202 590.203 135.168C591.256 123.377 598.143 112.826 605.051 103.543C607.598 100.123 602.721 96.3373 600.18 99.7524L600.184 99.7637Z" fill="#39783A"/>
<path d="M683.93 83.5165C704.438 80.5786 725.021 81.3817 744.886 85.785C744.432 83.8858 743.973 81.9807 743.519 80.0815C726.929 93.5319 710.334 106.982 693.744 120.432C690.599 122.985 686.189 125.592 686.175 130.277C686.168 132.595 687.198 134.789 687.963 136.87C688.793 139.142 689.645 141.406 690.519 143.655C694.064 152.782 697.953 161.741 702.191 170.493C706.869 180.153 711.968 189.564 717.436 198.705C718.399 196.941 719.368 195.171 720.331 193.407C703.982 193.861 687.634 194.315 671.29 194.77C669.261 194.827 667.666 196.303 667.813 198.576C669.277 220.306 671.38 241.94 674.127 263.45C675.773 262.377 677.419 261.303 679.06 260.229C666.723 251.932 654.386 243.634 642.049 235.336C638.835 233.175 635.002 238.444 638.23 240.612C650.567 248.91 662.904 257.207 675.242 265.505C677.342 266.918 680.548 265.209 680.175 262.284C677.434 240.774 675.331 219.14 673.862 197.409C672.703 198.676 671.545 199.943 670.385 201.215C686.734 200.761 703.082 200.307 719.425 199.852C722.135 199.778 723.772 196.972 722.32 194.554C713.303 179.474 705.4 163.63 698.663 147.167C696.96 143.005 695.328 138.8 693.773 134.565C693.384 133.51 692.96 132.457 692.617 131.374C692.273 130.291 692.1 130.035 692.848 129.083C694.195 127.382 696.515 126.073 698.18 124.724C705.858 118.498 713.535 112.277 721.213 106.051C729.85 99.051 738.492 92.0459 747.128 85.0456C749.492 83.1313 748.147 79.8684 745.761 79.3421C725.377 74.8242 704.201 74.139 683.169 77.1522C679.257 77.711 679.997 84.0788 683.909 83.52L683.93 83.5165Z" fill="#FEB963"/>
<path d="M1503.4 604.82C1301.19 448.898 1057.07 450.36 995.189 551.708C933.308 653.057 961.26 763.458 995.189 770.487C1117.49 795.826 1541.89 865.502 1560.41 835.779C1588.64 790.464 1539.13 647.861 1503.4 604.82Z" fill="url(#paint3_linear_3078_4002)"/>
<path d="M1185.22 529.296L1153.06 581.432C1153.06 581.432 1165.99 552.847 1157.44 548.299C1127.23 532.22 1091.44 502.533 1079 490.803L1185.22 529.296Z" fill="#8693A7"/>
<path d="M1368.43 416.49C1368.43 490.894 1297.09 544.888 1209.09 544.888C1120.41 540.99 1049.76 490.894 1049.76 416.49C1049.76 342.086 1147.21 288.592 1259.28 310.518C1317.59 321.925 1368.43 342.086 1368.43 416.49Z" fill="#87BEEA"/>
<g style="mix-blend-mode:multiply" opacity="0.17">
<path d="M1407.41 420.964C1407.41 495.369 1336.07 549.362 1248.07 549.362C1164.75 540.502 1080.39 503.758 1093.13 427.946C1095.6 413.228 1102.3 385.387 1108.72 371.912C1138.05 310.319 1151.5 271.646 1248.07 290.541C1306.38 301.948 1407.41 346.56 1407.41 420.964Z" fill="#527D9E"/>
</g>
<path d="M1117.98 405.041C1126.55 371.128 1117.98 340.198 1139.42 319.286C1178.88 280.791 1214.33 274.352 1270.98 274.461C1342.65 274.598 1419.1 313.438 1436.64 360.702C1454.18 407.965 1453.7 464 1436.64 490.312C1405.64 538.151 1373.79 543.91 1339.68 549.27C1290.13 557.056 1191.18 546.988 1170.6 540.503C1125.77 526.375 1102.38 498.111 1102.38 479.105C1102.38 439.149 1110.34 435.25 1117.98 405.041Z" fill="#308AC1"/>
<path d="M1329.45 473.748C1343.09 497.79 1320.25 514.188 1297.78 517.601C1287.07 519.225 1260.75 514.19 1250.51 517.601C1220.32 527.663 1191.55 530.269 1191.55 509.805C1191.55 483.98 1221.12 468.91 1256.36 461.079C1287.06 454.257 1317.44 452.595 1329.45 473.748Z" fill="#BDBFC0"/>
<path d="M1286.08 438.666C1280.52 440.522 1269.4 414.618 1269.03 404.558L1304.11 400.173L1359.66 377.759C1361.61 387.114 1353.32 413.328 1347.96 425.023C1327.99 427.946 1286.08 438.666 1286.08 438.666Z" fill="#BDBFC0"/>
<path d="M1152.57 349.01C1140.1 355.247 1135.36 373.535 1136.01 381.169C1136.01 406.994 1173.15 425.996 1168.77 421.124C1165.26 417.226 1183.92 400.172 1192.53 391.401C1171.68 378.218 1163.09 368.841 1152.57 349.01Z" fill="#BDBFC0"/>
<path d="M1292.37 441.105C1293.62 440.693 1294.89 440.289 1296.15 439.896C1298.67 439.109 1301.21 438.365 1303.74 437.668C1308.71 436.296 1313.7 435.106 1318.71 434.076C1328.8 432.005 1338.93 430.618 1349.06 429.873C1353.09 429.571 1353.03 422.869 1348.99 423.17C1337.42 424.027 1325.83 425.721 1314.33 428.302C1308.8 429.545 1303.27 430.98 1297.79 432.601C1294.94 433.445 1292.1 434.337 1289.27 435.289C1286.56 436.203 1284.76 437.155 1283.66 440.126C1283.01 441.884 1284.42 443.714 1285.9 443.996C1287.42 444.288 1290.77 441.625 1292.37 441.105Z" fill="black"/>
<path d="M1132.19 379.689C1134.86 389.687 1137.93 399.844 1144.02 407.868C1149.87 415.591 1157.65 420.975 1166.71 423.929C1170.39 425.127 1171.94 418.625 1168.29 417.438C1160.36 414.847 1153.26 409.634 1148.38 402.676C1143.18 395.279 1140.54 386.281 1138.14 377.325C1137.09 373.374 1131.13 375.72 1132.19 379.689Z" fill="black"/>
<path d="M1246.4 368.242C1243.84 377.725 1243.68 387.448 1245.86 396.538C1246.8 400.415 1252.44 398.121 1251.51 394.239C1249.58 386.172 1249.8 377.673 1252.07 369.274C1253.16 365.233 1247.49 364.207 1246.4 368.242Z" fill="black"/>
<path d="M1294.86 451.479C1311.13 451.881 1330.85 456.297 1335.5 474.933C1340.25 493.922 1324.77 511.02 1309.54 519.672C1305.9 521.737 1301.9 517.827 1305.57 515.738C1313.11 511.458 1320.61 505.889 1325.14 497.901C1329.62 490.011 1330.76 480.723 1326.43 473.383C1321.78 465.497 1316.36 462.004 1307.67 460.517C1307.66 460.637 1307.64 460.759 1307.62 460.884C1304.78 476.185 1301.73 491.456 1298.47 506.691C1297.6 510.745 1290.66 509.699 1291.44 505.666C1294.39 490.384 1297.75 475.173 1300.59 459.859C1300.59 459.855 1300.59 459.849 1300.59 459.844C1295.81 459.44 1292.67 459.495 1288.21 459.649C1277.05 460.03 1267.24 461.542 1256.19 464.448C1256.79 477.505 1257.38 493.537 1257.82 505.666C1257.97 509.764 1250.69 510.563 1250.54 506.492C1250.05 493.085 1249.57 479.674 1249.09 466.268C1249.08 466.247 1249.09 466.226 1249.08 466.205C1246.97 466.846 1244.87 467.533 1242.78 468.267C1235.37 470.868 1229.89 473.418 1222.81 477.111C1220.76 478.178 1218.71 479.307 1216.7 480.528C1219.41 491.549 1222.72 502.318 1226.64 512.809C1228.03 516.55 1220.38 519.431 1219.01 515.738C1215.25 505.685 1212.05 495.366 1209.41 484.818C1206.72 486.836 1204.19 488.047 1201.97 490.654C1197.13 496.337 1193.48 504.447 1194.95 511.754C1196.65 520.238 1215.43 524.91 1215.43 524.91C1215.43 524.91 1212.51 530.27 1205.78 528.508C1197.13 526.241 1189.76 523.224 1187.45 514.79C1184.88 505.432 1188.81 494.745 1194.95 487.013C1200.73 479.733 1208.56 474.792 1216.36 470.634C1224.65 466.219 1233.24 462.549 1241.98 459.649C1259.31 453.894 1277.25 451.047 1294.86 451.479Z" fill="black"/>
<path d="M1190.23 441.856C1190.95 444.373 1191.67 446.891 1192.39 449.409C1193.5 453.283 1199.37 450.967 1198.26 447.075C1197.54 444.557 1196.82 442.039 1196.1 439.521C1194.99 435.647 1189.12 437.964 1190.23 441.856Z" fill="black"/>
<path fill-rule="evenodd" clip-rule="evenodd" d="M1144.87 347.672C1142.54 344.404 1147.97 340.524 1150.28 343.761C1157.74 354.2 1165.93 363.989 1174.8 373.044C1178.77 377.092 1184.03 382.79 1189.5 384.648C1193.44 385.988 1199.24 385.436 1202.05 381.136L1202.04 381.134C1204.42 377.488 1209.86 380.242 1207.45 383.93C1203.79 389.541 1198 392.195 1191.99 391.942C1188.32 391.787 1185.03 390.449 1182.04 388.54C1180.17 393.067 1173.65 398.32 1169.31 400.669C1162.79 404.197 1155.66 403.341 1150.28 399.198C1144.78 394.959 1141.67 387.73 1141.83 380.191C1142 372.67 1147.98 363.894 1152.37 357.682C1149.8 354.409 1147.3 351.071 1144.87 347.672Z" fill="black"/>
<path fill-rule="evenodd" clip-rule="evenodd" d="M1357.73 370.68C1359.68 369.721 1361.65 371.449 1361.7 373.456C1361.91 382.404 1360.83 391.456 1358.46 400.307C1357.32 404.55 1351.26 403.469 1352.39 399.225C1354.2 392.477 1355.21 385.701 1355.41 378.896C1345.79 383.556 1336.08 387.953 1326.3 392.08C1326.52 394.057 1326.15 396.35 1325.9 398.066C1323.73 412.999 1311.15 428.521 1297.29 430.869C1290.68 431.988 1283.01 430.984 1278.08 426.554C1274.19 423.058 1273.89 414.472 1274.01 409.117C1266.38 409.191 1258.32 405.229 1258.48 396.002L1258.48 395.997C1258.56 391.685 1264.83 390.972 1264.75 395.279C1264.62 402.766 1277.76 402.341 1283.17 401.046C1291.55 399.044 1299.81 395.696 1307.95 392.548C1324.78 386.051 1341.38 378.737 1357.73 370.68Z" fill="black"/>
<path d="M1175.96 388.965C1175.96 393.54 1169.69 399.684 1161.34 399.684C1153 399.684 1147.21 394.514 1147.21 389.939C1147.21 385.365 1153 389.939 1161.34 389.939C1169.69 389.939 1175.96 384.39 1175.96 388.965Z" fill="#24303F"/>
<path d="M1315.8 410.041C1317.37 414.338 1312.21 422.763 1302.55 426.29C1292.9 429.817 1284.42 427.408 1282.86 423.111C1281.29 418.814 1289.55 420.664 1299.21 417.136C1308.87 413.609 1314.23 405.743 1315.8 410.041Z" fill="#24303F"/>
<path d="M1161.65 371.424C1161.65 374.384 1159.03 377.758 1155.8 377.758C1152.57 377.758 1149.96 374.384 1149.96 371.424C1149.96 368.464 1152.57 364.115 1155.8 364.115C1159.03 364.115 1161.65 368.464 1161.65 371.424Z" fill="#BDBFC0"/>
<path d="M1288.85 410.786C1289.15 413.73 1286.8 416.385 1283.58 416.717C1280.37 417.048 1277.52 414.93 1277.22 411.985C1276.91 409.04 1279.52 408.808 1282.73 408.477C1285.95 408.146 1288.55 407.841 1288.85 410.786Z" fill="#BDBFC0"/>
<path d="M1183.36 318.917C1183.36 291.613 1192.63 290.002 1200.47 282.174C1241.46 286.815 1341.77 301.111 1327.58 310.634C1313.4 320.156 1303.45 355.518 1306.14 372.705C1282.27 362.778 1274.96 359.359 1264.24 346.691L1264.24 376.413C1232.22 362.053 1220.87 341.331 1220.87 341.331L1220.87 363.745C1200.47 354.371 1183.36 341.331 1183.36 318.917Z" fill="#323B72"/>
<path d="M1373.79 361.192C1287.36 299.845 1168.33 311.816 1109.21 329.033C1129.67 296.875 1184.94 226.608 1253.92 222.811C1360.14 216.964 1444.79 234.761 1504.86 307.593C1543.84 354.858 1518.5 550.733 1408.87 570.224L1330.42 550.735C1408.87 534.168 1482.93 438.665 1373.79 361.192Z" fill="#CBCCCE"/>
<path d="M1195.2 293.949C1196 263.1 1256.09 213.787 1300.93 213.55C1345.77 213.314 1386.46 232.069 1392.79 234.51C1367.94 245.23 1295.26 256.145 1285.11 298.821C1287.08 304.472 1287.06 322.013 1285.11 324.646C1261.39 324.646 1197.13 318.511 1194.09 315.392C1191.05 312.274 1193.93 296.81 1195.2 293.949Z" fill="#E78C3C"/>
<path d="M1392.79 234.506C1303.57 253.04 1288.27 276.269 1285.11 294.438L1283.16 324.648C1283.16 324.648 1363.38 268.192 1392.79 234.506Z" fill="#A25831"/>
<g style="mix-blend-mode:hard-light">
<path d="M1066.82 372.885C1067.5 368.779 1087.28 346.086 1093.13 346.573C1095.56 346.776 1104.82 352.908 1104.33 354.37C1103.85 355.832 1103.36 355.832 1101.9 356.319C1091.73 359.71 1081.42 370.962 1077.54 380.682C1076.56 383.117 1066.33 375.809 1066.82 372.885Z" fill="#D9D9D9"/>
</g>
<g style="mix-blend-mode:hard-light">
<path d="M1056.58 398.909C1054.63 395.791 1058.05 386.241 1063.4 382.343C1065.53 380.8 1073.64 386.042 1072.66 387.991C1068.48 396.362 1066.92 402.608 1063.89 402.608C1060.97 402.609 1059.02 402.807 1056.58 398.909Z" fill="#D9D9D9"/>
</g>
<path d="M1430.31 377.272C1430.31 377.272 1511.96 373.021 1538.74 403.915C1554.19 421.746 1550.11 498.319 1521.16 509.072C1493.6 519.309 1442.87 517.117 1424.95 509.072C1457.6 464.732 1449.8 401.479 1430.31 377.272Z" fill="#E78C3C"/>
<ellipse cx="1522.71" cy="453.565" rx="17.054" ry="53.1109" transform="rotate(7.34223 1522.71 453.565)" fill="#A25831"/>
<path opacity="0.07" d="M1044.4 780.72C1022.96 724.685 1074.61 546.35 1074.61 546.35C1074.61 546.35 985.931 673.036 945.488 760.742L1044.4 780.72Z" fill="#999B9E"/>
<path d="M1377.69 567.789C1416.3 566.886 1446.79 541.7 1483.42 516.627C1476.6 527.347 1454.18 572.174 1394.25 592.152C1344.45 608.751 1352.02 619.925 1295.83 610.667V582.894C1295.83 582.894 1328.18 568.947 1377.69 567.789Z" fill="#8693A7"/>
<path d="M1308.01 822.137C1309.97 780.659 1294.35 756.928 1242.71 713.966H1363.55L1438.1 848.449L1308.01 822.137Z" fill="url(#paint4_linear_3078_4002)"/>
<path d="M1170.11 540.015C1179.97 543.073 1186.01 544.01 1195.94 544.888C1171.01 593.05 1153.82 655.71 1144.75 708.153C1179.36 714.771 1219.78 723.469 1257.17 733.178C1229.64 734.27 1189.84 727.166 1187.69 737.479C1186.59 742.79 1212.2 762.166 1223.5 776.016C1198.85 763.855 1168.36 750.533 1140.29 738.212C1137.28 762.83 1136.48 783.353 1137.95 796.312L1114.57 792.414C1109 780.166 1109.66 755.976 1114.17 726.675C1081.45 712.067 1056.99 700.219 1057.95 695.608C1058.29 693.962 1082.9 697.067 1118.34 703.299C1129.75 646.416 1151.71 578.541 1170.11 540.015Z" fill="url(#paint5_linear_3078_4002)"/>
<path d="M1388.41 623.824C1404.1 677.909 1367.68 702.95 1323.11 716.89C1301.32 723.706 1268.05 718.839 1268.05 718.839C1268.05 718.839 1289.63 734.743 1306.5 747C1359.97 785.841 1361.1 832.034 1414.23 855.758C1451.76 872.516 1544.23 868.334 1555.05 851.372C1572.48 824.045 1581.9 787.893 1575.51 755.87C1567.92 717.86 1560.93 711.165 1531.17 678.884C1510.19 656.126 1465.82 645.845 1435.09 638.724L1434.76 638.648C1414.2 633.884 1388.41 623.824 1388.41 623.824Z" fill="url(#paint6_linear_3078_4002)"/>
<path d="M1542.05 864.014C1522.42 868.577 1507.29 873.992 1482.99 873.661C1458.79 872.387 1455.42 870.646 1428.02 865.465C1422.66 864.228 1417.33 862.606 1412.2 860.299C1391.63 851.359 1377.66 835.709 1370.86 828.649C1362.26 819.651 1363.84 816.805 1353.51 803.161C1343.22 789.521 1337.57 781.149 1328.18 769.768C1324.14 764.899 1315.83 756.277 1305.4 748.513C1291.48 738.062 1276.09 726.765 1268.02 721.623C1267.58 721.351 1267.08 721.019 1266.65 720.742L1268.4 716.499C1284.31 717.741 1302.41 719.582 1313.35 718.14C1316.86 717.72 1319.61 717.26 1321.72 716.869C1322.62 716.702 1323.07 716.748 1323.12 716.921C1323.12 716.921 1323.12 716.921 1323.12 716.921C1323.19 717.135 1322.64 717.548 1321.5 717.895C1316.01 719.598 1307.56 721.272 1297.4 722.302C1283.76 723.519 1278.86 722.503 1267.73 721.061L1269.39 717.031C1272.83 719.626 1277.09 722.727 1282.96 726.76C1292.57 733.369 1300.56 738.561 1308.68 744.009C1318.39 750.592 1327.88 758.344 1338.28 771.049C1357.34 794.377 1361.23 801.036 1386.94 832.104C1397.91 843.739 1407.46 848.494 1415.98 851.834C1428.87 856.24 1440.42 857.091 1464.99 858.605C1493.1 859.832 1534.96 859.647 1550.09 848.208C1555.61 839.972 1559.48 832.08 1561.95 825.855C1569.04 807.952 1574.61 782.808 1569.69 757.031C1568.36 750.2 1566.94 743.423 1565.01 736.789C1560.39 717.101 1543.42 700.73 1526.85 682.867C1516.36 671.782 1501.07 664.608 1486.48 658.732C1471.26 652.613 1452.35 647.401 1433.83 642.669C1416.34 638.023 1400.28 631.771 1387.38 626.462L1391.12 623.035C1392.79 629.401 1393.68 635.222 1394.01 640.037C1394.18 666.299 1390.67 674.319 1373.66 692.741C1363.12 703.059 1344.6 711.747 1328.46 715.835C1320.3 717.885 1321.93 716.586 1329.73 713.546C1341.11 709.031 1350.3 704.946 1355.21 700.963C1364.71 692.758 1368.69 689.703 1378.74 678.63C1388.13 666.594 1386.17 658.21 1387.03 649.968C1387.09 643.819 1389.01 641.909 1384.61 624.924L1382.3 617.317L1389.84 620.146C1396.33 622.635 1405.32 625.843 1417.96 629.453C1424.3 631.248 1430.28 632.77 1435.86 633.925C1471 640.935 1492.05 647.697 1506.63 654.454C1514.14 658.005 1525.52 663.934 1535.51 674.885C1546.34 687.341 1559.79 700.637 1568.53 715.897C1574.22 725.518 1578.37 739.911 1581.27 754.721C1587.48 783.608 1578.95 815.317 1573.13 830.243C1567.83 844.193 1564.03 849.167 1560 854.529C1555.33 860.243 1550.07 861.675 1542.05 864.014Z" fill="url(#paint7_linear_3078_4002)"/>
<path d="M1075.8 581.238C1074.98 577.665 1076.81 569.285 1082.35 565.785C1087.33 562.642 1143.64 577.571 1144.43 580.716C1145.21 583.86 1142.59 595.645 1139.45 597.478C1137.36 598.701 1119.28 592.763 1119.28 592.763C1117.72 603.28 1115.89 609.194 1111.16 619.742C1111.16 619.742 1130.06 621.837 1131.33 624.717C1132.6 627.597 1127.93 643.314 1123.47 643.314C1117.45 643.314 1062.74 627.752 1060.87 624.717C1058.78 621.314 1065.59 609.364 1068.73 608.217C1071.87 607.071 1087.33 614.242 1087.33 614.242C1087.07 612.636 1097.76 588.479 1097.28 587.786C1096.35 586.434 1076.23 583.071 1075.8 581.238Z" fill="#3A547F"/>
<path d="M1096.77 604.614C1111.66 635.905 1113.11 655.075 1095.43 684.445C1083.12 704.899 1070.44 719.268 1056.65 730.514C1041.26 743.069 1022.8 780.321 1003.61 789.213C984.426 798.106 899.175 763.386 908.994 728.462C914.523 708.797 899.604 638.71 908.994 622.753C915.576 611.569 926.46 604.614 926.46 604.614C926.46 604.614 929.41 581.01 939.57 567.205C960.637 538.58 983.692 532.856 1018.51 544.792C1043.85 553.481 1083.78 577.329 1096.77 604.614Z" fill="url(#paint8_linear_3078_4002)"/>
<path d="M905.573 680.889C907.092 696.243 906.977 709.856 904.769 726.67C904.723 726.87 904.677 727.058 904.63 727.234C902.027 738.431 906.122 744.713 909.374 749.861C912.995 755.007 917.444 759.946 926.099 766.975C943.975 781.228 965.73 787.762 975.172 791.065C984.902 793.963 985.928 793.544 1001.01 792.929C1002.24 792.74 1003.65 792.379 1004.84 791.862C1016.73 785.994 1021.45 778.77 1028.07 769.764C1033.59 762.604 1045.34 742.326 1057.66 731.75C1062.22 728.129 1066.05 724.765 1068.75 722.492C1079.46 713.65 1087.41 699.8 1092 691.747C1093.46 689.236 1094.5 687.185 1095.23 685.59C1095.54 684.912 1095.56 684.521 1095.4 684.428C1095.4 684.428 1095.4 684.428 1095.4 684.428C1095.4 684.428 1095.4 684.428 1095.4 684.428C1095.4 684.428 1095.4 684.428 1095.4 684.428C1095.21 684.312 1094.75 684.656 1094.23 685.449C1091.72 689.304 1087.72 694.937 1082.28 700.946C1071.9 711.816 1072.39 714.539 1056.79 727.481C1056.26 727.903 1055.72 728.318 1055.19 728.721C1039.88 741.991 1033.75 752.925 1019.8 771.091C1013.5 779.121 1008.01 783.582 1002.11 785.966C995.379 787.786 984.768 785.999 966.839 780.992C950.852 776.111 942.839 770.904 935.536 765.493C928.709 759.816 920.173 753.986 914.159 740.751C912.809 737.161 912.417 733.397 913.407 729.702C917.023 695.929 907.982 663.465 908.671 645.638C908.678 638.924 908.375 630.35 911.396 624.166C915.152 617.749 921.089 611.588 927.882 606.839L928.942 606.146L929.08 604.942C930.267 596.279 932.396 587.037 935.921 578.415C937.342 574.992 939.074 571.577 941.301 568.479C948.878 557.953 959.114 547.531 972.45 543.216C985.736 538.761 1000.55 540.955 1013.64 544.763C1015.11 545.191 1016.53 545.627 1018.05 546.12C1047.95 555.615 1083.12 581.096 1093.1 598.599C1094.48 600.75 1095.62 602.801 1096.55 604.717C1102.84 618.596 1106.17 624.199 1108.09 641.72C1109.29 653.323 1104.46 669.1 1097.64 680.653C1094.23 686.519 1095.07 685.204 1098.41 679.285C1103.26 670.546 1105.9 662.734 1107.03 657.713C1109.02 647.69 1109.46 642.996 1106.76 630.295C1103.44 617.73 1100.78 612.108 1097.71 605.221C1097.57 604.922 1097.44 604.636 1097.31 604.359C1093.58 599.036 1096.01 594.553 1067.69 570.721C1047.84 555.512 1031.55 548.011 1019 543.356C1012.09 540.888 1006.26 539.333 1001.11 538.355C993.935 536.999 981.932 535.687 969.698 540.106C957.393 544.347 946.895 554.317 939.494 563.742C938.95 564.424 938.388 565.147 937.81 565.91C930.945 574.99 926.205 589.408 923.87 604.29L925.054 602.415C917.372 607.576 910.938 614.048 906.518 621.295C901.739 631.481 902.957 639.759 902.533 645.611C902.572 665.35 903.869 665.25 905.573 680.889Z" fill="url(#paint9_linear_3078_4002)"/>
<path d="M1008.35 738.817C987.172 748.441 913.817 725.174 913.817 725.174C913.817 725.174 907.97 740.279 913.817 746.613C944.515 789.979 998.113 791.928 1002.99 791.44C1007.86 790.953 1019.06 777.797 1021.99 774.874C1024.91 771.95 1047.28 741.244 1051.22 736.868C1055.61 731.995 1070.71 721.276 1079.97 710.069C1118.46 671.088 1112.13 630.646 1100.44 610.181C1108.72 649.162 1035.14 726.635 1008.35 738.817Z" fill="url(#paint10_linear_3078_4002)"/>
<path d="M941.104 593.127C941.104 582.896 969.852 547.813 993.24 547.812C1007.27 547.812 1041.48 564.135 1026.86 567.79C1012.24 571.445 982.033 601.411 970.826 603.847C961.861 605.796 941.104 604.971 941.104 593.127Z" fill="#E9AE8F"/>
<path d="M1161.19 609.829C1160.81 646.761 1168 665.946 1198.25 686.423C1242.85 716.603 1276.48 724.686 1319.21 724.686C1357.43 724.686 1418.44 672.876 1424.46 641.852C1426.31 632.346 1395.71 631.62 1388.4 624.311C1373.01 608.917 1373.89 560.354 1357.66 549.131C1346.29 541.266 1320.62 538.354 1320.62 538.354C1320.62 538.354 1305.13 516.643 1289.12 507.847C1255.92 489.609 1231.76 510.336 1203.45 537.478L1203.36 537.557C1182.78 557.292 1161.52 577.669 1161.19 609.829Z" fill="#E78C3C"/>
<path d="M1382.35 606.366C1384.22 612.632 1387.13 618.225 1391.18 621.532C1396.42 624.82 1406.92 624.735 1418.99 629.09C1421.38 630.038 1423.68 631.07 1425.97 632.957C1427.13 633.94 1428.33 635.214 1429.17 637.056C1430.03 638.911 1430.16 641.16 1429.76 642.88C1425.96 655.204 1421.92 660.024 1410.73 674.786C1395.77 693.592 1375.45 706.35 1366.94 712.596C1358.26 718.803 1356.15 717.313 1342.44 723.542C1333.9 727.101 1326.64 728.683 1319.21 728.502C1314.79 728.354 1310.34 728.014 1305.32 727.417C1292.24 726.99 1253.36 718.269 1239.86 712.639C1225.83 708.32 1212.56 697.918 1204.67 692.099C1202.17 690.292 1200.31 688.759 1198.92 687.507C1198.32 686.976 1198.15 686.578 1198.28 686.388C1198.28 686.388 1198.28 686.388 1198.28 686.388C1198.28 686.388 1198.28 686.388 1198.28 686.388C1198.28 686.388 1198.28 686.388 1198.28 686.388C1198.44 686.152 1199.06 686.239 1199.92 686.771C1204.04 689.326 1210.41 692.941 1218.3 696.344C1233.05 702.342 1233.53 705.455 1253.89 712.101C1274.47 717.898 1287.18 718.479 1312.18 720.595C1314.69 720.776 1317.01 720.862 1319.21 720.884C1337.55 719.379 1344.3 713.951 1371.68 698.71C1400.34 678.986 1403.52 672.883 1417.72 644.232C1418.1 643.094 1418.44 641.843 1418.66 640.726C1418.59 640.937 1418.66 641.612 1418.83 641.908C1419 642.214 1419.03 642.13 1418.79 641.932C1418.33 641.508 1417.15 640.836 1415.85 640.279C1413.17 639.13 1409.92 638.16 1406.59 637.189C1399.81 634.872 1392.96 634.618 1384.83 627.885C1369.17 605.949 1370.99 584.47 1366.37 572.572C1364.24 565.519 1361.57 556.475 1355.66 552.03C1346.75 546.276 1333.3 543.502 1320.26 541.517L1318.81 541.335L1318.03 540.203C1315.05 535.995 1311.59 531.668 1308.03 527.595C1302.38 521.212 1295.78 514.642 1287.87 510.121C1267.23 496.316 1240.06 506.786 1222.43 522.651C1216.66 527.321 1210.62 532.782 1204.44 538.513C1181.76 557.511 1162.09 585.206 1161.95 603.139C1161.67 605.546 1161.54 607.752 1161.5 609.833C1161.62 626.478 1160.92 633.249 1167.03 651.139C1171.12 662.767 1182.78 675.706 1194.46 683.765C1200.33 687.878 1198.94 686.987 1193.1 682.799C1184.56 676.584 1178.54 670.276 1175.2 665.984C1168.78 657.297 1166.21 653.019 1163.08 639.633C1160.6 626.113 1160.58 619.552 1160.42 611.568C1160.43 610.949 1160.43 610.374 1160.44 609.822C1160.53 606.545 1160.55 604.183 1161.59 598.024C1162.81 592.003 1164.74 581.467 1175.65 565.913C1184.97 552.969 1194.65 544.034 1202.33 536.312C1214.52 524.179 1223.54 516.106 1231.42 510.564C1236.78 506.826 1245.2 501.416 1256.28 499.301C1267.35 496.998 1280.21 499.948 1290.34 505.612C1294.28 507.739 1297.77 510.291 1300.95 512.866C1307.69 518.341 1315.7 526.598 1323.19 536.522L1320.97 535.219C1334.1 536.966 1347.97 539 1359.72 546.153C1369.95 554.325 1371.4 564.365 1373.81 570.29C1380.04 590.277 1378.06 590.695 1382.35 606.366Z" fill="#A25831"/>
<path d="M1199.35 693.014C1140.88 653.859 1155.5 612.616 1166.22 583.381C1169.14 636.979 1186.19 654.033 1206.17 666.214C1234.29 683.36 1255.87 686.192 1270.49 693.014C1281.7 695.45 1323.86 702.207 1351.37 693.014C1386.94 681.127 1421.54 640.877 1421.54 640.877C1421.54 640.877 1411.31 668.163 1405.95 676.447C1392.41 697.37 1334.99 743.442 1303.13 745.15C1281.7 724.685 1229.25 713.039 1199.35 693.014Z" fill="#A25831"/>
<path d="M1178.88 590.203C1178.88 579.971 1223.99 529.399 1238.82 521.987C1244.66 519.063 1270 529.438 1258.31 546.005C1246.61 562.572 1216.89 601.552 1205.68 603.988C1196.72 605.937 1178.88 602.046 1178.88 590.203Z" fill="#E9AE8F"/>
<g style="mix-blend-mode:multiply" opacity="0.3">
<path d="M1230.5 402.5C1234.54 412.483 1237.57 425.116 1215.42 434.077C1209.71 436.386 1199.3 441.17 1199.5 434.077C1199.7 426.984 1207.53 421.332 1215.42 411.9C1220.87 405.379 1226.46 392.517 1230.5 402.5Z" fill="#251D51"/>
</g>
<defs>
<linearGradient id="paint0_linear_3078_4002" x1="510.489" y1="39.9556" x2="432.388" y2="782.119" gradientUnits="userSpaceOnUse">
<stop stop-color="#65A543"/>
<stop offset="1" stop-color="#65A543" stop-opacity="0"/>
</linearGradient>
<linearGradient id="paint1_linear_3078_4002" x1="510.494" y1="39.9551" x2="436.19" y2="832.84" gradientUnits="userSpaceOnUse">
<stop stop-color="#22522F"/>
<stop offset="1" stop-color="#13321B" stop-opacity="0"/>
</linearGradient>
<linearGradient id="paint2_linear_3078_4002" x1="510.92" y1="36.7063" x2="436.012" y2="836.045" gradientUnits="userSpaceOnUse">
<stop stop-color="#207139"/>
<stop offset="1" stop-color="#231F20" stop-opacity="0"/>
</linearGradient>
<linearGradient id="paint3_linear_3078_4002" x1="1264" y1="689" x2="1241.5" y2="817" gradientUnits="userSpaceOnUse">
<stop stop-color="#CBCCCE"/>
<stop offset="1" stop-color="#666768" stop-opacity="0"/>
</linearGradient>
<linearGradient id="paint4_linear_3078_4002" x1="1340.41" y1="713.966" x2="1340" y2="822.5" gradientUnits="userSpaceOnUse">
<stop stop-color="#999B9E"/>
<stop offset="1" stop-color="#363738" stop-opacity="0"/>
</linearGradient>
<linearGradient id="paint5_linear_3078_4002" x1="1157.55" y1="540.015" x2="1157.55" y2="796.312" gradientUnits="userSpaceOnUse">
<stop stop-color="#8693A7"/>
<stop offset="0.735577" stop-color="#8693A7" stop-opacity="0"/>
</linearGradient>
<linearGradient id="paint6_linear_3078_4002" x1="1423" y1="662.5" x2="1423" y2="837.5" gradientUnits="userSpaceOnUse">
<stop offset="0.533654" stop-color="#CBCCCE"/>
<stop offset="1" stop-color="#CBCCCE" stop-opacity="0"/>
</linearGradient>
<linearGradient id="paint7_linear_3078_4002" x1="1422.79" y1="623.824" x2="1422.79" y2="866.412" gradientUnits="userSpaceOnUse">
<stop stop-color="#8693A7"/>
<stop offset="1" stop-color="#363738" stop-opacity="0"/>
</linearGradient>
<linearGradient id="paint8_linear_3078_4002" x1="981.501" y1="578" x2="937.001" y2="760" gradientUnits="userSpaceOnUse">
<stop offset="0.831731" stop-color="#E78C3C"/>
<stop offset="1" stop-color="#E78C3C" stop-opacity="0"/>
</linearGradient>
<linearGradient id="paint9_linear_3078_4002" x1="1004" y1="696.494" x2="967.001" y2="757.994" gradientUnits="userSpaceOnUse">
<stop stop-color="#A25831"/>
<stop offset="1" stop-color="#A25831" stop-opacity="0"/>
</linearGradient>
<linearGradient id="paint10_linear_3078_4002" x1="1003.5" y1="603.5" x2="945.502" y2="791" gradientUnits="userSpaceOnUse">
<stop offset="0.745192" stop-color="#A25831"/>
<stop offset="0.9375" stop-color="#A25831" stop-opacity="0"/>
</linearGradient>
</defs>
</svg>
