<svg width="1435" height="785" viewBox="0 0 1435 785" fill="none" xmlns="http://www.w3.org/2000/svg">
<path d="M71.9885 108.927L105.355 83.0002L92.6105 124.955L125.983 150.882H84.7331L71.9885 192.837L59.244 150.882H18L51.3665 124.955L38.622 83.0002L71.9885 108.927Z" fill="#FFEFCF"/>
<path d="M1339.52 578.178L1367.89 533.447L1371.44 585.422L1423.09 597.14L1373.64 617.543L1377.2 669.519L1343.08 630.148L1293.63 650.55L1322 605.818L1287.88 566.455L1339.52 578.178Z" fill="#FFEFCF"/>
<path d="M342.627 594.385L369.593 599.62L343.958 611.306L346.106 638.691L328.114 618.538L302.473 630.224L316.992 606.071L299 585.912L325.959 591.146L340.478 567L342.627 594.385Z" fill="#FFEFCF"/>
<path d="M59.7804 717.614L72.6327 708L67.7212 723.553L80.5735 733.16H64.6919L59.7804 748.707L54.8816 733.16H39L51.846 723.553L46.9408 708L59.7804 717.614Z" fill="#FFEFCF"/>
<path d="M784.798 452.993L797.023 444L792.352 458.558L804.59 467.551H789.462L784.798 482.108L780.121 467.551H765L777.231 458.558L772.561 444L784.798 452.993Z" fill="#FFEFCF"/>
<path d="M987.268 121.23L993.834 101L1000.41 121.23H1021.67L1004.47 133.728L1011.04 153.951L993.834 141.453L976.628 153.951L983.206 133.728L966 121.23H987.268Z" fill="#FFEFCF"/>
<path d="M688.216 13.1189L706.277 0L699.376 21.231L717.437 34.3499H695.117L688.216 55.5809L681.314 34.3499H659L677.055 21.231L670.154 0L688.216 13.1189Z" fill="#FFEFCF"/>
<path d="M71.9885 108.927L105.355 83.0002L92.6105 124.955L125.983 150.882H84.7331L71.9885 192.837L59.244 150.882H18L51.3665 124.955L38.622 83.0002L71.9885 108.927Z" fill="#FFEFCF"/>
<path d="M1339.52 578.178L1367.89 533.447L1371.44 585.422L1423.09 597.14L1373.64 617.543L1377.2 669.519L1343.08 630.148L1293.63 650.55L1322 605.818L1287.88 566.455L1339.52 578.178Z" fill="#FFEFCF"/>
<path d="M342.627 594.385L369.593 599.62L343.958 611.306L346.106 638.691L328.114 618.538L302.473 630.224L316.992 606.071L299 585.912L325.959 591.146L340.478 567L342.627 594.385Z" fill="#FFEFCF"/>
<path d="M59.7804 717.614L72.6327 708L67.7212 723.553L80.5735 733.16H64.6919L59.7804 748.707L54.8816 733.16H39L51.846 723.553L46.9408 708L59.7804 717.614Z" fill="#FFEFCF"/>
<path d="M784.798 452.993L797.023 444L792.352 458.558L804.59 467.551H789.462L784.798 482.108L780.121 467.551H765L777.231 458.558L772.561 444L784.798 452.993Z" fill="#FFEFCF"/>
<path d="M987.268 121.23L993.834 101L1000.41 121.23H1021.67L1004.47 133.728L1011.04 153.951L993.834 141.453L976.628 153.951L983.206 133.728L966 121.23H987.268Z" fill="#FFEFCF"/>
<path d="M688.216 13.1189L706.277 0L699.376 21.231L717.437 34.3499H695.117L688.216 55.5809L681.314 34.3499H659L677.055 21.231L670.154 0L688.216 13.1189Z" fill="#FFEFCF"/>
<circle cx="213.5" cy="756.5" r="4.5" fill="#D9D9D9"/>
<circle cx="4.5" cy="321.5" r="4.5" fill="#D9D9D9"/>
<circle cx="365.5" cy="477.5" r="4.5" fill="#D9D9D9"/>
<circle cx="736.5" cy="599.5" r="4.5" fill="#D9D9D9"/>
<g style="mix-blend-mode:screen">
<path d="M141.469 329.844L173.793 388.765L239.819 376.231L193.77 425.181L226.094 484.102L165.31 455.433L119.261 504.382L127.744 437.715L66.9603 409.046L132.986 396.512L141.469 329.844Z" fill="#FFEFCF"/>
</g>
<g style="mix-blend-mode:screen" filter="url(#filter0_f_3002_1198)">
<path d="M141.469 329.844L173.793 388.765L239.819 376.231L193.77 425.181L226.094 484.102L165.31 455.433L119.261 504.382L127.744 437.715L66.9603 409.046L132.986 396.512L141.469 329.844Z" fill="#FFEFCF"/>
</g>
<g style="mix-blend-mode:screen">
<path d="M1279.5 14.115L1280.93 51.3888L1316.82 61.5491L1281.81 74.4252L1283.24 111.699L1260.17 82.3831L1225.16 95.2592L1245.92 64.2649L1222.85 34.949L1258.74 45.1094L1279.5 14.115Z" fill="#FFEFCF"/>
</g>
<g style="mix-blend-mode:screen" filter="url(#filter1_f_3002_1198)">
<path d="M1279.5 14.115L1280.93 51.3888L1316.82 61.5491L1281.81 74.4252L1283.24 111.699L1260.17 82.3831L1225.16 95.2592L1245.92 64.2649L1222.85 34.949L1258.74 45.1094L1279.5 14.115Z" fill="#FFEFCF"/>
</g>
<g style="mix-blend-mode:screen">
<path d="M1042.18 733.219L1042.84 750.253L1059.24 754.896L1043.24 760.78L1043.89 777.814L1033.35 764.417L1017.35 770.301L1026.84 756.137L1016.3 742.74L1032.7 747.383L1042.18 733.219Z" fill="#FFEFCF"/>
</g>
<g style="mix-blend-mode:screen" filter="url(#filter2_f_3002_1198)">
<path d="M1042.18 733.219L1042.84 750.253L1059.24 754.896L1043.24 760.78L1043.89 777.814L1033.35 764.417L1017.35 770.301L1026.84 756.137L1016.3 742.74L1032.7 747.383L1042.18 733.219Z" fill="#FFEFCF"/>
</g>
<g style="mix-blend-mode:screen">
<path d="M587.125 645.756L594.312 658.855L608.991 656.069L598.753 666.952L605.939 680.051L592.426 673.677L582.188 684.56L584.074 669.738L570.56 663.364L585.239 660.578L587.125 645.756Z" fill="#FFEFCF"/>
</g>
<g style="mix-blend-mode:screen" filter="url(#filter3_f_3002_1198)">
<path d="M587.125 645.756L594.312 658.855L608.991 656.069L598.753 666.952L605.939 680.051L592.426 673.677L582.188 684.56L584.074 669.738L570.56 663.364L585.239 660.578L587.125 645.756Z" fill="#FFEFCF"/>
</g>
<path opacity="0.25" d="M1141.63 52.9228L1144.27 58.4724L1150.36 59.2447L1144.81 61.8775L1144.04 67.9713L1141.41 62.4217L1135.31 61.6494L1140.86 59.0166L1141.63 52.9228Z" fill="white"/>
<path opacity="0.25" d="M7.52428 59.2025L10.1571 64.7522L16.2509 65.5244L10.7013 68.1573L9.92906 74.2511L7.29619 68.7014L1.20239 67.9292L6.75205 65.2963L7.52428 59.2025Z" fill="white"/>
<path opacity="0.25" d="M67.5243 238.203L70.1571 243.752L76.2509 244.524L70.7013 247.157L69.9291 253.251L67.2962 247.701L61.2024 246.929L66.752 244.296L67.5243 238.203Z" fill="white"/>
<path opacity="0.25" d="M984.379 27.8044L986.806 30.9226L990.741 30.5579L987.623 32.9851L987.987 36.9197L985.56 33.8016L981.625 34.1662L984.744 31.739L984.379 27.8044Z" fill="white"/>
<path opacity="0.25" d="M773.558 54.8044L775.985 57.9226L779.919 57.5579L776.801 59.9851L777.166 63.9197L774.739 60.8016L770.804 61.1662L773.922 58.739L773.558 54.8044Z" fill="white"/>
<path d="M853.249 94.7257C854.614 96.0941 854.611 98.3102 853.243 99.6755C851.875 101.041 849.659 101.038 848.293 99.6698C846.928 98.3014 846.931 96.0853 848.299 94.72C849.667 93.3548 851.883 93.3573 853.249 94.7257Z" fill="#D9D9D9"/>
<path d="M848.653 94.3669L881.821 72.0002L873.067 79.0545C867.419 83.6058 862.258 88.7302 857.667 94.3454L853.597 99.3223L848.653 94.3669Z" fill="url(#paint0_linear_3002_1198)"/>
<path opacity="0.25" d="M1359.35 174.975L1361.98 180.524L1368.07 181.296L1362.52 183.929L1361.75 190.023L1359.12 184.473L1353.02 183.701L1358.57 181.068L1359.35 174.975Z" fill="white"/>
<path opacity="0.25" d="M653.558 131.804L655.985 134.923L659.919 134.558L656.801 136.985L657.166 140.92L654.739 137.802L650.804 138.166L653.922 135.739L653.558 131.804Z" fill="white"/>
<path opacity="0.25" d="M163.558 62.8044L165.985 65.9226L169.919 65.5579L166.801 67.9851L167.166 71.9197L164.739 68.8016L160.804 69.1662L163.922 66.739L163.558 62.8044Z" fill="white"/>
<defs>
<filter id="filter0_f_3002_1198" x="47.1604" y="310.044" width="212.458" height="214.138" filterUnits="userSpaceOnUse" color-interpolation-filters="sRGB">
<feFlood flood-opacity="0" result="BackgroundImageFix"/>
<feBlend mode="normal" in="SourceGraphic" in2="BackgroundImageFix" result="shape"/>
<feGaussianBlur stdDeviation="9.9" result="effect1_foregroundBlur_3002_1198"/>
</filter>
<filter id="filter1_f_3002_1198" x="1211.86" y="3.12541" width="115.942" height="119.563" filterUnits="userSpaceOnUse" color-interpolation-filters="sRGB">
<feFlood flood-opacity="0" result="BackgroundImageFix"/>
<feBlend mode="normal" in="SourceGraphic" in2="BackgroundImageFix" result="shape"/>
<feGaussianBlur stdDeviation="5.49482" result="effect1_foregroundBlur_3002_1198"/>
</filter>
<filter id="filter2_f_3002_1198" x="1011.28" y="728.197" width="52.9842" height="54.6389" filterUnits="userSpaceOnUse" color-interpolation-filters="sRGB">
<feFlood flood-opacity="0" result="BackgroundImageFix"/>
<feBlend mode="normal" in="SourceGraphic" in2="BackgroundImageFix" result="shape"/>
<feGaussianBlur stdDeviation="2.51107" result="effect1_foregroundBlur_3002_1198"/>
</filter>
<filter id="filter3_f_3002_1198" x="566.158" y="641.354" width="47.2348" height="47.6085" filterUnits="userSpaceOnUse" color-interpolation-filters="sRGB">
<feFlood flood-opacity="0" result="BackgroundImageFix"/>
<feBlend mode="normal" in="SourceGraphic" in2="BackgroundImageFix" result="shape"/>
<feGaussianBlur stdDeviation="2.20102" result="effect1_foregroundBlur_3002_1198"/>
</filter>
<linearGradient id="paint0_linear_3002_1198" x1="851.125" y1="96.8446" x2="875.548" y2="72.4774" gradientUnits="userSpaceOnUse">
<stop stop-color="#D9D9D9"/>
<stop offset="1" stop-color="#737373" stop-opacity="0"/>
</linearGradient>
</defs>
</svg>
