<svg width="1519" height="1198" viewBox="0 0 1519 1198" fill="none" xmlns="http://www.w3.org/2000/svg">
<path d="M312.251 345.991C375.447 345.991 418.489 423.452 424.621 445.006C493.099 437.07 520.66 497.545 525.881 528.774C617.379 494.238 679.471 547.696 699.08 578.741C816.221 580.799 834.215 599.928 828.569 609.236H727.673C754.627 636.277 754.081 696.923 750.438 723.865C790.214 727.246 796.637 746.706 794.877 756.013C915.952 719.273 1013.61 780.384 1047.3 815.533C1062.72 814.124 1103.98 815.018 1145.65 829.861C1187.32 844.704 1176.49 855.886 1165.86 859.621C1148.38 852.861 1072.74 852.273 1037.1 852.824C916.608 847.386 897.169 860.723 902.511 868.071C940.211 868.071 970.625 885.89 956.42 891.769C942.214 897.647 785.77 898.566 794.877 891.769C803.983 884.972 850.424 873.215 845.325 868.071C840.225 862.928 630.966 853.559 630.966 859.621C630.966 865.683 641.893 873.215 665.387 873.215C684.182 873.215 690.095 881.665 690.702 885.89C564.673 897.831 491.277 893.422 419.885 885.89C348.493 878.359 166.188 879.461 166.188 871.378C177.844 857.27 203.098 852.763 214.268 852.273C205.527 843.455 -42.8893 842.72 -65.4726 841.986C-88.0558 841.251 -109.182 845.66 -107.725 852.273C-106.268 858.886 -86.5988 856.682 -65.4726 861.091C-48.5716 864.618 -54.3024 869.418 -59.2804 871.378C-59.2804 871.378 -352.134 861.825 -368.161 861.458C-384.188 861.091 -375.264 847.129 -375.264 847.129C-343.939 847.129 -318.259 826.922 -302.597 826.922C-290.067 826.922 -261.316 821.166 -248.506 818.288C-227.963 764.206 -169.768 744.073 -143.239 740.766C-175.147 717.693 -142.328 702.495 -121.93 697.78C-127.758 589.91 -71.8469 551.125 -32.8726 544.389H-77.6746C-143.239 547.879 -147.974 531.714 -121.93 525.468C-95.8871 519.222 -12.2924 521.243 -12.2924 521.243C13.9333 423.66 92.6105 417.39 128.671 426.453C148.049 382.805 187.011 382.425 204.07 387.691C221.117 353.303 266.902 345.991 312.251 345.991Z" fill="white"/>
<path d="M868.669 654.319C852.922 655.228 850.063 647.683 850.602 643.797C851.838 641.118 857.167 635.861 868.589 636.273C880.011 636.685 887.104 641.856 889.223 644.39C888.933 647.321 884.416 653.41 868.669 654.319Z" fill="white"/>
<path opacity="0.6" fill-rule="evenodd" clip-rule="evenodd" d="M424.988 444.454C419.014 430.493 407.322 410.47 401.858 402.203C398.519 410.96 385.54 431.669 363.248 444.454C340.956 457.24 311.1 456.028 298.959 453.823V458.416C349.079 457.093 364.401 481.256 365.798 493.503C377.599 457.791 410.175 445.924 424.988 444.454ZM187.499 453.823C171.764 449.414 148.646 424.064 139.054 411.939C136.432 408.724 131.405 420.397 129.22 426.635C133.737 428.252 137.658 436.127 139.054 439.862C94.6162 436.188 71.1225 447.639 64.9304 453.823C11.4591 489.535 4.7691 534.713 8.10803 552.838C-31.959 549.164 -58.6097 568.331 -66.5624 580.945C-106.63 612.358 -121.017 660.12 -121.017 697.595C-169.972 709.94 -156.956 731.274 -144.329 740.398C-207.125 751.861 -240.186 796.611 -248.868 817.553C-276.66 824.825 -293.506 826.197 -302.666 826.942C-306.231 827.233 -308.632 827.428 -310.061 827.84C-312.332 828.494 -315.903 830.096 -320.5 832.158L-320.501 832.158C-326.228 834.727 -333.548 838.009 -341.932 841.066C-354.025 845.475 -369.312 846.7 -375.443 846.761C-381.562 858.665 -372.893 861.641 -367.794 861.641L-185.489 867.152L-59.8239 871.745C-41.6116 864.69 -72.1476 859.253 -89.6922 857.416C-98.9805 857.11 -115.226 854.66 -105.901 847.312C-96.5765 839.964 -29.4095 841.189 3.00845 842.72L125.759 845.291C183.747 845.291 208.686 850.068 213.907 852.456C185.204 854.954 170.137 866.356 166.191 871.745C179.281 877.554 268.305 879.314 324.27 880.421C326.704 880.469 329.076 880.516 331.376 880.562C362.456 881.183 399.37 884.309 435.645 887.382C463.777 889.764 491.525 892.114 515.867 893.238C560.451 895.295 650.638 888.951 690.159 885.522C688.702 875.786 676.864 874.316 664.844 874.316C652.823 874.316 642.442 871.745 630.422 863.662C618.402 855.579 676.864 857.416 683.056 857.967C684.984 858.138 694.311 858.453 707.539 858.898L707.54 858.898C736.796 859.883 785.133 861.511 814.731 863.662C849.116 866.16 848.97 870.091 844.599 871.745C836.525 875.663 816.333 884.64 800.161 889.196C783.988 893.752 803.136 895.136 814.731 895.258C849.031 895.626 920.471 896.14 931.836 895.258C943.2 894.377 955.148 890.849 959.701 889.196C955.621 873.324 919.512 868.622 901.968 868.254C901.24 858.128 916.552 856.326 934.346 854.231L934.348 854.231C938.828 853.704 943.466 853.158 948.045 852.456C962.797 850.194 1006.07 851.018 1046.01 851.778L1046.01 851.778C1067.71 852.191 1088.42 852.585 1103.03 852.456C1136.25 852.162 1158.76 857.11 1165.86 859.62C1172.27 858.004 1175.33 852.088 1176.06 849.333C1143.28 844.924 1072.47 835.996 1051.49 835.555C1030.51 835.114 989.326 815.287 971.357 805.428C898.799 766.19 815.338 771.321 782.677 778.791C781.657 758.805 769.746 747.93 763.918 744.99C745.852 737.495 725.43 741.867 717.477 744.99V750.501C755.541 770.709 740.06 815.899 736.236 819.39C734.506 820.969 731.433 819.314 728.706 817.845C725.404 816.067 722.607 814.561 723.305 819.39C724.325 826.444 717.781 829.677 714.381 830.412C697.623 834.754 684.239 819.066 678.941 812.856L678.941 812.856C677.963 811.71 677.261 810.887 676.864 810.572C674.824 808.955 677.714 798.019 679.413 792.753C683.202 802.158 691.312 798.386 694.894 795.325C702.324 792.973 700.418 780.873 698.536 775.117C667.357 716.774 610.874 703.535 586.531 704.209L581.613 695.391L589.627 689.145C599.534 658.136 664.844 674.816 669.032 702.923C692.344 699.983 708.978 725.089 714.381 738.01C722.249 728.016 740.85 723.803 749.167 722.946C727.749 722.946 717.052 709.597 714.381 702.923C719.772 651.78 689.673 624.666 673.95 617.501C628.492 538.583 538.693 543.96 499.476 556.512C454.455 466.278 363.673 506.668 323.909 538.142C300.889 494.495 258.952 475.01 240.861 470.724C247.053 469.254 258.527 458.783 260.53 453.823C262.133 449.855 256.584 445.924 253.61 444.454C236.126 454.925 207.168 459.334 187.499 453.823ZM-32.8697 544.204L-14.2931 537.04C-61.8272 533.55 -125.206 532.962 -136.133 533.55C-136.923 537.101 -132.163 544.204 -106.812 544.204H-32.8697ZM29.233 759.687C34.5753 756.442 46.6804 749.584 52.3626 748.114C58.0448 746.644 76.7064 747.502 85.3269 748.114C96.4364 727.111 132.897 688.521 189.865 702.189C198.729 668.939 241.989 610.338 344.124 641.935C349.466 633.852 369.439 622.536 406.592 641.935C443.745 661.333 442.227 687.125 436.824 697.596C456.19 713.823 489.749 755.278 469.06 791.284C491.279 787.059 537.174 792.827 543.002 849.701H534.078C525.518 833.474 499.292 803.004 462.868 810.94C451.455 814.492 430.268 814.247 436.824 784.854C441.62 759.932 433.546 711.006 362.882 714.68C359.24 697.29 338.951 664.677 286.937 673.348C234.923 682.018 216.577 709.292 213.906 721.845C182.338 715.905 114.576 716.26 96.0721 765.198L29.233 759.687Z" fill="#78D8F1"/>
<path d="M833.936 120.135C850.638 84.4973 880.714 87.2041 915.303 78.1377C977.772 -9.96771 1105.95 54.7468 1102.42 128.919C1144.65 130.933 1167.86 170.327 1173.47 190.909C1177.04 186.124 1196.08 183.672 1205.15 183.044C1243.61 148.98 1296.16 190.509 1317.63 215.532C1363.36 222.669 1365.05 267.298 1360.18 288.72C1391.34 301.056 1400.66 332.9 1401.42 347.28C1443.21 350.21 1477.28 365.91 1489.09 373.394C1521.07 351.479 1551.73 381.014 1563.07 398.521C1623.2 404.335 1628.02 453.635 1622.92 477.558C1635.85 476.031 1648.46 485.027 1653.15 489.715C1664.17 494.527 1659.35 532.874 1655.56 551.446C1701.1 562.726 1705.72 595.138 1702.33 609.934C1733.06 628.545 1745.21 661.093 1747.45 675.041C1813.92 674.46 1813.07 712.773 1804.34 732.003C1836.11 728.696 1835.21 735.484 1830.78 739.291C1818.09 738.686 1748.4 739.381 1744.58 735.181C1741.53 731.82 1747.96 729.984 1751.55 729.485C1746.21 729.23 1736.6 724.754 1732.46 722.547C1694.31 724.88 1637.88 716.307 1614.43 711.729L1538.59 708.112L1398.1 701.412C1269.7 688.994 1124.4 695.56 1067.8 700.396C1103.08 702.078 1111.06 710.719 1110.64 714.829C1030.95 719.345 865.181 727.536 839.624 724.174C814.066 720.812 802.952 706.686 800.59 700.044C776.318 692.189 676.28 696.906 629.295 700.247C594.414 698.584 556.781 691.208 542.324 687.728L336.513 677.914C322.079 677.225 294.038 681.469 281.822 683.677C274.883 682.9 258.786 681.507 249.915 682.156C241.043 682.804 230.669 676.103 226.591 672.672C227.445 654.763 243.154 657.723 250.902 661.441L314.081 653.236C334.493 624.071 360.438 605.718 370.86 600.188C431.492 567.449 485.219 590.795 504.503 606.56C540.091 534.419 616.896 535.403 609.133 529.675C602.922 525.092 597.212 517.497 595.133 514.273C536.436 509.241 418.584 497.549 416.752 491.032C414.919 484.515 437.583 484.882 449.144 485.879C447.669 471.879 536.141 477.973 580.561 482.77C579.24 443.059 607.888 424.69 622.377 420.469C645.7 335.855 705.073 315.469 731.845 315.852C731.084 275.632 758.705 258.196 778.307 240.379C793.989 226.124 830.154 220.526 846.276 219.509C811.697 167.57 813.022 164.742 833.195 121.717L833.936 120.135Z" fill="white"/>
<path d="M1102.61 131.941C1103.27 118.042 1095.98 97.6919 1091.89 89.9064C1079.31 128.955 1038.06 137.346 1019.37 136.009C1028.68 142.882 1033.52 148.292 1034.77 150.138C1067.84 151.715 1088.97 137.095 1102.61 131.941Z" fill="#B5EDF8"/>
<path d="M961.936 83.3774C947.808 76.2742 925.55 76.2844 916.187 77.1774L913.427 78.8875C937.412 81.5047 962.129 89.8607 970.153 93.6479C969.975 88.9512 964.601 84.844 961.936 83.3774Z" fill="#B5EDF8"/>
<path opacity="0.6" fill-rule="evenodd" clip-rule="evenodd" d="M1173.46 190.906C1172.59 188.074 1170.48 181.857 1168.98 179.642L1160.97 185.957C1146.32 173.761 1105.92 155.739 1061.58 181.218C1059.61 183.788 1054.81 189.797 1051.29 193.263C1051.05 193.5 1050.73 193.801 1050.34 194.169C1043.58 200.535 1015.61 226.864 1014.32 283.945C1004.31 284.361 981.024 286.209 967.971 290.274C966.348 288.02 960.449 282.984 949.834 280.87C940 267.062 906.525 245.988 851.296 272.153C796.068 298.318 771.822 329.477 766.603 341.785C755.802 343.559 732.456 354.221 725.473 382.687C697.476 393.965 645.942 426.915 663.784 468.486C660.034 481.59 661.924 515.915 699.489 548.38C697.929 551.822 694.791 560.513 694.714 567.742C685.423 560.099 660.201 547.846 633.636 559.974C622.366 566.915 601.191 584.48 606.65 599.206C584.307 600.764 538.34 611.788 533.215 643.423C531.518 642.728 526.636 641.636 520.686 642.826C509.234 631.341 474.688 609.556 428.116 614.301C418.183 609.585 386.985 609.56 341.658 647.181C337.368 650.548 335.453 656.529 362.118 653.514L380.828 654.407C383.635 654.54 279.934 667.009 227.733 673.226C229.048 676.079 235.487 681.967 250.722 682.694L282.296 684.199C294.011 681.968 320.482 677.649 332.643 678.229L462.11 684.402L541.962 688.21C562.462 692.537 608.492 701.027 628.615 700.379C638.787 700.052 651.966 699.238 665.74 698.388C686.028 697.135 707.606 695.803 722.763 695.827L724.846 695.831L724.847 695.831L724.847 695.831L724.849 695.831C750.411 695.87 789.826 695.93 799.107 699.468C803.399 708.937 820.951 727.333 856.819 725.159L961.443 722.111L1111.47 715.033C1111 710.713 1101.86 701.682 1068.98 700.115L1189.61 694.984C1213.46 694.503 1266.78 693.875 1289.22 695.213L1295.2 695.569C1326.56 697.436 1391.82 701.321 1400.23 702.348C1407.42 703.227 1546.22 709.534 1614.72 712.577C1632.9 716.458 1681.86 723.916 1732.28 722.704C1735.8 724.937 1744.58 729.485 1751.53 729.817C1745.33 731.14 1736.58 734.461 1751.18 737.167C1765.79 739.873 1810.61 740.838 1831.2 740.983C1836.1 736.473 1837.64 728.096 1804.57 730.671C1813.32 712.113 1814.16 674.904 1747.47 674.537C1744.08 658.972 1730.24 624.289 1701.99 610.083C1705.82 595.364 1701.95 563.132 1655.87 551.96C1659.89 534.404 1665.04 497.278 1653.5 489.227C1648.53 484.692 1635.45 475.943 1622.93 477.221C1629.67 460.073 1622.96 423.911 1542.28 416.447C1532.48 412.464 1507.03 406.328 1483.65 413.651C1474.65 397.483 1441.42 366.564 1380.47 372.231C1304.29 379.313 1232.8 284.318 1295.08 252.796C1303.92 250.148 1327.96 253.058 1353.45 285.885C1355.2 284.239 1356.85 278.346 1349.45 267.946C1340.19 254.947 1306.91 219.036 1274.85 238.102C1260.82 226.94 1224.37 211.885 1190.83 240.96C1184.71 248.872 1173.57 269.471 1178.02 288.57L1177.24 304.774C1161.72 311.904 1130.44 332.681 1129.46 358.754C1102.14 359.349 1042.91 371.102 1024.55 413.358C1006.88 410.562 967.253 420.504 950.092 482.641C966.179 480.004 1002.9 476.988 1021.09 486.026C1043.82 497.324 1066.56 512.138 1075.97 553.441C1075.45 557.49 1066.79 553.003 1055.47 537.561C1050.89 531.315 1021.48 528.306 1007.16 539.276C1006.44 539.832 1005.7 540.399 1004.96 540.976C987.222 554.644 962.587 573.634 917.622 563.135C911.931 572.463 894.523 592.473 870.422 597.888C841.236 604.444 840.945 604.835 836.89 610.293L836.719 610.522C836.643 610.625 836.565 610.73 836.486 610.836C836.06 610.816 835.471 610.717 834.727 610.592L834.726 610.592C825.827 609.1 794.898 603.916 760.264 685.393C754.958 676.099 751.318 650.375 779.201 621.834C807.084 593.293 829.672 588.689 837.481 589.954C839.315 571.401 854.003 535.623 898.086 540.939C898.577 528.294 903.816 501.531 920.84 495.645C914.854 483.081 912.971 449.293 953.334 414.65C949.023 405.57 946.421 381.938 970.504 360.048C994.587 338.157 1018.67 342.587 1027.69 347.538C1045.52 319.032 1096 270.36 1155.36 303.731C1159.8 305.338 1165.21 304.301 1151.29 287.296C1145.61 269.333 1142.11 224.907 1173.46 190.906ZM822.705 180.019C830.309 196.12 846.416 220.016 846.416 220.016C857.744 216.537 887.346 209.288 917.892 220.389C917.892 220.389 934.834 237.292 951.875 238.083C968.915 238.874 998.83 219.694 991.653 190.419C991.319 191.194 990.988 191.974 990.656 192.756L990.65 192.771C984.996 206.099 979.037 220.145 952.79 218.893C944.856 216.729 930.252 208.387 935.905 179.724C933.02 174.675 921.765 167.262 899.821 178.003C892.884 183.03 822.705 180.019 822.705 180.019ZM1090.24 651.066C1101.94 644.48 1128.84 636.432 1142.87 656.925C1151.77 648.196 1175.13 632.075 1197.38 637.423C1192.86 619.794 1195.12 578.11 1240.28 552.402C1239.19 528.463 1253.12 479.746 1317.57 476.39C1317.83 476.195 1318.19 475.889 1318.66 475.495C1325.76 469.532 1356.87 443.378 1409.37 475.409C1420.17 469.004 1452.41 463.397 1494.97 492.216C1497.82 493.245 1503.62 493.299 1504.01 485.28C1493.42 473.166 1463.26 449.314 1427.29 450.814C1425.11 435.752 1412.99 410.885 1381.98 431.91C1368.42 416.529 1329.55 390.967 1282.48 411.761C1234 433.179 1229.57 465.339 1227.39 481.14C1226.93 484.514 1226.56 487.143 1225.9 488.761C1223.17 490.399 1220.35 491.842 1217.51 493.3C1205.27 499.574 1192.49 506.119 1183.77 529.616C1182.92 533.37 1182.15 543.737 1185.9 555.167C1160.22 559.97 1133.26 588.823 1144.17 629.528L1139.24 634.65C1132.14 629.177 1114.35 620.069 1100.07 627.425C1094.15 629.821 1083.9 637.905 1090.24 651.066Z" fill="url(#paint0_linear_194_380)"/>
<mask id="mask0_194_380" style="mask-type:alpha" maskUnits="userSpaceOnUse" x="465" y="733" width="313" height="32">
<path d="M475.783 738.836C495.13 737.615 597.335 736.595 646.02 736.238C681.277 727.203 704.913 743.693 739.571 740.699C774.541 737.678 784.165 753.541 773.808 753.047C752.425 752.028 674.402 759.023 653.019 758.003C635.913 757.188 628.517 766.211 588.424 764.299C566.245 765.921 504.547 753.602 489.974 750.228C475.401 746.854 451.6 740.361 475.783 738.836Z" fill="white"/>
</mask>
<g mask="url(#mask0_194_380)">
<path d="M475.783 738.836C495.13 737.615 597.335 736.595 646.02 736.238C681.277 727.203 704.913 743.693 739.571 740.699C774.541 737.678 784.165 753.541 773.808 753.047C752.425 752.028 674.402 759.023 653.019 758.003C635.913 757.188 628.517 766.211 588.424 764.299C566.245 765.921 504.547 753.602 489.974 750.228C475.401 746.854 451.6 740.361 475.783 738.836Z" fill="white"/>
<path d="M466.275 744.545C459.988 741.566 469.15 740.44 474.517 740.25C511.047 738.241 567.548 746.249 591.232 750.504C623.975 752.065 646.759 737.748 670.146 738.863C693.534 739.978 715.458 743.703 751.001 742.719C779.435 741.931 780.773 750.389 777.888 754.717C765.058 754.105 684.443 757.404 645.739 759.131C633.215 763.355 605.943 765.046 593.872 765.364C544.424 763.006 474.135 748.268 466.275 744.545Z" fill="#D8E4CA"/>
</g>
<path d="M615.37 511.219C602.006 510.581 475.904 500.55 471.895 500.358C475.458 504.279 555.071 511.692 594.432 514.908C599.447 522.113 606.81 526.884 609.864 528.369C628.473 520.148 652.365 526.601 661.985 530.855C658.868 511.953 628.735 511.856 615.37 511.219Z" fill="#A0DEF4"/>
<path d="M1392.68 727.276C1444.24 721.698 1478.53 728.022 1489.23 731.881C1483.32 735.081 1450.99 736.754 1435.57 737.191C1441.67 739.156 1463.04 744.663 1499.71 750.965C1536.38 757.268 1545.5 762.079 1545.48 763.696C1539.51 764.863 1510.87 767.538 1444.1 768.908C1377.33 770.278 1350.64 762.554 1345.64 758.52C1326.48 756.657 1283.92 752.429 1267 750.417C1245.86 747.902 1250.57 736.908 1273.45 734.483C1291.76 732.544 1360.56 728.87 1392.68 727.276Z" fill="white"/>
<path d="M1400.32 735.508C1412.92 729.679 1463.74 730.495 1487.57 731.632C1479.88 735.551 1449.81 736.975 1435.74 737.197L1456.2 743.53L1414.1 741.523C1407.68 741.217 1402.24 737.385 1400.32 735.508Z" fill="#AFD0D0"/>
<path d="M1341.93 738.081C1321.08 737.087 1275.04 741.142 1254.62 743.294C1241.43 750.166 1310.66 757.129 1346.93 759.751C1395.48 775.235 1499.17 769.372 1544.94 764.505C1545.73 762.087 1543.15 757.053 1526.58 756.263C1505.87 755.275 1470.1 760.937 1465.42 760.714C1440.07 753.075 1406.75 755.237 1393.26 757.272C1332.72 757.064 1333.82 744.392 1341.93 738.081Z" fill="#AFD0D0"/>
<path d="M526.378 558.864C629.972 554.221 684.976 607.229 699.528 634.313C710.775 581.499 775.744 593.686 781.664 616.176C869.275 515.19 954.321 561.524 985.892 597.314C1099.74 532.286 1215.73 585.832 1221.65 652.092C1253.59 636.844 1267.89 669.519 1258.94 676.391C1430.01 632.862 1471.3 713.39 1470.56 759.095C1604.94 751.55 1644.53 885.17 1603.02 930.915C1627 921.04 1686.57 966.58 1686.57 1039.13C1661.86 1173.32 1433.74 1249.14 1319.93 1158.11C1327.33 1168.75 1247.13 1196.83 1187.94 1196.83C1119.8 1196.83 1037.45 1196.83 985.892 1158.11C967.666 1196.83 880.23 1196.83 857.53 1158.11C778.19 1203.16 500.593 1169.05 454.899 1111.68C446.266 1125.46 408.33 1137.85 364.1 1137.85C309.045 1137.85 275.78 1113.13 265.913 1098.62C139.233 1135.18 79.4441 1074.19 65.3849 1039.13C-28.5211 1039.13 -39.4416 973.476 -18.2292 931.641C-51.2205 911.31 -34.4076 860.483 -2.46044 860.483C-18.2292 730.076 98.1893 714.115 159.359 730.076C161.727 688.869 202.277 670.829 222.256 666.959C222.256 652.45 230.395 608.921 288.112 588.608C334.285 572.358 371.48 603.601 384.306 621.255C388.499 602.392 422.784 563.507 526.378 558.864Z" fill="white"/>
<path opacity="0.4" fill-rule="evenodd" clip-rule="evenodd" d="M34.2312 856.457C58.7323 847.726 82.272 839.338 135.39 842.557C191.457 845.955 211.482 863.147 222.734 872.807C225.804 875.442 228.22 877.517 230.537 878.598C232.27 879.407 235.596 880.512 239.921 881.949C262.577 889.477 312.649 906.115 304.781 936.984C295.41 973.745 319.197 1029.25 369.654 1014.83C410.019 1003.3 461.437 1003.78 482.1 1005.46C486.425 1003.54 491.163 1001.37 496.238 999.04C526.688 985.08 569.318 965.537 608.242 960.77C623.038 958.958 645.931 960.815 668.97 962.684C700.927 965.276 733.166 967.891 744.475 960.77C747.053 959.147 750.035 957.082 753.438 954.725C775.733 939.284 816.107 911.321 879.267 913.197C928.421 914.657 963.117 939.447 988.236 957.395C1000.32 966.029 1010.19 973.079 1018.38 975.186C1024.48 976.755 1031.13 979.884 1039.3 983.726C1064.9 995.772 1105.4 1014.83 1190.66 1014.83C1280.61 1014.83 1318.96 962.933 1326.89 936.984C1333.14 895.897 1356.73 817.185 1401.13 831.024C1439.6 843.014 1461.45 831.459 1477 823.237C1483.88 819.596 1489.53 816.608 1494.84 816.608C1496.47 816.608 1498.53 816.531 1500.93 816.44C1524.02 815.572 1579.76 813.475 1613.05 866.344C1619.86 877.156 1620.98 913.053 1603.68 929.775C1622.9 926.892 1664.52 936.695 1682.97 1010.51C1685.85 1017.23 1689.89 1039.48 1682.97 1057.36C1674.32 1079.7 1638.28 1148.18 1540.97 1182.06C1443.66 1215.94 1351.4 1187.83 1322.57 1159.71C1287.96 1182.78 1256.97 1199.43 1148.13 1197.2C1035.68 1194.89 994.116 1170.29 986.667 1158.27C983.544 1168.12 964.611 1187.83 919.632 1187.83C887.915 1187.83 859.565 1168.12 857.642 1158.27C838.421 1169.32 770.857 1188.11 654.374 1174.85C508.77 1158.27 466.24 1127.28 454.709 1111.42C449.661 1122.23 418.957 1140.4 348.029 1138.09C329.288 1136.65 280.271 1125.12 265.857 1098.45C218.524 1115.02 109.44 1128 64.0301 1039.34C45.19 1040.21 17.2167 1037.13 -2.52618 1022.04C-26.0901 1004.03 -38.5412 970.766 -18.1423 931.938C-12.8559 925.691 0.311602 913.197 16.4566 913.197C36.6379 913.197 28.709 896.618 22.9425 885.085C14.6532 868.507 13.5719 863.734 28.709 858.415C30.5636 857.764 32.4001 857.109 34.2312 856.457ZM70.5162 937.705C69.3629 951.544 78.2048 949.718 82.77 947.075C87.0944 943.952 99.9239 936.696 116.647 932.659C137.55 927.613 162.058 930.497 192.332 942.75C217.717 953.025 213.201 962.793 211.08 967.38C210.672 968.264 210.352 968.955 210.352 969.42C210.352 970.362 209.66 970.766 208.728 971.309C206.806 972.429 203.865 974.144 203.865 982.395C203.865 992.198 209.631 992.727 212.514 991.765C222.318 990.036 230.054 993.447 232.697 995.37C234.249 996.367 235.793 997.374 237.321 998.37C255.669 1010.33 271.843 1020.88 274.504 998.253C277.387 973.745 248.555 973.745 239.184 977.349C229.814 980.953 226.931 972.304 229.814 972.304C232.697 972.304 238.464 957.167 224.768 937.705C211.073 918.243 176.474 900.943 137.55 900.943C98.6264 900.943 71.9578 920.405 70.5162 937.705ZM761.772 1029.97C757.159 1027.09 766.578 1017.23 771.863 1012.67C767.537 1003.3 774.027 998.253 786.281 995.37C796.05 993.071 807.194 994.896 818.982 996.826L818.983 996.826L818.984 996.826L818.989 996.827C821.984 997.317 825.021 997.815 828.088 998.253C843.225 1000.42 850.433 993.928 836.738 980.233C823.042 966.537 838.9 949.958 882.87 942.75C926.839 935.542 945.58 975.187 948.463 983.837C950.77 990.756 953.749 991.525 954.951 991.045C980.179 980.953 992.433 991.765 996.037 1001.14C998.92 1008.63 1003.49 1010.51 1005.41 1010.51C1018.04 1008.4 1027.26 1019.96 1030.4 1023.9L1030.54 1024.08L1030.64 1024.2C1033.52 1027.81 1034.24 1033.57 1032.08 1035.01C1030.35 1036.17 1028.47 1034.53 1027.75 1033.57C1022.19 1023.83 1011.92 1022.82 1004.73 1022.11L1004.3 1022.07L1003.97 1022.04C999.424 1021.59 998.316 1018.27 997.397 1015.52C996.857 1013.9 996.383 1012.48 995.316 1011.95C993.009 1010.79 982.341 1006.66 977.296 1004.74C964.9 1002.97 952.504 1009.42 944.858 1013.39C943.168 1014.27 941.709 1015.03 940.534 1015.55C934.047 1018.44 909.54 1016.27 890.799 1012.67C883.789 1011.32 877.284 1007.86 871.547 1004.8C861.945 999.685 854.494 995.716 850.433 1004.74C845.243 1016.27 831.452 1017.23 825.205 1016.27C814.324 1015.24 809.402 1018.3 801.337 1023.31C798.182 1025.28 794.546 1027.54 789.885 1029.97C774.389 1038.05 768.338 1034.17 762.904 1030.69C762.763 1030.6 762.622 1030.51 762.482 1030.42C762.388 1030.36 762.294 1030.3 762.2 1030.24C762.057 1030.15 761.915 1030.06 761.772 1029.97ZM1382.39 1034.29C1365.09 1043.42 1326.31 1056.21 1309.59 1034.29C1307.19 1028.29 1308.43 1014.54 1332.65 1007.62C1348.98 1002.96 1360.27 1005.42 1370.04 1007.55C1378.39 1009.37 1385.62 1010.94 1393.92 1007.62C1396.81 1006.9 1401.42 1003.3 1396.81 994.649C1391.04 983.837 1407.62 974.466 1414.11 975.908C1414.67 976.034 1415.27 976.182 1415.9 976.336C1422.4 977.94 1431.41 980.162 1431.41 964.375C1431.41 947.075 1455.91 933.38 1473.93 931.217C1474.44 931.156 1474.95 931.095 1475.46 931.033C1493.05 928.907 1511.98 926.619 1531.6 942.03C1536.16 947.075 1546.3 958.608 1550.34 964.375C1552.17 966.998 1555.06 969.334 1557.85 971.593C1562.73 975.541 1567.31 979.251 1565.48 983.837C1562.59 991.045 1547.46 986.72 1540.97 979.512C1539.58 977.97 1538.36 975.472 1536.92 972.532C1531.63 961.728 1523.43 944.963 1493.39 947.796C1456.29 951.297 1452.5 971.119 1451.66 975.556L1451.62 975.737C1451.61 975.798 1451.6 975.855 1451.59 975.908C1451.51 976.274 1451.46 976.693 1451.39 977.152V977.153C1450.83 981.206 1449.83 988.382 1434.29 990.324C1416.99 992.486 1412.66 993.928 1411.22 1007.62C1410.07 1018.58 1391.52 1029.97 1382.39 1034.29Z" fill="#AFF5FA"/>
<defs>
<linearGradient id="paint0_linear_194_380" x1="1042.91" y1="211.904" x2="1430.93" y2="604.156" gradientUnits="userSpaceOnUse">
<stop stop-color="#89E4F5"/>
<stop offset="1" stop-color="#61C8EE"/>
</linearGradient>
</defs>
</svg>
