<svg width="365" height="377" viewBox="0 0 365 377" fill="none" xmlns="http://www.w3.org/2000/svg">
<path d="M0 375C30 324 24.0087 290.522 51.4999 279L86.3269 329.5C86.3269 329.5 91.9376 356.589 76.5 375H0Z" fill="#D7DADF"/>
<path d="M364.821 375C334.821 324 340.812 290.522 313.321 279L278.494 329.5C278.494 329.5 272.883 356.589 288.321 375H364.821Z" fill="#D7DADF"/>
<path d="M72.5 263.791C155.001 253.212 201.898 253.596 286.5 263.791V375H72.5V263.791Z" fill="#D7DADF"/>
<path d="M178.068 356.533C178.853 357.337 180.147 357.337 180.932 356.533L270.583 264.647C271.819 263.38 270.921 261.25 269.151 261.25H89.8488C88.0789 261.25 87.1813 263.38 88.4173 264.647L178.068 356.533Z" fill="#308AC1"/>
<rect x="29.5" y="96" width="22" height="86" rx="4" fill="#FFA659"/>
<rect x="306.5" y="96" width="22" height="86" rx="4" fill="#FFA659"/>
<circle cx="179" cy="141.5" r="136.5" fill="black" stroke="#FFFDFD" stroke-width="10"/>
<path d="M67.5 243.792C67.5 241.297 69.788 239.416 72.245 239.853C155.271 254.607 203.296 254.071 285.777 239.824C288.228 239.401 290.5 241.28 290.5 243.766V269.785C290.5 271.745 289.053 273.421 287.118 273.733C202.859 287.331 154.345 287.51 70.8671 273.743C68.939 273.425 67.5 271.752 67.5 269.798V243.792Z" fill="white"/>
<path d="M271.106 137C276.846 137 281.555 132.334 280.971 126.623C279.795 115.126 276.671 103.886 271.708 93.3921C265.261 79.7588 255.87 67.7248 244.213 58.1568C232.555 48.5887 218.922 41.7247 204.293 38.059C193.033 35.2375 181.399 34.3649 169.893 35.4534C164.178 35.9941 160.52 41.522 161.639 47.1525C162.759 52.7831 168.235 56.3693 173.963 55.9779C182.433 55.3991 190.963 56.1505 199.24 58.2245C210.887 61.1431 221.742 66.6081 231.023 74.2261C240.305 81.844 247.781 91.4253 252.915 102.28C256.563 109.993 258.963 118.213 260.047 126.634C260.78 132.328 265.365 137 271.106 137Z" fill="url(#paint0_linear_3744_51)"/>
<path d="M87.2042 166.686C84.5173 167.537 83.0171 170.411 84.0017 173.052C88.8033 185.931 96.165 197.724 105.661 207.71C115.156 217.696 126.564 225.642 139.185 231.086C141.773 232.202 144.719 230.848 145.704 228.207C146.69 225.567 145.341 222.64 142.759 221.51C131.587 216.617 121.485 209.54 113.057 200.677C104.629 191.813 98.0693 181.368 93.7451 169.964C92.7458 167.329 89.8911 165.834 87.2042 166.686Z" fill="url(#paint1_linear_3744_51)"/>
<path d="M179.5 357V375" stroke="black" stroke-width="4" stroke-linecap="round"/>
<path fill-rule="evenodd" clip-rule="evenodd" d="M288.987 264.001C303.219 264.053 309.917 267.473 315.735 278.581C316.566 280.169 315.375 282.025 313.583 282.025C312.57 282.025 311.655 282.658 311.285 283.6C297.053 319.848 292.483 342.701 290.334 375H282.209C267.678 336.619 267.179 309.842 285.391 266.416C285.998 264.97 287.419 263.995 288.987 264.001Z" fill="white"/>
<path d="M75.5182 264.001C61.2863 264.053 54.5878 267.473 48.7701 278.581C47.9386 280.169 49.1302 282.025 50.9225 282.025C51.9346 282.025 52.8504 282.658 53.2203 283.6C67.4519 319.848 72.0221 342.701 74.1705 375H82.2955C96.8272 336.619 97.3264 309.842 79.1139 266.416C78.5074 264.97 77.0862 263.995 75.5182 264.001Z" fill="white"/>
<defs>
<linearGradient id="paint0_linear_3744_51" x1="179.5" y1="35" x2="255" y2="144.5" gradientUnits="userSpaceOnUse">
<stop stop-color="#76D1FF"/>
<stop offset="1" stop-color="white" stop-opacity="0"/>
</linearGradient>
<linearGradient id="paint1_linear_3744_51" x1="138.547" y1="227.701" x2="88.7137" y2="163.211" gradientUnits="userSpaceOnUse">
<stop stop-color="white" stop-opacity="0"/>
<stop offset="1" stop-color="#FCD573"/>
</linearGradient>
</defs>
</svg>
