<svg width="262" height="255" viewBox="0 0 262 255" fill="none" xmlns="http://www.w3.org/2000/svg">
<g clip-path="url(#clip0_15_2)">
<path d="M37.0981 76.9141H27.0482C25.4623 76.9141 24.1768 78.1996 24.1768 79.7855V135.778C24.1768 137.364 25.4623 138.65 27.0482 138.65H37.0981C38.684 138.65 39.9696 137.364 39.9696 135.778L35.5 108.5L39.9696 79.7855C39.9696 78.1996 38.684 76.9141 37.0981 76.9141Z" fill="#FFA659"/>
<path d="M235.943 76.9141H225.893C224.308 76.9141 223.022 78.1996 223.022 79.7855L229 108L223.022 135.778C223.022 137.364 224.308 138.65 225.893 138.65H235.943C237.529 138.65 238.815 137.364 238.815 135.778V79.7855C238.815 78.1996 237.529 76.9141 235.943 76.9141Z" fill="#FFA659"/>
<path d="M131.496 207.563C185.613 207.563 229.483 163.693 229.483 109.576C229.483 55.4592 185.613 11.5889 131.496 11.5889C77.3792 11.5889 33.5089 55.4592 33.5089 109.576C33.5089 163.693 77.3792 207.563 131.496 207.563Z" stroke="#FFFDFD" stroke-width="7.17854"/>
<path d="M0 252.611C21.5356 227.247 17.2348 210.597 36.9694 204.867L61.9701 229.982C61.9701 229.982 65.9978 243.454 54.9159 252.611H0Z" fill="#D7DADF"/>
<path d="M261.888 252.611C240.353 227.247 244.653 210.597 224.919 204.867L199.918 229.982C199.918 229.982 195.89 243.454 206.972 252.611H261.888Z" fill="#D7DADF"/>
<path d="M52.0444 197.303C111.268 192.041 144.933 192.233 205.665 197.303V252.611H52.0444V197.303Z" fill="#D7DADF"/>
<path d="M128.024 243.566C128.521 243.919 129.188 243.919 129.686 243.566L192.948 198.645C194.088 197.836 193.515 196.039 192.116 196.039H65.5934C64.1947 196.039 63.6217 197.836 64.7622 198.645L128.024 243.566Z" fill="#308AC1"/>
<path d="M207.173 197.406C217.119 197.402 221.996 198.939 226.087 203.94C226.905 204.941 226.139 206.371 224.847 206.371C224.263 206.371 223.719 206.692 223.431 207.2C213.235 225.202 209.958 236.561 208.417 252.611H202.585C192.18 233.571 191.797 220.273 204.771 198.771C205.276 197.933 206.194 197.407 207.173 197.406Z" fill="white"/>
<path d="M54.4884 197.406C44.5426 197.402 39.6652 198.939 35.5744 203.94C34.7563 204.941 35.5224 206.371 36.8146 206.371C37.3984 206.371 37.9429 206.692 38.2306 207.2C48.4265 225.202 51.7033 236.561 53.2443 252.611H59.0763C69.4819 233.571 69.8643 220.273 56.8908 198.771C56.3851 197.933 55.4672 197.407 54.4884 197.406Z" fill="white"/>
<path d="M128.855 243.659V252.611" stroke="black" stroke-width="2.87142" stroke-linecap="round"/>
<path d="M51.4552 183.008C51.4552 181.216 53.0977 179.866 54.8614 180.18C114.462 190.771 148.937 190.386 208.146 180.159C209.905 179.855 211.537 181.204 211.537 182.989V201.667C211.537 203.074 210.498 204.277 209.109 204.501C148.623 214.262 113.797 214.39 53.8723 204.508C52.4882 204.28 51.4552 203.079 51.4552 201.676V183.008Z" fill="white"/>
<path d="M108 5.76435C108 3.85298 109.352 2.20315 111.233 1.86598C125.768 -0.738969 135.169 -0.514359 149.699 1.90432C151.61 2.22255 153 3.886 153 5.82396V11.2493C153 13.7307 150.764 15.6084 148.311 15.2321C135.054 13.198 125.971 13.1125 112.72 15.1989C110.257 15.5868 108 13.7063 108 11.2124V5.76435Z" fill="#E78C3D"/>
</g>
<defs>
<clipPath id="clip0_15_2">
<rect width="262" height="255" fill="white"/>
</clipPath>
</defs>
</svg>
