<svg width="929" height="129" viewBox="0 0 929 129" fill="none" xmlns="http://www.w3.org/2000/svg">
<path d="M35.9574 128.708H0V37.5889L5.72049 16.75L101.334 23.6963L111.55 31.4598L120.539 23.6963H166.303L183.464 31.4598L194.905 23.6963H335.057L344.455 31.4598L357.939 23.6963H405.746L426.176 31.4598V23.6963H668.888L677.061 31.4598L731.405 39.2233L741.62 35.1373L755.104 23.6963L766.954 31.4598H790.653L796.374 23.6963H836.826V46.9869L924.676 31.4598L928.353 43.718L884.224 61.6967L921.407 73.5463V99.2885L836.826 128.708L827.019 120.536L817.213 128.708H750.61L741.62 109.095H681.147L681.964 128.708H653.361L650.093 120.536L647.641 128.708H626.393H619.856H593.705H586.35H557.339V86.2131L536.909 114.815V128.708H426.176L421.273 120.536L413.101 128.708H357.939L350.176 120.536L344.455 128.708H255.788L253.336 120.536L244.755 128.708H205.938L198.174 120.536L194.905 128.708H96.8397L94.388 124.213L92.345 128.708H60.4737V89.0733L35.9574 99.6971V128.708Z" fill="#34274A"/>
<path d="M35.5486 113.184H6.12891V15.9356L15.1182 4.08606H39.6346H99.6997L111.549 15.9356L130.345 4.08606H163.442L183.464 15.9356L194.905 4.08606H344.046L352.627 15.9356L362.025 4.08606H406.154L426.176 15.9356V4.08606H668.071L737.534 31.8713V4.08606H762.459L773.491 15.9356H801.685L809.449 4.08606H841.729V21.2475L912.826 0L924.676 31.4627L884.224 46.1725L924.676 58.0221V84.1729L836.825 113.184L827.019 105.012L817.212 113.184H750.609L741.62 93.5708H681.146V113.184H653.361L650.092 105.012L647.641 113.184H626.393V49.0328H618.63V113.184H593.705V49.0328H585.124V113.184H557.339V43.7209L536.908 74.7749V113.184H426.176L421.273 105.012L413.101 113.184H357.939L350.175 105.012L344.455 113.184H255.787L253.336 105.012L244.755 113.184H205.937L190.41 105.012L194.905 113.184H96.8395L94.3879 108.689L92.3448 113.184H71.0973V69.8717L35.5486 84.5815V113.184Z" fill="#83404A"/>
<path fill-rule="evenodd" clip-rule="evenodd" d="M516.887 65.9322V96.4306H531.596V65.9322L565.102 16.3438L483.381 16.3438L516.887 65.9322ZM524.429 49.0322H524.054L511.873 31.004L536.61 31.004L524.429 49.0322Z" fill="#EED394"/>
<path fill-rule="evenodd" clip-rule="evenodd" d="M653.361 31.0536V96.4306H638.651V31.0536L619.038 31.0536V96.4306H604.328V31.0536L585.532 31.0536V96.4306H570.822V31.0536V16.3438L585.532 16.3438H604.328H619.038H638.651H653.361V31.0536Z" fill="#EED394"/>
<path fill-rule="evenodd" clip-rule="evenodd" d="M450.692 16.3438H435.982V81.7207V96.4306H450.692H508.714V81.7207L450.692 81.7207V16.3438Z" fill="#EED394"/>
<path fill-rule="evenodd" clip-rule="evenodd" d="M16.75 16.3438H31.4598V57.5408L83.7614 39.5155V16.3438H98.4712V96.4306H83.7614V55.0744L31.4598 73.0997V96.4306H16.75V16.3438Z" fill="#EED394"/>
<path fill-rule="evenodd" clip-rule="evenodd" d="M146.689 16.3438L105.641 95.4091H187.737L146.689 16.3438ZM146.689 48.2681L129.852 80.6992H163.526L146.689 48.2681Z" fill="#EED394"/>
<path fill-rule="evenodd" clip-rule="evenodd" d="M677.059 22.1844L745.705 49.4409L677.059 76.6973V94.7962H662.35V82.538V22.0642L662.35 16.3438L676.757 22.0642H677.059V22.1844ZM681.772 40.7389L703.688 49.4409L681.772 58.1428L681.772 40.7389Z" fill="#EED394"/>
<path fill-rule="evenodd" clip-rule="evenodd" d="M412.283 56.3872C412.283 70.3785 400.941 81.7207 386.95 81.7207C372.958 81.7207 361.616 70.3785 361.616 56.3872C361.616 42.3958 372.958 31.0536 386.95 31.0536C400.941 31.0536 412.283 42.3958 412.283 56.3872ZM426.993 56.3872C426.993 78.5025 409.065 96.4306 386.95 96.4306C364.834 96.4306 346.906 78.5025 346.906 56.3872C346.906 34.2718 364.834 16.3438 386.95 16.3438C409.065 16.3438 426.993 34.2718 426.993 56.3872ZM386.95 63.7421C391.012 63.7421 394.305 60.4492 394.305 56.3872C394.305 52.3252 391.012 49.0322 386.95 49.0322C382.888 49.0322 379.595 52.3252 379.595 56.3872C379.595 60.4492 382.888 63.7421 386.95 63.7421Z" fill="#EED394"/>
<path fill-rule="evenodd" clip-rule="evenodd" d="M246.816 67.3698C245.981 69.019 244.951 70.6018 243.724 72.0864C234.809 82.8701 218.841 84.3852 208.057 75.4705C197.273 66.5559 195.758 50.5873 204.673 39.8036C213.588 29.02 229.556 27.5048 240.34 36.4195C241.754 37.5882 243.008 38.8782 244.101 40.2619L253.261 28.3916C252.159 27.2324 250.976 26.1266 249.712 25.0821C232.667 10.9912 207.427 13.3861 193.336 30.4312C179.245 47.4763 181.64 72.717 198.685 86.8079C215.73 100.899 240.971 98.504 255.061 81.4589C256.384 79.8591 257.561 78.1872 258.595 76.4591L246.816 67.3698Z" fill="#EED394"/>
<path fill-rule="evenodd" clip-rule="evenodd" d="M750.611 17.9746H765.321V62.9213H765.683C768.68 73.5012 778.778 81.7172 791.472 81.7172C804.166 81.7172 814.263 73.5012 817.261 62.9213H817.623V17.9746H832.333V62.9213C829.105 81.9269 812.04 96.427 791.472 96.427C770.904 96.427 753.839 81.9269 750.611 62.9213V17.9746Z" fill="#EED394"/>
<path fill-rule="evenodd" clip-rule="evenodd" d="M839.419 35.586L906.529 11.8628L911.432 25.7316L866.263 41.6985L914.121 55.0686L914.691 69.0515L847.657 93.8153L842.559 80.0169L888.287 63.1243L839.891 49.6041L839.419 35.586Z" fill="#EED394"/>
<path fill-rule="evenodd" clip-rule="evenodd" d="M279.079 44.4509L338.088 17.0293L344.287 30.3691L289.086 56.021L344.319 82.0127L338.055 95.3225L279.079 67.5688V93.9795H264.369V17.9787H279.079V44.4509Z" fill="#EED394"/>
</svg>
