<svg width="685" height="693" viewBox="0 0 685 693" fill="none" xmlns="http://www.w3.org/2000/svg">
<mask id="mask0_5002_1715" style="mask-type:alpha" maskUnits="userSpaceOnUse" x="0" y="0" width="685" height="693">
<rect width="685" height="693" fill="#D9D9D9"/>
</mask>
<g mask="url(#mask0_5002_1715)">
<path d="M5.6582 591.383H679.097C644.383 897.151 590.519 1026.39 330.282 1055.7C101.056 1024.66 52.2913 890.283 5.6582 591.383Z" fill="url(#paint0_linear_5002_1715)"/>
<ellipse cx="342.379" cy="576.288" rx="342.379" ry="84.0948" fill="#8D6982"/>
<g filter="url(#filter0_d_5002_1715)">
<path d="M662.098 313.949C662.098 141.659 519.917 2 344.479 2C169.04 2 26.877 141.659 26.877 313.949C26.877 486.24 169.091 625.882 344.479 625.882C519.867 625.882 662.098 486.223 662.098 313.949Z" fill="#C3F9FF"/>
<path opacity="0.2" d="M487.047 130.396C492.982 127.191 500.337 128.187 505.173 132.82C505.173 132.82 510.448 137.885 518.361 145.457C524.11 148.33 529.622 151.386 534.88 154.624C540.122 157.879 545.11 161.316 549.827 164.953C577.489 184.765 595.851 218.841 602.208 249.563C603.104 255.358 603.645 261.353 603.781 267.514C603.933 273.691 603.696 280.035 603.054 286.578C603.882 292.722 601.025 298.02 596.561 301.059C592.114 304.098 586.061 304.878 580.532 301.939C580.532 301.939 573.735 298.402 564.368 294.416C487.588 296.243 498.528 215.735 484.629 165.335C481.67 154.691 479.658 147.65 479.658 147.65C477.731 140.907 480.791 133.75 487.047 130.362V130.396Z" fill="#3E7AB7"/>
<path opacity="0.15" d="M339.909 55.3729C348.888 54.6755 359.218 54.6756 355.769 64.822C352.32 91.8737 300.683 118.925 342.006 145.977C362.668 159.495 390.211 169.641 397.312 196.46C398.513 201.575 398.953 206.739 398.783 211.904C398.175 227.464 392.24 243.074 377.986 258.534C373.607 261.839 368.755 264.546 363.631 266.788C348.245 273.48 330.407 275.888 315.359 277.3C309.914 277.931 304.386 278.379 298.84 278.595C290.521 278.911 282.151 278.661 274.137 277.731C270.13 277.267 266.207 276.635 262.42 275.805C245.579 271.072 224.934 260.926 231.816 240.633C234.403 236.398 237.193 232.396 240.152 228.477C243.11 224.575 246.222 220.772 249.35 217.002C251.852 214.462 255.014 211.273 258.04 207.836C261.067 204.398 263.941 200.695 265.835 197.091C269.69 172.995 242.147 179.771 229.652 180.385C224.545 181.265 219.473 182.295 214.603 183.142C199.978 185.683 187.06 186.53 180.179 176.383C159.094 148.269 168.968 126.647 191.203 109.875C194.906 107.085 198.963 104.411 203.326 101.871C242.164 81.7105 280.038 68.1765 322.393 57.3658C329.646 56.1536 335.479 55.5058 339.926 55.3563L339.909 55.3729Z" fill="#4B93B9"/>
<path opacity="0.08" d="M564.527 440.839C562.244 445.04 559.759 449.242 557.087 453.393C554.416 457.545 551.541 461.63 548.498 465.665C522.138 508.261 470.501 528.537 422.296 511.632C394.752 501.485 394.752 464.287 411.965 450.769C432.626 430.477 456.721 467.675 480.815 464.287C504.909 460.899 518.689 433.848 542.952 423.269C547.771 421.891 552.42 421.692 556.8 423.203C561.196 424.747 565.338 428.002 569.16 433.582C568.652 435.907 567.147 438.365 564.51 440.839H564.527Z" fill="#4B93B9"/>
<path opacity="0.09" d="M172.58 253.416C172.343 262.001 169.165 270.221 162.249 275.735C160.897 276.814 159.375 277.761 157.667 278.508C155.858 279.388 153.964 280.102 152.02 280.667C142.348 283.473 131.223 282.41 121.89 278.192C120.452 277.495 119.066 276.665 117.747 275.735C116.428 274.805 115.194 273.775 114.078 272.646C102.581 261.071 102.682 240.28 111.846 227.427C118.119 218.609 128.89 214.208 139.406 214.906C141.52 215.039 143.616 215.387 145.662 215.935C147.894 216.317 149.906 216.882 151.749 217.629C153.592 218.36 155.249 219.273 156.771 220.319C166.764 227.161 172.901 240.679 172.563 253.399L172.58 253.416Z" fill="#3E7AB7"/>
<path opacity="0.2" d="M282.292 476.94C222.607 464.286 201.945 420.329 194.218 366.724C191.005 363.253 187.59 359.865 184.056 356.544C177.885 349.636 173.269 344.455 173.269 344.455C166.015 336.318 155.786 331.303 144.812 330.489C118.047 328.496 96.2355 351.28 99.9214 377.402C99.9214 377.402 100.327 380.291 100.936 384.625C101.545 388.96 102.373 394.739 103.185 400.534C103.083 406.579 103.641 412.308 104.774 417.771C105.924 423.285 107.648 428.532 109.897 433.581C112.214 437.184 114.682 440.821 117.303 444.458C119.924 448.095 122.697 451.731 125.622 455.335C146.858 491.354 184.732 508.259 220.73 526.211C226.36 528.054 232.092 529.549 237.892 530.645C255.307 533.933 273.382 533.617 291.456 528.536C301.787 525.148 312.118 521.777 315.551 511.63C315.551 506.565 312.101 503.178 308.263 499.79C304.425 496.402 300.164 493.015 298.473 487.966C294.348 484.363 289.072 480.61 282.292 476.94Z" fill="#3E7AB7"/>
</g>
</g>
<defs>
<filter id="filter0_d_5002_1715" x="16.877" y="0" width="655.221" height="643.883" filterUnits="userSpaceOnUse" color-interpolation-filters="sRGB">
<feFlood flood-opacity="0" result="BackgroundImageFix"/>
<feColorMatrix in="SourceAlpha" type="matrix" values="0 0 0 0 0 0 0 0 0 0 0 0 0 0 0 0 0 0 127 0" result="hardAlpha"/>
<feOffset dy="8"/>
<feGaussianBlur stdDeviation="5"/>
<feComposite in2="hardAlpha" operator="out"/>
<feColorMatrix type="matrix" values="0 0 0 0 0 0 0 0 0 0 0 0 0 0 0 0 0 0 0.25 0"/>
<feBlend mode="normal" in2="BackgroundImageFix" result="effect1_dropShadow_5002_1715"/>
<feBlend mode="normal" in="SourceGraphic" in2="effect1_dropShadow_5002_1715" result="shape"/>
</filter>
<linearGradient id="paint0_linear_5002_1715" x1="342.378" y1="591.383" x2="342.378" y2="1055.7" gradientUnits="userSpaceOnUse">
<stop stop-color="#373634"/>
<stop offset="1" stop-color="#806077"/>
</linearGradient>
</defs>
</svg>
