<svg width="1440" height="1011" viewBox="0 0 1440 1011" fill="none" xmlns="http://www.w3.org/2000/svg">
<path d="M702.449 180.714C704.507 180.652 705.522 180.923 706.063 182.791L720.784 237.254L722.527 237.57C722.745 238.872 722.501 238.836 721.353 239.328C722.405 244.434 725.405 250.63 725.9 255.672C726.168 258.407 726.107 259.383 722.992 260.46L630.954 282.031C629.456 282.079 628.091 281.364 627.413 280.227C625.888 277.669 624.877 270.453 623.851 267.229C627.837 266.282 631.846 265.263 635.894 264.505C639.42 263.846 646.078 263.442 648.947 262.407C650.664 261.787 656.583 254.905 658.249 253.119C669.764 240.779 680.707 228.755 689.553 214.836C695.123 206.07 700.635 197.945 701.8 187.818C702.072 185.45 701.462 183.021 702.448 180.713L702.449 180.714Z" fill="#676767"/>
<path d="M702.449 180.714C701.464 183.023 702.074 185.45 701.801 187.819C700.637 197.946 695.123 206.071 689.554 214.837C680.71 228.756 669.765 240.779 658.25 253.12C656.584 254.906 650.666 261.79 648.949 262.408C646.078 263.443 639.42 263.848 635.895 264.507C631.847 265.264 627.838 266.285 623.853 267.23C623.763 266.947 623.174 266.436 622.978 265.783C621.959 262.396 618.83 254.472 618.725 251.602C618.644 249.403 621.505 248.833 621.862 246.484L700.72 180.933C701.278 180.736 701.86 180.732 702.45 180.714H702.449Z" fill="#7E7E7E"/>
<path d="M16.4482 441.709C20.5681 444.616 24.984 447.284 29.0695 450.114C31.4069 451.732 34.0792 454.358 36.5272 456.046C35.286 457.838 32.4058 457.696 30.393 458.423C28.1095 459.245 14.4667 464.868 13.8611 465.931C13.9344 471.358 15.3236 477.398 16.6276 482.835C20.0761 497.215 26.3583 510.711 30.541 524.731C31.1212 526.674 29.8516 529.382 33.0832 529.709C33.0892 529.971 33.635 530.689 33.6604 531.414C34.0493 542.493 31.7224 541.198 22.37 536.716C19.8383 535.502 4.65381 527.978 3.936 526.893C3.53374 526.137 3.3513 525.341 3.2511 524.516C1.53885 510.357 2.97594 494.606 1.52838 480.271C0.994513 476.655 1.13359 473.022 0.954138 469.394C0.78366 465.954 0.547384 462.484 0.379897 459.012C0.221383 455.723 -0.0612509 452.439 -0.194343 449.125C-0.330426 445.737 -1.59256 437.805 -0.657924 435.131C-0.560722 434.852 4.40257 431.585 4.40257 431.585L9.25521 436.751C9.25521 436.751 15.041 440.719 16.4422 441.708L16.4482 441.709Z" fill="#676767"/>
<path d="M38.8227 456.54C41.8135 458.884 44.6264 461.127 48.0016 463.461C50.5019 465.191 53.086 466.246 54.8865 467.417C57.8878 469.366 60.919 472.015 64.6396 474.338C64.7278 474.393 64.665 475.04 64.9865 475.279C67.273 476.983 70.1592 478.256 67.765 481.237L33.3838 509.942C32.9576 516.501 32.9233 523.143 33.0863 529.708C29.8547 529.381 31.1228 526.674 30.544 524.73C26.3614 510.71 20.0791 497.213 16.6307 482.833C15.3267 477.397 13.9374 471.358 13.8641 465.93C14.4683 464.867 28.111 459.244 30.396 458.422C32.4088 457.697 35.289 457.837 36.5302 456.045C36.8966 456.297 38.555 456.328 38.8257 456.539L38.8227 456.54Z" fill="#7E7E7E"/>
<path d="M184.395 71.0777C178.411 67.6707 172.144 63.4177 167.462 58.7257C161.485 52.7344 154.305 37.5998 154.567 29.802C154.61 28.4938 155.597 20.9535 156.003 20.1629C156.695 18.811 167.436 11.2038 169.771 8.79207C170.981 7.54308 172.328 5.89621 172.919 4.33691C183.804 12.0368 195.902 19.8925 206.201 28.3071C208.555 30.2308 211.762 32.0038 209.373 35.0117C200.662 46.8062 193.322 59.4107 184.393 71.0777H184.395Z" fill="#7E7E7E"/>
<path d="M172.92 4.33704C172.33 5.89763 170.982 7.54321 169.772 8.7922C167.437 11.2026 156.696 18.8111 156.004 20.1631C155.599 20.9537 154.612 28.4939 154.569 29.8022C154.305 37.5987 161.485 52.7345 167.464 58.7258C172.146 63.4178 178.413 67.6709 184.396 71.0779C181.704 74.5943 182.664 75.7313 176.624 75.5459C165.093 75.1905 152.79 72.717 141.113 72.5341C139.626 72.3359 137.585 71.1564 137.343 69.8134L143.68 41.634C142.632 38.3714 140.987 26.1206 142.061 22.9843C149.415 15.3487 156.759 7.61402 164.685 0.445882C168.389 -1.35806 170.737 2.7932 172.922 4.33704H172.92Z" fill="#676767"/>
<path d="M510.044 31.1284C511.903 34.116 512.912 37.5829 514.613 40.6902C515.323 41.9816 516.955 44.432 517.975 46.2939C527.43 63.5762 538.846 81.6865 547.253 99.1748C548.629 102.036 551.071 105.286 546.319 106.634C539.975 108.433 528.037 108.891 520.945 109.735C519.551 105.577 519.506 100.914 518.504 96.7593C514.321 79.3881 508.301 62.2461 507.039 44.3483L499.717 29.6463C505.023 25.5685 506.566 25.5376 510.043 31.1297L510.044 31.1284Z" fill="#676767"/>
<path d="M499.717 29.6451L507.039 44.3471C508.301 62.2449 514.321 79.3869 518.504 96.7581C519.504 100.914 519.549 105.576 520.944 109.733C516.581 110.252 502.842 112.927 499.55 112.099C498.803 111.911 498.184 111.235 497.722 110.712L496.849 73.6454C498.904 69.0255 497.879 61.9462 497.996 56.837C498.03 55.3575 497.975 53.8677 497.996 52.387C498.039 49.2207 498.57 45.7223 498.57 42.7466V34.8368C498.57 31.7215 497.214 30.7969 499.719 29.6464C502.223 28.496 499.717 29.6451 499.717 29.6451Z" fill="#7E7E7E"/>
<path d="M590.929 392.312C595.925 393.475 598.568 398.673 600.995 402.224L620.761 393.795C621.246 394.961 622.9 398.249 623.045 399.027C623.79 403.007 618.66 404.331 616.176 406.406C613.099 408.978 608.022 417.738 603.232 417.498C602.205 417.446 598.206 413.76 597.256 412.813C593.047 408.618 589.458 403.607 585.429 399.255C584.517 396.772 589.259 394.153 590.929 392.312Z" fill="#676767"/>
<path d="M620.763 393.795L600.996 402.224C598.569 398.673 595.927 393.475 590.931 392.312C591.07 392.16 591.083 391.533 591.49 391.082C592.617 389.832 598.949 382.427 599.537 382.178C601.502 381.348 610.739 380.656 613.046 380.916C614.394 381.068 615.14 381.42 615.843 382.462C616.915 386.424 619.187 390.01 620.761 393.795H620.763Z" fill="#7E7E7E"/>
<path d="M284.732 479.111C283.994 480.284 282.414 479.097 281.625 479.106C281.33 479.11 281.457 479.893 280.463 480.145C278.541 480.632 273.989 481.016 271.848 481.11C267.661 481.293 259.995 481.29 256.288 479.646C255.512 479.302 251.576 475.691 250.883 474.91C248.914 472.685 247.833 469.551 245.147 467.742C245.63 462.121 247.226 464.346 250.706 461.653C251.58 460.975 252.512 458.741 253.562 458.425C255.738 457.769 257.018 459.143 258.66 459.309C260.589 459.505 263.115 459.007 264.819 459.439C266.24 459.8 268.432 463.481 270.43 464.492C272.311 465.443 280.33 467.731 281.333 468.939C282.26 470.056 281.738 472.175 282.114 473.705C282.408 474.902 284.023 477.855 284.729 479.113L284.732 479.111Z" fill="#7E7E7E"/>
<path d="M245.147 467.74C247.833 469.551 248.914 472.683 250.884 474.908C251.576 475.69 255.512 479.3 256.288 479.644C259.995 481.289 267.661 481.291 271.848 481.108C273.989 481.016 278.541 480.631 280.463 480.144C281.456 479.891 281.33 479.109 281.625 479.105C282.415 479.096 283.994 480.283 284.733 479.11C285.059 479.692 287.593 480.991 286.213 482.605C286.042 482.803 282.035 483.935 280.907 484.466C277.451 486.097 274.939 487.958 272.774 490.805C272.144 491.632 272.089 493.222 270.972 493.702C270.059 494.094 258.231 494.158 257.019 493.845C254.909 493.302 254.313 486.637 253.402 484.603C253.151 484.04 250.463 479.96 250.155 479.743C249.379 479.2 248.075 479.319 247.441 478.864C246.2 477.976 246.486 474.456 246.158 473.048C245.591 470.612 244.912 470.484 245.149 467.739L245.147 467.74Z" fill="#676767"/>
<path d="M51.4478 170.156C55.7703 175.991 60.0147 183.043 64.6804 188.761C68.5672 193.525 69.2226 192.321 73.389 195.359C78.3796 198.995 71.0779 200.906 67.4652 202.565C56.4601 207.62 58.1394 207.942 50.0535 215.168C46.2212 218.593 47.7207 216.868 43.0896 217.569C41.315 214.066 35.8618 209.969 32.6436 207.367C34.5625 206.967 37.509 204.48 38.5002 203.112C39.8055 201.311 46.6569 187.243 47.1143 185.328C48.3125 180.312 46.5516 173.038 47.2687 167.757C49.2021 167.836 50.3948 168.737 51.4478 170.158V170.156Z" fill="#676767"/>
<path d="M47.2687 167.755C46.5516 173.037 48.3126 180.31 47.1144 185.326C46.6569 187.241 39.8055 201.309 38.5002 203.11C37.509 204.478 34.5607 206.965 32.6437 207.365C29.8017 205.065 26.3968 202.1 23.5901 198.963C22.9991 198.301 21.3464 195.414 21.615 194.586C22.0488 193.248 28.323 186.716 29.7263 184.746C31.8576 181.756 33.4424 177.465 35.4303 174.958C36.2491 173.925 42.2255 169.152 43.5126 168.416C44.6345 167.775 45.9707 167.702 47.2705 167.755H47.2687Z" fill="#7E7E7E"/>
<path d="M890.448 453.709C894.568 456.616 898.984 459.284 903.07 462.114C905.407 463.732 908.079 466.358 910.527 468.046C909.286 469.838 906.406 469.696 904.393 470.423C902.109 471.245 888.467 476.868 887.861 477.931C887.934 483.358 889.324 489.398 890.628 494.835C894.076 509.215 900.358 522.711 904.541 536.731C905.121 538.674 903.852 541.382 907.083 541.709C907.089 541.971 907.635 542.689 907.66 543.414C908.049 554.493 905.722 553.198 896.37 548.716C893.838 547.502 878.654 539.978 877.936 538.893C877.534 538.137 877.351 537.341 877.251 536.516C875.539 522.357 876.976 506.606 875.528 492.271C874.995 488.655 875.134 485.022 874.954 481.394C874.784 477.954 874.547 474.484 874.38 471.012C874.221 467.723 873.939 464.439 873.806 461.125C873.67 457.737 872.407 449.805 873.342 447.131C873.439 446.852 878.403 443.585 878.403 443.585L883.255 448.751C883.255 448.751 889.041 452.719 890.442 453.708L890.448 453.709Z" fill="#676767"/>
<path d="M912.823 468.54C915.814 470.884 918.626 473.127 922.002 475.461C924.502 477.191 927.086 478.246 928.887 479.417C931.888 481.366 934.919 484.015 938.64 486.338C938.728 486.393 938.665 487.04 938.987 487.279C941.273 488.983 944.159 490.256 941.765 493.237L907.384 521.942C906.958 528.501 906.923 535.143 907.086 541.708C903.855 541.381 905.123 538.674 904.544 536.73C900.361 522.71 894.079 509.213 890.631 494.833C889.327 489.397 887.937 483.358 887.864 477.93C888.468 476.867 902.111 471.244 904.396 470.422C906.409 469.697 909.289 469.837 910.53 468.045C910.897 468.297 912.555 468.328 912.826 468.539L912.823 468.54Z" fill="#7E7E7E"/>
<path d="M1058.39 83.0777C1052.41 79.6707 1046.14 75.4177 1041.46 70.7257C1035.48 64.7344 1028.31 49.5998 1028.57 41.802C1028.61 40.4938 1029.6 32.9535 1030 32.1629C1030.69 30.811 1041.44 23.2038 1043.77 20.7921C1044.98 19.5431 1046.33 17.8962 1046.92 16.3369C1057.8 24.0368 1069.9 31.8925 1080.2 40.3071C1082.55 42.2308 1085.76 44.0038 1083.37 47.0117C1074.66 58.8062 1067.32 71.4107 1058.39 83.0777H1058.39Z" fill="#7E7E7E"/>
<path d="M1046.92 16.337C1046.33 17.8976 1044.98 19.5432 1043.77 20.7922C1041.44 23.2026 1030.7 30.8111 1030 32.1631C1029.6 32.9537 1028.61 40.4939 1028.57 41.8022C1028.31 49.5987 1035.48 64.7345 1041.46 70.7258C1046.15 75.4178 1052.41 79.6709 1058.4 83.0779C1055.7 86.5943 1056.66 87.7313 1050.62 87.5459C1039.09 87.1905 1026.79 84.717 1015.11 84.5341C1013.63 84.3359 1011.59 83.1564 1011.34 81.8134L1017.68 53.634C1016.63 50.3714 1014.99 38.1206 1016.06 34.9843C1023.42 27.3487 1030.76 19.614 1038.69 12.4459C1042.39 10.6419 1044.74 14.7932 1046.92 16.337H1046.92Z" fill="#676767"/>
<path d="M1384.04 43.1284C1385.9 46.116 1386.91 49.5829 1388.61 52.6902C1389.32 53.9816 1390.96 56.432 1391.97 58.2939C1401.43 75.5762 1412.85 93.6865 1421.25 111.175C1422.63 114.036 1425.07 117.286 1420.32 118.634C1413.98 120.433 1402.04 120.891 1394.94 121.735C1393.55 117.577 1393.51 112.914 1392.5 108.759C1388.32 91.3881 1382.3 74.2461 1381.04 56.3483L1373.72 41.6463C1379.02 37.5685 1380.57 37.5376 1384.04 43.1297L1384.04 43.1284Z" fill="#676767"/>
<path d="M1373.72 41.6451L1381.04 56.3471C1382.3 74.2449 1388.32 91.3869 1392.5 108.758C1393.5 112.914 1393.55 117.576 1394.94 121.733C1390.58 122.252 1376.84 124.927 1373.55 124.099C1372.8 123.911 1372.18 123.235 1371.72 122.712L1370.85 85.6454C1372.9 81.0255 1371.88 73.9462 1372 68.837C1372.03 67.3575 1371.97 65.8677 1372 64.387C1372.04 61.2207 1372.57 57.7223 1372.57 54.7466V46.8368C1372.57 43.7215 1371.21 42.7969 1373.72 41.6464C1376.22 40.496 1373.72 41.6451 1373.72 41.6451Z" fill="#7E7E7E"/>
<path d="M1158.73 491.111C1157.99 492.284 1156.41 491.097 1155.62 491.106C1155.33 491.11 1155.46 491.893 1154.46 492.145C1152.54 492.632 1147.99 493.016 1145.85 493.11C1141.66 493.293 1134 493.29 1130.29 491.646C1129.51 491.302 1125.58 487.691 1124.88 486.91C1122.91 484.685 1121.83 481.551 1119.15 479.742C1119.63 474.121 1121.23 476.346 1124.71 473.653C1125.58 472.975 1126.51 470.741 1127.56 470.425C1129.74 469.769 1131.02 471.143 1132.66 471.309C1134.59 471.505 1137.11 471.007 1138.82 471.439C1140.24 471.8 1142.43 475.481 1144.43 476.492C1146.31 477.443 1154.33 479.731 1155.33 480.939C1156.26 482.056 1155.74 484.175 1156.11 485.705C1156.41 486.902 1158.02 489.855 1158.73 491.113L1158.73 491.111Z" fill="#7E7E7E"/>
<path d="M1119.15 479.74C1121.83 481.551 1122.91 484.683 1124.88 486.908C1125.58 487.69 1129.51 491.3 1130.29 491.644C1134 493.289 1141.66 493.291 1145.85 493.108C1147.99 493.016 1152.54 492.631 1154.46 492.144C1155.46 491.891 1155.33 491.109 1155.63 491.105C1156.41 491.096 1157.99 492.283 1158.73 491.11C1159.06 491.692 1161.59 492.991 1160.21 494.605C1160.04 494.803 1156.03 495.935 1154.91 496.466C1151.45 498.097 1148.94 499.958 1146.77 502.805C1146.14 503.632 1146.09 505.222 1144.97 505.702C1144.06 506.094 1132.23 506.158 1131.02 505.845C1128.91 505.302 1128.31 498.637 1127.4 496.603C1127.15 496.04 1124.46 491.96 1124.16 491.743C1123.38 491.2 1122.08 491.319 1121.44 490.864C1120.2 489.976 1120.49 486.456 1120.16 485.048C1119.59 482.612 1118.91 482.484 1119.15 479.739L1119.15 479.74Z" fill="#676767"/>
<path d="M925.448 182.156C929.77 187.991 934.015 195.043 938.68 200.761C942.567 205.525 943.223 204.321 947.389 207.359C952.38 210.995 945.078 212.906 941.465 214.565C930.46 219.62 932.139 219.942 924.054 227.168C920.221 230.593 921.721 228.868 917.09 229.569C915.315 226.066 909.862 221.969 906.644 219.367C908.563 218.967 911.509 216.48 912.5 215.112C913.805 213.311 920.657 199.243 921.114 197.328C922.313 192.312 920.552 185.038 921.269 179.757C923.202 179.836 924.395 180.737 925.448 182.158V182.156Z" fill="#676767"/>
<path d="M921.269 179.755C920.552 185.037 922.313 192.31 921.114 197.326C920.657 199.241 913.805 213.309 912.5 215.11C911.509 216.478 908.561 218.965 906.644 219.365C903.802 217.065 900.397 214.1 897.59 210.963C896.999 210.301 895.346 207.414 895.615 206.586C896.049 205.248 902.323 198.716 903.726 196.746C905.858 193.756 907.442 189.465 909.43 186.958C910.249 185.925 916.225 181.152 917.513 180.416C918.634 179.775 919.971 179.702 921.27 179.755H921.269Z" fill="#7E7E7E"/>
<path d="M1504.45 585.714C1506.51 585.652 1507.52 585.923 1508.06 587.791L1522.78 642.254L1524.53 642.57C1524.74 643.872 1524.5 643.836 1523.35 644.328C1524.41 649.434 1527.41 655.63 1527.9 660.672C1528.17 663.407 1528.11 664.383 1524.99 665.46L1432.95 687.031C1431.46 687.079 1430.09 686.364 1429.41 685.227C1427.89 682.669 1426.88 675.453 1425.85 672.229C1429.84 671.282 1433.85 670.263 1437.89 669.505C1441.42 668.846 1448.08 668.442 1450.95 667.407C1452.66 666.787 1458.58 659.905 1460.25 658.119C1471.76 645.779 1482.71 633.755 1491.55 619.836C1497.12 611.07 1502.64 602.945 1503.8 592.818C1504.07 590.45 1503.46 588.021 1504.45 585.713L1504.45 585.714Z" fill="#676767"/>
<path d="M1504.45 585.714C1503.46 588.023 1504.07 590.45 1503.8 592.819C1502.64 602.946 1497.12 611.071 1491.55 619.837C1482.71 633.756 1471.77 645.779 1460.25 658.12C1458.58 659.906 1452.67 666.79 1450.95 667.408C1448.08 668.443 1441.42 668.848 1437.9 669.507C1433.85 670.264 1429.84 671.285 1425.85 672.23C1425.76 671.947 1425.17 671.436 1424.98 670.783C1423.96 667.396 1420.83 659.472 1420.72 656.602C1420.64 654.403 1423.5 653.833 1423.86 651.484L1502.72 585.933C1503.28 585.736 1503.86 585.732 1504.45 585.714H1504.45Z" fill="#7E7E7E"/>
<path d="M818.448 846.709C822.568 849.616 826.984 852.284 831.07 855.114C833.407 856.732 836.079 859.358 838.527 861.046C837.286 862.838 834.406 862.696 832.393 863.423C830.109 864.245 816.467 869.868 815.861 870.931C815.934 876.358 817.324 882.398 818.628 887.835C822.076 902.215 828.358 915.711 832.541 929.731C833.121 931.674 831.852 934.382 835.083 934.709C835.089 934.971 835.635 935.689 835.66 936.414C836.049 947.493 833.722 946.198 824.37 941.716C821.838 940.502 806.654 932.978 805.936 931.893C805.534 931.137 805.351 930.341 805.251 929.516C803.539 915.357 804.976 899.606 803.528 885.271C802.995 881.655 803.134 878.022 802.954 874.394C802.784 870.954 802.547 867.484 802.38 864.012C802.221 860.723 801.939 857.439 801.806 854.125C801.67 850.737 800.407 842.805 801.342 840.131C801.439 839.852 806.403 836.585 806.403 836.585L811.255 841.751C811.255 841.751 817.041 845.719 818.442 846.708L818.448 846.709Z" fill="#676767"/>
<path d="M840.823 861.54C843.814 863.884 846.626 866.127 850.002 868.461C852.502 870.191 855.086 871.246 856.887 872.417C859.888 874.366 862.919 877.015 866.64 879.338C866.728 879.393 866.665 880.04 866.987 880.279C869.273 881.983 872.159 883.256 869.765 886.237L835.384 914.942C834.958 921.501 834.923 928.143 835.086 934.708C831.855 934.381 833.123 931.674 832.544 929.73C828.361 915.71 822.079 902.213 818.631 887.833C817.327 882.397 815.937 876.358 815.864 870.93C816.468 869.867 830.111 864.244 832.396 863.422C834.409 862.697 837.289 862.837 838.53 861.045C838.897 861.297 840.555 861.328 840.826 861.539L840.823 861.54Z" fill="#7E7E7E"/>
<path d="M986.395 476.078C980.411 472.671 974.144 468.418 969.462 463.726C963.485 457.734 956.305 442.6 956.567 434.802C956.61 433.494 957.597 425.954 958.003 425.163C958.695 423.811 969.436 416.204 971.771 413.792C972.981 412.543 974.328 410.896 974.919 409.337C985.804 417.037 997.902 424.893 1008.2 433.307C1010.55 435.231 1013.76 437.004 1011.37 440.012C1002.66 451.806 995.322 464.411 986.393 476.078H986.395Z" fill="#7E7E7E"/>
<path d="M974.92 409.337C974.33 410.898 972.982 412.543 971.772 413.792C969.437 416.203 958.696 423.811 958.004 425.163C957.599 425.954 956.612 433.494 956.569 434.802C956.305 442.599 963.485 457.735 969.464 463.726C974.146 468.418 980.413 472.671 986.396 476.078C983.704 479.594 984.664 480.731 978.624 480.546C967.093 480.191 954.79 477.717 943.113 477.534C941.626 477.336 939.585 476.156 939.343 474.813L945.68 446.634C944.632 443.371 942.987 431.121 944.061 427.984C951.415 420.349 958.759 412.614 966.685 405.446C970.389 403.642 972.737 407.793 974.922 409.337H974.92Z" fill="#676767"/>
<path d="M1312.04 436.128C1313.9 439.116 1314.91 442.583 1316.61 445.69C1317.32 446.982 1318.96 449.432 1319.97 451.294C1329.43 468.576 1340.85 486.686 1349.25 504.175C1350.63 507.036 1353.07 510.286 1348.32 511.634C1341.98 513.433 1330.04 513.891 1322.94 514.735C1321.55 510.577 1321.51 505.914 1320.5 501.759C1316.32 484.388 1310.3 467.246 1309.04 449.348L1301.72 434.646C1307.02 430.568 1308.57 430.538 1312.04 436.13L1312.04 436.128Z" fill="#676767"/>
<path d="M1301.72 434.645L1309.04 449.347C1310.3 467.245 1316.32 484.387 1320.5 501.758C1321.5 505.914 1321.55 510.576 1322.94 514.733C1318.58 515.252 1304.84 517.927 1301.55 517.099C1300.8 516.911 1300.18 516.235 1299.72 515.712L1298.85 478.645C1300.9 474.025 1299.88 466.946 1300 461.837C1300.03 460.357 1299.97 458.868 1300 457.387C1300.04 454.221 1300.57 450.722 1300.57 447.747V439.837C1300.57 436.722 1299.21 435.797 1301.72 434.646C1304.22 433.496 1301.72 434.645 1301.72 434.645Z" fill="#7E7E7E"/>
<path d="M1392.93 797.312C1397.93 798.475 1400.57 803.673 1402.99 807.224L1422.76 798.795C1423.25 799.961 1424.9 803.249 1425.04 804.027C1425.79 808.007 1420.66 809.331 1418.18 811.406C1415.1 813.978 1410.02 822.738 1405.23 822.498C1404.2 822.446 1400.21 818.76 1399.26 817.813C1395.05 813.618 1391.46 808.607 1387.43 804.255C1386.52 801.772 1391.26 799.153 1392.93 797.312Z" fill="#676767"/>
<path d="M1422.76 798.795L1403 807.224C1400.57 803.673 1397.93 798.475 1392.93 797.312C1393.07 797.16 1393.08 796.533 1393.49 796.082C1394.62 794.832 1400.95 787.427 1401.54 787.178C1403.5 786.348 1412.74 785.656 1415.05 785.916C1416.39 786.068 1417.14 786.42 1417.84 787.462C1418.92 791.424 1421.19 795.01 1422.76 798.795H1422.76Z" fill="#7E7E7E"/>
<path d="M1086.73 884.111C1085.99 885.284 1084.41 884.097 1083.62 884.106C1083.33 884.11 1083.46 884.893 1082.46 885.145C1080.54 885.632 1075.99 886.016 1073.85 886.11C1069.66 886.293 1062 886.29 1058.29 884.646C1057.51 884.302 1053.58 880.691 1052.88 879.91C1050.91 877.685 1049.83 874.551 1047.15 872.742C1047.63 867.121 1049.23 869.346 1052.71 866.653C1053.58 865.975 1054.51 863.741 1055.56 863.425C1057.74 862.769 1059.02 864.143 1060.66 864.309C1062.59 864.505 1065.11 864.007 1066.82 864.439C1068.24 864.8 1070.43 868.481 1072.43 869.492C1074.31 870.443 1082.33 872.731 1083.33 873.939C1084.26 875.056 1083.74 877.175 1084.11 878.705C1084.41 879.902 1086.02 882.855 1086.73 884.113L1086.73 884.111Z" fill="#7E7E7E"/>
<path d="M1047.15 872.74C1049.83 874.551 1050.91 877.683 1052.88 879.908C1053.58 880.69 1057.51 884.3 1058.29 884.644C1062 886.289 1069.66 886.291 1073.85 886.108C1075.99 886.016 1080.54 885.631 1082.46 885.144C1083.46 884.891 1083.33 884.109 1083.63 884.105C1084.41 884.096 1085.99 885.283 1086.73 884.11C1087.06 884.692 1089.59 885.991 1088.21 887.605C1088.04 887.803 1084.03 888.935 1082.91 889.466C1079.45 891.097 1076.94 892.958 1074.77 895.805C1074.14 896.632 1074.09 898.222 1072.97 898.702C1072.06 899.094 1060.23 899.158 1059.02 898.845C1056.91 898.302 1056.31 891.637 1055.4 889.603C1055.15 889.04 1052.46 884.96 1052.16 884.743C1051.38 884.2 1050.08 884.319 1049.44 883.864C1048.2 882.976 1048.49 879.456 1048.16 878.048C1047.59 875.612 1046.91 875.484 1047.15 872.739L1047.15 872.74Z" fill="#676767"/>
<path d="M853.448 575.156C857.77 580.991 862.015 588.043 866.68 593.761C870.567 598.525 871.223 597.321 875.389 600.359C880.38 603.995 873.078 605.906 869.465 607.565C858.46 612.62 860.139 612.942 852.054 620.168C848.221 623.593 849.721 621.868 845.09 622.569C843.315 619.066 837.862 614.969 834.644 612.367C836.563 611.967 839.509 609.48 840.5 608.112C841.805 606.311 848.657 592.243 849.114 590.328C850.313 585.312 848.552 578.038 849.269 572.757C851.202 572.836 852.395 573.737 853.448 575.158V575.156Z" fill="#676767"/>
<path d="M849.269 572.755C848.552 578.037 850.313 585.31 849.114 590.326C848.657 592.241 841.805 606.309 840.5 608.11C839.509 609.478 836.561 611.965 834.644 612.365C831.802 610.065 828.397 607.1 825.59 603.963C824.999 603.301 823.346 600.414 823.615 599.586C824.049 598.248 830.323 591.716 831.726 589.746C833.858 586.756 835.442 582.465 837.43 579.958C838.249 578.925 844.225 574.152 845.513 573.416C846.635 572.775 847.971 572.702 849.271 572.755H849.269Z" fill="#7E7E7E"/>
<path d="M777.449 777.714C779.507 777.652 780.522 777.923 781.063 779.791L795.784 834.254L797.527 834.57C797.745 835.872 797.501 835.836 796.353 836.328C797.405 841.434 800.405 847.63 800.9 852.672C801.168 855.407 801.107 856.383 797.992 857.46L705.954 879.031C704.456 879.079 703.091 878.364 702.413 877.227C700.888 874.669 699.877 867.453 698.851 864.229C702.837 863.282 706.846 862.263 710.894 861.505C714.42 860.846 721.078 860.442 723.947 859.407C725.664 858.787 731.583 851.905 733.249 850.119C744.764 837.779 755.707 825.755 764.553 811.836C770.123 803.07 775.635 794.945 776.8 784.818C777.072 782.45 776.462 780.021 777.448 777.713L777.449 777.714Z" fill="#676767"/>
<path d="M777.449 777.714C776.464 780.023 777.074 782.45 776.801 784.819C775.637 794.946 770.123 803.071 764.554 811.837C755.71 825.756 744.765 837.779 733.25 850.12C731.584 851.906 725.666 858.79 723.949 859.408C721.078 860.443 714.42 860.848 710.895 861.507C706.847 862.264 702.838 863.285 698.853 864.23C698.763 863.947 698.174 863.436 697.978 862.783C696.959 859.396 693.83 851.472 693.725 848.602C693.644 846.403 696.505 845.833 696.862 843.484L775.72 777.933C776.278 777.736 776.86 777.732 777.45 777.714H777.449Z" fill="#7E7E7E"/>
<path d="M259.395 668.078C253.411 664.671 247.144 660.418 242.462 655.726C236.485 649.734 229.305 634.6 229.567 626.802C229.61 625.494 230.597 617.954 231.003 617.163C231.695 615.811 242.436 608.204 244.771 605.792C245.981 604.543 247.328 602.896 247.919 601.337C258.804 609.037 270.902 616.893 281.201 625.307C283.555 627.231 286.762 629.004 284.373 632.012C275.662 643.806 268.322 656.411 259.393 668.078H259.395Z" fill="#7E7E7E"/>
<path d="M247.92 601.337C247.33 602.898 245.982 604.543 244.772 605.792C242.437 608.203 231.696 615.811 231.004 617.163C230.599 617.954 229.612 625.494 229.569 626.802C229.305 634.599 236.485 649.735 242.464 655.726C247.146 660.418 253.413 664.671 259.396 668.078C256.704 671.594 257.664 672.731 251.624 672.546C240.093 672.191 227.79 669.717 216.113 669.534C214.626 669.336 212.585 668.156 212.343 666.813L218.68 638.634C217.632 635.371 215.987 623.121 217.061 619.984C224.415 612.349 231.759 604.614 239.685 597.446C243.389 595.642 245.737 599.793 247.922 601.337H247.92Z" fill="#676767"/>
<path d="M585.044 628.128C586.903 631.116 587.912 634.583 589.613 637.69C590.323 638.982 591.955 641.432 592.975 643.294C602.43 660.576 613.846 678.686 622.253 696.175C623.629 699.036 626.071 702.286 621.319 703.634C614.975 705.433 603.037 705.891 595.945 706.735C594.551 702.577 594.506 697.914 593.504 693.759C589.321 676.388 583.301 659.246 582.039 641.348L574.717 626.646C580.023 622.568 581.566 622.538 585.043 628.13L585.044 628.128Z" fill="#676767"/>
<path d="M574.717 626.645L582.039 641.347C583.301 659.245 589.321 676.387 593.504 693.758C594.504 697.914 594.549 702.576 595.944 706.733C591.581 707.252 577.842 709.927 574.549 709.099C573.803 708.911 573.184 708.235 572.722 707.712L571.849 670.645C573.904 666.025 572.879 658.946 572.996 653.837C573.03 652.357 572.975 650.868 572.996 649.387C573.039 646.221 573.57 642.722 573.57 639.747V631.837C573.57 628.722 572.214 627.797 574.718 626.646C577.223 625.496 574.717 626.645 574.717 626.645Z" fill="#7E7E7E"/>
<path d="M665.929 989.312C670.925 990.475 673.568 995.673 675.995 999.224L695.761 990.795C696.246 991.961 697.9 995.249 698.045 996.027C698.79 1000.01 693.66 1001.33 691.176 1003.41C688.099 1005.98 683.022 1014.74 678.232 1014.5C677.205 1014.45 673.206 1010.76 672.256 1009.81C668.047 1005.62 664.458 1000.61 660.429 996.255C659.517 993.772 664.259 991.153 665.929 989.312Z" fill="#676767"/>
<path d="M695.763 990.795L675.996 999.224C673.569 995.673 670.927 990.475 665.931 989.312C666.07 989.16 666.083 988.533 666.49 988.082C667.617 986.832 673.949 979.427 674.537 979.178C676.502 978.348 685.739 977.656 688.046 977.916C689.394 978.068 690.14 978.42 690.843 979.462C691.915 983.424 694.187 987.01 695.761 990.795H695.763Z" fill="#7E7E7E"/>
<path d="M126.448 767.156C130.77 772.991 135.015 780.043 139.68 785.761C143.567 790.525 144.223 789.321 148.389 792.359C153.38 795.995 146.078 797.906 142.465 799.565C131.46 804.62 133.139 804.942 125.054 812.168C121.221 815.593 122.721 813.868 118.09 814.569C116.315 811.066 110.862 806.969 107.644 804.367C109.563 803.967 112.509 801.48 113.5 800.112C114.805 798.311 121.657 784.243 122.114 782.328C123.313 777.312 121.552 770.038 122.269 764.757C124.202 764.836 125.395 765.737 126.448 767.158V767.156Z" fill="#676767"/>
<path d="M122.269 764.755C121.552 770.037 123.313 777.31 122.114 782.326C121.657 784.241 114.806 798.309 113.5 800.11C112.509 801.478 109.561 803.965 107.644 804.365C104.802 802.065 101.397 799.1 98.5901 795.963C97.9991 795.301 96.3464 792.414 96.615 791.586C97.0488 790.248 103.323 783.716 104.726 781.746C106.858 778.756 108.442 774.465 110.43 771.958C111.249 770.925 117.225 766.152 118.513 765.416C119.635 764.775 120.971 764.702 122.271 764.755H122.269Z" fill="#7E7E7E"/>
</svg>
