<svg width="769" height="105" viewBox="0 0 769 105" fill="none" xmlns="http://www.w3.org/2000/svg">
<path d="M39.8797 85.728C34.1677 85.728 29.0317 84.456 24.4717 81.912C19.9597 79.368 16.4077 75.792 13.8157 71.184C11.2717 66.528 9.99969 61.224 9.99969 55.272C9.99969 49.56 11.3677 44.424 14.1037 39.864C16.8397 35.256 20.5597 31.656 25.2637 29.064C29.9677 26.424 35.1997 25.104 40.9597 25.104C44.9917 25.104 49.0957 25.968 53.2717 27.696C57.4477 29.424 60.6637 31.68 62.9197 34.464C63.2077 34.848 63.4477 35.304 63.6397 35.832C63.8317 36.312 63.9277 36.768 63.9277 37.2C63.9277 38.4 63.5197 39.432 62.7037 40.296C61.8877 41.112 60.8557 41.52 59.6077 41.52C59.0797 41.52 58.4797 41.376 57.8077 41.088C57.1837 40.8 56.7037 40.44 56.3677 40.008C54.9277 38.28 52.6477 36.816 49.5277 35.616C46.4077 34.368 43.5517 33.744 40.9597 33.744C36.8797 33.744 33.1837 34.656 29.8717 36.48C26.5597 38.304 23.9677 40.848 22.0957 44.112C20.2237 47.376 19.2877 51.096 19.2877 55.272C19.2877 59.64 20.1517 63.432 21.8797 66.648C23.6077 69.864 26.0077 72.312 29.0797 73.992C32.1997 75.672 35.7997 76.512 39.8797 76.512C43.3357 76.512 46.3837 76.08 49.0237 75.216C51.7117 74.304 53.7757 73.08 55.2157 71.544C56.7037 69.96 57.4477 68.208 57.4477 66.288C57.4477 64.08 56.6797 62.304 55.1437 60.96C53.6557 59.568 51.6157 58.872 49.0237 58.872C46.8637 58.872 44.5357 59.016 42.0397 59.304C41.7997 59.352 41.3677 59.376 40.7437 59.376C39.3997 59.376 38.3197 59.016 37.5037 58.296C36.6877 57.576 36.2797 56.592 36.2797 55.344C36.2797 52.8 38.0317 51.24 41.5357 50.664C42.2077 50.568 43.2877 50.472 44.7757 50.376C46.3117 50.28 47.6797 50.232 48.8797 50.232C52.3357 50.232 55.3597 50.928 57.9517 52.32C60.5437 53.664 62.5357 55.56 63.9277 58.008C65.3677 60.408 66.0877 63.168 66.0877 66.288C66.0877 69.888 64.9597 73.176 62.7037 76.152C60.4477 79.128 57.3037 81.48 53.2717 83.208C49.2877 84.888 44.8237 85.728 39.8797 85.728ZM113.303 71.94C114.303 71.94 115.143 72.3 115.823 73.02C116.543 73.7 116.903 74.54 116.903 75.54C116.903 76.5 116.563 77.36 115.883 78.12C114.043 80.08 111.463 81.7 108.143 82.98C104.823 84.22 101.523 84.84 98.2428 84.84C93.4828 84.84 89.1828 83.8 85.3428 81.72C81.5028 79.64 78.4828 76.72 76.2828 72.96C74.0828 69.2 72.9828 64.88 72.9828 60C72.9828 55.16 74.0828 50.84 76.2828 47.04C78.4828 43.24 81.5028 40.3 85.3428 38.22C89.1828 36.1 93.4828 35.04 98.2428 35.04C101.523 35.04 104.803 35.7 108.083 37.02C111.363 38.34 113.943 40.08 115.823 42.24C116.503 43.04 116.843 43.9 116.843 44.82C116.843 45.82 116.483 46.68 115.763 47.4C115.043 48.08 114.183 48.42 113.183 48.42C112.703 48.42 112.223 48.32 111.743 48.12C111.263 47.92 110.883 47.64 110.603 47.28C109.443 45.88 107.723 44.78 105.443 43.98C103.163 43.18 100.763 42.78 98.2428 42.78C93.8028 42.78 90.0628 43.9 87.0228 46.14C84.0228 48.34 82.0828 51.44 81.2028 55.44H99.9228C100.923 55.44 101.763 55.8 102.443 56.52C103.163 57.2 103.523 58.04 103.523 59.04C103.523 60.04 103.163 60.9 102.443 61.62C101.763 62.3 100.923 62.64 99.9228 62.64H80.9028C81.4228 67.16 83.2428 70.72 86.3628 73.32C89.5228 75.88 93.4828 77.16 98.2428 77.16C101.003 77.16 103.523 76.8 105.803 76.08C108.083 75.36 109.683 74.42 110.603 73.26C110.923 72.86 111.323 72.54 111.803 72.3C112.323 72.06 112.823 71.94 113.303 71.94ZM128.296 84.96C127.256 84.96 126.356 84.6 125.596 83.88C124.836 83.16 124.456 82.32 124.456 81.36V39.12C124.456 38.08 124.856 37.18 125.656 36.42C126.496 35.62 127.476 35.22 128.596 35.22C129.836 35.22 130.876 35.76 131.716 36.84L158.716 70.08L159.196 71.04V38.34C159.196 37.38 159.576 36.54 160.336 35.82C161.096 35.1 161.996 34.74 163.036 34.74C164.076 34.74 164.976 35.1 165.736 35.82C166.536 36.54 166.936 37.38 166.936 38.34V80.28C166.936 81.32 166.516 82.24 165.676 83.04C164.836 83.8 163.856 84.18 162.736 84.18C162.176 84.18 161.616 84.04 161.056 83.76C160.496 83.44 160.016 83.04 159.616 82.56L132.676 49.5L132.196 48.48V81.36C132.196 82.32 131.796 83.16 130.996 83.88C130.236 84.6 129.336 84.96 128.296 84.96ZM215.666 71.94C216.666 71.94 217.506 72.3 218.186 73.02C218.906 73.7 219.266 74.54 219.266 75.54C219.266 76.5 218.926 77.36 218.246 78.12C216.406 80.08 213.826 81.7 210.506 82.98C207.186 84.22 203.886 84.84 200.606 84.84C195.846 84.84 191.546 83.8 187.706 81.72C183.866 79.64 180.846 76.72 178.646 72.96C176.446 69.2 175.346 64.88 175.346 60C175.346 55.16 176.446 50.84 178.646 47.04C180.846 43.24 183.866 40.3 187.706 38.22C191.546 36.1 195.846 35.04 200.606 35.04C203.886 35.04 207.166 35.7 210.446 37.02C213.726 38.34 216.306 40.08 218.186 42.24C218.866 43.04 219.206 43.9 219.206 44.82C219.206 45.82 218.846 46.68 218.126 47.4C217.406 48.08 216.546 48.42 215.546 48.42C215.066 48.42 214.586 48.32 214.106 48.12C213.626 47.92 213.246 47.64 212.966 47.28C211.806 45.88 210.086 44.78 207.806 43.98C205.526 43.18 203.126 42.78 200.606 42.78C196.166 42.78 192.426 43.9 189.386 46.14C186.386 48.34 184.446 51.44 183.566 55.44H202.286C203.286 55.44 204.126 55.8 204.806 56.52C205.526 57.2 205.886 58.04 205.886 59.04C205.886 60.04 205.526 60.9 204.806 61.62C204.126 62.3 203.286 62.64 202.286 62.64H183.266C183.786 67.16 185.606 70.72 188.726 73.32C191.886 75.88 195.846 77.16 200.606 77.16C203.366 77.16 205.886 76.8 208.166 76.08C210.446 75.36 212.046 74.42 212.966 73.26C213.286 72.86 213.686 72.54 214.166 72.3C214.686 72.06 215.186 71.94 215.666 71.94ZM257.84 78.54C258.24 78.86 258.66 79.36 259.1 80.04C259.58 80.72 259.82 81.36 259.82 81.96C259.82 82.96 259.48 83.76 258.8 84.36C258.12 84.96 257.26 85.26 256.22 85.26C255.22 85.26 254.48 85.1 254 84.78C252.4 83.9 251.24 82.72 250.52 81.24C249.8 79.72 249.28 77.54 248.96 74.7C248.84 73.5 248.72 72.1 248.6 70.5C248.48 68.86 248.38 67.52 248.3 66.48C248.22 64.6 247.18 63.18 245.18 62.22C243.22 61.26 240.82 60.78 237.98 60.78H234.02V81.24C234.02 82.24 233.66 83.1 232.94 83.82C232.26 84.5 231.42 84.84 230.42 84.84C229.42 84.84 228.56 84.5 227.84 83.82C227.16 83.1 226.82 82.24 226.82 81.24V39.06C226.82 37.94 227.16 37.04 227.84 36.36C228.52 35.68 229.4 35.3 230.48 35.22C231.84 35.18 233.74 35.16 236.18 35.16C238.62 35.12 240.64 35.1 242.24 35.1C245.24 35.1 247.9 35.64 250.22 36.72C252.58 37.8 254.4 39.32 255.68 41.28C257 43.24 257.66 45.48 257.66 48C257.66 53.12 255.1 56.54 249.98 58.26C253.38 59.7 255.22 62.24 255.5 65.88L255.74 68.64C255.82 69.92 255.96 71.7 256.16 73.98C256.4 76.38 256.96 77.9 257.84 78.54ZM234.02 54.12H242.18C245.06 54.12 247.16 53.66 248.48 52.74C249.8 51.82 250.46 50.24 250.46 48C250.46 46.2 249.74 44.8 248.3 43.8C246.86 42.8 244.84 42.3 242.24 42.3H234.02V54.12ZM307.622 79.5C307.822 79.98 307.922 80.36 307.922 80.64C307.922 81.68 307.562 82.58 306.842 83.34C306.162 84.06 305.302 84.42 304.262 84.42C303.542 84.42 302.862 84.22 302.222 83.82C301.622 83.42 301.182 82.88 300.902 82.2L296.222 70.08H277.922L273.302 82.26C273.062 82.9 272.622 83.42 271.982 83.82C271.382 84.22 270.702 84.42 269.942 84.42C268.902 84.42 268.042 84.06 267.362 83.34C266.682 82.62 266.342 81.76 266.342 80.76C266.342 80.44 266.442 80.04 266.642 79.56L283.982 37.44C284.302 36.68 284.722 36.1 285.242 35.7C285.802 35.3 286.382 35.1 286.982 35.1C287.662 35.1 288.302 35.3 288.902 35.7C289.502 36.1 289.962 36.7 290.282 37.5L307.622 79.5ZM286.562 47.52L280.502 63.42H293.642L287.522 47.52L287.042 45.84L286.562 47.52ZM336.271 76.98C337.271 76.98 338.111 77.34 338.791 78.06C339.511 78.74 339.871 79.58 339.871 80.58C339.871 81.58 339.511 82.44 338.791 83.16C338.111 83.84 337.271 84.18 336.271 84.18H320.191C319.071 84.18 318.151 83.82 317.431 83.1C316.711 82.38 316.351 81.46 316.351 80.34V38.76C316.351 37.76 316.691 36.92 317.371 36.24C318.091 35.52 318.951 35.16 319.951 35.16C320.951 35.16 321.791 35.52 322.471 36.24C323.191 36.92 323.551 37.76 323.551 38.76V76.98H336.271ZM416.735 78.6C416.975 79.176 417.095 79.632 417.095 79.968C417.095 81.216 416.663 82.296 415.799 83.208C414.983 84.072 413.951 84.504 412.703 84.504C411.839 84.504 411.023 84.264 410.255 83.784C409.535 83.304 409.007 82.656 408.671 81.84L403.055 67.296H381.095L375.551 81.912C375.263 82.68 374.735 83.304 373.967 83.784C373.247 84.264 372.431 84.504 371.519 84.504C370.271 84.504 369.239 84.072 368.423 83.208C367.607 82.344 367.199 81.312 367.199 80.112C367.199 79.728 367.319 79.248 367.559 78.672L388.367 28.128C388.751 27.216 389.255 26.52 389.879 26.04C390.551 25.56 391.247 25.32 391.967 25.32C392.783 25.32 393.551 25.56 394.271 26.04C394.991 26.52 395.543 27.24 395.927 28.2L416.735 78.6ZM391.463 40.224L384.191 59.304H399.959L392.615 40.224L392.039 38.208L391.463 40.224ZM459.429 36C460.429 36 461.269 36.36 461.949 37.08C462.669 37.76 463.029 38.6 463.029 39.6C463.029 40.6 462.669 41.46 461.949 42.18C461.269 42.86 460.429 43.2 459.429 43.2H447.249V81.24C447.249 82.24 446.849 83.1 446.049 83.82C445.289 84.5 444.389 84.84 443.349 84.84C442.309 84.84 441.409 84.5 440.649 83.82C439.889 83.1 439.509 82.24 439.509 81.24V43.2H427.269C426.269 43.2 425.409 42.86 424.689 42.18C424.009 41.46 423.669 40.6 423.669 39.6C423.669 38.6 424.009 37.76 424.689 37.08C425.409 36.36 426.269 36 427.269 36H459.429ZM503.14 36C504.14 36 504.98 36.36 505.66 37.08C506.38 37.76 506.74 38.6 506.74 39.6C506.74 40.6 506.38 41.46 505.66 42.18C504.98 42.86 504.14 43.2 503.14 43.2H490.96V81.24C490.96 82.24 490.56 83.1 489.76 83.82C489 84.5 488.1 84.84 487.06 84.84C486.02 84.84 485.12 84.5 484.36 83.82C483.6 83.1 483.22 82.24 483.22 81.24V43.2H470.98C469.98 43.2 469.12 42.86 468.4 42.18C467.72 41.46 467.38 40.6 467.38 39.6C467.38 38.6 467.72 37.76 468.4 37.08C469.12 36.36 469.98 36 470.98 36H503.14ZM552.791 71.94C553.791 71.94 554.631 72.3 555.311 73.02C556.031 73.7 556.391 74.54 556.391 75.54C556.391 76.5 556.051 77.36 555.371 78.12C553.531 80.08 550.951 81.7 547.631 82.98C544.311 84.22 541.011 84.84 537.731 84.84C532.971 84.84 528.671 83.8 524.831 81.72C520.991 79.64 517.971 76.72 515.771 72.96C513.571 69.2 512.471 64.88 512.471 60C512.471 55.16 513.571 50.84 515.771 47.04C517.971 43.24 520.991 40.3 524.831 38.22C528.671 36.1 532.971 35.04 537.731 35.04C541.011 35.04 544.291 35.7 547.571 37.02C550.851 38.34 553.431 40.08 555.311 42.24C555.991 43.04 556.331 43.9 556.331 44.82C556.331 45.82 555.971 46.68 555.251 47.4C554.531 48.08 553.671 48.42 552.671 48.42C552.191 48.42 551.711 48.32 551.231 48.12C550.751 47.92 550.371 47.64 550.091 47.28C548.931 45.88 547.211 44.78 544.931 43.98C542.651 43.18 540.251 42.78 537.731 42.78C533.291 42.78 529.551 43.9 526.511 46.14C523.511 48.34 521.571 51.44 520.691 55.44H539.411C540.411 55.44 541.251 55.8 541.931 56.52C542.651 57.2 543.011 58.04 543.011 59.04C543.011 60.04 542.651 60.9 541.931 61.62C541.251 62.3 540.411 62.64 539.411 62.64H520.391C520.911 67.16 522.731 70.72 525.851 73.32C529.011 75.88 532.971 77.16 537.731 77.16C540.491 77.16 543.011 76.8 545.291 76.08C547.571 75.36 549.171 74.42 550.091 73.26C550.411 72.86 550.811 72.54 551.291 72.3C551.811 72.06 552.311 71.94 552.791 71.94ZM567.785 84.96C566.745 84.96 565.845 84.6 565.085 83.88C564.325 83.16 563.945 82.32 563.945 81.36V39.12C563.945 38.08 564.345 37.18 565.145 36.42C565.985 35.62 566.965 35.22 568.085 35.22C569.325 35.22 570.365 35.76 571.205 36.84L598.205 70.08L598.685 71.04V38.34C598.685 37.38 599.065 36.54 599.825 35.82C600.585 35.1 601.485 34.74 602.525 34.74C603.565 34.74 604.465 35.1 605.225 35.82C606.025 36.54 606.425 37.38 606.425 38.34V80.28C606.425 81.32 606.005 82.24 605.165 83.04C604.325 83.8 603.345 84.18 602.225 84.18C601.665 84.18 601.105 84.04 600.545 83.76C599.985 83.44 599.505 83.04 599.105 82.56L572.165 49.5L571.685 48.48V81.36C571.685 82.32 571.285 83.16 570.485 83.88C569.725 84.6 568.825 84.96 567.785 84.96ZM620.114 84.54C618.954 84.54 617.974 84.18 617.174 83.46C616.414 82.7 616.034 81.78 616.034 80.7V39.3C616.034 38.22 616.414 37.32 617.174 36.6C617.974 35.84 618.954 35.46 620.114 35.46H630.074C635.194 35.46 639.834 36.48 643.994 38.52C648.154 40.56 651.414 43.38 653.774 46.98C656.174 50.54 657.374 54.58 657.374 59.1C657.374 63.78 656.174 68.06 653.774 71.94C651.374 75.82 648.094 78.9 643.934 81.18C639.774 83.42 635.154 84.54 630.074 84.54H620.114ZM623.774 76.8H630.074C633.834 76.8 637.194 76.08 640.154 74.64C643.154 73.16 645.474 71.08 647.114 68.4C648.794 65.72 649.634 62.62 649.634 59.1C649.634 55.94 648.794 53.16 647.114 50.76C645.474 48.36 643.154 46.5 640.154 45.18C637.194 43.86 633.834 43.2 630.074 43.2H623.774V76.8ZM704.9 71.94C705.9 71.94 706.74 72.3 707.42 73.02C708.14 73.7 708.5 74.54 708.5 75.54C708.5 76.5 708.16 77.36 707.48 78.12C705.64 80.08 703.06 81.7 699.74 82.98C696.42 84.22 693.12 84.84 689.84 84.84C685.08 84.84 680.78 83.8 676.94 81.72C673.1 79.64 670.08 76.72 667.88 72.96C665.68 69.2 664.58 64.88 664.58 60C664.58 55.16 665.68 50.84 667.88 47.04C670.08 43.24 673.1 40.3 676.94 38.22C680.78 36.1 685.08 35.04 689.84 35.04C693.12 35.04 696.4 35.7 699.68 37.02C702.96 38.34 705.54 40.08 707.42 42.24C708.1 43.04 708.44 43.9 708.44 44.82C708.44 45.82 708.08 46.68 707.36 47.4C706.64 48.08 705.78 48.42 704.78 48.42C704.3 48.42 703.82 48.32 703.34 48.12C702.86 47.92 702.48 47.64 702.2 47.28C701.04 45.88 699.32 44.78 697.04 43.98C694.76 43.18 692.36 42.78 689.84 42.78C685.4 42.78 681.66 43.9 678.62 46.14C675.62 48.34 673.68 51.44 672.8 55.44H691.52C692.52 55.44 693.36 55.8 694.04 56.52C694.76 57.2 695.12 58.04 695.12 59.04C695.12 60.04 694.76 60.9 694.04 61.62C693.36 62.3 692.52 62.64 691.52 62.64H672.5C673.02 67.16 674.84 70.72 677.96 73.32C681.12 75.88 685.08 77.16 689.84 77.16C692.6 77.16 695.12 76.8 697.4 76.08C699.68 75.36 701.28 74.42 702.2 73.26C702.52 72.86 702.92 72.54 703.4 72.3C703.92 72.06 704.42 71.94 704.9 71.94ZM755.174 71.94C756.174 71.94 757.014 72.3 757.694 73.02C758.414 73.7 758.774 74.54 758.774 75.54C758.774 76.5 758.434 77.36 757.754 78.12C755.914 80.08 753.334 81.7 750.014 82.98C746.694 84.22 743.394 84.84 740.114 84.84C735.354 84.84 731.054 83.8 727.214 81.72C723.374 79.64 720.354 76.72 718.154 72.96C715.954 69.2 714.854 64.88 714.854 60C714.854 55.16 715.954 50.84 718.154 47.04C720.354 43.24 723.374 40.3 727.214 38.22C731.054 36.1 735.354 35.04 740.114 35.04C743.394 35.04 746.674 35.7 749.954 37.02C753.234 38.34 755.814 40.08 757.694 42.24C758.374 43.04 758.714 43.9 758.714 44.82C758.714 45.82 758.354 46.68 757.634 47.4C756.914 48.08 756.054 48.42 755.054 48.42C754.574 48.42 754.094 48.32 753.614 48.12C753.134 47.92 752.754 47.64 752.474 47.28C751.314 45.88 749.594 44.78 747.314 43.98C745.034 43.18 742.634 42.78 740.114 42.78C735.674 42.78 731.934 43.9 728.894 46.14C725.894 48.34 723.954 51.44 723.074 55.44H741.794C742.794 55.44 743.634 55.8 744.314 56.52C745.034 57.2 745.394 58.04 745.394 59.04C745.394 60.04 745.034 60.9 744.314 61.62C743.634 62.3 742.794 62.64 741.794 62.64H722.774C723.294 67.16 725.114 70.72 728.234 73.32C731.394 75.88 735.354 77.16 740.114 77.16C742.874 77.16 745.394 76.8 747.674 76.08C749.954 75.36 751.554 74.42 752.474 73.26C752.794 72.86 753.194 72.54 753.674 72.3C754.194 72.06 754.694 71.94 755.174 71.94Z" fill="white"/>
<g filter="url(#filter0_f_3400_1634)">
<path d="M39.8797 84.728C34.1677 84.728 29.0317 83.456 24.4717 80.912C19.9597 78.368 16.4077 74.792 13.8157 70.184C11.2717 65.528 9.99969 60.224 9.99969 54.272C9.99969 48.56 11.3677 43.424 14.1037 38.864C16.8397 34.256 20.5597 30.656 25.2637 28.064C29.9677 25.424 35.1997 24.104 40.9597 24.104C44.9917 24.104 49.0957 24.968 53.2717 26.696C57.4477 28.424 60.6637 30.68 62.9197 33.464C63.2077 33.848 63.4477 34.304 63.6397 34.832C63.8317 35.312 63.9277 35.768 63.9277 36.2C63.9277 37.4 63.5197 38.432 62.7037 39.296C61.8877 40.112 60.8557 40.52 59.6077 40.52C59.0797 40.52 58.4797 40.376 57.8077 40.088C57.1837 39.8 56.7037 39.44 56.3677 39.008C54.9277 37.28 52.6477 35.816 49.5277 34.616C46.4077 33.368 43.5517 32.744 40.9597 32.744C36.8797 32.744 33.1837 33.656 29.8717 35.48C26.5597 37.304 23.9677 39.848 22.0957 43.112C20.2237 46.376 19.2877 50.096 19.2877 54.272C19.2877 58.64 20.1517 62.432 21.8797 65.648C23.6077 68.864 26.0077 71.312 29.0797 72.992C32.1997 74.672 35.7997 75.512 39.8797 75.512C43.3357 75.512 46.3837 75.08 49.0237 74.216C51.7117 73.304 53.7757 72.08 55.2157 70.544C56.7037 68.96 57.4477 67.208 57.4477 65.288C57.4477 63.08 56.6797 61.304 55.1437 59.96C53.6557 58.568 51.6157 57.872 49.0237 57.872C46.8637 57.872 44.5357 58.016 42.0397 58.304C41.7997 58.352 41.3677 58.376 40.7437 58.376C39.3997 58.376 38.3197 58.016 37.5037 57.296C36.6877 56.576 36.2797 55.592 36.2797 54.344C36.2797 51.8 38.0317 50.24 41.5357 49.664C42.2077 49.568 43.2877 49.472 44.7757 49.376C46.3117 49.28 47.6797 49.232 48.8797 49.232C52.3357 49.232 55.3597 49.928 57.9517 51.32C60.5437 52.664 62.5357 54.56 63.9277 57.008C65.3677 59.408 66.0877 62.168 66.0877 65.288C66.0877 68.888 64.9597 72.176 62.7037 75.152C60.4477 78.128 57.3037 80.48 53.2717 82.208C49.2877 83.888 44.8237 84.728 39.8797 84.728ZM113.303 70.94C114.303 70.94 115.143 71.3 115.823 72.02C116.543 72.7 116.903 73.54 116.903 74.54C116.903 75.5 116.563 76.36 115.883 77.12C114.043 79.08 111.463 80.7 108.143 81.98C104.823 83.22 101.523 83.84 98.2428 83.84C93.4828 83.84 89.1828 82.8 85.3428 80.72C81.5028 78.64 78.4828 75.72 76.2828 71.96C74.0828 68.2 72.9828 63.88 72.9828 59C72.9828 54.16 74.0828 49.84 76.2828 46.04C78.4828 42.24 81.5028 39.3 85.3428 37.22C89.1828 35.1 93.4828 34.04 98.2428 34.04C101.523 34.04 104.803 34.7 108.083 36.02C111.363 37.34 113.943 39.08 115.823 41.24C116.503 42.04 116.843 42.9 116.843 43.82C116.843 44.82 116.483 45.68 115.763 46.4C115.043 47.08 114.183 47.42 113.183 47.42C112.703 47.42 112.223 47.32 111.743 47.12C111.263 46.92 110.883 46.64 110.603 46.28C109.443 44.88 107.723 43.78 105.443 42.98C103.163 42.18 100.763 41.78 98.2428 41.78C93.8028 41.78 90.0628 42.9 87.0228 45.14C84.0228 47.34 82.0828 50.44 81.2028 54.44H99.9228C100.923 54.44 101.763 54.8 102.443 55.52C103.163 56.2 103.523 57.04 103.523 58.04C103.523 59.04 103.163 59.9 102.443 60.62C101.763 61.3 100.923 61.64 99.9228 61.64H80.9028C81.4228 66.16 83.2428 69.72 86.3628 72.32C89.5228 74.88 93.4828 76.16 98.2428 76.16C101.003 76.16 103.523 75.8 105.803 75.08C108.083 74.36 109.683 73.42 110.603 72.26C110.923 71.86 111.323 71.54 111.803 71.3C112.323 71.06 112.823 70.94 113.303 70.94ZM128.296 83.96C127.256 83.96 126.356 83.6 125.596 82.88C124.836 82.16 124.456 81.32 124.456 80.36V38.12C124.456 37.08 124.856 36.18 125.656 35.42C126.496 34.62 127.476 34.22 128.596 34.22C129.836 34.22 130.876 34.76 131.716 35.84L158.716 69.08L159.196 70.04V37.34C159.196 36.38 159.576 35.54 160.336 34.82C161.096 34.1 161.996 33.74 163.036 33.74C164.076 33.74 164.976 34.1 165.736 34.82C166.536 35.54 166.936 36.38 166.936 37.34V79.28C166.936 80.32 166.516 81.24 165.676 82.04C164.836 82.8 163.856 83.18 162.736 83.18C162.176 83.18 161.616 83.04 161.056 82.76C160.496 82.44 160.016 82.04 159.616 81.56L132.676 48.5L132.196 47.48V80.36C132.196 81.32 131.796 82.16 130.996 82.88C130.236 83.6 129.336 83.96 128.296 83.96ZM215.666 70.94C216.666 70.94 217.506 71.3 218.186 72.02C218.906 72.7 219.266 73.54 219.266 74.54C219.266 75.5 218.926 76.36 218.246 77.12C216.406 79.08 213.826 80.7 210.506 81.98C207.186 83.22 203.886 83.84 200.606 83.84C195.846 83.84 191.546 82.8 187.706 80.72C183.866 78.64 180.846 75.72 178.646 71.96C176.446 68.2 175.346 63.88 175.346 59C175.346 54.16 176.446 49.84 178.646 46.04C180.846 42.24 183.866 39.3 187.706 37.22C191.546 35.1 195.846 34.04 200.606 34.04C203.886 34.04 207.166 34.7 210.446 36.02C213.726 37.34 216.306 39.08 218.186 41.24C218.866 42.04 219.206 42.9 219.206 43.82C219.206 44.82 218.846 45.68 218.126 46.4C217.406 47.08 216.546 47.42 215.546 47.42C215.066 47.42 214.586 47.32 214.106 47.12C213.626 46.92 213.246 46.64 212.966 46.28C211.806 44.88 210.086 43.78 207.806 42.98C205.526 42.18 203.126 41.78 200.606 41.78C196.166 41.78 192.426 42.9 189.386 45.14C186.386 47.34 184.446 50.44 183.566 54.44H202.286C203.286 54.44 204.126 54.8 204.806 55.52C205.526 56.2 205.886 57.04 205.886 58.04C205.886 59.04 205.526 59.9 204.806 60.62C204.126 61.3 203.286 61.64 202.286 61.64H183.266C183.786 66.16 185.606 69.72 188.726 72.32C191.886 74.88 195.846 76.16 200.606 76.16C203.366 76.16 205.886 75.8 208.166 75.08C210.446 74.36 212.046 73.42 212.966 72.26C213.286 71.86 213.686 71.54 214.166 71.3C214.686 71.06 215.186 70.94 215.666 70.94ZM257.84 77.54C258.24 77.86 258.66 78.36 259.1 79.04C259.58 79.72 259.82 80.36 259.82 80.96C259.82 81.96 259.48 82.76 258.8 83.36C258.12 83.96 257.26 84.26 256.22 84.26C255.22 84.26 254.48 84.1 254 83.78C252.4 82.9 251.24 81.72 250.52 80.24C249.8 78.72 249.28 76.54 248.96 73.7C248.84 72.5 248.72 71.1 248.6 69.5C248.48 67.86 248.38 66.52 248.3 65.48C248.22 63.6 247.18 62.18 245.18 61.22C243.22 60.26 240.82 59.78 237.98 59.78H234.02V80.24C234.02 81.24 233.66 82.1 232.94 82.82C232.26 83.5 231.42 83.84 230.42 83.84C229.42 83.84 228.56 83.5 227.84 82.82C227.16 82.1 226.82 81.24 226.82 80.24V38.06C226.82 36.94 227.16 36.04 227.84 35.36C228.52 34.68 229.4 34.3 230.48 34.22C231.84 34.18 233.74 34.16 236.18 34.16C238.62 34.12 240.64 34.1 242.24 34.1C245.24 34.1 247.9 34.64 250.22 35.72C252.58 36.8 254.4 38.32 255.68 40.28C257 42.24 257.66 44.48 257.66 47C257.66 52.12 255.1 55.54 249.98 57.26C253.38 58.7 255.22 61.24 255.5 64.88L255.74 67.64C255.82 68.92 255.96 70.7 256.16 72.98C256.4 75.38 256.96 76.9 257.84 77.54ZM234.02 53.12H242.18C245.06 53.12 247.16 52.66 248.48 51.74C249.8 50.82 250.46 49.24 250.46 47C250.46 45.2 249.74 43.8 248.3 42.8C246.86 41.8 244.84 41.3 242.24 41.3H234.02V53.12ZM307.622 78.5C307.822 78.98 307.922 79.36 307.922 79.64C307.922 80.68 307.562 81.58 306.842 82.34C306.162 83.06 305.302 83.42 304.262 83.42C303.542 83.42 302.862 83.22 302.222 82.82C301.622 82.42 301.182 81.88 300.902 81.2L296.222 69.08H277.922L273.302 81.26C273.062 81.9 272.622 82.42 271.982 82.82C271.382 83.22 270.702 83.42 269.942 83.42C268.902 83.42 268.042 83.06 267.362 82.34C266.682 81.62 266.342 80.76 266.342 79.76C266.342 79.44 266.442 79.04 266.642 78.56L283.982 36.44C284.302 35.68 284.722 35.1 285.242 34.7C285.802 34.3 286.382 34.1 286.982 34.1C287.662 34.1 288.302 34.3 288.902 34.7C289.502 35.1 289.962 35.7 290.282 36.5L307.622 78.5ZM286.562 46.52L280.502 62.42H293.642L287.522 46.52L287.042 44.84L286.562 46.52ZM336.271 75.98C337.271 75.98 338.111 76.34 338.791 77.06C339.511 77.74 339.871 78.58 339.871 79.58C339.871 80.58 339.511 81.44 338.791 82.16C338.111 82.84 337.271 83.18 336.271 83.18H320.191C319.071 83.18 318.151 82.82 317.431 82.1C316.711 81.38 316.351 80.46 316.351 79.34V37.76C316.351 36.76 316.691 35.92 317.371 35.24C318.091 34.52 318.951 34.16 319.951 34.16C320.951 34.16 321.791 34.52 322.471 35.24C323.191 35.92 323.551 36.76 323.551 37.76V75.98H336.271ZM416.735 77.6C416.975 78.176 417.095 78.632 417.095 78.968C417.095 80.216 416.663 81.296 415.799 82.208C414.983 83.072 413.951 83.504 412.703 83.504C411.839 83.504 411.023 83.264 410.255 82.784C409.535 82.304 409.007 81.656 408.671 80.84L403.055 66.296H381.095L375.551 80.912C375.263 81.68 374.735 82.304 373.967 82.784C373.247 83.264 372.431 83.504 371.519 83.504C370.271 83.504 369.239 83.072 368.423 82.208C367.607 81.344 367.199 80.312 367.199 79.112C367.199 78.728 367.319 78.248 367.559 77.672L388.367 27.128C388.751 26.216 389.255 25.52 389.879 25.04C390.551 24.56 391.247 24.32 391.967 24.32C392.783 24.32 393.551 24.56 394.271 25.04C394.991 25.52 395.543 26.24 395.927 27.2L416.735 77.6ZM391.463 39.224L384.191 58.304H399.959L392.615 39.224L392.039 37.208L391.463 39.224ZM459.429 35C460.429 35 461.269 35.36 461.949 36.08C462.669 36.76 463.029 37.6 463.029 38.6C463.029 39.6 462.669 40.46 461.949 41.18C461.269 41.86 460.429 42.2 459.429 42.2H447.249V80.24C447.249 81.24 446.849 82.1 446.049 82.82C445.289 83.5 444.389 83.84 443.349 83.84C442.309 83.84 441.409 83.5 440.649 82.82C439.889 82.1 439.509 81.24 439.509 80.24V42.2H427.269C426.269 42.2 425.409 41.86 424.689 41.18C424.009 40.46 423.669 39.6 423.669 38.6C423.669 37.6 424.009 36.76 424.689 36.08C425.409 35.36 426.269 35 427.269 35H459.429ZM503.14 35C504.14 35 504.98 35.36 505.66 36.08C506.38 36.76 506.74 37.6 506.74 38.6C506.74 39.6 506.38 40.46 505.66 41.18C504.98 41.86 504.14 42.2 503.14 42.2H490.96V80.24C490.96 81.24 490.56 82.1 489.76 82.82C489 83.5 488.1 83.84 487.06 83.84C486.02 83.84 485.12 83.5 484.36 82.82C483.6 82.1 483.22 81.24 483.22 80.24V42.2H470.98C469.98 42.2 469.12 41.86 468.4 41.18C467.72 40.46 467.38 39.6 467.38 38.6C467.38 37.6 467.72 36.76 468.4 36.08C469.12 35.36 469.98 35 470.98 35H503.14ZM552.791 70.94C553.791 70.94 554.631 71.3 555.311 72.02C556.031 72.7 556.391 73.54 556.391 74.54C556.391 75.5 556.051 76.36 555.371 77.12C553.531 79.08 550.951 80.7 547.631 81.98C544.311 83.22 541.011 83.84 537.731 83.84C532.971 83.84 528.671 82.8 524.831 80.72C520.991 78.64 517.971 75.72 515.771 71.96C513.571 68.2 512.471 63.88 512.471 59C512.471 54.16 513.571 49.84 515.771 46.04C517.971 42.24 520.991 39.3 524.831 37.22C528.671 35.1 532.971 34.04 537.731 34.04C541.011 34.04 544.291 34.7 547.571 36.02C550.851 37.34 553.431 39.08 555.311 41.24C555.991 42.04 556.331 42.9 556.331 43.82C556.331 44.82 555.971 45.68 555.251 46.4C554.531 47.08 553.671 47.42 552.671 47.42C552.191 47.42 551.711 47.32 551.231 47.12C550.751 46.92 550.371 46.64 550.091 46.28C548.931 44.88 547.211 43.78 544.931 42.98C542.651 42.18 540.251 41.78 537.731 41.78C533.291 41.78 529.551 42.9 526.511 45.14C523.511 47.34 521.571 50.44 520.691 54.44H539.411C540.411 54.44 541.251 54.8 541.931 55.52C542.651 56.2 543.011 57.04 543.011 58.04C543.011 59.04 542.651 59.9 541.931 60.62C541.251 61.3 540.411 61.64 539.411 61.64H520.391C520.911 66.16 522.731 69.72 525.851 72.32C529.011 74.88 532.971 76.16 537.731 76.16C540.491 76.16 543.011 75.8 545.291 75.08C547.571 74.36 549.171 73.42 550.091 72.26C550.411 71.86 550.811 71.54 551.291 71.3C551.811 71.06 552.311 70.94 552.791 70.94ZM567.785 83.96C566.745 83.96 565.845 83.6 565.085 82.88C564.325 82.16 563.945 81.32 563.945 80.36V38.12C563.945 37.08 564.345 36.18 565.145 35.42C565.985 34.62 566.965 34.22 568.085 34.22C569.325 34.22 570.365 34.76 571.205 35.84L598.205 69.08L598.685 70.04V37.34C598.685 36.38 599.065 35.54 599.825 34.82C600.585 34.1 601.485 33.74 602.525 33.74C603.565 33.74 604.465 34.1 605.225 34.82C606.025 35.54 606.425 36.38 606.425 37.34V79.28C606.425 80.32 606.005 81.24 605.165 82.04C604.325 82.8 603.345 83.18 602.225 83.18C601.665 83.18 601.105 83.04 600.545 82.76C599.985 82.44 599.505 82.04 599.105 81.56L572.165 48.5L571.685 47.48V80.36C571.685 81.32 571.285 82.16 570.485 82.88C569.725 83.6 568.825 83.96 567.785 83.96ZM620.114 83.54C618.954 83.54 617.974 83.18 617.174 82.46C616.414 81.7 616.034 80.78 616.034 79.7V38.3C616.034 37.22 616.414 36.32 617.174 35.6C617.974 34.84 618.954 34.46 620.114 34.46H630.074C635.194 34.46 639.834 35.48 643.994 37.52C648.154 39.56 651.414 42.38 653.774 45.98C656.174 49.54 657.374 53.58 657.374 58.1C657.374 62.78 656.174 67.06 653.774 70.94C651.374 74.82 648.094 77.9 643.934 80.18C639.774 82.42 635.154 83.54 630.074 83.54H620.114ZM623.774 75.8H630.074C633.834 75.8 637.194 75.08 640.154 73.64C643.154 72.16 645.474 70.08 647.114 67.4C648.794 64.72 649.634 61.62 649.634 58.1C649.634 54.94 648.794 52.16 647.114 49.76C645.474 47.36 643.154 45.5 640.154 44.18C637.194 42.86 633.834 42.2 630.074 42.2H623.774V75.8ZM704.9 70.94C705.9 70.94 706.74 71.3 707.42 72.02C708.14 72.7 708.5 73.54 708.5 74.54C708.5 75.5 708.16 76.36 707.48 77.12C705.64 79.08 703.06 80.7 699.74 81.98C696.42 83.22 693.12 83.84 689.84 83.84C685.08 83.84 680.78 82.8 676.94 80.72C673.1 78.64 670.08 75.72 667.88 71.96C665.68 68.2 664.58 63.88 664.58 59C664.58 54.16 665.68 49.84 667.88 46.04C670.08 42.24 673.1 39.3 676.94 37.22C680.78 35.1 685.08 34.04 689.84 34.04C693.12 34.04 696.4 34.7 699.68 36.02C702.96 37.34 705.54 39.08 707.42 41.24C708.1 42.04 708.44 42.9 708.44 43.82C708.44 44.82 708.08 45.68 707.36 46.4C706.64 47.08 705.78 47.42 704.78 47.42C704.3 47.42 703.82 47.32 703.34 47.12C702.86 46.92 702.48 46.64 702.2 46.28C701.04 44.88 699.32 43.78 697.04 42.98C694.76 42.18 692.36 41.78 689.84 41.78C685.4 41.78 681.66 42.9 678.62 45.14C675.62 47.34 673.68 50.44 672.8 54.44H691.52C692.52 54.44 693.36 54.8 694.04 55.52C694.76 56.2 695.12 57.04 695.12 58.04C695.12 59.04 694.76 59.9 694.04 60.62C693.36 61.3 692.52 61.64 691.52 61.64H672.5C673.02 66.16 674.84 69.72 677.96 72.32C681.12 74.88 685.08 76.16 689.84 76.16C692.6 76.16 695.12 75.8 697.4 75.08C699.68 74.36 701.28 73.42 702.2 72.26C702.52 71.86 702.92 71.54 703.4 71.3C703.92 71.06 704.42 70.94 704.9 70.94ZM755.174 70.94C756.174 70.94 757.014 71.3 757.694 72.02C758.414 72.7 758.774 73.54 758.774 74.54C758.774 75.5 758.434 76.36 757.754 77.12C755.914 79.08 753.334 80.7 750.014 81.98C746.694 83.22 743.394 83.84 740.114 83.84C735.354 83.84 731.054 82.8 727.214 80.72C723.374 78.64 720.354 75.72 718.154 71.96C715.954 68.2 714.854 63.88 714.854 59C714.854 54.16 715.954 49.84 718.154 46.04C720.354 42.24 723.374 39.3 727.214 37.22C731.054 35.1 735.354 34.04 740.114 34.04C743.394 34.04 746.674 34.7 749.954 36.02C753.234 37.34 755.814 39.08 757.694 41.24C758.374 42.04 758.714 42.9 758.714 43.82C758.714 44.82 758.354 45.68 757.634 46.4C756.914 47.08 756.054 47.42 755.054 47.42C754.574 47.42 754.094 47.32 753.614 47.12C753.134 46.92 752.754 46.64 752.474 46.28C751.314 44.88 749.594 43.78 747.314 42.98C745.034 42.18 742.634 41.78 740.114 41.78C735.674 41.78 731.934 42.9 728.894 45.14C725.894 47.34 723.954 50.44 723.074 54.44H741.794C742.794 54.44 743.634 54.8 744.314 55.52C745.034 56.2 745.394 57.04 745.394 58.04C745.394 59.04 745.034 59.9 744.314 60.62C743.634 61.3 742.794 61.64 741.794 61.64H722.774C723.294 66.16 725.114 69.72 728.234 72.32C731.394 74.88 735.354 76.16 740.114 76.16C742.874 76.16 745.394 75.8 747.674 75.08C749.954 74.36 751.554 73.42 752.474 72.26C752.794 71.86 753.194 71.54 753.674 71.3C754.194 71.06 754.694 70.94 755.174 70.94Z" fill="white"/>
</g>
<defs>
<filter id="filter0_f_3400_1634" x="0" y="14.104" width="768.773" height="80.624" filterUnits="userSpaceOnUse" color-interpolation-filters="sRGB">
<feFlood flood-opacity="0" result="BackgroundImageFix"/>
<feBlend mode="normal" in="SourceGraphic" in2="BackgroundImageFix" result="shape"/>
<feGaussianBlur stdDeviation="5" result="effect1_foregroundBlur_3400_1634"/>
</filter>
</defs>
</svg>
