<svg width="563" height="104" viewBox="0 0 563 104" fill="none" xmlns="http://www.w3.org/2000/svg">
<path d="M51.1842 24.968C52.4322 24.968 53.5122 25.4 54.4242 26.264C55.3842 27.08 55.8642 28.088 55.8642 29.288V79.688C55.8642 80.888 55.3842 81.92 54.4242 82.784C53.5122 83.6 52.4322 84.008 51.1842 84.008C49.9362 84.008 48.8562 83.6 47.9442 82.784C47.0322 81.92 46.5762 80.888 46.5762 79.688V56H19.2882V79.688C19.2882 80.888 18.8082 81.92 17.8482 82.784C16.9362 83.6 15.8562 84.008 14.6082 84.008C13.3602 84.008 12.2802 83.6 11.3682 82.784C10.4562 81.92 10.0002 80.888 10.0002 79.688V29.288C10.0002 28.088 10.4562 27.08 11.3682 26.264C12.2802 25.4 13.3602 24.968 14.6082 24.968C15.8562 24.968 16.9362 25.4 17.8482 26.264C18.8082 27.08 19.2882 28.088 19.2882 29.288V47.36H46.5762V29.288C46.5762 28.088 47.0322 27.08 47.9442 26.264C48.8562 25.4 49.9362 24.968 51.1842 24.968ZM106.495 78.5C106.695 78.98 106.795 79.36 106.795 79.64C106.795 80.68 106.435 81.58 105.715 82.34C105.035 83.06 104.175 83.42 103.135 83.42C102.415 83.42 101.735 83.22 101.095 82.82C100.495 82.42 100.055 81.88 99.7752 81.2L95.0952 69.08H76.7952L72.1752 81.26C71.9352 81.9 71.4952 82.42 70.8552 82.82C70.2552 83.22 69.5752 83.42 68.8152 83.42C67.7752 83.42 66.9152 83.06 66.2352 82.34C65.5552 81.62 65.2152 80.76 65.2152 79.76C65.2152 79.44 65.3152 79.04 65.5152 78.56L82.8552 36.44C83.1752 35.68 83.5952 35.1 84.1152 34.7C84.6752 34.3 85.2552 34.1 85.8552 34.1C86.5352 34.1 87.1752 34.3 87.7752 34.7C88.3752 35.1 88.8352 35.7 89.1552 36.5L106.495 78.5ZM85.4352 46.52L79.3752 62.42H92.5152L86.3952 46.52L85.9152 44.84L85.4352 46.52ZM151.644 72.26C151.964 71.86 152.364 71.54 152.844 71.3C153.364 71.06 153.864 70.94 154.344 70.94C155.344 70.94 156.184 71.3 156.864 72.02C157.584 72.7 157.944 73.54 157.944 74.54C157.944 75.5 157.604 76.36 156.924 77.12C155.084 79.08 152.504 80.7 149.184 81.98C145.864 83.22 142.564 83.84 139.284 83.84C134.524 83.84 130.224 82.8 126.384 80.72C122.544 78.64 119.524 75.72 117.324 71.96C115.124 68.2 114.024 63.88 114.024 59C114.024 54.16 115.124 49.84 117.324 46.04C119.524 42.24 122.544 39.3 126.384 37.22C130.224 35.1 134.524 34.04 139.284 34.04C142.564 34.04 145.844 34.7 149.124 36.02C152.404 37.34 154.984 39.08 156.864 41.24C157.544 42.04 157.884 42.9 157.884 43.82C157.884 44.82 157.524 45.68 156.804 46.4C156.084 47.08 155.224 47.42 154.224 47.42C153.744 47.42 153.264 47.32 152.784 47.12C152.304 46.92 151.924 46.64 151.644 46.28C150.484 44.88 148.764 43.78 146.484 42.98C144.204 42.18 141.804 41.78 139.284 41.78C135.844 41.78 132.784 42.48 130.104 43.88C127.464 45.24 125.404 47.22 123.924 49.82C122.484 52.38 121.764 55.44 121.764 59C121.764 62.52 122.504 65.58 123.984 68.18C125.464 70.74 127.524 72.72 130.164 74.12C132.804 75.48 135.844 76.16 139.284 76.16C142.044 76.16 144.564 75.8 146.844 75.08C149.124 74.36 150.724 73.42 151.644 72.26ZM198.677 77.96C199.037 78.32 199.317 78.74 199.517 79.22C199.757 79.7 199.877 80.18 199.877 80.66C199.877 81.66 199.517 82.5 198.797 83.18C198.117 83.9 197.277 84.26 196.277 84.26C195.357 84.26 194.557 83.96 193.877 83.36L172.697 63.5V80.24C172.697 81.24 172.337 82.1 171.617 82.82C170.937 83.5 170.097 83.84 169.097 83.84C168.097 83.84 167.237 83.5 166.517 82.82C165.837 82.1 165.497 81.24 165.497 80.24V37.58C165.497 36.58 165.837 35.74 166.517 35.06C167.237 34.34 168.097 33.98 169.097 33.98C170.097 33.98 170.937 34.34 171.617 35.06C172.337 35.74 172.697 36.58 172.697 37.58V52.1L193.457 34.46C194.137 33.86 194.937 33.56 195.857 33.56C196.817 33.56 197.637 33.92 198.317 34.64C199.037 35.32 199.397 36.16 199.397 37.16C199.397 38.32 198.997 39.24 198.197 39.92L177.197 57.5C177.077 57.54 176.997 57.62 176.957 57.74L177.197 57.92L198.677 77.96Z" fill="white"/>
<path d="M256.875 23.96C258.123 23.96 259.155 24.392 259.971 25.256C260.835 26.072 261.267 27.056 261.267 28.208C261.267 28.88 261.147 29.456 260.907 29.936L237.507 81.488C237.075 82.448 236.499 83.144 235.779 83.576C235.059 84.056 234.291 84.296 233.475 84.296C232.803 84.296 232.155 84.032 231.531 83.504C230.907 83.024 230.379 82.328 229.947 81.416L206.979 29.504C206.739 29.024 206.619 28.448 206.619 27.776C206.619 26.48 207.027 25.472 207.843 24.752C208.707 23.984 209.763 23.6 211.011 23.6C211.971 23.6 212.835 23.864 213.603 24.392C214.419 24.872 215.019 25.52 215.403 26.336L223.539 45.128L233.043 67.16L233.763 69.248L234.483 67.232L252.843 26.048C253.179 25.328 253.659 24.8 254.283 24.464C254.955 24.128 255.819 23.96 256.875 23.96ZM293.72 84.74C289.08 84.74 284.9 83.68 281.18 81.56C277.46 79.4 274.52 76.4 272.36 72.56C270.24 68.72 269.18 64.34 269.18 59.42C269.18 54.5 270.24 50.12 272.36 46.28C274.52 42.44 277.46 39.46 281.18 37.34C284.9 35.18 289.08 34.1 293.72 34.1C298.36 34.1 302.54 35.18 306.26 37.34C309.98 39.46 312.9 42.44 315.02 46.28C317.14 50.12 318.2 54.5 318.2 59.42C318.2 64.34 317.14 68.72 315.02 72.56C312.9 76.4 309.98 79.4 306.26 81.56C302.54 83.68 298.36 84.74 293.72 84.74ZM293.72 77C296.92 77 299.78 76.28 302.3 74.84C304.86 73.36 306.86 71.3 308.3 68.66C309.74 65.98 310.46 62.9 310.46 59.42C310.46 55.94 309.74 52.88 308.3 50.24C306.86 47.56 304.86 45.5 302.3 44.06C299.78 42.58 296.92 41.84 293.72 41.84C290.52 41.84 287.64 42.58 285.08 44.06C282.52 45.5 280.52 47.56 279.08 50.24C277.64 52.88 276.92 55.94 276.92 59.42C276.92 62.9 277.64 65.98 279.08 68.66C280.52 71.3 282.52 73.36 285.08 74.84C287.64 76.28 290.52 77 293.72 77ZM363.711 37.58C363.711 38.18 363.511 38.84 363.111 39.56L348.171 63.62V80.12C348.171 81.24 347.811 82.2 347.091 83C346.371 83.76 345.491 84.14 344.451 84.14C343.411 84.14 342.511 83.76 341.751 83C341.031 82.2 340.671 81.24 340.671 80.12V63.62L325.911 39.14C325.551 38.54 325.371 37.9 325.371 37.22C325.371 36.26 325.731 35.38 326.451 34.58C327.211 33.74 328.091 33.32 329.091 33.32C329.771 33.32 330.451 33.52 331.131 33.92C331.811 34.32 332.331 34.8 332.691 35.36C334.051 37.76 336.151 41.4 338.991 46.28C341.871 51.16 343.631 54.06 344.271 54.98L344.511 55.58L344.691 54.98C346.051 52.86 347.971 49.76 350.451 45.68C352.931 41.56 354.911 38.24 356.391 35.72C356.751 35.12 357.271 34.62 357.951 34.22C358.671 33.82 359.391 33.62 360.111 33.62C361.151 33.62 362.011 34.02 362.691 34.82C363.371 35.58 363.711 36.5 363.711 37.58ZM407.901 78.5C408.101 78.98 408.201 79.36 408.201 79.64C408.201 80.68 407.841 81.58 407.121 82.34C406.441 83.06 405.581 83.42 404.541 83.42C403.821 83.42 403.141 83.22 402.501 82.82C401.901 82.42 401.461 81.88 401.181 81.2L396.501 69.08H378.201L373.581 81.26C373.341 81.9 372.901 82.42 372.261 82.82C371.661 83.22 370.981 83.42 370.221 83.42C369.181 83.42 368.321 83.06 367.641 82.34C366.961 81.62 366.621 80.76 366.621 79.76C366.621 79.44 366.721 79.04 366.921 78.56L384.261 36.44C384.581 35.68 385.001 35.1 385.521 34.7C386.081 34.3 386.661 34.1 387.261 34.1C387.941 34.1 388.581 34.3 389.181 34.7C389.781 35.1 390.241 35.7 390.561 36.5L407.901 78.5ZM386.841 46.52L380.781 62.42H393.921L387.801 46.52L387.321 44.84L386.841 46.52ZM440.33 84.44C435.57 84.44 431.29 83.38 427.49 81.26C423.73 79.14 420.77 76.16 418.61 72.32C416.49 68.44 415.43 64.02 415.43 59.06C415.43 54.3 416.57 50.02 418.85 46.22C421.13 42.38 424.23 39.38 428.15 37.22C432.07 35.02 436.43 33.92 441.23 33.92C444.59 33.92 448.01 34.64 451.49 36.08C454.97 37.52 457.65 39.4 459.53 41.72C459.77 42.04 459.97 42.42 460.13 42.86C460.29 43.26 460.37 43.64 460.37 44C460.37 45 460.03 45.86 459.35 46.58C458.67 47.26 457.81 47.6 456.77 47.6C456.33 47.6 455.83 47.48 455.27 47.24C454.75 47 454.35 46.7 454.07 46.34C452.87 44.9 450.97 43.68 448.37 42.68C445.77 41.64 443.39 41.12 441.23 41.12C437.83 41.12 434.75 41.88 431.99 43.4C429.23 44.92 427.07 47.04 425.51 49.76C423.95 52.48 423.17 55.58 423.17 59.06C423.17 62.7 423.89 65.86 425.33 68.54C426.77 71.22 428.77 73.26 431.33 74.66C433.93 76.06 436.93 76.76 440.33 76.76C443.21 76.76 445.75 76.4 447.95 75.68C450.19 74.92 451.91 73.9 453.11 72.62C454.35 71.3 454.97 69.84 454.97 68.24C454.97 66.4 454.33 64.92 453.05 63.8C451.81 62.64 450.11 62.06 447.95 62.06C446.15 62.06 444.21 62.18 442.13 62.42C441.93 62.46 441.57 62.48 441.05 62.48C439.93 62.48 439.03 62.18 438.35 61.58C437.67 60.98 437.33 60.16 437.33 59.12C437.33 57 438.79 55.7 441.71 55.22C442.27 55.14 443.17 55.06 444.41 54.98C445.69 54.9 446.83 54.86 447.83 54.86C450.71 54.86 453.23 55.44 455.39 56.6C457.55 57.72 459.21 59.3 460.37 61.34C461.57 63.34 462.17 65.64 462.17 68.24C462.17 71.24 461.23 73.98 459.35 76.46C457.47 78.94 454.85 80.9 451.49 82.34C448.17 83.74 444.45 84.44 440.33 84.44ZM508.836 70.94C509.836 70.94 510.676 71.3 511.356 72.02C512.076 72.7 512.436 73.54 512.436 74.54C512.436 75.5 512.096 76.36 511.416 77.12C509.576 79.08 506.996 80.7 503.676 81.98C500.356 83.22 497.056 83.84 493.776 83.84C489.016 83.84 484.716 82.8 480.876 80.72C477.036 78.64 474.016 75.72 471.816 71.96C469.616 68.2 468.516 63.88 468.516 59C468.516 54.16 469.616 49.84 471.816 46.04C474.016 42.24 477.036 39.3 480.876 37.22C484.716 35.1 489.016 34.04 493.776 34.04C497.056 34.04 500.336 34.7 503.616 36.02C506.896 37.34 509.476 39.08 511.356 41.24C512.036 42.04 512.376 42.9 512.376 43.82C512.376 44.82 512.016 45.68 511.296 46.4C510.576 47.08 509.716 47.42 508.716 47.42C508.236 47.42 507.756 47.32 507.276 47.12C506.796 46.92 506.416 46.64 506.136 46.28C504.976 44.88 503.256 43.78 500.976 42.98C498.696 42.18 496.296 41.78 493.776 41.78C489.336 41.78 485.596 42.9 482.556 45.14C479.556 47.34 477.616 50.44 476.736 54.44H495.456C496.456 54.44 497.296 54.8 497.976 55.52C498.696 56.2 499.056 57.04 499.056 58.04C499.056 59.04 498.696 59.9 497.976 60.62C497.296 61.3 496.456 61.64 495.456 61.64H476.436C476.956 66.16 478.776 69.72 481.896 72.32C485.056 74.88 489.016 76.16 493.776 76.16C496.536 76.16 499.056 75.8 501.336 75.08C503.616 74.36 505.216 73.42 506.136 72.26C506.456 71.86 506.856 71.54 507.336 71.3C507.856 71.06 508.356 70.94 508.836 70.94ZM551.009 77.54C551.409 77.86 551.829 78.36 552.269 79.04C552.749 79.72 552.989 80.36 552.989 80.96C552.989 81.96 552.649 82.76 551.969 83.36C551.289 83.96 550.429 84.26 549.389 84.26C548.389 84.26 547.649 84.1 547.169 83.78C545.569 82.9 544.409 81.72 543.689 80.24C542.969 78.72 542.449 76.54 542.129 73.7C542.009 72.5 541.889 71.1 541.769 69.5C541.649 67.86 541.549 66.52 541.469 65.48C541.389 63.6 540.349 62.18 538.349 61.22C536.389 60.26 533.989 59.78 531.149 59.78H527.189V80.24C527.189 81.24 526.829 82.1 526.109 82.82C525.429 83.5 524.589 83.84 523.589 83.84C522.589 83.84 521.729 83.5 521.009 82.82C520.329 82.1 519.989 81.24 519.989 80.24V38.06C519.989 36.94 520.329 36.04 521.009 35.36C521.689 34.68 522.569 34.3 523.649 34.22C525.009 34.18 526.909 34.16 529.349 34.16C531.789 34.12 533.809 34.1 535.409 34.1C538.409 34.1 541.069 34.64 543.389 35.72C545.749 36.8 547.569 38.32 548.849 40.28C550.169 42.24 550.829 44.48 550.829 47C550.829 52.12 548.269 55.54 543.149 57.26C546.549 58.7 548.389 61.24 548.669 64.88L548.909 67.64C548.989 68.92 549.129 70.7 549.329 72.98C549.569 75.38 550.129 76.9 551.009 77.54ZM527.189 53.12H535.349C538.229 53.12 540.329 52.66 541.649 51.74C542.969 50.82 543.629 49.24 543.629 47C543.629 45.2 542.909 43.8 541.469 42.8C540.029 41.8 538.009 41.3 535.409 41.3H527.189V53.12Z" fill="url(#paint0_linear_3400_1174)"/>
<g filter="url(#filter0_f_3400_1174)">
<path d="M51.1842 24.968C52.4322 24.968 53.5122 25.4 54.4242 26.264C55.3842 27.08 55.8642 28.088 55.8642 29.288V79.688C55.8642 80.888 55.3842 81.92 54.4242 82.784C53.5122 83.6 52.4322 84.008 51.1842 84.008C49.9362 84.008 48.8562 83.6 47.9442 82.784C47.0322 81.92 46.5762 80.888 46.5762 79.688V56H19.2882V79.688C19.2882 80.888 18.8082 81.92 17.8482 82.784C16.9362 83.6 15.8562 84.008 14.6082 84.008C13.3602 84.008 12.2802 83.6 11.3682 82.784C10.4562 81.92 10.0002 80.888 10.0002 79.688V29.288C10.0002 28.088 10.4562 27.08 11.3682 26.264C12.2802 25.4 13.3602 24.968 14.6082 24.968C15.8562 24.968 16.9362 25.4 17.8482 26.264C18.8082 27.08 19.2882 28.088 19.2882 29.288V47.36H46.5762V29.288C46.5762 28.088 47.0322 27.08 47.9442 26.264C48.8562 25.4 49.9362 24.968 51.1842 24.968ZM106.495 78.5C106.695 78.98 106.795 79.36 106.795 79.64C106.795 80.68 106.435 81.58 105.715 82.34C105.035 83.06 104.175 83.42 103.135 83.42C102.415 83.42 101.735 83.22 101.095 82.82C100.495 82.42 100.055 81.88 99.7752 81.2L95.0952 69.08H76.7952L72.1752 81.26C71.9352 81.9 71.4952 82.42 70.8552 82.82C70.2552 83.22 69.5752 83.42 68.8152 83.42C67.7752 83.42 66.9152 83.06 66.2352 82.34C65.5552 81.62 65.2152 80.76 65.2152 79.76C65.2152 79.44 65.3152 79.04 65.5152 78.56L82.8552 36.44C83.1752 35.68 83.5952 35.1 84.1152 34.7C84.6752 34.3 85.2552 34.1 85.8552 34.1C86.5352 34.1 87.1752 34.3 87.7752 34.7C88.3752 35.1 88.8352 35.7 89.1552 36.5L106.495 78.5ZM85.4352 46.52L79.3752 62.42H92.5152L86.3952 46.52L85.9152 44.84L85.4352 46.52ZM151.644 72.26C151.964 71.86 152.364 71.54 152.844 71.3C153.364 71.06 153.864 70.94 154.344 70.94C155.344 70.94 156.184 71.3 156.864 72.02C157.584 72.7 157.944 73.54 157.944 74.54C157.944 75.5 157.604 76.36 156.924 77.12C155.084 79.08 152.504 80.7 149.184 81.98C145.864 83.22 142.564 83.84 139.284 83.84C134.524 83.84 130.224 82.8 126.384 80.72C122.544 78.64 119.524 75.72 117.324 71.96C115.124 68.2 114.024 63.88 114.024 59C114.024 54.16 115.124 49.84 117.324 46.04C119.524 42.24 122.544 39.3 126.384 37.22C130.224 35.1 134.524 34.04 139.284 34.04C142.564 34.04 145.844 34.7 149.124 36.02C152.404 37.34 154.984 39.08 156.864 41.24C157.544 42.04 157.884 42.9 157.884 43.82C157.884 44.82 157.524 45.68 156.804 46.4C156.084 47.08 155.224 47.42 154.224 47.42C153.744 47.42 153.264 47.32 152.784 47.12C152.304 46.92 151.924 46.64 151.644 46.28C150.484 44.88 148.764 43.78 146.484 42.98C144.204 42.18 141.804 41.78 139.284 41.78C135.844 41.78 132.784 42.48 130.104 43.88C127.464 45.24 125.404 47.22 123.924 49.82C122.484 52.38 121.764 55.44 121.764 59C121.764 62.52 122.504 65.58 123.984 68.18C125.464 70.74 127.524 72.72 130.164 74.12C132.804 75.48 135.844 76.16 139.284 76.16C142.044 76.16 144.564 75.8 146.844 75.08C149.124 74.36 150.724 73.42 151.644 72.26ZM198.677 77.96C199.037 78.32 199.317 78.74 199.517 79.22C199.757 79.7 199.877 80.18 199.877 80.66C199.877 81.66 199.517 82.5 198.797 83.18C198.117 83.9 197.277 84.26 196.277 84.26C195.357 84.26 194.557 83.96 193.877 83.36L172.697 63.5V80.24C172.697 81.24 172.337 82.1 171.617 82.82C170.937 83.5 170.097 83.84 169.097 83.84C168.097 83.84 167.237 83.5 166.517 82.82C165.837 82.1 165.497 81.24 165.497 80.24V37.58C165.497 36.58 165.837 35.74 166.517 35.06C167.237 34.34 168.097 33.98 169.097 33.98C170.097 33.98 170.937 34.34 171.617 35.06C172.337 35.74 172.697 36.58 172.697 37.58V52.1L193.457 34.46C194.137 33.86 194.937 33.56 195.857 33.56C196.817 33.56 197.637 33.92 198.317 34.64C199.037 35.32 199.397 36.16 199.397 37.16C199.397 38.32 198.997 39.24 198.197 39.92L177.197 57.5C177.077 57.54 176.997 57.62 176.957 57.74L177.197 57.92L198.677 77.96Z" fill="white"/>
<path d="M256.875 23.96C258.123 23.96 259.155 24.392 259.971 25.256C260.835 26.072 261.267 27.056 261.267 28.208C261.267 28.88 261.147 29.456 260.907 29.936L237.507 81.488C237.075 82.448 236.499 83.144 235.779 83.576C235.059 84.056 234.291 84.296 233.475 84.296C232.803 84.296 232.155 84.032 231.531 83.504C230.907 83.024 230.379 82.328 229.947 81.416L206.979 29.504C206.739 29.024 206.619 28.448 206.619 27.776C206.619 26.48 207.027 25.472 207.843 24.752C208.707 23.984 209.763 23.6 211.011 23.6C211.971 23.6 212.835 23.864 213.603 24.392C214.419 24.872 215.019 25.52 215.403 26.336L223.539 45.128L233.043 67.16L233.763 69.248L234.483 67.232L252.843 26.048C253.179 25.328 253.659 24.8 254.283 24.464C254.955 24.128 255.819 23.96 256.875 23.96ZM293.72 84.74C289.08 84.74 284.9 83.68 281.18 81.56C277.46 79.4 274.52 76.4 272.36 72.56C270.24 68.72 269.18 64.34 269.18 59.42C269.18 54.5 270.24 50.12 272.36 46.28C274.52 42.44 277.46 39.46 281.18 37.34C284.9 35.18 289.08 34.1 293.72 34.1C298.36 34.1 302.54 35.18 306.26 37.34C309.98 39.46 312.9 42.44 315.02 46.28C317.14 50.12 318.2 54.5 318.2 59.42C318.2 64.34 317.14 68.72 315.02 72.56C312.9 76.4 309.98 79.4 306.26 81.56C302.54 83.68 298.36 84.74 293.72 84.74ZM293.72 77C296.92 77 299.78 76.28 302.3 74.84C304.86 73.36 306.86 71.3 308.3 68.66C309.74 65.98 310.46 62.9 310.46 59.42C310.46 55.94 309.74 52.88 308.3 50.24C306.86 47.56 304.86 45.5 302.3 44.06C299.78 42.58 296.92 41.84 293.72 41.84C290.52 41.84 287.64 42.58 285.08 44.06C282.52 45.5 280.52 47.56 279.08 50.24C277.64 52.88 276.92 55.94 276.92 59.42C276.92 62.9 277.64 65.98 279.08 68.66C280.52 71.3 282.52 73.36 285.08 74.84C287.64 76.28 290.52 77 293.72 77ZM363.711 37.58C363.711 38.18 363.511 38.84 363.111 39.56L348.171 63.62V80.12C348.171 81.24 347.811 82.2 347.091 83C346.371 83.76 345.491 84.14 344.451 84.14C343.411 84.14 342.511 83.76 341.751 83C341.031 82.2 340.671 81.24 340.671 80.12V63.62L325.911 39.14C325.551 38.54 325.371 37.9 325.371 37.22C325.371 36.26 325.731 35.38 326.451 34.58C327.211 33.74 328.091 33.32 329.091 33.32C329.771 33.32 330.451 33.52 331.131 33.92C331.811 34.32 332.331 34.8 332.691 35.36C334.051 37.76 336.151 41.4 338.991 46.28C341.871 51.16 343.631 54.06 344.271 54.98L344.511 55.58L344.691 54.98C346.051 52.86 347.971 49.76 350.451 45.68C352.931 41.56 354.911 38.24 356.391 35.72C356.751 35.12 357.271 34.62 357.951 34.22C358.671 33.82 359.391 33.62 360.111 33.62C361.151 33.62 362.011 34.02 362.691 34.82C363.371 35.58 363.711 36.5 363.711 37.58ZM407.901 78.5C408.101 78.98 408.201 79.36 408.201 79.64C408.201 80.68 407.841 81.58 407.121 82.34C406.441 83.06 405.581 83.42 404.541 83.42C403.821 83.42 403.141 83.22 402.501 82.82C401.901 82.42 401.461 81.88 401.181 81.2L396.501 69.08H378.201L373.581 81.26C373.341 81.9 372.901 82.42 372.261 82.82C371.661 83.22 370.981 83.42 370.221 83.42C369.181 83.42 368.321 83.06 367.641 82.34C366.961 81.62 366.621 80.76 366.621 79.76C366.621 79.44 366.721 79.04 366.921 78.56L384.261 36.44C384.581 35.68 385.001 35.1 385.521 34.7C386.081 34.3 386.661 34.1 387.261 34.1C387.941 34.1 388.581 34.3 389.181 34.7C389.781 35.1 390.241 35.7 390.561 36.5L407.901 78.5ZM386.841 46.52L380.781 62.42H393.921L387.801 46.52L387.321 44.84L386.841 46.52ZM440.33 84.44C435.57 84.44 431.29 83.38 427.49 81.26C423.73 79.14 420.77 76.16 418.61 72.32C416.49 68.44 415.43 64.02 415.43 59.06C415.43 54.3 416.57 50.02 418.85 46.22C421.13 42.38 424.23 39.38 428.15 37.22C432.07 35.02 436.43 33.92 441.23 33.92C444.59 33.92 448.01 34.64 451.49 36.08C454.97 37.52 457.65 39.4 459.53 41.72C459.77 42.04 459.97 42.42 460.13 42.86C460.29 43.26 460.37 43.64 460.37 44C460.37 45 460.03 45.86 459.35 46.58C458.67 47.26 457.81 47.6 456.77 47.6C456.33 47.6 455.83 47.48 455.27 47.24C454.75 47 454.35 46.7 454.07 46.34C452.87 44.9 450.97 43.68 448.37 42.68C445.77 41.64 443.39 41.12 441.23 41.12C437.83 41.12 434.75 41.88 431.99 43.4C429.23 44.92 427.07 47.04 425.51 49.76C423.95 52.48 423.17 55.58 423.17 59.06C423.17 62.7 423.89 65.86 425.33 68.54C426.77 71.22 428.77 73.26 431.33 74.66C433.93 76.06 436.93 76.76 440.33 76.76C443.21 76.76 445.75 76.4 447.95 75.68C450.19 74.92 451.91 73.9 453.11 72.62C454.35 71.3 454.97 69.84 454.97 68.24C454.97 66.4 454.33 64.92 453.05 63.8C451.81 62.64 450.11 62.06 447.95 62.06C446.15 62.06 444.21 62.18 442.13 62.42C441.93 62.46 441.57 62.48 441.05 62.48C439.93 62.48 439.03 62.18 438.35 61.58C437.67 60.98 437.33 60.16 437.33 59.12C437.33 57 438.79 55.7 441.71 55.22C442.27 55.14 443.17 55.06 444.41 54.98C445.69 54.9 446.83 54.86 447.83 54.86C450.71 54.86 453.23 55.44 455.39 56.6C457.55 57.72 459.21 59.3 460.37 61.34C461.57 63.34 462.17 65.64 462.17 68.24C462.17 71.24 461.23 73.98 459.35 76.46C457.47 78.94 454.85 80.9 451.49 82.34C448.17 83.74 444.45 84.44 440.33 84.44ZM508.836 70.94C509.836 70.94 510.676 71.3 511.356 72.02C512.076 72.7 512.436 73.54 512.436 74.54C512.436 75.5 512.096 76.36 511.416 77.12C509.576 79.08 506.996 80.7 503.676 81.98C500.356 83.22 497.056 83.84 493.776 83.84C489.016 83.84 484.716 82.8 480.876 80.72C477.036 78.64 474.016 75.72 471.816 71.96C469.616 68.2 468.516 63.88 468.516 59C468.516 54.16 469.616 49.84 471.816 46.04C474.016 42.24 477.036 39.3 480.876 37.22C484.716 35.1 489.016 34.04 493.776 34.04C497.056 34.04 500.336 34.7 503.616 36.02C506.896 37.34 509.476 39.08 511.356 41.24C512.036 42.04 512.376 42.9 512.376 43.82C512.376 44.82 512.016 45.68 511.296 46.4C510.576 47.08 509.716 47.42 508.716 47.42C508.236 47.42 507.756 47.32 507.276 47.12C506.796 46.92 506.416 46.64 506.136 46.28C504.976 44.88 503.256 43.78 500.976 42.98C498.696 42.18 496.296 41.78 493.776 41.78C489.336 41.78 485.596 42.9 482.556 45.14C479.556 47.34 477.616 50.44 476.736 54.44H495.456C496.456 54.44 497.296 54.8 497.976 55.52C498.696 56.2 499.056 57.04 499.056 58.04C499.056 59.04 498.696 59.9 497.976 60.62C497.296 61.3 496.456 61.64 495.456 61.64H476.436C476.956 66.16 478.776 69.72 481.896 72.32C485.056 74.88 489.016 76.16 493.776 76.16C496.536 76.16 499.056 75.8 501.336 75.08C503.616 74.36 505.216 73.42 506.136 72.26C506.456 71.86 506.856 71.54 507.336 71.3C507.856 71.06 508.356 70.94 508.836 70.94ZM551.009 77.54C551.409 77.86 551.829 78.36 552.269 79.04C552.749 79.72 552.989 80.36 552.989 80.96C552.989 81.96 552.649 82.76 551.969 83.36C551.289 83.96 550.429 84.26 549.389 84.26C548.389 84.26 547.649 84.1 547.169 83.78C545.569 82.9 544.409 81.72 543.689 80.24C542.969 78.72 542.449 76.54 542.129 73.7C542.009 72.5 541.889 71.1 541.769 69.5C541.649 67.86 541.549 66.52 541.469 65.48C541.389 63.6 540.349 62.18 538.349 61.22C536.389 60.26 533.989 59.78 531.149 59.78H527.189V80.24C527.189 81.24 526.829 82.1 526.109 82.82C525.429 83.5 524.589 83.84 523.589 83.84C522.589 83.84 521.729 83.5 521.009 82.82C520.329 82.1 519.989 81.24 519.989 80.24V38.06C519.989 36.94 520.329 36.04 521.009 35.36C521.689 34.68 522.569 34.3 523.649 34.22C525.009 34.18 526.909 34.16 529.349 34.16C531.789 34.12 533.809 34.1 535.409 34.1C538.409 34.1 541.069 34.64 543.389 35.72C545.749 36.8 547.569 38.32 548.849 40.28C550.169 42.24 550.829 44.48 550.829 47C550.829 52.12 548.269 55.54 543.149 57.26C546.549 58.7 548.389 61.24 548.669 64.88L548.909 67.64C548.989 68.92 549.129 70.7 549.329 72.98C549.569 75.38 550.129 76.9 551.009 77.54ZM527.189 53.12H535.349C538.229 53.12 540.329 52.66 541.649 51.74C542.969 50.82 543.629 49.24 543.629 47C543.629 45.2 542.909 43.8 541.469 42.8C540.029 41.8 538.009 41.3 535.409 41.3H527.189V53.12Z" fill="url(#paint1_linear_3400_1174)"/>
</g>
<defs>
<filter id="filter0_f_3400_1174" x="0" y="13.6001" width="562.99" height="81.1399" filterUnits="userSpaceOnUse" color-interpolation-filters="sRGB">
<feFlood flood-opacity="0" result="BackgroundImageFix"/>
<feBlend mode="normal" in="SourceGraphic" in2="BackgroundImageFix" result="shape"/>
<feGaussianBlur stdDeviation="5" result="effect1_foregroundBlur_3400_1174"/>
</filter>
<linearGradient id="paint0_linear_3400_1174" x1="4.07617" y1="52" x2="556.076" y2="52" gradientUnits="userSpaceOnUse">
<stop offset="0.326923" stop-color="#FEB963"/>
<stop offset="0.677885" stop-color="#FF61E2"/>
<stop offset="1" stop-color="#FEB963"/>
</linearGradient>
<linearGradient id="paint1_linear_3400_1174" x1="4.07617" y1="52" x2="556.076" y2="52" gradientUnits="userSpaceOnUse">
<stop offset="0.326923" stop-color="#FEB963"/>
<stop offset="0.677885" stop-color="#FF61E2"/>
<stop offset="1" stop-color="#FEB963"/>
</linearGradient>
</defs>
</svg>
